solid PyGamic generated __All_Crease__ SLA File
 facet normal 0.0 0.0 -1.0
  outer loop
   vertex 79.99772587654176 28.4 0
   vertex -0.00027412282408884297 28.400000000000002 0
   vertex 40.03872487685852 29.9984 0
  endloop
 endfacet
 facet normal 0.0 0.0 -1.0
  outer loop
   vertex -0.00027412282408884297 28.400000000000002 0
   vertex 39.95872687685916 29.9984 0
   vertex 40.03872487685852 29.9984 0
  endloop
 endfacet
 facet normal 0.0 0.0 -1.0
  outer loop
   vertex -0.00027412282408884297 28.400000000000002 0
   vertex -0.00027412282408884297 31.6 0
   vertex 39.95872687685916 29.9984 0
  endloop
 endfacet
 facet normal 0.0 0.0 -1.0
  outer loop
   vertex -0.00027412282408884297 31.6 0
   vertex 39.95872687685916 30.0016 0
   vertex 39.95872687685916 29.9984 0
  endloop
 endfacet
 facet normal 0.0 0.0 -1.0
  outer loop
   vertex -0.00027412282408884297 31.6 0
   vertex 79.99772587654176 31.599999999999998 0
   vertex 39.95872687685916 30.0016 0
  endloop
 endfacet
 facet normal 0.0 0.0 -1.0
  outer loop
   vertex 79.99772587654176 31.599999999999998 0
   vertex 40.03872487685852 30.0016 0
   vertex 39.95872687685916 30.0016 0
  endloop
 endfacet
 facet normal 0.0 -0.0 -1.0
  outer loop
   vertex 79.99772587654176 31.599999999999998 0
   vertex 79.99772587654176 28.4 0
   vertex 40.03872487685852 30.0016 0
  endloop
 endfacet
 facet normal 0.0 0.0 -1.0
  outer loop
   vertex 79.99772587654176 28.4 0
   vertex 40.03872487685852 29.9984 0
   vertex 40.03872487685852 30.0016 0
  endloop
 endfacet
 facet normal -4.4410031236139194e-17 -1.0 0.0
  outer loop
   vertex -0.00027412282408884297 28.400000000000002 0
   vertex 79.99772587654176 28.4 0
   vertex 79.99772587654176 28.4 0.4
  endloop
 endfacet
 facet normal -4.4410031236139194e-17 -1.0 -0.0
  outer loop
   vertex -0.00027412282408884297 28.400000000000002 0.4
   vertex -0.00027412282408884297 28.400000000000002 0
   vertex 79.99772587654176 28.4 0.4
  endloop
 endfacet
 facet normal -1.0 0.0 0.0
  outer loop
   vertex -0.00027412282408884297 31.6 0
   vertex -0.00027412282408884297 28.400000000000002 0
   vertex -0.00027412282408884297 28.400000000000002 0.4
  endloop
 endfacet
 facet normal -1.0 -0.0 -0.0
  outer loop
   vertex -0.00027412282408884297 31.6 0.4
   vertex -0.00027412282408884297 31.6 0
   vertex -0.00027412282408884297 28.400000000000002 0.4
  endloop
 endfacet
 facet normal 4.4410031236139194e-17 1.0 0.0
  outer loop
   vertex 79.99772587654176 31.599999999999998 0
   vertex -0.00027412282408884297 31.6 0
   vertex -0.00027412282408884297 31.6 0.4
  endloop
 endfacet
 facet normal 4.4410031236139194e-17 1.0 0.0
  outer loop
   vertex 79.99772587654176 31.599999999999998 0.4
   vertex 79.99772587654176 31.599999999999998 0
   vertex -0.00027412282408884297 31.6 0.4
  endloop
 endfacet
 facet normal 1.0 0.0 0.0
  outer loop
   vertex 79.99772587654176 28.4 0
   vertex 79.99772587654176 31.599999999999998 0
   vertex 79.99772587654176 31.599999999999998 0.4
  endloop
 endfacet
 facet normal 1.0 -0.0 0.0
  outer loop
   vertex 79.99772587654176 28.4 0.4
   vertex 79.99772587654176 28.4 0
   vertex 79.99772587654176 31.599999999999998 0.4
  endloop
 endfacet
 facet normal 0.0 1.0 -0.0
  outer loop
   vertex 40.03872487685852 29.9984 0
   vertex 39.95872687685916 29.9984 0
   vertex 40.03872487685852 29.9984 0.4
  endloop
 endfacet
 facet normal 0.0 1.0 0.0
  outer loop
   vertex 39.95872687685916 29.9984 0
   vertex 39.95872687685916 29.9984 0.4
   vertex 40.03872487685852 29.9984 0.4
  endloop
 endfacet
 facet normal 1.0 0.0 0.0
  outer loop
   vertex 39.95872687685916 29.9984 0
   vertex 39.95872687685916 30.0016 0
   vertex 39.95872687685916 29.9984 0.4
  endloop
 endfacet
 facet normal 1.0 0.0 -0.0
  outer loop
   vertex 39.95872687685916 30.0016 0
   vertex 39.95872687685916 30.0016 0.4
   vertex 39.95872687685916 29.9984 0.4
  endloop
 endfacet
 facet normal 0.0 -1.0 0.0
  outer loop
   vertex 39.95872687685916 30.0016 0
   vertex 40.03872487685852 30.0016 0
   vertex 39.95872687685916 30.0016 0.4
  endloop
 endfacet
 facet normal 0.0 -1.0 0.0
  outer loop
   vertex 40.03872487685852 30.0016 0
   vertex 40.03872487685852 30.0016 0.4
   vertex 39.95872687685916 30.0016 0.4
  endloop
 endfacet
 facet normal -1.0 0.0 0.0
  outer loop
   vertex 40.03872487685852 30.0016 0
   vertex 40.03872487685852 29.9984 0
   vertex 40.03872487685852 30.0016 0.4
  endloop
 endfacet
 facet normal -1.0 0.0 0.0
  outer loop
   vertex 40.03872487685852 29.9984 0
   vertex 40.03872487685852 29.9984 0.4
   vertex 40.03872487685852 30.0016 0.4
  endloop
 endfacet
 facet normal -0.0 0.0 1.0
  outer loop
   vertex -0.00027412282408884297 28.400000000000002 0.4
   vertex 79.99772587654176 28.4 0.4
   vertex 40.03872487685852 29.9984 0.4
  endloop
 endfacet
 facet normal -0.0 0.0 1.0
  outer loop
   vertex 39.95872687685916 29.9984 0.4
   vertex -0.00027412282408884297 28.400000000000002 0.4
   vertex 40.03872487685852 29.9984 0.4
  endloop
 endfacet
 facet normal 0.0 0.0 1.0
  outer loop
   vertex -0.00027412282408884297 31.6 0.4
   vertex -0.00027412282408884297 28.400000000000002 0.4
   vertex 39.95872687685916 29.9984 0.4
  endloop
 endfacet
 facet normal 0.0 0.0 1.0
  outer loop
   vertex 39.95872687685916 30.0016 0.4
   vertex -0.00027412282408884297 31.6 0.4
   vertex 39.95872687685916 29.9984 0.4
  endloop
 endfacet
 facet normal 0.0 0.0 1.0
  outer loop
   vertex 79.99772587654176 31.599999999999998 0.4
   vertex -0.00027412282408884297 31.6 0.4
   vertex 39.95872687685916 30.0016 0.4
  endloop
 endfacet
 facet normal 0.0 -0.0 1.0
  outer loop
   vertex 40.03872487685852 30.0016 0.4
   vertex 79.99772587654176 31.599999999999998 0.4
   vertex 39.95872687685916 30.0016 0.4
  endloop
 endfacet
 facet normal 0.0 -0.0 1.0
  outer loop
   vertex 79.99772587654176 28.4 0.4
   vertex 79.99772587654176 31.599999999999998 0.4
   vertex 40.03872487685852 30.0016 0.4
  endloop
 endfacet
 facet normal -0.0 0.0 1.0
  outer loop
   vertex 40.03872487685852 29.9984 0.4
   vertex 79.99772587654176 28.4 0.4
   vertex 40.03872487685852 30.0016 0.4
  endloop
 endfacet
endsolid
