solid PyGamic generated __Board__ SLA File
 facet normal 0.0 0.0 -1.0
  outer loop
   vertex -0.00027412282408884297 28.400000000000002 0
   vertex 79.99772587654176 28.4 0
   vertex 40.61803398874989 16.902113032590307 0
  endloop
 endfacet
 facet normal 0.0 0.0 -1.0
  outer loop
   vertex 79.99772587654176 28.4 0
   vertex 79.9751109871132 0.001 0
   vertex 42.0 15.0 0
  endloop
 endfacet
 facet normal 0.0 0.0 -1.0
  outer loop
   vertex 79.9751109871132 0.001 0
   vertex -0.022889012252664286 0.001 0
   vertex 39.38196601125011 13.097886967409693 0
  endloop
 endfacet
 facet normal 0.0 0.0 -1.0
  outer loop
   vertex -0.022889012252664286 0.001 0
   vertex -0.00027412282408884297 28.400000000000002 0
   vertex 39.38196601125011 16.902113032590307 0
  endloop
 endfacet
 facet normal 0.0 0.0 -1.0
  outer loop
   vertex 42.0 15.0 0
   vertex 41.95629520146761 15.41582338163552 0
   vertex 79.99772587654176 28.4 0
  endloop
 endfacet
 facet normal 0.0 -0.0 -1.0
  outer loop
   vertex 42.0 15.0 0
   vertex 79.9751109871132 0.001 0
   vertex 41.95629520146761 14.58417661836448 0
  endloop
 endfacet
 facet normal 0.0 0.0 -1.0
  outer loop
   vertex 41.95629520146761 15.41582338163552 0
   vertex 41.827090915285204 15.8134732861516 0
   vertex 79.99772587654176 28.4 0
  endloop
 endfacet
 facet normal 0.0 0.0 -1.0
  outer loop
   vertex 41.827090915285204 15.8134732861516 0
   vertex 41.61803398874989 16.175570504584947 0
   vertex 79.99772587654176 28.4 0
  endloop
 endfacet
 facet normal 0.0 0.0 -1.0
  outer loop
   vertex 41.61803398874989 16.175570504584947 0
   vertex 41.33826121271772 16.486289650954788 0
   vertex 79.99772587654176 28.4 0
  endloop
 endfacet
 facet normal 0.0 0.0 -1.0
  outer loop
   vertex 41.33826121271772 16.486289650954788 0
   vertex 41.0 16.73205080756888 0
   vertex 79.99772587654176 28.4 0
  endloop
 endfacet
 facet normal 0.0 0.0 -1.0
  outer loop
   vertex 41.0 16.73205080756888 0
   vertex 40.61803398874989 16.902113032590307 0
   vertex 79.99772587654176 28.4 0
  endloop
 endfacet
 facet normal 0.0 0.0 -1.0
  outer loop
   vertex 40.61803398874989 16.902113032590307 0
   vertex 40.209056926535304 16.989043790736545 0
   vertex -0.00027412282408884297 28.400000000000002 0
  endloop
 endfacet
 facet normal 0.0 0.0 -1.0
  outer loop
   vertex 40.209056926535304 16.989043790736545 0
   vertex 39.790943073464696 16.98904379073655 0
   vertex -0.00027412282408884297 28.400000000000002 0
  endloop
 endfacet
 facet normal -0.0 0.0 -1.0
  outer loop
   vertex 39.790943073464696 16.98904379073655 0
   vertex 39.38196601125011 16.902113032590307 0
   vertex -0.00027412282408884297 28.400000000000002 0
  endloop
 endfacet
 facet normal 0.0 0.0 -1.0
  outer loop
   vertex 39.38196601125011 16.902113032590307 0
   vertex 39.0 16.73205080756888 0
   vertex -0.022889012252664286 0.001 0
  endloop
 endfacet
 facet normal 0.0 0.0 -1.0
  outer loop
   vertex 39.0 16.73205080756888 0
   vertex 38.66173878728228 16.486289650954788 0
   vertex -0.022889012252664286 0.001 0
  endloop
 endfacet
 facet normal 0.0 0.0 -1.0
  outer loop
   vertex 38.66173878728228 16.486289650954788 0
   vertex 38.38196601125011 16.175570504584947 0
   vertex -0.022889012252664286 0.001 0
  endloop
 endfacet
 facet normal 0.0 0.0 -1.0
  outer loop
   vertex 38.38196601125011 16.175570504584947 0
   vertex 38.172909084714796 15.8134732861516 0
   vertex -0.022889012252664286 0.001 0
  endloop
 endfacet
 facet normal 0.0 0.0 -1.0
  outer loop
   vertex 38.172909084714796 15.8134732861516 0
   vertex 38.04370479853239 15.41582338163552 0
   vertex -0.022889012252664286 0.001 0
  endloop
 endfacet
 facet normal 0.0 0.0 -1.0
  outer loop
   vertex 38.04370479853239 15.41582338163552 0
   vertex 38.0 15.0 0
   vertex -0.022889012252664286 0.001 0
  endloop
 endfacet
 facet normal 0.0 -0.0 -1.0
  outer loop
   vertex 38.0 15.0 0
   vertex 38.04370479853239 14.584176618364483 0
   vertex -0.022889012252664286 0.001 0
  endloop
 endfacet
 facet normal 0.0 -0.0 -1.0
  outer loop
   vertex 38.04370479853239 14.584176618364483 0
   vertex 38.172909084714796 14.1865267138484 0
   vertex -0.022889012252664286 0.001 0
  endloop
 endfacet
 facet normal 0.0 -0.0 -1.0
  outer loop
   vertex 38.172909084714796 14.1865267138484 0
   vertex 38.38196601125011 13.824429495415053 0
   vertex -0.022889012252664286 0.001 0
  endloop
 endfacet
 facet normal 0.0 -0.0 -1.0
  outer loop
   vertex 38.38196601125011 13.824429495415053 0
   vertex 38.66173878728228 13.513710349045212 0
   vertex -0.022889012252664286 0.001 0
  endloop
 endfacet
 facet normal 0.0 -0.0 -1.0
  outer loop
   vertex 38.66173878728228 13.513710349045212 0
   vertex 39.0 13.267949192431123 0
   vertex -0.022889012252664286 0.001 0
  endloop
 endfacet
 facet normal 0.0 -0.0 -1.0
  outer loop
   vertex 39.0 13.267949192431123 0
   vertex 39.38196601125011 13.097886967409693 0
   vertex -0.022889012252664286 0.001 0
  endloop
 endfacet
 facet normal 0.0 0.0 -1.0
  outer loop
   vertex 39.38196601125011 13.097886967409693 0
   vertex 39.79094307346469 13.010956209263453 0
   vertex 79.9751109871132 0.001 0
  endloop
 endfacet
 facet normal 0.0 0.0 -1.0
  outer loop
   vertex 39.79094307346469 13.010956209263453 0
   vertex 40.209056926535304 13.010956209263453 0
   vertex 79.9751109871132 0.001 0
  endloop
 endfacet
 facet normal 0.0 0.0 -1.0
  outer loop
   vertex 40.209056926535304 13.010956209263453 0
   vertex 40.61803398874989 13.097886967409693 0
   vertex 79.9751109871132 0.001 0
  endloop
 endfacet
 facet normal 0.0 0.0 -1.0
  outer loop
   vertex 40.61803398874989 13.097886967409693 0
   vertex 41.0 13.267949192431121 0
   vertex 79.9751109871132 0.001 0
  endloop
 endfacet
 facet normal 0.0 0.0 -1.0
  outer loop
   vertex 41.0 13.267949192431121 0
   vertex 41.33826121271772 13.51371034904521 0
   vertex 79.9751109871132 0.001 0
  endloop
 endfacet
 facet normal 0.0 0.0 -1.0
  outer loop
   vertex 41.33826121271772 13.51371034904521 0
   vertex 41.61803398874989 13.824429495415053 0
   vertex 79.9751109871132 0.001 0
  endloop
 endfacet
 facet normal 0.0 0.0 -1.0
  outer loop
   vertex 41.61803398874989 13.824429495415053 0
   vertex 41.827090915285204 14.186526713848398 0
   vertex 79.9751109871132 0.001 0
  endloop
 endfacet
 facet normal 0.0 0.0 -1.0
  outer loop
   vertex 41.827090915285204 14.186526713848398 0
   vertex 41.95629520146761 14.58417661836448 0
   vertex 79.9751109871132 0.001 0
  endloop
 endfacet
 facet normal 4.4410031236139194e-17 1.0 0.0
  outer loop
   vertex 79.99772587654176 28.4 0
   vertex -0.00027412282408884297 28.400000000000002 0
   vertex -0.00027412282408884297 28.400000000000002 0.4
  endloop
 endfacet
 facet normal 4.4410031236139194e-17 1.0 0.0
  outer loop
   vertex 79.99772587654176 28.4 0.4
   vertex 79.99772587654176 28.4 0
   vertex -0.00027412282408884297 28.400000000000002 0.4
  endloop
 endfacet
 facet normal 0.9999996829318345 -0.0007963267107329712 0.0
  outer loop
   vertex 79.9751109871132 0.001 0
   vertex 79.99772587654176 28.4 0
   vertex 79.99772587654176 28.4 0.4
  endloop
 endfacet
 facet normal 0.9999996829318345 -0.0007963267107329712 0.0
  outer loop
   vertex 79.9751109871132 0.001 0.4
   vertex 79.9751109871132 0.001 0
   vertex 79.99772587654176 28.4 0.4
  endloop
 endfacet
 facet normal 0.0 -1.0 0.0
  outer loop
   vertex -0.022889012252664286 0.001 0
   vertex 79.9751109871132 0.001 0
   vertex 79.9751109871132 0.001 0.4
  endloop
 endfacet
 facet normal 0.0 -1.0 0.0
  outer loop
   vertex -0.022889012252664286 0.001 0.4
   vertex -0.022889012252664286 0.001 0
   vertex 79.9751109871132 0.001 0.4
  endloop
 endfacet
 facet normal -0.9999996829318345 0.0007963267107332629 0.0
  outer loop
   vertex -0.00027412282408884297 28.400000000000002 0
   vertex -0.022889012252664286 0.001 0
   vertex -0.022889012252664286 0.001 0.4
  endloop
 endfacet
 facet normal -0.9999996829318345 0.0007963267107332629 0.0
  outer loop
   vertex -0.00027412282408884297 28.400000000000002 0.4
   vertex -0.00027412282408884297 28.400000000000002 0
   vertex -0.022889012252664286 0.001 0.4
  endloop
 endfacet
 facet normal 0.0 0.0 1.0
  outer loop
   vertex -0.00027412282408884297 28.400000000000002 0.4
   vertex 40.61803398874989 16.902113032590307 0.4
   vertex 79.99772587654176 28.4 0.4
  endloop
 endfacet
 facet normal 0.0 0.0 1.0
  outer loop
   vertex 79.99772587654176 28.4 0.4
   vertex 42.0 15.0 0.4
   vertex 79.9751109871132 0.001 0.4
  endloop
 endfacet
 facet normal 0.0 0.0 1.0
  outer loop
   vertex 79.9751109871132 0.001 0.4
   vertex 39.38196601125011 13.097886967409693 0.4
   vertex -0.022889012252664286 0.001 0.4
  endloop
 endfacet
 facet normal 0.0 0.0 1.0
  outer loop
   vertex -0.022889012252664286 0.001 0.4
   vertex 39.38196601125011 16.902113032590307 0.4
   vertex -0.00027412282408884297 28.400000000000002 0.4
  endloop
 endfacet
 facet normal 0.0 -0.0 1.0
  outer loop
   vertex 42.0 15.0 0.4
   vertex 79.99772587654176 28.4 0.4
   vertex 41.95629520146761 15.41582338163552 0.4
  endloop
 endfacet
 facet normal 0.0 0.0 1.0
  outer loop
   vertex 42.0 15.0 0.4
   vertex 41.95629520146761 14.58417661836448 0.4
   vertex 79.9751109871132 0.001 0.4
  endloop
 endfacet
 facet normal 0.0 -0.0 1.0
  outer loop
   vertex 41.95629520146761 15.41582338163552 0.4
   vertex 79.99772587654176 28.4 0.4
   vertex 41.827090915285204 15.8134732861516 0.4
  endloop
 endfacet
 facet normal 0.0 -0.0 1.0
  outer loop
   vertex 41.827090915285204 15.8134732861516 0.4
   vertex 79.99772587654176 28.4 0.4
   vertex 41.61803398874989 16.175570504584947 0.4
  endloop
 endfacet
 facet normal 0.0 -0.0 1.0
  outer loop
   vertex 41.61803398874989 16.175570504584947 0.4
   vertex 79.99772587654176 28.4 0.4
   vertex 41.33826121271772 16.486289650954788 0.4
  endloop
 endfacet
 facet normal 0.0 -0.0 1.0
  outer loop
   vertex 41.33826121271772 16.486289650954788 0.4
   vertex 79.99772587654176 28.4 0.4
   vertex 41.0 16.73205080756888 0.4
  endloop
 endfacet
 facet normal 0.0 -0.0 1.0
  outer loop
   vertex 41.0 16.73205080756888 0.4
   vertex 79.99772587654176 28.4 0.4
   vertex 40.61803398874989 16.902113032590307 0.4
  endloop
 endfacet
 facet normal 0.0 0.0 1.0
  outer loop
   vertex 40.61803398874989 16.902113032590307 0.4
   vertex -0.00027412282408884297 28.400000000000002 0.4
   vertex 40.209056926535304 16.989043790736545 0.4
  endloop
 endfacet
 facet normal 0.0 0.0 1.0
  outer loop
   vertex 40.209056926535304 16.989043790736545 0.4
   vertex -0.00027412282408884297 28.400000000000002 0.4
   vertex 39.790943073464696 16.98904379073655 0.4
  endloop
 endfacet
 facet normal 0.0 0.0 1.0
  outer loop
   vertex 39.790943073464696 16.98904379073655 0.4
   vertex -0.00027412282408884297 28.400000000000002 0.4
   vertex 39.38196601125011 16.902113032590307 0.4
  endloop
 endfacet
 facet normal 0.0 0.0 1.0
  outer loop
   vertex 39.38196601125011 16.902113032590307 0.4
   vertex -0.022889012252664286 0.001 0.4
   vertex 39.0 16.73205080756888 0.4
  endloop
 endfacet
 facet normal 0.0 0.0 1.0
  outer loop
   vertex 39.0 16.73205080756888 0.4
   vertex -0.022889012252664286 0.001 0.4
   vertex 38.66173878728228 16.486289650954788 0.4
  endloop
 endfacet
 facet normal 0.0 0.0 1.0
  outer loop
   vertex 38.66173878728228 16.486289650954788 0.4
   vertex -0.022889012252664286 0.001 0.4
   vertex 38.38196601125011 16.175570504584947 0.4
  endloop
 endfacet
 facet normal 0.0 0.0 1.0
  outer loop
   vertex 38.38196601125011 16.175570504584947 0.4
   vertex -0.022889012252664286 0.001 0.4
   vertex 38.172909084714796 15.8134732861516 0.4
  endloop
 endfacet
 facet normal 0.0 0.0 1.0
  outer loop
   vertex 38.172909084714796 15.8134732861516 0.4
   vertex -0.022889012252664286 0.001 0.4
   vertex 38.04370479853239 15.41582338163552 0.4
  endloop
 endfacet
 facet normal 0.0 0.0 1.0
  outer loop
   vertex 38.04370479853239 15.41582338163552 0.4
   vertex -0.022889012252664286 0.001 0.4
   vertex 38.0 15.0 0.4
  endloop
 endfacet
 facet normal 0.0 0.0 1.0
  outer loop
   vertex 38.0 15.0 0.4
   vertex -0.022889012252664286 0.001 0.4
   vertex 38.04370479853239 14.584176618364483 0.4
  endloop
 endfacet
 facet normal 0.0 0.0 1.0
  outer loop
   vertex 38.04370479853239 14.584176618364483 0.4
   vertex -0.022889012252664286 0.001 0.4
   vertex 38.172909084714796 14.1865267138484 0.4
  endloop
 endfacet
 facet normal 0.0 0.0 1.0
  outer loop
   vertex 38.172909084714796 14.1865267138484 0.4
   vertex -0.022889012252664286 0.001 0.4
   vertex 38.38196601125011 13.824429495415053 0.4
  endloop
 endfacet
 facet normal 0.0 0.0 1.0
  outer loop
   vertex 38.38196601125011 13.824429495415053 0.4
   vertex -0.022889012252664286 0.001 0.4
   vertex 38.66173878728228 13.513710349045212 0.4
  endloop
 endfacet
 facet normal 0.0 0.0 1.0
  outer loop
   vertex 38.66173878728228 13.513710349045212 0.4
   vertex -0.022889012252664286 0.001 0.4
   vertex 39.0 13.267949192431123 0.4
  endloop
 endfacet
 facet normal 0.0 0.0 1.0
  outer loop
   vertex 39.0 13.267949192431123 0.4
   vertex -0.022889012252664286 0.001 0.4
   vertex 39.38196601125011 13.097886967409693 0.4
  endloop
 endfacet
 facet normal 0.0 0.0 1.0
  outer loop
   vertex 39.38196601125011 13.097886967409693 0.4
   vertex 79.9751109871132 0.001 0.4
   vertex 39.79094307346469 13.010956209263453 0.4
  endloop
 endfacet
 facet normal -0.0 0.0 1.0
  outer loop
   vertex 39.79094307346469 13.010956209263453 0.4
   vertex 79.9751109871132 0.001 0.4
   vertex 40.209056926535304 13.010956209263453 0.4
  endloop
 endfacet
 facet normal -0.0 0.0 1.0
  outer loop
   vertex 40.209056926535304 13.010956209263453 0.4
   vertex 79.9751109871132 0.001 0.4
   vertex 40.61803398874989 13.097886967409693 0.4
  endloop
 endfacet
 facet normal -0.0 0.0 1.0
  outer loop
   vertex 40.61803398874989 13.097886967409693 0.4
   vertex 79.9751109871132 0.001 0.4
   vertex 41.0 13.267949192431121 0.4
  endloop
 endfacet
 facet normal -0.0 0.0 1.0
  outer loop
   vertex 41.0 13.267949192431121 0.4
   vertex 79.9751109871132 0.001 0.4
   vertex 41.33826121271772 13.51371034904521 0.4
  endloop
 endfacet
 facet normal -0.0 0.0 1.0
  outer loop
   vertex 41.33826121271772 13.51371034904521 0.4
   vertex 79.9751109871132 0.001 0.4
   vertex 41.61803398874989 13.824429495415053 0.4
  endloop
 endfacet
 facet normal -0.0 0.0 1.0
  outer loop
   vertex 41.61803398874989 13.824429495415053 0.4
   vertex 79.9751109871132 0.001 0.4
   vertex 41.827090915285204 14.186526713848398 0.4
  endloop
 endfacet
 facet normal -0.0 0.0 1.0
  outer loop
   vertex 41.827090915285204 14.186526713848398 0.4
   vertex 79.9751109871132 0.001 0.4
   vertex 41.95629520146761 14.58417661836448 0.4
  endloop
 endfacet
 facet normal -0.9945218953682734 -0.1045284632676531 0.0
  outer loop
   vertex 42.0 15.0 0
   vertex 42.0 15.0 0.4
   vertex 41.95629520146761 15.41582338163552 0
  endloop
 endfacet
 facet normal -0.9945218953682734 -0.1045284632676531 0.0
  outer loop
   vertex 41.95629520146761 15.41582338163552 0
   vertex 42.0 15.0 0.4
   vertex 41.95629520146761 15.41582338163552 0.4
  endloop
 endfacet
 facet normal -0.9510565162951551 -0.30901699437494295 0.0
  outer loop
   vertex 41.95629520146761 15.41582338163552 0
   vertex 41.95629520146761 15.41582338163552 0.4
   vertex 41.827090915285204 15.8134732861516 0
  endloop
 endfacet
 facet normal -0.9510565162951551 -0.30901699437494295 0.0
  outer loop
   vertex 41.827090915285204 15.8134732861516 0
   vertex 41.95629520146761 15.41582338163552 0.4
   vertex 41.827090915285204 15.8134732861516 0.4
  endloop
 endfacet
 facet normal -0.8660254037844348 -0.5000000000000068 0.0
  outer loop
   vertex 41.827090915285204 15.8134732861516 0
   vertex 41.827090915285204 15.8134732861516 0.4
   vertex 41.61803398874989 16.175570504584947 0
  endloop
 endfacet
 facet normal -0.8660254037844348 -0.5000000000000068 0.0
  outer loop
   vertex 41.61803398874989 16.175570504584947 0
   vertex 41.827090915285204 15.8134732861516 0.4
   vertex 41.61803398874989 16.175570504584947 0.4
  endloop
 endfacet
 facet normal -0.7431448254773976 -0.6691306063588546 0.0
  outer loop
   vertex 41.61803398874989 16.175570504584947 0
   vertex 41.61803398874989 16.175570504584947 0.4
   vertex 41.33826121271772 16.486289650954788 0
  endloop
 endfacet
 facet normal -0.7431448254773976 -0.6691306063588546 0.0
  outer loop
   vertex 41.33826121271772 16.486289650954788 0
   vertex 41.61803398874989 16.175570504584947 0.4
   vertex 41.33826121271772 16.486289650954788 0.4
  endloop
 endfacet
 facet normal -0.5877852522924736 -0.809016994374947 0.0
  outer loop
   vertex 41.33826121271772 16.486289650954788 0
   vertex 41.33826121271772 16.486289650954788 0.4
   vertex 41.0 16.73205080756888 0
  endloop
 endfacet
 facet normal -0.5877852522924736 -0.809016994374947 0.0
  outer loop
   vertex 41.0 16.73205080756888 0
   vertex 41.33826121271772 16.486289650954788 0.4
   vertex 41.0 16.73205080756888 0.4
  endloop
 endfacet
 facet normal -0.4067366430757965 -0.9135454576426025 0.0
  outer loop
   vertex 41.0 16.73205080756888 0
   vertex 41.0 16.73205080756888 0.4
   vertex 40.61803398874989 16.902113032590307 0
  endloop
 endfacet
 facet normal -0.4067366430757965 -0.9135454576426025 0.0
  outer loop
   vertex 40.61803398874989 16.902113032590307 0
   vertex 41.0 16.73205080756888 0.4
   vertex 40.61803398874989 16.902113032590307 0.4
  endloop
 endfacet
 facet normal -0.20791169081775515 -0.9781476007338066 0.0
  outer loop
   vertex 40.61803398874989 16.902113032590307 0
   vertex 40.61803398874989 16.902113032590307 0.4
   vertex 40.209056926535304 16.989043790736545 0
  endloop
 endfacet
 facet normal -0.20791169081775515 -0.9781476007338066 0.0
  outer loop
   vertex 40.209056926535304 16.989043790736545 0
   vertex 40.61803398874989 16.902113032590307 0.4
   vertex 40.209056926535304 16.989043790736545 0.4
  endloop
 endfacet
 facet normal -8.497000643986186e-15 -1.0 0.0
  outer loop
   vertex 40.209056926535304 16.989043790736545 0
   vertex 40.209056926535304 16.989043790736545 0.4
   vertex 39.790943073464696 16.98904379073655 0
  endloop
 endfacet
 facet normal -8.497000643986186e-15 -1.0 0.0
  outer loop
   vertex 39.790943073464696 16.98904379073655 0
   vertex 40.209056926535304 16.989043790736545 0.4
   vertex 39.790943073464696 16.98904379073655 0.4
  endloop
 endfacet
 facet normal 0.20791169081776328 -0.9781476007338048 0.0
  outer loop
   vertex 39.790943073464696 16.98904379073655 0
   vertex 39.790943073464696 16.98904379073655 0.4
   vertex 39.38196601125011 16.902113032590307 0
  endloop
 endfacet
 facet normal 0.20791169081776328 -0.9781476007338048 0.0
  outer loop
   vertex 39.38196601125011 16.902113032590307 0
   vertex 39.790943073464696 16.98904379073655 0.4
   vertex 39.38196601125011 16.902113032590307 0.4
  endloop
 endfacet
 facet normal 0.4067366430757965 -0.9135454576426025 0.0
  outer loop
   vertex 39.38196601125011 16.902113032590307 0
   vertex 39.38196601125011 16.902113032590307 0.4
   vertex 39.0 16.73205080756888 0
  endloop
 endfacet
 facet normal 0.4067366430757965 -0.9135454576426025 0.0
  outer loop
   vertex 39.0 16.73205080756888 0
   vertex 39.38196601125011 16.902113032590307 0.4
   vertex 39.0 16.73205080756888 0.4
  endloop
 endfacet
 facet normal 0.5877852522924736 -0.809016994374947 0.0
  outer loop
   vertex 39.0 16.73205080756888 0
   vertex 39.0 16.73205080756888 0.4
   vertex 38.66173878728228 16.486289650954788 0
  endloop
 endfacet
 facet normal 0.5877852522924736 -0.809016994374947 0.0
  outer loop
   vertex 38.66173878728228 16.486289650954788 0
   vertex 39.0 16.73205080756888 0.4
   vertex 38.66173878728228 16.486289650954788 0.4
  endloop
 endfacet
 facet normal 0.7431448254773976 -0.6691306063588546 0.0
  outer loop
   vertex 38.66173878728228 16.486289650954788 0
   vertex 38.66173878728228 16.486289650954788 0.4
   vertex 38.38196601125011 16.175570504584947 0
  endloop
 endfacet
 facet normal 0.7431448254773976 -0.6691306063588546 0.0
  outer loop
   vertex 38.38196601125011 16.175570504584947 0
   vertex 38.66173878728228 16.486289650954788 0.4
   vertex 38.38196601125011 16.175570504584947 0.4
  endloop
 endfacet
 facet normal 0.8660254037844348 -0.5000000000000068 0.0
  outer loop
   vertex 38.38196601125011 16.175570504584947 0
   vertex 38.38196601125011 16.175570504584947 0.4
   vertex 38.172909084714796 15.8134732861516 0
  endloop
 endfacet
 facet normal 0.8660254037844348 -0.5000000000000068 0.0
  outer loop
   vertex 38.172909084714796 15.8134732861516 0
   vertex 38.38196601125011 16.175570504584947 0.4
   vertex 38.172909084714796 15.8134732861516 0.4
  endloop
 endfacet
 facet normal 0.9510565162951551 -0.30901699437494295 0.0
  outer loop
   vertex 38.172909084714796 15.8134732861516 0
   vertex 38.172909084714796 15.8134732861516 0.4
   vertex 38.04370479853239 15.41582338163552 0
  endloop
 endfacet
 facet normal 0.9510565162951551 -0.30901699437494295 0.0
  outer loop
   vertex 38.04370479853239 15.41582338163552 0
   vertex 38.172909084714796 15.8134732861516 0.4
   vertex 38.04370479853239 15.41582338163552 0.4
  endloop
 endfacet
 facet normal 0.9945218953682734 -0.1045284632676531 0.0
  outer loop
   vertex 38.04370479853239 15.41582338163552 0
   vertex 38.04370479853239 15.41582338163552 0.4
   vertex 38.0 15.0 0
  endloop
 endfacet
 facet normal 0.9945218953682734 -0.1045284632676531 0.0
  outer loop
   vertex 38.0 15.0 0
   vertex 38.04370479853239 15.41582338163552 0.4
   vertex 38.0 15.0 0.4
  endloop
 endfacet
 facet normal 0.9945218953682734 0.10452846326765353 -0.0
  outer loop
   vertex 38.0 15.0 0
   vertex 38.0 15.0 0.4
   vertex 38.04370479853239 14.584176618364483 0
  endloop
 endfacet
 facet normal 0.9945218953682734 0.10452846326765353 -0.0
  outer loop
   vertex 38.04370479853239 14.584176618364483 0
   vertex 38.0 15.0 0.4
   vertex 38.04370479853239 14.584176618364483 0.4
  endloop
 endfacet
 facet normal 0.9510565162951554 0.3090169943749417 -0.0
  outer loop
   vertex 38.04370479853239 14.584176618364483 0
   vertex 38.04370479853239 14.584176618364483 0.4
   vertex 38.172909084714796 14.1865267138484 0
  endloop
 endfacet
 facet normal 0.9510565162951554 0.3090169943749417 -0.0
  outer loop
   vertex 38.172909084714796 14.1865267138484 0
   vertex 38.04370479853239 14.584176618364483 0.4
   vertex 38.172909084714796 14.1865267138484 0.4
  endloop
 endfacet
 facet normal 0.8660254037844348 0.5000000000000068 -0.0
  outer loop
   vertex 38.172909084714796 14.1865267138484 0
   vertex 38.172909084714796 14.1865267138484 0.4
   vertex 38.38196601125011 13.824429495415053 0
  endloop
 endfacet
 facet normal 0.8660254037844348 0.5000000000000068 -0.0
  outer loop
   vertex 38.38196601125011 13.824429495415053 0
   vertex 38.172909084714796 14.1865267138484 0.4
   vertex 38.38196601125011 13.824429495415053 0.4
  endloop
 endfacet
 facet normal 0.7431448254773976 0.6691306063588546 -0.0
  outer loop
   vertex 38.38196601125011 13.824429495415053 0
   vertex 38.38196601125011 13.824429495415053 0.4
   vertex 38.66173878728228 13.513710349045212 0
  endloop
 endfacet
 facet normal 0.7431448254773976 0.6691306063588546 -0.0
  outer loop
   vertex 38.66173878728228 13.513710349045212 0
   vertex 38.38196601125011 13.824429495415053 0.4
   vertex 38.66173878728228 13.513710349045212 0.4
  endloop
 endfacet
 facet normal 0.5877852522924709 0.8090169943749491 -0.0
  outer loop
   vertex 38.66173878728228 13.513710349045212 0
   vertex 38.66173878728228 13.513710349045212 0.4
   vertex 39.0 13.267949192431123 0
  endloop
 endfacet
 facet normal 0.5877852522924709 0.8090169943749491 -0.0
  outer loop
   vertex 39.0 13.267949192431123 0
   vertex 38.66173878728228 13.513710349045212 0.4
   vertex 39.0 13.267949192431123 0.4
  endloop
 endfacet
 facet normal 0.40673664307580004 0.913545457642601 -0.0
  outer loop
   vertex 39.0 13.267949192431123 0
   vertex 39.0 13.267949192431123 0.4
   vertex 39.38196601125011 13.097886967409693 0
  endloop
 endfacet
 facet normal 0.40673664307580004 0.913545457642601 -0.0
  outer loop
   vertex 39.38196601125011 13.097886967409693 0
   vertex 39.0 13.267949192431123 0.4
   vertex 39.38196601125011 13.097886967409693 0.4
  endloop
 endfacet
 facet normal 0.20791169081776262 0.9781476007338049 -0.0
  outer loop
   vertex 39.38196601125011 13.097886967409693 0
   vertex 39.38196601125011 13.097886967409693 0.4
   vertex 39.79094307346469 13.010956209263453 0
  endloop
 endfacet
 facet normal 0.20791169081776262 0.9781476007338049 -0.0
  outer loop
   vertex 39.79094307346469 13.010956209263453 0
   vertex 39.38196601125011 13.097886967409693 0.4
   vertex 39.79094307346469 13.010956209263453 0.4
  endloop
 endfacet
 facet normal 0.0 1.0 0.0
  outer loop
   vertex 39.79094307346469 13.010956209263453 0
   vertex 39.79094307346469 13.010956209263453 0.4
   vertex 40.209056926535304 13.010956209263453 0
  endloop
 endfacet
 facet normal 0.0 1.0 -0.0
  outer loop
   vertex 40.209056926535304 13.010956209263453 0
   vertex 39.79094307346469 13.010956209263453 0.4
   vertex 40.209056926535304 13.010956209263453 0.4
  endloop
 endfacet
 facet normal -0.2079116908177592 0.9781476007338058 0.0
  outer loop
   vertex 40.209056926535304 13.010956209263453 0
   vertex 40.209056926535304 13.010956209263453 0.4
   vertex 40.61803398874989 13.097886967409693 0
  endloop
 endfacet
 facet normal -0.2079116908177592 0.9781476007338058 0.0
  outer loop
   vertex 40.61803398874989 13.097886967409693 0
   vertex 40.209056926535304 13.010956209263453 0.4
   vertex 40.61803398874989 13.097886967409693 0.4
  endloop
 endfacet
 facet normal -0.4067366430757965 0.9135454576426025 0.0
  outer loop
   vertex 40.61803398874989 13.097886967409693 0
   vertex 40.61803398874989 13.097886967409693 0.4
   vertex 41.0 13.267949192431121 0
  endloop
 endfacet
 facet normal -0.4067366430757965 0.9135454576426025 0.0
  outer loop
   vertex 41.0 13.267949192431121 0
   vertex 40.61803398874989 13.097886967409693 0.4
   vertex 41.0 13.267949192431121 0.4
  endloop
 endfacet
 facet normal -0.5877852522924709 0.8090169943749491 0.0
  outer loop
   vertex 41.0 13.267949192431121 0
   vertex 41.0 13.267949192431121 0.4
   vertex 41.33826121271772 13.51371034904521 0
  endloop
 endfacet
 facet normal -0.5877852522924709 0.8090169943749491 0.0
  outer loop
   vertex 41.33826121271772 13.51371034904521 0
   vertex 41.0 13.267949192431121 0.4
   vertex 41.33826121271772 13.51371034904521 0.4
  endloop
 endfacet
 facet normal -0.7431448254773995 0.6691306063588525 0.0
  outer loop
   vertex 41.33826121271772 13.51371034904521 0
   vertex 41.33826121271772 13.51371034904521 0.4
   vertex 41.61803398874989 13.824429495415053 0
  endloop
 endfacet
 facet normal -0.7431448254773995 0.6691306063588525 0.0
  outer loop
   vertex 41.61803398874989 13.824429495415053 0
   vertex 41.33826121271772 13.51371034904521 0.4
   vertex 41.61803398874989 13.824429495415053 0.4
  endloop
 endfacet
 facet normal -0.8660254037844336 0.5000000000000087 0.0
  outer loop
   vertex 41.61803398874989 13.824429495415053 0
   vertex 41.61803398874989 13.824429495415053 0.4
   vertex 41.827090915285204 14.186526713848398 0
  endloop
 endfacet
 facet normal -0.8660254037844336 0.5000000000000087 0.0
  outer loop
   vertex 41.827090915285204 14.186526713848398 0
   vertex 41.61803398874989 13.824429495415053 0.4
   vertex 41.827090915285204 14.186526713848398 0.4
  endloop
 endfacet
 facet normal -0.9510565162951554 0.3090169943749417 0.0
  outer loop
   vertex 41.827090915285204 14.186526713848398 0
   vertex 41.827090915285204 14.186526713848398 0.4
   vertex 41.95629520146761 14.58417661836448 0
  endloop
 endfacet
 facet normal -0.9510565162951554 0.3090169943749417 0.0
  outer loop
   vertex 41.95629520146761 14.58417661836448 0
   vertex 41.827090915285204 14.186526713848398 0.4
   vertex 41.95629520146761 14.58417661836448 0.4
  endloop
 endfacet
 facet normal -0.9945218953682734 0.1045284632676531 0.0
  outer loop
   vertex 41.95629520146761 14.58417661836448 0
   vertex 41.95629520146761 14.58417661836448 0.4
   vertex 42.0 15.0 0
  endloop
 endfacet
 facet normal -0.9945218953682734 0.1045284632676531 0.0
  outer loop
   vertex 42.0 15.0 0
   vertex 41.95629520146761 14.58417661836448 0.4
   vertex 42.0 15.0 0.4
  endloop
 endfacet
 facet normal 0.0 0.0 -1.0
  outer loop
   vertex 79.99772587654176 31.599999999999998 0
   vertex -0.00027412282408884297 31.6 0
   vertex 39.38196601125011 43.09788696740969 0
  endloop
 endfacet
 facet normal 0.0 0.0 -1.0
  outer loop
   vertex -0.00027412282408884297 31.6 0
   vertex -0.02288901225266429 59.999 0
   vertex 39.38196601125011 46.90211303259031 0
  endloop
 endfacet
 facet normal 0.0 0.0 -1.0
  outer loop
   vertex -0.02288901225266429 59.999 0
   vertex 79.9751109871132 59.998999999999995 0
   vertex 40.61803398874989 46.90211303259031 0
  endloop
 endfacet
 facet normal 0.0 -0.0 -1.0
  outer loop
   vertex 79.9751109871132 59.998999999999995 0
   vertex 79.99772587654176 31.599999999999998 0
   vertex 42.0 45.0 0
  endloop
 endfacet
 facet normal 0.0 -0.0 -1.0
  outer loop
   vertex 42.0 45.0 0
   vertex 79.99772587654176 31.599999999999998 0
   vertex 41.95629520146761 44.58417661836448 0
  endloop
 endfacet
 facet normal 0.0 0.0 -1.0
  outer loop
   vertex 42.0 45.0 0
   vertex 41.95629520146761 45.41582338163552 0
   vertex 79.9751109871132 59.998999999999995 0
  endloop
 endfacet
 facet normal 0.0 0.0 -1.0
  outer loop
   vertex 41.95629520146761 45.41582338163552 0
   vertex 41.827090915285204 45.8134732861516 0
   vertex 79.9751109871132 59.998999999999995 0
  endloop
 endfacet
 facet normal 0.0 0.0 -1.0
  outer loop
   vertex 41.827090915285204 45.8134732861516 0
   vertex 41.61803398874989 46.17557050458495 0
   vertex 79.9751109871132 59.998999999999995 0
  endloop
 endfacet
 facet normal 0.0 0.0 -1.0
  outer loop
   vertex 41.61803398874989 46.17557050458495 0
   vertex 41.33826121271772 46.48628965095479 0
   vertex 79.9751109871132 59.998999999999995 0
  endloop
 endfacet
 facet normal 0.0 0.0 -1.0
  outer loop
   vertex 41.33826121271772 46.48628965095479 0
   vertex 41.0 46.732050807568875 0
   vertex 79.9751109871132 59.998999999999995 0
  endloop
 endfacet
 facet normal 0.0 0.0 -1.0
  outer loop
   vertex 41.0 46.732050807568875 0
   vertex 40.61803398874989 46.90211303259031 0
   vertex 79.9751109871132 59.998999999999995 0
  endloop
 endfacet
 facet normal 0.0 0.0 -1.0
  outer loop
   vertex 40.61803398874989 46.90211303259031 0
   vertex 40.209056926535304 46.989043790736545 0
   vertex -0.02288901225266429 59.999 0
  endloop
 endfacet
 facet normal 0.0 0.0 -1.0
  outer loop
   vertex 40.209056926535304 46.989043790736545 0
   vertex 39.790943073464696 46.989043790736545 0
   vertex -0.02288901225266429 59.999 0
  endloop
 endfacet
 facet normal -0.0 0.0 -1.0
  outer loop
   vertex 39.790943073464696 46.989043790736545 0
   vertex 39.38196601125011 46.90211303259031 0
   vertex -0.02288901225266429 59.999 0
  endloop
 endfacet
 facet normal 0.0 0.0 -1.0
  outer loop
   vertex 39.38196601125011 46.90211303259031 0
   vertex 39.0 46.732050807568875 0
   vertex -0.00027412282408884297 31.6 0
  endloop
 endfacet
 facet normal 0.0 0.0 -1.0
  outer loop
   vertex 39.0 46.732050807568875 0
   vertex 38.66173878728228 46.48628965095479 0
   vertex -0.00027412282408884297 31.6 0
  endloop
 endfacet
 facet normal 0.0 0.0 -1.0
  outer loop
   vertex 38.66173878728228 46.48628965095479 0
   vertex 38.38196601125011 46.17557050458495 0
   vertex -0.00027412282408884297 31.6 0
  endloop
 endfacet
 facet normal 0.0 0.0 -1.0
  outer loop
   vertex 38.38196601125011 46.17557050458495 0
   vertex 38.172909084714796 45.8134732861516 0
   vertex -0.00027412282408884297 31.6 0
  endloop
 endfacet
 facet normal 0.0 0.0 -1.0
  outer loop
   vertex 38.172909084714796 45.8134732861516 0
   vertex 38.04370479853239 45.41582338163552 0
   vertex -0.00027412282408884297 31.6 0
  endloop
 endfacet
 facet normal 0.0 0.0 -1.0
  outer loop
   vertex 38.04370479853239 45.41582338163552 0
   vertex 38.0 45.0 0
   vertex -0.00027412282408884297 31.6 0
  endloop
 endfacet
 facet normal 0.0 -0.0 -1.0
  outer loop
   vertex 38.0 45.0 0
   vertex 38.04370479853239 44.58417661836448 0
   vertex -0.00027412282408884297 31.6 0
  endloop
 endfacet
 facet normal 0.0 -0.0 -1.0
  outer loop
   vertex 38.04370479853239 44.58417661836448 0
   vertex 38.172909084714796 44.1865267138484 0
   vertex -0.00027412282408884297 31.6 0
  endloop
 endfacet
 facet normal 0.0 -0.0 -1.0
  outer loop
   vertex 38.172909084714796 44.1865267138484 0
   vertex 38.38196601125011 43.82442949541505 0
   vertex -0.00027412282408884297 31.6 0
  endloop
 endfacet
 facet normal 0.0 -0.0 -1.0
  outer loop
   vertex 38.38196601125011 43.82442949541505 0
   vertex 38.66173878728228 43.51371034904521 0
   vertex -0.00027412282408884297 31.6 0
  endloop
 endfacet
 facet normal 0.0 -0.0 -1.0
  outer loop
   vertex 38.66173878728228 43.51371034904521 0
   vertex 39.0 43.267949192431125 0
   vertex -0.00027412282408884297 31.6 0
  endloop
 endfacet
 facet normal 0.0 -0.0 -1.0
  outer loop
   vertex 39.0 43.267949192431125 0
   vertex 39.38196601125011 43.09788696740969 0
   vertex -0.00027412282408884297 31.6 0
  endloop
 endfacet
 facet normal 0.0 0.0 -1.0
  outer loop
   vertex 39.38196601125011 43.09788696740969 0
   vertex 39.79094307346469 43.010956209263455 0
   vertex 79.99772587654176 31.599999999999998 0
  endloop
 endfacet
 facet normal 0.0 0.0 -1.0
  outer loop
   vertex 39.79094307346469 43.010956209263455 0
   vertex 40.209056926535304 43.010956209263455 0
   vertex 79.99772587654176 31.599999999999998 0
  endloop
 endfacet
 facet normal 0.0 0.0 -1.0
  outer loop
   vertex 40.209056926535304 43.010956209263455 0
   vertex 40.61803398874989 43.09788696740969 0
   vertex 79.99772587654176 31.599999999999998 0
  endloop
 endfacet
 facet normal 0.0 0.0 -1.0
  outer loop
   vertex 40.61803398874989 43.09788696740969 0
   vertex 41.0 43.26794919243112 0
   vertex 79.99772587654176 31.599999999999998 0
  endloop
 endfacet
 facet normal 0.0 0.0 -1.0
  outer loop
   vertex 41.0 43.26794919243112 0
   vertex 41.33826121271772 43.51371034904521 0
   vertex 79.99772587654176 31.599999999999998 0
  endloop
 endfacet
 facet normal 0.0 0.0 -1.0
  outer loop
   vertex 41.33826121271772 43.51371034904521 0
   vertex 41.61803398874989 43.82442949541505 0
   vertex 79.99772587654176 31.599999999999998 0
  endloop
 endfacet
 facet normal 0.0 0.0 -1.0
  outer loop
   vertex 41.61803398874989 43.82442949541505 0
   vertex 41.827090915285204 44.186526713848394 0
   vertex 79.99772587654176 31.599999999999998 0
  endloop
 endfacet
 facet normal 0.0 0.0 -1.0
  outer loop
   vertex 41.827090915285204 44.186526713848394 0
   vertex 41.95629520146761 44.58417661836448 0
   vertex 79.99772587654176 31.599999999999998 0
  endloop
 endfacet
 facet normal -4.4410031236139194e-17 -1.0 0.0
  outer loop
   vertex -0.00027412282408884297 31.6 0
   vertex 79.99772587654176 31.599999999999998 0
   vertex 79.99772587654176 31.599999999999998 0.4
  endloop
 endfacet
 facet normal -4.4410031236139194e-17 -1.0 -0.0
  outer loop
   vertex -0.00027412282408884297 31.6 0.4
   vertex -0.00027412282408884297 31.6 0
   vertex 79.99772587654176 31.599999999999998 0.4
  endloop
 endfacet
 facet normal -0.9999996829318345 -0.0007963267107332631 0.0
  outer loop
   vertex -0.02288901225266429 59.999 0
   vertex -0.00027412282408884297 31.6 0
   vertex -0.00027412282408884297 31.6 0.4
  endloop
 endfacet
 facet normal -0.9999996829318345 -0.0007963267107332631 -0.0
  outer loop
   vertex -0.02288901225266429 59.999 0.4
   vertex -0.02288901225266429 59.999 0
   vertex -0.00027412282408884297 31.6 0.4
  endloop
 endfacet
 facet normal 8.882006247227839e-17 1.0 0.0
  outer loop
   vertex 79.9751109871132 59.998999999999995 0
   vertex -0.02288901225266429 59.999 0
   vertex -0.02288901225266429 59.999 0.4
  endloop
 endfacet
 facet normal 8.882006247227839e-17 1.0 0.0
  outer loop
   vertex 79.9751109871132 59.998999999999995 0.4
   vertex 79.9751109871132 59.998999999999995 0
   vertex -0.02288901225266429 59.999 0.4
  endloop
 endfacet
 facet normal 0.9999996829318345 0.0007963267107329712 0.0
  outer loop
   vertex 79.99772587654176 31.599999999999998 0
   vertex 79.9751109871132 59.998999999999995 0
   vertex 79.9751109871132 59.998999999999995 0.4
  endloop
 endfacet
 facet normal 0.9999996829318345 0.0007963267107329712 0.0
  outer loop
   vertex 79.99772587654176 31.599999999999998 0.4
   vertex 79.99772587654176 31.599999999999998 0
   vertex 79.9751109871132 59.998999999999995 0.4
  endloop
 endfacet
 facet normal 0.0 0.0 1.0
  outer loop
   vertex 79.99772587654176 31.599999999999998 0.4
   vertex 39.38196601125011 43.09788696740969 0.4
   vertex -0.00027412282408884297 31.6 0.4
  endloop
 endfacet
 facet normal 0.0 -0.0 1.0
  outer loop
   vertex -0.00027412282408884297 31.6 0.4
   vertex 39.38196601125011 46.90211303259031 0.4
   vertex -0.02288901225266429 59.999 0.4
  endloop
 endfacet
 facet normal 0.0 0.0 1.0
  outer loop
   vertex -0.02288901225266429 59.999 0.4
   vertex 40.61803398874989 46.90211303259031 0.4
   vertex 79.9751109871132 59.998999999999995 0.4
  endloop
 endfacet
 facet normal 0.0 0.0 1.0
  outer loop
   vertex 79.9751109871132 59.998999999999995 0.4
   vertex 42.0 45.0 0.4
   vertex 79.99772587654176 31.599999999999998 0.4
  endloop
 endfacet
 facet normal 0.0 0.0 1.0
  outer loop
   vertex 42.0 45.0 0.4
   vertex 41.95629520146761 44.58417661836448 0.4
   vertex 79.99772587654176 31.599999999999998 0.4
  endloop
 endfacet
 facet normal 0.0 -0.0 1.0
  outer loop
   vertex 42.0 45.0 0.4
   vertex 79.9751109871132 59.998999999999995 0.4
   vertex 41.95629520146761 45.41582338163552 0.4
  endloop
 endfacet
 facet normal 0.0 -0.0 1.0
  outer loop
   vertex 41.95629520146761 45.41582338163552 0.4
   vertex 79.9751109871132 59.998999999999995 0.4
   vertex 41.827090915285204 45.8134732861516 0.4
  endloop
 endfacet
 facet normal 0.0 -0.0 1.0
  outer loop
   vertex 41.827090915285204 45.8134732861516 0.4
   vertex 79.9751109871132 59.998999999999995 0.4
   vertex 41.61803398874989 46.17557050458495 0.4
  endloop
 endfacet
 facet normal 0.0 -0.0 1.0
  outer loop
   vertex 41.61803398874989 46.17557050458495 0.4
   vertex 79.9751109871132 59.998999999999995 0.4
   vertex 41.33826121271772 46.48628965095479 0.4
  endloop
 endfacet
 facet normal 0.0 -0.0 1.0
  outer loop
   vertex 41.33826121271772 46.48628965095479 0.4
   vertex 79.9751109871132 59.998999999999995 0.4
   vertex 41.0 46.732050807568875 0.4
  endloop
 endfacet
 facet normal 0.0 -0.0 1.0
  outer loop
   vertex 41.0 46.732050807568875 0.4
   vertex 79.9751109871132 59.998999999999995 0.4
   vertex 40.61803398874989 46.90211303259031 0.4
  endloop
 endfacet
 facet normal 0.0 0.0 1.0
  outer loop
   vertex 40.61803398874989 46.90211303259031 0.4
   vertex -0.02288901225266429 59.999 0.4
   vertex 40.209056926535304 46.989043790736545 0.4
  endloop
 endfacet
 facet normal 0.0 0.0 1.0
  outer loop
   vertex 40.209056926535304 46.989043790736545 0.4
   vertex -0.02288901225266429 59.999 0.4
   vertex 39.790943073464696 46.989043790736545 0.4
  endloop
 endfacet
 facet normal 0.0 0.0 1.0
  outer loop
   vertex 39.790943073464696 46.989043790736545 0.4
   vertex -0.02288901225266429 59.999 0.4
   vertex 39.38196601125011 46.90211303259031 0.4
  endloop
 endfacet
 facet normal 0.0 0.0 1.0
  outer loop
   vertex 39.38196601125011 46.90211303259031 0.4
   vertex -0.00027412282408884297 31.6 0.4
   vertex 39.0 46.732050807568875 0.4
  endloop
 endfacet
 facet normal 0.0 0.0 1.0
  outer loop
   vertex 39.0 46.732050807568875 0.4
   vertex -0.00027412282408884297 31.6 0.4
   vertex 38.66173878728228 46.48628965095479 0.4
  endloop
 endfacet
 facet normal 0.0 0.0 1.0
  outer loop
   vertex 38.66173878728228 46.48628965095479 0.4
   vertex -0.00027412282408884297 31.6 0.4
   vertex 38.38196601125011 46.17557050458495 0.4
  endloop
 endfacet
 facet normal 0.0 0.0 1.0
  outer loop
   vertex 38.38196601125011 46.17557050458495 0.4
   vertex -0.00027412282408884297 31.6 0.4
   vertex 38.172909084714796 45.8134732861516 0.4
  endloop
 endfacet
 facet normal 0.0 0.0 1.0
  outer loop
   vertex 38.172909084714796 45.8134732861516 0.4
   vertex -0.00027412282408884297 31.6 0.4
   vertex 38.04370479853239 45.41582338163552 0.4
  endloop
 endfacet
 facet normal 0.0 0.0 1.0
  outer loop
   vertex 38.04370479853239 45.41582338163552 0.4
   vertex -0.00027412282408884297 31.6 0.4
   vertex 38.0 45.0 0.4
  endloop
 endfacet
 facet normal 0.0 0.0 1.0
  outer loop
   vertex 38.0 45.0 0.4
   vertex -0.00027412282408884297 31.6 0.4
   vertex 38.04370479853239 44.58417661836448 0.4
  endloop
 endfacet
 facet normal 0.0 0.0 1.0
  outer loop
   vertex 38.04370479853239 44.58417661836448 0.4
   vertex -0.00027412282408884297 31.6 0.4
   vertex 38.172909084714796 44.1865267138484 0.4
  endloop
 endfacet
 facet normal 0.0 0.0 1.0
  outer loop
   vertex 38.172909084714796 44.1865267138484 0.4
   vertex -0.00027412282408884297 31.6 0.4
   vertex 38.38196601125011 43.82442949541505 0.4
  endloop
 endfacet
 facet normal 0.0 0.0 1.0
  outer loop
   vertex 38.38196601125011 43.82442949541505 0.4
   vertex -0.00027412282408884297 31.6 0.4
   vertex 38.66173878728228 43.51371034904521 0.4
  endloop
 endfacet
 facet normal 0.0 0.0 1.0
  outer loop
   vertex 38.66173878728228 43.51371034904521 0.4
   vertex -0.00027412282408884297 31.6 0.4
   vertex 39.0 43.267949192431125 0.4
  endloop
 endfacet
 facet normal 0.0 0.0 1.0
  outer loop
   vertex 39.0 43.267949192431125 0.4
   vertex -0.00027412282408884297 31.6 0.4
   vertex 39.38196601125011 43.09788696740969 0.4
  endloop
 endfacet
 facet normal 0.0 0.0 1.0
  outer loop
   vertex 39.38196601125011 43.09788696740969 0.4
   vertex 79.99772587654176 31.599999999999998 0.4
   vertex 39.79094307346469 43.010956209263455 0.4
  endloop
 endfacet
 facet normal -0.0 0.0 1.0
  outer loop
   vertex 39.79094307346469 43.010956209263455 0.4
   vertex 79.99772587654176 31.599999999999998 0.4
   vertex 40.209056926535304 43.010956209263455 0.4
  endloop
 endfacet
 facet normal -0.0 0.0 1.0
  outer loop
   vertex 40.209056926535304 43.010956209263455 0.4
   vertex 79.99772587654176 31.599999999999998 0.4
   vertex 40.61803398874989 43.09788696740969 0.4
  endloop
 endfacet
 facet normal -0.0 0.0 1.0
  outer loop
   vertex 40.61803398874989 43.09788696740969 0.4
   vertex 79.99772587654176 31.599999999999998 0.4
   vertex 41.0 43.26794919243112 0.4
  endloop
 endfacet
 facet normal -0.0 0.0 1.0
  outer loop
   vertex 41.0 43.26794919243112 0.4
   vertex 79.99772587654176 31.599999999999998 0.4
   vertex 41.33826121271772 43.51371034904521 0.4
  endloop
 endfacet
 facet normal -0.0 0.0 1.0
  outer loop
   vertex 41.33826121271772 43.51371034904521 0.4
   vertex 79.99772587654176 31.599999999999998 0.4
   vertex 41.61803398874989 43.82442949541505 0.4
  endloop
 endfacet
 facet normal -0.0 0.0 1.0
  outer loop
   vertex 41.61803398874989 43.82442949541505 0.4
   vertex 79.99772587654176 31.599999999999998 0.4
   vertex 41.827090915285204 44.186526713848394 0.4
  endloop
 endfacet
 facet normal -0.0 0.0 1.0
  outer loop
   vertex 41.827090915285204 44.186526713848394 0.4
   vertex 79.99772587654176 31.599999999999998 0.4
   vertex 41.95629520146761 44.58417661836448 0.4
  endloop
 endfacet
 facet normal -0.9945218953682734 -0.1045284632676531 0.0
  outer loop
   vertex 42.0 45.0 0
   vertex 42.0 45.0 0.4
   vertex 41.95629520146761 45.41582338163552 0
  endloop
 endfacet
 facet normal -0.9945218953682734 -0.1045284632676531 0.0
  outer loop
   vertex 41.95629520146761 45.41582338163552 0
   vertex 42.0 45.0 0.4
   vertex 41.95629520146761 45.41582338163552 0.4
  endloop
 endfacet
 facet normal -0.9510565162951546 -0.30901699437494423 0.0
  outer loop
   vertex 41.95629520146761 45.41582338163552 0
   vertex 41.95629520146761 45.41582338163552 0.4
   vertex 41.827090915285204 45.8134732861516 0
  endloop
 endfacet
 facet normal -0.9510565162951546 -0.30901699437494423 0.0
  outer loop
   vertex 41.827090915285204 45.8134732861516 0
   vertex 41.95629520146761 45.41582338163552 0.4
   vertex 41.827090915285204 45.8134732861516 0.4
  endloop
 endfacet
 facet normal -0.8660254037844357 -0.500000000000005 0.0
  outer loop
   vertex 41.827090915285204 45.8134732861516 0
   vertex 41.827090915285204 45.8134732861516 0.4
   vertex 41.61803398874989 46.17557050458495 0
  endloop
 endfacet
 facet normal -0.8660254037844357 -0.500000000000005 0.0
  outer loop
   vertex 41.61803398874989 46.17557050458495 0
   vertex 41.827090915285204 45.8134732861516 0.4
   vertex 41.61803398874989 46.17557050458495 0.4
  endloop
 endfacet
 facet normal -0.7431448254773976 -0.6691306063588546 0.0
  outer loop
   vertex 41.61803398874989 46.17557050458495 0
   vertex 41.61803398874989 46.17557050458495 0.4
   vertex 41.33826121271772 46.48628965095479 0
  endloop
 endfacet
 facet normal -0.7431448254773976 -0.6691306063588546 0.0
  outer loop
   vertex 41.33826121271772 46.48628965095479 0
   vertex 41.61803398874989 46.17557050458495 0.4
   vertex 41.33826121271772 46.48628965095479 0.4
  endloop
 endfacet
 facet normal -0.5877852522924681 -0.8090169943749511 0.0
  outer loop
   vertex 41.33826121271772 46.48628965095479 0
   vertex 41.33826121271772 46.48628965095479 0.4
   vertex 41.0 46.732050807568875 0
  endloop
 endfacet
 facet normal -0.5877852522924681 -0.8090169943749511 0.0
  outer loop
   vertex 41.0 46.732050807568875 0
   vertex 41.33826121271772 46.48628965095479 0.4
   vertex 41.0 46.732050807568875 0.4
  endloop
 endfacet
 facet normal -0.40673664307580354 -0.9135454576425993 0.0
  outer loop
   vertex 41.0 46.732050807568875 0
   vertex 41.0 46.732050807568875 0.4
   vertex 40.61803398874989 46.90211303259031 0
  endloop
 endfacet
 facet normal -0.40673664307580354 -0.9135454576425993 0.0
  outer loop
   vertex 40.61803398874989 46.90211303259031 0
   vertex 41.0 46.732050807568875 0.4
   vertex 40.61803398874989 46.90211303259031 0.4
  endloop
 endfacet
 facet normal -0.20791169081775515 -0.9781476007338066 0.0
  outer loop
   vertex 40.61803398874989 46.90211303259031 0
   vertex 40.61803398874989 46.90211303259031 0.4
   vertex 40.209056926535304 46.989043790736545 0
  endloop
 endfacet
 facet normal -0.20791169081775515 -0.9781476007338066 0.0
  outer loop
   vertex 40.209056926535304 46.989043790736545 0
   vertex 40.61803398874989 46.90211303259031 0.4
   vertex 40.209056926535304 46.989043790736545 0.4
  endloop
 endfacet
 facet normal 0.0 -1.0 0.0
  outer loop
   vertex 40.209056926535304 46.989043790736545 0
   vertex 40.209056926535304 46.989043790736545 0.4
   vertex 39.790943073464696 46.989043790736545 0
  endloop
 endfacet
 facet normal 0.0 -1.0 0.0
  outer loop
   vertex 39.790943073464696 46.989043790736545 0
   vertex 40.209056926535304 46.989043790736545 0.4
   vertex 39.790943073464696 46.989043790736545 0.4
  endloop
 endfacet
 facet normal 0.20791169081775515 -0.9781476007338066 0.0
  outer loop
   vertex 39.790943073464696 46.989043790736545 0
   vertex 39.790943073464696 46.989043790736545 0.4
   vertex 39.38196601125011 46.90211303259031 0
  endloop
 endfacet
 facet normal 0.20791169081775515 -0.9781476007338066 0.0
  outer loop
   vertex 39.38196601125011 46.90211303259031 0
   vertex 39.790943073464696 46.989043790736545 0.4
   vertex 39.38196601125011 46.90211303259031 0.4
  endloop
 endfacet
 facet normal 0.40673664307580354 -0.9135454576425993 0.0
  outer loop
   vertex 39.38196601125011 46.90211303259031 0
   vertex 39.38196601125011 46.90211303259031 0.4
   vertex 39.0 46.732050807568875 0
  endloop
 endfacet
 facet normal 0.40673664307580354 -0.9135454576425993 0.0
  outer loop
   vertex 39.0 46.732050807568875 0
   vertex 39.38196601125011 46.90211303259031 0.4
   vertex 39.0 46.732050807568875 0.4
  endloop
 endfacet
 facet normal 0.5877852522924681 -0.8090169943749511 0.0
  outer loop
   vertex 39.0 46.732050807568875 0
   vertex 39.0 46.732050807568875 0.4
   vertex 38.66173878728228 46.48628965095479 0
  endloop
 endfacet
 facet normal 0.5877852522924681 -0.8090169943749511 0.0
  outer loop
   vertex 38.66173878728228 46.48628965095479 0
   vertex 39.0 46.732050807568875 0.4
   vertex 38.66173878728228 46.48628965095479 0.4
  endloop
 endfacet
 facet normal 0.7431448254773976 -0.6691306063588546 0.0
  outer loop
   vertex 38.66173878728228 46.48628965095479 0
   vertex 38.66173878728228 46.48628965095479 0.4
   vertex 38.38196601125011 46.17557050458495 0
  endloop
 endfacet
 facet normal 0.7431448254773976 -0.6691306063588546 0.0
  outer loop
   vertex 38.38196601125011 46.17557050458495 0
   vertex 38.66173878728228 46.48628965095479 0.4
   vertex 38.38196601125011 46.17557050458495 0.4
  endloop
 endfacet
 facet normal 0.8660254037844357 -0.500000000000005 0.0
  outer loop
   vertex 38.38196601125011 46.17557050458495 0
   vertex 38.38196601125011 46.17557050458495 0.4
   vertex 38.172909084714796 45.8134732861516 0
  endloop
 endfacet
 facet normal 0.8660254037844357 -0.500000000000005 0.0
  outer loop
   vertex 38.172909084714796 45.8134732861516 0
   vertex 38.38196601125011 46.17557050458495 0.4
   vertex 38.172909084714796 45.8134732861516 0.4
  endloop
 endfacet
 facet normal 0.9510565162951546 -0.30901699437494423 0.0
  outer loop
   vertex 38.172909084714796 45.8134732861516 0
   vertex 38.172909084714796 45.8134732861516 0.4
   vertex 38.04370479853239 45.41582338163552 0
  endloop
 endfacet
 facet normal 0.9510565162951546 -0.30901699437494423 0.0
  outer loop
   vertex 38.04370479853239 45.41582338163552 0
   vertex 38.172909084714796 45.8134732861516 0.4
   vertex 38.04370479853239 45.41582338163552 0.4
  endloop
 endfacet
 facet normal 0.9945218953682734 -0.1045284632676531 0.0
  outer loop
   vertex 38.04370479853239 45.41582338163552 0
   vertex 38.04370479853239 45.41582338163552 0.4
   vertex 38.0 45.0 0
  endloop
 endfacet
 facet normal 0.9945218953682734 -0.1045284632676531 0.0
  outer loop
   vertex 38.0 45.0 0
   vertex 38.04370479853239 45.41582338163552 0.4
   vertex 38.0 45.0 0.4
  endloop
 endfacet
 facet normal 0.9945218953682734 0.1045284632676531 -0.0
  outer loop
   vertex 38.0 45.0 0
   vertex 38.0 45.0 0.4
   vertex 38.04370479853239 44.58417661836448 0
  endloop
 endfacet
 facet normal 0.9945218953682734 0.1045284632676531 -0.0
  outer loop
   vertex 38.04370479853239 44.58417661836448 0
   vertex 38.0 45.0 0.4
   vertex 38.04370479853239 44.58417661836448 0.4
  endloop
 endfacet
 facet normal 0.9510565162951546 0.30901699437494423 -0.0
  outer loop
   vertex 38.04370479853239 44.58417661836448 0
   vertex 38.04370479853239 44.58417661836448 0.4
   vertex 38.172909084714796 44.1865267138484 0
  endloop
 endfacet
 facet normal 0.9510565162951546 0.30901699437494423 -0.0
  outer loop
   vertex 38.172909084714796 44.1865267138484 0
   vertex 38.04370479853239 44.58417661836448 0.4
   vertex 38.172909084714796 44.1865267138484 0.4
  endloop
 endfacet
 facet normal 0.8660254037844357 0.500000000000005 -0.0
  outer loop
   vertex 38.172909084714796 44.1865267138484 0
   vertex 38.172909084714796 44.1865267138484 0.4
   vertex 38.38196601125011 43.82442949541505 0
  endloop
 endfacet
 facet normal 0.8660254037844357 0.500000000000005 -0.0
  outer loop
   vertex 38.38196601125011 43.82442949541505 0
   vertex 38.172909084714796 44.1865267138484 0.4
   vertex 38.38196601125011 43.82442949541505 0.4
  endloop
 endfacet
 facet normal 0.7431448254773976 0.6691306063588546 -0.0
  outer loop
   vertex 38.38196601125011 43.82442949541505 0
   vertex 38.38196601125011 43.82442949541505 0.4
   vertex 38.66173878728228 43.51371034904521 0
  endloop
 endfacet
 facet normal 0.7431448254773976 0.6691306063588546 -0.0
  outer loop
   vertex 38.66173878728228 43.51371034904521 0
   vertex 38.38196601125011 43.82442949541505 0.4
   vertex 38.66173878728228 43.51371034904521 0.4
  endloop
 endfacet
 facet normal 0.5877852522924681 0.8090169943749511 -0.0
  outer loop
   vertex 38.66173878728228 43.51371034904521 0
   vertex 38.66173878728228 43.51371034904521 0.4
   vertex 39.0 43.267949192431125 0
  endloop
 endfacet
 facet normal 0.5877852522924681 0.8090169943749511 -0.0
  outer loop
   vertex 39.0 43.267949192431125 0
   vertex 38.66173878728228 43.51371034904521 0.4
   vertex 39.0 43.267949192431125 0.4
  endloop
 endfacet
 facet normal 0.40673664307580354 0.9135454576425993 -0.0
  outer loop
   vertex 39.0 43.267949192431125 0
   vertex 39.0 43.267949192431125 0.4
   vertex 39.38196601125011 43.09788696740969 0
  endloop
 endfacet
 facet normal 0.40673664307580354 0.9135454576425993 -0.0
  outer loop
   vertex 39.38196601125011 43.09788696740969 0
   vertex 39.0 43.267949192431125 0.4
   vertex 39.38196601125011 43.09788696740969 0.4
  endloop
 endfacet
 facet normal 0.2079116908177586 0.9781476007338059 -0.0
  outer loop
   vertex 39.38196601125011 43.09788696740969 0
   vertex 39.38196601125011 43.09788696740969 0.4
   vertex 39.79094307346469 43.010956209263455 0
  endloop
 endfacet
 facet normal 0.2079116908177586 0.9781476007338059 -0.0
  outer loop
   vertex 39.79094307346469 43.010956209263455 0
   vertex 39.38196601125011 43.09788696740969 0.4
   vertex 39.79094307346469 43.010956209263455 0.4
  endloop
 endfacet
 facet normal 0.0 1.0 0.0
  outer loop
   vertex 39.79094307346469 43.010956209263455 0
   vertex 39.79094307346469 43.010956209263455 0.4
   vertex 40.209056926535304 43.010956209263455 0
  endloop
 endfacet
 facet normal 0.0 1.0 -0.0
  outer loop
   vertex 40.209056926535304 43.010956209263455 0
   vertex 39.79094307346469 43.010956209263455 0.4
   vertex 40.209056926535304 43.010956209263455 0.4
  endloop
 endfacet
 facet normal -0.20791169081775515 0.9781476007338066 0.0
  outer loop
   vertex 40.209056926535304 43.010956209263455 0
   vertex 40.209056926535304 43.010956209263455 0.4
   vertex 40.61803398874989 43.09788696740969 0
  endloop
 endfacet
 facet normal -0.20791169081775515 0.9781476007338066 0.0
  outer loop
   vertex 40.61803398874989 43.09788696740969 0
   vertex 40.209056926535304 43.010956209263455 0.4
   vertex 40.61803398874989 43.09788696740969 0.4
  endloop
 endfacet
 facet normal -0.40673664307578933 0.9135454576426058 0.0
  outer loop
   vertex 40.61803398874989 43.09788696740969 0
   vertex 40.61803398874989 43.09788696740969 0.4
   vertex 41.0 43.26794919243112 0
  endloop
 endfacet
 facet normal -0.40673664307578933 0.9135454576426058 0.0
  outer loop
   vertex 41.0 43.26794919243112 0
   vertex 40.61803398874989 43.09788696740969 0.4
   vertex 41.0 43.26794919243112 0.4
  endloop
 endfacet
 facet normal -0.5877852522924791 0.809016994374943 0.0
  outer loop
   vertex 41.0 43.26794919243112 0
   vertex 41.0 43.26794919243112 0.4
   vertex 41.33826121271772 43.51371034904521 0
  endloop
 endfacet
 facet normal -0.5877852522924791 0.809016994374943 0.0
  outer loop
   vertex 41.33826121271772 43.51371034904521 0
   vertex 41.0 43.26794919243112 0.4
   vertex 41.33826121271772 43.51371034904521 0.4
  endloop
 endfacet
 facet normal -0.7431448254773976 0.6691306063588546 0.0
  outer loop
   vertex 41.33826121271772 43.51371034904521 0
   vertex 41.33826121271772 43.51371034904521 0.4
   vertex 41.61803398874989 43.82442949541505 0
  endloop
 endfacet
 facet normal -0.7431448254773976 0.6691306063588546 0.0
  outer loop
   vertex 41.61803398874989 43.82442949541505 0
   vertex 41.33826121271772 43.51371034904521 0.4
   vertex 41.61803398874989 43.82442949541505 0.4
  endloop
 endfacet
 facet normal -0.8660254037844315 0.5000000000000123 0.0
  outer loop
   vertex 41.61803398874989 43.82442949541505 0
   vertex 41.61803398874989 43.82442949541505 0.4
   vertex 41.827090915285204 44.186526713848394 0
  endloop
 endfacet
 facet normal -0.8660254037844315 0.5000000000000123 0.0
  outer loop
   vertex 41.827090915285204 44.186526713848394 0
   vertex 41.61803398874989 43.82442949541505 0.4
   vertex 41.827090915285204 44.186526713848394 0.4
  endloop
 endfacet
 facet normal -0.9510565162951562 0.3090169943749392 0.0
  outer loop
   vertex 41.827090915285204 44.186526713848394 0
   vertex 41.827090915285204 44.186526713848394 0.4
   vertex 41.95629520146761 44.58417661836448 0
  endloop
 endfacet
 facet normal -0.9510565162951562 0.3090169943749392 0.0
  outer loop
   vertex 41.95629520146761 44.58417661836448 0
   vertex 41.827090915285204 44.186526713848394 0.4
   vertex 41.95629520146761 44.58417661836448 0.4
  endloop
 endfacet
 facet normal -0.9945218953682734 0.1045284632676531 0.0
  outer loop
   vertex 41.95629520146761 44.58417661836448 0
   vertex 41.95629520146761 44.58417661836448 0.4
   vertex 42.0 45.0 0
  endloop
 endfacet
 facet normal -0.9945218953682734 0.1045284632676531 0.0
  outer loop
   vertex 42.0 45.0 0
   vertex 41.95629520146761 44.58417661836448 0.4
   vertex 42.0 45.0 0.4
  endloop
 endfacet
endsolid
