solid PyGamic generated __All_Units__ SLA File
 facet normal 0.0 0.0 -1.0
  outer loop
   vertex 0.8079662514124835 16.19 0.54
   vertex 8.41476845329838 16.19 0.54
   vertex 10.396018365183885 10.69282032302755 0.54
  endloop
 endfacet
 facet normal 0.0 0.0 -1.0
  outer loop
   vertex 8.41476845329838 16.19 0.54
   vertex 23.806020041858655 0.811 0.54
   vertex 10.796018365183885 10.0 0.54
  endloop
 endfacet
 facet normal 0.0 0.0 -1.0
  outer loop
   vertex 23.806020041858655 0.811 0.54
   vertex 0.795719539045074 0.811 0.54
   vertex 9.596018365183884 9.30717967697245 0.54
  endloop
 endfacet
 facet normal 0.0 0.0 -1.0
  outer loop
   vertex 0.795719539045074 0.811 0.54
   vertex 0.8079662514124835 16.19 0.54
   vertex 9.596018365183884 10.69282032302755 0.54
  endloop
 endfacet
 facet normal 0.0 0.0 -1.0
  outer loop
   vertex 10.796018365183885 10.0 0.54
   vertex 10.396018365183885 10.69282032302755 0.54
   vertex 8.41476845329838 16.19 0.54
  endloop
 endfacet
 facet normal 0.0 -0.0 -1.0
  outer loop
   vertex 10.796018365183885 10.0 0.54
   vertex 23.806020041858655 0.811 0.54
   vertex 10.396018365183883 9.30717967697245 0.54
  endloop
 endfacet
 facet normal 0.0 0.0 -1.0
  outer loop
   vertex 10.396018365183885 10.69282032302755 0.54
   vertex 9.596018365183884 10.69282032302755 0.54
   vertex 0.8079662514124835 16.19 0.54
  endloop
 endfacet
 facet normal 0.0 0.0 -1.0
  outer loop
   vertex 9.596018365183884 10.69282032302755 0.54
   vertex 9.196018365183884 10.0 0.54
   vertex 0.795719539045074 0.811 0.54
  endloop
 endfacet
 facet normal 0.0 -0.0 -1.0
  outer loop
   vertex 9.196018365183884 10.0 0.54
   vertex 9.596018365183884 9.30717967697245 0.54
   vertex 0.795719539045074 0.811 0.54
  endloop
 endfacet
 facet normal 0.0 0.0 -1.0
  outer loop
   vertex 9.596018365183884 9.30717967697245 0.54
   vertex 10.396018365183883 9.30717967697245 0.54
   vertex 23.806020041858655 0.811 0.54
  endloop
 endfacet
 facet normal 0.0 0.12277539984319989 -0.9924344820658654
  outer loop
   vertex 8.41476845329838 16.19 0.54
   vertex 0.8079662514124835 16.19 0.54
   vertex 0.810283562875463 19.1 0.9000000000000002
  endloop
 endfacet
 facet normal 0.0 0.12277539984319988 -0.9924344820658653
  outer loop
   vertex 9.619451251089815 19.1 0.9000000000000002
   vertex 8.41476845329838 16.19 0.54
   vertex 0.810283562875463 19.1 0.9000000000000002
  endloop
 endfacet
 facet normal 0.08678074422945345 0.08684987759139204 -0.9924344820658653
  outer loop
   vertex 23.806020041858655 0.811 0.54
   vertex 8.41476845329838 16.19 0.54
   vertex 9.619451251089815 19.1 0.9000000000000002
  endloop
 endfacet
 facet normal 0.08678074422945349 0.08684987759139205 -0.9924344820658654
  outer loop
   vertex 27.923021073781722 0.811 0.9000000000000002
   vertex 23.806020041858655 0.811 0.54
   vertex 9.619451251089815 19.1 0.9000000000000002
  endloop
 endfacet
 facet normal 0.0 -1.0 0.0
  outer loop
   vertex 0.795719539045074 0.811 0.54
   vertex 23.806020041858655 0.811 0.54
   vertex 27.923021073781722 0.811 0.9000000000000002
  endloop
 endfacet
 facet normal 0.0 -1.0 0.0
  outer loop
   vertex 0.795719539045074 0.811 0.9000000000000002
   vertex 0.795719539045074 0.811 0.54
   vertex 27.923021073781722 0.811 0.9000000000000002
  endloop
 endfacet
 facet normal -0.9999996829318346 0.0007963267107332637 0.0
  outer loop
   vertex 0.8079662514124835 16.19 0.54
   vertex 0.795719539045074 0.811 0.54
   vertex 0.795719539045074 0.811 0.9000000000000002
  endloop
 endfacet
 facet normal -0.9999996829318347 0.0007963267107332658 9.485061654279709e-17
  outer loop
   vertex 0.810283562875463 19.1 0.9000000000000002
   vertex 0.8079662514124835 16.19 0.54
   vertex 0.795719539045074 0.811 0.9000000000000002
  endloop
 endfacet
 facet normal -0.0 0.0 1.0
  outer loop
   vertex 0.810283562875463 19.1 0.9000000000000002
   vertex 10.396018365183885 10.69282032302755 0.9000000000000002
   vertex 9.619451251089815 19.1 0.9000000000000002
  endloop
 endfacet
 facet normal 0.0 0.0 1.0
  outer loop
   vertex 9.619451251089815 19.1 0.9000000000000002
   vertex 10.796018365183885 10.0 0.9000000000000002
   vertex 27.923021073781722 0.811 0.9000000000000002
  endloop
 endfacet
 facet normal 0.0 0.0 1.0
  outer loop
   vertex 27.923021073781722 0.811 0.9000000000000002
   vertex 9.596018365183884 9.30717967697245 0.9000000000000002
   vertex 0.795719539045074 0.811 0.9000000000000002
  endloop
 endfacet
 facet normal 0.0 0.0 1.0
  outer loop
   vertex 0.795719539045074 0.811 0.9000000000000002
   vertex 9.596018365183884 10.69282032302755 0.9000000000000002
   vertex 0.810283562875463 19.1 0.9000000000000002
  endloop
 endfacet
 facet normal 0.0 0.0 1.0
  outer loop
   vertex 10.796018365183885 10.0 0.9000000000000002
   vertex 9.619451251089815 19.1 0.9000000000000002
   vertex 10.396018365183885 10.69282032302755 0.9000000000000002
  endloop
 endfacet
 facet normal 0.0 0.0 1.0
  outer loop
   vertex 10.796018365183885 10.0 0.9000000000000002
   vertex 10.396018365183883 9.30717967697245 0.9000000000000002
   vertex 27.923021073781722 0.811 0.9000000000000002
  endloop
 endfacet
 facet normal 0.0 0.0 1.0
  outer loop
   vertex 10.396018365183885 10.69282032302755 0.9000000000000002
   vertex 0.810283562875463 19.1 0.9000000000000002
   vertex 9.596018365183884 10.69282032302755 0.9000000000000002
  endloop
 endfacet
 facet normal 0.0 0.0 1.0
  outer loop
   vertex 9.596018365183884 10.69282032302755 0.9000000000000002
   vertex 0.795719539045074 0.811 0.9000000000000002
   vertex 9.196018365183884 10.0 0.9000000000000002
  endloop
 endfacet
 facet normal 0.0 0.0 1.0
  outer loop
   vertex 9.196018365183884 10.0 0.9000000000000002
   vertex 0.795719539045074 0.811 0.9000000000000002
   vertex 9.596018365183884 9.30717967697245 0.9000000000000002
  endloop
 endfacet
 facet normal -0.0 0.0 1.0
  outer loop
   vertex 9.596018365183884 9.30717967697245 0.9000000000000002
   vertex 27.923021073781722 0.811 0.9000000000000002
   vertex 10.396018365183883 9.30717967697245 0.9000000000000002
  endloop
 endfacet
 facet normal -0.8660254037844383 -0.5000000000000003 0.0
  outer loop
   vertex 10.796018365183885 10.0 0.54
   vertex 10.796018365183885 10.0 0.9000000000000002
   vertex 10.396018365183885 10.69282032302755 0.54
  endloop
 endfacet
 facet normal -0.8660254037844383 -0.5000000000000003 0.0
  outer loop
   vertex 10.396018365183885 10.69282032302755 0.54
   vertex 10.796018365183885 10.0 0.9000000000000002
   vertex 10.396018365183885 10.69282032302755 0.9000000000000002
  endloop
 endfacet
 facet normal 0.0 -1.0 0.0
  outer loop
   vertex 10.396018365183885 10.69282032302755 0.54
   vertex 10.396018365183885 10.69282032302755 0.9000000000000002
   vertex 9.596018365183884 10.69282032302755 0.54
  endloop
 endfacet
 facet normal 0.0 -1.0 0.0
  outer loop
   vertex 9.596018365183884 10.69282032302755 0.54
   vertex 10.396018365183885 10.69282032302755 0.9000000000000002
   vertex 9.596018365183884 10.69282032302755 0.9000000000000002
  endloop
 endfacet
 facet normal 0.8660254037844383 -0.5000000000000003 0.0
  outer loop
   vertex 9.596018365183884 10.69282032302755 0.54
   vertex 9.596018365183884 10.69282032302755 0.9000000000000002
   vertex 9.196018365183884 10.0 0.54
  endloop
 endfacet
 facet normal 0.8660254037844383 -0.5000000000000003 0.0
  outer loop
   vertex 9.196018365183884 10.0 0.54
   vertex 9.596018365183884 10.69282032302755 0.9000000000000002
   vertex 9.196018365183884 10.0 0.9000000000000002
  endloop
 endfacet
 facet normal 0.8660254037844383 0.5000000000000003 -0.0
  outer loop
   vertex 9.196018365183884 10.0 0.54
   vertex 9.196018365183884 10.0 0.9000000000000002
   vertex 9.596018365183884 9.30717967697245 0.54
  endloop
 endfacet
 facet normal 0.8660254037844383 0.5000000000000003 -0.0
  outer loop
   vertex 9.596018365183884 9.30717967697245 0.54
   vertex 9.196018365183884 10.0 0.9000000000000002
   vertex 9.596018365183884 9.30717967697245 0.9000000000000002
  endloop
 endfacet
 facet normal 0.0 1.0 0.0
  outer loop
   vertex 9.596018365183884 9.30717967697245 0.54
   vertex 9.596018365183884 9.30717967697245 0.9000000000000002
   vertex 10.396018365183883 9.30717967697245 0.54
  endloop
 endfacet
 facet normal 0.0 1.0 -0.0
  outer loop
   vertex 10.396018365183883 9.30717967697245 0.54
   vertex 9.596018365183884 9.30717967697245 0.9000000000000002
   vertex 10.396018365183883 9.30717967697245 0.9000000000000002
  endloop
 endfacet
 facet normal -0.8660254037844374 0.5000000000000021 0.0
  outer loop
   vertex 10.396018365183883 9.30717967697245 0.54
   vertex 10.396018365183883 9.30717967697245 0.9000000000000002
   vertex 10.796018365183885 10.0 0.54
  endloop
 endfacet
 facet normal -0.8660254037844374 0.5000000000000021 0.0
  outer loop
   vertex 10.796018365183885 10.0 0.54
   vertex 10.396018365183883 9.30717967697245 0.9000000000000002
   vertex 10.796018365183885 10.0 0.9000000000000002
  endloop
 endfacet
 facet normal 0.0 0.0 -1.0
  outer loop
   vertex 0.810283562875463 19.1 1.4400000000000004
   vertex 9.619451251089815 19.1 1.4400000000000004
   vertex 10.396018365183885 10.69282032302755 1.4400000000000004
  endloop
 endfacet
 facet normal 0.0 0.0 -1.0
  outer loop
   vertex 9.619451251089815 19.1 1.4400000000000004
   vertex 27.923021073781722 0.811 1.4400000000000004
   vertex 10.796018365183885 10.0 1.4400000000000004
  endloop
 endfacet
 facet normal 0.0 0.0 -1.0
  outer loop
   vertex 27.923021073781722 0.811 1.4400000000000004
   vertex 0.795719539045074 0.811 1.4400000000000004
   vertex 9.596018365183884 9.30717967697245 1.4400000000000004
  endloop
 endfacet
 facet normal 0.0 0.0 -1.0
  outer loop
   vertex 0.795719539045074 0.811 1.4400000000000004
   vertex 0.810283562875463 19.1 1.4400000000000004
   vertex 9.596018365183884 10.69282032302755 1.4400000000000004
  endloop
 endfacet
 facet normal 0.0 0.0 -1.0
  outer loop
   vertex 10.796018365183885 10.0 1.4400000000000004
   vertex 10.396018365183885 10.69282032302755 1.4400000000000004
   vertex 9.619451251089815 19.1 1.4400000000000004
  endloop
 endfacet
 facet normal 0.0 -0.0 -1.0
  outer loop
   vertex 10.796018365183885 10.0 1.4400000000000004
   vertex 27.923021073781722 0.811 1.4400000000000004
   vertex 10.396018365183883 9.30717967697245 1.4400000000000004
  endloop
 endfacet
 facet normal 0.0 0.0 -1.0
  outer loop
   vertex 10.396018365183885 10.69282032302755 1.4400000000000004
   vertex 9.596018365183884 10.69282032302755 1.4400000000000004
   vertex 0.810283562875463 19.1 1.4400000000000004
  endloop
 endfacet
 facet normal 0.0 0.0 -1.0
  outer loop
   vertex 9.596018365183884 10.69282032302755 1.4400000000000004
   vertex 9.196018365183884 10.0 1.4400000000000004
   vertex 0.795719539045074 0.811 1.4400000000000004
  endloop
 endfacet
 facet normal 0.0 -0.0 -1.0
  outer loop
   vertex 9.196018365183884 10.0 1.4400000000000004
   vertex 9.596018365183884 9.30717967697245 1.4400000000000004
   vertex 0.795719539045074 0.811 1.4400000000000004
  endloop
 endfacet
 facet normal 0.0 0.0 -1.0
  outer loop
   vertex 9.596018365183884 9.30717967697245 1.4400000000000004
   vertex 10.396018365183883 9.30717967697245 1.4400000000000004
   vertex 27.923021073781722 0.811 1.4400000000000004
  endloop
 endfacet
 facet normal 0.0 0.12277539984319993 0.9924344820658653
  outer loop
   vertex 9.619451251089815 19.1 1.4400000000000004
   vertex 0.810283562875463 19.1 1.4400000000000004
   vertex 0.8079662514124835 16.19 1.8000000000000007
  endloop
 endfacet
 facet normal 0.0 0.12277539984319993 0.9924344820658654
  outer loop
   vertex 8.41476845329838 16.19 1.8000000000000007
   vertex 9.619451251089815 19.1 1.4400000000000004
   vertex 0.8079662514124835 16.19 1.8000000000000007
  endloop
 endfacet
 facet normal 0.08678074422945348 0.08684987759139205 0.9924344820658654
  outer loop
   vertex 27.923021073781722 0.811 1.4400000000000004
   vertex 9.619451251089815 19.1 1.4400000000000004
   vertex 8.41476845329838 16.19 1.8000000000000007
  endloop
 endfacet
 facet normal 0.0867807442294535 0.0868498775913921 0.9924344820658653
  outer loop
   vertex 23.806020041858655 0.811 1.8000000000000007
   vertex 27.923021073781722 0.811 1.4400000000000004
   vertex 8.41476845329838 16.19 1.8000000000000007
  endloop
 endfacet
 facet normal 0.0 -1.0 0.0
  outer loop
   vertex 0.795719539045074 0.811 1.4400000000000004
   vertex 27.923021073781722 0.811 1.4400000000000004
   vertex 23.806020041858655 0.811 1.8000000000000007
  endloop
 endfacet
 facet normal 0.0 -1.0 0.0
  outer loop
   vertex 0.795719539045074 0.811 1.8000000000000007
   vertex 0.795719539045074 0.811 1.4400000000000004
   vertex 23.806020041858655 0.811 1.8000000000000007
  endloop
 endfacet
 facet normal -0.9999996829318347 0.000796326710733266 0.0
  outer loop
   vertex 0.810283562875463 19.1 1.4400000000000004
   vertex 0.795719539045074 0.811 1.4400000000000004
   vertex 0.795719539045074 0.811 1.8000000000000007
  endloop
 endfacet
 facet normal -0.9999996829318346 0.0007963267107332637 -1.1279816151578227e-16
  outer loop
   vertex 0.8079662514124835 16.19 1.8000000000000007
   vertex 0.810283562875463 19.1 1.4400000000000004
   vertex 0.795719539045074 0.811 1.8000000000000007
  endloop
 endfacet
 facet normal -0.0 0.0 1.0
  outer loop
   vertex 0.8079662514124835 16.19 1.8000000000000007
   vertex 10.396018365183885 10.69282032302755 1.8000000000000007
   vertex 8.41476845329838 16.19 1.8000000000000007
  endloop
 endfacet
 facet normal 0.0 0.0 1.0
  outer loop
   vertex 8.41476845329838 16.19 1.8000000000000007
   vertex 10.796018365183885 10.0 1.8000000000000007
   vertex 23.806020041858655 0.811 1.8000000000000007
  endloop
 endfacet
 facet normal 0.0 0.0 1.0
  outer loop
   vertex 23.806020041858655 0.811 1.8000000000000007
   vertex 9.596018365183884 9.30717967697245 1.8000000000000007
   vertex 0.795719539045074 0.811 1.8000000000000007
  endloop
 endfacet
 facet normal 0.0 0.0 1.0
  outer loop
   vertex 0.795719539045074 0.811 1.8000000000000007
   vertex 9.596018365183884 10.69282032302755 1.8000000000000007
   vertex 0.8079662514124835 16.19 1.8000000000000007
  endloop
 endfacet
 facet normal 0.0 0.0 1.0
  outer loop
   vertex 10.796018365183885 10.0 1.8000000000000007
   vertex 8.41476845329838 16.19 1.8000000000000007
   vertex 10.396018365183885 10.69282032302755 1.8000000000000007
  endloop
 endfacet
 facet normal 0.0 0.0 1.0
  outer loop
   vertex 10.796018365183885 10.0 1.8000000000000007
   vertex 10.396018365183883 9.30717967697245 1.8000000000000007
   vertex 23.806020041858655 0.811 1.8000000000000007
  endloop
 endfacet
 facet normal 0.0 0.0 1.0
  outer loop
   vertex 10.396018365183885 10.69282032302755 1.8000000000000007
   vertex 0.8079662514124835 16.19 1.8000000000000007
   vertex 9.596018365183884 10.69282032302755 1.8000000000000007
  endloop
 endfacet
 facet normal 0.0 0.0 1.0
  outer loop
   vertex 9.596018365183884 10.69282032302755 1.8000000000000007
   vertex 0.795719539045074 0.811 1.8000000000000007
   vertex 9.196018365183884 10.0 1.8000000000000007
  endloop
 endfacet
 facet normal 0.0 0.0 1.0
  outer loop
   vertex 9.196018365183884 10.0 1.8000000000000007
   vertex 0.795719539045074 0.811 1.8000000000000007
   vertex 9.596018365183884 9.30717967697245 1.8000000000000007
  endloop
 endfacet
 facet normal -0.0 0.0 1.0
  outer loop
   vertex 9.596018365183884 9.30717967697245 1.8000000000000007
   vertex 23.806020041858655 0.811 1.8000000000000007
   vertex 10.396018365183883 9.30717967697245 1.8000000000000007
  endloop
 endfacet
 facet normal -0.8660254037844384 -0.5000000000000004 0.0
  outer loop
   vertex 10.796018365183885 10.0 1.4400000000000004
   vertex 10.796018365183885 10.0 1.8000000000000007
   vertex 10.396018365183885 10.69282032302755 1.4400000000000004
  endloop
 endfacet
 facet normal -0.8660254037844384 -0.5000000000000004 0.0
  outer loop
   vertex 10.396018365183885 10.69282032302755 1.4400000000000004
   vertex 10.796018365183885 10.0 1.8000000000000007
   vertex 10.396018365183885 10.69282032302755 1.8000000000000007
  endloop
 endfacet
 facet normal 0.0 -1.0 0.0
  outer loop
   vertex 10.396018365183885 10.69282032302755 1.4400000000000004
   vertex 10.396018365183885 10.69282032302755 1.8000000000000007
   vertex 9.596018365183884 10.69282032302755 1.4400000000000004
  endloop
 endfacet
 facet normal 0.0 -1.0 0.0
  outer loop
   vertex 9.596018365183884 10.69282032302755 1.4400000000000004
   vertex 10.396018365183885 10.69282032302755 1.8000000000000007
   vertex 9.596018365183884 10.69282032302755 1.8000000000000007
  endloop
 endfacet
 facet normal 0.8660254037844384 -0.5000000000000004 0.0
  outer loop
   vertex 9.596018365183884 10.69282032302755 1.4400000000000004
   vertex 9.596018365183884 10.69282032302755 1.8000000000000007
   vertex 9.196018365183884 10.0 1.4400000000000004
  endloop
 endfacet
 facet normal 0.8660254037844384 -0.5000000000000004 0.0
  outer loop
   vertex 9.196018365183884 10.0 1.4400000000000004
   vertex 9.596018365183884 10.69282032302755 1.8000000000000007
   vertex 9.196018365183884 10.0 1.8000000000000007
  endloop
 endfacet
 facet normal 0.8660254037844384 0.5000000000000004 -0.0
  outer loop
   vertex 9.196018365183884 10.0 1.4400000000000004
   vertex 9.196018365183884 10.0 1.8000000000000007
   vertex 9.596018365183884 9.30717967697245 1.4400000000000004
  endloop
 endfacet
 facet normal 0.8660254037844384 0.5000000000000004 -0.0
  outer loop
   vertex 9.596018365183884 9.30717967697245 1.4400000000000004
   vertex 9.196018365183884 10.0 1.8000000000000007
   vertex 9.596018365183884 9.30717967697245 1.8000000000000007
  endloop
 endfacet
 facet normal 0.0 1.0 0.0
  outer loop
   vertex 9.596018365183884 9.30717967697245 1.4400000000000004
   vertex 9.596018365183884 9.30717967697245 1.8000000000000007
   vertex 10.396018365183883 9.30717967697245 1.4400000000000004
  endloop
 endfacet
 facet normal 0.0 1.0 -0.0
  outer loop
   vertex 10.396018365183883 9.30717967697245 1.4400000000000004
   vertex 9.596018365183884 9.30717967697245 1.8000000000000007
   vertex 10.396018365183883 9.30717967697245 1.8000000000000007
  endloop
 endfacet
 facet normal -0.8660254037844374 0.5000000000000021 0.0
  outer loop
   vertex 10.396018365183883 9.30717967697245 1.4400000000000004
   vertex 10.396018365183883 9.30717967697245 1.8000000000000007
   vertex 10.796018365183885 10.0 1.4400000000000004
  endloop
 endfacet
 facet normal -0.8660254037844374 0.5000000000000021 0.0
  outer loop
   vertex 10.796018365183885 10.0 1.4400000000000004
   vertex 10.396018365183883 9.30717967697245 1.8000000000000007
   vertex 10.796018365183885 10.0 1.8000000000000007
  endloop
 endfacet
 facet normal 0.0 0.0 -1.0
  outer loop
   vertex 8.414768453298386 23.81 0.54
   vertex 0.8079662514124835 23.81 0.54
   vertex 9.196018365183884 30.0 0.54
  endloop
 endfacet
 facet normal 0.0 0.0 -1.0
  outer loop
   vertex 0.8079662514124835 23.81 0.54
   vertex 0.795719539045074 39.189 0.54
   vertex 9.596018365183884 30.69282032302755 0.54
  endloop
 endfacet
 facet normal 0.0 0.0 -1.0
  outer loop
   vertex 0.795719539045074 39.189 0.54
   vertex 23.806020041858662 39.189 0.54
   vertex 10.396018365183885 30.69282032302755 0.54
  endloop
 endfacet
 facet normal 0.0 0.0 -1.0
  outer loop
   vertex 23.806020041858662 39.189 0.54
   vertex 8.414768453298386 23.81 0.54
   vertex 10.796018365183885 30.0 0.54
  endloop
 endfacet
 facet normal 0.0 0.0 -1.0
  outer loop
   vertex 10.796018365183885 30.0 0.54
   vertex 8.414768453298386 23.81 0.54
   vertex 10.396018365183883 29.30717967697245 0.54
  endloop
 endfacet
 facet normal 0.0 0.0 -1.0
  outer loop
   vertex 10.796018365183885 30.0 0.54
   vertex 10.396018365183885 30.69282032302755 0.54
   vertex 23.806020041858662 39.189 0.54
  endloop
 endfacet
 facet normal 0.0 0.0 -1.0
  outer loop
   vertex 10.396018365183885 30.69282032302755 0.54
   vertex 9.596018365183884 30.69282032302755 0.54
   vertex 0.795719539045074 39.189 0.54
  endloop
 endfacet
 facet normal 0.0 0.0 -1.0
  outer loop
   vertex 9.596018365183884 30.69282032302755 0.54
   vertex 9.196018365183884 30.0 0.54
   vertex 0.8079662514124835 23.81 0.54
  endloop
 endfacet
 facet normal 0.0 -0.0 -1.0
  outer loop
   vertex 9.196018365183884 30.0 0.54
   vertex 9.596018365183884 29.30717967697245 0.54
   vertex 8.414768453298386 23.81 0.54
  endloop
 endfacet
 facet normal 0.0 -0.0 -1.0
  outer loop
   vertex 9.596018365183884 29.30717967697245 0.54
   vertex 10.396018365183883 29.30717967697245 0.54
   vertex 8.414768453298386 23.81 0.54
  endloop
 endfacet
 facet normal 0.0 -0.12277539984319989 -0.9924344820658654
  outer loop
   vertex 0.8079662514124835 23.81 0.54
   vertex 8.414768453298386 23.81 0.54
   vertex 9.61945125108982 20.9 0.9000000000000002
  endloop
 endfacet
 facet normal 0.0 -0.1227753998431999 -0.9924344820658654
  outer loop
   vertex 0.810283562875463 20.9 0.9000000000000002
   vertex 0.8079662514124835 23.81 0.54
   vertex 9.61945125108982 20.9 0.9000000000000002
  endloop
 endfacet
 facet normal -0.9999996829318346 -0.0007963267107332637 1.1029153570432048e-16
  outer loop
   vertex 0.795719539045074 39.189 0.54
   vertex 0.8079662514124835 23.81 0.54
   vertex 0.810283562875463 20.9 0.9000000000000002
  endloop
 endfacet
 facet normal -0.9999996829318347 -0.0007963267107332658 -0.0
  outer loop
   vertex 0.795719539045074 39.189 0.9000000000000002
   vertex 0.795719539045074 39.189 0.54
   vertex 0.810283562875463 20.9 0.9000000000000002
  endloop
 endfacet
 facet normal 0.0 1.0 0.0
  outer loop
   vertex 23.806020041858662 39.189 0.54
   vertex 0.795719539045074 39.189 0.54
   vertex 0.795719539045074 39.189 0.9000000000000002
  endloop
 endfacet
 facet normal 0.0 1.0 0.0
  outer loop
   vertex 27.923021073781726 39.189 0.9000000000000002
   vertex 23.806020041858662 39.189 0.54
   vertex 0.795719539045074 39.189 0.9000000000000002
  endloop
 endfacet
 facet normal 0.08678074422945356 -0.08684987759139216 -0.9924344820658653
  outer loop
   vertex 8.414768453298386 23.81 0.54
   vertex 23.806020041858662 39.189 0.54
   vertex 27.923021073781726 39.189 0.9000000000000002
  endloop
 endfacet
 facet normal 0.08678074422945346 -0.08684987759139204 -0.9924344820658654
  outer loop
   vertex 9.61945125108982 20.9 0.9000000000000002
   vertex 8.414768453298386 23.81 0.54
   vertex 27.923021073781726 39.189 0.9000000000000002
  endloop
 endfacet
 facet normal 0.0 0.0 1.0
  outer loop
   vertex 9.61945125108982 20.9 0.9000000000000002
   vertex 9.196018365183884 30.0 0.9000000000000002
   vertex 0.810283562875463 20.9 0.9000000000000002
  endloop
 endfacet
 facet normal 0.0 -0.0 1.0
  outer loop
   vertex 0.810283562875463 20.9 0.9000000000000002
   vertex 9.596018365183884 30.69282032302755 0.9000000000000002
   vertex 0.795719539045074 39.189 0.9000000000000002
  endloop
 endfacet
 facet normal -0.0 0.0 1.0
  outer loop
   vertex 0.795719539045074 39.189 0.9000000000000002
   vertex 10.396018365183885 30.69282032302755 0.9000000000000002
   vertex 27.923021073781726 39.189 0.9000000000000002
  endloop
 endfacet
 facet normal 0.0 0.0 1.0
  outer loop
   vertex 27.923021073781726 39.189 0.9000000000000002
   vertex 10.796018365183885 30.0 0.9000000000000002
   vertex 9.61945125108982 20.9 0.9000000000000002
  endloop
 endfacet
 facet normal 0.0 0.0 1.0
  outer loop
   vertex 10.796018365183885 30.0 0.9000000000000002
   vertex 10.396018365183883 29.30717967697245 0.9000000000000002
   vertex 9.61945125108982 20.9 0.9000000000000002
  endloop
 endfacet
 facet normal 0.0 -0.0 1.0
  outer loop
   vertex 10.796018365183885 30.0 0.9000000000000002
   vertex 27.923021073781726 39.189 0.9000000000000002
   vertex 10.396018365183885 30.69282032302755 0.9000000000000002
  endloop
 endfacet
 facet normal 0.0 0.0 1.0
  outer loop
   vertex 10.396018365183885 30.69282032302755 0.9000000000000002
   vertex 0.795719539045074 39.189 0.9000000000000002
   vertex 9.596018365183884 30.69282032302755 0.9000000000000002
  endloop
 endfacet
 facet normal 0.0 0.0 1.0
  outer loop
   vertex 9.596018365183884 30.69282032302755 0.9000000000000002
   vertex 0.810283562875463 20.9 0.9000000000000002
   vertex 9.196018365183884 30.0 0.9000000000000002
  endloop
 endfacet
 facet normal 0.0 0.0 1.0
  outer loop
   vertex 9.196018365183884 30.0 0.9000000000000002
   vertex 9.61945125108982 20.9 0.9000000000000002
   vertex 9.596018365183884 29.30717967697245 0.9000000000000002
  endloop
 endfacet
 facet normal -0.0 0.0 1.0
  outer loop
   vertex 9.596018365183884 29.30717967697245 0.9000000000000002
   vertex 9.61945125108982 20.9 0.9000000000000002
   vertex 10.396018365183883 29.30717967697245 0.9000000000000002
  endloop
 endfacet
 facet normal -0.8660254037844383 -0.5000000000000003 0.0
  outer loop
   vertex 10.796018365183885 30.0 0.54
   vertex 10.796018365183885 30.0 0.9000000000000002
   vertex 10.396018365183885 30.69282032302755 0.54
  endloop
 endfacet
 facet normal -0.8660254037844383 -0.5000000000000003 0.0
  outer loop
   vertex 10.396018365183885 30.69282032302755 0.54
   vertex 10.796018365183885 30.0 0.9000000000000002
   vertex 10.396018365183885 30.69282032302755 0.9000000000000002
  endloop
 endfacet
 facet normal 0.0 -1.0 0.0
  outer loop
   vertex 10.396018365183885 30.69282032302755 0.54
   vertex 10.396018365183885 30.69282032302755 0.9000000000000002
   vertex 9.596018365183884 30.69282032302755 0.54
  endloop
 endfacet
 facet normal 0.0 -1.0 0.0
  outer loop
   vertex 9.596018365183884 30.69282032302755 0.54
   vertex 10.396018365183885 30.69282032302755 0.9000000000000002
   vertex 9.596018365183884 30.69282032302755 0.9000000000000002
  endloop
 endfacet
 facet normal 0.8660254037844383 -0.5000000000000003 0.0
  outer loop
   vertex 9.596018365183884 30.69282032302755 0.54
   vertex 9.596018365183884 30.69282032302755 0.9000000000000002
   vertex 9.196018365183884 30.0 0.54
  endloop
 endfacet
 facet normal 0.8660254037844383 -0.5000000000000003 0.0
  outer loop
   vertex 9.196018365183884 30.0 0.54
   vertex 9.596018365183884 30.69282032302755 0.9000000000000002
   vertex 9.196018365183884 30.0 0.9000000000000002
  endloop
 endfacet
 facet normal 0.8660254037844383 0.5000000000000003 -0.0
  outer loop
   vertex 9.196018365183884 30.0 0.54
   vertex 9.196018365183884 30.0 0.9000000000000002
   vertex 9.596018365183884 29.30717967697245 0.54
  endloop
 endfacet
 facet normal 0.8660254037844383 0.5000000000000003 -0.0
  outer loop
   vertex 9.596018365183884 29.30717967697245 0.54
   vertex 9.196018365183884 30.0 0.9000000000000002
   vertex 9.596018365183884 29.30717967697245 0.9000000000000002
  endloop
 endfacet
 facet normal 0.0 1.0 0.0
  outer loop
   vertex 9.596018365183884 29.30717967697245 0.54
   vertex 9.596018365183884 29.30717967697245 0.9000000000000002
   vertex 10.396018365183883 29.30717967697245 0.54
  endloop
 endfacet
 facet normal 0.0 1.0 -0.0
  outer loop
   vertex 10.396018365183883 29.30717967697245 0.54
   vertex 9.596018365183884 29.30717967697245 0.9000000000000002
   vertex 10.396018365183883 29.30717967697245 0.9000000000000002
  endloop
 endfacet
 facet normal -0.8660254037844374 0.5000000000000021 0.0
  outer loop
   vertex 10.396018365183883 29.30717967697245 0.54
   vertex 10.396018365183883 29.30717967697245 0.9000000000000002
   vertex 10.796018365183885 30.0 0.54
  endloop
 endfacet
 facet normal -0.8660254037844374 0.5000000000000021 0.0
  outer loop
   vertex 10.796018365183885 30.0 0.54
   vertex 10.396018365183883 29.30717967697245 0.9000000000000002
   vertex 10.796018365183885 30.0 0.9000000000000002
  endloop
 endfacet
 facet normal 0.0 0.0 -1.0
  outer loop
   vertex 9.61945125108982 20.9 1.4400000000000004
   vertex 0.810283562875463 20.9 1.4400000000000004
   vertex 9.196018365183884 30.0 1.4400000000000004
  endloop
 endfacet
 facet normal 0.0 0.0 -1.0
  outer loop
   vertex 0.810283562875463 20.9 1.4400000000000004
   vertex 0.795719539045074 39.189 1.4400000000000004
   vertex 9.596018365183884 30.69282032302755 1.4400000000000004
  endloop
 endfacet
 facet normal 0.0 0.0 -1.0
  outer loop
   vertex 0.795719539045074 39.189 1.4400000000000004
   vertex 27.923021073781726 39.189 1.4400000000000004
   vertex 10.396018365183885 30.69282032302755 1.4400000000000004
  endloop
 endfacet
 facet normal 0.0 0.0 -1.0
  outer loop
   vertex 27.923021073781726 39.189 1.4400000000000004
   vertex 9.61945125108982 20.9 1.4400000000000004
   vertex 10.796018365183885 30.0 1.4400000000000004
  endloop
 endfacet
 facet normal 0.0 0.0 -1.0
  outer loop
   vertex 10.796018365183885 30.0 1.4400000000000004
   vertex 9.61945125108982 20.9 1.4400000000000004
   vertex 10.396018365183883 29.30717967697245 1.4400000000000004
  endloop
 endfacet
 facet normal 0.0 0.0 -1.0
  outer loop
   vertex 10.796018365183885 30.0 1.4400000000000004
   vertex 10.396018365183885 30.69282032302755 1.4400000000000004
   vertex 27.923021073781726 39.189 1.4400000000000004
  endloop
 endfacet
 facet normal 0.0 0.0 -1.0
  outer loop
   vertex 10.396018365183885 30.69282032302755 1.4400000000000004
   vertex 9.596018365183884 30.69282032302755 1.4400000000000004
   vertex 0.795719539045074 39.189 1.4400000000000004
  endloop
 endfacet
 facet normal 0.0 0.0 -1.0
  outer loop
   vertex 9.596018365183884 30.69282032302755 1.4400000000000004
   vertex 9.196018365183884 30.0 1.4400000000000004
   vertex 0.810283562875463 20.9 1.4400000000000004
  endloop
 endfacet
 facet normal 0.0 0.0 -1.0
  outer loop
   vertex 9.196018365183884 30.0 1.4400000000000004
   vertex 9.596018365183884 29.30717967697245 1.4400000000000004
   vertex 9.61945125108982 20.9 1.4400000000000004
  endloop
 endfacet
 facet normal 0.0 0.0 -1.0
  outer loop
   vertex 9.596018365183884 29.30717967697245 1.4400000000000004
   vertex 10.396018365183883 29.30717967697245 1.4400000000000004
   vertex 9.61945125108982 20.9 1.4400000000000004
  endloop
 endfacet
 facet normal 0.0 -0.12277539984319993 0.9924344820658654
  outer loop
   vertex 0.810283562875463 20.9 1.4400000000000004
   vertex 9.61945125108982 20.9 1.4400000000000004
   vertex 8.414768453298386 23.81 1.8000000000000007
  endloop
 endfacet
 facet normal 0.0 -0.12277539984319993 0.9924344820658654
  outer loop
   vertex 0.8079662514124835 23.81 1.8000000000000007
   vertex 0.810283562875463 20.9 1.4400000000000004
   vertex 8.414768453298386 23.81 1.8000000000000007
  endloop
 endfacet
 facet normal -0.9999996829318347 -0.000796326710733266 -9.274282506406824e-17
  outer loop
   vertex 0.795719539045074 39.189 1.4400000000000004
   vertex 0.810283562875463 20.9 1.4400000000000004
   vertex 0.8079662514124835 23.81 1.8000000000000007
  endloop
 endfacet
 facet normal -0.9999996829318346 -0.0007963267107332637 -0.0
  outer loop
   vertex 0.795719539045074 39.189 1.8000000000000007
   vertex 0.795719539045074 39.189 1.4400000000000004
   vertex 0.8079662514124835 23.81 1.8000000000000007
  endloop
 endfacet
 facet normal 0.0 1.0 0.0
  outer loop
   vertex 27.923021073781726 39.189 1.4400000000000004
   vertex 0.795719539045074 39.189 1.4400000000000004
   vertex 0.795719539045074 39.189 1.8000000000000007
  endloop
 endfacet
 facet normal 0.0 1.0 0.0
  outer loop
   vertex 23.806020041858662 39.189 1.8000000000000007
   vertex 27.923021073781726 39.189 1.4400000000000004
   vertex 0.795719539045074 39.189 1.8000000000000007
  endloop
 endfacet
 facet normal 0.0867807442294536 -0.08684987759139218 0.9924344820658654
  outer loop
   vertex 9.61945125108982 20.9 1.4400000000000004
   vertex 27.923021073781726 39.189 1.4400000000000004
   vertex 23.806020041858662 39.189 1.8000000000000007
  endloop
 endfacet
 facet normal 0.08678074422945345 -0.08684987759139207 0.9924344820658653
  outer loop
   vertex 8.414768453298386 23.81 1.8000000000000007
   vertex 9.61945125108982 20.9 1.4400000000000004
   vertex 23.806020041858662 39.189 1.8000000000000007
  endloop
 endfacet
 facet normal 0.0 -0.0 1.0
  outer loop
   vertex 8.414768453298386 23.81 1.8000000000000007
   vertex 9.196018365183884 30.0 1.8000000000000007
   vertex 0.8079662514124835 23.81 1.8000000000000007
  endloop
 endfacet
 facet normal 0.0 -0.0 1.0
  outer loop
   vertex 0.8079662514124835 23.81 1.8000000000000007
   vertex 9.596018365183884 30.69282032302755 1.8000000000000007
   vertex 0.795719539045074 39.189 1.8000000000000007
  endloop
 endfacet
 facet normal -0.0 0.0 1.0
  outer loop
   vertex 0.795719539045074 39.189 1.8000000000000007
   vertex 10.396018365183885 30.69282032302755 1.8000000000000007
   vertex 23.806020041858662 39.189 1.8000000000000007
  endloop
 endfacet
 facet normal 0.0 0.0 1.0
  outer loop
   vertex 23.806020041858662 39.189 1.8000000000000007
   vertex 10.796018365183885 30.0 1.8000000000000007
   vertex 8.414768453298386 23.81 1.8000000000000007
  endloop
 endfacet
 facet normal 0.0 0.0 1.0
  outer loop
   vertex 10.796018365183885 30.0 1.8000000000000007
   vertex 10.396018365183883 29.30717967697245 1.8000000000000007
   vertex 8.414768453298386 23.81 1.8000000000000007
  endloop
 endfacet
 facet normal 0.0 -0.0 1.0
  outer loop
   vertex 10.796018365183885 30.0 1.8000000000000007
   vertex 23.806020041858662 39.189 1.8000000000000007
   vertex 10.396018365183885 30.69282032302755 1.8000000000000007
  endloop
 endfacet
 facet normal 0.0 0.0 1.0
  outer loop
   vertex 10.396018365183885 30.69282032302755 1.8000000000000007
   vertex 0.795719539045074 39.189 1.8000000000000007
   vertex 9.596018365183884 30.69282032302755 1.8000000000000007
  endloop
 endfacet
 facet normal 0.0 0.0 1.0
  outer loop
   vertex 9.596018365183884 30.69282032302755 1.8000000000000007
   vertex 0.8079662514124835 23.81 1.8000000000000007
   vertex 9.196018365183884 30.0 1.8000000000000007
  endloop
 endfacet
 facet normal 0.0 0.0 1.0
  outer loop
   vertex 9.196018365183884 30.0 1.8000000000000007
   vertex 8.414768453298386 23.81 1.8000000000000007
   vertex 9.596018365183884 29.30717967697245 1.8000000000000007
  endloop
 endfacet
 facet normal -0.0 0.0 1.0
  outer loop
   vertex 9.596018365183884 29.30717967697245 1.8000000000000007
   vertex 8.414768453298386 23.81 1.8000000000000007
   vertex 10.396018365183883 29.30717967697245 1.8000000000000007
  endloop
 endfacet
 facet normal -0.8660254037844384 -0.5000000000000004 0.0
  outer loop
   vertex 10.796018365183885 30.0 1.4400000000000004
   vertex 10.796018365183885 30.0 1.8000000000000007
   vertex 10.396018365183885 30.69282032302755 1.4400000000000004
  endloop
 endfacet
 facet normal -0.8660254037844384 -0.5000000000000004 0.0
  outer loop
   vertex 10.396018365183885 30.69282032302755 1.4400000000000004
   vertex 10.796018365183885 30.0 1.8000000000000007
   vertex 10.396018365183885 30.69282032302755 1.8000000000000007
  endloop
 endfacet
 facet normal 0.0 -1.0 0.0
  outer loop
   vertex 10.396018365183885 30.69282032302755 1.4400000000000004
   vertex 10.396018365183885 30.69282032302755 1.8000000000000007
   vertex 9.596018365183884 30.69282032302755 1.4400000000000004
  endloop
 endfacet
 facet normal 0.0 -1.0 0.0
  outer loop
   vertex 9.596018365183884 30.69282032302755 1.4400000000000004
   vertex 10.396018365183885 30.69282032302755 1.8000000000000007
   vertex 9.596018365183884 30.69282032302755 1.8000000000000007
  endloop
 endfacet
 facet normal 0.8660254037844384 -0.5000000000000004 0.0
  outer loop
   vertex 9.596018365183884 30.69282032302755 1.4400000000000004
   vertex 9.596018365183884 30.69282032302755 1.8000000000000007
   vertex 9.196018365183884 30.0 1.4400000000000004
  endloop
 endfacet
 facet normal 0.8660254037844384 -0.5000000000000004 0.0
  outer loop
   vertex 9.196018365183884 30.0 1.4400000000000004
   vertex 9.596018365183884 30.69282032302755 1.8000000000000007
   vertex 9.196018365183884 30.0 1.8000000000000007
  endloop
 endfacet
 facet normal 0.8660254037844384 0.5000000000000004 -0.0
  outer loop
   vertex 9.196018365183884 30.0 1.4400000000000004
   vertex 9.196018365183884 30.0 1.8000000000000007
   vertex 9.596018365183884 29.30717967697245 1.4400000000000004
  endloop
 endfacet
 facet normal 0.8660254037844384 0.5000000000000004 -0.0
  outer loop
   vertex 9.596018365183884 29.30717967697245 1.4400000000000004
   vertex 9.196018365183884 30.0 1.8000000000000007
   vertex 9.596018365183884 29.30717967697245 1.8000000000000007
  endloop
 endfacet
 facet normal 0.0 1.0 0.0
  outer loop
   vertex 9.596018365183884 29.30717967697245 1.4400000000000004
   vertex 9.596018365183884 29.30717967697245 1.8000000000000007
   vertex 10.396018365183883 29.30717967697245 1.4400000000000004
  endloop
 endfacet
 facet normal 0.0 1.0 -0.0
  outer loop
   vertex 10.396018365183883 29.30717967697245 1.4400000000000004
   vertex 9.596018365183884 29.30717967697245 1.8000000000000007
   vertex 10.396018365183883 29.30717967697245 1.8000000000000007
  endloop
 endfacet
 facet normal -0.8660254037844374 0.5000000000000021 0.0
  outer loop
   vertex 10.396018365183883 29.30717967697245 1.4400000000000004
   vertex 10.396018365183883 29.30717967697245 1.8000000000000007
   vertex 10.796018365183885 30.0 1.4400000000000004
  endloop
 endfacet
 facet normal -0.8660254037844374 0.5000000000000021 0.0
  outer loop
   vertex 10.796018365183885 30.0 1.4400000000000004
   vertex 10.396018365183883 29.30717967697245 1.8000000000000007
   vertex 10.796018365183885 30.0 1.8000000000000007
  endloop
 endfacet
 facet normal 0.0 0.0 -1.0
  outer loop
   vertex 19.195369093591776 16.19 0.54
   vertex 39.18596573712776 16.19 0.54
   vertex 30.39601836518388 10.69282032302755 0.54
  endloop
 endfacet
 facet normal 0.0 0.0 -1.0
  outer loop
   vertex 39.18596573712776 16.19 0.54
   vertex 39.17371902476035 0.811 0.54
   vertex 30.796018365183883 10.0 0.54
  endloop
 endfacet
 facet normal 0.0 0.0 -1.0
  outer loop
   vertex 39.17371902476035 0.811 0.54
   vertex 34.58662068215205 0.811 0.54
   vertex 30.796018365183883 10.0 0.54
  endloop
 endfacet
 facet normal 0.0 0.0 -1.0
  outer loop
   vertex 34.58662068215205 0.811 0.54
   vertex 19.195369093591776 16.19 0.54
   vertex 29.596018365183884 9.30717967697245 0.54
  endloop
 endfacet
 facet normal 0.0 0.0 -1.0
  outer loop
   vertex 30.796018365183883 10.0 0.54
   vertex 30.39601836518388 10.69282032302755 0.54
   vertex 39.18596573712776 16.19 0.54
  endloop
 endfacet
 facet normal 0.0 -0.0 -1.0
  outer loop
   vertex 30.796018365183883 10.0 0.54
   vertex 34.58662068215205 0.811 0.54
   vertex 30.39601836518388 9.30717967697245 0.54
  endloop
 endfacet
 facet normal 0.0 0.0 -1.0
  outer loop
   vertex 30.39601836518388 10.69282032302755 0.54
   vertex 29.596018365183884 10.69282032302755 0.54
   vertex 19.195369093591776 16.19 0.54
  endloop
 endfacet
 facet normal -0.0 0.0 -1.0
  outer loop
   vertex 29.596018365183884 10.69282032302755 0.54
   vertex 29.196018365183882 10.0 0.54
   vertex 19.195369093591776 16.19 0.54
  endloop
 endfacet
 facet normal -0.0 -0.0 -1.0
  outer loop
   vertex 29.196018365183882 10.0 0.54
   vertex 29.596018365183884 9.30717967697245 0.54
   vertex 19.195369093591776 16.19 0.54
  endloop
 endfacet
 facet normal 0.0 0.0 -1.0
  outer loop
   vertex 29.596018365183884 9.30717967697245 0.54
   vertex 30.39601836518388 9.30717967697245 0.54
   vertex 34.58662068215205 0.811 0.54
  endloop
 endfacet
 facet normal 0.0 0.12277539984319992 -0.9924344820658654
  outer loop
   vertex 39.18596573712776 16.19 0.54
   vertex 19.195369093591776 16.19 0.54
   vertex 12.166049827537075 19.1 0.9000000000000002
  endloop
 endfacet
 facet normal 0.0 0.12277539984319989 -0.9924344820658653
  outer loop
   vertex 39.18828304859074 19.1 0.9000000000000002
   vertex 39.18596573712776 16.19 0.54
   vertex 12.166049827537075 19.1 0.9000000000000002
  endloop
 endfacet
 facet normal 0.9999996829318346 -0.0007963267107331048 -6.33173679975258e-15
  outer loop
   vertex 39.17371902476035 0.811 0.54
   vertex 39.18596573712776 16.19 0.54
   vertex 39.18828304859074 19.1 0.9000000000000002
  endloop
 endfacet
 facet normal 0.9999996829318347 -0.0007963267107332295 0.0
  outer loop
   vertex 39.17371902476035 0.811 0.9000000000000002
   vertex 39.17371902476035 0.811 0.54
   vertex 39.18828304859074 19.1 0.9000000000000002
  endloop
 endfacet
 facet normal 0.0 -1.0 0.0
  outer loop
   vertex 34.58662068215205 0.811 0.54
   vertex 39.17371902476035 0.811 0.54
   vertex 39.17371902476035 0.811 0.9000000000000002
  endloop
 endfacet
 facet normal 0.0 -1.0 0.0
  outer loop
   vertex 30.46961965022898 0.811 0.9000000000000002
   vertex 34.58662068215205 0.811 0.54
   vertex 39.17371902476035 0.811 0.9000000000000002
  endloop
 endfacet
 facet normal -0.08678074422945337 -0.08684987759139197 -0.9924344820658654
  outer loop
   vertex 19.195369093591776 16.19 0.54
   vertex 34.58662068215205 0.811 0.54
   vertex 30.46961965022898 0.811 0.9000000000000002
  endloop
 endfacet
 facet normal -0.08678074422945346 -0.08684987759139204 -0.9924344820658654
  outer loop
   vertex 12.166049827537075 19.1 0.9000000000000002
   vertex 19.195369093591776 16.19 0.54
   vertex 30.46961965022898 0.811 0.9000000000000002
  endloop
 endfacet
 facet normal -0.0 0.0 1.0
  outer loop
   vertex 12.166049827537075 19.1 0.9000000000000002
   vertex 30.39601836518388 10.69282032302755 0.9000000000000002
   vertex 39.18828304859074 19.1 0.9000000000000002
  endloop
 endfacet
 facet normal 0.0 0.0 1.0
  outer loop
   vertex 39.18828304859074 19.1 0.9000000000000002
   vertex 30.796018365183883 10.0 0.9000000000000002
   vertex 39.17371902476035 0.811 0.9000000000000002
  endloop
 endfacet
 facet normal 0.0 0.0 1.0
  outer loop
   vertex 39.17371902476035 0.811 0.9000000000000002
   vertex 30.796018365183883 10.0 0.9000000000000002
   vertex 30.46961965022898 0.811 0.9000000000000002
  endloop
 endfacet
 facet normal 0.0 0.0 1.0
  outer loop
   vertex 30.46961965022898 0.811 0.9000000000000002
   vertex 29.196018365183882 10.0 0.9000000000000002
   vertex 12.166049827537075 19.1 0.9000000000000002
  endloop
 endfacet
 facet normal 0.0 -0.0 1.0
  outer loop
   vertex 30.796018365183883 10.0 0.9000000000000002
   vertex 39.18828304859074 19.1 0.9000000000000002
   vertex 30.39601836518388 10.69282032302755 0.9000000000000002
  endloop
 endfacet
 facet normal 0.0 0.0 1.0
  outer loop
   vertex 30.796018365183883 10.0 0.9000000000000002
   vertex 30.39601836518388 9.30717967697245 0.9000000000000002
   vertex 30.46961965022898 0.811 0.9000000000000002
  endloop
 endfacet
 facet normal 0.0 0.0 1.0
  outer loop
   vertex 30.39601836518388 10.69282032302755 0.9000000000000002
   vertex 12.166049827537075 19.1 0.9000000000000002
   vertex 29.596018365183884 10.69282032302755 0.9000000000000002
  endloop
 endfacet
 facet normal 0.0 0.0 1.0
  outer loop
   vertex 29.596018365183884 10.69282032302755 0.9000000000000002
   vertex 12.166049827537075 19.1 0.9000000000000002
   vertex 29.196018365183882 10.0 0.9000000000000002
  endloop
 endfacet
 facet normal 0.0 0.0 1.0
  outer loop
   vertex 29.196018365183882 10.0 0.9000000000000002
   vertex 30.46961965022898 0.811 0.9000000000000002
   vertex 29.596018365183884 9.30717967697245 0.9000000000000002
  endloop
 endfacet
 facet normal -0.0 0.0 1.0
  outer loop
   vertex 29.596018365183884 9.30717967697245 0.9000000000000002
   vertex 30.46961965022898 0.811 0.9000000000000002
   vertex 30.39601836518388 9.30717967697245 0.9000000000000002
  endloop
 endfacet
 facet normal -0.8660254037844374 -0.5000000000000021 0.0
  outer loop
   vertex 30.796018365183883 10.0 0.54
   vertex 30.796018365183883 10.0 0.9000000000000002
   vertex 30.39601836518388 10.69282032302755 0.54
  endloop
 endfacet
 facet normal -0.8660254037844374 -0.5000000000000021 0.0
  outer loop
   vertex 30.39601836518388 10.69282032302755 0.54
   vertex 30.796018365183883 10.0 0.9000000000000002
   vertex 30.39601836518388 10.69282032302755 0.9000000000000002
  endloop
 endfacet
 facet normal 0.0 -1.0 0.0
  outer loop
   vertex 30.39601836518388 10.69282032302755 0.54
   vertex 30.39601836518388 10.69282032302755 0.9000000000000002
   vertex 29.596018365183884 10.69282032302755 0.54
  endloop
 endfacet
 facet normal 0.0 -1.0 0.0
  outer loop
   vertex 29.596018365183884 10.69282032302755 0.54
   vertex 30.39601836518388 10.69282032302755 0.9000000000000002
   vertex 29.596018365183884 10.69282032302755 0.9000000000000002
  endloop
 endfacet
 facet normal 0.8660254037844374 -0.5000000000000021 0.0
  outer loop
   vertex 29.596018365183884 10.69282032302755 0.54
   vertex 29.596018365183884 10.69282032302755 0.9000000000000002
   vertex 29.196018365183882 10.0 0.54
  endloop
 endfacet
 facet normal 0.8660254037844374 -0.5000000000000021 0.0
  outer loop
   vertex 29.196018365183882 10.0 0.54
   vertex 29.596018365183884 10.69282032302755 0.9000000000000002
   vertex 29.196018365183882 10.0 0.9000000000000002
  endloop
 endfacet
 facet normal 0.8660254037844374 0.5000000000000021 -0.0
  outer loop
   vertex 29.196018365183882 10.0 0.54
   vertex 29.196018365183882 10.0 0.9000000000000002
   vertex 29.596018365183884 9.30717967697245 0.54
  endloop
 endfacet
 facet normal 0.8660254037844374 0.5000000000000021 -0.0
  outer loop
   vertex 29.596018365183884 9.30717967697245 0.54
   vertex 29.196018365183882 10.0 0.9000000000000002
   vertex 29.596018365183884 9.30717967697245 0.9000000000000002
  endloop
 endfacet
 facet normal 0.0 1.0 0.0
  outer loop
   vertex 29.596018365183884 9.30717967697245 0.54
   vertex 29.596018365183884 9.30717967697245 0.9000000000000002
   vertex 30.39601836518388 9.30717967697245 0.54
  endloop
 endfacet
 facet normal 0.0 1.0 -0.0
  outer loop
   vertex 30.39601836518388 9.30717967697245 0.54
   vertex 29.596018365183884 9.30717967697245 0.9000000000000002
   vertex 30.39601836518388 9.30717967697245 0.9000000000000002
  endloop
 endfacet
 facet normal -0.8660254037844374 0.5000000000000021 0.0
  outer loop
   vertex 30.39601836518388 9.30717967697245 0.54
   vertex 30.39601836518388 9.30717967697245 0.9000000000000002
   vertex 30.796018365183883 10.0 0.54
  endloop
 endfacet
 facet normal -0.8660254037844374 0.5000000000000021 0.0
  outer loop
   vertex 30.796018365183883 10.0 0.54
   vertex 30.39601836518388 9.30717967697245 0.9000000000000002
   vertex 30.796018365183883 10.0 0.9000000000000002
  endloop
 endfacet
 facet normal 0.0 0.0 -1.0
  outer loop
   vertex 12.166049827537075 19.1 1.4400000000000004
   vertex 39.18828304859074 19.1 1.4400000000000004
   vertex 30.39601836518388 10.69282032302755 1.4400000000000004
  endloop
 endfacet
 facet normal 0.0 0.0 -1.0
  outer loop
   vertex 39.18828304859074 19.1 1.4400000000000004
   vertex 39.17371902476035 0.811 1.4400000000000004
   vertex 30.796018365183883 10.0 1.4400000000000004
  endloop
 endfacet
 facet normal 0.0 0.0 -1.0
  outer loop
   vertex 39.17371902476035 0.811 1.4400000000000004
   vertex 30.46961965022898 0.811 1.4400000000000004
   vertex 30.796018365183883 10.0 1.4400000000000004
  endloop
 endfacet
 facet normal 0.0 0.0 -1.0
  outer loop
   vertex 30.46961965022898 0.811 1.4400000000000004
   vertex 12.166049827537075 19.1 1.4400000000000004
   vertex 29.196018365183882 10.0 1.4400000000000004
  endloop
 endfacet
 facet normal 0.0 0.0 -1.0
  outer loop
   vertex 30.796018365183883 10.0 1.4400000000000004
   vertex 30.39601836518388 10.69282032302755 1.4400000000000004
   vertex 39.18828304859074 19.1 1.4400000000000004
  endloop
 endfacet
 facet normal 0.0 0.0 -1.0
  outer loop
   vertex 30.796018365183883 10.0 1.4400000000000004
   vertex 30.46961965022898 0.811 1.4400000000000004
   vertex 30.39601836518388 9.30717967697245 1.4400000000000004
  endloop
 endfacet
 facet normal 0.0 0.0 -1.0
  outer loop
   vertex 30.39601836518388 10.69282032302755 1.4400000000000004
   vertex 29.596018365183884 10.69282032302755 1.4400000000000004
   vertex 12.166049827537075 19.1 1.4400000000000004
  endloop
 endfacet
 facet normal -0.0 0.0 -1.0
  outer loop
   vertex 29.596018365183884 10.69282032302755 1.4400000000000004
   vertex 29.196018365183882 10.0 1.4400000000000004
   vertex 12.166049827537075 19.1 1.4400000000000004
  endloop
 endfacet
 facet normal 0.0 0.0 -1.0
  outer loop
   vertex 29.196018365183882 10.0 1.4400000000000004
   vertex 29.596018365183884 9.30717967697245 1.4400000000000004
   vertex 30.46961965022898 0.811 1.4400000000000004
  endloop
 endfacet
 facet normal 0.0 0.0 -1.0
  outer loop
   vertex 29.596018365183884 9.30717967697245 1.4400000000000004
   vertex 30.39601836518388 9.30717967697245 1.4400000000000004
   vertex 30.46961965022898 0.811 1.4400000000000004
  endloop
 endfacet
 facet normal 0.0 0.12277539984319993 0.9924344820658653
  outer loop
   vertex 39.18828304859074 19.1 1.4400000000000004
   vertex 12.166049827537075 19.1 1.4400000000000004
   vertex 19.195369093591776 16.19 1.8000000000000007
  endloop
 endfacet
 facet normal 0.0 0.12277539984319995 0.9924344820658654
  outer loop
   vertex 39.18596573712776 16.19 1.8000000000000007
   vertex 39.18828304859074 19.1 1.4400000000000004
   vertex 19.195369093591776 16.19 1.8000000000000007
  endloop
 endfacet
 facet normal 0.9999996829318347 -0.0007963267107332295 5.324281275269009e-15
  outer loop
   vertex 39.17371902476035 0.811 1.4400000000000004
   vertex 39.18828304859074 19.1 1.4400000000000004
   vertex 39.18596573712776 16.19 1.8000000000000007
  endloop
 endfacet
 facet normal 0.9999996829318346 -0.0007963267107331047 0.0
  outer loop
   vertex 39.17371902476035 0.811 1.8000000000000007
   vertex 39.17371902476035 0.811 1.4400000000000004
   vertex 39.18596573712776 16.19 1.8000000000000007
  endloop
 endfacet
 facet normal 0.0 -1.0 0.0
  outer loop
   vertex 30.46961965022898 0.811 1.4400000000000004
   vertex 39.17371902476035 0.811 1.4400000000000004
   vertex 39.17371902476035 0.811 1.8000000000000007
  endloop
 endfacet
 facet normal 0.0 -1.0 -0.0
  outer loop
   vertex 34.58662068215205 0.811 1.8000000000000007
   vertex 30.46961965022898 0.811 1.4400000000000004
   vertex 39.17371902476035 0.811 1.8000000000000007
  endloop
 endfacet
 facet normal -0.08678074422945335 -0.08684987759139191 0.9924344820658654
  outer loop
   vertex 12.166049827537075 19.1 1.4400000000000004
   vertex 30.46961965022898 0.811 1.4400000000000004
   vertex 34.58662068215205 0.811 1.8000000000000007
  endloop
 endfacet
 facet normal -0.08678074422945352 -0.08684987759139212 0.9924344820658653
  outer loop
   vertex 19.195369093591776 16.19 1.8000000000000007
   vertex 12.166049827537075 19.1 1.4400000000000004
   vertex 34.58662068215205 0.811 1.8000000000000007
  endloop
 endfacet
 facet normal -0.0 0.0 1.0
  outer loop
   vertex 19.195369093591776 16.19 1.8000000000000007
   vertex 30.39601836518388 10.69282032302755 1.8000000000000007
   vertex 39.18596573712776 16.19 1.8000000000000007
  endloop
 endfacet
 facet normal 0.0 0.0 1.0
  outer loop
   vertex 39.18596573712776 16.19 1.8000000000000007
   vertex 30.796018365183883 10.0 1.8000000000000007
   vertex 39.17371902476035 0.811 1.8000000000000007
  endloop
 endfacet
 facet normal 0.0 0.0 1.0
  outer loop
   vertex 39.17371902476035 0.811 1.8000000000000007
   vertex 30.796018365183883 10.0 1.8000000000000007
   vertex 34.58662068215205 0.811 1.8000000000000007
  endloop
 endfacet
 facet normal 0.0 0.0 1.0
  outer loop
   vertex 34.58662068215205 0.811 1.8000000000000007
   vertex 29.596018365183884 9.30717967697245 1.8000000000000007
   vertex 19.195369093591776 16.19 1.8000000000000007
  endloop
 endfacet
 facet normal 0.0 -0.0 1.0
  outer loop
   vertex 30.796018365183883 10.0 1.8000000000000007
   vertex 39.18596573712776 16.19 1.8000000000000007
   vertex 30.39601836518388 10.69282032302755 1.8000000000000007
  endloop
 endfacet
 facet normal 0.0 0.0 1.0
  outer loop
   vertex 30.796018365183883 10.0 1.8000000000000007
   vertex 30.39601836518388 9.30717967697245 1.8000000000000007
   vertex 34.58662068215205 0.811 1.8000000000000007
  endloop
 endfacet
 facet normal 0.0 0.0 1.0
  outer loop
   vertex 30.39601836518388 10.69282032302755 1.8000000000000007
   vertex 19.195369093591776 16.19 1.8000000000000007
   vertex 29.596018365183884 10.69282032302755 1.8000000000000007
  endloop
 endfacet
 facet normal 0.0 0.0 1.0
  outer loop
   vertex 29.596018365183884 10.69282032302755 1.8000000000000007
   vertex 19.195369093591776 16.19 1.8000000000000007
   vertex 29.196018365183882 10.0 1.8000000000000007
  endloop
 endfacet
 facet normal 0.0 0.0 1.0
  outer loop
   vertex 29.196018365183882 10.0 1.8000000000000007
   vertex 19.195369093591776 16.19 1.8000000000000007
   vertex 29.596018365183884 9.30717967697245 1.8000000000000007
  endloop
 endfacet
 facet normal -0.0 0.0 1.0
  outer loop
   vertex 29.596018365183884 9.30717967697245 1.8000000000000007
   vertex 34.58662068215205 0.811 1.8000000000000007
   vertex 30.39601836518388 9.30717967697245 1.8000000000000007
  endloop
 endfacet
 facet normal -0.8660254037844374 -0.5000000000000021 0.0
  outer loop
   vertex 30.796018365183883 10.0 1.4400000000000004
   vertex 30.796018365183883 10.0 1.8000000000000007
   vertex 30.39601836518388 10.69282032302755 1.4400000000000004
  endloop
 endfacet
 facet normal -0.8660254037844374 -0.5000000000000021 0.0
  outer loop
   vertex 30.39601836518388 10.69282032302755 1.4400000000000004
   vertex 30.796018365183883 10.0 1.8000000000000007
   vertex 30.39601836518388 10.69282032302755 1.8000000000000007
  endloop
 endfacet
 facet normal 0.0 -1.0 0.0
  outer loop
   vertex 30.39601836518388 10.69282032302755 1.4400000000000004
   vertex 30.39601836518388 10.69282032302755 1.8000000000000007
   vertex 29.596018365183884 10.69282032302755 1.4400000000000004
  endloop
 endfacet
 facet normal 0.0 -1.0 0.0
  outer loop
   vertex 29.596018365183884 10.69282032302755 1.4400000000000004
   vertex 30.39601836518388 10.69282032302755 1.8000000000000007
   vertex 29.596018365183884 10.69282032302755 1.8000000000000007
  endloop
 endfacet
 facet normal 0.8660254037844374 -0.5000000000000021 0.0
  outer loop
   vertex 29.596018365183884 10.69282032302755 1.4400000000000004
   vertex 29.596018365183884 10.69282032302755 1.8000000000000007
   vertex 29.196018365183882 10.0 1.4400000000000004
  endloop
 endfacet
 facet normal 0.8660254037844374 -0.5000000000000021 0.0
  outer loop
   vertex 29.196018365183882 10.0 1.4400000000000004
   vertex 29.596018365183884 10.69282032302755 1.8000000000000007
   vertex 29.196018365183882 10.0 1.8000000000000007
  endloop
 endfacet
 facet normal 0.8660254037844374 0.5000000000000021 -0.0
  outer loop
   vertex 29.196018365183882 10.0 1.4400000000000004
   vertex 29.196018365183882 10.0 1.8000000000000007
   vertex 29.596018365183884 9.30717967697245 1.4400000000000004
  endloop
 endfacet
 facet normal 0.8660254037844374 0.5000000000000021 -0.0
  outer loop
   vertex 29.596018365183884 9.30717967697245 1.4400000000000004
   vertex 29.196018365183882 10.0 1.8000000000000007
   vertex 29.596018365183884 9.30717967697245 1.8000000000000007
  endloop
 endfacet
 facet normal 0.0 1.0 0.0
  outer loop
   vertex 29.596018365183884 9.30717967697245 1.4400000000000004
   vertex 29.596018365183884 9.30717967697245 1.8000000000000007
   vertex 30.39601836518388 9.30717967697245 1.4400000000000004
  endloop
 endfacet
 facet normal 0.0 1.0 -0.0
  outer loop
   vertex 30.39601836518388 9.30717967697245 1.4400000000000004
   vertex 29.596018365183884 9.30717967697245 1.8000000000000007
   vertex 30.39601836518388 9.30717967697245 1.8000000000000007
  endloop
 endfacet
 facet normal -0.8660254037844374 0.5000000000000021 0.0
  outer loop
   vertex 30.39601836518388 9.30717967697245 1.4400000000000004
   vertex 30.39601836518388 9.30717967697245 1.8000000000000007
   vertex 30.796018365183883 10.0 1.4400000000000004
  endloop
 endfacet
 facet normal -0.8660254037844374 0.5000000000000021 0.0
  outer loop
   vertex 30.796018365183883 10.0 1.4400000000000004
   vertex 30.39601836518388 9.30717967697245 1.8000000000000007
   vertex 30.796018365183883 10.0 1.8000000000000007
  endloop
 endfacet
 facet normal 0.0 0.0 -1.0
  outer loop
   vertex 39.18596573712775 23.81 0.54
   vertex 19.19536909359178 23.81 0.54
   vertex 29.596018365183888 29.30717967697245 0.54
  endloop
 endfacet
 facet normal 0.0 0.0 -1.0
  outer loop
   vertex 19.19536909359178 23.81 0.54
   vertex 34.58662068215206 39.18900000000001 0.54
   vertex 29.596018365183888 30.69282032302755 0.54
  endloop
 endfacet
 facet normal 0.0 -0.0 -1.0
  outer loop
   vertex 34.58662068215206 39.18900000000001 0.54
   vertex 39.173719024760345 39.18900000000001 0.54
   vertex 30.796018365183887 30.0 0.54
  endloop
 endfacet
 facet normal 0.0 -0.0 -1.0
  outer loop
   vertex 39.173719024760345 39.18900000000001 0.54
   vertex 39.18596573712775 23.81 0.54
   vertex 30.796018365183887 30.0 0.54
  endloop
 endfacet
 facet normal 0.0 -0.0 -1.0
  outer loop
   vertex 30.796018365183887 30.0 0.54
   vertex 39.18596573712775 23.81 0.54
   vertex 30.396018365183885 29.30717967697245 0.54
  endloop
 endfacet
 facet normal 0.0 0.0 -1.0
  outer loop
   vertex 30.796018365183887 30.0 0.54
   vertex 30.396018365183885 30.69282032302755 0.54
   vertex 34.58662068215206 39.18900000000001 0.54
  endloop
 endfacet
 facet normal 0.0 0.0 -1.0
  outer loop
   vertex 30.396018365183885 30.69282032302755 0.54
   vertex 29.596018365183888 30.69282032302755 0.54
   vertex 34.58662068215206 39.18900000000001 0.54
  endloop
 endfacet
 facet normal 0.0 0.0 -1.0
  outer loop
   vertex 29.596018365183888 30.69282032302755 0.54
   vertex 29.196018365183885 30.0 0.54
   vertex 19.19536909359178 23.81 0.54
  endloop
 endfacet
 facet normal 0.0 -0.0 -1.0
  outer loop
   vertex 29.196018365183885 30.0 0.54
   vertex 29.596018365183888 29.30717967697245 0.54
   vertex 19.19536909359178 23.81 0.54
  endloop
 endfacet
 facet normal 0.0 0.0 -1.0
  outer loop
   vertex 29.596018365183888 29.30717967697245 0.54
   vertex 30.396018365183885 29.30717967697245 0.54
   vertex 39.18596573712775 23.81 0.54
  endloop
 endfacet
 facet normal 0.0 -0.1227753998431999 -0.9924344820658654
  outer loop
   vertex 19.19536909359178 23.81 0.54
   vertex 39.18596573712775 23.81 0.54
   vertex 39.18828304859073 20.9 0.9000000000000002
  endloop
 endfacet
 facet normal 0.0 -0.12277539984319989 -0.9924344820658653
  outer loop
   vertex 12.166049827537076 20.9 0.9000000000000002
   vertex 19.19536909359178 23.81 0.54
   vertex 39.18828304859073 20.9 0.9000000000000002
  endloop
 endfacet
 facet normal -0.08678074422945349 0.08684987759139207 -0.9924344820658653
  outer loop
   vertex 34.58662068215206 39.18900000000001 0.54
   vertex 19.19536909359178 23.81 0.54
   vertex 12.166049827537076 20.9 0.9000000000000002
  endloop
 endfacet
 facet normal -0.08678074422945349 0.08684987759139208 -0.9924344820658654
  outer loop
   vertex 30.469619650228992 39.18900000000001 0.9000000000000002
   vertex 34.58662068215206 39.18900000000001 0.54
   vertex 12.166049827537076 20.9 0.9000000000000002
  endloop
 endfacet
 facet normal 0.0 1.0 0.0
  outer loop
   vertex 39.173719024760345 39.18900000000001 0.54
   vertex 34.58662068215206 39.18900000000001 0.54
   vertex 30.469619650228992 39.18900000000001 0.9000000000000002
  endloop
 endfacet
 facet normal 0.0 1.0 0.0
  outer loop
   vertex 39.173719024760345 39.18900000000001 0.9000000000000002
   vertex 39.173719024760345 39.18900000000001 0.54
   vertex 30.469619650228992 39.18900000000001 0.9000000000000002
  endloop
 endfacet
 facet normal 0.9999996829318346 0.0007963267107331045 0.0
  outer loop
   vertex 39.18596573712775 23.81 0.54
   vertex 39.173719024760345 39.18900000000001 0.54
   vertex 39.173719024760345 39.18900000000001 0.9000000000000002
  endloop
 endfacet
 facet normal 0.9999996829318347 0.0007963267107332292 -5.3253351710083724e-15
  outer loop
   vertex 39.18828304859073 20.9 0.9000000000000002
   vertex 39.18596573712775 23.81 0.54
   vertex 39.173719024760345 39.18900000000001 0.9000000000000002
  endloop
 endfacet
 facet normal 0.0 0.0 1.0
  outer loop
   vertex 39.18828304859073 20.9 0.9000000000000002
   vertex 29.596018365183888 29.30717967697245 0.9000000000000002
   vertex 12.166049827537076 20.9 0.9000000000000002
  endloop
 endfacet
 facet normal 0.0 0.0 1.0
  outer loop
   vertex 12.166049827537076 20.9 0.9000000000000002
   vertex 29.596018365183888 30.69282032302755 0.9000000000000002
   vertex 30.469619650228992 39.18900000000001 0.9000000000000002
  endloop
 endfacet
 facet normal -0.0 0.0 1.0
  outer loop
   vertex 30.469619650228992 39.18900000000001 0.9000000000000002
   vertex 30.796018365183887 30.0 0.9000000000000002
   vertex 39.173719024760345 39.18900000000001 0.9000000000000002
  endloop
 endfacet
 facet normal 0.0 0.0 1.0
  outer loop
   vertex 39.173719024760345 39.18900000000001 0.9000000000000002
   vertex 30.796018365183887 30.0 0.9000000000000002
   vertex 39.18828304859073 20.9 0.9000000000000002
  endloop
 endfacet
 facet normal 0.0 0.0 1.0
  outer loop
   vertex 30.796018365183887 30.0 0.9000000000000002
   vertex 30.396018365183885 29.30717967697245 0.9000000000000002
   vertex 39.18828304859073 20.9 0.9000000000000002
  endloop
 endfacet
 facet normal 0.0 0.0 1.0
  outer loop
   vertex 30.796018365183887 30.0 0.9000000000000002
   vertex 30.469619650228992 39.18900000000001 0.9000000000000002
   vertex 30.396018365183885 30.69282032302755 0.9000000000000002
  endloop
 endfacet
 facet normal 0.0 -0.0 1.0
  outer loop
   vertex 30.396018365183885 30.69282032302755 0.9000000000000002
   vertex 30.469619650228992 39.18900000000001 0.9000000000000002
   vertex 29.596018365183888 30.69282032302755 0.9000000000000002
  endloop
 endfacet
 facet normal 0.0 0.0 1.0
  outer loop
   vertex 29.596018365183888 30.69282032302755 0.9000000000000002
   vertex 12.166049827537076 20.9 0.9000000000000002
   vertex 29.196018365183885 30.0 0.9000000000000002
  endloop
 endfacet
 facet normal 0.0 0.0 1.0
  outer loop
   vertex 29.196018365183885 30.0 0.9000000000000002
   vertex 12.166049827537076 20.9 0.9000000000000002
   vertex 29.596018365183888 29.30717967697245 0.9000000000000002
  endloop
 endfacet
 facet normal -0.0 0.0 1.0
  outer loop
   vertex 29.596018365183888 29.30717967697245 0.9000000000000002
   vertex 39.18828304859073 20.9 0.9000000000000002
   vertex 30.396018365183885 29.30717967697245 0.9000000000000002
  endloop
 endfacet
 facet normal -0.8660254037844374 -0.5000000000000021 0.0
  outer loop
   vertex 30.796018365183887 30.0 0.54
   vertex 30.796018365183887 30.0 0.9000000000000002
   vertex 30.396018365183885 30.69282032302755 0.54
  endloop
 endfacet
 facet normal -0.8660254037844374 -0.5000000000000021 0.0
  outer loop
   vertex 30.396018365183885 30.69282032302755 0.54
   vertex 30.796018365183887 30.0 0.9000000000000002
   vertex 30.396018365183885 30.69282032302755 0.9000000000000002
  endloop
 endfacet
 facet normal 0.0 -1.0 0.0
  outer loop
   vertex 30.396018365183885 30.69282032302755 0.54
   vertex 30.396018365183885 30.69282032302755 0.9000000000000002
   vertex 29.596018365183888 30.69282032302755 0.54
  endloop
 endfacet
 facet normal 0.0 -1.0 0.0
  outer loop
   vertex 29.596018365183888 30.69282032302755 0.54
   vertex 30.396018365183885 30.69282032302755 0.9000000000000002
   vertex 29.596018365183888 30.69282032302755 0.9000000000000002
  endloop
 endfacet
 facet normal 0.8660254037844374 -0.5000000000000021 0.0
  outer loop
   vertex 29.596018365183888 30.69282032302755 0.54
   vertex 29.596018365183888 30.69282032302755 0.9000000000000002
   vertex 29.196018365183885 30.0 0.54
  endloop
 endfacet
 facet normal 0.8660254037844374 -0.5000000000000021 0.0
  outer loop
   vertex 29.196018365183885 30.0 0.54
   vertex 29.596018365183888 30.69282032302755 0.9000000000000002
   vertex 29.196018365183885 30.0 0.9000000000000002
  endloop
 endfacet
 facet normal 0.8660254037844374 0.5000000000000021 -0.0
  outer loop
   vertex 29.196018365183885 30.0 0.54
   vertex 29.196018365183885 30.0 0.9000000000000002
   vertex 29.596018365183888 29.30717967697245 0.54
  endloop
 endfacet
 facet normal 0.8660254037844374 0.5000000000000021 -0.0
  outer loop
   vertex 29.596018365183888 29.30717967697245 0.54
   vertex 29.196018365183885 30.0 0.9000000000000002
   vertex 29.596018365183888 29.30717967697245 0.9000000000000002
  endloop
 endfacet
 facet normal 0.0 1.0 0.0
  outer loop
   vertex 29.596018365183888 29.30717967697245 0.54
   vertex 29.596018365183888 29.30717967697245 0.9000000000000002
   vertex 30.396018365183885 29.30717967697245 0.54
  endloop
 endfacet
 facet normal 0.0 1.0 -0.0
  outer loop
   vertex 30.396018365183885 29.30717967697245 0.54
   vertex 29.596018365183888 29.30717967697245 0.9000000000000002
   vertex 30.396018365183885 29.30717967697245 0.9000000000000002
  endloop
 endfacet
 facet normal -0.8660254037844374 0.5000000000000021 0.0
  outer loop
   vertex 30.396018365183885 29.30717967697245 0.54
   vertex 30.396018365183885 29.30717967697245 0.9000000000000002
   vertex 30.796018365183887 30.0 0.54
  endloop
 endfacet
 facet normal -0.8660254037844374 0.5000000000000021 0.0
  outer loop
   vertex 30.796018365183887 30.0 0.54
   vertex 30.396018365183885 29.30717967697245 0.9000000000000002
   vertex 30.796018365183887 30.0 0.9000000000000002
  endloop
 endfacet
 facet normal 0.0 0.0 -1.0
  outer loop
   vertex 39.18828304859073 20.9 1.4400000000000004
   vertex 12.166049827537076 20.9 1.4400000000000004
   vertex 29.596018365183888 29.30717967697245 1.4400000000000004
  endloop
 endfacet
 facet normal 0.0 0.0 -1.0
  outer loop
   vertex 12.166049827537076 20.9 1.4400000000000004
   vertex 30.469619650228992 39.18900000000001 1.4400000000000004
   vertex 29.596018365183888 30.69282032302755 1.4400000000000004
  endloop
 endfacet
 facet normal 0.0 0.0 -1.0
  outer loop
   vertex 30.469619650228992 39.18900000000001 1.4400000000000004
   vertex 39.173719024760345 39.18900000000001 1.4400000000000004
   vertex 30.796018365183887 30.0 1.4400000000000004
  endloop
 endfacet
 facet normal 0.0 -0.0 -1.0
  outer loop
   vertex 39.173719024760345 39.18900000000001 1.4400000000000004
   vertex 39.18828304859073 20.9 1.4400000000000004
   vertex 30.796018365183887 30.0 1.4400000000000004
  endloop
 endfacet
 facet normal 0.0 -0.0 -1.0
  outer loop
   vertex 30.796018365183887 30.0 1.4400000000000004
   vertex 39.18828304859073 20.9 1.4400000000000004
   vertex 30.396018365183885 29.30717967697245 1.4400000000000004
  endloop
 endfacet
 facet normal 0.0 0.0 -1.0
  outer loop
   vertex 30.796018365183887 30.0 1.4400000000000004
   vertex 30.396018365183885 30.69282032302755 1.4400000000000004
   vertex 30.469619650228992 39.18900000000001 1.4400000000000004
  endloop
 endfacet
 facet normal 0.0 0.0 -1.0
  outer loop
   vertex 30.396018365183885 30.69282032302755 1.4400000000000004
   vertex 29.596018365183888 30.69282032302755 1.4400000000000004
   vertex 30.469619650228992 39.18900000000001 1.4400000000000004
  endloop
 endfacet
 facet normal 0.0 0.0 -1.0
  outer loop
   vertex 29.596018365183888 30.69282032302755 1.4400000000000004
   vertex 29.196018365183885 30.0 1.4400000000000004
   vertex 12.166049827537076 20.9 1.4400000000000004
  endloop
 endfacet
 facet normal 0.0 -0.0 -1.0
  outer loop
   vertex 29.196018365183885 30.0 1.4400000000000004
   vertex 29.596018365183888 29.30717967697245 1.4400000000000004
   vertex 12.166049827537076 20.9 1.4400000000000004
  endloop
 endfacet
 facet normal 0.0 0.0 -1.0
  outer loop
   vertex 29.596018365183888 29.30717967697245 1.4400000000000004
   vertex 30.396018365183885 29.30717967697245 1.4400000000000004
   vertex 39.18828304859073 20.9 1.4400000000000004
  endloop
 endfacet
 facet normal 0.0 -0.12277539984319993 0.9924344820658653
  outer loop
   vertex 12.166049827537076 20.9 1.4400000000000004
   vertex 39.18828304859073 20.9 1.4400000000000004
   vertex 39.18596573712775 23.81 1.8000000000000007
  endloop
 endfacet
 facet normal 0.0 -0.12277539984319995 0.9924344820658654
  outer loop
   vertex 19.19536909359178 23.81 1.8000000000000007
   vertex 12.166049827537076 20.9 1.4400000000000004
   vertex 39.18596573712775 23.81 1.8000000000000007
  endloop
 endfacet
 facet normal -0.08678074422945348 0.08684987759139208 0.9924344820658654
  outer loop
   vertex 30.469619650228992 39.18900000000001 1.4400000000000004
   vertex 12.166049827537076 20.9 1.4400000000000004
   vertex 19.19536909359178 23.81 1.8000000000000007
  endloop
 endfacet
 facet normal -0.0867807442294535 0.08684987759139208 0.9924344820658653
  outer loop
   vertex 34.58662068215206 39.18900000000001 1.8000000000000007
   vertex 30.469619650228992 39.18900000000001 1.4400000000000004
   vertex 19.19536909359178 23.81 1.8000000000000007
  endloop
 endfacet
 facet normal 0.0 1.0 0.0
  outer loop
   vertex 39.173719024760345 39.18900000000001 1.4400000000000004
   vertex 30.469619650228992 39.18900000000001 1.4400000000000004
   vertex 34.58662068215206 39.18900000000001 1.8000000000000007
  endloop
 endfacet
 facet normal 0.0 1.0 0.0
  outer loop
   vertex 39.173719024760345 39.18900000000001 1.8000000000000007
   vertex 39.173719024760345 39.18900000000001 1.4400000000000004
   vertex 34.58662068215206 39.18900000000001 1.8000000000000007
  endloop
 endfacet
 facet normal 0.9999996829318347 0.0007963267107332292 0.0
  outer loop
   vertex 39.18828304859073 20.9 1.4400000000000004
   vertex 39.173719024760345 39.18900000000001 1.4400000000000004
   vertex 39.173719024760345 39.18900000000001 1.8000000000000007
  endloop
 endfacet
 facet normal 0.9999996829318346 0.0007963267107331044 6.334243425564037e-15
  outer loop
   vertex 39.18596573712775 23.81 1.8000000000000007
   vertex 39.18828304859073 20.9 1.4400000000000004
   vertex 39.173719024760345 39.18900000000001 1.8000000000000007
  endloop
 endfacet
 facet normal 0.0 0.0 1.0
  outer loop
   vertex 39.18596573712775 23.81 1.8000000000000007
   vertex 29.596018365183888 29.30717967697245 1.8000000000000007
   vertex 19.19536909359178 23.81 1.8000000000000007
  endloop
 endfacet
 facet normal 0.0 0.0 1.0
  outer loop
   vertex 19.19536909359178 23.81 1.8000000000000007
   vertex 29.596018365183888 30.69282032302755 1.8000000000000007
   vertex 34.58662068215206 39.18900000000001 1.8000000000000007
  endloop
 endfacet
 facet normal -0.0 0.0 1.0
  outer loop
   vertex 34.58662068215206 39.18900000000001 1.8000000000000007
   vertex 30.796018365183887 30.0 1.8000000000000007
   vertex 39.173719024760345 39.18900000000001 1.8000000000000007
  endloop
 endfacet
 facet normal 0.0 0.0 1.0
  outer loop
   vertex 39.173719024760345 39.18900000000001 1.8000000000000007
   vertex 30.796018365183887 30.0 1.8000000000000007
   vertex 39.18596573712775 23.81 1.8000000000000007
  endloop
 endfacet
 facet normal 0.0 0.0 1.0
  outer loop
   vertex 30.796018365183887 30.0 1.8000000000000007
   vertex 30.396018365183885 29.30717967697245 1.8000000000000007
   vertex 39.18596573712775 23.81 1.8000000000000007
  endloop
 endfacet
 facet normal 0.0 -0.0 1.0
  outer loop
   vertex 30.796018365183887 30.0 1.8000000000000007
   vertex 34.58662068215206 39.18900000000001 1.8000000000000007
   vertex 30.396018365183885 30.69282032302755 1.8000000000000007
  endloop
 endfacet
 facet normal 0.0 -0.0 1.0
  outer loop
   vertex 30.396018365183885 30.69282032302755 1.8000000000000007
   vertex 34.58662068215206 39.18900000000001 1.8000000000000007
   vertex 29.596018365183888 30.69282032302755 1.8000000000000007
  endloop
 endfacet
 facet normal 0.0 0.0 1.0
  outer loop
   vertex 29.596018365183888 30.69282032302755 1.8000000000000007
   vertex 19.19536909359178 23.81 1.8000000000000007
   vertex 29.196018365183885 30.0 1.8000000000000007
  endloop
 endfacet
 facet normal 0.0 0.0 1.0
  outer loop
   vertex 29.196018365183885 30.0 1.8000000000000007
   vertex 19.19536909359178 23.81 1.8000000000000007
   vertex 29.596018365183888 29.30717967697245 1.8000000000000007
  endloop
 endfacet
 facet normal -0.0 0.0 1.0
  outer loop
   vertex 29.596018365183888 29.30717967697245 1.8000000000000007
   vertex 39.18596573712775 23.81 1.8000000000000007
   vertex 30.396018365183885 29.30717967697245 1.8000000000000007
  endloop
 endfacet
 facet normal -0.8660254037844374 -0.5000000000000021 0.0
  outer loop
   vertex 30.796018365183887 30.0 1.4400000000000004
   vertex 30.796018365183887 30.0 1.8000000000000007
   vertex 30.396018365183885 30.69282032302755 1.4400000000000004
  endloop
 endfacet
 facet normal -0.8660254037844374 -0.5000000000000021 0.0
  outer loop
   vertex 30.396018365183885 30.69282032302755 1.4400000000000004
   vertex 30.796018365183887 30.0 1.8000000000000007
   vertex 30.396018365183885 30.69282032302755 1.8000000000000007
  endloop
 endfacet
 facet normal 0.0 -1.0 0.0
  outer loop
   vertex 30.396018365183885 30.69282032302755 1.4400000000000004
   vertex 30.396018365183885 30.69282032302755 1.8000000000000007
   vertex 29.596018365183888 30.69282032302755 1.4400000000000004
  endloop
 endfacet
 facet normal 0.0 -1.0 0.0
  outer loop
   vertex 29.596018365183888 30.69282032302755 1.4400000000000004
   vertex 30.396018365183885 30.69282032302755 1.8000000000000007
   vertex 29.596018365183888 30.69282032302755 1.8000000000000007
  endloop
 endfacet
 facet normal 0.8660254037844374 -0.5000000000000021 0.0
  outer loop
   vertex 29.596018365183888 30.69282032302755 1.4400000000000004
   vertex 29.596018365183888 30.69282032302755 1.8000000000000007
   vertex 29.196018365183885 30.0 1.4400000000000004
  endloop
 endfacet
 facet normal 0.8660254037844374 -0.5000000000000021 0.0
  outer loop
   vertex 29.196018365183885 30.0 1.4400000000000004
   vertex 29.596018365183888 30.69282032302755 1.8000000000000007
   vertex 29.196018365183885 30.0 1.8000000000000007
  endloop
 endfacet
 facet normal 0.8660254037844374 0.5000000000000021 -0.0
  outer loop
   vertex 29.196018365183885 30.0 1.4400000000000004
   vertex 29.196018365183885 30.0 1.8000000000000007
   vertex 29.596018365183888 29.30717967697245 1.4400000000000004
  endloop
 endfacet
 facet normal 0.8660254037844374 0.5000000000000021 -0.0
  outer loop
   vertex 29.596018365183888 29.30717967697245 1.4400000000000004
   vertex 29.196018365183885 30.0 1.8000000000000007
   vertex 29.596018365183888 29.30717967697245 1.8000000000000007
  endloop
 endfacet
 facet normal 0.0 1.0 0.0
  outer loop
   vertex 29.596018365183888 29.30717967697245 1.4400000000000004
   vertex 29.596018365183888 29.30717967697245 1.8000000000000007
   vertex 30.396018365183885 29.30717967697245 1.4400000000000004
  endloop
 endfacet
 facet normal 0.0 1.0 -0.0
  outer loop
   vertex 30.396018365183885 29.30717967697245 1.4400000000000004
   vertex 29.596018365183888 29.30717967697245 1.8000000000000007
   vertex 30.396018365183885 29.30717967697245 1.8000000000000007
  endloop
 endfacet
 facet normal -0.8660254037844374 0.5000000000000021 0.0
  outer loop
   vertex 30.396018365183885 29.30717967697245 1.4400000000000004
   vertex 30.396018365183885 29.30717967697245 1.8000000000000007
   vertex 30.796018365183887 30.0 1.4400000000000004
  endloop
 endfacet
 facet normal -0.8660254037844374 0.5000000000000021 0.0
  outer loop
   vertex 30.796018365183887 30.0 1.4400000000000004
   vertex 30.396018365183885 29.30717967697245 1.8000000000000007
   vertex 30.796018365183887 30.0 1.8000000000000007
  endloop
 endfacet
endsolid
