solid PyGamic generated __All_Crease__ SLA File
 facet normal 0.0 0.0 -1.0
  outer loop
   vertex 9.296546583640568 18.32 0
   vertex -0.000337828981146697 18.32 0
   vertex 4.648150861751774 19.9999832 0
  endloop
 endfacet
 facet normal 0.0 0.0 -1.0
  outer loop
   vertex -0.000337828981146697 18.32 0
   vertex 4.648057892907648 19.9999832 0
   vertex 4.648150861751774 19.9999832 0
  endloop
 endfacet
 facet normal 0.0 0.0 -1.0
  outer loop
   vertex -0.000337828981146697 18.32 0
   vertex -0.000337828981146697 21.68 0
   vertex 4.648057892907648 19.9999832 0
  endloop
 endfacet
 facet normal 0.0 0.0 -1.0
  outer loop
   vertex -0.000337828981146697 21.68 0
   vertex 4.648057892907649 20.0000168 0
   vertex 4.648057892907648 19.9999832 0
  endloop
 endfacet
 facet normal 0.0 0.0 -1.0
  outer loop
   vertex -0.000337828981146697 21.68 0
   vertex 9.29654658364057 21.68 0
   vertex 4.648057892907649 20.0000168 0
  endloop
 endfacet
 facet normal 0.0 0.0 -1.0
  outer loop
   vertex 9.29654658364057 21.68 0
   vertex 4.648150861751773 20.0000168 0
   vertex 4.648057892907649 20.0000168 0
  endloop
 endfacet
 facet normal 0.0 0.0 -1.0
  outer loop
   vertex 9.29654658364057 21.68 0
   vertex 9.296546583640568 18.32 0
   vertex 4.648150861751773 20.0000168 0
  endloop
 endfacet
 facet normal 0.0 0.0 -1.0
  outer loop
   vertex 9.296546583640568 18.32 0
   vertex 4.648150861751774 19.9999832 0
   vertex 4.648150861751773 20.0000168 0
  endloop
 endfacet
 facet normal 0.0 -1.0 0.0
  outer loop
   vertex -0.000337828981146697 18.32 0
   vertex 9.296546583640568 18.32 0
   vertex 9.296546583640568 18.32 0.54
  endloop
 endfacet
 facet normal 0.0 -1.0 0.0
  outer loop
   vertex -0.000337828981146697 18.32 0.54
   vertex -0.000337828981146697 18.32 0
   vertex 9.296546583640568 18.32 0.54
  endloop
 endfacet
 facet normal -1.0 0.0 0.0
  outer loop
   vertex -0.000337828981146697 21.68 0
   vertex -0.000337828981146697 18.32 0
   vertex -0.000337828981146697 18.32 0.54
  endloop
 endfacet
 facet normal -1.0 -0.0 -0.0
  outer loop
   vertex -0.000337828981146697 21.68 0.54
   vertex -0.000337828981146697 21.68 0
   vertex -0.000337828981146697 18.32 0.54
  endloop
 endfacet
 facet normal 0.0 1.0 0.0
  outer loop
   vertex 9.29654658364057 21.68 0
   vertex -0.000337828981146697 21.68 0
   vertex -0.000337828981146697 21.68 0.54
  endloop
 endfacet
 facet normal 0.0 1.0 0.0
  outer loop
   vertex 9.29654658364057 21.68 0.54
   vertex 9.29654658364057 21.68 0
   vertex -0.000337828981146697 21.68 0.54
  endloop
 endfacet
 facet normal 1.0 -5.286776307738842e-16 0.0
  outer loop
   vertex 9.296546583640568 18.32 0
   vertex 9.29654658364057 21.68 0
   vertex 9.29654658364057 21.68 0.54
  endloop
 endfacet
 facet normal 1.0 -5.286776307738842e-16 0.0
  outer loop
   vertex 9.296546583640568 18.32 0.54
   vertex 9.296546583640568 18.32 0
   vertex 9.29654658364057 21.68 0.54
  endloop
 endfacet
 facet normal 0.0 1.0 -0.0
  outer loop
   vertex 4.648150861751774 19.9999832 0
   vertex 4.648057892907648 19.9999832 0
   vertex 4.648150861751774 19.9999832 0.54
  endloop
 endfacet
 facet normal 0.0 1.0 0.0
  outer loop
   vertex 4.648057892907648 19.9999832 0
   vertex 4.648057892907648 19.9999832 0.54
   vertex 4.648150861751774 19.9999832 0.54
  endloop
 endfacet
 facet normal 1.0 -2.643388153723533e-11 0.0
  outer loop
   vertex 4.648057892907648 19.9999832 0
   vertex 4.648057892907649 20.0000168 0
   vertex 4.648057892907648 19.9999832 0.54
  endloop
 endfacet
 facet normal 1.0 -2.643388153723533e-11 0.0
  outer loop
   vertex 4.648057892907649 20.0000168 0
   vertex 4.648057892907649 20.0000168 0.54
   vertex 4.648057892907648 19.9999832 0.54
  endloop
 endfacet
 facet normal 0.0 -1.0 0.0
  outer loop
   vertex 4.648057892907649 20.0000168 0
   vertex 4.648150861751773 20.0000168 0
   vertex 4.648057892907649 20.0000168 0.54
  endloop
 endfacet
 facet normal 0.0 -1.0 0.0
  outer loop
   vertex 4.648150861751773 20.0000168 0
   vertex 4.648150861751773 20.0000168 0.54
   vertex 4.648057892907649 20.0000168 0.54
  endloop
 endfacet
 facet normal -1.0 -2.643388153723533e-11 0.0
  outer loop
   vertex 4.648150861751773 20.0000168 0
   vertex 4.648150861751774 19.9999832 0
   vertex 4.648150861751773 20.0000168 0.54
  endloop
 endfacet
 facet normal -1.0 -2.643388153723533e-11 0.0
  outer loop
   vertex 4.648150861751774 19.9999832 0
   vertex 4.648150861751774 19.9999832 0.54
   vertex 4.648150861751773 20.0000168 0.54
  endloop
 endfacet
 facet normal 0.0 0.0 1.0
  outer loop
   vertex -0.000337828981146697 18.32 0.54
   vertex 9.296546583640568 18.32 0.54
   vertex 4.648150861751774 19.9999832 0.54
  endloop
 endfacet
 facet normal -0.0 0.0 1.0
  outer loop
   vertex 4.648057892907648 19.9999832 0.54
   vertex -0.000337828981146697 18.32 0.54
   vertex 4.648150861751774 19.9999832 0.54
  endloop
 endfacet
 facet normal 0.0 0.0 1.0
  outer loop
   vertex -0.000337828981146697 21.68 0.54
   vertex -0.000337828981146697 18.32 0.54
   vertex 4.648057892907648 19.9999832 0.54
  endloop
 endfacet
 facet normal 0.0 0.0 1.0
  outer loop
   vertex 4.648057892907649 20.0000168 0.54
   vertex -0.000337828981146697 21.68 0.54
   vertex 4.648057892907648 19.9999832 0.54
  endloop
 endfacet
 facet normal 0.0 0.0 1.0
  outer loop
   vertex 9.29654658364057 21.68 0.54
   vertex -0.000337828981146697 21.68 0.54
   vertex 4.648057892907649 20.0000168 0.54
  endloop
 endfacet
 facet normal 0.0 -0.0 1.0
  outer loop
   vertex 4.648150861751773 20.0000168 0.54
   vertex 9.29654658364057 21.68 0.54
   vertex 4.648057892907649 20.0000168 0.54
  endloop
 endfacet
 facet normal 0.0 -0.0 1.0
  outer loop
   vertex 9.296546583640568 18.32 0.54
   vertex 9.29654658364057 21.68 0.54
   vertex 4.648150861751773 20.0000168 0.54
  endloop
 endfacet
 facet normal -0.0 -0.0 1.0
  outer loop
   vertex 4.648150861751774 19.9999832 0.54
   vertex 9.296546583640568 18.32 0.54
   vertex 4.648150861751773 20.0000168 0.54
  endloop
 endfacet
 facet normal 0.0 0.0 -1.0
  outer loop
   vertex 27.630140305653416 0.001 0
   vertex 9.296546583640568 18.32 0
   vertex 20.84023668237966 9.160408405 0
  endloop
 endfacet
 facet normal 0.0 0.0 -1.0
  outer loop
   vertex 9.296546583640568 18.32 0
   vertex 20.840053346442442 9.160591595 0
   vertex 20.84023668237966 9.160408405 0
  endloop
 endfacet
 facet normal 0.0 0.0 -1.0
  outer loop
   vertex 9.296546583640568 18.32 0
   vertex 14.050197259675446 18.32 0
   vertex 20.840053346442442 9.160591595 0
  endloop
 endfacet
 facet normal 0.0 0.0 -1.0
  outer loop
   vertex 14.050197259675446 18.32 0
   vertex 20.840100882949205 9.160591595 0
   vertex 20.840053346442442 9.160591595 0
  endloop
 endfacet
 facet normal 0.0 0.0 -1.0
  outer loop
   vertex 14.050197259675446 18.32 0
   vertex 32.3837909816883 0.001 0
   vertex 20.840100882949205 9.160591595 0
  endloop
 endfacet
 facet normal 0.0 0.0 -1.0
  outer loop
   vertex 32.3837909816883 0.001 0
   vertex 20.84028421888642 9.160408405 0
   vertex 20.840100882949205 9.160591595 0
  endloop
 endfacet
 facet normal 0.0 0.0 -1.0
  outer loop
   vertex 32.3837909816883 0.001 0
   vertex 27.630140305653416 0.001 0
   vertex 20.84028421888642 9.160408405 0
  endloop
 endfacet
 facet normal 0.0 0.0 -1.0
  outer loop
   vertex 27.630140305653416 0.001 0
   vertex 20.84023668237966 9.160408405 0
   vertex 20.84028421888642 9.160408405 0
  endloop
 endfacet
 facet normal -0.706825181105366 -0.7073882691671999 0.0
  outer loop
   vertex 9.296546583640568 18.32 0
   vertex 27.630140305653416 0.001 0
   vertex 27.630140305653416 0.001 0.54
  endloop
 endfacet
 facet normal -0.706825181105366 -0.7073882691671999 -0.0
  outer loop
   vertex 9.296546583640568 18.32 0.54
   vertex 9.296546583640568 18.32 0
   vertex 27.630140305653416 0.001 0.54
  endloop
 endfacet
 facet normal 0.0 1.0 0.0
  outer loop
   vertex 14.050197259675446 18.32 0
   vertex 9.296546583640568 18.32 0
   vertex 9.296546583640568 18.32 0.54
  endloop
 endfacet
 facet normal 0.0 1.0 0.0
  outer loop
   vertex 14.050197259675446 18.32 0.54
   vertex 14.050197259675446 18.32 0
   vertex 9.296546583640568 18.32 0.54
  endloop
 endfacet
 facet normal 0.7068251811053659 0.7073882691671998 0.0
  outer loop
   vertex 32.3837909816883 0.001 0
   vertex 14.050197259675446 18.32 0
   vertex 14.050197259675446 18.32 0.54
  endloop
 endfacet
 facet normal 0.7068251811053659 0.7073882691671998 0.0
  outer loop
   vertex 32.3837909816883 0.001 0.54
   vertex 32.3837909816883 0.001 0
   vertex 14.050197259675446 18.32 0.54
  endloop
 endfacet
 facet normal 0.0 -1.0 0.0
  outer loop
   vertex 27.630140305653416 0.001 0
   vertex 32.3837909816883 0.001 0
   vertex 32.3837909816883 0.001 0.54
  endloop
 endfacet
 facet normal 0.0 -1.0 0.0
  outer loop
   vertex 27.630140305653416 0.001 0.54
   vertex 27.630140305653416 0.001 0
   vertex 32.3837909816883 0.001 0.54
  endloop
 endfacet
 facet normal 0.7068251811063034 0.707388269166263 -0.0
  outer loop
   vertex 20.84023668237966 9.160408405 0
   vertex 20.840053346442442 9.160591595 0
   vertex 20.84023668237966 9.160408405 0.54
  endloop
 endfacet
 facet normal 0.7068251811063034 0.707388269166263 -0.0
  outer loop
   vertex 20.840053346442442 9.160591595 0
   vertex 20.840053346442442 9.160591595 0.54
   vertex 20.84023668237966 9.160408405 0.54
  endloop
 endfacet
 facet normal 0.0 -1.0 0.0
  outer loop
   vertex 20.840053346442442 9.160591595 0
   vertex 20.840100882949205 9.160591595 0
   vertex 20.840053346442442 9.160591595 0.54
  endloop
 endfacet
 facet normal 0.0 -1.0 0.0
  outer loop
   vertex 20.840100882949205 9.160591595 0
   vertex 20.840100882949205 9.160591595 0.54
   vertex 20.840053346442442 9.160591595 0.54
  endloop
 endfacet
 facet normal -0.7068251811131573 -0.7073882691594146 0.0
  outer loop
   vertex 20.840100882949205 9.160591595 0
   vertex 20.84028421888642 9.160408405 0
   vertex 20.840100882949205 9.160591595 0.54
  endloop
 endfacet
 facet normal -0.7068251811131573 -0.7073882691594146 0.0
  outer loop
   vertex 20.84028421888642 9.160408405 0
   vertex 20.84028421888642 9.160408405 0.54
   vertex 20.840100882949205 9.160591595 0.54
  endloop
 endfacet
 facet normal 0.0 1.0 -0.0
  outer loop
   vertex 20.84028421888642 9.160408405 0
   vertex 20.84023668237966 9.160408405 0
   vertex 20.84028421888642 9.160408405 0.54
  endloop
 endfacet
 facet normal 0.0 1.0 0.0
  outer loop
   vertex 20.84023668237966 9.160408405 0
   vertex 20.84023668237966 9.160408405 0.54
   vertex 20.84028421888642 9.160408405 0.54
  endloop
 endfacet
 facet normal 0.0 0.0 1.0
  outer loop
   vertex 9.296546583640568 18.32 0.54
   vertex 27.630140305653416 0.001 0.54
   vertex 20.84023668237966 9.160408405 0.54
  endloop
 endfacet
 facet normal 0.0 0.0 1.0
  outer loop
   vertex 20.840053346442442 9.160591595 0.54
   vertex 9.296546583640568 18.32 0.54
   vertex 20.84023668237966 9.160408405 0.54
  endloop
 endfacet
 facet normal 0.0 0.0 1.0
  outer loop
   vertex 14.050197259675446 18.32 0.54
   vertex 9.296546583640568 18.32 0.54
   vertex 20.840053346442442 9.160591595 0.54
  endloop
 endfacet
 facet normal 0.0 0.0 1.0
  outer loop
   vertex 20.840100882949205 9.160591595 0.54
   vertex 14.050197259675446 18.32 0.54
   vertex 20.840053346442442 9.160591595 0.54
  endloop
 endfacet
 facet normal 0.0 0.0 1.0
  outer loop
   vertex 32.3837909816883 0.001 0.54
   vertex 14.050197259675446 18.32 0.54
   vertex 20.840100882949205 9.160591595 0.54
  endloop
 endfacet
 facet normal -0.0 -0.0 1.0
  outer loop
   vertex 20.84028421888642 9.160408405 0.54
   vertex 32.3837909816883 0.001 0.54
   vertex 20.840100882949205 9.160591595 0.54
  endloop
 endfacet
 facet normal 0.0 -0.0 1.0
  outer loop
   vertex 27.630140305653416 0.001 0.54
   vertex 32.3837909816883 0.001 0.54
   vertex 20.84028421888642 9.160408405 0.54
  endloop
 endfacet
 facet normal -0.0 0.0 1.0
  outer loop
   vertex 20.84023668237966 9.160408405 0.54
   vertex 27.630140305653416 0.001 0.54
   vertex 20.84028421888642 9.160408405 0.54
  endloop
 endfacet
 facet normal 0.0 0.0 -1.0
  outer loop
   vertex 9.29654658364057 21.68 0
   vertex 27.63014030565342 39.999 0
   vertex 20.840053346442446 30.839408405 0
  endloop
 endfacet
 facet normal 0.0 0.0 -1.0
  outer loop
   vertex 27.63014030565342 39.999 0
   vertex 20.840236682379672 30.839591595 0
   vertex 20.840053346442446 30.839408405 0
  endloop
 endfacet
 facet normal 0.0 -0.0 -1.0
  outer loop
   vertex 27.63014030565342 39.999 0
   vertex 32.383790981688314 39.99900000000001 0
   vertex 20.840236682379672 30.839591595 0
  endloop
 endfacet
 facet normal 0.0 0.0 -1.0
  outer loop
   vertex 32.383790981688314 39.99900000000001 0
   vertex 20.840284218886424 30.839591595 0
   vertex 20.840236682379672 30.839591595 0
  endloop
 endfacet
 facet normal 0.0 0.0 -1.0
  outer loop
   vertex 32.383790981688314 39.99900000000001 0
   vertex 14.050197259675452 21.68 0
   vertex 20.840284218886424 30.839591595 0
  endloop
 endfacet
 facet normal 0.0 0.0 -1.0
  outer loop
   vertex 14.050197259675452 21.68 0
   vertex 20.840100882949216 30.839408405000007 0
   vertex 20.840284218886424 30.839591595 0
  endloop
 endfacet
 facet normal 0.0 0.0 -1.0
  outer loop
   vertex 14.050197259675452 21.68 0
   vertex 9.29654658364057 21.68 0
   vertex 20.840100882949216 30.839408405000007 0
  endloop
 endfacet
 facet normal 0.0 0.0 -1.0
  outer loop
   vertex 9.29654658364057 21.68 0
   vertex 20.840053346442446 30.839408405 0
   vertex 20.840100882949216 30.839408405000007 0
  endloop
 endfacet
 facet normal -0.706825181105366 0.7073882691671997 0.0
  outer loop
   vertex 27.63014030565342 39.999 0
   vertex 9.29654658364057 21.68 0
   vertex 9.29654658364057 21.68 0.54
  endloop
 endfacet
 facet normal -0.706825181105366 0.7073882691671997 0.0
  outer loop
   vertex 27.63014030565342 39.999 0.54
   vertex 27.63014030565342 39.999 0
   vertex 9.29654658364057 21.68 0.54
  endloop
 endfacet
 facet normal -1.4947306484724214e-15 1.0 0.0
  outer loop
   vertex 32.383790981688314 39.99900000000001 0
   vertex 27.63014030565342 39.999 0
   vertex 27.63014030565342 39.999 0.54
  endloop
 endfacet
 facet normal -1.4947306484724214e-15 1.0 0.0
  outer loop
   vertex 32.383790981688314 39.99900000000001 0.54
   vertex 32.383790981688314 39.99900000000001 0
   vertex 27.63014030565342 39.999 0.54
  endloop
 endfacet
 facet normal 0.7068251811053659 -0.7073882691671998 0.0
  outer loop
   vertex 14.050197259675452 21.68 0
   vertex 32.383790981688314 39.99900000000001 0
   vertex 32.383790981688314 39.99900000000001 0.54
  endloop
 endfacet
 facet normal 0.7068251811053659 -0.7073882691671998 0.0
  outer loop
   vertex 14.050197259675452 21.68 0.54
   vertex 14.050197259675452 21.68 0
   vertex 32.383790981688314 39.99900000000001 0.54
  endloop
 endfacet
 facet normal 0.0 -1.0 0.0
  outer loop
   vertex 9.29654658364057 21.68 0
   vertex 14.050197259675452 21.68 0
   vertex 14.050197259675452 21.68 0.54
  endloop
 endfacet
 facet normal 0.0 -1.0 0.0
  outer loop
   vertex 9.29654658364057 21.68 0.54
   vertex 9.29654658364057 21.68 0
   vertex 14.050197259675452 21.68 0.54
  endloop
 endfacet
 facet normal 0.7068251810960253 -0.7073882691765331 0.0
  outer loop
   vertex 20.840053346442446 30.839408405 0
   vertex 20.840236682379672 30.839591595 0
   vertex 20.840053346442446 30.839408405 0.54
  endloop
 endfacet
 facet normal 0.7068251810960253 -0.7073882691765331 0.0
  outer loop
   vertex 20.840236682379672 30.839591595 0
   vertex 20.840236682379672 30.839591595 0.54
   vertex 20.840053346442446 30.839408405 0.54
  endloop
 endfacet
 facet normal 0.0 -1.0 0.0
  outer loop
   vertex 20.840236682379672 30.839591595 0
   vertex 20.840284218886424 30.839591595 0
   vertex 20.840236682379672 30.839591595 0.54
  endloop
 endfacet
 facet normal 0.0 -1.0 0.0
  outer loop
   vertex 20.840284218886424 30.839591595 0
   vertex 20.840284218886424 30.839591595 0.54
   vertex 20.840236682379672 30.839591595 0.54
  endloop
 endfacet
 facet normal -0.7068251811165762 0.7073882691559984 0.0
  outer loop
   vertex 20.840284218886424 30.839591595 0
   vertex 20.840100882949216 30.839408405000007 0
   vertex 20.840284218886424 30.839591595 0.54
  endloop
 endfacet
 facet normal -0.7068251811165762 0.7073882691559984 0.0
  outer loop
   vertex 20.840100882949216 30.839408405000007 0
   vertex 20.840100882949216 30.839408405000007 0.54
   vertex 20.840284218886424 30.839591595 0.54
  endloop
 endfacet
 facet normal -1.494730648168027e-10 1.0 0.0
  outer loop
   vertex 20.840100882949216 30.839408405000007 0
   vertex 20.840053346442446 30.839408405 0
   vertex 20.840100882949216 30.839408405000007 0.54
  endloop
 endfacet
 facet normal -1.494730648168027e-10 1.0 0.0
  outer loop
   vertex 20.840053346442446 30.839408405 0
   vertex 20.840053346442446 30.839408405 0.54
   vertex 20.840100882949216 30.839408405000007 0.54
  endloop
 endfacet
 facet normal 0.0 0.0 1.0
  outer loop
   vertex 27.63014030565342 39.999 0.54
   vertex 9.29654658364057 21.68 0.54
   vertex 20.840053346442446 30.839408405 0.54
  endloop
 endfacet
 facet normal 0.0 -0.0 1.0
  outer loop
   vertex 20.840236682379672 30.839591595 0.54
   vertex 27.63014030565342 39.999 0.54
   vertex 20.840053346442446 30.839408405 0.54
  endloop
 endfacet
 facet normal 0.0 0.0 1.0
  outer loop
   vertex 32.383790981688314 39.99900000000001 0.54
   vertex 27.63014030565342 39.999 0.54
   vertex 20.840236682379672 30.839591595 0.54
  endloop
 endfacet
 facet normal 0.0 -0.0 1.0
  outer loop
   vertex 20.840284218886424 30.839591595 0.54
   vertex 32.383790981688314 39.99900000000001 0.54
   vertex 20.840236682379672 30.839591595 0.54
  endloop
 endfacet
 facet normal 0.0 0.0 1.0
  outer loop
   vertex 14.050197259675452 21.68 0.54
   vertex 32.383790981688314 39.99900000000001 0.54
   vertex 20.840284218886424 30.839591595 0.54
  endloop
 endfacet
 facet normal -0.0 0.0 1.0
  outer loop
   vertex 20.840100882949216 30.839408405000007 0.54
   vertex 14.050197259675452 21.68 0.54
   vertex 20.840284218886424 30.839591595 0.54
  endloop
 endfacet
 facet normal 0.0 0.0 1.0
  outer loop
   vertex 9.29654658364057 21.68 0.54
   vertex 14.050197259675452 21.68 0.54
   vertex 20.840100882949216 30.839408405000007 0.54
  endloop
 endfacet
 facet normal -0.0 0.0 1.0
  outer loop
   vertex 20.840053346442446 30.839408405 0.54
   vertex 9.29654658364057 21.68 0.54
   vertex 20.840100882949216 30.839408405000007 0.54
  endloop
 endfacet
 facet normal 0.0 0.0 -1.0
  outer loop
   vertex 39.99766217038472 18.32 0
   vertex 14.050197259675446 18.32 0
   vertex 27.024059452354635 19.9999832 0
  endloop
 endfacet
 facet normal 0.0 0.0 -1.0
  outer loop
   vertex 14.050197259675446 18.32 0
   vertex 27.023799977705533 19.9999832 0
   vertex 27.024059452354635 19.9999832 0
  endloop
 endfacet
 facet normal 0.0 0.0 -1.0
  outer loop
   vertex 14.050197259675446 18.32 0
   vertex 14.050197259675452 21.68 0
   vertex 27.023799977705533 19.9999832 0
  endloop
 endfacet
 facet normal 0.0 0.0 -1.0
  outer loop
   vertex 14.050197259675452 21.68 0
   vertex 27.02379997770553 20.0000168 0
   vertex 27.023799977705533 19.9999832 0
  endloop
 endfacet
 facet normal 0.0 0.0 -1.0
  outer loop
   vertex 14.050197259675452 21.68 0
   vertex 39.997662170384714 21.68 0
   vertex 27.02379997770553 20.0000168 0
  endloop
 endfacet
 facet normal 0.0 0.0 -1.0
  outer loop
   vertex 39.997662170384714 21.68 0
   vertex 27.02405945235464 20.0000168 0
   vertex 27.02379997770553 20.0000168 0
  endloop
 endfacet
 facet normal 0.0 -0.0 -1.0
  outer loop
   vertex 39.997662170384714 21.68 0
   vertex 39.99766217038472 18.32 0
   vertex 27.02405945235464 20.0000168 0
  endloop
 endfacet
 facet normal 0.0 0.0 -1.0
  outer loop
   vertex 39.99766217038472 18.32 0
   vertex 27.024059452354635 19.9999832 0
   vertex 27.02405945235464 20.0000168 0
  endloop
 endfacet
 facet normal 0.0 -1.0 0.0
  outer loop
   vertex 14.050197259675446 18.32 0
   vertex 39.99766217038472 18.32 0
   vertex 39.99766217038472 18.32 0.54
  endloop
 endfacet
 facet normal 0.0 -1.0 0.0
  outer loop
   vertex 14.050197259675446 18.32 0.54
   vertex 14.050197259675446 18.32 0
   vertex 39.99766217038472 18.32 0.54
  endloop
 endfacet
 facet normal -1.0 1.5860328923216525e-15 0.0
  outer loop
   vertex 14.050197259675452 21.68 0
   vertex 14.050197259675446 18.32 0
   vertex 14.050197259675446 18.32 0.54
  endloop
 endfacet
 facet normal -1.0 1.5860328923216525e-15 0.0
  outer loop
   vertex 14.050197259675452 21.68 0.54
   vertex 14.050197259675452 21.68 0
   vertex 14.050197259675446 18.32 0.54
  endloop
 endfacet
 facet normal 0.0 1.0 0.0
  outer loop
   vertex 39.997662170384714 21.68 0
   vertex 14.050197259675452 21.68 0
   vertex 14.050197259675452 21.68 0.54
  endloop
 endfacet
 facet normal 0.0 1.0 0.0
  outer loop
   vertex 39.997662170384714 21.68 0.54
   vertex 39.997662170384714 21.68 0
   vertex 14.050197259675452 21.68 0.54
  endloop
 endfacet
 facet normal 1.0 2.1147105230955366e-15 0.0
  outer loop
   vertex 39.99766217038472 18.32 0
   vertex 39.997662170384714 21.68 0
   vertex 39.997662170384714 21.68 0.54
  endloop
 endfacet
 facet normal 1.0 2.1147105230955366e-15 0.0
  outer loop
   vertex 39.99766217038472 18.32 0.54
   vertex 39.99766217038472 18.32 0
   vertex 39.997662170384714 21.68 0.54
  endloop
 endfacet
 facet normal 0.0 1.0 -0.0
  outer loop
   vertex 27.024059452354635 19.9999832 0
   vertex 27.023799977705533 19.9999832 0
   vertex 27.024059452354635 19.9999832 0.54
  endloop
 endfacet
 facet normal 0.0 1.0 0.0
  outer loop
   vertex 27.023799977705533 19.9999832 0
   vertex 27.023799977705533 19.9999832 0.54
   vertex 27.024059452354635 19.9999832 0.54
  endloop
 endfacet
 facet normal 1.0 1.0573552614894132e-10 -0.0
  outer loop
   vertex 27.023799977705533 19.9999832 0
   vertex 27.02379997770553 20.0000168 0
   vertex 27.023799977705533 19.9999832 0.54
  endloop
 endfacet
 facet normal 1.0 1.0573552614894132e-10 -0.0
  outer loop
   vertex 27.02379997770553 20.0000168 0
   vertex 27.02379997770553 20.0000168 0.54
   vertex 27.023799977705533 19.9999832 0.54
  endloop
 endfacet
 facet normal 0.0 -1.0 0.0
  outer loop
   vertex 27.02379997770553 20.0000168 0
   vertex 27.02405945235464 20.0000168 0
   vertex 27.02379997770553 20.0000168 0.54
  endloop
 endfacet
 facet normal 0.0 -1.0 0.0
  outer loop
   vertex 27.02405945235464 20.0000168 0
   vertex 27.02405945235464 20.0000168 0.54
   vertex 27.02379997770553 20.0000168 0.54
  endloop
 endfacet
 facet normal -1.0 1.0573552614894132e-10 0.0
  outer loop
   vertex 27.02405945235464 20.0000168 0
   vertex 27.024059452354635 19.9999832 0
   vertex 27.02405945235464 20.0000168 0.54
  endloop
 endfacet
 facet normal -1.0 1.0573552614894132e-10 0.0
  outer loop
   vertex 27.024059452354635 19.9999832 0
   vertex 27.024059452354635 19.9999832 0.54
   vertex 27.02405945235464 20.0000168 0.54
  endloop
 endfacet
 facet normal 0.0 0.0 1.0
  outer loop
   vertex 14.050197259675446 18.32 0.54
   vertex 39.99766217038472 18.32 0.54
   vertex 27.024059452354635 19.9999832 0.54
  endloop
 endfacet
 facet normal -0.0 0.0 1.0
  outer loop
   vertex 27.023799977705533 19.9999832 0.54
   vertex 14.050197259675446 18.32 0.54
   vertex 27.024059452354635 19.9999832 0.54
  endloop
 endfacet
 facet normal 0.0 0.0 1.0
  outer loop
   vertex 14.050197259675452 21.68 0.54
   vertex 14.050197259675446 18.32 0.54
   vertex 27.023799977705533 19.9999832 0.54
  endloop
 endfacet
 facet normal 0.0 0.0 1.0
  outer loop
   vertex 27.02379997770553 20.0000168 0.54
   vertex 14.050197259675452 21.68 0.54
   vertex 27.023799977705533 19.9999832 0.54
  endloop
 endfacet
 facet normal 0.0 0.0 1.0
  outer loop
   vertex 39.997662170384714 21.68 0.54
   vertex 14.050197259675452 21.68 0.54
   vertex 27.02379997770553 20.0000168 0.54
  endloop
 endfacet
 facet normal 0.0 -0.0 1.0
  outer loop
   vertex 27.02405945235464 20.0000168 0.54
   vertex 39.997662170384714 21.68 0.54
   vertex 27.02379997770553 20.0000168 0.54
  endloop
 endfacet
 facet normal 0.0 0.0 1.0
  outer loop
   vertex 39.99766217038472 18.32 0.54
   vertex 39.997662170384714 21.68 0.54
   vertex 27.02405945235464 20.0000168 0.54
  endloop
 endfacet
 facet normal -0.0 0.0 1.0
  outer loop
   vertex 27.024059452354635 19.9999832 0.54
   vertex 39.99766217038472 18.32 0.54
   vertex 27.02405945235464 20.0000168 0.54
  endloop
 endfacet
endsolid
