solid PyGamic generated __All_Units__ SLA File
 facet normal 0.0 0.0 -1.0
  outer loop
   vertex 0.5381811740841219 16.46 0.36
   vertex 21.45683578676381 16.46 0.36
   vertex 5.525154010426537 0.541 0.36
  endloop
 endfacet
 facet normal 0.0 -0.0 -1.0
  outer loop
   vertex 0.5381811740841219 16.46 0.36
   vertex 5.525154010426537 0.541 0.36
   vertex 0.5255044451565719 0.541 0.36
  endloop
 endfacet
 facet normal 0.0 0.18245221637639714 -0.9832147215839174
  outer loop
   vertex 21.45683578676381 16.46 0.36
   vertex 0.5381811740841219 16.46 0.36
   vertex 0.5404984855471013 19.37 0.9000000000000002
  endloop
 endfacet
 facet normal 0.0 0.18245221637639716 -0.9832147215839175
  outer loop
   vertex 28.486155052818514 19.37 0.9000000000000002
   vertex 21.45683578676381 16.46 0.36
   vertex 0.5404984855471013 19.37 0.9000000000000002
  endloop
 endfacet
 facet normal 0.12896182088332228 -0.12906455754821897 -0.9832147215839173
  outer loop
   vertex 5.525154010426537 0.541 0.36
   vertex 21.45683578676381 16.46 0.36
   vertex 28.486155052818514 19.37 0.9000000000000002
  endloop
 endfacet
 facet normal 0.1289618208833223 -0.129064557548219 -0.9832147215839174
  outer loop
   vertex 9.642155042349604 0.541 0.9000000000000002
   vertex 5.525154010426537 0.541 0.36
   vertex 28.486155052818514 19.37 0.9000000000000002
  endloop
 endfacet
 facet normal 0.0 -1.0 0.0
  outer loop
   vertex 0.5255044451565719 0.541 0.36
   vertex 5.525154010426537 0.541 0.36
   vertex 9.642155042349604 0.541 0.9000000000000002
  endloop
 endfacet
 facet normal 0.0 -1.0 0.0
  outer loop
   vertex 0.5255044451565719 0.541 0.9000000000000002
   vertex 0.5255044451565719 0.541 0.36
   vertex 9.642155042349604 0.541 0.9000000000000002
  endloop
 endfacet
 facet normal -0.9999996829318345 0.0007963267107332636 0.0
  outer loop
   vertex 0.5381811740841219 16.46 0.36
   vertex 0.5255044451565719 0.541 0.36
   vertex 0.5255044451565719 0.541 0.9000000000000002
  endloop
 endfacet
 facet normal -0.9999996829318347 0.00079632671073326 -1.0987400879972219e-16
  outer loop
   vertex 0.5404984855471013 19.37 0.9000000000000002
   vertex 0.5381811740841219 16.46 0.36
   vertex 0.5255044451565719 0.541 0.9000000000000002
  endloop
 endfacet
 facet normal -0.0 0.0 1.0
  outer loop
   vertex 0.5404984855471013 19.37 0.9000000000000002
   vertex 9.642155042349604 0.541 0.9000000000000002
   vertex 28.486155052818514 19.37 0.9000000000000002
  endloop
 endfacet
 facet normal 0.0 0.0 1.0
  outer loop
   vertex 0.5404984855471013 19.37 0.9000000000000002
   vertex 0.5255044451565719 0.541 0.9000000000000002
   vertex 9.642155042349604 0.541 0.9000000000000002
  endloop
 endfacet
 facet normal 0.0 0.0 -1.0
  outer loop
   vertex 0.5404984855471013 19.37 1.4400000000000004
   vertex 28.486155052818514 19.37 1.4400000000000004
   vertex 9.642155042349604 0.541 1.4400000000000004
  endloop
 endfacet
 facet normal 0.0 -0.0 -1.0
  outer loop
   vertex 0.5404984855471013 19.37 1.4400000000000004
   vertex 9.642155042349604 0.541 1.4400000000000004
   vertex 0.5255044451565719 0.541 1.4400000000000004
  endloop
 endfacet
 facet normal 0.0 0.18245221637639725 0.9832147215839175
  outer loop
   vertex 28.486155052818514 19.37 1.4400000000000004
   vertex 0.5404984855471013 19.37 1.4400000000000004
   vertex 0.5381811740841219 16.46 1.9800000000000009
  endloop
 endfacet
 facet normal 0.0 0.1824522163763972 0.9832147215839174
  outer loop
   vertex 21.45683578676381 16.46 1.9800000000000009
   vertex 28.486155052818514 19.37 1.4400000000000004
   vertex 0.5381811740841219 16.46 1.9800000000000009
  endloop
 endfacet
 facet normal 0.12896182088332234 -0.12906455754821902 0.9832147215839174
  outer loop
   vertex 9.642155042349604 0.541 1.4400000000000004
   vertex 28.486155052818514 19.37 1.4400000000000004
   vertex 21.45683578676381 16.46 1.9800000000000009
  endloop
 endfacet
 facet normal 0.12896182088332234 -0.12906455754821902 0.9832147215839173
  outer loop
   vertex 5.525154010426537 0.541 1.9800000000000009
   vertex 9.642155042349604 0.541 1.4400000000000004
   vertex 21.45683578676381 16.46 1.9800000000000009
  endloop
 endfacet
 facet normal 0.0 -1.0 0.0
  outer loop
   vertex 0.5255044451565719 0.541 1.4400000000000004
   vertex 9.642155042349604 0.541 1.4400000000000004
   vertex 5.525154010426537 0.541 1.9800000000000009
  endloop
 endfacet
 facet normal 0.0 -1.0 0.0
  outer loop
   vertex 0.5255044451565719 0.541 1.9800000000000009
   vertex 0.5255044451565719 0.541 1.4400000000000004
   vertex 5.525154010426537 0.541 1.9800000000000009
  endloop
 endfacet
 facet normal -0.9999996829318347 0.00079632671073326 0.0
  outer loop
   vertex 0.5404984855471013 19.37 1.4400000000000004
   vertex 0.5255044451565719 0.541 1.4400000000000004
   vertex 0.5255044451565719 0.541 1.9800000000000009
  endloop
 endfacet
 facet normal -0.9999996829318347 0.0007963267107332637 1.2995902454236877e-16
  outer loop
   vertex 0.5381811740841219 16.46 1.9800000000000009
   vertex 0.5404984855471013 19.37 1.4400000000000004
   vertex 0.5255044451565719 0.541 1.9800000000000009
  endloop
 endfacet
 facet normal -0.0 0.0 1.0
  outer loop
   vertex 0.5381811740841219 16.46 1.9800000000000009
   vertex 5.525154010426537 0.541 1.9800000000000009
   vertex 21.45683578676381 16.46 1.9800000000000009
  endloop
 endfacet
 facet normal 0.0 0.0 1.0
  outer loop
   vertex 0.5381811740841219 16.46 1.9800000000000009
   vertex 0.5255044451565719 0.541 1.9800000000000009
   vertex 5.525154010426537 0.541 1.9800000000000009
  endloop
 endfacet
 facet normal 0.0 0.0 -1.0
  outer loop
   vertex 21.456835786763808 23.54 0.36
   vertex 0.5381811740841219 23.54 0.36
   vertex 0.5255044451565718 39.459 0.36
  endloop
 endfacet
 facet normal 0.0 0.0 -1.0
  outer loop
   vertex 21.456835786763808 23.54 0.36
   vertex 0.5255044451565718 39.459 0.36
   vertex 5.525154010426529 39.459 0.36
  endloop
 endfacet
 facet normal 0.0 -0.18245221637639714 -0.9832147215839174
  outer loop
   vertex 0.5381811740841219 23.54 0.36
   vertex 21.456835786763808 23.54 0.36
   vertex 28.486155052818514 20.63 0.9000000000000002
  endloop
 endfacet
 facet normal 0.0 -0.18245221637639716 -0.9832147215839175
  outer loop
   vertex 0.5404984855471013 20.63 0.9000000000000002
   vertex 0.5381811740841219 23.54 0.36
   vertex 28.486155052818514 20.63 0.9000000000000002
  endloop
 endfacet
 facet normal -0.9999996829318347 -0.0007963267107332705 -1.6466857768101388e-16
  outer loop
   vertex 0.5255044451565718 39.459 0.36
   vertex 0.5381811740841219 23.54 0.36
   vertex 0.5404984855471013 20.63 0.9000000000000002
  endloop
 endfacet
 facet normal -0.9999996829318347 -0.0007963267107332656 -0.0
  outer loop
   vertex 0.5255044451565718 39.459 0.9000000000000002
   vertex 0.5255044451565718 39.459 0.36
   vertex 0.5404984855471013 20.63 0.9000000000000002
  endloop
 endfacet
 facet normal 0.0 1.0 0.0
  outer loop
   vertex 5.525154010426529 39.459 0.36
   vertex 0.5255044451565718 39.459 0.36
   vertex 0.5255044451565718 39.459 0.9000000000000002
  endloop
 endfacet
 facet normal 0.0 1.0 0.0
  outer loop
   vertex 9.6421550423496 39.459 0.9000000000000002
   vertex 5.525154010426529 39.459 0.36
   vertex 0.5255044451565718 39.459 0.9000000000000002
  endloop
 endfacet
 facet normal 0.12896182088332217 0.12906455754821886 -0.9832147215839177
  outer loop
   vertex 21.456835786763808 23.54 0.36
   vertex 5.525154010426529 39.459 0.36
   vertex 9.6421550423496 39.459 0.9000000000000002
  endloop
 endfacet
 facet normal 0.12896182088332214 0.12906455754821883 -0.9832147215839177
  outer loop
   vertex 28.486155052818514 20.63 0.9000000000000002
   vertex 21.456835786763808 23.54 0.36
   vertex 9.6421550423496 39.459 0.9000000000000002
  endloop
 endfacet
 facet normal 0.0 0.0 1.0
  outer loop
   vertex 28.486155052818514 20.63 0.9000000000000002
   vertex 0.5255044451565718 39.459 0.9000000000000002
   vertex 0.5404984855471013 20.63 0.9000000000000002
  endloop
 endfacet
 facet normal 0.0 0.0 1.0
  outer loop
   vertex 28.486155052818514 20.63 0.9000000000000002
   vertex 9.6421550423496 39.459 0.9000000000000002
   vertex 0.5255044451565718 39.459 0.9000000000000002
  endloop
 endfacet
 facet normal 0.0 0.0 -1.0
  outer loop
   vertex 28.486155052818514 20.63 1.4400000000000004
   vertex 0.5404984855471013 20.63 1.4400000000000004
   vertex 0.5255044451565718 39.459 1.4400000000000004
  endloop
 endfacet
 facet normal 0.0 0.0 -1.0
  outer loop
   vertex 28.486155052818514 20.63 1.4400000000000004
   vertex 0.5255044451565718 39.459 1.4400000000000004
   vertex 9.6421550423496 39.459 1.4400000000000004
  endloop
 endfacet
 facet normal 0.0 -0.18245221637639725 0.9832147215839175
  outer loop
   vertex 0.5404984855471013 20.63 1.4400000000000004
   vertex 28.486155052818514 20.63 1.4400000000000004
   vertex 21.456835786763808 23.54 1.9800000000000009
  endloop
 endfacet
 facet normal 0.0 -0.1824522163763972 0.9832147215839174
  outer loop
   vertex 0.5381811740841219 23.54 1.9800000000000009
   vertex 0.5404984855471013 20.63 1.4400000000000004
   vertex 21.456835786763808 23.54 1.9800000000000009
  endloop
 endfacet
 facet normal -0.9999996829318347 -0.0007963267107332655 1.3921924096362307e-16
  outer loop
   vertex 0.5255044451565718 39.459 1.4400000000000004
   vertex 0.5404984855471013 20.63 1.4400000000000004
   vertex 0.5381811740841219 23.54 1.9800000000000009
  endloop
 endfacet
 facet normal -0.9999996829318345 -0.0007963267107332703 -0.0
  outer loop
   vertex 0.5255044451565718 39.459 1.9800000000000009
   vertex 0.5255044451565718 39.459 1.4400000000000004
   vertex 0.5381811740841219 23.54 1.9800000000000009
  endloop
 endfacet
 facet normal 0.0 1.0 0.0
  outer loop
   vertex 9.6421550423496 39.459 1.4400000000000004
   vertex 0.5255044451565718 39.459 1.4400000000000004
   vertex 0.5255044451565718 39.459 1.9800000000000009
  endloop
 endfacet
 facet normal 0.0 1.0 0.0
  outer loop
   vertex 5.525154010426529 39.459 1.9800000000000009
   vertex 9.6421550423496 39.459 1.4400000000000004
   vertex 0.5255044451565718 39.459 1.9800000000000009
  endloop
 endfacet
 facet normal 0.12896182088332228 0.12906455754821894 0.9832147215839174
  outer loop
   vertex 28.486155052818514 20.63 1.4400000000000004
   vertex 9.6421550423496 39.459 1.4400000000000004
   vertex 5.525154010426529 39.459 1.9800000000000009
  endloop
 endfacet
 facet normal 0.12896182088332217 0.12906455754821886 0.9832147215839177
  outer loop
   vertex 21.456835786763808 23.54 1.9800000000000009
   vertex 28.486155052818514 20.63 1.4400000000000004
   vertex 5.525154010426529 39.459 1.9800000000000009
  endloop
 endfacet
 facet normal 0.0 0.0 1.0
  outer loop
   vertex 21.456835786763808 23.54 1.9800000000000009
   vertex 0.5255044451565718 39.459 1.9800000000000009
   vertex 0.5381811740841219 23.54 1.9800000000000009
  endloop
 endfacet
 facet normal 0.0 0.0 1.0
  outer loop
   vertex 21.456835786763808 23.54 1.9800000000000009
   vertex 5.525154010426529 39.459 1.9800000000000009
   vertex 0.5255044451565718 39.459 1.9800000000000009
  endloop
 endfacet
 facet normal 0.0 0.0 -1.0
  outer loop
   vertex 31.47345685412303 16.46 0.36
   vertex 39.45618083101626 16.46 0.36
   vertex 39.44350410208871 0.541 0.36
  endloop
 endfacet
 facet normal 0.0 -0.0 -1.0
  outer loop
   vertex 31.47345685412303 16.46 0.36
   vertex 39.44350410208871 0.541 0.36
   vertex 15.54177507778575 0.541 0.36
  endloop
 endfacet
 facet normal 0.0 0.18245221637639714 -0.9832147215839175
  outer loop
   vertex 39.45618083101626 16.46 0.36
   vertex 31.47345685412303 16.46 0.36
   vertex 30.268774056331594 19.37 0.9000000000000002
  endloop
 endfacet
 facet normal 0.0 0.18245221637639714 -0.9832147215839175
  outer loop
   vertex 39.45849814247924 19.37 0.9000000000000002
   vertex 39.45618083101626 16.46 0.36
   vertex 30.268774056331594 19.37 0.9000000000000002
  endloop
 endfacet
 facet normal 0.9999996829318345 -0.000796326710733389 -2.6895867687898935e-15
  outer loop
   vertex 39.44350410208871 0.541 0.36
   vertex 39.45618083101626 16.46 0.36
   vertex 39.45849814247924 19.37 0.9000000000000002
  endloop
 endfacet
 facet normal 0.9999996829318347 -0.0007963267107334662 0.0
  outer loop
   vertex 39.44350410208871 0.541 0.9000000000000002
   vertex 39.44350410208871 0.541 0.36
   vertex 39.45849814247924 19.37 0.9000000000000002
  endloop
 endfacet
 facet normal 0.0 -1.0 0.0
  outer loop
   vertex 15.54177507778575 0.541 0.36
   vertex 39.44350410208871 0.541 0.36
   vertex 39.44350410208871 0.541 0.9000000000000002
  endloop
 endfacet
 facet normal 0.0 -1.0 0.0
  outer loop
   vertex 11.424774045862684 0.541 0.9000000000000002
   vertex 15.54177507778575 0.541 0.36
   vertex 39.44350410208871 0.541 0.9000000000000002
  endloop
 endfacet
 facet normal -0.12896182088332228 0.129064557548219 -0.9832147215839173
  outer loop
   vertex 31.47345685412303 16.46 0.36
   vertex 15.54177507778575 0.541 0.36
   vertex 11.424774045862684 0.541 0.9000000000000002
  endloop
 endfacet
 facet normal -0.12896182088332228 0.12906455754821897 -0.9832147215839177
  outer loop
   vertex 30.268774056331594 19.37 0.9000000000000002
   vertex 31.47345685412303 16.46 0.36
   vertex 11.424774045862684 0.541 0.9000000000000002
  endloop
 endfacet
 facet normal -0.0 0.0 1.0
  outer loop
   vertex 30.268774056331594 19.37 0.9000000000000002
   vertex 39.44350410208871 0.541 0.9000000000000002
   vertex 39.45849814247924 19.37 0.9000000000000002
  endloop
 endfacet
 facet normal 0.0 0.0 1.0
  outer loop
   vertex 30.268774056331594 19.37 0.9000000000000002
   vertex 11.424774045862684 0.541 0.9000000000000002
   vertex 39.44350410208871 0.541 0.9000000000000002
  endloop
 endfacet
 facet normal 0.0 0.0 -1.0
  outer loop
   vertex 30.268774056331594 19.37 1.4400000000000004
   vertex 39.45849814247924 19.37 1.4400000000000004
   vertex 39.44350410208871 0.541 1.4400000000000004
  endloop
 endfacet
 facet normal 0.0 -0.0 -1.0
  outer loop
   vertex 30.268774056331594 19.37 1.4400000000000004
   vertex 39.44350410208871 0.541 1.4400000000000004
   vertex 11.424774045862684 0.541 1.4400000000000004
  endloop
 endfacet
 facet normal 0.0 0.1824522163763972 0.9832147215839175
  outer loop
   vertex 39.45849814247924 19.37 1.4400000000000004
   vertex 30.268774056331594 19.37 1.4400000000000004
   vertex 31.47345685412303 16.46 1.9800000000000009
  endloop
 endfacet
 facet normal 0.0 0.1824522163763972 0.9832147215839175
  outer loop
   vertex 39.45618083101626 16.46 1.9800000000000009
   vertex 39.45849814247924 19.37 1.4400000000000004
   vertex 31.47345685412303 16.46 1.9800000000000009
  endloop
 endfacet
 facet normal 0.9999996829318347 -0.0007963267107334663 2.2739142690725105e-15
  outer loop
   vertex 39.44350410208871 0.541 1.4400000000000004
   vertex 39.45849814247924 19.37 1.4400000000000004
   vertex 39.45618083101626 16.46 1.9800000000000009
  endloop
 endfacet
 facet normal 0.9999996829318347 -0.0007963267107333892 0.0
  outer loop
   vertex 39.44350410208871 0.541 1.9800000000000009
   vertex 39.44350410208871 0.541 1.4400000000000004
   vertex 39.45618083101626 16.46 1.9800000000000009
  endloop
 endfacet
 facet normal 0.0 -1.0 0.0
  outer loop
   vertex 11.424774045862684 0.541 1.4400000000000004
   vertex 39.44350410208871 0.541 1.4400000000000004
   vertex 39.44350410208871 0.541 1.9800000000000009
  endloop
 endfacet
 facet normal 0.0 -1.0 -0.0
  outer loop
   vertex 15.54177507778575 0.541 1.9800000000000009
   vertex 11.424774045862684 0.541 1.4400000000000004
   vertex 39.44350410208871 0.541 1.9800000000000009
  endloop
 endfacet
 facet normal -0.12896182088332234 0.12906455754821902 0.9832147215839174
  outer loop
   vertex 30.268774056331594 19.37 1.4400000000000004
   vertex 11.424774045862684 0.541 1.4400000000000004
   vertex 15.54177507778575 0.541 1.9800000000000009
  endloop
 endfacet
 facet normal -0.12896182088332228 0.129064557548219 0.9832147215839174
  outer loop
   vertex 31.47345685412303 16.46 1.9800000000000009
   vertex 30.268774056331594 19.37 1.4400000000000004
   vertex 15.54177507778575 0.541 1.9800000000000009
  endloop
 endfacet
 facet normal -0.0 0.0 1.0
  outer loop
   vertex 31.47345685412303 16.46 1.9800000000000009
   vertex 39.44350410208871 0.541 1.9800000000000009
   vertex 39.45618083101626 16.46 1.9800000000000009
  endloop
 endfacet
 facet normal 0.0 0.0 1.0
  outer loop
   vertex 31.47345685412303 16.46 1.9800000000000009
   vertex 15.54177507778575 0.541 1.9800000000000009
   vertex 39.44350410208871 0.541 1.9800000000000009
  endloop
 endfacet
 facet normal 0.0 0.0 -1.0
  outer loop
   vertex 39.456180831016255 23.54 0.36
   vertex 31.47345685412303 23.54 0.36
   vertex 15.541775077785747 39.459 0.36
  endloop
 endfacet
 facet normal 0.0 0.0 -1.0
  outer loop
   vertex 39.456180831016255 23.54 0.36
   vertex 15.541775077785747 39.459 0.36
   vertex 39.44350410208871 39.459 0.36
  endloop
 endfacet
 facet normal 0.0 -0.18245221637639714 -0.9832147215839175
  outer loop
   vertex 31.47345685412303 23.54 0.36
   vertex 39.456180831016255 23.54 0.36
   vertex 39.458498142479236 20.63 0.9000000000000002
  endloop
 endfacet
 facet normal 0.0 -0.18245221637639714 -0.9832147215839175
  outer loop
   vertex 30.26877405633159 20.63 0.9000000000000002
   vertex 31.47345685412303 23.54 0.36
   vertex 39.458498142479236 20.63 0.9000000000000002
  endloop
 endfacet
 facet normal -0.12896182088332217 -0.12906455754821888 -0.9832147215839177
  outer loop
   vertex 15.541775077785747 39.459 0.36
   vertex 31.47345685412303 23.54 0.36
   vertex 30.26877405633159 20.63 0.9000000000000002
  endloop
 endfacet
 facet normal -0.12896182088332223 -0.1290645575482189 -0.9832147215839177
  outer loop
   vertex 11.424774045862677 39.459 0.9000000000000002
   vertex 15.541775077785747 39.459 0.36
   vertex 30.26877405633159 20.63 0.9000000000000002
  endloop
 endfacet
 facet normal 0.0 1.0 0.0
  outer loop
   vertex 39.44350410208871 39.459 0.36
   vertex 15.541775077785747 39.459 0.36
   vertex 11.424774045862677 39.459 0.9000000000000002
  endloop
 endfacet
 facet normal 0.0 1.0 0.0
  outer loop
   vertex 39.44350410208871 39.459 0.9000000000000002
   vertex 39.44350410208871 39.459 0.36
   vertex 11.424774045862677 39.459 0.9000000000000002
  endloop
 endfacet
 facet normal 0.9999996829318347 0.0007963267107329426 0.0
  outer loop
   vertex 39.456180831016255 23.54 0.36
   vertex 39.44350410208871 39.459 0.36
   vertex 39.44350410208871 39.459 0.9000000000000002
  endloop
 endfacet
 facet normal 0.9999996829318347 0.0007963267107330887 -4.30760710275681e-15
  outer loop
   vertex 39.458498142479236 20.63 0.9000000000000002
   vertex 39.456180831016255 23.54 0.36
   vertex 39.44350410208871 39.459 0.9000000000000002
  endloop
 endfacet
 facet normal 0.0 0.0 1.0
  outer loop
   vertex 39.458498142479236 20.63 0.9000000000000002
   vertex 11.424774045862677 39.459 0.9000000000000002
   vertex 30.26877405633159 20.63 0.9000000000000002
  endloop
 endfacet
 facet normal 0.0 0.0 1.0
  outer loop
   vertex 39.458498142479236 20.63 0.9000000000000002
   vertex 39.44350410208871 39.459 0.9000000000000002
   vertex 11.424774045862677 39.459 0.9000000000000002
  endloop
 endfacet
 facet normal 0.0 0.0 -1.0
  outer loop
   vertex 39.458498142479236 20.63 1.4400000000000004
   vertex 30.26877405633159 20.63 1.4400000000000004
   vertex 11.424774045862677 39.459 1.4400000000000004
  endloop
 endfacet
 facet normal 0.0 0.0 -1.0
  outer loop
   vertex 39.458498142479236 20.63 1.4400000000000004
   vertex 11.424774045862677 39.459 1.4400000000000004
   vertex 39.44350410208871 39.459 1.4400000000000004
  endloop
 endfacet
 facet normal 0.0 -0.18245221637639722 0.9832147215839175
  outer loop
   vertex 30.26877405633159 20.63 1.4400000000000004
   vertex 39.458498142479236 20.63 1.4400000000000004
   vertex 39.456180831016255 23.54 1.9800000000000009
  endloop
 endfacet
 facet normal 0.0 -0.18245221637639722 0.9832147215839175
  outer loop
   vertex 31.47345685412303 23.54 1.9800000000000009
   vertex 30.26877405633159 20.63 1.4400000000000004
   vertex 39.456180831016255 23.54 1.9800000000000009
  endloop
 endfacet
 facet normal -0.1289618208833222 -0.12906455754821886 0.9832147215839174
  outer loop
   vertex 11.424774045862677 39.459 1.4400000000000004
   vertex 30.26877405633159 20.63 1.4400000000000004
   vertex 31.47345685412303 23.54 1.9800000000000009
  endloop
 endfacet
 facet normal -0.12896182088332225 -0.12906455754821897 0.9832147215839177
  outer loop
   vertex 15.541775077785747 39.459 1.9800000000000009
   vertex 11.424774045862677 39.459 1.4400000000000004
   vertex 31.47345685412303 23.54 1.9800000000000009
  endloop
 endfacet
 facet normal 0.0 1.0 0.0
  outer loop
   vertex 39.44350410208871 39.459 1.4400000000000004
   vertex 11.424774045862677 39.459 1.4400000000000004
   vertex 15.541775077785747 39.459 1.9800000000000009
  endloop
 endfacet
 facet normal 0.0 1.0 0.0
  outer loop
   vertex 39.44350410208871 39.459 1.9800000000000009
   vertex 39.44350410208871 39.459 1.4400000000000004
   vertex 15.541775077785747 39.459 1.9800000000000009
  endloop
 endfacet
 facet normal 0.9999996829318347 0.0007963267107330887 0.0
  outer loop
   vertex 39.458498142479236 20.63 1.4400000000000004
   vertex 39.44350410208871 39.459 1.4400000000000004
   vertex 39.44350410208871 39.459 1.9800000000000009
  endloop
 endfacet
 facet normal 0.9999996829318345 0.0007963267107329425 5.095039521189015e-15
  outer loop
   vertex 39.456180831016255 23.54 1.9800000000000009
   vertex 39.458498142479236 20.63 1.4400000000000004
   vertex 39.44350410208871 39.459 1.9800000000000009
  endloop
 endfacet
 facet normal 0.0 0.0 1.0
  outer loop
   vertex 39.456180831016255 23.54 1.9800000000000009
   vertex 15.541775077785747 39.459 1.9800000000000009
   vertex 31.47345685412303 23.54 1.9800000000000009
  endloop
 endfacet
 facet normal 0.0 0.0 1.0
  outer loop
   vertex 39.456180831016255 23.54 1.9800000000000009
   vertex 39.44350410208871 39.459 1.9800000000000009
   vertex 15.541775077785747 39.459 1.9800000000000009
  endloop
 endfacet
endsolid
