solid PyGamic generated __All_Units__ SLA File
 facet normal 0.0 0.0 -1.0
  outer loop
   vertex -0.0013889805726013114 17.0 0
   vertex 22.761245547474996 17.0 0
   vertex 5.748703395583711 0.001 0
  endloop
 endfacet
 facet normal 0.0 -0.0 -1.0
  outer loop
   vertex -0.0013889805726013114 17.0 0
   vertex 5.748703395583711 0.001 0
   vertex -0.01492574262043236 0.001 0
  endloop
 endfacet
 facet normal -0.0 0.0 1.0
  outer loop
   vertex 0.5381811740841219 16.46 0.36
   vertex 5.525154010426537 0.541 0.36
   vertex 21.45683578676381 16.46 0.36
  endloop
 endfacet
 facet normal 0.0 0.0 1.0
  outer loop
   vertex 0.5381811740841219 16.46 0.36
   vertex 0.5255044451565719 0.541 0.36
   vertex 5.525154010426537 0.541 0.36
  endloop
 endfacet
 facet normal 0.0 0.2954697229220677 -0.9553521041146853
  outer loop
   vertex 22.761245547474996 17.0 0
   vertex -0.0013889805726013114 17.0 0
   vertex 0.0009283308903781791 19.91 0.9000000000000002
  endloop
 endfacet
 facet normal 0.0 0.2954697229220677 -0.9553521041146853
  outer loop
   vertex 29.790564813529695 19.91 0.9000000000000002
   vertex 22.761245547474996 17.0 0
   vertex 0.0009283308903781791 19.91 0.9000000000000002
  endloop
 endfacet
 facet normal 0.20884544041554284 -0.20901181588915366 -0.9553521041146852
  outer loop
   vertex 5.748703395583711 0.001 0
   vertex 22.761245547474996 17.0 0
   vertex 29.790564813529695 19.91 0.9000000000000002
  endloop
 endfacet
 facet normal 0.20884544041554284 -0.20901181588915366 -0.9553521041146852
  outer loop
   vertex 9.865704427506776 0.001 0.9000000000000002
   vertex 5.748703395583711 0.001 0
   vertex 29.790564813529695 19.91 0.9000000000000002
  endloop
 endfacet
 facet normal 0.0 -1.0 0.0
  outer loop
   vertex -0.01492574262043236 0.001 0
   vertex 5.748703395583711 0.001 0
   vertex 9.865704427506776 0.001 0.9000000000000002
  endloop
 endfacet
 facet normal 0.0 -1.0 0.0
  outer loop
   vertex -0.01492574262043236 0.001 0.9000000000000002
   vertex -0.01492574262043236 0.001 0
   vertex 9.865704427506776 0.001 0.9000000000000002
  endloop
 endfacet
 facet normal -0.9999996829318346 0.0007963267107332633 0.0
  outer loop
   vertex -0.0013889805726013114 17.0 0
   vertex -0.01492574262043236 0.001 0
   vertex -0.01492574262043236 0.001 0.9000000000000002
  endloop
 endfacet
 facet normal -0.9999996829318347 0.0007963267107332633 3.872559983371489e-19
  outer loop
   vertex 0.0009283308903781791 19.91 0.9000000000000002
   vertex -0.0013889805726013114 17.0 0
   vertex -0.01492574262043236 0.001 0.9000000000000002
  endloop
 endfacet
 facet normal 0.0 -0.18245221637639714 0.9832147215839174
  outer loop
   vertex 21.45683578676381 16.46 0.36
   vertex 0.5404984855471013 19.37 0.9000000000000002
   vertex 0.5381811740841219 16.46 0.36
  endloop
 endfacet
 facet normal 0.0 -0.18245221637639716 0.9832147215839175
  outer loop
   vertex 28.486155052818514 19.37 0.9000000000000002
   vertex 0.5404984855471013 19.37 0.9000000000000002
   vertex 21.45683578676381 16.46 0.36
  endloop
 endfacet
 facet normal -0.12896182088332228 0.12906455754821897 0.9832147215839173
  outer loop
   vertex 5.525154010426537 0.541 0.36
   vertex 28.486155052818514 19.37 0.9000000000000002
   vertex 21.45683578676381 16.46 0.36
  endloop
 endfacet
 facet normal -0.1289618208833223 0.129064557548219 0.9832147215839174
  outer loop
   vertex 9.642155042349604 0.541 0.9000000000000002
   vertex 28.486155052818514 19.37 0.9000000000000002
   vertex 5.525154010426537 0.541 0.36
  endloop
 endfacet
 facet normal 0.0 1.0 0.0
  outer loop
   vertex 0.5255044451565719 0.541 0.36
   vertex 9.642155042349604 0.541 0.9000000000000002
   vertex 5.525154010426537 0.541 0.36
  endloop
 endfacet
 facet normal -0.0 1.0 0.0
  outer loop
   vertex 0.5255044451565719 0.541 0.9000000000000002
   vertex 9.642155042349604 0.541 0.9000000000000002
   vertex 0.5255044451565719 0.541 0.36
  endloop
 endfacet
 facet normal 0.9999996829318345 -0.0007963267107332636 0.0
  outer loop
   vertex 0.5381811740841219 16.46 0.36
   vertex 0.5255044451565719 0.541 0.9000000000000002
   vertex 0.5255044451565719 0.541 0.36
  endloop
 endfacet
 facet normal 0.9999996829318347 -0.00079632671073326 1.0987400879972219e-16
  outer loop
   vertex 0.5404984855471013 19.37 0.9000000000000002
   vertex 0.5255044451565719 0.541 0.9000000000000002
   vertex 0.5381811740841219 16.46 0.36
  endloop
 endfacet
 facet normal 0.0 0.0 1.0
  outer loop
   vertex 29.790564813529695 19.91 0.9000000000000002
   vertex 0.0009283308903781791 19.91 0.9000000000000002
   vertex 0.5404984855471013 19.37 0.9000000000000002
  endloop
 endfacet
 facet normal 0.0 -0.0 1.0
  outer loop
   vertex 28.486155052818514 19.37 0.9000000000000002
   vertex 29.790564813529695 19.91 0.9000000000000002
   vertex 0.5404984855471013 19.37 0.9000000000000002
  endloop
 endfacet
 facet normal 0.0 0.0 1.0
  outer loop
   vertex 9.865704427506776 0.001 0.9000000000000002
   vertex 29.790564813529695 19.91 0.9000000000000002
   vertex 28.486155052818514 19.37 0.9000000000000002
  endloop
 endfacet
 facet normal -0.0 0.0 1.0
  outer loop
   vertex 9.642155042349604 0.541 0.9000000000000002
   vertex 9.865704427506776 0.001 0.9000000000000002
   vertex 28.486155052818514 19.37 0.9000000000000002
  endloop
 endfacet
 facet normal 0.0 0.0 1.0
  outer loop
   vertex -0.01492574262043236 0.001 0.9000000000000002
   vertex 9.865704427506776 0.001 0.9000000000000002
   vertex 9.642155042349604 0.541 0.9000000000000002
  endloop
 endfacet
 facet normal -0.0 0.0 1.0
  outer loop
   vertex 0.5255044451565719 0.541 0.9000000000000002
   vertex -0.01492574262043236 0.001 0.9000000000000002
   vertex 9.642155042349604 0.541 0.9000000000000002
  endloop
 endfacet
 facet normal 0.0 0.0 1.0
  outer loop
   vertex 0.0009283308903781791 19.91 0.9000000000000002
   vertex -0.01492574262043236 0.001 0.9000000000000002
   vertex 0.5255044451565719 0.541 0.9000000000000002
  endloop
 endfacet
 facet normal 0.0 0.0 1.0
  outer loop
   vertex 0.5404984855471013 19.37 0.9000000000000002
   vertex 0.0009283308903781791 19.91 0.9000000000000002
   vertex 0.5255044451565719 0.541 0.9000000000000002
  endloop
 endfacet
 facet normal 0.0 0.2954697229220677 0.9553521041146853
  outer loop
   vertex 29.790564813529695 19.91 1.4400000000000004
   vertex 0.0009283308903781791 19.91 1.4400000000000004
   vertex -0.0013889805726013114 17.0 2.3400000000000007
  endloop
 endfacet
 facet normal 0.0 0.29546972292206775 0.9553521041146853
  outer loop
   vertex 22.761245547474996 17.0 2.3400000000000007
   vertex 29.790564813529695 19.91 1.4400000000000004
   vertex -0.0013889805726013114 17.0 2.3400000000000007
  endloop
 endfacet
 facet normal 0.20884544041554284 -0.20901181588915368 0.9553521041146853
  outer loop
   vertex 9.865704427506776 0.001 1.4400000000000004
   vertex 29.790564813529695 19.91 1.4400000000000004
   vertex 22.761245547474996 17.0 2.3400000000000007
  endloop
 endfacet
 facet normal 0.20884544041554287 -0.20901181588915366 0.9553521041146852
  outer loop
   vertex 5.748703395583711 0.001 2.3400000000000007
   vertex 9.865704427506776 0.001 1.4400000000000004
   vertex 22.761245547474996 17.0 2.3400000000000007
  endloop
 endfacet
 facet normal 0.0 -1.0 0.0
  outer loop
   vertex -0.01492574262043236 0.001 1.4400000000000004
   vertex 9.865704427506776 0.001 1.4400000000000004
   vertex 5.748703395583711 0.001 2.3400000000000007
  endloop
 endfacet
 facet normal 0.0 -1.0 0.0
  outer loop
   vertex -0.01492574262043236 0.001 2.3400000000000007
   vertex -0.01492574262043236 0.001 1.4400000000000004
   vertex 5.748703395583711 0.001 2.3400000000000007
  endloop
 endfacet
 facet normal -0.9999996829318347 0.0007963267107332633 0.0
  outer loop
   vertex 0.0009283308903781791 19.91 1.4400000000000004
   vertex -0.01492574262043236 0.001 1.4400000000000004
   vertex -0.01492574262043236 0.001 2.3400000000000007
  endloop
 endfacet
 facet normal -0.9999996829318346 0.0007963267107332633 0.0
  outer loop
   vertex -0.0013889805726013114 17.0 2.3400000000000007
   vertex 0.0009283308903781791 19.91 1.4400000000000004
   vertex -0.01492574262043236 0.001 2.3400000000000007
  endloop
 endfacet
 facet normal -0.0 -0.18245221637639725 -0.9832147215839175
  outer loop
   vertex 28.486155052818514 19.37 1.4400000000000004
   vertex 0.5381811740841219 16.46 1.9800000000000009
   vertex 0.5404984855471013 19.37 1.4400000000000004
  endloop
 endfacet
 facet normal -0.0 -0.1824522163763972 -0.9832147215839174
  outer loop
   vertex 21.45683578676381 16.46 1.9800000000000009
   vertex 0.5381811740841219 16.46 1.9800000000000009
   vertex 28.486155052818514 19.37 1.4400000000000004
  endloop
 endfacet
 facet normal -0.12896182088332234 0.12906455754821902 -0.9832147215839174
  outer loop
   vertex 9.642155042349604 0.541 1.4400000000000004
   vertex 21.45683578676381 16.46 1.9800000000000009
   vertex 28.486155052818514 19.37 1.4400000000000004
  endloop
 endfacet
 facet normal -0.12896182088332234 0.12906455754821902 -0.9832147215839173
  outer loop
   vertex 5.525154010426537 0.541 1.9800000000000009
   vertex 21.45683578676381 16.46 1.9800000000000009
   vertex 9.642155042349604 0.541 1.4400000000000004
  endloop
 endfacet
 facet normal 0.0 1.0 0.0
  outer loop
   vertex 0.5255044451565719 0.541 1.4400000000000004
   vertex 5.525154010426537 0.541 1.9800000000000009
   vertex 9.642155042349604 0.541 1.4400000000000004
  endloop
 endfacet
 facet normal -0.0 1.0 0.0
  outer loop
   vertex 0.5255044451565719 0.541 1.9800000000000009
   vertex 5.525154010426537 0.541 1.9800000000000009
   vertex 0.5255044451565719 0.541 1.4400000000000004
  endloop
 endfacet
 facet normal 0.9999996829318347 -0.00079632671073326 0.0
  outer loop
   vertex 0.5404984855471013 19.37 1.4400000000000004
   vertex 0.5255044451565719 0.541 1.9800000000000009
   vertex 0.5255044451565719 0.541 1.4400000000000004
  endloop
 endfacet
 facet normal 0.9999996829318347 -0.0007963267107332637 -1.2995902454236877e-16
  outer loop
   vertex 0.5381811740841219 16.46 1.9800000000000009
   vertex 0.5255044451565719 0.541 1.9800000000000009
   vertex 0.5404984855471013 19.37 1.4400000000000004
  endloop
 endfacet
 facet normal -0.0 0.0 1.0
  outer loop
   vertex -0.0013889805726013114 17.0 2.3400000000000007
   vertex 5.748703395583711 0.001 2.3400000000000007
   vertex 22.761245547474996 17.0 2.3400000000000007
  endloop
 endfacet
 facet normal 0.0 0.0 1.0
  outer loop
   vertex -0.0013889805726013114 17.0 2.3400000000000007
   vertex -0.01492574262043236 0.001 2.3400000000000007
   vertex 5.748703395583711 0.001 2.3400000000000007
  endloop
 endfacet
 facet normal 0.0 0.0 -1.0
  outer loop
   vertex 0.5381811740841219 16.46 1.9800000000000009
   vertex 21.45683578676381 16.46 1.9800000000000009
   vertex 5.525154010426537 0.541 1.9800000000000009
  endloop
 endfacet
 facet normal 0.0 -0.0 -1.0
  outer loop
   vertex 0.5381811740841219 16.46 1.9800000000000009
   vertex 5.525154010426537 0.541 1.9800000000000009
   vertex 0.5255044451565719 0.541 1.9800000000000009
  endloop
 endfacet
 facet normal -0.0 0.0 -1.0
  outer loop
   vertex 29.790564813529695 19.91 1.4400000000000004
   vertex 0.5404984855471013 19.37 1.4400000000000004
   vertex 0.0009283308903781791 19.91 1.4400000000000004
  endloop
 endfacet
 facet normal 0.0 0.0 -1.0
  outer loop
   vertex 28.486155052818514 19.37 1.4400000000000004
   vertex 0.5404984855471013 19.37 1.4400000000000004
   vertex 29.790564813529695 19.91 1.4400000000000004
  endloop
 endfacet
 facet normal 0.0 0.0 -1.0
  outer loop
   vertex 9.865704427506776 0.001 1.4400000000000004
   vertex 28.486155052818514 19.37 1.4400000000000004
   vertex 29.790564813529695 19.91 1.4400000000000004
  endloop
 endfacet
 facet normal 0.0 0.0 -1.0
  outer loop
   vertex 9.642155042349604 0.541 1.4400000000000004
   vertex 28.486155052818514 19.37 1.4400000000000004
   vertex 9.865704427506776 0.001 1.4400000000000004
  endloop
 endfacet
 facet normal 0.0 0.0 -1.0
  outer loop
   vertex -0.01492574262043236 0.001 1.4400000000000004
   vertex 9.642155042349604 0.541 1.4400000000000004
   vertex 9.865704427506776 0.001 1.4400000000000004
  endloop
 endfacet
 facet normal 0.0 -0.0 -1.0
  outer loop
   vertex 0.5255044451565719 0.541 1.4400000000000004
   vertex 9.642155042349604 0.541 1.4400000000000004
   vertex -0.01492574262043236 0.001 1.4400000000000004
  endloop
 endfacet
 facet normal 0.0 -0.0 -1.0
  outer loop
   vertex 0.0009283308903781791 19.91 1.4400000000000004
   vertex 0.5255044451565719 0.541 1.4400000000000004
   vertex -0.01492574262043236 0.001 1.4400000000000004
  endloop
 endfacet
 facet normal -0.0 0.0 -1.0
  outer loop
   vertex 0.5404984855471013 19.37 1.4400000000000004
   vertex 0.5255044451565719 0.541 1.4400000000000004
   vertex 0.0009283308903781791 19.91 1.4400000000000004
  endloop
 endfacet
 facet normal 0.0 0.0 -1.0
  outer loop
   vertex 22.761245547474996 23.0 0
   vertex -0.0013889805726013114 23.0 0
   vertex -0.014925742620432364 39.999 0
  endloop
 endfacet
 facet normal 0.0 0.0 -1.0
  outer loop
   vertex 22.761245547474996 23.0 0
   vertex -0.014925742620432364 39.999 0
   vertex 5.748703395583709 39.999 0
  endloop
 endfacet
 facet normal 0.0 0.0 1.0
  outer loop
   vertex 21.456835786763808 23.54 0.36
   vertex 0.5255044451565718 39.459 0.36
   vertex 0.5381811740841219 23.54 0.36
  endloop
 endfacet
 facet normal 0.0 0.0 1.0
  outer loop
   vertex 21.456835786763808 23.54 0.36
   vertex 5.525154010426529 39.459 0.36
   vertex 0.5255044451565718 39.459 0.36
  endloop
 endfacet
 facet normal 0.0 -0.2954697229220677 -0.9553521041146853
  outer loop
   vertex -0.0013889805726013114 23.0 0
   vertex 22.761245547474996 23.0 0
   vertex 29.79056481352969 20.09 0.9000000000000002
  endloop
 endfacet
 facet normal 0.0 -0.2954697229220677 -0.9553521041146853
  outer loop
   vertex 0.0009283308903781791 20.09 0.9000000000000002
   vertex -0.0013889805726013114 23.0 0
   vertex 29.79056481352969 20.09 0.9000000000000002
  endloop
 endfacet
 facet normal -0.9999996829318346 -0.0007963267107332633 0.0
  outer loop
   vertex -0.014925742620432364 39.999 0
   vertex -0.0013889805726013114 23.0 0
   vertex 0.0009283308903781791 20.09 0.9000000000000002
  endloop
 endfacet
 facet normal -0.9999996829318347 -0.0007963267107332633 -0.0
  outer loop
   vertex -0.014925742620432364 39.999 0.9000000000000002
   vertex -0.014925742620432364 39.999 0
   vertex 0.0009283308903781791 20.09 0.9000000000000002
  endloop
 endfacet
 facet normal 0.0 1.0 0.0
  outer loop
   vertex 5.748703395583709 39.999 0
   vertex -0.014925742620432364 39.999 0
   vertex -0.014925742620432364 39.999 0.9000000000000002
  endloop
 endfacet
 facet normal 0.0 1.0 0.0
  outer loop
   vertex 9.865704427506772 39.999 0.9000000000000002
   vertex 5.748703395583709 39.999 0
   vertex -0.014925742620432364 39.999 0.9000000000000002
  endloop
 endfacet
 facet normal 0.2088454404155429 0.20901181588915368 -0.9553521041146852
  outer loop
   vertex 22.761245547474996 23.0 0
   vertex 5.748703395583709 39.999 0
   vertex 9.865704427506772 39.999 0.9000000000000002
  endloop
 endfacet
 facet normal 0.208845440415543 0.2090118158891538 -0.9553521041146852
  outer loop
   vertex 29.79056481352969 20.09 0.9000000000000002
   vertex 22.761245547474996 23.0 0
   vertex 9.865704427506772 39.999 0.9000000000000002
  endloop
 endfacet
 facet normal -0.0 0.18245221637639714 0.9832147215839174
  outer loop
   vertex 0.5381811740841219 23.54 0.36
   vertex 28.486155052818514 20.63 0.9000000000000002
   vertex 21.456835786763808 23.54 0.36
  endloop
 endfacet
 facet normal -0.0 0.18245221637639716 0.9832147215839175
  outer loop
   vertex 0.5404984855471013 20.63 0.9000000000000002
   vertex 28.486155052818514 20.63 0.9000000000000002
   vertex 0.5381811740841219 23.54 0.36
  endloop
 endfacet
 facet normal 0.9999996829318347 0.0007963267107332705 1.6466857768101388e-16
  outer loop
   vertex 0.5255044451565718 39.459 0.36
   vertex 0.5404984855471013 20.63 0.9000000000000002
   vertex 0.5381811740841219 23.54 0.36
  endloop
 endfacet
 facet normal 0.9999996829318347 0.0007963267107332656 0.0
  outer loop
   vertex 0.5255044451565718 39.459 0.9000000000000002
   vertex 0.5404984855471013 20.63 0.9000000000000002
   vertex 0.5255044451565718 39.459 0.36
  endloop
 endfacet
 facet normal 0.0 -1.0 0.0
  outer loop
   vertex 5.525154010426529 39.459 0.36
   vertex 0.5255044451565718 39.459 0.9000000000000002
   vertex 0.5255044451565718 39.459 0.36
  endloop
 endfacet
 facet normal -0.0 -1.0 0.0
  outer loop
   vertex 9.6421550423496 39.459 0.9000000000000002
   vertex 0.5255044451565718 39.459 0.9000000000000002
   vertex 5.525154010426529 39.459 0.36
  endloop
 endfacet
 facet normal -0.12896182088332217 -0.12906455754821886 0.9832147215839177
  outer loop
   vertex 21.456835786763808 23.54 0.36
   vertex 9.6421550423496 39.459 0.9000000000000002
   vertex 5.525154010426529 39.459 0.36
  endloop
 endfacet
 facet normal -0.12896182088332214 -0.12906455754821883 0.9832147215839177
  outer loop
   vertex 28.486155052818514 20.63 0.9000000000000002
   vertex 9.6421550423496 39.459 0.9000000000000002
   vertex 21.456835786763808 23.54 0.36
  endloop
 endfacet
 facet normal 0.0 0.0 1.0
  outer loop
   vertex 0.0009283308903781791 20.09 0.9000000000000002
   vertex 29.79056481352969 20.09 0.9000000000000002
   vertex 28.486155052818514 20.63 0.9000000000000002
  endloop
 endfacet
 facet normal -0.0 0.0 1.0
  outer loop
   vertex 0.5404984855471013 20.63 0.9000000000000002
   vertex 0.0009283308903781791 20.09 0.9000000000000002
   vertex 28.486155052818514 20.63 0.9000000000000002
  endloop
 endfacet
 facet normal 0.0 0.0 1.0
  outer loop
   vertex -0.014925742620432364 39.999 0.9000000000000002
   vertex 0.0009283308903781791 20.09 0.9000000000000002
   vertex 0.5404984855471013 20.63 0.9000000000000002
  endloop
 endfacet
 facet normal 0.0 0.0 1.0
  outer loop
   vertex 0.5255044451565718 39.459 0.9000000000000002
   vertex -0.014925742620432364 39.999 0.9000000000000002
   vertex 0.5404984855471013 20.63 0.9000000000000002
  endloop
 endfacet
 facet normal 0.0 0.0 1.0
  outer loop
   vertex 9.865704427506772 39.999 0.9000000000000002
   vertex -0.014925742620432364 39.999 0.9000000000000002
   vertex 0.5255044451565718 39.459 0.9000000000000002
  endloop
 endfacet
 facet normal 0.0 -0.0 1.0
  outer loop
   vertex 9.6421550423496 39.459 0.9000000000000002
   vertex 9.865704427506772 39.999 0.9000000000000002
   vertex 0.5255044451565718 39.459 0.9000000000000002
  endloop
 endfacet
 facet normal 0.0 0.0 1.0
  outer loop
   vertex 29.79056481352969 20.09 0.9000000000000002
   vertex 9.865704427506772 39.999 0.9000000000000002
   vertex 9.6421550423496 39.459 0.9000000000000002
  endloop
 endfacet
 facet normal -0.0 -0.0 1.0
  outer loop
   vertex 28.486155052818514 20.63 0.9000000000000002
   vertex 29.79056481352969 20.09 0.9000000000000002
   vertex 9.6421550423496 39.459 0.9000000000000002
  endloop
 endfacet
 facet normal 0.0 -0.29546972292206775 0.9553521041146853
  outer loop
   vertex 0.0009283308903781791 20.09 1.4400000000000004
   vertex 29.79056481352969 20.09 1.4400000000000004
   vertex 22.761245547474996 23.0 2.3400000000000007
  endloop
 endfacet
 facet normal 0.0 -0.29546972292206775 0.9553521041146853
  outer loop
   vertex -0.0013889805726013114 23.0 2.3400000000000007
   vertex 0.0009283308903781791 20.09 1.4400000000000004
   vertex 22.761245547474996 23.0 2.3400000000000007
  endloop
 endfacet
 facet normal -0.9999996829318347 -0.0007963267107332633 0.0
  outer loop
   vertex -0.014925742620432364 39.999 1.4400000000000004
   vertex 0.0009283308903781791 20.09 1.4400000000000004
   vertex -0.0013889805726013114 23.0 2.3400000000000007
  endloop
 endfacet
 facet normal -0.9999996829318346 -0.0007963267107332633 -0.0
  outer loop
   vertex -0.014925742620432364 39.999 2.3400000000000007
   vertex -0.014925742620432364 39.999 1.4400000000000004
   vertex -0.0013889805726013114 23.0 2.3400000000000007
  endloop
 endfacet
 facet normal 0.0 1.0 0.0
  outer loop
   vertex 9.865704427506772 39.999 1.4400000000000004
   vertex -0.014925742620432364 39.999 1.4400000000000004
   vertex -0.014925742620432364 39.999 2.3400000000000007
  endloop
 endfacet
 facet normal 0.0 1.0 0.0
  outer loop
   vertex 5.748703395583709 39.999 2.3400000000000007
   vertex 9.865704427506772 39.999 1.4400000000000004
   vertex -0.014925742620432364 39.999 2.3400000000000007
  endloop
 endfacet
 facet normal 0.20884544041554315 0.20901181588915396 0.9553521041146852
  outer loop
   vertex 29.79056481352969 20.09 1.4400000000000004
   vertex 9.865704427506772 39.999 1.4400000000000004
   vertex 5.748703395583709 39.999 2.3400000000000007
  endloop
 endfacet
 facet normal 0.20884544041554304 0.20901181588915385 0.9553521041146852
  outer loop
   vertex 22.761245547474996 23.0 2.3400000000000007
   vertex 29.79056481352969 20.09 1.4400000000000004
   vertex 5.748703395583709 39.999 2.3400000000000007
  endloop
 endfacet
 facet normal 0.0 0.18245221637639725 -0.9832147215839175
  outer loop
   vertex 0.5404984855471013 20.63 1.4400000000000004
   vertex 21.456835786763808 23.54 1.9800000000000009
   vertex 28.486155052818514 20.63 1.4400000000000004
  endloop
 endfacet
 facet normal 0.0 0.1824522163763972 -0.9832147215839174
  outer loop
   vertex 0.5381811740841219 23.54 1.9800000000000009
   vertex 21.456835786763808 23.54 1.9800000000000009
   vertex 0.5404984855471013 20.63 1.4400000000000004
  endloop
 endfacet
 facet normal 0.9999996829318347 0.0007963267107332655 -1.3921924096362307e-16
  outer loop
   vertex 0.5255044451565718 39.459 1.4400000000000004
   vertex 0.5381811740841219 23.54 1.9800000000000009
   vertex 0.5404984855471013 20.63 1.4400000000000004
  endloop
 endfacet
 facet normal 0.9999996829318345 0.0007963267107332703 0.0
  outer loop
   vertex 0.5255044451565718 39.459 1.9800000000000009
   vertex 0.5381811740841219 23.54 1.9800000000000009
   vertex 0.5255044451565718 39.459 1.4400000000000004
  endloop
 endfacet
 facet normal 0.0 -1.0 0.0
  outer loop
   vertex 9.6421550423496 39.459 1.4400000000000004
   vertex 0.5255044451565718 39.459 1.9800000000000009
   vertex 0.5255044451565718 39.459 1.4400000000000004
  endloop
 endfacet
 facet normal -0.0 -1.0 -0.0
  outer loop
   vertex 5.525154010426529 39.459 1.9800000000000009
   vertex 0.5255044451565718 39.459 1.9800000000000009
   vertex 9.6421550423496 39.459 1.4400000000000004
  endloop
 endfacet
 facet normal -0.12896182088332228 -0.12906455754821894 -0.9832147215839174
  outer loop
   vertex 28.486155052818514 20.63 1.4400000000000004
   vertex 5.525154010426529 39.459 1.9800000000000009
   vertex 9.6421550423496 39.459 1.4400000000000004
  endloop
 endfacet
 facet normal -0.12896182088332217 -0.12906455754821886 -0.9832147215839177
  outer loop
   vertex 21.456835786763808 23.54 1.9800000000000009
   vertex 5.525154010426529 39.459 1.9800000000000009
   vertex 28.486155052818514 20.63 1.4400000000000004
  endloop
 endfacet
 facet normal 0.0 0.0 1.0
  outer loop
   vertex 22.761245547474996 23.0 2.3400000000000007
   vertex -0.014925742620432364 39.999 2.3400000000000007
   vertex -0.0013889805726013114 23.0 2.3400000000000007
  endloop
 endfacet
 facet normal 0.0 0.0 1.0
  outer loop
   vertex 22.761245547474996 23.0 2.3400000000000007
   vertex 5.748703395583709 39.999 2.3400000000000007
   vertex -0.014925742620432364 39.999 2.3400000000000007
  endloop
 endfacet
 facet normal 0.0 0.0 -1.0
  outer loop
   vertex 21.456835786763808 23.54 1.9800000000000009
   vertex 0.5381811740841219 23.54 1.9800000000000009
   vertex 0.5255044451565718 39.459 1.9800000000000009
  endloop
 endfacet
 facet normal 0.0 0.0 -1.0
  outer loop
   vertex 21.456835786763808 23.54 1.9800000000000009
   vertex 0.5255044451565718 39.459 1.9800000000000009
   vertex 5.525154010426529 39.459 1.9800000000000009
  endloop
 endfacet
 facet normal 0.0 0.0 -1.0
  outer loop
   vertex 0.0009283308903781791 20.09 1.4400000000000004
   vertex 28.486155052818514 20.63 1.4400000000000004
   vertex 29.79056481352969 20.09 1.4400000000000004
  endloop
 endfacet
 facet normal 0.0 -0.0 -1.0
  outer loop
   vertex 0.5404984855471013 20.63 1.4400000000000004
   vertex 28.486155052818514 20.63 1.4400000000000004
   vertex 0.0009283308903781791 20.09 1.4400000000000004
  endloop
 endfacet
 facet normal 0.0 0.0 -1.0
  outer loop
   vertex -0.014925742620432364 39.999 1.4400000000000004
   vertex 0.5404984855471013 20.63 1.4400000000000004
   vertex 0.0009283308903781791 20.09 1.4400000000000004
  endloop
 endfacet
 facet normal -0.0 -0.0 -1.0
  outer loop
   vertex 0.5255044451565718 39.459 1.4400000000000004
   vertex 0.5404984855471013 20.63 1.4400000000000004
   vertex -0.014925742620432364 39.999 1.4400000000000004
  endloop
 endfacet
 facet normal -0.0 0.0 -1.0
  outer loop
   vertex 9.865704427506772 39.999 1.4400000000000004
   vertex 0.5255044451565718 39.459 1.4400000000000004
   vertex -0.014925742620432364 39.999 1.4400000000000004
  endloop
 endfacet
 facet normal 0.0 0.0 -1.0
  outer loop
   vertex 9.6421550423496 39.459 1.4400000000000004
   vertex 0.5255044451565718 39.459 1.4400000000000004
   vertex 9.865704427506772 39.999 1.4400000000000004
  endloop
 endfacet
 facet normal 0.0 0.0 -1.0
  outer loop
   vertex 29.79056481352969 20.09 1.4400000000000004
   vertex 9.6421550423496 39.459 1.4400000000000004
   vertex 9.865704427506772 39.999 1.4400000000000004
  endloop
 endfacet
 facet normal 0.0 0.0 -1.0
  outer loop
   vertex 28.486155052818514 20.63 1.4400000000000004
   vertex 9.6421550423496 39.459 1.4400000000000004
   vertex 29.79056481352969 20.09 1.4400000000000004
  endloop
 endfacet
 facet normal 0.0 0.0 -1.0
  outer loop
   vertex 31.24990746896585 17.0 0
   vertex 39.99661101879327 17.0 0
   vertex 39.98307425674543 0.001 0
  endloop
 endfacet
 facet normal 0.0 -0.0 -1.0
  outer loop
   vertex 31.24990746896585 17.0 0
   vertex 39.98307425674543 0.001 0
   vertex 14.237365317074566 0.001 0
  endloop
 endfacet
 facet normal -0.0 0.0 1.0
  outer loop
   vertex 31.47345685412303 16.46 0.36
   vertex 39.44350410208871 0.541 0.36
   vertex 39.45618083101626 16.46 0.36
  endloop
 endfacet
 facet normal 0.0 0.0 1.0
  outer loop
   vertex 31.47345685412303 16.46 0.36
   vertex 15.54177507778575 0.541 0.36
   vertex 39.44350410208871 0.541 0.36
  endloop
 endfacet
 facet normal 0.0 0.2954697229220677 -0.9553521041146853
  outer loop
   vertex 39.99661101879327 17.0 0
   vertex 31.24990746896585 17.0 0
   vertex 30.04522467117442 19.91 0.9000000000000002
  endloop
 endfacet
 facet normal 0.0 0.2954697229220677 -0.9553521041146853
  outer loop
   vertex 39.99892833025625 19.91 0.9000000000000002
   vertex 39.99661101879327 17.0 0
   vertex 30.04522467117442 19.91 0.9000000000000002
  endloop
 endfacet
 facet normal 0.9999996829318346 -0.0007963267107334855 -1.3025927651513866e-15
  outer loop
   vertex 39.98307425674543 0.001 0
   vertex 39.99661101879327 17.0 0
   vertex 39.99892833025625 19.91 0.9000000000000002
  endloop
 endfacet
 facet normal 0.9999996829318347 -0.0007963267107335444 0.0
  outer loop
   vertex 39.98307425674543 0.001 0.9000000000000002
   vertex 39.98307425674543 0.001 0
   vertex 39.99892833025625 19.91 0.9000000000000002
  endloop
 endfacet
 facet normal 0.0 -1.0 0.0
  outer loop
   vertex 14.237365317074566 0.001 0
   vertex 39.98307425674543 0.001 0
   vertex 39.98307425674543 0.001 0.9000000000000002
  endloop
 endfacet
 facet normal 0.0 -1.0 0.0
  outer loop
   vertex 10.120364285151501 0.001 0.9000000000000002
   vertex 14.237365317074566 0.001 0
   vertex 39.98307425674543 0.001 0.9000000000000002
  endloop
 endfacet
 facet normal -0.208845440415543 0.2090118158891538 -0.9553521041146852
  outer loop
   vertex 31.24990746896585 17.0 0
   vertex 14.237365317074566 0.001 0
   vertex 10.120364285151501 0.001 0.9000000000000002
  endloop
 endfacet
 facet normal -0.20884544041554284 0.20901181588915366 -0.9553521041146852
  outer loop
   vertex 30.04522467117442 19.91 0.9000000000000002
   vertex 31.24990746896585 17.0 0
   vertex 10.120364285151501 0.001 0.9000000000000002
  endloop
 endfacet
 facet normal 0.0 -0.18245221637639714 0.9832147215839175
  outer loop
   vertex 39.45618083101626 16.46 0.36
   vertex 30.268774056331594 19.37 0.9000000000000002
   vertex 31.47345685412303 16.46 0.36
  endloop
 endfacet
 facet normal 0.0 -0.18245221637639714 0.9832147215839175
  outer loop
   vertex 39.45849814247924 19.37 0.9000000000000002
   vertex 30.268774056331594 19.37 0.9000000000000002
   vertex 39.45618083101626 16.46 0.36
  endloop
 endfacet
 facet normal -0.9999996829318345 0.000796326710733389 2.6895867687898935e-15
  outer loop
   vertex 39.44350410208871 0.541 0.36
   vertex 39.45849814247924 19.37 0.9000000000000002
   vertex 39.45618083101626 16.46 0.36
  endloop
 endfacet
 facet normal -0.9999996829318347 0.0007963267107334662 0.0
  outer loop
   vertex 39.44350410208871 0.541 0.9000000000000002
   vertex 39.45849814247924 19.37 0.9000000000000002
   vertex 39.44350410208871 0.541 0.36
  endloop
 endfacet
 facet normal 0.0 1.0 0.0
  outer loop
   vertex 15.54177507778575 0.541 0.36
   vertex 39.44350410208871 0.541 0.9000000000000002
   vertex 39.44350410208871 0.541 0.36
  endloop
 endfacet
 facet normal -0.0 1.0 0.0
  outer loop
   vertex 11.424774045862684 0.541 0.9000000000000002
   vertex 39.44350410208871 0.541 0.9000000000000002
   vertex 15.54177507778575 0.541 0.36
  endloop
 endfacet
 facet normal 0.12896182088332228 -0.129064557548219 0.9832147215839173
  outer loop
   vertex 31.47345685412303 16.46 0.36
   vertex 11.424774045862684 0.541 0.9000000000000002
   vertex 15.54177507778575 0.541 0.36
  endloop
 endfacet
 facet normal 0.12896182088332228 -0.12906455754821897 0.9832147215839177
  outer loop
   vertex 30.268774056331594 19.37 0.9000000000000002
   vertex 11.424774045862684 0.541 0.9000000000000002
   vertex 31.47345685412303 16.46 0.36
  endloop
 endfacet
 facet normal 0.0 0.0 1.0
  outer loop
   vertex 39.99892833025625 19.91 0.9000000000000002
   vertex 30.04522467117442 19.91 0.9000000000000002
   vertex 30.268774056331594 19.37 0.9000000000000002
  endloop
 endfacet
 facet normal 0.0 -0.0 1.0
  outer loop
   vertex 39.45849814247924 19.37 0.9000000000000002
   vertex 39.99892833025625 19.91 0.9000000000000002
   vertex 30.268774056331594 19.37 0.9000000000000002
  endloop
 endfacet
 facet normal 0.0 -0.0 1.0
  outer loop
   vertex 39.98307425674543 0.001 0.9000000000000002
   vertex 39.99892833025625 19.91 0.9000000000000002
   vertex 39.45849814247924 19.37 0.9000000000000002
  endloop
 endfacet
 facet normal -0.0 0.0 1.0
  outer loop
   vertex 39.44350410208871 0.541 0.9000000000000002
   vertex 39.98307425674543 0.001 0.9000000000000002
   vertex 39.45849814247924 19.37 0.9000000000000002
  endloop
 endfacet
 facet normal 0.0 0.0 1.0
  outer loop
   vertex 10.120364285151501 0.001 0.9000000000000002
   vertex 39.98307425674543 0.001 0.9000000000000002
   vertex 39.44350410208871 0.541 0.9000000000000002
  endloop
 endfacet
 facet normal -0.0 0.0 1.0
  outer loop
   vertex 11.424774045862684 0.541 0.9000000000000002
   vertex 10.120364285151501 0.001 0.9000000000000002
   vertex 39.44350410208871 0.541 0.9000000000000002
  endloop
 endfacet
 facet normal 0.0 0.0 1.0
  outer loop
   vertex 30.04522467117442 19.91 0.9000000000000002
   vertex 10.120364285151501 0.001 0.9000000000000002
   vertex 11.424774045862684 0.541 0.9000000000000002
  endloop
 endfacet
 facet normal 0.0 0.0 1.0
  outer loop
   vertex 30.268774056331594 19.37 0.9000000000000002
   vertex 30.04522467117442 19.91 0.9000000000000002
   vertex 11.424774045862684 0.541 0.9000000000000002
  endloop
 endfacet
 facet normal 0.0 0.2954697229220677 0.9553521041146853
  outer loop
   vertex 39.99892833025625 19.91 1.4400000000000004
   vertex 30.04522467117442 19.91 1.4400000000000004
   vertex 31.24990746896585 17.0 2.3400000000000007
  endloop
 endfacet
 facet normal 0.0 0.29546972292206775 0.9553521041146853
  outer loop
   vertex 39.99661101879327 17.0 2.3400000000000007
   vertex 39.99892833025625 19.91 1.4400000000000004
   vertex 31.24990746896585 17.0 2.3400000000000007
  endloop
 endfacet
 facet normal 0.9999996829318347 -0.0007963267107335444 1.1121992272242915e-15
  outer loop
   vertex 39.98307425674543 0.001 1.4400000000000004
   vertex 39.99892833025625 19.91 1.4400000000000004
   vertex 39.99661101879327 17.0 2.3400000000000007
  endloop
 endfacet
 facet normal 0.9999996829318346 -0.0007963267107334856 0.0
  outer loop
   vertex 39.98307425674543 0.001 2.3400000000000007
   vertex 39.98307425674543 0.001 1.4400000000000004
   vertex 39.99661101879327 17.0 2.3400000000000007
  endloop
 endfacet
 facet normal 0.0 -1.0 0.0
  outer loop
   vertex 10.120364285151501 0.001 1.4400000000000004
   vertex 39.98307425674543 0.001 1.4400000000000004
   vertex 39.98307425674543 0.001 2.3400000000000007
  endloop
 endfacet
 facet normal 0.0 -1.0 -0.0
  outer loop
   vertex 14.237365317074566 0.001 2.3400000000000007
   vertex 10.120364285151501 0.001 1.4400000000000004
   vertex 39.98307425674543 0.001 2.3400000000000007
  endloop
 endfacet
 facet normal -0.20884544041554273 0.20901181588915357 0.9553521041146854
  outer loop
   vertex 30.04522467117442 19.91 1.4400000000000004
   vertex 10.120364285151501 0.001 1.4400000000000004
   vertex 14.237365317074566 0.001 2.3400000000000007
  endloop
 endfacet
 facet normal -0.20884544041554287 0.20901181588915366 0.9553521041146852
  outer loop
   vertex 31.24990746896585 17.0 2.3400000000000007
   vertex 30.04522467117442 19.91 1.4400000000000004
   vertex 14.237365317074566 0.001 2.3400000000000007
  endloop
 endfacet
 facet normal -0.0 -0.1824522163763972 -0.9832147215839175
  outer loop
   vertex 39.45849814247924 19.37 1.4400000000000004
   vertex 31.47345685412303 16.46 1.9800000000000009
   vertex 30.268774056331594 19.37 1.4400000000000004
  endloop
 endfacet
 facet normal -0.0 -0.1824522163763972 -0.9832147215839175
  outer loop
   vertex 39.45618083101626 16.46 1.9800000000000009
   vertex 31.47345685412303 16.46 1.9800000000000009
   vertex 39.45849814247924 19.37 1.4400000000000004
  endloop
 endfacet
 facet normal -0.9999996829318347 0.0007963267107334663 -2.2739142690725105e-15
  outer loop
   vertex 39.44350410208871 0.541 1.4400000000000004
   vertex 39.45618083101626 16.46 1.9800000000000009
   vertex 39.45849814247924 19.37 1.4400000000000004
  endloop
 endfacet
 facet normal -0.9999996829318347 0.0007963267107333892 0.0
  outer loop
   vertex 39.44350410208871 0.541 1.9800000000000009
   vertex 39.45618083101626 16.46 1.9800000000000009
   vertex 39.44350410208871 0.541 1.4400000000000004
  endloop
 endfacet
 facet normal 0.0 1.0 0.0
  outer loop
   vertex 11.424774045862684 0.541 1.4400000000000004
   vertex 39.44350410208871 0.541 1.9800000000000009
   vertex 39.44350410208871 0.541 1.4400000000000004
  endloop
 endfacet
 facet normal -0.0 1.0 0.0
  outer loop
   vertex 15.54177507778575 0.541 1.9800000000000009
   vertex 39.44350410208871 0.541 1.9800000000000009
   vertex 11.424774045862684 0.541 1.4400000000000004
  endloop
 endfacet
 facet normal 0.12896182088332234 -0.12906455754821902 -0.9832147215839174
  outer loop
   vertex 30.268774056331594 19.37 1.4400000000000004
   vertex 15.54177507778575 0.541 1.9800000000000009
   vertex 11.424774045862684 0.541 1.4400000000000004
  endloop
 endfacet
 facet normal 0.12896182088332228 -0.129064557548219 -0.9832147215839174
  outer loop
   vertex 31.47345685412303 16.46 1.9800000000000009
   vertex 15.54177507778575 0.541 1.9800000000000009
   vertex 30.268774056331594 19.37 1.4400000000000004
  endloop
 endfacet
 facet normal -0.0 0.0 1.0
  outer loop
   vertex 31.24990746896585 17.0 2.3400000000000007
   vertex 39.98307425674543 0.001 2.3400000000000007
   vertex 39.99661101879327 17.0 2.3400000000000007
  endloop
 endfacet
 facet normal 0.0 0.0 1.0
  outer loop
   vertex 31.24990746896585 17.0 2.3400000000000007
   vertex 14.237365317074566 0.001 2.3400000000000007
   vertex 39.98307425674543 0.001 2.3400000000000007
  endloop
 endfacet
 facet normal 0.0 0.0 -1.0
  outer loop
   vertex 31.47345685412303 16.46 1.9800000000000009
   vertex 39.45618083101626 16.46 1.9800000000000009
   vertex 39.44350410208871 0.541 1.9800000000000009
  endloop
 endfacet
 facet normal 0.0 -0.0 -1.0
  outer loop
   vertex 31.47345685412303 16.46 1.9800000000000009
   vertex 39.44350410208871 0.541 1.9800000000000009
   vertex 15.54177507778575 0.541 1.9800000000000009
  endloop
 endfacet
 facet normal -0.0 0.0 -1.0
  outer loop
   vertex 39.99892833025625 19.91 1.4400000000000004
   vertex 30.268774056331594 19.37 1.4400000000000004
   vertex 30.04522467117442 19.91 1.4400000000000004
  endloop
 endfacet
 facet normal 0.0 0.0 -1.0
  outer loop
   vertex 39.45849814247924 19.37 1.4400000000000004
   vertex 30.268774056331594 19.37 1.4400000000000004
   vertex 39.99892833025625 19.91 1.4400000000000004
  endloop
 endfacet
 facet normal 0.0 0.0 -1.0
  outer loop
   vertex 39.98307425674543 0.001 1.4400000000000004
   vertex 39.45849814247924 19.37 1.4400000000000004
   vertex 39.99892833025625 19.91 1.4400000000000004
  endloop
 endfacet
 facet normal 0.0 0.0 -1.0
  outer loop
   vertex 39.44350410208871 0.541 1.4400000000000004
   vertex 39.45849814247924 19.37 1.4400000000000004
   vertex 39.98307425674543 0.001 1.4400000000000004
  endloop
 endfacet
 facet normal 0.0 0.0 -1.0
  outer loop
   vertex 10.120364285151501 0.001 1.4400000000000004
   vertex 39.44350410208871 0.541 1.4400000000000004
   vertex 39.98307425674543 0.001 1.4400000000000004
  endloop
 endfacet
 facet normal 0.0 -0.0 -1.0
  outer loop
   vertex 11.424774045862684 0.541 1.4400000000000004
   vertex 39.44350410208871 0.541 1.4400000000000004
   vertex 10.120364285151501 0.001 1.4400000000000004
  endloop
 endfacet
 facet normal 0.0 0.0 -1.0
  outer loop
   vertex 30.04522467117442 19.91 1.4400000000000004
   vertex 11.424774045862684 0.541 1.4400000000000004
   vertex 10.120364285151501 0.001 1.4400000000000004
  endloop
 endfacet
 facet normal -0.0 0.0 -1.0
  outer loop
   vertex 30.268774056331594 19.37 1.4400000000000004
   vertex 11.424774045862684 0.541 1.4400000000000004
   vertex 30.04522467117442 19.91 1.4400000000000004
  endloop
 endfacet
 facet normal 0.0 0.0 -1.0
  outer loop
   vertex 39.99661101879326 23.0 0
   vertex 31.249907468965848 23.0 0
   vertex 14.23736531707456 39.999 0
  endloop
 endfacet
 facet normal 0.0 0.0 -1.0
  outer loop
   vertex 39.99661101879326 23.0 0
   vertex 14.23736531707456 39.999 0
   vertex 39.983074256745425 39.999 0
  endloop
 endfacet
 facet normal 0.0 0.0 1.0
  outer loop
   vertex 39.456180831016255 23.54 0.36
   vertex 15.541775077785747 39.459 0.36
   vertex 31.47345685412303 23.54 0.36
  endloop
 endfacet
 facet normal 0.0 0.0 1.0
  outer loop
   vertex 39.456180831016255 23.54 0.36
   vertex 39.44350410208871 39.459 0.36
   vertex 15.541775077785747 39.459 0.36
  endloop
 endfacet
 facet normal 0.0 -0.2954697229220677 -0.9553521041146853
  outer loop
   vertex 31.249907468965848 23.0 0
   vertex 39.99661101879326 23.0 0
   vertex 39.99892833025624 20.09 0.9000000000000002
  endloop
 endfacet
 facet normal 0.0 -0.2954697229220677 -0.9553521041146853
  outer loop
   vertex 30.045224671174417 20.09 0.9000000000000002
   vertex 31.249907468965848 23.0 0
   vertex 39.99892833025624 20.09 0.9000000000000002
  endloop
 endfacet
 facet normal -0.20884544041554276 -0.20901181588915357 -0.9553521041146854
  outer loop
   vertex 14.23736531707456 39.999 0
   vertex 31.249907468965848 23.0 0
   vertex 30.045224671174417 20.09 0.9000000000000002
  endloop
 endfacet
 facet normal -0.20884544041554293 -0.2090118158891537 -0.9553521041146852
  outer loop
   vertex 10.120364285151497 39.999 0.9000000000000002
   vertex 14.23736531707456 39.999 0
   vertex 30.045224671174417 20.09 0.9000000000000002
  endloop
 endfacet
 facet normal 0.0 1.0 0.0
  outer loop
   vertex 39.983074256745425 39.999 0
   vertex 14.23736531707456 39.999 0
   vertex 10.120364285151497 39.999 0.9000000000000002
  endloop
 endfacet
 facet normal 0.0 1.0 0.0
  outer loop
   vertex 39.983074256745425 39.999 0.9000000000000002
   vertex 39.983074256745425 39.999 0
   vertex 10.120364285151497 39.999 0.9000000000000002
  endloop
 endfacet
 facet normal 0.9999996829318346 0.0007963267107334854 0.0
  outer loop
   vertex 39.99661101879326 23.0 0
   vertex 39.983074256745425 39.999 0
   vertex 39.983074256745425 39.999 0.9000000000000002
  endloop
 endfacet
 facet normal 0.9999996829318347 0.0007963267107335443 -1.1118119712259542e-15
  outer loop
   vertex 39.99892833025624 20.09 0.9000000000000002
   vertex 39.99661101879326 23.0 0
   vertex 39.983074256745425 39.999 0.9000000000000002
  endloop
 endfacet
 facet normal -0.0 0.18245221637639714 0.9832147215839175
  outer loop
   vertex 31.47345685412303 23.54 0.36
   vertex 39.458498142479236 20.63 0.9000000000000002
   vertex 39.456180831016255 23.54 0.36
  endloop
 endfacet
 facet normal -0.0 0.18245221637639714 0.9832147215839175
  outer loop
   vertex 30.26877405633159 20.63 0.9000000000000002
   vertex 39.458498142479236 20.63 0.9000000000000002
   vertex 31.47345685412303 23.54 0.36
  endloop
 endfacet
 facet normal 0.12896182088332217 0.12906455754821888 0.9832147215839177
  outer loop
   vertex 15.541775077785747 39.459 0.36
   vertex 30.26877405633159 20.63 0.9000000000000002
   vertex 31.47345685412303 23.54 0.36
  endloop
 endfacet
 facet normal 0.12896182088332223 0.1290645575482189 0.9832147215839177
  outer loop
   vertex 11.424774045862677 39.459 0.9000000000000002
   vertex 30.26877405633159 20.63 0.9000000000000002
   vertex 15.541775077785747 39.459 0.36
  endloop
 endfacet
 facet normal 0.0 -1.0 0.0
  outer loop
   vertex 39.44350410208871 39.459 0.36
   vertex 11.424774045862677 39.459 0.9000000000000002
   vertex 15.541775077785747 39.459 0.36
  endloop
 endfacet
 facet normal -0.0 -1.0 -0.0
  outer loop
   vertex 39.44350410208871 39.459 0.9000000000000002
   vertex 11.424774045862677 39.459 0.9000000000000002
   vertex 39.44350410208871 39.459 0.36
  endloop
 endfacet
 facet normal -0.9999996829318347 -0.0007963267107329426 0.0
  outer loop
   vertex 39.456180831016255 23.54 0.36
   vertex 39.44350410208871 39.459 0.9000000000000002
   vertex 39.44350410208871 39.459 0.36
  endloop
 endfacet
 facet normal -0.9999996829318347 -0.0007963267107330887 4.30760710275681e-15
  outer loop
   vertex 39.458498142479236 20.63 0.9000000000000002
   vertex 39.44350410208871 39.459 0.9000000000000002
   vertex 39.456180831016255 23.54 0.36
  endloop
 endfacet
 facet normal 0.0 0.0 1.0
  outer loop
   vertex 30.045224671174417 20.09 0.9000000000000002
   vertex 39.99892833025624 20.09 0.9000000000000002
   vertex 39.458498142479236 20.63 0.9000000000000002
  endloop
 endfacet
 facet normal -0.0 0.0 1.0
  outer loop
   vertex 30.26877405633159 20.63 0.9000000000000002
   vertex 30.045224671174417 20.09 0.9000000000000002
   vertex 39.458498142479236 20.63 0.9000000000000002
  endloop
 endfacet
 facet normal 0.0 0.0 1.0
  outer loop
   vertex 10.120364285151497 39.999 0.9000000000000002
   vertex 30.045224671174417 20.09 0.9000000000000002
   vertex 30.26877405633159 20.63 0.9000000000000002
  endloop
 endfacet
 facet normal 0.0 0.0 1.0
  outer loop
   vertex 11.424774045862677 39.459 0.9000000000000002
   vertex 10.120364285151497 39.999 0.9000000000000002
   vertex 30.26877405633159 20.63 0.9000000000000002
  endloop
 endfacet
 facet normal 0.0 0.0 1.0
  outer loop
   vertex 39.983074256745425 39.999 0.9000000000000002
   vertex 10.120364285151497 39.999 0.9000000000000002
   vertex 11.424774045862677 39.459 0.9000000000000002
  endloop
 endfacet
 facet normal 0.0 -0.0 1.0
  outer loop
   vertex 39.44350410208871 39.459 0.9000000000000002
   vertex 39.983074256745425 39.999 0.9000000000000002
   vertex 11.424774045862677 39.459 0.9000000000000002
  endloop
 endfacet
 facet normal 0.0 0.0 1.0
  outer loop
   vertex 39.99892833025624 20.09 0.9000000000000002
   vertex 39.983074256745425 39.999 0.9000000000000002
   vertex 39.44350410208871 39.459 0.9000000000000002
  endloop
 endfacet
 facet normal -0.0 -0.0 1.0
  outer loop
   vertex 39.458498142479236 20.63 0.9000000000000002
   vertex 39.99892833025624 20.09 0.9000000000000002
   vertex 39.44350410208871 39.459 0.9000000000000002
  endloop
 endfacet
 facet normal 0.0 -0.2954697229220677 0.9553521041146853
  outer loop
   vertex 30.045224671174417 20.09 1.4400000000000004
   vertex 39.99892833025624 20.09 1.4400000000000004
   vertex 39.99661101879326 23.0 2.3400000000000007
  endloop
 endfacet
 facet normal 0.0 -0.2954697229220677 0.9553521041146853
  outer loop
   vertex 31.249907468965848 23.0 2.3400000000000007
   vertex 30.045224671174417 20.09 1.4400000000000004
   vertex 39.99661101879326 23.0 2.3400000000000007
  endloop
 endfacet
 facet normal -0.20884544041554315 -0.20901181588915396 0.9553521041146852
  outer loop
   vertex 10.120364285151497 39.999 1.4400000000000004
   vertex 30.045224671174417 20.09 1.4400000000000004
   vertex 31.249907468965848 23.0 2.3400000000000007
  endloop
 endfacet
 facet normal -0.20884544041554295 -0.20901181588915377 0.9553521041146852
  outer loop
   vertex 14.23736531707456 39.999 2.3400000000000007
   vertex 10.120364285151497 39.999 1.4400000000000004
   vertex 31.249907468965848 23.0 2.3400000000000007
  endloop
 endfacet
 facet normal 0.0 1.0 0.0
  outer loop
   vertex 39.983074256745425 39.999 1.4400000000000004
   vertex 10.120364285151497 39.999 1.4400000000000004
   vertex 14.23736531707456 39.999 2.3400000000000007
  endloop
 endfacet
 facet normal 0.0 1.0 0.0
  outer loop
   vertex 39.983074256745425 39.999 2.3400000000000007
   vertex 39.983074256745425 39.999 1.4400000000000004
   vertex 14.23736531707456 39.999 2.3400000000000007
  endloop
 endfacet
 facet normal 0.9999996829318347 0.0007963267107335442 0.0
  outer loop
   vertex 39.99892833025624 20.09 1.4400000000000004
   vertex 39.983074256745425 39.999 1.4400000000000004
   vertex 39.983074256745425 39.999 2.3400000000000007
  endloop
 endfacet
 facet normal 0.9999996829318346 0.0007963267107334854 1.3021392161384506e-15
  outer loop
   vertex 39.99661101879326 23.0 2.3400000000000007
   vertex 39.99892833025624 20.09 1.4400000000000004
   vertex 39.983074256745425 39.999 2.3400000000000007
  endloop
 endfacet
 facet normal 0.0 0.18245221637639722 -0.9832147215839175
  outer loop
   vertex 30.26877405633159 20.63 1.4400000000000004
   vertex 39.456180831016255 23.54 1.9800000000000009
   vertex 39.458498142479236 20.63 1.4400000000000004
  endloop
 endfacet
 facet normal 0.0 0.18245221637639722 -0.9832147215839175
  outer loop
   vertex 31.47345685412303 23.54 1.9800000000000009
   vertex 39.456180831016255 23.54 1.9800000000000009
   vertex 30.26877405633159 20.63 1.4400000000000004
  endloop
 endfacet
 facet normal 0.1289618208833222 0.12906455754821886 -0.9832147215839174
  outer loop
   vertex 11.424774045862677 39.459 1.4400000000000004
   vertex 31.47345685412303 23.54 1.9800000000000009
   vertex 30.26877405633159 20.63 1.4400000000000004
  endloop
 endfacet
 facet normal 0.12896182088332225 0.12906455754821897 -0.9832147215839177
  outer loop
   vertex 15.541775077785747 39.459 1.9800000000000009
   vertex 31.47345685412303 23.54 1.9800000000000009
   vertex 11.424774045862677 39.459 1.4400000000000004
  endloop
 endfacet
 facet normal 0.0 -1.0 0.0
  outer loop
   vertex 39.44350410208871 39.459 1.4400000000000004
   vertex 15.541775077785747 39.459 1.9800000000000009
   vertex 11.424774045862677 39.459 1.4400000000000004
  endloop
 endfacet
 facet normal -0.0 -1.0 -0.0
  outer loop
   vertex 39.44350410208871 39.459 1.9800000000000009
   vertex 15.541775077785747 39.459 1.9800000000000009
   vertex 39.44350410208871 39.459 1.4400000000000004
  endloop
 endfacet
 facet normal -0.9999996829318347 -0.0007963267107330887 0.0
  outer loop
   vertex 39.458498142479236 20.63 1.4400000000000004
   vertex 39.44350410208871 39.459 1.9800000000000009
   vertex 39.44350410208871 39.459 1.4400000000000004
  endloop
 endfacet
 facet normal -0.9999996829318345 -0.0007963267107329425 -5.095039521189015e-15
  outer loop
   vertex 39.456180831016255 23.54 1.9800000000000009
   vertex 39.44350410208871 39.459 1.9800000000000009
   vertex 39.458498142479236 20.63 1.4400000000000004
  endloop
 endfacet
 facet normal 0.0 0.0 1.0
  outer loop
   vertex 39.99661101879326 23.0 2.3400000000000007
   vertex 14.23736531707456 39.999 2.3400000000000007
   vertex 31.249907468965848 23.0 2.3400000000000007
  endloop
 endfacet
 facet normal 0.0 0.0 1.0
  outer loop
   vertex 39.99661101879326 23.0 2.3400000000000007
   vertex 39.983074256745425 39.999 2.3400000000000007
   vertex 14.23736531707456 39.999 2.3400000000000007
  endloop
 endfacet
 facet normal 0.0 0.0 -1.0
  outer loop
   vertex 39.456180831016255 23.54 1.9800000000000009
   vertex 31.47345685412303 23.54 1.9800000000000009
   vertex 15.541775077785747 39.459 1.9800000000000009
  endloop
 endfacet
 facet normal 0.0 0.0 -1.0
  outer loop
   vertex 39.456180831016255 23.54 1.9800000000000009
   vertex 15.541775077785747 39.459 1.9800000000000009
   vertex 39.44350410208871 39.459 1.9800000000000009
  endloop
 endfacet
 facet normal 0.0 0.0 -1.0
  outer loop
   vertex 30.045224671174417 20.09 1.4400000000000004
   vertex 39.458498142479236 20.63 1.4400000000000004
   vertex 39.99892833025624 20.09 1.4400000000000004
  endloop
 endfacet
 facet normal 0.0 -0.0 -1.0
  outer loop
   vertex 30.26877405633159 20.63 1.4400000000000004
   vertex 39.458498142479236 20.63 1.4400000000000004
   vertex 30.045224671174417 20.09 1.4400000000000004
  endloop
 endfacet
 facet normal 0.0 0.0 -1.0
  outer loop
   vertex 10.120364285151497 39.999 1.4400000000000004
   vertex 30.26877405633159 20.63 1.4400000000000004
   vertex 30.045224671174417 20.09 1.4400000000000004
  endloop
 endfacet
 facet normal -0.0 -0.0 -1.0
  outer loop
   vertex 11.424774045862677 39.459 1.4400000000000004
   vertex 30.26877405633159 20.63 1.4400000000000004
   vertex 10.120364285151497 39.999 1.4400000000000004
  endloop
 endfacet
 facet normal -0.0 0.0 -1.0
  outer loop
   vertex 39.983074256745425 39.999 1.4400000000000004
   vertex 11.424774045862677 39.459 1.4400000000000004
   vertex 10.120364285151497 39.999 1.4400000000000004
  endloop
 endfacet
 facet normal 0.0 0.0 -1.0
  outer loop
   vertex 39.44350410208871 39.459 1.4400000000000004
   vertex 11.424774045862677 39.459 1.4400000000000004
   vertex 39.983074256745425 39.999 1.4400000000000004
  endloop
 endfacet
 facet normal 0.0 0.0 -1.0
  outer loop
   vertex 39.99892833025624 20.09 1.4400000000000004
   vertex 39.44350410208871 39.459 1.4400000000000004
   vertex 39.983074256745425 39.999 1.4400000000000004
  endloop
 endfacet
 facet normal 0.0 0.0 -1.0
  outer loop
   vertex 39.458498142479236 20.63 1.4400000000000004
   vertex 39.44350410208871 39.459 1.4400000000000004
   vertex 39.99892833025624 20.09 1.4400000000000004
  endloop
 endfacet
endsolid
