solid PyGamic generated __All_Crease__ SLA File
 facet normal 0.0 0.0 -1.0
  outer loop
   vertex 25.94980274032455 18.32 0
   vertex -0.000337828981146697 18.32 0
   vertex 12.987707525956356 19.99832 0
  endloop
 endfacet
 facet normal 0.0 0.0 -1.0
  outer loop
   vertex -0.000337828981146697 18.32 0
   vertex 12.961757385387047 19.99832 0
   vertex 12.987707525956356 19.99832 0
  endloop
 endfacet
 facet normal 0.0 0.0 -1.0
  outer loop
   vertex -0.000337828981146697 18.32 0
   vertex -0.000337828981146697 21.68 0
   vertex 12.961757385387047 19.99832 0
  endloop
 endfacet
 facet normal 0.0 0.0 -1.0
  outer loop
   vertex -0.000337828981146697 21.68 0
   vertex 12.961757385387047 20.00168 0
   vertex 12.961757385387047 19.99832 0
  endloop
 endfacet
 facet normal 0.0 0.0 -1.0
  outer loop
   vertex -0.000337828981146697 21.68 0
   vertex 25.94980274032455 21.68 0
   vertex 12.961757385387047 20.00168 0
  endloop
 endfacet
 facet normal 0.0 0.0 -1.0
  outer loop
   vertex 25.94980274032455 21.68 0
   vertex 12.987707525956356 20.00168 0
   vertex 12.961757385387047 20.00168 0
  endloop
 endfacet
 facet normal 0.0 -0.0 -1.0
  outer loop
   vertex 25.94980274032455 21.68 0
   vertex 25.94980274032455 18.32 0
   vertex 12.987707525956356 20.00168 0
  endloop
 endfacet
 facet normal 0.0 0.0 -1.0
  outer loop
   vertex 25.94980274032455 18.32 0
   vertex 12.987707525956356 19.99832 0
   vertex 12.987707525956356 20.00168 0
  endloop
 endfacet
 facet normal 0.0 -1.0 0.0
  outer loop
   vertex -0.000337828981146697 18.32 0
   vertex 25.94980274032455 18.32 0
   vertex 25.94980274032455 18.32 0.36
  endloop
 endfacet
 facet normal 0.0 -1.0 0.0
  outer loop
   vertex -0.000337828981146697 18.32 0.36
   vertex -0.000337828981146697 18.32 0
   vertex 25.94980274032455 18.32 0.36
  endloop
 endfacet
 facet normal -1.0 0.0 0.0
  outer loop
   vertex -0.000337828981146697 21.68 0
   vertex -0.000337828981146697 18.32 0
   vertex -0.000337828981146697 18.32 0.36
  endloop
 endfacet
 facet normal -1.0 -0.0 -0.0
  outer loop
   vertex -0.000337828981146697 21.68 0.36
   vertex -0.000337828981146697 21.68 0
   vertex -0.000337828981146697 18.32 0.36
  endloop
 endfacet
 facet normal 0.0 1.0 0.0
  outer loop
   vertex 25.94980274032455 21.68 0
   vertex -0.000337828981146697 21.68 0
   vertex -0.000337828981146697 21.68 0.36
  endloop
 endfacet
 facet normal 0.0 1.0 0.0
  outer loop
   vertex 25.94980274032455 21.68 0.36
   vertex 25.94980274032455 21.68 0
   vertex -0.000337828981146697 21.68 0.36
  endloop
 endfacet
 facet normal 1.0 0.0 0.0
  outer loop
   vertex 25.94980274032455 18.32 0
   vertex 25.94980274032455 21.68 0
   vertex 25.94980274032455 21.68 0.36
  endloop
 endfacet
 facet normal 1.0 -0.0 0.0
  outer loop
   vertex 25.94980274032455 18.32 0.36
   vertex 25.94980274032455 18.32 0
   vertex 25.94980274032455 21.68 0.36
  endloop
 endfacet
 facet normal 0.0 1.0 -0.0
  outer loop
   vertex 12.987707525956356 19.99832 0
   vertex 12.961757385387047 19.99832 0
   vertex 12.987707525956356 19.99832 0.36
  endloop
 endfacet
 facet normal 0.0 1.0 0.0
  outer loop
   vertex 12.961757385387047 19.99832 0
   vertex 12.961757385387047 19.99832 0.36
   vertex 12.987707525956356 19.99832 0.36
  endloop
 endfacet
 facet normal 1.0 0.0 0.0
  outer loop
   vertex 12.961757385387047 19.99832 0
   vertex 12.961757385387047 20.00168 0
   vertex 12.961757385387047 19.99832 0.36
  endloop
 endfacet
 facet normal 1.0 0.0 -0.0
  outer loop
   vertex 12.961757385387047 20.00168 0
   vertex 12.961757385387047 20.00168 0.36
   vertex 12.961757385387047 19.99832 0.36
  endloop
 endfacet
 facet normal 0.0 -1.0 0.0
  outer loop
   vertex 12.961757385387047 20.00168 0
   vertex 12.987707525956356 20.00168 0
   vertex 12.961757385387047 20.00168 0.36
  endloop
 endfacet
 facet normal 0.0 -1.0 0.0
  outer loop
   vertex 12.987707525956356 20.00168 0
   vertex 12.987707525956356 20.00168 0.36
   vertex 12.961757385387047 20.00168 0.36
  endloop
 endfacet
 facet normal -1.0 0.0 0.0
  outer loop
   vertex 12.987707525956356 20.00168 0
   vertex 12.987707525956356 19.99832 0
   vertex 12.987707525956356 20.00168 0.36
  endloop
 endfacet
 facet normal -1.0 0.0 0.0
  outer loop
   vertex 12.987707525956356 19.99832 0
   vertex 12.987707525956356 19.99832 0.36
   vertex 12.987707525956356 20.00168 0.36
  endloop
 endfacet
 facet normal 0.0 0.0 1.0
  outer loop
   vertex -0.000337828981146697 18.32 0.36
   vertex 25.94980274032455 18.32 0.36
   vertex 12.987707525956356 19.99832 0.36
  endloop
 endfacet
 facet normal -0.0 0.0 1.0
  outer loop
   vertex 12.961757385387047 19.99832 0.36
   vertex -0.000337828981146697 18.32 0.36
   vertex 12.987707525956356 19.99832 0.36
  endloop
 endfacet
 facet normal 0.0 0.0 1.0
  outer loop
   vertex -0.000337828981146697 21.68 0.36
   vertex -0.000337828981146697 18.32 0.36
   vertex 12.961757385387047 19.99832 0.36
  endloop
 endfacet
 facet normal 0.0 0.0 1.0
  outer loop
   vertex 12.961757385387047 20.00168 0.36
   vertex -0.000337828981146697 21.68 0.36
   vertex 12.961757385387047 19.99832 0.36
  endloop
 endfacet
 facet normal 0.0 0.0 1.0
  outer loop
   vertex 25.94980274032455 21.68 0.36
   vertex -0.000337828981146697 21.68 0.36
   vertex 12.961757385387047 20.00168 0.36
  endloop
 endfacet
 facet normal 0.0 -0.0 1.0
  outer loop
   vertex 12.987707525956356 20.00168 0.36
   vertex 25.94980274032455 21.68 0.36
   vertex 12.961757385387047 20.00168 0.36
  endloop
 endfacet
 facet normal 0.0 -0.0 1.0
  outer loop
   vertex 25.94980274032455 18.32 0.36
   vertex 25.94980274032455 21.68 0.36
   vertex 12.987707525956356 20.00168 0.36
  endloop
 endfacet
 facet normal -0.0 0.0 1.0
  outer loop
   vertex 12.987707525956356 19.99832 0.36
   vertex 25.94980274032455 18.32 0.36
   vertex 12.987707525956356 20.00168 0.36
  endloop
 endfacet
 facet normal 0.0 0.0 -1.0
  outer loop
   vertex 7.616209018311699 0.001 0
   vertex 25.94980274032455 18.32 0
   vertex 19.14828759513654 9.151340499999998 0
  endloop
 endfacet
 facet normal 0.0 0.0 -1.0
  outer loop
   vertex 25.94980274032455 18.32 0
   vertex 19.166621188858553 9.169659500000002 0
   vertex 19.14828759513654 9.151340499999998 0
  endloop
 endfacet
 facet normal 0.0 -0.0 -1.0
  outer loop
   vertex 25.94980274032455 18.32 0
   vertex 30.70345341635943 18.32 0
   vertex 19.166621188858553 9.169659500000002 0
  endloop
 endfacet
 facet normal 0.0 0.0 -1.0
  outer loop
   vertex 30.70345341635943 18.32 0
   vertex 19.17137483953459 9.169659500000002 0
   vertex 19.166621188858553 9.169659500000002 0
  endloop
 endfacet
 facet normal 0.0 0.0 -1.0
  outer loop
   vertex 30.70345341635943 18.32 0
   vertex 12.369859694346578 0.001 0
   vertex 19.17137483953459 9.169659500000002 0
  endloop
 endfacet
 facet normal 0.0 0.0 -1.0
  outer loop
   vertex 12.369859694346578 0.001 0
   vertex 19.153041245812574 9.151340499999998 0
   vertex 19.17137483953459 9.169659500000002 0
  endloop
 endfacet
 facet normal 0.0 0.0 -1.0
  outer loop
   vertex 12.369859694346578 0.001 0
   vertex 7.616209018311699 0.001 0
   vertex 19.153041245812574 9.151340499999998 0
  endloop
 endfacet
 facet normal 0.0 0.0 -1.0
  outer loop
   vertex 7.616209018311699 0.001 0
   vertex 19.14828759513654 9.151340499999998 0
   vertex 19.153041245812574 9.151340499999998 0
  endloop
 endfacet
 facet normal -0.706825181105366 0.7073882691671998 0.0
  outer loop
   vertex 25.94980274032455 18.32 0
   vertex 7.616209018311699 0.001 0
   vertex 7.616209018311699 0.001 0.36
  endloop
 endfacet
 facet normal -0.706825181105366 0.7073882691671998 0.0
  outer loop
   vertex 25.94980274032455 18.32 0.36
   vertex 25.94980274032455 18.32 0
   vertex 7.616209018311699 0.001 0.36
  endloop
 endfacet
 facet normal 0.0 1.0 0.0
  outer loop
   vertex 30.70345341635943 18.32 0
   vertex 25.94980274032455 18.32 0
   vertex 25.94980274032455 18.32 0.36
  endloop
 endfacet
 facet normal 0.0 1.0 0.0
  outer loop
   vertex 30.70345341635943 18.32 0.36
   vertex 30.70345341635943 18.32 0
   vertex 25.94980274032455 18.32 0.36
  endloop
 endfacet
 facet normal 0.706825181105366 -0.7073882691671998 0.0
  outer loop
   vertex 12.369859694346578 0.001 0
   vertex 30.70345341635943 18.32 0
   vertex 30.70345341635943 18.32 0.36
  endloop
 endfacet
 facet normal 0.706825181105366 -0.7073882691671998 0.0
  outer loop
   vertex 12.369859694346578 0.001 0.36
   vertex 12.369859694346578 0.001 0
   vertex 30.70345341635943 18.32 0.36
  endloop
 endfacet
 facet normal 0.0 -1.0 0.0
  outer loop
   vertex 7.616209018311699 0.001 0
   vertex 12.369859694346578 0.001 0
   vertex 12.369859694346578 0.001 0.36
  endloop
 endfacet
 facet normal 0.0 -1.0 0.0
  outer loop
   vertex 7.616209018311699 0.001 0.36
   vertex 7.616209018311699 0.001 0
   vertex 12.369859694346578 0.001 0.36
  endloop
 endfacet
 facet normal 0.7068251811054475 -0.7073882691671183 0.0
  outer loop
   vertex 19.14828759513654 9.151340499999998 0
   vertex 19.166621188858553 9.169659500000002 0
   vertex 19.14828759513654 9.151340499999998 0.36
  endloop
 endfacet
 facet normal 0.7068251811054475 -0.7073882691671183 0.0
  outer loop
   vertex 19.166621188858553 9.169659500000002 0
   vertex 19.166621188858553 9.169659500000002 0.36
   vertex 19.14828759513654 9.151340499999998 0.36
  endloop
 endfacet
 facet normal 0.0 -1.0 0.0
  outer loop
   vertex 19.166621188858553 9.169659500000002 0
   vertex 19.17137483953459 9.169659500000002 0
   vertex 19.166621188858553 9.169659500000002 0.36
  endloop
 endfacet
 facet normal 0.0 -1.0 0.0
  outer loop
   vertex 19.17137483953459 9.169659500000002 0
   vertex 19.17137483953459 9.169659500000002 0.36
   vertex 19.166621188858553 9.169659500000002 0.36
  endloop
 endfacet
 facet normal -0.7068251811053788 0.7073882691671868 0.0
  outer loop
   vertex 19.17137483953459 9.169659500000002 0
   vertex 19.153041245812574 9.151340499999998 0
   vertex 19.17137483953459 9.169659500000002 0.36
  endloop
 endfacet
 facet normal -0.7068251811053788 0.7073882691671868 0.0
  outer loop
   vertex 19.153041245812574 9.151340499999998 0
   vertex 19.153041245812574 9.151340499999998 0.36
   vertex 19.17137483953459 9.169659500000002 0.36
  endloop
 endfacet
 facet normal 0.0 1.0 -0.0
  outer loop
   vertex 19.153041245812574 9.151340499999998 0
   vertex 19.14828759513654 9.151340499999998 0
   vertex 19.153041245812574 9.151340499999998 0.36
  endloop
 endfacet
 facet normal 0.0 1.0 0.0
  outer loop
   vertex 19.14828759513654 9.151340499999998 0
   vertex 19.14828759513654 9.151340499999998 0.36
   vertex 19.153041245812574 9.151340499999998 0.36
  endloop
 endfacet
 facet normal 0.0 0.0 1.0
  outer loop
   vertex 25.94980274032455 18.32 0.36
   vertex 7.616209018311699 0.001 0.36
   vertex 19.14828759513654 9.151340499999998 0.36
  endloop
 endfacet
 facet normal 0.0 -0.0 1.0
  outer loop
   vertex 19.166621188858553 9.169659500000002 0.36
   vertex 25.94980274032455 18.32 0.36
   vertex 19.14828759513654 9.151340499999998 0.36
  endloop
 endfacet
 facet normal 0.0 0.0 1.0
  outer loop
   vertex 30.70345341635943 18.32 0.36
   vertex 25.94980274032455 18.32 0.36
   vertex 19.166621188858553 9.169659500000002 0.36
  endloop
 endfacet
 facet normal 0.0 -0.0 1.0
  outer loop
   vertex 19.17137483953459 9.169659500000002 0.36
   vertex 30.70345341635943 18.32 0.36
   vertex 19.166621188858553 9.169659500000002 0.36
  endloop
 endfacet
 facet normal 0.0 0.0 1.0
  outer loop
   vertex 12.369859694346578 0.001 0.36
   vertex 30.70345341635943 18.32 0.36
   vertex 19.17137483953459 9.169659500000002 0.36
  endloop
 endfacet
 facet normal -0.0 0.0 1.0
  outer loop
   vertex 19.153041245812574 9.151340499999998 0.36
   vertex 12.369859694346578 0.001 0.36
   vertex 19.17137483953459 9.169659500000002 0.36
  endloop
 endfacet
 facet normal 0.0 0.0 1.0
  outer loop
   vertex 7.616209018311699 0.001 0.36
   vertex 12.369859694346578 0.001 0.36
   vertex 19.153041245812574 9.151340499999998 0.36
  endloop
 endfacet
 facet normal -0.0 0.0 1.0
  outer loop
   vertex 19.14828759513654 9.151340499999998 0.36
   vertex 7.616209018311699 0.001 0.36
   vertex 19.153041245812574 9.151340499999998 0.36
  endloop
 endfacet
 facet normal 0.0 0.0 -1.0
  outer loop
   vertex 25.94980274032455 21.68 0
   vertex 7.616209018311697 39.999 0
   vertex 19.16662118885855 30.8303405 0
  endloop
 endfacet
 facet normal 0.0 0.0 -1.0
  outer loop
   vertex 7.616209018311697 39.999 0
   vertex 19.148287595136537 30.848659500000004 0
   vertex 19.16662118885855 30.8303405 0
  endloop
 endfacet
 facet normal 0.0 0.0 -1.0
  outer loop
   vertex 7.616209018311697 39.999 0
   vertex 12.369859694346573 39.999 0
   vertex 19.148287595136537 30.848659500000004 0
  endloop
 endfacet
 facet normal 0.0 0.0 -1.0
  outer loop
   vertex 12.369859694346573 39.999 0
   vertex 19.153041245812574 30.848659500000004 0
   vertex 19.148287595136537 30.848659500000004 0
  endloop
 endfacet
 facet normal 0.0 0.0 -1.0
  outer loop
   vertex 12.369859694346573 39.999 0
   vertex 30.703453416359427 21.68 0
   vertex 19.153041245812574 30.848659500000004 0
  endloop
 endfacet
 facet normal 0.0 0.0 -1.0
  outer loop
   vertex 30.703453416359427 21.68 0
   vertex 19.171374839534586 30.8303405 0
   vertex 19.153041245812574 30.848659500000004 0
  endloop
 endfacet
 facet normal 0.0 0.0 -1.0
  outer loop
   vertex 30.703453416359427 21.68 0
   vertex 25.94980274032455 21.68 0
   vertex 19.171374839534586 30.8303405 0
  endloop
 endfacet
 facet normal 0.0 0.0 -1.0
  outer loop
   vertex 25.94980274032455 21.68 0
   vertex 19.16662118885855 30.8303405 0
   vertex 19.171374839534586 30.8303405 0
  endloop
 endfacet
 facet normal -0.706825181105366 -0.7073882691671998 0.0
  outer loop
   vertex 7.616209018311697 39.999 0
   vertex 25.94980274032455 21.68 0
   vertex 25.94980274032455 21.68 0.36
  endloop
 endfacet
 facet normal -0.706825181105366 -0.7073882691671998 -0.0
  outer loop
   vertex 7.616209018311697 39.999 0.36
   vertex 7.616209018311697 39.999 0
   vertex 25.94980274032455 21.68 0.36
  endloop
 endfacet
 facet normal 0.0 1.0 0.0
  outer loop
   vertex 12.369859694346573 39.999 0
   vertex 7.616209018311697 39.999 0
   vertex 7.616209018311697 39.999 0.36
  endloop
 endfacet
 facet normal 0.0 1.0 0.0
  outer loop
   vertex 12.369859694346573 39.999 0.36
   vertex 12.369859694346573 39.999 0
   vertex 7.616209018311697 39.999 0.36
  endloop
 endfacet
 facet normal 0.706825181105366 0.7073882691671998 0.0
  outer loop
   vertex 30.703453416359427 21.68 0
   vertex 12.369859694346573 39.999 0
   vertex 12.369859694346573 39.999 0.36
  endloop
 endfacet
 facet normal 0.706825181105366 0.7073882691671998 0.0
  outer loop
   vertex 30.703453416359427 21.68 0.36
   vertex 30.703453416359427 21.68 0
   vertex 12.369859694346573 39.999 0.36
  endloop
 endfacet
 facet normal 0.0 -1.0 0.0
  outer loop
   vertex 25.94980274032455 21.68 0
   vertex 30.703453416359427 21.68 0
   vertex 30.703453416359427 21.68 0.36
  endloop
 endfacet
 facet normal 0.0 -1.0 0.0
  outer loop
   vertex 25.94980274032455 21.68 0.36
   vertex 25.94980274032455 21.68 0
   vertex 30.703453416359427 21.68 0.36
  endloop
 endfacet
 facet normal 0.7068251811054818 0.707388269167084 -0.0
  outer loop
   vertex 19.16662118885855 30.8303405 0
   vertex 19.148287595136537 30.848659500000004 0
   vertex 19.16662118885855 30.8303405 0.36
  endloop
 endfacet
 facet normal 0.7068251811054818 0.707388269167084 -0.0
  outer loop
   vertex 19.148287595136537 30.848659500000004 0
   vertex 19.148287595136537 30.848659500000004 0.36
   vertex 19.16662118885855 30.8303405 0.36
  endloop
 endfacet
 facet normal 0.0 -1.0 0.0
  outer loop
   vertex 19.148287595136537 30.848659500000004 0
   vertex 19.153041245812574 30.848659500000004 0
   vertex 19.148287595136537 30.848659500000004 0.36
  endloop
 endfacet
 facet normal 0.0 -1.0 0.0
  outer loop
   vertex 19.153041245812574 30.848659500000004 0
   vertex 19.153041245812574 30.848659500000004 0.36
   vertex 19.148287595136537 30.848659500000004 0.36
  endloop
 endfacet
 facet normal -0.7068251811054818 -0.707388269167084 0.0
  outer loop
   vertex 19.153041245812574 30.848659500000004 0
   vertex 19.171374839534586 30.8303405 0
   vertex 19.153041245812574 30.848659500000004 0.36
  endloop
 endfacet
 facet normal -0.7068251811054818 -0.707388269167084 0.0
  outer loop
   vertex 19.171374839534586 30.8303405 0
   vertex 19.171374839534586 30.8303405 0.36
   vertex 19.153041245812574 30.848659500000004 0.36
  endloop
 endfacet
 facet normal 0.0 1.0 -0.0
  outer loop
   vertex 19.171374839534586 30.8303405 0
   vertex 19.16662118885855 30.8303405 0
   vertex 19.171374839534586 30.8303405 0.36
  endloop
 endfacet
 facet normal 0.0 1.0 0.0
  outer loop
   vertex 19.16662118885855 30.8303405 0
   vertex 19.16662118885855 30.8303405 0.36
   vertex 19.171374839534586 30.8303405 0.36
  endloop
 endfacet
 facet normal 0.0 0.0 1.0
  outer loop
   vertex 7.616209018311697 39.999 0.36
   vertex 25.94980274032455 21.68 0.36
   vertex 19.16662118885855 30.8303405 0.36
  endloop
 endfacet
 facet normal 0.0 0.0 1.0
  outer loop
   vertex 19.148287595136537 30.848659500000004 0.36
   vertex 7.616209018311697 39.999 0.36
   vertex 19.16662118885855 30.8303405 0.36
  endloop
 endfacet
 facet normal 0.0 0.0 1.0
  outer loop
   vertex 12.369859694346573 39.999 0.36
   vertex 7.616209018311697 39.999 0.36
   vertex 19.148287595136537 30.848659500000004 0.36
  endloop
 endfacet
 facet normal 0.0 0.0 1.0
  outer loop
   vertex 19.153041245812574 30.848659500000004 0.36
   vertex 12.369859694346573 39.999 0.36
   vertex 19.148287595136537 30.848659500000004 0.36
  endloop
 endfacet
 facet normal 0.0 0.0 1.0
  outer loop
   vertex 30.703453416359427 21.68 0.36
   vertex 12.369859694346573 39.999 0.36
   vertex 19.153041245812574 30.848659500000004 0.36
  endloop
 endfacet
 facet normal -0.0 -0.0 1.0
  outer loop
   vertex 19.171374839534586 30.8303405 0.36
   vertex 30.703453416359427 21.68 0.36
   vertex 19.153041245812574 30.848659500000004 0.36
  endloop
 endfacet
 facet normal 0.0 -0.0 1.0
  outer loop
   vertex 25.94980274032455 21.68 0.36
   vertex 30.703453416359427 21.68 0.36
   vertex 19.171374839534586 30.8303405 0.36
  endloop
 endfacet
 facet normal -0.0 0.0 1.0
  outer loop
   vertex 19.16662118885855 30.8303405 0.36
   vertex 25.94980274032455 21.68 0.36
   vertex 19.171374839534586 30.8303405 0.36
  endloop
 endfacet
 facet normal 0.0 0.0 -1.0
  outer loop
   vertex 39.99766217038472 18.32 0
   vertex 30.70345341635943 18.32 0
   vertex 35.35520489774908 19.99832 0
  endloop
 endfacet
 facet normal 0.0 0.0 -1.0
  outer loop
   vertex 30.70345341635943 18.32 0
   vertex 35.34591068899506 19.99832 0
   vertex 35.35520489774908 19.99832 0
  endloop
 endfacet
 facet normal 0.0 0.0 -1.0
  outer loop
   vertex 30.70345341635943 18.32 0
   vertex 30.703453416359427 21.68 0
   vertex 35.34591068899506 19.99832 0
  endloop
 endfacet
 facet normal 0.0 0.0 -1.0
  outer loop
   vertex 30.703453416359427 21.68 0
   vertex 35.34591068899506 20.00168 0
   vertex 35.34591068899506 19.99832 0
  endloop
 endfacet
 facet normal 0.0 0.0 -1.0
  outer loop
   vertex 30.703453416359427 21.68 0
   vertex 39.997662170384714 21.68 0
   vertex 35.34591068899506 20.00168 0
  endloop
 endfacet
 facet normal 0.0 0.0 -1.0
  outer loop
   vertex 39.997662170384714 21.68 0
   vertex 35.35520489774909 20.00168 0
   vertex 35.34591068899506 20.00168 0
  endloop
 endfacet
 facet normal 0.0 -0.0 -1.0
  outer loop
   vertex 39.997662170384714 21.68 0
   vertex 39.99766217038472 18.32 0
   vertex 35.35520489774909 20.00168 0
  endloop
 endfacet
 facet normal 0.0 0.0 -1.0
  outer loop
   vertex 39.99766217038472 18.32 0
   vertex 35.35520489774908 19.99832 0
   vertex 35.35520489774909 20.00168 0
  endloop
 endfacet
 facet normal 0.0 -1.0 0.0
  outer loop
   vertex 30.70345341635943 18.32 0
   vertex 39.99766217038472 18.32 0
   vertex 39.99766217038472 18.32 0.36
  endloop
 endfacet
 facet normal 0.0 -1.0 0.0
  outer loop
   vertex 30.70345341635943 18.32 0.36
   vertex 30.70345341635943 18.32 0
   vertex 39.99766217038472 18.32 0.36
  endloop
 endfacet
 facet normal -1.0 -1.0573552615477683e-15 0.0
  outer loop
   vertex 30.703453416359427 21.68 0
   vertex 30.70345341635943 18.32 0
   vertex 30.70345341635943 18.32 0.36
  endloop
 endfacet
 facet normal -1.0 -1.0573552615477683e-15 -0.0
  outer loop
   vertex 30.703453416359427 21.68 0.36
   vertex 30.703453416359427 21.68 0
   vertex 30.70345341635943 18.32 0.36
  endloop
 endfacet
 facet normal 0.0 1.0 0.0
  outer loop
   vertex 39.997662170384714 21.68 0
   vertex 30.703453416359427 21.68 0
   vertex 30.703453416359427 21.68 0.36
  endloop
 endfacet
 facet normal 0.0 1.0 0.0
  outer loop
   vertex 39.997662170384714 21.68 0.36
   vertex 39.997662170384714 21.68 0
   vertex 30.703453416359427 21.68 0.36
  endloop
 endfacet
 facet normal 1.0 2.1147105230955366e-15 0.0
  outer loop
   vertex 39.99766217038472 18.32 0
   vertex 39.997662170384714 21.68 0
   vertex 39.997662170384714 21.68 0.36
  endloop
 endfacet
 facet normal 1.0 2.1147105230955366e-15 0.0
  outer loop
   vertex 39.99766217038472 18.32 0.36
   vertex 39.99766217038472 18.32 0
   vertex 39.997662170384714 21.68 0.36
  endloop
 endfacet
 facet normal 0.0 1.0 -0.0
  outer loop
   vertex 35.35520489774908 19.99832 0
   vertex 35.34591068899506 19.99832 0
   vertex 35.35520489774908 19.99832 0.36
  endloop
 endfacet
 facet normal 0.0 1.0 0.0
  outer loop
   vertex 35.34591068899506 19.99832 0
   vertex 35.34591068899506 19.99832 0.36
   vertex 35.35520489774908 19.99832 0.36
  endloop
 endfacet
 facet normal 1.0 0.0 0.0
  outer loop
   vertex 35.34591068899506 19.99832 0
   vertex 35.34591068899506 20.00168 0
   vertex 35.34591068899506 19.99832 0.36
  endloop
 endfacet
 facet normal 1.0 0.0 -0.0
  outer loop
   vertex 35.34591068899506 20.00168 0
   vertex 35.34591068899506 20.00168 0.36
   vertex 35.34591068899506 19.99832 0.36
  endloop
 endfacet
 facet normal 0.0 -1.0 0.0
  outer loop
   vertex 35.34591068899506 20.00168 0
   vertex 35.35520489774909 20.00168 0
   vertex 35.34591068899506 20.00168 0.36
  endloop
 endfacet
 facet normal 0.0 -1.0 0.0
  outer loop
   vertex 35.35520489774909 20.00168 0
   vertex 35.35520489774909 20.00168 0.36
   vertex 35.34591068899506 20.00168 0.36
  endloop
 endfacet
 facet normal -1.0 2.1147105230950987e-12 0.0
  outer loop
   vertex 35.35520489774909 20.00168 0
   vertex 35.35520489774908 19.99832 0
   vertex 35.35520489774909 20.00168 0.36
  endloop
 endfacet
 facet normal -1.0 2.1147105230950987e-12 0.0
  outer loop
   vertex 35.35520489774908 19.99832 0
   vertex 35.35520489774908 19.99832 0.36
   vertex 35.35520489774909 20.00168 0.36
  endloop
 endfacet
 facet normal 0.0 0.0 1.0
  outer loop
   vertex 30.70345341635943 18.32 0.36
   vertex 39.99766217038472 18.32 0.36
   vertex 35.35520489774908 19.99832 0.36
  endloop
 endfacet
 facet normal -0.0 0.0 1.0
  outer loop
   vertex 35.34591068899506 19.99832 0.36
   vertex 30.70345341635943 18.32 0.36
   vertex 35.35520489774908 19.99832 0.36
  endloop
 endfacet
 facet normal 0.0 0.0 1.0
  outer loop
   vertex 30.703453416359427 21.68 0.36
   vertex 30.70345341635943 18.32 0.36
   vertex 35.34591068899506 19.99832 0.36
  endloop
 endfacet
 facet normal 0.0 0.0 1.0
  outer loop
   vertex 35.34591068899506 20.00168 0.36
   vertex 30.703453416359427 21.68 0.36
   vertex 35.34591068899506 19.99832 0.36
  endloop
 endfacet
 facet normal 0.0 0.0 1.0
  outer loop
   vertex 39.997662170384714 21.68 0.36
   vertex 30.703453416359427 21.68 0.36
   vertex 35.34591068899506 20.00168 0.36
  endloop
 endfacet
 facet normal 0.0 -0.0 1.0
  outer loop
   vertex 35.35520489774909 20.00168 0.36
   vertex 39.997662170384714 21.68 0.36
   vertex 35.34591068899506 20.00168 0.36
  endloop
 endfacet
 facet normal 0.0 0.0 1.0
  outer loop
   vertex 39.99766217038472 18.32 0.36
   vertex 39.997662170384714 21.68 0.36
   vertex 35.35520489774909 20.00168 0.36
  endloop
 endfacet
 facet normal -0.0 0.0 1.0
  outer loop
   vertex 35.35520489774908 19.99832 0.36
   vertex 39.99766217038472 18.32 0.36
   vertex 35.35520489774909 20.00168 0.36
  endloop
 endfacet
endsolid
