solid PyGamic generated __All_Crease__ SLA File
 facet normal 0.0 0.0 -1.0
  outer loop
   vertex 50.497485307600435 14.070000000000004 0
   vertex -0.0003378289811466956 14.070000000000004 0
   vertex 25.27382265087793 15.748320000000003 0
  endloop
 endfacet
 facet normal 0.0 0.0 -1.0
  outer loop
   vertex -0.0003378289811466956 14.070000000000004 0
   vertex 25.223324827741354 15.748320000000003 0
   vertex 25.27382265087793 15.748320000000003 0
  endloop
 endfacet
 facet normal 0.0 0.0 -1.0
  outer loop
   vertex -0.0003378289811466956 14.070000000000004 0
   vertex -0.00033782898114669983 17.430000000000003 0
   vertex 25.223324827741354 15.748320000000003 0
  endloop
 endfacet
 facet normal 0.0 0.0 -1.0
  outer loop
   vertex -0.00033782898114669983 17.430000000000003 0
   vertex 25.223324827741347 15.751680000000004 0
   vertex 25.223324827741354 15.748320000000003 0
  endloop
 endfacet
 facet normal 0.0 0.0 -1.0
  outer loop
   vertex -0.00033782898114669983 17.430000000000003 0
   vertex 50.49748530760042 17.430000000000003 0
   vertex 25.223324827741347 15.751680000000004 0
  endloop
 endfacet
 facet normal 0.0 0.0 -1.0
  outer loop
   vertex 50.49748530760042 17.430000000000003 0
   vertex 25.273822650877936 15.751680000000004 0
   vertex 25.223324827741347 15.751680000000004 0
  endloop
 endfacet
 facet normal 0.0 -0.0 -1.0
  outer loop
   vertex 50.49748530760042 17.430000000000003 0
   vertex 50.497485307600435 14.070000000000004 0
   vertex 25.273822650877936 15.751680000000004 0
  endloop
 endfacet
 facet normal 0.0 0.0 -1.0
  outer loop
   vertex 50.497485307600435 14.070000000000004 0
   vertex 25.27382265087793 15.748320000000003 0
   vertex 25.273822650877936 15.751680000000004 0
  endloop
 endfacet
 facet normal 0.0 -1.0 0.0
  outer loop
   vertex -0.0003378289811466956 14.070000000000004 0
   vertex 50.497485307600435 14.070000000000004 0
   vertex 50.497485307600435 14.070000000000004 0.36
  endloop
 endfacet
 facet normal 0.0 -1.0 0.0
  outer loop
   vertex -0.0003378289811466956 14.070000000000004 0.36
   vertex -0.0003378289811466956 14.070000000000004 0
   vertex 50.497485307600435 14.070000000000004 0.36
  endloop
 endfacet
 facet normal -1.0 -1.2584489502063891e-18 0.0
  outer loop
   vertex -0.00033782898114669983 17.430000000000003 0
   vertex -0.0003378289811466956 14.070000000000004 0
   vertex -0.0003378289811466956 14.070000000000004 0.36
  endloop
 endfacet
 facet normal -1.0 -1.2584489502063891e-18 -0.0
  outer loop
   vertex -0.00033782898114669983 17.430000000000003 0.36
   vertex -0.00033782898114669983 17.430000000000003 0
   vertex -0.0003378289811466956 14.070000000000004 0.36
  endloop
 endfacet
 facet normal 0.0 1.0 0.0
  outer loop
   vertex 50.49748530760042 17.430000000000003 0
   vertex -0.00033782898114669983 17.430000000000003 0
   vertex -0.00033782898114669983 17.430000000000003 0.36
  endloop
 endfacet
 facet normal 0.0 1.0 0.0
  outer loop
   vertex 50.49748530760042 17.430000000000003 0.36
   vertex 50.49748530760042 17.430000000000003 0
   vertex -0.00033782898114669983 17.430000000000003 0.36
  endloop
 endfacet
 facet normal 1.0 4.229421046191073e-15 0.0
  outer loop
   vertex 50.497485307600435 14.070000000000004 0
   vertex 50.49748530760042 17.430000000000003 0
   vertex 50.49748530760042 17.430000000000003 0.36
  endloop
 endfacet
 facet normal 1.0 4.229421046191073e-15 0.0
  outer loop
   vertex 50.497485307600435 14.070000000000004 0.36
   vertex 50.497485307600435 14.070000000000004 0
   vertex 50.49748530760042 17.430000000000003 0.36
  endloop
 endfacet
 facet normal 0.0 1.0 -0.0
  outer loop
   vertex 25.27382265087793 15.748320000000003 0
   vertex 25.223324827741354 15.748320000000003 0
   vertex 25.27382265087793 15.748320000000003 0.36
  endloop
 endfacet
 facet normal 0.0 1.0 0.0
  outer loop
   vertex 25.223324827741354 15.748320000000003 0
   vertex 25.223324827741354 15.748320000000003 0.36
   vertex 25.27382265087793 15.748320000000003 0.36
  endloop
 endfacet
 facet normal 1.0 2.1147105230950987e-12 -0.0
  outer loop
   vertex 25.223324827741354 15.748320000000003 0
   vertex 25.223324827741347 15.751680000000004 0
   vertex 25.223324827741354 15.748320000000003 0.36
  endloop
 endfacet
 facet normal 1.0 2.1147105230950987e-12 -0.0
  outer loop
   vertex 25.223324827741347 15.751680000000004 0
   vertex 25.223324827741347 15.751680000000004 0.36
   vertex 25.223324827741354 15.748320000000003 0.36
  endloop
 endfacet
 facet normal 0.0 -1.0 0.0
  outer loop
   vertex 25.223324827741347 15.751680000000004 0
   vertex 25.273822650877936 15.751680000000004 0
   vertex 25.223324827741347 15.751680000000004 0.36
  endloop
 endfacet
 facet normal 0.0 -1.0 0.0
  outer loop
   vertex 25.273822650877936 15.751680000000004 0
   vertex 25.273822650877936 15.751680000000004 0.36
   vertex 25.223324827741347 15.751680000000004 0.36
  endloop
 endfacet
 facet normal -1.0 2.1147105230950987e-12 0.0
  outer loop
   vertex 25.273822650877936 15.751680000000004 0
   vertex 25.27382265087793 15.748320000000003 0
   vertex 25.273822650877936 15.751680000000004 0.36
  endloop
 endfacet
 facet normal -1.0 2.1147105230950987e-12 0.0
  outer loop
   vertex 25.27382265087793 15.748320000000003 0
   vertex 25.27382265087793 15.748320000000003 0.36
   vertex 25.273822650877936 15.751680000000004 0.36
  endloop
 endfacet
 facet normal 0.0 0.0 1.0
  outer loop
   vertex -0.0003378289811466956 14.070000000000004 0.36
   vertex 50.497485307600435 14.070000000000004 0.36
   vertex 25.27382265087793 15.748320000000003 0.36
  endloop
 endfacet
 facet normal -0.0 0.0 1.0
  outer loop
   vertex 25.223324827741354 15.748320000000003 0.36
   vertex -0.0003378289811466956 14.070000000000004 0.36
   vertex 25.27382265087793 15.748320000000003 0.36
  endloop
 endfacet
 facet normal 0.0 0.0 1.0
  outer loop
   vertex -0.00033782898114669983 17.430000000000003 0.36
   vertex -0.0003378289811466956 14.070000000000004 0.36
   vertex 25.223324827741354 15.748320000000003 0.36
  endloop
 endfacet
 facet normal 0.0 0.0 1.0
  outer loop
   vertex 25.223324827741347 15.751680000000004 0.36
   vertex -0.00033782898114669983 17.430000000000003 0.36
   vertex 25.223324827741354 15.748320000000003 0.36
  endloop
 endfacet
 facet normal 0.0 0.0 1.0
  outer loop
   vertex 50.49748530760042 17.430000000000003 0.36
   vertex -0.00033782898114669983 17.430000000000003 0.36
   vertex 25.223324827741347 15.751680000000004 0.36
  endloop
 endfacet
 facet normal 0.0 -0.0 1.0
  outer loop
   vertex 25.273822650877936 15.751680000000004 0.36
   vertex 50.49748530760042 17.430000000000003 0.36
   vertex 25.223324827741347 15.751680000000004 0.36
  endloop
 endfacet
 facet normal 0.0 0.0 1.0
  outer loop
   vertex 50.497485307600435 14.070000000000004 0.36
   vertex 50.49748530760042 17.430000000000003 0.36
   vertex 25.273822650877936 15.751680000000004 0.36
  endloop
 endfacet
 facet normal -0.0 0.0 1.0
  outer loop
   vertex 25.27382265087793 15.748320000000003 0.36
   vertex 50.497485307600435 14.070000000000004 0.36
   vertex 25.273822650877936 15.751680000000004 0.36
  endloop
 endfacet
 facet normal 0.0 0.0 -1.0
  outer loop
   vertex 47.684557614094075 0.001 0
   vertex 50.497485307600435 14.070000000000004 0
   vertex 50.80115187835698 7.028465500000003 0
  endloop
 endfacet
 facet normal 0.0 0.0 -1.0
  outer loop
   vertex 50.497485307600435 14.070000000000004 0
   vertex 50.80396480605049 7.0425344999999995 0
   vertex 50.80115187835698 7.028465500000003 0
  endloop
 endfacet
 facet normal 0.0 0.0 -1.0
  outer loop
   vertex 50.497485307600435 14.070000000000004 0
   vertex 53.92398557057637 14.07 0
   vertex 50.80396480605049 7.0425344999999995 0
  endloop
 endfacet
 facet normal 0.0 0.0 -1.0
  outer loop
   vertex 53.92398557057637 14.07 0
   vertex 50.80739130631347 7.042534500000001 0
   vertex 50.80396480605049 7.0425344999999995 0
  endloop
 endfacet
 facet normal 0.0 0.0 -1.0
  outer loop
   vertex 53.92398557057637 14.07 0
   vertex 51.11105787707002 0.001 0
   vertex 50.80739130631347 7.042534500000001 0
  endloop
 endfacet
 facet normal 0.0 0.0 -1.0
  outer loop
   vertex 51.11105787707002 0.001 0
   vertex 50.80457837861996 7.028465500000001 0
   vertex 50.80739130631347 7.042534500000001 0
  endloop
 endfacet
 facet normal 0.0 0.0 -1.0
  outer loop
   vertex 51.11105787707002 0.001 0
   vertex 47.684557614094075 0.001 0
   vertex 50.80457837861996 7.028465500000001 0
  endloop
 endfacet
 facet normal 0.0 0.0 -1.0
  outer loop
   vertex 47.684557614094075 0.001 0
   vertex 50.80115187835698 7.028465500000003 0
   vertex 50.80457837861996 7.028465500000001 0
  endloop
 endfacet
 facet normal -0.9805923660084037 0.1960576744890158 0.0
  outer loop
   vertex 50.497485307600435 14.070000000000004 0
   vertex 47.684557614094075 0.001 0
   vertex 47.684557614094075 0.001 0.36
  endloop
 endfacet
 facet normal -0.9805923660084037 0.1960576744890158 0.0
  outer loop
   vertex 50.497485307600435 14.070000000000004 0.36
   vertex 50.497485307600435 14.070000000000004 0
   vertex 47.684557614094075 0.001 0.36
  endloop
 endfacet
 facet normal 1.0368344976325636e-15 1.0 0.0
  outer loop
   vertex 53.92398557057637 14.07 0
   vertex 50.497485307600435 14.070000000000004 0
   vertex 50.497485307600435 14.070000000000004 0.36
  endloop
 endfacet
 facet normal 1.0368344976325636e-15 1.0 0.0
  outer loop
   vertex 53.92398557057637 14.07 0.36
   vertex 53.92398557057637 14.07 0
   vertex 50.497485307600435 14.070000000000004 0.36
  endloop
 endfacet
 facet normal 0.9805923660084037 -0.1960576744890153 0.0
  outer loop
   vertex 51.11105787707002 0.001 0
   vertex 53.92398557057637 14.07 0
   vertex 53.92398557057637 14.07 0.36
  endloop
 endfacet
 facet normal 0.9805923660084037 -0.1960576744890153 0.0
  outer loop
   vertex 51.11105787707002 0.001 0.36
   vertex 51.11105787707002 0.001 0
   vertex 53.92398557057637 14.07 0.36
  endloop
 endfacet
 facet normal 0.0 -1.0 0.0
  outer loop
   vertex 47.684557614094075 0.001 0
   vertex 51.11105787707002 0.001 0
   vertex 51.11105787707002 0.001 0.36
  endloop
 endfacet
 facet normal 0.0 -1.0 0.0
  outer loop
   vertex 47.684557614094075 0.001 0.36
   vertex 47.684557614094075 0.001 0
   vertex 51.11105787707002 0.001 0.36
  endloop
 endfacet
 facet normal 0.9805923660084165 -0.19605767448895195 0.0
  outer loop
   vertex 50.80115187835698 7.028465500000003 0
   vertex 50.80396480605049 7.0425344999999995 0
   vertex 50.80115187835698 7.028465500000003 0.36
  endloop
 endfacet
 facet normal 0.9805923660084165 -0.19605767448895195 0.0
  outer loop
   vertex 50.80396480605049 7.0425344999999995 0
   vertex 50.80396480605049 7.0425344999999995 0.36
   vertex 50.80115187835698 7.028465500000003 0.36
  endloop
 endfacet
 facet normal 5.184172488153186e-13 -1.0 0.0
  outer loop
   vertex 50.80396480605049 7.0425344999999995 0
   vertex 50.80739130631347 7.042534500000001 0
   vertex 50.80396480605049 7.0425344999999995 0.36
  endloop
 endfacet
 facet normal 5.184172488153186e-13 -1.0 0.0
  outer loop
   vertex 50.80739130631347 7.042534500000001 0
   vertex 50.80739130631347 7.042534500000001 0.36
   vertex 50.80396480605049 7.0425344999999995 0.36
  endloop
 endfacet
 facet normal -0.9805923660083307 0.19605767448938055 0.0
  outer loop
   vertex 50.80739130631347 7.042534500000001 0
   vertex 50.80457837861996 7.028465500000001 0
   vertex 50.80739130631347 7.042534500000001 0.36
  endloop
 endfacet
 facet normal -0.9805923660083307 0.19605767448938055 0.0
  outer loop
   vertex 50.80457837861996 7.028465500000001 0
   vertex 50.80457837861996 7.028465500000001 0.36
   vertex 50.80739130631347 7.042534500000001 0.36
  endloop
 endfacet
 facet normal 5.184172488163936e-13 1.0 -0.0
  outer loop
   vertex 50.80457837861996 7.028465500000001 0
   vertex 50.80115187835698 7.028465500000003 0
   vertex 50.80457837861996 7.028465500000001 0.36
  endloop
 endfacet
 facet normal 5.184172488163936e-13 1.0 -0.0
  outer loop
   vertex 50.80115187835698 7.028465500000003 0
   vertex 50.80115187835698 7.028465500000003 0.36
   vertex 50.80457837861996 7.028465500000001 0.36
  endloop
 endfacet
 facet normal 0.0 0.0 1.0
  outer loop
   vertex 50.497485307600435 14.070000000000004 0.36
   vertex 47.684557614094075 0.001 0.36
   vertex 50.80115187835698 7.028465500000003 0.36
  endloop
 endfacet
 facet normal 0.0 0.0 1.0
  outer loop
   vertex 50.80396480605049 7.0425344999999995 0.36
   vertex 50.497485307600435 14.070000000000004 0.36
   vertex 50.80115187835698 7.028465500000003 0.36
  endloop
 endfacet
 facet normal 0.0 0.0 1.0
  outer loop
   vertex 53.92398557057637 14.07 0.36
   vertex 50.497485307600435 14.070000000000004 0.36
   vertex 50.80396480605049 7.0425344999999995 0.36
  endloop
 endfacet
 facet normal 0.0 -0.0 1.0
  outer loop
   vertex 50.80739130631347 7.042534500000001 0.36
   vertex 53.92398557057637 14.07 0.36
   vertex 50.80396480605049 7.0425344999999995 0.36
  endloop
 endfacet
 facet normal 0.0 -0.0 1.0
  outer loop
   vertex 51.11105787707002 0.001 0.36
   vertex 53.92398557057637 14.07 0.36
   vertex 50.80739130631347 7.042534500000001 0.36
  endloop
 endfacet
 facet normal -0.0 0.0 1.0
  outer loop
   vertex 50.80457837861996 7.028465500000001 0.36
   vertex 51.11105787707002 0.001 0.36
   vertex 50.80739130631347 7.042534500000001 0.36
  endloop
 endfacet
 facet normal 0.0 0.0 1.0
  outer loop
   vertex 47.684557614094075 0.001 0.36
   vertex 51.11105787707002 0.001 0.36
   vertex 50.80457837861996 7.028465500000001 0.36
  endloop
 endfacet
 facet normal 0.0 0.0 1.0
  outer loop
   vertex 50.80115187835698 7.028465500000003 0.36
   vertex 47.684557614094075 0.001 0.36
   vertex 50.80457837861996 7.028465500000001 0.36
  endloop
 endfacet
 facet normal 0.0 0.0 -1.0
  outer loop
   vertex 50.49748530760042 17.430000000000003 0
   vertex 47.68455761409407 31.499 0
   vertex 50.80396480605049 24.457465499999998 0
  endloop
 endfacet
 facet normal 0.0 0.0 -1.0
  outer loop
   vertex 47.68455761409407 31.499 0
   vertex 50.801151878356976 24.4715345 0
   vertex 50.80396480605049 24.457465499999998 0
  endloop
 endfacet
 facet normal 0.0 0.0 -1.0
  outer loop
   vertex 47.68455761409407 31.499 0
   vertex 51.11105787707002 31.499 0
   vertex 50.801151878356976 24.4715345 0
  endloop
 endfacet
 facet normal 0.0 0.0 -1.0
  outer loop
   vertex 51.11105787707002 31.499 0
   vertex 50.80457837861995 24.471534499999997 0
   vertex 50.801151878356976 24.4715345 0
  endloop
 endfacet
 facet normal 0.0 -0.0 -1.0
  outer loop
   vertex 51.11105787707002 31.499 0
   vertex 53.92398557057637 17.43 0
   vertex 50.80457837861995 24.471534499999997 0
  endloop
 endfacet
 facet normal 0.0 0.0 -1.0
  outer loop
   vertex 53.92398557057637 17.43 0
   vertex 50.80739130631346 24.4574655 0
   vertex 50.80457837861995 24.471534499999997 0
  endloop
 endfacet
 facet normal 0.0 0.0 -1.0
  outer loop
   vertex 53.92398557057637 17.43 0
   vertex 50.49748530760042 17.430000000000003 0
   vertex 50.80739130631346 24.4574655 0
  endloop
 endfacet
 facet normal 0.0 0.0 -1.0
  outer loop
   vertex 50.49748530760042 17.430000000000003 0
   vertex 50.80396480605049 24.457465499999998 0
   vertex 50.80739130631346 24.4574655 0
  endloop
 endfacet
 facet normal -0.9805923660084037 -0.19605767448901537 0.0
  outer loop
   vertex 47.68455761409407 31.499 0
   vertex 50.49748530760042 17.430000000000003 0
   vertex 50.49748530760042 17.430000000000003 0.36
  endloop
 endfacet
 facet normal -0.9805923660084037 -0.19605767448901537 -0.0
  outer loop
   vertex 47.68455761409407 31.499 0.36
   vertex 47.68455761409407 31.499 0
   vertex 50.49748530760042 17.430000000000003 0.36
  endloop
 endfacet
 facet normal 0.0 1.0 0.0
  outer loop
   vertex 51.11105787707002 31.499 0
   vertex 47.68455761409407 31.499 0
   vertex 47.68455761409407 31.499 0.36
  endloop
 endfacet
 facet normal 0.0 1.0 0.0
  outer loop
   vertex 51.11105787707002 31.499 0.36
   vertex 51.11105787707002 31.499 0
   vertex 47.68455761409407 31.499 0.36
  endloop
 endfacet
 facet normal 0.9805923660084037 0.19605767448901532 0.0
  outer loop
   vertex 53.92398557057637 17.43 0
   vertex 51.11105787707002 31.499 0
   vertex 51.11105787707002 31.499 0.36
  endloop
 endfacet
 facet normal 0.9805923660084037 0.19605767448901532 0.0
  outer loop
   vertex 53.92398557057637 17.43 0.36
   vertex 53.92398557057637 17.43 0
   vertex 51.11105787707002 31.499 0.36
  endloop
 endfacet
 facet normal -1.0368344976325593e-15 -1.0 0.0
  outer loop
   vertex 50.49748530760042 17.430000000000003 0
   vertex 53.92398557057637 17.43 0
   vertex 53.92398557057637 17.43 0.36
  endloop
 endfacet
 facet normal -1.0368344976325593e-15 -1.0 -0.0
  outer loop
   vertex 50.49748530760042 17.430000000000003 0.36
   vertex 50.49748530760042 17.430000000000003 0
   vertex 53.92398557057637 17.43 0.36
  endloop
 endfacet
 facet normal 0.9805923660083379 0.19605767448934486 -0.0
  outer loop
   vertex 50.80396480605049 24.457465499999998 0
   vertex 50.801151878356976 24.4715345 0
   vertex 50.80396480605049 24.457465499999998 0.36
  endloop
 endfacet
 facet normal 0.9805923660083379 0.19605767448934486 -0.0
  outer loop
   vertex 50.801151878356976 24.4715345 0
   vertex 50.801151878356976 24.4715345 0.36
   vertex 50.80396480605049 24.457465499999998 0.36
  endloop
 endfacet
 facet normal -1.0368344976327871e-12 -1.0 0.0
  outer loop
   vertex 50.801151878356976 24.4715345 0
   vertex 50.80457837861995 24.471534499999997 0
   vertex 50.801151878356976 24.4715345 0.36
  endloop
 endfacet
 facet normal -1.0368344976327871e-12 -1.0 0.0
  outer loop
   vertex 50.80457837861995 24.471534499999997 0
   vertex 50.80457837861995 24.471534499999997 0.36
   vertex 50.801151878356976 24.4715345 0.36
  endloop
 endfacet
 facet normal -0.9805923660083189 -0.19605767448944006 0.0
  outer loop
   vertex 50.80457837861995 24.471534499999997 0
   vertex 50.80739130631346 24.4574655 0
   vertex 50.80457837861995 24.471534499999997 0.36
  endloop
 endfacet
 facet normal -0.9805923660083189 -0.19605767448944006 0.0
  outer loop
   vertex 50.80739130631346 24.4574655 0
   vertex 50.80739130631346 24.4574655 0.36
   vertex 50.80457837861995 24.471534499999997 0.36
  endloop
 endfacet
 facet normal -1.0368344976327871e-12 1.0 0.0
  outer loop
   vertex 50.80739130631346 24.4574655 0
   vertex 50.80396480605049 24.457465499999998 0
   vertex 50.80739130631346 24.4574655 0.36
  endloop
 endfacet
 facet normal -1.0368344976327871e-12 1.0 0.0
  outer loop
   vertex 50.80396480605049 24.457465499999998 0
   vertex 50.80396480605049 24.457465499999998 0.36
   vertex 50.80739130631346 24.4574655 0.36
  endloop
 endfacet
 facet normal 0.0 0.0 1.0
  outer loop
   vertex 47.68455761409407 31.499 0.36
   vertex 50.49748530760042 17.430000000000003 0.36
   vertex 50.80396480605049 24.457465499999998 0.36
  endloop
 endfacet
 facet normal 0.0 0.0 1.0
  outer loop
   vertex 50.801151878356976 24.4715345 0.36
   vertex 47.68455761409407 31.499 0.36
   vertex 50.80396480605049 24.457465499999998 0.36
  endloop
 endfacet
 facet normal 0.0 0.0 1.0
  outer loop
   vertex 51.11105787707002 31.499 0.36
   vertex 47.68455761409407 31.499 0.36
   vertex 50.801151878356976 24.4715345 0.36
  endloop
 endfacet
 facet normal 0.0 -0.0 1.0
  outer loop
   vertex 50.80457837861995 24.471534499999997 0.36
   vertex 51.11105787707002 31.499 0.36
   vertex 50.801151878356976 24.4715345 0.36
  endloop
 endfacet
 facet normal 0.0 0.0 1.0
  outer loop
   vertex 53.92398557057637 17.43 0.36
   vertex 51.11105787707002 31.499 0.36
   vertex 50.80457837861995 24.471534499999997 0.36
  endloop
 endfacet
 facet normal -0.0 -0.0 1.0
  outer loop
   vertex 50.80739130631346 24.4574655 0.36
   vertex 53.92398557057637 17.43 0.36
   vertex 50.80457837861995 24.471534499999997 0.36
  endloop
 endfacet
 facet normal -0.0 0.0 1.0
  outer loop
   vertex 50.49748530760042 17.430000000000003 0.36
   vertex 53.92398557057637 17.43 0.36
   vertex 50.80739130631346 24.4574655 0.36
  endloop
 endfacet
 facet normal -0.0 0.0 1.0
  outer loop
   vertex 50.80396480605049 24.457465499999998 0.36
   vertex 50.49748530760042 17.430000000000003 0.36
   vertex 50.80739130631346 24.4574655 0.36
  endloop
 endfacet
 facet normal 0.0 0.0 -1.0
  outer loop
   vertex 75.47142096797623 14.07 0
   vertex 53.92398557057637 14.07 0
   vertex 64.708476986975 15.74832 0
  endloop
 endfacet
 facet normal 0.0 0.0 -1.0
  outer loop
   vertex 53.92398557057637 14.07 0
   vertex 64.6869295515776 15.74832 0
   vertex 64.708476986975 15.74832 0
  endloop
 endfacet
 facet normal 0.0 0.0 -1.0
  outer loop
   vertex 53.92398557057637 14.07 0
   vertex 53.92398557057637 17.43 0
   vertex 64.6869295515776 15.74832 0
  endloop
 endfacet
 facet normal 0.0 0.0 -1.0
  outer loop
   vertex 53.92398557057637 17.43 0
   vertex 64.6869295515776 15.75168 0
   vertex 64.6869295515776 15.74832 0
  endloop
 endfacet
 facet normal 0.0 0.0 -1.0
  outer loop
   vertex 53.92398557057637 17.43 0
   vertex 75.47142096797623 17.43 0
   vertex 64.6869295515776 15.75168 0
  endloop
 endfacet
 facet normal 0.0 0.0 -1.0
  outer loop
   vertex 75.47142096797623 17.43 0
   vertex 64.708476986975 15.75168 0
   vertex 64.6869295515776 15.75168 0
  endloop
 endfacet
 facet normal 0.0 -0.0 -1.0
  outer loop
   vertex 75.47142096797623 17.43 0
   vertex 75.47142096797623 14.07 0
   vertex 64.708476986975 15.75168 0
  endloop
 endfacet
 facet normal 0.0 0.0 -1.0
  outer loop
   vertex 75.47142096797623 14.07 0
   vertex 64.708476986975 15.74832 0
   vertex 64.708476986975 15.75168 0
  endloop
 endfacet
 facet normal 0.0 -1.0 0.0
  outer loop
   vertex 53.92398557057637 14.07 0
   vertex 75.47142096797623 14.07 0
   vertex 75.47142096797623 14.07 0.36
  endloop
 endfacet
 facet normal 0.0 -1.0 0.0
  outer loop
   vertex 53.92398557057637 14.07 0.36
   vertex 53.92398557057637 14.07 0
   vertex 75.47142096797623 14.07 0.36
  endloop
 endfacet
 facet normal -1.0 0.0 0.0
  outer loop
   vertex 53.92398557057637 17.43 0
   vertex 53.92398557057637 14.07 0
   vertex 53.92398557057637 14.07 0.36
  endloop
 endfacet
 facet normal -1.0 -0.0 -0.0
  outer loop
   vertex 53.92398557057637 17.43 0.36
   vertex 53.92398557057637 17.43 0
   vertex 53.92398557057637 14.07 0.36
  endloop
 endfacet
 facet normal 0.0 1.0 0.0
  outer loop
   vertex 75.47142096797623 17.43 0
   vertex 53.92398557057637 17.43 0
   vertex 53.92398557057637 17.43 0.36
  endloop
 endfacet
 facet normal 0.0 1.0 0.0
  outer loop
   vertex 75.47142096797623 17.43 0.36
   vertex 75.47142096797623 17.43 0
   vertex 53.92398557057637 17.43 0.36
  endloop
 endfacet
 facet normal 1.0 0.0 0.0
  outer loop
   vertex 75.47142096797623 14.07 0
   vertex 75.47142096797623 17.43 0
   vertex 75.47142096797623 17.43 0.36
  endloop
 endfacet
 facet normal 1.0 -0.0 0.0
  outer loop
   vertex 75.47142096797623 14.07 0.36
   vertex 75.47142096797623 14.07 0
   vertex 75.47142096797623 17.43 0.36
  endloop
 endfacet
 facet normal 0.0 1.0 -0.0
  outer loop
   vertex 64.708476986975 15.74832 0
   vertex 64.6869295515776 15.74832 0
   vertex 64.708476986975 15.74832 0.36
  endloop
 endfacet
 facet normal 0.0 1.0 0.0
  outer loop
   vertex 64.6869295515776 15.74832 0
   vertex 64.6869295515776 15.74832 0.36
   vertex 64.708476986975 15.74832 0.36
  endloop
 endfacet
 facet normal 1.0 0.0 0.0
  outer loop
   vertex 64.6869295515776 15.74832 0
   vertex 64.6869295515776 15.75168 0
   vertex 64.6869295515776 15.74832 0.36
  endloop
 endfacet
 facet normal 1.0 0.0 -0.0
  outer loop
   vertex 64.6869295515776 15.75168 0
   vertex 64.6869295515776 15.75168 0.36
   vertex 64.6869295515776 15.74832 0.36
  endloop
 endfacet
 facet normal 0.0 -1.0 0.0
  outer loop
   vertex 64.6869295515776 15.75168 0
   vertex 64.708476986975 15.75168 0
   vertex 64.6869295515776 15.75168 0.36
  endloop
 endfacet
 facet normal 0.0 -1.0 0.0
  outer loop
   vertex 64.708476986975 15.75168 0
   vertex 64.708476986975 15.75168 0.36
   vertex 64.6869295515776 15.75168 0.36
  endloop
 endfacet
 facet normal -1.0 0.0 0.0
  outer loop
   vertex 64.708476986975 15.75168 0
   vertex 64.708476986975 15.74832 0
   vertex 64.708476986975 15.75168 0.36
  endloop
 endfacet
 facet normal -1.0 0.0 0.0
  outer loop
   vertex 64.708476986975 15.74832 0
   vertex 64.708476986975 15.74832 0.36
   vertex 64.708476986975 15.75168 0.36
  endloop
 endfacet
 facet normal 0.0 0.0 1.0
  outer loop
   vertex 53.92398557057637 14.07 0.36
   vertex 75.47142096797623 14.07 0.36
   vertex 64.708476986975 15.74832 0.36
  endloop
 endfacet
 facet normal -0.0 0.0 1.0
  outer loop
   vertex 64.6869295515776 15.74832 0.36
   vertex 53.92398557057637 14.07 0.36
   vertex 64.708476986975 15.74832 0.36
  endloop
 endfacet
 facet normal 0.0 0.0 1.0
  outer loop
   vertex 53.92398557057637 17.43 0.36
   vertex 53.92398557057637 14.07 0.36
   vertex 64.6869295515776 15.74832 0.36
  endloop
 endfacet
 facet normal 0.0 0.0 1.0
  outer loop
   vertex 64.6869295515776 15.75168 0.36
   vertex 53.92398557057637 17.43 0.36
   vertex 64.6869295515776 15.74832 0.36
  endloop
 endfacet
 facet normal 0.0 0.0 1.0
  outer loop
   vertex 75.47142096797623 17.43 0.36
   vertex 53.92398557057637 17.43 0.36
   vertex 64.6869295515776 15.75168 0.36
  endloop
 endfacet
 facet normal 0.0 -0.0 1.0
  outer loop
   vertex 64.708476986975 15.75168 0.36
   vertex 75.47142096797623 17.43 0.36
   vertex 64.6869295515776 15.75168 0.36
  endloop
 endfacet
 facet normal 0.0 -0.0 1.0
  outer loop
   vertex 75.47142096797623 14.07 0.36
   vertex 75.47142096797623 17.43 0.36
   vertex 64.708476986975 15.75168 0.36
  endloop
 endfacet
 facet normal -0.0 0.0 1.0
  outer loop
   vertex 64.708476986975 15.74832 0.36
   vertex 75.47142096797623 14.07 0.36
   vertex 64.708476986975 15.75168 0.36
  endloop
 endfacet
 facet normal 0.0 0.0 -1.0
  outer loop
   vertex 66.05907178908035 0.001 0
   vertex 75.47142096797623 14.07 0
   vertex 72.77981717101828 7.028465500000001 0
  endloop
 endfacet
 facet normal 0.0 0.0 -1.0
  outer loop
   vertex 75.47142096797623 14.07 0
   vertex 72.78922952019718 7.0425344999999995 0
   vertex 72.77981717101828 7.028465500000001 0
  endloop
 endfacet
 facet normal 0.0 -0.0 -1.0
  outer loop
   vertex 75.47142096797623 14.07 0
   vertex 79.51401749866581 14.07 0
   vertex 72.78922952019718 7.0425344999999995 0
  endloop
 endfacet
 facet normal 0.0 0.0 -1.0
  outer loop
   vertex 79.51401749866581 14.07 0
   vertex 72.79327211672788 7.0425344999999995 0
   vertex 72.78922952019718 7.0425344999999995 0
  endloop
 endfacet
 facet normal 0.0 0.0 -1.0
  outer loop
   vertex 79.51401749866581 14.07 0
   vertex 70.10166831976993 0.001 0
   vertex 72.79327211672788 7.0425344999999995 0
  endloop
 endfacet
 facet normal 0.0 0.0 -1.0
  outer loop
   vertex 70.10166831976993 0.001 0
   vertex 72.78385976754898 7.028465500000001 0
   vertex 72.79327211672788 7.0425344999999995 0
  endloop
 endfacet
 facet normal 0.0 0.0 -1.0
  outer loop
   vertex 70.10166831976993 0.001 0
   vertex 66.05907178908035 0.001 0
   vertex 72.78385976754898 7.028465500000001 0
  endloop
 endfacet
 facet normal 0.0 0.0 -1.0
  outer loop
   vertex 66.05907178908035 0.001 0
   vertex 72.77981717101828 7.028465500000001 0
   vertex 72.78385976754898 7.028465500000001 0
  endloop
 endfacet
 facet normal -0.8311489841967636 0.5560497874009918 0.0
  outer loop
   vertex 75.47142096797623 14.07 0
   vertex 66.05907178908035 0.001 0
   vertex 66.05907178908035 0.001 0.36
  endloop
 endfacet
 facet normal -0.8311489841967636 0.5560497874009918 0.0
  outer loop
   vertex 75.47142096797623 14.07 0.36
   vertex 75.47142096797623 14.07 0
   vertex 66.05907178908035 0.001 0.36
  endloop
 endfacet
 facet normal 0.0 1.0 0.0
  outer loop
   vertex 79.51401749866581 14.07 0
   vertex 75.47142096797623 14.07 0
   vertex 75.47142096797623 14.07 0.36
  endloop
 endfacet
 facet normal 0.0 1.0 0.0
  outer loop
   vertex 79.51401749866581 14.07 0.36
   vertex 79.51401749866581 14.07 0
   vertex 75.47142096797623 14.07 0.36
  endloop
 endfacet
 facet normal 0.8311489841967636 -0.5560497874009918 0.0
  outer loop
   vertex 70.10166831976993 0.001 0
   vertex 79.51401749866581 14.07 0
   vertex 79.51401749866581 14.07 0.36
  endloop
 endfacet
 facet normal 0.8311489841967636 -0.5560497874009918 0.0
  outer loop
   vertex 70.10166831976993 0.001 0.36
   vertex 70.10166831976993 0.001 0
   vertex 79.51401749866581 14.07 0.36
  endloop
 endfacet
 facet normal 0.0 -1.0 0.0
  outer loop
   vertex 66.05907178908035 0.001 0
   vertex 70.10166831976993 0.001 0
   vertex 70.10166831976993 0.001 0.36
  endloop
 endfacet
 facet normal 0.0 -1.0 0.0
  outer loop
   vertex 66.05907178908035 0.001 0.36
   vertex 66.05907178908035 0.001 0
   vertex 70.10166831976993 0.001 0.36
  endloop
 endfacet
 facet normal 0.8311489841965664 -0.5560497874012866 0.0
  outer loop
   vertex 72.77981717101828 7.028465500000001 0
   vertex 72.78922952019718 7.0425344999999995 0
   vertex 72.77981717101828 7.028465500000001 0.36
  endloop
 endfacet
 facet normal 0.8311489841965664 -0.5560497874012866 0.0
  outer loop
   vertex 72.78922952019718 7.0425344999999995 0
   vertex 72.78922952019718 7.0425344999999995 0.36
   vertex 72.77981717101828 7.028465500000001 0.36
  endloop
 endfacet
 facet normal 0.0 -1.0 0.0
  outer loop
   vertex 72.78922952019718 7.0425344999999995 0
   vertex 72.79327211672788 7.0425344999999995 0
   vertex 72.78922952019718 7.0425344999999995 0.36
  endloop
 endfacet
 facet normal 0.0 -1.0 0.0
  outer loop
   vertex 72.79327211672788 7.0425344999999995 0
   vertex 72.79327211672788 7.0425344999999995 0.36
   vertex 72.78922952019718 7.0425344999999995 0.36
  endloop
 endfacet
 facet normal -0.8311489841965664 0.5560497874012866 0.0
  outer loop
   vertex 72.79327211672788 7.0425344999999995 0
   vertex 72.78385976754898 7.028465500000001 0
   vertex 72.79327211672788 7.0425344999999995 0.36
  endloop
 endfacet
 facet normal -0.8311489841965664 0.5560497874012866 0.0
  outer loop
   vertex 72.78385976754898 7.028465500000001 0
   vertex 72.78385976754898 7.028465500000001 0.36
   vertex 72.79327211672788 7.0425344999999995 0.36
  endloop
 endfacet
 facet normal 0.0 1.0 -0.0
  outer loop
   vertex 72.78385976754898 7.028465500000001 0
   vertex 72.77981717101828 7.028465500000001 0
   vertex 72.78385976754898 7.028465500000001 0.36
  endloop
 endfacet
 facet normal 0.0 1.0 0.0
  outer loop
   vertex 72.77981717101828 7.028465500000001 0
   vertex 72.77981717101828 7.028465500000001 0.36
   vertex 72.78385976754898 7.028465500000001 0.36
  endloop
 endfacet
 facet normal 0.0 0.0 1.0
  outer loop
   vertex 75.47142096797623 14.07 0.36
   vertex 66.05907178908035 0.001 0.36
   vertex 72.77981717101828 7.028465500000001 0.36
  endloop
 endfacet
 facet normal 0.0 -0.0 1.0
  outer loop
   vertex 72.78922952019718 7.0425344999999995 0.36
   vertex 75.47142096797623 14.07 0.36
   vertex 72.77981717101828 7.028465500000001 0.36
  endloop
 endfacet
 facet normal 0.0 0.0 1.0
  outer loop
   vertex 79.51401749866581 14.07 0.36
   vertex 75.47142096797623 14.07 0.36
   vertex 72.78922952019718 7.0425344999999995 0.36
  endloop
 endfacet
 facet normal 0.0 -0.0 1.0
  outer loop
   vertex 72.79327211672788 7.0425344999999995 0.36
   vertex 79.51401749866581 14.07 0.36
   vertex 72.78922952019718 7.0425344999999995 0.36
  endloop
 endfacet
 facet normal 0.0 0.0 1.0
  outer loop
   vertex 70.10166831976993 0.001 0.36
   vertex 79.51401749866581 14.07 0.36
   vertex 72.79327211672788 7.0425344999999995 0.36
  endloop
 endfacet
 facet normal -0.0 0.0 1.0
  outer loop
   vertex 72.78385976754898 7.028465500000001 0.36
   vertex 70.10166831976993 0.001 0.36
   vertex 72.79327211672788 7.0425344999999995 0.36
  endloop
 endfacet
 facet normal 0.0 0.0 1.0
  outer loop
   vertex 66.05907178908035 0.001 0.36
   vertex 70.10166831976993 0.001 0.36
   vertex 72.78385976754898 7.028465500000001 0.36
  endloop
 endfacet
 facet normal -0.0 0.0 1.0
  outer loop
   vertex 72.77981717101828 7.028465500000001 0.36
   vertex 66.05907178908035 0.001 0.36
   vertex 72.78385976754898 7.028465500000001 0.36
  endloop
 endfacet
 facet normal 0.0 0.0 -1.0
  outer loop
   vertex 75.47142096797623 17.43 0
   vertex 66.05907178908035 31.498999999999995 0
   vertex 72.78922952019718 24.457465499999998 0
  endloop
 endfacet
 facet normal 0.0 0.0 -1.0
  outer loop
   vertex 66.05907178908035 31.498999999999995 0
   vertex 72.77981717101828 24.471534499999997 0
   vertex 72.78922952019718 24.457465499999998 0
  endloop
 endfacet
 facet normal 0.0 0.0 -1.0
  outer loop
   vertex 66.05907178908035 31.498999999999995 0
   vertex 70.10166831976993 31.498999999999995 0
   vertex 72.77981717101828 24.471534499999997 0
  endloop
 endfacet
 facet normal 0.0 0.0 -1.0
  outer loop
   vertex 70.10166831976993 31.498999999999995 0
   vertex 72.78385976754898 24.471534499999997 0
   vertex 72.77981717101828 24.471534499999997 0
  endloop
 endfacet
 facet normal 0.0 0.0 -1.0
  outer loop
   vertex 70.10166831976993 31.498999999999995 0
   vertex 79.51401749866581 17.43 0
   vertex 72.78385976754898 24.471534499999997 0
  endloop
 endfacet
 facet normal 0.0 0.0 -1.0
  outer loop
   vertex 79.51401749866581 17.43 0
   vertex 72.79327211672788 24.457465499999998 0
   vertex 72.78385976754898 24.471534499999997 0
  endloop
 endfacet
 facet normal 0.0 0.0 -1.0
  outer loop
   vertex 79.51401749866581 17.43 0
   vertex 75.47142096797623 17.43 0
   vertex 72.79327211672788 24.457465499999998 0
  endloop
 endfacet
 facet normal 0.0 0.0 -1.0
  outer loop
   vertex 75.47142096797623 17.43 0
   vertex 72.78922952019718 24.457465499999998 0
   vertex 72.79327211672788 24.457465499999998 0
  endloop
 endfacet
 facet normal -0.8311489841967634 -0.5560497874009918 0.0
  outer loop
   vertex 66.05907178908035 31.498999999999995 0
   vertex 75.47142096797623 17.43 0
   vertex 75.47142096797623 17.43 0.36
  endloop
 endfacet
 facet normal -0.8311489841967634 -0.5560497874009918 -0.0
  outer loop
   vertex 66.05907178908035 31.498999999999995 0.36
   vertex 66.05907178908035 31.498999999999995 0
   vertex 75.47142096797623 17.43 0.36
  endloop
 endfacet
 facet normal 0.0 1.0 0.0
  outer loop
   vertex 70.10166831976993 31.498999999999995 0
   vertex 66.05907178908035 31.498999999999995 0
   vertex 66.05907178908035 31.498999999999995 0.36
  endloop
 endfacet
 facet normal 0.0 1.0 0.0
  outer loop
   vertex 70.10166831976993 31.498999999999995 0.36
   vertex 70.10166831976993 31.498999999999995 0
   vertex 66.05907178908035 31.498999999999995 0.36
  endloop
 endfacet
 facet normal 0.8311489841967634 0.5560497874009918 0.0
  outer loop
   vertex 79.51401749866581 17.43 0
   vertex 70.10166831976993 31.498999999999995 0
   vertex 70.10166831976993 31.498999999999995 0.36
  endloop
 endfacet
 facet normal 0.8311489841967634 0.5560497874009918 0.0
  outer loop
   vertex 79.51401749866581 17.43 0.36
   vertex 79.51401749866581 17.43 0
   vertex 70.10166831976993 31.498999999999995 0.36
  endloop
 endfacet
 facet normal 0.0 -1.0 0.0
  outer loop
   vertex 75.47142096797623 17.43 0
   vertex 79.51401749866581 17.43 0
   vertex 79.51401749866581 17.43 0.36
  endloop
 endfacet
 facet normal 0.0 -1.0 0.0
  outer loop
   vertex 75.47142096797623 17.43 0.36
   vertex 75.47142096797623 17.43 0
   vertex 79.51401749866581 17.43 0.36
  endloop
 endfacet
 facet normal 0.8311489841965826 0.5560497874012624 -0.0
  outer loop
   vertex 72.78922952019718 24.457465499999998 0
   vertex 72.77981717101828 24.471534499999997 0
   vertex 72.78922952019718 24.457465499999998 0.36
  endloop
 endfacet
 facet normal 0.8311489841965826 0.5560497874012624 -0.0
  outer loop
   vertex 72.77981717101828 24.471534499999997 0
   vertex 72.77981717101828 24.471534499999997 0.36
   vertex 72.78922952019718 24.457465499999998 0.36
  endloop
 endfacet
 facet normal 0.0 -1.0 0.0
  outer loop
   vertex 72.77981717101828 24.471534499999997 0
   vertex 72.78385976754898 24.471534499999997 0
   vertex 72.77981717101828 24.471534499999997 0.36
  endloop
 endfacet
 facet normal 0.0 -1.0 0.0
  outer loop
   vertex 72.78385976754898 24.471534499999997 0
   vertex 72.78385976754898 24.471534499999997 0.36
   vertex 72.77981717101828 24.471534499999997 0.36
  endloop
 endfacet
 facet normal -0.8311489841965826 -0.5560497874012624 0.0
  outer loop
   vertex 72.78385976754898 24.471534499999997 0
   vertex 72.79327211672788 24.457465499999998 0
   vertex 72.78385976754898 24.471534499999997 0.36
  endloop
 endfacet
 facet normal -0.8311489841965826 -0.5560497874012624 0.0
  outer loop
   vertex 72.79327211672788 24.457465499999998 0
   vertex 72.79327211672788 24.457465499999998 0.36
   vertex 72.78385976754898 24.471534499999997 0.36
  endloop
 endfacet
 facet normal 0.0 1.0 -0.0
  outer loop
   vertex 72.79327211672788 24.457465499999998 0
   vertex 72.78922952019718 24.457465499999998 0
   vertex 72.79327211672788 24.457465499999998 0.36
  endloop
 endfacet
 facet normal 0.0 1.0 0.0
  outer loop
   vertex 72.78922952019718 24.457465499999998 0
   vertex 72.78922952019718 24.457465499999998 0.36
   vertex 72.79327211672788 24.457465499999998 0.36
  endloop
 endfacet
 facet normal 0.0 0.0 1.0
  outer loop
   vertex 66.05907178908035 31.498999999999995 0.36
   vertex 75.47142096797623 17.43 0.36
   vertex 72.78922952019718 24.457465499999998 0.36
  endloop
 endfacet
 facet normal 0.0 0.0 1.0
  outer loop
   vertex 72.77981717101828 24.471534499999997 0.36
   vertex 66.05907178908035 31.498999999999995 0.36
   vertex 72.78922952019718 24.457465499999998 0.36
  endloop
 endfacet
 facet normal 0.0 0.0 1.0
  outer loop
   vertex 70.10166831976993 31.498999999999995 0.36
   vertex 66.05907178908035 31.498999999999995 0.36
   vertex 72.77981717101828 24.471534499999997 0.36
  endloop
 endfacet
 facet normal 0.0 0.0 1.0
  outer loop
   vertex 72.78385976754898 24.471534499999997 0.36
   vertex 70.10166831976993 31.498999999999995 0.36
   vertex 72.77981717101828 24.471534499999997 0.36
  endloop
 endfacet
 facet normal 0.0 0.0 1.0
  outer loop
   vertex 79.51401749866581 17.43 0.36
   vertex 70.10166831976993 31.498999999999995 0.36
   vertex 72.78385976754898 24.471534499999997 0.36
  endloop
 endfacet
 facet normal -0.0 -0.0 1.0
  outer loop
   vertex 72.79327211672788 24.457465499999998 0.36
   vertex 79.51401749866581 17.43 0.36
   vertex 72.78385976754898 24.471534499999997 0.36
  endloop
 endfacet
 facet normal 0.0 -0.0 1.0
  outer loop
   vertex 75.47142096797623 17.43 0.36
   vertex 79.51401749866581 17.43 0.36
   vertex 72.79327211672788 24.457465499999998 0.36
  endloop
 endfacet
 facet normal -0.0 0.0 1.0
  outer loop
   vertex 72.78922952019718 24.457465499999998 0.36
   vertex 75.47142096797623 17.43 0.36
   vertex 72.79327211672788 24.457465499999998 0.36
  endloop
 endfacet
 facet normal 0.0 0.0 -1.0
  outer loop
   vertex 117.34584354292956 14.069999999999999 0
   vertex 79.51401749866581 14.07 0
   vertex 98.44884643381982 15.74832 0
  endloop
 endfacet
 facet normal 0.0 0.0 -1.0
  outer loop
   vertex 79.51401749866581 14.07 0
   vertex 98.41101460777556 15.74832 0
   vertex 98.44884643381982 15.74832 0
  endloop
 endfacet
 facet normal 0.0 0.0 -1.0
  outer loop
   vertex 79.51401749866581 14.07 0
   vertex 79.51401749866581 17.43 0
   vertex 98.41101460777556 15.74832 0
  endloop
 endfacet
 facet normal 0.0 0.0 -1.0
  outer loop
   vertex 79.51401749866581 17.43 0
   vertex 98.41101460777557 15.75168 0
   vertex 98.41101460777556 15.74832 0
  endloop
 endfacet
 facet normal 0.0 0.0 -1.0
  outer loop
   vertex 79.51401749866581 17.43 0
   vertex 117.34584354292959 17.43 0
   vertex 98.41101460777557 15.75168 0
  endloop
 endfacet
 facet normal 0.0 0.0 -1.0
  outer loop
   vertex 117.34584354292959 17.43 0
   vertex 98.44884643381981 15.751679999999999 0
   vertex 98.41101460777557 15.75168 0
  endloop
 endfacet
 facet normal 0.0 0.0 -1.0
  outer loop
   vertex 117.34584354292959 17.43 0
   vertex 117.34584354292956 14.069999999999999 0
   vertex 98.44884643381981 15.751679999999999 0
  endloop
 endfacet
 facet normal 0.0 0.0 -1.0
  outer loop
   vertex 117.34584354292956 14.069999999999999 0
   vertex 98.44884643381982 15.74832 0
   vertex 98.44884643381981 15.751679999999999 0
  endloop
 endfacet
 facet normal -4.6954033815917025e-17 -1.0 0.0
  outer loop
   vertex 79.51401749866581 14.07 0
   vertex 117.34584354292956 14.069999999999999 0
   vertex 117.34584354292956 14.069999999999999 0.36
  endloop
 endfacet
 facet normal -4.6954033815917025e-17 -1.0 -0.0
  outer loop
   vertex 79.51401749866581 14.07 0.36
   vertex 79.51401749866581 14.07 0
   vertex 117.34584354292956 14.069999999999999 0.36
  endloop
 endfacet
 facet normal -1.0 0.0 0.0
  outer loop
   vertex 79.51401749866581 17.43 0
   vertex 79.51401749866581 14.07 0
   vertex 79.51401749866581 14.07 0.36
  endloop
 endfacet
 facet normal -1.0 -0.0 -0.0
  outer loop
   vertex 79.51401749866581 17.43 0.36
   vertex 79.51401749866581 17.43 0
   vertex 79.51401749866581 14.07 0.36
  endloop
 endfacet
 facet normal 0.0 1.0 0.0
  outer loop
   vertex 117.34584354292959 17.43 0
   vertex 79.51401749866581 17.43 0
   vertex 79.51401749866581 17.43 0.36
  endloop
 endfacet
 facet normal 0.0 1.0 0.0
  outer loop
   vertex 117.34584354292959 17.43 0.36
   vertex 117.34584354292959 17.43 0
   vertex 79.51401749866581 17.43 0.36
  endloop
 endfacet
 facet normal 1.0 -8.458842092382142e-15 0.0
  outer loop
   vertex 117.34584354292956 14.069999999999999 0
   vertex 117.34584354292959 17.43 0
   vertex 117.34584354292959 17.43 0.36
  endloop
 endfacet
 facet normal 1.0 -8.458842092382142e-15 0.0
  outer loop
   vertex 117.34584354292956 14.069999999999999 0.36
   vertex 117.34584354292956 14.069999999999999 0
   vertex 117.34584354292959 17.43 0.36
  endloop
 endfacet
 facet normal 0.0 1.0 -0.0
  outer loop
   vertex 98.44884643381982 15.74832 0
   vertex 98.41101460777556 15.74832 0
   vertex 98.44884643381982 15.74832 0.36
  endloop
 endfacet
 facet normal 0.0 1.0 0.0
  outer loop
   vertex 98.41101460777556 15.74832 0
   vertex 98.41101460777556 15.74832 0.36
   vertex 98.44884643381982 15.74832 0.36
  endloop
 endfacet
 facet normal 1.0 -4.229421046190197e-12 0.0
  outer loop
   vertex 98.41101460777556 15.74832 0
   vertex 98.41101460777557 15.75168 0
   vertex 98.41101460777556 15.74832 0.36
  endloop
 endfacet
 facet normal 1.0 -4.229421046190197e-12 0.0
  outer loop
   vertex 98.41101460777557 15.75168 0
   vertex 98.41101460777557 15.75168 0.36
   vertex 98.41101460777556 15.74832 0.36
  endloop
 endfacet
 facet normal -4.6954033815946695e-14 -1.0 0.0
  outer loop
   vertex 98.41101460777557 15.75168 0
   vertex 98.44884643381981 15.751679999999999 0
   vertex 98.41101460777557 15.75168 0.36
  endloop
 endfacet
 facet normal -4.6954033815946695e-14 -1.0 0.0
  outer loop
   vertex 98.44884643381981 15.751679999999999 0
   vertex 98.44884643381981 15.751679999999999 0.36
   vertex 98.41101460777557 15.75168 0.36
  endloop
 endfacet
 facet normal -1.0 -4.229421046192433e-12 0.0
  outer loop
   vertex 98.44884643381981 15.751679999999999 0
   vertex 98.44884643381982 15.74832 0
   vertex 98.44884643381981 15.751679999999999 0.36
  endloop
 endfacet
 facet normal -1.0 -4.229421046192433e-12 0.0
  outer loop
   vertex 98.44884643381982 15.74832 0
   vertex 98.44884643381982 15.74832 0.36
   vertex 98.44884643381981 15.751679999999999 0.36
  endloop
 endfacet
 facet normal -0.0 0.0 1.0
  outer loop
   vertex 79.51401749866581 14.07 0.36
   vertex 117.34584354292956 14.069999999999999 0.36
   vertex 98.44884643381982 15.74832 0.36
  endloop
 endfacet
 facet normal -0.0 0.0 1.0
  outer loop
   vertex 98.41101460777556 15.74832 0.36
   vertex 79.51401749866581 14.07 0.36
   vertex 98.44884643381982 15.74832 0.36
  endloop
 endfacet
 facet normal 0.0 0.0 1.0
  outer loop
   vertex 79.51401749866581 17.43 0.36
   vertex 79.51401749866581 14.07 0.36
   vertex 98.41101460777556 15.74832 0.36
  endloop
 endfacet
 facet normal 0.0 0.0 1.0
  outer loop
   vertex 98.41101460777557 15.75168 0.36
   vertex 79.51401749866581 17.43 0.36
   vertex 98.41101460777556 15.74832 0.36
  endloop
 endfacet
 facet normal 0.0 0.0 1.0
  outer loop
   vertex 117.34584354292959 17.43 0.36
   vertex 79.51401749866581 17.43 0.36
   vertex 98.41101460777557 15.75168 0.36
  endloop
 endfacet
 facet normal 0.0 -0.0 1.0
  outer loop
   vertex 98.44884643381981 15.751679999999999 0.36
   vertex 117.34584354292959 17.43 0.36
   vertex 98.41101460777557 15.75168 0.36
  endloop
 endfacet
 facet normal 0.0 -0.0 1.0
  outer loop
   vertex 117.34584354292956 14.069999999999999 0.36
   vertex 117.34584354292959 17.43 0.36
   vertex 98.44884643381981 15.751679999999999 0.36
  endloop
 endfacet
 facet normal -0.0 -0.0 1.0
  outer loop
   vertex 98.44884643381982 15.74832 0.36
   vertex 117.34584354292956 14.069999999999999 0.36
   vertex 98.44884643381981 15.751679999999999 0.36
  endloop
 endfacet
 facet normal 0.0 0.0 -1.0
  outer loop
   vertex 50.497485307600435 14.070000000000004 0
   vertex -0.0003378289811466956 14.070000000000004 0
   vertex 25.27382265087793 15.748320000000003 0
  endloop
 endfacet
 facet normal 0.0 0.0 -1.0
  outer loop
   vertex -0.0003378289811466956 14.070000000000004 0
   vertex 25.223324827741354 15.748320000000003 0
   vertex 25.27382265087793 15.748320000000003 0
  endloop
 endfacet
 facet normal 0.0 0.0 -1.0
  outer loop
   vertex -0.0003378289811466956 14.070000000000004 0
   vertex -0.00033782898114669983 17.430000000000003 0
   vertex 25.223324827741354 15.748320000000003 0
  endloop
 endfacet
 facet normal 0.0 0.0 -1.0
  outer loop
   vertex -0.00033782898114669983 17.430000000000003 0
   vertex 25.223324827741347 15.751680000000004 0
   vertex 25.223324827741354 15.748320000000003 0
  endloop
 endfacet
 facet normal 0.0 0.0 -1.0
  outer loop
   vertex -0.00033782898114669983 17.430000000000003 0
   vertex 50.49748530760042 17.430000000000003 0
   vertex 25.223324827741347 15.751680000000004 0
  endloop
 endfacet
 facet normal 0.0 0.0 -1.0
  outer loop
   vertex 50.49748530760042 17.430000000000003 0
   vertex 25.273822650877936 15.751680000000004 0
   vertex 25.223324827741347 15.751680000000004 0
  endloop
 endfacet
 facet normal 0.0 -0.0 -1.0
  outer loop
   vertex 50.49748530760042 17.430000000000003 0
   vertex 50.497485307600435 14.070000000000004 0
   vertex 25.273822650877936 15.751680000000004 0
  endloop
 endfacet
 facet normal 0.0 0.0 -1.0
  outer loop
   vertex 50.497485307600435 14.070000000000004 0
   vertex 25.27382265087793 15.748320000000003 0
   vertex 25.273822650877936 15.751680000000004 0
  endloop
 endfacet
 facet normal 0.0 -1.0 0.0
  outer loop
   vertex -0.0003378289811466956 14.070000000000004 0
   vertex 50.497485307600435 14.070000000000004 0
   vertex 50.497485307600435 14.070000000000004 0.36
  endloop
 endfacet
 facet normal 0.0 -1.0 0.0
  outer loop
   vertex -0.0003378289811466956 14.070000000000004 0.36
   vertex -0.0003378289811466956 14.070000000000004 0
   vertex 50.497485307600435 14.070000000000004 0.36
  endloop
 endfacet
 facet normal -1.0 -1.2584489502063891e-18 0.0
  outer loop
   vertex -0.00033782898114669983 17.430000000000003 0
   vertex -0.0003378289811466956 14.070000000000004 0
   vertex -0.0003378289811466956 14.070000000000004 0.36
  endloop
 endfacet
 facet normal -1.0 -1.2584489502063891e-18 -0.0
  outer loop
   vertex -0.00033782898114669983 17.430000000000003 0.36
   vertex -0.00033782898114669983 17.430000000000003 0
   vertex -0.0003378289811466956 14.070000000000004 0.36
  endloop
 endfacet
 facet normal 0.0 1.0 0.0
  outer loop
   vertex 50.49748530760042 17.430000000000003 0
   vertex -0.00033782898114669983 17.430000000000003 0
   vertex -0.00033782898114669983 17.430000000000003 0.36
  endloop
 endfacet
 facet normal 0.0 1.0 0.0
  outer loop
   vertex 50.49748530760042 17.430000000000003 0.36
   vertex 50.49748530760042 17.430000000000003 0
   vertex -0.00033782898114669983 17.430000000000003 0.36
  endloop
 endfacet
 facet normal 1.0 4.229421046191073e-15 0.0
  outer loop
   vertex 50.497485307600435 14.070000000000004 0
   vertex 50.49748530760042 17.430000000000003 0
   vertex 50.49748530760042 17.430000000000003 0.36
  endloop
 endfacet
 facet normal 1.0 4.229421046191073e-15 0.0
  outer loop
   vertex 50.497485307600435 14.070000000000004 0.36
   vertex 50.497485307600435 14.070000000000004 0
   vertex 50.49748530760042 17.430000000000003 0.36
  endloop
 endfacet
 facet normal 0.0 1.0 -0.0
  outer loop
   vertex 25.27382265087793 15.748320000000003 0
   vertex 25.223324827741354 15.748320000000003 0
   vertex 25.27382265087793 15.748320000000003 0.36
  endloop
 endfacet
 facet normal 0.0 1.0 0.0
  outer loop
   vertex 25.223324827741354 15.748320000000003 0
   vertex 25.223324827741354 15.748320000000003 0.36
   vertex 25.27382265087793 15.748320000000003 0.36
  endloop
 endfacet
 facet normal 1.0 2.1147105230950987e-12 -0.0
  outer loop
   vertex 25.223324827741354 15.748320000000003 0
   vertex 25.223324827741347 15.751680000000004 0
   vertex 25.223324827741354 15.748320000000003 0.36
  endloop
 endfacet
 facet normal 1.0 2.1147105230950987e-12 -0.0
  outer loop
   vertex 25.223324827741347 15.751680000000004 0
   vertex 25.223324827741347 15.751680000000004 0.36
   vertex 25.223324827741354 15.748320000000003 0.36
  endloop
 endfacet
 facet normal 0.0 -1.0 0.0
  outer loop
   vertex 25.223324827741347 15.751680000000004 0
   vertex 25.273822650877936 15.751680000000004 0
   vertex 25.223324827741347 15.751680000000004 0.36
  endloop
 endfacet
 facet normal 0.0 -1.0 0.0
  outer loop
   vertex 25.273822650877936 15.751680000000004 0
   vertex 25.273822650877936 15.751680000000004 0.36
   vertex 25.223324827741347 15.751680000000004 0.36
  endloop
 endfacet
 facet normal -1.0 2.1147105230950987e-12 0.0
  outer loop
   vertex 25.273822650877936 15.751680000000004 0
   vertex 25.27382265087793 15.748320000000003 0
   vertex 25.273822650877936 15.751680000000004 0.36
  endloop
 endfacet
 facet normal -1.0 2.1147105230950987e-12 0.0
  outer loop
   vertex 25.27382265087793 15.748320000000003 0
   vertex 25.27382265087793 15.748320000000003 0.36
   vertex 25.273822650877936 15.751680000000004 0.36
  endloop
 endfacet
 facet normal 0.0 0.0 1.0
  outer loop
   vertex -0.0003378289811466956 14.070000000000004 0.36
   vertex 50.497485307600435 14.070000000000004 0.36
   vertex 25.27382265087793 15.748320000000003 0.36
  endloop
 endfacet
 facet normal -0.0 0.0 1.0
  outer loop
   vertex 25.223324827741354 15.748320000000003 0.36
   vertex -0.0003378289811466956 14.070000000000004 0.36
   vertex 25.27382265087793 15.748320000000003 0.36
  endloop
 endfacet
 facet normal 0.0 0.0 1.0
  outer loop
   vertex -0.00033782898114669983 17.430000000000003 0.36
   vertex -0.0003378289811466956 14.070000000000004 0.36
   vertex 25.223324827741354 15.748320000000003 0.36
  endloop
 endfacet
 facet normal 0.0 0.0 1.0
  outer loop
   vertex 25.223324827741347 15.751680000000004 0.36
   vertex -0.00033782898114669983 17.430000000000003 0.36
   vertex 25.223324827741354 15.748320000000003 0.36
  endloop
 endfacet
 facet normal 0.0 0.0 1.0
  outer loop
   vertex 50.49748530760042 17.430000000000003 0.36
   vertex -0.00033782898114669983 17.430000000000003 0.36
   vertex 25.223324827741347 15.751680000000004 0.36
  endloop
 endfacet
 facet normal 0.0 -0.0 1.0
  outer loop
   vertex 25.273822650877936 15.751680000000004 0.36
   vertex 50.49748530760042 17.430000000000003 0.36
   vertex 25.223324827741347 15.751680000000004 0.36
  endloop
 endfacet
 facet normal 0.0 0.0 1.0
  outer loop
   vertex 50.497485307600435 14.070000000000004 0.36
   vertex 50.49748530760042 17.430000000000003 0.36
   vertex 25.273822650877936 15.751680000000004 0.36
  endloop
 endfacet
 facet normal -0.0 0.0 1.0
  outer loop
   vertex 25.27382265087793 15.748320000000003 0.36
   vertex 50.497485307600435 14.070000000000004 0.36
   vertex 25.273822650877936 15.751680000000004 0.36
  endloop
 endfacet
 facet normal 0.0 0.0 -1.0
  outer loop
   vertex 117.34584354292956 14.069999999999999 0
   vertex 79.51401749866581 14.07 0
   vertex 98.44884643381982 15.74832 0
  endloop
 endfacet
 facet normal 0.0 0.0 -1.0
  outer loop
   vertex 79.51401749866581 14.07 0
   vertex 98.41101460777556 15.74832 0
   vertex 98.44884643381982 15.74832 0
  endloop
 endfacet
 facet normal 0.0 0.0 -1.0
  outer loop
   vertex 79.51401749866581 14.07 0
   vertex 79.51401749866581 17.43 0
   vertex 98.41101460777556 15.74832 0
  endloop
 endfacet
 facet normal 0.0 0.0 -1.0
  outer loop
   vertex 79.51401749866581 17.43 0
   vertex 98.41101460777557 15.75168 0
   vertex 98.41101460777556 15.74832 0
  endloop
 endfacet
 facet normal 0.0 0.0 -1.0
  outer loop
   vertex 79.51401749866581 17.43 0
   vertex 117.34584354292959 17.43 0
   vertex 98.41101460777557 15.75168 0
  endloop
 endfacet
 facet normal 0.0 0.0 -1.0
  outer loop
   vertex 117.34584354292959 17.43 0
   vertex 98.44884643381981 15.751679999999999 0
   vertex 98.41101460777557 15.75168 0
  endloop
 endfacet
 facet normal 0.0 0.0 -1.0
  outer loop
   vertex 117.34584354292959 17.43 0
   vertex 117.34584354292956 14.069999999999999 0
   vertex 98.44884643381981 15.751679999999999 0
  endloop
 endfacet
 facet normal 0.0 0.0 -1.0
  outer loop
   vertex 117.34584354292956 14.069999999999999 0
   vertex 98.44884643381982 15.74832 0
   vertex 98.44884643381981 15.751679999999999 0
  endloop
 endfacet
 facet normal -4.6954033815917025e-17 -1.0 0.0
  outer loop
   vertex 79.51401749866581 14.07 0
   vertex 117.34584354292956 14.069999999999999 0
   vertex 117.34584354292956 14.069999999999999 0.36
  endloop
 endfacet
 facet normal -4.6954033815917025e-17 -1.0 -0.0
  outer loop
   vertex 79.51401749866581 14.07 0.36
   vertex 79.51401749866581 14.07 0
   vertex 117.34584354292956 14.069999999999999 0.36
  endloop
 endfacet
 facet normal -1.0 0.0 0.0
  outer loop
   vertex 79.51401749866581 17.43 0
   vertex 79.51401749866581 14.07 0
   vertex 79.51401749866581 14.07 0.36
  endloop
 endfacet
 facet normal -1.0 -0.0 -0.0
  outer loop
   vertex 79.51401749866581 17.43 0.36
   vertex 79.51401749866581 17.43 0
   vertex 79.51401749866581 14.07 0.36
  endloop
 endfacet
 facet normal 0.0 1.0 0.0
  outer loop
   vertex 117.34584354292959 17.43 0
   vertex 79.51401749866581 17.43 0
   vertex 79.51401749866581 17.43 0.36
  endloop
 endfacet
 facet normal 0.0 1.0 0.0
  outer loop
   vertex 117.34584354292959 17.43 0.36
   vertex 117.34584354292959 17.43 0
   vertex 79.51401749866581 17.43 0.36
  endloop
 endfacet
 facet normal 1.0 -8.458842092382142e-15 0.0
  outer loop
   vertex 117.34584354292956 14.069999999999999 0
   vertex 117.34584354292959 17.43 0
   vertex 117.34584354292959 17.43 0.36
  endloop
 endfacet
 facet normal 1.0 -8.458842092382142e-15 0.0
  outer loop
   vertex 117.34584354292956 14.069999999999999 0.36
   vertex 117.34584354292956 14.069999999999999 0
   vertex 117.34584354292959 17.43 0.36
  endloop
 endfacet
 facet normal 0.0 1.0 -0.0
  outer loop
   vertex 98.44884643381982 15.74832 0
   vertex 98.41101460777556 15.74832 0
   vertex 98.44884643381982 15.74832 0.36
  endloop
 endfacet
 facet normal 0.0 1.0 0.0
  outer loop
   vertex 98.41101460777556 15.74832 0
   vertex 98.41101460777556 15.74832 0.36
   vertex 98.44884643381982 15.74832 0.36
  endloop
 endfacet
 facet normal 1.0 -4.229421046190197e-12 0.0
  outer loop
   vertex 98.41101460777556 15.74832 0
   vertex 98.41101460777557 15.75168 0
   vertex 98.41101460777556 15.74832 0.36
  endloop
 endfacet
 facet normal 1.0 -4.229421046190197e-12 0.0
  outer loop
   vertex 98.41101460777557 15.75168 0
   vertex 98.41101460777557 15.75168 0.36
   vertex 98.41101460777556 15.74832 0.36
  endloop
 endfacet
 facet normal -4.6954033815946695e-14 -1.0 0.0
  outer loop
   vertex 98.41101460777557 15.75168 0
   vertex 98.44884643381981 15.751679999999999 0
   vertex 98.41101460777557 15.75168 0.36
  endloop
 endfacet
 facet normal -4.6954033815946695e-14 -1.0 0.0
  outer loop
   vertex 98.44884643381981 15.751679999999999 0
   vertex 98.44884643381981 15.751679999999999 0.36
   vertex 98.41101460777557 15.75168 0.36
  endloop
 endfacet
 facet normal -1.0 -4.229421046192433e-12 0.0
  outer loop
   vertex 98.44884643381981 15.751679999999999 0
   vertex 98.44884643381982 15.74832 0
   vertex 98.44884643381981 15.751679999999999 0.36
  endloop
 endfacet
 facet normal -1.0 -4.229421046192433e-12 0.0
  outer loop
   vertex 98.44884643381982 15.74832 0
   vertex 98.44884643381982 15.74832 0.36
   vertex 98.44884643381981 15.751679999999999 0.36
  endloop
 endfacet
 facet normal -0.0 0.0 1.0
  outer loop
   vertex 79.51401749866581 14.07 0.36
   vertex 117.34584354292956 14.069999999999999 0.36
   vertex 98.44884643381982 15.74832 0.36
  endloop
 endfacet
 facet normal -0.0 0.0 1.0
  outer loop
   vertex 98.41101460777556 15.74832 0.36
   vertex 79.51401749866581 14.07 0.36
   vertex 98.44884643381982 15.74832 0.36
  endloop
 endfacet
 facet normal 0.0 0.0 1.0
  outer loop
   vertex 79.51401749866581 17.43 0.36
   vertex 79.51401749866581 14.07 0.36
   vertex 98.41101460777556 15.74832 0.36
  endloop
 endfacet
 facet normal 0.0 0.0 1.0
  outer loop
   vertex 98.41101460777557 15.75168 0.36
   vertex 79.51401749866581 17.43 0.36
   vertex 98.41101460777556 15.74832 0.36
  endloop
 endfacet
 facet normal 0.0 0.0 1.0
  outer loop
   vertex 117.34584354292959 17.43 0.36
   vertex 79.51401749866581 17.43 0.36
   vertex 98.41101460777557 15.75168 0.36
  endloop
 endfacet
 facet normal 0.0 -0.0 1.0
  outer loop
   vertex 98.44884643381981 15.751679999999999 0.36
   vertex 117.34584354292959 17.43 0.36
   vertex 98.41101460777557 15.75168 0.36
  endloop
 endfacet
 facet normal 0.0 -0.0 1.0
  outer loop
   vertex 117.34584354292956 14.069999999999999 0.36
   vertex 117.34584354292959 17.43 0.36
   vertex 98.44884643381981 15.751679999999999 0.36
  endloop
 endfacet
 facet normal -0.0 -0.0 1.0
  outer loop
   vertex 98.44884643381982 15.74832 0.36
   vertex 117.34584354292956 14.069999999999999 0.36
   vertex 98.44884643381981 15.751679999999999 0.36
  endloop
 endfacet
endsolid
