solid PyGamic generated __All_Crease__ SLA File
 facet normal 0.0 0.0 -1.0
  outer loop
   vertex 43.627778885053594 20.82 0
   vertex -0.000337828981146697 20.82 0
   vertex 21.835534586393234 22.498320000000003 0
  endloop
 endfacet
 facet normal 0.0 0.0 -1.0
  outer loop
   vertex -0.000337828981146697 20.82 0
   vertex 21.79190646967921 22.49832 0
   vertex 21.835534586393234 22.498320000000003 0
  endloop
 endfacet
 facet normal 0.0 0.0 -1.0
  outer loop
   vertex -0.000337828981146697 20.82 0
   vertex -0.000337828981146697 24.18 0
   vertex 21.79190646967921 22.49832 0
  endloop
 endfacet
 facet normal 0.0 0.0 -1.0
  outer loop
   vertex -0.000337828981146697 24.18 0
   vertex 21.7919064696792 22.50168 0
   vertex 21.79190646967921 22.49832 0
  endloop
 endfacet
 facet normal 0.0 0.0 -1.0
  outer loop
   vertex -0.000337828981146697 24.18 0
   vertex 43.62777888505358 24.180000000000003 0
   vertex 21.7919064696792 22.50168 0
  endloop
 endfacet
 facet normal 0.0 0.0 -1.0
  outer loop
   vertex 43.62777888505358 24.180000000000003 0
   vertex 21.83553458639324 22.50168 0
   vertex 21.7919064696792 22.50168 0
  endloop
 endfacet
 facet normal 0.0 -0.0 -1.0
  outer loop
   vertex 43.62777888505358 24.180000000000003 0
   vertex 43.627778885053594 20.82 0
   vertex 21.83553458639324 22.50168 0
  endloop
 endfacet
 facet normal 0.0 0.0 -1.0
  outer loop
   vertex 43.627778885053594 20.82 0
   vertex 21.835534586393234 22.498320000000003 0
   vertex 21.83553458639324 22.50168 0
  endloop
 endfacet
 facet normal 0.0 -1.0 0.0
  outer loop
   vertex -0.000337828981146697 20.82 0
   vertex 43.627778885053594 20.82 0
   vertex 43.627778885053594 20.82 0.36
  endloop
 endfacet
 facet normal 0.0 -1.0 0.0
  outer loop
   vertex -0.000337828981146697 20.82 0.36
   vertex -0.000337828981146697 20.82 0
   vertex 43.627778885053594 20.82 0.36
  endloop
 endfacet
 facet normal -1.0 0.0 0.0
  outer loop
   vertex -0.000337828981146697 24.18 0
   vertex -0.000337828981146697 20.82 0
   vertex -0.000337828981146697 20.82 0.36
  endloop
 endfacet
 facet normal -1.0 -0.0 -0.0
  outer loop
   vertex -0.000337828981146697 24.18 0.36
   vertex -0.000337828981146697 24.18 0
   vertex -0.000337828981146697 20.82 0.36
  endloop
 endfacet
 facet normal -8.143174508510538e-17 1.0 0.0
  outer loop
   vertex 43.62777888505358 24.180000000000003 0
   vertex -0.000337828981146697 24.18 0
   vertex -0.000337828981146697 24.18 0.36
  endloop
 endfacet
 facet normal -8.143174508510538e-17 1.0 0.0
  outer loop
   vertex 43.62777888505358 24.180000000000003 0.36
   vertex 43.62777888505358 24.180000000000003 0
   vertex -0.000337828981146697 24.18 0.36
  endloop
 endfacet
 facet normal 1.0 4.2294210461910686e-15 0.0
  outer loop
   vertex 43.627778885053594 20.82 0
   vertex 43.62777888505358 24.180000000000003 0
   vertex 43.62777888505358 24.180000000000003 0.36
  endloop
 endfacet
 facet normal 1.0 4.2294210461910686e-15 0.0
  outer loop
   vertex 43.627778885053594 20.82 0.36
   vertex 43.627778885053594 20.82 0
   vertex 43.62777888505358 24.180000000000003 0.36
  endloop
 endfacet
 facet normal -8.143174508512332e-14 1.0 0.0
  outer loop
   vertex 21.835534586393234 22.498320000000003 0
   vertex 21.79190646967921 22.49832 0
   vertex 21.835534586393234 22.498320000000003 0.36
  endloop
 endfacet
 facet normal -8.143174508512332e-14 1.0 0.0
  outer loop
   vertex 21.79190646967921 22.49832 0
   vertex 21.79190646967921 22.49832 0.36
   vertex 21.835534586393234 22.498320000000003 0.36
  endloop
 endfacet
 facet normal 1.0 2.1147105230950987e-12 -0.0
  outer loop
   vertex 21.79190646967921 22.49832 0
   vertex 21.7919064696792 22.50168 0
   vertex 21.79190646967921 22.49832 0.36
  endloop
 endfacet
 facet normal 1.0 2.1147105230950987e-12 -0.0
  outer loop
   vertex 21.7919064696792 22.50168 0
   vertex 21.7919064696792 22.50168 0.36
   vertex 21.79190646967921 22.49832 0.36
  endloop
 endfacet
 facet normal 0.0 -1.0 0.0
  outer loop
   vertex 21.7919064696792 22.50168 0
   vertex 21.83553458639324 22.50168 0
   vertex 21.7919064696792 22.50168 0.36
  endloop
 endfacet
 facet normal 0.0 -1.0 0.0
  outer loop
   vertex 21.83553458639324 22.50168 0
   vertex 21.83553458639324 22.50168 0.36
   vertex 21.7919064696792 22.50168 0.36
  endloop
 endfacet
 facet normal -1.0 2.1147105230973342e-12 0.0
  outer loop
   vertex 21.83553458639324 22.50168 0
   vertex 21.835534586393234 22.498320000000003 0
   vertex 21.83553458639324 22.50168 0.36
  endloop
 endfacet
 facet normal -1.0 2.1147105230973342e-12 0.0
  outer loop
   vertex 21.835534586393234 22.498320000000003 0
   vertex 21.835534586393234 22.498320000000003 0.36
   vertex 21.83553458639324 22.50168 0.36
  endloop
 endfacet
 facet normal 0.0 0.0 1.0
  outer loop
   vertex -0.000337828981146697 20.82 0.36
   vertex 43.627778885053594 20.82 0.36
   vertex 21.835534586393234 22.498320000000003 0.36
  endloop
 endfacet
 facet normal -0.0 0.0 1.0
  outer loop
   vertex 21.79190646967921 22.49832 0.36
   vertex -0.000337828981146697 20.82 0.36
   vertex 21.835534586393234 22.498320000000003 0.36
  endloop
 endfacet
 facet normal 0.0 0.0 1.0
  outer loop
   vertex -0.000337828981146697 24.18 0.36
   vertex -0.000337828981146697 20.82 0.36
   vertex 21.79190646967921 22.49832 0.36
  endloop
 endfacet
 facet normal 0.0 0.0 1.0
  outer loop
   vertex 21.7919064696792 22.50168 0.36
   vertex -0.000337828981146697 24.18 0.36
   vertex 21.79190646967921 22.49832 0.36
  endloop
 endfacet
 facet normal 0.0 0.0 1.0
  outer loop
   vertex 43.62777888505358 24.180000000000003 0.36
   vertex -0.000337828981146697 24.18 0.36
   vertex 21.7919064696792 22.50168 0.36
  endloop
 endfacet
 facet normal 0.0 -0.0 1.0
  outer loop
   vertex 21.83553458639324 22.50168 0.36
   vertex 43.62777888505358 24.180000000000003 0.36
   vertex 21.7919064696792 22.50168 0.36
  endloop
 endfacet
 facet normal 0.0 0.0 1.0
  outer loop
   vertex 43.627778885053594 20.82 0.36
   vertex 43.62777888505358 24.180000000000003 0.36
   vertex 21.83553458639324 22.50168 0.36
  endloop
 endfacet
 facet normal -0.0 0.0 1.0
  outer loop
   vertex 21.835534586393234 22.498320000000003 0.36
   vertex 43.627778885053594 20.82 0.36
   vertex 21.83553458639324 22.50168 0.36
  endloop
 endfacet
 facet normal 0.0 0.0 -1.0
  outer loop
   vertex 17.738648080138255 0.001 0
   vertex 43.627778885053594 20.82 0
   vertex 33.34842614067565 10.4000905 0
  endloop
 endfacet
 facet normal 0.0 0.0 -1.0
  outer loop
   vertex 43.627778885053594 20.82 0
   vertex 33.37431527148057 10.420909500000004 0
   vertex 33.34842614067565 10.4000905 0
  endloop
 endfacet
 facet normal 0.0 -0.0 -1.0
  outer loop
   vertex 43.627778885053594 20.82 0
   vertex 48.98945500814105 20.820000000000007 0
   vertex 33.37431527148057 10.420909500000004 0
  endloop
 endfacet
 facet normal 0.0 0.0 -1.0
  outer loop
   vertex 48.98945500814105 20.820000000000007 0
   vertex 33.379676947603656 10.4209095 0
   vertex 33.37431527148057 10.420909500000004 0
  endloop
 endfacet
 facet normal 0.0 0.0 -1.0
  outer loop
   vertex 48.98945500814105 20.820000000000007 0
   vertex 23.100324203225707 0.001 0
   vertex 33.379676947603656 10.4209095 0
  endloop
 endfacet
 facet normal 0.0 0.0 -1.0
  outer loop
   vertex 23.100324203225707 0.001 0
   vertex 33.353787816798736 10.400090500000003 0
   vertex 33.379676947603656 10.4209095 0
  endloop
 endfacet
 facet normal 0.0 0.0 -1.0
  outer loop
   vertex 23.100324203225707 0.001 0
   vertex 17.738648080138255 0.001 0
   vertex 33.353787816798736 10.400090500000003 0
  endloop
 endfacet
 facet normal 0.0 0.0 -1.0
  outer loop
   vertex 17.738648080138255 0.001 0
   vertex 33.34842614067565 10.4000905 0
   vertex 33.353787816798736 10.400090500000003 0
  endloop
 endfacet
 facet normal -0.6266697060517687 0.7792849796557033 0.0
  outer loop
   vertex 43.627778885053594 20.82 0
   vertex 17.738648080138255 0.001 0
   vertex 17.738648080138255 0.001 0.36
  endloop
 endfacet
 facet normal -0.6266697060517687 0.7792849796557033 0.0
  outer loop
   vertex 43.627778885053594 20.82 0.36
   vertex 43.627778885053594 20.82 0
   vertex 17.738648080138255 0.001 0.36
  endloop
 endfacet
 facet normal -1.3252250218928606e-15 1.0 0.0
  outer loop
   vertex 48.98945500814105 20.820000000000007 0
   vertex 43.627778885053594 20.82 0
   vertex 43.627778885053594 20.82 0.36
  endloop
 endfacet
 facet normal -1.3252250218928606e-15 1.0 0.0
  outer loop
   vertex 48.98945500814105 20.820000000000007 0.36
   vertex 48.98945500814105 20.820000000000007 0
   vertex 43.627778885053594 20.82 0.36
  endloop
 endfacet
 facet normal 0.6266697060517687 -0.7792849796557031 0.0
  outer loop
   vertex 23.100324203225707 0.001 0
   vertex 48.98945500814105 20.820000000000007 0
   vertex 48.98945500814105 20.820000000000007 0.36
  endloop
 endfacet
 facet normal 0.6266697060517687 -0.7792849796557031 0.0
  outer loop
   vertex 23.100324203225707 0.001 0.36
   vertex 23.100324203225707 0.001 0
   vertex 48.98945500814105 20.820000000000007 0.36
  endloop
 endfacet
 facet normal 0.0 -1.0 0.0
  outer loop
   vertex 17.738648080138255 0.001 0
   vertex 23.100324203225707 0.001 0
   vertex 23.100324203225707 0.001 0.36
  endloop
 endfacet
 facet normal 0.0 -1.0 0.0
  outer loop
   vertex 17.738648080138255 0.001 0.36
   vertex 17.738648080138255 0.001 0
   vertex 23.100324203225707 0.001 0.36
  endloop
 endfacet
 facet normal 0.6266697060517872 -0.7792849796556884 0.0
  outer loop
   vertex 33.34842614067565 10.4000905 0
   vertex 33.37431527148057 10.420909500000004 0
   vertex 33.34842614067565 10.4000905 0.36
  endloop
 endfacet
 facet normal 0.6266697060517872 -0.7792849796556884 0.0
  outer loop
   vertex 33.37431527148057 10.420909500000004 0
   vertex 33.37431527148057 10.420909500000004 0.36
   vertex 33.34842614067565 10.4000905 0.36
  endloop
 endfacet
 facet normal -6.626125109464839e-13 -1.0 0.0
  outer loop
   vertex 33.37431527148057 10.420909500000004 0
   vertex 33.379676947603656 10.4209095 0
   vertex 33.37431527148057 10.420909500000004 0.36
  endloop
 endfacet
 facet normal -6.626125109464839e-13 -1.0 0.0
  outer loop
   vertex 33.379676947603656 10.4209095 0
   vertex 33.379676947603656 10.4209095 0.36
   vertex 33.37431527148057 10.420909500000004 0.36
  endloop
 endfacet
 facet normal -0.6266697060516573 0.7792849796557928 0.0
  outer loop
   vertex 33.379676947603656 10.4209095 0
   vertex 33.353787816798736 10.400090500000003 0
   vertex 33.379676947603656 10.4209095 0.36
  endloop
 endfacet
 facet normal -0.6266697060516573 0.7792849796557928 0.0
  outer loop
   vertex 33.353787816798736 10.400090500000003 0
   vertex 33.353787816798736 10.400090500000003 0.36
   vertex 33.379676947603656 10.4209095 0.36
  endloop
 endfacet
 facet normal -6.626125109464839e-13 1.0 0.0
  outer loop
   vertex 33.353787816798736 10.400090500000003 0
   vertex 33.34842614067565 10.4000905 0
   vertex 33.353787816798736 10.400090500000003 0.36
  endloop
 endfacet
 facet normal -6.626125109464839e-13 1.0 0.0
  outer loop
   vertex 33.34842614067565 10.4000905 0
   vertex 33.34842614067565 10.4000905 0.36
   vertex 33.353787816798736 10.400090500000003 0.36
  endloop
 endfacet
 facet normal 0.0 0.0 1.0
  outer loop
   vertex 43.627778885053594 20.82 0.36
   vertex 17.738648080138255 0.001 0.36
   vertex 33.34842614067565 10.4000905 0.36
  endloop
 endfacet
 facet normal 0.0 -0.0 1.0
  outer loop
   vertex 33.37431527148057 10.420909500000004 0.36
   vertex 43.627778885053594 20.82 0.36
   vertex 33.34842614067565 10.4000905 0.36
  endloop
 endfacet
 facet normal 0.0 0.0 1.0
  outer loop
   vertex 48.98945500814105 20.820000000000007 0.36
   vertex 43.627778885053594 20.82 0.36
   vertex 33.37431527148057 10.420909500000004 0.36
  endloop
 endfacet
 facet normal 0.0 -0.0 1.0
  outer loop
   vertex 33.379676947603656 10.4209095 0.36
   vertex 48.98945500814105 20.820000000000007 0.36
   vertex 33.37431527148057 10.420909500000004 0.36
  endloop
 endfacet
 facet normal 0.0 0.0 1.0
  outer loop
   vertex 23.100324203225707 0.001 0.36
   vertex 48.98945500814105 20.820000000000007 0.36
   vertex 33.379676947603656 10.4209095 0.36
  endloop
 endfacet
 facet normal -0.0 0.0 1.0
  outer loop
   vertex 33.353787816798736 10.400090500000003 0.36
   vertex 23.100324203225707 0.001 0.36
   vertex 33.379676947603656 10.4209095 0.36
  endloop
 endfacet
 facet normal 0.0 0.0 1.0
  outer loop
   vertex 17.738648080138255 0.001 0.36
   vertex 23.100324203225707 0.001 0.36
   vertex 33.353787816798736 10.400090500000003 0.36
  endloop
 endfacet
 facet normal -0.0 0.0 1.0
  outer loop
   vertex 33.34842614067565 10.4000905 0.36
   vertex 17.738648080138255 0.001 0.36
   vertex 33.353787816798736 10.400090500000003 0.36
  endloop
 endfacet
 facet normal 0.0 0.0 -1.0
  outer loop
   vertex 43.62777888505358 24.180000000000003 0
   vertex 17.73864808013824 44.998999999999995 0
   vertex 33.37431527148054 34.5790905 0
  endloop
 endfacet
 facet normal 0.0 0.0 -1.0
  outer loop
   vertex 17.73864808013824 44.998999999999995 0
   vertex 33.34842614067563 34.599909499999995 0
   vertex 33.37431527148054 34.5790905 0
  endloop
 endfacet
 facet normal 0.0 0.0 -1.0
  outer loop
   vertex 17.73864808013824 44.998999999999995 0
   vertex 23.100324203225686 44.998999999999995 0
   vertex 33.34842614067563 34.599909499999995 0
  endloop
 endfacet
 facet normal 0.0 0.0 -1.0
  outer loop
   vertex 23.100324203225686 44.998999999999995 0
   vertex 33.353787816798715 34.5999095 0
   vertex 33.34842614067563 34.599909499999995 0
  endloop
 endfacet
 facet normal 0.0 0.0 -1.0
  outer loop
   vertex 23.100324203225686 44.998999999999995 0
   vertex 48.989455008141015 24.180000000000007 0
   vertex 33.353787816798715 34.5999095 0
  endloop
 endfacet
 facet normal 0.0 0.0 -1.0
  outer loop
   vertex 48.989455008141015 24.180000000000007 0
   vertex 33.379676947603635 34.5790905 0
   vertex 33.353787816798715 34.5999095 0
  endloop
 endfacet
 facet normal -0.0 0.0 -1.0
  outer loop
   vertex 48.989455008141015 24.180000000000007 0
   vertex 43.62777888505358 24.180000000000003 0
   vertex 33.379676947603635 34.5790905 0
  endloop
 endfacet
 facet normal 0.0 0.0 -1.0
  outer loop
   vertex 43.62777888505358 24.180000000000003 0
   vertex 33.37431527148054 34.5790905 0
   vertex 33.379676947603635 34.5790905 0
  endloop
 endfacet
 facet normal -0.6266697060517685 -0.7792849796557033 0.0
  outer loop
   vertex 17.73864808013824 44.998999999999995 0
   vertex 43.62777888505358 24.180000000000003 0
   vertex 43.62777888505358 24.180000000000003 0.36
  endloop
 endfacet
 facet normal -0.6266697060517685 -0.7792849796557033 -0.0
  outer loop
   vertex 17.73864808013824 44.998999999999995 0.36
   vertex 17.73864808013824 44.998999999999995 0
   vertex 43.62777888505358 24.180000000000003 0.36
  endloop
 endfacet
 facet normal 0.0 1.0 0.0
  outer loop
   vertex 23.100324203225686 44.998999999999995 0
   vertex 17.73864808013824 44.998999999999995 0
   vertex 17.73864808013824 44.998999999999995 0.36
  endloop
 endfacet
 facet normal 0.0 1.0 0.0
  outer loop
   vertex 23.100324203225686 44.998999999999995 0.36
   vertex 23.100324203225686 44.998999999999995 0
   vertex 17.73864808013824 44.998999999999995 0.36
  endloop
 endfacet
 facet normal 0.6266697060517686 0.7792849796557033 0.0
  outer loop
   vertex 48.989455008141015 24.180000000000007 0
   vertex 23.100324203225686 44.998999999999995 0
   vertex 23.100324203225686 44.998999999999995 0.36
  endloop
 endfacet
 facet normal 0.6266697060517686 0.7792849796557033 0.0
  outer loop
   vertex 48.989455008141015 24.180000000000007 0.36
   vertex 48.989455008141015 24.180000000000007 0
   vertex 23.100324203225686 44.998999999999995 0.36
  endloop
 endfacet
 facet normal 6.62612510946433e-16 -1.0 0.0
  outer loop
   vertex 43.62777888505358 24.180000000000003 0
   vertex 48.989455008141015 24.180000000000007 0
   vertex 48.989455008141015 24.180000000000007 0.36
  endloop
 endfacet
 facet normal 6.62612510946433e-16 -1.0 0.0
  outer loop
   vertex 43.62777888505358 24.180000000000003 0.36
   vertex 43.62777888505358 24.180000000000003 0
   vertex 48.989455008141015 24.180000000000007 0.36
  endloop
 endfacet
 facet normal 0.6266697060517293 0.779284979655735 -0.0
  outer loop
   vertex 33.37431527148054 34.5790905 0
   vertex 33.34842614067563 34.599909499999995 0
   vertex 33.37431527148054 34.5790905 0.36
  endloop
 endfacet
 facet normal 0.6266697060517293 0.779284979655735 -0.0
  outer loop
   vertex 33.34842614067563 34.599909499999995 0
   vertex 33.34842614067563 34.599909499999995 0.36
   vertex 33.37431527148054 34.5790905 0.36
  endloop
 endfacet
 facet normal 1.3252250218929678e-12 -1.0 0.0
  outer loop
   vertex 33.34842614067563 34.599909499999995 0
   vertex 33.353787816798715 34.5999095 0
   vertex 33.34842614067563 34.599909499999995 0.36
  endloop
 endfacet
 facet normal 1.3252250218929678e-12 -1.0 0.0
  outer loop
   vertex 33.353787816798715 34.5999095 0
   vertex 33.353787816798715 34.5999095 0.36
   vertex 33.34842614067563 34.599909499999995 0.36
  endloop
 endfacet
 facet normal -0.6266697060517546 -0.7792849796557145 0.0
  outer loop
   vertex 33.353787816798715 34.5999095 0
   vertex 33.379676947603635 34.5790905 0
   vertex 33.353787816798715 34.5999095 0.36
  endloop
 endfacet
 facet normal -0.6266697060517546 -0.7792849796557145 0.0
  outer loop
   vertex 33.379676947603635 34.5790905 0
   vertex 33.379676947603635 34.5790905 0.36
   vertex 33.353787816798715 34.5999095 0.36
  endloop
 endfacet
 facet normal 0.0 1.0 -0.0
  outer loop
   vertex 33.379676947603635 34.5790905 0
   vertex 33.37431527148054 34.5790905 0
   vertex 33.379676947603635 34.5790905 0.36
  endloop
 endfacet
 facet normal 0.0 1.0 0.0
  outer loop
   vertex 33.37431527148054 34.5790905 0
   vertex 33.37431527148054 34.5790905 0.36
   vertex 33.379676947603635 34.5790905 0.36
  endloop
 endfacet
 facet normal 0.0 0.0 1.0
  outer loop
   vertex 17.73864808013824 44.998999999999995 0.36
   vertex 43.62777888505358 24.180000000000003 0.36
   vertex 33.37431527148054 34.5790905 0.36
  endloop
 endfacet
 facet normal 0.0 0.0 1.0
  outer loop
   vertex 33.34842614067563 34.599909499999995 0.36
   vertex 17.73864808013824 44.998999999999995 0.36
   vertex 33.37431527148054 34.5790905 0.36
  endloop
 endfacet
 facet normal 0.0 0.0 1.0
  outer loop
   vertex 23.100324203225686 44.998999999999995 0.36
   vertex 17.73864808013824 44.998999999999995 0.36
   vertex 33.34842614067563 34.599909499999995 0.36
  endloop
 endfacet
 facet normal 0.0 0.0 1.0
  outer loop
   vertex 33.353787816798715 34.5999095 0.36
   vertex 23.100324203225686 44.998999999999995 0.36
   vertex 33.34842614067563 34.599909499999995 0.36
  endloop
 endfacet
 facet normal 0.0 0.0 1.0
  outer loop
   vertex 48.989455008141015 24.180000000000007 0.36
   vertex 23.100324203225686 44.998999999999995 0.36
   vertex 33.353787816798715 34.5999095 0.36
  endloop
 endfacet
 facet normal -0.0 -0.0 1.0
  outer loop
   vertex 33.379676947603635 34.5790905 0.36
   vertex 48.989455008141015 24.180000000000007 0.36
   vertex 33.353787816798715 34.5999095 0.36
  endloop
 endfacet
 facet normal 0.0 -0.0 1.0
  outer loop
   vertex 43.62777888505358 24.180000000000003 0.36
   vertex 48.989455008141015 24.180000000000007 0.36
   vertex 33.379676947603635 34.5790905 0.36
  endloop
 endfacet
 facet normal -0.0 0.0 1.0
  outer loop
   vertex 33.37431527148054 34.5790905 0.36
   vertex 43.62777888505358 24.180000000000003 0.36
   vertex 33.379676947603635 34.5790905 0.36
  endloop
 endfacet
 facet normal 0.0 0.0 -1.0
  outer loop
   vertex 65.7492497243202 20.820000000000007 0
   vertex 48.98945500814105 20.820000000000007 0
   vertex 57.37773226358871 22.498320000000007 0
  endloop
 endfacet
 facet normal 0.0 0.0 -1.0
  outer loop
   vertex 48.98945500814105 20.820000000000007 0
   vertex 57.36097246887252 22.498320000000007 0
   vertex 57.37773226358871 22.498320000000007 0
  endloop
 endfacet
 facet normal 0.0 0.0 -1.0
  outer loop
   vertex 48.98945500814105 20.820000000000007 0
   vertex 48.989455008141015 24.180000000000007 0
   vertex 57.36097246887252 22.498320000000007 0
  endloop
 endfacet
 facet normal 0.0 0.0 -1.0
  outer loop
   vertex 48.989455008141015 24.180000000000007 0
   vertex 57.36097246887253 22.501680000000007 0
   vertex 57.36097246887252 22.498320000000007 0
  endloop
 endfacet
 facet normal 0.0 0.0 -1.0
  outer loop
   vertex 48.989455008141015 24.180000000000007 0
   vertex 65.7492497243202 24.180000000000007 0
   vertex 57.36097246887253 22.501680000000007 0
  endloop
 endfacet
 facet normal 0.0 0.0 -1.0
  outer loop
   vertex 65.7492497243202 24.180000000000007 0
   vertex 57.3777322635887 22.501680000000007 0
   vertex 57.36097246887253 22.501680000000007 0
  endloop
 endfacet
 facet normal 0.0 -0.0 -1.0
  outer loop
   vertex 65.7492497243202 24.180000000000007 0
   vertex 65.7492497243202 20.820000000000007 0
   vertex 57.3777322635887 22.501680000000007 0
  endloop
 endfacet
 facet normal 0.0 0.0 -1.0
  outer loop
   vertex 65.7492497243202 20.820000000000007 0
   vertex 57.37773226358871 22.498320000000007 0
   vertex 57.3777322635887 22.501680000000007 0
  endloop
 endfacet
 facet normal 0.0 -1.0 0.0
  outer loop
   vertex 48.98945500814105 20.820000000000007 0
   vertex 65.7492497243202 20.820000000000007 0
   vertex 65.7492497243202 20.820000000000007 0.36
  endloop
 endfacet
 facet normal 0.0 -1.0 0.0
  outer loop
   vertex 48.98945500814105 20.820000000000007 0.36
   vertex 48.98945500814105 20.820000000000007 0
   vertex 65.7492497243202 20.820000000000007 0.36
  endloop
 endfacet
 facet normal -1.0 -1.0573552615477682e-14 0.0
  outer loop
   vertex 48.989455008141015 24.180000000000007 0
   vertex 48.98945500814105 20.820000000000007 0
   vertex 48.98945500814105 20.820000000000007 0.36
  endloop
 endfacet
 facet normal -1.0 -1.0573552615477682e-14 -0.0
  outer loop
   vertex 48.989455008141015 24.180000000000007 0.36
   vertex 48.989455008141015 24.180000000000007 0
   vertex 48.98945500814105 20.820000000000007 0.36
  endloop
 endfacet
 facet normal 0.0 1.0 0.0
  outer loop
   vertex 65.7492497243202 24.180000000000007 0
   vertex 48.989455008141015 24.180000000000007 0
   vertex 48.989455008141015 24.180000000000007 0.36
  endloop
 endfacet
 facet normal 0.0 1.0 0.0
  outer loop
   vertex 65.7492497243202 24.180000000000007 0.36
   vertex 65.7492497243202 24.180000000000007 0
   vertex 48.989455008141015 24.180000000000007 0.36
  endloop
 endfacet
 facet normal 1.0 0.0 0.0
  outer loop
   vertex 65.7492497243202 20.820000000000007 0
   vertex 65.7492497243202 24.180000000000007 0
   vertex 65.7492497243202 24.180000000000007 0.36
  endloop
 endfacet
 facet normal 1.0 -0.0 0.0
  outer loop
   vertex 65.7492497243202 20.820000000000007 0.36
   vertex 65.7492497243202 20.820000000000007 0
   vertex 65.7492497243202 24.180000000000007 0.36
  endloop
 endfacet
 facet normal 0.0 1.0 -0.0
  outer loop
   vertex 57.37773226358871 22.498320000000007 0
   vertex 57.36097246887252 22.498320000000007 0
   vertex 57.37773226358871 22.498320000000007 0.36
  endloop
 endfacet
 facet normal 0.0 1.0 0.0
  outer loop
   vertex 57.36097246887252 22.498320000000007 0
   vertex 57.36097246887252 22.498320000000007 0.36
   vertex 57.37773226358871 22.498320000000007 0.36
  endloop
 endfacet
 facet normal 1.0 -4.229421046190197e-12 0.0
  outer loop
   vertex 57.36097246887252 22.498320000000007 0
   vertex 57.36097246887253 22.501680000000007 0
   vertex 57.36097246887252 22.498320000000007 0.36
  endloop
 endfacet
 facet normal 1.0 -4.229421046190197e-12 0.0
  outer loop
   vertex 57.36097246887253 22.501680000000007 0
   vertex 57.36097246887253 22.501680000000007 0.36
   vertex 57.36097246887252 22.498320000000007 0.36
  endloop
 endfacet
 facet normal 0.0 -1.0 0.0
  outer loop
   vertex 57.36097246887253 22.501680000000007 0
   vertex 57.3777322635887 22.501680000000007 0
   vertex 57.36097246887253 22.501680000000007 0.36
  endloop
 endfacet
 facet normal 0.0 -1.0 0.0
  outer loop
   vertex 57.3777322635887 22.501680000000007 0
   vertex 57.3777322635887 22.501680000000007 0.36
   vertex 57.36097246887253 22.501680000000007 0.36
  endloop
 endfacet
 facet normal -1.0 -4.229421046190197e-12 0.0
  outer loop
   vertex 57.3777322635887 22.501680000000007 0
   vertex 57.37773226358871 22.498320000000007 0
   vertex 57.3777322635887 22.501680000000007 0.36
  endloop
 endfacet
 facet normal -1.0 -4.229421046190197e-12 0.0
  outer loop
   vertex 57.37773226358871 22.498320000000007 0
   vertex 57.37773226358871 22.498320000000007 0.36
   vertex 57.3777322635887 22.501680000000007 0.36
  endloop
 endfacet
 facet normal 0.0 0.0 1.0
  outer loop
   vertex 48.98945500814105 20.820000000000007 0.36
   vertex 65.7492497243202 20.820000000000007 0.36
   vertex 57.37773226358871 22.498320000000007 0.36
  endloop
 endfacet
 facet normal -0.0 0.0 1.0
  outer loop
   vertex 57.36097246887252 22.498320000000007 0.36
   vertex 48.98945500814105 20.820000000000007 0.36
   vertex 57.37773226358871 22.498320000000007 0.36
  endloop
 endfacet
 facet normal 0.0 0.0 1.0
  outer loop
   vertex 48.989455008141015 24.180000000000007 0.36
   vertex 48.98945500814105 20.820000000000007 0.36
   vertex 57.36097246887252 22.498320000000007 0.36
  endloop
 endfacet
 facet normal 0.0 0.0 1.0
  outer loop
   vertex 57.36097246887253 22.501680000000007 0.36
   vertex 48.989455008141015 24.180000000000007 0.36
   vertex 57.36097246887252 22.498320000000007 0.36
  endloop
 endfacet
 facet normal 0.0 0.0 1.0
  outer loop
   vertex 65.7492497243202 24.180000000000007 0.36
   vertex 48.989455008141015 24.180000000000007 0.36
   vertex 57.36097246887253 22.501680000000007 0.36
  endloop
 endfacet
 facet normal 0.0 -0.0 1.0
  outer loop
   vertex 57.3777322635887 22.501680000000007 0.36
   vertex 65.7492497243202 24.180000000000007 0.36
   vertex 57.36097246887253 22.501680000000007 0.36
  endloop
 endfacet
 facet normal 0.0 -0.0 1.0
  outer loop
   vertex 65.7492497243202 20.820000000000007 0.36
   vertex 65.7492497243202 24.180000000000007 0.36
   vertex 57.3777322635887 22.501680000000007 0.36
  endloop
 endfacet
 facet normal -0.0 -0.0 1.0
  outer loop
   vertex 57.37773226358871 22.498320000000007 0.36
   vertex 65.7492497243202 20.820000000000007 0.36
   vertex 57.3777322635887 22.501680000000007 0.36
  endloop
 endfacet
 facet normal 0.0 0.0 -1.0
  outer loop
   vertex 59.61310609677502 0.001 0
   vertex 65.7492497243202 20.820000000000007 0
   vertex 64.42780999199124 10.400090500000003 0
  endloop
 endfacet
 facet normal 0.0 0.0 -1.0
  outer loop
   vertex 65.7492497243202 20.820000000000007 0
   vertex 64.43394613561878 10.4209095 0
   vertex 64.42780999199124 10.400090500000003 0
  endloop
 endfacet
 facet normal 0.0 -0.0 -1.0
  outer loop
   vertex 65.7492497243202 20.820000000000007 0
   vertex 69.25215293404473 20.82 0
   vertex 64.43394613561878 10.4209095 0
  endloop
 endfacet
 facet normal 0.0 0.0 -1.0
  outer loop
   vertex 69.25215293404473 20.82 0
   vertex 64.43744903882852 10.420909500000004 0
   vertex 64.43394613561878 10.4209095 0
  endloop
 endfacet
 facet normal 0.0 0.0 -1.0
  outer loop
   vertex 69.25215293404473 20.82 0
   vertex 63.11600930649956 0.001 0
   vertex 64.43744903882852 10.420909500000004 0
  endloop
 endfacet
 facet normal 0.0 0.0 -1.0
  outer loop
   vertex 63.11600930649956 0.001 0
   vertex 64.43131289520096 10.4000905 0
   vertex 64.43744903882852 10.420909500000004 0
  endloop
 endfacet
 facet normal 0.0 0.0 -1.0
  outer loop
   vertex 63.11600930649956 0.001 0
   vertex 59.61310609677502 0.001 0
   vertex 64.43131289520096 10.4000905 0
  endloop
 endfacet
 facet normal 0.0 0.0 -1.0
  outer loop
   vertex 59.61310609677502 0.001 0
   vertex 64.42780999199124 10.400090500000003 0
   vertex 64.43131289520096 10.4000905 0
  endloop
 endfacet
 facet normal -0.95920435102865 0.2827136589691173 0.0
  outer loop
   vertex 65.7492497243202 20.820000000000007 0
   vertex 59.61310609677502 0.001 0
   vertex 59.61310609677502 0.001 0.36
  endloop
 endfacet
 facet normal -0.95920435102865 0.2827136589691173 0.0
  outer loop
   vertex 65.7492497243202 20.820000000000007 0.36
   vertex 65.7492497243202 20.820000000000007 0
   vertex 59.61310609677502 0.001 0.36
  endloop
 endfacet
 facet normal 2.0284395349193113e-15 1.0 0.0
  outer loop
   vertex 69.25215293404473 20.82 0
   vertex 65.7492497243202 20.820000000000007 0
   vertex 65.7492497243202 20.820000000000007 0.36
  endloop
 endfacet
 facet normal 2.0284395349193113e-15 1.0 0.0
  outer loop
   vertex 69.25215293404473 20.82 0.36
   vertex 69.25215293404473 20.82 0
   vertex 65.7492497243202 20.820000000000007 0.36
  endloop
 endfacet
 facet normal 0.95920435102865 -0.2827136589691171 0.0
  outer loop
   vertex 63.11600930649956 0.001 0
   vertex 69.25215293404473 20.82 0
   vertex 69.25215293404473 20.82 0.36
  endloop
 endfacet
 facet normal 0.95920435102865 -0.2827136589691171 0.0
  outer loop
   vertex 63.11600930649956 0.001 0.36
   vertex 63.11600930649956 0.001 0
   vertex 69.25215293404473 20.82 0.36
  endloop
 endfacet
 facet normal 0.0 -1.0 0.0
  outer loop
   vertex 59.61310609677502 0.001 0
   vertex 63.11600930649956 0.001 0
   vertex 63.11600930649956 0.001 0.36
  endloop
 endfacet
 facet normal 0.0 -1.0 0.0
  outer loop
   vertex 59.61310609677502 0.001 0.36
   vertex 59.61310609677502 0.001 0
   vertex 63.11600930649956 0.001 0.36
  endloop
 endfacet
 facet normal 0.9592043510286646 -0.28271365896906814 0.0
  outer loop
   vertex 64.42780999199124 10.400090500000003 0
   vertex 64.43394613561878 10.4209095 0
   vertex 64.42780999199124 10.400090500000003 0.36
  endloop
 endfacet
 facet normal 0.9592043510286646 -0.28271365896906814 0.0
  outer loop
   vertex 64.43394613561878 10.4209095 0
   vertex 64.43394613561878 10.4209095 0.36
   vertex 64.42780999199124 10.400090500000003 0.36
  endloop
 endfacet
 facet normal 1.0142197674564628e-12 -1.0 0.0
  outer loop
   vertex 64.43394613561878 10.4209095 0
   vertex 64.43744903882852 10.420909500000004 0
   vertex 64.43394613561878 10.4209095 0.36
  endloop
 endfacet
 facet normal 1.0142197674564628e-12 -1.0 0.0
  outer loop
   vertex 64.43744903882852 10.420909500000004 0
   vertex 64.43744903882852 10.420909500000004 0.36
   vertex 64.43394613561878 10.4209095 0.36
  endloop
 endfacet
 facet normal -0.9592043510285131 0.2827136589695817 0.0
  outer loop
   vertex 64.43744903882852 10.420909500000004 0
   vertex 64.43131289520096 10.4000905 0
   vertex 64.43744903882852 10.420909500000004 0.36
  endloop
 endfacet
 facet normal -0.9592043510285131 0.2827136589695817 0.0
  outer loop
   vertex 64.43131289520096 10.4000905 0
   vertex 64.43131289520096 10.4000905 0.36
   vertex 64.43744903882852 10.420909500000004 0.36
  endloop
 endfacet
 facet normal 1.0142197674605775e-12 1.0 -0.0
  outer loop
   vertex 64.43131289520096 10.4000905 0
   vertex 64.42780999199124 10.400090500000003 0
   vertex 64.43131289520096 10.4000905 0.36
  endloop
 endfacet
 facet normal 1.0142197674605775e-12 1.0 -0.0
  outer loop
   vertex 64.42780999199124 10.400090500000003 0
   vertex 64.42780999199124 10.400090500000003 0.36
   vertex 64.43131289520096 10.4000905 0.36
  endloop
 endfacet
 facet normal 0.0 0.0 1.0
  outer loop
   vertex 65.7492497243202 20.820000000000007 0.36
   vertex 59.61310609677502 0.001 0.36
   vertex 64.42780999199124 10.400090500000003 0.36
  endloop
 endfacet
 facet normal 0.0 -0.0 1.0
  outer loop
   vertex 64.43394613561878 10.4209095 0.36
   vertex 65.7492497243202 20.820000000000007 0.36
   vertex 64.42780999199124 10.400090500000003 0.36
  endloop
 endfacet
 facet normal 0.0 0.0 1.0
  outer loop
   vertex 69.25215293404473 20.82 0.36
   vertex 65.7492497243202 20.820000000000007 0.36
   vertex 64.43394613561878 10.4209095 0.36
  endloop
 endfacet
 facet normal 0.0 -0.0 1.0
  outer loop
   vertex 64.43744903882852 10.420909500000004 0.36
   vertex 69.25215293404473 20.82 0.36
   vertex 64.43394613561878 10.4209095 0.36
  endloop
 endfacet
 facet normal 0.0 0.0 1.0
  outer loop
   vertex 63.11600930649956 0.001 0.36
   vertex 69.25215293404473 20.82 0.36
   vertex 64.43744903882852 10.420909500000004 0.36
  endloop
 endfacet
 facet normal -0.0 0.0 1.0
  outer loop
   vertex 64.43131289520096 10.4000905 0.36
   vertex 63.11600930649956 0.001 0.36
   vertex 64.43744903882852 10.420909500000004 0.36
  endloop
 endfacet
 facet normal 0.0 0.0 1.0
  outer loop
   vertex 59.61310609677502 0.001 0.36
   vertex 63.11600930649956 0.001 0.36
   vertex 64.43131289520096 10.4000905 0.36
  endloop
 endfacet
 facet normal 0.0 0.0 1.0
  outer loop
   vertex 64.42780999199124 10.400090500000003 0.36
   vertex 59.61310609677502 0.001 0.36
   vertex 64.43131289520096 10.4000905 0.36
  endloop
 endfacet
 facet normal 0.0 0.0 -1.0
  outer loop
   vertex 65.7492497243202 24.180000000000007 0
   vertex 59.613106096775034 44.998999999999995 0
   vertex 64.4339461356188 34.5790905 0
  endloop
 endfacet
 facet normal 0.0 0.0 -1.0
  outer loop
   vertex 59.613106096775034 44.998999999999995 0
   vertex 64.42780999199124 34.59990950000001 0
   vertex 64.4339461356188 34.5790905 0
  endloop
 endfacet
 facet normal 0.0 0.0 -1.0
  outer loop
   vertex 59.613106096775034 44.998999999999995 0
   vertex 63.11600930649956 44.99900000000001 0
   vertex 64.42780999199124 34.59990950000001 0
  endloop
 endfacet
 facet normal 0.0 0.0 -1.0
  outer loop
   vertex 63.11600930649956 44.99900000000001 0
   vertex 64.43131289520097 34.599909499999995 0
   vertex 64.42780999199124 34.59990950000001 0
  endloop
 endfacet
 facet normal 0.0 0.0 -1.0
  outer loop
   vertex 63.11600930649956 44.99900000000001 0
   vertex 69.25215293404473 24.18 0
   vertex 64.43131289520097 34.599909499999995 0
  endloop
 endfacet
 facet normal 0.0 0.0 -1.0
  outer loop
   vertex 69.25215293404473 24.18 0
   vertex 64.43744903882852 34.57909050000001 0
   vertex 64.43131289520097 34.599909499999995 0
  endloop
 endfacet
 facet normal 0.0 0.0 -1.0
  outer loop
   vertex 69.25215293404473 24.18 0
   vertex 65.7492497243202 24.180000000000007 0
   vertex 64.43744903882852 34.57909050000001 0
  endloop
 endfacet
 facet normal 0.0 0.0 -1.0
  outer loop
   vertex 65.7492497243202 24.180000000000007 0
   vertex 64.4339461356188 34.5790905 0
   vertex 64.43744903882852 34.57909050000001 0
  endloop
 endfacet
 facet normal -0.9592043510286501 -0.2827136589691169 0.0
  outer loop
   vertex 59.613106096775034 44.998999999999995 0
   vertex 65.7492497243202 24.180000000000007 0
   vertex 65.7492497243202 24.180000000000007 0.36
  endloop
 endfacet
 facet normal -0.9592043510286501 -0.2827136589691169 -0.0
  outer loop
   vertex 59.613106096775034 44.998999999999995 0.36
   vertex 59.613106096775034 44.998999999999995 0
   vertex 65.7492497243202 24.180000000000007 0.36
  endloop
 endfacet
 facet normal -4.056879069838631e-15 1.0 0.0
  outer loop
   vertex 63.11600930649956 44.99900000000001 0
   vertex 59.613106096775034 44.998999999999995 0
   vertex 59.613106096775034 44.998999999999995 0.36
  endloop
 endfacet
 facet normal -4.056879069838631e-15 1.0 0.0
  outer loop
   vertex 63.11600930649956 44.99900000000001 0.36
   vertex 63.11600930649956 44.99900000000001 0
   vertex 59.613106096775034 44.998999999999995 0.36
  endloop
 endfacet
 facet normal 0.9592043510286502 0.28271365896911693 0.0
  outer loop
   vertex 69.25215293404473 24.18 0
   vertex 63.11600930649956 44.99900000000001 0
   vertex 63.11600930649956 44.99900000000001 0.36
  endloop
 endfacet
 facet normal 0.9592043510286502 0.28271365896911693 0.0
  outer loop
   vertex 69.25215293404473 24.18 0.36
   vertex 69.25215293404473 24.18 0
   vertex 63.11600930649956 44.99900000000001 0.36
  endloop
 endfacet
 facet normal -2.0284395349193113e-15 -1.0 0.0
  outer loop
   vertex 65.7492497243202 24.180000000000007 0
   vertex 69.25215293404473 24.18 0
   vertex 69.25215293404473 24.18 0.36
  endloop
 endfacet
 facet normal -2.0284395349193113e-15 -1.0 -0.0
  outer loop
   vertex 65.7492497243202 24.180000000000007 0.36
   vertex 65.7492497243202 24.180000000000007 0
   vertex 69.25215293404473 24.18 0.36
  endloop
 endfacet
 facet normal 0.9592043510285329 0.28271365896951517 -0.0
  outer loop
   vertex 64.4339461356188 34.5790905 0
   vertex 64.42780999199124 34.59990950000001 0
   vertex 64.4339461356188 34.5790905 0.36
  endloop
 endfacet
 facet normal 0.9592043510285329 0.28271365896951517 -0.0
  outer loop
   vertex 64.42780999199124 34.59990950000001 0
   vertex 64.42780999199124 34.59990950000001 0.36
   vertex 64.4339461356188 34.5790905 0.36
  endloop
 endfacet
 facet normal -4.056879069825851e-12 -1.0 0.0
  outer loop
   vertex 64.42780999199124 34.59990950000001 0
   vertex 64.43131289520097 34.599909499999995 0
   vertex 64.42780999199124 34.59990950000001 0.36
  endloop
 endfacet
 facet normal -4.056879069825851e-12 -1.0 0.0
  outer loop
   vertex 64.43131289520097 34.599909499999995 0
   vertex 64.43131289520097 34.599909499999995 0.36
   vertex 64.42780999199124 34.59990950000001 0.36
  endloop
 endfacet
 facet normal -0.9592043510286318 -0.28271365896917905 0.0
  outer loop
   vertex 64.43131289520097 34.599909499999995 0
   vertex 64.43744903882852 34.57909050000001 0
   vertex 64.43131289520097 34.599909499999995 0.36
  endloop
 endfacet
 facet normal -0.9592043510286318 -0.28271365896917905 0.0
  outer loop
   vertex 64.43744903882852 34.57909050000001 0
   vertex 64.43744903882852 34.57909050000001 0.36
   vertex 64.43131289520097 34.599909499999995 0.36
  endloop
 endfacet
 facet normal -2.028439534921155e-12 1.0 0.0
  outer loop
   vertex 64.43744903882852 34.57909050000001 0
   vertex 64.4339461356188 34.5790905 0
   vertex 64.43744903882852 34.57909050000001 0.36
  endloop
 endfacet
 facet normal -2.028439534921155e-12 1.0 0.0
  outer loop
   vertex 64.4339461356188 34.5790905 0
   vertex 64.4339461356188 34.5790905 0.36
   vertex 64.43744903882852 34.57909050000001 0.36
  endloop
 endfacet
 facet normal 0.0 0.0 1.0
  outer loop
   vertex 59.613106096775034 44.998999999999995 0.36
   vertex 65.7492497243202 24.180000000000007 0.36
   vertex 64.4339461356188 34.5790905 0.36
  endloop
 endfacet
 facet normal 0.0 0.0 1.0
  outer loop
   vertex 64.42780999199124 34.59990950000001 0.36
   vertex 59.613106096775034 44.998999999999995 0.36
   vertex 64.4339461356188 34.5790905 0.36
  endloop
 endfacet
 facet normal 0.0 0.0 1.0
  outer loop
   vertex 63.11600930649956 44.99900000000001 0.36
   vertex 59.613106096775034 44.998999999999995 0.36
   vertex 64.42780999199124 34.59990950000001 0.36
  endloop
 endfacet
 facet normal 0.0 0.0 1.0
  outer loop
   vertex 64.43131289520097 34.599909499999995 0.36
   vertex 63.11600930649956 44.99900000000001 0.36
   vertex 64.42780999199124 34.59990950000001 0.36
  endloop
 endfacet
 facet normal 0.0 0.0 1.0
  outer loop
   vertex 69.25215293404473 24.18 0.36
   vertex 63.11600930649956 44.99900000000001 0.36
   vertex 64.43131289520097 34.599909499999995 0.36
  endloop
 endfacet
 facet normal -0.0 -0.0 1.0
  outer loop
   vertex 64.43744903882852 34.57909050000001 0.36
   vertex 69.25215293404473 24.18 0.36
   vertex 64.43131289520097 34.599909499999995 0.36
  endloop
 endfacet
 facet normal -0.0 -0.0 1.0
  outer loop
   vertex 65.7492497243202 24.180000000000007 0.36
   vertex 69.25215293404473 24.18 0.36
   vertex 64.43744903882852 34.57909050000001 0.36
  endloop
 endfacet
 facet normal -0.0 0.0 1.0
  outer loop
   vertex 64.4339461356188 34.5790905 0.36
   vertex 65.7492497243202 24.180000000000007 0.36
   vertex 64.43744903882852 34.57909050000001 0.36
  endloop
 endfacet
 facet normal 0.0 0.0 -1.0
  outer loop
   vertex 130.64948079783986 20.82 0
   vertex 69.25215293404473 20.82 0
   vertex 99.9815155298742 22.49832 0
  endloop
 endfacet
 facet normal 0.0 0.0 -1.0
  outer loop
   vertex 69.25215293404473 20.82 0
   vertex 99.9201182020104 22.49832 0
   vertex 99.9815155298742 22.49832 0
  endloop
 endfacet
 facet normal 0.0 0.0 -1.0
  outer loop
   vertex 69.25215293404473 20.82 0
   vertex 69.25215293404473 24.18 0
   vertex 99.9201182020104 22.49832 0
  endloop
 endfacet
 facet normal 0.0 0.0 -1.0
  outer loop
   vertex 69.25215293404473 24.18 0
   vertex 99.92011820201041 22.50168 0
   vertex 99.9201182020104 22.49832 0
  endloop
 endfacet
 facet normal 0.0 0.0 -1.0
  outer loop
   vertex 69.25215293404473 24.18 0
   vertex 130.64948079783989 24.18 0
   vertex 99.92011820201041 22.50168 0
  endloop
 endfacet
 facet normal 0.0 0.0 -1.0
  outer loop
   vertex 130.64948079783989 24.18 0
   vertex 99.98151552987419 22.50168 0
   vertex 99.92011820201041 22.50168 0
  endloop
 endfacet
 facet normal 0.0 0.0 -1.0
  outer loop
   vertex 130.64948079783989 24.18 0
   vertex 130.64948079783986 20.82 0
   vertex 99.98151552987419 22.50168 0
  endloop
 endfacet
 facet normal 0.0 0.0 -1.0
  outer loop
   vertex 130.64948079783986 20.82 0
   vertex 99.9815155298742 22.49832 0
   vertex 99.98151552987419 22.50168 0
  endloop
 endfacet
 facet normal 0.0 -1.0 0.0
  outer loop
   vertex 69.25215293404473 20.82 0
   vertex 130.64948079783986 20.82 0
   vertex 130.64948079783986 20.82 0.36
  endloop
 endfacet
 facet normal 0.0 -1.0 0.0
  outer loop
   vertex 69.25215293404473 20.82 0.36
   vertex 69.25215293404473 20.82 0
   vertex 130.64948079783986 20.82 0.36
  endloop
 endfacet
 facet normal -1.0 0.0 0.0
  outer loop
   vertex 69.25215293404473 24.18 0
   vertex 69.25215293404473 20.82 0
   vertex 69.25215293404473 20.82 0.36
  endloop
 endfacet
 facet normal -1.0 -0.0 -0.0
  outer loop
   vertex 69.25215293404473 24.18 0.36
   vertex 69.25215293404473 24.18 0
   vertex 69.25215293404473 20.82 0.36
  endloop
 endfacet
 facet normal 0.0 1.0 0.0
  outer loop
   vertex 130.64948079783989 24.18 0
   vertex 69.25215293404473 24.18 0
   vertex 69.25215293404473 24.18 0.36
  endloop
 endfacet
 facet normal 0.0 1.0 0.0
  outer loop
   vertex 130.64948079783989 24.18 0.36
   vertex 130.64948079783989 24.18 0
   vertex 69.25215293404473 24.18 0.36
  endloop
 endfacet
 facet normal 1.0 -8.458842092382147e-15 0.0
  outer loop
   vertex 130.64948079783986 20.82 0
   vertex 130.64948079783989 24.18 0
   vertex 130.64948079783989 24.18 0.36
  endloop
 endfacet
 facet normal 1.0 -8.458842092382147e-15 0.0
  outer loop
   vertex 130.64948079783986 20.82 0.36
   vertex 130.64948079783986 20.82 0
   vertex 130.64948079783989 24.18 0.36
  endloop
 endfacet
 facet normal 0.0 1.0 -0.0
  outer loop
   vertex 99.9815155298742 22.49832 0
   vertex 99.9201182020104 22.49832 0
   vertex 99.9815155298742 22.49832 0.36
  endloop
 endfacet
 facet normal 0.0 1.0 0.0
  outer loop
   vertex 99.9201182020104 22.49832 0
   vertex 99.9201182020104 22.49832 0.36
   vertex 99.9815155298742 22.49832 0.36
  endloop
 endfacet
 facet normal 1.0 -4.229421046190197e-12 0.0
  outer loop
   vertex 99.9201182020104 22.49832 0
   vertex 99.92011820201041 22.50168 0
   vertex 99.9201182020104 22.49832 0.36
  endloop
 endfacet
 facet normal 1.0 -4.229421046190197e-12 0.0
  outer loop
   vertex 99.92011820201041 22.50168 0
   vertex 99.92011820201041 22.50168 0.36
   vertex 99.9201182020104 22.49832 0.36
  endloop
 endfacet
 facet normal 0.0 -1.0 0.0
  outer loop
   vertex 99.92011820201041 22.50168 0
   vertex 99.98151552987419 22.50168 0
   vertex 99.92011820201041 22.50168 0.36
  endloop
 endfacet
 facet normal 0.0 -1.0 0.0
  outer loop
   vertex 99.98151552987419 22.50168 0
   vertex 99.98151552987419 22.50168 0.36
   vertex 99.92011820201041 22.50168 0.36
  endloop
 endfacet
 facet normal -1.0 -4.229421046190197e-12 0.0
  outer loop
   vertex 99.98151552987419 22.50168 0
   vertex 99.9815155298742 22.49832 0
   vertex 99.98151552987419 22.50168 0.36
  endloop
 endfacet
 facet normal -1.0 -4.229421046190197e-12 0.0
  outer loop
   vertex 99.9815155298742 22.49832 0
   vertex 99.9815155298742 22.49832 0.36
   vertex 99.98151552987419 22.50168 0.36
  endloop
 endfacet
 facet normal 0.0 0.0 1.0
  outer loop
   vertex 69.25215293404473 20.82 0.36
   vertex 130.64948079783986 20.82 0.36
   vertex 99.9815155298742 22.49832 0.36
  endloop
 endfacet
 facet normal -0.0 0.0 1.0
  outer loop
   vertex 99.9201182020104 22.49832 0.36
   vertex 69.25215293404473 20.82 0.36
   vertex 99.9815155298742 22.49832 0.36
  endloop
 endfacet
 facet normal 0.0 0.0 1.0
  outer loop
   vertex 69.25215293404473 24.18 0.36
   vertex 69.25215293404473 20.82 0.36
   vertex 99.9201182020104 22.49832 0.36
  endloop
 endfacet
 facet normal 0.0 0.0 1.0
  outer loop
   vertex 99.92011820201041 22.50168 0.36
   vertex 69.25215293404473 24.18 0.36
   vertex 99.9201182020104 22.49832 0.36
  endloop
 endfacet
 facet normal 0.0 0.0 1.0
  outer loop
   vertex 130.64948079783989 24.18 0.36
   vertex 69.25215293404473 24.18 0.36
   vertex 99.92011820201041 22.50168 0.36
  endloop
 endfacet
 facet normal 0.0 -0.0 1.0
  outer loop
   vertex 99.98151552987419 22.50168 0.36
   vertex 130.64948079783989 24.18 0.36
   vertex 99.92011820201041 22.50168 0.36
  endloop
 endfacet
 facet normal 0.0 -0.0 1.0
  outer loop
   vertex 130.64948079783986 20.82 0.36
   vertex 130.64948079783989 24.18 0.36
   vertex 99.98151552987419 22.50168 0.36
  endloop
 endfacet
 facet normal -0.0 -0.0 1.0
  outer loop
   vertex 99.9815155298742 22.49832 0.36
   vertex 130.64948079783986 20.82 0.36
   vertex 99.98151552987419 22.50168 0.36
  endloop
 endfacet
 facet normal 0.0 0.0 -1.0
  outer loop
   vertex 43.627778885053594 20.82 0
   vertex -0.000337828981146697 20.82 0
   vertex 21.835534586393234 22.498320000000003 0
  endloop
 endfacet
 facet normal 0.0 0.0 -1.0
  outer loop
   vertex -0.000337828981146697 20.82 0
   vertex 21.79190646967921 22.49832 0
   vertex 21.835534586393234 22.498320000000003 0
  endloop
 endfacet
 facet normal 0.0 0.0 -1.0
  outer loop
   vertex -0.000337828981146697 20.82 0
   vertex -0.000337828981146697 24.18 0
   vertex 21.79190646967921 22.49832 0
  endloop
 endfacet
 facet normal 0.0 0.0 -1.0
  outer loop
   vertex -0.000337828981146697 24.18 0
   vertex 21.7919064696792 22.50168 0
   vertex 21.79190646967921 22.49832 0
  endloop
 endfacet
 facet normal 0.0 0.0 -1.0
  outer loop
   vertex -0.000337828981146697 24.18 0
   vertex 43.62777888505358 24.180000000000003 0
   vertex 21.7919064696792 22.50168 0
  endloop
 endfacet
 facet normal 0.0 0.0 -1.0
  outer loop
   vertex 43.62777888505358 24.180000000000003 0
   vertex 21.83553458639324 22.50168 0
   vertex 21.7919064696792 22.50168 0
  endloop
 endfacet
 facet normal 0.0 -0.0 -1.0
  outer loop
   vertex 43.62777888505358 24.180000000000003 0
   vertex 43.627778885053594 20.82 0
   vertex 21.83553458639324 22.50168 0
  endloop
 endfacet
 facet normal 0.0 0.0 -1.0
  outer loop
   vertex 43.627778885053594 20.82 0
   vertex 21.835534586393234 22.498320000000003 0
   vertex 21.83553458639324 22.50168 0
  endloop
 endfacet
 facet normal 0.0 -1.0 0.0
  outer loop
   vertex -0.000337828981146697 20.82 0
   vertex 43.627778885053594 20.82 0
   vertex 43.627778885053594 20.82 0.36
  endloop
 endfacet
 facet normal 0.0 -1.0 0.0
  outer loop
   vertex -0.000337828981146697 20.82 0.36
   vertex -0.000337828981146697 20.82 0
   vertex 43.627778885053594 20.82 0.36
  endloop
 endfacet
 facet normal -1.0 0.0 0.0
  outer loop
   vertex -0.000337828981146697 24.18 0
   vertex -0.000337828981146697 20.82 0
   vertex -0.000337828981146697 20.82 0.36
  endloop
 endfacet
 facet normal -1.0 -0.0 -0.0
  outer loop
   vertex -0.000337828981146697 24.18 0.36
   vertex -0.000337828981146697 24.18 0
   vertex -0.000337828981146697 20.82 0.36
  endloop
 endfacet
 facet normal -8.143174508510538e-17 1.0 0.0
  outer loop
   vertex 43.62777888505358 24.180000000000003 0
   vertex -0.000337828981146697 24.18 0
   vertex -0.000337828981146697 24.18 0.36
  endloop
 endfacet
 facet normal -8.143174508510538e-17 1.0 0.0
  outer loop
   vertex 43.62777888505358 24.180000000000003 0.36
   vertex 43.62777888505358 24.180000000000003 0
   vertex -0.000337828981146697 24.18 0.36
  endloop
 endfacet
 facet normal 1.0 4.2294210461910686e-15 0.0
  outer loop
   vertex 43.627778885053594 20.82 0
   vertex 43.62777888505358 24.180000000000003 0
   vertex 43.62777888505358 24.180000000000003 0.36
  endloop
 endfacet
 facet normal 1.0 4.2294210461910686e-15 0.0
  outer loop
   vertex 43.627778885053594 20.82 0.36
   vertex 43.627778885053594 20.82 0
   vertex 43.62777888505358 24.180000000000003 0.36
  endloop
 endfacet
 facet normal -8.143174508512332e-14 1.0 0.0
  outer loop
   vertex 21.835534586393234 22.498320000000003 0
   vertex 21.79190646967921 22.49832 0
   vertex 21.835534586393234 22.498320000000003 0.36
  endloop
 endfacet
 facet normal -8.143174508512332e-14 1.0 0.0
  outer loop
   vertex 21.79190646967921 22.49832 0
   vertex 21.79190646967921 22.49832 0.36
   vertex 21.835534586393234 22.498320000000003 0.36
  endloop
 endfacet
 facet normal 1.0 2.1147105230950987e-12 -0.0
  outer loop
   vertex 21.79190646967921 22.49832 0
   vertex 21.7919064696792 22.50168 0
   vertex 21.79190646967921 22.49832 0.36
  endloop
 endfacet
 facet normal 1.0 2.1147105230950987e-12 -0.0
  outer loop
   vertex 21.7919064696792 22.50168 0
   vertex 21.7919064696792 22.50168 0.36
   vertex 21.79190646967921 22.49832 0.36
  endloop
 endfacet
 facet normal 0.0 -1.0 0.0
  outer loop
   vertex 21.7919064696792 22.50168 0
   vertex 21.83553458639324 22.50168 0
   vertex 21.7919064696792 22.50168 0.36
  endloop
 endfacet
 facet normal 0.0 -1.0 0.0
  outer loop
   vertex 21.83553458639324 22.50168 0
   vertex 21.83553458639324 22.50168 0.36
   vertex 21.7919064696792 22.50168 0.36
  endloop
 endfacet
 facet normal -1.0 2.1147105230973342e-12 0.0
  outer loop
   vertex 21.83553458639324 22.50168 0
   vertex 21.835534586393234 22.498320000000003 0
   vertex 21.83553458639324 22.50168 0.36
  endloop
 endfacet
 facet normal -1.0 2.1147105230973342e-12 0.0
  outer loop
   vertex 21.835534586393234 22.498320000000003 0
   vertex 21.835534586393234 22.498320000000003 0.36
   vertex 21.83553458639324 22.50168 0.36
  endloop
 endfacet
 facet normal 0.0 0.0 1.0
  outer loop
   vertex -0.000337828981146697 20.82 0.36
   vertex 43.627778885053594 20.82 0.36
   vertex 21.835534586393234 22.498320000000003 0.36
  endloop
 endfacet
 facet normal -0.0 0.0 1.0
  outer loop
   vertex 21.79190646967921 22.49832 0.36
   vertex -0.000337828981146697 20.82 0.36
   vertex 21.835534586393234 22.498320000000003 0.36
  endloop
 endfacet
 facet normal 0.0 0.0 1.0
  outer loop
   vertex -0.000337828981146697 24.18 0.36
   vertex -0.000337828981146697 20.82 0.36
   vertex 21.79190646967921 22.49832 0.36
  endloop
 endfacet
 facet normal 0.0 0.0 1.0
  outer loop
   vertex 21.7919064696792 22.50168 0.36
   vertex -0.000337828981146697 24.18 0.36
   vertex 21.79190646967921 22.49832 0.36
  endloop
 endfacet
 facet normal 0.0 0.0 1.0
  outer loop
   vertex 43.62777888505358 24.180000000000003 0.36
   vertex -0.000337828981146697 24.18 0.36
   vertex 21.7919064696792 22.50168 0.36
  endloop
 endfacet
 facet normal 0.0 -0.0 1.0
  outer loop
   vertex 21.83553458639324 22.50168 0.36
   vertex 43.62777888505358 24.180000000000003 0.36
   vertex 21.7919064696792 22.50168 0.36
  endloop
 endfacet
 facet normal 0.0 0.0 1.0
  outer loop
   vertex 43.627778885053594 20.82 0.36
   vertex 43.62777888505358 24.180000000000003 0.36
   vertex 21.83553458639324 22.50168 0.36
  endloop
 endfacet
 facet normal -0.0 0.0 1.0
  outer loop
   vertex 21.835534586393234 22.498320000000003 0.36
   vertex 43.627778885053594 20.82 0.36
   vertex 21.83553458639324 22.50168 0.36
  endloop
 endfacet
 facet normal 0.0 0.0 -1.0
  outer loop
   vertex 130.64948079783986 20.82 0
   vertex 69.25215293404473 20.82 0
   vertex 99.9815155298742 22.49832 0
  endloop
 endfacet
 facet normal 0.0 0.0 -1.0
  outer loop
   vertex 69.25215293404473 20.82 0
   vertex 99.9201182020104 22.49832 0
   vertex 99.9815155298742 22.49832 0
  endloop
 endfacet
 facet normal 0.0 0.0 -1.0
  outer loop
   vertex 69.25215293404473 20.82 0
   vertex 69.25215293404473 24.18 0
   vertex 99.9201182020104 22.49832 0
  endloop
 endfacet
 facet normal 0.0 0.0 -1.0
  outer loop
   vertex 69.25215293404473 24.18 0
   vertex 99.92011820201041 22.50168 0
   vertex 99.9201182020104 22.49832 0
  endloop
 endfacet
 facet normal 0.0 0.0 -1.0
  outer loop
   vertex 69.25215293404473 24.18 0
   vertex 130.64948079783989 24.18 0
   vertex 99.92011820201041 22.50168 0
  endloop
 endfacet
 facet normal 0.0 0.0 -1.0
  outer loop
   vertex 130.64948079783989 24.18 0
   vertex 99.98151552987419 22.50168 0
   vertex 99.92011820201041 22.50168 0
  endloop
 endfacet
 facet normal 0.0 0.0 -1.0
  outer loop
   vertex 130.64948079783989 24.18 0
   vertex 130.64948079783986 20.82 0
   vertex 99.98151552987419 22.50168 0
  endloop
 endfacet
 facet normal 0.0 0.0 -1.0
  outer loop
   vertex 130.64948079783986 20.82 0
   vertex 99.9815155298742 22.49832 0
   vertex 99.98151552987419 22.50168 0
  endloop
 endfacet
 facet normal 0.0 -1.0 0.0
  outer loop
   vertex 69.25215293404473 20.82 0
   vertex 130.64948079783986 20.82 0
   vertex 130.64948079783986 20.82 0.36
  endloop
 endfacet
 facet normal 0.0 -1.0 0.0
  outer loop
   vertex 69.25215293404473 20.82 0.36
   vertex 69.25215293404473 20.82 0
   vertex 130.64948079783986 20.82 0.36
  endloop
 endfacet
 facet normal -1.0 0.0 0.0
  outer loop
   vertex 69.25215293404473 24.18 0
   vertex 69.25215293404473 20.82 0
   vertex 69.25215293404473 20.82 0.36
  endloop
 endfacet
 facet normal -1.0 -0.0 -0.0
  outer loop
   vertex 69.25215293404473 24.18 0.36
   vertex 69.25215293404473 24.18 0
   vertex 69.25215293404473 20.82 0.36
  endloop
 endfacet
 facet normal 0.0 1.0 0.0
  outer loop
   vertex 130.64948079783989 24.18 0
   vertex 69.25215293404473 24.18 0
   vertex 69.25215293404473 24.18 0.36
  endloop
 endfacet
 facet normal 0.0 1.0 0.0
  outer loop
   vertex 130.64948079783989 24.18 0.36
   vertex 130.64948079783989 24.18 0
   vertex 69.25215293404473 24.18 0.36
  endloop
 endfacet
 facet normal 1.0 -8.458842092382147e-15 0.0
  outer loop
   vertex 130.64948079783986 20.82 0
   vertex 130.64948079783989 24.18 0
   vertex 130.64948079783989 24.18 0.36
  endloop
 endfacet
 facet normal 1.0 -8.458842092382147e-15 0.0
  outer loop
   vertex 130.64948079783986 20.82 0.36
   vertex 130.64948079783986 20.82 0
   vertex 130.64948079783989 24.18 0.36
  endloop
 endfacet
 facet normal 0.0 1.0 -0.0
  outer loop
   vertex 99.9815155298742 22.49832 0
   vertex 99.9201182020104 22.49832 0
   vertex 99.9815155298742 22.49832 0.36
  endloop
 endfacet
 facet normal 0.0 1.0 0.0
  outer loop
   vertex 99.9201182020104 22.49832 0
   vertex 99.9201182020104 22.49832 0.36
   vertex 99.9815155298742 22.49832 0.36
  endloop
 endfacet
 facet normal 1.0 -4.229421046190197e-12 0.0
  outer loop
   vertex 99.9201182020104 22.49832 0
   vertex 99.92011820201041 22.50168 0
   vertex 99.9201182020104 22.49832 0.36
  endloop
 endfacet
 facet normal 1.0 -4.229421046190197e-12 0.0
  outer loop
   vertex 99.92011820201041 22.50168 0
   vertex 99.92011820201041 22.50168 0.36
   vertex 99.9201182020104 22.49832 0.36
  endloop
 endfacet
 facet normal 0.0 -1.0 0.0
  outer loop
   vertex 99.92011820201041 22.50168 0
   vertex 99.98151552987419 22.50168 0
   vertex 99.92011820201041 22.50168 0.36
  endloop
 endfacet
 facet normal 0.0 -1.0 0.0
  outer loop
   vertex 99.98151552987419 22.50168 0
   vertex 99.98151552987419 22.50168 0.36
   vertex 99.92011820201041 22.50168 0.36
  endloop
 endfacet
 facet normal -1.0 -4.229421046190197e-12 0.0
  outer loop
   vertex 99.98151552987419 22.50168 0
   vertex 99.9815155298742 22.49832 0
   vertex 99.98151552987419 22.50168 0.36
  endloop
 endfacet
 facet normal -1.0 -4.229421046190197e-12 0.0
  outer loop
   vertex 99.9815155298742 22.49832 0
   vertex 99.9815155298742 22.49832 0.36
   vertex 99.98151552987419 22.50168 0.36
  endloop
 endfacet
 facet normal 0.0 0.0 1.0
  outer loop
   vertex 69.25215293404473 20.82 0.36
   vertex 130.64948079783986 20.82 0.36
   vertex 99.9815155298742 22.49832 0.36
  endloop
 endfacet
 facet normal -0.0 0.0 1.0
  outer loop
   vertex 99.9201182020104 22.49832 0.36
   vertex 69.25215293404473 20.82 0.36
   vertex 99.9815155298742 22.49832 0.36
  endloop
 endfacet
 facet normal 0.0 0.0 1.0
  outer loop
   vertex 69.25215293404473 24.18 0.36
   vertex 69.25215293404473 20.82 0.36
   vertex 99.9201182020104 22.49832 0.36
  endloop
 endfacet
 facet normal 0.0 0.0 1.0
  outer loop
   vertex 99.92011820201041 22.50168 0.36
   vertex 69.25215293404473 24.18 0.36
   vertex 99.9201182020104 22.49832 0.36
  endloop
 endfacet
 facet normal 0.0 0.0 1.0
  outer loop
   vertex 130.64948079783989 24.18 0.36
   vertex 69.25215293404473 24.18 0.36
   vertex 99.92011820201041 22.50168 0.36
  endloop
 endfacet
 facet normal 0.0 -0.0 1.0
  outer loop
   vertex 99.98151552987419 22.50168 0.36
   vertex 130.64948079783989 24.18 0.36
   vertex 99.92011820201041 22.50168 0.36
  endloop
 endfacet
 facet normal 0.0 -0.0 1.0
  outer loop
   vertex 130.64948079783986 20.82 0.36
   vertex 130.64948079783989 24.18 0.36
   vertex 99.98151552987419 22.50168 0.36
  endloop
 endfacet
 facet normal -0.0 -0.0 1.0
  outer loop
   vertex 99.9815155298742 22.49832 0.36
   vertex 130.64948079783986 20.82 0.36
   vertex 99.98151552987419 22.50168 0.36
  endloop
 endfacet
endsolid
