solid PyGamic generated __All_Crease__ SLA File
 facet normal 0.0 0.0 -1.0
  outer loop
   vertex 14.3758787847868 22.5 0
   vertex 34.499 2.376878784786797 0
   vertex 24.07978637878479 10.422589499999999 0
  endloop
 endfacet
 facet normal 0.0 0.0 1.0
  outer loop
   vertex 34.499 2.376878784786797 0
   vertex 23.260749500000003 11.241626378784787 0
   vertex 24.07978637878479 10.422589499999999 0
  endloop
 endfacet
 facet normal -0.0 0.0 -1.0
  outer loop
   vertex 34.499 2.376878784786797 0
   vertex 32.1231212152132 0.001 0
   vertex 23.260749500000003 11.241626378784787 0
  endloop
 endfacet
 facet normal 0.0 0.0 1.0
  outer loop
   vertex 32.1231212152132 0.001 0
   vertex 24.097533621215213 10.400090499999997 0
   vertex 23.260749500000003 11.241626378784787 0
  endloop
 endfacet
 facet normal 0.0 0.0 -1.0
  outer loop
   vertex 32.1231212152132 0.001 0
   vertex 13.68 18.4441212152132 0
   vertex 24.097533621215213 10.400090499999997 0
  endloop
 endfacet
 facet normal 0.0 0.0 -1.0
  outer loop
   vertex 13.68 18.4441212152132 0
   vertex 23.2399305 11.257693621215214 0
   vertex 24.097533621215213 10.400090499999997 0
  endloop
 endfacet
 facet normal 0.0 0.0 -1.0
  outer loop
   vertex 13.68 18.4441212152132 0
   vertex 14.3758787847868 22.5 0
   vertex 23.2399305 11.257693621215214 0
  endloop
 endfacet
 facet normal 0.0 0.0 -1.0
  outer loop
   vertex 14.3758787847868 22.5 0
   vertex 24.07978637878479 10.422589499999999 0
   vertex 23.2399305 11.257693621215214 0
  endloop
 endfacet
 facet normal 0.7071067811865476 0.7071067811865476 0.0
  outer loop
   vertex 34.499 2.376878784786797 0
   vertex 14.3758787847868 22.5 0
   vertex 14.3758787847868 22.5 0.36
  endloop
 endfacet
 facet normal 0.7071067811865476 0.7071067811865476 0.0
  outer loop
   vertex 34.499 2.376878784786797 0.36
   vertex 34.499 2.376878784786797 0
   vertex 14.3758787847868 22.5 0.36
  endloop
 endfacet
 facet normal 0.7071067811865472 -0.7071067811865479 0.0
  outer loop
   vertex 32.1231212152132 0.001 0
   vertex 34.499 2.376878784786797 0
   vertex 34.499 2.376878784786797 0.36
  endloop
 endfacet
 facet normal 0.7071067811865472 -0.7071067811865479 0.0
  outer loop
   vertex 32.1231212152132 0.001 0.36
   vertex 32.1231212152132 0.001 0
   vertex 34.499 2.376878784786797 0.36
  endloop
 endfacet
 facet normal -0.7071067811865475 -0.7071067811865476 0.0
  outer loop
   vertex 13.68 18.4441212152132 0
   vertex 32.1231212152132 0.001 0
   vertex 32.1231212152132 0.001 0.36
  endloop
 endfacet
 facet normal -0.7071067811865475 -0.7071067811865476 -0.0
  outer loop
   vertex 13.68 18.4441212152132 0.36
   vertex 13.68 18.4441212152132 0
   vertex 32.1231212152132 0.001 0.36
  endloop
 endfacet
 facet normal -0.9855985596534889 0.16910197872576274 0.0
  outer loop
   vertex 14.3758787847868 22.5 0
   vertex 13.68 18.4441212152132 0
   vertex 13.68 18.4441212152132 0.36
  endloop
 endfacet
 facet normal -0.9855985596534889 0.16910197872576274 0.0
  outer loop
   vertex 14.3758787847868 22.5 0.36
   vertex 14.3758787847868 22.5 0
   vertex 13.68 18.4441212152132 0.36
  endloop
 endfacet
 facet normal 0.7071067811865483 0.7071067811865467 -0.0
  outer loop
   vertex 24.07978637878479 10.422589499999999 0
   vertex 23.260749500000003 11.241626378784787 0
   vertex 24.07978637878479 10.422589499999999 0.36
  endloop
 endfacet
 facet normal 0.7071067811865483 0.7071067811865467 -0.0
  outer loop
   vertex 23.260749500000003 11.241626378784787 0
   vertex 23.260749500000003 11.241626378784787 0.36
   vertex 24.07978637878479 10.422589499999999 0.36
  endloop
 endfacet
 facet normal -0.709105941089115 -0.7051019531331059 0.0
  outer loop
   vertex 23.260749500000003 11.241626378784787 0
   vertex 24.097533621215213 10.400090499999997 0
   vertex 23.260749500000003 11.241626378784787 0.36
  endloop
 endfacet
 facet normal -0.709105941089115 -0.7051019531331059 0.0
  outer loop
   vertex 24.097533621215213 10.400090499999997 0
   vertex 24.097533621215213 10.400090499999997 0.36
   vertex 23.260749500000003 11.241626378784787 0.36
  endloop
 endfacet
 facet normal 0.7071067811865489 0.707106781186546 -0.0
  outer loop
   vertex 24.097533621215213 10.400090499999997 0
   vertex 23.2399305 11.257693621215214 0
   vertex 24.097533621215213 10.400090499999997 0.36
  endloop
 endfacet
 facet normal 0.7071067811865489 0.707106781186546 -0.0
  outer loop
   vertex 23.2399305 11.257693621215214 0
   vertex 23.2399305 11.257693621215214 0.36
   vertex 24.097533621215213 10.400090499999997 0.36
  endloop
 endfacet
 facet normal -0.7050979257475843 -0.7091099457111387 0.0
  outer loop
   vertex 23.2399305 11.257693621215214 0
   vertex 24.07978637878479 10.422589499999999 0
   vertex 23.2399305 11.257693621215214 0.36
  endloop
 endfacet
 facet normal -0.7050979257475843 -0.7091099457111387 0.0
  outer loop
   vertex 24.07978637878479 10.422589499999999 0
   vertex 24.07978637878479 10.422589499999999 0.36
   vertex 23.2399305 11.257693621215214 0.36
  endloop
 endfacet
 facet normal 0.0 0.0 1.0
  outer loop
   vertex 34.499 2.376878784786797 0.36
   vertex 14.3758787847868 22.5 0.36
   vertex 24.07978637878479 10.422589499999999 0.36
  endloop
 endfacet
 facet normal 0.0 0.0 -1.0
  outer loop
   vertex 23.260749500000003 11.241626378784787 0.36
   vertex 34.499 2.376878784786797 0.36
   vertex 24.07978637878479 10.422589499999999 0.36
  endloop
 endfacet
 facet normal 0.0 -0.0 1.0
  outer loop
   vertex 32.1231212152132 0.001 0.36
   vertex 34.499 2.376878784786797 0.36
   vertex 23.260749500000003 11.241626378784787 0.36
  endloop
 endfacet
 facet normal -0.0 -0.0 -1.0
  outer loop
   vertex 24.097533621215213 10.400090499999997 0.36
   vertex 32.1231212152132 0.001 0.36
   vertex 23.260749500000003 11.241626378784787 0.36
  endloop
 endfacet
 facet normal 0.0 0.0 1.0
  outer loop
   vertex 13.68 18.4441212152132 0.36
   vertex 32.1231212152132 0.001 0.36
   vertex 24.097533621215213 10.400090499999997 0.36
  endloop
 endfacet
 facet normal 0.0 0.0 1.0
  outer loop
   vertex 23.2399305 11.257693621215214 0.36
   vertex 13.68 18.4441212152132 0.36
   vertex 24.097533621215213 10.400090499999997 0.36
  endloop
 endfacet
 facet normal 0.0 0.0 1.0
  outer loop
   vertex 14.3758787847868 22.5 0.36
   vertex 13.68 18.4441212152132 0.36
   vertex 23.2399305 11.257693621215214 0.36
  endloop
 endfacet
 facet normal 0.0 0.0 1.0
  outer loop
   vertex 24.07978637878479 10.422589499999999 0.36
   vertex 14.3758787847868 22.5 0.36
   vertex 23.2399305 11.257693621215214 0.36
  endloop
 endfacet
 facet normal 0.0 0.0 -1.0
  outer loop
   vertex 34.499 42.6231212152132 0
   vertex 14.3758787847868 22.5 0
   vertex 23.260749500000003 33.75837362121521 0
  endloop
 endfacet
 facet normal 0.0 0.0 1.0
  outer loop
   vertex 14.3758787847868 22.5 0
   vertex 24.07978637878479 34.5774105 0
   vertex 23.260749500000003 33.75837362121521 0
  endloop
 endfacet
 facet normal 0.0 0.0 -1.0
  outer loop
   vertex 14.3758787847868 22.5 0
   vertex 13.68 26.5558787847868 0
   vertex 24.07978637878479 34.5774105 0
  endloop
 endfacet
 facet normal 0.0 0.0 1.0
  outer loop
   vertex 13.68 26.5558787847868 0
   vertex 23.2399305 33.74230637878479 0
   vertex 24.07978637878479 34.5774105 0
  endloop
 endfacet
 facet normal 0.0 0.0 -1.0
  outer loop
   vertex 13.68 26.5558787847868 0
   vertex 32.1231212152132 44.999 0
   vertex 23.2399305 33.74230637878479 0
  endloop
 endfacet
 facet normal 0.0 0.0 -1.0
  outer loop
   vertex 32.1231212152132 44.999 0
   vertex 24.097533621215213 34.5999095 0
   vertex 23.2399305 33.74230637878479 0
  endloop
 endfacet
 facet normal 0.0 -0.0 -1.0
  outer loop
   vertex 32.1231212152132 44.999 0
   vertex 34.499 42.6231212152132 0
   vertex 24.097533621215213 34.5999095 0
  endloop
 endfacet
 facet normal 0.0 0.0 -1.0
  outer loop
   vertex 34.499 42.6231212152132 0
   vertex 23.260749500000003 33.75837362121521 0
   vertex 24.097533621215213 34.5999095 0
  endloop
 endfacet
 facet normal 0.7071067811865476 -0.7071067811865476 0.0
  outer loop
   vertex 14.3758787847868 22.5 0
   vertex 34.499 42.6231212152132 0
   vertex 34.499 42.6231212152132 0.36
  endloop
 endfacet
 facet normal 0.7071067811865476 -0.7071067811865476 0.0
  outer loop
   vertex 14.3758787847868 22.5 0.36
   vertex 14.3758787847868 22.5 0
   vertex 34.499 42.6231212152132 0.36
  endloop
 endfacet
 facet normal -0.9855985596534889 -0.16910197872576274 0.0
  outer loop
   vertex 13.68 26.5558787847868 0
   vertex 14.3758787847868 22.5 0
   vertex 14.3758787847868 22.5 0.36
  endloop
 endfacet
 facet normal -0.9855985596534889 -0.16910197872576274 -0.0
  outer loop
   vertex 13.68 26.5558787847868 0.36
   vertex 13.68 26.5558787847868 0
   vertex 14.3758787847868 22.5 0.36
  endloop
 endfacet
 facet normal -0.7071067811865476 0.7071067811865476 0.0
  outer loop
   vertex 32.1231212152132 44.999 0
   vertex 13.68 26.5558787847868 0
   vertex 13.68 26.5558787847868 0.36
  endloop
 endfacet
 facet normal -0.7071067811865476 0.7071067811865476 0.0
  outer loop
   vertex 32.1231212152132 44.999 0.36
   vertex 32.1231212152132 44.999 0
   vertex 13.68 26.5558787847868 0.36
  endloop
 endfacet
 facet normal 0.7071067811865475 0.7071067811865475 0.0
  outer loop
   vertex 34.499 42.6231212152132 0
   vertex 32.1231212152132 44.999 0
   vertex 32.1231212152132 44.999 0.36
  endloop
 endfacet
 facet normal 0.7071067811865475 0.7071067811865475 0.0
  outer loop
   vertex 34.499 42.6231212152132 0.36
   vertex 34.499 42.6231212152132 0
   vertex 32.1231212152132 44.999 0.36
  endloop
 endfacet
 facet normal 0.7071067811865476 -0.7071067811865476 0.0
  outer loop
   vertex 23.260749500000003 33.75837362121521 0
   vertex 24.07978637878479 34.5774105 0
   vertex 23.260749500000003 33.75837362121521 0.36
  endloop
 endfacet
 facet normal 0.7071067811865476 -0.7071067811865476 0.0
  outer loop
   vertex 24.07978637878479 34.5774105 0
   vertex 24.07978637878479 34.5774105 0.36
   vertex 23.260749500000003 33.75837362121521 0.36
  endloop
 endfacet
 facet normal -0.7050979257475821 0.7091099457111409 0.0
  outer loop
   vertex 24.07978637878479 34.5774105 0
   vertex 23.2399305 33.74230637878479 0
   vertex 24.07978637878479 34.5774105 0.36
  endloop
 endfacet
 facet normal -0.7050979257475821 0.7091099457111409 0.0
  outer loop
   vertex 23.2399305 33.74230637878479 0
   vertex 23.2399305 33.74230637878479 0.36
   vertex 24.07978637878479 34.5774105 0.36
  endloop
 endfacet
 facet normal 0.7071067811865475 -0.7071067811865475 0.0
  outer loop
   vertex 23.2399305 33.74230637878479 0
   vertex 24.097533621215213 34.5999095 0
   vertex 23.2399305 33.74230637878479 0.36
  endloop
 endfacet
 facet normal 0.7071067811865475 -0.7071067811865475 0.0
  outer loop
   vertex 24.097533621215213 34.5999095 0
   vertex 24.097533621215213 34.5999095 0.36
   vertex 23.2399305 33.74230637878479 0.36
  endloop
 endfacet
 facet normal -0.709105941089115 0.7051019531331059 0.0
  outer loop
   vertex 24.097533621215213 34.5999095 0
   vertex 23.260749500000003 33.75837362121521 0
   vertex 24.097533621215213 34.5999095 0.36
  endloop
 endfacet
 facet normal -0.709105941089115 0.7051019531331059 0.0
  outer loop
   vertex 23.260749500000003 33.75837362121521 0
   vertex 23.260749500000003 33.75837362121521 0.36
   vertex 24.097533621215213 34.5999095 0.36
  endloop
 endfacet
 facet normal 0.0 0.0 1.0
  outer loop
   vertex 14.3758787847868 22.5 0.36
   vertex 34.499 42.6231212152132 0.36
   vertex 23.260749500000003 33.75837362121521 0.36
  endloop
 endfacet
 facet normal 0.0 0.0 -1.0
  outer loop
   vertex 24.07978637878479 34.5774105 0.36
   vertex 14.3758787847868 22.5 0.36
   vertex 23.260749500000003 33.75837362121521 0.36
  endloop
 endfacet
 facet normal -0.0 0.0 1.0
  outer loop
   vertex 13.68 26.5558787847868 0.36
   vertex 14.3758787847868 22.5 0.36
   vertex 24.07978637878479 34.5774105 0.36
  endloop
 endfacet
 facet normal -0.0 0.0 -1.0
  outer loop
   vertex 23.2399305 33.74230637878479 0.36
   vertex 13.68 26.5558787847868 0.36
   vertex 24.07978637878479 34.5774105 0.36
  endloop
 endfacet
 facet normal 0.0 0.0 1.0
  outer loop
   vertex 32.1231212152132 44.999 0.36
   vertex 13.68 26.5558787847868 0.36
   vertex 23.2399305 33.74230637878479 0.36
  endloop
 endfacet
 facet normal 0.0 -0.0 1.0
  outer loop
   vertex 24.097533621215213 34.5999095 0.36
   vertex 32.1231212152132 44.999 0.36
   vertex 23.2399305 33.74230637878479 0.36
  endloop
 endfacet
 facet normal 0.0 0.0 1.0
  outer loop
   vertex 34.499 42.6231212152132 0.36
   vertex 32.1231212152132 44.999 0.36
   vertex 24.097533621215213 34.5999095 0.36
  endloop
 endfacet
 facet normal 0.0 0.0 1.0
  outer loop
   vertex 23.260749500000003 33.75837362121521 0.36
   vertex 34.499 42.6231212152132 0.36
   vertex 24.097533621215213 34.5999095 0.36
  endloop
 endfacet
 facet normal 0.0 -0.0 -1.0
  outer loop
   vertex 13.68 18.4441212152132 0
   vertex 13.68 0.001 0
   vertex 12.00168 10.418533621215214 0
  endloop
 endfacet
 facet normal 0.0 0.0 -1.0
  outer loop
   vertex 13.68 0.001 0
   vertex 12.00168 9.213339046998993 0
   vertex 12.00168 10.418533621215214 0
  endloop
 endfacet
 facet normal 0.0 0.0 -1.0
  outer loop
   vertex 13.68 0.001 0
   vertex 10.32 0.001 0
   vertex 12.00168 9.213339046998993 0
  endloop
 endfacet
 facet normal 0.0 0.0 -1.0
  outer loop
   vertex 10.32 0.001 0
   vertex 11.99832 10.4000905 0
   vertex 12.00168 9.213339046998993 0
  endloop
 endfacet
 facet normal 0.0 0.0 -1.0
  outer loop
   vertex 10.32 0.001 0
   vertex 10.32 20.82 0
   vertex 11.99832 10.4000905 0
  endloop
 endfacet
 facet normal 0.0 0.0 1.0
  outer loop
   vertex 10.32 20.82 0
   vertex 11.99832 9.234158046998994 0
   vertex 11.99832 10.4000905 0
  endloop
 endfacet
 facet normal 0.0 0.0 -1.0
  outer loop
   vertex 10.32 20.82 0
   vertex 13.68 18.4441212152132 0
   vertex 11.99832 9.234158046998994 0
  endloop
 endfacet
 facet normal 0.0 0.0 1.0
  outer loop
   vertex 13.68 18.4441212152132 0
   vertex 12.00168 10.418533621215214 0
   vertex 11.99832 9.234158046998994 0
  endloop
 endfacet
 facet normal 1.0 0.0 0.0
  outer loop
   vertex 13.68 0.001 0
   vertex 13.68 18.4441212152132 0
   vertex 13.68 18.4441212152132 0.36
  endloop
 endfacet
 facet normal 1.0 -0.0 0.0
  outer loop
   vertex 13.68 0.001 0.36
   vertex 13.68 0.001 0
   vertex 13.68 18.4441212152132 0.36
  endloop
 endfacet
 facet normal 0.0 -1.0 0.0
  outer loop
   vertex 10.32 0.001 0
   vertex 13.68 0.001 0
   vertex 13.68 0.001 0.36
  endloop
 endfacet
 facet normal 0.0 -1.0 0.0
  outer loop
   vertex 10.32 0.001 0.36
   vertex 10.32 0.001 0
   vertex 13.68 0.001 0.36
  endloop
 endfacet
 facet normal -1.0 0.0 0.0
  outer loop
   vertex 10.32 20.82 0
   vertex 10.32 0.001 0
   vertex 10.32 0.001 0.36
  endloop
 endfacet
 facet normal -1.0 -0.0 -0.0
  outer loop
   vertex 10.32 20.82 0.36
   vertex 10.32 20.82 0
   vertex 10.32 0.001 0.36
  endloop
 endfacet
 facet normal 0.5773502691896257 0.816496580927726 0.0
  outer loop
   vertex 13.68 18.4441212152132 0
   vertex 10.32 20.82 0
   vertex 10.32 20.82 0.36
  endloop
 endfacet
 facet normal 0.5773502691896257 0.816496580927726 0.0
  outer loop
   vertex 13.68 18.4441212152132 0.36
   vertex 13.68 18.4441212152132 0
   vertex 10.32 20.82 0.36
  endloop
 endfacet
 facet normal -1.0 0.0 0.0
  outer loop
   vertex 12.00168 10.418533621215214 0
   vertex 12.00168 9.213339046998993 0
   vertex 12.00168 10.418533621215214 0.36
  endloop
 endfacet
 facet normal -1.0 0.0 0.0
  outer loop
   vertex 12.00168 9.213339046998993 0
   vertex 12.00168 9.213339046998993 0.36
   vertex 12.00168 10.418533621215214 0.36
  endloop
 endfacet
 facet normal 0.99999599201208 0.0028312470354805073 -0.0
  outer loop
   vertex 12.00168 9.213339046998993 0
   vertex 11.99832 10.4000905 0
   vertex 12.00168 9.213339046998993 0.36
  endloop
 endfacet
 facet normal 0.99999599201208 0.0028312470354805073 -0.0
  outer loop
   vertex 11.99832 10.4000905 0
   vertex 11.99832 10.4000905 0.36
   vertex 12.00168 9.213339046998993 0.36
  endloop
 endfacet
 facet normal -1.0 0.0 0.0
  outer loop
   vertex 11.99832 10.4000905 0
   vertex 11.99832 9.234158046998994 0
   vertex 11.99832 10.4000905 0.36
  endloop
 endfacet
 facet normal -1.0 0.0 0.0
  outer loop
   vertex 11.99832 9.234158046998994 0
   vertex 11.99832 9.234158046998994 0.36
   vertex 11.99832 10.4000905 0.36
  endloop
 endfacet
 facet normal 0.9999959759158564 -0.002836926522485486 0.0
  outer loop
   vertex 11.99832 9.234158046998994 0
   vertex 12.00168 10.418533621215214 0
   vertex 11.99832 9.234158046998994 0.36
  endloop
 endfacet
 facet normal 0.9999959759158564 -0.002836926522485486 0.0
  outer loop
   vertex 12.00168 10.418533621215214 0
   vertex 12.00168 10.418533621215214 0.36
   vertex 11.99832 9.234158046998994 0.36
  endloop
 endfacet
 facet normal 0.0 -0.0 1.0
  outer loop
   vertex 13.68 0.001 0.36
   vertex 13.68 18.4441212152132 0.36
   vertex 12.00168 10.418533621215214 0.36
  endloop
 endfacet
 facet normal -0.0 0.0 1.0
  outer loop
   vertex 12.00168 9.213339046998993 0.36
   vertex 13.68 0.001 0.36
   vertex 12.00168 10.418533621215214 0.36
  endloop
 endfacet
 facet normal 0.0 0.0 1.0
  outer loop
   vertex 10.32 0.001 0.36
   vertex 13.68 0.001 0.36
   vertex 12.00168 9.213339046998993 0.36
  endloop
 endfacet
 facet normal 0.0 0.0 1.0
  outer loop
   vertex 11.99832 10.4000905 0.36
   vertex 10.32 0.001 0.36
   vertex 12.00168 9.213339046998993 0.36
  endloop
 endfacet
 facet normal 0.0 0.0 1.0
  outer loop
   vertex 10.32 20.82 0.36
   vertex 10.32 0.001 0.36
   vertex 11.99832 10.4000905 0.36
  endloop
 endfacet
 facet normal 0.0 0.0 -1.0
  outer loop
   vertex 11.99832 9.234158046998994 0.36
   vertex 10.32 20.82 0.36
   vertex 11.99832 10.4000905 0.36
  endloop
 endfacet
 facet normal 0.0 0.0 1.0
  outer loop
   vertex 13.68 18.4441212152132 0.36
   vertex 10.32 20.82 0.36
   vertex 11.99832 9.234158046998994 0.36
  endloop
 endfacet
 facet normal 0.0 -0.0 -1.0
  outer loop
   vertex 12.00168 10.418533621215214 0.36
   vertex 13.68 18.4441212152132 0.36
   vertex 11.99832 9.234158046998994 0.36
  endloop
 endfacet
 facet normal 0.0 -0.0 -1.0
  outer loop
   vertex 13.68 44.999 0
   vertex 13.68 26.5558787847868 0
   vertex 12.00168 35.786660953001004 0
  endloop
 endfacet
 facet normal 0.0 0.0 -1.0
  outer loop
   vertex 13.68 26.5558787847868 0
   vertex 12.00168 34.58146637878479 0
   vertex 12.00168 35.786660953001004 0
  endloop
 endfacet
 facet normal -0.0 0.0 -1.0
  outer loop
   vertex 13.68 26.5558787847868 0
   vertex 10.32 24.18 0
   vertex 12.00168 34.58146637878479 0
  endloop
 endfacet
 facet normal 0.0 0.0 -1.0
  outer loop
   vertex 10.32 24.18 0
   vertex 11.99832 35.76584195300101 0
   vertex 12.00168 34.58146637878479 0
  endloop
 endfacet
 facet normal 0.0 0.0 -1.0
  outer loop
   vertex 10.32 24.18 0
   vertex 10.32 44.999 0
   vertex 11.99832 35.76584195300101 0
  endloop
 endfacet
 facet normal 0.0 0.0 1.0
  outer loop
   vertex 10.32 44.999 0
   vertex 11.99832 34.5999095 0
   vertex 11.99832 35.76584195300101 0
  endloop
 endfacet
 facet normal 0.0 0.0 -1.0
  outer loop
   vertex 10.32 44.999 0
   vertex 13.68 44.999 0
   vertex 11.99832 34.5999095 0
  endloop
 endfacet
 facet normal 0.0 0.0 1.0
  outer loop
   vertex 13.68 44.999 0
   vertex 12.00168 35.786660953001004 0
   vertex 11.99832 34.5999095 0
  endloop
 endfacet
 facet normal 1.0 0.0 0.0
  outer loop
   vertex 13.68 26.5558787847868 0
   vertex 13.68 44.999 0
   vertex 13.68 44.999 0.36
  endloop
 endfacet
 facet normal 1.0 -0.0 0.0
  outer loop
   vertex 13.68 26.5558787847868 0.36
   vertex 13.68 26.5558787847868 0
   vertex 13.68 44.999 0.36
  endloop
 endfacet
 facet normal 0.5773502691896257 -0.816496580927726 0.0
  outer loop
   vertex 10.32 24.18 0
   vertex 13.68 26.5558787847868 0
   vertex 13.68 26.5558787847868 0.36
  endloop
 endfacet
 facet normal 0.5773502691896257 -0.816496580927726 0.0
  outer loop
   vertex 10.32 24.18 0.36
   vertex 10.32 24.18 0
   vertex 13.68 26.5558787847868 0.36
  endloop
 endfacet
 facet normal -1.0 0.0 0.0
  outer loop
   vertex 10.32 44.999 0
   vertex 10.32 24.18 0
   vertex 10.32 24.18 0.36
  endloop
 endfacet
 facet normal -1.0 -0.0 -0.0
  outer loop
   vertex 10.32 44.999 0.36
   vertex 10.32 44.999 0
   vertex 10.32 24.18 0.36
  endloop
 endfacet
 facet normal 0.0 1.0 0.0
  outer loop
   vertex 13.68 44.999 0
   vertex 10.32 44.999 0
   vertex 10.32 44.999 0.36
  endloop
 endfacet
 facet normal 0.0 1.0 0.0
  outer loop
   vertex 13.68 44.999 0.36
   vertex 13.68 44.999 0
   vertex 10.32 44.999 0.36
  endloop
 endfacet
 facet normal -1.0 0.0 0.0
  outer loop
   vertex 12.00168 35.786660953001004 0
   vertex 12.00168 34.58146637878479 0
   vertex 12.00168 35.786660953001004 0.36
  endloop
 endfacet
 facet normal -1.0 0.0 0.0
  outer loop
   vertex 12.00168 34.58146637878479 0
   vertex 12.00168 34.58146637878479 0.36
   vertex 12.00168 35.786660953001004 0.36
  endloop
 endfacet
 facet normal 0.9999959759158564 0.0028369265224854902 -0.0
  outer loop
   vertex 12.00168 34.58146637878479 0
   vertex 11.99832 35.76584195300101 0
   vertex 12.00168 34.58146637878479 0.36
  endloop
 endfacet
 facet normal 0.9999959759158564 0.0028369265224854902 -0.0
  outer loop
   vertex 11.99832 35.76584195300101 0
   vertex 11.99832 35.76584195300101 0.36
   vertex 12.00168 34.58146637878479 0.36
  endloop
 endfacet
 facet normal -1.0 0.0 0.0
  outer loop
   vertex 11.99832 35.76584195300101 0
   vertex 11.99832 34.5999095 0
   vertex 11.99832 35.76584195300101 0.36
  endloop
 endfacet
 facet normal -1.0 0.0 0.0
  outer loop
   vertex 11.99832 34.5999095 0
   vertex 11.99832 34.5999095 0.36
   vertex 11.99832 35.76584195300101 0.36
  endloop
 endfacet
 facet normal 0.99999599201208 -0.0028312470354805203 0.0
  outer loop
   vertex 11.99832 34.5999095 0
   vertex 12.00168 35.786660953001004 0
   vertex 11.99832 34.5999095 0.36
  endloop
 endfacet
 facet normal 0.99999599201208 -0.0028312470354805203 0.0
  outer loop
   vertex 12.00168 35.786660953001004 0
   vertex 12.00168 35.786660953001004 0.36
   vertex 11.99832 34.5999095 0.36
  endloop
 endfacet
 facet normal 0.0 -0.0 1.0
  outer loop
   vertex 13.68 26.5558787847868 0.36
   vertex 13.68 44.999 0.36
   vertex 12.00168 35.786660953001004 0.36
  endloop
 endfacet
 facet normal -0.0 0.0 1.0
  outer loop
   vertex 12.00168 34.58146637878479 0.36
   vertex 13.68 26.5558787847868 0.36
   vertex 12.00168 35.786660953001004 0.36
  endloop
 endfacet
 facet normal 0.0 0.0 1.0
  outer loop
   vertex 10.32 24.18 0.36
   vertex 13.68 26.5558787847868 0.36
   vertex 12.00168 34.58146637878479 0.36
  endloop
 endfacet
 facet normal 0.0 0.0 1.0
  outer loop
   vertex 11.99832 35.76584195300101 0.36
   vertex 10.32 24.18 0.36
   vertex 12.00168 34.58146637878479 0.36
  endloop
 endfacet
 facet normal 0.0 0.0 1.0
  outer loop
   vertex 10.32 44.999 0.36
   vertex 10.32 24.18 0.36
   vertex 11.99832 35.76584195300101 0.36
  endloop
 endfacet
 facet normal 0.0 0.0 -1.0
  outer loop
   vertex 11.99832 34.5999095 0.36
   vertex 10.32 44.999 0.36
   vertex 11.99832 35.76584195300101 0.36
  endloop
 endfacet
 facet normal 0.0 0.0 1.0
  outer loop
   vertex 13.68 44.999 0.36
   vertex 10.32 44.999 0.36
   vertex 11.99832 34.5999095 0.36
  endloop
 endfacet
 facet normal 0.0 -0.0 -1.0
  outer loop
   vertex 12.00168 35.786660953001004 0.36
   vertex 13.68 44.999 0.36
   vertex 11.99832 34.5999095 0.36
  endloop
 endfacet
 facet normal 0.0 0.0 -1.0
  outer loop
   vertex 10.32 20.82 0
   vertex 0.001 20.82 0
   vertex 5.1656595 22.49832 0
  endloop
 endfacet
 facet normal 0.0 0.0 -1.0
  outer loop
   vertex 0.001 20.82 0
   vertex 5.1553405 22.49832 0
   vertex 5.1656595 22.49832 0
  endloop
 endfacet
 facet normal 0.0 0.0 -1.0
  outer loop
   vertex 0.001 20.82 0
   vertex 0.001 24.18 0
   vertex 5.1553405 22.49832 0
  endloop
 endfacet
 facet normal 0.0 0.0 -1.0
  outer loop
   vertex 0.001 24.18 0
   vertex 5.1553405 22.50168 0
   vertex 5.1553405 22.49832 0
  endloop
 endfacet
 facet normal 0.0 0.0 -1.0
  outer loop
   vertex 0.001 24.18 0
   vertex 10.32 24.18 0
   vertex 5.1553405 22.50168 0
  endloop
 endfacet
 facet normal 0.0 0.0 -1.0
  outer loop
   vertex 10.32 24.18 0
   vertex 5.1656595 22.50168 0
   vertex 5.1553405 22.50168 0
  endloop
 endfacet
 facet normal 0.0 -0.0 -1.0
  outer loop
   vertex 10.32 24.18 0
   vertex 10.32 20.82 0
   vertex 5.1656595 22.50168 0
  endloop
 endfacet
 facet normal 0.0 0.0 -1.0
  outer loop
   vertex 10.32 20.82 0
   vertex 5.1656595 22.49832 0
   vertex 5.1656595 22.50168 0
  endloop
 endfacet
 facet normal 0.0 -1.0 0.0
  outer loop
   vertex 0.001 20.82 0
   vertex 10.32 20.82 0
   vertex 10.32 20.82 0.36
  endloop
 endfacet
 facet normal 0.0 -1.0 0.0
  outer loop
   vertex 0.001 20.82 0.36
   vertex 0.001 20.82 0
   vertex 10.32 20.82 0.36
  endloop
 endfacet
 facet normal -1.0 0.0 0.0
  outer loop
   vertex 0.001 24.18 0
   vertex 0.001 20.82 0
   vertex 0.001 20.82 0.36
  endloop
 endfacet
 facet normal -1.0 -0.0 -0.0
  outer loop
   vertex 0.001 24.18 0.36
   vertex 0.001 24.18 0
   vertex 0.001 20.82 0.36
  endloop
 endfacet
 facet normal 0.0 1.0 0.0
  outer loop
   vertex 10.32 24.18 0
   vertex 0.001 24.18 0
   vertex 0.001 24.18 0.36
  endloop
 endfacet
 facet normal 0.0 1.0 0.0
  outer loop
   vertex 10.32 24.18 0.36
   vertex 10.32 24.18 0
   vertex 0.001 24.18 0.36
  endloop
 endfacet
 facet normal 1.0 0.0 0.0
  outer loop
   vertex 10.32 20.82 0
   vertex 10.32 24.18 0
   vertex 10.32 24.18 0.36
  endloop
 endfacet
 facet normal 1.0 -0.0 0.0
  outer loop
   vertex 10.32 20.82 0.36
   vertex 10.32 20.82 0
   vertex 10.32 24.18 0.36
  endloop
 endfacet
 facet normal 0.0 1.0 -0.0
  outer loop
   vertex 5.1656595 22.49832 0
   vertex 5.1553405 22.49832 0
   vertex 5.1656595 22.49832 0.36
  endloop
 endfacet
 facet normal 0.0 1.0 0.0
  outer loop
   vertex 5.1553405 22.49832 0
   vertex 5.1553405 22.49832 0.36
   vertex 5.1656595 22.49832 0.36
  endloop
 endfacet
 facet normal 1.0 0.0 0.0
  outer loop
   vertex 5.1553405 22.49832 0
   vertex 5.1553405 22.50168 0
   vertex 5.1553405 22.49832 0.36
  endloop
 endfacet
 facet normal 1.0 0.0 -0.0
  outer loop
   vertex 5.1553405 22.50168 0
   vertex 5.1553405 22.50168 0.36
   vertex 5.1553405 22.49832 0.36
  endloop
 endfacet
 facet normal 0.0 -1.0 0.0
  outer loop
   vertex 5.1553405 22.50168 0
   vertex 5.1656595 22.50168 0
   vertex 5.1553405 22.50168 0.36
  endloop
 endfacet
 facet normal 0.0 -1.0 0.0
  outer loop
   vertex 5.1656595 22.50168 0
   vertex 5.1656595 22.50168 0.36
   vertex 5.1553405 22.50168 0.36
  endloop
 endfacet
 facet normal -1.0 0.0 0.0
  outer loop
   vertex 5.1656595 22.50168 0
   vertex 5.1656595 22.49832 0
   vertex 5.1656595 22.50168 0.36
  endloop
 endfacet
 facet normal -1.0 0.0 0.0
  outer loop
   vertex 5.1656595 22.49832 0
   vertex 5.1656595 22.49832 0.36
   vertex 5.1656595 22.50168 0.36
  endloop
 endfacet
 facet normal 0.0 0.0 1.0
  outer loop
   vertex 0.001 20.82 0.36
   vertex 10.32 20.82 0.36
   vertex 5.1656595 22.49832 0.36
  endloop
 endfacet
 facet normal -0.0 0.0 1.0
  outer loop
   vertex 5.1553405 22.49832 0.36
   vertex 0.001 20.82 0.36
   vertex 5.1656595 22.49832 0.36
  endloop
 endfacet
 facet normal 0.0 0.0 1.0
  outer loop
   vertex 0.001 24.18 0.36
   vertex 0.001 20.82 0.36
   vertex 5.1553405 22.49832 0.36
  endloop
 endfacet
 facet normal 0.0 0.0 1.0
  outer loop
   vertex 5.1553405 22.50168 0.36
   vertex 0.001 24.18 0.36
   vertex 5.1553405 22.49832 0.36
  endloop
 endfacet
 facet normal 0.0 0.0 1.0
  outer loop
   vertex 10.32 24.18 0.36
   vertex 0.001 24.18 0.36
   vertex 5.1553405 22.50168 0.36
  endloop
 endfacet
 facet normal 0.0 -0.0 1.0
  outer loop
   vertex 5.1656595 22.50168 0.36
   vertex 10.32 24.18 0.36
   vertex 5.1553405 22.50168 0.36
  endloop
 endfacet
 facet normal 0.0 -0.0 1.0
  outer loop
   vertex 10.32 20.82 0.36
   vertex 10.32 24.18 0.36
   vertex 5.1656595 22.50168 0.36
  endloop
 endfacet
 facet normal -0.0 0.0 1.0
  outer loop
   vertex 5.1656595 22.49832 0.36
   vertex 10.32 20.82 0.36
   vertex 5.1656595 22.50168 0.36
  endloop
 endfacet
endsolid
