solid PyGamic generated __Board__ SLA File
 facet normal 0.0 -0.0 -1.0
  outer loop
   vertex -7.104333484650151 42.05388008505372 0
   vertex -3.5047334846501523 33.05488008505372 0
   vertex -10.07223460036945 33.05488008505372 0
  endloop
 endfacet
 facet normal -0.0 0.0 -1.0
  outer loop
   vertex -7.104333484650151 42.05388008505372 0
   vertex -10.07223460036945 33.05488008505372 0
   vertex -10.07223460036945 42.05388008505372 0
  endloop
 endfacet
 facet normal 0.9284766908852595 0.37139067635410355 0.0
  outer loop
   vertex -3.5047334846501523 33.05488008505372 0
   vertex -7.104333484650151 42.05388008505372 0
   vertex -7.104333484650151 42.05388008505372 0.24
  endloop
 endfacet
 facet normal 0.9284766908852595 0.37139067635410355 0.0
  outer loop
   vertex -3.5047334846501523 33.05488008505372 0.24
   vertex -3.5047334846501523 33.05488008505372 0
   vertex -7.104333484650151 42.05388008505372 0.24
  endloop
 endfacet
 facet normal 0.0 -1.0 0.0
  outer loop
   vertex -10.07223460036945 33.05488008505372 0
   vertex -3.5047334846501523 33.05488008505372 0
   vertex -3.5047334846501523 33.05488008505372 0.24
  endloop
 endfacet
 facet normal 0.0 -1.0 0.0
  outer loop
   vertex -10.07223460036945 33.05488008505372 0.24
   vertex -10.07223460036945 33.05488008505372 0
   vertex -3.5047334846501523 33.05488008505372 0.24
  endloop
 endfacet
 facet normal -1.0 0.0 0.0
  outer loop
   vertex -10.07223460036945 42.05388008505372 0
   vertex -10.07223460036945 33.05488008505372 0
   vertex -10.07223460036945 33.05488008505372 0.24
  endloop
 endfacet
 facet normal -1.0 -0.0 -0.0
  outer loop
   vertex -10.07223460036945 42.05388008505372 0.24
   vertex -10.07223460036945 42.05388008505372 0
   vertex -10.07223460036945 33.05488008505372 0.24
  endloop
 endfacet
 facet normal 0.0 1.0 0.0
  outer loop
   vertex -7.104333484650151 42.05388008505372 0
   vertex -10.07223460036945 42.05388008505372 0
   vertex -10.07223460036945 42.05388008505372 0.24
  endloop
 endfacet
 facet normal 0.0 1.0 0.0
  outer loop
   vertex -7.104333484650151 42.05388008505372 0.24
   vertex -7.104333484650151 42.05388008505372 0
   vertex -10.07223460036945 42.05388008505372 0.24
  endloop
 endfacet
 facet normal 0.0 0.0 1.0
  outer loop
   vertex -7.104333484650151 42.05388008505372 0.24
   vertex -10.07223460036945 33.05488008505372 0.24
   vertex -3.5047334846501523 33.05488008505372 0.24
  endloop
 endfacet
 facet normal 0.0 0.0 1.0
  outer loop
   vertex -7.104333484650151 42.05388008505372 0.24
   vertex -10.07223460036945 42.05388008505372 0.24
   vertex -10.07223460036945 33.05488008505372 0.24
  endloop
 endfacet
 facet normal 0.0 0.0 -1.0
  outer loop
   vertex -3.504733484650151 57.05288008505373 0
   vertex -7.10433348465016 48.05388008505372 0
   vertex -10.072234600369452 48.05388008505373 0
  endloop
 endfacet
 facet normal -0.0 0.0 -1.0
  outer loop
   vertex -3.504733484650151 57.05288008505373 0
   vertex -10.072234600369452 48.05388008505373 0
   vertex -10.072234600369445 57.052880085053744 0
  endloop
 endfacet
 facet normal 0.9284766908852592 -0.37139067635410417 0.0
  outer loop
   vertex -7.10433348465016 48.05388008505372 0
   vertex -3.504733484650151 57.05288008505373 0
   vertex -3.504733484650151 57.05288008505373 0.24
  endloop
 endfacet
 facet normal 0.9284766908852592 -0.37139067635410417 0.0
  outer loop
   vertex -7.10433348465016 48.05388008505372 0.24
   vertex -7.10433348465016 48.05388008505372 0
   vertex -3.504733484650151 57.05288008505373 0.24
  endloop
 endfacet
 facet normal -2.3940916764266758e-15 -1.0 0.0
  outer loop
   vertex -10.072234600369452 48.05388008505373 0
   vertex -7.10433348465016 48.05388008505372 0
   vertex -7.10433348465016 48.05388008505372 0.24
  endloop
 endfacet
 facet normal -2.3940916764266758e-15 -1.0 -0.0
  outer loop
   vertex -10.072234600369452 48.05388008505373 0.24
   vertex -10.072234600369452 48.05388008505373 0
   vertex -7.10433348465016 48.05388008505372 0.24
  endloop
 endfacet
 facet normal -1.0 7.895796596956316e-16 0.0
  outer loop
   vertex -10.072234600369445 57.052880085053744 0
   vertex -10.072234600369452 48.05388008505373 0
   vertex -10.072234600369452 48.05388008505373 0.24
  endloop
 endfacet
 facet normal -1.0 7.895796596956316e-16 0.0
  outer loop
   vertex -10.072234600369445 57.052880085053744 0.24
   vertex -10.072234600369445 57.052880085053744 0
   vertex -10.072234600369452 48.05388008505373 0.24
  endloop
 endfacet
 facet normal 2.163814587132443e-15 1.0 0.0
  outer loop
   vertex -3.504733484650151 57.05288008505373 0
   vertex -10.072234600369445 57.052880085053744 0
   vertex -10.072234600369445 57.052880085053744 0.24
  endloop
 endfacet
 facet normal 2.163814587132443e-15 1.0 0.0
  outer loop
   vertex -3.504733484650151 57.05288008505373 0.24
   vertex -3.504733484650151 57.05288008505373 0
   vertex -10.072234600369445 57.052880085053744 0.24
  endloop
 endfacet
 facet normal 0.0 0.0 1.0
  outer loop
   vertex -3.504733484650151 57.05288008505373 0.24
   vertex -10.072234600369452 48.05388008505373 0.24
   vertex -7.10433348465016 48.05388008505372 0.24
  endloop
 endfacet
 facet normal 0.0 0.0 1.0
  outer loop
   vertex -3.504733484650151 57.05288008505373 0.24
   vertex -10.072234600369445 57.052880085053744 0.24
   vertex -10.072234600369452 48.05388008505373 0.24
  endloop
 endfacet
 facet normal 0.0 0.0 -1.0
  outer loop
   vertex 25.35826428391125 33.05488008505373 0
   vertex 28.957864283911256 42.05388008505374 0
   vertex 31.925765399630546 42.05388008505374 0
  endloop
 endfacet
 facet normal 0.0 0.0 -1.0
  outer loop
   vertex 25.35826428391125 33.05488008505373 0
   vertex 31.925765399630546 42.05388008505374 0
   vertex 31.925765399630546 33.05488008505373 0
  endloop
 endfacet
 facet normal -0.9284766908852592 0.3713906763541039 0.0
  outer loop
   vertex 28.957864283911256 42.05388008505374 0
   vertex 25.35826428391125 33.05488008505373 0
   vertex 25.35826428391125 33.05488008505373 0.24
  endloop
 endfacet
 facet normal -0.9284766908852592 0.3713906763541039 0.0
  outer loop
   vertex 28.957864283911256 42.05388008505374 0.24
   vertex 28.957864283911256 42.05388008505374 0
   vertex 25.35826428391125 33.05488008505373 0.24
  endloop
 endfacet
 facet normal 0.0 1.0 0.0
  outer loop
   vertex 31.925765399630546 42.05388008505374 0
   vertex 28.957864283911256 42.05388008505374 0
   vertex 28.957864283911256 42.05388008505374 0.24
  endloop
 endfacet
 facet normal 0.0 1.0 0.0
  outer loop
   vertex 31.925765399630546 42.05388008505374 0.24
   vertex 31.925765399630546 42.05388008505374 0
   vertex 28.957864283911256 42.05388008505374 0.24
  endloop
 endfacet
 facet normal 1.0 0.0 0.0
  outer loop
   vertex 31.925765399630546 33.05488008505373 0
   vertex 31.925765399630546 42.05388008505374 0
   vertex 31.925765399630546 42.05388008505374 0.24
  endloop
 endfacet
 facet normal 1.0 -0.0 0.0
  outer loop
   vertex 31.925765399630546 33.05488008505373 0.24
   vertex 31.925765399630546 33.05488008505373 0
   vertex 31.925765399630546 42.05388008505374 0.24
  endloop
 endfacet
 facet normal 0.0 -1.0 0.0
  outer loop
   vertex 25.35826428391125 33.05488008505373 0
   vertex 31.925765399630546 33.05488008505373 0
   vertex 31.925765399630546 33.05488008505373 0.24
  endloop
 endfacet
 facet normal 0.0 -1.0 0.0
  outer loop
   vertex 25.35826428391125 33.05488008505373 0.24
   vertex 25.35826428391125 33.05488008505373 0
   vertex 31.925765399630546 33.05488008505373 0.24
  endloop
 endfacet
 facet normal 0.0 0.0 1.0
  outer loop
   vertex 25.35826428391125 33.05488008505373 0.24
   vertex 31.925765399630546 42.05388008505374 0.24
   vertex 28.957864283911256 42.05388008505374 0.24
  endloop
 endfacet
 facet normal 0.0 0.0 1.0
  outer loop
   vertex 25.35826428391125 33.05488008505373 0.24
   vertex 31.925765399630546 33.05488008505373 0.24
   vertex 31.925765399630546 42.05388008505374 0.24
  endloop
 endfacet
 facet normal 0.0 0.0 -1.0
  outer loop
   vertex 28.95786428391125 48.05388008505374 0
   vertex 25.358264283911257 57.05288008505373 0
   vertex 31.925765399630546 57.052880085053715 0
  endloop
 endfacet
 facet normal 0.0 0.0 -1.0
  outer loop
   vertex 28.95786428391125 48.05388008505374 0
   vertex 31.925765399630546 57.052880085053715 0
   vertex 31.925765399630546 48.05388008505374 0
  endloop
 endfacet
 facet normal -0.9284766908852594 -0.3713906763541034 0.0
  outer loop
   vertex 25.358264283911257 57.05288008505373 0
   vertex 28.95786428391125 48.05388008505374 0
   vertex 28.95786428391125 48.05388008505374 0.24
  endloop
 endfacet
 facet normal -0.9284766908852594 -0.3713906763541034 -0.0
  outer loop
   vertex 25.358264283911257 57.05288008505373 0.24
   vertex 25.358264283911257 57.05288008505373 0
   vertex 28.95786428391125 48.05388008505374 0.24
  endloop
 endfacet
 facet normal 2.1638145871324448e-15 1.0 0.0
  outer loop
   vertex 31.925765399630546 57.052880085053715 0
   vertex 25.358264283911257 57.05288008505373 0
   vertex 25.358264283911257 57.05288008505373 0.24
  endloop
 endfacet
 facet normal 2.1638145871324448e-15 1.0 0.0
  outer loop
   vertex 31.925765399630546 57.052880085053715 0.24
   vertex 31.925765399630546 57.052880085053715 0
   vertex 25.358264283911257 57.05288008505373 0.24
  endloop
 endfacet
 facet normal 1.0 0.0 0.0
  outer loop
   vertex 31.925765399630546 48.05388008505374 0
   vertex 31.925765399630546 57.052880085053715 0
   vertex 31.925765399630546 57.052880085053715 0.24
  endloop
 endfacet
 facet normal 1.0 -0.0 0.0
  outer loop
   vertex 31.925765399630546 48.05388008505374 0.24
   vertex 31.925765399630546 48.05388008505374 0
   vertex 31.925765399630546 57.052880085053715 0.24
  endloop
 endfacet
 facet normal 0.0 -1.0 0.0
  outer loop
   vertex 28.95786428391125 48.05388008505374 0
   vertex 31.925765399630546 48.05388008505374 0
   vertex 31.925765399630546 48.05388008505374 0.24
  endloop
 endfacet
 facet normal 0.0 -1.0 0.0
  outer loop
   vertex 28.95786428391125 48.05388008505374 0.24
   vertex 28.95786428391125 48.05388008505374 0
   vertex 31.925765399630546 48.05388008505374 0.24
  endloop
 endfacet
 facet normal 0.0 -0.0 1.0
  outer loop
   vertex 28.95786428391125 48.05388008505374 0.24
   vertex 31.925765399630546 57.052880085053715 0.24
   vertex 25.358264283911257 57.05288008505373 0.24
  endloop
 endfacet
 facet normal 0.0 0.0 1.0
  outer loop
   vertex 28.95786428391125 48.05388008505374 0.24
   vertex 31.925765399630546 48.05388008505374 0.24
   vertex 31.925765399630546 57.052880085053715 0.24
  endloop
 endfacet
 facet normal 0.0 0.0 -1.0
  outer loop
   vertex 3.524850288570387 31.63641507340589 0
   vertex -0.6421357160887509 42.053880085053734 0
   vertex 9.956060606060607 34.19951591370627 0
  endloop
 endfacet
 facet normal 0.0 0.0 -1.0
  outer loop
   vertex -0.6421357160887509 42.053880085053734 0
   vertex 22.495666515349846 42.053880085053734 0
   vertex 11.943582636870666 33.9906189305843 0
  endloop
 endfacet
 facet normal 0.0 0.0 -1.0
  outer loop
   vertex 22.495666515349846 42.053880085053734 0
   vertex 18.328680510690713 31.6364150734059 0
   vertex 12.506060606060608 32.72727272727273 0
  endloop
 endfacet
 facet normal -0.0 0.0 -1.0
  outer loop
   vertex 18.328680510690713 31.6364150734059 0
   vertex 10.926765399630547 23.054206886250327 0
   vertex 12.506060606060608 32.72727272727273 0
  endloop
 endfacet
 facet normal 0.0 0.0 -1.0
  outer loop
   vertex 10.926765399630547 23.054206886250327 0
   vertex 3.524850288570387 31.63641507340589 0
   vertex 9.143209684813137 32.37382285288253 0
  endloop
 endfacet
 facet normal 0.0 0.0 -1.0
  outer loop
   vertex 12.506060606060608 32.72727272727273 0
   vertex 12.359087884053029 33.41872502050159 0
   vertex 22.495666515349846 42.053880085053734 0
  endloop
 endfacet
 facet normal 0.0 0.0 -1.0
  outer loop
   vertex 12.506060606060608 32.72727272727273 0
   vertex 10.926765399630547 23.054206886250327 0
   vertex 12.359087884053029 32.03582043404386 0
  endloop
 endfacet
 facet normal 0.0 0.0 -1.0
  outer loop
   vertex 12.359087884053029 33.41872502050159 0
   vertex 11.943582636870666 33.9906189305843 0
   vertex 22.495666515349846 42.053880085053734 0
  endloop
 endfacet
 facet normal 0.0 0.0 -1.0
  outer loop
   vertex 11.943582636870666 33.9906189305843 0
   vertex 11.331389496498018 34.34406880497449 0
   vertex -0.6421357160887509 42.053880085053734 0
  endloop
 endfacet
 facet normal 0.0 0.0 -1.0
  outer loop
   vertex 11.331389496498018 34.34406880497449 0
   vertex 10.628362218505595 34.41795994939879 0
   vertex -0.6421357160887509 42.053880085053734 0
  endloop
 endfacet
 facet normal -0.0 0.0 -1.0
  outer loop
   vertex 10.628362218505595 34.41795994939879 0
   vertex 9.956060606060607 34.19951591370627 0
   vertex -0.6421357160887509 42.053880085053734 0
  endloop
 endfacet
 facet normal 0.0 0.0 -1.0
  outer loop
   vertex 9.956060606060607 34.19951591370627 0
   vertex 9.430731715623196 33.72650765616993 0
   vertex 3.524850288570387 31.63641507340589 0
  endloop
 endfacet
 facet normal 0.0 0.0 -1.0
  outer loop
   vertex 9.430731715623196 33.72650765616993 0
   vertex 9.143209684813137 33.08072260166292 0
   vertex 3.524850288570387 31.63641507340589 0
  endloop
 endfacet
 facet normal 0.0 -0.0 -1.0
  outer loop
   vertex 9.143209684813137 33.08072260166292 0
   vertex 9.143209684813137 32.37382285288253 0
   vertex 3.524850288570387 31.63641507340589 0
  endloop
 endfacet
 facet normal 0.0 0.0 -1.0
  outer loop
   vertex 9.143209684813137 32.37382285288253 0
   vertex 9.430731715623196 31.72803779837552 0
   vertex 10.926765399630547 23.054206886250327 0
  endloop
 endfacet
 facet normal 0.0 0.0 -1.0
  outer loop
   vertex 9.430731715623196 31.72803779837552 0
   vertex 9.956060606060605 31.255029540839182 0
   vertex 10.926765399630547 23.054206886250327 0
  endloop
 endfacet
 facet normal 0.0 0.0 -1.0
  outer loop
   vertex 9.956060606060605 31.255029540839182 0
   vertex 10.628362218505595 31.03658550514666 0
   vertex 10.926765399630547 23.054206886250327 0
  endloop
 endfacet
 facet normal 0.0 0.0 -1.0
  outer loop
   vertex 10.628362218505595 31.03658550514666 0
   vertex 11.331389496498018 31.110476649570966 0
   vertex 10.926765399630547 23.054206886250327 0
  endloop
 endfacet
 facet normal 0.0 -0.0 -1.0
  outer loop
   vertex 11.331389496498018 31.110476649570966 0
   vertex 11.943582636870666 31.463926523961156 0
   vertex 10.926765399630547 23.054206886250327 0
  endloop
 endfacet
 facet normal 0.0 -0.0 -1.0
  outer loop
   vertex 11.943582636870666 31.463926523961156 0
   vertex 12.359087884053029 32.03582043404386 0
   vertex 10.926765399630547 23.054206886250327 0
  endloop
 endfacet
 facet normal -0.9284766908852594 -0.37139067635410367 0.0
  outer loop
   vertex -0.6421357160887509 42.053880085053734 0
   vertex 3.524850288570387 31.63641507340589 0
   vertex 3.524850288570387 31.63641507340589 0.24
  endloop
 endfacet
 facet normal -0.9284766908852594 -0.37139067635410367 -0.0
  outer loop
   vertex -0.6421357160887509 42.053880085053734 0.24
   vertex -0.6421357160887509 42.053880085053734 0
   vertex 3.524850288570387 31.63641507340589 0.24
  endloop
 endfacet
 facet normal 0.0 1.0 0.0
  outer loop
   vertex 22.495666515349846 42.053880085053734 0
   vertex -0.6421357160887509 42.053880085053734 0
   vertex -0.6421357160887509 42.053880085053734 0.24
  endloop
 endfacet
 facet normal 0.0 1.0 0.0
  outer loop
   vertex 22.495666515349846 42.053880085053734 0.24
   vertex 22.495666515349846 42.053880085053734 0
   vertex -0.6421357160887509 42.053880085053734 0.24
  endloop
 endfacet
 facet normal 0.9284766908852593 -0.3713906763541036 0.0
  outer loop
   vertex 18.328680510690713 31.6364150734059 0
   vertex 22.495666515349846 42.053880085053734 0
   vertex 22.495666515349846 42.053880085053734 0.24
  endloop
 endfacet
 facet normal 0.9284766908852593 -0.3713906763541036 0.0
  outer loop
   vertex 18.328680510690713 31.6364150734059 0.24
   vertex 18.328680510690713 31.6364150734059 0
   vertex 22.495666515349846 42.053880085053734 0.24
  endloop
 endfacet
 facet normal 0.7572589689529782 -0.6531147326008445 0.0
  outer loop
   vertex 10.926765399630547 23.054206886250327 0
   vertex 18.328680510690713 31.6364150734059 0
   vertex 18.328680510690713 31.6364150734059 0.24
  endloop
 endfacet
 facet normal 0.7572589689529782 -0.6531147326008445 0.0
  outer loop
   vertex 10.926765399630547 23.054206886250327 0.24
   vertex 10.926765399630547 23.054206886250327 0
   vertex 18.328680510690713 31.6364150734059 0.24
  endloop
 endfacet
 facet normal -0.757258968952978 -0.6531147326008446 0.0
  outer loop
   vertex 3.524850288570387 31.63641507340589 0
   vertex 10.926765399630547 23.054206886250327 0
   vertex 10.926765399630547 23.054206886250327 0.24
  endloop
 endfacet
 facet normal -0.757258968952978 -0.6531147326008446 -0.0
  outer loop
   vertex 3.524850288570387 31.63641507340589 0.24
   vertex 3.524850288570387 31.63641507340589 0
   vertex 10.926765399630547 23.054206886250327 0.24
  endloop
 endfacet
 facet normal 0.0 -0.0 1.0
  outer loop
   vertex 3.524850288570387 31.63641507340589 0.24
   vertex 9.956060606060607 34.19951591370627 0.24
   vertex -0.6421357160887509 42.053880085053734 0.24
  endloop
 endfacet
 facet normal -0.0 0.0 1.0
  outer loop
   vertex -0.6421357160887509 42.053880085053734 0.24
   vertex 11.943582636870666 33.9906189305843 0.24
   vertex 22.495666515349846 42.053880085053734 0.24
  endloop
 endfacet
 facet normal 0.0 0.0 1.0
  outer loop
   vertex 22.495666515349846 42.053880085053734 0.24
   vertex 12.506060606060608 32.72727272727273 0.24
   vertex 18.328680510690713 31.6364150734059 0.24
  endloop
 endfacet
 facet normal 0.0 0.0 1.0
  outer loop
   vertex 18.328680510690713 31.6364150734059 0.24
   vertex 12.506060606060608 32.72727272727273 0.24
   vertex 10.926765399630547 23.054206886250327 0.24
  endloop
 endfacet
 facet normal 0.0 0.0 1.0
  outer loop
   vertex 10.926765399630547 23.054206886250327 0.24
   vertex 9.143209684813137 32.37382285288253 0.24
   vertex 3.524850288570387 31.63641507340589 0.24
  endloop
 endfacet
 facet normal 0.0 -0.0 1.0
  outer loop
   vertex 12.506060606060608 32.72727272727273 0.24
   vertex 22.495666515349846 42.053880085053734 0.24
   vertex 12.359087884053029 33.41872502050159 0.24
  endloop
 endfacet
 facet normal 0.0 0.0 1.0
  outer loop
   vertex 12.506060606060608 32.72727272727273 0.24
   vertex 12.359087884053029 32.03582043404386 0.24
   vertex 10.926765399630547 23.054206886250327 0.24
  endloop
 endfacet
 facet normal 0.0 -0.0 1.0
  outer loop
   vertex 12.359087884053029 33.41872502050159 0.24
   vertex 22.495666515349846 42.053880085053734 0.24
   vertex 11.943582636870666 33.9906189305843 0.24
  endloop
 endfacet
 facet normal 0.0 0.0 1.0
  outer loop
   vertex 11.943582636870666 33.9906189305843 0.24
   vertex -0.6421357160887509 42.053880085053734 0.24
   vertex 11.331389496498018 34.34406880497449 0.24
  endloop
 endfacet
 facet normal 0.0 0.0 1.0
  outer loop
   vertex 11.331389496498018 34.34406880497449 0.24
   vertex -0.6421357160887509 42.053880085053734 0.24
   vertex 10.628362218505595 34.41795994939879 0.24
  endloop
 endfacet
 facet normal 0.0 0.0 1.0
  outer loop
   vertex 10.628362218505595 34.41795994939879 0.24
   vertex -0.6421357160887509 42.053880085053734 0.24
   vertex 9.956060606060607 34.19951591370627 0.24
  endloop
 endfacet
 facet normal 0.0 0.0 1.0
  outer loop
   vertex 9.956060606060607 34.19951591370627 0.24
   vertex 3.524850288570387 31.63641507340589 0.24
   vertex 9.430731715623196 33.72650765616993 0.24
  endloop
 endfacet
 facet normal 0.0 0.0 1.0
  outer loop
   vertex 9.430731715623196 33.72650765616993 0.24
   vertex 3.524850288570387 31.63641507340589 0.24
   vertex 9.143209684813137 33.08072260166292 0.24
  endloop
 endfacet
 facet normal 0.0 0.0 1.0
  outer loop
   vertex 9.143209684813137 33.08072260166292 0.24
   vertex 3.524850288570387 31.63641507340589 0.24
   vertex 9.143209684813137 32.37382285288253 0.24
  endloop
 endfacet
 facet normal 0.0 0.0 1.0
  outer loop
   vertex 9.143209684813137 32.37382285288253 0.24
   vertex 10.926765399630547 23.054206886250327 0.24
   vertex 9.430731715623196 31.72803779837552 0.24
  endloop
 endfacet
 facet normal 0.0 0.0 1.0
  outer loop
   vertex 9.430731715623196 31.72803779837552 0.24
   vertex 10.926765399630547 23.054206886250327 0.24
   vertex 9.956060606060605 31.255029540839182 0.24
  endloop
 endfacet
 facet normal 0.0 0.0 1.0
  outer loop
   vertex 9.956060606060605 31.255029540839182 0.24
   vertex 10.926765399630547 23.054206886250327 0.24
   vertex 10.628362218505595 31.03658550514666 0.24
  endloop
 endfacet
 facet normal -0.0 0.0 1.0
  outer loop
   vertex 10.628362218505595 31.03658550514666 0.24
   vertex 10.926765399630547 23.054206886250327 0.24
   vertex 11.331389496498018 31.110476649570966 0.24
  endloop
 endfacet
 facet normal -0.0 0.0 1.0
  outer loop
   vertex 11.331389496498018 31.110476649570966 0.24
   vertex 10.926765399630547 23.054206886250327 0.24
   vertex 11.943582636870666 31.463926523961156 0.24
  endloop
 endfacet
 facet normal -0.0 0.0 1.0
  outer loop
   vertex 11.943582636870666 31.463926523961156 0.24
   vertex 10.926765399630547 23.054206886250327 0.24
   vertex 12.359087884053029 32.03582043404386 0.24
  endloop
 endfacet
 facet normal -0.9781476007338057 -0.20791169081775912 0.0
  outer loop
   vertex 12.506060606060608 32.72727272727273 0
   vertex 12.506060606060608 32.72727272727273 0.24
   vertex 12.359087884053029 33.41872502050159 0
  endloop
 endfacet
 facet normal -0.9781476007338057 -0.20791169081775912 0.0
  outer loop
   vertex 12.359087884053029 33.41872502050159 0
   vertex 12.506060606060608 32.72727272727273 0.24
   vertex 12.359087884053029 33.41872502050159 0.24
  endloop
 endfacet
 facet normal -0.8090169943749458 -0.5877852522924754 0.0
  outer loop
   vertex 12.359087884053029 33.41872502050159 0
   vertex 12.359087884053029 33.41872502050159 0.24
   vertex 11.943582636870666 33.9906189305843 0
  endloop
 endfacet
 facet normal -0.8090169943749458 -0.5877852522924754 0.0
  outer loop
   vertex 11.943582636870666 33.9906189305843 0
   vertex 12.359087884053029 33.41872502050159 0.24
   vertex 11.943582636870666 33.9906189305843 0.24
  endloop
 endfacet
 facet normal -0.500000000000003 -0.866025403784437 0.0
  outer loop
   vertex 11.943582636870666 33.9906189305843 0
   vertex 11.943582636870666 33.9906189305843 0.24
   vertex 11.331389496498018 34.34406880497449 0
  endloop
 endfacet
 facet normal -0.500000000000003 -0.866025403784437 0.0
  outer loop
   vertex 11.331389496498018 34.34406880497449 0
   vertex 11.943582636870666 33.9906189305843 0.24
   vertex 11.331389496498018 34.34406880497449 0.24
  endloop
 endfacet
 facet normal -0.10452846326765047 -0.9945218953682736 0.0
  outer loop
   vertex 11.331389496498018 34.34406880497449 0
   vertex 11.331389496498018 34.34406880497449 0.24
   vertex 10.628362218505595 34.41795994939879 0
  endloop
 endfacet
 facet normal -0.10452846326765047 -0.9945218953682736 0.0
  outer loop
   vertex 10.628362218505595 34.41795994939879 0
   vertex 11.331389496498018 34.34406880497449 0.24
   vertex 10.628362218505595 34.41795994939879 0.24
  endloop
 endfacet
 facet normal 0.3090169943749502 -0.9510565162951528 0.0
  outer loop
   vertex 10.628362218505595 34.41795994939879 0
   vertex 10.628362218505595 34.41795994939879 0.24
   vertex 9.956060606060607 34.19951591370627 0
  endloop
 endfacet
 facet normal 0.3090169943749502 -0.9510565162951528 0.0
  outer loop
   vertex 9.956060606060607 34.19951591370627 0
   vertex 10.628362218505595 34.41795994939879 0.24
   vertex 9.956060606060607 34.19951591370627 0.24
  endloop
 endfacet
 facet normal 0.669130606358859 -0.7431448254773936 0.0
  outer loop
   vertex 9.956060606060607 34.19951591370627 0
   vertex 9.956060606060607 34.19951591370627 0.24
   vertex 9.430731715623196 33.72650765616993 0
  endloop
 endfacet
 facet normal 0.669130606358859 -0.7431448254773936 0.0
  outer loop
   vertex 9.430731715623196 33.72650765616993 0
   vertex 9.956060606060607 34.19951591370627 0.24
   vertex 9.430731715623196 33.72650765616993 0.24
  endloop
 endfacet
 facet normal 0.9135454576425996 -0.40673664307580326 0.0
  outer loop
   vertex 9.430731715623196 33.72650765616993 0
   vertex 9.430731715623196 33.72650765616993 0.24
   vertex 9.143209684813137 33.08072260166292 0
  endloop
 endfacet
 facet normal 0.9135454576425996 -0.40673664307580326 0.0
  outer loop
   vertex 9.143209684813137 33.08072260166292 0
   vertex 9.430731715623196 33.72650765616993 0.24
   vertex 9.143209684813137 33.08072260166292 0.24
  endloop
 endfacet
 facet normal 1.0 0.0 -0.0
  outer loop
   vertex 9.143209684813137 33.08072260166292 0
   vertex 9.143209684813137 33.08072260166292 0.24
   vertex 9.143209684813137 32.37382285288253 0
  endloop
 endfacet
 facet normal 1.0 0.0 0.0
  outer loop
   vertex 9.143209684813137 32.37382285288253 0
   vertex 9.143209684813137 33.08072260166292 0.24
   vertex 9.143209684813137 32.37382285288253 0.24
  endloop
 endfacet
 facet normal 0.9135454576426003 0.4067366430758013 -0.0
  outer loop
   vertex 9.143209684813137 32.37382285288253 0
   vertex 9.143209684813137 32.37382285288253 0.24
   vertex 9.430731715623196 31.72803779837552 0
  endloop
 endfacet
 facet normal 0.9135454576426003 0.4067366430758013 -0.0
  outer loop
   vertex 9.430731715623196 31.72803779837552 0
   vertex 9.143209684813137 32.37382285288253 0.24
   vertex 9.430731715623196 31.72803779837552 0.24
  endloop
 endfacet
 facet normal 0.6691306063588573 0.7431448254773949 -0.0
  outer loop
   vertex 9.430731715623196 31.72803779837552 0
   vertex 9.430731715623196 31.72803779837552 0.24
   vertex 9.956060606060605 31.255029540839182 0
  endloop
 endfacet
 facet normal 0.6691306063588573 0.7431448254773949 -0.0
  outer loop
   vertex 9.956060606060605 31.255029540839182 0
   vertex 9.430731715623196 31.72803779837552 0.24
   vertex 9.956060606060605 31.255029540839182 0.24
  endloop
 endfacet
 facet normal 0.30901699437494945 0.951056516295153 -0.0
  outer loop
   vertex 9.956060606060605 31.255029540839182 0
   vertex 9.956060606060605 31.255029540839182 0.24
   vertex 10.628362218505595 31.03658550514666 0
  endloop
 endfacet
 facet normal 0.30901699437494945 0.951056516295153 -0.0
  outer loop
   vertex 10.628362218505595 31.03658550514666 0
   vertex 9.956060606060605 31.255029540839182 0.24
   vertex 10.628362218505595 31.03658550514666 0.24
  endloop
 endfacet
 facet normal -0.10452846326765546 0.9945218953682732 0.0
  outer loop
   vertex 10.628362218505595 31.03658550514666 0
   vertex 10.628362218505595 31.03658550514666 0.24
   vertex 11.331389496498018 31.110476649570966 0
  endloop
 endfacet
 facet normal -0.10452846326765546 0.9945218953682732 0.0
  outer loop
   vertex 11.331389496498018 31.110476649570966 0
   vertex 10.628362218505595 31.03658550514666 0.24
   vertex 11.331389496498018 31.110476649570966 0.24
  endloop
 endfacet
 facet normal -0.4999999999999991 0.8660254037844392 0.0
  outer loop
   vertex 11.331389496498018 31.110476649570966 0
   vertex 11.331389496498018 31.110476649570966 0.24
   vertex 11.943582636870666 31.463926523961156 0
  endloop
 endfacet
 facet normal -0.4999999999999991 0.8660254037844392 0.0
  outer loop
   vertex 11.943582636870666 31.463926523961156 0
   vertex 11.331389496498018 31.110476649570966 0.24
   vertex 11.943582636870666 31.463926523961156 0.24
  endloop
 endfacet
 facet normal -0.8090169943749458 0.5877852522924754 0.0
  outer loop
   vertex 11.943582636870666 31.463926523961156 0
   vertex 11.943582636870666 31.463926523961156 0.24
   vertex 12.359087884053029 32.03582043404386 0
  endloop
 endfacet
 facet normal -0.8090169943749458 0.5877852522924754 0.0
  outer loop
   vertex 12.359087884053029 32.03582043404386 0
   vertex 11.943582636870666 31.463926523961156 0.24
   vertex 12.359087884053029 32.03582043404386 0.24
  endloop
 endfacet
 facet normal -0.9781476007338057 0.20791169081775912 0.0
  outer loop
   vertex 12.359087884053029 32.03582043404386 0
   vertex 12.359087884053029 32.03582043404386 0.24
   vertex 12.506060606060608 32.72727272727273 0
  endloop
 endfacet
 facet normal -0.9781476007338057 0.20791169081775912 0.0
  outer loop
   vertex 12.506060606060608 32.72727272727273 0
   vertex 12.359087884053029 32.03582043404386 0.24
   vertex 12.506060606060608 32.72727272727273 0.24
  endloop
 endfacet
 facet normal 0.0 0.0 -1.0
  outer loop
   vertex -0.642135716088746 48.053880085053734 0
   vertex 3.524850288570392 58.47134509670157 0
   vertex 9.379216564108043 58.93862886829113 0
  endloop
 endfacet
 facet normal 0.0 0.0 -1.0
  outer loop
   vertex 3.524850288570392 58.47134509670157 0
   vertex 10.926765399630552 67.05355328385711 0
   vertex 10.576847066990442 59.630081161519996 0
  endloop
 endfacet
 facet normal 0.0 0.0 -1.0
  outer loop
   vertex 10.926765399630552 67.05355328385711 0
   vertex 18.328680510690713 58.47134509670158 0
   vertex 12.454545454545455 57.93939393939393 0
  endloop
 endfacet
 facet normal 0.0 -0.0 -1.0
  outer loop
   vertex 18.328680510690713 58.47134509670158 0
   vertex 22.495666515349846 48.053880085053734 0
   vertex 12.454545454545455 57.93939393939393 0
  endloop
 endfacet
 facet normal 0.0 0.0 -1.0
  outer loop
   vertex 22.495666515349846 48.053880085053734 0
   vertex -0.642135716088746 48.053880085053734 0
   vertex 9.904545454545453 56.467150752960386 0
  endloop
 endfacet
 facet normal 0.0 0.0 -1.0
  outer loop
   vertex 12.454545454545455 57.93939393939393 0
   vertex 12.307572732537876 58.630846232622794 0
   vertex 10.926765399630552 67.05355328385711 0
  endloop
 endfacet
 facet normal 0.0 -0.0 -1.0
  outer loop
   vertex 12.454545454545455 57.93939393939393 0
   vertex 22.495666515349846 48.053880085053734 0
   vertex 12.307572732537874 57.24794164616507 0
  endloop
 endfacet
 facet normal 0.0 0.0 -1.0
  outer loop
   vertex 12.307572732537876 58.630846232622794 0
   vertex 11.892067485355513 59.2027401427055 0
   vertex 10.926765399630552 67.05355328385711 0
  endloop
 endfacet
 facet normal 0.0 0.0 -1.0
  outer loop
   vertex 11.892067485355513 59.2027401427055 0
   vertex 11.279874344982865 59.556190017095695 0
   vertex 10.926765399630552 67.05355328385711 0
  endloop
 endfacet
 facet normal 0.0 0.0 -1.0
  outer loop
   vertex 11.279874344982865 59.556190017095695 0
   vertex 10.576847066990442 59.630081161519996 0
   vertex 10.926765399630552 67.05355328385711 0
  endloop
 endfacet
 facet normal 0.0 0.0 -1.0
  outer loop
   vertex 10.576847066990442 59.630081161519996 0
   vertex 9.904545454545454 59.411637125827475 0
   vertex 3.524850288570392 58.47134509670157 0
  endloop
 endfacet
 facet normal 0.0 0.0 -1.0
  outer loop
   vertex 9.904545454545454 59.411637125827475 0
   vertex 9.379216564108043 58.93862886829113 0
   vertex 3.524850288570392 58.47134509670157 0
  endloop
 endfacet
 facet normal 0.0 0.0 -1.0
  outer loop
   vertex 9.379216564108043 58.93862886829113 0
   vertex 9.091694533297984 58.292843813784124 0
   vertex -0.642135716088746 48.053880085053734 0
  endloop
 endfacet
 facet normal 0.0 -0.0 -1.0
  outer loop
   vertex 9.091694533297984 58.292843813784124 0
   vertex 9.091694533297984 57.58594406500374 0
   vertex -0.642135716088746 48.053880085053734 0
  endloop
 endfacet
 facet normal 0.0 -0.0 -1.0
  outer loop
   vertex 9.091694533297984 57.58594406500374 0
   vertex 9.379216564108043 56.94015901049673 0
   vertex -0.642135716088746 48.053880085053734 0
  endloop
 endfacet
 facet normal 0.0 -0.0 -1.0
  outer loop
   vertex 9.379216564108043 56.94015901049673 0
   vertex 9.904545454545453 56.467150752960386 0
   vertex -0.642135716088746 48.053880085053734 0
  endloop
 endfacet
 facet normal 0.0 0.0 -1.0
  outer loop
   vertex 9.904545454545453 56.467150752960386 0
   vertex 10.576847066990442 56.248706717267865 0
   vertex 22.495666515349846 48.053880085053734 0
  endloop
 endfacet
 facet normal 0.0 0.0 -1.0
  outer loop
   vertex 10.576847066990442 56.248706717267865 0
   vertex 11.279874344982865 56.32259786169217 0
   vertex 22.495666515349846 48.053880085053734 0
  endloop
 endfacet
 facet normal 0.0 0.0 -1.0
  outer loop
   vertex 11.279874344982865 56.32259786169217 0
   vertex 11.892067485355513 56.67604773608236 0
   vertex 22.495666515349846 48.053880085053734 0
  endloop
 endfacet
 facet normal 0.0 0.0 -1.0
  outer loop
   vertex 11.892067485355513 56.67604773608236 0
   vertex 12.307572732537874 57.24794164616507 0
   vertex 22.495666515349846 48.053880085053734 0
  endloop
 endfacet
 facet normal -0.9284766908852592 0.371390676354104 0.0
  outer loop
   vertex 3.524850288570392 58.47134509670157 0
   vertex -0.642135716088746 48.053880085053734 0
   vertex -0.642135716088746 48.053880085053734 0.24
  endloop
 endfacet
 facet normal -0.9284766908852592 0.371390676354104 0.0
  outer loop
   vertex 3.524850288570392 58.47134509670157 0.24
   vertex 3.524850288570392 58.47134509670157 0
   vertex -0.642135716088746 48.053880085053734 0.24
  endloop
 endfacet
 facet normal -0.7572589689529773 0.6531147326008455 0.0
  outer loop
   vertex 10.926765399630552 67.05355328385711 0
   vertex 3.524850288570392 58.47134509670157 0
   vertex 3.524850288570392 58.47134509670157 0.24
  endloop
 endfacet
 facet normal -0.7572589689529773 0.6531147326008455 0.0
  outer loop
   vertex 10.926765399630552 67.05355328385711 0.24
   vertex 10.926765399630552 67.05355328385711 0
   vertex 3.524850288570392 58.47134509670157 0.24
  endloop
 endfacet
 facet normal 0.7572589689529767 0.6531147326008461 0.0
  outer loop
   vertex 18.328680510690713 58.47134509670158 0
   vertex 10.926765399630552 67.05355328385711 0
   vertex 10.926765399630552 67.05355328385711 0.24
  endloop
 endfacet
 facet normal 0.7572589689529767 0.6531147326008461 0.0
  outer loop
   vertex 18.328680510690713 58.47134509670158 0.24
   vertex 18.328680510690713 58.47134509670158 0
   vertex 10.926765399630552 67.05355328385711 0.24
  endloop
 endfacet
 facet normal 0.9284766908852596 0.3713906763541032 0.0
  outer loop
   vertex 22.495666515349846 48.053880085053734 0
   vertex 18.328680510690713 58.47134509670158 0
   vertex 18.328680510690713 58.47134509670158 0.24
  endloop
 endfacet
 facet normal 0.9284766908852596 0.3713906763541032 0.0
  outer loop
   vertex 22.495666515349846 48.053880085053734 0.24
   vertex 22.495666515349846 48.053880085053734 0
   vertex 18.328680510690713 58.47134509670158 0.24
  endloop
 endfacet
 facet normal 0.0 -1.0 0.0
  outer loop
   vertex -0.642135716088746 48.053880085053734 0
   vertex 22.495666515349846 48.053880085053734 0
   vertex 22.495666515349846 48.053880085053734 0.24
  endloop
 endfacet
 facet normal 0.0 -1.0 0.0
  outer loop
   vertex -0.642135716088746 48.053880085053734 0.24
   vertex -0.642135716088746 48.053880085053734 0
   vertex 22.495666515349846 48.053880085053734 0.24
  endloop
 endfacet
 facet normal 0.0 0.0 1.0
  outer loop
   vertex -0.642135716088746 48.053880085053734 0.24
   vertex 9.379216564108043 58.93862886829113 0.24
   vertex 3.524850288570392 58.47134509670157 0.24
  endloop
 endfacet
 facet normal 0.0 0.0 1.0
  outer loop
   vertex 3.524850288570392 58.47134509670157 0.24
   vertex 10.576847066990442 59.630081161519996 0.24
   vertex 10.926765399630552 67.05355328385711 0.24
  endloop
 endfacet
 facet normal 0.0 0.0 1.0
  outer loop
   vertex 10.926765399630552 67.05355328385711 0.24
   vertex 12.454545454545455 57.93939393939393 0.24
   vertex 18.328680510690713 58.47134509670158 0.24
  endloop
 endfacet
 facet normal 0.0 0.0 1.0
  outer loop
   vertex 18.328680510690713 58.47134509670158 0.24
   vertex 12.454545454545455 57.93939393939393 0.24
   vertex 22.495666515349846 48.053880085053734 0.24
  endloop
 endfacet
 facet normal 0.0 0.0 1.0
  outer loop
   vertex 22.495666515349846 48.053880085053734 0.24
   vertex 9.904545454545453 56.467150752960386 0.24
   vertex -0.642135716088746 48.053880085053734 0.24
  endloop
 endfacet
 facet normal 0.0 0.0 1.0
  outer loop
   vertex 12.454545454545455 57.93939393939393 0.24
   vertex 10.926765399630552 67.05355328385711 0.24
   vertex 12.307572732537876 58.630846232622794 0.24
  endloop
 endfacet
 facet normal 0.0 0.0 1.0
  outer loop
   vertex 12.454545454545455 57.93939393939393 0.24
   vertex 12.307572732537874 57.24794164616507 0.24
   vertex 22.495666515349846 48.053880085053734 0.24
  endloop
 endfacet
 facet normal 0.0 0.0 1.0
  outer loop
   vertex 12.307572732537876 58.630846232622794 0.24
   vertex 10.926765399630552 67.05355328385711 0.24
   vertex 11.892067485355513 59.2027401427055 0.24
  endloop
 endfacet
 facet normal 0.0 0.0 1.0
  outer loop
   vertex 11.892067485355513 59.2027401427055 0.24
   vertex 10.926765399630552 67.05355328385711 0.24
   vertex 11.279874344982865 59.556190017095695 0.24
  endloop
 endfacet
 facet normal 0.0 0.0 1.0
  outer loop
   vertex 11.279874344982865 59.556190017095695 0.24
   vertex 10.926765399630552 67.05355328385711 0.24
   vertex 10.576847066990442 59.630081161519996 0.24
  endloop
 endfacet
 facet normal 0.0 0.0 1.0
  outer loop
   vertex 10.576847066990442 59.630081161519996 0.24
   vertex 3.524850288570392 58.47134509670157 0.24
   vertex 9.904545454545454 59.411637125827475 0.24
  endloop
 endfacet
 facet normal 0.0 0.0 1.0
  outer loop
   vertex 9.904545454545454 59.411637125827475 0.24
   vertex 3.524850288570392 58.47134509670157 0.24
   vertex 9.379216564108043 58.93862886829113 0.24
  endloop
 endfacet
 facet normal 0.0 0.0 1.0
  outer loop
   vertex 9.379216564108043 58.93862886829113 0.24
   vertex -0.642135716088746 48.053880085053734 0.24
   vertex 9.091694533297984 58.292843813784124 0.24
  endloop
 endfacet
 facet normal 0.0 0.0 1.0
  outer loop
   vertex 9.091694533297984 58.292843813784124 0.24
   vertex -0.642135716088746 48.053880085053734 0.24
   vertex 9.091694533297984 57.58594406500374 0.24
  endloop
 endfacet
 facet normal 0.0 0.0 1.0
  outer loop
   vertex 9.091694533297984 57.58594406500374 0.24
   vertex -0.642135716088746 48.053880085053734 0.24
   vertex 9.379216564108043 56.94015901049673 0.24
  endloop
 endfacet
 facet normal 0.0 0.0 1.0
  outer loop
   vertex 9.379216564108043 56.94015901049673 0.24
   vertex -0.642135716088746 48.053880085053734 0.24
   vertex 9.904545454545453 56.467150752960386 0.24
  endloop
 endfacet
 facet normal 0.0 0.0 1.0
  outer loop
   vertex 9.904545454545453 56.467150752960386 0.24
   vertex 22.495666515349846 48.053880085053734 0.24
   vertex 10.576847066990442 56.248706717267865 0.24
  endloop
 endfacet
 facet normal -0.0 0.0 1.0
  outer loop
   vertex 10.576847066990442 56.248706717267865 0.24
   vertex 22.495666515349846 48.053880085053734 0.24
   vertex 11.279874344982865 56.32259786169217 0.24
  endloop
 endfacet
 facet normal -0.0 0.0 1.0
  outer loop
   vertex 11.279874344982865 56.32259786169217 0.24
   vertex 22.495666515349846 48.053880085053734 0.24
   vertex 11.892067485355513 56.67604773608236 0.24
  endloop
 endfacet
 facet normal -0.0 0.0 1.0
  outer loop
   vertex 11.892067485355513 56.67604773608236 0.24
   vertex 22.495666515349846 48.053880085053734 0.24
   vertex 12.307572732537874 57.24794164616507 0.24
  endloop
 endfacet
 facet normal -0.9781476007338057 -0.20791169081775912 0.0
  outer loop
   vertex 12.454545454545455 57.93939393939393 0
   vertex 12.454545454545455 57.93939393939393 0.24
   vertex 12.307572732537876 58.630846232622794 0
  endloop
 endfacet
 facet normal -0.9781476007338057 -0.20791169081775912 0.0
  outer loop
   vertex 12.307572732537876 58.630846232622794 0
   vertex 12.454545454545455 57.93939393939393 0.24
   vertex 12.307572732537876 58.630846232622794 0.24
  endloop
 endfacet
 facet normal -0.8090169943749458 -0.5877852522924754 0.0
  outer loop
   vertex 12.307572732537876 58.630846232622794 0
   vertex 12.307572732537876 58.630846232622794 0.24
   vertex 11.892067485355513 59.2027401427055 0
  endloop
 endfacet
 facet normal -0.8090169943749458 -0.5877852522924754 0.0
  outer loop
   vertex 11.892067485355513 59.2027401427055 0
   vertex 12.307572732537876 58.630846232622794 0.24
   vertex 11.892067485355513 59.2027401427055 0.24
  endloop
 endfacet
 facet normal -0.500000000000003 -0.866025403784437 0.0
  outer loop
   vertex 11.892067485355513 59.2027401427055 0
   vertex 11.892067485355513 59.2027401427055 0.24
   vertex 11.279874344982865 59.556190017095695 0
  endloop
 endfacet
 facet normal -0.500000000000003 -0.866025403784437 0.0
  outer loop
   vertex 11.279874344982865 59.556190017095695 0
   vertex 11.892067485355513 59.2027401427055 0.24
   vertex 11.279874344982865 59.556190017095695 0.24
  endloop
 endfacet
 facet normal -0.10452846326765047 -0.9945218953682736 0.0
  outer loop
   vertex 11.279874344982865 59.556190017095695 0
   vertex 11.279874344982865 59.556190017095695 0.24
   vertex 10.576847066990442 59.630081161519996 0
  endloop
 endfacet
 facet normal -0.10452846326765047 -0.9945218953682736 0.0
  outer loop
   vertex 10.576847066990442 59.630081161519996 0
   vertex 11.279874344982865 59.556190017095695 0.24
   vertex 10.576847066990442 59.630081161519996 0.24
  endloop
 endfacet
 facet normal 0.3090169943749502 -0.9510565162951528 0.0
  outer loop
   vertex 10.576847066990442 59.630081161519996 0
   vertex 10.576847066990442 59.630081161519996 0.24
   vertex 9.904545454545454 59.411637125827475 0
  endloop
 endfacet
 facet normal 0.3090169943749502 -0.9510565162951528 0.0
  outer loop
   vertex 9.904545454545454 59.411637125827475 0
   vertex 10.576847066990442 59.630081161519996 0.24
   vertex 9.904545454545454 59.411637125827475 0.24
  endloop
 endfacet
 facet normal 0.669130606358859 -0.7431448254773936 0.0
  outer loop
   vertex 9.904545454545454 59.411637125827475 0
   vertex 9.904545454545454 59.411637125827475 0.24
   vertex 9.379216564108043 58.93862886829113 0
  endloop
 endfacet
 facet normal 0.669130606358859 -0.7431448254773936 0.0
  outer loop
   vertex 9.379216564108043 58.93862886829113 0
   vertex 9.904545454545454 59.411637125827475 0.24
   vertex 9.379216564108043 58.93862886829113 0.24
  endloop
 endfacet
 facet normal 0.9135454576425996 -0.40673664307580326 0.0
  outer loop
   vertex 9.379216564108043 58.93862886829113 0
   vertex 9.379216564108043 58.93862886829113 0.24
   vertex 9.091694533297984 58.292843813784124 0
  endloop
 endfacet
 facet normal 0.9135454576425996 -0.40673664307580326 0.0
  outer loop
   vertex 9.091694533297984 58.292843813784124 0
   vertex 9.379216564108043 58.93862886829113 0.24
   vertex 9.091694533297984 58.292843813784124 0.24
  endloop
 endfacet
 facet normal 1.0 0.0 -0.0
  outer loop
   vertex 9.091694533297984 58.292843813784124 0
   vertex 9.091694533297984 58.292843813784124 0.24
   vertex 9.091694533297984 57.58594406500374 0
  endloop
 endfacet
 facet normal 1.0 0.0 0.0
  outer loop
   vertex 9.091694533297984 57.58594406500374 0
   vertex 9.091694533297984 58.292843813784124 0.24
   vertex 9.091694533297984 57.58594406500374 0.24
  endloop
 endfacet
 facet normal 0.9135454576425996 0.40673664307580326 -0.0
  outer loop
   vertex 9.091694533297984 57.58594406500374 0
   vertex 9.091694533297984 57.58594406500374 0.24
   vertex 9.379216564108043 56.94015901049673 0
  endloop
 endfacet
 facet normal 0.9135454576425996 0.40673664307580326 -0.0
  outer loop
   vertex 9.379216564108043 56.94015901049673 0
   vertex 9.091694533297984 57.58594406500374 0.24
   vertex 9.379216564108043 56.94015901049673 0.24
  endloop
 endfacet
 facet normal 0.6691306063588601 0.7431448254773925 -0.0
  outer loop
   vertex 9.379216564108043 56.94015901049673 0
   vertex 9.379216564108043 56.94015901049673 0.24
   vertex 9.904545454545453 56.467150752960386 0
  endloop
 endfacet
 facet normal 0.6691306063588601 0.7431448254773925 -0.0
  outer loop
   vertex 9.904545454545453 56.467150752960386 0
   vertex 9.379216564108043 56.94015901049673 0.24
   vertex 9.904545454545453 56.467150752960386 0.24
  endloop
 endfacet
 facet normal 0.30901699437494945 0.951056516295153 -0.0
  outer loop
   vertex 9.904545454545453 56.467150752960386 0
   vertex 9.904545454545453 56.467150752960386 0.24
   vertex 10.576847066990442 56.248706717267865 0
  endloop
 endfacet
 facet normal 0.30901699437494945 0.951056516295153 -0.0
  outer loop
   vertex 10.576847066990442 56.248706717267865 0
   vertex 9.904545454545453 56.467150752960386 0.24
   vertex 10.576847066990442 56.248706717267865 0.24
  endloop
 endfacet
 facet normal -0.10452846326765047 0.9945218953682736 0.0
  outer loop
   vertex 10.576847066990442 56.248706717267865 0
   vertex 10.576847066990442 56.248706717267865 0.24
   vertex 11.279874344982865 56.32259786169217 0
  endloop
 endfacet
 facet normal -0.10452846326765047 0.9945218953682736 0.0
  outer loop
   vertex 11.279874344982865 56.32259786169217 0
   vertex 10.576847066990442 56.248706717267865 0.24
   vertex 11.279874344982865 56.32259786169217 0.24
  endloop
 endfacet
 facet normal -0.500000000000003 0.866025403784437 0.0
  outer loop
   vertex 11.279874344982865 56.32259786169217 0
   vertex 11.279874344982865 56.32259786169217 0.24
   vertex 11.892067485355513 56.67604773608236 0
  endloop
 endfacet
 facet normal -0.500000000000003 0.866025403784437 0.0
  outer loop
   vertex 11.892067485355513 56.67604773608236 0
   vertex 11.279874344982865 56.32259786169217 0.24
   vertex 11.892067485355513 56.67604773608236 0.24
  endloop
 endfacet
 facet normal -0.8090169943749469 0.5877852522924737 0.0
  outer loop
   vertex 11.892067485355513 56.67604773608236 0
   vertex 11.892067485355513 56.67604773608236 0.24
   vertex 12.307572732537874 57.24794164616507 0
  endloop
 endfacet
 facet normal -0.8090169943749469 0.5877852522924737 0.0
  outer loop
   vertex 12.307572732537874 57.24794164616507 0
   vertex 11.892067485355513 56.67604773608236 0.24
   vertex 12.307572732537874 57.24794164616507 0.24
  endloop
 endfacet
 facet normal -0.9781476007338052 0.2079116908177615 0.0
  outer loop
   vertex 12.307572732537874 57.24794164616507 0
   vertex 12.307572732537874 57.24794164616507 0.24
   vertex 12.454545454545455 57.93939393939393 0
  endloop
 endfacet
 facet normal -0.9781476007338052 0.2079116908177615 0.0
  outer loop
   vertex 12.454545454545455 57.93939393939393 0
   vertex 12.307572732537874 57.24794164616507 0.24
   vertex 12.454545454545455 57.93939393939393 0.24
  endloop
 endfacet
 facet normal 0.0 0.0 -1.0
  outer loop
   vertex -1.9040804519519785 36.16166504872584 0
   vertex -3.8538815028110225 36.997294070522564 0
   vertex -3.0182524810142892 38.94709512138161 0
  endloop
 endfacet
 facet normal -0.3939192985791653 -0.919145030018059 0.0
  outer loop
   vertex -3.8538815028110225 36.997294070522564 0
   vertex -1.9040804519519785 36.16166504872584 0
   vertex -1.9040804519519785 36.16166504872584 0.24
  endloop
 endfacet
 facet normal -0.3939192985791653 -0.919145030018059 -0.0
  outer loop
   vertex -3.8538815028110225 36.997294070522564 0.24
   vertex -3.8538815028110225 36.997294070522564 0
   vertex -1.9040804519519785 36.16166504872584 0.24
  endloop
 endfacet
 facet normal -0.9191450300180578 0.39391929857916774 0.0
  outer loop
   vertex -3.0182524810142892 38.94709512138161 0
   vertex -3.8538815028110225 36.997294070522564 0
   vertex -3.8538815028110225 36.997294070522564 0.24
  endloop
 endfacet
 facet normal -0.9191450300180578 0.39391929857916774 0.0
  outer loop
   vertex -3.0182524810142892 38.94709512138161 0.24
   vertex -3.0182524810142892 38.94709512138161 0
   vertex -3.8538815028110225 36.997294070522564 0.24
  endloop
 endfacet
 facet normal 0.9284766908852591 0.3713906763541044 0.0
  outer loop
   vertex -1.9040804519519785 36.16166504872584 0
   vertex -3.0182524810142892 38.94709512138161 0
   vertex -3.0182524810142892 38.94709512138161 0.24
  endloop
 endfacet
 facet normal 0.9284766908852591 0.3713906763541044 0.0
  outer loop
   vertex -1.9040804519519785 36.16166504872584 0.24
   vertex -1.9040804519519785 36.16166504872584 0
   vertex -3.0182524810142892 38.94709512138161 0.24
  endloop
 endfacet
 facet normal 0.0 0.0 1.0
  outer loop
   vertex -1.9040804519519785 36.16166504872584 0.24
   vertex -3.0182524810142892 38.94709512138161 0.24
   vertex -3.8538815028110225 36.997294070522564 0.24
  endloop
 endfacet
 facet normal 0.0 0.0 -1.0
  outer loop
   vertex -7.658800533426293 30.414880085053724 0
   vertex -6.158800533426294 31.914880085053724 0
   vertex -4.658800533426293 30.414880085053724 0
  endloop
 endfacet
 facet normal -0.7071067811865477 0.7071067811865472 0.0
  outer loop
   vertex -6.158800533426294 31.914880085053724 0
   vertex -7.658800533426293 30.414880085053724 0
   vertex -7.658800533426293 30.414880085053724 0.24
  endloop
 endfacet
 facet normal -0.7071067811865477 0.7071067811865472 0.0
  outer loop
   vertex -6.158800533426294 31.914880085053724 0.24
   vertex -6.158800533426294 31.914880085053724 0
   vertex -7.658800533426293 30.414880085053724 0.24
  endloop
 endfacet
 facet normal 0.7071067811865472 0.7071067811865477 0.0
  outer loop
   vertex -4.658800533426293 30.414880085053724 0
   vertex -6.158800533426294 31.914880085053724 0
   vertex -6.158800533426294 31.914880085053724 0.24
  endloop
 endfacet
 facet normal 0.7071067811865472 0.7071067811865477 0.0
  outer loop
   vertex -4.658800533426293 30.414880085053724 0.24
   vertex -4.658800533426293 30.414880085053724 0
   vertex -6.158800533426294 31.914880085053724 0.24
  endloop
 endfacet
 facet normal 0.0 -1.0 0.0
  outer loop
   vertex -7.658800533426293 30.414880085053724 0
   vertex -4.658800533426293 30.414880085053724 0
   vertex -4.658800533426293 30.414880085053724 0.24
  endloop
 endfacet
 facet normal 0.0 -1.0 0.0
  outer loop
   vertex -7.658800533426293 30.414880085053724 0.24
   vertex -7.658800533426293 30.414880085053724 0
   vertex -4.658800533426293 30.414880085053724 0.24
  endloop
 endfacet
 facet normal 0.0 0.0 1.0
  outer loop
   vertex -7.658800533426293 30.414880085053724 0.24
   vertex -4.658800533426293 30.414880085053724 0.24
   vertex -6.158800533426294 31.914880085053724 0.24
  endloop
 endfacet
 facet normal 0.0 0.0 -1.0
  outer loop
   vertex -12.712234600369449 39.05438008505372 0
   vertex -11.212234600369449 37.55438008505372 0
   vertex -12.712234600369449 36.05438008505372 0
  endloop
 endfacet
 facet normal 0.7071067811865476 0.7071067811865476 0.0
  outer loop
   vertex -11.212234600369449 37.55438008505372 0
   vertex -12.712234600369449 39.05438008505372 0
   vertex -12.712234600369449 39.05438008505372 0.24
  endloop
 endfacet
 facet normal 0.7071067811865476 0.7071067811865476 0.0
  outer loop
   vertex -11.212234600369449 37.55438008505372 0.24
   vertex -11.212234600369449 37.55438008505372 0
   vertex -12.712234600369449 39.05438008505372 0.24
  endloop
 endfacet
 facet normal 0.7071067811865476 -0.7071067811865476 0.0
  outer loop
   vertex -12.712234600369449 36.05438008505372 0
   vertex -11.212234600369449 37.55438008505372 0
   vertex -11.212234600369449 37.55438008505372 0.24
  endloop
 endfacet
 facet normal 0.7071067811865476 -0.7071067811865476 0.0
  outer loop
   vertex -12.712234600369449 36.05438008505372 0.24
   vertex -12.712234600369449 36.05438008505372 0
   vertex -11.212234600369449 37.55438008505372 0.24
  endloop
 endfacet
 facet normal -1.0 0.0 0.0
  outer loop
   vertex -12.712234600369449 39.05438008505372 0
   vertex -12.712234600369449 36.05438008505372 0
   vertex -12.712234600369449 36.05438008505372 0.24
  endloop
 endfacet
 facet normal -1.0 -0.0 -0.0
  outer loop
   vertex -12.712234600369449 39.05438008505372 0.24
   vertex -12.712234600369449 39.05438008505372 0
   vertex -12.712234600369449 36.05438008505372 0.24
  endloop
 endfacet
 facet normal 0.0 0.0 1.0
  outer loop
   vertex -12.712234600369449 39.05438008505372 0.24
   vertex -12.712234600369449 36.05438008505372 0.24
   vertex -11.212234600369449 37.55438008505372 0.24
  endloop
 endfacet
 facet normal 0.0 0.0 -1.0
  outer loop
   vertex -3.018252481014291 51.16066504872584 0
   vertex -3.8538815028110243 53.11046609958488 0
   vertex -1.9040804519519792 53.94609512138161 0
  endloop
 endfacet
 facet normal -0.9191450300180578 -0.39391929857916774 0.0
  outer loop
   vertex -3.8538815028110243 53.11046609958488 0
   vertex -3.018252481014291 51.16066504872584 0
   vertex -3.018252481014291 51.16066504872584 0.24
  endloop
 endfacet
 facet normal -0.9191450300180578 -0.39391929857916774 -0.0
  outer loop
   vertex -3.8538815028110243 53.11046609958488 0.24
   vertex -3.8538815028110243 53.11046609958488 0
   vertex -3.018252481014291 51.16066504872584 0.24
  endloop
 endfacet
 facet normal -0.393919298579165 0.919145030018059 0.0
  outer loop
   vertex -1.9040804519519792 53.94609512138161 0
   vertex -3.8538815028110243 53.11046609958488 0
   vertex -3.8538815028110243 53.11046609958488 0.24
  endloop
 endfacet
 facet normal -0.393919298579165 0.919145030018059 0.0
  outer loop
   vertex -1.9040804519519792 53.94609512138161 0.24
   vertex -1.9040804519519792 53.94609512138161 0
   vertex -3.8538815028110243 53.11046609958488 0.24
  endloop
 endfacet
 facet normal 0.928476690885259 -0.3713906763541047 0.0
  outer loop
   vertex -3.018252481014291 51.16066504872584 0
   vertex -1.9040804519519792 53.94609512138161 0
   vertex -1.9040804519519792 53.94609512138161 0.24
  endloop
 endfacet
 facet normal 0.928476690885259 -0.3713906763541047 0.0
  outer loop
   vertex -3.018252481014291 51.16066504872584 0.24
   vertex -3.018252481014291 51.16066504872584 0
   vertex -1.9040804519519792 53.94609512138161 0.24
  endloop
 endfacet
 facet normal 0.0 -0.0 1.0
  outer loop
   vertex -3.018252481014291 51.16066504872584 0.24
   vertex -1.9040804519519792 53.94609512138161 0.24
   vertex -3.8538815028110243 53.11046609958488 0.24
  endloop
 endfacet
 facet normal 0.0 0.0 -1.0
  outer loop
   vertex -12.712234600369449 54.05338008505373 0
   vertex -11.212234600369449 52.55338008505373 0
   vertex -12.712234600369449 51.05338008505373 0
  endloop
 endfacet
 facet normal 0.7071067811865476 0.7071067811865476 0.0
  outer loop
   vertex -11.212234600369449 52.55338008505373 0
   vertex -12.712234600369449 54.05338008505373 0
   vertex -12.712234600369449 54.05338008505373 0.24
  endloop
 endfacet
 facet normal 0.7071067811865476 0.7071067811865476 0.0
  outer loop
   vertex -11.212234600369449 52.55338008505373 0.24
   vertex -11.212234600369449 52.55338008505373 0
   vertex -12.712234600369449 54.05338008505373 0.24
  endloop
 endfacet
 facet normal 0.7071067811865476 -0.7071067811865476 0.0
  outer loop
   vertex -12.712234600369449 51.05338008505373 0
   vertex -11.212234600369449 52.55338008505373 0
   vertex -11.212234600369449 52.55338008505373 0.24
  endloop
 endfacet
 facet normal 0.7071067811865476 -0.7071067811865476 0.0
  outer loop
   vertex -12.712234600369449 51.05338008505373 0.24
   vertex -12.712234600369449 51.05338008505373 0
   vertex -11.212234600369449 52.55338008505373 0.24
  endloop
 endfacet
 facet normal -1.0 0.0 0.0
  outer loop
   vertex -12.712234600369449 54.05338008505373 0
   vertex -12.712234600369449 51.05338008505373 0
   vertex -12.712234600369449 51.05338008505373 0.24
  endloop
 endfacet
 facet normal -1.0 -0.0 -0.0
  outer loop
   vertex -12.712234600369449 54.05338008505373 0.24
   vertex -12.712234600369449 54.05338008505373 0
   vertex -12.712234600369449 51.05338008505373 0.24
  endloop
 endfacet
 facet normal 0.0 0.0 1.0
  outer loop
   vertex -12.712234600369449 54.05338008505373 0.24
   vertex -12.712234600369449 51.05338008505373 0.24
   vertex -11.212234600369449 52.55338008505373 0.24
  endloop
 endfacet
 facet normal -0.0 0.0 -1.0
  outer loop
   vertex -4.658800533426287 59.69288008505374 0
   vertex -6.158800533426289 58.19288008505374 0
   vertex -7.658800533426287 59.69288008505374 0
  endloop
 endfacet
 facet normal 0.7071067811865471 -0.7071067811865479 0.0
  outer loop
   vertex -6.158800533426289 58.19288008505374 0
   vertex -4.658800533426287 59.69288008505374 0
   vertex -4.658800533426287 59.69288008505374 0.24
  endloop
 endfacet
 facet normal 0.7071067811865471 -0.7071067811865479 0.0
  outer loop
   vertex -6.158800533426289 58.19288008505374 0.24
   vertex -6.158800533426289 58.19288008505374 0
   vertex -4.658800533426287 59.69288008505374 0.24
  endloop
 endfacet
 facet normal -0.707106781186548 -0.7071067811865471 0.0
  outer loop
   vertex -7.658800533426287 59.69288008505374 0
   vertex -6.158800533426289 58.19288008505374 0
   vertex -6.158800533426289 58.19288008505374 0.24
  endloop
 endfacet
 facet normal -0.707106781186548 -0.7071067811865471 -0.0
  outer loop
   vertex -7.658800533426287 59.69288008505374 0.24
   vertex -7.658800533426287 59.69288008505374 0
   vertex -6.158800533426289 58.19288008505374 0.24
  endloop
 endfacet
 facet normal 0.0 1.0 0.0
  outer loop
   vertex -4.658800533426287 59.69288008505374 0
   vertex -7.658800533426287 59.69288008505374 0
   vertex -7.658800533426287 59.69288008505374 0.24
  endloop
 endfacet
 facet normal 0.0 1.0 0.0
  outer loop
   vertex -4.658800533426287 59.69288008505374 0.24
   vertex -4.658800533426287 59.69288008505374 0
   vertex -7.658800533426287 59.69288008505374 0.24
  endloop
 endfacet
 facet normal 0.0 0.0 1.0
  outer loop
   vertex -4.658800533426287 59.69288008505374 0.24
   vertex -7.658800533426287 59.69288008505374 0.24
   vertex -6.158800533426289 58.19288008505374 0.24
  endloop
 endfacet
 facet normal 0.0 -0.0 -1.0
  outer loop
   vertex 24.87178328027539 38.94709512138162 0
   vertex 25.707412302072125 36.99729407052258 0
   vertex 23.75761125121308 36.16166504872585 0
  endloop
 endfacet
 facet normal 0.9191450300180576 0.393919298579168 0.0
  outer loop
   vertex 25.707412302072125 36.99729407052258 0
   vertex 24.87178328027539 38.94709512138162 0
   vertex 24.87178328027539 38.94709512138162 0.24
  endloop
 endfacet
 facet normal 0.9191450300180576 0.393919298579168 0.0
  outer loop
   vertex 25.707412302072125 36.99729407052258 0.24
   vertex 25.707412302072125 36.99729407052258 0
   vertex 24.87178328027539 38.94709512138162 0.24
  endloop
 endfacet
 facet normal 0.3939192985791653 -0.919145030018059 0.0
  outer loop
   vertex 23.75761125121308 36.16166504872585 0
   vertex 25.707412302072125 36.99729407052258 0
   vertex 25.707412302072125 36.99729407052258 0.24
  endloop
 endfacet
 facet normal 0.3939192985791653 -0.919145030018059 0.0
  outer loop
   vertex 23.75761125121308 36.16166504872585 0.24
   vertex 23.75761125121308 36.16166504872585 0
   vertex 25.707412302072125 36.99729407052258 0.24
  endloop
 endfacet
 facet normal -0.9284766908852592 0.37139067635410417 0.0
  outer loop
   vertex 24.87178328027539 38.94709512138162 0
   vertex 23.75761125121308 36.16166504872585 0
   vertex 23.75761125121308 36.16166504872585 0.24
  endloop
 endfacet
 facet normal -0.9284766908852592 0.37139067635410417 0.0
  outer loop
   vertex 24.87178328027539 38.94709512138162 0.24
   vertex 24.87178328027539 38.94709512138162 0
   vertex 23.75761125121308 36.16166504872585 0.24
  endloop
 endfacet
 facet normal 0.0 0.0 1.0
  outer loop
   vertex 24.87178328027539 38.94709512138162 0.24
   vertex 23.75761125121308 36.16166504872585 0.24
   vertex 25.707412302072125 36.99729407052258 0.24
  endloop
 endfacet
 facet normal 0.0 0.0 -1.0
  outer loop
   vertex 34.56576539963055 36.05438008505374 0
   vertex 33.06576539963055 37.55438008505374 0
   vertex 34.56576539963055 39.05438008505374 0
  endloop
 endfacet
 facet normal -0.7071067811865476 -0.7071067811865476 0.0
  outer loop
   vertex 33.06576539963055 37.55438008505374 0
   vertex 34.56576539963055 36.05438008505374 0
   vertex 34.56576539963055 36.05438008505374 0.24
  endloop
 endfacet
 facet normal -0.7071067811865476 -0.7071067811865476 -0.0
  outer loop
   vertex 33.06576539963055 37.55438008505374 0.24
   vertex 33.06576539963055 37.55438008505374 0
   vertex 34.56576539963055 36.05438008505374 0.24
  endloop
 endfacet
 facet normal -0.7071067811865476 0.7071067811865476 0.0
  outer loop
   vertex 34.56576539963055 39.05438008505374 0
   vertex 33.06576539963055 37.55438008505374 0
   vertex 33.06576539963055 37.55438008505374 0.24
  endloop
 endfacet
 facet normal -0.7071067811865476 0.7071067811865476 0.0
  outer loop
   vertex 34.56576539963055 39.05438008505374 0.24
   vertex 34.56576539963055 39.05438008505374 0
   vertex 33.06576539963055 37.55438008505374 0.24
  endloop
 endfacet
 facet normal 1.0 0.0 0.0
  outer loop
   vertex 34.56576539963055 36.05438008505374 0
   vertex 34.56576539963055 39.05438008505374 0
   vertex 34.56576539963055 39.05438008505374 0.24
  endloop
 endfacet
 facet normal 1.0 -0.0 0.0
  outer loop
   vertex 34.56576539963055 36.05438008505374 0.24
   vertex 34.56576539963055 36.05438008505374 0
   vertex 34.56576539963055 39.05438008505374 0.24
  endloop
 endfacet
 facet normal 0.0 -0.0 1.0
  outer loop
   vertex 34.56576539963055 36.05438008505374 0.24
   vertex 34.56576539963055 39.05438008505374 0.24
   vertex 33.06576539963055 37.55438008505374 0.24
  endloop
 endfacet
 facet normal 0.0 0.0 -1.0
  outer loop
   vertex 26.512331332687392 30.41488008505373 0
   vertex 28.012331332687392 31.91488008505373 0
   vertex 29.512331332687392 30.41488008505373 0
  endloop
 endfacet
 facet normal -0.7071067811865476 0.7071067811865476 0.0
  outer loop
   vertex 28.012331332687392 31.91488008505373 0
   vertex 26.512331332687392 30.41488008505373 0
   vertex 26.512331332687392 30.41488008505373 0.24
  endloop
 endfacet
 facet normal -0.7071067811865476 0.7071067811865476 0.0
  outer loop
   vertex 28.012331332687392 31.91488008505373 0.24
   vertex 28.012331332687392 31.91488008505373 0
   vertex 26.512331332687392 30.41488008505373 0.24
  endloop
 endfacet
 facet normal 0.7071067811865476 0.7071067811865476 0.0
  outer loop
   vertex 29.512331332687392 30.41488008505373 0
   vertex 28.012331332687392 31.91488008505373 0
   vertex 28.012331332687392 31.91488008505373 0.24
  endloop
 endfacet
 facet normal 0.7071067811865476 0.7071067811865476 0.0
  outer loop
   vertex 29.512331332687392 30.41488008505373 0.24
   vertex 29.512331332687392 30.41488008505373 0
   vertex 28.012331332687392 31.91488008505373 0.24
  endloop
 endfacet
 facet normal 0.0 -1.0 0.0
  outer loop
   vertex 26.512331332687392 30.41488008505373 0
   vertex 29.512331332687392 30.41488008505373 0
   vertex 29.512331332687392 30.41488008505373 0.24
  endloop
 endfacet
 facet normal 0.0 -1.0 0.0
  outer loop
   vertex 26.512331332687392 30.41488008505373 0.24
   vertex 26.512331332687392 30.41488008505373 0
   vertex 29.512331332687392 30.41488008505373 0.24
  endloop
 endfacet
 facet normal 0.0 0.0 1.0
  outer loop
   vertex 26.512331332687392 30.41488008505373 0.24
   vertex 29.512331332687392 30.41488008505373 0.24
   vertex 28.012331332687392 31.91488008505373 0.24
  endloop
 endfacet
 facet normal 0.0 0.0 -1.0
  outer loop
   vertex 23.757611251213078 53.94609512138162 0
   vertex 25.70741230207212 53.11046609958489 0
   vertex 24.871783280275388 51.160665048725846 0
  endloop
 endfacet
 facet normal 0.3939192985791653 0.919145030018059 0.0
  outer loop
   vertex 25.70741230207212 53.11046609958489 0
   vertex 23.757611251213078 53.94609512138162 0
   vertex 23.757611251213078 53.94609512138162 0.24
  endloop
 endfacet
 facet normal 0.3939192985791653 0.919145030018059 0.0
  outer loop
   vertex 25.70741230207212 53.11046609958489 0.24
   vertex 25.70741230207212 53.11046609958489 0
   vertex 23.757611251213078 53.94609512138162 0.24
  endloop
 endfacet
 facet normal 0.9191450300180576 -0.393919298579168 0.0
  outer loop
   vertex 24.871783280275388 51.160665048725846 0
   vertex 25.70741230207212 53.11046609958489 0
   vertex 25.70741230207212 53.11046609958489 0.24
  endloop
 endfacet
 facet normal 0.9191450300180576 -0.393919298579168 0.0
  outer loop
   vertex 24.871783280275388 51.160665048725846 0.24
   vertex 24.871783280275388 51.160665048725846 0
   vertex 25.70741230207212 53.11046609958489 0.24
  endloop
 endfacet
 facet normal -0.9284766908852592 -0.37139067635410417 0.0
  outer loop
   vertex 23.757611251213078 53.94609512138162 0
   vertex 24.871783280275388 51.160665048725846 0
   vertex 24.871783280275388 51.160665048725846 0.24
  endloop
 endfacet
 facet normal -0.9284766908852592 -0.37139067635410417 -0.0
  outer loop
   vertex 23.757611251213078 53.94609512138162 0.24
   vertex 23.757611251213078 53.94609512138162 0
   vertex 24.871783280275388 51.160665048725846 0.24
  endloop
 endfacet
 facet normal 0.0 0.0 1.0
  outer loop
   vertex 23.757611251213078 53.94609512138162 0.24
   vertex 24.871783280275388 51.160665048725846 0.24
   vertex 25.70741230207212 53.11046609958489 0.24
  endloop
 endfacet
 facet normal -0.0 0.0 -1.0
  outer loop
   vertex 29.512331332687392 59.69288008505372 0
   vertex 28.012331332687392 58.19288008505372 0
   vertex 26.512331332687392 59.69288008505372 0
  endloop
 endfacet
 facet normal 0.7071067811865476 -0.7071067811865476 0.0
  outer loop
   vertex 28.012331332687392 58.19288008505372 0
   vertex 29.512331332687392 59.69288008505372 0
   vertex 29.512331332687392 59.69288008505372 0.24
  endloop
 endfacet
 facet normal 0.7071067811865476 -0.7071067811865476 0.0
  outer loop
   vertex 28.012331332687392 58.19288008505372 0.24
   vertex 28.012331332687392 58.19288008505372 0
   vertex 29.512331332687392 59.69288008505372 0.24
  endloop
 endfacet
 facet normal -0.7071067811865476 -0.7071067811865476 0.0
  outer loop
   vertex 26.512331332687392 59.69288008505372 0
   vertex 28.012331332687392 58.19288008505372 0
   vertex 28.012331332687392 58.19288008505372 0.24
  endloop
 endfacet
 facet normal -0.7071067811865476 -0.7071067811865476 -0.0
  outer loop
   vertex 26.512331332687392 59.69288008505372 0.24
   vertex 26.512331332687392 59.69288008505372 0
   vertex 28.012331332687392 58.19288008505372 0.24
  endloop
 endfacet
 facet normal 0.0 1.0 0.0
  outer loop
   vertex 29.512331332687392 59.69288008505372 0
   vertex 26.512331332687392 59.69288008505372 0
   vertex 26.512331332687392 59.69288008505372 0.24
  endloop
 endfacet
 facet normal 0.0 1.0 0.0
  outer loop
   vertex 29.512331332687392 59.69288008505372 0.24
   vertex 29.512331332687392 59.69288008505372 0
   vertex 26.512331332687392 59.69288008505372 0.24
  endloop
 endfacet
 facet normal 0.0 0.0 1.0
  outer loop
   vertex 29.512331332687392 59.69288008505372 0.24
   vertex 26.512331332687392 59.69288008505372 0.24
   vertex 28.012331332687392 58.19288008505372 0.24
  endloop
 endfacet
 facet normal 0.0 0.0 -1.0
  outer loop
   vertex 34.56576539963055 51.05338008505373 0
   vertex 33.06576539963055 52.55338008505373 0
   vertex 34.56576539963055 54.05338008505373 0
  endloop
 endfacet
 facet normal -0.7071067811865476 -0.7071067811865476 0.0
  outer loop
   vertex 33.06576539963055 52.55338008505373 0
   vertex 34.56576539963055 51.05338008505373 0
   vertex 34.56576539963055 51.05338008505373 0.24
  endloop
 endfacet
 facet normal -0.7071067811865476 -0.7071067811865476 -0.0
  outer loop
   vertex 33.06576539963055 52.55338008505373 0.24
   vertex 33.06576539963055 52.55338008505373 0
   vertex 34.56576539963055 51.05338008505373 0.24
  endloop
 endfacet
 facet normal -0.7071067811865476 0.7071067811865476 0.0
  outer loop
   vertex 34.56576539963055 54.05338008505373 0
   vertex 33.06576539963055 52.55338008505373 0
   vertex 33.06576539963055 52.55338008505373 0.24
  endloop
 endfacet
 facet normal -0.7071067811865476 0.7071067811865476 0.0
  outer loop
   vertex 34.56576539963055 54.05338008505373 0.24
   vertex 34.56576539963055 54.05338008505373 0
   vertex 33.06576539963055 52.55338008505373 0.24
  endloop
 endfacet
 facet normal 1.0 0.0 0.0
  outer loop
   vertex 34.56576539963055 51.05338008505373 0
   vertex 34.56576539963055 54.05338008505373 0
   vertex 34.56576539963055 54.05338008505373 0.24
  endloop
 endfacet
 facet normal 1.0 -0.0 0.0
  outer loop
   vertex 34.56576539963055 51.05338008505373 0.24
   vertex 34.56576539963055 51.05338008505373 0
   vertex 34.56576539963055 54.05338008505373 0.24
  endloop
 endfacet
 facet normal 0.0 -0.0 1.0
  outer loop
   vertex 34.56576539963055 51.05338008505373 0.24
   vertex 34.56576539963055 54.05338008505373 0.24
   vertex 33.06576539963055 52.55338008505373 0.24
  endloop
 endfacet
 facet normal 0.0 0.0 -1.0
  outer loop
   vertex -2.2090721424737536 38.86280360559869 0
   vertex -0.2592710916147094 38.027174583801965 0
   vertex -1.0949001134114429 36.07737353294292 0
  endloop
 endfacet
 facet normal 0.3939192985791652 0.9191450300180589 0.0
  outer loop
   vertex -0.2592710916147094 38.027174583801965 0
   vertex -2.2090721424737536 38.86280360559869 0
   vertex -2.2090721424737536 38.86280360559869 0.24
  endloop
 endfacet
 facet normal 0.3939192985791652 0.9191450300180589 0.0
  outer loop
   vertex -0.2592710916147094 38.027174583801965 0.24
   vertex -0.2592710916147094 38.027174583801965 0
   vertex -2.2090721424737536 38.86280360559869 0.24
  endloop
 endfacet
 facet normal 0.9191450300180578 -0.3939192985791678 0.0
  outer loop
   vertex -1.0949001134114429 36.07737353294292 0
   vertex -0.2592710916147094 38.027174583801965 0
   vertex -0.2592710916147094 38.027174583801965 0.24
  endloop
 endfacet
 facet normal 0.9191450300180578 -0.3939192985791678 0.0
  outer loop
   vertex -1.0949001134114429 36.07737353294292 0.24
   vertex -1.0949001134114429 36.07737353294292 0
   vertex -0.2592710916147094 38.027174583801965 0.24
  endloop
 endfacet
 facet normal -0.9284766908852591 -0.3713906763541044 0.0
  outer loop
   vertex -2.2090721424737536 38.86280360559869 0
   vertex -1.0949001134114429 36.07737353294292 0
   vertex -1.0949001134114429 36.07737353294292 0.24
  endloop
 endfacet
 facet normal -0.9284766908852591 -0.3713906763541044 -0.0
  outer loop
   vertex -2.2090721424737536 38.86280360559869 0.24
   vertex -2.2090721424737536 38.86280360559869 0
   vertex -1.0949001134114429 36.07737353294292 0.24
  endloop
 endfacet
 facet normal 0.0 0.0 1.0
  outer loop
   vertex -2.2090721424737536 38.86280360559869 0.24
   vertex -1.0949001134114429 36.07737353294292 0.24
   vertex -0.2592710916147094 38.027174583801965 0.24
  endloop
 endfacet
 facet normal -0.0 0.0 -1.0
  outer loop
   vertex 4.692631332687391 44.693880085053735 0
   vertex 3.192631332687391 43.193880085053735 0
   vertex 1.692631332687391 44.693880085053735 0
  endloop
 endfacet
 facet normal 0.7071067811865476 -0.7071067811865476 0.0
  outer loop
   vertex 3.192631332687391 43.193880085053735 0
   vertex 4.692631332687391 44.693880085053735 0
   vertex 4.692631332687391 44.693880085053735 0.24
  endloop
 endfacet
 facet normal 0.7071067811865476 -0.7071067811865476 0.0
  outer loop
   vertex 3.192631332687391 43.193880085053735 0.24
   vertex 3.192631332687391 43.193880085053735 0
   vertex 4.692631332687391 44.693880085053735 0.24
  endloop
 endfacet
 facet normal -0.7071067811865476 -0.7071067811865476 0.0
  outer loop
   vertex 1.692631332687391 44.693880085053735 0
   vertex 3.192631332687391 43.193880085053735 0
   vertex 3.192631332687391 43.193880085053735 0.24
  endloop
 endfacet
 facet normal -0.7071067811865476 -0.7071067811865476 -0.0
  outer loop
   vertex 1.692631332687391 44.693880085053735 0.24
   vertex 1.692631332687391 44.693880085053735 0
   vertex 3.192631332687391 43.193880085053735 0.24
  endloop
 endfacet
 facet normal 0.0 1.0 0.0
  outer loop
   vertex 4.692631332687391 44.693880085053735 0
   vertex 1.692631332687391 44.693880085053735 0
   vertex 1.692631332687391 44.693880085053735 0.24
  endloop
 endfacet
 facet normal 0.0 1.0 0.0
  outer loop
   vertex 4.692631332687391 44.693880085053735 0.24
   vertex 4.692631332687391 44.693880085053735 0
   vertex 1.692631332687391 44.693880085053735 0.24
  endloop
 endfacet
 facet normal 0.0 0.0 1.0
  outer loop
   vertex 4.692631332687391 44.693880085053735 0.24
   vertex 1.692631332687391 44.693880085053735 0.24
   vertex 3.192631332687391 43.193880085053735 0.24
  endloop
 endfacet
 facet normal -0.0 0.0 -1.0
  outer loop
   vertex 20.16089946657371 44.693880085053735 0
   vertex 18.66089946657371 43.193880085053735 0
   vertex 17.16089946657371 44.693880085053735 0
  endloop
 endfacet
 facet normal 0.7071067811865476 -0.7071067811865476 0.0
  outer loop
   vertex 18.66089946657371 43.193880085053735 0
   vertex 20.16089946657371 44.693880085053735 0
   vertex 20.16089946657371 44.693880085053735 0.24
  endloop
 endfacet
 facet normal 0.7071067811865476 -0.7071067811865476 0.0
  outer loop
   vertex 18.66089946657371 43.193880085053735 0.24
   vertex 18.66089946657371 43.193880085053735 0
   vertex 20.16089946657371 44.693880085053735 0.24
  endloop
 endfacet
 facet normal -0.7071067811865476 -0.7071067811865476 0.0
  outer loop
   vertex 17.16089946657371 44.693880085053735 0
   vertex 18.66089946657371 43.193880085053735 0
   vertex 18.66089946657371 43.193880085053735 0.24
  endloop
 endfacet
 facet normal -0.7071067811865476 -0.7071067811865476 -0.0
  outer loop
   vertex 17.16089946657371 44.693880085053735 0.24
   vertex 17.16089946657371 44.693880085053735 0
   vertex 18.66089946657371 43.193880085053735 0.24
  endloop
 endfacet
 facet normal 0.0 1.0 0.0
  outer loop
   vertex 20.16089946657371 44.693880085053735 0
   vertex 17.16089946657371 44.693880085053735 0
   vertex 17.16089946657371 44.693880085053735 0.24
  endloop
 endfacet
 facet normal 0.0 1.0 0.0
  outer loop
   vertex 20.16089946657371 44.693880085053735 0.24
   vertex 20.16089946657371 44.693880085053735 0
   vertex 17.16089946657371 44.693880085053735 0.24
  endloop
 endfacet
 facet normal 0.0 0.0 1.0
  outer loop
   vertex 20.16089946657371 44.693880085053735 0.24
   vertex 17.16089946657371 44.693880085053735 0.24
   vertex 18.66089946657371 43.193880085053735 0.24
  endloop
 endfacet
 facet normal 0.0 0.0 -1.0
  outer loop
   vertex 22.948430912672546 36.07737353294293 0
   vertex 22.11280189087581 38.02717458380197 0
   vertex 24.062602941734855 38.8628036055987 0
  endloop
 endfacet
 facet normal -0.9191450300180576 -0.393919298579168 0.0
  outer loop
   vertex 22.11280189087581 38.02717458380197 0
   vertex 22.948430912672546 36.07737353294293 0
   vertex 22.948430912672546 36.07737353294293 0.24
  endloop
 endfacet
 facet normal -0.9191450300180576 -0.393919298579168 -0.0
  outer loop
   vertex 22.11280189087581 38.02717458380197 0.24
   vertex 22.11280189087581 38.02717458380197 0
   vertex 22.948430912672546 36.07737353294293 0.24
  endloop
 endfacet
 facet normal -0.3939192985791653 0.919145030018059 0.0
  outer loop
   vertex 24.062602941734855 38.8628036055987 0
   vertex 22.11280189087581 38.02717458380197 0
   vertex 22.11280189087581 38.02717458380197 0.24
  endloop
 endfacet
 facet normal -0.3939192985791653 0.919145030018059 0.0
  outer loop
   vertex 24.062602941734855 38.8628036055987 0.24
   vertex 24.062602941734855 38.8628036055987 0
   vertex 22.11280189087581 38.02717458380197 0.24
  endloop
 endfacet
 facet normal 0.9284766908852592 -0.37139067635410417 0.0
  outer loop
   vertex 22.948430912672546 36.07737353294293 0
   vertex 24.062602941734855 38.8628036055987 0
   vertex 24.062602941734855 38.8628036055987 0.24
  endloop
 endfacet
 facet normal 0.9284766908852592 -0.37139067635410417 0.0
  outer loop
   vertex 22.948430912672546 36.07737353294293 0.24
   vertex 22.948430912672546 36.07737353294293 0
   vertex 24.062602941734855 38.8628036055987 0.24
  endloop
 endfacet
 facet normal 0.0 -0.0 1.0
  outer loop
   vertex 22.948430912672546 36.07737353294293 0.24
   vertex 24.062602941734855 38.8628036055987 0.24
   vertex 22.11280189087581 38.02717458380197 0.24
  endloop
 endfacet
 facet normal 0.0 0.0 -1.0
  outer loop
   vertex 14.79171076135927 23.493279112565496 0
   vertex 14.63549440683107 25.60883966489623 0
   vertex 16.751054959161806 25.765056019424428 0
  endloop
 endfacet
 facet normal -0.9972848083758798 -0.07364109574608854 0.0
  outer loop
   vertex 14.63549440683107 25.60883966489623 0
   vertex 14.79171076135927 23.493279112565496 0
   vertex 14.79171076135927 23.493279112565496 0.24
  endloop
 endfacet
 facet normal -0.9972848083758798 -0.07364109574608854 -0.0
  outer loop
   vertex 14.63549440683107 25.60883966489623 0.24
   vertex 14.63549440683107 25.60883966489623 0
   vertex 14.79171076135927 23.493279112565496 0.24
  endloop
 endfacet
 facet normal -0.07364109574608683 0.9972848083758801 0.0
  outer loop
   vertex 16.751054959161806 25.765056019424428 0
   vertex 14.63549440683107 25.60883966489623 0
   vertex 14.63549440683107 25.60883966489623 0.24
  endloop
 endfacet
 facet normal -0.07364109574608683 0.9972848083758801 0.0
  outer loop
   vertex 16.751054959161806 25.765056019424428 0.24
   vertex 16.751054959161806 25.765056019424428 0
   vertex 14.63549440683107 25.60883966489623 0.24
  endloop
 endfacet
 facet normal 0.7572589689529774 -0.6531147326008451 0.0
  outer loop
   vertex 14.79171076135927 23.493279112565496 0
   vertex 16.751054959161806 25.765056019424428 0
   vertex 16.751054959161806 25.765056019424428 0.24
  endloop
 endfacet
 facet normal 0.7572589689529774 -0.6531147326008451 0.0
  outer loop
   vertex 14.79171076135927 23.493279112565496 0.24
   vertex 14.79171076135927 23.493279112565496 0
   vertex 16.751054959161806 25.765056019424428 0.24
  endloop
 endfacet
 facet normal 0.0 -0.0 1.0
  outer loop
   vertex 14.79171076135927 23.493279112565496 0.24
   vertex 16.751054959161806 25.765056019424428 0.24
   vertex 14.63549440683107 25.60883966489623 0.24
  endloop
 endfacet
 facet normal 0.0 0.0 -1.0
  outer loop
   vertex 5.102475840099293 25.765056019424428 0
   vertex 7.218036392430027 25.60883966489623 0
   vertex 7.0618200379018266 23.493279112565496 0
  endloop
 endfacet
 facet normal 0.07364109574608692 0.9972848083758801 0.0
  outer loop
   vertex 7.218036392430027 25.60883966489623 0
   vertex 5.102475840099293 25.765056019424428 0
   vertex 5.102475840099293 25.765056019424428 0.24
  endloop
 endfacet
 facet normal 0.07364109574608692 0.9972848083758801 0.0
  outer loop
   vertex 7.218036392430027 25.60883966489623 0.24
   vertex 7.218036392430027 25.60883966489623 0
   vertex 5.102475840099293 25.765056019424428 0.24
  endloop
 endfacet
 facet normal 0.9972848083758798 -0.07364109574608813 0.0
  outer loop
   vertex 7.0618200379018266 23.493279112565496 0
   vertex 7.218036392430027 25.60883966489623 0
   vertex 7.218036392430027 25.60883966489623 0.24
  endloop
 endfacet
 facet normal 0.9972848083758798 -0.07364109574608813 0.0
  outer loop
   vertex 7.0618200379018266 23.493279112565496 0.24
   vertex 7.0618200379018266 23.493279112565496 0
   vertex 7.218036392430027 25.60883966489623 0.24
  endloop
 endfacet
 facet normal -0.7572589689529777 -0.6531147326008447 0.0
  outer loop
   vertex 5.102475840099293 25.765056019424428 0
   vertex 7.0618200379018266 23.493279112565496 0
   vertex 7.0618200379018266 23.493279112565496 0.24
  endloop
 endfacet
 facet normal -0.7572589689529777 -0.6531147326008447 -0.0
  outer loop
   vertex 5.102475840099293 25.765056019424428 0.24
   vertex 5.102475840099293 25.765056019424428 0
   vertex 7.0618200379018266 23.493279112565496 0.24
  endloop
 endfacet
 facet normal 0.0 0.0 1.0
  outer loop
   vertex 5.102475840099293 25.765056019424428 0.24
   vertex 7.0618200379018266 23.493279112565496 0.24
   vertex 7.218036392430027 25.60883966489623 0.24
  endloop
 endfacet
 facet normal 0.0 -0.0 -1.0
  outer loop
   vertex -1.09490011341144 54.03038663716454 0
   vertex -0.2592710916147072 52.080585586305496 0
   vertex -2.209072142473752 51.24495656450877 0
  endloop
 endfacet
 facet normal 0.919145030018058 0.3939192985791676 0.0
  outer loop
   vertex -0.2592710916147072 52.080585586305496 0
   vertex -1.09490011341144 54.03038663716454 0
   vertex -1.09490011341144 54.03038663716454 0.24
  endloop
 endfacet
 facet normal 0.919145030018058 0.3939192985791676 0.0
  outer loop
   vertex -0.2592710916147072 52.080585586305496 0.24
   vertex -0.2592710916147072 52.080585586305496 0
   vertex -1.09490011341144 54.03038663716454 0.24
  endloop
 endfacet
 facet normal 0.39391929857916513 -0.9191450300180589 0.0
  outer loop
   vertex -2.209072142473752 51.24495656450877 0
   vertex -0.2592710916147072 52.080585586305496 0
   vertex -0.2592710916147072 52.080585586305496 0.24
  endloop
 endfacet
 facet normal 0.39391929857916513 -0.9191450300180589 0.0
  outer loop
   vertex -2.209072142473752 51.24495656450877 0.24
   vertex -2.209072142473752 51.24495656450877 0
   vertex -0.2592710916147072 52.080585586305496 0.24
  endloop
 endfacet
 facet normal -0.928476690885259 0.3713906763541047 0.0
  outer loop
   vertex -1.09490011341144 54.03038663716454 0
   vertex -2.209072142473752 51.24495656450877 0
   vertex -2.209072142473752 51.24495656450877 0.24
  endloop
 endfacet
 facet normal -0.928476690885259 0.3713906763541047 0.0
  outer loop
   vertex -1.09490011341144 54.03038663716454 0.24
   vertex -1.09490011341144 54.03038663716454 0
   vertex -2.209072142473752 51.24495656450877 0.24
  endloop
 endfacet
 facet normal 0.0 0.0 1.0
  outer loop
   vertex -1.09490011341144 54.03038663716454 0.24
   vertex -2.209072142473752 51.24495656450877 0.24
   vertex -0.2592710916147072 52.080585586305496 0.24
  endloop
 endfacet
 facet normal 0.0 -0.0 -1.0
  outer loop
   vertex 7.06182003790183 66.61448105754195 0
   vertex 7.218036392430029 64.49892050521123 0
   vertex 5.102475840099295 64.34270415068303 0
  endloop
 endfacet
 facet normal 0.9972848083758798 0.07364109574608779 0.0
  outer loop
   vertex 7.218036392430029 64.49892050521123 0
   vertex 7.06182003790183 66.61448105754195 0
   vertex 7.06182003790183 66.61448105754195 0.24
  endloop
 endfacet
 facet normal 0.9972848083758798 0.07364109574608779 0.0
  outer loop
   vertex 7.218036392430029 64.49892050521123 0.24
   vertex 7.218036392430029 64.49892050521123 0
   vertex 7.06182003790183 66.61448105754195 0.24
  endloop
 endfacet
 facet normal 0.07364109574608692 -0.9972848083758801 0.0
  outer loop
   vertex 5.102475840099295 64.34270415068303 0
   vertex 7.218036392430029 64.49892050521123 0
   vertex 7.218036392430029 64.49892050521123 0.24
  endloop
 endfacet
 facet normal 0.07364109574608692 -0.9972848083758801 0.0
  outer loop
   vertex 5.102475840099295 64.34270415068303 0.24
   vertex 5.102475840099295 64.34270415068303 0
   vertex 7.218036392430029 64.49892050521123 0.24
  endloop
 endfacet
 facet normal -0.7572589689529754 0.6531147326008475 0.0
  outer loop
   vertex 7.06182003790183 66.61448105754195 0
   vertex 5.102475840099295 64.34270415068303 0
   vertex 5.102475840099295 64.34270415068303 0.24
  endloop
 endfacet
 facet normal -0.7572589689529754 0.6531147326008475 0.0
  outer loop
   vertex 7.06182003790183 66.61448105754195 0.24
   vertex 7.06182003790183 66.61448105754195 0
   vertex 5.102475840099295 64.34270415068303 0.24
  endloop
 endfacet
 facet normal 0.0 0.0 1.0
  outer loop
   vertex 7.06182003790183 66.61448105754195 0.24
   vertex 5.102475840099295 64.34270415068303 0.24
   vertex 7.218036392430029 64.49892050521123 0.24
  endloop
 endfacet
 facet normal 0.0 0.0 -1.0
  outer loop
   vertex 16.75105495916181 64.342704150683 0
   vertex 14.635494406831075 64.49892050521122 0
   vertex 14.791710761359273 66.61448105754195 0
  endloop
 endfacet
 facet normal -0.07364109574609354 -0.9972848083758794 0.0
  outer loop
   vertex 14.635494406831075 64.49892050521122 0
   vertex 16.75105495916181 64.342704150683 0
   vertex 16.75105495916181 64.342704150683 0.24
  endloop
 endfacet
 facet normal -0.07364109574609354 -0.9972848083758794 -0.0
  outer loop
   vertex 14.635494406831075 64.49892050521122 0.24
   vertex 14.635494406831075 64.49892050521122 0
   vertex 16.75105495916181 64.342704150683 0.24
  endloop
 endfacet
 facet normal -0.9972848083758801 0.07364109574608689 0.0
  outer loop
   vertex 14.791710761359273 66.61448105754195 0
   vertex 14.635494406831075 64.49892050521122 0
   vertex 14.635494406831075 64.49892050521122 0.24
  endloop
 endfacet
 facet normal -0.9972848083758801 0.07364109574608689 0.0
  outer loop
   vertex 14.791710761359273 66.61448105754195 0.24
   vertex 14.791710761359273 66.61448105754195 0
   vertex 14.635494406831075 64.49892050521122 0.24
  endloop
 endfacet
 facet normal 0.7572589689529793 0.6531147326008432 0.0
  outer loop
   vertex 16.75105495916181 64.342704150683 0
   vertex 14.791710761359273 66.61448105754195 0
   vertex 14.791710761359273 66.61448105754195 0.24
  endloop
 endfacet
 facet normal 0.7572589689529793 0.6531147326008432 0.0
  outer loop
   vertex 16.75105495916181 64.342704150683 0.24
   vertex 16.75105495916181 64.342704150683 0
   vertex 14.791710761359273 66.61448105754195 0.24
  endloop
 endfacet
 facet normal 0.0 0.0 1.0
  outer loop
   vertex 16.75105495916181 64.342704150683 0.24
   vertex 14.791710761359273 66.61448105754195 0.24
   vertex 14.635494406831075 64.49892050521122 0.24
  endloop
 endfacet
 facet normal 0.0 0.0 -1.0
  outer loop
   vertex 24.062602941734855 51.244956564508755 0
   vertex 22.11280189087581 52.08058558630548 0
   vertex 22.948430912672546 54.030386637164526 0
  endloop
 endfacet
 facet normal -0.3939192985791653 -0.919145030018059 0.0
  outer loop
   vertex 22.11280189087581 52.08058558630548 0
   vertex 24.062602941734855 51.244956564508755 0
   vertex 24.062602941734855 51.244956564508755 0.24
  endloop
 endfacet
 facet normal -0.3939192985791653 -0.919145030018059 -0.0
  outer loop
   vertex 22.11280189087581 52.08058558630548 0.24
   vertex 22.11280189087581 52.08058558630548 0
   vertex 24.062602941734855 51.244956564508755 0.24
  endloop
 endfacet
 facet normal -0.9191450300180576 0.393919298579168 0.0
  outer loop
   vertex 22.948430912672546 54.030386637164526 0
   vertex 22.11280189087581 52.08058558630548 0
   vertex 22.11280189087581 52.08058558630548 0.24
  endloop
 endfacet
 facet normal -0.9191450300180576 0.393919298579168 0.0
  outer loop
   vertex 22.948430912672546 54.030386637164526 0.24
   vertex 22.948430912672546 54.030386637164526 0
   vertex 22.11280189087581 52.08058558630548 0.24
  endloop
 endfacet
 facet normal 0.9284766908852592 0.37139067635410417 0.0
  outer loop
   vertex 24.062602941734855 51.244956564508755 0
   vertex 22.948430912672546 54.030386637164526 0
   vertex 22.948430912672546 54.030386637164526 0.24
  endloop
 endfacet
 facet normal 0.9284766908852592 0.37139067635410417 0.0
  outer loop
   vertex 24.062602941734855 51.244956564508755 0.24
   vertex 24.062602941734855 51.244956564508755 0
   vertex 22.948430912672546 54.030386637164526 0.24
  endloop
 endfacet
 facet normal 0.0 0.0 1.0
  outer loop
   vertex 24.062602941734855 51.244956564508755 0.24
   vertex 22.948430912672546 54.030386637164526 0.24
   vertex 22.11280189087581 52.08058558630548 0.24
  endloop
 endfacet
 facet normal 0.0 0.0 -1.0
  outer loop
   vertex 17.16089946657371 45.413880085053734 0
   vertex 18.66089946657371 46.913880085053734 0
   vertex 20.16089946657371 45.413880085053734 0
  endloop
 endfacet
 facet normal -0.7071067811865476 0.7071067811865476 0.0
  outer loop
   vertex 18.66089946657371 46.913880085053734 0
   vertex 17.16089946657371 45.413880085053734 0
   vertex 17.16089946657371 45.413880085053734 0.24
  endloop
 endfacet
 facet normal -0.7071067811865476 0.7071067811865476 0.0
  outer loop
   vertex 18.66089946657371 46.913880085053734 0.24
   vertex 18.66089946657371 46.913880085053734 0
   vertex 17.16089946657371 45.413880085053734 0.24
  endloop
 endfacet
 facet normal 0.7071067811865476 0.7071067811865476 0.0
  outer loop
   vertex 20.16089946657371 45.413880085053734 0
   vertex 18.66089946657371 46.913880085053734 0
   vertex 18.66089946657371 46.913880085053734 0.24
  endloop
 endfacet
 facet normal 0.7071067811865476 0.7071067811865476 0.0
  outer loop
   vertex 20.16089946657371 45.413880085053734 0.24
   vertex 20.16089946657371 45.413880085053734 0
   vertex 18.66089946657371 46.913880085053734 0.24
  endloop
 endfacet
 facet normal 0.0 -1.0 0.0
  outer loop
   vertex 17.16089946657371 45.413880085053734 0
   vertex 20.16089946657371 45.413880085053734 0
   vertex 20.16089946657371 45.413880085053734 0.24
  endloop
 endfacet
 facet normal 0.0 -1.0 0.0
  outer loop
   vertex 17.16089946657371 45.413880085053734 0.24
   vertex 17.16089946657371 45.413880085053734 0
   vertex 20.16089946657371 45.413880085053734 0.24
  endloop
 endfacet
 facet normal 0.0 0.0 1.0
  outer loop
   vertex 17.16089946657371 45.413880085053734 0.24
   vertex 20.16089946657371 45.413880085053734 0.24
   vertex 18.66089946657371 46.913880085053734 0.24
  endloop
 endfacet
 facet normal 0.0 0.0 -1.0
  outer loop
   vertex 1.692631332687391 45.413880085053734 0
   vertex 3.192631332687391 46.913880085053734 0
   vertex 4.692631332687391 45.413880085053734 0
  endloop
 endfacet
 facet normal -0.7071067811865476 0.7071067811865476 0.0
  outer loop
   vertex 3.192631332687391 46.913880085053734 0
   vertex 1.692631332687391 45.413880085053734 0
   vertex 1.692631332687391 45.413880085053734 0.24
  endloop
 endfacet
 facet normal -0.7071067811865476 0.7071067811865476 0.0
  outer loop
   vertex 3.192631332687391 46.913880085053734 0.24
   vertex 3.192631332687391 46.913880085053734 0
   vertex 1.692631332687391 45.413880085053734 0.24
  endloop
 endfacet
 facet normal 0.7071067811865476 0.7071067811865476 0.0
  outer loop
   vertex 4.692631332687391 45.413880085053734 0
   vertex 3.192631332687391 46.913880085053734 0
   vertex 3.192631332687391 46.913880085053734 0.24
  endloop
 endfacet
 facet normal 0.7071067811865476 0.7071067811865476 0.0
  outer loop
   vertex 4.692631332687391 45.413880085053734 0.24
   vertex 4.692631332687391 45.413880085053734 0
   vertex 3.192631332687391 46.913880085053734 0.24
  endloop
 endfacet
 facet normal 0.0 -1.0 0.0
  outer loop
   vertex 1.692631332687391 45.413880085053734 0
   vertex 4.692631332687391 45.413880085053734 0
   vertex 4.692631332687391 45.413880085053734 0.24
  endloop
 endfacet
 facet normal 0.0 -1.0 0.0
  outer loop
   vertex 1.692631332687391 45.413880085053734 0.24
   vertex 1.692631332687391 45.413880085053734 0
   vertex 4.692631332687391 45.413880085053734 0.24
  endloop
 endfacet
 facet normal 0.0 0.0 1.0
  outer loop
   vertex 1.692631332687391 45.413880085053734 0.24
   vertex 4.692631332687391 45.413880085053734 0.24
   vertex 3.192631332687391 46.913880085053734 0.24
  endloop
 endfacet
endsolid
