solid PyGamic generated __Board__ SLA File
 facet normal 0.0 -0.0 -1.0
  outer loop
   vertex -7.104333484650151 42.05388008505372 0
   vertex -2.880733484650153 31.494880085053722 0
   vertex -11.63223460036945 31.49488008505372 0
  endloop
 endfacet
 facet normal -0.0 0.0 -1.0
  outer loop
   vertex -7.104333484650151 42.05388008505372 0
   vertex -11.63223460036945 31.49488008505372 0
   vertex -11.63223460036945 42.05388008505372 0
  endloop
 endfacet
 facet normal 0.9284766908852593 0.3713906763541036 0.0
  outer loop
   vertex -2.880733484650153 31.494880085053722 0
   vertex -7.104333484650151 42.05388008505372 0
   vertex -7.104333484650151 42.05388008505372 0.24
  endloop
 endfacet
 facet normal 0.9284766908852593 0.3713906763541036 0.0
  outer loop
   vertex -2.880733484650153 31.494880085053722 0.24
   vertex -2.880733484650153 31.494880085053722 0
   vertex -7.104333484650151 42.05388008505372 0.24
  endloop
 endfacet
 facet normal 4.0595477642334725e-16 -1.0 0.0
  outer loop
   vertex -11.63223460036945 31.49488008505372 0
   vertex -2.880733484650153 31.494880085053722 0
   vertex -2.880733484650153 31.494880085053722 0.24
  endloop
 endfacet
 facet normal 4.0595477642334725e-16 -1.0 0.0
  outer loop
   vertex -11.63223460036945 31.49488008505372 0.24
   vertex -11.63223460036945 31.49488008505372 0
   vertex -2.880733484650153 31.494880085053722 0.24
  endloop
 endfacet
 facet normal -1.0 0.0 0.0
  outer loop
   vertex -11.63223460036945 42.05388008505372 0
   vertex -11.63223460036945 31.49488008505372 0
   vertex -11.63223460036945 31.49488008505372 0.24
  endloop
 endfacet
 facet normal -1.0 -0.0 -0.0
  outer loop
   vertex -11.63223460036945 42.05388008505372 0.24
   vertex -11.63223460036945 42.05388008505372 0
   vertex -11.63223460036945 31.49488008505372 0.24
  endloop
 endfacet
 facet normal 0.0 1.0 0.0
  outer loop
   vertex -7.104333484650151 42.05388008505372 0
   vertex -11.63223460036945 42.05388008505372 0
   vertex -11.63223460036945 42.05388008505372 0.24
  endloop
 endfacet
 facet normal 0.0 1.0 0.0
  outer loop
   vertex -7.104333484650151 42.05388008505372 0.24
   vertex -7.104333484650151 42.05388008505372 0
   vertex -11.63223460036945 42.05388008505372 0.24
  endloop
 endfacet
 facet normal 0.0 0.0 1.0
  outer loop
   vertex -7.104333484650151 42.05388008505372 0.24
   vertex -11.63223460036945 31.49488008505372 0.24
   vertex -2.880733484650153 31.494880085053722 0.24
  endloop
 endfacet
 facet normal 0.0 0.0 1.0
  outer loop
   vertex -7.104333484650151 42.05388008505372 0.24
   vertex -11.63223460036945 42.05388008505372 0.24
   vertex -11.63223460036945 31.49488008505372 0.24
  endloop
 endfacet
 facet normal 0.0 0.0 -1.0
  outer loop
   vertex -2.8807334846501527 58.61288008505373 0
   vertex -7.10433348465016 48.05388008505372 0
   vertex -11.632234600369452 48.05388008505373 0
  endloop
 endfacet
 facet normal -0.0 0.0 -1.0
  outer loop
   vertex -2.8807334846501527 58.61288008505373 0
   vertex -11.632234600369452 48.05388008505373 0
   vertex -11.632234600369445 58.61288008505373 0
  endloop
 endfacet
 facet normal 0.9284766908852592 -0.37139067635410383 0.0
  outer loop
   vertex -7.10433348465016 48.05388008505372 0
   vertex -2.8807334846501527 58.61288008505373 0
   vertex -2.8807334846501527 58.61288008505373 0.24
  endloop
 endfacet
 facet normal 0.9284766908852592 -0.37139067635410383 0.0
  outer loop
   vertex -7.10433348465016 48.05388008505372 0.24
   vertex -7.10433348465016 48.05388008505372 0
   vertex -2.8807334846501527 58.61288008505373 0.24
  endloop
 endfacet
 facet normal -1.5692540927922294e-15 -1.0 0.0
  outer loop
   vertex -11.632234600369452 48.05388008505373 0
   vertex -7.10433348465016 48.05388008505372 0
   vertex -7.10433348465016 48.05388008505372 0.24
  endloop
 endfacet
 facet normal -1.5692540927922294e-15 -1.0 -0.0
  outer loop
   vertex -11.632234600369452 48.05388008505373 0.24
   vertex -11.632234600369452 48.05388008505373 0
   vertex -7.10433348465016 48.05388008505372 0.24
  endloop
 endfacet
 facet normal -1.0 6.729261632352495e-16 0.0
  outer loop
   vertex -11.632234600369445 58.61288008505373 0
   vertex -11.632234600369452 48.05388008505373 0
   vertex -11.632234600369452 48.05388008505373 0.24
  endloop
 endfacet
 facet normal -1.0 6.729261632352495e-16 0.0
  outer loop
   vertex -11.632234600369445 58.61288008505373 0.24
   vertex -11.632234600369445 58.61288008505373 0
   vertex -11.632234600369452 48.05388008505373 0.24
  endloop
 endfacet
 facet normal 0.0 1.0 0.0
  outer loop
   vertex -2.8807334846501527 58.61288008505373 0
   vertex -11.632234600369445 58.61288008505373 0
   vertex -11.632234600369445 58.61288008505373 0.24
  endloop
 endfacet
 facet normal 0.0 1.0 0.0
  outer loop
   vertex -2.8807334846501527 58.61288008505373 0.24
   vertex -2.8807334846501527 58.61288008505373 0
   vertex -11.632234600369445 58.61288008505373 0.24
  endloop
 endfacet
 facet normal 0.0 0.0 1.0
  outer loop
   vertex -2.8807334846501527 58.61288008505373 0.24
   vertex -11.632234600369452 48.05388008505373 0.24
   vertex -7.10433348465016 48.05388008505372 0.24
  endloop
 endfacet
 facet normal 0.0 0.0 1.0
  outer loop
   vertex -2.8807334846501527 58.61288008505373 0.24
   vertex -11.632234600369445 58.61288008505373 0.24
   vertex -11.632234600369452 48.05388008505373 0.24
  endloop
 endfacet
 facet normal 0.0 0.0 -1.0
  outer loop
   vertex 24.73426428391125 31.494880085053733 0
   vertex 28.957864283911256 42.05388008505374 0
   vertex 33.485765399630544 42.05388008505374 0
  endloop
 endfacet
 facet normal 0.0 0.0 -1.0
  outer loop
   vertex 24.73426428391125 31.494880085053733 0
   vertex 33.485765399630544 42.05388008505374 0
   vertex 33.485765399630544 31.494880085053733 0
  endloop
 endfacet
 facet normal -0.9284766908852593 0.37139067635410383 0.0
  outer loop
   vertex 28.957864283911256 42.05388008505374 0
   vertex 24.73426428391125 31.494880085053733 0
   vertex 24.73426428391125 31.494880085053733 0.24
  endloop
 endfacet
 facet normal -0.9284766908852593 0.37139067635410383 0.0
  outer loop
   vertex 28.957864283911256 42.05388008505374 0.24
   vertex 28.957864283911256 42.05388008505374 0
   vertex 24.73426428391125 31.494880085053733 0.24
  endloop
 endfacet
 facet normal 0.0 1.0 0.0
  outer loop
   vertex 33.485765399630544 42.05388008505374 0
   vertex 28.957864283911256 42.05388008505374 0
   vertex 28.957864283911256 42.05388008505374 0.24
  endloop
 endfacet
 facet normal 0.0 1.0 0.0
  outer loop
   vertex 33.485765399630544 42.05388008505374 0.24
   vertex 33.485765399630544 42.05388008505374 0
   vertex 28.957864283911256 42.05388008505374 0.24
  endloop
 endfacet
 facet normal 1.0 0.0 0.0
  outer loop
   vertex 33.485765399630544 31.494880085053733 0
   vertex 33.485765399630544 42.05388008505374 0
   vertex 33.485765399630544 42.05388008505374 0.24
  endloop
 endfacet
 facet normal 1.0 -0.0 0.0
  outer loop
   vertex 33.485765399630544 31.494880085053733 0.24
   vertex 33.485765399630544 31.494880085053733 0
   vertex 33.485765399630544 42.05388008505374 0.24
  endloop
 endfacet
 facet normal 0.0 -1.0 0.0
  outer loop
   vertex 24.73426428391125 31.494880085053733 0
   vertex 33.485765399630544 31.494880085053733 0
   vertex 33.485765399630544 31.494880085053733 0.24
  endloop
 endfacet
 facet normal 0.0 -1.0 0.0
  outer loop
   vertex 24.73426428391125 31.494880085053733 0.24
   vertex 24.73426428391125 31.494880085053733 0
   vertex 33.485765399630544 31.494880085053733 0.24
  endloop
 endfacet
 facet normal 0.0 0.0 1.0
  outer loop
   vertex 24.73426428391125 31.494880085053733 0.24
   vertex 33.485765399630544 42.05388008505374 0.24
   vertex 28.957864283911256 42.05388008505374 0.24
  endloop
 endfacet
 facet normal 0.0 0.0 1.0
  outer loop
   vertex 24.73426428391125 31.494880085053733 0.24
   vertex 33.485765399630544 31.494880085053733 0.24
   vertex 33.485765399630544 42.05388008505374 0.24
  endloop
 endfacet
 facet normal 0.0 0.0 -1.0
  outer loop
   vertex 28.95786428391125 48.05388008505374 0
   vertex 24.73426428391126 58.612880085053725 0
   vertex 33.485765399630544 58.61288008505371 0
  endloop
 endfacet
 facet normal 0.0 0.0 -1.0
  outer loop
   vertex 28.95786428391125 48.05388008505374 0
   vertex 33.485765399630544 58.61288008505371 0
   vertex 33.485765399630544 48.05388008505374 0
  endloop
 endfacet
 facet normal -0.9284766908852595 -0.37139067635410355 0.0
  outer loop
   vertex 24.73426428391126 58.612880085053725 0
   vertex 28.95786428391125 48.05388008505374 0
   vertex 28.95786428391125 48.05388008505374 0.24
  endloop
 endfacet
 facet normal -0.9284766908852595 -0.37139067635410355 -0.0
  outer loop
   vertex 24.73426428391126 58.612880085053725 0.24
   vertex 24.73426428391126 58.612880085053725 0
   vertex 28.95786428391125 48.05388008505374 0.24
  endloop
 endfacet
 facet normal 1.6238191056933908e-15 1.0 0.0
  outer loop
   vertex 33.485765399630544 58.61288008505371 0
   vertex 24.73426428391126 58.612880085053725 0
   vertex 24.73426428391126 58.612880085053725 0.24
  endloop
 endfacet
 facet normal 1.6238191056933908e-15 1.0 0.0
  outer loop
   vertex 33.485765399630544 58.61288008505371 0.24
   vertex 33.485765399630544 58.61288008505371 0
   vertex 24.73426428391126 58.612880085053725 0.24
  endloop
 endfacet
 facet normal 1.0 0.0 0.0
  outer loop
   vertex 33.485765399630544 48.05388008505374 0
   vertex 33.485765399630544 58.61288008505371 0
   vertex 33.485765399630544 58.61288008505371 0.24
  endloop
 endfacet
 facet normal 1.0 -0.0 0.0
  outer loop
   vertex 33.485765399630544 48.05388008505374 0.24
   vertex 33.485765399630544 48.05388008505374 0
   vertex 33.485765399630544 58.61288008505371 0.24
  endloop
 endfacet
 facet normal 0.0 -1.0 0.0
  outer loop
   vertex 28.95786428391125 48.05388008505374 0
   vertex 33.485765399630544 48.05388008505374 0
   vertex 33.485765399630544 48.05388008505374 0.24
  endloop
 endfacet
 facet normal 0.0 -1.0 0.0
  outer loop
   vertex 28.95786428391125 48.05388008505374 0.24
   vertex 28.95786428391125 48.05388008505374 0
   vertex 33.485765399630544 48.05388008505374 0.24
  endloop
 endfacet
 facet normal 0.0 -0.0 1.0
  outer loop
   vertex 28.95786428391125 48.05388008505374 0.24
   vertex 33.485765399630544 58.61288008505371 0.24
   vertex 24.73426428391126 58.612880085053725 0.24
  endloop
 endfacet
 facet normal 0.0 0.0 1.0
  outer loop
   vertex 28.95786428391125 48.05388008505374 0.24
   vertex 33.485765399630544 48.05388008505374 0.24
   vertex 33.485765399630544 58.61288008505371 0.24
  endloop
 endfacet
 facet normal 0.0 0.0 -1.0
  outer loop
   vertex 5.30663253300747 27.181959462313177 0
   vertex -0.6421357160887509 42.053880085053734 0
   vertex 9.774328891009635 31.39512684216521 0
  endloop
 endfacet
 facet normal 0.0 0.0 -1.0
  outer loop
   vertex -0.6421357160887509 42.053880085053734 0
   vertex 22.495666515349846 42.053880085053734 0
   vertex 11.8 31.75230731272185 0
  endloop
 endfacet
 facet normal 0.0 0.0 -1.0
  outer loop
   vertex 22.495666515349846 42.053880085053734 0
   vertex 16.546898266253624 27.181959462313184 0
   vertex 12.6 30.36666666666675 0
  endloop
 endfacet
 facet normal -0.0 0.0 -1.0
  outer loop
   vertex 16.546898266253624 27.181959462313184 0
   vertex 10.926765399630549 20.6656525907627 0
   vertex 12.6 30.36666666666675 0
  endloop
 endfacet
 facet normal 0.0 0.0 -1.0
  outer loop
   vertex 10.926765399630549 20.6656525907627 0
   vertex 5.30663253300747 27.181959462313177 0
   vertex 9.4 30.36666666666675 0
  endloop
 endfacet
 facet normal 0.0 0.0 -1.0
  outer loop
   vertex 12.6 30.36666666666675 0
   vertex 12.503508193257455 30.91389889598782 0
   vertex 22.495666515349846 42.053880085053734 0
  endloop
 endfacet
 facet normal 0.0 0.0 -1.0
  outer loop
   vertex 12.6 30.36666666666675 0
   vertex 10.926765399630549 20.6656525907627 0
   vertex 12.503508193257453 29.819434437345677 0
  endloop
 endfacet
 facet normal 0.0 0.0 -1.0
  outer loop
   vertex 12.503508193257455 30.91389889598782 0
   vertex 12.225671108990365 31.39512684216521 0
   vertex 22.495666515349846 42.053880085053734 0
  endloop
 endfacet
 facet normal 0.0 0.0 -1.0
  outer loop
   vertex 12.225671108990365 31.39512684216521 0
   vertex 11.8 31.75230731272185 0
   vertex 22.495666515349846 42.053880085053734 0
  endloop
 endfacet
 facet normal 0.0 0.0 -1.0
  outer loop
   vertex 11.8 31.75230731272185 0
   vertex 11.27783708426709 31.942359071486283 0
   vertex -0.6421357160887509 42.053880085053734 0
  endloop
 endfacet
 facet normal 0.0 0.0 -1.0
  outer loop
   vertex 11.27783708426709 31.942359071486283 0
   vertex 10.72216291573291 31.942359071486283 0
   vertex -0.6421357160887509 42.053880085053734 0
  endloop
 endfacet
 facet normal -0.0 0.0 -1.0
  outer loop
   vertex 10.72216291573291 31.942359071486283 0
   vertex 10.2 31.75230731272185 0
   vertex -0.6421357160887509 42.053880085053734 0
  endloop
 endfacet
 facet normal -0.0 0.0 -1.0
  outer loop
   vertex 10.2 31.75230731272185 0
   vertex 9.774328891009635 31.39512684216521 0
   vertex -0.6421357160887509 42.053880085053734 0
  endloop
 endfacet
 facet normal 0.0 0.0 -1.0
  outer loop
   vertex 9.774328891009635 31.39512684216521 0
   vertex 9.496491806742547 30.91389889598782 0
   vertex 5.30663253300747 27.181959462313177 0
  endloop
 endfacet
 facet normal 0.0 0.0 -1.0
  outer loop
   vertex 9.496491806742547 30.91389889598782 0
   vertex 9.4 30.36666666666675 0
   vertex 5.30663253300747 27.181959462313177 0
  endloop
 endfacet
 facet normal 0.0 0.0 -1.0
  outer loop
   vertex 9.4 30.36666666666675 0
   vertex 9.496491806742545 29.819434437345677 0
   vertex 10.926765399630549 20.6656525907627 0
  endloop
 endfacet
 facet normal 0.0 0.0 -1.0
  outer loop
   vertex 9.496491806742545 29.819434437345677 0
   vertex 9.774328891009635 29.338206491168286 0
   vertex 10.926765399630549 20.6656525907627 0
  endloop
 endfacet
 facet normal 0.0 0.0 -1.0
  outer loop
   vertex 9.774328891009635 29.338206491168286 0
   vertex 10.2 28.981026020611647 0
   vertex 10.926765399630549 20.6656525907627 0
  endloop
 endfacet
 facet normal 0.0 0.0 -1.0
  outer loop
   vertex 10.2 28.981026020611647 0
   vertex 10.72216291573291 28.790974261847214 0
   vertex 10.926765399630549 20.6656525907627 0
  endloop
 endfacet
 facet normal 0.0 0.0 -1.0
  outer loop
   vertex 10.72216291573291 28.790974261847214 0
   vertex 11.277837084267087 28.790974261847214 0
   vertex 10.926765399630549 20.6656525907627 0
  endloop
 endfacet
 facet normal 0.0 -0.0 -1.0
  outer loop
   vertex 11.277837084267087 28.790974261847214 0
   vertex 11.8 28.981026020611647 0
   vertex 10.926765399630549 20.6656525907627 0
  endloop
 endfacet
 facet normal 0.0 -0.0 -1.0
  outer loop
   vertex 11.8 28.981026020611647 0
   vertex 12.225671108990365 29.338206491168286 0
   vertex 10.926765399630549 20.6656525907627 0
  endloop
 endfacet
 facet normal 0.0 -0.0 -1.0
  outer loop
   vertex 12.225671108990365 29.338206491168286 0
   vertex 12.503508193257453 29.819434437345677 0
   vertex 10.926765399630549 20.6656525907627 0
  endloop
 endfacet
 facet normal -0.9284766908852594 -0.3713906763541036 0.0
  outer loop
   vertex -0.6421357160887509 42.053880085053734 0
   vertex 5.30663253300747 27.181959462313177 0
   vertex 5.30663253300747 27.181959462313177 0.24
  endloop
 endfacet
 facet normal -0.9284766908852594 -0.3713906763541036 -0.0
  outer loop
   vertex -0.6421357160887509 42.053880085053734 0.24
   vertex -0.6421357160887509 42.053880085053734 0
   vertex 5.30663253300747 27.181959462313177 0.24
  endloop
 endfacet
 facet normal 0.0 1.0 0.0
  outer loop
   vertex 22.495666515349846 42.053880085053734 0
   vertex -0.6421357160887509 42.053880085053734 0
   vertex -0.6421357160887509 42.053880085053734 0.24
  endloop
 endfacet
 facet normal 0.0 1.0 0.0
  outer loop
   vertex 22.495666515349846 42.053880085053734 0.24
   vertex 22.495666515349846 42.053880085053734 0
   vertex -0.6421357160887509 42.053880085053734 0.24
  endloop
 endfacet
 facet normal 0.9284766908852593 -0.37139067635410383 0.0
  outer loop
   vertex 16.546898266253624 27.181959462313184 0
   vertex 22.495666515349846 42.053880085053734 0
   vertex 22.495666515349846 42.053880085053734 0.24
  endloop
 endfacet
 facet normal 0.9284766908852593 -0.37139067635410383 0.0
  outer loop
   vertex 16.546898266253624 27.181959462313184 0.24
   vertex 16.546898266253624 27.181959462313184 0
   vertex 22.495666515349846 42.053880085053734 0.24
  endloop
 endfacet
 facet normal 0.7572589689529784 -0.6531147326008441 0.0
  outer loop
   vertex 10.926765399630549 20.6656525907627 0
   vertex 16.546898266253624 27.181959462313184 0
   vertex 16.546898266253624 27.181959462313184 0.24
  endloop
 endfacet
 facet normal 0.7572589689529784 -0.6531147326008441 0.0
  outer loop
   vertex 10.926765399630549 20.6656525907627 0.24
   vertex 10.926765399630549 20.6656525907627 0
   vertex 16.546898266253624 27.181959462313184 0.24
  endloop
 endfacet
 facet normal -0.7572589689529778 -0.6531147326008447 0.0
  outer loop
   vertex 5.30663253300747 27.181959462313177 0
   vertex 10.926765399630549 20.6656525907627 0
   vertex 10.926765399630549 20.6656525907627 0.24
  endloop
 endfacet
 facet normal -0.7572589689529778 -0.6531147326008447 -0.0
  outer loop
   vertex 5.30663253300747 27.181959462313177 0.24
   vertex 5.30663253300747 27.181959462313177 0
   vertex 10.926765399630549 20.6656525907627 0.24
  endloop
 endfacet
 facet normal 0.0 -0.0 1.0
  outer loop
   vertex 5.30663253300747 27.181959462313177 0.24
   vertex 9.774328891009635 31.39512684216521 0.24
   vertex -0.6421357160887509 42.053880085053734 0.24
  endloop
 endfacet
 facet normal -0.0 0.0 1.0
  outer loop
   vertex -0.6421357160887509 42.053880085053734 0.24
   vertex 11.8 31.75230731272185 0.24
   vertex 22.495666515349846 42.053880085053734 0.24
  endloop
 endfacet
 facet normal 0.0 0.0 1.0
  outer loop
   vertex 22.495666515349846 42.053880085053734 0.24
   vertex 12.6 30.36666666666675 0.24
   vertex 16.546898266253624 27.181959462313184 0.24
  endloop
 endfacet
 facet normal 0.0 0.0 1.0
  outer loop
   vertex 16.546898266253624 27.181959462313184 0.24
   vertex 12.6 30.36666666666675 0.24
   vertex 10.926765399630549 20.6656525907627 0.24
  endloop
 endfacet
 facet normal 0.0 0.0 1.0
  outer loop
   vertex 10.926765399630549 20.6656525907627 0.24
   vertex 9.4 30.36666666666675 0.24
   vertex 5.30663253300747 27.181959462313177 0.24
  endloop
 endfacet
 facet normal 0.0 -0.0 1.0
  outer loop
   vertex 12.6 30.36666666666675 0.24
   vertex 22.495666515349846 42.053880085053734 0.24
   vertex 12.503508193257455 30.91389889598782 0.24
  endloop
 endfacet
 facet normal 0.0 0.0 1.0
  outer loop
   vertex 12.6 30.36666666666675 0.24
   vertex 12.503508193257453 29.819434437345677 0.24
   vertex 10.926765399630549 20.6656525907627 0.24
  endloop
 endfacet
 facet normal 0.0 -0.0 1.0
  outer loop
   vertex 12.503508193257455 30.91389889598782 0.24
   vertex 22.495666515349846 42.053880085053734 0.24
   vertex 12.225671108990365 31.39512684216521 0.24
  endloop
 endfacet
 facet normal 0.0 -0.0 1.0
  outer loop
   vertex 12.225671108990365 31.39512684216521 0.24
   vertex 22.495666515349846 42.053880085053734 0.24
   vertex 11.8 31.75230731272185 0.24
  endloop
 endfacet
 facet normal 0.0 0.0 1.0
  outer loop
   vertex 11.8 31.75230731272185 0.24
   vertex -0.6421357160887509 42.053880085053734 0.24
   vertex 11.27783708426709 31.942359071486283 0.24
  endloop
 endfacet
 facet normal 0.0 0.0 1.0
  outer loop
   vertex 11.27783708426709 31.942359071486283 0.24
   vertex -0.6421357160887509 42.053880085053734 0.24
   vertex 10.72216291573291 31.942359071486283 0.24
  endloop
 endfacet
 facet normal 0.0 0.0 1.0
  outer loop
   vertex 10.72216291573291 31.942359071486283 0.24
   vertex -0.6421357160887509 42.053880085053734 0.24
   vertex 10.2 31.75230731272185 0.24
  endloop
 endfacet
 facet normal 0.0 0.0 1.0
  outer loop
   vertex 10.2 31.75230731272185 0.24
   vertex -0.6421357160887509 42.053880085053734 0.24
   vertex 9.774328891009635 31.39512684216521 0.24
  endloop
 endfacet
 facet normal 0.0 0.0 1.0
  outer loop
   vertex 9.774328891009635 31.39512684216521 0.24
   vertex 5.30663253300747 27.181959462313177 0.24
   vertex 9.496491806742547 30.91389889598782 0.24
  endloop
 endfacet
 facet normal 0.0 0.0 1.0
  outer loop
   vertex 9.496491806742547 30.91389889598782 0.24
   vertex 5.30663253300747 27.181959462313177 0.24
   vertex 9.4 30.36666666666675 0.24
  endloop
 endfacet
 facet normal 0.0 0.0 1.0
  outer loop
   vertex 9.4 30.36666666666675 0.24
   vertex 10.926765399630549 20.6656525907627 0.24
   vertex 9.496491806742545 29.819434437345677 0.24
  endloop
 endfacet
 facet normal 0.0 0.0 1.0
  outer loop
   vertex 9.496491806742545 29.819434437345677 0.24
   vertex 10.926765399630549 20.6656525907627 0.24
   vertex 9.774328891009635 29.338206491168286 0.24
  endloop
 endfacet
 facet normal 0.0 0.0 1.0
  outer loop
   vertex 9.774328891009635 29.338206491168286 0.24
   vertex 10.926765399630549 20.6656525907627 0.24
   vertex 10.2 28.981026020611647 0.24
  endloop
 endfacet
 facet normal 0.0 0.0 1.0
  outer loop
   vertex 10.2 28.981026020611647 0.24
   vertex 10.926765399630549 20.6656525907627 0.24
   vertex 10.72216291573291 28.790974261847214 0.24
  endloop
 endfacet
 facet normal -0.0 0.0 1.0
  outer loop
   vertex 10.72216291573291 28.790974261847214 0.24
   vertex 10.926765399630549 20.6656525907627 0.24
   vertex 11.277837084267087 28.790974261847214 0.24
  endloop
 endfacet
 facet normal -0.0 0.0 1.0
  outer loop
   vertex 11.277837084267087 28.790974261847214 0.24
   vertex 10.926765399630549 20.6656525907627 0.24
   vertex 11.8 28.981026020611647 0.24
  endloop
 endfacet
 facet normal -0.0 0.0 1.0
  outer loop
   vertex 11.8 28.981026020611647 0.24
   vertex 10.926765399630549 20.6656525907627 0.24
   vertex 12.225671108990365 29.338206491168286 0.24
  endloop
 endfacet
 facet normal -0.0 0.0 1.0
  outer loop
   vertex 12.225671108990365 29.338206491168286 0.24
   vertex 10.926765399630549 20.6656525907627 0.24
   vertex 12.503508193257453 29.819434437345677 0.24
  endloop
 endfacet
 facet normal -0.9848077530122087 -0.17364817766692722 0.0
  outer loop
   vertex 12.6 30.36666666666675 0
   vertex 12.6 30.36666666666675 0.24
   vertex 12.503508193257455 30.91389889598782 0
  endloop
 endfacet
 facet normal -0.9848077530122087 -0.17364817766692722 0.0
  outer loop
   vertex 12.503508193257455 30.91389889598782 0
   vertex 12.6 30.36666666666675 0.24
   vertex 12.503508193257455 30.91389889598782 0.24
  endloop
 endfacet
 facet normal -0.8660254037844375 -0.5000000000000023 0.0
  outer loop
   vertex 12.503508193257455 30.91389889598782 0
   vertex 12.503508193257455 30.91389889598782 0.24
   vertex 12.225671108990365 31.39512684216521 0
  endloop
 endfacet
 facet normal -0.8660254037844375 -0.5000000000000023 0.0
  outer loop
   vertex 12.225671108990365 31.39512684216521 0
   vertex 12.503508193257455 30.91389889598782 0.24
   vertex 12.225671108990365 31.39512684216521 0.24
  endloop
 endfacet
 facet normal -0.6427876096865393 -0.7660444431189782 0.0
  outer loop
   vertex 12.225671108990365 31.39512684216521 0
   vertex 12.225671108990365 31.39512684216521 0.24
   vertex 11.8 31.75230731272185 0
  endloop
 endfacet
 facet normal -0.6427876096865393 -0.7660444431189782 0.0
  outer loop
   vertex 11.8 31.75230731272185 0
   vertex 12.225671108990365 31.39512684216521 0.24
   vertex 11.8 31.75230731272185 0.24
  endloop
 endfacet
 facet normal -0.3420201433256718 -0.9396926207859073 0.0
  outer loop
   vertex 11.8 31.75230731272185 0
   vertex 11.8 31.75230731272185 0.24
   vertex 11.27783708426709 31.942359071486283 0
  endloop
 endfacet
 facet normal -0.3420201433256718 -0.9396926207859073 0.0
  outer loop
   vertex 11.27783708426709 31.942359071486283 0
   vertex 11.8 31.75230731272185 0.24
   vertex 11.27783708426709 31.942359071486283 0.24
  endloop
 endfacet
 facet normal 0.0 -1.0 0.0
  outer loop
   vertex 11.27783708426709 31.942359071486283 0
   vertex 11.27783708426709 31.942359071486283 0.24
   vertex 10.72216291573291 31.942359071486283 0
  endloop
 endfacet
 facet normal 0.0 -1.0 0.0
  outer loop
   vertex 10.72216291573291 31.942359071486283 0
   vertex 11.27783708426709 31.942359071486283 0.24
   vertex 10.72216291573291 31.942359071486283 0.24
  endloop
 endfacet
 facet normal 0.3420201433256718 -0.9396926207859073 0.0
  outer loop
   vertex 10.72216291573291 31.942359071486283 0
   vertex 10.72216291573291 31.942359071486283 0.24
   vertex 10.2 31.75230731272185 0
  endloop
 endfacet
 facet normal 0.3420201433256718 -0.9396926207859073 0.0
  outer loop
   vertex 10.2 31.75230731272185 0
   vertex 10.72216291573291 31.942359071486283 0.24
   vertex 10.2 31.75230731272185 0.24
  endloop
 endfacet
 facet normal 0.6427876096865393 -0.7660444431189782 0.0
  outer loop
   vertex 10.2 31.75230731272185 0
   vertex 10.2 31.75230731272185 0.24
   vertex 9.774328891009635 31.39512684216521 0
  endloop
 endfacet
 facet normal 0.6427876096865393 -0.7660444431189782 0.0
  outer loop
   vertex 9.774328891009635 31.39512684216521 0
   vertex 10.2 31.75230731272185 0.24
   vertex 9.774328891009635 31.39512684216521 0.24
  endloop
 endfacet
 facet normal 0.8660254037844387 -0.4999999999999998 0.0
  outer loop
   vertex 9.774328891009635 31.39512684216521 0
   vertex 9.774328891009635 31.39512684216521 0.24
   vertex 9.496491806742547 30.91389889598782 0
  endloop
 endfacet
 facet normal 0.8660254037844387 -0.4999999999999998 0.0
  outer loop
   vertex 9.496491806742547 30.91389889598782 0
   vertex 9.774328891009635 31.39512684216521 0.24
   vertex 9.496491806742547 30.91389889598782 0.24
  endloop
 endfacet
 facet normal 0.984807753012208 -0.1736481776669303 0.0
  outer loop
   vertex 9.496491806742547 30.91389889598782 0
   vertex 9.496491806742547 30.91389889598782 0.24
   vertex 9.4 30.36666666666675 0
  endloop
 endfacet
 facet normal 0.984807753012208 -0.1736481776669303 0.0
  outer loop
   vertex 9.4 30.36666666666675 0
   vertex 9.496491806742547 30.91389889598782 0.24
   vertex 9.4 30.36666666666675 0.24
  endloop
 endfacet
 facet normal 0.9848077530122087 0.17364817766692722 -0.0
  outer loop
   vertex 9.4 30.36666666666675 0
   vertex 9.4 30.36666666666675 0.24
   vertex 9.496491806742545 29.819434437345677 0
  endloop
 endfacet
 facet normal 0.9848077530122087 0.17364817766692722 -0.0
  outer loop
   vertex 9.496491806742545 29.819434437345677 0
   vertex 9.4 30.36666666666675 0.24
   vertex 9.496491806742545 29.819434437345677 0.24
  endloop
 endfacet
 facet normal 0.8660254037844375 0.5000000000000023 -0.0
  outer loop
   vertex 9.496491806742545 29.819434437345677 0
   vertex 9.496491806742545 29.819434437345677 0.24
   vertex 9.774328891009635 29.338206491168286 0
  endloop
 endfacet
 facet normal 0.8660254037844375 0.5000000000000023 -0.0
  outer loop
   vertex 9.774328891009635 29.338206491168286 0
   vertex 9.496491806742545 29.819434437345677 0.24
   vertex 9.774328891009635 29.338206491168286 0.24
  endloop
 endfacet
 facet normal 0.6427876096865393 0.7660444431189782 -0.0
  outer loop
   vertex 9.774328891009635 29.338206491168286 0
   vertex 9.774328891009635 29.338206491168286 0.24
   vertex 10.2 28.981026020611647 0
  endloop
 endfacet
 facet normal 0.6427876096865393 0.7660444431189782 -0.0
  outer loop
   vertex 10.2 28.981026020611647 0
   vertex 9.774328891009635 29.338206491168286 0.24
   vertex 10.2 28.981026020611647 0.24
  endloop
 endfacet
 facet normal 0.3420201433256718 0.9396926207859073 -0.0
  outer loop
   vertex 10.2 28.981026020611647 0
   vertex 10.2 28.981026020611647 0.24
   vertex 10.72216291573291 28.790974261847214 0
  endloop
 endfacet
 facet normal 0.3420201433256718 0.9396926207859073 -0.0
  outer loop
   vertex 10.72216291573291 28.790974261847214 0
   vertex 10.2 28.981026020611647 0.24
   vertex 10.72216291573291 28.790974261847214 0.24
  endloop
 endfacet
 facet normal 0.0 1.0 0.0
  outer loop
   vertex 10.72216291573291 28.790974261847214 0
   vertex 10.72216291573291 28.790974261847214 0.24
   vertex 11.277837084267087 28.790974261847214 0
  endloop
 endfacet
 facet normal 0.0 1.0 -0.0
  outer loop
   vertex 11.277837084267087 28.790974261847214 0
   vertex 10.72216291573291 28.790974261847214 0.24
   vertex 11.277837084267087 28.790974261847214 0.24
  endloop
 endfacet
 facet normal -0.34202014332567077 0.9396926207859077 0.0
  outer loop
   vertex 11.277837084267087 28.790974261847214 0
   vertex 11.277837084267087 28.790974261847214 0.24
   vertex 11.8 28.981026020611647 0
  endloop
 endfacet
 facet normal -0.34202014332567077 0.9396926207859077 0.0
  outer loop
   vertex 11.8 28.981026020611647 0
   vertex 11.277837084267087 28.790974261847214 0.24
   vertex 11.8 28.981026020611647 0.24
  endloop
 endfacet
 facet normal -0.6427876096865393 0.7660444431189782 0.0
  outer loop
   vertex 11.8 28.981026020611647 0
   vertex 11.8 28.981026020611647 0.24
   vertex 12.225671108990365 29.338206491168286 0
  endloop
 endfacet
 facet normal -0.6427876096865393 0.7660444431189782 0.0
  outer loop
   vertex 12.225671108990365 29.338206491168286 0
   vertex 11.8 28.981026020611647 0.24
   vertex 12.225671108990365 29.338206491168286 0.24
  endloop
 endfacet
 facet normal -0.8660254037844387 0.4999999999999998 0.0
  outer loop
   vertex 12.225671108990365 29.338206491168286 0
   vertex 12.225671108990365 29.338206491168286 0.24
   vertex 12.503508193257453 29.819434437345677 0
  endloop
 endfacet
 facet normal -0.8660254037844387 0.4999999999999998 0.0
  outer loop
   vertex 12.503508193257453 29.819434437345677 0
   vertex 12.225671108990365 29.338206491168286 0.24
   vertex 12.503508193257453 29.819434437345677 0.24
  endloop
 endfacet
 facet normal -0.984807753012208 0.1736481776669303 0.0
  outer loop
   vertex 12.503508193257453 29.819434437345677 0
   vertex 12.503508193257453 29.819434437345677 0.24
   vertex 12.6 30.36666666666675 0
  endloop
 endfacet
 facet normal -0.984807753012208 0.1736481776669303 0.0
  outer loop
   vertex 12.6 30.36666666666675 0
   vertex 12.503508193257453 29.819434437345677 0.24
   vertex 12.6 30.36666666666675 0.24
  endloop
 endfacet
 facet normal 0.0 0.0 -1.0
  outer loop
   vertex -0.642135716088746 48.053880085053734 0
   vertex 5.306632533007477 62.925800707794274 0
   vertex 9.785440002120746 60.772904619942885 0
  endloop
 endfacet
 facet normal 0.0 0.0 -1.0
  outer loop
   vertex 5.306632533007477 62.925800707794274 0
   vertex 10.926765399630552 69.44210757934474 0
   vertex 11.2889481953782 61.32013684926395 0
  endloop
 endfacet
 facet normal 0.0 0.0 -1.0
  outer loop
   vertex 10.926765399630552 69.44210757934474 0
   vertex 16.546898266253635 62.925800707794274 0
   vertex 12.61111111111111 59.74444444444442 0
  endloop
 endfacet
 facet normal 0.0 -0.0 -1.0
  outer loop
   vertex 16.546898266253635 62.925800707794274 0
   vertex 22.495666515349846 48.053880085053734 0
   vertex 12.61111111111111 59.74444444444442 0
  endloop
 endfacet
 facet normal 0.0 0.0 -1.0
  outer loop
   vertex 22.495666515349846 48.053880085053734 0
   vertex -0.642135716088746 48.053880085053734 0
   vertex 10.21111111111111 58.35880379838932 0
  endloop
 endfacet
 facet normal 0.0 0.0 -1.0
  outer loop
   vertex 12.61111111111111 59.74444444444442 0
   vertex 12.514619304368566 60.29167667376549 0
   vertex 10.926765399630552 69.44210757934474 0
  endloop
 endfacet
 facet normal 0.0 -0.0 -1.0
  outer loop
   vertex 12.61111111111111 59.74444444444442 0
   vertex 22.495666515349846 48.053880085053734 0
   vertex 12.514619304368564 59.19721221512335 0
  endloop
 endfacet
 facet normal 0.0 0.0 -1.0
  outer loop
   vertex 12.514619304368566 60.29167667376549 0
   vertex 12.236782220101476 60.772904619942885 0
   vertex 10.926765399630552 69.44210757934474 0
  endloop
 endfacet
 facet normal 0.0 0.0 -1.0
  outer loop
   vertex 12.236782220101476 60.772904619942885 0
   vertex 11.811111111111112 61.13008509049952 0
   vertex 10.926765399630552 69.44210757934474 0
  endloop
 endfacet
 facet normal 0.0 0.0 -1.0
  outer loop
   vertex 11.811111111111112 61.13008509049952 0
   vertex 11.2889481953782 61.32013684926395 0
   vertex 10.926765399630552 69.44210757934474 0
  endloop
 endfacet
 facet normal 0.0 0.0 -1.0
  outer loop
   vertex 11.2889481953782 61.32013684926395 0
   vertex 10.733274026844022 61.32013684926395 0
   vertex 5.306632533007477 62.925800707794274 0
  endloop
 endfacet
 facet normal -0.0 0.0 -1.0
  outer loop
   vertex 10.733274026844022 61.32013684926395 0
   vertex 10.211111111111112 61.13008509049952 0
   vertex 5.306632533007477 62.925800707794274 0
  endloop
 endfacet
 facet normal -0.0 0.0 -1.0
  outer loop
   vertex 10.211111111111112 61.13008509049952 0
   vertex 9.785440002120746 60.772904619942885 0
   vertex 5.306632533007477 62.925800707794274 0
  endloop
 endfacet
 facet normal 0.0 0.0 -1.0
  outer loop
   vertex 9.785440002120746 60.772904619942885 0
   vertex 9.507602917853657 60.29167667376549 0
   vertex -0.642135716088746 48.053880085053734 0
  endloop
 endfacet
 facet normal 0.0 0.0 -1.0
  outer loop
   vertex 9.507602917853657 60.29167667376549 0
   vertex 9.411111111111111 59.74444444444442 0
   vertex -0.642135716088746 48.053880085053734 0
  endloop
 endfacet
 facet normal 0.0 -0.0 -1.0
  outer loop
   vertex 9.411111111111111 59.74444444444442 0
   vertex 9.507602917853657 59.19721221512335 0
   vertex -0.642135716088746 48.053880085053734 0
  endloop
 endfacet
 facet normal 0.0 -0.0 -1.0
  outer loop
   vertex 9.507602917853657 59.19721221512335 0
   vertex 9.785440002120746 58.71598426894595 0
   vertex -0.642135716088746 48.053880085053734 0
  endloop
 endfacet
 facet normal 0.0 -0.0 -1.0
  outer loop
   vertex 9.785440002120746 58.71598426894595 0
   vertex 10.21111111111111 58.35880379838932 0
   vertex -0.642135716088746 48.053880085053734 0
  endloop
 endfacet
 facet normal 0.0 0.0 -1.0
  outer loop
   vertex 10.21111111111111 58.35880379838932 0
   vertex 10.733274026844022 58.168752039624884 0
   vertex 22.495666515349846 48.053880085053734 0
  endloop
 endfacet
 facet normal 0.0 0.0 -1.0
  outer loop
   vertex 10.733274026844022 58.168752039624884 0
   vertex 11.288948195378198 58.168752039624884 0
   vertex 22.495666515349846 48.053880085053734 0
  endloop
 endfacet
 facet normal 0.0 0.0 -1.0
  outer loop
   vertex 11.288948195378198 58.168752039624884 0
   vertex 11.811111111111112 58.35880379838932 0
   vertex 22.495666515349846 48.053880085053734 0
  endloop
 endfacet
 facet normal 0.0 0.0 -1.0
  outer loop
   vertex 11.811111111111112 58.35880379838932 0
   vertex 12.236782220101476 58.71598426894595 0
   vertex 22.495666515349846 48.053880085053734 0
  endloop
 endfacet
 facet normal 0.0 0.0 -1.0
  outer loop
   vertex 12.236782220101476 58.71598426894595 0
   vertex 12.514619304368564 59.19721221512335 0
   vertex 22.495666515349846 48.053880085053734 0
  endloop
 endfacet
 facet normal -0.9284766908852592 0.37139067635410417 0.0
  outer loop
   vertex 5.306632533007477 62.925800707794274 0
   vertex -0.642135716088746 48.053880085053734 0
   vertex -0.642135716088746 48.053880085053734 0.24
  endloop
 endfacet
 facet normal -0.9284766908852592 0.37139067635410417 0.0
  outer loop
   vertex 5.306632533007477 62.925800707794274 0.24
   vertex 5.306632533007477 62.925800707794274 0
   vertex -0.642135716088746 48.053880085053734 0.24
  endloop
 endfacet
 facet normal -0.7572589689529774 0.6531147326008453 0.0
  outer loop
   vertex 10.926765399630552 69.44210757934474 0
   vertex 5.306632533007477 62.925800707794274 0
   vertex 5.306632533007477 62.925800707794274 0.24
  endloop
 endfacet
 facet normal -0.7572589689529774 0.6531147326008453 0.0
  outer loop
   vertex 10.926765399630552 69.44210757934474 0.24
   vertex 10.926765399630552 69.44210757934474 0
   vertex 5.306632533007477 62.925800707794274 0.24
  endloop
 endfacet
 facet normal 0.7572589689529771 0.653114732600846 0.0
  outer loop
   vertex 16.546898266253635 62.925800707794274 0
   vertex 10.926765399630552 69.44210757934474 0
   vertex 10.926765399630552 69.44210757934474 0.24
  endloop
 endfacet
 facet normal 0.7572589689529771 0.653114732600846 0.0
  outer loop
   vertex 16.546898266253635 62.925800707794274 0.24
   vertex 16.546898266253635 62.925800707794274 0
   vertex 10.926765399630552 69.44210757934474 0.24
  endloop
 endfacet
 facet normal 0.9284766908852594 0.3713906763541035 0.0
  outer loop
   vertex 22.495666515349846 48.053880085053734 0
   vertex 16.546898266253635 62.925800707794274 0
   vertex 16.546898266253635 62.925800707794274 0.24
  endloop
 endfacet
 facet normal 0.9284766908852594 0.3713906763541035 0.0
  outer loop
   vertex 22.495666515349846 48.053880085053734 0.24
   vertex 22.495666515349846 48.053880085053734 0
   vertex 16.546898266253635 62.925800707794274 0.24
  endloop
 endfacet
 facet normal 0.0 -1.0 0.0
  outer loop
   vertex -0.642135716088746 48.053880085053734 0
   vertex 22.495666515349846 48.053880085053734 0
   vertex 22.495666515349846 48.053880085053734 0.24
  endloop
 endfacet
 facet normal 0.0 -1.0 0.0
  outer loop
   vertex -0.642135716088746 48.053880085053734 0.24
   vertex -0.642135716088746 48.053880085053734 0
   vertex 22.495666515349846 48.053880085053734 0.24
  endloop
 endfacet
 facet normal 0.0 0.0 1.0
  outer loop
   vertex -0.642135716088746 48.053880085053734 0.24
   vertex 9.785440002120746 60.772904619942885 0.24
   vertex 5.306632533007477 62.925800707794274 0.24
  endloop
 endfacet
 facet normal -0.0 0.0 1.0
  outer loop
   vertex 5.306632533007477 62.925800707794274 0.24
   vertex 11.2889481953782 61.32013684926395 0.24
   vertex 10.926765399630552 69.44210757934474 0.24
  endloop
 endfacet
 facet normal 0.0 0.0 1.0
  outer loop
   vertex 10.926765399630552 69.44210757934474 0.24
   vertex 12.61111111111111 59.74444444444442 0.24
   vertex 16.546898266253635 62.925800707794274 0.24
  endloop
 endfacet
 facet normal 0.0 0.0 1.0
  outer loop
   vertex 16.546898266253635 62.925800707794274 0.24
   vertex 12.61111111111111 59.74444444444442 0.24
   vertex 22.495666515349846 48.053880085053734 0.24
  endloop
 endfacet
 facet normal 0.0 0.0 1.0
  outer loop
   vertex 22.495666515349846 48.053880085053734 0.24
   vertex 10.21111111111111 58.35880379838932 0.24
   vertex -0.642135716088746 48.053880085053734 0.24
  endloop
 endfacet
 facet normal 0.0 0.0 1.0
  outer loop
   vertex 12.61111111111111 59.74444444444442 0.24
   vertex 10.926765399630552 69.44210757934474 0.24
   vertex 12.514619304368566 60.29167667376549 0.24
  endloop
 endfacet
 facet normal 0.0 0.0 1.0
  outer loop
   vertex 12.61111111111111 59.74444444444442 0.24
   vertex 12.514619304368564 59.19721221512335 0.24
   vertex 22.495666515349846 48.053880085053734 0.24
  endloop
 endfacet
 facet normal 0.0 0.0 1.0
  outer loop
   vertex 12.514619304368566 60.29167667376549 0.24
   vertex 10.926765399630552 69.44210757934474 0.24
   vertex 12.236782220101476 60.772904619942885 0.24
  endloop
 endfacet
 facet normal 0.0 0.0 1.0
  outer loop
   vertex 12.236782220101476 60.772904619942885 0.24
   vertex 10.926765399630552 69.44210757934474 0.24
   vertex 11.811111111111112 61.13008509049952 0.24
  endloop
 endfacet
 facet normal 0.0 0.0 1.0
  outer loop
   vertex 11.811111111111112 61.13008509049952 0.24
   vertex 10.926765399630552 69.44210757934474 0.24
   vertex 11.2889481953782 61.32013684926395 0.24
  endloop
 endfacet
 facet normal 0.0 0.0 1.0
  outer loop
   vertex 11.2889481953782 61.32013684926395 0.24
   vertex 5.306632533007477 62.925800707794274 0.24
   vertex 10.733274026844022 61.32013684926395 0.24
  endloop
 endfacet
 facet normal 0.0 0.0 1.0
  outer loop
   vertex 10.733274026844022 61.32013684926395 0.24
   vertex 5.306632533007477 62.925800707794274 0.24
   vertex 10.211111111111112 61.13008509049952 0.24
  endloop
 endfacet
 facet normal 0.0 0.0 1.0
  outer loop
   vertex 10.211111111111112 61.13008509049952 0.24
   vertex 5.306632533007477 62.925800707794274 0.24
   vertex 9.785440002120746 60.772904619942885 0.24
  endloop
 endfacet
 facet normal 0.0 0.0 1.0
  outer loop
   vertex 9.785440002120746 60.772904619942885 0.24
   vertex -0.642135716088746 48.053880085053734 0.24
   vertex 9.507602917853657 60.29167667376549 0.24
  endloop
 endfacet
 facet normal 0.0 0.0 1.0
  outer loop
   vertex 9.507602917853657 60.29167667376549 0.24
   vertex -0.642135716088746 48.053880085053734 0.24
   vertex 9.411111111111111 59.74444444444442 0.24
  endloop
 endfacet
 facet normal 0.0 0.0 1.0
  outer loop
   vertex 9.411111111111111 59.74444444444442 0.24
   vertex -0.642135716088746 48.053880085053734 0.24
   vertex 9.507602917853657 59.19721221512335 0.24
  endloop
 endfacet
 facet normal 0.0 0.0 1.0
  outer loop
   vertex 9.507602917853657 59.19721221512335 0.24
   vertex -0.642135716088746 48.053880085053734 0.24
   vertex 9.785440002120746 58.71598426894595 0.24
  endloop
 endfacet
 facet normal 0.0 0.0 1.0
  outer loop
   vertex 9.785440002120746 58.71598426894595 0.24
   vertex -0.642135716088746 48.053880085053734 0.24
   vertex 10.21111111111111 58.35880379838932 0.24
  endloop
 endfacet
 facet normal 0.0 0.0 1.0
  outer loop
   vertex 10.21111111111111 58.35880379838932 0.24
   vertex 22.495666515349846 48.053880085053734 0.24
   vertex 10.733274026844022 58.168752039624884 0.24
  endloop
 endfacet
 facet normal -0.0 0.0 1.0
  outer loop
   vertex 10.733274026844022 58.168752039624884 0.24
   vertex 22.495666515349846 48.053880085053734 0.24
   vertex 11.288948195378198 58.168752039624884 0.24
  endloop
 endfacet
 facet normal -0.0 0.0 1.0
  outer loop
   vertex 11.288948195378198 58.168752039624884 0.24
   vertex 22.495666515349846 48.053880085053734 0.24
   vertex 11.811111111111112 58.35880379838932 0.24
  endloop
 endfacet
 facet normal -0.0 0.0 1.0
  outer loop
   vertex 11.811111111111112 58.35880379838932 0.24
   vertex 22.495666515349846 48.053880085053734 0.24
   vertex 12.236782220101476 58.71598426894595 0.24
  endloop
 endfacet
 facet normal -0.0 0.0 1.0
  outer loop
   vertex 12.236782220101476 58.71598426894595 0.24
   vertex 22.495666515349846 48.053880085053734 0.24
   vertex 12.514619304368564 59.19721221512335 0.24
  endloop
 endfacet
 facet normal -0.9848077530122084 -0.1736481776669283 0.0
  outer loop
   vertex 12.61111111111111 59.74444444444442 0
   vertex 12.61111111111111 59.74444444444442 0.24
   vertex 12.514619304368566 60.29167667376549 0
  endloop
 endfacet
 facet normal -0.9848077530122084 -0.1736481776669283 0.0
  outer loop
   vertex 12.514619304368566 60.29167667376549 0
   vertex 12.61111111111111 59.74444444444442 0.24
   vertex 12.514619304368566 60.29167667376549 0.24
  endloop
 endfacet
 facet normal -0.8660254037844405 -0.49999999999999667 0.0
  outer loop
   vertex 12.514619304368566 60.29167667376549 0
   vertex 12.514619304368566 60.29167667376549 0.24
   vertex 12.236782220101476 60.772904619942885 0
  endloop
 endfacet
 facet normal -0.8660254037844405 -0.49999999999999667 0.0
  outer loop
   vertex 12.236782220101476 60.772904619942885 0
   vertex 12.514619304368566 60.29167667376549 0.24
   vertex 12.236782220101476 60.772904619942885 0.24
  endloop
 endfacet
 facet normal -0.6427876096865355 -0.7660444431189813 0.0
  outer loop
   vertex 12.236782220101476 60.772904619942885 0
   vertex 12.236782220101476 60.772904619942885 0.24
   vertex 11.811111111111112 61.13008509049952 0
  endloop
 endfacet
 facet normal -0.6427876096865355 -0.7660444431189813 0.0
  outer loop
   vertex 11.811111111111112 61.13008509049952 0
   vertex 12.236782220101476 60.772904619942885 0.24
   vertex 11.811111111111112 61.13008509049952 0.24
  endloop
 endfacet
 facet normal -0.3420201433256718 -0.9396926207859073 0.0
  outer loop
   vertex 11.811111111111112 61.13008509049952 0
   vertex 11.811111111111112 61.13008509049952 0.24
   vertex 11.2889481953782 61.32013684926395 0
  endloop
 endfacet
 facet normal -0.3420201433256718 -0.9396926207859073 0.0
  outer loop
   vertex 11.2889481953782 61.32013684926395 0
   vertex 11.811111111111112 61.13008509049952 0.24
   vertex 11.2889481953782 61.32013684926395 0.24
  endloop
 endfacet
 facet normal 0.0 -1.0 0.0
  outer loop
   vertex 11.2889481953782 61.32013684926395 0
   vertex 11.2889481953782 61.32013684926395 0.24
   vertex 10.733274026844022 61.32013684926395 0
  endloop
 endfacet
 facet normal 0.0 -1.0 0.0
  outer loop
   vertex 10.733274026844022 61.32013684926395 0
   vertex 11.2889481953782 61.32013684926395 0.24
   vertex 10.733274026844022 61.32013684926395 0.24
  endloop
 endfacet
 facet normal 0.3420201433256728 -0.9396926207859069 0.0
  outer loop
   vertex 10.733274026844022 61.32013684926395 0
   vertex 10.733274026844022 61.32013684926395 0.24
   vertex 10.211111111111112 61.13008509049952 0
  endloop
 endfacet
 facet normal 0.3420201433256728 -0.9396926207859069 0.0
  outer loop
   vertex 10.211111111111112 61.13008509049952 0
   vertex 10.733274026844022 61.32013684926395 0.24
   vertex 10.211111111111112 61.13008509049952 0.24
  endloop
 endfacet
 facet normal 0.6427876096865338 -0.7660444431189826 0.0
  outer loop
   vertex 10.211111111111112 61.13008509049952 0
   vertex 10.211111111111112 61.13008509049952 0.24
   vertex 9.785440002120746 60.772904619942885 0
  endloop
 endfacet
 facet normal 0.6427876096865338 -0.7660444431189826 0.0
  outer loop
   vertex 9.785440002120746 60.772904619942885 0
   vertex 10.211111111111112 61.13008509049952 0.24
   vertex 9.785440002120746 60.772904619942885 0.24
  endloop
 endfacet
 facet normal 0.8660254037844405 -0.49999999999999667 0.0
  outer loop
   vertex 9.785440002120746 60.772904619942885 0
   vertex 9.785440002120746 60.772904619942885 0.24
   vertex 9.507602917853657 60.29167667376549 0
  endloop
 endfacet
 facet normal 0.8660254037844405 -0.49999999999999667 0.0
  outer loop
   vertex 9.507602917853657 60.29167667376549 0
   vertex 9.785440002120746 60.772904619942885 0.24
   vertex 9.507602917853657 60.29167667376549 0.24
  endloop
 endfacet
 facet normal 0.9848077530122084 -0.1736481776669283 0.0
  outer loop
   vertex 9.507602917853657 60.29167667376549 0
   vertex 9.507602917853657 60.29167667376549 0.24
   vertex 9.411111111111111 59.74444444444442 0
  endloop
 endfacet
 facet normal 0.9848077530122084 -0.1736481776669283 0.0
  outer loop
   vertex 9.411111111111111 59.74444444444442 0
   vertex 9.507602917853657 60.29167667376549 0.24
   vertex 9.411111111111111 59.74444444444442 0.24
  endloop
 endfacet
 facet normal 0.9848077530122084 0.1736481776669283 -0.0
  outer loop
   vertex 9.411111111111111 59.74444444444442 0
   vertex 9.411111111111111 59.74444444444442 0.24
   vertex 9.507602917853657 59.19721221512335 0
  endloop
 endfacet
 facet normal 0.9848077530122084 0.1736481776669283 -0.0
  outer loop
   vertex 9.507602917853657 59.19721221512335 0
   vertex 9.411111111111111 59.74444444444442 0.24
   vertex 9.507602917853657 59.19721221512335 0.24
  endloop
 endfacet
 facet normal 0.8660254037844405 0.49999999999999667 -0.0
  outer loop
   vertex 9.507602917853657 59.19721221512335 0
   vertex 9.507602917853657 59.19721221512335 0.24
   vertex 9.785440002120746 58.71598426894595 0
  endloop
 endfacet
 facet normal 0.8660254037844405 0.49999999999999667 -0.0
  outer loop
   vertex 9.785440002120746 58.71598426894595 0
   vertex 9.507602917853657 59.19721221512335 0.24
   vertex 9.785440002120746 58.71598426894595 0.24
  endloop
 endfacet
 facet normal 0.6427876096865355 0.7660444431189813 -0.0
  outer loop
   vertex 9.785440002120746 58.71598426894595 0
   vertex 9.785440002120746 58.71598426894595 0.24
   vertex 10.21111111111111 58.35880379838932 0
  endloop
 endfacet
 facet normal 0.6427876096865355 0.7660444431189813 -0.0
  outer loop
   vertex 10.21111111111111 58.35880379838932 0
   vertex 9.785440002120746 58.71598426894595 0.24
   vertex 10.21111111111111 58.35880379838932 0.24
  endloop
 endfacet
 facet normal 0.3420201433256718 0.9396926207859073 -0.0
  outer loop
   vertex 10.21111111111111 58.35880379838932 0
   vertex 10.21111111111111 58.35880379838932 0.24
   vertex 10.733274026844022 58.168752039624884 0
  endloop
 endfacet
 facet normal 0.3420201433256718 0.9396926207859073 -0.0
  outer loop
   vertex 10.733274026844022 58.168752039624884 0
   vertex 10.21111111111111 58.35880379838932 0.24
   vertex 10.733274026844022 58.168752039624884 0.24
  endloop
 endfacet
 facet normal 0.0 1.0 0.0
  outer loop
   vertex 10.733274026844022 58.168752039624884 0
   vertex 10.733274026844022 58.168752039624884 0.24
   vertex 11.288948195378198 58.168752039624884 0
  endloop
 endfacet
 facet normal 0.0 1.0 -0.0
  outer loop
   vertex 11.288948195378198 58.168752039624884 0
   vertex 10.733274026844022 58.168752039624884 0.24
   vertex 11.288948195378198 58.168752039624884 0.24
  endloop
 endfacet
 facet normal -0.34202014332567077 0.9396926207859077 0.0
  outer loop
   vertex 11.288948195378198 58.168752039624884 0
   vertex 11.288948195378198 58.168752039624884 0.24
   vertex 11.811111111111112 58.35880379838932 0
  endloop
 endfacet
 facet normal -0.34202014332567077 0.9396926207859077 0.0
  outer loop
   vertex 11.811111111111112 58.35880379838932 0
   vertex 11.288948195378198 58.168752039624884 0.24
   vertex 11.811111111111112 58.35880379838932 0.24
  endloop
 endfacet
 facet normal -0.6427876096865355 0.7660444431189813 0.0
  outer loop
   vertex 11.811111111111112 58.35880379838932 0
   vertex 11.811111111111112 58.35880379838932 0.24
   vertex 12.236782220101476 58.71598426894595 0
  endloop
 endfacet
 facet normal -0.6427876096865355 0.7660444431189813 0.0
  outer loop
   vertex 12.236782220101476 58.71598426894595 0
   vertex 11.811111111111112 58.35880379838932 0.24
   vertex 12.236782220101476 58.71598426894595 0.24
  endloop
 endfacet
 facet normal -0.8660254037844419 0.4999999999999943 0.0
  outer loop
   vertex 12.236782220101476 58.71598426894595 0
   vertex 12.236782220101476 58.71598426894595 0.24
   vertex 12.514619304368564 59.19721221512335 0
  endloop
 endfacet
 facet normal -0.8660254037844419 0.4999999999999943 0.0
  outer loop
   vertex 12.514619304368564 59.19721221512335 0
   vertex 12.236782220101476 58.71598426894595 0.24
   vertex 12.514619304368564 59.19721221512335 0.24
  endloop
 endfacet
 facet normal -0.9848077530122078 0.17364817766693139 0.0
  outer loop
   vertex 12.514619304368564 59.19721221512335 0
   vertex 12.514619304368564 59.19721221512335 0.24
   vertex 12.61111111111111 59.74444444444442 0
  endloop
 endfacet
 facet normal -0.9848077530122078 0.17364817766693139 0.0
  outer loop
   vertex 12.61111111111111 59.74444444444442 0
   vertex 12.514619304368564 59.19721221512335 0.24
   vertex 12.61111111111111 59.74444444444442 0.24
  endloop
 endfacet
endsolid
