solid PyGamic generated __All_Crease__ SLA File
 facet normal 0.0 0.0 -1.0
  outer loop
   vertex 14.325681790913817 28.4 0
   vertex 1.5987263841680686 28.400000000000002 0
   vertex 7.968567565244315 29.9984 0
  endloop
 endfacet
 facet normal 0.0 0.0 -1.0
  outer loop
   vertex 1.5987263841680686 28.400000000000002 0
   vertex 7.955840609837569 29.9984 0
   vertex 7.968567565244315 29.9984 0
  endloop
 endfacet
 facet normal 0.0 0.0 -1.0
  outer loop
   vertex 1.5987263841680686 28.400000000000002 0
   vertex 1.5987263841680686 31.6 0
   vertex 7.955840609837569 29.9984 0
  endloop
 endfacet
 facet normal 0.0 0.0 -1.0
  outer loop
   vertex 1.5987263841680686 31.6 0
   vertex 7.955840609837567 30.001600000000003 0
   vertex 7.955840609837569 29.9984 0
  endloop
 endfacet
 facet normal 0.0 0.0 -1.0
  outer loop
   vertex 1.5987263841680686 31.6 0
   vertex 14.325681790913814 31.6 0
   vertex 7.955840609837567 30.001600000000003 0
  endloop
 endfacet
 facet normal 0.0 0.0 -1.0
  outer loop
   vertex 14.325681790913814 31.6 0
   vertex 7.968567565244316 30.0016 0
   vertex 7.955840609837567 30.001600000000003 0
  endloop
 endfacet
 facet normal 0.0 -0.0 -1.0
  outer loop
   vertex 14.325681790913814 31.6 0
   vertex 14.325681790913817 28.4 0
   vertex 7.968567565244316 30.0016 0
  endloop
 endfacet
 facet normal 0.0 0.0 -1.0
  outer loop
   vertex 14.325681790913817 28.4 0
   vertex 7.968567565244315 29.9984 0
   vertex 7.968567565244316 30.0016 0
  endloop
 endfacet
 facet normal -2.7914874887653283e-16 -1.0 0.0
  outer loop
   vertex 1.5987263841680686 28.400000000000002 0
   vertex 14.325681790913817 28.4 0
   vertex 14.325681790913817 28.4 0.4
  endloop
 endfacet
 facet normal -2.7914874887653283e-16 -1.0 -0.0
  outer loop
   vertex 1.5987263841680686 28.400000000000002 0.4
   vertex 1.5987263841680686 28.400000000000002 0
   vertex 14.325681790913817 28.4 0.4
  endloop
 endfacet
 facet normal -1.0 0.0 0.0
  outer loop
   vertex 1.5987263841680686 31.6 0
   vertex 1.5987263841680686 28.400000000000002 0
   vertex 1.5987263841680686 28.400000000000002 0.4
  endloop
 endfacet
 facet normal -1.0 -0.0 -0.0
  outer loop
   vertex 1.5987263841680686 31.6 0.4
   vertex 1.5987263841680686 31.6 0
   vertex 1.5987263841680686 28.400000000000002 0.4
  endloop
 endfacet
 facet normal 0.0 1.0 0.0
  outer loop
   vertex 14.325681790913814 31.6 0
   vertex 1.5987263841680686 31.6 0
   vertex 1.5987263841680686 31.6 0.4
  endloop
 endfacet
 facet normal 0.0 1.0 0.0
  outer loop
   vertex 14.325681790913814 31.6 0.4
   vertex 14.325681790913814 31.6 0
   vertex 1.5987263841680686 31.6 0.4
  endloop
 endfacet
 facet normal 1.0 1.1102230246251556e-15 0.0
  outer loop
   vertex 14.325681790913817 28.4 0
   vertex 14.325681790913814 31.6 0
   vertex 14.325681790913814 31.6 0.4
  endloop
 endfacet
 facet normal 1.0 1.1102230246251556e-15 0.0
  outer loop
   vertex 14.325681790913817 28.4 0.4
   vertex 14.325681790913817 28.4 0
   vertex 14.325681790913814 31.6 0.4
  endloop
 endfacet
 facet normal 0.0 1.0 -0.0
  outer loop
   vertex 7.968567565244315 29.9984 0
   vertex 7.955840609837569 29.9984 0
   vertex 7.968567565244315 29.9984 0.4
  endloop
 endfacet
 facet normal 0.0 1.0 0.0
  outer loop
   vertex 7.955840609837569 29.9984 0
   vertex 7.955840609837569 29.9984 0.4
   vertex 7.968567565244315 29.9984 0.4
  endloop
 endfacet
 facet normal 1.0 5.551115123120231e-13 -0.0
  outer loop
   vertex 7.955840609837569 29.9984 0
   vertex 7.955840609837567 30.001600000000003 0
   vertex 7.955840609837569 29.9984 0.4
  endloop
 endfacet
 facet normal 1.0 5.551115123120231e-13 -0.0
  outer loop
   vertex 7.955840609837567 30.001600000000003 0
   vertex 7.955840609837567 30.001600000000003 0.4
   vertex 7.955840609837569 29.9984 0.4
  endloop
 endfacet
 facet normal -2.7914874887646014e-13 -1.0 0.0
  outer loop
   vertex 7.955840609837567 30.001600000000003 0
   vertex 7.968567565244316 30.0016 0
   vertex 7.955840609837567 30.001600000000003 0.4
  endloop
 endfacet
 facet normal -2.7914874887646014e-13 -1.0 0.0
  outer loop
   vertex 7.968567565244316 30.0016 0
   vertex 7.968567565244316 30.0016 0.4
   vertex 7.955840609837567 30.001600000000003 0.4
  endloop
 endfacet
 facet normal -1.0 5.551115123126394e-13 0.0
  outer loop
   vertex 7.968567565244316 30.0016 0
   vertex 7.968567565244315 29.9984 0
   vertex 7.968567565244316 30.0016 0.4
  endloop
 endfacet
 facet normal -1.0 5.551115123126394e-13 0.0
  outer loop
   vertex 7.968567565244315 29.9984 0
   vertex 7.968567565244315 29.9984 0.4
   vertex 7.968567565244316 30.0016 0.4
  endloop
 endfacet
 facet normal -0.0 0.0 1.0
  outer loop
   vertex 1.5987263841680686 28.400000000000002 0.4
   vertex 14.325681790913817 28.4 0.4
   vertex 7.968567565244315 29.9984 0.4
  endloop
 endfacet
 facet normal -0.0 0.0 1.0
  outer loop
   vertex 7.955840609837569 29.9984 0.4
   vertex 1.5987263841680686 28.400000000000002 0.4
   vertex 7.968567565244315 29.9984 0.4
  endloop
 endfacet
 facet normal 0.0 0.0 1.0
  outer loop
   vertex 1.5987263841680686 31.6 0.4
   vertex 1.5987263841680686 28.400000000000002 0.4
   vertex 7.955840609837569 29.9984 0.4
  endloop
 endfacet
 facet normal 0.0 0.0 1.0
  outer loop
   vertex 7.955840609837567 30.001600000000003 0.4
   vertex 1.5987263841680686 31.6 0.4
   vertex 7.955840609837569 29.9984 0.4
  endloop
 endfacet
 facet normal 0.0 0.0 1.0
  outer loop
   vertex 14.325681790913814 31.6 0.4
   vertex 1.5987263841680686 31.6 0.4
   vertex 7.955840609837567 30.001600000000003 0.4
  endloop
 endfacet
 facet normal 0.0 -0.0 1.0
  outer loop
   vertex 7.968567565244316 30.0016 0.4
   vertex 14.325681790913814 31.6 0.4
   vertex 7.955840609837567 30.001600000000003 0.4
  endloop
 endfacet
 facet normal 0.0 0.0 1.0
  outer loop
   vertex 14.325681790913817 28.4 0.4
   vertex 14.325681790913814 31.6 0.4
   vertex 7.968567565244316 30.0016 0.4
  endloop
 endfacet
 facet normal -0.0 0.0 1.0
  outer loop
   vertex 7.968567565244315 29.9984 0.4
   vertex 14.325681790913817 28.4 0.4
   vertex 7.968567565244316 30.0016 0.4
  endloop
 endfacet
 facet normal 0.0 0.0 -1.0
  outer loop
   vertex 41.147031850957724 1.6 0
   vertex 14.325681790913817 28.4 0
   vertex 30.011147031850957 14.986599999999997 0
  endloop
 endfacet
 facet normal 0.0 0.0 -1.0
  outer loop
   vertex 14.325681790913817 28.4 0
   vertex 29.984325681790914 15.013399999999999 0
   vertex 30.011147031850957 14.986599999999997 0
  endloop
 endfacet
 facet normal 0.0 0.0 -1.0
  outer loop
   vertex 14.325681790913817 28.4 0
   vertex 18.852968149042276 28.399999999999995 0
   vertex 29.984325681790914 15.013399999999999 0
  endloop
 endfacet
 facet normal 0.0 0.0 -1.0
  outer loop
   vertex 18.852968149042276 28.399999999999995 0
   vertex 29.98885296814904 15.0134 0
   vertex 29.984325681790914 15.013399999999999 0
  endloop
 endfacet
 facet normal 0.0 0.0 -1.0
  outer loop
   vertex 18.852968149042276 28.399999999999995 0
   vertex 45.67431820908618 1.6 0
   vertex 29.98885296814904 15.0134 0
  endloop
 endfacet
 facet normal 0.0 0.0 -1.0
  outer loop
   vertex 45.67431820908618 1.6 0
   vertex 30.015674318209086 14.986599999999996 0
   vertex 29.98885296814904 15.0134 0
  endloop
 endfacet
 facet normal 0.0 0.0 -1.0
  outer loop
   vertex 45.67431820908618 1.6 0
   vertex 41.147031850957724 1.6 0
   vertex 30.015674318209086 14.986599999999996 0
  endloop
 endfacet
 facet normal 0.0 0.0 -1.0
  outer loop
   vertex 41.147031850957724 1.6 0
   vertex 30.011147031850957 14.986599999999997 0
   vertex 30.015674318209086 14.986599999999996 0
  endloop
 endfacet
 facet normal -0.706825181105366 -0.7073882691671998 0.0
  outer loop
   vertex 14.325681790913817 28.4 0
   vertex 41.147031850957724 1.6 0
   vertex 41.147031850957724 1.6 0.4
  endloop
 endfacet
 facet normal -0.706825181105366 -0.7073882691671998 -0.0
  outer loop
   vertex 14.325681790913817 28.4 0.4
   vertex 14.325681790913817 28.4 0
   vertex 41.147031850957724 1.6 0.4
  endloop
 endfacet
 facet normal 7.847335904480233e-16 1.0 0.0
  outer loop
   vertex 18.852968149042276 28.399999999999995 0
   vertex 14.325681790913817 28.4 0
   vertex 14.325681790913817 28.4 0.4
  endloop
 endfacet
 facet normal 7.847335904480233e-16 1.0 0.0
  outer loop
   vertex 18.852968149042276 28.399999999999995 0.4
   vertex 18.852968149042276 28.399999999999995 0
   vertex 14.325681790913817 28.4 0.4
  endloop
 endfacet
 facet normal 0.706825181105366 0.7073882691671998 0.0
  outer loop
   vertex 45.67431820908618 1.6 0
   vertex 18.852968149042276 28.399999999999995 0
   vertex 18.852968149042276 28.399999999999995 0.4
  endloop
 endfacet
 facet normal 0.706825181105366 0.7073882691671998 0.0
  outer loop
   vertex 45.67431820908618 1.6 0.4
   vertex 45.67431820908618 1.6 0
   vertex 18.852968149042276 28.399999999999995 0.4
  endloop
 endfacet
 facet normal 0.0 -1.0 0.0
  outer loop
   vertex 41.147031850957724 1.6 0
   vertex 45.67431820908618 1.6 0
   vertex 45.67431820908618 1.6 0.4
  endloop
 endfacet
 facet normal 0.0 -1.0 0.0
  outer loop
   vertex 41.147031850957724 1.6 0.4
   vertex 41.147031850957724 1.6 0
   vertex 45.67431820908618 1.6 0.4
  endloop
 endfacet
 facet normal 0.7068251811053955 0.7073882691671702 -0.0
  outer loop
   vertex 30.011147031850957 14.986599999999997 0
   vertex 29.984325681790914 15.013399999999999 0
   vertex 30.011147031850957 14.986599999999997 0.4
  endloop
 endfacet
 facet normal 0.7068251811053955 0.7073882691671702 -0.0
  outer loop
   vertex 29.984325681790914 15.013399999999999 0
   vertex 29.984325681790914 15.013399999999999 0.4
   vertex 30.011147031850957 14.986599999999997 0.4
  endloop
 endfacet
 facet normal 3.9236679522422057e-13 -1.0 0.0
  outer loop
   vertex 29.984325681790914 15.013399999999999 0
   vertex 29.98885296814904 15.0134 0
   vertex 29.984325681790914 15.013399999999999 0.4
  endloop
 endfacet
 facet normal 3.9236679522422057e-13 -1.0 0.0
  outer loop
   vertex 29.98885296814904 15.0134 0
   vertex 29.98885296814904 15.0134 0.4
   vertex 29.984325681790914 15.013399999999999 0.4
  endloop
 endfacet
 facet normal -0.7068251811053956 -0.7073882691671701 0.0
  outer loop
   vertex 29.98885296814904 15.0134 0
   vertex 30.015674318209086 14.986599999999996 0
   vertex 29.98885296814904 15.0134 0.4
  endloop
 endfacet
 facet normal -0.7068251811053956 -0.7073882691671701 0.0
  outer loop
   vertex 30.015674318209086 14.986599999999996 0
   vertex 30.015674318209086 14.986599999999996 0.4
   vertex 29.98885296814904 15.0134 0.4
  endloop
 endfacet
 facet normal 3.9236679522391265e-13 1.0 -0.0
  outer loop
   vertex 30.015674318209086 14.986599999999996 0
   vertex 30.011147031850957 14.986599999999997 0
   vertex 30.015674318209086 14.986599999999996 0.4
  endloop
 endfacet
 facet normal 3.9236679522391265e-13 1.0 -0.0
  outer loop
   vertex 30.011147031850957 14.986599999999997 0
   vertex 30.011147031850957 14.986599999999997 0.4
   vertex 30.015674318209086 14.986599999999996 0.4
  endloop
 endfacet
 facet normal 0.0 0.0 1.0
  outer loop
   vertex 14.325681790913817 28.4 0.4
   vertex 41.147031850957724 1.6 0.4
   vertex 30.011147031850957 14.986599999999997 0.4
  endloop
 endfacet
 facet normal 0.0 0.0 1.0
  outer loop
   vertex 29.984325681790914 15.013399999999999 0.4
   vertex 14.325681790913817 28.4 0.4
   vertex 30.011147031850957 14.986599999999997 0.4
  endloop
 endfacet
 facet normal 0.0 0.0 1.0
  outer loop
   vertex 18.852968149042276 28.399999999999995 0.4
   vertex 14.325681790913817 28.4 0.4
   vertex 29.984325681790914 15.013399999999999 0.4
  endloop
 endfacet
 facet normal 0.0 0.0 1.0
  outer loop
   vertex 29.98885296814904 15.0134 0.4
   vertex 18.852968149042276 28.399999999999995 0.4
   vertex 29.984325681790914 15.013399999999999 0.4
  endloop
 endfacet
 facet normal 0.0 0.0 1.0
  outer loop
   vertex 45.67431820908618 1.6 0.4
   vertex 18.852968149042276 28.399999999999995 0.4
   vertex 29.98885296814904 15.0134 0.4
  endloop
 endfacet
 facet normal -0.0 -0.0 1.0
  outer loop
   vertex 30.015674318209086 14.986599999999996 0.4
   vertex 45.67431820908618 1.6 0.4
   vertex 29.98885296814904 15.0134 0.4
  endloop
 endfacet
 facet normal 0.0 -0.0 1.0
  outer loop
   vertex 41.147031850957724 1.6 0.4
   vertex 45.67431820908618 1.6 0.4
   vertex 30.015674318209086 14.986599999999996 0.4
  endloop
 endfacet
 facet normal 0.0 0.0 1.0
  outer loop
   vertex 30.011147031850957 14.986599999999997 0.4
   vertex 41.147031850957724 1.6 0.4
   vertex 30.015674318209086 14.986599999999996 0.4
  endloop
 endfacet
 facet normal 0.0 0.0 -1.0
  outer loop
   vertex 14.325681790913814 31.6 0
   vertex 41.147031850957724 58.400000000000006 0
   vertex 29.984325681790914 44.9866 0
  endloop
 endfacet
 facet normal 0.0 0.0 -1.0
  outer loop
   vertex 41.147031850957724 58.400000000000006 0
   vertex 30.011147031850946 45.01339999999999 0
   vertex 29.984325681790914 44.9866 0
  endloop
 endfacet
 facet normal 0.0 -0.0 -1.0
  outer loop
   vertex 41.147031850957724 58.400000000000006 0
   vertex 45.67431820908617 58.39999999999998 0
   vertex 30.011147031850946 45.01339999999999 0
  endloop
 endfacet
 facet normal 0.0 0.0 -1.0
  outer loop
   vertex 45.67431820908617 58.39999999999998 0
   vertex 30.015674318209086 45.013400000000004 0
   vertex 30.011147031850946 45.01339999999999 0
  endloop
 endfacet
 facet normal 0.0 0.0 -1.0
  outer loop
   vertex 45.67431820908617 58.39999999999998 0
   vertex 18.852968149042272 31.599999999999998 0
   vertex 30.015674318209086 45.013400000000004 0
  endloop
 endfacet
 facet normal 0.0 0.0 -1.0
  outer loop
   vertex 18.852968149042272 31.599999999999998 0
   vertex 29.988852968149033 44.98659999999999 0
   vertex 30.015674318209086 45.013400000000004 0
  endloop
 endfacet
 facet normal 0.0 0.0 -1.0
  outer loop
   vertex 18.852968149042272 31.599999999999998 0
   vertex 14.325681790913814 31.6 0
   vertex 29.988852968149033 44.98659999999999 0
  endloop
 endfacet
 facet normal 0.0 0.0 -1.0
  outer loop
   vertex 14.325681790913814 31.6 0
   vertex 29.984325681790914 44.9866 0
   vertex 29.988852968149033 44.98659999999999 0
  endloop
 endfacet
 facet normal -0.706825181105366 0.7073882691671998 0.0
  outer loop
   vertex 41.147031850957724 58.400000000000006 0
   vertex 14.325681790913814 31.6 0
   vertex 14.325681790913814 31.6 0.4
  endloop
 endfacet
 facet normal -0.706825181105366 0.7073882691671998 0.0
  outer loop
   vertex 41.147031850957724 58.400000000000006 0.4
   vertex 41.147031850957724 58.400000000000006 0
   vertex 14.325681790913814 31.6 0.4
  endloop
 endfacet
 facet normal 6.277868723584209e-15 1.0 0.0
  outer loop
   vertex 45.67431820908617 58.39999999999998 0
   vertex 41.147031850957724 58.400000000000006 0
   vertex 41.147031850957724 58.400000000000006 0.4
  endloop
 endfacet
 facet normal 6.277868723584209e-15 1.0 0.0
  outer loop
   vertex 45.67431820908617 58.39999999999998 0.4
   vertex 45.67431820908617 58.39999999999998 0
   vertex 41.147031850957724 58.400000000000006 0.4
  endloop
 endfacet
 facet normal 0.7068251811053659 -0.7073882691671999 0.0
  outer loop
   vertex 18.852968149042272 31.599999999999998 0
   vertex 45.67431820908617 58.39999999999998 0
   vertex 45.67431820908617 58.39999999999998 0.4
  endloop
 endfacet
 facet normal 0.7068251811053659 -0.7073882691671999 0.0
  outer loop
   vertex 18.852968149042272 31.599999999999998 0.4
   vertex 18.852968149042272 31.599999999999998 0
   vertex 45.67431820908617 58.39999999999998 0.4
  endloop
 endfacet
 facet normal -7.847335904480233e-16 -1.0 0.0
  outer loop
   vertex 14.325681790913814 31.6 0
   vertex 18.852968149042272 31.599999999999998 0
   vertex 18.852968149042272 31.599999999999998 0.4
  endloop
 endfacet
 facet normal -7.847335904480233e-16 -1.0 -0.0
  outer loop
   vertex 14.325681790913814 31.6 0.4
   vertex 14.325681790913814 31.6 0
   vertex 18.852968149042272 31.599999999999998 0.4
  endloop
 endfacet
 facet normal 0.7068251811053485 -0.7073882691672173 0.0
  outer loop
   vertex 29.984325681790914 44.9866 0
   vertex 30.011147031850946 45.01339999999999 0
   vertex 29.984325681790914 44.9866 0.4
  endloop
 endfacet
 facet normal 0.7068251811053485 -0.7073882691672173 0.0
  outer loop
   vertex 30.011147031850946 45.01339999999999 0
   vertex 30.011147031850946 45.01339999999999 0.4
   vertex 29.984325681790914 44.9866 0.4
  endloop
 endfacet
 facet normal 3.138934361783912e-12 -1.0 0.0
  outer loop
   vertex 30.011147031850946 45.01339999999999 0
   vertex 30.015674318209086 45.013400000000004 0
   vertex 30.011147031850946 45.01339999999999 0.4
  endloop
 endfacet
 facet normal 3.138934361783912e-12 -1.0 0.0
  outer loop
   vertex 30.015674318209086 45.013400000000004 0
   vertex 30.015674318209086 45.013400000000004 0.4
   vertex 30.011147031850946 45.01339999999999 0.4
  endloop
 endfacet
 facet normal -0.7068251811054425 0.7073882691671234 0.0
  outer loop
   vertex 30.015674318209086 45.013400000000004 0
   vertex 29.988852968149033 44.98659999999999 0
   vertex 30.015674318209086 45.013400000000004 0.4
  endloop
 endfacet
 facet normal -0.7068251811054425 0.7073882691671234 0.0
  outer loop
   vertex 29.988852968149033 44.98659999999999 0
   vertex 29.988852968149033 44.98659999999999 0.4
   vertex 30.015674318209086 45.013400000000004 0.4
  endloop
 endfacet
 facet normal 3.138934361798691e-12 1.0 -0.0
  outer loop
   vertex 29.988852968149033 44.98659999999999 0
   vertex 29.984325681790914 44.9866 0
   vertex 29.988852968149033 44.98659999999999 0.4
  endloop
 endfacet
 facet normal 3.138934361798691e-12 1.0 -0.0
  outer loop
   vertex 29.984325681790914 44.9866 0
   vertex 29.984325681790914 44.9866 0.4
   vertex 29.988852968149033 44.98659999999999 0.4
  endloop
 endfacet
 facet normal 0.0 0.0 1.0
  outer loop
   vertex 41.147031850957724 58.400000000000006 0.4
   vertex 14.325681790913814 31.6 0.4
   vertex 29.984325681790914 44.9866 0.4
  endloop
 endfacet
 facet normal 0.0 -0.0 1.0
  outer loop
   vertex 30.011147031850946 45.01339999999999 0.4
   vertex 41.147031850957724 58.400000000000006 0.4
   vertex 29.984325681790914 44.9866 0.4
  endloop
 endfacet
 facet normal 0.0 0.0 1.0
  outer loop
   vertex 45.67431820908617 58.39999999999998 0.4
   vertex 41.147031850957724 58.400000000000006 0.4
   vertex 30.011147031850946 45.01339999999999 0.4
  endloop
 endfacet
 facet normal 0.0 -0.0 1.0
  outer loop
   vertex 30.015674318209086 45.013400000000004 0.4
   vertex 45.67431820908617 58.39999999999998 0.4
   vertex 30.011147031850946 45.01339999999999 0.4
  endloop
 endfacet
 facet normal 0.0 0.0 1.0
  outer loop
   vertex 18.852968149042272 31.599999999999998 0.4
   vertex 45.67431820908617 58.39999999999998 0.4
   vertex 30.015674318209086 45.013400000000004 0.4
  endloop
 endfacet
 facet normal -0.0 0.0 1.0
  outer loop
   vertex 29.988852968149033 44.98659999999999 0.4
   vertex 18.852968149042272 31.599999999999998 0.4
   vertex 30.015674318209086 45.013400000000004 0.4
  endloop
 endfacet
 facet normal -0.0 0.0 1.0
  outer loop
   vertex 14.325681790913814 31.6 0.4
   vertex 18.852968149042272 31.599999999999998 0.4
   vertex 29.988852968149033 44.98659999999999 0.4
  endloop
 endfacet
 facet normal 0.0 0.0 1.0
  outer loop
   vertex 29.984325681790914 44.9866 0.4
   vertex 14.325681790913814 31.6 0.4
   vertex 29.988852968149033 44.98659999999999 0.4
  endloop
 endfacet
 facet normal 0.0 0.0 -1.0
  outer loop
   vertex 58.39872536954962 28.399999999999995 0
   vertex 18.852968149042276 28.399999999999995 0
   vertex 38.6456196379062 29.998399999999997 0
  endloop
 endfacet
 facet normal 0.0 0.0 -1.0
  outer loop
   vertex 18.852968149042276 28.399999999999995 0
   vertex 38.60607388068569 29.998399999999997 0
   vertex 38.6456196379062 29.998399999999997 0
  endloop
 endfacet
 facet normal 0.0 0.0 -1.0
  outer loop
   vertex 18.852968149042276 28.399999999999995 0
   vertex 18.852968149042272 31.599999999999998 0
   vertex 38.60607388068569 29.998399999999997 0
  endloop
 endfacet
 facet normal 0.0 0.0 -1.0
  outer loop
   vertex 18.852968149042272 31.599999999999998 0
   vertex 38.606073880685685 30.001599999999996 0
   vertex 38.60607388068569 29.998399999999997 0
  endloop
 endfacet
 facet normal 0.0 0.0 -1.0
  outer loop
   vertex 18.852968149042272 31.599999999999998 0
   vertex 58.39872536954962 31.599999999999998 0
   vertex 38.606073880685685 30.001599999999996 0
  endloop
 endfacet
 facet normal 0.0 0.0 -1.0
  outer loop
   vertex 58.39872536954962 31.599999999999998 0
   vertex 38.6456196379062 30.001599999999996 0
   vertex 38.606073880685685 30.001599999999996 0
  endloop
 endfacet
 facet normal 0.0 -0.0 -1.0
  outer loop
   vertex 58.39872536954962 31.599999999999998 0
   vertex 58.39872536954962 28.399999999999995 0
   vertex 38.6456196379062 30.001599999999996 0
  endloop
 endfacet
 facet normal 0.0 0.0 -1.0
  outer loop
   vertex 58.39872536954962 28.399999999999995 0
   vertex 38.6456196379062 29.998399999999997 0
   vertex 38.6456196379062 30.001599999999996 0
  endloop
 endfacet
 facet normal 0.0 -1.0 0.0
  outer loop
   vertex 18.852968149042276 28.399999999999995 0
   vertex 58.39872536954962 28.399999999999995 0
   vertex 58.39872536954962 28.399999999999995 0.4
  endloop
 endfacet
 facet normal 0.0 -1.0 0.0
  outer loop
   vertex 18.852968149042276 28.399999999999995 0.4
   vertex 18.852968149042276 28.399999999999995 0
   vertex 58.39872536954962 28.399999999999995 0.4
  endloop
 endfacet
 facet normal -1.0 -1.1102230246251556e-15 0.0
  outer loop
   vertex 18.852968149042272 31.599999999999998 0
   vertex 18.852968149042276 28.399999999999995 0
   vertex 18.852968149042276 28.399999999999995 0.4
  endloop
 endfacet
 facet normal -1.0 -1.1102230246251556e-15 -0.0
  outer loop
   vertex 18.852968149042272 31.599999999999998 0.4
   vertex 18.852968149042272 31.599999999999998 0
   vertex 18.852968149042276 28.399999999999995 0.4
  endloop
 endfacet
 facet normal 0.0 1.0 0.0
  outer loop
   vertex 58.39872536954962 31.599999999999998 0
   vertex 18.852968149042272 31.599999999999998 0
   vertex 18.852968149042272 31.599999999999998 0.4
  endloop
 endfacet
 facet normal 0.0 1.0 0.0
  outer loop
   vertex 58.39872536954962 31.599999999999998 0.4
   vertex 58.39872536954962 31.599999999999998 0
   vertex 18.852968149042272 31.599999999999998 0.4
  endloop
 endfacet
 facet normal 1.0 0.0 0.0
  outer loop
   vertex 58.39872536954962 28.399999999999995 0
   vertex 58.39872536954962 31.599999999999998 0
   vertex 58.39872536954962 31.599999999999998 0.4
  endloop
 endfacet
 facet normal 1.0 -0.0 0.0
  outer loop
   vertex 58.39872536954962 28.399999999999995 0.4
   vertex 58.39872536954962 28.399999999999995 0
   vertex 58.39872536954962 31.599999999999998 0.4
  endloop
 endfacet
 facet normal 0.0 1.0 -0.0
  outer loop
   vertex 38.6456196379062 29.998399999999997 0
   vertex 38.60607388068569 29.998399999999997 0
   vertex 38.6456196379062 29.998399999999997 0.4
  endloop
 endfacet
 facet normal 0.0 1.0 0.0
  outer loop
   vertex 38.60607388068569 29.998399999999997 0
   vertex 38.60607388068569 29.998399999999997 0.4
   vertex 38.6456196379062 29.998399999999997 0.4
  endloop
 endfacet
 facet normal 1.0 2.2204460492505574e-12 -0.0
  outer loop
   vertex 38.60607388068569 29.998399999999997 0
   vertex 38.606073880685685 30.001599999999996 0
   vertex 38.60607388068569 29.998399999999997 0.4
  endloop
 endfacet
 facet normal 1.0 2.2204460492505574e-12 -0.0
  outer loop
   vertex 38.606073880685685 30.001599999999996 0
   vertex 38.606073880685685 30.001599999999996 0.4
   vertex 38.60607388068569 29.998399999999997 0.4
  endloop
 endfacet
 facet normal 0.0 -1.0 0.0
  outer loop
   vertex 38.606073880685685 30.001599999999996 0
   vertex 38.6456196379062 30.001599999999996 0
   vertex 38.606073880685685 30.001599999999996 0.4
  endloop
 endfacet
 facet normal 0.0 -1.0 0.0
  outer loop
   vertex 38.6456196379062 30.001599999999996 0
   vertex 38.6456196379062 30.001599999999996 0.4
   vertex 38.606073880685685 30.001599999999996 0.4
  endloop
 endfacet
 facet normal -1.0 0.0 0.0
  outer loop
   vertex 38.6456196379062 30.001599999999996 0
   vertex 38.6456196379062 29.998399999999997 0
   vertex 38.6456196379062 30.001599999999996 0.4
  endloop
 endfacet
 facet normal -1.0 0.0 0.0
  outer loop
   vertex 38.6456196379062 29.998399999999997 0
   vertex 38.6456196379062 29.998399999999997 0.4
   vertex 38.6456196379062 30.001599999999996 0.4
  endloop
 endfacet
 facet normal 0.0 0.0 1.0
  outer loop
   vertex 18.852968149042276 28.399999999999995 0.4
   vertex 58.39872536954962 28.399999999999995 0.4
   vertex 38.6456196379062 29.998399999999997 0.4
  endloop
 endfacet
 facet normal -0.0 0.0 1.0
  outer loop
   vertex 38.60607388068569 29.998399999999997 0.4
   vertex 18.852968149042276 28.399999999999995 0.4
   vertex 38.6456196379062 29.998399999999997 0.4
  endloop
 endfacet
 facet normal 0.0 0.0 1.0
  outer loop
   vertex 18.852968149042272 31.599999999999998 0.4
   vertex 18.852968149042276 28.399999999999995 0.4
   vertex 38.60607388068569 29.998399999999997 0.4
  endloop
 endfacet
 facet normal 0.0 0.0 1.0
  outer loop
   vertex 38.606073880685685 30.001599999999996 0.4
   vertex 18.852968149042272 31.599999999999998 0.4
   vertex 38.60607388068569 29.998399999999997 0.4
  endloop
 endfacet
 facet normal 0.0 0.0 1.0
  outer loop
   vertex 58.39872536954962 31.599999999999998 0.4
   vertex 18.852968149042272 31.599999999999998 0.4
   vertex 38.606073880685685 30.001599999999996 0.4
  endloop
 endfacet
 facet normal 0.0 -0.0 1.0
  outer loop
   vertex 38.6456196379062 30.001599999999996 0.4
   vertex 58.39872536954962 31.599999999999998 0.4
   vertex 38.606073880685685 30.001599999999996 0.4
  endloop
 endfacet
 facet normal 0.0 -0.0 1.0
  outer loop
   vertex 58.39872536954962 28.399999999999995 0.4
   vertex 58.39872536954962 31.599999999999998 0.4
   vertex 38.6456196379062 30.001599999999996 0.4
  endloop
 endfacet
 facet normal -0.0 0.0 1.0
  outer loop
   vertex 38.6456196379062 29.998399999999997 0.4
   vertex 58.39872536954962 28.399999999999995 0.4
   vertex 38.6456196379062 30.001599999999996 0.4
  endloop
 endfacet
endsolid
