solid PyGamic generated __Board__ SLA File
 facet normal 0.0 0.0 -1.0
  outer loop
   vertex 1.5987263841680686 28.400000000000002 0
   vertex 14.325681790913817 28.4 0
   vertex 41.147031850957724 1.6 0
  endloop
 endfacet
 facet normal 0.0 -0.0 -1.0
  outer loop
   vertex 1.5987263841680686 28.400000000000002 0
   vertex 41.147031850957724 1.6 0
   vertex 1.577384821553687 1.6 0
  endloop
 endfacet
 facet normal 2.7914874887653283e-16 1.0 0.0
  outer loop
   vertex 14.325681790913817 28.4 0
   vertex 1.5987263841680686 28.400000000000002 0
   vertex 1.5987263841680686 28.400000000000002 0.4
  endloop
 endfacet
 facet normal 2.7914874887653283e-16 1.0 0.0
  outer loop
   vertex 14.325681790913817 28.4 0.4
   vertex 14.325681790913817 28.4 0
   vertex 1.5987263841680686 28.400000000000002 0.4
  endloop
 endfacet
 facet normal 0.706825181105366 0.7073882691671998 0.0
  outer loop
   vertex 41.147031850957724 1.6 0
   vertex 14.325681790913817 28.4 0
   vertex 14.325681790913817 28.4 0.4
  endloop
 endfacet
 facet normal 0.706825181105366 0.7073882691671998 0.0
  outer loop
   vertex 41.147031850957724 1.6 0.4
   vertex 41.147031850957724 1.6 0
   vertex 14.325681790913817 28.4 0.4
  endloop
 endfacet
 facet normal 0.0 -1.0 0.0
  outer loop
   vertex 1.577384821553687 1.6 0
   vertex 41.147031850957724 1.6 0
   vertex 41.147031850957724 1.6 0.4
  endloop
 endfacet
 facet normal 0.0 -1.0 0.0
  outer loop
   vertex 1.577384821553687 1.6 0.4
   vertex 1.577384821553687 1.6 0
   vertex 41.147031850957724 1.6 0.4
  endloop
 endfacet
 facet normal -0.9999996829318345 0.000796326710733264 0.0
  outer loop
   vertex 1.5987263841680686 28.400000000000002 0
   vertex 1.577384821553687 1.6 0
   vertex 1.577384821553687 1.6 0.4
  endloop
 endfacet
 facet normal -0.9999996829318345 0.000796326710733264 0.0
  outer loop
   vertex 1.5987263841680686 28.400000000000002 0.4
   vertex 1.5987263841680686 28.400000000000002 0
   vertex 1.577384821553687 1.6 0.4
  endloop
 endfacet
 facet normal 0.0 0.0 1.0
  outer loop
   vertex 1.5987263841680686 28.400000000000002 0.4
   vertex 41.147031850957724 1.6 0.4
   vertex 14.325681790913817 28.4 0.4
  endloop
 endfacet
 facet normal 0.0 0.0 1.0
  outer loop
   vertex 1.5987263841680686 28.400000000000002 0.4
   vertex 1.577384821553687 1.6 0.4
   vertex 41.147031850957724 1.6 0.4
  endloop
 endfacet
 facet normal 0.0 0.0 -1.0
  outer loop
   vertex 14.325681790913814 31.6 0
   vertex 1.5987263841680686 31.6 0
   vertex 1.577384821553687 58.400000000000006 0
  endloop
 endfacet
 facet normal 0.0 0.0 -1.0
  outer loop
   vertex 14.325681790913814 31.6 0
   vertex 1.577384821553687 58.400000000000006 0
   vertex 41.147031850957724 58.400000000000006 0
  endloop
 endfacet
 facet normal 0.0 -1.0 0.0
  outer loop
   vertex 1.5987263841680686 31.6 0
   vertex 14.325681790913814 31.6 0
   vertex 14.325681790913814 31.6 0.4
  endloop
 endfacet
 facet normal 0.0 -1.0 0.0
  outer loop
   vertex 1.5987263841680686 31.6 0.4
   vertex 1.5987263841680686 31.6 0
   vertex 14.325681790913814 31.6 0.4
  endloop
 endfacet
 facet normal -0.9999996829318347 -0.000796326710733264 0.0
  outer loop
   vertex 1.577384821553687 58.400000000000006 0
   vertex 1.5987263841680686 31.6 0
   vertex 1.5987263841680686 31.6 0.4
  endloop
 endfacet
 facet normal -0.9999996829318347 -0.000796326710733264 -0.0
  outer loop
   vertex 1.577384821553687 58.400000000000006 0.4
   vertex 1.577384821553687 58.400000000000006 0
   vertex 1.5987263841680686 31.6 0.4
  endloop
 endfacet
 facet normal 0.0 1.0 0.0
  outer loop
   vertex 41.147031850957724 58.400000000000006 0
   vertex 1.577384821553687 58.400000000000006 0
   vertex 1.577384821553687 58.400000000000006 0.4
  endloop
 endfacet
 facet normal 0.0 1.0 0.0
  outer loop
   vertex 41.147031850957724 58.400000000000006 0.4
   vertex 41.147031850957724 58.400000000000006 0
   vertex 1.577384821553687 58.400000000000006 0.4
  endloop
 endfacet
 facet normal 0.706825181105366 -0.7073882691671998 0.0
  outer loop
   vertex 14.325681790913814 31.6 0
   vertex 41.147031850957724 58.400000000000006 0
   vertex 41.147031850957724 58.400000000000006 0.4
  endloop
 endfacet
 facet normal 0.706825181105366 -0.7073882691671998 0.0
  outer loop
   vertex 14.325681790913814 31.6 0.4
   vertex 14.325681790913814 31.6 0
   vertex 41.147031850957724 58.400000000000006 0.4
  endloop
 endfacet
 facet normal 0.0 0.0 1.0
  outer loop
   vertex 14.325681790913814 31.6 0.4
   vertex 1.577384821553687 58.400000000000006 0.4
   vertex 1.5987263841680686 31.6 0.4
  endloop
 endfacet
 facet normal 0.0 -0.0 1.0
  outer loop
   vertex 14.325681790913814 31.6 0.4
   vertex 41.147031850957724 58.400000000000006 0.4
   vertex 1.577384821553687 58.400000000000006 0.4
  endloop
 endfacet
 facet normal 0.0 0.0 -1.0
  outer loop
   vertex 18.852968149042276 28.399999999999995 0
   vertex 58.39872536954962 28.399999999999995 0
   vertex 58.37738380693524 1.6 0
  endloop
 endfacet
 facet normal 0.0 0.0 -1.0
  outer loop
   vertex 18.852968149042276 28.399999999999995 0
   vertex 58.37738380693524 1.6 0
   vertex 45.67431820908618 1.6 0
  endloop
 endfacet
 facet normal 0.0 1.0 0.0
  outer loop
   vertex 58.39872536954962 28.399999999999995 0
   vertex 18.852968149042276 28.399999999999995 0
   vertex 18.852968149042276 28.399999999999995 0.4
  endloop
 endfacet
 facet normal 0.0 1.0 0.0
  outer loop
   vertex 58.39872536954962 28.399999999999995 0.4
   vertex 58.39872536954962 28.399999999999995 0
   vertex 18.852968149042276 28.399999999999995 0.4
  endloop
 endfacet
 facet normal 0.9999996829318347 -0.0007963267107329908 0.0
  outer loop
   vertex 58.37738380693524 1.6 0
   vertex 58.39872536954962 28.399999999999995 0
   vertex 58.39872536954962 28.399999999999995 0.4
  endloop
 endfacet
 facet normal 0.9999996829318347 -0.0007963267107329908 0.0
  outer loop
   vertex 58.37738380693524 1.6 0.4
   vertex 58.37738380693524 1.6 0
   vertex 58.39872536954962 28.399999999999995 0.4
  endloop
 endfacet
 facet normal 0.0 -1.0 0.0
  outer loop
   vertex 45.67431820908618 1.6 0
   vertex 58.37738380693524 1.6 0
   vertex 58.37738380693524 1.6 0.4
  endloop
 endfacet
 facet normal 0.0 -1.0 0.0
  outer loop
   vertex 45.67431820908618 1.6 0.4
   vertex 45.67431820908618 1.6 0
   vertex 58.37738380693524 1.6 0.4
  endloop
 endfacet
 facet normal -0.706825181105366 -0.7073882691671998 0.0
  outer loop
   vertex 18.852968149042276 28.399999999999995 0
   vertex 45.67431820908618 1.6 0
   vertex 45.67431820908618 1.6 0.4
  endloop
 endfacet
 facet normal -0.706825181105366 -0.7073882691671998 -0.0
  outer loop
   vertex 18.852968149042276 28.399999999999995 0.4
   vertex 18.852968149042276 28.399999999999995 0
   vertex 45.67431820908618 1.6 0.4
  endloop
 endfacet
 facet normal -0.0 0.0 1.0
  outer loop
   vertex 18.852968149042276 28.399999999999995 0.4
   vertex 58.37738380693524 1.6 0.4
   vertex 58.39872536954962 28.399999999999995 0.4
  endloop
 endfacet
 facet normal 0.0 0.0 1.0
  outer loop
   vertex 18.852968149042276 28.399999999999995 0.4
   vertex 45.67431820908618 1.6 0.4
   vertex 58.37738380693524 1.6 0.4
  endloop
 endfacet
 facet normal 0.0 0.0 -1.0
  outer loop
   vertex 58.39872536954962 31.599999999999998 0
   vertex 18.852968149042272 31.599999999999998 0
   vertex 45.67431820908617 58.39999999999998 0
  endloop
 endfacet
 facet normal 0.0 0.0 -1.0
  outer loop
   vertex 58.39872536954962 31.599999999999998 0
   vertex 45.67431820908617 58.39999999999998 0
   vertex 58.37738380693524 58.39999999999998 0
  endloop
 endfacet
 facet normal 0.0 -1.0 0.0
  outer loop
   vertex 18.852968149042272 31.599999999999998 0
   vertex 58.39872536954962 31.599999999999998 0
   vertex 58.39872536954962 31.599999999999998 0.4
  endloop
 endfacet
 facet normal 0.0 -1.0 0.0
  outer loop
   vertex 18.852968149042272 31.599999999999998 0.4
   vertex 18.852968149042272 31.599999999999998 0
   vertex 58.39872536954962 31.599999999999998 0.4
  endloop
 endfacet
 facet normal -0.7068251811053659 0.7073882691671999 0.0
  outer loop
   vertex 45.67431820908617 58.39999999999998 0
   vertex 18.852968149042272 31.599999999999998 0
   vertex 18.852968149042272 31.599999999999998 0.4
  endloop
 endfacet
 facet normal -0.7068251811053659 0.7073882691671999 0.0
  outer loop
   vertex 45.67431820908617 58.39999999999998 0.4
   vertex 45.67431820908617 58.39999999999998 0
   vertex 18.852968149042272 31.599999999999998 0.4
  endloop
 endfacet
 facet normal 0.0 1.0 0.0
  outer loop
   vertex 58.37738380693524 58.39999999999998 0
   vertex 45.67431820908617 58.39999999999998 0
   vertex 45.67431820908617 58.39999999999998 0.4
  endloop
 endfacet
 facet normal 0.0 1.0 0.0
  outer loop
   vertex 58.37738380693524 58.39999999999998 0.4
   vertex 58.37738380693524 58.39999999999998 0
   vertex 45.67431820908617 58.39999999999998 0.4
  endloop
 endfacet
 facet normal 0.9999996829318347 0.0007963267107329913 0.0
  outer loop
   vertex 58.39872536954962 31.599999999999998 0
   vertex 58.37738380693524 58.39999999999998 0
   vertex 58.37738380693524 58.39999999999998 0.4
  endloop
 endfacet
 facet normal 0.9999996829318347 0.0007963267107329913 0.0
  outer loop
   vertex 58.39872536954962 31.599999999999998 0.4
   vertex 58.39872536954962 31.599999999999998 0
   vertex 58.37738380693524 58.39999999999998 0.4
  endloop
 endfacet
 facet normal 0.0 0.0 1.0
  outer loop
   vertex 58.39872536954962 31.599999999999998 0.4
   vertex 45.67431820908617 58.39999999999998 0.4
   vertex 18.852968149042272 31.599999999999998 0.4
  endloop
 endfacet
 facet normal 0.0 0.0 1.0
  outer loop
   vertex 58.39872536954962 31.599999999999998 0.4
   vertex 58.37738380693524 58.39999999999998 0.4
   vertex 45.67431820908617 58.39999999999998 0.4
  endloop
 endfacet
endsolid
