solid PyGamic generated __All_Units__ SLA File
 facet normal 0.0 0.0 -1.0
  outer loop
   vertex 1.046893594025772 27.0 0
   vertex 13.746109310876701 27.0 0
   vertex 37.76522876763244 3.0 0
  endloop
 endfacet
 facet normal 0.0 -0.0 -1.0
  outer loop
   vertex 1.046893594025772 27.0 0
   vertex 37.76522876763244 3.0 0
   vertex 1.0277817469084154 3.0 0
  endloop
 endfacet
 facet normal -0.0 0.0 1.0
  outer loop
   vertex 1.0459380016699042 25.8 0.4
   vertex 34.86654041049648 4.2 0.4
   vertex 13.249332899416315 25.8 0.4
  endloop
 endfacet
 facet normal 0.0 0.0 1.0
  outer loop
   vertex 1.0459380016699042 25.8 0.4
   vertex 1.0287373392642833 4.2 0.4
   vertex 34.86654041049648 4.2 0.4
  endloop
 endfacet
 facet normal 0.0 0.3259906833194044 -0.945372981626272
  outer loop
   vertex 13.746109310876701 27.0 0
   vertex 1.046893594025772 27.0 0
   vertex 0.09992039901050427 29.9 1.0000000000000002
  endloop
 endfacet
 facet normal 0.0 0.32599068331940445 -0.9453729816262721
  outer loop
   vertex 14.946652305239297 29.9 1.0000000000000002
   vertex 13.746109310876701 27.0 0
   vertex 0.09992039901050427 29.9 1.0000000000000002
  endloop
 endfacet
 facet normal 0.23041842377590005 0.23060198523794628 -0.945372981626272
  outer loop
   vertex 37.76522876763244 3.0 0
   vertex 13.746109310876701 27.0 0
   vertex 14.946652305239297 29.9 1.0000000000000002
  endloop
 endfacet
 facet normal 0.23041842377589997 0.2306019852379462 -0.9453729816262719
  outer loop
   vertex 44.770392297377676 0.1 1.0000000000000002
   vertex 37.76522876763244 3.0 0
   vertex 14.946652305239297 29.9 1.0000000000000002
  endloop
 endfacet
 facet normal 0.0 -0.32599068331940423 -0.9453729816262721
  outer loop
   vertex 1.0277817469084154 3.0 0
   vertex 37.76522876763244 3.0 0
   vertex 44.770392297377676 0.1 1.0000000000000002
  endloop
 endfacet
 facet normal 0.0 -0.32599068331940423 -0.9453729816262721
  outer loop
   vertex 0.07618985550645314 0.1 1.0000000000000002
   vertex 1.0277817469084154 3.0 0
   vertex 44.770392297377676 0.1 1.0000000000000002
  endloop
 endfacet
 facet normal -0.7252590902403104 0.0005775433688810805 -0.688475793668488
  outer loop
   vertex 1.046893594025772 27.0 0
   vertex 1.0277817469084154 3.0 0
   vertex 0.07618985550645314 0.1 1.0000000000000002
  endloop
 endfacet
 facet normal -0.7252590902403103 0.0005775433688810815 -0.688475793668488
  outer loop
   vertex 0.09992039901050427 29.9 1.0000000000000002
   vertex 1.046893594025772 27.0 0
   vertex 0.07618985550645314 0.1 1.0000000000000002
  endloop
 endfacet
 facet normal 0.0 -0.20260560403595265 0.9792604195071026
  outer loop
   vertex 13.249332899416315 25.8 0.4
   vertex 1.298965187136556 28.699999999999996 1.0000000000000002
   vertex 1.0459380016699042 25.8 0.4
  endloop
 endfacet
 facet normal 5.473382923181167e-17 -0.20260560403595249 0.9792604195071027
  outer loop
   vertex 14.449875893778911 28.7 1.0000000000000002
   vertex 1.298965187136556 28.699999999999996 1.0000000000000002
   vertex 13.249332899416315 25.8 0.4
  endloop
 endfacet
 facet normal -0.14320674276567422 -0.14332082756256745 0.9792604195071027
  outer loop
   vertex 34.86654041049648 4.2 0.4
   vertex 14.449875893778911 28.7 1.0000000000000002
   vertex 13.249332899416315 25.8 0.4
  endloop
 endfacet
 facet normal -0.14320674276567394 -0.14332082756256725 0.9792604195071029
  outer loop
   vertex 41.871703940241716 1.3000000000000003 1.0000000000000002
   vertex 14.449875893778911 28.7 1.0000000000000002
   vertex 34.86654041049648 4.2 0.4
  endloop
 endfacet
 facet normal -0.0 0.20260560403595237 0.9792604195071027
  outer loop
   vertex 1.0287373392642833 4.2 0.4
   vertex 41.871703940241716 1.3000000000000003 1.0000000000000002
   vertex 34.86654041049648 4.2 0.4
  endloop
 endfacet
 facet normal -0.0 0.20260560403595237 0.9792604195071027
  outer loop
   vertex 1.2771458283442403 1.3000000000000003 1.0000000000000002
   vertex 41.871703940241716 1.3000000000000003 1.0000000000000002
   vertex 1.0287373392642833 4.2 0.4
  endloop
 endfacet
 facet normal 0.9226842791974709 -0.0007347583700671 -0.3855556782774457
  outer loop
   vertex 1.0459380016699042 25.8 0.4
   vertex 1.2771458283442403 1.3000000000000003 1.0000000000000002
   vertex 1.0287373392642833 4.2 0.4
  endloop
 endfacet
 facet normal 0.9226842791974706 -0.0007347583700671088 -0.385555678277446
  outer loop
   vertex 1.298965187136556 28.699999999999996 1.0000000000000002
   vertex 1.2771458283442403 1.3000000000000003 1.0000000000000002
   vertex 1.0459380016699042 25.8 0.4
  endloop
 endfacet
 facet normal 0.0 0.32599068331940434 0.9453729816262721
  outer loop
   vertex 14.946652305239297 29.9 1.4000000000000004
   vertex 0.09992039901050427 29.9 1.4000000000000004
   vertex 1.046893594025772 27.0 2.4000000000000004
  endloop
 endfacet
 facet normal 0.0 0.3259906833194043 0.945372981626272
  outer loop
   vertex 13.746109310876701 27.0 2.4000000000000004
   vertex 14.946652305239297 29.9 1.4000000000000004
   vertex 1.046893594025772 27.0 2.4000000000000004
  endloop
 endfacet
 facet normal 0.23041842377589986 0.23060198523794612 0.9453729816262721
  outer loop
   vertex 44.770392297377676 0.1 1.4000000000000004
   vertex 14.946652305239297 29.9 1.4000000000000004
   vertex 13.746109310876701 27.0 2.4000000000000004
  endloop
 endfacet
 facet normal 0.23041842377589994 0.23060198523794617 0.945372981626272
  outer loop
   vertex 37.76522876763244 3.0 2.4000000000000004
   vertex 44.770392297377676 0.1 1.4000000000000004
   vertex 13.746109310876701 27.0 2.4000000000000004
  endloop
 endfacet
 facet normal 0.0 -0.3259906833194042 0.9453729816262721
  outer loop
   vertex 0.07618985550645314 0.1 1.4000000000000004
   vertex 44.770392297377676 0.1 1.4000000000000004
   vertex 37.76522876763244 3.0 2.4000000000000004
  endloop
 endfacet
 facet normal 0.0 -0.3259906833194042 0.9453729816262721
  outer loop
   vertex 1.0277817469084154 3.0 2.4000000000000004
   vertex 0.07618985550645314 0.1 1.4000000000000004
   vertex 37.76522876763244 3.0 2.4000000000000004
  endloop
 endfacet
 facet normal -0.7252590902403102 0.0005775433688810814 0.6884757936684881
  outer loop
   vertex 0.09992039901050427 29.9 1.4000000000000004
   vertex 0.07618985550645314 0.1 1.4000000000000004
   vertex 1.0277817469084154 3.0 2.4000000000000004
  endloop
 endfacet
 facet normal -0.7252590902403102 0.0005775433688810804 0.688475793668488
  outer loop
   vertex 1.046893594025772 27.0 2.4000000000000004
   vertex 0.09992039901050427 29.9 1.4000000000000004
   vertex 1.0277817469084154 3.0 2.4000000000000004
  endloop
 endfacet
 facet normal 5.473382923181172e-17 -0.20260560403595268 -0.9792604195071027
  outer loop
   vertex 14.449875893778911 28.7 1.4000000000000004
   vertex 1.0459380016699042 25.8 2.0000000000000004
   vertex 1.298965187136556 28.699999999999996 1.4000000000000004
  endloop
 endfacet
 facet normal -0.0 -0.20260560403595243 -0.9792604195071029
  outer loop
   vertex 13.249332899416315 25.8 2.0000000000000004
   vertex 1.0459380016699042 25.8 2.0000000000000004
   vertex 14.449875893778911 28.7 1.4000000000000004
  endloop
 endfacet
 facet normal -0.14320674276567422 -0.14332082756256753 -0.9792604195071027
  outer loop
   vertex 41.871703940241716 1.3000000000000003 1.4000000000000004
   vertex 13.249332899416315 25.8 2.0000000000000004
   vertex 14.449875893778911 28.7 1.4000000000000004
  endloop
 endfacet
 facet normal -0.14320674276567386 -0.1433208275625671 -0.9792604195071029
  outer loop
   vertex 34.86654041049648 4.2 2.0000000000000004
   vertex 13.249332899416315 25.8 2.0000000000000004
   vertex 41.871703940241716 1.3000000000000003 1.4000000000000004
  endloop
 endfacet
 facet normal 0.0 0.20260560403595232 -0.9792604195071027
  outer loop
   vertex 1.2771458283442403 1.3000000000000003 1.4000000000000004
   vertex 34.86654041049648 4.2 2.0000000000000004
   vertex 41.871703940241716 1.3000000000000003 1.4000000000000004
  endloop
 endfacet
 facet normal 0.0 0.20260560403595232 -0.9792604195071027
  outer loop
   vertex 1.0287373392642833 4.2 2.0000000000000004
   vertex 34.86654041049648 4.2 2.0000000000000004
   vertex 1.2771458283442403 1.3000000000000003 1.4000000000000004
  endloop
 endfacet
 facet normal 0.9226842791974709 -0.000734758370067109 0.3855556782774458
  outer loop
   vertex 1.298965187136556 28.699999999999996 1.4000000000000004
   vertex 1.0287373392642833 4.2 2.0000000000000004
   vertex 1.2771458283442403 1.3000000000000003 1.4000000000000004
  endloop
 endfacet
 facet normal 0.9226842791974706 -0.0007347583700670998 0.3855556782774461
  outer loop
   vertex 1.0459380016699042 25.8 2.0000000000000004
   vertex 1.0287373392642833 4.2 2.0000000000000004
   vertex 1.298965187136556 28.699999999999996 1.4000000000000004
  endloop
 endfacet
 facet normal -0.0 0.0 1.0
  outer loop
   vertex 1.046893594025772 27.0 2.4000000000000004
   vertex 37.76522876763244 3.0 2.4000000000000004
   vertex 13.746109310876701 27.0 2.4000000000000004
  endloop
 endfacet
 facet normal 0.0 0.0 1.0
  outer loop
   vertex 1.046893594025772 27.0 2.4000000000000004
   vertex 1.0277817469084154 3.0 2.4000000000000004
   vertex 37.76522876763244 3.0 2.4000000000000004
  endloop
 endfacet
 facet normal 0.0 0.0 -1.0
  outer loop
   vertex 1.0459380016699042 25.8 2.0000000000000004
   vertex 13.249332899416315 25.8 2.0000000000000004
   vertex 34.86654041049648 4.2 2.0000000000000004
  endloop
 endfacet
 facet normal 0.0 -0.0 -1.0
  outer loop
   vertex 1.0459380016699042 25.8 2.0000000000000004
   vertex 34.86654041049648 4.2 2.0000000000000004
   vertex 1.0287373392642833 4.2 2.0000000000000004
  endloop
 endfacet
 facet normal 0.0 0.0 -1.0
  outer loop
   vertex 13.746109310876697 33.0 0
   vertex 1.046893594025772 33.0 0
   vertex 1.0277817469084154 57.00000000000001 0
  endloop
 endfacet
 facet normal 0.0 0.0 -1.0
  outer loop
   vertex 13.746109310876697 33.0 0
   vertex 1.0277817469084154 57.00000000000001 0
   vertex 37.76522876763245 57.00000000000001 0
  endloop
 endfacet
 facet normal 0.0 0.0 1.0
  outer loop
   vertex 13.249332899416318 34.2 0.4
   vertex 1.0287373392642833 55.8 0.4
   vertex 1.0459380016699042 34.2 0.4
  endloop
 endfacet
 facet normal 0.0 -0.0 1.0
  outer loop
   vertex 13.249332899416318 34.2 0.4
   vertex 34.866540410496484 55.800000000000004 0.4
   vertex 1.0287373392642833 55.8 0.4
  endloop
 endfacet
 facet normal 0.0 -0.32599068331940445 -0.945372981626272
  outer loop
   vertex 1.046893594025772 33.0 0
   vertex 13.746109310876697 33.0 0
   vertex 14.946652305239295 30.1 1.0000000000000002
  endloop
 endfacet
 facet normal -7.800717134957365e-17 -0.32599068331940473 -0.9453729816262719
  outer loop
   vertex 0.09992039901050427 30.100000000000005 1.0000000000000002
   vertex 1.046893594025772 33.0 0
   vertex 14.946652305239295 30.1 1.0000000000000002
  endloop
 endfacet
 facet normal -0.7252590902403103 -0.0005775433688810803 -0.688475793668488
  outer loop
   vertex 1.0277817469084154 57.00000000000001 0
   vertex 1.046893594025772 33.0 0
   vertex 0.09992039901050427 30.100000000000005 1.0000000000000002
  endloop
 endfacet
 facet normal -0.7252590902403103 -0.0005775433688810816 -0.688475793668488
  outer loop
   vertex 0.07618985550645313 59.90000000000001 1.0000000000000002
   vertex 1.0277817469084154 57.00000000000001 0
   vertex 0.09992039901050427 30.100000000000005 1.0000000000000002
  endloop
 endfacet
 facet normal 0.0 0.3259906833194037 -0.9453729816262724
  outer loop
   vertex 37.76522876763245 57.00000000000001 0
   vertex 1.0277817469084154 57.00000000000001 0
   vertex 0.07618985550645313 59.90000000000001 1.0000000000000002
  endloop
 endfacet
 facet normal 5.182558347681217e-17 0.32599068331940423 -0.9453729816262721
  outer loop
   vertex 44.77039229737768 59.900000000000006 1.0000000000000002
   vertex 37.76522876763245 57.00000000000001 0
   vertex 0.07618985550645313 59.90000000000001 1.0000000000000002
  endloop
 endfacet
 facet normal 0.23041842377590013 -0.2306019852379464 -0.945372981626272
  outer loop
   vertex 13.746109310876697 33.0 0
   vertex 37.76522876763245 57.00000000000001 0
   vertex 44.77039229737768 59.900000000000006 1.0000000000000002
  endloop
 endfacet
 facet normal 0.23041842377589988 -0.23060198523794612 -0.9453729816262721
  outer loop
   vertex 14.946652305239295 30.1 1.0000000000000002
   vertex 13.746109310876697 33.0 0
   vertex 44.77039229737768 59.900000000000006 1.0000000000000002
  endloop
 endfacet
 facet normal -0.0 0.20260560403595224 0.9792604195071029
  outer loop
   vertex 1.0459380016699042 34.2 0.4
   vertex 14.449875893778911 31.3 1.0000000000000002
   vertex 13.249332899416318 34.2 0.4
  endloop
 endfacet
 facet normal -0.0 0.20260560403595218 0.9792604195071027
  outer loop
   vertex 1.298965187136556 31.3 1.0000000000000002
   vertex 14.449875893778911 31.3 1.0000000000000002
   vertex 1.0459380016699042 34.2 0.4
  endloop
 endfacet
 facet normal 0.9226842791974706 0.0007347583700671 -0.3855556782774459
  outer loop
   vertex 1.0287373392642833 55.8 0.4
   vertex 1.298965187136556 31.3 1.0000000000000002
   vertex 1.0459380016699042 34.2 0.4
  endloop
 endfacet
 facet normal 0.922684279197471 0.0007347583700671083 -0.38555567827744575
  outer loop
   vertex 1.2771458283442403 58.70000000000002 1.0000000000000002
   vertex 1.298965187136556 31.3 1.0000000000000002
   vertex 1.0287373392642833 55.8 0.4
  endloop
 endfacet
 facet normal 4.254411548792962e-17 -0.20260560403595104 0.979260419507103
  outer loop
   vertex 34.866540410496484 55.800000000000004 0.4
   vertex 1.2771458283442403 58.70000000000002 1.0000000000000002
   vertex 1.0287373392642833 55.8 0.4
  endloop
 endfacet
 facet normal -3.546286666681093e-17 -0.2026056040359519 0.9792604195071029
  outer loop
   vertex 41.87170394024172 58.70000000000001 1.0000000000000002
   vertex 1.2771458283442403 58.70000000000002 1.0000000000000002
   vertex 34.866540410496484 55.800000000000004 0.4
  endloop
 endfacet
 facet normal -0.14320674276567422 0.1433208275625675 0.9792604195071027
  outer loop
   vertex 13.249332899416318 34.2 0.4
   vertex 41.87170394024172 58.70000000000001 1.0000000000000002
   vertex 34.866540410496484 55.800000000000004 0.4
  endloop
 endfacet
 facet normal -0.14320674276567416 0.14332082756256742 0.9792604195071027
  outer loop
   vertex 14.449875893778911 31.3 1.0000000000000002
   vertex 41.87170394024172 58.70000000000001 1.0000000000000002
   vertex 13.249332899416318 34.2 0.4
  endloop
 endfacet
 facet normal -7.800717134957355e-17 -0.32599068331940434 0.9453729816262721
  outer loop
   vertex 0.09992039901050427 30.100000000000005 1.4000000000000004
   vertex 14.946652305239295 30.1 1.4000000000000004
   vertex 13.746109310876697 33.0 2.4000000000000004
  endloop
 endfacet
 facet normal 0.0 -0.3259906833194047 0.9453729816262719
  outer loop
   vertex 1.046893594025772 33.0 2.4000000000000004
   vertex 0.09992039901050427 30.100000000000005 1.4000000000000004
   vertex 13.746109310876697 33.0 2.4000000000000004
  endloop
 endfacet
 facet normal -0.7252590902403102 -0.0005775433688810815 0.6884757936684881
  outer loop
   vertex 0.07618985550645313 59.90000000000001 1.4000000000000004
   vertex 0.09992039901050427 30.100000000000005 1.4000000000000004
   vertex 1.046893594025772 33.0 2.4000000000000004
  endloop
 endfacet
 facet normal -0.7252590902403103 -0.0005775433688810803 0.6884757936684882
  outer loop
   vertex 1.0277817469084154 57.00000000000001 2.4000000000000004
   vertex 0.07618985550645313 59.90000000000001 1.4000000000000004
   vertex 1.046893594025772 33.0 2.4000000000000004
  endloop
 endfacet
 facet normal 5.182558347681207e-17 0.3259906833194036 0.9453729816262725
  outer loop
   vertex 44.77039229737768 59.900000000000006 1.4000000000000004
   vertex 0.07618985550645313 59.90000000000001 1.4000000000000004
   vertex 1.0277817469084154 57.00000000000001 2.4000000000000004
  endloop
 endfacet
 facet normal 0.0 0.32599068331940434 0.9453729816262721
  outer loop
   vertex 37.76522876763245 57.00000000000001 2.4000000000000004
   vertex 44.77039229737768 59.900000000000006 1.4000000000000004
   vertex 1.0277817469084154 57.00000000000001 2.4000000000000004
  endloop
 endfacet
 facet normal 0.2304184237758999 -0.23060198523794617 0.9453729816262721
  outer loop
   vertex 14.946652305239295 30.1 1.4000000000000004
   vertex 44.77039229737768 59.900000000000006 1.4000000000000004
   vertex 37.76522876763245 57.00000000000001 2.4000000000000004
  endloop
 endfacet
 facet normal 0.2304184237758998 -0.2306019852379461 0.9453729816262721
  outer loop
   vertex 13.746109310876697 33.0 2.4000000000000004
   vertex 14.946652305239295 30.1 1.4000000000000004
   vertex 37.76522876763245 57.00000000000001 2.4000000000000004
  endloop
 endfacet
 facet normal 0.0 0.20260560403595215 -0.9792604195071027
  outer loop
   vertex 1.298965187136556 31.3 1.4000000000000004
   vertex 13.249332899416318 34.2 2.0000000000000004
   vertex 14.449875893778911 31.3 1.4000000000000004
  endloop
 endfacet
 facet normal 0.0 0.2026056040359522 -0.9792604195071029
  outer loop
   vertex 1.0459380016699042 34.2 2.0000000000000004
   vertex 13.249332899416318 34.2 2.0000000000000004
   vertex 1.298965187136556 31.3 1.4000000000000004
  endloop
 endfacet
 facet normal 0.9226842791974708 0.0007347583700671083 0.385555678277446
  outer loop
   vertex 1.2771458283442403 58.70000000000002 1.4000000000000004
   vertex 1.0459380016699042 34.2 2.0000000000000004
   vertex 1.298965187136556 31.3 1.4000000000000004
  endloop
 endfacet
 facet normal 0.9226842791974709 0.0007347583700671001 0.3855556782774457
  outer loop
   vertex 1.0287373392642833 55.8 2.0000000000000004
   vertex 1.0459380016699042 34.2 2.0000000000000004
   vertex 1.2771458283442403 58.70000000000002 1.4000000000000004
  endloop
 endfacet
 facet normal -3.546286666681077e-17 -0.20260560403595101 -0.9792604195071031
  outer loop
   vertex 41.87170394024172 58.70000000000001 1.4000000000000004
   vertex 1.0287373392642833 55.8 2.0000000000000004
   vertex 1.2771458283442403 58.70000000000002 1.4000000000000004
  endloop
 endfacet
 facet normal 4.2544115487929836e-17 -0.20260560403595207 -0.9792604195071027
  outer loop
   vertex 34.866540410496484 55.800000000000004 2.0000000000000004
   vertex 1.0287373392642833 55.8 2.0000000000000004
   vertex 41.87170394024172 58.70000000000001 1.4000000000000004
  endloop
 endfacet
 facet normal -0.14320674276567402 0.14332082756256728 -0.9792604195071029
  outer loop
   vertex 14.449875893778911 31.3 1.4000000000000004
   vertex 34.866540410496484 55.800000000000004 2.0000000000000004
   vertex 41.87170394024172 58.70000000000001 1.4000000000000004
  endloop
 endfacet
 facet normal -0.1432067427656741 0.1433208275625674 -0.9792604195071027
  outer loop
   vertex 13.249332899416318 34.2 2.0000000000000004
   vertex 34.866540410496484 55.800000000000004 2.0000000000000004
   vertex 14.449875893778911 31.3 1.4000000000000004
  endloop
 endfacet
 facet normal 0.0 0.0 1.0
  outer loop
   vertex 13.746109310876697 33.0 2.4000000000000004
   vertex 1.0277817469084154 57.00000000000001 2.4000000000000004
   vertex 1.046893594025772 33.0 2.4000000000000004
  endloop
 endfacet
 facet normal 0.0 -0.0 1.0
  outer loop
   vertex 13.746109310876697 33.0 2.4000000000000004
   vertex 37.76522876763245 57.00000000000001 2.4000000000000004
   vertex 1.0277817469084154 57.00000000000001 2.4000000000000004
  endloop
 endfacet
 facet normal 0.0 0.0 -1.0
  outer loop
   vertex 13.249332899416318 34.2 2.0000000000000004
   vertex 1.0459380016699042 34.2 2.0000000000000004
   vertex 1.0287373392642833 55.8 2.0000000000000004
  endloop
 endfacet
 facet normal 0.0 0.0 -1.0
  outer loop
   vertex 13.249332899416318 34.2 2.0000000000000004
   vertex 1.0287373392642833 55.8 2.0000000000000004
   vertex 34.866540410496484 55.800000000000004 2.0000000000000004
  endloop
 endfacet
 facet normal 0.0 0.0 -1.0
  outer loop
   vertex 22.23477123236756 26.999999999999996 0
   vertex 58.948328444194885 26.999999999999996 0
   vertex 58.92921659707753 3.0 0
  endloop
 endfacet
 facet normal 0.0 0.0 -1.0
  outer loop
   vertex 22.23477123236756 26.999999999999996 0
   vertex 58.92921659707753 3.0 0
   vertex 46.253890689123295 3.0 0
  endloop
 endfacet
 facet normal -0.0 0.0 1.0
  outer loop
   vertex 25.13345958950352 25.799999999999997 0.4
   vertex 58.93017218943339 4.2 0.4
   vertex 58.94737285183902 25.799999999999997 0.4
  endloop
 endfacet
 facet normal 0.0 0.0 1.0
  outer loop
   vertex 25.13345958950352 25.799999999999997 0.4
   vertex 46.750667100583684 4.2 0.4
   vertex 58.93017218943339 4.2 0.4
  endloop
 endfacet
 facet normal 0.0 0.3259906833194044 -0.9453729816262721
  outer loop
   vertex 58.948328444194885 26.999999999999996 0
   vertex 22.23477123236756 26.999999999999996 0
   vertex 15.229607702622328 29.899999999999995 1.0000000000000002
  endloop
 endfacet
 facet normal 0.0 0.3259906833194044 -0.9453729816262721
  outer loop
   vertex 59.899920335596846 29.899999999999995 1.0000000000000002
   vertex 58.948328444194885 26.999999999999996 0
   vertex 15.229607702622328 29.899999999999995 1.0000000000000002
  endloop
 endfacet
 facet normal 0.7252590902403109 -0.000577543368881128 -0.6884757936684874
  outer loop
   vertex 58.92921659707753 3.0 0
   vertex 58.948328444194885 26.999999999999996 0
   vertex 59.899920335596846 29.899999999999995 1.0000000000000002
  endloop
 endfacet
 facet normal 0.725259090240308 -0.0005775433688809067 -0.6884757936684904
  outer loop
   vertex 59.8761897920928 0.1 1.0000000000000002
   vertex 58.92921659707753 3.0 0
   vertex 59.899920335596846 29.899999999999995 1.0000000000000002
  endloop
 endfacet
 facet normal 0.0 -0.3259906833194043 -0.9453729816262721
  outer loop
   vertex 46.253890689123295 3.0 0
   vertex 58.92921659707753 3.0 0
   vertex 59.8761897920928 0.1 1.0000000000000002
  endloop
 endfacet
 facet normal 0.0 -0.3259906833194043 -0.9453729816262723
  outer loop
   vertex 45.0533476947607 0.1 1.0000000000000002
   vertex 46.253890689123295 3.0 0
   vertex 59.8761897920928 0.1 1.0000000000000002
  endloop
 endfacet
 facet normal -0.23041842377590024 -0.23060198523794648 -0.945372981626272
  outer loop
   vertex 22.23477123236756 26.999999999999996 0
   vertex 46.253890689123295 3.0 0
   vertex 45.0533476947607 0.1 1.0000000000000002
  endloop
 endfacet
 facet normal -0.23041842377589994 -0.2306019852379462 -0.945372981626272
  outer loop
   vertex 15.229607702622328 29.899999999999995 1.0000000000000002
   vertex 22.23477123236756 26.999999999999996 0
   vertex 45.0533476947607 0.1 1.0000000000000002
  endloop
 endfacet
 facet normal 0.0 -0.20260560403595246 0.9792604195071027
  outer loop
   vertex 58.94737285183902 25.799999999999997 0.4
   vertex 18.128296059758288 28.699999999999996 1.0000000000000002
   vertex 25.13345958950352 25.799999999999997 0.4
  endloop
 endfacet
 facet normal 0.0 -0.20260560403595243 0.9792604195071027
  outer loop
   vertex 58.69896436275906 28.699999999999996 1.0000000000000002
   vertex 18.128296059758288 28.699999999999996 1.0000000000000002
   vertex 58.94737285183902 25.799999999999997 0.4
  endloop
 endfacet
 facet normal -0.9226842791974668 0.0007347583700674004 -0.3855556782774557
  outer loop
   vertex 58.93017218943339 4.2 0.4
   vertex 58.69896436275906 28.699999999999996 1.0000000000000002
   vertex 58.94737285183902 25.799999999999997 0.4
  endloop
 endfacet
 facet normal -0.922684279197472 0.0007347583700670501 -0.38555567827744336
  outer loop
   vertex 58.67714500396674 1.3000000000000003 1.0000000000000002
   vertex 58.69896436275906 28.699999999999996 1.0000000000000002
   vertex 58.93017218943339 4.2 0.4
  endloop
 endfacet
 facet normal -0.0 0.20260560403595237 0.9792604195071026
  outer loop
   vertex 46.750667100583684 4.2 0.4
   vertex 58.67714500396674 1.3000000000000003 1.0000000000000002
   vertex 58.93017218943339 4.2 0.4
  endloop
 endfacet
 facet normal -0.0 0.20260560403595237 0.9792604195071027
  outer loop
   vertex 45.55012410622109 1.3000000000000003 1.0000000000000002
   vertex 58.67714500396674 1.3000000000000003 1.0000000000000002
   vertex 46.750667100583684 4.2 0.4
  endloop
 endfacet
 facet normal 0.1432067427656742 0.14332082756256748 0.9792604195071027
  outer loop
   vertex 25.13345958950352 25.799999999999997 0.4
   vertex 45.55012410622109 1.3000000000000003 1.0000000000000002
   vertex 46.750667100583684 4.2 0.4
  endloop
 endfacet
 facet normal 0.1432067427656741 0.1433208275625674 0.9792604195071029
  outer loop
   vertex 18.128296059758288 28.699999999999996 1.0000000000000002
   vertex 45.55012410622109 1.3000000000000003 1.0000000000000002
   vertex 25.13345958950352 25.799999999999997 0.4
  endloop
 endfacet
 facet normal 0.0 0.32599068331940434 0.9453729816262721
  outer loop
   vertex 59.899920335596846 29.899999999999995 1.4000000000000004
   vertex 15.229607702622328 29.899999999999995 1.4000000000000004
   vertex 22.23477123236756 26.999999999999996 2.4000000000000004
  endloop
 endfacet
 facet normal 0.0 0.32599068331940434 0.9453729816262721
  outer loop
   vertex 58.948328444194885 26.999999999999996 2.4000000000000004
   vertex 59.899920335596846 29.899999999999995 1.4000000000000004
   vertex 22.23477123236756 26.999999999999996 2.4000000000000004
  endloop
 endfacet
 facet normal 0.7252590902403104 -0.0005775433688809087 0.6884757936684878
  outer loop
   vertex 59.8761897920928 0.1 1.4000000000000004
   vertex 59.899920335596846 29.899999999999995 1.4000000000000004
   vertex 58.948328444194885 26.999999999999996 2.4000000000000004
  endloop
 endfacet
 facet normal 0.7252590902403077 -0.0005775433688811254 0.6884757936684909
  outer loop
   vertex 58.92921659707753 3.0 2.4000000000000004
   vertex 59.8761897920928 0.1 1.4000000000000004
   vertex 58.948328444194885 26.999999999999996 2.4000000000000004
  endloop
 endfacet
 facet normal 0.0 -0.3259906833194042 0.9453729816262723
  outer loop
   vertex 45.0533476947607 0.1 1.4000000000000004
   vertex 59.8761897920928 0.1 1.4000000000000004
   vertex 58.92921659707753 3.0 2.4000000000000004
  endloop
 endfacet
 facet normal 0.0 -0.32599068331940423 0.9453729816262721
  outer loop
   vertex 46.253890689123295 3.0 2.4000000000000004
   vertex 45.0533476947607 0.1 1.4000000000000004
   vertex 58.92921659707753 3.0 2.4000000000000004
  endloop
 endfacet
 facet normal -0.2304184237759 -0.23060198523794623 0.9453729816262719
  outer loop
   vertex 15.229607702622328 29.899999999999995 1.4000000000000004
   vertex 45.0533476947607 0.1 1.4000000000000004
   vertex 46.253890689123295 3.0 2.4000000000000004
  endloop
 endfacet
 facet normal -0.23041842377589988 -0.2306019852379461 0.9453729816262723
  outer loop
   vertex 22.23477123236756 26.999999999999996 2.4000000000000004
   vertex 15.229607702622328 29.899999999999995 1.4000000000000004
   vertex 46.253890689123295 3.0 2.4000000000000004
  endloop
 endfacet
 facet normal -0.0 -0.2026056040359524 -0.9792604195071027
  outer loop
   vertex 58.69896436275906 28.699999999999996 1.4000000000000004
   vertex 25.13345958950352 25.799999999999997 2.0000000000000004
   vertex 18.128296059758288 28.699999999999996 1.4000000000000004
  endloop
 endfacet
 facet normal -0.0 -0.20260560403595246 -0.9792604195071029
  outer loop
   vertex 58.94737285183902 25.799999999999997 2.0000000000000004
   vertex 25.13345958950352 25.799999999999997 2.0000000000000004
   vertex 58.69896436275906 28.699999999999996 1.4000000000000004
  endloop
 endfacet
 facet normal -0.9226842791974673 0.0007347583700670464 0.3855556782774543
  outer loop
   vertex 58.67714500396674 1.3000000000000003 1.4000000000000004
   vertex 58.94737285183902 25.799999999999997 2.0000000000000004
   vertex 58.69896436275906 28.699999999999996 1.4000000000000004
  endloop
 endfacet
 facet normal -0.9226842791974724 0.0007347583700674046 0.3855556782774419
  outer loop
   vertex 58.93017218943339 4.2 2.0000000000000004
   vertex 58.94737285183902 25.799999999999997 2.0000000000000004
   vertex 58.67714500396674 1.3000000000000003 1.4000000000000004
  endloop
 endfacet
 facet normal 0.0 0.20260560403595235 -0.9792604195071027
  outer loop
   vertex 45.55012410622109 1.3000000000000003 1.4000000000000004
   vertex 58.93017218943339 4.2 2.0000000000000004
   vertex 58.67714500396674 1.3000000000000003 1.4000000000000004
  endloop
 endfacet
 facet normal 0.0 0.20260560403595235 -0.9792604195071029
  outer loop
   vertex 46.750667100583684 4.2 2.0000000000000004
   vertex 58.93017218943339 4.2 2.0000000000000004
   vertex 45.55012410622109 1.3000000000000003 1.4000000000000004
  endloop
 endfacet
 facet normal 0.1432067427656742 0.1433208275625675 -0.9792604195071027
  outer loop
   vertex 18.128296059758288 28.699999999999996 1.4000000000000004
   vertex 46.750667100583684 4.2 2.0000000000000004
   vertex 45.55012410622109 1.3000000000000003 1.4000000000000004
  endloop
 endfacet
 facet normal 0.14320674276567405 0.14332082756256734 -0.9792604195071029
  outer loop
   vertex 25.13345958950352 25.799999999999997 2.0000000000000004
   vertex 46.750667100583684 4.2 2.0000000000000004
   vertex 18.128296059758288 28.699999999999996 1.4000000000000004
  endloop
 endfacet
 facet normal -0.0 0.0 1.0
  outer loop
   vertex 22.23477123236756 26.999999999999996 2.4000000000000004
   vertex 58.92921659707753 3.0 2.4000000000000004
   vertex 58.948328444194885 26.999999999999996 2.4000000000000004
  endloop
 endfacet
 facet normal 0.0 0.0 1.0
  outer loop
   vertex 22.23477123236756 26.999999999999996 2.4000000000000004
   vertex 46.253890689123295 3.0 2.4000000000000004
   vertex 58.92921659707753 3.0 2.4000000000000004
  endloop
 endfacet
 facet normal 0.0 0.0 -1.0
  outer loop
   vertex 25.13345958950352 25.799999999999997 2.0000000000000004
   vertex 58.94737285183902 25.799999999999997 2.0000000000000004
   vertex 58.93017218943339 4.2 2.0000000000000004
  endloop
 endfacet
 facet normal 0.0 0.0 -1.0
  outer loop
   vertex 25.13345958950352 25.799999999999997 2.0000000000000004
   vertex 58.93017218943339 4.2 2.0000000000000004
   vertex 46.750667100583684 4.2 2.0000000000000004
  endloop
 endfacet
 facet normal 0.0 0.0 -1.0
  outer loop
   vertex 58.948328444194885 33.0 0
   vertex 22.23477123236756 33.0 0
   vertex 46.253890689123274 56.99999999999998 0
  endloop
 endfacet
 facet normal 0.0 0.0 -1.0
  outer loop
   vertex 58.948328444194885 33.0 0
   vertex 46.253890689123274 56.99999999999998 0
   vertex 58.92921659707753 56.99999999999997 0
  endloop
 endfacet
 facet normal 0.0 0.0 1.0
  outer loop
   vertex 58.94737285183902 34.199999999999996 0.4
   vertex 46.75066710058366 55.799999999999976 0.4
   vertex 25.133459589503513 34.199999999999996 0.4
  endloop
 endfacet
 facet normal 0.0 0.0 1.0
  outer loop
   vertex 58.94737285183902 34.199999999999996 0.4
   vertex 58.93017218943339 55.799999999999976 0.4
   vertex 46.75066710058366 55.799999999999976 0.4
  endloop
 endfacet
 facet normal 0.0 -0.325990683319404 -0.9453729816262721
  outer loop
   vertex 22.23477123236756 33.0 0
   vertex 58.948328444194885 33.0 0
   vertex 59.899920335596846 30.099999999999998 1.0000000000000002
  endloop
 endfacet
 facet normal 0.0 -0.325990683319404 -0.9453729816262721
  outer loop
   vertex 15.229607702622323 30.099999999999998 1.0000000000000002
   vertex 22.23477123236756 33.0 0
   vertex 59.899920335596846 30.099999999999998 1.0000000000000002
  endloop
 endfacet
 facet normal -0.23041842377589986 0.23060198523794606 -0.9453729816262721
  outer loop
   vertex 46.253890689123274 56.99999999999998 0
   vertex 22.23477123236756 33.0 0
   vertex 15.229607702622323 30.099999999999998 1.0000000000000002
  endloop
 endfacet
 facet normal -0.23041842377590013 0.23060198523794637 -0.9453729816262719
  outer loop
   vertex 45.05334769476068 59.89999999999998 1.0000000000000002
   vertex 46.253890689123274 56.99999999999998 0
   vertex 15.229607702622323 30.099999999999998 1.0000000000000002
  endloop
 endfacet
 facet normal 1.8274110949109184e-16 0.3259906833194045 -0.945372981626272
  outer loop
   vertex 58.92921659707753 56.99999999999997 0
   vertex 46.253890689123274 56.99999999999998 0
   vertex 45.05334769476068 59.89999999999998 1.0000000000000002
  endloop
 endfacet
 facet normal 0.0 0.3259906833194037 -0.9453729816262723
  outer loop
   vertex 59.8761897920928 59.89999999999998 1.0000000000000002
   vertex 58.92921659707753 56.99999999999997 0
   vertex 45.05334769476068 59.89999999999998 1.0000000000000002
  endloop
 endfacet
 facet normal 0.7252590902403077 0.0005775433688811261 -0.6884757936684909
  outer loop
   vertex 58.948328444194885 33.0 0
   vertex 58.92921659707753 56.99999999999997 0
   vertex 59.8761897920928 59.89999999999998 1.0000000000000002
  endloop
 endfacet
 facet normal 0.7252590902403107 0.0005775433688809091 -0.6884757936684877
  outer loop
   vertex 59.899920335596846 30.099999999999998 1.0000000000000002
   vertex 58.948328444194885 33.0 0
   vertex 59.8761897920928 59.89999999999998 1.0000000000000002
  endloop
 endfacet
 facet normal -0.0 0.20260560403595246 0.9792604195071027
  outer loop
   vertex 25.133459589503513 34.199999999999996 0.4
   vertex 58.69896436275906 31.299999999999997 1.0000000000000002
   vertex 58.94737285183902 34.199999999999996 0.4
  endloop
 endfacet
 facet normal -0.0 0.20260560403595243 0.9792604195071027
  outer loop
   vertex 18.12829605975828 31.299999999999997 1.0000000000000002
   vertex 58.69896436275906 31.299999999999997 1.0000000000000002
   vertex 25.133459589503513 34.199999999999996 0.4
  endloop
 endfacet
 facet normal 0.1432067427656741 -0.1433208275625674 0.9792604195071029
  outer loop
   vertex 46.75066710058366 55.799999999999976 0.4
   vertex 18.12829605975828 31.299999999999997 1.0000000000000002
   vertex 25.133459589503513 34.199999999999996 0.4
  endloop
 endfacet
 facet normal 0.14320674276567405 -0.1433208275625673 0.9792604195071029
  outer loop
   vertex 45.55012410622107 58.69999999999998 1.0000000000000002
   vertex 18.12829605975828 31.299999999999997 1.0000000000000002
   vertex 46.75066710058366 55.799999999999976 0.4
  endloop
 endfacet
 facet normal 0.0 -0.20260560403595199 0.979260419507103
  outer loop
   vertex 58.93017218943339 55.799999999999976 0.4
   vertex 45.55012410622107 58.69999999999998 1.0000000000000002
   vertex 46.75066710058366 55.799999999999976 0.4
  endloop
 endfacet
 facet normal -1.0966687818464262e-16 -0.20260560403595249 0.9792604195071027
  outer loop
   vertex 58.67714500396674 58.699999999999974 1.0000000000000002
   vertex 45.55012410622107 58.69999999999998 1.0000000000000002
   vertex 58.93017218943339 55.799999999999976 0.4
  endloop
 endfacet
 facet normal -0.9226842791974724 -0.0007347583700674055 -0.38555567827744186
  outer loop
   vertex 58.94737285183902 34.199999999999996 0.4
   vertex 58.67714500396674 58.699999999999974 1.0000000000000002
   vertex 58.93017218943339 55.799999999999976 0.4
  endloop
 endfacet
 facet normal -0.9226842791974673 -0.0007347583700670468 -0.38555567827745424
  outer loop
   vertex 58.69896436275906 31.299999999999997 1.0000000000000002
   vertex 58.67714500396674 58.699999999999974 1.0000000000000002
   vertex 58.94737285183902 34.199999999999996 0.4
  endloop
 endfacet
 facet normal 0.0 -0.325990683319404 0.9453729816262721
  outer loop
   vertex 15.229607702622323 30.099999999999998 1.4000000000000004
   vertex 59.899920335596846 30.099999999999998 1.4000000000000004
   vertex 58.948328444194885 33.0 2.4000000000000004
  endloop
 endfacet
 facet normal 0.0 -0.325990683319404 0.9453729816262723
  outer loop
   vertex 22.23477123236756 33.0 2.4000000000000004
   vertex 15.229607702622323 30.099999999999998 1.4000000000000004
   vertex 58.948328444194885 33.0 2.4000000000000004
  endloop
 endfacet
 facet normal -0.23041842377589994 0.23060198523794614 0.9453729816262721
  outer loop
   vertex 45.05334769476068 59.89999999999998 1.4000000000000004
   vertex 15.229607702622323 30.099999999999998 1.4000000000000004
   vertex 22.23477123236756 33.0 2.4000000000000004
  endloop
 endfacet
 facet normal -0.23041842377590016 0.23060198523794634 0.9453729816262719
  outer loop
   vertex 46.253890689123274 56.99999999999998 2.4000000000000004
   vertex 45.05334769476068 59.89999999999998 1.4000000000000004
   vertex 22.23477123236756 33.0 2.4000000000000004
  endloop
 endfacet
 facet normal 0.0 0.3259906833194043 0.9453729816262721
  outer loop
   vertex 59.8761897920928 59.89999999999998 1.4000000000000004
   vertex 45.05334769476068 59.89999999999998 1.4000000000000004
   vertex 46.253890689123274 56.99999999999998 2.4000000000000004
  endloop
 endfacet
 facet normal 1.8274110949109132e-16 0.32599068331940356 0.9453729816262724
  outer loop
   vertex 58.92921659707753 56.99999999999997 2.4000000000000004
   vertex 59.8761897920928 59.89999999999998 1.4000000000000004
   vertex 46.253890689123274 56.99999999999998 2.4000000000000004
  endloop
 endfacet
 facet normal 0.7252590902403079 0.000577543368880907 0.6884757936684905
  outer loop
   vertex 59.899920335596846 30.099999999999998 1.4000000000000004
   vertex 59.8761897920928 59.89999999999998 1.4000000000000004
   vertex 58.92921659707753 56.99999999999997 2.4000000000000004
  endloop
 endfacet
 facet normal 0.7252590902403108 0.0005775433688811286 0.6884757936684874
  outer loop
   vertex 58.948328444194885 33.0 2.4000000000000004
   vertex 59.899920335596846 30.099999999999998 1.4000000000000004
   vertex 58.92921659707753 56.99999999999997 2.4000000000000004
  endloop
 endfacet
 facet normal 0.0 0.2026056040359524 -0.9792604195071027
  outer loop
   vertex 18.12829605975828 31.299999999999997 1.4000000000000004
   vertex 58.94737285183902 34.199999999999996 2.0000000000000004
   vertex 58.69896436275906 31.299999999999997 1.4000000000000004
  endloop
 endfacet
 facet normal 0.0 0.20260560403595246 -0.9792604195071029
  outer loop
   vertex 25.133459589503513 34.199999999999996 2.0000000000000004
   vertex 58.94737285183902 34.199999999999996 2.0000000000000004
   vertex 18.12829605975828 31.299999999999997 1.4000000000000004
  endloop
 endfacet
 facet normal 0.14320674276567416 -0.14332082756256742 -0.9792604195071027
  outer loop
   vertex 45.55012410622107 58.69999999999998 1.4000000000000004
   vertex 25.133459589503513 34.199999999999996 2.0000000000000004
   vertex 18.12829605975828 31.299999999999997 1.4000000000000004
  endloop
 endfacet
 facet normal 0.143206742765674 -0.14332082756256728 -0.9792604195071029
  outer loop
   vertex 46.75066710058366 55.799999999999976 2.0000000000000004
   vertex 25.133459589503513 34.199999999999996 2.0000000000000004
   vertex 45.55012410622107 58.69999999999998 1.4000000000000004
  endloop
 endfacet
 facet normal -1.0966687818464236e-16 -0.202605604035952 -0.9792604195071029
  outer loop
   vertex 58.67714500396674 58.699999999999974 1.4000000000000004
   vertex 46.75066710058366 55.799999999999976 2.0000000000000004
   vertex 45.55012410622107 58.69999999999998 1.4000000000000004
  endloop
 endfacet
 facet normal -0.0 -0.2026056040359524 -0.9792604195071027
  outer loop
   vertex 58.93017218943339 55.799999999999976 2.0000000000000004
   vertex 46.75066710058366 55.799999999999976 2.0000000000000004
   vertex 58.67714500396674 58.699999999999974 1.4000000000000004
  endloop
 endfacet
 facet normal -0.9226842791974719 -0.0007347583700670505 0.38555567827744347
  outer loop
   vertex 58.69896436275906 31.299999999999997 1.4000000000000004
   vertex 58.93017218943339 55.799999999999976 2.0000000000000004
   vertex 58.67714500396674 58.699999999999974 1.4000000000000004
  endloop
 endfacet
 facet normal -0.9226842791974668 -0.0007347583700674007 0.3855556782774557
  outer loop
   vertex 58.94737285183902 34.199999999999996 2.0000000000000004
   vertex 58.93017218943339 55.799999999999976 2.0000000000000004
   vertex 58.69896436275906 31.299999999999997 1.4000000000000004
  endloop
 endfacet
 facet normal 0.0 0.0 1.0
  outer loop
   vertex 58.948328444194885 33.0 2.4000000000000004
   vertex 46.253890689123274 56.99999999999998 2.4000000000000004
   vertex 22.23477123236756 33.0 2.4000000000000004
  endloop
 endfacet
 facet normal 0.0 0.0 1.0
  outer loop
   vertex 58.948328444194885 33.0 2.4000000000000004
   vertex 58.92921659707753 56.99999999999997 2.4000000000000004
   vertex 46.253890689123274 56.99999999999998 2.4000000000000004
  endloop
 endfacet
 facet normal 0.0 0.0 -1.0
  outer loop
   vertex 58.94737285183902 34.199999999999996 2.0000000000000004
   vertex 25.133459589503513 34.199999999999996 2.0000000000000004
   vertex 46.75066710058366 55.799999999999976 2.0000000000000004
  endloop
 endfacet
 facet normal 0.0 0.0 -1.0
  outer loop
   vertex 58.94737285183902 34.199999999999996 2.0000000000000004
   vertex 46.75066710058366 55.799999999999976 2.0000000000000004
   vertex 58.93017218943339 55.799999999999976 2.0000000000000004
  endloop
 endfacet
endsolid
