solid PyGamic generated __All_Units__ SLA File
 facet normal 0.0 0.0 -1.0
  outer loop
   vertex 55.80387696289264 11.282275645614305 0
   vertex 62.31708765957427 0.001 0
   vertex 55.80387696289264 0.001 0
  endloop
 endfacet
 facet normal 0.17941511926192016 0.10358478160024753 -0.9783048645494204
  outer loop
   vertex 62.31708765957427 0.001 0
   vertex 55.80387696289264 11.282275645614305 0
   vertex 54.10387696289264 17.62679309142301 0.36
  endloop
 endfacet
 facet normal 0.17941511926192055 0.10358478160024771 -0.9783048645494203
  outer loop
   vertex 64.28007579951829 0.001 0.36
   vertex 62.31708765957427 0.001 0
   vertex 54.10387696289264 17.62679309142301 0.36
  endloop
 endfacet
 facet normal 0.0 -1.0 0.0
  outer loop
   vertex 55.80387696289264 0.001 0
   vertex 62.31708765957427 0.001 0
   vertex 64.28007579951829 0.001 0.36
  endloop
 endfacet
 facet normal 0.0 -1.0 0.0
  outer loop
   vertex 54.10387696289264 0.001 0.36
   vertex 55.80387696289264 0.001 0
   vertex 64.28007579951829 0.001 0.36
  endloop
 endfacet
 facet normal -0.2071704419045836 -0.0 -0.9783048645494202
  outer loop
   vertex 55.80387696289264 11.282275645614305 0
   vertex 55.80387696289264 0.001 0
   vertex 54.10387696289264 0.001 0.36
  endloop
 endfacet
 facet normal -0.2071704419045836 -0.0 -0.9783048645494202
  outer loop
   vertex 54.10387696289264 17.62679309142301 0.36
   vertex 55.80387696289264 11.282275645614305 0
   vertex 54.10387696289264 0.001 0.36
  endloop
 endfacet
 facet normal 0.0 0.0 1.0
  outer loop
   vertex 54.10387696289264 17.62679309142301 0.36
   vertex 54.10387696289264 0.001 0.36
   vertex 64.28007579951829 0.001 0.36
  endloop
 endfacet
 facet normal 0.0 0.0 -1.0
  outer loop
   vertex 54.10387696289264 17.62679309142301 0.72
   vertex 64.28007579951829 0.001 0.72
   vertex 54.10387696289264 0.001 0.72
  endloop
 endfacet
 facet normal 0.17941511926192039 0.1035847816002476 0.9783048645494206
  outer loop
   vertex 64.28007579951829 0.001 0.72
   vertex 54.10387696289264 17.62679309142301 0.72
   vertex 55.80387696289264 11.282275645614305 1.08
  endloop
 endfacet
 facet normal 0.17941511926192064 0.10358478160024777 0.9783048645494204
  outer loop
   vertex 62.31708765957427 0.001 1.08
   vertex 64.28007579951829 0.001 0.72
   vertex 55.80387696289264 11.282275645614305 1.08
  endloop
 endfacet
 facet normal 0.0 -1.0 0.0
  outer loop
   vertex 54.10387696289264 0.001 0.72
   vertex 64.28007579951829 0.001 0.72
   vertex 62.31708765957427 0.001 1.08
  endloop
 endfacet
 facet normal 0.0 -1.0 -0.0
  outer loop
   vertex 55.80387696289264 0.001 1.08
   vertex 54.10387696289264 0.001 0.72
   vertex 62.31708765957427 0.001 1.08
  endloop
 endfacet
 facet normal -0.20717044190458367 0.0 0.9783048645494202
  outer loop
   vertex 54.10387696289264 17.62679309142301 0.72
   vertex 54.10387696289264 0.001 0.72
   vertex 55.80387696289264 0.001 1.08
  endloop
 endfacet
 facet normal -0.2071704419045837 0.0 0.9783048645494202
  outer loop
   vertex 55.80387696289264 11.282275645614305 1.08
   vertex 54.10387696289264 17.62679309142301 0.72
   vertex 55.80387696289264 0.001 1.08
  endloop
 endfacet
 facet normal 0.0 0.0 1.0
  outer loop
   vertex 55.80387696289264 11.282275645614305 1.08
   vertex 55.80387696289264 0.001 1.08
   vertex 62.31708765957427 0.001 1.08
  endloop
 endfacet
 facet normal -0.0 0.0 -1.0
  outer loop
   vertex 62.31708765957428 35.999 0
   vertex 55.80387696289264 24.71772435438568 0
   vertex 55.80387696289264 35.999 0
  endloop
 endfacet
 facet normal 0.17941511926192 -0.10358478160024738 -0.9783048645494206
  outer loop
   vertex 55.80387696289264 24.71772435438568 0
   vertex 62.31708765957428 35.999 0
   vertex 64.2800757995183 35.999 0.36
  endloop
 endfacet
 facet normal 0.17941511926192005 -0.10358478160024745 -0.9783048645494204
  outer loop
   vertex 54.10387696289264 18.373206908576975 0.36
   vertex 55.80387696289264 24.71772435438568 0
   vertex 64.2800757995183 35.999 0.36
  endloop
 endfacet
 facet normal -0.20717044190458364 -0.0 -0.9783048645494202
  outer loop
   vertex 55.80387696289264 35.999 0
   vertex 55.80387696289264 24.71772435438568 0
   vertex 54.10387696289264 18.373206908576975 0.36
  endloop
 endfacet
 facet normal -0.2071704419045836 -0.0 -0.9783048645494202
  outer loop
   vertex 54.10387696289264 35.999 0.36
   vertex 55.80387696289264 35.999 0
   vertex 54.10387696289264 18.373206908576975 0.36
  endloop
 endfacet
 facet normal 0.0 1.0 0.0
  outer loop
   vertex 62.31708765957428 35.999 0
   vertex 55.80387696289264 35.999 0
   vertex 54.10387696289264 35.999 0.36
  endloop
 endfacet
 facet normal 0.0 1.0 0.0
  outer loop
   vertex 64.2800757995183 35.999 0.36
   vertex 62.31708765957428 35.999 0
   vertex 54.10387696289264 35.999 0.36
  endloop
 endfacet
 facet normal 0.0 0.0 1.0
  outer loop
   vertex 64.2800757995183 35.999 0.36
   vertex 54.10387696289264 35.999 0.36
   vertex 54.10387696289264 18.373206908576975 0.36
  endloop
 endfacet
 facet normal -0.0 0.0 -1.0
  outer loop
   vertex 64.2800757995183 35.999 0.72
   vertex 54.10387696289264 18.373206908576975 0.72
   vertex 54.10387696289264 35.999 0.72
  endloop
 endfacet
 facet normal 0.17941511926191997 -0.10358478160024741 0.9783048645494204
  outer loop
   vertex 54.10387696289264 18.373206908576975 0.72
   vertex 64.2800757995183 35.999 0.72
   vertex 62.31708765957428 35.999 1.08
  endloop
 endfacet
 facet normal 0.1794151192619203 -0.10358478160024756 0.9783048645494206
  outer loop
   vertex 55.80387696289264 24.71772435438568 1.08
   vertex 54.10387696289264 18.373206908576975 0.72
   vertex 62.31708765957428 35.999 1.08
  endloop
 endfacet
 facet normal -0.2071704419045837 0.0 0.9783048645494202
  outer loop
   vertex 54.10387696289264 35.999 0.72
   vertex 54.10387696289264 18.373206908576975 0.72
   vertex 55.80387696289264 24.71772435438568 1.08
  endloop
 endfacet
 facet normal -0.20717044190458367 0.0 0.9783048645494202
  outer loop
   vertex 55.80387696289264 35.999 1.08
   vertex 54.10387696289264 35.999 0.72
   vertex 55.80387696289264 24.71772435438568 1.08
  endloop
 endfacet
 facet normal 0.0 1.0 0.0
  outer loop
   vertex 64.2800757995183 35.999 0.72
   vertex 54.10387696289264 35.999 0.72
   vertex 55.80387696289264 35.999 1.08
  endloop
 endfacet
 facet normal 0.0 1.0 0.0
  outer loop
   vertex 62.31708765957428 35.999 1.08
   vertex 64.2800757995183 35.999 0.72
   vertex 55.80387696289264 35.999 1.08
  endloop
 endfacet
 facet normal 0.0 0.0 1.0
  outer loop
   vertex 62.31708765957428 35.999 1.08
   vertex 55.80387696289264 35.999 1.08
   vertex 55.80387696289264 24.71772435438568 1.08
  endloop
 endfacet
 facet normal 0.0 0.0 -1.0
  outer loop
   vertex 163.17604979019941 0.001 0
   vertex 180.02538373985678 14.139795331246688 0
   vertex 180.02538373985678 0.001 0
  endloop
 endfacet
 facet normal -0.1331694972429682 0.15869932893051492 -0.9783048645494202
  outer loop
   vertex 180.02538373985678 14.139795331246688 0
   vertex 163.17604979019941 0.001 0
   vertex 160.5313769594894 0.001 0.36
  endloop
 endfacet
 facet normal -0.13316949724296806 0.15869932893051472 -0.9783048645494202
  outer loop
   vertex 181.7253837398568 17.785544185069284 0.36
   vertex 180.02538373985678 14.139795331246688 0
   vertex 160.5313769594894 0.001 0.36
  endloop
 endfacet
 facet normal 0.20717044190458112 0.0 -0.9783048645494208
  outer loop
   vertex 180.02538373985678 0.001 0
   vertex 180.02538373985678 14.139795331246688 0
   vertex 181.7253837398568 17.785544185069284 0.36
  endloop
 endfacet
 facet normal 0.20717044190458114 0.0 -0.9783048645494208
  outer loop
   vertex 181.7253837398568 0.001 0.36
   vertex 180.02538373985678 0.001 0
   vertex 181.7253837398568 17.785544185069284 0.36
  endloop
 endfacet
 facet normal 0.0 -1.0 0.0
  outer loop
   vertex 163.17604979019941 0.001 0
   vertex 180.02538373985678 0.001 0
   vertex 181.7253837398568 0.001 0.36
  endloop
 endfacet
 facet normal 0.0 -1.0 0.0
  outer loop
   vertex 160.5313769594894 0.001 0.36
   vertex 163.17604979019941 0.001 0
   vertex 181.7253837398568 0.001 0.36
  endloop
 endfacet
 facet normal 0.0 0.0 1.0
  outer loop
   vertex 160.5313769594894 0.001 0.36
   vertex 181.7253837398568 0.001 0.36
   vertex 181.7253837398568 17.785544185069284 0.36
  endloop
 endfacet
 facet normal 0.0 0.0 -1.0
  outer loop
   vertex 160.5313769594894 0.001 0.72
   vertex 181.7253837398568 17.785544185069284 0.72
   vertex 181.7253837398568 0.001 0.72
  endloop
 endfacet
 facet normal -0.1331694972429684 0.1586993289305151 0.97830486454942
  outer loop
   vertex 181.7253837398568 17.785544185069284 0.72
   vertex 160.5313769594894 0.001 0.72
   vertex 163.17604979019941 0.001 1.08
  endloop
 endfacet
 facet normal -0.1331694972429681 0.1586993289305148 0.9783048645494202
  outer loop
   vertex 180.02538373985678 14.139795331246688 1.08
   vertex 181.7253837398568 17.785544185069284 0.72
   vertex 163.17604979019941 0.001 1.08
  endloop
 endfacet
 facet normal 0.2071704419045812 -0.0 0.9783048645494208
  outer loop
   vertex 181.7253837398568 0.001 0.72
   vertex 181.7253837398568 17.785544185069284 0.72
   vertex 180.02538373985678 14.139795331246688 1.08
  endloop
 endfacet
 facet normal 0.20717044190458117 -0.0 0.9783048645494208
  outer loop
   vertex 180.02538373985678 0.001 1.08
   vertex 181.7253837398568 0.001 0.72
   vertex 180.02538373985678 14.139795331246688 1.08
  endloop
 endfacet
 facet normal 0.0 -1.0 0.0
  outer loop
   vertex 160.5313769594894 0.001 0.72
   vertex 181.7253837398568 0.001 0.72
   vertex 180.02538373985678 0.001 1.08
  endloop
 endfacet
 facet normal 0.0 -1.0 -0.0
  outer loop
   vertex 163.17604979019941 0.001 1.08
   vertex 160.5313769594894 0.001 0.72
   vertex 180.02538373985678 0.001 1.08
  endloop
 endfacet
 facet normal 0.0 0.0 1.0
  outer loop
   vertex 163.17604979019941 0.001 1.08
   vertex 180.02538373985678 0.001 1.08
   vertex 180.02538373985678 14.139795331246688 1.08
  endloop
 endfacet
 facet normal 0.0 0.0 -1.0
  outer loop
   vertex 180.02538373985678 21.860204668753312 0
   vertex 163.17604979019944 35.99899999999998 0
   vertex 180.02538373985678 35.99899999999998 0
  endloop
 endfacet
 facet normal -0.13316949724296814 -0.15869932893051478 -0.9783048645494202
  outer loop
   vertex 163.17604979019944 35.99899999999998 0
   vertex 180.02538373985678 21.860204668753312 0
   vertex 181.7253837398568 18.214455814930716 0.36
  endloop
 endfacet
 facet normal -0.13316949724296687 -0.15869932893051347 -0.9783048645494206
  outer loop
   vertex 160.5313769594894 35.99899999999998 0.36
   vertex 163.17604979019944 35.99899999999998 0
   vertex 181.7253837398568 18.214455814930716 0.36
  endloop
 endfacet
 facet normal 0.0 1.0 0.0
  outer loop
   vertex 180.02538373985678 35.99899999999998 0
   vertex 163.17604979019944 35.99899999999998 0
   vertex 160.5313769594894 35.99899999999998 0.36
  endloop
 endfacet
 facet normal 0.0 1.0 0.0
  outer loop
   vertex 181.7253837398568 35.99899999999998 0.36
   vertex 180.02538373985678 35.99899999999998 0
   vertex 160.5313769594894 35.99899999999998 0.36
  endloop
 endfacet
 facet normal 0.20717044190458114 0.0 -0.9783048645494207
  outer loop
   vertex 180.02538373985678 21.860204668753312 0
   vertex 180.02538373985678 35.99899999999998 0
   vertex 181.7253837398568 35.99899999999998 0.36
  endloop
 endfacet
 facet normal 0.20717044190458114 0.0 -0.9783048645494208
  outer loop
   vertex 181.7253837398568 18.214455814930716 0.36
   vertex 180.02538373985678 21.860204668753312 0
   vertex 181.7253837398568 35.99899999999998 0.36
  endloop
 endfacet
 facet normal 0.0 -0.0 1.0
  outer loop
   vertex 181.7253837398568 18.214455814930716 0.36
   vertex 181.7253837398568 35.99899999999998 0.36
   vertex 160.5313769594894 35.99899999999998 0.36
  endloop
 endfacet
 facet normal 0.0 0.0 -1.0
  outer loop
   vertex 181.7253837398568 18.214455814930716 0.72
   vertex 160.5313769594894 35.99899999999998 0.72
   vertex 181.7253837398568 35.99899999999998 0.72
  endloop
 endfacet
 facet normal -0.1331694972429678 -0.15869932893051458 0.9783048645494202
  outer loop
   vertex 160.5313769594894 35.99899999999998 0.72
   vertex 181.7253837398568 18.214455814930716 0.72
   vertex 180.02538373985678 21.860204668753312 1.08
  endloop
 endfacet
 facet normal -0.1331694972429669 -0.15869932893051333 0.9783048645494206
  outer loop
   vertex 163.17604979019944 35.99899999999998 1.08
   vertex 160.5313769594894 35.99899999999998 0.72
   vertex 180.02538373985678 21.860204668753312 1.08
  endloop
 endfacet
 facet normal 0.0 1.0 0.0
  outer loop
   vertex 181.7253837398568 35.99899999999998 0.72
   vertex 160.5313769594894 35.99899999999998 0.72
   vertex 163.17604979019944 35.99899999999998 1.08
  endloop
 endfacet
 facet normal 0.0 1.0 0.0
  outer loop
   vertex 180.02538373985678 35.99899999999998 1.08
   vertex 181.7253837398568 35.99899999999998 0.72
   vertex 163.17604979019944 35.99899999999998 1.08
  endloop
 endfacet
 facet normal 0.20717044190458123 -0.0 0.9783048645494208
  outer loop
   vertex 181.7253837398568 18.214455814930716 0.72
   vertex 181.7253837398568 35.99899999999998 0.72
   vertex 180.02538373985678 35.99899999999998 1.08
  endloop
 endfacet
 facet normal 0.2071704419045812 -0.0 0.9783048645494207
  outer loop
   vertex 180.02538373985678 21.860204668753312 1.08
   vertex 181.7253837398568 18.214455814930716 0.72
   vertex 180.02538373985678 35.99899999999998 1.08
  endloop
 endfacet
 facet normal 0.0 -0.0 1.0
  outer loop
   vertex 180.02538373985678 21.860204668753312 1.08
   vertex 180.02538373985678 35.99899999999998 1.08
   vertex 163.17604979019944 35.99899999999998 1.08
  endloop
 endfacet
 facet normal 0.0 0.0 -1.0
  outer loop
   vertex 217.64787900075 13.054653171763675 0
   vertex 228.6015199157948 0.001 0
   vertex 217.64787900075 0.001 0
  endloop
 endfacet
 facet normal 0.15869981808832193 0.13316891430688602 -0.9783048645494198
  outer loop
   vertex 228.6015199157948 0.001 0
   vertex 217.64787900075 13.054653171763675 0
   vertex 215.94787900075 17.725258509542414 0.36
  endloop
 endfacet
 facet normal 0.15869981808832076 0.1331689143068852 -0.9783048645494202
  outer loop
   vertex 230.82073954364458 0.001 0.36
   vertex 228.6015199157948 0.001 0
   vertex 215.94787900075 17.725258509542414 0.36
  endloop
 endfacet
 facet normal 0.0 -1.0 0.0
  outer loop
   vertex 217.64787900075 0.001 0
   vertex 228.6015199157948 0.001 0
   vertex 230.82073954364458 0.001 0.36
  endloop
 endfacet
 facet normal 0.0 -1.0 0.0
  outer loop
   vertex 215.94787900075 0.001 0.36
   vertex 217.64787900075 0.001 0
   vertex 230.82073954364458 0.001 0.36
  endloop
 endfacet
 facet normal -0.20717044190458114 -0.0 -0.9783048645494208
  outer loop
   vertex 217.64787900075 13.054653171763675 0
   vertex 217.64787900075 0.001 0
   vertex 215.94787900075 0.001 0.36
  endloop
 endfacet
 facet normal -0.20717044190458114 -0.0 -0.9783048645494209
  outer loop
   vertex 215.94787900075 17.725258509542414 0.36
   vertex 217.64787900075 13.054653171763675 0
   vertex 215.94787900075 0.001 0.36
  endloop
 endfacet
 facet normal 0.0 0.0 1.0
  outer loop
   vertex 215.94787900075 17.725258509542414 0.36
   vertex 215.94787900075 0.001 0.36
   vertex 230.82073954364458 0.001 0.36
  endloop
 endfacet
 facet normal 0.0 0.0 -1.0
  outer loop
   vertex 215.94787900075 17.725258509542414 0.72
   vertex 230.82073954364458 0.001 0.72
   vertex 215.94787900075 0.001 0.72
  endloop
 endfacet
 facet normal 0.15869981808832168 0.13316891430688596 0.97830486454942
  outer loop
   vertex 230.82073954364458 0.001 0.72
   vertex 215.94787900075 17.725258509542414 0.72
   vertex 217.64787900075 13.054653171763675 1.08
  endloop
 endfacet
 facet normal 0.15869981808832082 0.13316891430688507 0.9783048645494202
  outer loop
   vertex 228.6015199157948 0.001 1.08
   vertex 230.82073954364458 0.001 0.72
   vertex 217.64787900075 13.054653171763675 1.08
  endloop
 endfacet
 facet normal 0.0 -1.0 0.0
  outer loop
   vertex 215.94787900075 0.001 0.72
   vertex 230.82073954364458 0.001 0.72
   vertex 228.6015199157948 0.001 1.08
  endloop
 endfacet
 facet normal 0.0 -1.0 -0.0
  outer loop
   vertex 217.64787900075 0.001 1.08
   vertex 215.94787900075 0.001 0.72
   vertex 228.6015199157948 0.001 1.08
  endloop
 endfacet
 facet normal -0.2071704419045812 0.0 0.9783048645494208
  outer loop
   vertex 215.94787900075 17.725258509542414 0.72
   vertex 215.94787900075 0.001 0.72
   vertex 217.64787900075 0.001 1.08
  endloop
 endfacet
 facet normal -0.20717044190458123 0.0 0.9783048645494208
  outer loop
   vertex 217.64787900075 13.054653171763675 1.08
   vertex 215.94787900075 17.725258509542414 0.72
   vertex 217.64787900075 0.001 1.08
  endloop
 endfacet
 facet normal 0.0 0.0 1.0
  outer loop
   vertex 217.64787900075 13.054653171763675 1.08
   vertex 217.64787900075 0.001 1.08
   vertex 228.6015199157948 0.001 1.08
  endloop
 endfacet
 facet normal -0.0 0.0 -1.0
  outer loop
   vertex 228.6015199157948 35.99900000000003 0
   vertex 217.64787900075 22.945346828236353 0
   vertex 217.64787900075 35.99900000000003 0
  endloop
 endfacet
 facet normal 0.1586998180883208 -0.13316891430688502 -0.9783048645494202
  outer loop
   vertex 217.64787900075 22.945346828236353 0
   vertex 228.6015199157948 35.99900000000003 0
   vertex 230.82073954364458 35.99900000000003 0.36
  endloop
 endfacet
 facet normal 0.1586998180883216 -0.13316891430688585 -0.97830486454942
  outer loop
   vertex 215.94787900075 18.274741490457615 0.36
   vertex 217.64787900075 22.945346828236353 0
   vertex 230.82073954364458 35.99900000000003 0.36
  endloop
 endfacet
 facet normal -0.20717044190458114 -0.0 -0.9783048645494208
  outer loop
   vertex 217.64787900075 35.99900000000003 0
   vertex 217.64787900075 22.945346828236353 0
   vertex 215.94787900075 18.274741490457615 0.36
  endloop
 endfacet
 facet normal -0.20717044190458114 -0.0 -0.9783048645494208
  outer loop
   vertex 215.94787900075 35.99900000000003 0.36
   vertex 217.64787900075 35.99900000000003 0
   vertex 215.94787900075 18.274741490457615 0.36
  endloop
 endfacet
 facet normal 0.0 1.0 0.0
  outer loop
   vertex 228.6015199157948 35.99900000000003 0
   vertex 217.64787900075 35.99900000000003 0
   vertex 215.94787900075 35.99900000000003 0.36
  endloop
 endfacet
 facet normal 0.0 1.0 0.0
  outer loop
   vertex 230.82073954364458 35.99900000000003 0.36
   vertex 228.6015199157948 35.99900000000003 0
   vertex 215.94787900075 35.99900000000003 0.36
  endloop
 endfacet
 facet normal 0.0 0.0 1.0
  outer loop
   vertex 230.82073954364458 35.99900000000003 0.36
   vertex 215.94787900075 35.99900000000003 0.36
   vertex 215.94787900075 18.274741490457615 0.36
  endloop
 endfacet
 facet normal -0.0 0.0 -1.0
  outer loop
   vertex 230.82073954364458 35.99900000000003 0.72
   vertex 215.94787900075 18.274741490457615 0.72
   vertex 215.94787900075 35.99900000000003 0.72
  endloop
 endfacet
 facet normal 0.15869981808832082 -0.1331689143068852 0.9783048645494201
  outer loop
   vertex 215.94787900075 18.274741490457615 0.72
   vertex 230.82073954364458 35.99900000000003 0.72
   vertex 228.6015199157948 35.99900000000003 1.08
  endloop
 endfacet
 facet normal 0.15869981808832198 -0.13316891430688604 0.9783048645494198
  outer loop
   vertex 217.64787900075 22.945346828236353 1.08
   vertex 215.94787900075 18.274741490457615 0.72
   vertex 228.6015199157948 35.99900000000003 1.08
  endloop
 endfacet
 facet normal -0.2071704419045812 0.0 0.9783048645494208
  outer loop
   vertex 215.94787900075 35.99900000000003 0.72
   vertex 215.94787900075 18.274741490457615 0.72
   vertex 217.64787900075 22.945346828236353 1.08
  endloop
 endfacet
 facet normal -0.2071704419045812 0.0 0.9783048645494207
  outer loop
   vertex 217.64787900075 35.99900000000003 1.08
   vertex 215.94787900075 35.99900000000003 0.72
   vertex 217.64787900075 22.945346828236353 1.08
  endloop
 endfacet
 facet normal 0.0 1.0 0.0
  outer loop
   vertex 230.82073954364458 35.99900000000003 0.72
   vertex 215.94787900075 35.99900000000003 0.72
   vertex 217.64787900075 35.99900000000003 1.08
  endloop
 endfacet
 facet normal 0.0 1.0 0.0
  outer loop
   vertex 228.6015199157948 35.99900000000003 1.08
   vertex 230.82073954364458 35.99900000000003 0.72
   vertex 217.64787900075 35.99900000000003 1.08
  endloop
 endfacet
 facet normal 0.0 0.0 1.0
  outer loop
   vertex 228.6015199157948 35.99900000000003 1.08
   vertex 217.64787900075 35.99900000000003 1.08
   vertex 217.64787900075 22.945346828236353 1.08
  endloop
 endfacet
 facet normal 0.0 0.0 -1.0
  outer loop
   vertex -0.01333308869398601 0.001 0
   vertex -0.0009111843946674012 15.6 0
   vertex 52.20387696289264 15.6 0
  endloop
 endfacet
 facet normal 0.0 0.0 -1.0
  outer loop
   vertex -0.01333308869398601 0.001 0
   vertex 52.20387696289264 15.6 0
   vertex 52.20387696289264 0.001 0
  endloop
 endfacet
 facet normal -0.9999996829318347 0.0007963267107332651 0.0
  outer loop
   vertex -0.0009111843946674012 15.6 0
   vertex -0.01333308869398601 0.001 0
   vertex -0.01333308869398601 0.001 0.36
  endloop
 endfacet
 facet normal -0.9999996829318347 0.0007963267107332651 0.0
  outer loop
   vertex -0.0009111843946674012 15.6 0.36
   vertex -0.0009111843946674012 15.6 0
   vertex -0.01333308869398601 0.001 0.36
  endloop
 endfacet
 facet normal 0.0 1.0 0.0
  outer loop
   vertex 52.20387696289264 15.6 0
   vertex -0.0009111843946674012 15.6 0
   vertex -0.0009111843946674012 15.6 0.36
  endloop
 endfacet
 facet normal 0.0 1.0 0.0
  outer loop
   vertex 53.90387696289264 15.6 0.36
   vertex 52.20387696289264 15.6 0
   vertex -0.0009111843946674012 15.6 0.36
  endloop
 endfacet
 facet normal 0.20717044190458364 0.0 -0.9783048645494202
  outer loop
   vertex 52.20387696289264 0.001 0
   vertex 52.20387696289264 15.6 0
   vertex 53.90387696289264 15.6 0.36
  endloop
 endfacet
 facet normal 0.20717044190458364 0.0 -0.9783048645494202
  outer loop
   vertex 53.90387696289264 0.001 0.36
   vertex 52.20387696289264 0.001 0
   vertex 53.90387696289264 15.6 0.36
  endloop
 endfacet
 facet normal 0.0 -1.0 0.0
  outer loop
   vertex -0.01333308869398601 0.001 0
   vertex 52.20387696289264 0.001 0
   vertex 53.90387696289264 0.001 0.36
  endloop
 endfacet
 facet normal 0.0 -1.0 0.0
  outer loop
   vertex -0.01333308869398601 0.001 0.36
   vertex -0.01333308869398601 0.001 0
   vertex 53.90387696289264 0.001 0.36
  endloop
 endfacet
 facet normal 0.0 0.0 1.0
  outer loop
   vertex -0.01333308869398601 0.001 0.36
   vertex 53.90387696289264 15.6 0.36
   vertex -0.0009111843946674012 15.6 0.36
  endloop
 endfacet
 facet normal 0.0 0.0 1.0
  outer loop
   vertex -0.01333308869398601 0.001 0.36
   vertex 53.90387696289264 0.001 0.36
   vertex 53.90387696289264 15.6 0.36
  endloop
 endfacet
 facet normal 0.0 0.0 -1.0
  outer loop
   vertex -0.01333308869398601 0.001 0.72
   vertex -0.0009111843946674012 15.6 0.72
   vertex 53.90387696289264 15.6 0.72
  endloop
 endfacet
 facet normal 0.0 0.0 -1.0
  outer loop
   vertex -0.01333308869398601 0.001 0.72
   vertex 53.90387696289264 15.6 0.72
   vertex 53.90387696289264 0.001 0.72
  endloop
 endfacet
 facet normal -0.9999996829318347 0.0007963267107332651 0.0
  outer loop
   vertex -0.0009111843946674012 15.6 0.72
   vertex -0.01333308869398601 0.001 0.72
   vertex -0.01333308869398601 0.001 1.08
  endloop
 endfacet
 facet normal -0.9999996829318347 0.0007963267107332651 0.0
  outer loop
   vertex -0.0009111843946674012 15.6 1.08
   vertex -0.0009111843946674012 15.6 0.72
   vertex -0.01333308869398601 0.001 1.08
  endloop
 endfacet
 facet normal 0.0 1.0 0.0
  outer loop
   vertex 53.90387696289264 15.6 0.72
   vertex -0.0009111843946674012 15.6 0.72
   vertex -0.0009111843946674012 15.6 1.08
  endloop
 endfacet
 facet normal 0.0 1.0 0.0
  outer loop
   vertex 52.20387696289264 15.6 1.08
   vertex 53.90387696289264 15.6 0.72
   vertex -0.0009111843946674012 15.6 1.08
  endloop
 endfacet
 facet normal 0.2071704419045837 -0.0 0.9783048645494202
  outer loop
   vertex 53.90387696289264 0.001 0.72
   vertex 53.90387696289264 15.6 0.72
   vertex 52.20387696289264 15.6 1.08
  endloop
 endfacet
 facet normal 0.2071704419045837 -0.0 0.9783048645494202
  outer loop
   vertex 52.20387696289264 0.001 1.08
   vertex 53.90387696289264 0.001 0.72
   vertex 52.20387696289264 15.6 1.08
  endloop
 endfacet
 facet normal 0.0 -1.0 0.0
  outer loop
   vertex -0.01333308869398601 0.001 0.72
   vertex 53.90387696289264 0.001 0.72
   vertex 52.20387696289264 0.001 1.08
  endloop
 endfacet
 facet normal 0.0 -1.0 0.0
  outer loop
   vertex -0.01333308869398601 0.001 1.08
   vertex -0.01333308869398601 0.001 0.72
   vertex 52.20387696289264 0.001 1.08
  endloop
 endfacet
 facet normal 0.0 0.0 1.0
  outer loop
   vertex -0.01333308869398601 0.001 1.08
   vertex 52.20387696289264 15.6 1.08
   vertex -0.0009111843946674012 15.6 1.08
  endloop
 endfacet
 facet normal 0.0 0.0 1.0
  outer loop
   vertex -0.01333308869398601 0.001 1.08
   vertex 52.20387696289264 0.001 1.08
   vertex 52.20387696289264 15.6 1.08
  endloop
 endfacet
 facet normal 0.0 0.0 -1.0
  outer loop
   vertex -0.0009111843946673998 20.4 0
   vertex -0.013333088693986013 35.999 0
   vertex 52.20387696289264 35.999 0
  endloop
 endfacet
 facet normal 0.0 0.0 -1.0
  outer loop
   vertex -0.0009111843946673998 20.4 0
   vertex 52.20387696289264 35.999 0
   vertex 52.20387696289264 20.4 0
  endloop
 endfacet
 facet normal -0.9999996829318347 -0.0007963267107332652 0.0
  outer loop
   vertex -0.013333088693986013 35.999 0
   vertex -0.0009111843946673998 20.4 0
   vertex -0.0009111843946673998 20.4 0.36
  endloop
 endfacet
 facet normal -0.9999996829318347 -0.0007963267107332652 -0.0
  outer loop
   vertex -0.013333088693986013 35.999 0.36
   vertex -0.013333088693986013 35.999 0
   vertex -0.0009111843946673998 20.4 0.36
  endloop
 endfacet
 facet normal 0.0 1.0 0.0
  outer loop
   vertex 52.20387696289264 35.999 0
   vertex -0.013333088693986013 35.999 0
   vertex -0.013333088693986013 35.999 0.36
  endloop
 endfacet
 facet normal 0.0 1.0 0.0
  outer loop
   vertex 53.90387696289264 35.999 0.36
   vertex 52.20387696289264 35.999 0
   vertex -0.013333088693986013 35.999 0.36
  endloop
 endfacet
 facet normal 0.2071704419045836 0.0 -0.9783048645494202
  outer loop
   vertex 52.20387696289264 20.4 0
   vertex 52.20387696289264 35.999 0
   vertex 53.90387696289264 35.999 0.36
  endloop
 endfacet
 facet normal 0.2071704419045836 0.0 -0.9783048645494202
  outer loop
   vertex 53.90387696289264 20.4 0.36
   vertex 52.20387696289264 20.4 0
   vertex 53.90387696289264 35.999 0.36
  endloop
 endfacet
 facet normal 0.0 -1.0 0.0
  outer loop
   vertex -0.0009111843946673998 20.4 0
   vertex 52.20387696289264 20.4 0
   vertex 53.90387696289264 20.4 0.36
  endloop
 endfacet
 facet normal 0.0 -1.0 0.0
  outer loop
   vertex -0.0009111843946673998 20.4 0.36
   vertex -0.0009111843946673998 20.4 0
   vertex 53.90387696289264 20.4 0.36
  endloop
 endfacet
 facet normal 0.0 -0.0 1.0
  outer loop
   vertex -0.0009111843946673998 20.4 0.36
   vertex 53.90387696289264 35.999 0.36
   vertex -0.013333088693986013 35.999 0.36
  endloop
 endfacet
 facet normal 0.0 0.0 1.0
  outer loop
   vertex -0.0009111843946673998 20.4 0.36
   vertex 53.90387696289264 20.4 0.36
   vertex 53.90387696289264 35.999 0.36
  endloop
 endfacet
 facet normal 0.0 0.0 -1.0
  outer loop
   vertex -0.0009111843946673998 20.4 0.72
   vertex -0.013333088693986013 35.999 0.72
   vertex 53.90387696289264 35.999 0.72
  endloop
 endfacet
 facet normal 0.0 0.0 -1.0
  outer loop
   vertex -0.0009111843946673998 20.4 0.72
   vertex 53.90387696289264 35.999 0.72
   vertex 53.90387696289264 20.4 0.72
  endloop
 endfacet
 facet normal -0.9999996829318346 -0.0007963267107332652 0.0
  outer loop
   vertex -0.013333088693986013 35.999 0.72
   vertex -0.0009111843946673998 20.4 0.72
   vertex -0.0009111843946673998 20.4 1.08
  endloop
 endfacet
 facet normal -0.9999996829318346 -0.0007963267107332652 -0.0
  outer loop
   vertex -0.013333088693986013 35.999 1.08
   vertex -0.013333088693986013 35.999 0.72
   vertex -0.0009111843946673998 20.4 1.08
  endloop
 endfacet
 facet normal 0.0 1.0 0.0
  outer loop
   vertex 53.90387696289264 35.999 0.72
   vertex -0.013333088693986013 35.999 0.72
   vertex -0.013333088693986013 35.999 1.08
  endloop
 endfacet
 facet normal 0.0 1.0 0.0
  outer loop
   vertex 52.20387696289264 35.999 1.08
   vertex 53.90387696289264 35.999 0.72
   vertex -0.013333088693986013 35.999 1.08
  endloop
 endfacet
 facet normal 0.20717044190458367 -0.0 0.9783048645494202
  outer loop
   vertex 53.90387696289264 20.4 0.72
   vertex 53.90387696289264 35.999 0.72
   vertex 52.20387696289264 35.999 1.08
  endloop
 endfacet
 facet normal 0.20717044190458367 -0.0 0.9783048645494202
  outer loop
   vertex 52.20387696289264 20.4 1.08
   vertex 53.90387696289264 20.4 0.72
   vertex 52.20387696289264 35.999 1.08
  endloop
 endfacet
 facet normal 0.0 -1.0 0.0
  outer loop
   vertex -0.0009111843946673998 20.4 0.72
   vertex 53.90387696289264 20.4 0.72
   vertex 52.20387696289264 20.4 1.08
  endloop
 endfacet
 facet normal 0.0 -1.0 0.0
  outer loop
   vertex -0.0009111843946673998 20.4 1.08
   vertex -0.0009111843946673998 20.4 0.72
   vertex 52.20387696289264 20.4 1.08
  endloop
 endfacet
 facet normal 0.0 -0.0 1.0
  outer loop
   vertex -0.0009111843946673998 20.4 1.08
   vertex 52.20387696289264 35.999 1.08
   vertex -0.013333088693986013 35.999 1.08
  endloop
 endfacet
 facet normal 0.0 0.0 1.0
  outer loop
   vertex -0.0009111843946673998 20.4 1.08
   vertex 52.20387696289264 20.4 1.08
   vertex 52.20387696289264 35.999 1.08
  endloop
 endfacet
 facet normal 0.0 0.0 -1.0
  outer loop
   vertex 65.40033074049958 1.8606666692043474 0
   vertex 57.121559600843064 16.199999999999996 0
   vertex 65.39966644514494 16.199999999999996 0
  endloop
 endfacet
 facet normal -0.1794151192619204 -0.10358478160024767 -0.9783048645494204
  outer loop
   vertex 57.121559600843064 16.199999999999996 0
   vertex 65.40033074049958 1.8606666692043474 0
   vertex 64.51101558068817 0.001 0.36
  endloop
 endfacet
 facet normal -0.1794151192619209 -0.1035847816002479 -0.9783048645494204
  outer loop
   vertex 54.177081553889884 17.899999999999995 0.36
   vertex 57.121559600843064 16.199999999999996 0
   vertex 64.51101558068817 0.001 0.36
  endloop
 endfacet
 facet normal 0.0 0.2071704419045832 -0.9783048645494203
  outer loop
   vertex 65.39966644514494 16.199999999999996 0
   vertex 57.121559600843064 16.199999999999996 0
   vertex 54.177081553889884 17.899999999999995 0.36
  endloop
 endfacet
 facet normal 0.0 0.2071704419045832 -0.9783048645494203
  outer loop
   vertex 67.09958769141781 17.899999999999995 0.36
   vertex 65.39966644514494 16.199999999999996 0
   vertex 54.177081553889884 17.899999999999995 0.36
  endloop
 endfacet
 facet normal 0.20717044168227158 9.597542567231724e-06 -0.9783048645494203
  outer loop
   vertex 65.40033074049958 1.8606666692043474 0
   vertex 65.39966644514494 16.199999999999996 0
   vertex 67.09958769141781 17.899999999999995 0.36
  endloop
 endfacet
 facet normal 0.2071704416822711 9.597542567285936e-06 -0.9783048645494204
  outer loop
   vertex 67.10041689472025 0.001 0.36
   vertex 65.40033074049958 1.8606666692043474 0
   vertex 67.09958769141781 17.899999999999995 0.36
  endloop
 endfacet
 facet normal 0.0 -0.19005473634914086 -0.9817734958692145
  outer loop
   vertex 64.51101558068817 0.001 0.36
   vertex 65.40033074049958 1.8606666692043474 0
   vertex 67.10041689472025 0.001 0.36
  endloop
 endfacet
 facet normal 0.0 -0.0 1.0
  outer loop
   vertex 64.51101558068817 0.001 0.36
   vertex 67.09958769141781 17.899999999999995 0.36
   vertex 54.177081553889884 17.899999999999995 0.36
  endloop
 endfacet
 facet normal 0.0 0.0 1.0
  outer loop
   vertex 64.51101558068817 0.001 0.36
   vertex 67.10041689472025 0.001 0.36
   vertex 67.09958769141781 17.899999999999995 0.36
  endloop
 endfacet
 facet normal 0.0 0.0 -1.0
  outer loop
   vertex 64.51101558068817 0.001 0.72
   vertex 54.177081553889884 17.899999999999995 0.72
   vertex 67.09958769141781 17.899999999999995 0.72
  endloop
 endfacet
 facet normal 0.0 0.0 -1.0
  outer loop
   vertex 64.51101558068817 0.001 0.72
   vertex 67.09958769141781 17.899999999999995 0.72
   vertex 67.10041689472025 0.001 0.72
  endloop
 endfacet
 facet normal -0.17941511926192036 -0.10358478160024757 0.9783048645494203
  outer loop
   vertex 54.177081553889884 17.899999999999995 0.72
   vertex 64.51101558068817 0.001 0.72
   vertex 65.40033074049958 1.8606666692043474 1.08
  endloop
 endfacet
 facet normal -0.17941511926192102 -0.10358478160024802 0.9783048645494202
  outer loop
   vertex 57.121559600843064 16.199999999999996 1.08
   vertex 54.177081553889884 17.899999999999995 0.72
   vertex 65.40033074049958 1.8606666692043474 1.08
  endloop
 endfacet
 facet normal 0.0 0.20717044190458328 0.9783048645494203
  outer loop
   vertex 67.09958769141781 17.899999999999995 0.72
   vertex 54.177081553889884 17.899999999999995 0.72
   vertex 57.121559600843064 16.199999999999996 1.08
  endloop
 endfacet
 facet normal 0.0 0.2071704419045833 0.9783048645494203
  outer loop
   vertex 65.39966644514494 16.199999999999996 1.08
   vertex 67.09958769141781 17.899999999999995 0.72
   vertex 57.121559600843064 16.199999999999996 1.08
  endloop
 endfacet
 facet normal 0.2071704416822716 9.597542567285958e-06 0.9783048645494203
  outer loop
   vertex 67.10041689472025 0.001 0.72
   vertex 67.09958769141781 17.899999999999995 0.72
   vertex 65.39966644514494 16.199999999999996 1.08
  endloop
 endfacet
 facet normal 0.20717044168227108 9.5975425672317e-06 0.9783048645494204
  outer loop
   vertex 65.40033074049958 1.8606666692043474 1.08
   vertex 67.10041689472025 0.001 0.72
   vertex 65.39966644514494 16.199999999999996 1.08
  endloop
 endfacet
 facet normal 0.0 -0.1900547363491409 0.9817734958692145
  outer loop
   vertex 64.51101558068817 0.001 0.72
   vertex 67.10041689472025 0.001 0.72
   vertex 65.40033074049958 1.8606666692043474 1.08
  endloop
 endfacet
 facet normal 0.0 0.0 1.0
  outer loop
   vertex 65.40033074049958 1.8606666692043474 1.08
   vertex 65.39966644514494 16.199999999999996 1.08
   vertex 57.121559600843064 16.199999999999996 1.08
  endloop
 endfacet
 facet normal 0.0 0.0 -1.0
  outer loop
   vertex 57.12155960084307 19.799999999999997 0
   vertex 65.40033074049957 34.139333330795644 0
   vertex 65.39966644514494 19.799999999999997 0
  endloop
 endfacet
 facet normal -0.17941511926192016 0.10358478160024727 -0.9783048645494206
  outer loop
   vertex 65.40033074049957 34.139333330795644 0
   vertex 57.12155960084307 19.799999999999997 0
   vertex 54.177081553889884 18.099999999999998 0.36
  endloop
 endfacet
 facet normal -0.179415119261923 0.10358478160024928 -0.9783048645494198
  outer loop
   vertex 64.51101558068817 35.99899999999996 0.36
   vertex 65.40033074049957 34.139333330795644 0
   vertex 54.177081553889884 18.099999999999998 0.36
  endloop
 endfacet
 facet normal 0.0 0.190054736349144 -0.981773495869214
  outer loop
   vertex 67.10041689472025 35.99899999999996 0.36
   vertex 65.40033074049957 34.139333330795644 0
   vertex 64.51101558068817 35.99899999999996 0.36
  endloop
 endfacet
 facet normal 0.2071704416822692 -9.597542567026299e-06 -0.9783048645494209
  outer loop
   vertex 65.39966644514494 19.799999999999997 0
   vertex 65.40033074049957 34.139333330795644 0
   vertex 67.10041689472025 35.99899999999996 0.36
  endloop
 endfacet
 facet normal 0.20717044168227153 -9.597542567285972e-06 -0.9783048645494203
  outer loop
   vertex 67.09958769141781 18.099999999999998 0.36
   vertex 65.39966644514494 19.799999999999997 0
   vertex 67.10041689472025 35.99899999999996 0.36
  endloop
 endfacet
 facet normal 0.0 -0.20717044190458322 -0.9783048645494203
  outer loop
   vertex 57.12155960084307 19.799999999999997 0
   vertex 65.39966644514494 19.799999999999997 0
   vertex 67.09958769141781 18.099999999999998 0.36
  endloop
 endfacet
 facet normal 0.0 -0.2071704419045832 -0.9783048645494203
  outer loop
   vertex 54.177081553889884 18.099999999999998 0.36
   vertex 57.12155960084307 19.799999999999997 0
   vertex 67.09958769141781 18.099999999999998 0.36
  endloop
 endfacet
 facet normal 0.0 0.0 1.0
  outer loop
   vertex 54.177081553889884 18.099999999999998 0.36
   vertex 67.10041689472025 35.99899999999996 0.36
   vertex 64.51101558068817 35.99899999999996 0.36
  endloop
 endfacet
 facet normal 0.0 0.0 1.0
  outer loop
   vertex 54.177081553889884 18.099999999999998 0.36
   vertex 67.09958769141781 18.099999999999998 0.36
   vertex 67.10041689472025 35.99899999999996 0.36
  endloop
 endfacet
 facet normal 0.0 0.0 -1.0
  outer loop
   vertex 54.177081553889884 18.099999999999998 0.72
   vertex 64.51101558068817 35.99899999999996 0.72
   vertex 67.10041689472025 35.99899999999996 0.72
  endloop
 endfacet
 facet normal 0.0 0.0 -1.0
  outer loop
   vertex 54.177081553889884 18.099999999999998 0.72
   vertex 67.10041689472025 35.99899999999996 0.72
   vertex 67.09958769141781 18.099999999999998 0.72
  endloop
 endfacet
 facet normal -0.1794151192619205 0.10358478160024784 0.9783048645494204
  outer loop
   vertex 64.51101558068817 35.99899999999996 0.72
   vertex 54.177081553889884 18.099999999999998 0.72
   vertex 57.12155960084307 19.799999999999997 1.08
  endloop
 endfacet
 facet normal -0.17941511926192338 0.10358478160024914 0.9783048645494197
  outer loop
   vertex 65.40033074049957 34.139333330795644 1.08
   vertex 64.51101558068817 35.99899999999996 0.72
   vertex 57.12155960084307 19.799999999999997 1.08
  endloop
 endfacet
 facet normal 0.0 0.19005473634914405 0.981773495869214
  outer loop
   vertex 67.10041689472025 35.99899999999996 0.72
   vertex 64.51101558068817 35.99899999999996 0.72
   vertex 65.40033074049957 34.139333330795644 1.08
  endloop
 endfacet
 facet normal 0.2071704416822695 -9.597542567285879e-06 0.9783048645494208
  outer loop
   vertex 67.09958769141781 18.099999999999998 0.72
   vertex 67.10041689472025 35.99899999999996 0.72
   vertex 65.40033074049957 34.139333330795644 1.08
  endloop
 endfacet
 facet normal 0.20717044168227186 -9.597542567026424e-06 0.9783048645494203
  outer loop
   vertex 65.39966644514494 19.799999999999997 1.08
   vertex 67.09958769141781 18.099999999999998 0.72
   vertex 65.40033074049957 34.139333330795644 1.08
  endloop
 endfacet
 facet normal 0.0 -0.20717044190458328 0.9783048645494203
  outer loop
   vertex 54.177081553889884 18.099999999999998 0.72
   vertex 67.09958769141781 18.099999999999998 0.72
   vertex 65.39966644514494 19.799999999999997 1.08
  endloop
 endfacet
 facet normal 0.0 -0.20717044190458328 0.9783048645494203
  outer loop
   vertex 57.12155960084307 19.799999999999997 1.08
   vertex 54.177081553889884 18.099999999999998 0.72
   vertex 65.39966644514494 19.799999999999997 1.08
  endloop
 endfacet
 facet normal 0.0 0.0 1.0
  outer loop
   vertex 57.12155960084307 19.799999999999997 1.08
   vertex 65.39966644514494 19.799999999999997 1.08
   vertex 65.40033074049957 34.139333330795644 1.08
  endloop
 endfacet
 facet normal 0.0 0.0 -1.0
  outer loop
   vertex 69.00041689675912 0.001 0
   vertex 68.99966644900806 16.2 0
   vertex 157.30033355099198 16.2 0
  endloop
 endfacet
 facet normal 0.0 0.0 -1.0
  outer loop
   vertex 69.00041689675912 0.001 0
   vertex 157.30033355099198 16.2 0
   vertex 157.29958310324085 0.001 0
  endloop
 endfacet
 facet normal -0.20717044168227094 -9.597542567222444e-06 -0.9783048645494204
  outer loop
   vertex 68.99966644900806 16.2 0
   vertex 69.00041689675912 0.001 0
   vertex 67.30041689493487 0.001 0.36
  endloop
 endfacet
 facet normal -0.20717044168227186 -9.597542567121486e-06 -0.9783048645494202
  outer loop
   vertex 67.29958769163244 17.9 0.36
   vertex 68.99966644900806 16.2 0
   vertex 67.30041689493487 0.001 0.36
  endloop
 endfacet
 facet normal 0.0 0.20717044190458322 -0.9783048645494204
  outer loop
   vertex 157.30033355099198 16.2 0
   vertex 68.99966644900806 16.2 0
   vertex 67.29958769163244 17.9 0.36
  endloop
 endfacet
 facet normal 0.0 0.2071704419045832 -0.9783048645494203
  outer loop
   vertex 159.0004123083676 17.9 0.36
   vertex 157.30033355099198 16.2 0
   vertex 67.29958769163244 17.9 0.36
  endloop
 endfacet
 facet normal 0.20717044168227286 -9.597542568131251e-06 -0.97830486454942
  outer loop
   vertex 157.29958310324085 0.001 0
   vertex 157.30033355099198 16.2 0
   vertex 159.0004123083676 17.9 0.36
  endloop
 endfacet
 facet normal 0.2071704416822693 -9.597542567779297e-06 -0.9783048645494209
  outer loop
   vertex 158.9995831050651 0.001 0.36
   vertex 157.29958310324085 0.001 0
   vertex 159.0004123083676 17.9 0.36
  endloop
 endfacet
 facet normal 0.0 -1.0 0.0
  outer loop
   vertex 69.00041689675912 0.001 0
   vertex 157.29958310324085 0.001 0
   vertex 158.9995831050651 0.001 0.36
  endloop
 endfacet
 facet normal 0.0 -1.0 0.0
  outer loop
   vertex 67.30041689493487 0.001 0.36
   vertex 69.00041689675912 0.001 0
   vertex 158.9995831050651 0.001 0.36
  endloop
 endfacet
 facet normal 0.0 -0.0 1.0
  outer loop
   vertex 67.30041689493487 0.001 0.36
   vertex 159.0004123083676 17.9 0.36
   vertex 67.29958769163244 17.9 0.36
  endloop
 endfacet
 facet normal 0.0 0.0 1.0
  outer loop
   vertex 67.30041689493487 0.001 0.36
   vertex 158.9995831050651 0.001 0.36
   vertex 159.0004123083676 17.9 0.36
  endloop
 endfacet
 facet normal 0.0 0.0 -1.0
  outer loop
   vertex 67.30041689493487 0.001 0.72
   vertex 67.29958769163244 17.9 0.72
   vertex 159.0004123083676 17.9 0.72
  endloop
 endfacet
 facet normal 0.0 0.0 -1.0
  outer loop
   vertex 67.30041689493487 0.001 0.72
   vertex 159.0004123083676 17.9 0.72
   vertex 158.9995831050651 0.001 0.72
  endloop
 endfacet
 facet normal -0.20717044168227106 -9.597542567121448e-06 0.9783048645494204
  outer loop
   vertex 67.29958769163244 17.9 0.72
   vertex 67.30041689493487 0.001 0.72
   vertex 69.00041689675912 0.001 1.08
  endloop
 endfacet
 facet normal -0.20717044168227203 -9.597542567222493e-06 0.9783048645494202
  outer loop
   vertex 68.99966644900806 16.2 1.08
   vertex 67.29958769163244 17.9 0.72
   vertex 69.00041689675912 0.001 1.08
  endloop
 endfacet
 facet normal 0.0 0.2071704419045833 0.9783048645494203
  outer loop
   vertex 159.0004123083676 17.9 0.72
   vertex 67.29958769163244 17.9 0.72
   vertex 68.99966644900806 16.2 1.08
  endloop
 endfacet
 facet normal 0.0 0.2071704419045833 0.9783048645494204
  outer loop
   vertex 157.30033355099198 16.2 1.08
   vertex 159.0004123083676 17.9 0.72
   vertex 68.99966644900806 16.2 1.08
  endloop
 endfacet
 facet normal 0.20717044168227255 -9.597542567779446e-06 0.9783048645494201
  outer loop
   vertex 158.9995831050651 0.001 0.72
   vertex 159.0004123083676 17.9 0.72
   vertex 157.30033355099198 16.2 1.08
  endloop
 endfacet
 facet normal 0.2071704416822694 -9.59754256813109e-06 0.9783048645494209
  outer loop
   vertex 157.29958310324085 0.001 1.08
   vertex 158.9995831050651 0.001 0.72
   vertex 157.30033355099198 16.2 1.08
  endloop
 endfacet
 facet normal 0.0 -1.0 0.0
  outer loop
   vertex 67.30041689493487 0.001 0.72
   vertex 158.9995831050651 0.001 0.72
   vertex 157.29958310324085 0.001 1.08
  endloop
 endfacet
 facet normal 0.0 -1.0 -0.0
  outer loop
   vertex 69.00041689675912 0.001 1.08
   vertex 67.30041689493487 0.001 0.72
   vertex 157.29958310324085 0.001 1.08
  endloop
 endfacet
 facet normal 0.0 -0.0 1.0
  outer loop
   vertex 69.00041689675912 0.001 1.08
   vertex 157.30033355099198 16.2 1.08
   vertex 68.99966644900806 16.2 1.08
  endloop
 endfacet
 facet normal 0.0 0.0 1.0
  outer loop
   vertex 69.00041689675912 0.001 1.08
   vertex 157.29958310324085 0.001 1.08
   vertex 157.30033355099198 16.2 1.08
  endloop
 endfacet
 facet normal 0.0 0.0 -1.0
  outer loop
   vertex 68.99966644900806 19.8 0
   vertex 69.00041689675912 35.999 0
   vertex 157.29958310324085 35.999 0
  endloop
 endfacet
 facet normal 0.0 0.0 -1.0
  outer loop
   vertex 68.99966644900806 19.8 0
   vertex 157.29958310324085 35.999 0
   vertex 157.30033355099198 19.8 0
  endloop
 endfacet
 facet normal -0.20717044168227197 9.59754256722249e-06 -0.9783048645494202
  outer loop
   vertex 69.00041689675912 35.999 0
   vertex 68.99966644900806 19.8 0
   vertex 67.29958769163244 18.1 0.36
  endloop
 endfacet
 facet normal -0.20717044168227097 9.597542567121442e-06 -0.9783048645494204
  outer loop
   vertex 67.30041689493487 35.999 0.36
   vertex 69.00041689675912 35.999 0
   vertex 67.29958769163244 18.1 0.36
  endloop
 endfacet
 facet normal 0.0 1.0 0.0
  outer loop
   vertex 157.29958310324085 35.999 0
   vertex 69.00041689675912 35.999 0
   vertex 67.30041689493487 35.999 0.36
  endloop
 endfacet
 facet normal 0.0 1.0 0.0
  outer loop
   vertex 158.9995831050651 35.999 0.36
   vertex 157.29958310324085 35.999 0
   vertex 67.30041689493487 35.999 0.36
  endloop
 endfacet
 facet normal 0.2071704416822693 9.597542568131085e-06 -0.9783048645494209
  outer loop
   vertex 157.30033355099198 19.8 0
   vertex 157.29958310324085 35.999 0
   vertex 158.9995831050651 35.999 0.36
  endloop
 endfacet
 facet normal 0.2071704416822725 9.597542567779443e-06 -0.9783048645494201
  outer loop
   vertex 159.0004123083676 18.1 0.36
   vertex 157.30033355099198 19.8 0
   vertex 158.9995831050651 35.999 0.36
  endloop
 endfacet
 facet normal 0.0 -0.20717044190458322 -0.9783048645494204
  outer loop
   vertex 68.99966644900806 19.8 0
   vertex 157.30033355099198 19.8 0
   vertex 159.0004123083676 18.1 0.36
  endloop
 endfacet
 facet normal 0.0 -0.2071704419045832 -0.9783048645494203
  outer loop
   vertex 67.29958769163244 18.1 0.36
   vertex 68.99966644900806 19.8 0
   vertex 159.0004123083676 18.1 0.36
  endloop
 endfacet
 facet normal 0.0 0.0 1.0
  outer loop
   vertex 67.29958769163244 18.1 0.36
   vertex 158.9995831050651 35.999 0.36
   vertex 67.30041689493487 35.999 0.36
  endloop
 endfacet
 facet normal 0.0 0.0 1.0
  outer loop
   vertex 67.29958769163244 18.1 0.36
   vertex 159.0004123083676 18.1 0.36
   vertex 158.9995831050651 35.999 0.36
  endloop
 endfacet
 facet normal 0.0 0.0 -1.0
  outer loop
   vertex 67.29958769163244 18.1 0.72
   vertex 67.30041689493487 35.999 0.72
   vertex 158.9995831050651 35.999 0.72
  endloop
 endfacet
 facet normal 0.0 0.0 -1.0
  outer loop
   vertex 67.29958769163244 18.1 0.72
   vertex 158.9995831050651 35.999 0.72
   vertex 159.0004123083676 18.1 0.72
  endloop
 endfacet
 facet normal -0.20717044168227192 9.597542567121486e-06 0.9783048645494202
  outer loop
   vertex 67.30041689493487 35.999 0.72
   vertex 67.29958769163244 18.1 0.72
   vertex 68.99966644900806 19.8 1.08
  endloop
 endfacet
 facet normal -0.20717044168227103 9.597542567222444e-06 0.9783048645494204
  outer loop
   vertex 69.00041689675912 35.999 1.08
   vertex 67.30041689493487 35.999 0.72
   vertex 68.99966644900806 19.8 1.08
  endloop
 endfacet
 facet normal 0.0 1.0 0.0
  outer loop
   vertex 158.9995831050651 35.999 0.72
   vertex 67.30041689493487 35.999 0.72
   vertex 69.00041689675912 35.999 1.08
  endloop
 endfacet
 facet normal 0.0 1.0 0.0
  outer loop
   vertex 157.29958310324085 35.999 1.08
   vertex 158.9995831050651 35.999 0.72
   vertex 69.00041689675912 35.999 1.08
  endloop
 endfacet
 facet normal 0.20717044168226934 9.597542567779296e-06 0.9783048645494208
  outer loop
   vertex 159.0004123083676 18.1 0.72
   vertex 158.9995831050651 35.999 0.72
   vertex 157.29958310324085 35.999 1.08
  endloop
 endfacet
 facet normal 0.20717044168227292 9.597542568131251e-06 0.9783048645494201
  outer loop
   vertex 157.30033355099198 19.8 1.08
   vertex 159.0004123083676 18.1 0.72
   vertex 157.29958310324085 35.999 1.08
  endloop
 endfacet
 facet normal 0.0 -0.2071704419045833 0.9783048645494203
  outer loop
   vertex 67.29958769163244 18.1 0.72
   vertex 159.0004123083676 18.1 0.72
   vertex 157.30033355099198 19.8 1.08
  endloop
 endfacet
 facet normal 0.0 -0.2071704419045833 0.9783048645494204
  outer loop
   vertex 68.99966644900806 19.8 1.08
   vertex 67.29958769163244 18.1 0.72
   vertex 157.30033355099198 19.8 1.08
  endloop
 endfacet
 facet normal 0.0 0.0 1.0
  outer loop
   vertex 68.99966644900806 19.8 1.08
   vertex 157.29958310324085 35.999 1.08
   vertex 69.00041689675912 35.999 1.08
  endloop
 endfacet
 facet normal 0.0 0.0 1.0
  outer loop
   vertex 68.99966644900806 19.8 1.08
   vertex 157.30033355099198 19.8 1.08
   vertex 157.29958310324085 35.999 1.08
  endloop
 endfacet
 facet normal 0.0 0.0 -1.0
  outer loop
   vertex 160.89971233076446 2.790393495306034 0
   vertex 160.90033355485508 16.199999999999996 0
   vertex 176.88006517113362 16.199999999999996 0
  endloop
 endfacet
 facet normal -0.20717044168226392 9.597542567175742e-06 -0.978304864549422
  outer loop
   vertex 160.90033355485508 16.199999999999996 0
   vertex 160.89971233076446 2.790393495306034 0
   vertex 159.19958310527971 0.001 0.36
  endloop
 endfacet
 facet normal -0.2071704416822694 9.597542567779304e-06 -0.9783048645494208
  outer loop
   vertex 159.2004123085822 17.899999999999995 0.36
   vertex 160.90033355485508 16.199999999999996 0
   vertex 159.19958310527971 0.001 0.36
  endloop
 endfacet
 facet normal 0.0 0.20717044190458322 -0.9783048645494204
  outer loop
   vertex 176.88006517113362 16.199999999999996 0
   vertex 160.90033355485508 16.199999999999996 0
   vertex 159.2004123085822 17.899999999999995 0.36
  endloop
 endfacet
 facet normal 0.0 0.20717044190458325 -0.9783048645494203
  outer loop
   vertex 181.55064381937217 17.899999999999995 0.36
   vertex 176.88006517113362 16.199999999999996 0
   vertex 159.2004123085822 17.899999999999995 0.36
  endloop
 endfacet
 facet normal 0.1331694972429672 -0.15869932893051378 -0.9783048645494206
  outer loop
   vertex 160.89971233076446 2.790393495306034 0
   vertex 176.88006517113362 16.199999999999996 0
   vertex 181.55064381937217 17.899999999999995 0.36
  endloop
 endfacet
 facet normal 0.13316949724296712 -0.1586993289305137 -0.9783048645494204
  outer loop
   vertex 160.22023897940588 0.001 0.36
   vertex 160.89971233076446 2.790393495306034 0
   vertex 181.55064381937217 17.899999999999995 0.36
  endloop
 endfacet
 facet normal 0.0 -0.12799870692428314 -0.9917743347282745
  outer loop
   vertex 159.19958310527971 0.001 0.36
   vertex 160.89971233076446 2.790393495306034 0
   vertex 160.22023897940588 0.001 0.36
  endloop
 endfacet
 facet normal 0.0 0.0 1.0
  outer loop
   vertex 159.19958310527971 0.001 0.36
   vertex 181.55064381937217 17.899999999999995 0.36
   vertex 159.2004123085822 17.899999999999995 0.36
  endloop
 endfacet
 facet normal 0.0 0.0 1.0
  outer loop
   vertex 159.19958310527971 0.001 0.36
   vertex 160.22023897940588 0.001 0.36
   vertex 181.55064381937217 17.899999999999995 0.36
  endloop
 endfacet
 facet normal 0.0 0.0 -1.0
  outer loop
   vertex 159.19958310527971 0.001 0.72
   vertex 159.2004123085822 17.899999999999995 0.72
   vertex 181.55064381937217 17.899999999999995 0.72
  endloop
 endfacet
 facet normal 0.0 0.0 -1.0
  outer loop
   vertex 159.19958310527971 0.001 0.72
   vertex 181.55064381937217 17.899999999999995 0.72
   vertex 160.22023897940588 0.001 0.72
  endloop
 endfacet
 facet normal -0.20717044168226492 9.597542567779096e-06 0.9783048645494218
  outer loop
   vertex 159.2004123085822 17.899999999999995 0.72
   vertex 159.19958310527971 0.001 0.72
   vertex 160.89971233076446 2.790393495306034 1.08
  endloop
 endfacet
 facet normal -0.20717044168227003 9.597542567176025e-06 0.9783048645494206
  outer loop
   vertex 160.90033355485508 16.199999999999996 1.08
   vertex 159.2004123085822 17.899999999999995 0.72
   vertex 160.89971233076446 2.790393495306034 1.08
  endloop
 endfacet
 facet normal 0.0 0.20717044190458328 0.9783048645494203
  outer loop
   vertex 181.55064381937217 17.899999999999995 0.72
   vertex 159.2004123085822 17.899999999999995 0.72
   vertex 160.90033355485508 16.199999999999996 1.08
  endloop
 endfacet
 facet normal 0.0 0.2071704419045833 0.9783048645494204
  outer loop
   vertex 176.88006517113362 16.199999999999996 1.08
   vertex 181.55064381937217 17.899999999999995 0.72
   vertex 160.90033355485508 16.199999999999996 1.08
  endloop
 endfacet
 facet normal 0.13316949724296737 -0.15869932893051397 0.9783048645494204
  outer loop
   vertex 160.22023897940588 0.001 0.72
   vertex 181.55064381937217 17.899999999999995 0.72
   vertex 176.88006517113362 16.199999999999996 1.08
  endloop
 endfacet
 facet normal 0.13316949724296714 -0.15869932893051372 0.9783048645494206
  outer loop
   vertex 160.89971233076446 2.790393495306034 1.08
   vertex 160.22023897940588 0.001 0.72
   vertex 176.88006517113362 16.199999999999996 1.08
  endloop
 endfacet
 facet normal 0.0 -0.12799870692428317 0.9917743347282745
  outer loop
   vertex 159.19958310527971 0.001 0.72
   vertex 160.22023897940588 0.001 0.72
   vertex 160.89971233076446 2.790393495306034 1.08
  endloop
 endfacet
 facet normal 0.0 0.0 1.0
  outer loop
   vertex 160.89971233076446 2.790393495306034 1.08
   vertex 176.88006517113362 16.199999999999996 1.08
   vertex 160.90033355485508 16.199999999999996 1.08
  endloop
 endfacet
 facet normal 0.0 0.0 -1.0
  outer loop
   vertex 160.90033355485508 19.799999999999997 0
   vertex 160.8997123307644 33.209606504693966 0
   vertex 176.88006517113362 19.799999999999997 0
  endloop
 endfacet
 facet normal -0.20717044168226914 -9.597542568054176e-06 -0.9783048645494209
  outer loop
   vertex 160.8997123307644 33.209606504693966 0
   vertex 160.90033355485508 19.799999999999997 0
   vertex 159.2004123085822 18.099999999999998 0.36
  endloop
 endfacet
 facet normal -0.2071704416822715 -9.59754256777925e-06 -0.9783048645494203
  outer loop
   vertex 159.19958310527971 35.99900000000027 0.36
   vertex 160.8997123307644 33.209606504693966 0
   vertex 159.2004123085822 18.099999999999998 0.36
  endloop
 endfacet
 facet normal 0.0 0.12799870692427084 -0.991774334728276
  outer loop
   vertex 160.22023897940554 35.99900000000027 0.36
   vertex 160.8997123307644 33.209606504693966 0
   vertex 159.19958310527971 35.99900000000027 0.36
  endloop
 endfacet
 facet normal 0.1331694972429646 0.15869932893051117 -0.9783048645494213
  outer loop
   vertex 176.88006517113362 19.799999999999997 0
   vertex 160.8997123307644 33.209606504693966 0
   vertex 160.22023897940554 35.99900000000027 0.36
  endloop
 endfacet
 facet normal 0.13316949724296726 0.1586993289305139 -0.9783048645494203
  outer loop
   vertex 181.55064381937217 18.099999999999998 0.36
   vertex 176.88006517113362 19.799999999999997 0
   vertex 160.22023897940554 35.99900000000027 0.36
  endloop
 endfacet
 facet normal 0.0 -0.20717044190458322 -0.9783048645494204
  outer loop
   vertex 160.90033355485508 19.799999999999997 0
   vertex 176.88006517113362 19.799999999999997 0
   vertex 181.55064381937217 18.099999999999998 0.36
  endloop
 endfacet
 facet normal 0.0 -0.20717044190458325 -0.9783048645494203
  outer loop
   vertex 159.2004123085822 18.099999999999998 0.36
   vertex 160.90033355485508 19.799999999999997 0
   vertex 181.55064381937217 18.099999999999998 0.36
  endloop
 endfacet
 facet normal 0.0 -0.0 1.0
  outer loop
   vertex 159.2004123085822 18.099999999999998 0.36
   vertex 160.22023897940554 35.99900000000027 0.36
   vertex 159.19958310527971 35.99900000000027 0.36
  endloop
 endfacet
 facet normal 0.0 0.0 1.0
  outer loop
   vertex 159.2004123085822 18.099999999999998 0.36
   vertex 181.55064381937217 18.099999999999998 0.36
   vertex 160.22023897940554 35.99900000000027 0.36
  endloop
 endfacet
 facet normal 0.0 0.0 -1.0
  outer loop
   vertex 159.2004123085822 18.099999999999998 0.72
   vertex 159.19958310527971 35.99900000000027 0.72
   vertex 160.22023897940554 35.99900000000027 0.72
  endloop
 endfacet
 facet normal 0.0 0.0 -1.0
  outer loop
   vertex 159.2004123085822 18.099999999999998 0.72
   vertex 160.22023897940554 35.99900000000027 0.72
   vertex 181.55064381937217 18.099999999999998 0.72
  endloop
 endfacet
 facet normal -0.20717044168226947 -9.597542567779155e-06 0.9783048645494208
  outer loop
   vertex 159.19958310527971 35.99900000000027 0.72
   vertex 159.2004123085822 18.099999999999998 0.72
   vertex 160.90033355485508 19.799999999999997 1.08
  endloop
 endfacet
 facet normal -0.20717044168227197 -9.597542568054309e-06 0.9783048645494202
  outer loop
   vertex 160.8997123307644 33.209606504693966 1.08
   vertex 159.19958310527971 35.99900000000027 0.72
   vertex 160.90033355485508 19.799999999999997 1.08
  endloop
 endfacet
 facet normal 0.0 0.12799870692427087 0.991774334728276
  outer loop
   vertex 160.22023897940554 35.99900000000027 0.72
   vertex 159.19958310527971 35.99900000000027 0.72
   vertex 160.8997123307644 33.209606504693966 1.08
  endloop
 endfacet
 facet normal 0.13316949724296506 0.1586993289305113 0.9783048645494212
  outer loop
   vertex 181.55064381937217 18.099999999999998 0.72
   vertex 160.22023897940554 35.99900000000027 0.72
   vertex 160.8997123307644 33.209606504693966 1.08
  endloop
 endfacet
 facet normal 0.1331694972429676 0.15869932893051475 0.9783048645494202
  outer loop
   vertex 176.88006517113362 19.799999999999997 1.08
   vertex 181.55064381937217 18.099999999999998 0.72
   vertex 160.8997123307644 33.209606504693966 1.08
  endloop
 endfacet
 facet normal 0.0 -0.20717044190458328 0.9783048645494203
  outer loop
   vertex 159.2004123085822 18.099999999999998 0.72
   vertex 181.55064381937217 18.099999999999998 0.72
   vertex 176.88006517113362 19.799999999999997 1.08
  endloop
 endfacet
 facet normal 0.0 -0.2071704419045833 0.9783048645494204
  outer loop
   vertex 160.90033355485508 19.799999999999997 1.08
   vertex 159.2004123085822 18.099999999999998 0.72
   vertex 176.88006517113362 19.799999999999997 1.08
  endloop
 endfacet
 facet normal 0.0 -0.0 1.0
  outer loop
   vertex 160.90033355485508 19.799999999999997 1.08
   vertex 176.88006517113362 19.799999999999997 1.08
   vertex 160.8997123307644 33.209606504693966 1.08
  endloop
 endfacet
 facet normal 0.0 0.0 -1.0
  outer loop
   vertex 214.04787900075 20.400000000000002 0
   vertex 183.6253837398568 20.400000000000002 0
   vertex 183.6253837398568 35.99900000000001 0
  endloop
 endfacet
 facet normal 0.0 0.0 -1.0
  outer loop
   vertex 214.04787900075 20.400000000000002 0
   vertex 183.6253837398568 35.99900000000001 0
   vertex 214.04787900075 35.99900000000001 0
  endloop
 endfacet
 facet normal 0.0 -1.0 0.0
  outer loop
   vertex 183.6253837398568 20.400000000000002 0
   vertex 214.04787900075 20.400000000000002 0
   vertex 215.74787900075 20.400000000000002 0.36
  endloop
 endfacet
 facet normal 0.0 -1.0 0.0
  outer loop
   vertex 181.92538373985678 20.400000000000002 0.36
   vertex 183.6253837398568 20.400000000000002 0
   vertex 215.74787900075 20.400000000000002 0.36
  endloop
 endfacet
 facet normal -0.20717044190458114 -0.0 -0.9783048645494208
  outer loop
   vertex 183.6253837398568 35.99900000000001 0
   vertex 183.6253837398568 20.400000000000002 0
   vertex 181.92538373985678 20.400000000000002 0.36
  endloop
 endfacet
 facet normal -0.20717044190458114 -0.0 -0.9783048645494208
  outer loop
   vertex 181.92538373985678 35.99900000000001 0.36
   vertex 183.6253837398568 35.99900000000001 0
   vertex 181.92538373985678 20.400000000000002 0.36
  endloop
 endfacet
 facet normal 0.0 1.0 0.0
  outer loop
   vertex 214.04787900075 35.99900000000001 0
   vertex 183.6253837398568 35.99900000000001 0
   vertex 181.92538373985678 35.99900000000001 0.36
  endloop
 endfacet
 facet normal 0.0 1.0 0.0
  outer loop
   vertex 215.74787900075 35.99900000000001 0.36
   vertex 214.04787900075 35.99900000000001 0
   vertex 181.92538373985678 35.99900000000001 0.36
  endloop
 endfacet
 facet normal 0.20717044190458114 0.0 -0.9783048645494208
  outer loop
   vertex 214.04787900075 20.400000000000002 0
   vertex 214.04787900075 35.99900000000001 0
   vertex 215.74787900075 35.99900000000001 0.36
  endloop
 endfacet
 facet normal 0.20717044190458114 0.0 -0.9783048645494208
  outer loop
   vertex 215.74787900075 20.400000000000002 0.36
   vertex 214.04787900075 20.400000000000002 0
   vertex 215.74787900075 35.99900000000001 0.36
  endloop
 endfacet
 facet normal 0.0 0.0 1.0
  outer loop
   vertex 215.74787900075 20.400000000000002 0.36
   vertex 181.92538373985678 35.99900000000001 0.36
   vertex 181.92538373985678 20.400000000000002 0.36
  endloop
 endfacet
 facet normal 0.0 -0.0 1.0
  outer loop
   vertex 215.74787900075 20.400000000000002 0.36
   vertex 215.74787900075 35.99900000000001 0.36
   vertex 181.92538373985678 35.99900000000001 0.36
  endloop
 endfacet
 facet normal 0.0 0.0 -1.0
  outer loop
   vertex 215.74787900075 20.400000000000002 0.72
   vertex 181.92538373985678 20.400000000000002 0.72
   vertex 181.92538373985678 35.99900000000001 0.72
  endloop
 endfacet
 facet normal 0.0 0.0 -1.0
  outer loop
   vertex 215.74787900075 20.400000000000002 0.72
   vertex 181.92538373985678 35.99900000000001 0.72
   vertex 215.74787900075 35.99900000000001 0.72
  endloop
 endfacet
 facet normal 0.0 -1.0 0.0
  outer loop
   vertex 181.92538373985678 20.400000000000002 0.72
   vertex 215.74787900075 20.400000000000002 0.72
   vertex 214.04787900075 20.400000000000002 1.08
  endloop
 endfacet
 facet normal 0.0 -1.0 -0.0
  outer loop
   vertex 183.6253837398568 20.400000000000002 1.08
   vertex 181.92538373985678 20.400000000000002 0.72
   vertex 214.04787900075 20.400000000000002 1.08
  endloop
 endfacet
 facet normal -0.20717044190458123 0.0 0.9783048645494208
  outer loop
   vertex 181.92538373985678 35.99900000000001 0.72
   vertex 181.92538373985678 20.400000000000002 0.72
   vertex 183.6253837398568 20.400000000000002 1.08
  endloop
 endfacet
 facet normal -0.20717044190458123 0.0 0.9783048645494208
  outer loop
   vertex 183.6253837398568 35.99900000000001 1.08
   vertex 181.92538373985678 35.99900000000001 0.72
   vertex 183.6253837398568 20.400000000000002 1.08
  endloop
 endfacet
 facet normal 0.0 1.0 0.0
  outer loop
   vertex 215.74787900075 35.99900000000001 0.72
   vertex 181.92538373985678 35.99900000000001 0.72
   vertex 183.6253837398568 35.99900000000001 1.08
  endloop
 endfacet
 facet normal 0.0 1.0 0.0
  outer loop
   vertex 214.04787900075 35.99900000000001 1.08
   vertex 215.74787900075 35.99900000000001 0.72
   vertex 183.6253837398568 35.99900000000001 1.08
  endloop
 endfacet
 facet normal 0.20717044190458123 -0.0 0.9783048645494208
  outer loop
   vertex 215.74787900075 20.400000000000002 0.72
   vertex 215.74787900075 35.99900000000001 0.72
   vertex 214.04787900075 35.99900000000001 1.08
  endloop
 endfacet
 facet normal 0.20717044190458123 -0.0 0.9783048645494208
  outer loop
   vertex 214.04787900075 20.400000000000002 1.08
   vertex 215.74787900075 20.400000000000002 0.72
   vertex 214.04787900075 35.99900000000001 1.08
  endloop
 endfacet
 facet normal 0.0 0.0 1.0
  outer loop
   vertex 214.04787900075 20.400000000000002 1.08
   vertex 183.6253837398568 35.99900000000001 1.08
   vertex 183.6253837398568 20.400000000000002 1.08
  endloop
 endfacet
 facet normal 0.0 -0.0 1.0
  outer loop
   vertex 214.04787900075 20.400000000000002 1.08
   vertex 214.04787900075 35.99900000000001 1.08
   vertex 183.6253837398568 35.99900000000001 1.08
  endloop
 endfacet
 facet normal 0.0 0.0 -1.0
  outer loop
   vertex 183.6253837398568 15.600000000000003 0
   vertex 214.04787900075 15.600000000000003 0
   vertex 214.04787900075 0.001 0
  endloop
 endfacet
 facet normal 0.0 0.0 -1.0
  outer loop
   vertex 183.6253837398568 15.600000000000003 0
   vertex 214.04787900075 0.001 0
   vertex 183.6253837398568 0.001 0
  endloop
 endfacet
 facet normal 0.0 1.0 0.0
  outer loop
   vertex 214.04787900075 15.600000000000003 0
   vertex 183.6253837398568 15.600000000000003 0
   vertex 181.92538373985678 15.600000000000003 0.36
  endloop
 endfacet
 facet normal 0.0 1.0 0.0
  outer loop
   vertex 215.74787900075 15.600000000000003 0.36
   vertex 214.04787900075 15.600000000000003 0
   vertex 181.92538373985678 15.600000000000003 0.36
  endloop
 endfacet
 facet normal 0.20717044190458114 0.0 -0.9783048645494209
  outer loop
   vertex 214.04787900075 0.001 0
   vertex 214.04787900075 15.600000000000003 0
   vertex 215.74787900075 15.600000000000003 0.36
  endloop
 endfacet
 facet normal 0.20717044190458114 0.0 -0.9783048645494209
  outer loop
   vertex 215.74787900075 0.001 0.36
   vertex 214.04787900075 0.001 0
   vertex 215.74787900075 15.600000000000003 0.36
  endloop
 endfacet
 facet normal 0.0 -1.0 0.0
  outer loop
   vertex 183.6253837398568 0.001 0
   vertex 214.04787900075 0.001 0
   vertex 215.74787900075 0.001 0.36
  endloop
 endfacet
 facet normal 0.0 -1.0 0.0
  outer loop
   vertex 181.92538373985678 0.001 0.36
   vertex 183.6253837398568 0.001 0
   vertex 215.74787900075 0.001 0.36
  endloop
 endfacet
 facet normal -0.20717044190458114 -0.0 -0.9783048645494209
  outer loop
   vertex 183.6253837398568 15.600000000000003 0
   vertex 183.6253837398568 0.001 0
   vertex 181.92538373985678 0.001 0.36
  endloop
 endfacet
 facet normal -0.20717044190458114 -0.0 -0.9783048645494209
  outer loop
   vertex 181.92538373985678 15.600000000000003 0.36
   vertex 183.6253837398568 15.600000000000003 0
   vertex 181.92538373985678 0.001 0.36
  endloop
 endfacet
 facet normal -0.0 0.0 1.0
  outer loop
   vertex 181.92538373985678 15.600000000000003 0.36
   vertex 215.74787900075 0.001 0.36
   vertex 215.74787900075 15.600000000000003 0.36
  endloop
 endfacet
 facet normal 0.0 0.0 1.0
  outer loop
   vertex 181.92538373985678 15.600000000000003 0.36
   vertex 181.92538373985678 0.001 0.36
   vertex 215.74787900075 0.001 0.36
  endloop
 endfacet
 facet normal 0.0 0.0 -1.0
  outer loop
   vertex 181.92538373985678 15.600000000000003 0.72
   vertex 215.74787900075 15.600000000000003 0.72
   vertex 215.74787900075 0.001 0.72
  endloop
 endfacet
 facet normal 0.0 0.0 -1.0
  outer loop
   vertex 181.92538373985678 15.600000000000003 0.72
   vertex 215.74787900075 0.001 0.72
   vertex 181.92538373985678 0.001 0.72
  endloop
 endfacet
 facet normal 0.0 1.0 0.0
  outer loop
   vertex 215.74787900075 15.600000000000003 0.72
   vertex 181.92538373985678 15.600000000000003 0.72
   vertex 183.6253837398568 15.600000000000003 1.08
  endloop
 endfacet
 facet normal 0.0 1.0 0.0
  outer loop
   vertex 214.04787900075 15.600000000000003 1.08
   vertex 215.74787900075 15.600000000000003 0.72
   vertex 183.6253837398568 15.600000000000003 1.08
  endloop
 endfacet
 facet normal 0.2071704419045812 -0.0 0.9783048645494209
  outer loop
   vertex 215.74787900075 0.001 0.72
   vertex 215.74787900075 15.600000000000003 0.72
   vertex 214.04787900075 15.600000000000003 1.08
  endloop
 endfacet
 facet normal 0.2071704419045812 -0.0 0.9783048645494209
  outer loop
   vertex 214.04787900075 0.001 1.08
   vertex 215.74787900075 0.001 0.72
   vertex 214.04787900075 15.600000000000003 1.08
  endloop
 endfacet
 facet normal 0.0 -1.0 0.0
  outer loop
   vertex 181.92538373985678 0.001 0.72
   vertex 215.74787900075 0.001 0.72
   vertex 214.04787900075 0.001 1.08
  endloop
 endfacet
 facet normal 0.0 -1.0 -0.0
  outer loop
   vertex 183.6253837398568 0.001 1.08
   vertex 181.92538373985678 0.001 0.72
   vertex 214.04787900075 0.001 1.08
  endloop
 endfacet
 facet normal -0.2071704419045812 0.0 0.9783048645494209
  outer loop
   vertex 181.92538373985678 15.600000000000003 0.72
   vertex 181.92538373985678 0.001 0.72
   vertex 183.6253837398568 0.001 1.08
  endloop
 endfacet
 facet normal -0.2071704419045812 0.0 0.9783048645494209
  outer loop
   vertex 183.6253837398568 15.600000000000003 1.08
   vertex 181.92538373985678 15.600000000000003 0.72
   vertex 183.6253837398568 0.001 1.08
  endloop
 endfacet
 facet normal -0.0 0.0 1.0
  outer loop
   vertex 183.6253837398568 15.600000000000003 1.08
   vertex 214.04787900075 0.001 1.08
   vertex 214.04787900075 15.600000000000003 1.08
  endloop
 endfacet
 facet normal 0.0 0.0 1.0
  outer loop
   vertex 183.6253837398568 15.600000000000003 1.08
   vertex 183.6253837398568 0.001 1.08
   vertex 214.04787900075 0.001 1.08
  endloop
 endfacet
 facet normal 0.0 0.0 -1.0
  outer loop
   vertex 229.6002125756113 4.41134794399548 0
   vertex 219.7080651594998 16.200000000000006 0
   vertex 229.59966644514503 16.200000000000006 0
  endloop
 endfacet
 facet normal -0.15869981808832195 -0.13316891430688574 -0.9783048645494199
  outer loop
   vertex 219.7080651594998 16.200000000000006 0
   vertex 229.6002125756113 4.41134794399548 0
   vertex 231.08182420574457 0.001 0.36
  endloop
 endfacet
 facet normal -0.15869981808832212 -0.13316891430688585 -0.9783048645494199
  outer loop
   vertex 216.06233378734726 17.900000000000006 0.36
   vertex 219.7080651594998 16.200000000000006 0
   vertex 231.08182420574457 0.001 0.36
  endloop
 endfacet
 facet normal 0.0 0.20717044190458317 -0.9783048645494202
  outer loop
   vertex 229.59966644514503 16.200000000000006 0
   vertex 219.7080651594998 16.200000000000006 0
   vertex 216.06233378734726 17.900000000000006 0.36
  endloop
 endfacet
 facet normal 0.0 0.20717044190458325 -0.9783048645494204
  outer loop
   vertex 231.29958769141788 17.900000000000006 0.36
   vertex 229.59966644514503 16.200000000000006 0
   vertex 216.06233378734726 17.900000000000006 0.36
  endloop
 endfacet
 facet normal 0.20717044168227372 9.59754256670591e-06 -0.9783048645494198
  outer loop
   vertex 229.6002125756113 4.41134794399548 0
   vertex 229.59966644514503 16.200000000000006 0
   vertex 231.29958769141788 17.900000000000006 0.36
  endloop
 endfacet
 facet normal 0.20717044168227308 9.597542566792575e-06 -0.97830486454942
  outer loop
   vertex 231.30041689472029 0.001 0.36
   vertex 229.6002125756113 4.41134794399548 0
   vertex 231.29958769141788 17.900000000000006 0.36
  endloop
 endfacet
 facet normal 0.0 -0.08135563307758154 -0.9966851363226733
  outer loop
   vertex 231.08182420574457 0.001 0.36
   vertex 229.6002125756113 4.41134794399548 0
   vertex 231.30041689472029 0.001 0.36
  endloop
 endfacet
 facet normal 0.0 -0.0 1.0
  outer loop
   vertex 231.08182420574457 0.001 0.36
   vertex 231.29958769141788 17.900000000000006 0.36
   vertex 216.06233378734726 17.900000000000006 0.36
  endloop
 endfacet
 facet normal 0.0 0.0 1.0
  outer loop
   vertex 231.08182420574457 0.001 0.36
   vertex 231.30041689472029 0.001 0.36
   vertex 231.29958769141788 17.900000000000006 0.36
  endloop
 endfacet
 facet normal 0.0 0.0 -1.0
  outer loop
   vertex 231.08182420574457 0.001 0.72
   vertex 216.06233378734726 17.900000000000006 0.72
   vertex 231.29958769141788 17.900000000000006 0.72
  endloop
 endfacet
 facet normal 0.0 0.0 -1.0
  outer loop
   vertex 231.08182420574457 0.001 0.72
   vertex 231.29958769141788 17.900000000000006 0.72
   vertex 231.30041689472029 0.001 0.72
  endloop
 endfacet
 facet normal -0.15869981808832206 -0.1331689143068858 0.9783048645494199
  outer loop
   vertex 216.06233378734726 17.900000000000006 0.72
   vertex 231.08182420574457 0.001 0.72
   vertex 229.6002125756113 4.41134794399548 1.08
  endloop
 endfacet
 facet normal -0.1586998180883222 -0.1331689143068859 0.9783048645494199
  outer loop
   vertex 219.7080651594998 16.200000000000006 1.08
   vertex 216.06233378734726 17.900000000000006 0.72
   vertex 229.6002125756113 4.41134794399548 1.08
  endloop
 endfacet
 facet normal 0.0 0.2071704419045833 0.9783048645494204
  outer loop
   vertex 231.29958769141788 17.900000000000006 0.72
   vertex 216.06233378734726 17.900000000000006 0.72
   vertex 219.7080651594998 16.200000000000006 1.08
  endloop
 endfacet
 facet normal 0.0 0.20717044190458325 0.9783048645494202
  outer loop
   vertex 229.59966644514503 16.200000000000006 1.08
   vertex 231.29958769141788 17.900000000000006 0.72
   vertex 219.7080651594998 16.200000000000006 1.08
  endloop
 endfacet
 facet normal 0.2071704416822737 9.597542566792604e-06 0.9783048645494199
  outer loop
   vertex 231.30041689472029 0.001 0.72
   vertex 231.29958769141788 17.900000000000006 0.72
   vertex 229.59966644514503 16.200000000000006 1.08
  endloop
 endfacet
 facet normal 0.20717044168227294 9.597542566705873e-06 0.9783048645494201
  outer loop
   vertex 229.6002125756113 4.41134794399548 1.08
   vertex 231.30041689472029 0.001 0.72
   vertex 229.59966644514503 16.200000000000006 1.08
  endloop
 endfacet
 facet normal 0.0 -0.08135563307758156 0.9966851363226733
  outer loop
   vertex 231.08182420574457 0.001 0.72
   vertex 231.30041689472029 0.001 0.72
   vertex 229.6002125756113 4.41134794399548 1.08
  endloop
 endfacet
 facet normal 0.0 0.0 1.0
  outer loop
   vertex 229.6002125756113 4.41134794399548 1.08
   vertex 229.59966644514503 16.200000000000006 1.08
   vertex 219.7080651594998 16.200000000000006 1.08
  endloop
 endfacet
 facet normal 0.0 0.0 -1.0
  outer loop
   vertex 219.70806515949974 19.800000000000008 0
   vertex 229.60021257561118 31.588652056004477 0
   vertex 229.59966644514503 19.800000000000008 0
  endloop
 endfacet
 facet normal -0.15869981808832206 0.13316891430688568 -0.9783048645494199
  outer loop
   vertex 229.60021257561118 31.588652056004477 0
   vertex 219.70806515949974 19.800000000000008 0
   vertex 216.0623337873472 18.10000000000001 0.36
  endloop
 endfacet
 facet normal -0.15869981808832245 0.1331689143068861 -0.9783048645494197
  outer loop
   vertex 231.08182420574514 35.99900000000076 0.36
   vertex 229.60021257561118 31.588652056004477 0
   vertex 216.0623337873472 18.10000000000001 0.36
  endloop
 endfacet
 facet normal 0.0 0.08135563307756678 -0.9966851363226745
  outer loop
   vertex 231.30041689472029 35.99900000000076 0.36
   vertex 229.60021257561118 31.588652056004477 0
   vertex 231.08182420574514 35.99900000000076 0.36
  endloop
 endfacet
 facet normal 0.20717044168225465 -9.597542564707173e-06 -0.978304864549424
  outer loop
   vertex 229.59966644514503 19.800000000000008 0
   vertex 229.60021257561118 31.588652056004477 0
   vertex 231.30041689472029 35.99900000000076 0.36
  endloop
 endfacet
 facet normal 0.20717044168227366 -9.5975425667922e-06 -0.9783048645494199
  outer loop
   vertex 231.29958769141788 18.10000000000001 0.36
   vertex 229.59966644514503 19.800000000000008 0
   vertex 231.30041689472029 35.99900000000076 0.36
  endloop
 endfacet
 facet normal 0.0 -0.2071704419045832 -0.9783048645494203
  outer loop
   vertex 219.70806515949974 19.800000000000008 0
   vertex 229.59966644514503 19.800000000000008 0
   vertex 231.29958769141788 18.10000000000001 0.36
  endloop
 endfacet
 facet normal 0.0 -0.2071704419045832 -0.9783048645494203
  outer loop
   vertex 216.0623337873472 18.10000000000001 0.36
   vertex 219.70806515949974 19.800000000000008 0
   vertex 231.29958769141788 18.10000000000001 0.36
  endloop
 endfacet
 facet normal 0.0 0.0 1.0
  outer loop
   vertex 216.0623337873472 18.10000000000001 0.36
   vertex 231.30041689472029 35.99900000000076 0.36
   vertex 231.08182420574514 35.99900000000076 0.36
  endloop
 endfacet
 facet normal 0.0 0.0 1.0
  outer loop
   vertex 216.0623337873472 18.10000000000001 0.36
   vertex 231.29958769141788 18.10000000000001 0.36
   vertex 231.30041689472029 35.99900000000076 0.36
  endloop
 endfacet
 facet normal 0.0 0.0 -1.0
  outer loop
   vertex 216.0623337873472 18.10000000000001 0.72
   vertex 231.08182420574514 35.99900000000076 0.72
   vertex 231.30041689472029 35.99900000000076 0.72
  endloop
 endfacet
 facet normal 0.0 0.0 -1.0
  outer loop
   vertex 216.0623337873472 18.10000000000001 0.72
   vertex 231.30041689472029 35.99900000000076 0.72
   vertex 231.29958769141788 18.10000000000001 0.72
  endloop
 endfacet
 facet normal -0.15869981808832212 0.13316891430688582 0.9783048645494198
  outer loop
   vertex 231.08182420574514 35.99900000000076 0.72
   vertex 216.0623337873472 18.10000000000001 0.72
   vertex 219.70806515949974 19.800000000000008 1.08
  endloop
 endfacet
 facet normal -0.15869981808832268 0.13316891430688618 0.9783048645494198
  outer loop
   vertex 229.60021257561118 31.588652056004477 1.08
   vertex 231.08182420574514 35.99900000000076 0.72
   vertex 219.70806515949974 19.800000000000008 1.08
  endloop
 endfacet
 facet normal 0.0 0.08135563307756681 0.9966851363226745
  outer loop
   vertex 231.30041689472029 35.99900000000076 0.72
   vertex 231.08182420574514 35.99900000000076 0.72
   vertex 229.60021257561118 31.588652056004477 1.08
  endloop
 endfacet
 facet normal 0.2071704416822599 -9.597542566791562e-06 0.9783048645494229
  outer loop
   vertex 231.29958769141788 18.10000000000001 0.72
   vertex 231.30041689472029 35.99900000000076 0.72
   vertex 229.60021257561118 31.588652056004477 1.08
  endloop
 endfacet
 facet normal 0.20717044168227575 -9.597542564708149e-06 0.9783048645494196
  outer loop
   vertex 229.59966644514503 19.800000000000008 1.08
   vertex 231.29958769141788 18.10000000000001 0.72
   vertex 229.60021257561118 31.588652056004477 1.08
  endloop
 endfacet
 facet normal 0.0 -0.20717044190458328 0.9783048645494203
  outer loop
   vertex 216.0623337873472 18.10000000000001 0.72
   vertex 231.29958769141788 18.10000000000001 0.72
   vertex 229.59966644514503 19.800000000000008 1.08
  endloop
 endfacet
 facet normal 0.0 -0.20717044190458328 0.9783048645494203
  outer loop
   vertex 219.70806515949974 19.800000000000008 1.08
   vertex 216.0623337873472 18.10000000000001 0.72
   vertex 229.59966644514503 19.800000000000008 1.08
  endloop
 endfacet
 facet normal 0.0 0.0 1.0
  outer loop
   vertex 219.70806515949974 19.800000000000008 1.08
   vertex 229.59966644514503 19.800000000000008 1.08
   vertex 229.60021257561118 31.588652056004477 1.08
  endloop
 endfacet
 facet normal 0.0 0.0 -1.0
  outer loop
   vertex 233.20041689675915 0.001 0
   vertex 233.1996664490081 16.199999999999996 0
   vertex 264.9975666111491 16.199999999999996 0
  endloop
 endfacet
 facet normal 0.0 0.0 -1.0
  outer loop
   vertex 233.20041689675915 0.001 0
   vertex 264.9975666111491 16.199999999999996 0
   vertex 264.9846669106719 0.001 0
  endloop
 endfacet
 facet normal -0.20717044168227258 -9.597542567040778e-06 -0.97830486454942
  outer loop
   vertex 233.1996664490081 16.199999999999996 0
   vertex 233.20041689675915 0.001 0
   vertex 231.50041689493492 0.001 0.36
  endloop
 endfacet
 facet normal -0.20717044168227486 -9.597542566792663e-06 -0.9783048645494196
  outer loop
   vertex 231.4995876916325 17.899999999999995 0.36
   vertex 233.1996664490081 16.199999999999996 0
   vertex 231.50041689493492 0.001 0.36
  endloop
 endfacet
 facet normal 0.0 0.2071704419045832 -0.9783048645494203
  outer loop
   vertex 264.9975666111491 16.199999999999996 0
   vertex 233.1996664490081 16.199999999999996 0
   vertex 231.4995876916325 17.899999999999995 0.36
  endloop
 endfacet
 facet normal 0.0 0.20717044190458322 -0.9783048645494204
  outer loop
   vertex 264.9989203669866 17.899999999999995 0.36
   vertex 264.9975666111491 16.199999999999996 0
   vertex 231.4995876916325 17.899999999999995 0.36
  endloop
 endfacet
 facet normal 0.9999996829318346 -0.0007963267107330257 -5.602858416307656e-14
  outer loop
   vertex 264.9846669106719 0.001 0
   vertex 264.9975666111491 16.199999999999996 0
   vertex 264.9989203669866 17.899999999999995 0.36
  endloop
 endfacet
 facet normal 0.9999996829318346 -0.0007963267107341526 0.0
  outer loop
   vertex 264.9846669106719 0.001 0.36
   vertex 264.9846669106719 0.001 0
   vertex 264.9989203669866 17.899999999999995 0.36
  endloop
 endfacet
 facet normal 0.0 -1.0 0.0
  outer loop
   vertex 233.20041689675915 0.001 0
   vertex 264.9846669106719 0.001 0
   vertex 264.9846669106719 0.001 0.36
  endloop
 endfacet
 facet normal 0.0 -1.0 0.0
  outer loop
   vertex 231.50041689493492 0.001 0.36
   vertex 233.20041689675915 0.001 0
   vertex 264.9846669106719 0.001 0.36
  endloop
 endfacet
 facet normal 0.0 -0.0 1.0
  outer loop
   vertex 231.50041689493492 0.001 0.36
   vertex 264.9989203669866 17.899999999999995 0.36
   vertex 231.4995876916325 17.899999999999995 0.36
  endloop
 endfacet
 facet normal 0.0 0.0 1.0
  outer loop
   vertex 231.50041689493492 0.001 0.36
   vertex 264.9846669106719 0.001 0.36
   vertex 264.9989203669866 17.899999999999995 0.36
  endloop
 endfacet
 facet normal 0.0 0.0 -1.0
  outer loop
   vertex 231.50041689493492 0.001 0.72
   vertex 231.4995876916325 17.899999999999995 0.72
   vertex 264.9989203669866 17.899999999999995 0.72
  endloop
 endfacet
 facet normal 0.0 0.0 -1.0
  outer loop
   vertex 231.50041689493492 0.001 0.72
   vertex 264.9989203669866 17.899999999999995 0.72
   vertex 264.9846669106719 0.001 0.72
  endloop
 endfacet
 facet normal -0.2071704416822727 -9.597542566792562e-06 0.9783048645494202
  outer loop
   vertex 231.4995876916325 17.899999999999995 0.72
   vertex 231.50041689493492 0.001 0.72
   vertex 233.20041689675915 0.001 1.08
  endloop
 endfacet
 facet normal -0.2071704416822752 -9.597542567040898e-06 0.9783048645494197
  outer loop
   vertex 233.1996664490081 16.199999999999996 1.08
   vertex 231.4995876916325 17.899999999999995 0.72
   vertex 233.20041689675915 0.001 1.08
  endloop
 endfacet
 facet normal 0.0 0.20717044190458328 0.9783048645494204
  outer loop
   vertex 264.9989203669866 17.899999999999995 0.72
   vertex 231.4995876916325 17.899999999999995 0.72
   vertex 233.1996664490081 16.199999999999996 1.08
  endloop
 endfacet
 facet normal 0.0 0.20717044190458328 0.9783048645494203
  outer loop
   vertex 264.9975666111491 16.199999999999996 1.08
   vertex 264.9989203669866 17.899999999999995 0.72
   vertex 233.1996664490081 16.199999999999996 1.08
  endloop
 endfacet
 facet normal 0.9999996829318346 -0.0007963267107341526 5.070713642425146e-14
  outer loop
   vertex 264.9846669106719 0.001 0.72
   vertex 264.9989203669866 17.899999999999995 0.72
   vertex 264.9975666111491 16.199999999999996 1.08
  endloop
 endfacet
 facet normal 0.9999996829318346 -0.0007963267107330258 0.0
  outer loop
   vertex 264.9846669106719 0.001 1.08
   vertex 264.9846669106719 0.001 0.72
   vertex 264.9975666111491 16.199999999999996 1.08
  endloop
 endfacet
 facet normal 0.0 -1.0 0.0
  outer loop
   vertex 231.50041689493492 0.001 0.72
   vertex 264.9846669106719 0.001 0.72
   vertex 264.9846669106719 0.001 1.08
  endloop
 endfacet
 facet normal 0.0 -1.0 -0.0
  outer loop
   vertex 233.20041689675915 0.001 1.08
   vertex 231.50041689493492 0.001 0.72
   vertex 264.9846669106719 0.001 1.08
  endloop
 endfacet
 facet normal 0.0 -0.0 1.0
  outer loop
   vertex 233.20041689675915 0.001 1.08
   vertex 264.9975666111491 16.199999999999996 1.08
   vertex 233.1996664490081 16.199999999999996 1.08
  endloop
 endfacet
 facet normal 0.0 0.0 1.0
  outer loop
   vertex 233.20041689675915 0.001 1.08
   vertex 264.9846669106719 0.001 1.08
   vertex 264.9975666111491 16.199999999999996 1.08
  endloop
 endfacet
 facet normal 0.0 0.0 -1.0
  outer loop
   vertex 233.1996664490081 19.799999999999997 0
   vertex 233.20041689675915 35.99899999999995 0
   vertex 264.98466691067193 35.99899999999995 0
  endloop
 endfacet
 facet normal 0.0 0.0 -1.0
  outer loop
   vertex 233.1996664490081 19.799999999999997 0
   vertex 264.98466691067193 35.99899999999995 0
   vertex 264.9975666111492 19.799999999999997 0
  endloop
 endfacet
 facet normal -0.2071704416822751 9.597542567040918e-06 -0.9783048645494196
  outer loop
   vertex 233.20041689675915 35.99899999999995 0
   vertex 233.1996664490081 19.799999999999997 0
   vertex 231.4995876916325 18.099999999999998 0.36
  endloop
 endfacet
 facet normal -0.2071704416822726 9.59754256679258e-06 -0.9783048645494201
  outer loop
   vertex 231.50041689493492 35.99899999999995 0.36
   vertex 233.20041689675915 35.99899999999995 0
   vertex 231.4995876916325 18.099999999999998 0.36
  endloop
 endfacet
 facet normal 0.0 1.0 0.0
  outer loop
   vertex 264.98466691067193 35.99899999999995 0
   vertex 233.20041689675915 35.99899999999995 0
   vertex 231.50041689493492 35.99899999999995 0.36
  endloop
 endfacet
 facet normal 0.0 1.0 0.0
  outer loop
   vertex 264.98466691067193 35.99899999999995 0.36
   vertex 264.98466691067193 35.99899999999995 0
   vertex 231.50041689493492 35.99899999999995 0.36
  endloop
 endfacet
 facet normal 0.9999996829318346 0.0007963267107330275 0.0
  outer loop
   vertex 264.9975666111492 19.799999999999997 0
   vertex 264.98466691067193 35.99899999999995 0
   vertex 264.98466691067193 35.99899999999995 0.36
  endloop
 endfacet
 facet normal 0.9999996829318346 0.0007963267107341543 -5.0699059981778304e-14
  outer loop
   vertex 264.9989203669867 18.099999999999998 0.36
   vertex 264.9975666111492 19.799999999999997 0
   vertex 264.98466691067193 35.99899999999995 0.36
  endloop
 endfacet
 facet normal 0.0 -0.20717044190458322 -0.9783048645494203
  outer loop
   vertex 233.1996664490081 19.799999999999997 0
   vertex 264.9975666111492 19.799999999999997 0
   vertex 264.9989203669867 18.099999999999998 0.36
  endloop
 endfacet
 facet normal 0.0 -0.20717044190458322 -0.9783048645494203
  outer loop
   vertex 231.4995876916325 18.099999999999998 0.36
   vertex 233.1996664490081 19.799999999999997 0
   vertex 264.9989203669867 18.099999999999998 0.36
  endloop
 endfacet
 facet normal 0.0 0.0 1.0
  outer loop
   vertex 231.4995876916325 18.099999999999998 0.36
   vertex 264.98466691067193 35.99899999999995 0.36
   vertex 231.50041689493492 35.99899999999995 0.36
  endloop
 endfacet
 facet normal 0.0 0.0 1.0
  outer loop
   vertex 231.4995876916325 18.099999999999998 0.36
   vertex 264.9989203669867 18.099999999999998 0.36
   vertex 264.98466691067193 35.99899999999995 0.36
  endloop
 endfacet
 facet normal 0.0 0.0 -1.0
  outer loop
   vertex 231.4995876916325 18.099999999999998 0.72
   vertex 231.50041689493492 35.99899999999995 0.72
   vertex 264.98466691067193 35.99899999999995 0.72
  endloop
 endfacet
 facet normal 0.0 0.0 -1.0
  outer loop
   vertex 231.4995876916325 18.099999999999998 0.72
   vertex 264.98466691067193 35.99899999999995 0.72
   vertex 264.9989203669867 18.099999999999998 0.72
  endloop
 endfacet
 facet normal -0.20717044168227491 9.597542566792685e-06 0.9783048645494196
  outer loop
   vertex 231.50041689493492 35.99899999999995 0.72
   vertex 231.4995876916325 18.099999999999998 0.72
   vertex 233.1996664490081 19.799999999999997 1.08
  endloop
 endfacet
 facet normal -0.2071704416822727 9.597542567040805e-06 0.9783048645494201
  outer loop
   vertex 233.20041689675915 35.99899999999995 1.08
   vertex 231.50041689493492 35.99899999999995 0.72
   vertex 233.1996664490081 19.799999999999997 1.08
  endloop
 endfacet
 facet normal 0.0 1.0 0.0
  outer loop
   vertex 264.98466691067193 35.99899999999995 0.72
   vertex 231.50041689493492 35.99899999999995 0.72
   vertex 233.20041689675915 35.99899999999995 1.08
  endloop
 endfacet
 facet normal 0.0 1.0 0.0
  outer loop
   vertex 264.98466691067193 35.99899999999995 1.08
   vertex 264.98466691067193 35.99899999999995 0.72
   vertex 233.20041689675915 35.99899999999995 1.08
  endloop
 endfacet
 facet normal 0.9999996829318346 0.0007963267107341543 0.0
  outer loop
   vertex 264.9989203669867 18.099999999999998 0.72
   vertex 264.98466691067193 35.99899999999995 0.72
   vertex 264.98466691067193 35.99899999999995 1.08
  endloop
 endfacet
 facet normal 0.9999996829318346 0.0007963267107330275 5.601906520552263e-14
  outer loop
   vertex 264.9975666111492 19.799999999999997 1.08
   vertex 264.9989203669867 18.099999999999998 0.72
   vertex 264.98466691067193 35.99899999999995 1.08
  endloop
 endfacet
 facet normal 0.0 -0.20717044190458328 0.9783048645494203
  outer loop
   vertex 231.4995876916325 18.099999999999998 0.72
   vertex 264.9989203669867 18.099999999999998 0.72
   vertex 264.9975666111492 19.799999999999997 1.08
  endloop
 endfacet
 facet normal 0.0 -0.20717044190458328 0.9783048645494203
  outer loop
   vertex 233.1996664490081 19.799999999999997 1.08
   vertex 231.4995876916325 18.099999999999998 0.72
   vertex 264.9975666111492 19.799999999999997 1.08
  endloop
 endfacet
 facet normal 0.0 0.0 1.0
  outer loop
   vertex 233.1996664490081 19.799999999999997 1.08
   vertex 264.98466691067193 35.99899999999995 1.08
   vertex 233.20041689675915 35.99899999999995 1.08
  endloop
 endfacet
 facet normal 0.0 0.0 1.0
  outer loop
   vertex 233.1996664490081 19.799999999999997 1.08
   vertex 264.9975666111492 19.799999999999997 1.08
   vertex 264.98466691067193 35.99899999999995 1.08
  endloop
 endfacet
endsolid
