solid PyGamic generated __Board__ SLA File
 facet normal 0.0 -0.0 -1.0
  outer loop
   vertex -0.00027412282408884297 21.9 0
   vertex 19.8881270750628 21.9 0
   vertex -0.016122887017435843 1.9976672581850703 0
  endloop
 endfacet
 facet normal 0.0 1.0 0.0
  outer loop
   vertex 19.8881270750628 21.9 0
   vertex -0.00027412282408884297 21.9 0
   vertex -0.00027412282408884297 21.9 0.4
  endloop
 endfacet
 facet normal 0.0 1.0 0.0
  outer loop
   vertex 19.8881270750628 21.9 0.4
   vertex 19.8881270750628 21.9 0
   vertex -0.00027412282408884297 21.9 0.4
  endloop
 endfacet
 facet normal 0.7070727237014777 -0.7071408370313327 0.0
  outer loop
   vertex -0.016122887017435843 1.9976672581850703 0
   vertex 19.8881270750628 21.9 0
   vertex 19.8881270750628 21.9 0.4
  endloop
 endfacet
 facet normal 0.7070727237014777 -0.7071408370313327 0.0
  outer loop
   vertex -0.016122887017435843 1.9976672581850703 0.4
   vertex -0.016122887017435843 1.9976672581850703 0
   vertex 19.8881270750628 21.9 0.4
  endloop
 endfacet
 facet normal -0.9999996829318346 0.0007963267107332635 0.0
  outer loop
   vertex -0.00027412282408884297 21.9 0
   vertex -0.016122887017435843 1.9976672581850703 0
   vertex -0.016122887017435843 1.9976672581850703 0.4
  endloop
 endfacet
 facet normal -0.9999996829318346 0.0007963267107332635 0.0
  outer loop
   vertex -0.00027412282408884297 21.9 0.4
   vertex -0.00027412282408884297 21.9 0
   vertex -0.016122887017435843 1.9976672581850703 0.4
  endloop
 endfacet
 facet normal -0.0 0.0 1.0
  outer loop
   vertex -0.00027412282408884297 21.9 0.4
   vertex -0.016122887017435843 1.9976672581850703 0.4
   vertex 19.8881270750628 21.9 0.4
  endloop
 endfacet
 facet normal 0.0 0.0 -1.0
  outer loop
   vertex 19.888127075062794 25.1 0
   vertex -0.00027412282408884297 25.1 0
   vertex -0.016122887017435833 45.00233274181492 0
  endloop
 endfacet
 facet normal 0.0 -1.0 0.0
  outer loop
   vertex -0.00027412282408884297 25.1 0
   vertex 19.888127075062794 25.1 0
   vertex 19.888127075062794 25.1 0.4
  endloop
 endfacet
 facet normal 0.0 -1.0 0.0
  outer loop
   vertex -0.00027412282408884297 25.1 0.4
   vertex -0.00027412282408884297 25.1 0
   vertex 19.888127075062794 25.1 0.4
  endloop
 endfacet
 facet normal -0.9999996829318346 -0.0007963267107332633 0.0
  outer loop
   vertex -0.016122887017435833 45.00233274181492 0
   vertex -0.00027412282408884297 25.1 0
   vertex -0.00027412282408884297 25.1 0.4
  endloop
 endfacet
 facet normal -0.9999996829318346 -0.0007963267107332633 -0.0
  outer loop
   vertex -0.016122887017435833 45.00233274181492 0.4
   vertex -0.016122887017435833 45.00233274181492 0
   vertex -0.00027412282408884297 25.1 0.4
  endloop
 endfacet
 facet normal 0.7070727237014776 0.7071408370313328 0.0
  outer loop
   vertex 19.888127075062794 25.1 0
   vertex -0.016122887017435833 45.00233274181492 0
   vertex -0.016122887017435833 45.00233274181492 0.4
  endloop
 endfacet
 facet normal 0.7070727237014776 0.7071408370313328 0.0
  outer loop
   vertex 19.888127075062794 25.1 0.4
   vertex 19.888127075062794 25.1 0
   vertex -0.016122887017435833 45.00233274181492 0.4
  endloop
 endfacet
 facet normal 0.0 0.0 1.0
  outer loop
   vertex 19.888127075062794 25.1 0.4
   vertex -0.016122887017435833 45.00233274181492 0.4
   vertex -0.00027412282408884297 25.1 0.4
  endloop
 endfacet
 facet normal 0.0 -0.0 -1.0
  outer loop
   vertex 23.999999999999996 21.486211407788726 0
   vertex 45.48728110902676 0.001 0
   vertex 2.5127188909732383 0.001 0
  endloop
 endfacet
 facet normal 0.7070727237014774 0.7071408370313327 0.0
  outer loop
   vertex 45.48728110902676 0.001 0
   vertex 23.999999999999996 21.486211407788726 0
   vertex 23.999999999999996 21.486211407788726 0.4
  endloop
 endfacet
 facet normal 0.7070727237014774 0.7071408370313327 0.0
  outer loop
   vertex 45.48728110902676 0.001 0.4
   vertex 45.48728110902676 0.001 0
   vertex 23.999999999999996 21.486211407788726 0.4
  endloop
 endfacet
 facet normal 0.0 -1.0 0.0
  outer loop
   vertex 2.5127188909732383 0.001 0
   vertex 45.48728110902676 0.001 0
   vertex 45.48728110902676 0.001 0.4
  endloop
 endfacet
 facet normal 0.0 -1.0 0.0
  outer loop
   vertex 2.5127188909732383 0.001 0.4
   vertex 2.5127188909732383 0.001 0
   vertex 45.48728110902676 0.001 0.4
  endloop
 endfacet
 facet normal -0.7070727237014777 0.7071408370313327 0.0
  outer loop
   vertex 23.999999999999996 21.486211407788726 0
   vertex 2.5127188909732383 0.001 0
   vertex 2.5127188909732383 0.001 0.4
  endloop
 endfacet
 facet normal -0.7070727237014777 0.7071408370313327 0.0
  outer loop
   vertex 23.999999999999996 21.486211407788726 0.4
   vertex 23.999999999999996 21.486211407788726 0
   vertex 2.5127188909732383 0.001 0.4
  endloop
 endfacet
 facet normal 0.0 0.0 1.0
  outer loop
   vertex 23.999999999999996 21.486211407788726 0.4
   vertex 2.5127188909732383 0.001 0.4
   vertex 45.48728110902676 0.001 0.4
  endloop
 endfacet
 facet normal 0.0 0.0 -1.0
  outer loop
   vertex 23.999999999999993 25.51378859221127 0
   vertex 4.111872924937197 45.4 0
   vertex 43.888127075062805 45.4 0
  endloop
 endfacet
 facet normal -0.7070727237014777 -0.7071408370313326 0.0
  outer loop
   vertex 4.111872924937197 45.4 0
   vertex 23.999999999999993 25.51378859221127 0
   vertex 23.999999999999993 25.51378859221127 0.4
  endloop
 endfacet
 facet normal -0.7070727237014777 -0.7071408370313326 -0.0
  outer loop
   vertex 4.111872924937197 45.4 0.4
   vertex 4.111872924937197 45.4 0
   vertex 23.999999999999993 25.51378859221127 0.4
  endloop
 endfacet
 facet normal 0.0 1.0 0.0
  outer loop
   vertex 43.888127075062805 45.4 0
   vertex 4.111872924937197 45.4 0
   vertex 4.111872924937197 45.4 0.4
  endloop
 endfacet
 facet normal 0.0 1.0 0.0
  outer loop
   vertex 43.888127075062805 45.4 0.4
   vertex 43.888127075062805 45.4 0
   vertex 4.111872924937197 45.4 0.4
  endloop
 endfacet
 facet normal 0.7070727237014774 -0.7071408370313329 0.0
  outer loop
   vertex 23.999999999999993 25.51378859221127 0
   vertex 43.888127075062805 45.4 0
   vertex 43.888127075062805 45.4 0.4
  endloop
 endfacet
 facet normal 0.7070727237014774 -0.7071408370313329 0.0
  outer loop
   vertex 23.999999999999993 25.51378859221127 0.4
   vertex 23.999999999999993 25.51378859221127 0
   vertex 43.888127075062805 45.4 0.4
  endloop
 endfacet
 facet normal 0.0 -0.0 1.0
  outer loop
   vertex 23.999999999999993 25.51378859221127 0.4
   vertex 43.888127075062805 45.4 0.4
   vertex 4.111872924937197 45.4 0.4
  endloop
 endfacet
 facet normal 0.0 0.0 -1.0
  outer loop
   vertex 28.111872924937195 21.900000000000002 0
   vertex 46.39902227560569 21.900000000000002 0
   vertex 46.40078381808772 3.6128507341733713 0
  endloop
 endfacet
 facet normal 0.0 1.0 0.0
  outer loop
   vertex 46.39902227560569 21.900000000000002 0
   vertex 28.111872924937195 21.900000000000002 0
   vertex 28.111872924937195 21.900000000000002 0.4
  endloop
 endfacet
 facet normal 0.0 1.0 0.0
  outer loop
   vertex 46.39902227560569 21.900000000000002 0.4
   vertex 46.39902227560569 21.900000000000002 0
   vertex 28.111872924937195 21.900000000000002 0.4
  endloop
 endfacet
 facet normal 0.9999999953605743 9.632679474807288e-05 0.0
  outer loop
   vertex 46.40078381808772 3.6128507341733713 0
   vertex 46.39902227560569 21.900000000000002 0
   vertex 46.39902227560569 21.900000000000002 0.4
  endloop
 endfacet
 facet normal 0.9999999953605743 9.632679474807288e-05 0.0
  outer loop
   vertex 46.40078381808772 3.6128507341733713 0.4
   vertex 46.40078381808772 3.6128507341733713 0
   vertex 46.39902227560569 21.900000000000002 0.4
  endloop
 endfacet
 facet normal -0.7070727237014777 -0.7071408370313326 0.0
  outer loop
   vertex 28.111872924937195 21.900000000000002 0
   vertex 46.40078381808772 3.6128507341733713 0
   vertex 46.40078381808772 3.6128507341733713 0.4
  endloop
 endfacet
 facet normal -0.7070727237014777 -0.7071408370313326 -0.0
  outer loop
   vertex 28.111872924937195 21.900000000000002 0.4
   vertex 28.111872924937195 21.900000000000002 0
   vertex 46.40078381808772 3.6128507341733713 0.4
  endloop
 endfacet
 facet normal -0.0 0.0 1.0
  outer loop
   vertex 28.111872924937195 21.900000000000002 0.4
   vertex 46.40078381808772 3.6128507341733713 0.4
   vertex 46.39902227560569 21.900000000000002 0.4
  endloop
 endfacet
 facet normal 0.0 0.0 -1.0
  outer loop
   vertex 46.3990222756057 25.100000000000005 0
   vertex 28.111872924937206 25.100000000000005 0
   vertex 46.40078381808773 43.38714926582664 0
  endloop
 endfacet
 facet normal 0.0 -1.0 0.0
  outer loop
   vertex 28.111872924937206 25.100000000000005 0
   vertex 46.3990222756057 25.100000000000005 0
   vertex 46.3990222756057 25.100000000000005 0.4
  endloop
 endfacet
 facet normal 0.0 -1.0 0.0
  outer loop
   vertex 28.111872924937206 25.100000000000005 0.4
   vertex 28.111872924937206 25.100000000000005 0
   vertex 46.3990222756057 25.100000000000005 0.4
  endloop
 endfacet
 facet normal -0.7070727237014777 0.7071408370313326 0.0
  outer loop
   vertex 46.40078381808773 43.38714926582664 0
   vertex 28.111872924937206 25.100000000000005 0
   vertex 28.111872924937206 25.100000000000005 0.4
  endloop
 endfacet
 facet normal -0.7070727237014777 0.7071408370313326 0.0
  outer loop
   vertex 46.40078381808773 43.38714926582664 0.4
   vertex 46.40078381808773 43.38714926582664 0
   vertex 28.111872924937206 25.100000000000005 0.4
  endloop
 endfacet
 facet normal 0.9999999953605743 -9.632679474807285e-05 0.0
  outer loop
   vertex 46.3990222756057 25.100000000000005 0
   vertex 46.40078381808773 43.38714926582664 0
   vertex 46.40078381808773 43.38714926582664 0.4
  endloop
 endfacet
 facet normal 0.9999999953605743 -9.632679474807285e-05 0.0
  outer loop
   vertex 46.3990222756057 25.100000000000005 0.4
   vertex 46.3990222756057 25.100000000000005 0
   vertex 46.40078381808773 43.38714926582664 0.4
  endloop
 endfacet
 facet normal 0.0 -0.0 1.0
  outer loop
   vertex 46.3990222756057 25.100000000000005 0.4
   vertex 46.40078381808773 43.38714926582664 0.4
   vertex 28.111872924937206 25.100000000000005 0.4
  endloop
 endfacet
 facet normal 0.0 0.0 -1.0
  outer loop
   vertex 49.59921618191229 19.887149265826622 0
   vertex 69.48728110902675 0.001 0
   vertex 49.60113175093983 0.001 0
  endloop
 endfacet
 facet normal 0.7070727237014779 0.7071408370313326 0.0
  outer loop
   vertex 69.48728110902675 0.001 0
   vertex 49.59921618191229 19.887149265826622 0
   vertex 49.59921618191229 19.887149265826622 0.4
  endloop
 endfacet
 facet normal 0.7070727237014779 0.7071408370313326 0.0
  outer loop
   vertex 69.48728110902675 0.001 0.4
   vertex 69.48728110902675 0.001 0
   vertex 49.59921618191229 19.887149265826622 0.4
  endloop
 endfacet
 facet normal 0.0 -1.0 0.0
  outer loop
   vertex 49.60113175093983 0.001 0
   vertex 69.48728110902675 0.001 0
   vertex 69.48728110902675 0.001 0.4
  endloop
 endfacet
 facet normal 0.0 -1.0 0.0
  outer loop
   vertex 49.60113175093983 0.001 0.4
   vertex 49.60113175093983 0.001 0
   vertex 69.48728110902675 0.001 0.4
  endloop
 endfacet
 facet normal -0.9999999953605743 -9.632679474768816e-05 0.0
  outer loop
   vertex 49.59921618191229 19.887149265826622 0
   vertex 49.60113175093983 0.001 0
   vertex 49.60113175093983 0.001 0.4
  endloop
 endfacet
 facet normal -0.9999999953605743 -9.632679474768816e-05 -0.0
  outer loop
   vertex 49.59921618191229 19.887149265826622 0.4
   vertex 49.59921618191229 19.887149265826622 0
   vertex 49.60113175093983 0.001 0.4
  endloop
 endfacet
 facet normal 0.0 0.0 1.0
  outer loop
   vertex 49.59921618191229 19.887149265826622 0.4
   vertex 49.60113175093983 0.001 0.4
   vertex 69.48728110902675 0.001 0.4
  endloop
 endfacet
 facet normal 0.0 0.0 -1.0
  outer loop
   vertex 49.599216181912304 27.112850734173406 0
   vertex 49.600977724394326 45.400000000000006 0
   vertex 67.88812707506281 45.400000000000006 0
  endloop
 endfacet
 facet normal -0.9999999953605743 9.63267947476845e-05 0.0
  outer loop
   vertex 49.600977724394326 45.400000000000006 0
   vertex 49.599216181912304 27.112850734173406 0
   vertex 49.599216181912304 27.112850734173406 0.4
  endloop
 endfacet
 facet normal -0.9999999953605743 9.63267947476845e-05 0.0
  outer loop
   vertex 49.600977724394326 45.400000000000006 0.4
   vertex 49.600977724394326 45.400000000000006 0
   vertex 49.599216181912304 27.112850734173406 0.4
  endloop
 endfacet
 facet normal 0.0 1.0 0.0
  outer loop
   vertex 67.88812707506281 45.400000000000006 0
   vertex 49.600977724394326 45.400000000000006 0
   vertex 49.600977724394326 45.400000000000006 0.4
  endloop
 endfacet
 facet normal 0.0 1.0 0.0
  outer loop
   vertex 67.88812707506281 45.400000000000006 0.4
   vertex 67.88812707506281 45.400000000000006 0
   vertex 49.600977724394326 45.400000000000006 0.4
  endloop
 endfacet
 facet normal 0.7070727237014774 -0.7071408370313331 0.0
  outer loop
   vertex 49.599216181912304 27.112850734173406 0
   vertex 67.88812707506281 45.400000000000006 0
   vertex 67.88812707506281 45.400000000000006 0.4
  endloop
 endfacet
 facet normal 0.7070727237014774 -0.7071408370313331 0.0
  outer loop
   vertex 49.599216181912304 27.112850734173406 0.4
   vertex 49.599216181912304 27.112850734173406 0
   vertex 67.88812707506281 45.400000000000006 0.4
  endloop
 endfacet
 facet normal 0.0 0.0 1.0
  outer loop
   vertex 49.599216181912304 27.112850734173406 0.4
   vertex 67.88812707506281 45.400000000000006 0.4
   vertex 49.600977724394326 45.400000000000006 0.4
  endloop
 endfacet
 facet normal 0.0 0.0 -1.0
  outer loop
   vertex 52.1118729249372 21.9 0
   vertex 91.88812707506278 21.9 0
   vertex 72.0 2.013788592211265 0
  endloop
 endfacet
 facet normal 0.0 1.0 0.0
  outer loop
   vertex 91.88812707506278 21.9 0
   vertex 52.1118729249372 21.9 0
   vertex 52.1118729249372 21.9 0.4
  endloop
 endfacet
 facet normal 0.0 1.0 0.0
  outer loop
   vertex 91.88812707506278 21.9 0.4
   vertex 91.88812707506278 21.9 0
   vertex 52.1118729249372 21.9 0.4
  endloop
 endfacet
 facet normal 0.7070727237014782 -0.7071408370313322 0.0
  outer loop
   vertex 72.0 2.013788592211265 0
   vertex 91.88812707506278 21.9 0
   vertex 91.88812707506278 21.9 0.4
  endloop
 endfacet
 facet normal 0.7070727237014782 -0.7071408370313322 0.0
  outer loop
   vertex 72.0 2.013788592211265 0.4
   vertex 72.0 2.013788592211265 0
   vertex 91.88812707506278 21.9 0.4
  endloop
 endfacet
 facet normal -0.7070727237014779 -0.7071408370313325 0.0
  outer loop
   vertex 52.1118729249372 21.9 0
   vertex 72.0 2.013788592211265 0
   vertex 72.0 2.013788592211265 0.4
  endloop
 endfacet
 facet normal -0.7070727237014779 -0.7071408370313325 -0.0
  outer loop
   vertex 52.1118729249372 21.9 0.4
   vertex 52.1118729249372 21.9 0
   vertex 72.0 2.013788592211265 0.4
  endloop
 endfacet
 facet normal -0.0 0.0 1.0
  outer loop
   vertex 52.1118729249372 21.9 0.4
   vertex 72.0 2.013788592211265 0.4
   vertex 91.88812707506278 21.9 0.4
  endloop
 endfacet
 facet normal 0.0 0.0 -1.0
  outer loop
   vertex 91.88812707506278 25.1 0
   vertex 52.111872924937195 25.1 0
   vertex 71.99999999999999 44.986211407788716 0
  endloop
 endfacet
 facet normal 0.0 -1.0 0.0
  outer loop
   vertex 52.111872924937195 25.1 0
   vertex 91.88812707506278 25.1 0
   vertex 91.88812707506278 25.1 0.4
  endloop
 endfacet
 facet normal 0.0 -1.0 0.0
  outer loop
   vertex 52.111872924937195 25.1 0.4
   vertex 52.111872924937195 25.1 0
   vertex 91.88812707506278 25.1 0.4
  endloop
 endfacet
 facet normal -0.7070727237014776 0.7071408370313328 0.0
  outer loop
   vertex 71.99999999999999 44.986211407788716 0
   vertex 52.111872924937195 25.1 0
   vertex 52.111872924937195 25.1 0.4
  endloop
 endfacet
 facet normal -0.7070727237014776 0.7071408370313328 0.0
  outer loop
   vertex 71.99999999999999 44.986211407788716 0.4
   vertex 71.99999999999999 44.986211407788716 0
   vertex 52.111872924937195 25.1 0.4
  endloop
 endfacet
 facet normal 0.7070727237014774 0.7071408370313329 0.0
  outer loop
   vertex 91.88812707506278 25.1 0
   vertex 71.99999999999999 44.986211407788716 0
   vertex 71.99999999999999 44.986211407788716 0.4
  endloop
 endfacet
 facet normal 0.7070727237014774 0.7071408370313329 0.0
  outer loop
   vertex 91.88812707506278 25.1 0.4
   vertex 91.88812707506278 25.1 0
   vertex 71.99999999999999 44.986211407788716 0.4
  endloop
 endfacet
 facet normal 0.0 0.0 1.0
  outer loop
   vertex 91.88812707506278 25.1 0.4
   vertex 71.99999999999999 44.986211407788716 0.4
   vertex 52.111872924937195 25.1 0.4
  endloop
 endfacet
 facet normal 0.0 0.0 -1.0
  outer loop
   vertex 94.40078381808773 19.88714926582665 0
   vertex 94.39886824906019 0.001 0
   vertex 74.51271889097325 0.001 0
  endloop
 endfacet
 facet normal 0.9999999953605743 -9.632679474804534e-05 0.0
  outer loop
   vertex 94.39886824906019 0.001 0
   vertex 94.40078381808773 19.88714926582665 0
   vertex 94.40078381808773 19.88714926582665 0.4
  endloop
 endfacet
 facet normal 0.9999999953605743 -9.632679474804534e-05 0.0
  outer loop
   vertex 94.39886824906019 0.001 0.4
   vertex 94.39886824906019 0.001 0
   vertex 94.40078381808773 19.88714926582665 0.4
  endloop
 endfacet
 facet normal 0.0 -1.0 0.0
  outer loop
   vertex 74.51271889097325 0.001 0
   vertex 94.39886824906019 0.001 0
   vertex 94.39886824906019 0.001 0.4
  endloop
 endfacet
 facet normal 0.0 -1.0 0.0
  outer loop
   vertex 74.51271889097325 0.001 0.4
   vertex 74.51271889097325 0.001 0
   vertex 94.39886824906019 0.001 0.4
  endloop
 endfacet
 facet normal -0.7070727237014779 0.7071408370313325 0.0
  outer loop
   vertex 94.40078381808773 19.88714926582665 0
   vertex 74.51271889097325 0.001 0
   vertex 74.51271889097325 0.001 0.4
  endloop
 endfacet
 facet normal -0.7070727237014779 0.7071408370313325 0.0
  outer loop
   vertex 94.40078381808773 19.88714926582665 0.4
   vertex 94.40078381808773 19.88714926582665 0
   vertex 74.51271889097325 0.001 0.4
  endloop
 endfacet
 facet normal 0.0 0.0 1.0
  outer loop
   vertex 94.40078381808773 19.88714926582665 0.4
   vertex 74.51271889097325 0.001 0.4
   vertex 94.39886824906019 0.001 0.4
  endloop
 endfacet
 facet normal 0.0 0.0 -1.0
  outer loop
   vertex 94.4007838180877 27.11285073417336 0
   vertex 76.11187292493719 45.400000000000006 0
   vertex 94.39902227560567 45.400000000000006 0
  endloop
 endfacet
 facet normal -0.707072723701478 -0.7071408370313322 0.0
  outer loop
   vertex 76.11187292493719 45.400000000000006 0
   vertex 94.4007838180877 27.11285073417336 0
   vertex 94.4007838180877 27.11285073417336 0.4
  endloop
 endfacet
 facet normal -0.707072723701478 -0.7071408370313322 -0.0
  outer loop
   vertex 76.11187292493719 45.400000000000006 0.4
   vertex 76.11187292493719 45.400000000000006 0
   vertex 94.4007838180877 27.11285073417336 0.4
  endloop
 endfacet
 facet normal 0.0 1.0 0.0
  outer loop
   vertex 94.39902227560567 45.400000000000006 0
   vertex 76.11187292493719 45.400000000000006 0
   vertex 76.11187292493719 45.400000000000006 0.4
  endloop
 endfacet
 facet normal 0.0 1.0 0.0
  outer loop
   vertex 94.39902227560567 45.400000000000006 0.4
   vertex 94.39902227560567 45.400000000000006 0
   vertex 76.11187292493719 45.400000000000006 0.4
  endloop
 endfacet
 facet normal 0.9999999953605743 9.632679474807281e-05 0.0
  outer loop
   vertex 94.4007838180877 27.11285073417336 0
   vertex 94.39902227560567 45.400000000000006 0
   vertex 94.39902227560567 45.400000000000006 0.4
  endloop
 endfacet
 facet normal 0.9999999953605743 9.632679474807281e-05 0.0
  outer loop
   vertex 94.4007838180877 27.11285073417336 0.4
   vertex 94.4007838180877 27.11285073417336 0
   vertex 94.39902227560567 45.400000000000006 0.4
  endloop
 endfacet
 facet normal 0.0 0.0 1.0
  outer loop
   vertex 94.4007838180877 27.11285073417336 0.4
   vertex 94.39902227560567 45.400000000000006 0.4
   vertex 76.11187292493719 45.400000000000006 0.4
  endloop
 endfacet
 facet normal 0.0 -0.0 -1.0
  outer loop
   vertex 97.60097772439433 21.900000000000002 0
   vertex 115.88812707506281 21.900000000000002 0
   vertex 97.59921618191231 3.612850734173377 0
  endloop
 endfacet
 facet normal 0.0 1.0 0.0
  outer loop
   vertex 115.88812707506281 21.900000000000002 0
   vertex 97.60097772439433 21.900000000000002 0
   vertex 97.60097772439433 21.900000000000002 0.4
  endloop
 endfacet
 facet normal 0.0 1.0 0.0
  outer loop
   vertex 115.88812707506281 21.900000000000002 0.4
   vertex 115.88812707506281 21.900000000000002 0
   vertex 97.60097772439433 21.900000000000002 0.4
  endloop
 endfacet
 facet normal 0.707072723701478 -0.7071408370313323 0.0
  outer loop
   vertex 97.59921618191231 3.612850734173377 0
   vertex 115.88812707506281 21.900000000000002 0
   vertex 115.88812707506281 21.900000000000002 0.4
  endloop
 endfacet
 facet normal 0.707072723701478 -0.7071408370313323 0.0
  outer loop
   vertex 97.59921618191231 3.612850734173377 0.4
   vertex 97.59921618191231 3.612850734173377 0
   vertex 115.88812707506281 21.900000000000002 0.4
  endloop
 endfacet
 facet normal -0.9999999953605743 9.632679474729582e-05 0.0
  outer loop
   vertex 97.60097772439433 21.900000000000002 0
   vertex 97.59921618191231 3.612850734173377 0
   vertex 97.59921618191231 3.612850734173377 0.4
  endloop
 endfacet
 facet normal -0.9999999953605743 9.632679474729582e-05 0.0
  outer loop
   vertex 97.60097772439433 21.900000000000002 0.4
   vertex 97.60097772439433 21.900000000000002 0
   vertex 97.59921618191231 3.612850734173377 0.4
  endloop
 endfacet
 facet normal -0.0 0.0 1.0
  outer loop
   vertex 97.60097772439433 21.900000000000002 0.4
   vertex 97.59921618191231 3.612850734173377 0.4
   vertex 115.88812707506281 21.900000000000002 0.4
  endloop
 endfacet
 facet normal 0.0 0.0 -1.0
  outer loop
   vertex 115.88812707506278 25.100000000000005 0
   vertex 97.6009777243943 25.100000000000005 0
   vertex 97.59921618191227 43.387149265826615 0
  endloop
 endfacet
 facet normal 0.0 -1.0 0.0
  outer loop
   vertex 97.6009777243943 25.100000000000005 0
   vertex 115.88812707506278 25.100000000000005 0
   vertex 115.88812707506278 25.100000000000005 0.4
  endloop
 endfacet
 facet normal 0.0 -1.0 0.0
  outer loop
   vertex 97.6009777243943 25.100000000000005 0.4
   vertex 97.6009777243943 25.100000000000005 0
   vertex 115.88812707506278 25.100000000000005 0.4
  endloop
 endfacet
 facet normal -0.9999999953605743 -9.6326794748073e-05 0.0
  outer loop
   vertex 97.59921618191227 43.387149265826615 0
   vertex 97.6009777243943 25.100000000000005 0
   vertex 97.6009777243943 25.100000000000005 0.4
  endloop
 endfacet
 facet normal -0.9999999953605743 -9.6326794748073e-05 -0.0
  outer loop
   vertex 97.59921618191227 43.387149265826615 0.4
   vertex 97.59921618191227 43.387149265826615 0
   vertex 97.6009777243943 25.100000000000005 0.4
  endloop
 endfacet
 facet normal 0.7070727237014774 0.707140837031333 0.0
  outer loop
   vertex 115.88812707506278 25.100000000000005 0
   vertex 97.59921618191227 43.387149265826615 0
   vertex 97.59921618191227 43.387149265826615 0.4
  endloop
 endfacet
 facet normal 0.7070727237014774 0.707140837031333 0.0
  outer loop
   vertex 115.88812707506278 25.100000000000005 0.4
   vertex 115.88812707506278 25.100000000000005 0
   vertex 97.59921618191227 43.387149265826615 0.4
  endloop
 endfacet
 facet normal 0.0 0.0 1.0
  outer loop
   vertex 115.88812707506278 25.100000000000005 0.4
   vertex 97.59921618191227 43.387149265826615 0.4
   vertex 97.6009777243943 25.100000000000005 0.4
  endloop
 endfacet
 facet normal 0.0 -0.0 -1.0
  outer loop
   vertex 120.0 21.48621140778872 0
   vertex 141.48728110902672 0.001 0
   vertex 98.51271889097325 0.001 0
  endloop
 endfacet
 facet normal 0.707072723701478 0.7071408370313322 0.0
  outer loop
   vertex 141.48728110902672 0.001 0
   vertex 120.0 21.48621140778872 0
   vertex 120.0 21.48621140778872 0.4
  endloop
 endfacet
 facet normal 0.707072723701478 0.7071408370313322 0.0
  outer loop
   vertex 141.48728110902672 0.001 0.4
   vertex 141.48728110902672 0.001 0
   vertex 120.0 21.48621140778872 0.4
  endloop
 endfacet
 facet normal 0.0 -1.0 0.0
  outer loop
   vertex 98.51271889097325 0.001 0
   vertex 141.48728110902672 0.001 0
   vertex 141.48728110902672 0.001 0.4
  endloop
 endfacet
 facet normal 0.0 -1.0 0.0
  outer loop
   vertex 98.51271889097325 0.001 0.4
   vertex 98.51271889097325 0.001 0
   vertex 141.48728110902672 0.001 0.4
  endloop
 endfacet
 facet normal -0.7070727237014776 0.7071408370313327 0.0
  outer loop
   vertex 120.0 21.48621140778872 0
   vertex 98.51271889097325 0.001 0
   vertex 98.51271889097325 0.001 0.4
  endloop
 endfacet
 facet normal -0.7070727237014776 0.7071408370313327 0.0
  outer loop
   vertex 120.0 21.48621140778872 0.4
   vertex 120.0 21.48621140778872 0
   vertex 98.51271889097325 0.001 0.4
  endloop
 endfacet
 facet normal 0.0 0.0 1.0
  outer loop
   vertex 120.0 21.48621140778872 0.4
   vertex 98.51271889097325 0.001 0.4
   vertex 141.48728110902672 0.001 0.4
  endloop
 endfacet
 facet normal 0.0 0.0 -1.0
  outer loop
   vertex 120.00000000000003 25.513788592211252 0
   vertex 100.1118729249372 45.39999999999999 0
   vertex 139.88812707506278 45.39999999999999 0
  endloop
 endfacet
 facet normal -0.7070727237014774 -0.7071408370313329 0.0
  outer loop
   vertex 100.1118729249372 45.39999999999999 0
   vertex 120.00000000000003 25.513788592211252 0
   vertex 120.00000000000003 25.513788592211252 0.4
  endloop
 endfacet
 facet normal -0.7070727237014774 -0.7071408370313329 -0.0
  outer loop
   vertex 100.1118729249372 45.39999999999999 0.4
   vertex 100.1118729249372 45.39999999999999 0
   vertex 120.00000000000003 25.513788592211252 0.4
  endloop
 endfacet
 facet normal 0.0 1.0 0.0
  outer loop
   vertex 139.88812707506278 45.39999999999999 0
   vertex 100.1118729249372 45.39999999999999 0
   vertex 100.1118729249372 45.39999999999999 0.4
  endloop
 endfacet
 facet normal 0.0 1.0 0.0
  outer loop
   vertex 139.88812707506278 45.39999999999999 0.4
   vertex 139.88812707506278 45.39999999999999 0
   vertex 100.1118729249372 45.39999999999999 0.4
  endloop
 endfacet
 facet normal 0.7070727237014787 -0.7071408370313316 0.0
  outer loop
   vertex 120.00000000000003 25.513788592211252 0
   vertex 139.88812707506278 45.39999999999999 0
   vertex 139.88812707506278 45.39999999999999 0.4
  endloop
 endfacet
 facet normal 0.7070727237014787 -0.7071408370313316 0.0
  outer loop
   vertex 120.00000000000003 25.513788592211252 0.4
   vertex 120.00000000000003 25.513788592211252 0
   vertex 139.88812707506278 45.39999999999999 0.4
  endloop
 endfacet
 facet normal 0.0 -0.0 1.0
  outer loop
   vertex 120.00000000000003 25.513788592211252 0.4
   vertex 139.88812707506278 45.39999999999999 0.4
   vertex 100.1118729249372 45.39999999999999 0.4
  endloop
 endfacet
 facet normal 0.0 0.0 -1.0
  outer loop
   vertex 124.11187292493717 21.9 0
   vertex 143.9977258765418 21.9 0
   vertex 143.98190435886036 2.031882490339713 0
  endloop
 endfacet
 facet normal 0.0 1.0 0.0
  outer loop
   vertex 143.9977258765418 21.9 0
   vertex 124.11187292493717 21.9 0
   vertex 124.11187292493717 21.9 0.4
  endloop
 endfacet
 facet normal 0.0 1.0 0.0
  outer loop
   vertex 143.9977258765418 21.9 0.4
   vertex 143.9977258765418 21.9 0
   vertex 124.11187292493717 21.9 0.4
  endloop
 endfacet
 facet normal 0.9999996829318346 -0.0007963267107340591 0.0
  outer loop
   vertex 143.98190435886036 2.031882490339713 0
   vertex 143.9977258765418 21.9 0
   vertex 143.9977258765418 21.9 0.4
  endloop
 endfacet
 facet normal 0.9999996829318346 -0.0007963267107340591 0.0
  outer loop
   vertex 143.98190435886036 2.031882490339713 0.4
   vertex 143.98190435886036 2.031882490339713 0
   vertex 143.9977258765418 21.9 0.4
  endloop
 endfacet
 facet normal -0.7070727237014779 -0.7071408370313326 0.0
  outer loop
   vertex 124.11187292493717 21.9 0
   vertex 143.98190435886036 2.031882490339713 0
   vertex 143.98190435886036 2.031882490339713 0.4
  endloop
 endfacet
 facet normal -0.7070727237014779 -0.7071408370313326 -0.0
  outer loop
   vertex 124.11187292493717 21.9 0.4
   vertex 124.11187292493717 21.9 0
   vertex 143.98190435886036 2.031882490339713 0.4
  endloop
 endfacet
 facet normal -0.0 0.0 1.0
  outer loop
   vertex 124.11187292493717 21.9 0.4
   vertex 143.98190435886036 2.031882490339713 0.4
   vertex 143.9977258765418 21.9 0.4
  endloop
 endfacet
 facet normal 0.0 0.0 -1.0
  outer loop
   vertex 143.99772587654178 25.1 0
   vertex 124.1118729249372 25.1 0
   vertex 143.98190435886033 44.968117509660225 0
  endloop
 endfacet
 facet normal 0.0 -1.0 0.0
  outer loop
   vertex 124.1118729249372 25.1 0
   vertex 143.99772587654178 25.1 0
   vertex 143.99772587654178 25.1 0.4
  endloop
 endfacet
 facet normal 0.0 -1.0 0.0
  outer loop
   vertex 124.1118729249372 25.1 0.4
   vertex 124.1118729249372 25.1 0
   vertex 143.99772587654178 25.1 0.4
  endloop
 endfacet
 facet normal -0.7070727237014777 0.7071408370313327 0.0
  outer loop
   vertex 143.98190435886033 44.968117509660225 0
   vertex 124.1118729249372 25.1 0
   vertex 124.1118729249372 25.1 0.4
  endloop
 endfacet
 facet normal -0.7070727237014777 0.7071408370313327 0.0
  outer loop
   vertex 143.98190435886033 44.968117509660225 0.4
   vertex 143.98190435886033 44.968117509660225 0
   vertex 124.1118729249372 25.1 0.4
  endloop
 endfacet
 facet normal 0.9999996829318347 0.0007963267107340619 0.0
  outer loop
   vertex 143.99772587654178 25.1 0
   vertex 143.98190435886033 44.968117509660225 0
   vertex 143.98190435886033 44.968117509660225 0.4
  endloop
 endfacet
 facet normal 0.9999996829318347 0.0007963267107340619 0.0
  outer loop
   vertex 143.99772587654178 25.1 0.4
   vertex 143.99772587654178 25.1 0
   vertex 143.98190435886033 44.968117509660225 0.4
  endloop
 endfacet
 facet normal 0.0 0.0 1.0
  outer loop
   vertex 143.99772587654178 25.1 0.4
   vertex 143.98190435886033 44.968117509660225 0.4
   vertex 124.1118729249372 25.1 0.4
  endloop
 endfacet
 facet normal 0.0 -0.0 -1.0
  outer loop
   vertex -0.00027412282408883446 68.9 0
   vertex 19.88812707506281 68.9 0
   vertex -0.01612288701743584 48.99766725818507 0
  endloop
 endfacet
 facet normal 0.0 1.0 0.0
  outer loop
   vertex 19.88812707506281 68.9 0
   vertex -0.00027412282408883446 68.9 0
   vertex -0.00027412282408883446 68.9 0.4
  endloop
 endfacet
 facet normal 0.0 1.0 0.0
  outer loop
   vertex 19.88812707506281 68.9 0.4
   vertex 19.88812707506281 68.9 0
   vertex -0.00027412282408883446 68.9 0.4
  endloop
 endfacet
 facet normal 0.7070727237014777 -0.7071408370313327 0.0
  outer loop
   vertex -0.01612288701743584 48.99766725818507 0
   vertex 19.88812707506281 68.9 0
   vertex 19.88812707506281 68.9 0.4
  endloop
 endfacet
 facet normal 0.7070727237014777 -0.7071408370313327 0.0
  outer loop
   vertex -0.01612288701743584 48.99766725818507 0.4
   vertex -0.01612288701743584 48.99766725818507 0
   vertex 19.88812707506281 68.9 0.4
  endloop
 endfacet
 facet normal -0.9999996829318346 0.0007963267107332633 0.0
  outer loop
   vertex -0.00027412282408883446 68.9 0
   vertex -0.01612288701743584 48.99766725818507 0
   vertex -0.01612288701743584 48.99766725818507 0.4
  endloop
 endfacet
 facet normal -0.9999996829318346 0.0007963267107332633 0.0
  outer loop
   vertex -0.00027412282408883446 68.9 0.4
   vertex -0.00027412282408883446 68.9 0
   vertex -0.01612288701743584 48.99766725818507 0.4
  endloop
 endfacet
 facet normal -0.0 0.0 1.0
  outer loop
   vertex -0.00027412282408883446 68.9 0.4
   vertex -0.01612288701743584 48.99766725818507 0.4
   vertex 19.88812707506281 68.9 0.4
  endloop
 endfacet
 facet normal 0.0 0.0 -1.0
  outer loop
   vertex 19.888127075062794 72.1 0
   vertex -0.00027412282408883446 72.1 0
   vertex -0.01612288701743584 92.00233274181493 0
  endloop
 endfacet
 facet normal 0.0 -1.0 0.0
  outer loop
   vertex -0.00027412282408883446 72.1 0
   vertex 19.888127075062794 72.1 0
   vertex 19.888127075062794 72.1 0.4
  endloop
 endfacet
 facet normal 0.0 -1.0 0.0
  outer loop
   vertex -0.00027412282408883446 72.1 0.4
   vertex -0.00027412282408883446 72.1 0
   vertex 19.888127075062794 72.1 0.4
  endloop
 endfacet
 facet normal -0.9999996829318346 -0.0007963267107332636 0.0
  outer loop
   vertex -0.01612288701743584 92.00233274181493 0
   vertex -0.00027412282408883446 72.1 0
   vertex -0.00027412282408883446 72.1 0.4
  endloop
 endfacet
 facet normal -0.9999996829318346 -0.0007963267107332636 -0.0
  outer loop
   vertex -0.01612288701743584 92.00233274181493 0.4
   vertex -0.01612288701743584 92.00233274181493 0
   vertex -0.00027412282408883446 72.1 0.4
  endloop
 endfacet
 facet normal 0.7070727237014778 0.7071408370313325 0.0
  outer loop
   vertex 19.888127075062794 72.1 0
   vertex -0.01612288701743584 92.00233274181493 0
   vertex -0.01612288701743584 92.00233274181493 0.4
  endloop
 endfacet
 facet normal 0.7070727237014778 0.7071408370313325 0.0
  outer loop
   vertex 19.888127075062794 72.1 0.4
   vertex 19.888127075062794 72.1 0
   vertex -0.01612288701743584 92.00233274181493 0.4
  endloop
 endfacet
 facet normal 0.0 0.0 1.0
  outer loop
   vertex 19.888127075062794 72.1 0.4
   vertex -0.01612288701743584 92.00233274181493 0.4
   vertex -0.00027412282408883446 72.1 0.4
  endloop
 endfacet
 facet normal 0.0 -0.0 -1.0
  outer loop
   vertex 23.999999999999996 68.48621140778873 0
   vertex 43.8881270750628 48.6 0
   vertex 4.111872924937204 48.6 0
  endloop
 endfacet
 facet normal 0.7070727237014777 0.7071408370313327 0.0
  outer loop
   vertex 43.8881270750628 48.6 0
   vertex 23.999999999999996 68.48621140778873 0
   vertex 23.999999999999996 68.48621140778873 0.4
  endloop
 endfacet
 facet normal 0.7070727237014777 0.7071408370313327 0.0
  outer loop
   vertex 43.8881270750628 48.6 0.4
   vertex 43.8881270750628 48.6 0
   vertex 23.999999999999996 68.48621140778873 0.4
  endloop
 endfacet
 facet normal 0.0 -1.0 0.0
  outer loop
   vertex 4.111872924937204 48.6 0
   vertex 43.8881270750628 48.6 0
   vertex 43.8881270750628 48.6 0.4
  endloop
 endfacet
 facet normal 0.0 -1.0 0.0
  outer loop
   vertex 4.111872924937204 48.6 0.4
   vertex 4.111872924937204 48.6 0
   vertex 43.8881270750628 48.6 0.4
  endloop
 endfacet
 facet normal -0.7070727237014779 0.7071408370313326 0.0
  outer loop
   vertex 23.999999999999996 68.48621140778873 0
   vertex 4.111872924937204 48.6 0
   vertex 4.111872924937204 48.6 0.4
  endloop
 endfacet
 facet normal -0.7070727237014779 0.7071408370313326 0.0
  outer loop
   vertex 23.999999999999996 68.48621140778873 0.4
   vertex 23.999999999999996 68.48621140778873 0
   vertex 4.111872924937204 48.6 0.4
  endloop
 endfacet
 facet normal 0.0 0.0 1.0
  outer loop
   vertex 23.999999999999996 68.48621140778873 0.4
   vertex 4.111872924937204 48.6 0.4
   vertex 43.8881270750628 48.6 0.4
  endloop
 endfacet
 facet normal 0.0 0.0 -1.0
  outer loop
   vertex 24.000000000000004 72.51378859221126 0
   vertex 2.5127188909732356 93.999 0
   vertex 45.48728110902676 93.999 0
  endloop
 endfacet
 facet normal -0.7070727237014777 -0.7071408370313327 0.0
  outer loop
   vertex 2.5127188909732356 93.999 0
   vertex 24.000000000000004 72.51378859221126 0
   vertex 24.000000000000004 72.51378859221126 0.4
  endloop
 endfacet
 facet normal -0.7070727237014777 -0.7071408370313327 -0.0
  outer loop
   vertex 2.5127188909732356 93.999 0.4
   vertex 2.5127188909732356 93.999 0
   vertex 24.000000000000004 72.51378859221126 0.4
  endloop
 endfacet
 facet normal 0.0 1.0 0.0
  outer loop
   vertex 45.48728110902676 93.999 0
   vertex 2.5127188909732356 93.999 0
   vertex 2.5127188909732356 93.999 0.4
  endloop
 endfacet
 facet normal 0.0 1.0 0.0
  outer loop
   vertex 45.48728110902676 93.999 0.4
   vertex 45.48728110902676 93.999 0
   vertex 2.5127188909732356 93.999 0.4
  endloop
 endfacet
 facet normal 0.7070727237014779 -0.7071408370313325 0.0
  outer loop
   vertex 24.000000000000004 72.51378859221126 0
   vertex 45.48728110902676 93.999 0
   vertex 45.48728110902676 93.999 0.4
  endloop
 endfacet
 facet normal 0.7070727237014779 -0.7071408370313325 0.0
  outer loop
   vertex 24.000000000000004 72.51378859221126 0.4
   vertex 24.000000000000004 72.51378859221126 0
   vertex 45.48728110902676 93.999 0.4
  endloop
 endfacet
 facet normal 0.0 -0.0 1.0
  outer loop
   vertex 24.000000000000004 72.51378859221126 0.4
   vertex 45.48728110902676 93.999 0.4
   vertex 2.5127188909732356 93.999 0.4
  endloop
 endfacet
 facet normal 0.0 0.0 -1.0
  outer loop
   vertex 28.111872924937206 68.89999999999999 0
   vertex 46.39902227560569 68.89999999999999 0
   vertex 46.40078381808772 50.612850734173385 0
  endloop
 endfacet
 facet normal 0.0 1.0 0.0
  outer loop
   vertex 46.39902227560569 68.89999999999999 0
   vertex 28.111872924937206 68.89999999999999 0
   vertex 28.111872924937206 68.89999999999999 0.4
  endloop
 endfacet
 facet normal 0.0 1.0 0.0
  outer loop
   vertex 46.39902227560569 68.89999999999999 0.4
   vertex 46.39902227560569 68.89999999999999 0
   vertex 28.111872924937206 68.89999999999999 0.4
  endloop
 endfacet
 facet normal 0.9999999953605743 9.632679474807301e-05 0.0
  outer loop
   vertex 46.40078381808772 50.612850734173385 0
   vertex 46.39902227560569 68.89999999999999 0
   vertex 46.39902227560569 68.89999999999999 0.4
  endloop
 endfacet
 facet normal 0.9999999953605743 9.632679474807301e-05 0.0
  outer loop
   vertex 46.40078381808772 50.612850734173385 0.4
   vertex 46.40078381808772 50.612850734173385 0
   vertex 46.39902227560569 68.89999999999999 0.4
  endloop
 endfacet
 facet normal -0.7070727237014774 -0.7071408370313329 0.0
  outer loop
   vertex 28.111872924937206 68.89999999999999 0
   vertex 46.40078381808772 50.612850734173385 0
   vertex 46.40078381808772 50.612850734173385 0.4
  endloop
 endfacet
 facet normal -0.7070727237014774 -0.7071408370313329 -0.0
  outer loop
   vertex 28.111872924937206 68.89999999999999 0.4
   vertex 28.111872924937206 68.89999999999999 0
   vertex 46.40078381808772 50.612850734173385 0.4
  endloop
 endfacet
 facet normal -0.0 0.0 1.0
  outer loop
   vertex 28.111872924937206 68.89999999999999 0.4
   vertex 46.40078381808772 50.612850734173385 0.4
   vertex 46.39902227560569 68.89999999999999 0.4
  endloop
 endfacet
 facet normal 0.0 0.0 -1.0
  outer loop
   vertex 46.3990222756057 72.09999999999998 0
   vertex 28.111872924937185 72.09999999999998 0
   vertex 46.40078381808771 90.38714926582661 0
  endloop
 endfacet
 facet normal 0.0 -1.0 0.0
  outer loop
   vertex 28.111872924937185 72.09999999999998 0
   vertex 46.3990222756057 72.09999999999998 0
   vertex 46.3990222756057 72.09999999999998 0.4
  endloop
 endfacet
 facet normal 0.0 -1.0 0.0
  outer loop
   vertex 28.111872924937185 72.09999999999998 0.4
   vertex 28.111872924937185 72.09999999999998 0
   vertex 46.3990222756057 72.09999999999998 0.4
  endloop
 endfacet
 facet normal -0.7070727237014774 0.7071408370313328 0.0
  outer loop
   vertex 46.40078381808771 90.38714926582661 0
   vertex 28.111872924937185 72.09999999999998 0
   vertex 28.111872924937185 72.09999999999998 0.4
  endloop
 endfacet
 facet normal -0.7070727237014774 0.7071408370313328 0.0
  outer loop
   vertex 46.40078381808771 90.38714926582661 0.4
   vertex 46.40078381808771 90.38714926582661 0
   vertex 28.111872924937185 72.09999999999998 0.4
  endloop
 endfacet
 facet normal 0.9999999953605743 -9.632679474690727e-05 0.0
  outer loop
   vertex 46.3990222756057 72.09999999999998 0
   vertex 46.40078381808771 90.38714926582661 0
   vertex 46.40078381808771 90.38714926582661 0.4
  endloop
 endfacet
 facet normal 0.9999999953605743 -9.632679474690727e-05 0.0
  outer loop
   vertex 46.3990222756057 72.09999999999998 0.4
   vertex 46.3990222756057 72.09999999999998 0
   vertex 46.40078381808771 90.38714926582661 0.4
  endloop
 endfacet
 facet normal 0.0 -0.0 1.0
  outer loop
   vertex 46.3990222756057 72.09999999999998 0.4
   vertex 46.40078381808771 90.38714926582661 0.4
   vertex 28.111872924937185 72.09999999999998 0.4
  endloop
 endfacet
 facet normal 0.0 0.0 -1.0
  outer loop
   vertex 49.599216181912276 66.88714926582665 0
   vertex 67.88812707506281 48.60000000000001 0
   vertex 49.60097772439431 48.60000000000001 0
  endloop
 endfacet
 facet normal 0.7070727237014776 0.7071408370313327 0.0
  outer loop
   vertex 67.88812707506281 48.60000000000001 0
   vertex 49.599216181912276 66.88714926582665 0
   vertex 49.599216181912276 66.88714926582665 0.4
  endloop
 endfacet
 facet normal 0.7070727237014776 0.7071408370313327 0.0
  outer loop
   vertex 67.88812707506281 48.60000000000001 0.4
   vertex 67.88812707506281 48.60000000000001 0
   vertex 49.599216181912276 66.88714926582665 0.4
  endloop
 endfacet
 facet normal 0.0 -1.0 0.0
  outer loop
   vertex 49.60097772439431 48.60000000000001 0
   vertex 67.88812707506281 48.60000000000001 0
   vertex 67.88812707506281 48.60000000000001 0.4
  endloop
 endfacet
 facet normal 0.0 -1.0 0.0
  outer loop
   vertex 49.60097772439431 48.60000000000001 0.4
   vertex 49.60097772439431 48.60000000000001 0
   vertex 67.88812707506281 48.60000000000001 0.4
  endloop
 endfacet
 facet normal -0.9999999953605743 -9.632679474846138e-05 0.0
  outer loop
   vertex 49.599216181912276 66.88714926582665 0
   vertex 49.60097772439431 48.60000000000001 0
   vertex 49.60097772439431 48.60000000000001 0.4
  endloop
 endfacet
 facet normal -0.9999999953605743 -9.632679474846138e-05 -0.0
  outer loop
   vertex 49.599216181912276 66.88714926582665 0.4
   vertex 49.599216181912276 66.88714926582665 0
   vertex 49.60097772439431 48.60000000000001 0.4
  endloop
 endfacet
 facet normal 0.0 0.0 1.0
  outer loop
   vertex 49.599216181912276 66.88714926582665 0.4
   vertex 49.60097772439431 48.60000000000001 0.4
   vertex 67.88812707506281 48.60000000000001 0.4
  endloop
 endfacet
 facet normal 0.0 0.0 -1.0
  outer loop
   vertex 49.59921618191228 74.11285073417336 0
   vertex 49.60113175093984 93.99900000000001 0
   vertex 69.48728110902675 93.99900000000001 0
  endloop
 endfacet
 facet normal -0.9999999953605743 9.632679474875995e-05 0.0
  outer loop
   vertex 49.60113175093984 93.99900000000001 0
   vertex 49.59921618191228 74.11285073417336 0
   vertex 49.59921618191228 74.11285073417336 0.4
  endloop
 endfacet
 facet normal -0.9999999953605743 9.632679474875995e-05 0.0
  outer loop
   vertex 49.60113175093984 93.99900000000001 0.4
   vertex 49.60113175093984 93.99900000000001 0
   vertex 49.59921618191228 74.11285073417336 0.4
  endloop
 endfacet
 facet normal 0.0 1.0 0.0
  outer loop
   vertex 69.48728110902675 93.99900000000001 0
   vertex 49.60113175093984 93.99900000000001 0
   vertex 49.60113175093984 93.99900000000001 0.4
  endloop
 endfacet
 facet normal 0.0 1.0 0.0
  outer loop
   vertex 69.48728110902675 93.99900000000001 0.4
   vertex 69.48728110902675 93.99900000000001 0
   vertex 49.60113175093984 93.99900000000001 0.4
  endloop
 endfacet
 facet normal 0.7070727237014781 -0.7071408370313322 0.0
  outer loop
   vertex 49.59921618191228 74.11285073417336 0
   vertex 69.48728110902675 93.99900000000001 0
   vertex 69.48728110902675 93.99900000000001 0.4
  endloop
 endfacet
 facet normal 0.7070727237014781 -0.7071408370313322 0.0
  outer loop
   vertex 49.59921618191228 74.11285073417336 0.4
   vertex 49.59921618191228 74.11285073417336 0
   vertex 69.48728110902675 93.99900000000001 0.4
  endloop
 endfacet
 facet normal 0.0 0.0 1.0
  outer loop
   vertex 49.59921618191228 74.11285073417336 0.4
   vertex 69.48728110902675 93.99900000000001 0.4
   vertex 49.60113175093984 93.99900000000001 0.4
  endloop
 endfacet
 facet normal 0.0 0.0 -1.0
  outer loop
   vertex 52.11187292493721 68.9 0
   vertex 91.88812707506278 68.9 0
   vertex 71.99999999999999 49.0137885922113 0
  endloop
 endfacet
 facet normal 0.0 1.0 0.0
  outer loop
   vertex 91.88812707506278 68.9 0
   vertex 52.11187292493721 68.9 0
   vertex 52.11187292493721 68.9 0.4
  endloop
 endfacet
 facet normal 0.0 1.0 0.0
  outer loop
   vertex 91.88812707506278 68.9 0.4
   vertex 91.88812707506278 68.9 0
   vertex 52.11187292493721 68.9 0.4
  endloop
 endfacet
 facet normal 0.7070727237014773 -0.707140837031333 0.0
  outer loop
   vertex 71.99999999999999 49.0137885922113 0
   vertex 91.88812707506278 68.9 0
   vertex 91.88812707506278 68.9 0.4
  endloop
 endfacet
 facet normal 0.7070727237014773 -0.707140837031333 0.0
  outer loop
   vertex 71.99999999999999 49.0137885922113 0.4
   vertex 71.99999999999999 49.0137885922113 0
   vertex 91.88812707506278 68.9 0.4
  endloop
 endfacet
 facet normal -0.7070727237014777 -0.7071408370313326 0.0
  outer loop
   vertex 52.11187292493721 68.9 0
   vertex 71.99999999999999 49.0137885922113 0
   vertex 71.99999999999999 49.0137885922113 0.4
  endloop
 endfacet
 facet normal -0.7070727237014777 -0.7071408370313326 -0.0
  outer loop
   vertex 52.11187292493721 68.9 0.4
   vertex 52.11187292493721 68.9 0
   vertex 71.99999999999999 49.0137885922113 0.4
  endloop
 endfacet
 facet normal -0.0 0.0 1.0
  outer loop
   vertex 52.11187292493721 68.9 0.4
   vertex 71.99999999999999 49.0137885922113 0.4
   vertex 91.88812707506278 68.9 0.4
  endloop
 endfacet
 facet normal 0.0 0.0 -1.0
  outer loop
   vertex 91.88812707506281 72.1 0
   vertex 52.111872924937174 72.1 0
   vertex 71.99999999999999 91.98621140778874 0
  endloop
 endfacet
 facet normal 0.0 -1.0 0.0
  outer loop
   vertex 52.111872924937174 72.1 0
   vertex 91.88812707506281 72.1 0
   vertex 91.88812707506281 72.1 0.4
  endloop
 endfacet
 facet normal 0.0 -1.0 0.0
  outer loop
   vertex 52.111872924937174 72.1 0.4
   vertex 52.111872924937174 72.1 0
   vertex 91.88812707506281 72.1 0.4
  endloop
 endfacet
 facet normal -0.7070727237014779 0.7071408370313326 0.0
  outer loop
   vertex 71.99999999999999 91.98621140778874 0
   vertex 52.111872924937174 72.1 0
   vertex 52.111872924937174 72.1 0.4
  endloop
 endfacet
 facet normal -0.7070727237014779 0.7071408370313326 0.0
  outer loop
   vertex 71.99999999999999 91.98621140778874 0.4
   vertex 71.99999999999999 91.98621140778874 0
   vertex 52.111872924937174 72.1 0.4
  endloop
 endfacet
 facet normal 0.7070727237014777 0.7071408370313328 0.0
  outer loop
   vertex 91.88812707506281 72.1 0
   vertex 71.99999999999999 91.98621140778874 0
   vertex 71.99999999999999 91.98621140778874 0.4
  endloop
 endfacet
 facet normal 0.7070727237014777 0.7071408370313328 0.0
  outer loop
   vertex 91.88812707506281 72.1 0.4
   vertex 91.88812707506281 72.1 0
   vertex 71.99999999999999 91.98621140778874 0.4
  endloop
 endfacet
 facet normal 0.0 0.0 1.0
  outer loop
   vertex 91.88812707506281 72.1 0.4
   vertex 71.99999999999999 91.98621140778874 0.4
   vertex 52.111872924937174 72.1 0.4
  endloop
 endfacet
 facet normal 0.0 0.0 -1.0
  outer loop
   vertex 94.40078381808772 66.88714926582665 0
   vertex 94.3990222756057 48.60000000000001 0
   vertex 76.11187292493719 48.60000000000001 0
  endloop
 endfacet
 facet normal 0.9999999953605743 -9.632679474729572e-05 0.0
  outer loop
   vertex 94.3990222756057 48.60000000000001 0
   vertex 94.40078381808772 66.88714926582665 0
   vertex 94.40078381808772 66.88714926582665 0.4
  endloop
 endfacet
 facet normal 0.9999999953605743 -9.632679474729572e-05 0.0
  outer loop
   vertex 94.3990222756057 48.60000000000001 0.4
   vertex 94.3990222756057 48.60000000000001 0
   vertex 94.40078381808772 66.88714926582665 0.4
  endloop
 endfacet
 facet normal 0.0 -1.0 0.0
  outer loop
   vertex 76.11187292493719 48.60000000000001 0
   vertex 94.3990222756057 48.60000000000001 0
   vertex 94.3990222756057 48.60000000000001 0.4
  endloop
 endfacet
 facet normal 0.0 -1.0 0.0
  outer loop
   vertex 76.11187292493719 48.60000000000001 0.4
   vertex 76.11187292493719 48.60000000000001 0
   vertex 94.3990222756057 48.60000000000001 0.4
  endloop
 endfacet
 facet normal -0.7070727237014779 0.7071408370313327 0.0
  outer loop
   vertex 94.40078381808772 66.88714926582665 0
   vertex 76.11187292493719 48.60000000000001 0
   vertex 76.11187292493719 48.60000000000001 0.4
  endloop
 endfacet
 facet normal -0.7070727237014779 0.7071408370313327 0.0
  outer loop
   vertex 94.40078381808772 66.88714926582665 0.4
   vertex 94.40078381808772 66.88714926582665 0
   vertex 76.11187292493719 48.60000000000001 0.4
  endloop
 endfacet
 facet normal 0.0 0.0 1.0
  outer loop
   vertex 94.40078381808772 66.88714926582665 0.4
   vertex 76.11187292493719 48.60000000000001 0.4
   vertex 94.3990222756057 48.60000000000001 0.4
  endloop
 endfacet
 facet normal 0.0 0.0 -1.0
  outer loop
   vertex 94.40078381808769 74.11285073417339 0
   vertex 74.51271889097325 93.99900000000001 0
   vertex 94.39886824906017 93.99900000000001 0
  endloop
 endfacet
 facet normal -0.7070727237014781 -0.7071408370313323 0.0
  outer loop
   vertex 74.51271889097325 93.99900000000001 0
   vertex 94.40078381808769 74.11285073417339 0
   vertex 94.40078381808769 74.11285073417339 0.4
  endloop
 endfacet
 facet normal -0.7070727237014781 -0.7071408370313323 -0.0
  outer loop
   vertex 74.51271889097325 93.99900000000001 0.4
   vertex 74.51271889097325 93.99900000000001 0
   vertex 94.40078381808769 74.11285073417339 0.4
  endloop
 endfacet
 facet normal 0.0 1.0 0.0
  outer loop
   vertex 94.39886824906017 93.99900000000001 0
   vertex 74.51271889097325 93.99900000000001 0
   vertex 74.51271889097325 93.99900000000001 0.4
  endloop
 endfacet
 facet normal 0.0 1.0 0.0
  outer loop
   vertex 94.39886824906017 93.99900000000001 0.4
   vertex 94.39886824906017 93.99900000000001 0
   vertex 74.51271889097325 93.99900000000001 0.4
  endloop
 endfacet
 facet normal 0.9999999953605743 9.632679474661627e-05 0.0
  outer loop
   vertex 94.40078381808769 74.11285073417339 0
   vertex 94.39886824906017 93.99900000000001 0
   vertex 94.39886824906017 93.99900000000001 0.4
  endloop
 endfacet
 facet normal 0.9999999953605743 9.632679474661627e-05 0.0
  outer loop
   vertex 94.40078381808769 74.11285073417339 0.4
   vertex 94.40078381808769 74.11285073417339 0
   vertex 94.39886824906017 93.99900000000001 0.4
  endloop
 endfacet
 facet normal 0.0 0.0 1.0
  outer loop
   vertex 94.40078381808769 74.11285073417339 0.4
   vertex 94.39886824906017 93.99900000000001 0.4
   vertex 74.51271889097325 93.99900000000001 0.4
  endloop
 endfacet
 facet normal 0.0 -0.0 -1.0
  outer loop
   vertex 97.60097772439433 68.89999999999998 0
   vertex 115.88812707506277 68.89999999999998 0
   vertex 97.59921618191231 50.61285073417342 0
  endloop
 endfacet
 facet normal 0.0 1.0 0.0
  outer loop
   vertex 115.88812707506277 68.89999999999998 0
   vertex 97.60097772439433 68.89999999999998 0
   vertex 97.60097772439433 68.89999999999998 0.4
  endloop
 endfacet
 facet normal 0.0 1.0 0.0
  outer loop
   vertex 115.88812707506277 68.89999999999998 0.4
   vertex 115.88812707506277 68.89999999999998 0
   vertex 97.60097772439433 68.89999999999998 0.4
  endloop
 endfacet
 facet normal 0.7070727237014774 -0.7071408370313328 0.0
  outer loop
   vertex 97.59921618191231 50.61285073417342 0
   vertex 115.88812707506277 68.89999999999998 0
   vertex 115.88812707506277 68.89999999999998 0.4
  endloop
 endfacet
 facet normal 0.7070727237014774 -0.7071408370313328 0.0
  outer loop
   vertex 97.59921618191231 50.61285073417342 0.4
   vertex 97.59921618191231 50.61285073417342 0
   vertex 115.88812707506277 68.89999999999998 0.4
  endloop
 endfacet
 facet normal -0.9999999953605743 9.632679474729618e-05 0.0
  outer loop
   vertex 97.60097772439433 68.89999999999998 0
   vertex 97.59921618191231 50.61285073417342 0
   vertex 97.59921618191231 50.61285073417342 0.4
  endloop
 endfacet
 facet normal -0.9999999953605743 9.632679474729618e-05 0.0
  outer loop
   vertex 97.60097772439433 68.89999999999998 0.4
   vertex 97.60097772439433 68.89999999999998 0
   vertex 97.59921618191231 50.61285073417342 0.4
  endloop
 endfacet
 facet normal -0.0 0.0 1.0
  outer loop
   vertex 97.60097772439433 68.89999999999998 0.4
   vertex 97.59921618191231 50.61285073417342 0.4
   vertex 115.88812707506277 68.89999999999998 0.4
  endloop
 endfacet
 facet normal 0.0 0.0 -1.0
  outer loop
   vertex 115.88812707506285 72.09999999999997 0
   vertex 97.6009777243943 72.09999999999997 0
   vertex 97.59921618191228 90.38714926582664 0
  endloop
 endfacet
 facet normal 0.0 -1.0 0.0
  outer loop
   vertex 97.6009777243943 72.09999999999997 0
   vertex 115.88812707506285 72.09999999999997 0
   vertex 115.88812707506285 72.09999999999997 0.4
  endloop
 endfacet
 facet normal 0.0 -1.0 0.0
  outer loop
   vertex 97.6009777243943 72.09999999999997 0.4
   vertex 97.6009777243943 72.09999999999997 0
   vertex 115.88812707506285 72.09999999999997 0.4
  endloop
 endfacet
 facet normal -0.9999999953605743 -9.632679474729557e-05 0.0
  outer loop
   vertex 97.59921618191228 90.38714926582664 0
   vertex 97.6009777243943 72.09999999999997 0
   vertex 97.6009777243943 72.09999999999997 0.4
  endloop
 endfacet
 facet normal -0.9999999953605743 -9.632679474729557e-05 -0.0
  outer loop
   vertex 97.59921618191228 90.38714926582664 0.4
   vertex 97.59921618191228 90.38714926582664 0
   vertex 97.6009777243943 72.09999999999997 0.4
  endloop
 endfacet
 facet normal 0.7070727237014774 0.7071408370313328 0.0
  outer loop
   vertex 115.88812707506285 72.09999999999997 0
   vertex 97.59921618191228 90.38714926582664 0
   vertex 97.59921618191228 90.38714926582664 0.4
  endloop
 endfacet
 facet normal 0.7070727237014774 0.7071408370313328 0.0
  outer loop
   vertex 115.88812707506285 72.09999999999997 0.4
   vertex 115.88812707506285 72.09999999999997 0
   vertex 97.59921618191228 90.38714926582664 0.4
  endloop
 endfacet
 facet normal 0.0 0.0 1.0
  outer loop
   vertex 115.88812707506285 72.09999999999997 0.4
   vertex 97.59921618191228 90.38714926582664 0.4
   vertex 97.6009777243943 72.09999999999997 0.4
  endloop
 endfacet
 facet normal 0.0 -0.0 -1.0
  outer loop
   vertex 120.00000000000003 68.48621140778876 0
   vertex 139.8881270750628 48.599999999999994 0
   vertex 100.11187292493719 48.599999999999994 0
  endloop
 endfacet
 facet normal 0.7070727237014787 0.7071408370313317 0.0
  outer loop
   vertex 139.8881270750628 48.599999999999994 0
   vertex 120.00000000000003 68.48621140778876 0
   vertex 120.00000000000003 68.48621140778876 0.4
  endloop
 endfacet
 facet normal 0.7070727237014787 0.7071408370313317 0.0
  outer loop
   vertex 139.8881270750628 48.599999999999994 0.4
   vertex 139.8881270750628 48.599999999999994 0
   vertex 120.00000000000003 68.48621140778876 0.4
  endloop
 endfacet
 facet normal 0.0 -1.0 0.0
  outer loop
   vertex 100.11187292493719 48.599999999999994 0
   vertex 139.8881270750628 48.599999999999994 0
   vertex 139.8881270750628 48.599999999999994 0.4
  endloop
 endfacet
 facet normal 0.0 -1.0 0.0
  outer loop
   vertex 100.11187292493719 48.599999999999994 0.4
   vertex 100.11187292493719 48.599999999999994 0
   vertex 139.8881270750628 48.599999999999994 0.4
  endloop
 endfacet
 facet normal -0.7070727237014777 0.7071408370313327 0.0
  outer loop
   vertex 120.00000000000003 68.48621140778876 0
   vertex 100.11187292493719 48.599999999999994 0
   vertex 100.11187292493719 48.599999999999994 0.4
  endloop
 endfacet
 facet normal -0.7070727237014777 0.7071408370313327 0.0
  outer loop
   vertex 120.00000000000003 68.48621140778876 0.4
   vertex 120.00000000000003 68.48621140778876 0
   vertex 100.11187292493719 48.599999999999994 0.4
  endloop
 endfacet
 facet normal 0.0 0.0 1.0
  outer loop
   vertex 120.00000000000003 68.48621140778876 0.4
   vertex 100.11187292493719 48.599999999999994 0.4
   vertex 139.8881270750628 48.599999999999994 0.4
  endloop
 endfacet
 facet normal 0.0 0.0 -1.0
  outer loop
   vertex 120.00000000000001 72.51378859221126 0
   vertex 98.51271889097328 93.99899999999998 0
   vertex 141.48728110902672 93.99899999999998 0
  endloop
 endfacet
 facet normal -0.707072723701478 -0.7071408370313323 0.0
  outer loop
   vertex 98.51271889097328 93.99899999999998 0
   vertex 120.00000000000001 72.51378859221126 0
   vertex 120.00000000000001 72.51378859221126 0.4
  endloop
 endfacet
 facet normal -0.707072723701478 -0.7071408370313323 -0.0
  outer loop
   vertex 98.51271889097328 93.99899999999998 0.4
   vertex 98.51271889097328 93.99899999999998 0
   vertex 120.00000000000001 72.51378859221126 0.4
  endloop
 endfacet
 facet normal 0.0 1.0 0.0
  outer loop
   vertex 141.48728110902672 93.99899999999998 0
   vertex 98.51271889097328 93.99899999999998 0
   vertex 98.51271889097328 93.99899999999998 0.4
  endloop
 endfacet
 facet normal 0.0 1.0 0.0
  outer loop
   vertex 141.48728110902672 93.99899999999998 0.4
   vertex 141.48728110902672 93.99899999999998 0
   vertex 98.51271889097328 93.99899999999998 0.4
  endloop
 endfacet
 facet normal 0.7070727237014786 -0.707140837031332 0.0
  outer loop
   vertex 120.00000000000001 72.51378859221126 0
   vertex 141.48728110902672 93.99899999999998 0
   vertex 141.48728110902672 93.99899999999998 0.4
  endloop
 endfacet
 facet normal 0.7070727237014786 -0.707140837031332 0.0
  outer loop
   vertex 120.00000000000001 72.51378859221126 0.4
   vertex 120.00000000000001 72.51378859221126 0
   vertex 141.48728110902672 93.99899999999998 0.4
  endloop
 endfacet
 facet normal 0.0 -0.0 1.0
  outer loop
   vertex 120.00000000000001 72.51378859221126 0.4
   vertex 141.48728110902672 93.99899999999998 0.4
   vertex 98.51271889097328 93.99899999999998 0.4
  endloop
 endfacet
 facet normal 0.0 0.0 -1.0
  outer loop
   vertex 124.11187292493723 68.89999999999998 0
   vertex 143.9977258765418 68.89999999999998 0
   vertex 143.98190435886045 49.03188249033972 0
  endloop
 endfacet
 facet normal 0.0 1.0 0.0
  outer loop
   vertex 143.9977258765418 68.89999999999998 0
   vertex 124.11187292493723 68.89999999999998 0
   vertex 124.11187292493723 68.89999999999998 0.4
  endloop
 endfacet
 facet normal 0.0 1.0 0.0
  outer loop
   vertex 143.9977258765418 68.89999999999998 0.4
   vertex 143.9977258765418 68.89999999999998 0
   vertex 124.11187292493723 68.89999999999998 0.4
  endloop
 endfacet
 facet normal 0.9999996829318346 -0.0007963267107297689 0.0
  outer loop
   vertex 143.98190435886045 49.03188249033972 0
   vertex 143.9977258765418 68.89999999999998 0
   vertex 143.9977258765418 68.89999999999998 0.4
  endloop
 endfacet
 facet normal 0.9999996829318346 -0.0007963267107297689 0.0
  outer loop
   vertex 143.98190435886045 49.03188249033972 0.4
   vertex 143.98190435886045 49.03188249033972 0
   vertex 143.9977258765418 68.89999999999998 0.4
  endloop
 endfacet
 facet normal -0.7070727237014768 -0.7071408370313336 0.0
  outer loop
   vertex 124.11187292493723 68.89999999999998 0
   vertex 143.98190435886045 49.03188249033972 0
   vertex 143.98190435886045 49.03188249033972 0.4
  endloop
 endfacet
 facet normal -0.7070727237014768 -0.7071408370313336 -0.0
  outer loop
   vertex 124.11187292493723 68.89999999999998 0.4
   vertex 124.11187292493723 68.89999999999998 0
   vertex 143.98190435886045 49.03188249033972 0.4
  endloop
 endfacet
 facet normal -0.0 0.0 1.0
  outer loop
   vertex 124.11187292493723 68.89999999999998 0.4
   vertex 143.98190435886045 49.03188249033972 0.4
   vertex 143.9977258765418 68.89999999999998 0.4
  endloop
 endfacet
 facet normal 0.0 0.0 -1.0
  outer loop
   vertex 143.99772587654178 72.09999999999997 0
   vertex 124.11187292493715 72.09999999999997 0
   vertex 143.9819043588603 91.9681175096602 0
  endloop
 endfacet
 facet normal 0.0 -1.0 0.0
  outer loop
   vertex 124.11187292493715 72.09999999999997 0
   vertex 143.99772587654178 72.09999999999997 0
   vertex 143.99772587654178 72.09999999999997 0.4
  endloop
 endfacet
 facet normal 0.0 -1.0 0.0
  outer loop
   vertex 124.11187292493715 72.09999999999997 0.4
   vertex 124.11187292493715 72.09999999999997 0
   vertex 143.99772587654178 72.09999999999997 0.4
  endloop
 endfacet
 facet normal -0.7070727237014774 0.7071408370313329 0.0
  outer loop
   vertex 143.9819043588603 91.9681175096602 0
   vertex 124.11187292493715 72.09999999999997 0
   vertex 124.11187292493715 72.09999999999997 0.4
  endloop
 endfacet
 facet normal -0.7070727237014774 0.7071408370313329 0.0
  outer loop
   vertex 143.9819043588603 91.9681175096602 0.4
   vertex 143.9819043588603 91.9681175096602 0
   vertex 124.11187292493715 72.09999999999997 0.4
  endloop
 endfacet
 facet normal 0.9999996829318346 0.0007963267107354917 0.0
  outer loop
   vertex 143.99772587654178 72.09999999999997 0
   vertex 143.9819043588603 91.9681175096602 0
   vertex 143.9819043588603 91.9681175096602 0.4
  endloop
 endfacet
 facet normal 0.9999996829318346 0.0007963267107354917 0.0
  outer loop
   vertex 143.99772587654178 72.09999999999997 0.4
   vertex 143.99772587654178 72.09999999999997 0
   vertex 143.9819043588603 91.9681175096602 0.4
  endloop
 endfacet
 facet normal 0.0 0.0 1.0
  outer loop
   vertex 143.99772587654178 72.09999999999997 0.4
   vertex 143.9819043588603 91.9681175096602 0.4
   vertex 124.11187292493715 72.09999999999997 0.4
  endloop
 endfacet
endsolid
