solid PyGamic generated __All_Units__ SLA File
 facet normal 0.0 0.0 -1.0
  outer loop
   vertex 0.539009354125874 47.5 0.36
   vertex 49.45700901105802 47.5 0.36
   vertex 49.41961429319202 0.541 0.36
  endloop
 endfacet
 facet normal 0.0 -0.0 -1.0
  outer loop
   vertex 0.539009354125874 47.5 0.36
   vertex 49.41961429319202 0.541 0.36
   vertex 0.5016146362598761 0.541 0.36
  endloop
 endfacet
 facet normal 0.0 0.2449362175158544 -0.9695391943335896
  outer loop
   vertex 49.45700901105802 47.5 0.36
   vertex 0.539009354125874 47.5 0.36
   vertex 0.540522375355998 49.4 0.84
  endloop
 endfacet
 facet normal 0.0 0.2449362175158544 -0.9695391943335896
  outer loop
   vertex 49.458522032288144 49.4 0.84
   vertex 49.45700901105802 47.5 0.36
   vertex 0.540522375355998 49.4 0.84
  endloop
 endfacet
 facet normal 0.9999996829318345 -0.0007963267107333153 -5.418046149609485e-16
  outer loop
   vertex 49.41961429319202 0.541 0.36
   vertex 49.45700901105802 47.5 0.36
   vertex 49.458522032288144 49.4 0.84
  endloop
 endfacet
 facet normal 0.9999996829318347 -0.0007963267107333208 0.0
  outer loop
   vertex 49.41961429319202 0.541 0.84
   vertex 49.41961429319202 0.541 0.36
   vertex 49.458522032288144 49.4 0.84
  endloop
 endfacet
 facet normal 0.0 -1.0 0.0
  outer loop
   vertex 0.5016146362598761 0.541 0.36
   vertex 49.41961429319202 0.541 0.36
   vertex 49.41961429319202 0.541 0.84
  endloop
 endfacet
 facet normal 0.0 -1.0 0.0
  outer loop
   vertex 0.5016146362598761 0.541 0.84
   vertex 0.5016146362598761 0.541 0.36
   vertex 49.41961429319202 0.541 0.84
  endloop
 endfacet
 facet normal -0.9999996829318345 0.0007963267107332633 0.0
  outer loop
   vertex 0.539009354125874 47.5 0.36
   vertex 0.5016146362598761 0.541 0.36
   vertex 0.5016146362598761 0.541 0.84
  endloop
 endfacet
 facet normal -0.9999996829318347 0.0007963267107332616 -1.721976747551813e-16
  outer loop
   vertex 0.540522375355998 49.4 0.84
   vertex 0.539009354125874 47.5 0.36
   vertex 0.5016146362598761 0.541 0.84
  endloop
 endfacet
 facet normal -0.0 0.0 1.0
  outer loop
   vertex 0.540522375355998 49.4 0.84
   vertex 49.41961429319202 0.541 0.84
   vertex 49.458522032288144 49.4 0.84
  endloop
 endfacet
 facet normal 0.0 0.0 1.0
  outer loop
   vertex 0.540522375355998 49.4 0.84
   vertex 0.5016146362598761 0.541 0.84
   vertex 49.41961429319202 0.541 0.84
  endloop
 endfacet
 facet normal 0.0 0.0 -1.0
  outer loop
   vertex 0.540522375355998 49.4 1.2
   vertex 49.458522032288144 49.4 1.2
   vertex 49.41961429319202 0.541 1.2
  endloop
 endfacet
 facet normal 0.0 -0.0 -1.0
  outer loop
   vertex 0.540522375355998 49.4 1.2
   vertex 49.41961429319202 0.541 1.2
   vertex 0.5016146362598761 0.541 1.2
  endloop
 endfacet
 facet normal 0.0 0.2449362175158545 0.9695391943335896
  outer loop
   vertex 49.458522032288144 49.4 1.2
   vertex 0.540522375355998 49.4 1.2
   vertex 0.539009354125874 47.5 1.6800000000000002
  endloop
 endfacet
 facet normal 0.0 0.2449362175158545 0.9695391943335896
  outer loop
   vertex 49.45700901105802 47.5 1.6800000000000002
   vertex 49.458522032288144 49.4 1.2
   vertex 0.539009354125874 47.5 1.6800000000000002
  endloop
 endfacet
 facet normal 0.9999996829318347 -0.0007963267107333207 5.207352363730566e-16
  outer loop
   vertex 49.41961429319202 0.541 1.2
   vertex 49.458522032288144 49.4 1.2
   vertex 49.45700901105802 47.5 1.6800000000000002
  endloop
 endfacet
 facet normal 0.9999996829318347 -0.0007963267107333154 0.0
  outer loop
   vertex 49.41961429319202 0.541 1.6800000000000002
   vertex 49.41961429319202 0.541 1.2
   vertex 49.45700901105802 47.5 1.6800000000000002
  endloop
 endfacet
 facet normal 0.0 -1.0 0.0
  outer loop
   vertex 0.5016146362598761 0.541 1.2
   vertex 49.41961429319202 0.541 1.2
   vertex 49.41961429319202 0.541 1.6800000000000002
  endloop
 endfacet
 facet normal 0.0 -1.0 0.0
  outer loop
   vertex 0.5016146362598761 0.541 1.6800000000000002
   vertex 0.5016146362598761 0.541 1.2
   vertex 49.41961429319202 0.541 1.6800000000000002
  endloop
 endfacet
 facet normal -0.9999996829318347 0.0007963267107332617 0.0
  outer loop
   vertex 0.540522375355998 49.4 1.2
   vertex 0.5016146362598761 0.541 1.2
   vertex 0.5016146362598761 0.541 1.6800000000000002
  endloop
 endfacet
 facet normal -0.9999996829318347 0.0007963267107332635 1.7916493517458632e-16
  outer loop
   vertex 0.539009354125874 47.5 1.6800000000000002
   vertex 0.540522375355998 49.4 1.2
   vertex 0.5016146362598761 0.541 1.6800000000000002
  endloop
 endfacet
 facet normal -0.0 0.0 1.0
  outer loop
   vertex 0.539009354125874 47.5 1.6800000000000002
   vertex 49.41961429319202 0.541 1.6800000000000002
   vertex 49.45700901105802 47.5 1.6800000000000002
  endloop
 endfacet
 facet normal 0.0 0.0 1.0
  outer loop
   vertex 0.539009354125874 47.5 1.6800000000000002
   vertex 0.5016146362598761 0.541 1.6800000000000002
   vertex 49.41961429319202 0.541 1.6800000000000002
  endloop
 endfacet
 facet normal -0.0 0.0 -1.0
  outer loop
   vertex 49.457009011058005 52.5 0.36
   vertex 0.539009354125874 52.49999999999999 0.36
   vertex 0.501614636259876 99.459 0.36
  endloop
 endfacet
 facet normal 0.0 0.0 -1.0
  outer loop
   vertex 49.457009011058005 52.5 0.36
   vertex 0.501614636259876 99.459 0.36
   vertex 49.419614293192005 99.459 0.36
  endloop
 endfacet
 facet normal 3.55774257535045e-17 -0.24493621751585443 -0.9695391943335896
  outer loop
   vertex 0.539009354125874 52.49999999999999 0.36
   vertex 49.457009011058005 52.5 0.36
   vertex 49.45852203228813 50.6 0.84
  endloop
 endfacet
 facet normal 0.0 -0.24493621751585526 -0.9695391943335894
  outer loop
   vertex 0.540522375355998 50.6 0.84
   vertex 0.539009354125874 52.49999999999999 0.36
   vertex 49.45852203228813 50.6 0.84
  endloop
 endfacet
 facet normal -0.9999996829318345 -0.0007963267107332655 -1.7731787398721948e-16
  outer loop
   vertex 0.501614636259876 99.459 0.36
   vertex 0.539009354125874 52.49999999999999 0.36
   vertex 0.540522375355998 50.6 0.84
  endloop
 endfacet
 facet normal -0.9999996829318347 -0.000796326710733264 -0.0
  outer loop
   vertex 0.501614636259876 99.459 0.84
   vertex 0.501614636259876 99.459 0.36
   vertex 0.540522375355998 50.6 0.84
  endloop
 endfacet
 facet normal 0.0 1.0 0.0
  outer loop
   vertex 49.419614293192005 99.459 0.36
   vertex 0.501614636259876 99.459 0.36
   vertex 0.501614636259876 99.459 0.84
  endloop
 endfacet
 facet normal 0.0 1.0 0.0
  outer loop
   vertex 49.419614293192005 99.459 0.84
   vertex 49.419614293192005 99.459 0.36
   vertex 0.501614636259876 99.459 0.84
  endloop
 endfacet
 facet normal 0.9999996829318345 0.0007963267107333153 0.0
  outer loop
   vertex 49.457009011058005 52.5 0.36
   vertex 49.419614293192005 99.459 0.36
   vertex 49.419614293192005 99.459 0.84
  endloop
 endfacet
 facet normal 0.9999996829318347 0.0007963267107333208 -5.189600026126942e-16
  outer loop
   vertex 49.45852203228813 50.6 0.84
   vertex 49.457009011058005 52.5 0.36
   vertex 49.419614293192005 99.459 0.84
  endloop
 endfacet
 facet normal 0.0 0.0 1.0
  outer loop
   vertex 49.45852203228813 50.6 0.84
   vertex 0.501614636259876 99.459 0.84
   vertex 0.540522375355998 50.6 0.84
  endloop
 endfacet
 facet normal 0.0 0.0 1.0
  outer loop
   vertex 49.45852203228813 50.6 0.84
   vertex 49.419614293192005 99.459 0.84
   vertex 0.501614636259876 99.459 0.84
  endloop
 endfacet
 facet normal 0.0 0.0 -1.0
  outer loop
   vertex 49.45852203228813 50.6 1.2
   vertex 0.540522375355998 50.6 1.2
   vertex 0.501614636259876 99.459 1.2
  endloop
 endfacet
 facet normal 0.0 0.0 -1.0
  outer loop
   vertex 49.45852203228813 50.6 1.2
   vertex 0.501614636259876 99.459 1.2
   vertex 49.419614293192005 99.459 1.2
  endloop
 endfacet
 facet normal 0.0 -0.2449362175158545 0.9695391943335896
  outer loop
   vertex 0.540522375355998 50.6 1.2
   vertex 49.45852203228813 50.6 1.2
   vertex 49.457009011058005 52.5 1.6800000000000002
  endloop
 endfacet
 facet normal 3.557742575350464e-17 -0.24493621751585537 0.9695391943335894
  outer loop
   vertex 0.539009354125874 52.49999999999999 1.6800000000000002
   vertex 0.540522375355998 50.6 1.2
   vertex 49.457009011058005 52.5 1.6800000000000002
  endloop
 endfacet
 facet normal -0.9999996829318347 -0.0007963267107332639 1.7042244099481853e-16
  outer loop
   vertex 0.501614636259876 99.459 1.2
   vertex 0.540522375355998 50.6 1.2
   vertex 0.539009354125874 52.49999999999999 1.6800000000000002
  endloop
 endfacet
 facet normal -0.9999996829318347 -0.0007963267107332656 -0.0
  outer loop
   vertex 0.501614636259876 99.459 1.6800000000000002
   vertex 0.501614636259876 99.459 1.2
   vertex 0.539009354125874 52.49999999999999 1.6800000000000002
  endloop
 endfacet
 facet normal 0.0 1.0 0.0
  outer loop
   vertex 49.419614293192005 99.459 1.2
   vertex 0.501614636259876 99.459 1.2
   vertex 0.501614636259876 99.459 1.6800000000000002
  endloop
 endfacet
 facet normal 0.0 1.0 0.0
  outer loop
   vertex 49.419614293192005 99.459 1.6800000000000002
   vertex 49.419614293192005 99.459 1.2
   vertex 0.501614636259876 99.459 1.6800000000000002
  endloop
 endfacet
 facet normal 0.9999996829318347 0.0007963267107333207 0.0
  outer loop
   vertex 49.45852203228813 50.6 1.2
   vertex 49.419614293192005 99.459 1.2
   vertex 49.419614293192005 99.459 1.6800000000000002
  endloop
 endfacet
 facet normal 0.9999996829318347 0.0007963267107333154 5.393418667111258e-16
  outer loop
   vertex 49.457009011058005 52.5 1.6800000000000002
   vertex 49.45852203228813 50.6 1.2
   vertex 49.419614293192005 99.459 1.6800000000000002
  endloop
 endfacet
 facet normal 0.0 0.0 1.0
  outer loop
   vertex 49.457009011058005 52.5 1.6800000000000002
   vertex 0.501614636259876 99.459 1.6800000000000002
   vertex 0.539009354125874 52.49999999999999 1.6800000000000002
  endloop
 endfacet
 facet normal 0.0 0.0 1.0
  outer loop
   vertex 49.457009011058005 52.5 1.6800000000000002
   vertex 49.419614293192005 99.459 1.6800000000000002
   vertex 0.501614636259876 99.459 1.6800000000000002
  endloop
 endfacet
endsolid
