solid PyGamic generated __Board__ SLA File
 facet normal 0.0 0.0 -1.0
  outer loop
   vertex -0.0012934213370145331 47.12 0
   vertex 49.996706578028856 47.12 0
   vertex 49.95918444784874 0.001 0
  endloop
 endfacet
 facet normal 0.0 -0.0 -1.0
  outer loop
   vertex -0.0012934213370145331 47.12 0
   vertex 49.95918444784874 0.001 0
   vertex -0.03881555151712814 0.001 0
  endloop
 endfacet
 facet normal 0.0 1.0 0.0
  outer loop
   vertex 49.996706578028856 47.12 0
   vertex -0.0012934213370145331 47.12 0
   vertex -0.0012934213370145331 47.12 0.36
  endloop
 endfacet
 facet normal 0.0 1.0 0.0
  outer loop
   vertex 49.996706578028856 47.12 0.36
   vertex 49.996706578028856 47.12 0
   vertex -0.0012934213370145331 47.12 0.36
  endloop
 endfacet
 facet normal 0.9999996829318345 -0.0007963267107332873 0.0
  outer loop
   vertex 49.95918444784874 0.001 0
   vertex 49.996706578028856 47.12 0
   vertex 49.996706578028856 47.12 0.36
  endloop
 endfacet
 facet normal 0.9999996829318345 -0.0007963267107332873 0.0
  outer loop
   vertex 49.95918444784874 0.001 0.36
   vertex 49.95918444784874 0.001 0
   vertex 49.996706578028856 47.12 0.36
  endloop
 endfacet
 facet normal 0.0 -1.0 0.0
  outer loop
   vertex -0.03881555151712814 0.001 0
   vertex 49.95918444784874 0.001 0
   vertex 49.95918444784874 0.001 0.36
  endloop
 endfacet
 facet normal 0.0 -1.0 0.0
  outer loop
   vertex -0.03881555151712814 0.001 0.36
   vertex -0.03881555151712814 0.001 0
   vertex 49.95918444784874 0.001 0.36
  endloop
 endfacet
 facet normal -0.9999996829318345 0.0007963267107332632 0.0
  outer loop
   vertex -0.0012934213370145331 47.12 0
   vertex -0.03881555151712814 0.001 0
   vertex -0.03881555151712814 0.001 0.36
  endloop
 endfacet
 facet normal -0.9999996829318345 0.0007963267107332632 0.0
  outer loop
   vertex -0.0012934213370145331 47.12 0.36
   vertex -0.0012934213370145331 47.12 0
   vertex -0.03881555151712814 0.001 0.36
  endloop
 endfacet
 facet normal -0.0 0.0 1.0
  outer loop
   vertex -0.0012934213370145331 47.12 0.36
   vertex 49.95918444784874 0.001 0.36
   vertex 49.996706578028856 47.12 0.36
  endloop
 endfacet
 facet normal 0.0 0.0 1.0
  outer loop
   vertex -0.0012934213370145331 47.12 0.36
   vertex -0.03881555151712814 0.001 0.36
   vertex 49.95918444784874 0.001 0.36
  endloop
 endfacet
 facet normal 0.0 0.0 -1.0
  outer loop
   vertex 49.99670657802885 52.88000000000001 0
   vertex -0.0012934213370145331 52.88000000000001 0
   vertex -0.038815551517128136 99.999 0
  endloop
 endfacet
 facet normal 0.0 0.0 -1.0
  outer loop
   vertex 49.99670657802885 52.88000000000001 0
   vertex -0.038815551517128136 99.999 0
   vertex 49.95918444784873 99.999 0
  endloop
 endfacet
 facet normal 0.0 -1.0 0.0
  outer loop
   vertex -0.0012934213370145331 52.88000000000001 0
   vertex 49.99670657802885 52.88000000000001 0
   vertex 49.99670657802885 52.88000000000001 0.36
  endloop
 endfacet
 facet normal 0.0 -1.0 0.0
  outer loop
   vertex -0.0012934213370145331 52.88000000000001 0.36
   vertex -0.0012934213370145331 52.88000000000001 0
   vertex 49.99670657802885 52.88000000000001 0.36
  endloop
 endfacet
 facet normal -0.9999996829318345 -0.0007963267107332635 0.0
  outer loop
   vertex -0.038815551517128136 99.999 0
   vertex -0.0012934213370145331 52.88000000000001 0
   vertex -0.0012934213370145331 52.88000000000001 0.36
  endloop
 endfacet
 facet normal -0.9999996829318345 -0.0007963267107332635 -0.0
  outer loop
   vertex -0.038815551517128136 99.999 0.36
   vertex -0.038815551517128136 99.999 0
   vertex -0.0012934213370145331 52.88000000000001 0.36
  endloop
 endfacet
 facet normal 0.0 1.0 0.0
  outer loop
   vertex 49.95918444784873 99.999 0
   vertex -0.038815551517128136 99.999 0
   vertex -0.038815551517128136 99.999 0.36
  endloop
 endfacet
 facet normal 0.0 1.0 0.0
  outer loop
   vertex 49.95918444784873 99.999 0.36
   vertex 49.95918444784873 99.999 0
   vertex -0.038815551517128136 99.999 0.36
  endloop
 endfacet
 facet normal 0.9999996829318345 0.0007963267107334383 0.0
  outer loop
   vertex 49.99670657802885 52.88000000000001 0
   vertex 49.95918444784873 99.999 0
   vertex 49.95918444784873 99.999 0.36
  endloop
 endfacet
 facet normal 0.9999996829318345 0.0007963267107334383 0.0
  outer loop
   vertex 49.99670657802885 52.88000000000001 0.36
   vertex 49.99670657802885 52.88000000000001 0
   vertex 49.95918444784873 99.999 0.36
  endloop
 endfacet
 facet normal 0.0 0.0 1.0
  outer loop
   vertex 49.99670657802885 52.88000000000001 0.36
   vertex -0.038815551517128136 99.999 0.36
   vertex -0.0012934213370145331 52.88000000000001 0.36
  endloop
 endfacet
 facet normal 0.0 0.0 1.0
  outer loop
   vertex 49.99670657802885 52.88000000000001 0.36
   vertex 49.95918444784873 99.999 0.36
   vertex -0.038815551517128136 99.999 0.36
  endloop
 endfacet
endsolid
