solid PyGamic generated __All_Units__ SLA File
 facet normal 0.0 0.0 -1.0
  outer loop
   vertex 1.9984079802100856 18.0 0
   vertex 25.176819178421624 18.0 0
   vertex 9.1640728739178 2.0 0
  endloop
 endfacet
 facet normal 0.0 -0.0 -1.0
  outer loop
   vertex 1.9984079802100856 18.0 0
   vertex 9.1640728739178 2.0 0
   vertex 1.9856667487985145 2.0 0
  endloop
 endfacet
 facet normal 0.0 0.2225554473820816 -0.974920034074878
  outer loop
   vertex 25.176819178421624 18.0 0
   vertex 1.9984079802100856 18.0 0
   vertex 0.16003251105522362 19.83984 0.42
  endloop
 endfacet
 facet normal 0.0 0.22255544738208163 -0.9749200340748782
  outer loop
   vertex 29.621088167582478 19.83984 0.42
   vertex 25.176819178421624 18.0 0
   vertex 0.16003251105522362 19.83984 0.42
  endloop
 endfacet
 facet normal 0.15730779440182532 -0.15743311271734223 -0.9749200340748782
  outer loop
   vertex 9.1640728739178 2.0 0
   vertex 25.176819178421624 18.0 0
   vertex 29.621088167582478 19.83984 0.42
  endloop
 endfacet
 facet normal 0.1573077944018255 -0.15743311271734245 -0.9749200340748782
  outer loop
   vertex 9.925730467968862 0.16015999999999997 0.42
   vertex 9.1640728739178 2.0 0
   vertex 29.621088167582478 19.83984 0.42
  endloop
 endfacet
 facet normal 0.0 -0.22255544738208147 -0.9749200340748782
  outer loop
   vertex 1.9856667487985145 2.0 0
   vertex 9.1640728739178 2.0 0
   vertex 9.925730467968862 0.16015999999999997 0.42
  endloop
 endfacet
 facet normal 0.0 -0.22255544738208147 -0.9749200340748782
  outer loop
   vertex 0.14436105124361942 0.16015999999999997 0.42
   vertex 1.9856667487985145 2.0 0
   vertex 9.925730467968862 0.16015999999999997 0.42
  endloop
 endfacet
 facet normal -0.22255537681683407 0.00017722684736954346 -0.9749200340748782
  outer loop
   vertex 1.9984079802100856 18.0 0
   vertex 1.9856667487985145 2.0 0
   vertex 0.14436105124361942 0.16015999999999997 0.42
  endloop
 endfacet
 facet normal -0.22255537681683404 0.00017722684736954278 -0.974920034074878
  outer loop
   vertex 0.16003251105522362 19.83984 0.42
   vertex 1.9984079802100856 18.0 0
   vertex 0.14436105124361942 0.16015999999999997 0.42
  endloop
 endfacet
 facet normal 0.0 0.9999964444634073 -0.0026666571852532227
  outer loop
   vertex 29.621088167582478 19.83984 0.42
   vertex 0.16003251105522362 19.83984 0.42
   vertex 0.15987263841680682 19.84 0.48
  endloop
 endfacet
 facet normal 0.0 0.9999964444634072 -0.0026666571852532223
  outer loop
   vertex 29.62147465936343 19.84 0.48
   vertex 29.621088167582478 19.83984 0.42
   vertex 0.15987263841680682 19.84 0.48
  endloop
 endfacet
 facet normal 0.7068226679625698 -0.7073857540223236 -0.0026666571852186206
  outer loop
   vertex 9.925730467968862 0.16015999999999997 0.42
   vertex 29.621088167582478 19.83984 0.42
   vertex 29.62147465936343 19.84 0.48
  endloop
 endfacet
 facet normal 0.7068226679625699 -0.7073857540223234 -0.0026666571852358707
  outer loop
   vertex 9.925796704823723 0.15999999999999998 0.48
   vertex 9.925730467968862 0.16015999999999997 0.42
   vertex 29.62147465936343 19.84 0.48
  endloop
 endfacet
 facet normal 0.0 -0.9999964444634073 -0.0026666571852356443
  outer loop
   vertex 0.14436105124361942 0.16015999999999997 0.42
   vertex 9.925730467968862 0.16015999999999997 0.42
   vertex 9.925796704823723 0.15999999999999998 0.48
  endloop
 endfacet
 facet normal 0.0 -0.9999964444634071 -0.002666657185235644
  outer loop
   vertex 0.1442009237805744 0.15999999999999998 0.48
   vertex 0.14436105124361942 0.16015999999999997 0.42
   vertex 9.925796704823723 0.15999999999999998 0.48
  endloop
 endfacet
 facet normal -0.9999961273963693 0.0007963238793645038 -0.002666657185235566
  outer loop
   vertex 0.16003251105522362 19.83984 0.42
   vertex 0.14436105124361942 0.16015999999999997 0.42
   vertex 0.1442009237805744 0.15999999999999998 0.48
  endloop
 endfacet
 facet normal -0.9999961273963692 0.0007963238793645037 -0.002666657185235603
  outer loop
   vertex 0.15987263841680682 19.84 0.48
   vertex 0.16003251105522362 19.83984 0.42
   vertex 0.1442009237805744 0.15999999999999998 0.48
  endloop
 endfacet
 facet normal -0.0 0.0 1.0
  outer loop
   vertex 0.15987263841680682 19.84 0.48
   vertex 9.925796704823723 0.15999999999999998 0.48
   vertex 29.62147465936343 19.84 0.48
  endloop
 endfacet
 facet normal 0.0 0.0 1.0
  outer loop
   vertex 0.15987263841680682 19.84 0.48
   vertex 0.1442009237805744 0.15999999999999998 0.48
   vertex 9.925796704823723 0.15999999999999998 0.48
  endloop
 endfacet
 facet normal 0.0 0.0 -1.0
  outer loop
   vertex 0.15987263841680682 19.84 0.84
   vertex 29.62147465936343 19.84 0.84
   vertex 9.925796704823723 0.15999999999999998 0.84
  endloop
 endfacet
 facet normal 0.0 -0.0 -1.0
  outer loop
   vertex 0.15987263841680682 19.84 0.84
   vertex 9.925796704823723 0.15999999999999998 0.84
   vertex 0.1442009237805744 0.15999999999999998 0.84
  endloop
 endfacet
 facet normal 0.0 0.9999964444634072 0.002666657185253225
  outer loop
   vertex 29.62147465936343 19.84 0.84
   vertex 0.15987263841680682 19.84 0.84
   vertex 0.16003251105522362 19.83984 0.8999999999999999
  endloop
 endfacet
 facet normal 0.0 0.9999964444634072 0.002666657185253225
  outer loop
   vertex 29.621088167582478 19.83984 0.8999999999999999
   vertex 29.62147465936343 19.84 0.84
   vertex 0.16003251105522362 19.83984 0.8999999999999999
  endloop
 endfacet
 facet normal 0.7068226679625699 -0.7073857540223234 0.0026666571852246726
  outer loop
   vertex 9.925796704823723 0.15999999999999998 0.84
   vertex 29.62147465936343 19.84 0.84
   vertex 29.621088167582478 19.83984 0.8999999999999999
  endloop
 endfacet
 facet normal 0.7068226679625698 -0.7073857540223236 0.002666657185235873
  outer loop
   vertex 9.925730467968862 0.16015999999999997 0.8999999999999999
   vertex 9.925796704823723 0.15999999999999998 0.84
   vertex 29.621088167582478 19.83984 0.8999999999999999
  endloop
 endfacet
 facet normal 0.0 -0.9999964444634073 0.0026666571852356465
  outer loop
   vertex 0.1442009237805744 0.15999999999999998 0.84
   vertex 9.925796704823723 0.15999999999999998 0.84
   vertex 9.925730467968862 0.16015999999999997 0.8999999999999999
  endloop
 endfacet
 facet normal 0.0 -0.9999964444634073 0.0026666571852356465
  outer loop
   vertex 0.14436105124361942 0.16015999999999997 0.8999999999999999
   vertex 0.1442009237805744 0.15999999999999998 0.84
   vertex 9.925730467968862 0.16015999999999997 0.8999999999999999
  endloop
 endfacet
 facet normal -0.9999961273963692 0.0007963238793645037 0.0026666571852356088
  outer loop
   vertex 0.15987263841680682 19.84 0.84
   vertex 0.1442009237805744 0.15999999999999998 0.84
   vertex 0.14436105124361942 0.16015999999999997 0.8999999999999999
  endloop
 endfacet
 facet normal -0.9999961273963693 0.0007963238793645038 0.0026666571852356057
  outer loop
   vertex 0.16003251105522362 19.83984 0.8999999999999999
   vertex 0.15987263841680682 19.84 0.84
   vertex 0.14436105124361942 0.16015999999999997 0.8999999999999999
  endloop
 endfacet
 facet normal 0.0 0.22255544738208158 0.9749200340748782
  outer loop
   vertex 29.621088167582478 19.83984 0.8999999999999999
   vertex 0.16003251105522362 19.83984 0.8999999999999999
   vertex 1.9984079802100856 18.0 1.3199999999999998
  endloop
 endfacet
 facet normal 0.0 0.22255544738208158 0.974920034074878
  outer loop
   vertex 25.176819178421624 18.0 1.3199999999999998
   vertex 29.621088167582478 19.83984 0.8999999999999999
   vertex 1.9984079802100856 18.0 1.3199999999999998
  endloop
 endfacet
 facet normal 0.1573077944018254 -0.15743311271734237 0.9749200340748782
  outer loop
   vertex 9.925730467968862 0.16015999999999997 0.8999999999999999
   vertex 29.621088167582478 19.83984 0.8999999999999999
   vertex 25.176819178421624 18.0 1.3199999999999998
  endloop
 endfacet
 facet normal 0.15730779440182546 -0.15743311271734237 0.9749200340748782
  outer loop
   vertex 9.1640728739178 2.0 1.3199999999999998
   vertex 9.925730467968862 0.16015999999999997 0.8999999999999999
   vertex 25.176819178421624 18.0 1.3199999999999998
  endloop
 endfacet
 facet normal 0.0 -0.22255544738208147 0.9749200340748782
  outer loop
   vertex 0.14436105124361942 0.16015999999999997 0.8999999999999999
   vertex 9.925730467968862 0.16015999999999997 0.8999999999999999
   vertex 9.1640728739178 2.0 1.3199999999999998
  endloop
 endfacet
 facet normal 0.0 -0.22255544738208144 0.9749200340748782
  outer loop
   vertex 1.9856667487985145 2.0 1.3199999999999998
   vertex 0.14436105124361942 0.16015999999999997 0.8999999999999999
   vertex 9.1640728739178 2.0 1.3199999999999998
  endloop
 endfacet
 facet normal -0.22255537681683402 0.0001772268473695428 0.974920034074878
  outer loop
   vertex 0.16003251105522362 19.83984 0.8999999999999999
   vertex 0.14436105124361942 0.16015999999999997 0.8999999999999999
   vertex 1.9856667487985145 2.0 1.3199999999999998
  endloop
 endfacet
 facet normal -0.22255537681683404 0.00017722684736954343 0.9749200340748782
  outer loop
   vertex 1.9984079802100856 18.0 1.3199999999999998
   vertex 0.16003251105522362 19.83984 0.8999999999999999
   vertex 1.9856667487985145 2.0 1.3199999999999998
  endloop
 endfacet
 facet normal -0.0 0.0 1.0
  outer loop
   vertex 1.9984079802100856 18.0 1.3199999999999998
   vertex 9.1640728739178 2.0 1.3199999999999998
   vertex 25.176819178421624 18.0 1.3199999999999998
  endloop
 endfacet
 facet normal 0.0 0.0 1.0
  outer loop
   vertex 1.9984079802100856 18.0 1.3199999999999998
   vertex 1.9856667487985145 2.0 1.3199999999999998
   vertex 9.1640728739178 2.0 1.3199999999999998
  endloop
 endfacet
 facet normal 0.0 0.0 -1.0
  outer loop
   vertex 25.176819178421624 22.0 0
   vertex 1.9984079802100856 22.0 0
   vertex 1.9856667487985145 38.0 0
  endloop
 endfacet
 facet normal 0.0 0.0 -1.0
  outer loop
   vertex 25.176819178421624 22.0 0
   vertex 1.9856667487985145 38.0 0
   vertex 9.164072873917798 38.0 0
  endloop
 endfacet
 facet normal 0.0 -0.2225554473820816 -0.974920034074878
  outer loop
   vertex 1.9984079802100856 22.0 0
   vertex 25.176819178421624 22.0 0
   vertex 29.621088167582478 20.16016 0.42
  endloop
 endfacet
 facet normal 0.0 -0.22255544738208163 -0.9749200340748782
  outer loop
   vertex 0.16003251105522362 20.16016 0.42
   vertex 1.9984079802100856 22.0 0
   vertex 29.621088167582478 20.16016 0.42
  endloop
 endfacet
 facet normal -0.22255537681683407 -0.00017722684736954346 -0.9749200340748782
  outer loop
   vertex 1.9856667487985145 38.0 0
   vertex 1.9984079802100856 22.0 0
   vertex 0.16003251105522362 20.16016 0.42
  endloop
 endfacet
 facet normal -0.22255537681683407 -0.00017722684736954278 -0.974920034074878
  outer loop
   vertex 0.14436105124361942 39.83984 0.42
   vertex 1.9856667487985145 38.0 0
   vertex 0.16003251105522362 20.16016 0.42
  endloop
 endfacet
 facet normal 0.0 0.2225554473820812 -0.9749200340748782
  outer loop
   vertex 9.164072873917798 38.0 0
   vertex 1.9856667487985145 38.0 0
   vertex 0.14436105124361942 39.83984 0.42
  endloop
 endfacet
 facet normal 0.0 0.2225554473820812 -0.9749200340748782
  outer loop
   vertex 9.92573046796886 39.83984 0.42
   vertex 9.164072873917798 38.0 0
   vertex 0.14436105124361942 39.83984 0.42
  endloop
 endfacet
 facet normal 0.15730779440182524 0.1574331127173422 -0.9749200340748784
  outer loop
   vertex 25.176819178421624 22.0 0
   vertex 9.164072873917798 38.0 0
   vertex 9.92573046796886 39.83984 0.42
  endloop
 endfacet
 facet normal 0.15730779440182535 0.15743311271734228 -0.9749200340748782
  outer loop
   vertex 29.621088167582478 20.16016 0.42
   vertex 25.176819178421624 22.0 0
   vertex 9.92573046796886 39.83984 0.42
  endloop
 endfacet
 facet normal 0.0 -0.9999964444634073 -0.0026666571852532227
  outer loop
   vertex 0.16003251105522362 20.16016 0.42
   vertex 29.621088167582478 20.16016 0.42
   vertex 29.621474659363425 20.16 0.48
  endloop
 endfacet
 facet normal 0.0 -0.9999964444634073 -0.002666657185253223
  outer loop
   vertex 0.15987263841680682 20.16 0.48
   vertex 0.16003251105522362 20.16016 0.42
   vertex 29.621474659363425 20.16 0.48
  endloop
 endfacet
 facet normal -0.9999961273963693 -0.0007963238793645037 -0.0026666571852356122
  outer loop
   vertex 0.14436105124361942 39.83984 0.42
   vertex 0.16003251105522362 20.16016 0.42
   vertex 0.15987263841680682 20.16 0.48
  endloop
 endfacet
 facet normal -0.9999961273963692 -0.0007963238793645036 -0.002666657185235583
  outer loop
   vertex 0.1442009237805744 39.84 0.48
   vertex 0.14436105124361942 39.83984 0.42
   vertex 0.15987263841680682 20.16 0.48
  endloop
 endfacet
 facet normal 0.0 0.9999964444634073 -0.0026666571852532227
  outer loop
   vertex 9.92573046796886 39.83984 0.42
   vertex 0.14436105124361942 39.83984 0.42
   vertex 0.1442009237805744 39.84 0.48
  endloop
 endfacet
 facet normal 0.0 0.9999964444634073 -0.002666657185253223
  outer loop
   vertex 9.925796704823716 39.84 0.48
   vertex 9.92573046796886 39.83984 0.42
   vertex 0.1442009237805744 39.84 0.48
  endloop
 endfacet
 facet normal 0.70682266796257 0.7073857540223237 -0.002666657185184594
  outer loop
   vertex 29.621088167582478 20.16016 0.42
   vertex 9.92573046796886 39.83984 0.42
   vertex 9.925796704823716 39.84 0.48
  endloop
 endfacet
 facet normal 0.70682266796257 0.7073857540223237 -0.0026666571851743245
  outer loop
   vertex 29.621474659363425 20.16 0.48
   vertex 29.621088167582478 20.16016 0.42
   vertex 9.925796704823716 39.84 0.48
  endloop
 endfacet
 facet normal 0.0 0.0 1.0
  outer loop
   vertex 29.621474659363425 20.16 0.48
   vertex 0.1442009237805744 39.84 0.48
   vertex 0.15987263841680682 20.16 0.48
  endloop
 endfacet
 facet normal 0.0 0.0 1.0
  outer loop
   vertex 29.621474659363425 20.16 0.48
   vertex 9.925796704823716 39.84 0.48
   vertex 0.1442009237805744 39.84 0.48
  endloop
 endfacet
 facet normal 0.0 0.0 -1.0
  outer loop
   vertex 29.621474659363425 20.16 0.84
   vertex 0.15987263841680682 20.16 0.84
   vertex 0.1442009237805744 39.84 0.84
  endloop
 endfacet
 facet normal 0.0 0.0 -1.0
  outer loop
   vertex 29.621474659363425 20.16 0.84
   vertex 0.1442009237805744 39.84 0.84
   vertex 9.925796704823716 39.84 0.84
  endloop
 endfacet
 facet normal 0.0 -0.9999964444634072 0.002666657185253225
  outer loop
   vertex 0.15987263841680682 20.16 0.84
   vertex 29.621474659363425 20.16 0.84
   vertex 29.621088167582478 20.16016 0.8999999999999999
  endloop
 endfacet
 facet normal 0.0 -0.9999964444634072 0.002666657185253225
  outer loop
   vertex 0.16003251105522362 20.16016 0.8999999999999999
   vertex 0.15987263841680682 20.16 0.84
   vertex 29.621088167582478 20.16016 0.8999999999999999
  endloop
 endfacet
 facet normal -0.9999961273963692 -0.0007963238793645036 0.0026666571852356083
  outer loop
   vertex 0.1442009237805744 39.84 0.84
   vertex 0.15987263841680682 20.16 0.84
   vertex 0.16003251105522362 20.16016 0.8999999999999999
  endloop
 endfacet
 facet normal -0.9999961273963693 -0.0007963238793645037 0.0026666571852355858
  outer loop
   vertex 0.14436105124361942 39.83984 0.8999999999999999
   vertex 0.1442009237805744 39.84 0.84
   vertex 0.16003251105522362 20.16016 0.8999999999999999
  endloop
 endfacet
 facet normal 0.0 0.9999964444634073 0.0026666571852532253
  outer loop
   vertex 9.925796704823716 39.84 0.84
   vertex 0.1442009237805744 39.84 0.84
   vertex 0.14436105124361942 39.83984 0.8999999999999999
  endloop
 endfacet
 facet normal 0.0 0.9999964444634073 0.002666657185253225
  outer loop
   vertex 9.92573046796886 39.83984 0.8999999999999999
   vertex 9.925796704823716 39.84 0.84
   vertex 0.14436105124361942 39.83984 0.8999999999999999
  endloop
 endfacet
 facet normal 0.7068226679625699 0.7073857540223236 0.002666657185190646
  outer loop
   vertex 29.621474659363425 20.16 0.84
   vertex 9.925796704823716 39.84 0.84
   vertex 9.92573046796886 39.83984 0.8999999999999999
  endloop
 endfacet
 facet normal 0.70682266796257 0.7073857540223236 0.0026666571851743266
  outer loop
   vertex 29.621088167582478 20.16016 0.8999999999999999
   vertex 29.621474659363425 20.16 0.84
   vertex 9.92573046796886 39.83984 0.8999999999999999
  endloop
 endfacet
 facet normal 0.0 -0.22255544738208158 0.9749200340748782
  outer loop
   vertex 0.16003251105522362 20.16016 0.8999999999999999
   vertex 29.621088167582478 20.16016 0.8999999999999999
   vertex 25.176819178421624 22.0 1.3199999999999998
  endloop
 endfacet
 facet normal 0.0 -0.22255544738208158 0.974920034074878
  outer loop
   vertex 1.9984079802100856 22.0 1.3199999999999998
   vertex 0.16003251105522362 20.16016 0.8999999999999999
   vertex 25.176819178421624 22.0 1.3199999999999998
  endloop
 endfacet
 facet normal -0.22255537681683404 -0.00017722684736954278 0.9749200340748783
  outer loop
   vertex 0.14436105124361942 39.83984 0.8999999999999999
   vertex 0.16003251105522362 20.16016 0.8999999999999999
   vertex 1.9984079802100856 22.0 1.3199999999999998
  endloop
 endfacet
 facet normal -0.22255537681683407 -0.00017722684736954346 0.9749200340748782
  outer loop
   vertex 1.9856667487985145 38.0 1.3199999999999998
   vertex 0.14436105124361942 39.83984 0.8999999999999999
   vertex 1.9984079802100856 22.0 1.3199999999999998
  endloop
 endfacet
 facet normal 0.0 0.22255544738208116 0.9749200340748782
  outer loop
   vertex 9.92573046796886 39.83984 0.8999999999999999
   vertex 0.14436105124361942 39.83984 0.8999999999999999
   vertex 1.9856667487985145 38.0 1.3199999999999998
  endloop
 endfacet
 facet normal 0.0 0.22255544738208116 0.9749200340748782
  outer loop
   vertex 9.164072873917798 38.0 1.3199999999999998
   vertex 9.92573046796886 39.83984 0.8999999999999999
   vertex 1.9856667487985145 38.0 1.3199999999999998
  endloop
 endfacet
 facet normal 0.1573077944018251 0.15743311271734203 0.9749200340748783
  outer loop
   vertex 29.621088167582478 20.16016 0.8999999999999999
   vertex 9.92573046796886 39.83984 0.8999999999999999
   vertex 9.164072873917798 38.0 1.3199999999999998
  endloop
 endfacet
 facet normal 0.1573077944018253 0.15743311271734226 0.9749200340748782
  outer loop
   vertex 25.176819178421624 22.0 1.3199999999999998
   vertex 29.621088167582478 20.16016 0.8999999999999999
   vertex 9.164072873917798 38.0 1.3199999999999998
  endloop
 endfacet
 facet normal 0.0 0.0 1.0
  outer loop
   vertex 25.176819178421624 22.0 1.3199999999999998
   vertex 1.9856667487985145 38.0 1.3199999999999998
   vertex 1.9984079802100856 22.0 1.3199999999999998
  endloop
 endfacet
 facet normal 0.0 0.0 1.0
  outer loop
   vertex 25.176819178421624 22.0 1.3199999999999998
   vertex 9.164072873917798 38.0 1.3199999999999998
   vertex 1.9856667487985145 38.0 1.3199999999999998
  endloop
 endfacet
 facet normal 0.0 0.0 -1.0
  outer loop
   vertex 30.835927126082197 18.0 0
   vertex 37.99840671193703 18.0 0
   vertex 37.985665480525455 2.0 0
  endloop
 endfacet
 facet normal 0.0 -0.0 -1.0
  outer loop
   vertex 30.835927126082197 18.0 0
   vertex 37.985665480525455 2.0 0
   vertex 14.823180821578372 2.0 0
  endloop
 endfacet
 facet normal 0.0 0.2225554473820816 -0.974920034074878
  outer loop
   vertex 37.99840671193703 18.0 0
   vertex 30.835927126082197 18.0 0
   vertex 30.074269532031135 19.83984 0.42
  endloop
 endfacet
 facet normal 0.0 0.22255544738208163 -0.9749200340748782
  outer loop
   vertex 39.839712409491916 19.83984 0.42
   vertex 37.99840671193703 18.0 0
   vertex 30.074269532031135 19.83984 0.42
  endloop
 endfacet
 facet normal 0.22255537681683507 -0.0001772268473695906 -0.9749200340748779
  outer loop
   vertex 37.985665480525455 2.0 0
   vertex 37.99840671193703 18.0 0
   vertex 39.839712409491916 19.83984 0.42
  endloop
 endfacet
 facet normal 0.22255537681683416 -0.0001772268473694917 -0.9749200340748783
  outer loop
   vertex 39.82404094968032 0.16015999999999997 0.42
   vertex 37.985665480525455 2.0 0
   vertex 39.839712409491916 19.83984 0.42
  endloop
 endfacet
 facet normal 0.0 -0.22255544738208147 -0.9749200340748782
  outer loop
   vertex 14.823180821578372 2.0 0
   vertex 37.985665480525455 2.0 0
   vertex 39.82404094968032 0.16015999999999997 0.42
  endloop
 endfacet
 facet normal 0.0 -0.2225554473820815 -0.9749200340748782
  outer loop
   vertex 10.378911832417518 0.16015999999999997 0.42
   vertex 14.823180821578372 2.0 0
   vertex 39.82404094968032 0.16015999999999997 0.42
  endloop
 endfacet
 facet normal -0.15730779440182532 0.15743311271734223 -0.9749200340748782
  outer loop
   vertex 30.835927126082197 18.0 0
   vertex 14.823180821578372 2.0 0
   vertex 10.378911832417518 0.16015999999999997 0.42
  endloop
 endfacet
 facet normal -0.15730779440182552 0.15743311271734248 -0.9749200340748782
  outer loop
   vertex 30.074269532031135 19.83984 0.42
   vertex 30.835927126082197 18.0 0
   vertex 10.378911832417518 0.16015999999999997 0.42
  endloop
 endfacet
 facet normal 0.0 0.9999964444634072 -0.002666657185253222
  outer loop
   vertex 39.839712409491916 19.83984 0.42
   vertex 30.074269532031135 19.83984 0.42
   vertex 30.074203295176275 19.84 0.48
  endloop
 endfacet
 facet normal 0.0 0.9999964444634072 -0.0026666571852532223
  outer loop
   vertex 39.83987253695496 19.84 0.48
   vertex 39.839712409491916 19.83984 0.42
   vertex 30.074203295176275 19.84 0.48
  endloop
 endfacet
 facet normal 0.9999961273963694 -0.000796323879364274 -0.002666657185156492
  outer loop
   vertex 39.82404094968032 0.16015999999999997 0.42
   vertex 39.839712409491916 19.83984 0.42
   vertex 39.83987253695496 19.84 0.48
  endloop
 endfacet
 facet normal 0.9999961273963691 -0.000796323879363859 -0.0026666571852924856
  outer loop
   vertex 39.82420082231874 0.15999999999999998 0.48
   vertex 39.82404094968032 0.16015999999999997 0.42
   vertex 39.83987253695496 19.84 0.48
  endloop
 endfacet
 facet normal 0.0 -0.9999964444634073 -0.0026666571852356443
  outer loop
   vertex 10.378911832417518 0.16015999999999997 0.42
   vertex 39.82404094968032 0.16015999999999997 0.42
   vertex 39.82420082231874 0.15999999999999998 0.48
  endloop
 endfacet
 facet normal 0.0 -0.9999964444634073 -0.0026666571852356443
  outer loop
   vertex 10.378525340636568 0.15999999999999998 0.48
   vertex 10.378911832417518 0.16015999999999997 0.42
   vertex 39.82420082231874 0.15999999999999998 0.48
  endloop
 endfacet
 facet normal -0.7068226679625698 0.7073857540223236 -0.0026666571852186206
  outer loop
   vertex 30.074269532031135 19.83984 0.42
   vertex 10.378911832417518 0.16015999999999997 0.42
   vertex 10.378525340636568 0.15999999999999998 0.48
  endloop
 endfacet
 facet normal -0.7068226679625699 0.7073857540223236 -0.0026666571852273797
  outer loop
   vertex 30.074203295176275 19.84 0.48
   vertex 30.074269532031135 19.83984 0.42
   vertex 10.378525340636568 0.15999999999999998 0.48
  endloop
 endfacet
 facet normal -0.0 0.0 1.0
  outer loop
   vertex 30.074203295176275 19.84 0.48
   vertex 39.82420082231874 0.15999999999999998 0.48
   vertex 39.83987253695496 19.84 0.48
  endloop
 endfacet
 facet normal 0.0 0.0 1.0
  outer loop
   vertex 30.074203295176275 19.84 0.48
   vertex 10.378525340636568 0.15999999999999998 0.48
   vertex 39.82420082231874 0.15999999999999998 0.48
  endloop
 endfacet
 facet normal 0.0 0.0 -1.0
  outer loop
   vertex 30.074203295176275 19.84 0.84
   vertex 39.83987253695496 19.84 0.84
   vertex 39.82420082231874 0.15999999999999998 0.84
  endloop
 endfacet
 facet normal 0.0 -0.0 -1.0
  outer loop
   vertex 30.074203295176275 19.84 0.84
   vertex 39.82420082231874 0.15999999999999998 0.84
   vertex 10.378525340636568 0.15999999999999998 0.84
  endloop
 endfacet
 facet normal 0.0 0.9999964444634072 0.002666657185253225
  outer loop
   vertex 39.83987253695496 19.84 0.84
   vertex 30.074203295176275 19.84 0.84
   vertex 30.074269532031135 19.83984 0.8999999999999999
  endloop
 endfacet
 facet normal 0.0 0.9999964444634073 0.002666657185253225
  outer loop
   vertex 39.839712409491916 19.83984 0.8999999999999999
   vertex 39.83987253695496 19.84 0.84
   vertex 30.074269532031135 19.83984 0.8999999999999999
  endloop
 endfacet
 facet normal 0.9999961273963694 -0.0007963238793638593 0.0026666571851564893
  outer loop
   vertex 39.82420082231874 0.15999999999999998 0.84
   vertex 39.83987253695496 19.84 0.84
   vertex 39.839712409491916 19.83984 0.8999999999999999
  endloop
 endfacet
 facet normal 0.9999961273963691 -0.0007963238793642737 0.0026666571852924895
  outer loop
   vertex 39.82404094968032 0.16015999999999997 0.8999999999999999
   vertex 39.82420082231874 0.15999999999999998 0.84
   vertex 39.839712409491916 19.83984 0.8999999999999999
  endloop
 endfacet
 facet normal 0.0 -0.9999964444634072 0.002666657185235647
  outer loop
   vertex 10.378525340636568 0.15999999999999998 0.84
   vertex 39.82420082231874 0.15999999999999998 0.84
   vertex 39.82404094968032 0.16015999999999997 0.8999999999999999
  endloop
 endfacet
 facet normal 0.0 -0.9999964444634073 0.002666657185235647
  outer loop
   vertex 10.378911832417518 0.16015999999999997 0.8999999999999999
   vertex 10.378525340636568 0.15999999999999998 0.84
   vertex 39.82404094968032 0.16015999999999997 0.8999999999999999
  endloop
 endfacet
 facet normal -0.7068226679625699 0.7073857540223236 0.0026666571851906465
  outer loop
   vertex 30.074203295176275 19.84 0.84
   vertex 10.378525340636568 0.15999999999999998 0.84
   vertex 10.378911832417518 0.16015999999999997 0.8999999999999999
  endloop
 endfacet
 facet normal -0.7068226679625698 0.7073857540223236 0.002666657185227382
  outer loop
   vertex 30.074269532031135 19.83984 0.8999999999999999
   vertex 30.074203295176275 19.84 0.84
   vertex 10.378911832417518 0.16015999999999997 0.8999999999999999
  endloop
 endfacet
 facet normal 0.0 0.22255544738208158 0.9749200340748782
  outer loop
   vertex 39.839712409491916 19.83984 0.8999999999999999
   vertex 30.074269532031135 19.83984 0.8999999999999999
   vertex 30.835927126082197 18.0 1.3199999999999998
  endloop
 endfacet
 facet normal 0.0 0.2225554473820816 0.974920034074878
  outer loop
   vertex 37.99840671193703 18.0 1.3199999999999998
   vertex 39.839712409491916 19.83984 0.8999999999999999
   vertex 30.835927126082197 18.0 1.3199999999999998
  endloop
 endfacet
 facet normal 0.22255537681683493 -0.00017722684736949234 0.9749200340748779
  outer loop
   vertex 39.82404094968032 0.16015999999999997 0.8999999999999999
   vertex 39.839712409491916 19.83984 0.8999999999999999
   vertex 37.99840671193703 18.0 1.3199999999999998
  endloop
 endfacet
 facet normal 0.22255537681683402 -0.00017722684736958975 0.9749200340748782
  outer loop
   vertex 37.985665480525455 2.0 1.3199999999999998
   vertex 39.82404094968032 0.16015999999999997 0.8999999999999999
   vertex 37.99840671193703 18.0 1.3199999999999998
  endloop
 endfacet
 facet normal 0.0 -0.22255544738208147 0.9749200340748782
  outer loop
   vertex 10.378911832417518 0.16015999999999997 0.8999999999999999
   vertex 39.82404094968032 0.16015999999999997 0.8999999999999999
   vertex 37.985665480525455 2.0 1.3199999999999998
  endloop
 endfacet
 facet normal 0.0 -0.22255544738208144 0.9749200340748782
  outer loop
   vertex 14.823180821578372 2.0 1.3199999999999998
   vertex 10.378911832417518 0.16015999999999997 0.8999999999999999
   vertex 37.985665480525455 2.0 1.3199999999999998
  endloop
 endfacet
 facet normal -0.1573077944018254 0.15743311271734237 0.9749200340748782
  outer loop
   vertex 30.074269532031135 19.83984 0.8999999999999999
   vertex 10.378911832417518 0.16015999999999997 0.8999999999999999
   vertex 14.823180821578372 2.0 1.3199999999999998
  endloop
 endfacet
 facet normal -0.15730779440182555 0.15743311271734245 0.9749200340748782
  outer loop
   vertex 30.835927126082197 18.0 1.3199999999999998
   vertex 30.074269532031135 19.83984 0.8999999999999999
   vertex 14.823180821578372 2.0 1.3199999999999998
  endloop
 endfacet
 facet normal -0.0 0.0 1.0
  outer loop
   vertex 30.835927126082197 18.0 1.3199999999999998
   vertex 37.985665480525455 2.0 1.3199999999999998
   vertex 37.99840671193703 18.0 1.3199999999999998
  endloop
 endfacet
 facet normal 0.0 0.0 1.0
  outer loop
   vertex 30.835927126082197 18.0 1.3199999999999998
   vertex 14.823180821578372 2.0 1.3199999999999998
   vertex 37.985665480525455 2.0 1.3199999999999998
  endloop
 endfacet
 facet normal 0.0 0.0 -1.0
  outer loop
   vertex 37.99840671193702 22.0 0
   vertex 30.835927126082197 22.0 0
   vertex 14.82318082157837 38.0 0
  endloop
 endfacet
 facet normal 0.0 0.0 -1.0
  outer loop
   vertex 37.99840671193702 22.0 0
   vertex 14.82318082157837 38.0 0
   vertex 37.98566548052545 38.0 0
  endloop
 endfacet
 facet normal 0.0 -0.22255544738208163 -0.9749200340748782
  outer loop
   vertex 30.835927126082197 22.0 0
   vertex 37.99840671193702 22.0 0
   vertex 39.83971240949191 20.16016 0.42
  endloop
 endfacet
 facet normal 0.0 -0.22255544738208163 -0.9749200340748782
  outer loop
   vertex 30.07426953203113 20.16016 0.42
   vertex 30.835927126082197 22.0 0
   vertex 39.83971240949191 20.16016 0.42
  endloop
 endfacet
 facet normal -0.15730779440182524 -0.1574331127173422 -0.9749200340748784
  outer loop
   vertex 14.82318082157837 38.0 0
   vertex 30.835927126082197 22.0 0
   vertex 30.07426953203113 20.16016 0.42
  endloop
 endfacet
 facet normal -0.15730779440182532 -0.15743311271734226 -0.9749200340748782
  outer loop
   vertex 10.378911832417513 39.83984 0.42
   vertex 14.82318082157837 38.0 0
   vertex 30.07426953203113 20.16016 0.42
  endloop
 endfacet
 facet normal 0.0 0.22255544738208122 -0.9749200340748782
  outer loop
   vertex 37.98566548052545 38.0 0
   vertex 14.82318082157837 38.0 0
   vertex 10.378911832417513 39.83984 0.42
  endloop
 endfacet
 facet normal 0.0 0.2225554473820812 -0.9749200340748782
  outer loop
   vertex 39.82404094968031 39.83984 0.42
   vertex 37.98566548052545 38.0 0
   vertex 10.378911832417513 39.83984 0.42
  endloop
 endfacet
 facet normal 0.22255537681683404 0.00017722684736958978 -0.9749200340748782
  outer loop
   vertex 37.99840671193702 22.0 0
   vertex 37.98566548052545 38.0 0
   vertex 39.82404094968031 39.83984 0.42
  endloop
 endfacet
 facet normal 0.222555376816835 0.00017722684736949234 -0.9749200340748779
  outer loop
   vertex 39.83971240949191 20.16016 0.42
   vertex 37.99840671193702 22.0 0
   vertex 39.82404094968031 39.83984 0.42
  endloop
 endfacet
 facet normal 0.0 -0.9999964444634073 -0.0026666571852532227
  outer loop
   vertex 30.07426953203113 20.16016 0.42
   vertex 39.83971240949191 20.16016 0.42
   vertex 39.83987253695496 20.16 0.48
  endloop
 endfacet
 facet normal 0.0 -0.9999964444634072 -0.0026666571852532223
  outer loop
   vertex 30.074203295176275 20.16 0.48
   vertex 30.07426953203113 20.16016 0.42
   vertex 39.83987253695496 20.16 0.48
  endloop
 endfacet
 facet normal -0.70682266796257 -0.7073857540223237 -0.002666657185184594
  outer loop
   vertex 10.378911832417513 39.83984 0.42
   vertex 30.07426953203113 20.16016 0.42
   vertex 30.074203295176275 20.16 0.48
  endloop
 endfacet
 facet normal -0.7068226679625699 -0.7073857540223236 -0.0026666571851952496
  outer loop
   vertex 10.378525340636564 39.84 0.48
   vertex 10.378911832417513 39.83984 0.42
   vertex 30.074203295176275 20.16 0.48
  endloop
 endfacet
 facet normal 0.0 0.9999964444634073 -0.0026666571852532223
  outer loop
   vertex 39.82404094968031 39.83984 0.42
   vertex 10.378911832417513 39.83984 0.42
   vertex 10.378525340636564 39.84 0.48
  endloop
 endfacet
 facet normal 0.0 0.9999964444634072 -0.0026666571852532223
  outer loop
   vertex 39.82420082231873 39.84 0.48
   vertex 39.82404094968031 39.83984 0.42
   vertex 10.378525340636564 39.84 0.48
  endloop
 endfacet
 facet normal 0.9999961273963691 0.0007963238793642736 -0.0026666571852924964
  outer loop
   vertex 39.83971240949191 20.16016 0.42
   vertex 39.82404094968031 39.83984 0.42
   vertex 39.82420082231873 39.84 0.48
  endloop
 endfacet
 facet normal 0.9999961273963691 0.0007963238793642199 -0.0026666571852749033
  outer loop
   vertex 39.83987253695496 20.16 0.48
   vertex 39.83971240949191 20.16016 0.42
   vertex 39.82420082231873 39.84 0.48
  endloop
 endfacet
 facet normal 0.0 0.0 1.0
  outer loop
   vertex 39.83987253695496 20.16 0.48
   vertex 10.378525340636564 39.84 0.48
   vertex 30.074203295176275 20.16 0.48
  endloop
 endfacet
 facet normal 0.0 0.0 1.0
  outer loop
   vertex 39.83987253695496 20.16 0.48
   vertex 39.82420082231873 39.84 0.48
   vertex 10.378525340636564 39.84 0.48
  endloop
 endfacet
 facet normal 0.0 0.0 -1.0
  outer loop
   vertex 39.83987253695496 20.16 0.84
   vertex 30.074203295176275 20.16 0.84
   vertex 10.378525340636564 39.84 0.84
  endloop
 endfacet
 facet normal 0.0 0.0 -1.0
  outer loop
   vertex 39.83987253695496 20.16 0.84
   vertex 10.378525340636564 39.84 0.84
   vertex 39.82420082231873 39.84 0.84
  endloop
 endfacet
 facet normal 0.0 -0.9999964444634072 0.002666657185253225
  outer loop
   vertex 30.074203295176275 20.16 0.84
   vertex 39.83987253695496 20.16 0.84
   vertex 39.83971240949191 20.16016 0.8999999999999999
  endloop
 endfacet
 facet normal 0.0 -0.9999964444634073 0.0026666571852532253
  outer loop
   vertex 30.07426953203113 20.16016 0.8999999999999999
   vertex 30.074203295176275 20.16 0.84
   vertex 39.83971240949191 20.16016 0.8999999999999999
  endloop
 endfacet
 facet normal -0.7068226679625699 -0.7073857540223236 0.002666657185190646
  outer loop
   vertex 10.378525340636564 39.84 0.84
   vertex 30.074203295176275 20.16 0.84
   vertex 30.07426953203113 20.16016 0.8999999999999999
  endloop
 endfacet
 facet normal -0.70682266796257 -0.7073857540223236 0.0026666571851952526
  outer loop
   vertex 10.378911832417513 39.83984 0.8999999999999999
   vertex 10.378525340636564 39.84 0.84
   vertex 30.07426953203113 20.16016 0.8999999999999999
  endloop
 endfacet
 facet normal 0.0 0.9999964444634073 0.0026666571852532253
  outer loop
   vertex 39.82420082231873 39.84 0.84
   vertex 10.378525340636564 39.84 0.84
   vertex 10.378911832417513 39.83984 0.8999999999999999
  endloop
 endfacet
 facet normal 0.0 0.9999964444634073 0.0026666571852532253
  outer loop
   vertex 39.82404094968031 39.83984 0.8999999999999999
   vertex 39.82420082231873 39.84 0.84
   vertex 10.378911832417513 39.83984 0.8999999999999999
  endloop
 endfacet
 facet normal 0.9999961273963691 0.0007963238793642198 0.0026666571852924916
  outer loop
   vertex 39.83987253695496 20.16 0.84
   vertex 39.82420082231873 39.84 0.84
   vertex 39.82404094968031 39.83984 0.8999999999999999
  endloop
 endfacet
 facet normal 0.9999961273963691 0.0007963238793642736 0.002666657185274906
  outer loop
   vertex 39.83971240949191 20.16016 0.8999999999999999
   vertex 39.83987253695496 20.16 0.84
   vertex 39.82404094968031 39.83984 0.8999999999999999
  endloop
 endfacet
 facet normal 0.0 -0.22255544738208163 0.9749200340748782
  outer loop
   vertex 30.07426953203113 20.16016 0.8999999999999999
   vertex 39.83971240949191 20.16016 0.8999999999999999
   vertex 37.99840671193702 22.0 1.3199999999999998
  endloop
 endfacet
 facet normal 0.0 -0.2225554473820816 0.9749200340748782
  outer loop
   vertex 30.835927126082197 22.0 1.3199999999999998
   vertex 30.07426953203113 20.16016 0.8999999999999999
   vertex 37.99840671193702 22.0 1.3199999999999998
  endloop
 endfacet
 facet normal -0.15730779440182543 -0.15743311271734237 0.9749200340748782
  outer loop
   vertex 10.378911832417513 39.83984 0.8999999999999999
   vertex 30.07426953203113 20.16016 0.8999999999999999
   vertex 30.835927126082197 22.0 1.3199999999999998
  endloop
 endfacet
 facet normal -0.1573077944018253 -0.15743311271734226 0.9749200340748782
  outer loop
   vertex 14.82318082157837 38.0 1.3199999999999998
   vertex 10.378911832417513 39.83984 0.8999999999999999
   vertex 30.835927126082197 22.0 1.3199999999999998
  endloop
 endfacet
 facet normal 0.0 0.22255544738208116 0.9749200340748782
  outer loop
   vertex 39.82404094968031 39.83984 0.8999999999999999
   vertex 10.378911832417513 39.83984 0.8999999999999999
   vertex 14.82318082157837 38.0 1.3199999999999998
  endloop
 endfacet
 facet normal 0.0 0.2225554473820812 0.9749200340748782
  outer loop
   vertex 37.98566548052545 38.0 1.3199999999999998
   vertex 39.82404094968031 39.83984 0.8999999999999999
   vertex 14.82318082157837 38.0 1.3199999999999998
  endloop
 endfacet
 facet normal 0.22255537681683416 0.00017722684736949169 0.9749200340748783
  outer loop
   vertex 39.83971240949191 20.16016 0.8999999999999999
   vertex 39.82404094968031 39.83984 0.8999999999999999
   vertex 37.98566548052545 38.0 1.3199999999999998
  endloop
 endfacet
 facet normal 0.22255537681683504 0.00017722684736959057 0.9749200340748779
  outer loop
   vertex 37.99840671193702 22.0 1.3199999999999998
   vertex 39.83971240949191 20.16016 0.8999999999999999
   vertex 37.98566548052545 38.0 1.3199999999999998
  endloop
 endfacet
 facet normal 0.0 0.0 1.0
  outer loop
   vertex 37.99840671193702 22.0 1.3199999999999998
   vertex 14.82318082157837 38.0 1.3199999999999998
   vertex 30.835927126082197 22.0 1.3199999999999998
  endloop
 endfacet
 facet normal 0.0 0.0 1.0
  outer loop
   vertex 37.99840671193702 22.0 1.3199999999999998
   vertex 37.98566548052545 38.0 1.3199999999999998
   vertex 14.82318082157837 38.0 1.3199999999999998
  endloop
 endfacet
endsolid
