solid PyGamic generated __Board__ SLA File
 facet normal 0.0 0.0 -1.0
  outer loop
   vertex -0.000337828981146697 18.32 0
   vertex 23.252956011340977 18.32 0
   vertex 37.790019488664385 0.001 0
  endloop
 endfacet
 facet normal 0.0 -0.0 -1.0
  outer loop
   vertex -0.000337828981146697 18.32 0
   vertex 37.790019488664385 0.001 0
   vertex -0.01492574262043236 0.001 0
  endloop
 endfacet
 facet normal 0.0 1.0 0.0
  outer loop
   vertex 23.252956011340977 18.32 0
   vertex -0.000337828981146697 18.32 0
   vertex -0.000337828981146697 18.32 0.6
  endloop
 endfacet
 facet normal 0.0 1.0 0.0
  outer loop
   vertex 23.252956011340977 18.32 0.6
   vertex 23.252956011340977 18.32 0
   vertex -0.000337828981146697 18.32 0.6
  endloop
 endfacet
 facet normal 0.7833269096274834 0.6216099682706645 0.0
  outer loop
   vertex 37.790019488664385 0.001 0
   vertex 23.252956011340977 18.32 0
   vertex 23.252956011340977 18.32 0.6
  endloop
 endfacet
 facet normal 0.7833269096274834 0.6216099682706645 0.0
  outer loop
   vertex 37.790019488664385 0.001 0.6
   vertex 37.790019488664385 0.001 0
   vertex 23.252956011340977 18.32 0.6
  endloop
 endfacet
 facet normal 0.0 -1.0 0.0
  outer loop
   vertex -0.01492574262043236 0.001 0
   vertex 37.790019488664385 0.001 0
   vertex 37.790019488664385 0.001 0.6
  endloop
 endfacet
 facet normal 0.0 -1.0 0.0
  outer loop
   vertex -0.01492574262043236 0.001 0.6
   vertex -0.01492574262043236 0.001 0
   vertex 37.790019488664385 0.001 0.6
  endloop
 endfacet
 facet normal -0.9999996829318346 0.0007963267107332632 0.0
  outer loop
   vertex -0.000337828981146697 18.32 0
   vertex -0.01492574262043236 0.001 0
   vertex -0.01492574262043236 0.001 0.6
  endloop
 endfacet
 facet normal -0.9999996829318346 0.0007963267107332632 0.0
  outer loop
   vertex -0.000337828981146697 18.32 0.6
   vertex -0.000337828981146697 18.32 0
   vertex -0.01492574262043236 0.001 0.6
  endloop
 endfacet
 facet normal -0.0 0.0 1.0
  outer loop
   vertex -0.000337828981146697 18.32 0.6
   vertex 37.790019488664385 0.001 0.6
   vertex 23.252956011340977 18.32 0.6
  endloop
 endfacet
 facet normal 0.0 0.0 1.0
  outer loop
   vertex -0.000337828981146697 18.32 0.6
   vertex -0.01492574262043236 0.001 0.6
   vertex 37.790019488664385 0.001 0.6
  endloop
 endfacet
 facet normal 0.0 0.0 -1.0
  outer loop
   vertex 23.252956011340977 21.68 0
   vertex -0.000337828981146697 21.68 0
   vertex -0.014925742620432364 39.999 0
  endloop
 endfacet
 facet normal 0.0 0.0 -1.0
  outer loop
   vertex 23.252956011340977 21.68 0
   vertex -0.014925742620432364 39.999 0
   vertex 37.790019488664385 39.999 0
  endloop
 endfacet
 facet normal 0.0 -1.0 0.0
  outer loop
   vertex -0.000337828981146697 21.68 0
   vertex 23.252956011340977 21.68 0
   vertex 23.252956011340977 21.68 0.6
  endloop
 endfacet
 facet normal 0.0 -1.0 0.0
  outer loop
   vertex -0.000337828981146697 21.68 0.6
   vertex -0.000337828981146697 21.68 0
   vertex 23.252956011340977 21.68 0.6
  endloop
 endfacet
 facet normal -0.9999996829318346 -0.0007963267107332635 0.0
  outer loop
   vertex -0.014925742620432364 39.999 0
   vertex -0.000337828981146697 21.68 0
   vertex -0.000337828981146697 21.68 0.6
  endloop
 endfacet
 facet normal -0.9999996829318346 -0.0007963267107332635 -0.0
  outer loop
   vertex -0.014925742620432364 39.999 0.6
   vertex -0.014925742620432364 39.999 0
   vertex -0.000337828981146697 21.68 0.6
  endloop
 endfacet
 facet normal 0.0 1.0 0.0
  outer loop
   vertex 37.790019488664385 39.999 0
   vertex -0.014925742620432364 39.999 0
   vertex -0.014925742620432364 39.999 0.6
  endloop
 endfacet
 facet normal 0.0 1.0 0.0
  outer loop
   vertex 37.790019488664385 39.999 0.6
   vertex 37.790019488664385 39.999 0
   vertex -0.014925742620432364 39.999 0.6
  endloop
 endfacet
 facet normal 0.7833269096274834 -0.6216099682706645 0.0
  outer loop
   vertex 23.252956011340977 21.68 0
   vertex 37.790019488664385 39.999 0
   vertex 37.790019488664385 39.999 0.6
  endloop
 endfacet
 facet normal 0.7833269096274834 -0.6216099682706645 0.0
  outer loop
   vertex 23.252956011340977 21.68 0.6
   vertex 23.252956011340977 21.68 0
   vertex 37.790019488664385 39.999 0.6
  endloop
 endfacet
 facet normal 0.0 0.0 1.0
  outer loop
   vertex 23.252956011340977 21.68 0.6
   vertex -0.014925742620432364 39.999 0.6
   vertex -0.000337828981146697 21.68 0.6
  endloop
 endfacet
 facet normal 0.0 -0.0 1.0
  outer loop
   vertex 23.252956011340977 21.68 0.6
   vertex 37.790019488664385 39.999 0.6
   vertex -0.014925742620432364 39.999 0.6
  endloop
 endfacet
 facet normal 0.0 0.0 -1.0
  outer loop
   vertex 27.54235288856286 18.32 0
   vertex 39.25295601134097 18.32 0
   vertex 53.79001948866437 0.001 0
  endloop
 endfacet
 facet normal 0.0 0.0 -1.0
  outer loop
   vertex 27.54235288856286 18.32 0
   vertex 53.79001948866437 0.001 0
   vertex 42.07941636588627 0.001 0
  endloop
 endfacet
 facet normal 0.0 1.0 0.0
  outer loop
   vertex 39.25295601134097 18.32 0
   vertex 27.54235288856286 18.32 0
   vertex 27.54235288856286 18.32 0.6
  endloop
 endfacet
 facet normal 0.0 1.0 0.0
  outer loop
   vertex 39.25295601134097 18.32 0.6
   vertex 39.25295601134097 18.32 0
   vertex 27.54235288856286 18.32 0.6
  endloop
 endfacet
 facet normal 0.7833269096274836 0.6216099682706643 0.0
  outer loop
   vertex 53.79001948866437 0.001 0
   vertex 39.25295601134097 18.32 0
   vertex 39.25295601134097 18.32 0.6
  endloop
 endfacet
 facet normal 0.7833269096274836 0.6216099682706643 0.0
  outer loop
   vertex 53.79001948866437 0.001 0.6
   vertex 53.79001948866437 0.001 0
   vertex 39.25295601134097 18.32 0.6
  endloop
 endfacet
 facet normal 0.0 -1.0 0.0
  outer loop
   vertex 42.07941636588627 0.001 0
   vertex 53.79001948866437 0.001 0
   vertex 53.79001948866437 0.001 0.6
  endloop
 endfacet
 facet normal 0.0 -1.0 0.0
  outer loop
   vertex 42.07941636588627 0.001 0.6
   vertex 42.07941636588627 0.001 0
   vertex 53.79001948866437 0.001 0.6
  endloop
 endfacet
 facet normal -0.7833269096274834 -0.6216099682706645 0.0
  outer loop
   vertex 27.54235288856286 18.32 0
   vertex 42.07941636588627 0.001 0
   vertex 42.07941636588627 0.001 0.6
  endloop
 endfacet
 facet normal -0.7833269096274834 -0.6216099682706645 -0.0
  outer loop
   vertex 27.54235288856286 18.32 0.6
   vertex 27.54235288856286 18.32 0
   vertex 42.07941636588627 0.001 0.6
  endloop
 endfacet
 facet normal -0.0 0.0 1.0
  outer loop
   vertex 27.54235288856286 18.32 0.6
   vertex 53.79001948866437 0.001 0.6
   vertex 39.25295601134097 18.32 0.6
  endloop
 endfacet
 facet normal 0.0 0.0 1.0
  outer loop
   vertex 27.54235288856286 18.32 0.6
   vertex 42.07941636588627 0.001 0.6
   vertex 53.79001948866437 0.001 0.6
  endloop
 endfacet
 facet normal 0.0 0.0 -1.0
  outer loop
   vertex 39.25295601134098 21.68 0
   vertex 27.542352888562863 21.68 0
   vertex 42.07941636588627 39.999 0
  endloop
 endfacet
 facet normal 0.0 0.0 -1.0
  outer loop
   vertex 39.25295601134098 21.68 0
   vertex 42.07941636588627 39.999 0
   vertex 53.790019488664385 39.999 0
  endloop
 endfacet
 facet normal 0.0 -1.0 0.0
  outer loop
   vertex 27.542352888562863 21.68 0
   vertex 39.25295601134098 21.68 0
   vertex 39.25295601134098 21.68 0.6
  endloop
 endfacet
 facet normal 0.0 -1.0 0.0
  outer loop
   vertex 27.542352888562863 21.68 0.6
   vertex 27.542352888562863 21.68 0
   vertex 39.25295601134098 21.68 0.6
  endloop
 endfacet
 facet normal -0.7833269096274835 0.6216099682706643 0.0
  outer loop
   vertex 42.07941636588627 39.999 0
   vertex 27.542352888562863 21.68 0
   vertex 27.542352888562863 21.68 0.6
  endloop
 endfacet
 facet normal -0.7833269096274835 0.6216099682706643 0.0
  outer loop
   vertex 42.07941636588627 39.999 0.6
   vertex 42.07941636588627 39.999 0
   vertex 27.542352888562863 21.68 0.6
  endloop
 endfacet
 facet normal 0.0 1.0 0.0
  outer loop
   vertex 53.790019488664385 39.999 0
   vertex 42.07941636588627 39.999 0
   vertex 42.07941636588627 39.999 0.6
  endloop
 endfacet
 facet normal 0.0 1.0 0.0
  outer loop
   vertex 53.790019488664385 39.999 0.6
   vertex 53.790019488664385 39.999 0
   vertex 42.07941636588627 39.999 0.6
  endloop
 endfacet
 facet normal 0.7833269096274834 -0.6216099682706645 0.0
  outer loop
   vertex 39.25295601134098 21.68 0
   vertex 53.790019488664385 39.999 0
   vertex 53.790019488664385 39.999 0.6
  endloop
 endfacet
 facet normal 0.7833269096274834 -0.6216099682706645 0.0
  outer loop
   vertex 39.25295601134098 21.68 0.6
   vertex 39.25295601134098 21.68 0
   vertex 53.790019488664385 39.999 0.6
  endloop
 endfacet
 facet normal 0.0 -0.0 1.0
  outer loop
   vertex 39.25295601134098 21.68 0.6
   vertex 42.07941636588627 39.999 0.6
   vertex 27.542352888562863 21.68 0.6
  endloop
 endfacet
 facet normal 0.0 0.0 1.0
  outer loop
   vertex 39.25295601134098 21.68 0.6
   vertex 53.790019488664385 39.999 0.6
   vertex 42.07941636588627 39.999 0.6
  endloop
 endfacet
 facet normal 0.0 0.0 -1.0
  outer loop
   vertex 43.54235288856286 18.319999999999993 0
   vertex 55.252956011340984 18.319999999999993 0
   vertex 69.79001948866438 0.001 0
  endloop
 endfacet
 facet normal 0.0 0.0 -1.0
  outer loop
   vertex 43.54235288856286 18.319999999999993 0
   vertex 69.79001948866438 0.001 0
   vertex 58.07941636588625 0.001 0
  endloop
 endfacet
 facet normal 0.0 1.0 0.0
  outer loop
   vertex 55.252956011340984 18.319999999999993 0
   vertex 43.54235288856286 18.319999999999993 0
   vertex 43.54235288856286 18.319999999999993 0.6
  endloop
 endfacet
 facet normal 0.0 1.0 0.0
  outer loop
   vertex 55.252956011340984 18.319999999999993 0.6
   vertex 55.252956011340984 18.319999999999993 0
   vertex 43.54235288856286 18.319999999999993 0.6
  endloop
 endfacet
 facet normal 0.7833269096274834 0.6216099682706644 0.0
  outer loop
   vertex 69.79001948866438 0.001 0
   vertex 55.252956011340984 18.319999999999993 0
   vertex 55.252956011340984 18.319999999999993 0.6
  endloop
 endfacet
 facet normal 0.7833269096274834 0.6216099682706644 0.0
  outer loop
   vertex 69.79001948866438 0.001 0.6
   vertex 69.79001948866438 0.001 0
   vertex 55.252956011340984 18.319999999999993 0.6
  endloop
 endfacet
 facet normal 0.0 -1.0 0.0
  outer loop
   vertex 58.07941636588625 0.001 0
   vertex 69.79001948866438 0.001 0
   vertex 69.79001948866438 0.001 0.6
  endloop
 endfacet
 facet normal 0.0 -1.0 0.0
  outer loop
   vertex 58.07941636588625 0.001 0.6
   vertex 58.07941636588625 0.001 0
   vertex 69.79001948866438 0.001 0.6
  endloop
 endfacet
 facet normal -0.7833269096274835 -0.6216099682706643 0.0
  outer loop
   vertex 43.54235288856286 18.319999999999993 0
   vertex 58.07941636588625 0.001 0
   vertex 58.07941636588625 0.001 0.6
  endloop
 endfacet
 facet normal -0.7833269096274835 -0.6216099682706643 -0.0
  outer loop
   vertex 43.54235288856286 18.319999999999993 0.6
   vertex 43.54235288856286 18.319999999999993 0
   vertex 58.07941636588625 0.001 0.6
  endloop
 endfacet
 facet normal -0.0 0.0 1.0
  outer loop
   vertex 43.54235288856286 18.319999999999993 0.6
   vertex 69.79001948866438 0.001 0.6
   vertex 55.252956011340984 18.319999999999993 0.6
  endloop
 endfacet
 facet normal 0.0 0.0 1.0
  outer loop
   vertex 43.54235288856286 18.319999999999993 0.6
   vertex 58.07941636588625 0.001 0.6
   vertex 69.79001948866438 0.001 0.6
  endloop
 endfacet
 facet normal 0.0 0.0 -1.0
  outer loop
   vertex 55.25295601134096 21.679999999999993 0
   vertex 43.54235288856286 21.679999999999993 0
   vertex 58.07941636588628 39.999 0
  endloop
 endfacet
 facet normal 0.0 0.0 -1.0
  outer loop
   vertex 55.25295601134096 21.679999999999993 0
   vertex 58.07941636588628 39.999 0
   vertex 69.79001948866437 39.999 0
  endloop
 endfacet
 facet normal 0.0 -1.0 0.0
  outer loop
   vertex 43.54235288856286 21.679999999999993 0
   vertex 55.25295601134096 21.679999999999993 0
   vertex 55.25295601134096 21.679999999999993 0.6
  endloop
 endfacet
 facet normal 0.0 -1.0 0.0
  outer loop
   vertex 43.54235288856286 21.679999999999993 0.6
   vertex 43.54235288856286 21.679999999999993 0
   vertex 55.25295601134096 21.679999999999993 0.6
  endloop
 endfacet
 facet normal -0.7833269096274833 0.6216099682706646 0.0
  outer loop
   vertex 58.07941636588628 39.999 0
   vertex 43.54235288856286 21.679999999999993 0
   vertex 43.54235288856286 21.679999999999993 0.6
  endloop
 endfacet
 facet normal -0.7833269096274833 0.6216099682706646 0.0
  outer loop
   vertex 58.07941636588628 39.999 0.6
   vertex 58.07941636588628 39.999 0
   vertex 43.54235288856286 21.679999999999993 0.6
  endloop
 endfacet
 facet normal 0.0 1.0 0.0
  outer loop
   vertex 69.79001948866437 39.999 0
   vertex 58.07941636588628 39.999 0
   vertex 58.07941636588628 39.999 0.6
  endloop
 endfacet
 facet normal 0.0 1.0 0.0
  outer loop
   vertex 69.79001948866437 39.999 0.6
   vertex 69.79001948866437 39.999 0
   vertex 58.07941636588628 39.999 0.6
  endloop
 endfacet
 facet normal 0.7833269096274835 -0.6216099682706643 0.0
  outer loop
   vertex 55.25295601134096 21.679999999999993 0
   vertex 69.79001948866437 39.999 0
   vertex 69.79001948866437 39.999 0.6
  endloop
 endfacet
 facet normal 0.7833269096274835 -0.6216099682706643 0.0
  outer loop
   vertex 55.25295601134096 21.679999999999993 0.6
   vertex 55.25295601134096 21.679999999999993 0
   vertex 69.79001948866437 39.999 0.6
  endloop
 endfacet
 facet normal 0.0 -0.0 1.0
  outer loop
   vertex 55.25295601134096 21.679999999999993 0.6
   vertex 58.07941636588628 39.999 0.6
   vertex 43.54235288856286 21.679999999999993 0.6
  endloop
 endfacet
 facet normal 0.0 0.0 1.0
  outer loop
   vertex 55.25295601134096 21.679999999999993 0.6
   vertex 69.79001948866437 39.999 0.6
   vertex 58.07941636588628 39.999 0.6
  endloop
 endfacet
 facet normal 0.0 0.0 -1.0
  outer loop
   vertex 59.54235288856286 18.320000000000004 0
   vertex 71.25295601134097 18.320000000000004 0
   vertex 85.79001948866438 0.001 0
  endloop
 endfacet
 facet normal 0.0 0.0 -1.0
  outer loop
   vertex 59.54235288856286 18.320000000000004 0
   vertex 85.79001948866438 0.001 0
   vertex 74.07941636588626 0.001 0
  endloop
 endfacet
 facet normal 0.0 1.0 0.0
  outer loop
   vertex 71.25295601134097 18.320000000000004 0
   vertex 59.54235288856286 18.320000000000004 0
   vertex 59.54235288856286 18.320000000000004 0.6
  endloop
 endfacet
 facet normal 0.0 1.0 0.0
  outer loop
   vertex 71.25295601134097 18.320000000000004 0.6
   vertex 71.25295601134097 18.320000000000004 0
   vertex 59.54235288856286 18.320000000000004 0.6
  endloop
 endfacet
 facet normal 0.7833269096274833 0.6216099682706646 0.0
  outer loop
   vertex 85.79001948866438 0.001 0
   vertex 71.25295601134097 18.320000000000004 0
   vertex 71.25295601134097 18.320000000000004 0.6
  endloop
 endfacet
 facet normal 0.7833269096274833 0.6216099682706646 0.0
  outer loop
   vertex 85.79001948866438 0.001 0.6
   vertex 85.79001948866438 0.001 0
   vertex 71.25295601134097 18.320000000000004 0.6
  endloop
 endfacet
 facet normal 0.0 -1.0 0.0
  outer loop
   vertex 74.07941636588626 0.001 0
   vertex 85.79001948866438 0.001 0
   vertex 85.79001948866438 0.001 0.6
  endloop
 endfacet
 facet normal 0.0 -1.0 0.0
  outer loop
   vertex 74.07941636588626 0.001 0.6
   vertex 74.07941636588626 0.001 0
   vertex 85.79001948866438 0.001 0.6
  endloop
 endfacet
 facet normal -0.7833269096274836 -0.6216099682706643 0.0
  outer loop
   vertex 59.54235288856286 18.320000000000004 0
   vertex 74.07941636588626 0.001 0
   vertex 74.07941636588626 0.001 0.6
  endloop
 endfacet
 facet normal -0.7833269096274836 -0.6216099682706643 -0.0
  outer loop
   vertex 59.54235288856286 18.320000000000004 0.6
   vertex 59.54235288856286 18.320000000000004 0
   vertex 74.07941636588626 0.001 0.6
  endloop
 endfacet
 facet normal -0.0 0.0 1.0
  outer loop
   vertex 59.54235288856286 18.320000000000004 0.6
   vertex 85.79001948866438 0.001 0.6
   vertex 71.25295601134097 18.320000000000004 0.6
  endloop
 endfacet
 facet normal 0.0 0.0 1.0
  outer loop
   vertex 59.54235288856286 18.320000000000004 0.6
   vertex 74.07941636588626 0.001 0.6
   vertex 85.79001948866438 0.001 0.6
  endloop
 endfacet
 facet normal 0.0 0.0 -1.0
  outer loop
   vertex 71.252956011341 21.680000000000003 0
   vertex 59.54235288856286 21.680000000000003 0
   vertex 74.07941636588626 39.998999999999995 0
  endloop
 endfacet
 facet normal 0.0 0.0 -1.0
  outer loop
   vertex 71.252956011341 21.680000000000003 0
   vertex 74.07941636588626 39.998999999999995 0
   vertex 85.7900194886644 39.998999999999995 0
  endloop
 endfacet
 facet normal 0.0 -1.0 0.0
  outer loop
   vertex 59.54235288856286 21.680000000000003 0
   vertex 71.252956011341 21.680000000000003 0
   vertex 71.252956011341 21.680000000000003 0.6
  endloop
 endfacet
 facet normal 0.0 -1.0 0.0
  outer loop
   vertex 59.54235288856286 21.680000000000003 0.6
   vertex 59.54235288856286 21.680000000000003 0
   vertex 71.252956011341 21.680000000000003 0.6
  endloop
 endfacet
 facet normal -0.7833269096274834 0.6216099682706644 0.0
  outer loop
   vertex 74.07941636588626 39.998999999999995 0
   vertex 59.54235288856286 21.680000000000003 0
   vertex 59.54235288856286 21.680000000000003 0.6
  endloop
 endfacet
 facet normal -0.7833269096274834 0.6216099682706644 0.0
  outer loop
   vertex 74.07941636588626 39.998999999999995 0.6
   vertex 74.07941636588626 39.998999999999995 0
   vertex 59.54235288856286 21.680000000000003 0.6
  endloop
 endfacet
 facet normal 0.0 1.0 0.0
  outer loop
   vertex 85.7900194886644 39.998999999999995 0
   vertex 74.07941636588626 39.998999999999995 0
   vertex 74.07941636588626 39.998999999999995 0.6
  endloop
 endfacet
 facet normal 0.0 1.0 0.0
  outer loop
   vertex 85.7900194886644 39.998999999999995 0.6
   vertex 85.7900194886644 39.998999999999995 0
   vertex 74.07941636588626 39.998999999999995 0.6
  endloop
 endfacet
 facet normal 0.7833269096274834 -0.6216099682706644 0.0
  outer loop
   vertex 71.252956011341 21.680000000000003 0
   vertex 85.7900194886644 39.998999999999995 0
   vertex 85.7900194886644 39.998999999999995 0.6
  endloop
 endfacet
 facet normal 0.7833269096274834 -0.6216099682706644 0.0
  outer loop
   vertex 71.252956011341 21.680000000000003 0.6
   vertex 71.252956011341 21.680000000000003 0
   vertex 85.7900194886644 39.998999999999995 0.6
  endloop
 endfacet
 facet normal 0.0 -0.0 1.0
  outer loop
   vertex 71.252956011341 21.680000000000003 0.6
   vertex 74.07941636588626 39.998999999999995 0.6
   vertex 59.54235288856286 21.680000000000003 0.6
  endloop
 endfacet
 facet normal 0.0 0.0 1.0
  outer loop
   vertex 71.252956011341 21.680000000000003 0.6
   vertex 85.7900194886644 39.998999999999995 0.6
   vertex 74.07941636588626 39.998999999999995 0.6
  endloop
 endfacet
 facet normal 0.0 0.0 -1.0
  outer loop
   vertex 75.54235288856287 18.32 0
   vertex 87.252956011341 18.32 0
   vertex 101.7900194886644 0.001 0
  endloop
 endfacet
 facet normal 0.0 0.0 -1.0
  outer loop
   vertex 75.54235288856287 18.32 0
   vertex 101.7900194886644 0.001 0
   vertex 90.07941636588627 0.001 0
  endloop
 endfacet
 facet normal 0.0 1.0 0.0
  outer loop
   vertex 87.252956011341 18.32 0
   vertex 75.54235288856287 18.32 0
   vertex 75.54235288856287 18.32 0.6
  endloop
 endfacet
 facet normal 0.0 1.0 0.0
  outer loop
   vertex 87.252956011341 18.32 0.6
   vertex 87.252956011341 18.32 0
   vertex 75.54235288856287 18.32 0.6
  endloop
 endfacet
 facet normal 0.7833269096274836 0.6216099682706643 0.0
  outer loop
   vertex 101.7900194886644 0.001 0
   vertex 87.252956011341 18.32 0
   vertex 87.252956011341 18.32 0.6
  endloop
 endfacet
 facet normal 0.7833269096274836 0.6216099682706643 0.0
  outer loop
   vertex 101.7900194886644 0.001 0.6
   vertex 101.7900194886644 0.001 0
   vertex 87.252956011341 18.32 0.6
  endloop
 endfacet
 facet normal 0.0 -1.0 0.0
  outer loop
   vertex 90.07941636588627 0.001 0
   vertex 101.7900194886644 0.001 0
   vertex 101.7900194886644 0.001 0.6
  endloop
 endfacet
 facet normal 0.0 -1.0 0.0
  outer loop
   vertex 90.07941636588627 0.001 0.6
   vertex 90.07941636588627 0.001 0
   vertex 101.7900194886644 0.001 0.6
  endloop
 endfacet
 facet normal -0.7833269096274836 -0.6216099682706643 0.0
  outer loop
   vertex 75.54235288856287 18.32 0
   vertex 90.07941636588627 0.001 0
   vertex 90.07941636588627 0.001 0.6
  endloop
 endfacet
 facet normal -0.7833269096274836 -0.6216099682706643 -0.0
  outer loop
   vertex 75.54235288856287 18.32 0.6
   vertex 75.54235288856287 18.32 0
   vertex 90.07941636588627 0.001 0.6
  endloop
 endfacet
 facet normal -0.0 0.0 1.0
  outer loop
   vertex 75.54235288856287 18.32 0.6
   vertex 101.7900194886644 0.001 0.6
   vertex 87.252956011341 18.32 0.6
  endloop
 endfacet
 facet normal 0.0 0.0 1.0
  outer loop
   vertex 75.54235288856287 18.32 0.6
   vertex 90.07941636588627 0.001 0.6
   vertex 101.7900194886644 0.001 0.6
  endloop
 endfacet
 facet normal 0.0 0.0 -1.0
  outer loop
   vertex 87.252956011341 21.68 0
   vertex 75.54235288856287 21.68 0
   vertex 90.0794163658863 39.999 0
  endloop
 endfacet
 facet normal 0.0 0.0 -1.0
  outer loop
   vertex 87.252956011341 21.68 0
   vertex 90.0794163658863 39.999 0
   vertex 101.79001948866441 39.999 0
  endloop
 endfacet
 facet normal 0.0 -1.0 0.0
  outer loop
   vertex 75.54235288856287 21.68 0
   vertex 87.252956011341 21.68 0
   vertex 87.252956011341 21.68 0.6
  endloop
 endfacet
 facet normal 0.0 -1.0 0.0
  outer loop
   vertex 75.54235288856287 21.68 0.6
   vertex 75.54235288856287 21.68 0
   vertex 87.252956011341 21.68 0.6
  endloop
 endfacet
 facet normal -0.783326909627483 0.621609968270665 0.0
  outer loop
   vertex 90.0794163658863 39.999 0
   vertex 75.54235288856287 21.68 0
   vertex 75.54235288856287 21.68 0.6
  endloop
 endfacet
 facet normal -0.783326909627483 0.621609968270665 0.0
  outer loop
   vertex 90.0794163658863 39.999 0.6
   vertex 90.0794163658863 39.999 0
   vertex 75.54235288856287 21.68 0.6
  endloop
 endfacet
 facet normal 0.0 1.0 0.0
  outer loop
   vertex 101.79001948866441 39.999 0
   vertex 90.0794163658863 39.999 0
   vertex 90.0794163658863 39.999 0.6
  endloop
 endfacet
 facet normal 0.0 1.0 0.0
  outer loop
   vertex 101.79001948866441 39.999 0.6
   vertex 101.79001948866441 39.999 0
   vertex 90.0794163658863 39.999 0.6
  endloop
 endfacet
 facet normal 0.7833269096274833 -0.6216099682706646 0.0
  outer loop
   vertex 87.252956011341 21.68 0
   vertex 101.79001948866441 39.999 0
   vertex 101.79001948866441 39.999 0.6
  endloop
 endfacet
 facet normal 0.7833269096274833 -0.6216099682706646 0.0
  outer loop
   vertex 87.252956011341 21.68 0.6
   vertex 87.252956011341 21.68 0
   vertex 101.79001948866441 39.999 0.6
  endloop
 endfacet
 facet normal 0.0 -0.0 1.0
  outer loop
   vertex 87.252956011341 21.68 0.6
   vertex 90.0794163658863 39.999 0.6
   vertex 75.54235288856287 21.68 0.6
  endloop
 endfacet
 facet normal 0.0 0.0 1.0
  outer loop
   vertex 87.252956011341 21.68 0.6
   vertex 101.79001948866441 39.999 0.6
   vertex 90.0794163658863 39.999 0.6
  endloop
 endfacet
 facet normal 0.0 0.0 -1.0
  outer loop
   vertex 91.54235288856287 18.32 0
   vertex 127.99766217038473 18.32 0
   vertex 127.98307425674543 0.001 0
  endloop
 endfacet
 facet normal 0.0 0.0 -1.0
  outer loop
   vertex 91.54235288856287 18.32 0
   vertex 127.98307425674543 0.001 0
   vertex 106.07941636588627 0.001 0
  endloop
 endfacet
 facet normal 0.0 1.0 0.0
  outer loop
   vertex 127.99766217038473 18.32 0
   vertex 91.54235288856287 18.32 0
   vertex 91.54235288856287 18.32 0.6
  endloop
 endfacet
 facet normal 0.0 1.0 0.0
  outer loop
   vertex 127.99766217038473 18.32 0.6
   vertex 127.99766217038473 18.32 0
   vertex 91.54235288856287 18.32 0.6
  endloop
 endfacet
 facet normal 0.9999996829318346 -0.0007963267107342344 0.0
  outer loop
   vertex 127.98307425674543 0.001 0
   vertex 127.99766217038473 18.32 0
   vertex 127.99766217038473 18.32 0.6
  endloop
 endfacet
 facet normal 0.9999996829318346 -0.0007963267107342344 0.0
  outer loop
   vertex 127.98307425674543 0.001 0.6
   vertex 127.98307425674543 0.001 0
   vertex 127.99766217038473 18.32 0.6
  endloop
 endfacet
 facet normal 0.0 -1.0 0.0
  outer loop
   vertex 106.07941636588627 0.001 0
   vertex 127.98307425674543 0.001 0
   vertex 127.98307425674543 0.001 0.6
  endloop
 endfacet
 facet normal 0.0 -1.0 0.0
  outer loop
   vertex 106.07941636588627 0.001 0.6
   vertex 106.07941636588627 0.001 0
   vertex 127.98307425674543 0.001 0.6
  endloop
 endfacet
 facet normal -0.7833269096274836 -0.6216099682706643 0.0
  outer loop
   vertex 91.54235288856287 18.32 0
   vertex 106.07941636588627 0.001 0
   vertex 106.07941636588627 0.001 0.6
  endloop
 endfacet
 facet normal -0.7833269096274836 -0.6216099682706643 -0.0
  outer loop
   vertex 91.54235288856287 18.32 0.6
   vertex 91.54235288856287 18.32 0
   vertex 106.07941636588627 0.001 0.6
  endloop
 endfacet
 facet normal -0.0 0.0 1.0
  outer loop
   vertex 91.54235288856287 18.32 0.6
   vertex 127.98307425674543 0.001 0.6
   vertex 127.99766217038473 18.32 0.6
  endloop
 endfacet
 facet normal 0.0 0.0 1.0
  outer loop
   vertex 91.54235288856287 18.32 0.6
   vertex 106.07941636588627 0.001 0.6
   vertex 127.98307425674543 0.001 0.6
  endloop
 endfacet
 facet normal 0.0 0.0 -1.0
  outer loop
   vertex 127.99766217038473 21.68 0
   vertex 91.54235288856287 21.68 0
   vertex 106.07941636588627 39.998999999999995 0
  endloop
 endfacet
 facet normal 0.0 0.0 -1.0
  outer loop
   vertex 127.99766217038473 21.68 0
   vertex 106.07941636588627 39.998999999999995 0
   vertex 127.98307425674543 39.998999999999995 0
  endloop
 endfacet
 facet normal 0.0 -1.0 0.0
  outer loop
   vertex 91.54235288856287 21.68 0
   vertex 127.99766217038473 21.68 0
   vertex 127.99766217038473 21.68 0.6
  endloop
 endfacet
 facet normal 0.0 -1.0 0.0
  outer loop
   vertex 91.54235288856287 21.68 0.6
   vertex 91.54235288856287 21.68 0
   vertex 127.99766217038473 21.68 0.6
  endloop
 endfacet
 facet normal -0.7833269096274834 0.6216099682706643 0.0
  outer loop
   vertex 106.07941636588627 39.998999999999995 0
   vertex 91.54235288856287 21.68 0
   vertex 91.54235288856287 21.68 0.6
  endloop
 endfacet
 facet normal -0.7833269096274834 0.6216099682706643 0.0
  outer loop
   vertex 106.07941636588627 39.998999999999995 0.6
   vertex 106.07941636588627 39.998999999999995 0
   vertex 91.54235288856287 21.68 0.6
  endloop
 endfacet
 facet normal 0.0 1.0 0.0
  outer loop
   vertex 127.98307425674543 39.998999999999995 0
   vertex 106.07941636588627 39.998999999999995 0
   vertex 106.07941636588627 39.998999999999995 0.6
  endloop
 endfacet
 facet normal 0.0 1.0 0.0
  outer loop
   vertex 127.98307425674543 39.998999999999995 0.6
   vertex 127.98307425674543 39.998999999999995 0
   vertex 106.07941636588627 39.998999999999995 0.6
  endloop
 endfacet
 facet normal 0.9999996829318346 0.0007963267107342345 0.0
  outer loop
   vertex 127.99766217038473 21.68 0
   vertex 127.98307425674543 39.998999999999995 0
   vertex 127.98307425674543 39.998999999999995 0.6
  endloop
 endfacet
 facet normal 0.9999996829318346 0.0007963267107342345 0.0
  outer loop
   vertex 127.99766217038473 21.68 0.6
   vertex 127.99766217038473 21.68 0
   vertex 127.98307425674543 39.998999999999995 0.6
  endloop
 endfacet
 facet normal 0.0 0.0 1.0
  outer loop
   vertex 127.99766217038473 21.68 0.6
   vertex 106.07941636588627 39.998999999999995 0.6
   vertex 91.54235288856287 21.68 0.6
  endloop
 endfacet
 facet normal 0.0 0.0 1.0
  outer loop
   vertex 127.99766217038473 21.68 0.6
   vertex 127.98307425674543 39.998999999999995 0.6
   vertex 106.07941636588627 39.998999999999995 0.6
  endloop
 endfacet
endsolid
