solid PyGamic generated __Board__ SLA File
 facet normal 0.0 0.0 -1.0
  outer loop
   vertex -0.000337828981146697 16.32 0
   vertex 24.94900609629306 16.32 0
   vertex 11.339919412919937 10.343502884254441 0
  endloop
 endfacet
 facet normal 0.0 0.0 -1.0
  outer loop
   vertex 24.94900609629306 16.32 0
   vertex 8.617005662343187 0.001 0
   vertex 11.896416528665496 9.0 0
  endloop
 endfacet
 facet normal 0.0 0.0 -1.0
  outer loop
   vertex 8.617005662343187 0.001 0
   vertex -0.013333088693985976 0.001 0
   vertex 8.096416528665495 9.0 0
  endloop
 endfacet
 facet normal 0.0 0.0 -1.0
  outer loop
   vertex -0.013333088693985976 0.001 0
   vertex -0.000337828981146697 16.32 0
   vertex 8.652913644411054 10.343502884254441 0
  endloop
 endfacet
 facet normal 0.0 0.0 -1.0
  outer loop
   vertex 11.896416528665496 9.0 0
   vertex 11.339919412919937 10.343502884254441 0
   vertex 24.94900609629306 16.32 0
  endloop
 endfacet
 facet normal 0.0 0.0 -1.0
  outer loop
   vertex 11.896416528665496 9.0 0
   vertex 8.617005662343187 0.001 0
   vertex 11.339919412919937 7.656497115745559 0
  endloop
 endfacet
 facet normal 0.0 0.0 -1.0
  outer loop
   vertex 11.339919412919937 10.343502884254441 0
   vertex 9.996416528665495 10.9 0
   vertex -0.000337828981146697 16.32 0
  endloop
 endfacet
 facet normal -0.0 0.0 -1.0
  outer loop
   vertex 9.996416528665495 10.9 0
   vertex 8.652913644411054 10.343502884254441 0
   vertex -0.000337828981146697 16.32 0
  endloop
 endfacet
 facet normal 0.0 0.0 -1.0
  outer loop
   vertex 8.652913644411054 10.343502884254441 0
   vertex 8.096416528665495 9.0 0
   vertex -0.013333088693985976 0.001 0
  endloop
 endfacet
 facet normal 0.0 0.0 -1.0
  outer loop
   vertex 8.096416528665495 9.0 0
   vertex 8.652913644411054 7.65649711574556 0
   vertex 8.617005662343187 0.001 0
  endloop
 endfacet
 facet normal 0.0 -0.0 -1.0
  outer loop
   vertex 8.652913644411054 7.65649711574556 0
   vertex 9.996416528665495 7.1 0
   vertex 8.617005662343187 0.001 0
  endloop
 endfacet
 facet normal 0.0 -0.0 -1.0
  outer loop
   vertex 9.996416528665495 7.1 0
   vertex 11.339919412919937 7.656497115745559 0
   vertex 8.617005662343187 0.001 0
  endloop
 endfacet
 facet normal 0.0 1.0 0.0
  outer loop
   vertex 24.94900609629306 16.32 0
   vertex -0.000337828981146697 16.32 0
   vertex -0.000337828981146697 16.32 0.36
  endloop
 endfacet
 facet normal 0.0 1.0 0.0
  outer loop
   vertex 24.94900609629306 16.32 0.36
   vertex 24.94900609629306 16.32 0
   vertex -0.000337828981146697 16.32 0.36
  endloop
 endfacet
 facet normal 0.706825181105366 -0.7073882691671998 0.0
  outer loop
   vertex 8.617005662343187 0.001 0
   vertex 24.94900609629306 16.32 0
   vertex 24.94900609629306 16.32 0.36
  endloop
 endfacet
 facet normal 0.706825181105366 -0.7073882691671998 0.0
  outer loop
   vertex 8.617005662343187 0.001 0.36
   vertex 8.617005662343187 0.001 0
   vertex 24.94900609629306 16.32 0.36
  endloop
 endfacet
 facet normal 0.0 -1.0 0.0
  outer loop
   vertex -0.013333088693985976 0.001 0
   vertex 8.617005662343187 0.001 0
   vertex 8.617005662343187 0.001 0.36
  endloop
 endfacet
 facet normal 0.0 -1.0 0.0
  outer loop
   vertex -0.013333088693985976 0.001 0.36
   vertex -0.013333088693985976 0.001 0
   vertex 8.617005662343187 0.001 0.36
  endloop
 endfacet
 facet normal -0.9999996829318346 0.0007963267107332632 0.0
  outer loop
   vertex -0.000337828981146697 16.32 0
   vertex -0.013333088693985976 0.001 0
   vertex -0.013333088693985976 0.001 0.36
  endloop
 endfacet
 facet normal -0.9999996829318346 0.0007963267107332632 0.0
  outer loop
   vertex -0.000337828981146697 16.32 0.36
   vertex -0.000337828981146697 16.32 0
   vertex -0.013333088693985976 0.001 0.36
  endloop
 endfacet
 facet normal -0.0 0.0 1.0
  outer loop
   vertex -0.000337828981146697 16.32 0.36
   vertex 11.339919412919937 10.343502884254441 0.36
   vertex 24.94900609629306 16.32 0.36
  endloop
 endfacet
 facet normal 0.0 0.0 1.0
  outer loop
   vertex 24.94900609629306 16.32 0.36
   vertex 11.896416528665496 9.0 0.36
   vertex 8.617005662343187 0.001 0.36
  endloop
 endfacet
 facet normal 0.0 0.0 1.0
  outer loop
   vertex 8.617005662343187 0.001 0.36
   vertex 8.096416528665495 9.0 0.36
   vertex -0.013333088693985976 0.001 0.36
  endloop
 endfacet
 facet normal 0.0 0.0 1.0
  outer loop
   vertex -0.013333088693985976 0.001 0.36
   vertex 8.652913644411054 10.343502884254441 0.36
   vertex -0.000337828981146697 16.32 0.36
  endloop
 endfacet
 facet normal 0.0 -0.0 1.0
  outer loop
   vertex 11.896416528665496 9.0 0.36
   vertex 24.94900609629306 16.32 0.36
   vertex 11.339919412919937 10.343502884254441 0.36
  endloop
 endfacet
 facet normal 0.0 0.0 1.0
  outer loop
   vertex 11.896416528665496 9.0 0.36
   vertex 11.339919412919937 7.656497115745559 0.36
   vertex 8.617005662343187 0.001 0.36
  endloop
 endfacet
 facet normal 0.0 0.0 1.0
  outer loop
   vertex 11.339919412919937 10.343502884254441 0.36
   vertex -0.000337828981146697 16.32 0.36
   vertex 9.996416528665495 10.9 0.36
  endloop
 endfacet
 facet normal 0.0 0.0 1.0
  outer loop
   vertex 9.996416528665495 10.9 0.36
   vertex -0.000337828981146697 16.32 0.36
   vertex 8.652913644411054 10.343502884254441 0.36
  endloop
 endfacet
 facet normal 0.0 0.0 1.0
  outer loop
   vertex 8.652913644411054 10.343502884254441 0.36
   vertex -0.013333088693985976 0.001 0.36
   vertex 8.096416528665495 9.0 0.36
  endloop
 endfacet
 facet normal 0.0 0.0 1.0
  outer loop
   vertex 8.096416528665495 9.0 0.36
   vertex 8.617005662343187 0.001 0.36
   vertex 8.652913644411054 7.65649711574556 0.36
  endloop
 endfacet
 facet normal 0.0 0.0 1.0
  outer loop
   vertex 8.652913644411054 7.65649711574556 0.36
   vertex 8.617005662343187 0.001 0.36
   vertex 9.996416528665495 7.1 0.36
  endloop
 endfacet
 facet normal -0.0 0.0 1.0
  outer loop
   vertex 9.996416528665495 7.1 0.36
   vertex 8.617005662343187 0.001 0.36
   vertex 11.339919412919937 7.656497115745559 0.36
  endloop
 endfacet
 facet normal -0.923879532511287 -0.3826834323650892 0.0
  outer loop
   vertex 11.896416528665496 9.0 0
   vertex 11.896416528665496 9.0 0.36
   vertex 11.339919412919937 10.343502884254441 0
  endloop
 endfacet
 facet normal -0.923879532511287 -0.3826834323650892 0.0
  outer loop
   vertex 11.339919412919937 10.343502884254441 0
   vertex 11.896416528665496 9.0 0.36
   vertex 11.339919412919937 10.343502884254441 0.36
  endloop
 endfacet
 facet normal -0.3826834323650892 -0.923879532511287 0.0
  outer loop
   vertex 11.339919412919937 10.343502884254441 0
   vertex 11.339919412919937 10.343502884254441 0.36
   vertex 9.996416528665495 10.9 0
  endloop
 endfacet
 facet normal -0.3826834323650892 -0.923879532511287 0.0
  outer loop
   vertex 9.996416528665495 10.9 0
   vertex 11.339919412919937 10.343502884254441 0.36
   vertex 9.996416528665495 10.9 0.36
  endloop
 endfacet
 facet normal 0.3826834323650892 -0.923879532511287 0.0
  outer loop
   vertex 9.996416528665495 10.9 0
   vertex 9.996416528665495 10.9 0.36
   vertex 8.652913644411054 10.343502884254441 0
  endloop
 endfacet
 facet normal 0.3826834323650892 -0.923879532511287 0.0
  outer loop
   vertex 8.652913644411054 10.343502884254441 0
   vertex 9.996416528665495 10.9 0.36
   vertex 8.652913644411054 10.343502884254441 0.36
  endloop
 endfacet
 facet normal 0.923879532511287 -0.3826834323650892 0.0
  outer loop
   vertex 8.652913644411054 10.343502884254441 0
   vertex 8.652913644411054 10.343502884254441 0.36
   vertex 8.096416528665495 9.0 0
  endloop
 endfacet
 facet normal 0.923879532511287 -0.3826834323650892 0.0
  outer loop
   vertex 8.096416528665495 9.0 0
   vertex 8.652913644411054 10.343502884254441 0.36
   vertex 8.096416528665495 9.0 0.36
  endloop
 endfacet
 facet normal 0.923879532511287 0.38268343236508945 -0.0
  outer loop
   vertex 8.096416528665495 9.0 0
   vertex 8.096416528665495 9.0 0.36
   vertex 8.652913644411054 7.65649711574556 0
  endloop
 endfacet
 facet normal 0.923879532511287 0.38268343236508945 -0.0
  outer loop
   vertex 8.652913644411054 7.65649711574556 0
   vertex 8.096416528665495 9.0 0.36
   vertex 8.652913644411054 7.65649711574556 0.36
  endloop
 endfacet
 facet normal 0.3826834323650898 0.9238795325112867 -0.0
  outer loop
   vertex 8.652913644411054 7.65649711574556 0
   vertex 8.652913644411054 7.65649711574556 0.36
   vertex 9.996416528665495 7.1 0
  endloop
 endfacet
 facet normal 0.3826834323650898 0.9238795325112867 -0.0
  outer loop
   vertex 9.996416528665495 7.1 0
   vertex 8.652913644411054 7.65649711574556 0.36
   vertex 9.996416528665495 7.1 0.36
  endloop
 endfacet
 facet normal -0.3826834323650892 0.923879532511287 0.0
  outer loop
   vertex 9.996416528665495 7.1 0
   vertex 9.996416528665495 7.1 0.36
   vertex 11.339919412919937 7.656497115745559 0
  endloop
 endfacet
 facet normal -0.3826834323650892 0.923879532511287 0.0
  outer loop
   vertex 11.339919412919937 7.656497115745559 0
   vertex 9.996416528665495 7.1 0.36
   vertex 11.339919412919937 7.656497115745559 0.36
  endloop
 endfacet
 facet normal -0.923879532511287 0.3826834323650892 0.0
  outer loop
   vertex 11.339919412919937 7.656497115745559 0
   vertex 11.339919412919937 7.656497115745559 0.36
   vertex 11.896416528665496 9.0 0
  endloop
 endfacet
 facet normal -0.923879532511287 0.3826834323650892 0.0
  outer loop
   vertex 11.896416528665496 9.0 0
   vertex 11.339919412919937 7.656497115745559 0.36
   vertex 11.896416528665496 9.0 0.36
  endloop
 endfacet
 facet normal 0.0 0.0 -1.0
  outer loop
   vertex 24.94900609629307 19.68 0
   vertex -0.000337828981146697 19.68 0
   vertex 9.996416528665495 25.1 0
  endloop
 endfacet
 facet normal 0.0 0.0 -1.0
  outer loop
   vertex -0.000337828981146697 19.68 0
   vertex -0.013333088693985978 35.999 0
   vertex 8.652913644411054 28.34350288425444 0
  endloop
 endfacet
 facet normal 0.0 0.0 -1.0
  outer loop
   vertex -0.013333088693985978 35.999 0
   vertex 8.617005662343194 35.999 0
   vertex 11.339919412919937 28.34350288425444 0
  endloop
 endfacet
 facet normal 0.0 0.0 -1.0
  outer loop
   vertex 8.617005662343194 35.999 0
   vertex 24.94900609629307 19.68 0
   vertex 11.896416528665496 27.0 0
  endloop
 endfacet
 facet normal 0.0 -0.0 -1.0
  outer loop
   vertex 11.896416528665496 27.0 0
   vertex 24.94900609629307 19.68 0
   vertex 11.339919412919937 25.65649711574556 0
  endloop
 endfacet
 facet normal 0.0 0.0 -1.0
  outer loop
   vertex 11.896416528665496 27.0 0
   vertex 11.339919412919937 28.34350288425444 0
   vertex 8.617005662343194 35.999 0
  endloop
 endfacet
 facet normal 0.0 0.0 -1.0
  outer loop
   vertex 11.339919412919937 28.34350288425444 0
   vertex 9.996416528665495 28.9 0
   vertex -0.013333088693985978 35.999 0
  endloop
 endfacet
 facet normal -0.0 0.0 -1.0
  outer loop
   vertex 9.996416528665495 28.9 0
   vertex 8.652913644411054 28.34350288425444 0
   vertex -0.013333088693985978 35.999 0
  endloop
 endfacet
 facet normal 0.0 0.0 -1.0
  outer loop
   vertex 8.652913644411054 28.34350288425444 0
   vertex 8.096416528665495 27.0 0
   vertex -0.000337828981146697 19.68 0
  endloop
 endfacet
 facet normal 0.0 -0.0 -1.0
  outer loop
   vertex 8.096416528665495 27.0 0
   vertex 8.652913644411054 25.65649711574556 0
   vertex -0.000337828981146697 19.68 0
  endloop
 endfacet
 facet normal 0.0 -0.0 -1.0
  outer loop
   vertex 8.652913644411054 25.65649711574556 0
   vertex 9.996416528665495 25.1 0
   vertex -0.000337828981146697 19.68 0
  endloop
 endfacet
 facet normal 0.0 0.0 -1.0
  outer loop
   vertex 9.996416528665495 25.1 0
   vertex 11.339919412919937 25.65649711574556 0
   vertex 24.94900609629307 19.68 0
  endloop
 endfacet
 facet normal 0.0 -1.0 0.0
  outer loop
   vertex -0.000337828981146697 19.68 0
   vertex 24.94900609629307 19.68 0
   vertex 24.94900609629307 19.68 0.36
  endloop
 endfacet
 facet normal 0.0 -1.0 0.0
  outer loop
   vertex -0.000337828981146697 19.68 0.36
   vertex -0.000337828981146697 19.68 0
   vertex 24.94900609629307 19.68 0.36
  endloop
 endfacet
 facet normal -0.9999996829318346 -0.0007963267107332632 0.0
  outer loop
   vertex -0.013333088693985978 35.999 0
   vertex -0.000337828981146697 19.68 0
   vertex -0.000337828981146697 19.68 0.36
  endloop
 endfacet
 facet normal -0.9999996829318346 -0.0007963267107332632 -0.0
  outer loop
   vertex -0.013333088693985978 35.999 0.36
   vertex -0.013333088693985978 35.999 0
   vertex -0.000337828981146697 19.68 0.36
  endloop
 endfacet
 facet normal 0.0 1.0 0.0
  outer loop
   vertex 8.617005662343194 35.999 0
   vertex -0.013333088693985978 35.999 0
   vertex -0.013333088693985978 35.999 0.36
  endloop
 endfacet
 facet normal 0.0 1.0 0.0
  outer loop
   vertex 8.617005662343194 35.999 0.36
   vertex 8.617005662343194 35.999 0
   vertex -0.013333088693985978 35.999 0.36
  endloop
 endfacet
 facet normal 0.7068251811053659 0.7073882691671997 0.0
  outer loop
   vertex 24.94900609629307 19.68 0
   vertex 8.617005662343194 35.999 0
   vertex 8.617005662343194 35.999 0.36
  endloop
 endfacet
 facet normal 0.7068251811053659 0.7073882691671997 0.0
  outer loop
   vertex 24.94900609629307 19.68 0.36
   vertex 24.94900609629307 19.68 0
   vertex 8.617005662343194 35.999 0.36
  endloop
 endfacet
 facet normal 0.0 0.0 1.0
  outer loop
   vertex 24.94900609629307 19.68 0.36
   vertex 9.996416528665495 25.1 0.36
   vertex -0.000337828981146697 19.68 0.36
  endloop
 endfacet
 facet normal 0.0 -0.0 1.0
  outer loop
   vertex -0.000337828981146697 19.68 0.36
   vertex 8.652913644411054 28.34350288425444 0.36
   vertex -0.013333088693985978 35.999 0.36
  endloop
 endfacet
 facet normal -0.0 0.0 1.0
  outer loop
   vertex -0.013333088693985978 35.999 0.36
   vertex 11.339919412919937 28.34350288425444 0.36
   vertex 8.617005662343194 35.999 0.36
  endloop
 endfacet
 facet normal 0.0 0.0 1.0
  outer loop
   vertex 8.617005662343194 35.999 0.36
   vertex 11.896416528665496 27.0 0.36
   vertex 24.94900609629307 19.68 0.36
  endloop
 endfacet
 facet normal 0.0 0.0 1.0
  outer loop
   vertex 11.896416528665496 27.0 0.36
   vertex 11.339919412919937 25.65649711574556 0.36
   vertex 24.94900609629307 19.68 0.36
  endloop
 endfacet
 facet normal 0.0 0.0 1.0
  outer loop
   vertex 11.896416528665496 27.0 0.36
   vertex 8.617005662343194 35.999 0.36
   vertex 11.339919412919937 28.34350288425444 0.36
  endloop
 endfacet
 facet normal 0.0 0.0 1.0
  outer loop
   vertex 11.339919412919937 28.34350288425444 0.36
   vertex -0.013333088693985978 35.999 0.36
   vertex 9.996416528665495 28.9 0.36
  endloop
 endfacet
 facet normal 0.0 0.0 1.0
  outer loop
   vertex 9.996416528665495 28.9 0.36
   vertex -0.013333088693985978 35.999 0.36
   vertex 8.652913644411054 28.34350288425444 0.36
  endloop
 endfacet
 facet normal 0.0 0.0 1.0
  outer loop
   vertex 8.652913644411054 28.34350288425444 0.36
   vertex -0.000337828981146697 19.68 0.36
   vertex 8.096416528665495 27.0 0.36
  endloop
 endfacet
 facet normal 0.0 0.0 1.0
  outer loop
   vertex 8.096416528665495 27.0 0.36
   vertex -0.000337828981146697 19.68 0.36
   vertex 8.652913644411054 25.65649711574556 0.36
  endloop
 endfacet
 facet normal 0.0 0.0 1.0
  outer loop
   vertex 8.652913644411054 25.65649711574556 0.36
   vertex -0.000337828981146697 19.68 0.36
   vertex 9.996416528665495 25.1 0.36
  endloop
 endfacet
 facet normal -0.0 0.0 1.0
  outer loop
   vertex 9.996416528665495 25.1 0.36
   vertex 24.94900609629307 19.68 0.36
   vertex 11.339919412919937 25.65649711574556 0.36
  endloop
 endfacet
 facet normal -0.923879532511287 -0.3826834323650892 0.0
  outer loop
   vertex 11.896416528665496 27.0 0
   vertex 11.896416528665496 27.0 0.36
   vertex 11.339919412919937 28.34350288425444 0
  endloop
 endfacet
 facet normal -0.923879532511287 -0.3826834323650892 0.0
  outer loop
   vertex 11.339919412919937 28.34350288425444 0
   vertex 11.896416528665496 27.0 0.36
   vertex 11.339919412919937 28.34350288425444 0.36
  endloop
 endfacet
 facet normal -0.38268343236508817 -0.9238795325112873 0.0
  outer loop
   vertex 11.339919412919937 28.34350288425444 0
   vertex 11.339919412919937 28.34350288425444 0.36
   vertex 9.996416528665495 28.9 0
  endloop
 endfacet
 facet normal -0.38268343236508817 -0.9238795325112873 0.0
  outer loop
   vertex 9.996416528665495 28.9 0
   vertex 11.339919412919937 28.34350288425444 0.36
   vertex 9.996416528665495 28.9 0.36
  endloop
 endfacet
 facet normal 0.38268343236508817 -0.9238795325112873 0.0
  outer loop
   vertex 9.996416528665495 28.9 0
   vertex 9.996416528665495 28.9 0.36
   vertex 8.652913644411054 28.34350288425444 0
  endloop
 endfacet
 facet normal 0.38268343236508817 -0.9238795325112873 0.0
  outer loop
   vertex 8.652913644411054 28.34350288425444 0
   vertex 9.996416528665495 28.9 0.36
   vertex 8.652913644411054 28.34350288425444 0.36
  endloop
 endfacet
 facet normal 0.923879532511287 -0.3826834323650892 0.0
  outer loop
   vertex 8.652913644411054 28.34350288425444 0
   vertex 8.652913644411054 28.34350288425444 0.36
   vertex 8.096416528665495 27.0 0
  endloop
 endfacet
 facet normal 0.923879532511287 -0.3826834323650892 0.0
  outer loop
   vertex 8.096416528665495 27.0 0
   vertex 8.652913644411054 28.34350288425444 0.36
   vertex 8.096416528665495 27.0 0.36
  endloop
 endfacet
 facet normal 0.923879532511287 0.3826834323650892 -0.0
  outer loop
   vertex 8.096416528665495 27.0 0
   vertex 8.096416528665495 27.0 0.36
   vertex 8.652913644411054 25.65649711574556 0
  endloop
 endfacet
 facet normal 0.923879532511287 0.3826834323650892 -0.0
  outer loop
   vertex 8.652913644411054 25.65649711574556 0
   vertex 8.096416528665495 27.0 0.36
   vertex 8.652913644411054 25.65649711574556 0.36
  endloop
 endfacet
 facet normal 0.38268343236508817 0.9238795325112873 -0.0
  outer loop
   vertex 8.652913644411054 25.65649711574556 0
   vertex 8.652913644411054 25.65649711574556 0.36
   vertex 9.996416528665495 25.1 0
  endloop
 endfacet
 facet normal 0.38268343236508817 0.9238795325112873 -0.0
  outer loop
   vertex 9.996416528665495 25.1 0
   vertex 8.652913644411054 25.65649711574556 0.36
   vertex 9.996416528665495 25.1 0.36
  endloop
 endfacet
 facet normal -0.38268343236508817 0.9238795325112873 0.0
  outer loop
   vertex 9.996416528665495 25.1 0
   vertex 9.996416528665495 25.1 0.36
   vertex 11.339919412919937 25.65649711574556 0
  endloop
 endfacet
 facet normal -0.38268343236508817 0.9238795325112873 0.0
  outer loop
   vertex 11.339919412919937 25.65649711574556 0
   vertex 9.996416528665495 25.1 0.36
   vertex 11.339919412919937 25.65649711574556 0.36
  endloop
 endfacet
 facet normal -0.923879532511287 0.3826834323650892 0.0
  outer loop
   vertex 11.339919412919937 25.65649711574556 0
   vertex 11.339919412919937 25.65649711574556 0.36
   vertex 11.896416528665496 27.0 0
  endloop
 endfacet
 facet normal -0.923879532511287 0.3826834323650892 0.0
  outer loop
   vertex 11.896416528665496 27.0 0
   vertex 11.339919412919937 25.65649711574556 0.36
   vertex 11.896416528665496 27.0 0.36
  endloop
 endfacet
 facet normal 0.0 0.0 -1.0
  outer loop
   vertex 29.70265677232794 16.32 0
   vertex 69.99766217038471 16.32 0
   vertex 44.9964165286655 10.9 0
  endloop
 endfacet
 facet normal 0.0 0.0 -1.0
  outer loop
   vertex 69.99766217038471 16.32 0
   vertex 69.98466691067186 0.001 0
   vertex 46.8964165286655 9.0 0
  endloop
 endfacet
 facet normal 0.0 0.0 -1.0
  outer loop
   vertex 69.98466691067186 0.001 0
   vertex 13.370656338378067 0.001 0
   vertex 44.9964165286655 7.1 0
  endloop
 endfacet
 facet normal 0.0 0.0 -1.0
  outer loop
   vertex 13.370656338378067 0.001 0
   vertex 29.70265677232794 16.32 0
   vertex 44.9964165286655 10.9 0
  endloop
 endfacet
 facet normal 0.0 0.0 -1.0
  outer loop
   vertex 46.8964165286655 9.0 0
   vertex 46.33991941291994 10.343502884254441 0
   vertex 69.99766217038471 16.32 0
  endloop
 endfacet
 facet normal 0.0 -0.0 -1.0
  outer loop
   vertex 46.8964165286655 9.0 0
   vertex 69.98466691067186 0.001 0
   vertex 46.33991941291994 7.656497115745559 0
  endloop
 endfacet
 facet normal 0.0 0.0 -1.0
  outer loop
   vertex 46.33991941291994 10.343502884254441 0
   vertex 44.9964165286655 10.9 0
   vertex 69.99766217038471 16.32 0
  endloop
 endfacet
 facet normal 0.0 0.0 -1.0
  outer loop
   vertex 44.9964165286655 10.9 0
   vertex 43.65291364441106 10.343502884254441 0
   vertex 13.370656338378067 0.001 0
  endloop
 endfacet
 facet normal 0.0 0.0 -1.0
  outer loop
   vertex 43.65291364441106 10.343502884254441 0
   vertex 43.0964165286655 9.0 0
   vertex 13.370656338378067 0.001 0
  endloop
 endfacet
 facet normal 0.0 -0.0 -1.0
  outer loop
   vertex 43.0964165286655 9.0 0
   vertex 43.65291364441106 7.65649711574556 0
   vertex 13.370656338378067 0.001 0
  endloop
 endfacet
 facet normal 0.0 -0.0 -1.0
  outer loop
   vertex 43.65291364441106 7.65649711574556 0
   vertex 44.9964165286655 7.1 0
   vertex 13.370656338378067 0.001 0
  endloop
 endfacet
 facet normal 0.0 0.0 -1.0
  outer loop
   vertex 44.9964165286655 7.1 0
   vertex 46.33991941291994 7.656497115745559 0
   vertex 69.98466691067186 0.001 0
  endloop
 endfacet
 facet normal 0.0 1.0 0.0
  outer loop
   vertex 69.99766217038471 16.32 0
   vertex 29.70265677232794 16.32 0
   vertex 29.70265677232794 16.32 0.36
  endloop
 endfacet
 facet normal 0.0 1.0 0.0
  outer loop
   vertex 69.99766217038471 16.32 0.36
   vertex 69.99766217038471 16.32 0
   vertex 29.70265677232794 16.32 0.36
  endloop
 endfacet
 facet normal 0.9999996829318346 -0.0007963267107340551 0.0
  outer loop
   vertex 69.98466691067186 0.001 0
   vertex 69.99766217038471 16.32 0
   vertex 69.99766217038471 16.32 0.36
  endloop
 endfacet
 facet normal 0.9999996829318346 -0.0007963267107340551 0.0
  outer loop
   vertex 69.98466691067186 0.001 0.36
   vertex 69.98466691067186 0.001 0
   vertex 69.99766217038471 16.32 0.36
  endloop
 endfacet
 facet normal 0.0 -1.0 0.0
  outer loop
   vertex 13.370656338378067 0.001 0
   vertex 69.98466691067186 0.001 0
   vertex 69.98466691067186 0.001 0.36
  endloop
 endfacet
 facet normal 0.0 -1.0 0.0
  outer loop
   vertex 13.370656338378067 0.001 0.36
   vertex 13.370656338378067 0.001 0
   vertex 69.98466691067186 0.001 0.36
  endloop
 endfacet
 facet normal -0.706825181105366 0.7073882691671998 0.0
  outer loop
   vertex 29.70265677232794 16.32 0
   vertex 13.370656338378067 0.001 0
   vertex 13.370656338378067 0.001 0.36
  endloop
 endfacet
 facet normal -0.706825181105366 0.7073882691671998 0.0
  outer loop
   vertex 29.70265677232794 16.32 0.36
   vertex 29.70265677232794 16.32 0
   vertex 13.370656338378067 0.001 0.36
  endloop
 endfacet
 facet normal -0.0 0.0 1.0
  outer loop
   vertex 29.70265677232794 16.32 0.36
   vertex 44.9964165286655 10.9 0.36
   vertex 69.99766217038471 16.32 0.36
  endloop
 endfacet
 facet normal 0.0 0.0 1.0
  outer loop
   vertex 69.99766217038471 16.32 0.36
   vertex 46.8964165286655 9.0 0.36
   vertex 69.98466691067186 0.001 0.36
  endloop
 endfacet
 facet normal 0.0 0.0 1.0
  outer loop
   vertex 69.98466691067186 0.001 0.36
   vertex 44.9964165286655 7.1 0.36
   vertex 13.370656338378067 0.001 0.36
  endloop
 endfacet
 facet normal 0.0 0.0 1.0
  outer loop
   vertex 13.370656338378067 0.001 0.36
   vertex 44.9964165286655 10.9 0.36
   vertex 29.70265677232794 16.32 0.36
  endloop
 endfacet
 facet normal 0.0 -0.0 1.0
  outer loop
   vertex 46.8964165286655 9.0 0.36
   vertex 69.99766217038471 16.32 0.36
   vertex 46.33991941291994 10.343502884254441 0.36
  endloop
 endfacet
 facet normal 0.0 0.0 1.0
  outer loop
   vertex 46.8964165286655 9.0 0.36
   vertex 46.33991941291994 7.656497115745559 0.36
   vertex 69.98466691067186 0.001 0.36
  endloop
 endfacet
 facet normal 0.0 -0.0 1.0
  outer loop
   vertex 46.33991941291994 10.343502884254441 0.36
   vertex 69.99766217038471 16.32 0.36
   vertex 44.9964165286655 10.9 0.36
  endloop
 endfacet
 facet normal 0.0 0.0 1.0
  outer loop
   vertex 44.9964165286655 10.9 0.36
   vertex 13.370656338378067 0.001 0.36
   vertex 43.65291364441106 10.343502884254441 0.36
  endloop
 endfacet
 facet normal 0.0 0.0 1.0
  outer loop
   vertex 43.65291364441106 10.343502884254441 0.36
   vertex 13.370656338378067 0.001 0.36
   vertex 43.0964165286655 9.0 0.36
  endloop
 endfacet
 facet normal 0.0 0.0 1.0
  outer loop
   vertex 43.0964165286655 9.0 0.36
   vertex 13.370656338378067 0.001 0.36
   vertex 43.65291364441106 7.65649711574556 0.36
  endloop
 endfacet
 facet normal 0.0 0.0 1.0
  outer loop
   vertex 43.65291364441106 7.65649711574556 0.36
   vertex 13.370656338378067 0.001 0.36
   vertex 44.9964165286655 7.1 0.36
  endloop
 endfacet
 facet normal -0.0 0.0 1.0
  outer loop
   vertex 44.9964165286655 7.1 0.36
   vertex 69.98466691067186 0.001 0.36
   vertex 46.33991941291994 7.656497115745559 0.36
  endloop
 endfacet
 facet normal -0.9238795325112873 -0.38268343236508817 0.0
  outer loop
   vertex 46.8964165286655 9.0 0
   vertex 46.8964165286655 9.0 0.36
   vertex 46.33991941291994 10.343502884254441 0
  endloop
 endfacet
 facet normal -0.9238795325112873 -0.38268343236508817 0.0
  outer loop
   vertex 46.33991941291994 10.343502884254441 0
   vertex 46.8964165286655 9.0 0.36
   vertex 46.33991941291994 10.343502884254441 0.36
  endloop
 endfacet
 facet normal -0.3826834323650892 -0.923879532511287 0.0
  outer loop
   vertex 46.33991941291994 10.343502884254441 0
   vertex 46.33991941291994 10.343502884254441 0.36
   vertex 44.9964165286655 10.9 0
  endloop
 endfacet
 facet normal -0.3826834323650892 -0.923879532511287 0.0
  outer loop
   vertex 44.9964165286655 10.9 0
   vertex 46.33991941291994 10.343502884254441 0.36
   vertex 44.9964165286655 10.9 0.36
  endloop
 endfacet
 facet normal 0.3826834323650892 -0.923879532511287 0.0
  outer loop
   vertex 44.9964165286655 10.9 0
   vertex 44.9964165286655 10.9 0.36
   vertex 43.65291364441106 10.343502884254441 0
  endloop
 endfacet
 facet normal 0.3826834323650892 -0.923879532511287 0.0
  outer loop
   vertex 43.65291364441106 10.343502884254441 0
   vertex 44.9964165286655 10.9 0.36
   vertex 43.65291364441106 10.343502884254441 0.36
  endloop
 endfacet
 facet normal 0.9238795325112873 -0.38268343236508817 0.0
  outer loop
   vertex 43.65291364441106 10.343502884254441 0
   vertex 43.65291364441106 10.343502884254441 0.36
   vertex 43.0964165286655 9.0 0
  endloop
 endfacet
 facet normal 0.9238795325112873 -0.38268343236508817 0.0
  outer loop
   vertex 43.0964165286655 9.0 0
   vertex 43.65291364441106 10.343502884254441 0.36
   vertex 43.0964165286655 9.0 0.36
  endloop
 endfacet
 facet normal 0.9238795325112874 0.3826834323650884 -0.0
  outer loop
   vertex 43.0964165286655 9.0 0
   vertex 43.0964165286655 9.0 0.36
   vertex 43.65291364441106 7.65649711574556 0
  endloop
 endfacet
 facet normal 0.9238795325112874 0.3826834323650884 -0.0
  outer loop
   vertex 43.65291364441106 7.65649711574556 0
   vertex 43.0964165286655 9.0 0.36
   vertex 43.65291364441106 7.65649711574556 0.36
  endloop
 endfacet
 facet normal 0.3826834323650898 0.9238795325112867 -0.0
  outer loop
   vertex 43.65291364441106 7.65649711574556 0
   vertex 43.65291364441106 7.65649711574556 0.36
   vertex 44.9964165286655 7.1 0
  endloop
 endfacet
 facet normal 0.3826834323650898 0.9238795325112867 -0.0
  outer loop
   vertex 44.9964165286655 7.1 0
   vertex 43.65291364441106 7.65649711574556 0.36
   vertex 44.9964165286655 7.1 0.36
  endloop
 endfacet
 facet normal -0.3826834323650892 0.923879532511287 0.0
  outer loop
   vertex 44.9964165286655 7.1 0
   vertex 44.9964165286655 7.1 0.36
   vertex 46.33991941291994 7.656497115745559 0
  endloop
 endfacet
 facet normal -0.3826834323650892 0.923879532511287 0.0
  outer loop
   vertex 46.33991941291994 7.656497115745559 0
   vertex 44.9964165286655 7.1 0.36
   vertex 46.33991941291994 7.656497115745559 0.36
  endloop
 endfacet
 facet normal -0.9238795325112873 0.38268343236508817 0.0
  outer loop
   vertex 46.33991941291994 7.656497115745559 0
   vertex 46.33991941291994 7.656497115745559 0.36
   vertex 46.8964165286655 9.0 0
  endloop
 endfacet
 facet normal -0.9238795325112873 0.38268343236508817 0.0
  outer loop
   vertex 46.8964165286655 9.0 0
   vertex 46.33991941291994 7.656497115745559 0.36
   vertex 46.8964165286655 9.0 0.36
  endloop
 endfacet
 facet normal 0.0 0.0 -1.0
  outer loop
   vertex 69.99766217038471 19.68 0
   vertex 29.70265677232795 19.68 0
   vertex 44.99641652866549 25.1 0
  endloop
 endfacet
 facet normal 0.0 0.0 -1.0
  outer loop
   vertex 29.70265677232795 19.68 0
   vertex 13.37065633837807 35.999 0
   vertex 43.65291364441105 28.34350288425444 0
  endloop
 endfacet
 facet normal 0.0 0.0 -1.0
  outer loop
   vertex 13.37065633837807 35.999 0
   vertex 69.98466691067186 35.999 0
   vertex 44.99641652866549 28.9 0
  endloop
 endfacet
 facet normal 0.0 -0.0 -1.0
  outer loop
   vertex 69.98466691067186 35.999 0
   vertex 69.99766217038471 19.68 0
   vertex 46.89641652866549 27.0 0
  endloop
 endfacet
 facet normal 0.0 -0.0 -1.0
  outer loop
   vertex 46.89641652866549 27.0 0
   vertex 69.99766217038471 19.68 0
   vertex 46.33991941291993 25.65649711574556 0
  endloop
 endfacet
 facet normal 0.0 0.0 -1.0
  outer loop
   vertex 46.89641652866549 27.0 0
   vertex 46.33991941291993 28.34350288425444 0
   vertex 69.98466691067186 35.999 0
  endloop
 endfacet
 facet normal 0.0 0.0 -1.0
  outer loop
   vertex 46.33991941291993 28.34350288425444 0
   vertex 44.99641652866549 28.9 0
   vertex 69.98466691067186 35.999 0
  endloop
 endfacet
 facet normal -0.0 0.0 -1.0
  outer loop
   vertex 44.99641652866549 28.9 0
   vertex 43.65291364441105 28.34350288425444 0
   vertex 13.37065633837807 35.999 0
  endloop
 endfacet
 facet normal 0.0 0.0 -1.0
  outer loop
   vertex 43.65291364441105 28.34350288425444 0
   vertex 43.09641652866549 27.0 0
   vertex 29.70265677232795 19.68 0
  endloop
 endfacet
 facet normal 0.0 -0.0 -1.0
  outer loop
   vertex 43.09641652866549 27.0 0
   vertex 43.65291364441105 25.65649711574556 0
   vertex 29.70265677232795 19.68 0
  endloop
 endfacet
 facet normal 0.0 -0.0 -1.0
  outer loop
   vertex 43.65291364441105 25.65649711574556 0
   vertex 44.99641652866549 25.1 0
   vertex 29.70265677232795 19.68 0
  endloop
 endfacet
 facet normal 0.0 0.0 -1.0
  outer loop
   vertex 44.99641652866549 25.1 0
   vertex 46.33991941291993 25.65649711574556 0
   vertex 69.99766217038471 19.68 0
  endloop
 endfacet
 facet normal 0.0 -1.0 0.0
  outer loop
   vertex 29.70265677232795 19.68 0
   vertex 69.99766217038471 19.68 0
   vertex 69.99766217038471 19.68 0.36
  endloop
 endfacet
 facet normal 0.0 -1.0 0.0
  outer loop
   vertex 29.70265677232795 19.68 0.36
   vertex 29.70265677232795 19.68 0
   vertex 69.99766217038471 19.68 0.36
  endloop
 endfacet
 facet normal -0.7068251811053657 -0.7073882691671999 0.0
  outer loop
   vertex 13.37065633837807 35.999 0
   vertex 29.70265677232795 19.68 0
   vertex 29.70265677232795 19.68 0.36
  endloop
 endfacet
 facet normal -0.7068251811053657 -0.7073882691671999 -0.0
  outer loop
   vertex 13.37065633837807 35.999 0.36
   vertex 13.37065633837807 35.999 0
   vertex 29.70265677232795 19.68 0.36
  endloop
 endfacet
 facet normal 0.0 1.0 0.0
  outer loop
   vertex 69.98466691067186 35.999 0
   vertex 13.37065633837807 35.999 0
   vertex 13.37065633837807 35.999 0.36
  endloop
 endfacet
 facet normal 0.0 1.0 0.0
  outer loop
   vertex 69.98466691067186 35.999 0.36
   vertex 69.98466691067186 35.999 0
   vertex 13.37065633837807 35.999 0.36
  endloop
 endfacet
 facet normal 0.9999996829318346 0.000796326710734055 0.0
  outer loop
   vertex 69.99766217038471 19.68 0
   vertex 69.98466691067186 35.999 0
   vertex 69.98466691067186 35.999 0.36
  endloop
 endfacet
 facet normal 0.9999996829318346 0.000796326710734055 0.0
  outer loop
   vertex 69.99766217038471 19.68 0.36
   vertex 69.99766217038471 19.68 0
   vertex 69.98466691067186 35.999 0.36
  endloop
 endfacet
 facet normal 0.0 0.0 1.0
  outer loop
   vertex 69.99766217038471 19.68 0.36
   vertex 44.99641652866549 25.1 0.36
   vertex 29.70265677232795 19.68 0.36
  endloop
 endfacet
 facet normal 0.0 -0.0 1.0
  outer loop
   vertex 29.70265677232795 19.68 0.36
   vertex 43.65291364441105 28.34350288425444 0.36
   vertex 13.37065633837807 35.999 0.36
  endloop
 endfacet
 facet normal -0.0 0.0 1.0
  outer loop
   vertex 13.37065633837807 35.999 0.36
   vertex 44.99641652866549 28.9 0.36
   vertex 69.98466691067186 35.999 0.36
  endloop
 endfacet
 facet normal 0.0 0.0 1.0
  outer loop
   vertex 69.98466691067186 35.999 0.36
   vertex 46.89641652866549 27.0 0.36
   vertex 69.99766217038471 19.68 0.36
  endloop
 endfacet
 facet normal 0.0 0.0 1.0
  outer loop
   vertex 46.89641652866549 27.0 0.36
   vertex 46.33991941291993 25.65649711574556 0.36
   vertex 69.99766217038471 19.68 0.36
  endloop
 endfacet
 facet normal 0.0 -0.0 1.0
  outer loop
   vertex 46.89641652866549 27.0 0.36
   vertex 69.98466691067186 35.999 0.36
   vertex 46.33991941291993 28.34350288425444 0.36
  endloop
 endfacet
 facet normal 0.0 -0.0 1.0
  outer loop
   vertex 46.33991941291993 28.34350288425444 0.36
   vertex 69.98466691067186 35.999 0.36
   vertex 44.99641652866549 28.9 0.36
  endloop
 endfacet
 facet normal 0.0 0.0 1.0
  outer loop
   vertex 44.99641652866549 28.9 0.36
   vertex 13.37065633837807 35.999 0.36
   vertex 43.65291364441105 28.34350288425444 0.36
  endloop
 endfacet
 facet normal 0.0 0.0 1.0
  outer loop
   vertex 43.65291364441105 28.34350288425444 0.36
   vertex 29.70265677232795 19.68 0.36
   vertex 43.09641652866549 27.0 0.36
  endloop
 endfacet
 facet normal 0.0 0.0 1.0
  outer loop
   vertex 43.09641652866549 27.0 0.36
   vertex 29.70265677232795 19.68 0.36
   vertex 43.65291364441105 25.65649711574556 0.36
  endloop
 endfacet
 facet normal 0.0 0.0 1.0
  outer loop
   vertex 43.65291364441105 25.65649711574556 0.36
   vertex 29.70265677232795 19.68 0.36
   vertex 44.99641652866549 25.1 0.36
  endloop
 endfacet
 facet normal -0.0 0.0 1.0
  outer loop
   vertex 44.99641652866549 25.1 0.36
   vertex 69.99766217038471 19.68 0.36
   vertex 46.33991941291993 25.65649711574556 0.36
  endloop
 endfacet
 facet normal -0.9238795325112873 -0.38268343236508817 0.0
  outer loop
   vertex 46.89641652866549 27.0 0
   vertex 46.89641652866549 27.0 0.36
   vertex 46.33991941291993 28.34350288425444 0
  endloop
 endfacet
 facet normal -0.9238795325112873 -0.38268343236508817 0.0
  outer loop
   vertex 46.33991941291993 28.34350288425444 0
   vertex 46.89641652866549 27.0 0.36
   vertex 46.33991941291993 28.34350288425444 0.36
  endloop
 endfacet
 facet normal -0.38268343236508817 -0.9238795325112873 0.0
  outer loop
   vertex 46.33991941291993 28.34350288425444 0
   vertex 46.33991941291993 28.34350288425444 0.36
   vertex 44.99641652866549 28.9 0
  endloop
 endfacet
 facet normal -0.38268343236508817 -0.9238795325112873 0.0
  outer loop
   vertex 44.99641652866549 28.9 0
   vertex 46.33991941291993 28.34350288425444 0.36
   vertex 44.99641652866549 28.9 0.36
  endloop
 endfacet
 facet normal 0.38268343236508817 -0.9238795325112873 0.0
  outer loop
   vertex 44.99641652866549 28.9 0
   vertex 44.99641652866549 28.9 0.36
   vertex 43.65291364441105 28.34350288425444 0
  endloop
 endfacet
 facet normal 0.38268343236508817 -0.9238795325112873 0.0
  outer loop
   vertex 43.65291364441105 28.34350288425444 0
   vertex 44.99641652866549 28.9 0.36
   vertex 43.65291364441105 28.34350288425444 0.36
  endloop
 endfacet
 facet normal 0.9238795325112873 -0.38268343236508817 0.0
  outer loop
   vertex 43.65291364441105 28.34350288425444 0
   vertex 43.65291364441105 28.34350288425444 0.36
   vertex 43.09641652866549 27.0 0
  endloop
 endfacet
 facet normal 0.9238795325112873 -0.38268343236508817 0.0
  outer loop
   vertex 43.09641652866549 27.0 0
   vertex 43.65291364441105 28.34350288425444 0.36
   vertex 43.09641652866549 27.0 0.36
  endloop
 endfacet
 facet normal 0.9238795325112873 0.38268343236508817 -0.0
  outer loop
   vertex 43.09641652866549 27.0 0
   vertex 43.09641652866549 27.0 0.36
   vertex 43.65291364441105 25.65649711574556 0
  endloop
 endfacet
 facet normal 0.9238795325112873 0.38268343236508817 -0.0
  outer loop
   vertex 43.65291364441105 25.65649711574556 0
   vertex 43.09641652866549 27.0 0.36
   vertex 43.65291364441105 25.65649711574556 0.36
  endloop
 endfacet
 facet normal 0.38268343236508817 0.9238795325112873 -0.0
  outer loop
   vertex 43.65291364441105 25.65649711574556 0
   vertex 43.65291364441105 25.65649711574556 0.36
   vertex 44.99641652866549 25.1 0
  endloop
 endfacet
 facet normal 0.38268343236508817 0.9238795325112873 -0.0
  outer loop
   vertex 44.99641652866549 25.1 0
   vertex 43.65291364441105 25.65649711574556 0.36
   vertex 44.99641652866549 25.1 0.36
  endloop
 endfacet
 facet normal -0.38268343236508817 0.9238795325112873 0.0
  outer loop
   vertex 44.99641652866549 25.1 0
   vertex 44.99641652866549 25.1 0.36
   vertex 46.33991941291993 25.65649711574556 0
  endloop
 endfacet
 facet normal -0.38268343236508817 0.9238795325112873 0.0
  outer loop
   vertex 46.33991941291993 25.65649711574556 0
   vertex 44.99641652866549 25.1 0.36
   vertex 46.33991941291993 25.65649711574556 0.36
  endloop
 endfacet
 facet normal -0.9238795325112873 0.38268343236508817 0.0
  outer loop
   vertex 46.33991941291993 25.65649711574556 0
   vertex 46.33991941291993 25.65649711574556 0.36
   vertex 46.89641652866549 27.0 0
  endloop
 endfacet
 facet normal -0.9238795325112873 0.38268343236508817 0.0
  outer loop
   vertex 46.89641652866549 27.0 0
   vertex 46.33991941291993 25.65649711574556 0.36
   vertex 46.89641652866549 27.0 0.36
  endloop
 endfacet
endsolid
