solid PyGamic generated __All_Crease__ SLA File
 facet normal 0.0 0.0 -1.0
  outer loop
   vertex 24.448607774277317 15.32 0
   vertex -0.000337828981146697 15.32 0
   vertex 12.236359445449718 16.99832 0
  endloop
 endfacet
 facet normal 0.0 0.0 -1.0
  outer loop
   vertex -0.000337828981146697 15.32 0
   vertex 12.211910499846455 16.99832 0
   vertex 12.236359445449718 16.99832 0
  endloop
 endfacet
 facet normal 0.0 0.0 -1.0
  outer loop
   vertex -0.000337828981146697 15.32 0
   vertex -0.000337828981146697 18.68 0
   vertex 12.211910499846455 16.99832 0
  endloop
 endfacet
 facet normal 0.0 0.0 -1.0
  outer loop
   vertex -0.000337828981146697 18.68 0
   vertex 12.211910499846459 17.00168 0
   vertex 12.211910499846455 16.99832 0
  endloop
 endfacet
 facet normal 0.0 0.0 -1.0
  outer loop
   vertex -0.000337828981146697 18.68 0
   vertex 24.448607774277324 18.68 0
   vertex 12.211910499846459 17.00168 0
  endloop
 endfacet
 facet normal 0.0 0.0 -1.0
  outer loop
   vertex 24.448607774277324 18.68 0
   vertex 12.236359445449715 17.00168 0
   vertex 12.211910499846459 17.00168 0
  endloop
 endfacet
 facet normal 0.0 0.0 -1.0
  outer loop
   vertex 24.448607774277324 18.68 0
   vertex 24.448607774277317 15.32 0
   vertex 12.236359445449715 17.00168 0
  endloop
 endfacet
 facet normal 0.0 0.0 -1.0
  outer loop
   vertex 24.448607774277317 15.32 0
   vertex 12.236359445449718 16.99832 0
   vertex 12.236359445449715 17.00168 0
  endloop
 endfacet
 facet normal 0.0 -1.0 0.0
  outer loop
   vertex -0.000337828981146697 15.32 0
   vertex 24.448607774277317 15.32 0
   vertex 24.448607774277317 15.32 0.36
  endloop
 endfacet
 facet normal 0.0 -1.0 0.0
  outer loop
   vertex -0.000337828981146697 15.32 0.36
   vertex -0.000337828981146697 15.32 0
   vertex 24.448607774277317 15.32 0.36
  endloop
 endfacet
 facet normal -1.0 0.0 0.0
  outer loop
   vertex -0.000337828981146697 18.68 0
   vertex -0.000337828981146697 15.32 0
   vertex -0.000337828981146697 15.32 0.36
  endloop
 endfacet
 facet normal -1.0 -0.0 -0.0
  outer loop
   vertex -0.000337828981146697 18.68 0.36
   vertex -0.000337828981146697 18.68 0
   vertex -0.000337828981146697 15.32 0.36
  endloop
 endfacet
 facet normal 0.0 1.0 0.0
  outer loop
   vertex 24.448607774277324 18.68 0
   vertex -0.000337828981146697 18.68 0
   vertex -0.000337828981146697 18.68 0.36
  endloop
 endfacet
 facet normal 0.0 1.0 0.0
  outer loop
   vertex 24.448607774277324 18.68 0.36
   vertex 24.448607774277324 18.68 0
   vertex -0.000337828981146697 18.68 0.36
  endloop
 endfacet
 facet normal 1.0 -2.1147105230955366e-15 0.0
  outer loop
   vertex 24.448607774277317 15.32 0
   vertex 24.448607774277324 18.68 0
   vertex 24.448607774277324 18.68 0.36
  endloop
 endfacet
 facet normal 1.0 -2.1147105230955366e-15 0.0
  outer loop
   vertex 24.448607774277317 15.32 0.36
   vertex 24.448607774277317 15.32 0
   vertex 24.448607774277324 18.68 0.36
  endloop
 endfacet
 facet normal 0.0 1.0 -0.0
  outer loop
   vertex 12.236359445449718 16.99832 0
   vertex 12.211910499846455 16.99832 0
   vertex 12.236359445449718 16.99832 0.36
  endloop
 endfacet
 facet normal 0.0 1.0 0.0
  outer loop
   vertex 12.211910499846455 16.99832 0
   vertex 12.211910499846455 16.99832 0.36
   vertex 12.236359445449718 16.99832 0.36
  endloop
 endfacet
 facet normal 1.0 -1.0573552615475493e-12 0.0
  outer loop
   vertex 12.211910499846455 16.99832 0
   vertex 12.211910499846459 17.00168 0
   vertex 12.211910499846455 16.99832 0.36
  endloop
 endfacet
 facet normal 1.0 -1.0573552615475493e-12 0.0
  outer loop
   vertex 12.211910499846459 17.00168 0
   vertex 12.211910499846459 17.00168 0.36
   vertex 12.211910499846455 16.99832 0.36
  endloop
 endfacet
 facet normal 0.0 -1.0 0.0
  outer loop
   vertex 12.211910499846459 17.00168 0
   vertex 12.236359445449715 17.00168 0
   vertex 12.211910499846459 17.00168 0.36
  endloop
 endfacet
 facet normal 0.0 -1.0 0.0
  outer loop
   vertex 12.236359445449715 17.00168 0
   vertex 12.236359445449715 17.00168 0.36
   vertex 12.211910499846459 17.00168 0.36
  endloop
 endfacet
 facet normal -1.0 -1.0573552615475493e-12 0.0
  outer loop
   vertex 12.236359445449715 17.00168 0
   vertex 12.236359445449718 16.99832 0
   vertex 12.236359445449715 17.00168 0.36
  endloop
 endfacet
 facet normal -1.0 -1.0573552615475493e-12 0.0
  outer loop
   vertex 12.236359445449718 16.99832 0
   vertex 12.236359445449718 16.99832 0.36
   vertex 12.236359445449715 17.00168 0.36
  endloop
 endfacet
 facet normal 0.0 0.0 1.0
  outer loop
   vertex -0.000337828981146697 15.32 0.36
   vertex 24.448607774277317 15.32 0.36
   vertex 12.236359445449718 16.99832 0.36
  endloop
 endfacet
 facet normal -0.0 0.0 1.0
  outer loop
   vertex 12.211910499846455 16.99832 0.36
   vertex -0.000337828981146697 15.32 0.36
   vertex 12.236359445449718 16.99832 0.36
  endloop
 endfacet
 facet normal 0.0 0.0 1.0
  outer loop
   vertex -0.000337828981146697 18.68 0.36
   vertex -0.000337828981146697 15.32 0.36
   vertex 12.211910499846455 16.99832 0.36
  endloop
 endfacet
 facet normal 0.0 0.0 1.0
  outer loop
   vertex 12.211910499846459 17.00168 0.36
   vertex -0.000337828981146697 18.68 0.36
   vertex 12.211910499846455 16.99832 0.36
  endloop
 endfacet
 facet normal 0.0 0.0 1.0
  outer loop
   vertex 24.448607774277324 18.68 0.36
   vertex -0.000337828981146697 18.68 0.36
   vertex 12.211910499846459 17.00168 0.36
  endloop
 endfacet
 facet normal 0.0 -0.0 1.0
  outer loop
   vertex 12.236359445449715 17.00168 0.36
   vertex 24.448607774277324 18.68 0.36
   vertex 12.211910499846459 17.00168 0.36
  endloop
 endfacet
 facet normal 0.0 -0.0 1.0
  outer loop
   vertex 24.448607774277317 15.32 0.36
   vertex 24.448607774277324 18.68 0.36
   vertex 12.236359445449715 17.00168 0.36
  endloop
 endfacet
 facet normal -0.0 -0.0 1.0
  outer loop
   vertex 12.236359445449718 16.99832 0.36
   vertex 24.448607774277317 15.32 0.36
   vertex 12.236359445449715 17.00168 0.36
  endloop
 endfacet
 facet normal 0.0 0.0 -1.0
  outer loop
   vertex 9.117403984358933 0.001 0
   vertex 24.448607774277317 15.32 0
   vertex 19.14978879010259 7.652840500000001 0
  endloop
 endfacet
 facet normal 0.0 0.0 -1.0
  outer loop
   vertex 24.448607774277317 15.32 0
   vertex 19.16511999389251 7.6681595 0
   vertex 19.14978879010259 7.652840500000001 0
  endloop
 endfacet
 facet normal 0.0 -0.0 -1.0
  outer loop
   vertex 24.448607774277317 15.32 0
   vertex 29.2022584503122 15.32 0
   vertex 19.16511999389251 7.6681595 0
  endloop
 endfacet
 facet normal 0.0 0.0 -1.0
  outer loop
   vertex 29.2022584503122 15.32 0
   vertex 19.16987364456854 7.6681595 0
   vertex 19.16511999389251 7.6681595 0
  endloop
 endfacet
 facet normal 0.0 0.0 -1.0
  outer loop
   vertex 29.2022584503122 15.32 0
   vertex 13.871054660393813 0.001 0
   vertex 19.16987364456854 7.6681595 0
  endloop
 endfacet
 facet normal 0.0 0.0 -1.0
  outer loop
   vertex 13.871054660393813 0.001 0
   vertex 19.154542440778627 7.652840500000001 0
   vertex 19.16987364456854 7.6681595 0
  endloop
 endfacet
 facet normal 0.0 0.0 -1.0
  outer loop
   vertex 13.871054660393813 0.001 0
   vertex 9.117403984358933 0.001 0
   vertex 19.154542440778627 7.652840500000001 0
  endloop
 endfacet
 facet normal 0.0 0.0 -1.0
  outer loop
   vertex 9.117403984358933 0.001 0
   vertex 19.14978879010259 7.652840500000001 0
   vertex 19.154542440778627 7.652840500000001 0
  endloop
 endfacet
 facet normal -0.706825181105366 0.7073882691671998 0.0
  outer loop
   vertex 24.448607774277317 15.32 0
   vertex 9.117403984358933 0.001 0
   vertex 9.117403984358933 0.001 0.36
  endloop
 endfacet
 facet normal -0.706825181105366 0.7073882691671998 0.0
  outer loop
   vertex 24.448607774277317 15.32 0.36
   vertex 24.448607774277317 15.32 0
   vertex 9.117403984358933 0.001 0.36
  endloop
 endfacet
 facet normal 0.0 1.0 0.0
  outer loop
   vertex 29.2022584503122 15.32 0
   vertex 24.448607774277317 15.32 0
   vertex 24.448607774277317 15.32 0.36
  endloop
 endfacet
 facet normal 0.0 1.0 0.0
  outer loop
   vertex 29.2022584503122 15.32 0.36
   vertex 29.2022584503122 15.32 0
   vertex 24.448607774277317 15.32 0.36
  endloop
 endfacet
 facet normal 0.7068251811053659 -0.7073882691671998 0.0
  outer loop
   vertex 13.871054660393813 0.001 0
   vertex 29.2022584503122 15.32 0
   vertex 29.2022584503122 15.32 0.36
  endloop
 endfacet
 facet normal 0.7068251811053659 -0.7073882691671998 0.0
  outer loop
   vertex 13.871054660393813 0.001 0.36
   vertex 13.871054660393813 0.001 0
   vertex 29.2022584503122 15.32 0.36
  endloop
 endfacet
 facet normal 0.0 -1.0 0.0
  outer loop
   vertex 9.117403984358933 0.001 0
   vertex 13.871054660393813 0.001 0
   vertex 13.871054660393813 0.001 0.36
  endloop
 endfacet
 facet normal 0.0 -1.0 0.0
  outer loop
   vertex 9.117403984358933 0.001 0.36
   vertex 9.117403984358933 0.001 0
   vertex 13.871054660393813 0.001 0.36
  endloop
 endfacet
 facet normal 0.7068251811053092 -0.7073882691672565 0.0
  outer loop
   vertex 19.14978879010259 7.652840500000001 0
   vertex 19.16511999389251 7.6681595 0
   vertex 19.14978879010259 7.652840500000001 0.36
  endloop
 endfacet
 facet normal 0.7068251811053092 -0.7073882691672565 0.0
  outer loop
   vertex 19.16511999389251 7.6681595 0
   vertex 19.16511999389251 7.6681595 0.36
   vertex 19.14978879010259 7.652840500000001 0.36
  endloop
 endfacet
 facet normal 0.0 -1.0 0.0
  outer loop
   vertex 19.16511999389251 7.6681595 0
   vertex 19.16987364456854 7.6681595 0
   vertex 19.16511999389251 7.6681595 0.36
  endloop
 endfacet
 facet normal 0.0 -1.0 0.0
  outer loop
   vertex 19.16987364456854 7.6681595 0
   vertex 19.16987364456854 7.6681595 0.36
   vertex 19.16511999389251 7.6681595 0.36
  endloop
 endfacet
 facet normal -0.7068251811054732 0.7073882691670926 0.0
  outer loop
   vertex 19.16987364456854 7.6681595 0
   vertex 19.154542440778627 7.652840500000001 0
   vertex 19.16987364456854 7.6681595 0.36
  endloop
 endfacet
 facet normal -0.7068251811054732 0.7073882691670926 0.0
  outer loop
   vertex 19.154542440778627 7.652840500000001 0
   vertex 19.154542440778627 7.652840500000001 0.36
   vertex 19.16987364456854 7.6681595 0.36
  endloop
 endfacet
 facet normal 0.0 1.0 -0.0
  outer loop
   vertex 19.154542440778627 7.652840500000001 0
   vertex 19.14978879010259 7.652840500000001 0
   vertex 19.154542440778627 7.652840500000001 0.36
  endloop
 endfacet
 facet normal 0.0 1.0 0.0
  outer loop
   vertex 19.14978879010259 7.652840500000001 0
   vertex 19.14978879010259 7.652840500000001 0.36
   vertex 19.154542440778627 7.652840500000001 0.36
  endloop
 endfacet
 facet normal 0.0 0.0 1.0
  outer loop
   vertex 24.448607774277317 15.32 0.36
   vertex 9.117403984358933 0.001 0.36
   vertex 19.14978879010259 7.652840500000001 0.36
  endloop
 endfacet
 facet normal 0.0 -0.0 1.0
  outer loop
   vertex 19.16511999389251 7.6681595 0.36
   vertex 24.448607774277317 15.32 0.36
   vertex 19.14978879010259 7.652840500000001 0.36
  endloop
 endfacet
 facet normal 0.0 0.0 1.0
  outer loop
   vertex 29.2022584503122 15.32 0.36
   vertex 24.448607774277317 15.32 0.36
   vertex 19.16511999389251 7.6681595 0.36
  endloop
 endfacet
 facet normal 0.0 -0.0 1.0
  outer loop
   vertex 19.16987364456854 7.6681595 0.36
   vertex 29.2022584503122 15.32 0.36
   vertex 19.16511999389251 7.6681595 0.36
  endloop
 endfacet
 facet normal 0.0 0.0 1.0
  outer loop
   vertex 13.871054660393813 0.001 0.36
   vertex 29.2022584503122 15.32 0.36
   vertex 19.16987364456854 7.6681595 0.36
  endloop
 endfacet
 facet normal -0.0 0.0 1.0
  outer loop
   vertex 19.154542440778627 7.652840500000001 0.36
   vertex 13.871054660393813 0.001 0.36
   vertex 19.16987364456854 7.6681595 0.36
  endloop
 endfacet
 facet normal 0.0 0.0 1.0
  outer loop
   vertex 9.117403984358933 0.001 0.36
   vertex 13.871054660393813 0.001 0.36
   vertex 19.154542440778627 7.652840500000001 0.36
  endloop
 endfacet
 facet normal -0.0 0.0 1.0
  outer loop
   vertex 19.14978879010259 7.652840500000001 0.36
   vertex 9.117403984358933 0.001 0.36
   vertex 19.154542440778627 7.652840500000001 0.36
  endloop
 endfacet
 facet normal 0.0 0.0 -1.0
  outer loop
   vertex 24.448607774277324 18.68 0
   vertex 9.117403984358939 33.999 0
   vertex 19.165119993892514 26.331840500000002 0
  endloop
 endfacet
 facet normal 0.0 0.0 -1.0
  outer loop
   vertex 9.117403984358939 33.999 0
   vertex 19.14978879010259 26.3471595 0
   vertex 19.165119993892514 26.331840500000002 0
  endloop
 endfacet
 facet normal 0.0 0.0 -1.0
  outer loop
   vertex 9.117403984358939 33.999 0
   vertex 13.871054660393815 33.999 0
   vertex 19.14978879010259 26.3471595 0
  endloop
 endfacet
 facet normal 0.0 0.0 -1.0
  outer loop
   vertex 13.871054660393815 33.999 0
   vertex 19.15454244077863 26.3471595 0
   vertex 19.14978879010259 26.3471595 0
  endloop
 endfacet
 facet normal 0.0 0.0 -1.0
  outer loop
   vertex 13.871054660393815 33.999 0
   vertex 29.202258450312204 18.68 0
   vertex 19.15454244077863 26.3471595 0
  endloop
 endfacet
 facet normal 0.0 0.0 -1.0
  outer loop
   vertex 29.202258450312204 18.68 0
   vertex 19.169873644568547 26.331840500000002 0
   vertex 19.15454244077863 26.3471595 0
  endloop
 endfacet
 facet normal 0.0 0.0 -1.0
  outer loop
   vertex 29.202258450312204 18.68 0
   vertex 24.448607774277324 18.68 0
   vertex 19.169873644568547 26.331840500000002 0
  endloop
 endfacet
 facet normal 0.0 0.0 -1.0
  outer loop
   vertex 24.448607774277324 18.68 0
   vertex 19.165119993892514 26.331840500000002 0
   vertex 19.169873644568547 26.331840500000002 0
  endloop
 endfacet
 facet normal -0.7068251811053659 -0.7073882691671998 0.0
  outer loop
   vertex 9.117403984358939 33.999 0
   vertex 24.448607774277324 18.68 0
   vertex 24.448607774277324 18.68 0.36
  endloop
 endfacet
 facet normal -0.7068251811053659 -0.7073882691671998 -0.0
  outer loop
   vertex 9.117403984358939 33.999 0.36
   vertex 9.117403984358939 33.999 0
   vertex 24.448607774277324 18.68 0.36
  endloop
 endfacet
 facet normal 0.0 1.0 0.0
  outer loop
   vertex 13.871054660393815 33.999 0
   vertex 9.117403984358939 33.999 0
   vertex 9.117403984358939 33.999 0.36
  endloop
 endfacet
 facet normal 0.0 1.0 0.0
  outer loop
   vertex 13.871054660393815 33.999 0.36
   vertex 13.871054660393815 33.999 0
   vertex 9.117403984358939 33.999 0.36
  endloop
 endfacet
 facet normal 0.7068251811053659 0.7073882691671999 0.0
  outer loop
   vertex 29.202258450312204 18.68 0
   vertex 13.871054660393815 33.999 0
   vertex 13.871054660393815 33.999 0.36
  endloop
 endfacet
 facet normal 0.7068251811053659 0.7073882691671999 0.0
  outer loop
   vertex 29.202258450312204 18.68 0.36
   vertex 29.202258450312204 18.68 0
   vertex 13.871054660393815 33.999 0.36
  endloop
 endfacet
 facet normal 0.0 -1.0 0.0
  outer loop
   vertex 24.448607774277324 18.68 0
   vertex 29.202258450312204 18.68 0
   vertex 29.202258450312204 18.68 0.36
  endloop
 endfacet
 facet normal 0.0 -1.0 0.0
  outer loop
   vertex 24.448607774277324 18.68 0.36
   vertex 24.448607774277324 18.68 0
   vertex 29.202258450312204 18.68 0.36
  endloop
 endfacet
 facet normal 0.7068251811052069 0.7073882691673589 -0.0
  outer loop
   vertex 19.165119993892514 26.331840500000002 0
   vertex 19.14978879010259 26.3471595 0
   vertex 19.165119993892514 26.331840500000002 0.36
  endloop
 endfacet
 facet normal 0.7068251811052069 0.7073882691673589 -0.0
  outer loop
   vertex 19.14978879010259 26.3471595 0
   vertex 19.14978879010259 26.3471595 0.36
   vertex 19.165119993892514 26.331840500000002 0.36
  endloop
 endfacet
 facet normal 0.0 -1.0 0.0
  outer loop
   vertex 19.14978879010259 26.3471595 0
   vertex 19.15454244077863 26.3471595 0
   vertex 19.14978879010259 26.3471595 0.36
  endloop
 endfacet
 facet normal 0.0 -1.0 0.0
  outer loop
   vertex 19.15454244077863 26.3471595 0
   vertex 19.15454244077863 26.3471595 0.36
   vertex 19.14978879010259 26.3471595 0.36
  endloop
 endfacet
 facet normal -0.7068251811053706 -0.707388269167195 0.0
  outer loop
   vertex 19.15454244077863 26.3471595 0
   vertex 19.169873644568547 26.331840500000002 0
   vertex 19.15454244077863 26.3471595 0.36
  endloop
 endfacet
 facet normal -0.7068251811053706 -0.707388269167195 0.0
  outer loop
   vertex 19.169873644568547 26.331840500000002 0
   vertex 19.169873644568547 26.331840500000002 0.36
   vertex 19.15454244077863 26.3471595 0.36
  endloop
 endfacet
 facet normal 0.0 1.0 -0.0
  outer loop
   vertex 19.169873644568547 26.331840500000002 0
   vertex 19.165119993892514 26.331840500000002 0
   vertex 19.169873644568547 26.331840500000002 0.36
  endloop
 endfacet
 facet normal 0.0 1.0 0.0
  outer loop
   vertex 19.165119993892514 26.331840500000002 0
   vertex 19.165119993892514 26.331840500000002 0.36
   vertex 19.169873644568547 26.331840500000002 0.36
  endloop
 endfacet
 facet normal 0.0 0.0 1.0
  outer loop
   vertex 9.117403984358939 33.999 0.36
   vertex 24.448607774277324 18.68 0.36
   vertex 19.165119993892514 26.331840500000002 0.36
  endloop
 endfacet
 facet normal 0.0 0.0 1.0
  outer loop
   vertex 19.14978879010259 26.3471595 0.36
   vertex 9.117403984358939 33.999 0.36
   vertex 19.165119993892514 26.331840500000002 0.36
  endloop
 endfacet
 facet normal 0.0 0.0 1.0
  outer loop
   vertex 13.871054660393815 33.999 0.36
   vertex 9.117403984358939 33.999 0.36
   vertex 19.14978879010259 26.3471595 0.36
  endloop
 endfacet
 facet normal 0.0 0.0 1.0
  outer loop
   vertex 19.15454244077863 26.3471595 0.36
   vertex 13.871054660393815 33.999 0.36
   vertex 19.14978879010259 26.3471595 0.36
  endloop
 endfacet
 facet normal 0.0 0.0 1.0
  outer loop
   vertex 29.202258450312204 18.68 0.36
   vertex 13.871054660393815 33.999 0.36
   vertex 19.15454244077863 26.3471595 0.36
  endloop
 endfacet
 facet normal -0.0 -0.0 1.0
  outer loop
   vertex 19.169873644568547 26.331840500000002 0.36
   vertex 29.202258450312204 18.68 0.36
   vertex 19.15454244077863 26.3471595 0.36
  endloop
 endfacet
 facet normal 0.0 -0.0 1.0
  outer loop
   vertex 24.448607774277324 18.68 0.36
   vertex 29.202258450312204 18.68 0.36
   vertex 19.169873644568547 26.331840500000002 0.36
  endloop
 endfacet
 facet normal -0.0 0.0 1.0
  outer loop
   vertex 19.165119993892514 26.331840500000002 0.36
   vertex 24.448607774277324 18.68 0.36
   vertex 19.169873644568547 26.331840500000002 0.36
  endloop
 endfacet
 facet normal 0.0 0.0 -1.0
  outer loop
   vertex 69.99766217038471 15.319999999999999 0
   vertex 29.2022584503122 15.32 0
   vertex 49.6203580122085 16.99832 0
  endloop
 endfacet
 facet normal 0.0 0.0 -1.0
  outer loop
   vertex 29.2022584503122 15.32 0
   vertex 49.579562608488416 16.99832 0
   vertex 49.6203580122085 16.99832 0
  endloop
 endfacet
 facet normal 0.0 0.0 -1.0
  outer loop
   vertex 29.2022584503122 15.32 0
   vertex 29.202258450312204 18.68 0
   vertex 49.579562608488416 16.99832 0
  endloop
 endfacet
 facet normal 0.0 0.0 -1.0
  outer loop
   vertex 29.202258450312204 18.68 0
   vertex 49.57956260848842 17.00168 0
   vertex 49.579562608488416 16.99832 0
  endloop
 endfacet
 facet normal 0.0 0.0 -1.0
  outer loop
   vertex 29.202258450312204 18.68 0
   vertex 69.99766217038471 18.68 0
   vertex 49.57956260848842 17.00168 0
  endloop
 endfacet
 facet normal 0.0 0.0 -1.0
  outer loop
   vertex 69.99766217038471 18.68 0
   vertex 49.6203580122085 17.00168 0
   vertex 49.57956260848842 17.00168 0
  endloop
 endfacet
 facet normal 0.0 -0.0 -1.0
  outer loop
   vertex 69.99766217038471 18.68 0
   vertex 69.99766217038471 15.319999999999999 0
   vertex 49.6203580122085 17.00168 0
  endloop
 endfacet
 facet normal 0.0 0.0 -1.0
  outer loop
   vertex 69.99766217038471 15.319999999999999 0
   vertex 49.6203580122085 16.99832 0
   vertex 49.6203580122085 17.00168 0
  endloop
 endfacet
 facet normal -4.3543063125178287e-17 -1.0 0.0
  outer loop
   vertex 29.2022584503122 15.32 0
   vertex 69.99766217038471 15.319999999999999 0
   vertex 69.99766217038471 15.319999999999999 0.36
  endloop
 endfacet
 facet normal -4.3543063125178287e-17 -1.0 -0.0
  outer loop
   vertex 29.2022584503122 15.32 0.36
   vertex 29.2022584503122 15.32 0
   vertex 69.99766217038471 15.319999999999999 0.36
  endloop
 endfacet
 facet normal -1.0 1.0573552615477683e-15 0.0
  outer loop
   vertex 29.202258450312204 18.68 0
   vertex 29.2022584503122 15.32 0
   vertex 29.2022584503122 15.32 0.36
  endloop
 endfacet
 facet normal -1.0 1.0573552615477683e-15 0.0
  outer loop
   vertex 29.202258450312204 18.68 0.36
   vertex 29.202258450312204 18.68 0
   vertex 29.2022584503122 15.32 0.36
  endloop
 endfacet
 facet normal 0.0 1.0 0.0
  outer loop
   vertex 69.99766217038471 18.68 0
   vertex 29.202258450312204 18.68 0
   vertex 29.202258450312204 18.68 0.36
  endloop
 endfacet
 facet normal 0.0 1.0 0.0
  outer loop
   vertex 69.99766217038471 18.68 0.36
   vertex 69.99766217038471 18.68 0
   vertex 29.202258450312204 18.68 0.36
  endloop
 endfacet
 facet normal 1.0 0.0 0.0
  outer loop
   vertex 69.99766217038471 15.319999999999999 0
   vertex 69.99766217038471 18.68 0
   vertex 69.99766217038471 18.68 0.36
  endloop
 endfacet
 facet normal 1.0 -0.0 0.0
  outer loop
   vertex 69.99766217038471 15.319999999999999 0.36
   vertex 69.99766217038471 15.319999999999999 0
   vertex 69.99766217038471 18.68 0.36
  endloop
 endfacet
 facet normal 0.0 1.0 -0.0
  outer loop
   vertex 49.6203580122085 16.99832 0
   vertex 49.579562608488416 16.99832 0
   vertex 49.6203580122085 16.99832 0.36
  endloop
 endfacet
 facet normal 0.0 1.0 0.0
  outer loop
   vertex 49.579562608488416 16.99832 0
   vertex 49.579562608488416 16.99832 0.36
   vertex 49.6203580122085 16.99832 0.36
  endloop
 endfacet
 facet normal 1.0 -2.1147105230950987e-12 0.0
  outer loop
   vertex 49.579562608488416 16.99832 0
   vertex 49.57956260848842 17.00168 0
   vertex 49.579562608488416 16.99832 0.36
  endloop
 endfacet
 facet normal 1.0 -2.1147105230950987e-12 0.0
  outer loop
   vertex 49.57956260848842 17.00168 0
   vertex 49.57956260848842 17.00168 0.36
   vertex 49.579562608488416 16.99832 0.36
  endloop
 endfacet
 facet normal 0.0 -1.0 0.0
  outer loop
   vertex 49.57956260848842 17.00168 0
   vertex 49.6203580122085 17.00168 0
   vertex 49.57956260848842 17.00168 0.36
  endloop
 endfacet
 facet normal 0.0 -1.0 0.0
  outer loop
   vertex 49.6203580122085 17.00168 0
   vertex 49.6203580122085 17.00168 0.36
   vertex 49.57956260848842 17.00168 0.36
  endloop
 endfacet
 facet normal -1.0 0.0 0.0
  outer loop
   vertex 49.6203580122085 17.00168 0
   vertex 49.6203580122085 16.99832 0
   vertex 49.6203580122085 17.00168 0.36
  endloop
 endfacet
 facet normal -1.0 0.0 0.0
  outer loop
   vertex 49.6203580122085 16.99832 0
   vertex 49.6203580122085 16.99832 0.36
   vertex 49.6203580122085 17.00168 0.36
  endloop
 endfacet
 facet normal -0.0 0.0 1.0
  outer loop
   vertex 29.2022584503122 15.32 0.36
   vertex 69.99766217038471 15.319999999999999 0.36
   vertex 49.6203580122085 16.99832 0.36
  endloop
 endfacet
 facet normal -0.0 0.0 1.0
  outer loop
   vertex 49.579562608488416 16.99832 0.36
   vertex 29.2022584503122 15.32 0.36
   vertex 49.6203580122085 16.99832 0.36
  endloop
 endfacet
 facet normal 0.0 0.0 1.0
  outer loop
   vertex 29.202258450312204 18.68 0.36
   vertex 29.2022584503122 15.32 0.36
   vertex 49.579562608488416 16.99832 0.36
  endloop
 endfacet
 facet normal 0.0 0.0 1.0
  outer loop
   vertex 49.57956260848842 17.00168 0.36
   vertex 29.202258450312204 18.68 0.36
   vertex 49.579562608488416 16.99832 0.36
  endloop
 endfacet
 facet normal 0.0 0.0 1.0
  outer loop
   vertex 69.99766217038471 18.68 0.36
   vertex 29.202258450312204 18.68 0.36
   vertex 49.57956260848842 17.00168 0.36
  endloop
 endfacet
 facet normal 0.0 -0.0 1.0
  outer loop
   vertex 49.6203580122085 17.00168 0.36
   vertex 69.99766217038471 18.68 0.36
   vertex 49.57956260848842 17.00168 0.36
  endloop
 endfacet
 facet normal 0.0 -0.0 1.0
  outer loop
   vertex 69.99766217038471 15.319999999999999 0.36
   vertex 69.99766217038471 18.68 0.36
   vertex 49.6203580122085 17.00168 0.36
  endloop
 endfacet
 facet normal -0.0 0.0 1.0
  outer loop
   vertex 49.6203580122085 16.99832 0.36
   vertex 69.99766217038471 15.319999999999999 0.36
   vertex 49.6203580122085 17.00168 0.36
  endloop
 endfacet
endsolid
