solid PyGamic generated __Board__ SLA File
 facet normal 0.0 0.0 -1.0
  outer loop
   vertex -0.000337828981146697 16.32 0
   vertex 24.94900609629306 16.32 0
   vertex 11.113208508021195 10.537132289312401 0
  endloop
 endfacet
 facet normal 0.0 0.0 -1.0
  outer loop
   vertex 24.94900609629306 16.32 0
   vertex 8.617005662343187 0.001 0
   vertex 11.113208508021195 7.462867710687599 0
  endloop
 endfacet
 facet normal 0.0 0.0 -1.0
  outer loop
   vertex 8.617005662343187 0.001 0
   vertex -0.013333088693985976 0.001 0
   vertex 8.096416528665495 9.0 0
  endloop
 endfacet
 facet normal 0.0 0.0 -1.0
  outer loop
   vertex -0.013333088693985976 0.001 0
   vertex -0.000337828981146697 16.32 0
   vertex 8.459284239353096 10.1167919793557 0
  endloop
 endfacet
 facet normal 0.0 0.0 -1.0
  outer loop
   vertex 11.896416528665496 9.0 0
   vertex 11.803423909626288 9.5871322893124 0
   vertex 24.94900609629306 16.32 0
  endloop
 endfacet
 facet normal 0.0 -0.0 -1.0
  outer loop
   vertex 11.896416528665496 9.0 0
   vertex 24.94900609629306 16.32 0
   vertex 11.803423909626288 8.4128677106876 0
  endloop
 endfacet
 facet normal 0.0 0.0 -1.0
  outer loop
   vertex 11.803423909626288 9.5871322893124 0
   vertex 11.533548817977897 10.1167919793557 0
   vertex 24.94900609629306 16.32 0
  endloop
 endfacet
 facet normal 0.0 0.0 -1.0
  outer loop
   vertex 11.533548817977897 10.1167919793557 0
   vertex 11.113208508021195 10.537132289312401 0
   vertex 24.94900609629306 16.32 0
  endloop
 endfacet
 facet normal 0.0 0.0 -1.0
  outer loop
   vertex 11.113208508021195 10.537132289312401 0
   vertex 10.583548817977896 10.807007380960792 0
   vertex -0.000337828981146697 16.32 0
  endloop
 endfacet
 facet normal 0.0 0.0 -1.0
  outer loop
   vertex 10.583548817977896 10.807007380960792 0
   vertex 9.996416528665495 10.9 0
   vertex -0.000337828981146697 16.32 0
  endloop
 endfacet
 facet normal -0.0 0.0 -1.0
  outer loop
   vertex 9.996416528665495 10.9 0
   vertex 9.409284239353095 10.807007380960792 0
   vertex -0.000337828981146697 16.32 0
  endloop
 endfacet
 facet normal -0.0 0.0 -1.0
  outer loop
   vertex 9.409284239353095 10.807007380960792 0
   vertex 8.879624549309796 10.537132289312401 0
   vertex -0.000337828981146697 16.32 0
  endloop
 endfacet
 facet normal -0.0 0.0 -1.0
  outer loop
   vertex 8.879624549309796 10.537132289312401 0
   vertex 8.459284239353096 10.1167919793557 0
   vertex -0.000337828981146697 16.32 0
  endloop
 endfacet
 facet normal 0.0 0.0 -1.0
  outer loop
   vertex 8.459284239353096 10.1167919793557 0
   vertex 8.189409147704703 9.5871322893124 0
   vertex -0.013333088693985976 0.001 0
  endloop
 endfacet
 facet normal 0.0 0.0 -1.0
  outer loop
   vertex 8.189409147704703 9.5871322893124 0
   vertex 8.096416528665495 9.0 0
   vertex -0.013333088693985976 0.001 0
  endloop
 endfacet
 facet normal 0.0 0.0 -1.0
  outer loop
   vertex 8.096416528665495 9.0 0
   vertex 8.189409147704703 8.4128677106876 0
   vertex 8.617005662343187 0.001 0
  endloop
 endfacet
 facet normal 0.0 0.0 -1.0
  outer loop
   vertex 8.189409147704703 8.4128677106876 0
   vertex 8.459284239353094 7.883208020644301 0
   vertex 8.617005662343187 0.001 0
  endloop
 endfacet
 facet normal 0.0 0.0 -1.0
  outer loop
   vertex 8.459284239353094 7.883208020644301 0
   vertex 8.879624549309796 7.4628677106876 0
   vertex 8.617005662343187 0.001 0
  endloop
 endfacet
 facet normal 0.0 -0.0 -1.0
  outer loop
   vertex 8.879624549309796 7.4628677106876 0
   vertex 9.409284239353095 7.192992619039208 0
   vertex 8.617005662343187 0.001 0
  endloop
 endfacet
 facet normal 0.0 -0.0 -1.0
  outer loop
   vertex 9.409284239353095 7.192992619039208 0
   vertex 9.996416528665495 7.1 0
   vertex 8.617005662343187 0.001 0
  endloop
 endfacet
 facet normal 0.0 -0.0 -1.0
  outer loop
   vertex 9.996416528665495 7.1 0
   vertex 10.583548817977896 7.192992619039208 0
   vertex 8.617005662343187 0.001 0
  endloop
 endfacet
 facet normal 0.0 -0.0 -1.0
  outer loop
   vertex 10.583548817977896 7.192992619039208 0
   vertex 11.113208508021195 7.462867710687599 0
   vertex 8.617005662343187 0.001 0
  endloop
 endfacet
 facet normal 0.0 0.0 -1.0
  outer loop
   vertex 11.113208508021195 7.462867710687599 0
   vertex 11.533548817977895 7.8832080206443 0
   vertex 24.94900609629306 16.32 0
  endloop
 endfacet
 facet normal 0.0 0.0 -1.0
  outer loop
   vertex 11.533548817977895 7.8832080206443 0
   vertex 11.803423909626288 8.4128677106876 0
   vertex 24.94900609629306 16.32 0
  endloop
 endfacet
 facet normal 0.0 1.0 0.0
  outer loop
   vertex 24.94900609629306 16.32 0
   vertex -0.000337828981146697 16.32 0
   vertex -0.000337828981146697 16.32 0.36
  endloop
 endfacet
 facet normal 0.0 1.0 0.0
  outer loop
   vertex 24.94900609629306 16.32 0.36
   vertex 24.94900609629306 16.32 0
   vertex -0.000337828981146697 16.32 0.36
  endloop
 endfacet
 facet normal 0.706825181105366 -0.7073882691671998 0.0
  outer loop
   vertex 8.617005662343187 0.001 0
   vertex 24.94900609629306 16.32 0
   vertex 24.94900609629306 16.32 0.36
  endloop
 endfacet
 facet normal 0.706825181105366 -0.7073882691671998 0.0
  outer loop
   vertex 8.617005662343187 0.001 0.36
   vertex 8.617005662343187 0.001 0
   vertex 24.94900609629306 16.32 0.36
  endloop
 endfacet
 facet normal 0.0 -1.0 0.0
  outer loop
   vertex -0.013333088693985976 0.001 0
   vertex 8.617005662343187 0.001 0
   vertex 8.617005662343187 0.001 0.36
  endloop
 endfacet
 facet normal 0.0 -1.0 0.0
  outer loop
   vertex -0.013333088693985976 0.001 0.36
   vertex -0.013333088693985976 0.001 0
   vertex 8.617005662343187 0.001 0.36
  endloop
 endfacet
 facet normal -0.9999996829318346 0.0007963267107332632 0.0
  outer loop
   vertex -0.000337828981146697 16.32 0
   vertex -0.013333088693985976 0.001 0
   vertex -0.013333088693985976 0.001 0.36
  endloop
 endfacet
 facet normal -0.9999996829318346 0.0007963267107332632 0.0
  outer loop
   vertex -0.000337828981146697 16.32 0.36
   vertex -0.000337828981146697 16.32 0
   vertex -0.013333088693985976 0.001 0.36
  endloop
 endfacet
 facet normal -0.0 0.0 1.0
  outer loop
   vertex -0.000337828981146697 16.32 0.36
   vertex 11.113208508021195 10.537132289312401 0.36
   vertex 24.94900609629306 16.32 0.36
  endloop
 endfacet
 facet normal 0.0 0.0 1.0
  outer loop
   vertex 24.94900609629306 16.32 0.36
   vertex 11.113208508021195 7.462867710687599 0.36
   vertex 8.617005662343187 0.001 0.36
  endloop
 endfacet
 facet normal 0.0 0.0 1.0
  outer loop
   vertex 8.617005662343187 0.001 0.36
   vertex 8.096416528665495 9.0 0.36
   vertex -0.013333088693985976 0.001 0.36
  endloop
 endfacet
 facet normal 0.0 0.0 1.0
  outer loop
   vertex -0.013333088693985976 0.001 0.36
   vertex 8.459284239353096 10.1167919793557 0.36
   vertex -0.000337828981146697 16.32 0.36
  endloop
 endfacet
 facet normal 0.0 -0.0 1.0
  outer loop
   vertex 11.896416528665496 9.0 0.36
   vertex 24.94900609629306 16.32 0.36
   vertex 11.803423909626288 9.5871322893124 0.36
  endloop
 endfacet
 facet normal -0.0 0.0 1.0
  outer loop
   vertex 11.896416528665496 9.0 0.36
   vertex 11.803423909626288 8.4128677106876 0.36
   vertex 24.94900609629306 16.32 0.36
  endloop
 endfacet
 facet normal 0.0 -0.0 1.0
  outer loop
   vertex 11.803423909626288 9.5871322893124 0.36
   vertex 24.94900609629306 16.32 0.36
   vertex 11.533548817977897 10.1167919793557 0.36
  endloop
 endfacet
 facet normal 0.0 -0.0 1.0
  outer loop
   vertex 11.533548817977897 10.1167919793557 0.36
   vertex 24.94900609629306 16.32 0.36
   vertex 11.113208508021195 10.537132289312401 0.36
  endloop
 endfacet
 facet normal 0.0 0.0 1.0
  outer loop
   vertex 11.113208508021195 10.537132289312401 0.36
   vertex -0.000337828981146697 16.32 0.36
   vertex 10.583548817977896 10.807007380960792 0.36
  endloop
 endfacet
 facet normal 0.0 0.0 1.0
  outer loop
   vertex 10.583548817977896 10.807007380960792 0.36
   vertex -0.000337828981146697 16.32 0.36
   vertex 9.996416528665495 10.9 0.36
  endloop
 endfacet
 facet normal 0.0 0.0 1.0
  outer loop
   vertex 9.996416528665495 10.9 0.36
   vertex -0.000337828981146697 16.32 0.36
   vertex 9.409284239353095 10.807007380960792 0.36
  endloop
 endfacet
 facet normal 0.0 0.0 1.0
  outer loop
   vertex 9.409284239353095 10.807007380960792 0.36
   vertex -0.000337828981146697 16.32 0.36
   vertex 8.879624549309796 10.537132289312401 0.36
  endloop
 endfacet
 facet normal 0.0 0.0 1.0
  outer loop
   vertex 8.879624549309796 10.537132289312401 0.36
   vertex -0.000337828981146697 16.32 0.36
   vertex 8.459284239353096 10.1167919793557 0.36
  endloop
 endfacet
 facet normal 0.0 0.0 1.0
  outer loop
   vertex 8.459284239353096 10.1167919793557 0.36
   vertex -0.013333088693985976 0.001 0.36
   vertex 8.189409147704703 9.5871322893124 0.36
  endloop
 endfacet
 facet normal 0.0 0.0 1.0
  outer loop
   vertex 8.189409147704703 9.5871322893124 0.36
   vertex -0.013333088693985976 0.001 0.36
   vertex 8.096416528665495 9.0 0.36
  endloop
 endfacet
 facet normal 0.0 0.0 1.0
  outer loop
   vertex 8.096416528665495 9.0 0.36
   vertex 8.617005662343187 0.001 0.36
   vertex 8.189409147704703 8.4128677106876 0.36
  endloop
 endfacet
 facet normal 0.0 0.0 1.0
  outer loop
   vertex 8.189409147704703 8.4128677106876 0.36
   vertex 8.617005662343187 0.001 0.36
   vertex 8.459284239353094 7.883208020644301 0.36
  endloop
 endfacet
 facet normal 0.0 0.0 1.0
  outer loop
   vertex 8.459284239353094 7.883208020644301 0.36
   vertex 8.617005662343187 0.001 0.36
   vertex 8.879624549309796 7.4628677106876 0.36
  endloop
 endfacet
 facet normal 0.0 0.0 1.0
  outer loop
   vertex 8.879624549309796 7.4628677106876 0.36
   vertex 8.617005662343187 0.001 0.36
   vertex 9.409284239353095 7.192992619039208 0.36
  endloop
 endfacet
 facet normal 0.0 0.0 1.0
  outer loop
   vertex 9.409284239353095 7.192992619039208 0.36
   vertex 8.617005662343187 0.001 0.36
   vertex 9.996416528665495 7.1 0.36
  endloop
 endfacet
 facet normal -0.0 0.0 1.0
  outer loop
   vertex 9.996416528665495 7.1 0.36
   vertex 8.617005662343187 0.001 0.36
   vertex 10.583548817977896 7.192992619039208 0.36
  endloop
 endfacet
 facet normal -0.0 0.0 1.0
  outer loop
   vertex 10.583548817977896 7.192992619039208 0.36
   vertex 8.617005662343187 0.001 0.36
   vertex 11.113208508021195 7.462867710687599 0.36
  endloop
 endfacet
 facet normal 0.0 0.0 1.0
  outer loop
   vertex 11.113208508021195 7.462867710687599 0.36
   vertex 24.94900609629306 16.32 0.36
   vertex 11.533548817977895 7.8832080206443 0.36
  endloop
 endfacet
 facet normal 0.0 0.0 1.0
  outer loop
   vertex 11.533548817977895 7.8832080206443 0.36
   vertex 24.94900609629306 16.32 0.36
   vertex 11.803423909626288 8.4128677106876 0.36
  endloop
 endfacet
 facet normal -0.9876883405951378 -0.15643446504023065 0.0
  outer loop
   vertex 11.896416528665496 9.0 0
   vertex 11.896416528665496 9.0 0.36
   vertex 11.803423909626288 9.5871322893124 0
  endloop
 endfacet
 facet normal -0.9876883405951378 -0.15643446504023065 0.0
  outer loop
   vertex 11.803423909626288 9.5871322893124 0
   vertex 11.896416528665496 9.0 0.36
   vertex 11.803423909626288 9.5871322893124 0.36
  endloop
 endfacet
 facet normal -0.8910065241883687 -0.45399049973954536 0.0
  outer loop
   vertex 11.803423909626288 9.5871322893124 0
   vertex 11.803423909626288 9.5871322893124 0.36
   vertex 11.533548817977897 10.1167919793557 0
  endloop
 endfacet
 facet normal -0.8910065241883687 -0.45399049973954536 0.0
  outer loop
   vertex 11.533548817977897 10.1167919793557 0
   vertex 11.803423909626288 9.5871322893124 0.36
   vertex 11.533548817977897 10.1167919793557 0.36
  endloop
 endfacet
 facet normal -0.7071067811865476 -0.7071067811865476 0.0
  outer loop
   vertex 11.533548817977897 10.1167919793557 0
   vertex 11.533548817977897 10.1167919793557 0.36
   vertex 11.113208508021195 10.537132289312401 0
  endloop
 endfacet
 facet normal -0.7071067811865476 -0.7071067811865476 0.0
  outer loop
   vertex 11.113208508021195 10.537132289312401 0
   vertex 11.533548817977897 10.1167919793557 0.36
   vertex 11.113208508021195 10.537132289312401 0.36
  endloop
 endfacet
 facet normal -0.45399049973954536 -0.8910065241883687 0.0
  outer loop
   vertex 11.113208508021195 10.537132289312401 0
   vertex 11.113208508021195 10.537132289312401 0.36
   vertex 10.583548817977896 10.807007380960792 0
  endloop
 endfacet
 facet normal -0.45399049973954536 -0.8910065241883687 0.0
  outer loop
   vertex 10.583548817977896 10.807007380960792 0
   vertex 11.113208508021195 10.537132289312401 0.36
   vertex 10.583548817977896 10.807007380960792 0.36
  endloop
 endfacet
 facet normal -0.15643446504023065 -0.9876883405951378 0.0
  outer loop
   vertex 10.583548817977896 10.807007380960792 0
   vertex 10.583548817977896 10.807007380960792 0.36
   vertex 9.996416528665495 10.9 0
  endloop
 endfacet
 facet normal -0.15643446504023065 -0.9876883405951378 0.0
  outer loop
   vertex 9.996416528665495 10.9 0
   vertex 10.583548817977896 10.807007380960792 0.36
   vertex 9.996416528665495 10.9 0.36
  endloop
 endfacet
 facet normal 0.15643446504023065 -0.9876883405951378 0.0
  outer loop
   vertex 9.996416528665495 10.9 0
   vertex 9.996416528665495 10.9 0.36
   vertex 9.409284239353095 10.807007380960792 0
  endloop
 endfacet
 facet normal 0.15643446504023065 -0.9876883405951378 0.0
  outer loop
   vertex 9.409284239353095 10.807007380960792 0
   vertex 9.996416528665495 10.9 0.36
   vertex 9.409284239353095 10.807007380960792 0.36
  endloop
 endfacet
 facet normal 0.45399049973954536 -0.8910065241883687 0.0
  outer loop
   vertex 9.409284239353095 10.807007380960792 0
   vertex 9.409284239353095 10.807007380960792 0.36
   vertex 8.879624549309796 10.537132289312401 0
  endloop
 endfacet
 facet normal 0.45399049973954536 -0.8910065241883687 0.0
  outer loop
   vertex 8.879624549309796 10.537132289312401 0
   vertex 9.409284239353095 10.807007380960792 0.36
   vertex 8.879624549309796 10.537132289312401 0.36
  endloop
 endfacet
 facet normal 0.707106781186549 -0.707106781186546 0.0
  outer loop
   vertex 8.879624549309796 10.537132289312401 0
   vertex 8.879624549309796 10.537132289312401 0.36
   vertex 8.459284239353096 10.1167919793557 0
  endloop
 endfacet
 facet normal 0.707106781186549 -0.707106781186546 0.0
  outer loop
   vertex 8.459284239353096 10.1167919793557 0
   vertex 8.879624549309796 10.537132289312401 0.36
   vertex 8.459284239353096 10.1167919793557 0.36
  endloop
 endfacet
 facet normal 0.8910065241883673 -0.45399049973954775 0.0
  outer loop
   vertex 8.459284239353096 10.1167919793557 0
   vertex 8.459284239353096 10.1167919793557 0.36
   vertex 8.189409147704703 9.5871322893124 0
  endloop
 endfacet
 facet normal 0.8910065241883673 -0.45399049973954775 0.0
  outer loop
   vertex 8.189409147704703 9.5871322893124 0
   vertex 8.459284239353096 10.1167919793557 0.36
   vertex 8.189409147704703 9.5871322893124 0.36
  endloop
 endfacet
 facet normal 0.9876883405951378 -0.15643446504023065 0.0
  outer loop
   vertex 8.189409147704703 9.5871322893124 0
   vertex 8.189409147704703 9.5871322893124 0.36
   vertex 8.096416528665495 9.0 0
  endloop
 endfacet
 facet normal 0.9876883405951378 -0.15643446504023065 0.0
  outer loop
   vertex 8.096416528665495 9.0 0
   vertex 8.189409147704703 9.5871322893124 0.36
   vertex 8.096416528665495 9.0 0.36
  endloop
 endfacet
 facet normal 0.9876883405951378 0.15643446504023065 -0.0
  outer loop
   vertex 8.096416528665495 9.0 0
   vertex 8.096416528665495 9.0 0.36
   vertex 8.189409147704703 8.4128677106876 0
  endloop
 endfacet
 facet normal 0.9876883405951378 0.15643446504023065 -0.0
  outer loop
   vertex 8.189409147704703 8.4128677106876 0
   vertex 8.096416528665495 9.0 0.36
   vertex 8.189409147704703 8.4128677106876 0.36
  endloop
 endfacet
 facet normal 0.8910065241883683 0.453990499739546 -0.0
  outer loop
   vertex 8.189409147704703 8.4128677106876 0
   vertex 8.189409147704703 8.4128677106876 0.36
   vertex 8.459284239353094 7.883208020644301 0
  endloop
 endfacet
 facet normal 0.8910065241883683 0.453990499739546 -0.0
  outer loop
   vertex 8.459284239353094 7.883208020644301 0
   vertex 8.189409147704703 8.4128677106876 0.36
   vertex 8.459284239353094 7.883208020644301 0.36
  endloop
 endfacet
 facet normal 0.7071067811865476 0.7071067811865476 -0.0
  outer loop
   vertex 8.459284239353094 7.883208020644301 0
   vertex 8.459284239353094 7.883208020644301 0.36
   vertex 8.879624549309796 7.4628677106876 0
  endloop
 endfacet
 facet normal 0.7071067811865476 0.7071067811865476 -0.0
  outer loop
   vertex 8.879624549309796 7.4628677106876 0
   vertex 8.459284239353094 7.883208020644301 0.36
   vertex 8.879624549309796 7.4628677106876 0.36
  endloop
 endfacet
 facet normal 0.4539904997395466 0.8910065241883679 -0.0
  outer loop
   vertex 8.879624549309796 7.4628677106876 0
   vertex 8.879624549309796 7.4628677106876 0.36
   vertex 9.409284239353095 7.192992619039208 0
  endloop
 endfacet
 facet normal 0.4539904997395466 0.8910065241883679 -0.0
  outer loop
   vertex 9.409284239353095 7.192992619039208 0
   vertex 8.879624549309796 7.4628677106876 0.36
   vertex 9.409284239353095 7.192992619039208 0.36
  endloop
 endfacet
 facet normal 0.15643446504023065 0.9876883405951378 -0.0
  outer loop
   vertex 9.409284239353095 7.192992619039208 0
   vertex 9.409284239353095 7.192992619039208 0.36
   vertex 9.996416528665495 7.1 0
  endloop
 endfacet
 facet normal 0.15643446504023065 0.9876883405951378 -0.0
  outer loop
   vertex 9.996416528665495 7.1 0
   vertex 9.409284239353095 7.192992619039208 0.36
   vertex 9.996416528665495 7.1 0.36
  endloop
 endfacet
 facet normal -0.15643446504023065 0.9876883405951378 0.0
  outer loop
   vertex 9.996416528665495 7.1 0
   vertex 9.996416528665495 7.1 0.36
   vertex 10.583548817977896 7.192992619039208 0
  endloop
 endfacet
 facet normal -0.15643446504023065 0.9876883405951378 0.0
  outer loop
   vertex 10.583548817977896 7.192992619039208 0
   vertex 9.996416528665495 7.1 0.36
   vertex 10.583548817977896 7.192992619039208 0.36
  endloop
 endfacet
 facet normal -0.45399049973954536 0.8910065241883687 0.0
  outer loop
   vertex 10.583548817977896 7.192992619039208 0
   vertex 10.583548817977896 7.192992619039208 0.36
   vertex 11.113208508021195 7.462867710687599 0
  endloop
 endfacet
 facet normal -0.45399049973954536 0.8910065241883687 0.0
  outer loop
   vertex 11.113208508021195 7.462867710687599 0
   vertex 10.583548817977896 7.192992619039208 0.36
   vertex 11.113208508021195 7.462867710687599 0.36
  endloop
 endfacet
 facet normal -0.707106781186549 0.707106781186546 0.0
  outer loop
   vertex 11.113208508021195 7.462867710687599 0
   vertex 11.113208508021195 7.462867710687599 0.36
   vertex 11.533548817977895 7.8832080206443 0
  endloop
 endfacet
 facet normal -0.707106781186549 0.707106781186546 0.0
  outer loop
   vertex 11.533548817977895 7.8832080206443 0
   vertex 11.113208508021195 7.462867710687599 0.36
   vertex 11.533548817977895 7.8832080206443 0.36
  endloop
 endfacet
 facet normal -0.8910065241883673 0.45399049973954775 0.0
  outer loop
   vertex 11.533548817977895 7.8832080206443 0
   vertex 11.533548817977895 7.8832080206443 0.36
   vertex 11.803423909626288 8.4128677106876 0
  endloop
 endfacet
 facet normal -0.8910065241883673 0.45399049973954775 0.0
  outer loop
   vertex 11.803423909626288 8.4128677106876 0
   vertex 11.533548817977895 7.8832080206443 0.36
   vertex 11.803423909626288 8.4128677106876 0.36
  endloop
 endfacet
 facet normal -0.9876883405951378 0.15643446504023065 0.0
  outer loop
   vertex 11.803423909626288 8.4128677106876 0
   vertex 11.803423909626288 8.4128677106876 0.36
   vertex 11.896416528665496 9.0 0
  endloop
 endfacet
 facet normal -0.9876883405951378 0.15643446504023065 0.0
  outer loop
   vertex 11.896416528665496 9.0 0
   vertex 11.803423909626288 8.4128677106876 0.36
   vertex 11.896416528665496 9.0 0.36
  endloop
 endfacet
 facet normal 0.0 0.0 -1.0
  outer loop
   vertex 24.94900609629307 19.68 0
   vertex -0.000337828981146697 19.68 0
   vertex 9.409284239353095 25.19299261903921 0
  endloop
 endfacet
 facet normal 0.0 0.0 -1.0
  outer loop
   vertex -0.000337828981146697 19.68 0
   vertex -0.013333088693985978 35.999 0
   vertex 8.879624549309796 28.5371322893124 0
  endloop
 endfacet
 facet normal 0.0 0.0 -1.0
  outer loop
   vertex -0.013333088693985978 35.999 0
   vertex 8.617005662343194 35.999 0
   vertex 11.113208508021195 28.5371322893124 0
  endloop
 endfacet
 facet normal 0.0 0.0 -1.0
  outer loop
   vertex 8.617005662343194 35.999 0
   vertex 24.94900609629307 19.68 0
   vertex 11.803423909626288 27.5871322893124 0
  endloop
 endfacet
 facet normal 0.0 0.0 -1.0
  outer loop
   vertex 11.896416528665496 27.0 0
   vertex 11.803423909626288 27.5871322893124 0
   vertex 24.94900609629307 19.68 0
  endloop
 endfacet
 facet normal 0.0 -0.0 -1.0
  outer loop
   vertex 11.896416528665496 27.0 0
   vertex 24.94900609629307 19.68 0
   vertex 11.803423909626288 26.4128677106876 0
  endloop
 endfacet
 facet normal 0.0 0.0 -1.0
  outer loop
   vertex 11.803423909626288 27.5871322893124 0
   vertex 11.533548817977897 28.1167919793557 0
   vertex 8.617005662343194 35.999 0
  endloop
 endfacet
 facet normal 0.0 0.0 -1.0
  outer loop
   vertex 11.533548817977897 28.1167919793557 0
   vertex 11.113208508021195 28.5371322893124 0
   vertex 8.617005662343194 35.999 0
  endloop
 endfacet
 facet normal 0.0 0.0 -1.0
  outer loop
   vertex 11.113208508021195 28.5371322893124 0
   vertex 10.583548817977896 28.80700738096079 0
   vertex -0.013333088693985978 35.999 0
  endloop
 endfacet
 facet normal 0.0 0.0 -1.0
  outer loop
   vertex 10.583548817977896 28.80700738096079 0
   vertex 9.996416528665495 28.900000000000002 0
   vertex -0.013333088693985978 35.999 0
  endloop
 endfacet
 facet normal -0.0 0.0 -1.0
  outer loop
   vertex 9.996416528665495 28.900000000000002 0
   vertex 9.409284239353095 28.807007380960794 0
   vertex -0.013333088693985978 35.999 0
  endloop
 endfacet
 facet normal -0.0 0.0 -1.0
  outer loop
   vertex 9.409284239353095 28.807007380960794 0
   vertex 8.879624549309796 28.5371322893124 0
   vertex -0.013333088693985978 35.999 0
  endloop
 endfacet
 facet normal 0.0 0.0 -1.0
  outer loop
   vertex 8.879624549309796 28.5371322893124 0
   vertex 8.459284239353096 28.1167919793557 0
   vertex -0.000337828981146697 19.68 0
  endloop
 endfacet
 facet normal 0.0 0.0 -1.0
  outer loop
   vertex 8.459284239353096 28.1167919793557 0
   vertex 8.189409147704703 27.5871322893124 0
   vertex -0.000337828981146697 19.68 0
  endloop
 endfacet
 facet normal 0.0 0.0 -1.0
  outer loop
   vertex 8.189409147704703 27.5871322893124 0
   vertex 8.096416528665495 27.0 0
   vertex -0.000337828981146697 19.68 0
  endloop
 endfacet
 facet normal 0.0 -0.0 -1.0
  outer loop
   vertex 8.096416528665495 27.0 0
   vertex 8.189409147704703 26.4128677106876 0
   vertex -0.000337828981146697 19.68 0
  endloop
 endfacet
 facet normal 0.0 -0.0 -1.0
  outer loop
   vertex 8.189409147704703 26.4128677106876 0
   vertex 8.459284239353094 25.8832080206443 0
   vertex -0.000337828981146697 19.68 0
  endloop
 endfacet
 facet normal 0.0 -0.0 -1.0
  outer loop
   vertex 8.459284239353094 25.8832080206443 0
   vertex 8.879624549309796 25.4628677106876 0
   vertex -0.000337828981146697 19.68 0
  endloop
 endfacet
 facet normal 0.0 -0.0 -1.0
  outer loop
   vertex 8.879624549309796 25.4628677106876 0
   vertex 9.409284239353095 25.19299261903921 0
   vertex -0.000337828981146697 19.68 0
  endloop
 endfacet
 facet normal 0.0 0.0 -1.0
  outer loop
   vertex 9.409284239353095 25.19299261903921 0
   vertex 9.996416528665495 25.099999999999998 0
   vertex 24.94900609629307 19.68 0
  endloop
 endfacet
 facet normal 0.0 0.0 -1.0
  outer loop
   vertex 9.996416528665495 25.099999999999998 0
   vertex 10.583548817977896 25.192992619039206 0
   vertex 24.94900609629307 19.68 0
  endloop
 endfacet
 facet normal 0.0 0.0 -1.0
  outer loop
   vertex 10.583548817977896 25.192992619039206 0
   vertex 11.113208508021195 25.4628677106876 0
   vertex 24.94900609629307 19.68 0
  endloop
 endfacet
 facet normal 0.0 0.0 -1.0
  outer loop
   vertex 11.113208508021195 25.4628677106876 0
   vertex 11.533548817977895 25.8832080206443 0
   vertex 24.94900609629307 19.68 0
  endloop
 endfacet
 facet normal 0.0 0.0 -1.0
  outer loop
   vertex 11.533548817977895 25.8832080206443 0
   vertex 11.803423909626288 26.4128677106876 0
   vertex 24.94900609629307 19.68 0
  endloop
 endfacet
 facet normal 0.0 -1.0 0.0
  outer loop
   vertex -0.000337828981146697 19.68 0
   vertex 24.94900609629307 19.68 0
   vertex 24.94900609629307 19.68 0.36
  endloop
 endfacet
 facet normal 0.0 -1.0 0.0
  outer loop
   vertex -0.000337828981146697 19.68 0.36
   vertex -0.000337828981146697 19.68 0
   vertex 24.94900609629307 19.68 0.36
  endloop
 endfacet
 facet normal -0.9999996829318346 -0.0007963267107332632 0.0
  outer loop
   vertex -0.013333088693985978 35.999 0
   vertex -0.000337828981146697 19.68 0
   vertex -0.000337828981146697 19.68 0.36
  endloop
 endfacet
 facet normal -0.9999996829318346 -0.0007963267107332632 -0.0
  outer loop
   vertex -0.013333088693985978 35.999 0.36
   vertex -0.013333088693985978 35.999 0
   vertex -0.000337828981146697 19.68 0.36
  endloop
 endfacet
 facet normal 0.0 1.0 0.0
  outer loop
   vertex 8.617005662343194 35.999 0
   vertex -0.013333088693985978 35.999 0
   vertex -0.013333088693985978 35.999 0.36
  endloop
 endfacet
 facet normal 0.0 1.0 0.0
  outer loop
   vertex 8.617005662343194 35.999 0.36
   vertex 8.617005662343194 35.999 0
   vertex -0.013333088693985978 35.999 0.36
  endloop
 endfacet
 facet normal 0.7068251811053659 0.7073882691671997 0.0
  outer loop
   vertex 24.94900609629307 19.68 0
   vertex 8.617005662343194 35.999 0
   vertex 8.617005662343194 35.999 0.36
  endloop
 endfacet
 facet normal 0.7068251811053659 0.7073882691671997 0.0
  outer loop
   vertex 24.94900609629307 19.68 0.36
   vertex 24.94900609629307 19.68 0
   vertex 8.617005662343194 35.999 0.36
  endloop
 endfacet
 facet normal 0.0 0.0 1.0
  outer loop
   vertex 24.94900609629307 19.68 0.36
   vertex 9.409284239353095 25.19299261903921 0.36
   vertex -0.000337828981146697 19.68 0.36
  endloop
 endfacet
 facet normal 0.0 -0.0 1.0
  outer loop
   vertex -0.000337828981146697 19.68 0.36
   vertex 8.879624549309796 28.5371322893124 0.36
   vertex -0.013333088693985978 35.999 0.36
  endloop
 endfacet
 facet normal -0.0 0.0 1.0
  outer loop
   vertex -0.013333088693985978 35.999 0.36
   vertex 11.113208508021195 28.5371322893124 0.36
   vertex 8.617005662343194 35.999 0.36
  endloop
 endfacet
 facet normal 0.0 0.0 1.0
  outer loop
   vertex 8.617005662343194 35.999 0.36
   vertex 11.803423909626288 27.5871322893124 0.36
   vertex 24.94900609629307 19.68 0.36
  endloop
 endfacet
 facet normal -0.0 -0.0 1.0
  outer loop
   vertex 11.896416528665496 27.0 0.36
   vertex 24.94900609629307 19.68 0.36
   vertex 11.803423909626288 27.5871322893124 0.36
  endloop
 endfacet
 facet normal 0.0 0.0 1.0
  outer loop
   vertex 11.896416528665496 27.0 0.36
   vertex 11.803423909626288 26.4128677106876 0.36
   vertex 24.94900609629307 19.68 0.36
  endloop
 endfacet
 facet normal 0.0 0.0 1.0
  outer loop
   vertex 11.803423909626288 27.5871322893124 0.36
   vertex 8.617005662343194 35.999 0.36
   vertex 11.533548817977897 28.1167919793557 0.36
  endloop
 endfacet
 facet normal 0.0 0.0 1.0
  outer loop
   vertex 11.533548817977897 28.1167919793557 0.36
   vertex 8.617005662343194 35.999 0.36
   vertex 11.113208508021195 28.5371322893124 0.36
  endloop
 endfacet
 facet normal 0.0 0.0 1.0
  outer loop
   vertex 11.113208508021195 28.5371322893124 0.36
   vertex -0.013333088693985978 35.999 0.36
   vertex 10.583548817977896 28.80700738096079 0.36
  endloop
 endfacet
 facet normal 0.0 0.0 1.0
  outer loop
   vertex 10.583548817977896 28.80700738096079 0.36
   vertex -0.013333088693985978 35.999 0.36
   vertex 9.996416528665495 28.900000000000002 0.36
  endloop
 endfacet
 facet normal 0.0 0.0 1.0
  outer loop
   vertex 9.996416528665495 28.900000000000002 0.36
   vertex -0.013333088693985978 35.999 0.36
   vertex 9.409284239353095 28.807007380960794 0.36
  endloop
 endfacet
 facet normal 0.0 0.0 1.0
  outer loop
   vertex 9.409284239353095 28.807007380960794 0.36
   vertex -0.013333088693985978 35.999 0.36
   vertex 8.879624549309796 28.5371322893124 0.36
  endloop
 endfacet
 facet normal 0.0 0.0 1.0
  outer loop
   vertex 8.879624549309796 28.5371322893124 0.36
   vertex -0.000337828981146697 19.68 0.36
   vertex 8.459284239353096 28.1167919793557 0.36
  endloop
 endfacet
 facet normal 0.0 0.0 1.0
  outer loop
   vertex 8.459284239353096 28.1167919793557 0.36
   vertex -0.000337828981146697 19.68 0.36
   vertex 8.189409147704703 27.5871322893124 0.36
  endloop
 endfacet
 facet normal 0.0 0.0 1.0
  outer loop
   vertex 8.189409147704703 27.5871322893124 0.36
   vertex -0.000337828981146697 19.68 0.36
   vertex 8.096416528665495 27.0 0.36
  endloop
 endfacet
 facet normal 0.0 0.0 1.0
  outer loop
   vertex 8.096416528665495 27.0 0.36
   vertex -0.000337828981146697 19.68 0.36
   vertex 8.189409147704703 26.4128677106876 0.36
  endloop
 endfacet
 facet normal 0.0 0.0 1.0
  outer loop
   vertex 8.189409147704703 26.4128677106876 0.36
   vertex -0.000337828981146697 19.68 0.36
   vertex 8.459284239353094 25.8832080206443 0.36
  endloop
 endfacet
 facet normal 0.0 0.0 1.0
  outer loop
   vertex 8.459284239353094 25.8832080206443 0.36
   vertex -0.000337828981146697 19.68 0.36
   vertex 8.879624549309796 25.4628677106876 0.36
  endloop
 endfacet
 facet normal 0.0 0.0 1.0
  outer loop
   vertex 8.879624549309796 25.4628677106876 0.36
   vertex -0.000337828981146697 19.68 0.36
   vertex 9.409284239353095 25.19299261903921 0.36
  endloop
 endfacet
 facet normal 0.0 0.0 1.0
  outer loop
   vertex 9.409284239353095 25.19299261903921 0.36
   vertex 24.94900609629307 19.68 0.36
   vertex 9.996416528665495 25.099999999999998 0.36
  endloop
 endfacet
 facet normal -0.0 0.0 1.0
  outer loop
   vertex 9.996416528665495 25.099999999999998 0.36
   vertex 24.94900609629307 19.68 0.36
   vertex 10.583548817977896 25.192992619039206 0.36
  endloop
 endfacet
 facet normal -0.0 0.0 1.0
  outer loop
   vertex 10.583548817977896 25.192992619039206 0.36
   vertex 24.94900609629307 19.68 0.36
   vertex 11.113208508021195 25.4628677106876 0.36
  endloop
 endfacet
 facet normal -0.0 0.0 1.0
  outer loop
   vertex 11.113208508021195 25.4628677106876 0.36
   vertex 24.94900609629307 19.68 0.36
   vertex 11.533548817977895 25.8832080206443 0.36
  endloop
 endfacet
 facet normal -0.0 0.0 1.0
  outer loop
   vertex 11.533548817977895 25.8832080206443 0.36
   vertex 24.94900609629307 19.68 0.36
   vertex 11.803423909626288 26.4128677106876 0.36
  endloop
 endfacet
 facet normal -0.9876883405951378 -0.15643446504023065 0.0
  outer loop
   vertex 11.896416528665496 27.0 0
   vertex 11.896416528665496 27.0 0.36
   vertex 11.803423909626288 27.5871322893124 0
  endloop
 endfacet
 facet normal -0.9876883405951378 -0.15643446504023065 0.0
  outer loop
   vertex 11.803423909626288 27.5871322893124 0
   vertex 11.896416528665496 27.0 0.36
   vertex 11.803423909626288 27.5871322893124 0.36
  endloop
 endfacet
 facet normal -0.8910065241883687 -0.45399049973954536 0.0
  outer loop
   vertex 11.803423909626288 27.5871322893124 0
   vertex 11.803423909626288 27.5871322893124 0.36
   vertex 11.533548817977897 28.1167919793557 0
  endloop
 endfacet
 facet normal -0.8910065241883687 -0.45399049973954536 0.0
  outer loop
   vertex 11.533548817977897 28.1167919793557 0
   vertex 11.803423909626288 27.5871322893124 0.36
   vertex 11.533548817977897 28.1167919793557 0.36
  endloop
 endfacet
 facet normal -0.707106781186546 -0.707106781186549 0.0
  outer loop
   vertex 11.533548817977897 28.1167919793557 0
   vertex 11.533548817977897 28.1167919793557 0.36
   vertex 11.113208508021195 28.5371322893124 0
  endloop
 endfacet
 facet normal -0.707106781186546 -0.707106781186549 0.0
  outer loop
   vertex 11.113208508021195 28.5371322893124 0
   vertex 11.533548817977897 28.1167919793557 0.36
   vertex 11.113208508021195 28.5371322893124 0.36
  endloop
 endfacet
 facet normal -0.45399049973954536 -0.8910065241883687 0.0
  outer loop
   vertex 11.113208508021195 28.5371322893124 0
   vertex 11.113208508021195 28.5371322893124 0.36
   vertex 10.583548817977896 28.80700738096079 0
  endloop
 endfacet
 facet normal -0.45399049973954536 -0.8910065241883687 0.0
  outer loop
   vertex 10.583548817977896 28.80700738096079 0
   vertex 11.113208508021195 28.5371322893124 0.36
   vertex 10.583548817977896 28.80700738096079 0.36
  endloop
 endfacet
 facet normal -0.15643446504023645 -0.9876883405951369 0.0
  outer loop
   vertex 10.583548817977896 28.80700738096079 0
   vertex 10.583548817977896 28.80700738096079 0.36
   vertex 9.996416528665495 28.900000000000002 0
  endloop
 endfacet
 facet normal -0.15643446504023645 -0.9876883405951369 0.0
  outer loop
   vertex 9.996416528665495 28.900000000000002 0
   vertex 10.583548817977896 28.80700738096079 0.36
   vertex 9.996416528665495 28.900000000000002 0.36
  endloop
 endfacet
 facet normal 0.15643446504023065 -0.9876883405951378 0.0
  outer loop
   vertex 9.996416528665495 28.900000000000002 0
   vertex 9.996416528665495 28.900000000000002 0.36
   vertex 9.409284239353095 28.807007380960794 0
  endloop
 endfacet
 facet normal 0.15643446504023065 -0.9876883405951378 0.0
  outer loop
   vertex 9.409284239353095 28.807007380960794 0
   vertex 9.996416528665495 28.900000000000002 0.36
   vertex 9.409284239353095 28.807007380960794 0.36
  endloop
 endfacet
 facet normal 0.45399049973955014 -0.8910065241883662 0.0
  outer loop
   vertex 9.409284239353095 28.807007380960794 0
   vertex 9.409284239353095 28.807007380960794 0.36
   vertex 8.879624549309796 28.5371322893124 0
  endloop
 endfacet
 facet normal 0.45399049973955014 -0.8910065241883662 0.0
  outer loop
   vertex 8.879624549309796 28.5371322893124 0
   vertex 9.409284239353095 28.807007380960794 0.36
   vertex 8.879624549309796 28.5371322893124 0.36
  endloop
 endfacet
 facet normal 0.7071067811865476 -0.7071067811865476 0.0
  outer loop
   vertex 8.879624549309796 28.5371322893124 0
   vertex 8.879624549309796 28.5371322893124 0.36
   vertex 8.459284239353096 28.1167919793557 0
  endloop
 endfacet
 facet normal 0.7071067811865476 -0.7071067811865476 0.0
  outer loop
   vertex 8.459284239353096 28.1167919793557 0
   vertex 8.879624549309796 28.5371322893124 0.36
   vertex 8.459284239353096 28.1167919793557 0.36
  endloop
 endfacet
 facet normal 0.8910065241883673 -0.45399049973954775 0.0
  outer loop
   vertex 8.459284239353096 28.1167919793557 0
   vertex 8.459284239353096 28.1167919793557 0.36
   vertex 8.189409147704703 27.5871322893124 0
  endloop
 endfacet
 facet normal 0.8910065241883673 -0.45399049973954775 0.0
  outer loop
   vertex 8.189409147704703 27.5871322893124 0
   vertex 8.459284239353096 28.1167919793557 0.36
   vertex 8.189409147704703 27.5871322893124 0.36
  endloop
 endfacet
 facet normal 0.9876883405951378 -0.15643446504023065 0.0
  outer loop
   vertex 8.189409147704703 27.5871322893124 0
   vertex 8.189409147704703 27.5871322893124 0.36
   vertex 8.096416528665495 27.0 0
  endloop
 endfacet
 facet normal 0.9876883405951378 -0.15643446504023065 0.0
  outer loop
   vertex 8.096416528665495 27.0 0
   vertex 8.189409147704703 27.5871322893124 0.36
   vertex 8.096416528665495 27.0 0.36
  endloop
 endfacet
 facet normal 0.9876883405951378 0.15643446504023065 -0.0
  outer loop
   vertex 8.096416528665495 27.0 0
   vertex 8.096416528665495 27.0 0.36
   vertex 8.189409147704703 26.4128677106876 0
  endloop
 endfacet
 facet normal 0.9876883405951378 0.15643446504023065 -0.0
  outer loop
   vertex 8.189409147704703 26.4128677106876 0
   vertex 8.096416528665495 27.0 0.36
   vertex 8.189409147704703 26.4128677106876 0.36
  endloop
 endfacet
 facet normal 0.8910065241883687 0.45399049973954536 -0.0
  outer loop
   vertex 8.189409147704703 26.4128677106876 0
   vertex 8.189409147704703 26.4128677106876 0.36
   vertex 8.459284239353094 25.8832080206443 0
  endloop
 endfacet
 facet normal 0.8910065241883687 0.45399049973954536 -0.0
  outer loop
   vertex 8.459284239353094 25.8832080206443 0
   vertex 8.189409147704703 26.4128677106876 0.36
   vertex 8.459284239353094 25.8832080206443 0.36
  endloop
 endfacet
 facet normal 0.707106781186546 0.707106781186549 -0.0
  outer loop
   vertex 8.459284239353094 25.8832080206443 0
   vertex 8.459284239353094 25.8832080206443 0.36
   vertex 8.879624549309796 25.4628677106876 0
  endloop
 endfacet
 facet normal 0.707106781186546 0.707106781186549 -0.0
  outer loop
   vertex 8.879624549309796 25.4628677106876 0
   vertex 8.459284239353094 25.8832080206443 0.36
   vertex 8.879624549309796 25.4628677106876 0.36
  endloop
 endfacet
 facet normal 0.45399049973954536 0.8910065241883687 -0.0
  outer loop
   vertex 8.879624549309796 25.4628677106876 0
   vertex 8.879624549309796 25.4628677106876 0.36
   vertex 9.409284239353095 25.19299261903921 0
  endloop
 endfacet
 facet normal 0.45399049973954536 0.8910065241883687 -0.0
  outer loop
   vertex 9.409284239353095 25.19299261903921 0
   vertex 8.879624549309796 25.4628677106876 0.36
   vertex 9.409284239353095 25.19299261903921 0.36
  endloop
 endfacet
 facet normal 0.15643446504023645 0.9876883405951369 -0.0
  outer loop
   vertex 9.409284239353095 25.19299261903921 0
   vertex 9.409284239353095 25.19299261903921 0.36
   vertex 9.996416528665495 25.099999999999998 0
  endloop
 endfacet
 facet normal 0.15643446504023645 0.9876883405951369 -0.0
  outer loop
   vertex 9.996416528665495 25.099999999999998 0
   vertex 9.409284239353095 25.19299261903921 0.36
   vertex 9.996416528665495 25.099999999999998 0.36
  endloop
 endfacet
 facet normal -0.15643446504023065 0.9876883405951378 0.0
  outer loop
   vertex 9.996416528665495 25.099999999999998 0
   vertex 9.996416528665495 25.099999999999998 0.36
   vertex 10.583548817977896 25.192992619039206 0
  endloop
 endfacet
 facet normal -0.15643446504023065 0.9876883405951378 0.0
  outer loop
   vertex 10.583548817977896 25.192992619039206 0
   vertex 9.996416528665495 25.099999999999998 0.36
   vertex 10.583548817977896 25.192992619039206 0.36
  endloop
 endfacet
 facet normal -0.45399049973955014 0.8910065241883662 0.0
  outer loop
   vertex 10.583548817977896 25.192992619039206 0
   vertex 10.583548817977896 25.192992619039206 0.36
   vertex 11.113208508021195 25.4628677106876 0
  endloop
 endfacet
 facet normal -0.45399049973955014 0.8910065241883662 0.0
  outer loop
   vertex 11.113208508021195 25.4628677106876 0
   vertex 10.583548817977896 25.192992619039206 0.36
   vertex 11.113208508021195 25.4628677106876 0.36
  endloop
 endfacet
 facet normal -0.7071067811865476 0.7071067811865476 0.0
  outer loop
   vertex 11.113208508021195 25.4628677106876 0
   vertex 11.113208508021195 25.4628677106876 0.36
   vertex 11.533548817977895 25.8832080206443 0
  endloop
 endfacet
 facet normal -0.7071067811865476 0.7071067811865476 0.0
  outer loop
   vertex 11.533548817977895 25.8832080206443 0
   vertex 11.113208508021195 25.4628677106876 0.36
   vertex 11.533548817977895 25.8832080206443 0.36
  endloop
 endfacet
 facet normal -0.8910065241883673 0.45399049973954775 0.0
  outer loop
   vertex 11.533548817977895 25.8832080206443 0
   vertex 11.533548817977895 25.8832080206443 0.36
   vertex 11.803423909626288 26.4128677106876 0
  endloop
 endfacet
 facet normal -0.8910065241883673 0.45399049973954775 0.0
  outer loop
   vertex 11.803423909626288 26.4128677106876 0
   vertex 11.533548817977895 25.8832080206443 0.36
   vertex 11.803423909626288 26.4128677106876 0.36
  endloop
 endfacet
 facet normal -0.9876883405951378 0.15643446504023065 0.0
  outer loop
   vertex 11.803423909626288 26.4128677106876 0
   vertex 11.803423909626288 26.4128677106876 0.36
   vertex 11.896416528665496 27.0 0
  endloop
 endfacet
 facet normal -0.9876883405951378 0.15643446504023065 0.0
  outer loop
   vertex 11.896416528665496 27.0 0
   vertex 11.803423909626288 26.4128677106876 0.36
   vertex 11.896416528665496 27.0 0.36
  endloop
 endfacet
 facet normal 0.0 0.0 -1.0
  outer loop
   vertex 29.70265677232794 16.32 0
   vertex 69.99766217038471 16.32 0
   vertex 45.5835488179779 10.807007380960792 0
  endloop
 endfacet
 facet normal 0.0 0.0 -1.0
  outer loop
   vertex 69.99766217038471 16.32 0
   vertex 69.98466691067186 0.001 0
   vertex 46.8964165286655 9.0 0
  endloop
 endfacet
 facet normal 0.0 0.0 -1.0
  outer loop
   vertex 69.98466691067186 0.001 0
   vertex 13.370656338378067 0.001 0
   vertex 44.4092842393531 7.192992619039208 0
  endloop
 endfacet
 facet normal 0.0 0.0 -1.0
  outer loop
   vertex 13.370656338378067 0.001 0
   vertex 29.70265677232794 16.32 0
   vertex 44.4092842393531 10.807007380960792 0
  endloop
 endfacet
 facet normal 0.0 0.0 -1.0
  outer loop
   vertex 46.8964165286655 9.0 0
   vertex 46.80342390962629 9.5871322893124 0
   vertex 69.99766217038471 16.32 0
  endloop
 endfacet
 facet normal 0.0 -0.0 -1.0
  outer loop
   vertex 46.8964165286655 9.0 0
   vertex 69.98466691067186 0.001 0
   vertex 46.80342390962629 8.4128677106876 0
  endloop
 endfacet
 facet normal 0.0 0.0 -1.0
  outer loop
   vertex 46.80342390962629 9.5871322893124 0
   vertex 46.5335488179779 10.1167919793557 0
   vertex 69.99766217038471 16.32 0
  endloop
 endfacet
 facet normal 0.0 0.0 -1.0
  outer loop
   vertex 46.5335488179779 10.1167919793557 0
   vertex 46.113208508021195 10.537132289312401 0
   vertex 69.99766217038471 16.32 0
  endloop
 endfacet
 facet normal 0.0 0.0 -1.0
  outer loop
   vertex 46.113208508021195 10.537132289312401 0
   vertex 45.5835488179779 10.807007380960792 0
   vertex 69.99766217038471 16.32 0
  endloop
 endfacet
 facet normal 0.0 0.0 -1.0
  outer loop
   vertex 45.5835488179779 10.807007380960792 0
   vertex 44.9964165286655 10.9 0
   vertex 29.70265677232794 16.32 0
  endloop
 endfacet
 facet normal -0.0 0.0 -1.0
  outer loop
   vertex 44.9964165286655 10.9 0
   vertex 44.4092842393531 10.807007380960792 0
   vertex 29.70265677232794 16.32 0
  endloop
 endfacet
 facet normal 0.0 0.0 -1.0
  outer loop
   vertex 44.4092842393531 10.807007380960792 0
   vertex 43.8796245493098 10.537132289312401 0
   vertex 13.370656338378067 0.001 0
  endloop
 endfacet
 facet normal 0.0 0.0 -1.0
  outer loop
   vertex 43.8796245493098 10.537132289312401 0
   vertex 43.459284239353096 10.1167919793557 0
   vertex 13.370656338378067 0.001 0
  endloop
 endfacet
 facet normal 0.0 0.0 -1.0
  outer loop
   vertex 43.459284239353096 10.1167919793557 0
   vertex 43.18940914770471 9.5871322893124 0
   vertex 13.370656338378067 0.001 0
  endloop
 endfacet
 facet normal 0.0 0.0 -1.0
  outer loop
   vertex 43.18940914770471 9.5871322893124 0
   vertex 43.0964165286655 9.0 0
   vertex 13.370656338378067 0.001 0
  endloop
 endfacet
 facet normal 0.0 -0.0 -1.0
  outer loop
   vertex 43.0964165286655 9.0 0
   vertex 43.18940914770471 8.4128677106876 0
   vertex 13.370656338378067 0.001 0
  endloop
 endfacet
 facet normal 0.0 -0.0 -1.0
  outer loop
   vertex 43.18940914770471 8.4128677106876 0
   vertex 43.459284239353096 7.883208020644301 0
   vertex 13.370656338378067 0.001 0
  endloop
 endfacet
 facet normal 0.0 -0.0 -1.0
  outer loop
   vertex 43.459284239353096 7.883208020644301 0
   vertex 43.8796245493098 7.4628677106876 0
   vertex 13.370656338378067 0.001 0
  endloop
 endfacet
 facet normal 0.0 -0.0 -1.0
  outer loop
   vertex 43.8796245493098 7.4628677106876 0
   vertex 44.4092842393531 7.192992619039208 0
   vertex 13.370656338378067 0.001 0
  endloop
 endfacet
 facet normal 0.0 0.0 -1.0
  outer loop
   vertex 44.4092842393531 7.192992619039208 0
   vertex 44.9964165286655 7.1 0
   vertex 69.98466691067186 0.001 0
  endloop
 endfacet
 facet normal 0.0 0.0 -1.0
  outer loop
   vertex 44.9964165286655 7.1 0
   vertex 45.5835488179779 7.192992619039208 0
   vertex 69.98466691067186 0.001 0
  endloop
 endfacet
 facet normal 0.0 0.0 -1.0
  outer loop
   vertex 45.5835488179779 7.192992619039208 0
   vertex 46.113208508021195 7.462867710687599 0
   vertex 69.98466691067186 0.001 0
  endloop
 endfacet
 facet normal 0.0 0.0 -1.0
  outer loop
   vertex 46.113208508021195 7.462867710687599 0
   vertex 46.5335488179779 7.8832080206443 0
   vertex 69.98466691067186 0.001 0
  endloop
 endfacet
 facet normal 0.0 0.0 -1.0
  outer loop
   vertex 46.5335488179779 7.8832080206443 0
   vertex 46.80342390962629 8.4128677106876 0
   vertex 69.98466691067186 0.001 0
  endloop
 endfacet
 facet normal 0.0 1.0 0.0
  outer loop
   vertex 69.99766217038471 16.32 0
   vertex 29.70265677232794 16.32 0
   vertex 29.70265677232794 16.32 0.36
  endloop
 endfacet
 facet normal 0.0 1.0 0.0
  outer loop
   vertex 69.99766217038471 16.32 0.36
   vertex 69.99766217038471 16.32 0
   vertex 29.70265677232794 16.32 0.36
  endloop
 endfacet
 facet normal 0.9999996829318346 -0.0007963267107340551 0.0
  outer loop
   vertex 69.98466691067186 0.001 0
   vertex 69.99766217038471 16.32 0
   vertex 69.99766217038471 16.32 0.36
  endloop
 endfacet
 facet normal 0.9999996829318346 -0.0007963267107340551 0.0
  outer loop
   vertex 69.98466691067186 0.001 0.36
   vertex 69.98466691067186 0.001 0
   vertex 69.99766217038471 16.32 0.36
  endloop
 endfacet
 facet normal 0.0 -1.0 0.0
  outer loop
   vertex 13.370656338378067 0.001 0
   vertex 69.98466691067186 0.001 0
   vertex 69.98466691067186 0.001 0.36
  endloop
 endfacet
 facet normal 0.0 -1.0 0.0
  outer loop
   vertex 13.370656338378067 0.001 0.36
   vertex 13.370656338378067 0.001 0
   vertex 69.98466691067186 0.001 0.36
  endloop
 endfacet
 facet normal -0.706825181105366 0.7073882691671998 0.0
  outer loop
   vertex 29.70265677232794 16.32 0
   vertex 13.370656338378067 0.001 0
   vertex 13.370656338378067 0.001 0.36
  endloop
 endfacet
 facet normal -0.706825181105366 0.7073882691671998 0.0
  outer loop
   vertex 29.70265677232794 16.32 0.36
   vertex 29.70265677232794 16.32 0
   vertex 13.370656338378067 0.001 0.36
  endloop
 endfacet
 facet normal -0.0 0.0 1.0
  outer loop
   vertex 29.70265677232794 16.32 0.36
   vertex 45.5835488179779 10.807007380960792 0.36
   vertex 69.99766217038471 16.32 0.36
  endloop
 endfacet
 facet normal 0.0 0.0 1.0
  outer loop
   vertex 69.99766217038471 16.32 0.36
   vertex 46.8964165286655 9.0 0.36
   vertex 69.98466691067186 0.001 0.36
  endloop
 endfacet
 facet normal 0.0 0.0 1.0
  outer loop
   vertex 69.98466691067186 0.001 0.36
   vertex 44.4092842393531 7.192992619039208 0.36
   vertex 13.370656338378067 0.001 0.36
  endloop
 endfacet
 facet normal 0.0 0.0 1.0
  outer loop
   vertex 13.370656338378067 0.001 0.36
   vertex 44.4092842393531 10.807007380960792 0.36
   vertex 29.70265677232794 16.32 0.36
  endloop
 endfacet
 facet normal 0.0 -0.0 1.0
  outer loop
   vertex 46.8964165286655 9.0 0.36
   vertex 69.99766217038471 16.32 0.36
   vertex 46.80342390962629 9.5871322893124 0.36
  endloop
 endfacet
 facet normal 0.0 0.0 1.0
  outer loop
   vertex 46.8964165286655 9.0 0.36
   vertex 46.80342390962629 8.4128677106876 0.36
   vertex 69.98466691067186 0.001 0.36
  endloop
 endfacet
 facet normal 0.0 -0.0 1.0
  outer loop
   vertex 46.80342390962629 9.5871322893124 0.36
   vertex 69.99766217038471 16.32 0.36
   vertex 46.5335488179779 10.1167919793557 0.36
  endloop
 endfacet
 facet normal 0.0 -0.0 1.0
  outer loop
   vertex 46.5335488179779 10.1167919793557 0.36
   vertex 69.99766217038471 16.32 0.36
   vertex 46.113208508021195 10.537132289312401 0.36
  endloop
 endfacet
 facet normal 0.0 -0.0 1.0
  outer loop
   vertex 46.113208508021195 10.537132289312401 0.36
   vertex 69.99766217038471 16.32 0.36
   vertex 45.5835488179779 10.807007380960792 0.36
  endloop
 endfacet
 facet normal 0.0 0.0 1.0
  outer loop
   vertex 45.5835488179779 10.807007380960792 0.36
   vertex 29.70265677232794 16.32 0.36
   vertex 44.9964165286655 10.9 0.36
  endloop
 endfacet
 facet normal 0.0 0.0 1.0
  outer loop
   vertex 44.9964165286655 10.9 0.36
   vertex 29.70265677232794 16.32 0.36
   vertex 44.4092842393531 10.807007380960792 0.36
  endloop
 endfacet
 facet normal 0.0 0.0 1.0
  outer loop
   vertex 44.4092842393531 10.807007380960792 0.36
   vertex 13.370656338378067 0.001 0.36
   vertex 43.8796245493098 10.537132289312401 0.36
  endloop
 endfacet
 facet normal 0.0 0.0 1.0
  outer loop
   vertex 43.8796245493098 10.537132289312401 0.36
   vertex 13.370656338378067 0.001 0.36
   vertex 43.459284239353096 10.1167919793557 0.36
  endloop
 endfacet
 facet normal 0.0 0.0 1.0
  outer loop
   vertex 43.459284239353096 10.1167919793557 0.36
   vertex 13.370656338378067 0.001 0.36
   vertex 43.18940914770471 9.5871322893124 0.36
  endloop
 endfacet
 facet normal 0.0 0.0 1.0
  outer loop
   vertex 43.18940914770471 9.5871322893124 0.36
   vertex 13.370656338378067 0.001 0.36
   vertex 43.0964165286655 9.0 0.36
  endloop
 endfacet
 facet normal 0.0 0.0 1.0
  outer loop
   vertex 43.0964165286655 9.0 0.36
   vertex 13.370656338378067 0.001 0.36
   vertex 43.18940914770471 8.4128677106876 0.36
  endloop
 endfacet
 facet normal 0.0 0.0 1.0
  outer loop
   vertex 43.18940914770471 8.4128677106876 0.36
   vertex 13.370656338378067 0.001 0.36
   vertex 43.459284239353096 7.883208020644301 0.36
  endloop
 endfacet
 facet normal 0.0 0.0 1.0
  outer loop
   vertex 43.459284239353096 7.883208020644301 0.36
   vertex 13.370656338378067 0.001 0.36
   vertex 43.8796245493098 7.4628677106876 0.36
  endloop
 endfacet
 facet normal 0.0 0.0 1.0
  outer loop
   vertex 43.8796245493098 7.4628677106876 0.36
   vertex 13.370656338378067 0.001 0.36
   vertex 44.4092842393531 7.192992619039208 0.36
  endloop
 endfacet
 facet normal 0.0 0.0 1.0
  outer loop
   vertex 44.4092842393531 7.192992619039208 0.36
   vertex 69.98466691067186 0.001 0.36
   vertex 44.9964165286655 7.1 0.36
  endloop
 endfacet
 facet normal -0.0 0.0 1.0
  outer loop
   vertex 44.9964165286655 7.1 0.36
   vertex 69.98466691067186 0.001 0.36
   vertex 45.5835488179779 7.192992619039208 0.36
  endloop
 endfacet
 facet normal -0.0 0.0 1.0
  outer loop
   vertex 45.5835488179779 7.192992619039208 0.36
   vertex 69.98466691067186 0.001 0.36
   vertex 46.113208508021195 7.462867710687599 0.36
  endloop
 endfacet
 facet normal -0.0 0.0 1.0
  outer loop
   vertex 46.113208508021195 7.462867710687599 0.36
   vertex 69.98466691067186 0.001 0.36
   vertex 46.5335488179779 7.8832080206443 0.36
  endloop
 endfacet
 facet normal -0.0 0.0 1.0
  outer loop
   vertex 46.5335488179779 7.8832080206443 0.36
   vertex 69.98466691067186 0.001 0.36
   vertex 46.80342390962629 8.4128677106876 0.36
  endloop
 endfacet
 facet normal -0.9876883405951378 -0.15643446504023065 0.0
  outer loop
   vertex 46.8964165286655 9.0 0
   vertex 46.8964165286655 9.0 0.36
   vertex 46.80342390962629 9.5871322893124 0
  endloop
 endfacet
 facet normal -0.9876883405951378 -0.15643446504023065 0.0
  outer loop
   vertex 46.80342390962629 9.5871322893124 0
   vertex 46.8964165286655 9.0 0.36
   vertex 46.80342390962629 9.5871322893124 0.36
  endloop
 endfacet
 facet normal -0.891006524188371 -0.45399049973954064 0.0
  outer loop
   vertex 46.80342390962629 9.5871322893124 0
   vertex 46.80342390962629 9.5871322893124 0.36
   vertex 46.5335488179779 10.1167919793557 0
  endloop
 endfacet
 facet normal -0.891006524188371 -0.45399049973954064 0.0
  outer loop
   vertex 46.5335488179779 10.1167919793557 0
   vertex 46.80342390962629 9.5871322893124 0.36
   vertex 46.5335488179779 10.1167919793557 0.36
  endloop
 endfacet
 facet normal -0.707106781186543 -0.7071067811865519 0.0
  outer loop
   vertex 46.5335488179779 10.1167919793557 0
   vertex 46.5335488179779 10.1167919793557 0.36
   vertex 46.113208508021195 10.537132289312401 0
  endloop
 endfacet
 facet normal -0.707106781186543 -0.7071067811865519 0.0
  outer loop
   vertex 46.113208508021195 10.537132289312401 0
   vertex 46.5335488179779 10.1167919793557 0.36
   vertex 46.113208508021195 10.537132289312401 0.36
  endloop
 endfacet
 facet normal -0.4539904997395478 -0.8910065241883675 0.0
  outer loop
   vertex 46.113208508021195 10.537132289312401 0
   vertex 46.113208508021195 10.537132289312401 0.36
   vertex 45.5835488179779 10.807007380960792 0
  endloop
 endfacet
 facet normal -0.4539904997395478 -0.8910065241883675 0.0
  outer loop
   vertex 45.5835488179779 10.807007380960792 0
   vertex 46.113208508021195 10.537132289312401 0.36
   vertex 45.5835488179779 10.807007380960792 0.36
  endloop
 endfacet
 facet normal -0.15643446504023065 -0.9876883405951378 0.0
  outer loop
   vertex 45.5835488179779 10.807007380960792 0
   vertex 45.5835488179779 10.807007380960792 0.36
   vertex 44.9964165286655 10.9 0
  endloop
 endfacet
 facet normal -0.15643446504023065 -0.9876883405951378 0.0
  outer loop
   vertex 44.9964165286655 10.9 0
   vertex 45.5835488179779 10.807007380960792 0.36
   vertex 44.9964165286655 10.9 0.36
  endloop
 endfacet
 facet normal 0.15643446504023065 -0.9876883405951378 0.0
  outer loop
   vertex 44.9964165286655 10.9 0
   vertex 44.9964165286655 10.9 0.36
   vertex 44.4092842393531 10.807007380960792 0
  endloop
 endfacet
 facet normal 0.15643446504023065 -0.9876883405951378 0.0
  outer loop
   vertex 44.4092842393531 10.807007380960792 0
   vertex 44.9964165286655 10.9 0.36
   vertex 44.4092842393531 10.807007380960792 0.36
  endloop
 endfacet
 facet normal 0.4539904997395478 -0.8910065241883675 0.0
  outer loop
   vertex 44.4092842393531 10.807007380960792 0
   vertex 44.4092842393531 10.807007380960792 0.36
   vertex 43.8796245493098 10.537132289312401 0
  endloop
 endfacet
 facet normal 0.4539904997395478 -0.8910065241883675 0.0
  outer loop
   vertex 43.8796245493098 10.537132289312401 0
   vertex 44.4092842393531 10.807007380960792 0.36
   vertex 43.8796245493098 10.537132289312401 0.36
  endloop
 endfacet
 facet normal 0.707106781186543 -0.7071067811865519 0.0
  outer loop
   vertex 43.8796245493098 10.537132289312401 0
   vertex 43.8796245493098 10.537132289312401 0.36
   vertex 43.459284239353096 10.1167919793557 0
  endloop
 endfacet
 facet normal 0.707106781186543 -0.7071067811865519 0.0
  outer loop
   vertex 43.459284239353096 10.1167919793557 0
   vertex 43.8796245493098 10.537132289312401 0.36
   vertex 43.459284239353096 10.1167919793557 0.36
  endloop
 endfacet
 facet normal 0.891006524188371 -0.45399049973954064 0.0
  outer loop
   vertex 43.459284239353096 10.1167919793557 0
   vertex 43.459284239353096 10.1167919793557 0.36
   vertex 43.18940914770471 9.5871322893124 0
  endloop
 endfacet
 facet normal 0.891006524188371 -0.45399049973954064 0.0
  outer loop
   vertex 43.18940914770471 9.5871322893124 0
   vertex 43.459284239353096 10.1167919793557 0.36
   vertex 43.18940914770471 9.5871322893124 0.36
  endloop
 endfacet
 facet normal 0.9876883405951378 -0.15643446504023065 0.0
  outer loop
   vertex 43.18940914770471 9.5871322893124 0
   vertex 43.18940914770471 9.5871322893124 0.36
   vertex 43.0964165286655 9.0 0
  endloop
 endfacet
 facet normal 0.9876883405951378 -0.15643446504023065 0.0
  outer loop
   vertex 43.0964165286655 9.0 0
   vertex 43.18940914770471 9.5871322893124 0.36
   vertex 43.0964165286655 9.0 0.36
  endloop
 endfacet
 facet normal 0.9876883405951378 0.15643446504023065 -0.0
  outer loop
   vertex 43.0964165286655 9.0 0
   vertex 43.0964165286655 9.0 0.36
   vertex 43.18940914770471 8.4128677106876 0
  endloop
 endfacet
 facet normal 0.9876883405951378 0.15643446504023065 -0.0
  outer loop
   vertex 43.18940914770471 8.4128677106876 0
   vertex 43.0964165286655 9.0 0.36
   vertex 43.18940914770471 8.4128677106876 0.36
  endloop
 endfacet
 facet normal 0.8910065241883707 0.4539904997395412 -0.0
  outer loop
   vertex 43.18940914770471 8.4128677106876 0
   vertex 43.18940914770471 8.4128677106876 0.36
   vertex 43.459284239353096 7.883208020644301 0
  endloop
 endfacet
 facet normal 0.8910065241883707 0.4539904997395412 -0.0
  outer loop
   vertex 43.459284239353096 7.883208020644301 0
   vertex 43.18940914770471 8.4128677106876 0.36
   vertex 43.459284239353096 7.883208020644301 0.36
  endloop
 endfacet
 facet normal 0.707106781186543 0.7071067811865519 -0.0
  outer loop
   vertex 43.459284239353096 7.883208020644301 0
   vertex 43.459284239353096 7.883208020644301 0.36
   vertex 43.8796245493098 7.4628677106876 0
  endloop
 endfacet
 facet normal 0.707106781186543 0.7071067811865519 -0.0
  outer loop
   vertex 43.8796245493098 7.4628677106876 0
   vertex 43.459284239353096 7.883208020644301 0.36
   vertex 43.8796245493098 7.4628677106876 0.36
  endloop
 endfacet
 facet normal 0.45399049973954897 0.8910065241883667 -0.0
  outer loop
   vertex 43.8796245493098 7.4628677106876 0
   vertex 43.8796245493098 7.4628677106876 0.36
   vertex 44.4092842393531 7.192992619039208 0
  endloop
 endfacet
 facet normal 0.45399049973954897 0.8910065241883667 -0.0
  outer loop
   vertex 44.4092842393531 7.192992619039208 0
   vertex 43.8796245493098 7.4628677106876 0.36
   vertex 44.4092842393531 7.192992619039208 0.36
  endloop
 endfacet
 facet normal 0.15643446504023065 0.9876883405951378 -0.0
  outer loop
   vertex 44.4092842393531 7.192992619039208 0
   vertex 44.4092842393531 7.192992619039208 0.36
   vertex 44.9964165286655 7.1 0
  endloop
 endfacet
 facet normal 0.15643446504023065 0.9876883405951378 -0.0
  outer loop
   vertex 44.9964165286655 7.1 0
   vertex 44.4092842393531 7.192992619039208 0.36
   vertex 44.9964165286655 7.1 0.36
  endloop
 endfacet
 facet normal -0.15643446504023065 0.9876883405951378 0.0
  outer loop
   vertex 44.9964165286655 7.1 0
   vertex 44.9964165286655 7.1 0.36
   vertex 45.5835488179779 7.192992619039208 0
  endloop
 endfacet
 facet normal -0.15643446504023065 0.9876883405951378 0.0
  outer loop
   vertex 45.5835488179779 7.192992619039208 0
   vertex 44.9964165286655 7.1 0.36
   vertex 45.5835488179779 7.192992619039208 0.36
  endloop
 endfacet
 facet normal -0.4539904997395478 0.8910065241883675 0.0
  outer loop
   vertex 45.5835488179779 7.192992619039208 0
   vertex 45.5835488179779 7.192992619039208 0.36
   vertex 46.113208508021195 7.462867710687599 0
  endloop
 endfacet
 facet normal -0.4539904997395478 0.8910065241883675 0.0
  outer loop
   vertex 46.113208508021195 7.462867710687599 0
   vertex 45.5835488179779 7.192992619039208 0.36
   vertex 46.113208508021195 7.462867710687599 0.36
  endloop
 endfacet
 facet normal -0.707106781186543 0.7071067811865519 0.0
  outer loop
   vertex 46.113208508021195 7.462867710687599 0
   vertex 46.113208508021195 7.462867710687599 0.36
   vertex 46.5335488179779 7.8832080206443 0
  endloop
 endfacet
 facet normal -0.707106781186543 0.7071067811865519 0.0
  outer loop
   vertex 46.5335488179779 7.8832080206443 0
   vertex 46.113208508021195 7.462867710687599 0.36
   vertex 46.5335488179779 7.8832080206443 0.36
  endloop
 endfacet
 facet normal -0.891006524188371 0.45399049973954064 0.0
  outer loop
   vertex 46.5335488179779 7.8832080206443 0
   vertex 46.5335488179779 7.8832080206443 0.36
   vertex 46.80342390962629 8.4128677106876 0
  endloop
 endfacet
 facet normal -0.891006524188371 0.45399049973954064 0.0
  outer loop
   vertex 46.80342390962629 8.4128677106876 0
   vertex 46.5335488179779 7.8832080206443 0.36
   vertex 46.80342390962629 8.4128677106876 0.36
  endloop
 endfacet
 facet normal -0.9876883405951378 0.15643446504023065 0.0
  outer loop
   vertex 46.80342390962629 8.4128677106876 0
   vertex 46.80342390962629 8.4128677106876 0.36
   vertex 46.8964165286655 9.0 0
  endloop
 endfacet
 facet normal -0.9876883405951378 0.15643446504023065 0.0
  outer loop
   vertex 46.8964165286655 9.0 0
   vertex 46.80342390962629 8.4128677106876 0.36
   vertex 46.8964165286655 9.0 0.36
  endloop
 endfacet
 facet normal 0.0 0.0 -1.0
  outer loop
   vertex 69.99766217038471 19.68 0
   vertex 29.70265677232795 19.68 0
   vertex 44.40928423935309 25.19299261903921 0
  endloop
 endfacet
 facet normal 0.0 0.0 -1.0
  outer loop
   vertex 29.70265677232795 19.68 0
   vertex 13.37065633837807 35.999 0
   vertex 43.879624549309796 28.5371322893124 0
  endloop
 endfacet
 facet normal 0.0 0.0 -1.0
  outer loop
   vertex 13.37065633837807 35.999 0
   vertex 69.98466691067186 35.999 0
   vertex 45.58354881797789 28.80700738096079 0
  endloop
 endfacet
 facet normal 0.0 -0.0 -1.0
  outer loop
   vertex 69.98466691067186 35.999 0
   vertex 69.99766217038471 19.68 0
   vertex 46.89641652866549 27.0 0
  endloop
 endfacet
 facet normal 0.0 -0.0 -1.0
  outer loop
   vertex 46.89641652866549 27.0 0
   vertex 69.99766217038471 19.68 0
   vertex 46.80342390962628 26.4128677106876 0
  endloop
 endfacet
 facet normal 0.0 0.0 -1.0
  outer loop
   vertex 46.89641652866549 27.0 0
   vertex 46.80342390962628 27.5871322893124 0
   vertex 69.98466691067186 35.999 0
  endloop
 endfacet
 facet normal 0.0 0.0 -1.0
  outer loop
   vertex 46.80342390962628 27.5871322893124 0
   vertex 46.533548817977895 28.1167919793557 0
   vertex 69.98466691067186 35.999 0
  endloop
 endfacet
 facet normal 0.0 0.0 -1.0
  outer loop
   vertex 46.533548817977895 28.1167919793557 0
   vertex 46.11320850802119 28.5371322893124 0
   vertex 69.98466691067186 35.999 0
  endloop
 endfacet
 facet normal 0.0 0.0 -1.0
  outer loop
   vertex 46.11320850802119 28.5371322893124 0
   vertex 45.58354881797789 28.80700738096079 0
   vertex 69.98466691067186 35.999 0
  endloop
 endfacet
 facet normal 0.0 0.0 -1.0
  outer loop
   vertex 45.58354881797789 28.80700738096079 0
   vertex 44.99641652866549 28.900000000000002 0
   vertex 13.37065633837807 35.999 0
  endloop
 endfacet
 facet normal -0.0 0.0 -1.0
  outer loop
   vertex 44.99641652866549 28.900000000000002 0
   vertex 44.40928423935309 28.807007380960794 0
   vertex 13.37065633837807 35.999 0
  endloop
 endfacet
 facet normal -0.0 0.0 -1.0
  outer loop
   vertex 44.40928423935309 28.807007380960794 0
   vertex 43.879624549309796 28.5371322893124 0
   vertex 13.37065633837807 35.999 0
  endloop
 endfacet
 facet normal 0.0 0.0 -1.0
  outer loop
   vertex 43.879624549309796 28.5371322893124 0
   vertex 43.45928423935309 28.1167919793557 0
   vertex 29.70265677232795 19.68 0
  endloop
 endfacet
 facet normal 0.0 0.0 -1.0
  outer loop
   vertex 43.45928423935309 28.1167919793557 0
   vertex 43.1894091477047 27.5871322893124 0
   vertex 29.70265677232795 19.68 0
  endloop
 endfacet
 facet normal 0.0 0.0 -1.0
  outer loop
   vertex 43.1894091477047 27.5871322893124 0
   vertex 43.09641652866549 27.0 0
   vertex 29.70265677232795 19.68 0
  endloop
 endfacet
 facet normal 0.0 -0.0 -1.0
  outer loop
   vertex 43.09641652866549 27.0 0
   vertex 43.1894091477047 26.4128677106876 0
   vertex 29.70265677232795 19.68 0
  endloop
 endfacet
 facet normal 0.0 -0.0 -1.0
  outer loop
   vertex 43.1894091477047 26.4128677106876 0
   vertex 43.45928423935309 25.8832080206443 0
   vertex 29.70265677232795 19.68 0
  endloop
 endfacet
 facet normal 0.0 -0.0 -1.0
  outer loop
   vertex 43.45928423935309 25.8832080206443 0
   vertex 43.879624549309796 25.4628677106876 0
   vertex 29.70265677232795 19.68 0
  endloop
 endfacet
 facet normal 0.0 -0.0 -1.0
  outer loop
   vertex 43.879624549309796 25.4628677106876 0
   vertex 44.40928423935309 25.19299261903921 0
   vertex 29.70265677232795 19.68 0
  endloop
 endfacet
 facet normal 0.0 0.0 -1.0
  outer loop
   vertex 44.40928423935309 25.19299261903921 0
   vertex 44.99641652866549 25.099999999999998 0
   vertex 69.99766217038471 19.68 0
  endloop
 endfacet
 facet normal 0.0 0.0 -1.0
  outer loop
   vertex 44.99641652866549 25.099999999999998 0
   vertex 45.58354881797789 25.192992619039206 0
   vertex 69.99766217038471 19.68 0
  endloop
 endfacet
 facet normal 0.0 0.0 -1.0
  outer loop
   vertex 45.58354881797789 25.192992619039206 0
   vertex 46.11320850802119 25.4628677106876 0
   vertex 69.99766217038471 19.68 0
  endloop
 endfacet
 facet normal 0.0 0.0 -1.0
  outer loop
   vertex 46.11320850802119 25.4628677106876 0
   vertex 46.533548817977895 25.8832080206443 0
   vertex 69.99766217038471 19.68 0
  endloop
 endfacet
 facet normal 0.0 0.0 -1.0
  outer loop
   vertex 46.533548817977895 25.8832080206443 0
   vertex 46.80342390962628 26.4128677106876 0
   vertex 69.99766217038471 19.68 0
  endloop
 endfacet
 facet normal 0.0 -1.0 0.0
  outer loop
   vertex 29.70265677232795 19.68 0
   vertex 69.99766217038471 19.68 0
   vertex 69.99766217038471 19.68 0.36
  endloop
 endfacet
 facet normal 0.0 -1.0 0.0
  outer loop
   vertex 29.70265677232795 19.68 0.36
   vertex 29.70265677232795 19.68 0
   vertex 69.99766217038471 19.68 0.36
  endloop
 endfacet
 facet normal -0.7068251811053657 -0.7073882691671999 0.0
  outer loop
   vertex 13.37065633837807 35.999 0
   vertex 29.70265677232795 19.68 0
   vertex 29.70265677232795 19.68 0.36
  endloop
 endfacet
 facet normal -0.7068251811053657 -0.7073882691671999 -0.0
  outer loop
   vertex 13.37065633837807 35.999 0.36
   vertex 13.37065633837807 35.999 0
   vertex 29.70265677232795 19.68 0.36
  endloop
 endfacet
 facet normal 0.0 1.0 0.0
  outer loop
   vertex 69.98466691067186 35.999 0
   vertex 13.37065633837807 35.999 0
   vertex 13.37065633837807 35.999 0.36
  endloop
 endfacet
 facet normal 0.0 1.0 0.0
  outer loop
   vertex 69.98466691067186 35.999 0.36
   vertex 69.98466691067186 35.999 0
   vertex 13.37065633837807 35.999 0.36
  endloop
 endfacet
 facet normal 0.9999996829318346 0.000796326710734055 0.0
  outer loop
   vertex 69.99766217038471 19.68 0
   vertex 69.98466691067186 35.999 0
   vertex 69.98466691067186 35.999 0.36
  endloop
 endfacet
 facet normal 0.9999996829318346 0.000796326710734055 0.0
  outer loop
   vertex 69.99766217038471 19.68 0.36
   vertex 69.99766217038471 19.68 0
   vertex 69.98466691067186 35.999 0.36
  endloop
 endfacet
 facet normal 0.0 0.0 1.0
  outer loop
   vertex 69.99766217038471 19.68 0.36
   vertex 44.40928423935309 25.19299261903921 0.36
   vertex 29.70265677232795 19.68 0.36
  endloop
 endfacet
 facet normal 0.0 -0.0 1.0
  outer loop
   vertex 29.70265677232795 19.68 0.36
   vertex 43.879624549309796 28.5371322893124 0.36
   vertex 13.37065633837807 35.999 0.36
  endloop
 endfacet
 facet normal -0.0 0.0 1.0
  outer loop
   vertex 13.37065633837807 35.999 0.36
   vertex 45.58354881797789 28.80700738096079 0.36
   vertex 69.98466691067186 35.999 0.36
  endloop
 endfacet
 facet normal 0.0 0.0 1.0
  outer loop
   vertex 69.98466691067186 35.999 0.36
   vertex 46.89641652866549 27.0 0.36
   vertex 69.99766217038471 19.68 0.36
  endloop
 endfacet
 facet normal 0.0 0.0 1.0
  outer loop
   vertex 46.89641652866549 27.0 0.36
   vertex 46.80342390962628 26.4128677106876 0.36
   vertex 69.99766217038471 19.68 0.36
  endloop
 endfacet
 facet normal 0.0 -0.0 1.0
  outer loop
   vertex 46.89641652866549 27.0 0.36
   vertex 69.98466691067186 35.999 0.36
   vertex 46.80342390962628 27.5871322893124 0.36
  endloop
 endfacet
 facet normal 0.0 -0.0 1.0
  outer loop
   vertex 46.80342390962628 27.5871322893124 0.36
   vertex 69.98466691067186 35.999 0.36
   vertex 46.533548817977895 28.1167919793557 0.36
  endloop
 endfacet
 facet normal 0.0 -0.0 1.0
  outer loop
   vertex 46.533548817977895 28.1167919793557 0.36
   vertex 69.98466691067186 35.999 0.36
   vertex 46.11320850802119 28.5371322893124 0.36
  endloop
 endfacet
 facet normal 0.0 -0.0 1.0
  outer loop
   vertex 46.11320850802119 28.5371322893124 0.36
   vertex 69.98466691067186 35.999 0.36
   vertex 45.58354881797789 28.80700738096079 0.36
  endloop
 endfacet
 facet normal 0.0 0.0 1.0
  outer loop
   vertex 45.58354881797789 28.80700738096079 0.36
   vertex 13.37065633837807 35.999 0.36
   vertex 44.99641652866549 28.900000000000002 0.36
  endloop
 endfacet
 facet normal 0.0 0.0 1.0
  outer loop
   vertex 44.99641652866549 28.900000000000002 0.36
   vertex 13.37065633837807 35.999 0.36
   vertex 44.40928423935309 28.807007380960794 0.36
  endloop
 endfacet
 facet normal 0.0 0.0 1.0
  outer loop
   vertex 44.40928423935309 28.807007380960794 0.36
   vertex 13.37065633837807 35.999 0.36
   vertex 43.879624549309796 28.5371322893124 0.36
  endloop
 endfacet
 facet normal 0.0 0.0 1.0
  outer loop
   vertex 43.879624549309796 28.5371322893124 0.36
   vertex 29.70265677232795 19.68 0.36
   vertex 43.45928423935309 28.1167919793557 0.36
  endloop
 endfacet
 facet normal 0.0 0.0 1.0
  outer loop
   vertex 43.45928423935309 28.1167919793557 0.36
   vertex 29.70265677232795 19.68 0.36
   vertex 43.1894091477047 27.5871322893124 0.36
  endloop
 endfacet
 facet normal 0.0 0.0 1.0
  outer loop
   vertex 43.1894091477047 27.5871322893124 0.36
   vertex 29.70265677232795 19.68 0.36
   vertex 43.09641652866549 27.0 0.36
  endloop
 endfacet
 facet normal 0.0 0.0 1.0
  outer loop
   vertex 43.09641652866549 27.0 0.36
   vertex 29.70265677232795 19.68 0.36
   vertex 43.1894091477047 26.4128677106876 0.36
  endloop
 endfacet
 facet normal 0.0 0.0 1.0
  outer loop
   vertex 43.1894091477047 26.4128677106876 0.36
   vertex 29.70265677232795 19.68 0.36
   vertex 43.45928423935309 25.8832080206443 0.36
  endloop
 endfacet
 facet normal 0.0 0.0 1.0
  outer loop
   vertex 43.45928423935309 25.8832080206443 0.36
   vertex 29.70265677232795 19.68 0.36
   vertex 43.879624549309796 25.4628677106876 0.36
  endloop
 endfacet
 facet normal 0.0 0.0 1.0
  outer loop
   vertex 43.879624549309796 25.4628677106876 0.36
   vertex 29.70265677232795 19.68 0.36
   vertex 44.40928423935309 25.19299261903921 0.36
  endloop
 endfacet
 facet normal 0.0 0.0 1.0
  outer loop
   vertex 44.40928423935309 25.19299261903921 0.36
   vertex 69.99766217038471 19.68 0.36
   vertex 44.99641652866549 25.099999999999998 0.36
  endloop
 endfacet
 facet normal -0.0 0.0 1.0
  outer loop
   vertex 44.99641652866549 25.099999999999998 0.36
   vertex 69.99766217038471 19.68 0.36
   vertex 45.58354881797789 25.192992619039206 0.36
  endloop
 endfacet
 facet normal -0.0 0.0 1.0
  outer loop
   vertex 45.58354881797789 25.192992619039206 0.36
   vertex 69.99766217038471 19.68 0.36
   vertex 46.11320850802119 25.4628677106876 0.36
  endloop
 endfacet
 facet normal -0.0 0.0 1.0
  outer loop
   vertex 46.11320850802119 25.4628677106876 0.36
   vertex 69.99766217038471 19.68 0.36
   vertex 46.533548817977895 25.8832080206443 0.36
  endloop
 endfacet
 facet normal -0.0 0.0 1.0
  outer loop
   vertex 46.533548817977895 25.8832080206443 0.36
   vertex 69.99766217038471 19.68 0.36
   vertex 46.80342390962628 26.4128677106876 0.36
  endloop
 endfacet
 facet normal -0.9876883405951378 -0.15643446504023065 0.0
  outer loop
   vertex 46.89641652866549 27.0 0
   vertex 46.89641652866549 27.0 0.36
   vertex 46.80342390962628 27.5871322893124 0
  endloop
 endfacet
 facet normal -0.9876883405951378 -0.15643446504023065 0.0
  outer loop
   vertex 46.80342390962628 27.5871322893124 0
   vertex 46.89641652866549 27.0 0.36
   vertex 46.80342390962628 27.5871322893124 0.36
  endloop
 endfacet
 facet normal -0.891006524188371 -0.45399049973954064 0.0
  outer loop
   vertex 46.80342390962628 27.5871322893124 0
   vertex 46.80342390962628 27.5871322893124 0.36
   vertex 46.533548817977895 28.1167919793557 0
  endloop
 endfacet
 facet normal -0.891006524188371 -0.45399049973954064 0.0
  outer loop
   vertex 46.533548817977895 28.1167919793557 0
   vertex 46.80342390962628 27.5871322893124 0.36
   vertex 46.533548817977895 28.1167919793557 0.36
  endloop
 endfacet
 facet normal -0.7071067811865416 -0.7071067811865535 0.0
  outer loop
   vertex 46.533548817977895 28.1167919793557 0
   vertex 46.533548817977895 28.1167919793557 0.36
   vertex 46.11320850802119 28.5371322893124 0
  endloop
 endfacet
 facet normal -0.7071067811865416 -0.7071067811865535 0.0
  outer loop
   vertex 46.11320850802119 28.5371322893124 0
   vertex 46.533548817977895 28.1167919793557 0.36
   vertex 46.11320850802119 28.5371322893124 0.36
  endloop
 endfacet
 facet normal -0.4539904997395478 -0.8910065241883675 0.0
  outer loop
   vertex 46.11320850802119 28.5371322893124 0
   vertex 46.11320850802119 28.5371322893124 0.36
   vertex 45.58354881797789 28.80700738096079 0
  endloop
 endfacet
 facet normal -0.4539904997395478 -0.8910065241883675 0.0
  outer loop
   vertex 45.58354881797789 28.80700738096079 0
   vertex 46.11320850802119 28.5371322893124 0.36
   vertex 45.58354881797789 28.80700738096079 0.36
  endloop
 endfacet
 facet normal -0.15643446504023645 -0.9876883405951369 0.0
  outer loop
   vertex 45.58354881797789 28.80700738096079 0
   vertex 45.58354881797789 28.80700738096079 0.36
   vertex 44.99641652866549 28.900000000000002 0
  endloop
 endfacet
 facet normal -0.15643446504023645 -0.9876883405951369 0.0
  outer loop
   vertex 44.99641652866549 28.900000000000002 0
   vertex 45.58354881797789 28.80700738096079 0.36
   vertex 44.99641652866549 28.900000000000002 0.36
  endloop
 endfacet
 facet normal 0.15643446504023065 -0.9876883405951378 0.0
  outer loop
   vertex 44.99641652866549 28.900000000000002 0
   vertex 44.99641652866549 28.900000000000002 0.36
   vertex 44.40928423935309 28.807007380960794 0
  endloop
 endfacet
 facet normal 0.15643446504023065 -0.9876883405951378 0.0
  outer loop
   vertex 44.40928423935309 28.807007380960794 0
   vertex 44.99641652866549 28.900000000000002 0.36
   vertex 44.40928423935309 28.807007380960794 0.36
  endloop
 endfacet
 facet normal 0.4539904997395526 -0.891006524188365 0.0
  outer loop
   vertex 44.40928423935309 28.807007380960794 0
   vertex 44.40928423935309 28.807007380960794 0.36
   vertex 43.879624549309796 28.5371322893124 0
  endloop
 endfacet
 facet normal 0.4539904997395526 -0.891006524188365 0.0
  outer loop
   vertex 43.879624549309796 28.5371322893124 0
   vertex 44.40928423935309 28.807007380960794 0.36
   vertex 43.879624549309796 28.5371322893124 0.36
  endloop
 endfacet
 facet normal 0.7071067811865416 -0.7071067811865535 0.0
  outer loop
   vertex 43.879624549309796 28.5371322893124 0
   vertex 43.879624549309796 28.5371322893124 0.36
   vertex 43.45928423935309 28.1167919793557 0
  endloop
 endfacet
 facet normal 0.7071067811865416 -0.7071067811865535 0.0
  outer loop
   vertex 43.45928423935309 28.1167919793557 0
   vertex 43.879624549309796 28.5371322893124 0.36
   vertex 43.45928423935309 28.1167919793557 0.36
  endloop
 endfacet
 facet normal 0.891006524188371 -0.45399049973954064 0.0
  outer loop
   vertex 43.45928423935309 28.1167919793557 0
   vertex 43.45928423935309 28.1167919793557 0.36
   vertex 43.1894091477047 27.5871322893124 0
  endloop
 endfacet
 facet normal 0.891006524188371 -0.45399049973954064 0.0
  outer loop
   vertex 43.1894091477047 27.5871322893124 0
   vertex 43.45928423935309 28.1167919793557 0.36
   vertex 43.1894091477047 27.5871322893124 0.36
  endloop
 endfacet
 facet normal 0.9876883405951378 -0.15643446504023065 0.0
  outer loop
   vertex 43.1894091477047 27.5871322893124 0
   vertex 43.1894091477047 27.5871322893124 0.36
   vertex 43.09641652866549 27.0 0
  endloop
 endfacet
 facet normal 0.9876883405951378 -0.15643446504023065 0.0
  outer loop
   vertex 43.09641652866549 27.0 0
   vertex 43.1894091477047 27.5871322893124 0.36
   vertex 43.09641652866549 27.0 0.36
  endloop
 endfacet
 facet normal 0.9876883405951378 0.15643446504023065 -0.0
  outer loop
   vertex 43.09641652866549 27.0 0
   vertex 43.09641652866549 27.0 0.36
   vertex 43.1894091477047 26.4128677106876 0
  endloop
 endfacet
 facet normal 0.9876883405951378 0.15643446504023065 -0.0
  outer loop
   vertex 43.1894091477047 26.4128677106876 0
   vertex 43.09641652866549 27.0 0.36
   vertex 43.1894091477047 26.4128677106876 0.36
  endloop
 endfacet
 facet normal 0.891006524188371 0.45399049973954064 -0.0
  outer loop
   vertex 43.1894091477047 26.4128677106876 0
   vertex 43.1894091477047 26.4128677106876 0.36
   vertex 43.45928423935309 25.8832080206443 0
  endloop
 endfacet
 facet normal 0.891006524188371 0.45399049973954064 -0.0
  outer loop
   vertex 43.45928423935309 25.8832080206443 0
   vertex 43.1894091477047 26.4128677106876 0.36
   vertex 43.45928423935309 25.8832080206443 0.36
  endloop
 endfacet
 facet normal 0.7071067811865416 0.7071067811865535 -0.0
  outer loop
   vertex 43.45928423935309 25.8832080206443 0
   vertex 43.45928423935309 25.8832080206443 0.36
   vertex 43.879624549309796 25.4628677106876 0
  endloop
 endfacet
 facet normal 0.7071067811865416 0.7071067811865535 -0.0
  outer loop
   vertex 43.879624549309796 25.4628677106876 0
   vertex 43.45928423935309 25.8832080206443 0.36
   vertex 43.879624549309796 25.4628677106876 0.36
  endloop
 endfacet
 facet normal 0.4539904997395478 0.8910065241883675 -0.0
  outer loop
   vertex 43.879624549309796 25.4628677106876 0
   vertex 43.879624549309796 25.4628677106876 0.36
   vertex 44.40928423935309 25.19299261903921 0
  endloop
 endfacet
 facet normal 0.4539904997395478 0.8910065241883675 -0.0
  outer loop
   vertex 44.40928423935309 25.19299261903921 0
   vertex 43.879624549309796 25.4628677106876 0.36
   vertex 44.40928423935309 25.19299261903921 0.36
  endloop
 endfacet
 facet normal 0.15643446504023645 0.9876883405951369 -0.0
  outer loop
   vertex 44.40928423935309 25.19299261903921 0
   vertex 44.40928423935309 25.19299261903921 0.36
   vertex 44.99641652866549 25.099999999999998 0
  endloop
 endfacet
 facet normal 0.15643446504023645 0.9876883405951369 -0.0
  outer loop
   vertex 44.99641652866549 25.099999999999998 0
   vertex 44.40928423935309 25.19299261903921 0.36
   vertex 44.99641652866549 25.099999999999998 0.36
  endloop
 endfacet
 facet normal -0.15643446504023065 0.9876883405951378 0.0
  outer loop
   vertex 44.99641652866549 25.099999999999998 0
   vertex 44.99641652866549 25.099999999999998 0.36
   vertex 45.58354881797789 25.192992619039206 0
  endloop
 endfacet
 facet normal -0.15643446504023065 0.9876883405951378 0.0
  outer loop
   vertex 45.58354881797789 25.192992619039206 0
   vertex 44.99641652866549 25.099999999999998 0.36
   vertex 45.58354881797789 25.192992619039206 0.36
  endloop
 endfacet
 facet normal -0.4539904997395526 0.891006524188365 0.0
  outer loop
   vertex 45.58354881797789 25.192992619039206 0
   vertex 45.58354881797789 25.192992619039206 0.36
   vertex 46.11320850802119 25.4628677106876 0
  endloop
 endfacet
 facet normal -0.4539904997395526 0.891006524188365 0.0
  outer loop
   vertex 46.11320850802119 25.4628677106876 0
   vertex 45.58354881797789 25.192992619039206 0.36
   vertex 46.11320850802119 25.4628677106876 0.36
  endloop
 endfacet
 facet normal -0.7071067811865416 0.7071067811865535 0.0
  outer loop
   vertex 46.11320850802119 25.4628677106876 0
   vertex 46.11320850802119 25.4628677106876 0.36
   vertex 46.533548817977895 25.8832080206443 0
  endloop
 endfacet
 facet normal -0.7071067811865416 0.7071067811865535 0.0
  outer loop
   vertex 46.533548817977895 25.8832080206443 0
   vertex 46.11320850802119 25.4628677106876 0.36
   vertex 46.533548817977895 25.8832080206443 0.36
  endloop
 endfacet
 facet normal -0.891006524188371 0.45399049973954064 0.0
  outer loop
   vertex 46.533548817977895 25.8832080206443 0
   vertex 46.533548817977895 25.8832080206443 0.36
   vertex 46.80342390962628 26.4128677106876 0
  endloop
 endfacet
 facet normal -0.891006524188371 0.45399049973954064 0.0
  outer loop
   vertex 46.80342390962628 26.4128677106876 0
   vertex 46.533548817977895 25.8832080206443 0.36
   vertex 46.80342390962628 26.4128677106876 0.36
  endloop
 endfacet
 facet normal -0.9876883405951378 0.15643446504023065 0.0
  outer loop
   vertex 46.80342390962628 26.4128677106876 0
   vertex 46.80342390962628 26.4128677106876 0.36
   vertex 46.89641652866549 27.0 0
  endloop
 endfacet
 facet normal -0.9876883405951378 0.15643446504023065 0.0
  outer loop
   vertex 46.89641652866549 27.0 0
   vertex 46.80342390962628 26.4128677106876 0.36
   vertex 46.89641652866549 27.0 0.36
  endloop
 endfacet
endsolid
