solid PyGamic generated __All_Crease__ SLA File
 facet normal 0.0 0.0 -1.0
  outer loop
   vertex 23.447811130245828 13.320000000000002 0
   vertex -0.0003378289811466956 13.320000000000002 0
   vertex 11.73546072511195 14.998320000000003 0
  endloop
 endfacet
 facet normal 0.0 0.0 -1.0
  outer loop
   vertex -0.0003378289811466956 13.320000000000002 0
   vertex 11.712012576152727 14.998320000000003 0
   vertex 11.73546072511195 14.998320000000003 0
  endloop
 endfacet
 facet normal 0.0 0.0 -1.0
  outer loop
   vertex -0.0003378289811466956 13.320000000000002 0
   vertex -0.00033782898114669983 16.680000000000003 0
   vertex 11.712012576152727 14.998320000000003 0
  endloop
 endfacet
 facet normal 0.0 0.0 -1.0
  outer loop
   vertex -0.00033782898114669983 16.680000000000003 0
   vertex 11.712012576152723 15.001680000000002 0
   vertex 11.712012576152727 14.998320000000003 0
  endloop
 endfacet
 facet normal 0.0 0.0 -1.0
  outer loop
   vertex -0.00033782898114669983 16.680000000000003 0
   vertex 23.44781113024582 16.680000000000003 0
   vertex 11.712012576152723 15.001680000000002 0
  endloop
 endfacet
 facet normal 0.0 0.0 -1.0
  outer loop
   vertex 23.44781113024582 16.680000000000003 0
   vertex 11.735460725111954 15.001680000000002 0
   vertex 11.712012576152723 15.001680000000002 0
  endloop
 endfacet
 facet normal 0.0 -0.0 -1.0
  outer loop
   vertex 23.44781113024582 16.680000000000003 0
   vertex 23.447811130245828 13.320000000000002 0
   vertex 11.735460725111954 15.001680000000002 0
  endloop
 endfacet
 facet normal 0.0 0.0 -1.0
  outer loop
   vertex 23.447811130245828 13.320000000000002 0
   vertex 11.73546072511195 14.998320000000003 0
   vertex 11.735460725111954 15.001680000000002 0
  endloop
 endfacet
 facet normal 0.0 -1.0 0.0
  outer loop
   vertex -0.0003378289811466956 13.320000000000002 0
   vertex 23.447811130245828 13.320000000000002 0
   vertex 23.447811130245828 13.320000000000002 0.36
  endloop
 endfacet
 facet normal 0.0 -1.0 0.0
  outer loop
   vertex -0.0003378289811466956 13.320000000000002 0.36
   vertex -0.0003378289811466956 13.320000000000002 0
   vertex 23.447811130245828 13.320000000000002 0.36
  endloop
 endfacet
 facet normal -1.0 -1.2584489502063886e-18 0.0
  outer loop
   vertex -0.00033782898114669983 16.680000000000003 0
   vertex -0.0003378289811466956 13.320000000000002 0
   vertex -0.0003378289811466956 13.320000000000002 0.36
  endloop
 endfacet
 facet normal -1.0 -1.2584489502063886e-18 -0.0
  outer loop
   vertex -0.00033782898114669983 16.680000000000003 0.36
   vertex -0.00033782898114669983 16.680000000000003 0
   vertex -0.0003378289811466956 13.320000000000002 0.36
  endloop
 endfacet
 facet normal 0.0 1.0 0.0
  outer loop
   vertex 23.44781113024582 16.680000000000003 0
   vertex -0.00033782898114669983 16.680000000000003 0
   vertex -0.00033782898114669983 16.680000000000003 0.36
  endloop
 endfacet
 facet normal 0.0 1.0 0.0
  outer loop
   vertex 23.44781113024582 16.680000000000003 0.36
   vertex 23.44781113024582 16.680000000000003 0
   vertex -0.00033782898114669983 16.680000000000003 0.36
  endloop
 endfacet
 facet normal 1.0 2.1147105230955355e-15 0.0
  outer loop
   vertex 23.447811130245828 13.320000000000002 0
   vertex 23.44781113024582 16.680000000000003 0
   vertex 23.44781113024582 16.680000000000003 0.36
  endloop
 endfacet
 facet normal 1.0 2.1147105230955355e-15 0.0
  outer loop
   vertex 23.447811130245828 13.320000000000002 0.36
   vertex 23.447811130245828 13.320000000000002 0
   vertex 23.44781113024582 16.680000000000003 0.36
  endloop
 endfacet
 facet normal 0.0 1.0 -0.0
  outer loop
   vertex 11.73546072511195 14.998320000000003 0
   vertex 11.712012576152727 14.998320000000003 0
   vertex 11.73546072511195 14.998320000000003 0.36
  endloop
 endfacet
 facet normal 0.0 1.0 0.0
  outer loop
   vertex 11.712012576152727 14.998320000000003 0
   vertex 11.712012576152727 14.998320000000003 0.36
   vertex 11.73546072511195 14.998320000000003 0.36
  endloop
 endfacet
 facet normal 1.0 1.0573552615481083e-12 -0.0
  outer loop
   vertex 11.712012576152727 14.998320000000003 0
   vertex 11.712012576152723 15.001680000000002 0
   vertex 11.712012576152727 14.998320000000003 0.36
  endloop
 endfacet
 facet normal 1.0 1.0573552615481083e-12 -0.0
  outer loop
   vertex 11.712012576152723 15.001680000000002 0
   vertex 11.712012576152723 15.001680000000002 0.36
   vertex 11.712012576152727 14.998320000000003 0.36
  endloop
 endfacet
 facet normal 0.0 -1.0 0.0
  outer loop
   vertex 11.712012576152723 15.001680000000002 0
   vertex 11.735460725111954 15.001680000000002 0
   vertex 11.712012576152723 15.001680000000002 0.36
  endloop
 endfacet
 facet normal 0.0 -1.0 0.0
  outer loop
   vertex 11.735460725111954 15.001680000000002 0
   vertex 11.735460725111954 15.001680000000002 0.36
   vertex 11.712012576152723 15.001680000000002 0.36
  endloop
 endfacet
 facet normal -1.0 1.0573552615481083e-12 0.0
  outer loop
   vertex 11.735460725111954 15.001680000000002 0
   vertex 11.73546072511195 14.998320000000003 0
   vertex 11.735460725111954 15.001680000000002 0.36
  endloop
 endfacet
 facet normal -1.0 1.0573552615481083e-12 0.0
  outer loop
   vertex 11.73546072511195 14.998320000000003 0
   vertex 11.73546072511195 14.998320000000003 0.36
   vertex 11.735460725111954 15.001680000000002 0.36
  endloop
 endfacet
 facet normal 0.0 0.0 1.0
  outer loop
   vertex -0.0003378289811466956 13.320000000000002 0.36
   vertex 23.447811130245828 13.320000000000002 0.36
   vertex 11.73546072511195 14.998320000000003 0.36
  endloop
 endfacet
 facet normal -0.0 0.0 1.0
  outer loop
   vertex 11.712012576152727 14.998320000000003 0.36
   vertex -0.0003378289811466956 13.320000000000002 0.36
   vertex 11.73546072511195 14.998320000000003 0.36
  endloop
 endfacet
 facet normal 0.0 0.0 1.0
  outer loop
   vertex -0.00033782898114669983 16.680000000000003 0.36
   vertex -0.0003378289811466956 13.320000000000002 0.36
   vertex 11.712012576152727 14.998320000000003 0.36
  endloop
 endfacet
 facet normal 0.0 0.0 1.0
  outer loop
   vertex 11.712012576152723 15.001680000000002 0.36
   vertex -0.00033782898114669983 16.680000000000003 0.36
   vertex 11.712012576152727 14.998320000000003 0.36
  endloop
 endfacet
 facet normal 0.0 0.0 1.0
  outer loop
   vertex 23.44781113024582 16.680000000000003 0.36
   vertex -0.00033782898114669983 16.680000000000003 0.36
   vertex 11.712012576152723 15.001680000000002 0.36
  endloop
 endfacet
 facet normal 0.0 -0.0 1.0
  outer loop
   vertex 11.735460725111954 15.001680000000002 0.36
   vertex 23.44781113024582 16.680000000000003 0.36
   vertex 11.712012576152723 15.001680000000002 0.36
  endloop
 endfacet
 facet normal 0.0 0.0 1.0
  outer loop
   vertex 23.447811130245828 13.320000000000002 0.36
   vertex 23.44781113024582 16.680000000000003 0.36
   vertex 11.735460725111954 15.001680000000002 0.36
  endloop
 endfacet
 facet normal -0.0 0.0 1.0
  outer loop
   vertex 11.73546072511195 14.998320000000003 0.36
   vertex 23.447811130245828 13.320000000000002 0.36
   vertex 11.735460725111954 15.001680000000002 0.36
  endloop
 endfacet
 facet normal 0.0 0.0 -1.0
  outer loop
   vertex 10.118200628390422 0.001 0
   vertex 23.447811130245828 13.320000000000002 0
   vertex 19.15078958674662 6.653840500000002 0
  endloop
 endfacet
 facet normal 0.0 0.0 -1.0
  outer loop
   vertex 23.447811130245828 13.320000000000002 0
   vertex 19.164119197248475 6.667159499999999 0
   vertex 19.15078958674662 6.653840500000002 0
  endloop
 endfacet
 facet normal 0.0 -0.0 -1.0
  outer loop
   vertex 23.447811130245828 13.320000000000002 0
   vertex 28.201461806280708 13.319999999999999 0
   vertex 19.164119197248475 6.667159499999999 0
  endloop
 endfacet
 facet normal 0.0 0.0 -1.0
  outer loop
   vertex 28.201461806280708 13.319999999999999 0
   vertex 19.16887284792451 6.6671595 0
   vertex 19.164119197248475 6.667159499999999 0
  endloop
 endfacet
 facet normal 0.0 0.0 -1.0
  outer loop
   vertex 28.201461806280708 13.319999999999999 0
   vertex 14.871851304425304 0.001 0
   vertex 19.16887284792451 6.6671595 0
  endloop
 endfacet
 facet normal 0.0 0.0 -1.0
  outer loop
   vertex 14.871851304425304 0.001 0
   vertex 19.155543237422656 6.6538405 0
   vertex 19.16887284792451 6.6671595 0
  endloop
 endfacet
 facet normal 0.0 0.0 -1.0
  outer loop
   vertex 14.871851304425304 0.001 0
   vertex 10.118200628390422 0.001 0
   vertex 19.155543237422656 6.6538405 0
  endloop
 endfacet
 facet normal 0.0 0.0 -1.0
  outer loop
   vertex 10.118200628390422 0.001 0
   vertex 19.15078958674662 6.653840500000002 0
   vertex 19.155543237422656 6.6538405 0
  endloop
 endfacet
 facet normal -0.7068251811053659 0.7073882691671998 0.0
  outer loop
   vertex 23.447811130245828 13.320000000000002 0
   vertex 10.118200628390422 0.001 0
   vertex 10.118200628390422 0.001 0.36
  endloop
 endfacet
 facet normal -0.7068251811053659 0.7073882691671998 0.0
  outer loop
   vertex 23.447811130245828 13.320000000000002 0.36
   vertex 23.447811130245828 13.320000000000002 0
   vertex 10.118200628390422 0.001 0.36
  endloop
 endfacet
 facet normal 7.473653242362129e-16 1.0 0.0
  outer loop
   vertex 28.201461806280708 13.319999999999999 0
   vertex 23.447811130245828 13.320000000000002 0
   vertex 23.447811130245828 13.320000000000002 0.36
  endloop
 endfacet
 facet normal 7.473653242362129e-16 1.0 0.0
  outer loop
   vertex 28.201461806280708 13.319999999999999 0.36
   vertex 28.201461806280708 13.319999999999999 0
   vertex 23.447811130245828 13.320000000000002 0.36
  endloop
 endfacet
 facet normal 0.706825181105366 -0.7073882691671998 0.0
  outer loop
   vertex 14.871851304425304 0.001 0
   vertex 28.201461806280708 13.319999999999999 0
   vertex 28.201461806280708 13.319999999999999 0.36
  endloop
 endfacet
 facet normal 0.706825181105366 -0.7073882691671998 0.0
  outer loop
   vertex 14.871851304425304 0.001 0.36
   vertex 14.871851304425304 0.001 0
   vertex 28.201461806280708 13.319999999999999 0.36
  endloop
 endfacet
 facet normal 0.0 -1.0 0.0
  outer loop
   vertex 10.118200628390422 0.001 0
   vertex 14.871851304425304 0.001 0
   vertex 14.871851304425304 0.001 0.36
  endloop
 endfacet
 facet normal 0.0 -1.0 0.0
  outer loop
   vertex 10.118200628390422 0.001 0.36
   vertex 10.118200628390422 0.001 0
   vertex 14.871851304425304 0.001 0.36
  endloop
 endfacet
 facet normal 0.7068251811052612 -0.7073882691673046 0.0
  outer loop
   vertex 19.15078958674662 6.653840500000002 0
   vertex 19.164119197248475 6.667159499999999 0
   vertex 19.15078958674662 6.653840500000002 0.36
  endloop
 endfacet
 facet normal 0.7068251811052612 -0.7073882691673046 0.0
  outer loop
   vertex 19.164119197248475 6.667159499999999 0
   vertex 19.164119197248475 6.667159499999999 0.36
   vertex 19.15078958674662 6.653840500000002 0.36
  endloop
 endfacet
 facet normal 3.736826621179702e-13 -1.0 0.0
  outer loop
   vertex 19.164119197248475 6.667159499999999 0
   vertex 19.16887284792451 6.6671595 0
   vertex 19.164119197248475 6.667159499999999 0.36
  endloop
 endfacet
 facet normal 3.736826621179702e-13 -1.0 0.0
  outer loop
   vertex 19.16887284792451 6.6671595 0
   vertex 19.16887284792451 6.6671595 0.36
   vertex 19.164119197248475 6.667159499999999 0.36
  endloop
 endfacet
 facet normal -0.7068251811053553 0.7073882691672103 0.0
  outer loop
   vertex 19.16887284792451 6.6671595 0
   vertex 19.155543237422656 6.6538405 0
   vertex 19.16887284792451 6.6671595 0.36
  endloop
 endfacet
 facet normal -0.7068251811053553 0.7073882691672103 0.0
  outer loop
   vertex 19.155543237422656 6.6538405 0
   vertex 19.155543237422656 6.6538405 0.36
   vertex 19.16887284792451 6.6671595 0.36
  endloop
 endfacet
 facet normal 3.736826621179702e-13 1.0 -0.0
  outer loop
   vertex 19.155543237422656 6.6538405 0
   vertex 19.15078958674662 6.653840500000002 0
   vertex 19.155543237422656 6.6538405 0.36
  endloop
 endfacet
 facet normal 3.736826621179702e-13 1.0 -0.0
  outer loop
   vertex 19.15078958674662 6.653840500000002 0
   vertex 19.15078958674662 6.653840500000002 0.36
   vertex 19.155543237422656 6.6538405 0.36
  endloop
 endfacet
 facet normal 0.0 0.0 1.0
  outer loop
   vertex 23.447811130245828 13.320000000000002 0.36
   vertex 10.118200628390422 0.001 0.36
   vertex 19.15078958674662 6.653840500000002 0.36
  endloop
 endfacet
 facet normal 0.0 -0.0 1.0
  outer loop
   vertex 19.164119197248475 6.667159499999999 0.36
   vertex 23.447811130245828 13.320000000000002 0.36
   vertex 19.15078958674662 6.653840500000002 0.36
  endloop
 endfacet
 facet normal 0.0 0.0 1.0
  outer loop
   vertex 28.201461806280708 13.319999999999999 0.36
   vertex 23.447811130245828 13.320000000000002 0.36
   vertex 19.164119197248475 6.667159499999999 0.36
  endloop
 endfacet
 facet normal 0.0 -0.0 1.0
  outer loop
   vertex 19.16887284792451 6.6671595 0.36
   vertex 28.201461806280708 13.319999999999999 0.36
   vertex 19.164119197248475 6.667159499999999 0.36
  endloop
 endfacet
 facet normal 0.0 0.0 1.0
  outer loop
   vertex 14.871851304425304 0.001 0.36
   vertex 28.201461806280708 13.319999999999999 0.36
   vertex 19.16887284792451 6.6671595 0.36
  endloop
 endfacet
 facet normal -0.0 0.0 1.0
  outer loop
   vertex 19.155543237422656 6.6538405 0.36
   vertex 14.871851304425304 0.001 0.36
   vertex 19.16887284792451 6.6671595 0.36
  endloop
 endfacet
 facet normal 0.0 0.0 1.0
  outer loop
   vertex 10.118200628390422 0.001 0.36
   vertex 14.871851304425304 0.001 0.36
   vertex 19.155543237422656 6.6538405 0.36
  endloop
 endfacet
 facet normal 0.0 0.0 1.0
  outer loop
   vertex 19.15078958674662 6.653840500000002 0.36
   vertex 10.118200628390422 0.001 0.36
   vertex 19.155543237422656 6.6538405 0.36
  endloop
 endfacet
 facet normal 0.0 0.0 -1.0
  outer loop
   vertex 23.44781113024582 16.680000000000003 0
   vertex 10.118200628390422 29.999 0
   vertex 19.164119197248475 23.3328405 0
  endloop
 endfacet
 facet normal 0.0 0.0 -1.0
  outer loop
   vertex 10.118200628390422 29.999 0
   vertex 19.15078958674662 23.3461595 0
   vertex 19.164119197248475 23.3328405 0
  endloop
 endfacet
 facet normal 0.0 0.0 -1.0
  outer loop
   vertex 10.118200628390422 29.999 0
   vertex 14.871851304425304 29.998999999999995 0
   vertex 19.15078958674662 23.3461595 0
  endloop
 endfacet
 facet normal 0.0 0.0 -1.0
  outer loop
   vertex 14.871851304425304 29.998999999999995 0
   vertex 19.155543237422652 23.3461595 0
   vertex 19.15078958674662 23.3461595 0
  endloop
 endfacet
 facet normal 0.0 0.0 -1.0
  outer loop
   vertex 14.871851304425304 29.998999999999995 0
   vertex 28.201461806280705 16.68 0
   vertex 19.155543237422652 23.3461595 0
  endloop
 endfacet
 facet normal 0.0 0.0 -1.0
  outer loop
   vertex 28.201461806280705 16.68 0
   vertex 19.168872847924508 23.3328405 0
   vertex 19.155543237422652 23.3461595 0
  endloop
 endfacet
 facet normal 0.0 0.0 -1.0
  outer loop
   vertex 28.201461806280705 16.68 0
   vertex 23.44781113024582 16.680000000000003 0
   vertex 19.168872847924508 23.3328405 0
  endloop
 endfacet
 facet normal 0.0 0.0 -1.0
  outer loop
   vertex 23.44781113024582 16.680000000000003 0
   vertex 19.164119197248475 23.3328405 0
   vertex 19.168872847924508 23.3328405 0
  endloop
 endfacet
 facet normal -0.706825181105366 -0.7073882691671998 0.0
  outer loop
   vertex 10.118200628390422 29.999 0
   vertex 23.44781113024582 16.680000000000003 0
   vertex 23.44781113024582 16.680000000000003 0.36
  endloop
 endfacet
 facet normal -0.706825181105366 -0.7073882691671998 -0.0
  outer loop
   vertex 10.118200628390422 29.999 0.36
   vertex 10.118200628390422 29.999 0
   vertex 23.44781113024582 16.680000000000003 0.36
  endloop
 endfacet
 facet normal 7.473653242362127e-16 1.0 0.0
  outer loop
   vertex 14.871851304425304 29.998999999999995 0
   vertex 10.118200628390422 29.999 0
   vertex 10.118200628390422 29.999 0.36
  endloop
 endfacet
 facet normal 7.473653242362127e-16 1.0 0.0
  outer loop
   vertex 14.871851304425304 29.998999999999995 0.36
   vertex 14.871851304425304 29.998999999999995 0
   vertex 10.118200628390422 29.999 0.36
  endloop
 endfacet
 facet normal 0.7068251811053657 0.7073882691671998 0.0
  outer loop
   vertex 28.201461806280705 16.68 0
   vertex 14.871851304425304 29.998999999999995 0
   vertex 14.871851304425304 29.998999999999995 0.36
  endloop
 endfacet
 facet normal 0.7068251811053657 0.7073882691671998 0.0
  outer loop
   vertex 28.201461806280705 16.68 0.36
   vertex 28.201461806280705 16.68 0
   vertex 14.871851304425304 29.998999999999995 0.36
  endloop
 endfacet
 facet normal -7.473653242362124e-16 -1.0 0.0
  outer loop
   vertex 23.44781113024582 16.680000000000003 0
   vertex 28.201461806280705 16.68 0
   vertex 28.201461806280705 16.68 0.36
  endloop
 endfacet
 facet normal -7.473653242362124e-16 -1.0 -0.0
  outer loop
   vertex 23.44781113024582 16.680000000000003 0.36
   vertex 23.44781113024582 16.680000000000003 0
   vertex 28.201461806280705 16.68 0.36
  endloop
 endfacet
 facet normal 0.7068251811053319 0.7073882691672339 -0.0
  outer loop
   vertex 19.164119197248475 23.3328405 0
   vertex 19.15078958674662 23.3461595 0
   vertex 19.164119197248475 23.3328405 0.36
  endloop
 endfacet
 facet normal 0.7068251811053319 0.7073882691672339 -0.0
  outer loop
   vertex 19.15078958674662 23.3461595 0
   vertex 19.15078958674662 23.3461595 0.36
   vertex 19.164119197248475 23.3328405 0.36
  endloop
 endfacet
 facet normal 0.0 -1.0 0.0
  outer loop
   vertex 19.15078958674662 23.3461595 0
   vertex 19.155543237422652 23.3461595 0
   vertex 19.15078958674662 23.3461595 0.36
  endloop
 endfacet
 facet normal 0.0 -1.0 0.0
  outer loop
   vertex 19.155543237422652 23.3461595 0
   vertex 19.155543237422652 23.3461595 0.36
   vertex 19.15078958674662 23.3461595 0.36
  endloop
 endfacet
 facet normal -0.7068251811053319 -0.7073882691672339 0.0
  outer loop
   vertex 19.155543237422652 23.3461595 0
   vertex 19.168872847924508 23.3328405 0
   vertex 19.155543237422652 23.3461595 0.36
  endloop
 endfacet
 facet normal -0.7068251811053319 -0.7073882691672339 0.0
  outer loop
   vertex 19.168872847924508 23.3328405 0
   vertex 19.168872847924508 23.3328405 0.36
   vertex 19.155543237422652 23.3461595 0.36
  endloop
 endfacet
 facet normal 0.0 1.0 -0.0
  outer loop
   vertex 19.168872847924508 23.3328405 0
   vertex 19.164119197248475 23.3328405 0
   vertex 19.168872847924508 23.3328405 0.36
  endloop
 endfacet
 facet normal 0.0 1.0 0.0
  outer loop
   vertex 19.164119197248475 23.3328405 0
   vertex 19.164119197248475 23.3328405 0.36
   vertex 19.168872847924508 23.3328405 0.36
  endloop
 endfacet
 facet normal 0.0 0.0 1.0
  outer loop
   vertex 10.118200628390422 29.999 0.36
   vertex 23.44781113024582 16.680000000000003 0.36
   vertex 19.164119197248475 23.3328405 0.36
  endloop
 endfacet
 facet normal 0.0 0.0 1.0
  outer loop
   vertex 19.15078958674662 23.3461595 0.36
   vertex 10.118200628390422 29.999 0.36
   vertex 19.164119197248475 23.3328405 0.36
  endloop
 endfacet
 facet normal 0.0 0.0 1.0
  outer loop
   vertex 14.871851304425304 29.998999999999995 0.36
   vertex 10.118200628390422 29.999 0.36
   vertex 19.15078958674662 23.3461595 0.36
  endloop
 endfacet
 facet normal 0.0 0.0 1.0
  outer loop
   vertex 19.155543237422652 23.3461595 0.36
   vertex 14.871851304425304 29.998999999999995 0.36
   vertex 19.15078958674662 23.3461595 0.36
  endloop
 endfacet
 facet normal 0.0 0.0 1.0
  outer loop
   vertex 28.201461806280705 16.68 0.36
   vertex 14.871851304425304 29.998999999999995 0.36
   vertex 19.155543237422652 23.3461595 0.36
  endloop
 endfacet
 facet normal -0.0 -0.0 1.0
  outer loop
   vertex 19.168872847924508 23.3328405 0.36
   vertex 28.201461806280705 16.68 0.36
   vertex 19.155543237422652 23.3461595 0.36
  endloop
 endfacet
 facet normal -0.0 -0.0 1.0
  outer loop
   vertex 23.44781113024582 16.680000000000003 0.36
   vertex 28.201461806280705 16.68 0.36
   vertex 19.168872847924508 23.3328405 0.36
  endloop
 endfacet
 facet normal -0.0 0.0 1.0
  outer loop
   vertex 19.164119197248475 23.3328405 0.36
   vertex 23.44781113024582 16.680000000000003 0.36
   vertex 19.168872847924508 23.3328405 0.36
  endloop
 endfacet
 facet normal 0.0 0.0 -1.0
  outer loop
   vertex 39.997662170384714 13.319999999999999 0
   vertex 28.201461806280708 13.319999999999999 0
   vertex 34.10546008851476 14.99832 0
  endloop
 endfacet
 facet normal 0.0 0.0 -1.0
  outer loop
   vertex 28.201461806280708 13.319999999999999 0
   vertex 34.09366388815066 14.99832 0
   vertex 34.10546008851476 14.99832 0
  endloop
 endfacet
 facet normal 0.0 0.0 -1.0
  outer loop
   vertex 28.201461806280708 13.319999999999999 0
   vertex 28.201461806280705 16.68 0
   vertex 34.09366388815066 14.99832 0
  endloop
 endfacet
 facet normal 0.0 0.0 -1.0
  outer loop
   vertex 28.201461806280705 16.68 0
   vertex 34.09366388815066 15.001679999999999 0
   vertex 34.09366388815066 14.99832 0
  endloop
 endfacet
 facet normal 0.0 0.0 -1.0
  outer loop
   vertex 28.201461806280705 16.68 0
   vertex 39.997662170384714 16.68 0
   vertex 34.09366388815066 15.001679999999999 0
  endloop
 endfacet
 facet normal 0.0 0.0 -1.0
  outer loop
   vertex 39.997662170384714 16.68 0
   vertex 34.10546008851476 15.001679999999999 0
   vertex 34.09366388815066 15.001679999999999 0
  endloop
 endfacet
 facet normal 0.0 -0.0 -1.0
  outer loop
   vertex 39.997662170384714 16.68 0
   vertex 39.997662170384714 13.319999999999999 0
   vertex 34.10546008851476 15.001679999999999 0
  endloop
 endfacet
 facet normal 0.0 0.0 -1.0
  outer loop
   vertex 39.997662170384714 13.319999999999999 0
   vertex 34.10546008851476 14.99832 0
   vertex 34.10546008851476 15.001679999999999 0
  endloop
 endfacet
 facet normal 0.0 -1.0 0.0
  outer loop
   vertex 28.201461806280708 13.319999999999999 0
   vertex 39.997662170384714 13.319999999999999 0
   vertex 39.997662170384714 13.319999999999999 0.36
  endloop
 endfacet
 facet normal 0.0 -1.0 0.0
  outer loop
   vertex 28.201461806280708 13.319999999999999 0.36
   vertex 28.201461806280708 13.319999999999999 0
   vertex 39.997662170384714 13.319999999999999 0.36
  endloop
 endfacet
 facet normal -1.0 -1.0573552615477677e-15 0.0
  outer loop
   vertex 28.201461806280705 16.68 0
   vertex 28.201461806280708 13.319999999999999 0
   vertex 28.201461806280708 13.319999999999999 0.36
  endloop
 endfacet
 facet normal -1.0 -1.0573552615477677e-15 -0.0
  outer loop
   vertex 28.201461806280705 16.68 0.36
   vertex 28.201461806280705 16.68 0
   vertex 28.201461806280708 13.319999999999999 0.36
  endloop
 endfacet
 facet normal 0.0 1.0 0.0
  outer loop
   vertex 39.997662170384714 16.68 0
   vertex 28.201461806280705 16.68 0
   vertex 28.201461806280705 16.68 0.36
  endloop
 endfacet
 facet normal 0.0 1.0 0.0
  outer loop
   vertex 39.997662170384714 16.68 0.36
   vertex 39.997662170384714 16.68 0
   vertex 28.201461806280705 16.68 0.36
  endloop
 endfacet
 facet normal 1.0 0.0 0.0
  outer loop
   vertex 39.997662170384714 13.319999999999999 0
   vertex 39.997662170384714 16.68 0
   vertex 39.997662170384714 16.68 0.36
  endloop
 endfacet
 facet normal 1.0 -0.0 0.0
  outer loop
   vertex 39.997662170384714 13.319999999999999 0.36
   vertex 39.997662170384714 13.319999999999999 0
   vertex 39.997662170384714 16.68 0.36
  endloop
 endfacet
 facet normal 0.0 1.0 -0.0
  outer loop
   vertex 34.10546008851476 14.99832 0
   vertex 34.09366388815066 14.99832 0
   vertex 34.10546008851476 14.99832 0.36
  endloop
 endfacet
 facet normal 0.0 1.0 0.0
  outer loop
   vertex 34.09366388815066 14.99832 0
   vertex 34.09366388815066 14.99832 0.36
   vertex 34.10546008851476 14.99832 0.36
  endloop
 endfacet
 facet normal 1.0 0.0 0.0
  outer loop
   vertex 34.09366388815066 14.99832 0
   vertex 34.09366388815066 15.001679999999999 0
   vertex 34.09366388815066 14.99832 0.36
  endloop
 endfacet
 facet normal 1.0 0.0 -0.0
  outer loop
   vertex 34.09366388815066 15.001679999999999 0
   vertex 34.09366388815066 15.001679999999999 0.36
   vertex 34.09366388815066 14.99832 0.36
  endloop
 endfacet
 facet normal 0.0 -1.0 0.0
  outer loop
   vertex 34.09366388815066 15.001679999999999 0
   vertex 34.10546008851476 15.001679999999999 0
   vertex 34.09366388815066 15.001679999999999 0.36
  endloop
 endfacet
 facet normal 0.0 -1.0 0.0
  outer loop
   vertex 34.10546008851476 15.001679999999999 0
   vertex 34.10546008851476 15.001679999999999 0.36
   vertex 34.09366388815066 15.001679999999999 0.36
  endloop
 endfacet
 facet normal -1.0 0.0 0.0
  outer loop
   vertex 34.10546008851476 15.001679999999999 0
   vertex 34.10546008851476 14.99832 0
   vertex 34.10546008851476 15.001679999999999 0.36
  endloop
 endfacet
 facet normal -1.0 0.0 0.0
  outer loop
   vertex 34.10546008851476 14.99832 0
   vertex 34.10546008851476 14.99832 0.36
   vertex 34.10546008851476 15.001679999999999 0.36
  endloop
 endfacet
 facet normal 0.0 0.0 1.0
  outer loop
   vertex 28.201461806280708 13.319999999999999 0.36
   vertex 39.997662170384714 13.319999999999999 0.36
   vertex 34.10546008851476 14.99832 0.36
  endloop
 endfacet
 facet normal -0.0 0.0 1.0
  outer loop
   vertex 34.09366388815066 14.99832 0.36
   vertex 28.201461806280708 13.319999999999999 0.36
   vertex 34.10546008851476 14.99832 0.36
  endloop
 endfacet
 facet normal 0.0 0.0 1.0
  outer loop
   vertex 28.201461806280705 16.68 0.36
   vertex 28.201461806280708 13.319999999999999 0.36
   vertex 34.09366388815066 14.99832 0.36
  endloop
 endfacet
 facet normal 0.0 0.0 1.0
  outer loop
   vertex 34.09366388815066 15.001679999999999 0.36
   vertex 28.201461806280705 16.68 0.36
   vertex 34.09366388815066 14.99832 0.36
  endloop
 endfacet
 facet normal 0.0 0.0 1.0
  outer loop
   vertex 39.997662170384714 16.68 0.36
   vertex 28.201461806280705 16.68 0.36
   vertex 34.09366388815066 15.001679999999999 0.36
  endloop
 endfacet
 facet normal 0.0 -0.0 1.0
  outer loop
   vertex 34.10546008851476 15.001679999999999 0.36
   vertex 39.997662170384714 16.68 0.36
   vertex 34.09366388815066 15.001679999999999 0.36
  endloop
 endfacet
 facet normal 0.0 -0.0 1.0
  outer loop
   vertex 39.997662170384714 13.319999999999999 0.36
   vertex 39.997662170384714 16.68 0.36
   vertex 34.10546008851476 15.001679999999999 0.36
  endloop
 endfacet
 facet normal -0.0 0.0 1.0
  outer loop
   vertex 34.10546008851476 14.99832 0.36
   vertex 39.997662170384714 13.319999999999999 0.36
   vertex 34.10546008851476 15.001679999999999 0.36
  endloop
 endfacet
endsolid
