solid PyGamic generated __All_Units__ SLA File
 facet normal 0.0 0.0 -1.0
  outer loop
   vertex 0.0009283308903781791 17.41 0
   vertex 32.453566494471275 17.41 0
   vertex 21.275376143670513 0.001 0
  endloop
 endfacet
 facet normal 0.0 -0.0 -1.0
  outer loop
   vertex 0.0009283308903781791 17.41 0
   vertex 21.275376143670513 0.001 0
   vertex -0.01293492521237438 0.001 0
  endloop
 endfacet
 facet normal 0.0 0.5664086240493009 0.8241245479917327
  outer loop
   vertex 32.453566494471275 17.41 0
   vertex 0.0009283308903781791 17.41 0
   vertex -0.0013889805726013114 14.5 2.0000000000000004
  endloop
 endfacet
 facet normal 0.0 0.5664086240493008 0.8241245479917326
  outer loop
   vertex 27.126847224288042 14.5 2.0000000000000004
   vertex 32.453566494471275 17.41 0
   vertex -0.0013889805726013114 14.5 2.0000000000000004
  endloop
 endfacet
 facet normal 0.47661642268245097 -0.30603188563743755 0.8241245479917327
  outer loop
   vertex 21.275376143670513 0.001 0
   vertex 32.453566494471275 17.41 0
   vertex 27.126847224288042 14.5 2.0000000000000004
  endloop
 endfacet
 facet normal 0.4766164226824512 -0.30603188563743766 0.8241245479917324
  outer loop
   vertex 17.817146385856184 0.001 2.0000000000000004
   vertex 21.275376143670513 0.001 0
   vertex 27.126847224288042 14.5 2.0000000000000004
  endloop
 endfacet
 facet normal 0.0 -1.0 0.0
  outer loop
   vertex -0.01293492521237438 0.001 0
   vertex 21.275376143670513 0.001 0
   vertex 17.817146385856184 0.001 2.0000000000000004
  endloop
 endfacet
 facet normal 0.0 -1.0 0.0
  outer loop
   vertex -0.01293492521237438 0.001 2.0000000000000004
   vertex -0.01293492521237438 0.001 0
   vertex 17.817146385856184 0.001 2.0000000000000004
  endloop
 endfacet
 facet normal -0.9999996829318346 0.0007963267107332633 0.0
  outer loop
   vertex 0.0009283308903781791 17.41 0
   vertex -0.01293492521237438 0.001 0
   vertex -0.01293492521237438 0.001 2.0000000000000004
  endloop
 endfacet
 facet normal -0.9999996829318346 0.0007963267107332631 -2.3928863038157343e-19
  outer loop
   vertex -0.0013889805726013114 14.5 2.0000000000000004
   vertex 0.0009283308903781791 17.41 0
   vertex -0.01293492521237438 0.001 2.0000000000000004
  endloop
 endfacet
 facet normal -0.0 0.0 1.0
  outer loop
   vertex -0.0013889805726013114 14.5 2.0000000000000004
   vertex 17.817146385856184 0.001 2.0000000000000004
   vertex 27.126847224288042 14.5 2.0000000000000004
  endloop
 endfacet
 facet normal 0.0 0.0 1.0
  outer loop
   vertex -0.0013889805726013114 14.5 2.0000000000000004
   vertex -0.01293492521237438 0.001 2.0000000000000004
   vertex 17.817146385856184 0.001 2.0000000000000004
  endloop
 endfacet
 facet normal 0.0 0.0 -1.0
  outer loop
   vertex 32.453566494471275 17.59 0
   vertex 0.0009283308903781791 17.59 0
   vertex -0.012934925212374382 34.999 0
  endloop
 endfacet
 facet normal 0.0 0.0 -1.0
  outer loop
   vertex 32.453566494471275 17.59 0
   vertex -0.012934925212374382 34.999 0
   vertex 21.275376143670513 34.999 0
  endloop
 endfacet
 facet normal 0.0 -0.5664086240493009 0.8241245479917327
  outer loop
   vertex 0.0009283308903781791 17.59 0
   vertex 32.453566494471275 17.59 0
   vertex 27.126847224288042 20.5 2.0000000000000004
  endloop
 endfacet
 facet normal 0.0 -0.5664086240493008 0.8241245479917326
  outer loop
   vertex -0.0013889805726013114 20.5 2.0000000000000004
   vertex 0.0009283308903781791 17.59 0
   vertex 27.126847224288042 20.5 2.0000000000000004
  endloop
 endfacet
 facet normal -0.9999996829318346 -0.0007963267107332633 0.0
  outer loop
   vertex -0.012934925212374382 34.999 0
   vertex 0.0009283308903781791 17.59 0
   vertex -0.0013889805726013114 20.5 2.0000000000000004
  endloop
 endfacet
 facet normal -0.9999996829318346 -0.0007963267107332631 -0.0
  outer loop
   vertex -0.012934925212374382 34.999 2.0000000000000004
   vertex -0.012934925212374382 34.999 0
   vertex -0.0013889805726013114 20.5 2.0000000000000004
  endloop
 endfacet
 facet normal 0.0 1.0 0.0
  outer loop
   vertex 21.275376143670513 34.999 0
   vertex -0.012934925212374382 34.999 0
   vertex -0.012934925212374382 34.999 2.0000000000000004
  endloop
 endfacet
 facet normal 0.0 1.0 0.0
  outer loop
   vertex 17.81714638585618 34.999 2.0000000000000004
   vertex 21.275376143670513 34.999 0
   vertex -0.012934925212374382 34.999 2.0000000000000004
  endloop
 endfacet
 facet normal 0.47661642268245086 0.30603188563743744 0.8241245479917327
  outer loop
   vertex 32.453566494471275 17.59 0
   vertex 21.275376143670513 34.999 0
   vertex 17.81714638585618 34.999 2.0000000000000004
  endloop
 endfacet
 facet normal 0.4766164226824511 0.30603188563743766 0.8241245479917325
  outer loop
   vertex 27.126847224288042 20.5 2.0000000000000004
   vertex 32.453566494471275 17.59 0
   vertex 17.81714638585618 34.999 2.0000000000000004
  endloop
 endfacet
 facet normal 0.0 0.0 1.0
  outer loop
   vertex 27.126847224288042 20.5 2.0000000000000004
   vertex -0.012934925212374382 34.999 2.0000000000000004
   vertex -0.0013889805726013114 20.5 2.0000000000000004
  endloop
 endfacet
 facet normal 0.0 0.0 1.0
  outer loop
   vertex 27.126847224288042 20.5 2.0000000000000004
   vertex 17.81714638585618 34.999 2.0000000000000004
   vertex -0.012934925212374382 34.999 2.0000000000000004
  endloop
 endfacet
 facet normal 0.0 0.0 -1.0
  outer loop
   vertex 32.667477613511345 17.410000000000004 0
   vertex 65.45356649447129 17.410000000000004 0
   vertex 54.27537614367053 0.001 0
  endloop
 endfacet
 facet normal 0.0 -0.0 -1.0
  outer loop
   vertex 32.667477613511345 17.410000000000004 0
   vertex 54.27537614367053 0.001 0
   vertex 21.489287262710576 0.001 0
  endloop
 endfacet
 facet normal 0.0 0.5664086240493009 0.8241245479917326
  outer loop
   vertex 65.45356649447129 17.410000000000004 0
   vertex 32.667477613511345 17.410000000000004 0
   vertex 34.25721785895677 14.500000000000004 2.0000000000000004
  endloop
 endfacet
 facet normal 0.0 0.5664086240493009 0.8241245479917326
  outer loop
   vertex 60.12684722428805 14.500000000000004 2.0000000000000004
   vertex 65.45356649447129 17.410000000000004 0
   vertex 34.25721785895677 14.500000000000004 2.0000000000000004
  endloop
 endfacet
 facet normal 0.4766164226824503 -0.3060318856374371 0.8241245479917332
  outer loop
   vertex 54.27537614367053 0.001 0
   vertex 65.45356649447129 17.410000000000004 0
   vertex 60.12684722428805 14.500000000000004 2.0000000000000004
  endloop
 endfacet
 facet normal 0.47661642268245125 -0.3060318856374374 0.8241245479917326
  outer loop
   vertex 50.8171463858562 0.001 2.0000000000000004
   vertex 54.27537614367053 0.001 0
   vertex 60.12684722428805 14.500000000000004 2.0000000000000004
  endloop
 endfacet
 facet normal 0.0 -1.0 0.0
  outer loop
   vertex 21.489287262710576 0.001 0
   vertex 54.27537614367053 0.001 0
   vertex 50.8171463858562 0.001 2.0000000000000004
  endloop
 endfacet
 facet normal 0.0 -1.0 -0.0
  outer loop
   vertex 24.94751702052491 0.001 2.0000000000000004
   vertex 21.489287262710576 0.001 0
   vertex 50.8171463858562 0.001 2.0000000000000004
  endloop
 endfacet
 facet normal -0.47661642268245075 0.30603188563743755 0.8241245479917326
  outer loop
   vertex 32.667477613511345 17.410000000000004 0
   vertex 21.489287262710576 0.001 0
   vertex 24.94751702052491 0.001 2.0000000000000004
  endloop
 endfacet
 facet normal -0.4766164226824513 0.3060318856374378 0.8241245479917324
  outer loop
   vertex 34.25721785895677 14.500000000000004 2.0000000000000004
   vertex 32.667477613511345 17.410000000000004 0
   vertex 24.94751702052491 0.001 2.0000000000000004
  endloop
 endfacet
 facet normal -0.0 0.0 1.0
  outer loop
   vertex 34.25721785895677 14.500000000000004 2.0000000000000004
   vertex 50.8171463858562 0.001 2.0000000000000004
   vertex 60.12684722428805 14.500000000000004 2.0000000000000004
  endloop
 endfacet
 facet normal 0.0 0.0 1.0
  outer loop
   vertex 34.25721785895677 14.500000000000004 2.0000000000000004
   vertex 24.94751702052491 0.001 2.0000000000000004
   vertex 50.8171463858562 0.001 2.0000000000000004
  endloop
 endfacet
 facet normal 0.0 0.0 -1.0
  outer loop
   vertex 65.45356649447129 17.590000000000003 0
   vertex 32.66747761351134 17.590000000000003 0
   vertex 21.489287262710576 34.999 0
  endloop
 endfacet
 facet normal 0.0 0.0 -1.0
  outer loop
   vertex 65.45356649447129 17.590000000000003 0
   vertex 21.489287262710576 34.999 0
   vertex 54.27537614367053 34.999 0
  endloop
 endfacet
 facet normal 0.0 -0.5664086240493009 0.8241245479917327
  outer loop
   vertex 32.66747761351134 17.590000000000003 0
   vertex 65.45356649447129 17.590000000000003 0
   vertex 60.126847224288056 20.500000000000004 2.0000000000000004
  endloop
 endfacet
 facet normal 0.0 -0.566408624049301 0.8241245479917327
  outer loop
   vertex 34.25721785895677 20.500000000000004 2.0000000000000004
   vertex 32.66747761351134 17.590000000000003 0
   vertex 60.126847224288056 20.500000000000004 2.0000000000000004
  endloop
 endfacet
 facet normal -0.4766164226824506 -0.30603188563743733 0.8241245479917328
  outer loop
   vertex 21.489287262710576 34.999 0
   vertex 32.66747761351134 17.590000000000003 0
   vertex 34.25721785895677 20.500000000000004 2.0000000000000004
  endloop
 endfacet
 facet normal -0.4766164226824508 -0.30603188563743755 0.8241245479917327
  outer loop
   vertex 24.94751702052491 34.999 2.0000000000000004
   vertex 21.489287262710576 34.999 0
   vertex 34.25721785895677 20.500000000000004 2.0000000000000004
  endloop
 endfacet
 facet normal 0.0 1.0 0.0
  outer loop
   vertex 54.27537614367053 34.999 0
   vertex 21.489287262710576 34.999 0
   vertex 24.94751702052491 34.999 2.0000000000000004
  endloop
 endfacet
 facet normal 0.0 1.0 0.0
  outer loop
   vertex 50.8171463858562 34.999 2.0000000000000004
   vertex 54.27537614367053 34.999 0
   vertex 24.94751702052491 34.999 2.0000000000000004
  endloop
 endfacet
 facet normal 0.47661642268245125 0.3060318856374377 0.8241245479917324
  outer loop
   vertex 65.45356649447129 17.590000000000003 0
   vertex 54.27537614367053 34.999 0
   vertex 50.8171463858562 34.999 2.0000000000000004
  endloop
 endfacet
 facet normal 0.47661642268245114 0.30603188563743766 0.8241245479917325
  outer loop
   vertex 60.126847224288056 20.500000000000004 2.0000000000000004
   vertex 65.45356649447129 17.590000000000003 0
   vertex 50.8171463858562 34.999 2.0000000000000004
  endloop
 endfacet
 facet normal 0.0 0.0 1.0
  outer loop
   vertex 60.126847224288056 20.500000000000004 2.0000000000000004
   vertex 24.94751702052491 34.999 2.0000000000000004
   vertex 34.25721785895677 20.500000000000004 2.0000000000000004
  endloop
 endfacet
 facet normal 0.0 0.0 1.0
  outer loop
   vertex 60.126847224288056 20.500000000000004 2.0000000000000004
   vertex 50.8171463858562 34.999 2.0000000000000004
   vertex 24.94751702052491 34.999 2.0000000000000004
  endloop
 endfacet
 facet normal 0.0 0.0 -1.0
  outer loop
   vertex 65.66747761351135 17.41 0
   vertex 98.45356649447126 17.41 0
   vertex 87.2753761436705 0.001 0
  endloop
 endfacet
 facet normal 0.0 -0.0 -1.0
  outer loop
   vertex 65.66747761351135 17.41 0
   vertex 87.2753761436705 0.001 0
   vertex 54.48928726271059 0.001 0
  endloop
 endfacet
 facet normal 0.0 0.5664086240493009 0.8241245479917327
  outer loop
   vertex 98.45356649447126 17.41 0
   vertex 65.66747761351135 17.41 0
   vertex 67.25721785895678 14.5 2.0000000000000004
  endloop
 endfacet
 facet normal 0.0 0.566408624049301 0.8241245479917327
  outer loop
   vertex 93.12684722428803 14.5 2.0000000000000004
   vertex 98.45356649447126 17.41 0
   vertex 67.25721785895678 14.5 2.0000000000000004
  endloop
 endfacet
 facet normal 0.47661642268245097 -0.30603188563743755 0.8241245479917327
  outer loop
   vertex 87.2753761436705 0.001 0
   vertex 98.45356649447126 17.41 0
   vertex 93.12684722428803 14.5 2.0000000000000004
  endloop
 endfacet
 facet normal 0.47661642268245047 -0.30603188563743744 0.824124547991733
  outer loop
   vertex 83.81714638585616 0.001 2.0000000000000004
   vertex 87.2753761436705 0.001 0
   vertex 93.12684722428803 14.5 2.0000000000000004
  endloop
 endfacet
 facet normal 0.0 -1.0 0.0
  outer loop
   vertex 54.48928726271059 0.001 0
   vertex 87.2753761436705 0.001 0
   vertex 83.81714638585616 0.001 2.0000000000000004
  endloop
 endfacet
 facet normal 0.0 -1.0 -0.0
  outer loop
   vertex 57.94751702052492 0.001 2.0000000000000004
   vertex 54.48928726271059 0.001 0
   vertex 83.81714638585616 0.001 2.0000000000000004
  endloop
 endfacet
 facet normal -0.476616422682451 0.3060318856374376 0.8241245479917325
  outer loop
   vertex 65.66747761351135 17.41 0
   vertex 54.48928726271059 0.001 0
   vertex 57.94751702052492 0.001 2.0000000000000004
  endloop
 endfacet
 facet normal -0.4766164226824513 0.3060318856374377 0.8241245479917324
  outer loop
   vertex 67.25721785895678 14.5 2.0000000000000004
   vertex 65.66747761351135 17.41 0
   vertex 57.94751702052492 0.001 2.0000000000000004
  endloop
 endfacet
 facet normal -0.0 0.0 1.0
  outer loop
   vertex 67.25721785895678 14.5 2.0000000000000004
   vertex 83.81714638585616 0.001 2.0000000000000004
   vertex 93.12684722428803 14.5 2.0000000000000004
  endloop
 endfacet
 facet normal 0.0 0.0 1.0
  outer loop
   vertex 67.25721785895678 14.5 2.0000000000000004
   vertex 57.94751702052492 0.001 2.0000000000000004
   vertex 83.81714638585616 0.001 2.0000000000000004
  endloop
 endfacet
 facet normal 0.0 0.0 -1.0
  outer loop
   vertex 98.45356649447129 17.59 0
   vertex 65.66747761351135 17.59 0
   vertex 54.4892872627106 34.998999999999995 0
  endloop
 endfacet
 facet normal 0.0 0.0 -1.0
  outer loop
   vertex 98.45356649447129 17.59 0
   vertex 54.4892872627106 34.998999999999995 0
   vertex 87.27537614367053 34.998999999999995 0
  endloop
 endfacet
 facet normal 0.0 -0.5664086240493009 0.8241245479917327
  outer loop
   vertex 65.66747761351135 17.59 0
   vertex 98.45356649447129 17.59 0
   vertex 93.12684722428804 20.5 2.0000000000000004
  endloop
 endfacet
 facet normal 0.0 -0.566408624049301 0.8241245479917327
  outer loop
   vertex 67.25721785895679 20.5 2.0000000000000004
   vertex 65.66747761351135 17.59 0
   vertex 93.12684722428804 20.5 2.0000000000000004
  endloop
 endfacet
 facet normal -0.47661642268245 -0.30603188563743683 0.8241245479917336
  outer loop
   vertex 54.4892872627106 34.998999999999995 0
   vertex 65.66747761351135 17.59 0
   vertex 67.25721785895679 20.5 2.0000000000000004
  endloop
 endfacet
 facet normal -0.47661642268245114 -0.30603188563743794 0.8241245479917324
  outer loop
   vertex 57.94751702052493 34.998999999999995 2.0000000000000004
   vertex 54.4892872627106 34.998999999999995 0
   vertex 67.25721785895679 20.5 2.0000000000000004
  endloop
 endfacet
 facet normal 0.0 1.0 0.0
  outer loop
   vertex 87.27537614367053 34.998999999999995 0
   vertex 54.4892872627106 34.998999999999995 0
   vertex 57.94751702052493 34.998999999999995 2.0000000000000004
  endloop
 endfacet
 facet normal 0.0 1.0 0.0
  outer loop
   vertex 83.81714638585619 34.998999999999995 2.0000000000000004
   vertex 87.27537614367053 34.998999999999995 0
   vertex 57.94751702052493 34.998999999999995 2.0000000000000004
  endloop
 endfacet
 facet normal 0.47661642268245036 0.3060318856374373 0.8241245479917331
  outer loop
   vertex 98.45356649447129 17.59 0
   vertex 87.27537614367053 34.998999999999995 0
   vertex 83.81714638585619 34.998999999999995 2.0000000000000004
  endloop
 endfacet
 facet normal 0.47661642268244975 0.3060318856374366 0.8241245479917337
  outer loop
   vertex 93.12684722428804 20.5 2.0000000000000004
   vertex 98.45356649447129 17.59 0
   vertex 83.81714638585619 34.998999999999995 2.0000000000000004
  endloop
 endfacet
 facet normal 0.0 0.0 1.0
  outer loop
   vertex 93.12684722428804 20.5 2.0000000000000004
   vertex 57.94751702052493 34.998999999999995 2.0000000000000004
   vertex 67.25721785895679 20.5 2.0000000000000004
  endloop
 endfacet
 facet normal 0.0 0.0 1.0
  outer loop
   vertex 93.12684722428804 20.5 2.0000000000000004
   vertex 83.81714638585619 34.998999999999995 2.0000000000000004
   vertex 57.94751702052493 34.998999999999995 2.0000000000000004
  endloop
 endfacet
 facet normal 0.0 0.0 -1.0
  outer loop
   vertex 98.66747761351132 17.409999999999997 0
   vertex 119.99892833025625 17.409999999999997 0
   vertex 119.98506507415348 0.001 0
  endloop
 endfacet
 facet normal 0.0 -0.0 -1.0
  outer loop
   vertex 98.66747761351132 17.409999999999997 0
   vertex 119.98506507415348 0.001 0
   vertex 87.48928726271056 0.001 0
  endloop
 endfacet
 facet normal 0.0 0.5664086240493009 0.8241245479917327
  outer loop
   vertex 119.99892833025625 17.409999999999997 0
   vertex 98.66747761351132 17.409999999999997 0
   vertex 100.25721785895676 14.499999999999996 2.0000000000000004
  endloop
 endfacet
 facet normal 0.0 0.5664086240493009 0.8241245479917327
  outer loop
   vertex 119.99661101879327 14.499999999999996 2.0000000000000004
   vertex 119.99892833025625 17.409999999999997 0
   vertex 100.25721785895676 14.499999999999996 2.0000000000000004
  endloop
 endfacet
 facet normal 0.9999996829318346 -0.000796326710734052 -3.7905026195177384e-15
  outer loop
   vertex 119.98506507415348 0.001 0
   vertex 119.99892833025625 17.409999999999997 0
   vertex 119.99661101879327 14.499999999999996 2.0000000000000004
  endloop
 endfacet
 facet normal 0.9999996829318346 -0.0007963267107345747 0.0
  outer loop
   vertex 119.98506507415348 0.001 2.0000000000000004
   vertex 119.98506507415348 0.001 0
   vertex 119.99661101879327 14.499999999999996 2.0000000000000004
  endloop
 endfacet
 facet normal 0.0 -1.0 0.0
  outer loop
   vertex 87.48928726271056 0.001 0
   vertex 119.98506507415348 0.001 0
   vertex 119.98506507415348 0.001 2.0000000000000004
  endloop
 endfacet
 facet normal 0.0 -1.0 -0.0
  outer loop
   vertex 90.9475170205249 0.001 2.0000000000000004
   vertex 87.48928726271056 0.001 0
   vertex 119.98506507415348 0.001 2.0000000000000004
  endloop
 endfacet
 facet normal -0.4766164226824506 0.3060318856374374 0.8241245479917331
  outer loop
   vertex 98.66747761351132 17.409999999999997 0
   vertex 87.48928726271056 0.001 0
   vertex 90.9475170205249 0.001 2.0000000000000004
  endloop
 endfacet
 facet normal -0.47661642268244975 0.306031885637437 0.8241245479917335
  outer loop
   vertex 100.25721785895676 14.499999999999996 2.0000000000000004
   vertex 98.66747761351132 17.409999999999997 0
   vertex 90.9475170205249 0.001 2.0000000000000004
  endloop
 endfacet
 facet normal -0.0 0.0 1.0
  outer loop
   vertex 100.25721785895676 14.499999999999996 2.0000000000000004
   vertex 119.98506507415348 0.001 2.0000000000000004
   vertex 119.99661101879327 14.499999999999996 2.0000000000000004
  endloop
 endfacet
 facet normal 0.0 0.0 1.0
  outer loop
   vertex 100.25721785895676 14.499999999999996 2.0000000000000004
   vertex 90.9475170205249 0.001 2.0000000000000004
   vertex 119.98506507415348 0.001 2.0000000000000004
  endloop
 endfacet
 facet normal 0.0 0.0 -1.0
  outer loop
   vertex 119.99892833025625 17.589999999999996 0
   vertex 98.66747761351135 17.589999999999996 0
   vertex 87.48928726271056 34.99900000000002 0
  endloop
 endfacet
 facet normal 0.0 0.0 -1.0
  outer loop
   vertex 119.99892833025625 17.589999999999996 0
   vertex 87.48928726271056 34.99900000000002 0
   vertex 119.98506507415348 34.99900000000002 0
  endloop
 endfacet
 facet normal 0.0 -0.5664086240493009 0.8241245479917327
  outer loop
   vertex 98.66747761351135 17.589999999999996 0
   vertex 119.99892833025625 17.589999999999996 0
   vertex 119.99661101879327 20.499999999999996 2.0000000000000004
  endloop
 endfacet
 facet normal 0.0 -0.5664086240493008 0.8241245479917326
  outer loop
   vertex 100.25721785895678 20.499999999999996 2.0000000000000004
   vertex 98.66747761351135 17.589999999999996 0
   vertex 119.99661101879327 20.499999999999996 2.0000000000000004
  endloop
 endfacet
 facet normal -0.47661642268245097 -0.306031885637438 0.8241245479917325
  outer loop
   vertex 87.48928726271056 34.99900000000002 0
   vertex 98.66747761351135 17.589999999999996 0
   vertex 100.25721785895678 20.499999999999996 2.0000000000000004
  endloop
 endfacet
 facet normal -0.47661642268245047 -0.3060318856374375 0.824124547991733
  outer loop
   vertex 90.9475170205249 34.99900000000002 2.0000000000000004
   vertex 87.48928726271056 34.99900000000002 0
   vertex 100.25721785895678 20.499999999999996 2.0000000000000004
  endloop
 endfacet
 facet normal 0.0 1.0 0.0
  outer loop
   vertex 119.98506507415348 34.99900000000002 0
   vertex 87.48928726271056 34.99900000000002 0
   vertex 90.9475170205249 34.99900000000002 2.0000000000000004
  endloop
 endfacet
 facet normal 0.0 1.0 0.0
  outer loop
   vertex 119.98506507415348 34.99900000000002 2.0000000000000004
   vertex 119.98506507415348 34.99900000000002 0
   vertex 90.9475170205249 34.99900000000002 2.0000000000000004
  endloop
 endfacet
 facet normal 0.9999996829318346 0.0007963267107340509 0.0
  outer loop
   vertex 119.99892833025625 17.589999999999996 0
   vertex 119.98506507415348 34.99900000000002 0
   vertex 119.98506507415348 34.99900000000002 2.0000000000000004
  endloop
 endfacet
 facet normal 0.9999996829318346 0.0007963267107345735 -4.550073306705612e-15
  outer loop
   vertex 119.99661101879327 20.499999999999996 2.0000000000000004
   vertex 119.99892833025625 17.589999999999996 0
   vertex 119.98506507415348 34.99900000000002 2.0000000000000004
  endloop
 endfacet
 facet normal 0.0 0.0 1.0
  outer loop
   vertex 119.99661101879327 20.499999999999996 2.0000000000000004
   vertex 90.9475170205249 34.99900000000002 2.0000000000000004
   vertex 100.25721785895678 20.499999999999996 2.0000000000000004
  endloop
 endfacet
 facet normal 0.0 0.0 1.0
  outer loop
   vertex 119.99661101879327 20.499999999999996 2.0000000000000004
   vertex 119.98506507415348 34.99900000000002 2.0000000000000004
   vertex 90.9475170205249 34.99900000000002 2.0000000000000004
  endloop
 endfacet
endsolid
