solid PyGamic generated __All_Units__ SLA File
 facet normal 0.0 0.0 -1.0
  outer loop
   vertex 0.9848701047670253 1.0 0
   vertex 0.9992039901050428 19.0 0
   vertex 27.59239280936826 19.0 0
  endloop
 endfacet
 facet normal 0.0 0.0 -1.0
  outer loop
   vertex 0.9848701047670253 1.0 0
   vertex 27.59239280936826 19.0 0
   vertex 9.578053216801454 1.0 0
  endloop
 endfacet
 facet normal 0.0 0.0 1.0
  outer loop
   vertex 2.42601727217237 2.44 0.24
   vertex 24.113966780805107 17.56 0.24
   vertex 2.4380577358563045 17.56 0.24
  endloop
 endfacet
 facet normal 0.0 0.0 1.0
  outer loop
   vertex 2.42601727217237 2.44 0.24
   vertex 8.98192152304899 2.44 0.24
   vertex 24.113966780805107 17.56 0.24
  endloop
 endfacet
 facet normal -0.5148741260699664 0.00041000814925549236 -0.8572656917181546
  outer loop
   vertex 0.9992039901050428 19.0 0
   vertex 0.9848701047670253 1.0 0
   vertex -0.01492574262043236 0.001 0.6
  endloop
 endfacet
 facet normal -0.5148741260699665 0.00041000814925549166 -0.8572656917181544
  outer loop
   vertex 0.0009044410814814823 19.88 0.6
   vertex 0.9992039901050428 19.0 0
   vertex -0.01492574262043236 0.001 0.6
  endloop
 endfacet
 facet normal 0.0 0.5633368246415101 -0.8262273428075473
  outer loop
   vertex 27.59239280936826 19.0 0
   vertex 0.9992039901050428 19.0 0
   vertex 0.0009044410814814823 19.88 0.6
  endloop
 endfacet
 facet normal 0.0 0.5633368246415102 -0.8262273428075474
  outer loop
   vertex 29.718097604601294 19.88 0.6
   vertex 27.59239280936826 19.0 0
   vertex 0.0009044410814814823 19.88 0.6
  endloop
 endfacet
 facet normal 0.39818065310055745 -0.39849786134130455 -0.8262273428075471
  outer loop
   vertex 9.578053216801454 1.0 0
   vertex 27.59239280936826 19.0 0
   vertex 29.718097604601294 19.88 0.6
  endloop
 endfacet
 facet normal 0.39818065310055684 -0.39849786134130377 -0.8262273428075477
  outer loop
   vertex 9.823261117899323 0.001 0.6
   vertex 9.578053216801454 1.0 0
   vertex 29.718097604601294 19.88 0.6
  endloop
 endfacet
 facet normal 0.0 -0.5148742893202128 -0.8572656917181543
  outer loop
   vertex 0.9848701047670253 1.0 0
   vertex 9.578053216801454 1.0 0
   vertex 9.823261117899323 0.001 0.6
  endloop
 endfacet
 facet normal 0.0 -0.5148742893202128 -0.8572656917181545
  outer loop
   vertex -0.01492574262043236 0.001 0.6
   vertex 0.9848701047670253 1.0 0
   vertex 9.823261117899323 0.001 0.6
  endloop
 endfacet
 facet normal 0.3786327256680823 -0.00030151544860818324 0.9255469562056768
  outer loop
   vertex 2.4380577358563045 17.56 0.24
   vertex 1.5453162254246593 1.56 0.6
   vertex 2.42601727217237 2.44 0.24
  endloop
 endfacet
 facet normal 0.37863272566808237 -0.00030151544860818725 0.9255469562056767
  outer loop
   vertex 1.558758224563867 18.44 0.6
   vertex 1.5453162254246593 1.56 0.6
   vertex 2.4380577358563045 17.56 0.24
  endloop
 endfacet
 facet normal 0.0 -0.3786328457205032 0.9255469562056772
  outer loop
   vertex 24.113966780805107 17.56 0.24
   vertex 1.558758224563867 18.44 0.6
   vertex 2.4380577358563045 17.56 0.24
  endloop
 endfacet
 facet normal 0.0 -0.37863284572050315 0.9255469562056772
  outer loop
   vertex 26.239671576038145 18.44 0.6
   vertex 1.558758224563867 18.44 0.6
   vertex 24.113966780805107 17.56 0.24
  endloop
 endfacet
 facet normal -0.2676272297488359 0.26784043338407937 0.9255469562056765
  outer loop
   vertex 8.98192152304899 2.44 0.24
   vertex 26.239671576038145 18.44 0.6
   vertex 24.113966780805107 17.56 0.24
  endloop
 endfacet
 facet normal -0.26762722974883535 0.2678404333840787 0.9255469562056767
  outer loop
   vertex 9.346224224786607 1.56 0.6
   vertex 26.239671576038145 18.44 0.6
   vertex 8.98192152304899 2.44 0.24
  endloop
 endfacet
 facet normal -0.0 0.3786328457205042 0.9255469562056767
  outer loop
   vertex 2.42601727217237 2.44 0.24
   vertex 9.346224224786607 1.56 0.6
   vertex 8.98192152304899 2.44 0.24
  endloop
 endfacet
 facet normal -0.0 0.3786328457205042 0.9255469562056767
  outer loop
   vertex 1.5453162254246593 1.56 0.6
   vertex 9.346224224786607 1.56 0.6
   vertex 2.42601727217237 2.44 0.24
  endloop
 endfacet
 facet normal 0.0 0.0 1.0
  outer loop
   vertex 0.0009044410814814823 19.88 0.6
   vertex -0.01492574262043236 0.001 0.6
   vertex 1.5453162254246593 1.56 0.6
  endloop
 endfacet
 facet normal 0.0 0.0 1.0
  outer loop
   vertex 1.558758224563867 18.44 0.6
   vertex 0.0009044410814814823 19.88 0.6
   vertex 1.5453162254246593 1.56 0.6
  endloop
 endfacet
 facet normal 0.0 0.0 1.0
  outer loop
   vertex 29.718097604601294 19.88 0.6
   vertex 0.0009044410814814823 19.88 0.6
   vertex 1.558758224563867 18.44 0.6
  endloop
 endfacet
 facet normal 0.0 -0.0 1.0
  outer loop
   vertex 26.239671576038145 18.44 0.6
   vertex 29.718097604601294 19.88 0.6
   vertex 1.558758224563867 18.44 0.6
  endloop
 endfacet
 facet normal 0.0 0.0 1.0
  outer loop
   vertex 9.823261117899323 0.001 0.6
   vertex 29.718097604601294 19.88 0.6
   vertex 26.239671576038145 18.44 0.6
  endloop
 endfacet
 facet normal -0.0 0.0 1.0
  outer loop
   vertex 9.346224224786607 1.56 0.6
   vertex 9.823261117899323 0.001 0.6
   vertex 26.239671576038145 18.44 0.6
  endloop
 endfacet
 facet normal 0.0 0.0 1.0
  outer loop
   vertex -0.01492574262043236 0.001 0.6
   vertex 9.823261117899323 0.001 0.6
   vertex 9.346224224786607 1.56 0.6
  endloop
 endfacet
 facet normal -0.0 0.0 1.0
  outer loop
   vertex 1.5453162254246593 1.56 0.6
   vertex -0.01492574262043236 0.001 0.6
   vertex 9.346224224786607 1.56 0.6
  endloop
 endfacet
 facet normal -0.5148741260699665 0.00041000814925549166 0.8572656917181544
  outer loop
   vertex 0.0009044410814814823 19.88 0.84
   vertex -0.01492574262043236 0.001 0.84
   vertex 0.9848701047670253 1.0 1.44
  endloop
 endfacet
 facet normal -0.5148741260699664 0.00041000814925549236 0.8572656917181546
  outer loop
   vertex 0.9992039901050428 19.0 1.44
   vertex 0.0009044410814814823 19.88 0.84
   vertex 0.9848701047670253 1.0 1.44
  endloop
 endfacet
 facet normal 0.0 0.5633368246415102 0.8262273428075474
  outer loop
   vertex 29.718097604601294 19.88 0.84
   vertex 0.0009044410814814823 19.88 0.84
   vertex 0.9992039901050428 19.0 1.44
  endloop
 endfacet
 facet normal 0.0 0.5633368246415101 0.8262273428075473
  outer loop
   vertex 27.59239280936826 19.0 1.44
   vertex 29.718097604601294 19.88 0.84
   vertex 0.9992039901050428 19.0 1.44
  endloop
 endfacet
 facet normal 0.3981806531005575 -0.39849786134130444 0.8262273428075472
  outer loop
   vertex 9.823261117899323 0.001 0.84
   vertex 29.718097604601294 19.88 0.84
   vertex 27.59239280936826 19.0 1.44
  endloop
 endfacet
 facet normal 0.3981806531005567 -0.3984978613413038 0.8262273428075477
  outer loop
   vertex 9.578053216801454 1.0 1.44
   vertex 9.823261117899323 0.001 0.84
   vertex 27.59239280936826 19.0 1.44
  endloop
 endfacet
 facet normal 0.0 -0.5148742893202128 0.8572656917181545
  outer loop
   vertex -0.01492574262043236 0.001 0.84
   vertex 9.823261117899323 0.001 0.84
   vertex 9.578053216801454 1.0 1.44
  endloop
 endfacet
 facet normal 0.0 -0.5148742893202128 0.8572656917181543
  outer loop
   vertex 0.9848701047670253 1.0 1.44
   vertex -0.01492574262043236 0.001 0.84
   vertex 9.578053216801454 1.0 1.44
  endloop
 endfacet
 facet normal 0.37863272566808237 -0.00030151544860818725 -0.9255469562056768
  outer loop
   vertex 1.558758224563867 18.44 0.84
   vertex 2.42601727217237 2.44 1.2
   vertex 1.5453162254246593 1.56 0.84
  endloop
 endfacet
 facet normal 0.37863272566808237 -0.0003015154486081833 -0.9255469562056768
  outer loop
   vertex 2.4380577358563045 17.56 1.2
   vertex 2.42601727217237 2.44 1.2
   vertex 1.558758224563867 18.44 0.84
  endloop
 endfacet
 facet normal -0.0 -0.37863284572050315 -0.9255469562056772
  outer loop
   vertex 26.239671576038145 18.44 0.84
   vertex 2.4380577358563045 17.56 1.2
   vertex 1.558758224563867 18.44 0.84
  endloop
 endfacet
 facet normal -0.0 -0.3786328457205032 -0.9255469562056772
  outer loop
   vertex 24.113966780805107 17.56 1.2
   vertex 2.4380577358563045 17.56 1.2
   vertex 26.239671576038145 18.44 0.84
  endloop
 endfacet
 facet normal -0.26762722974883624 0.26784043338407965 -0.9255469562056763
  outer loop
   vertex 9.346224224786607 1.56 0.84
   vertex 24.113966780805107 17.56 1.2
   vertex 26.239671576038145 18.44 0.84
  endloop
 endfacet
 facet normal -0.2676272297488353 0.26784043338407876 -0.9255469562056768
  outer loop
   vertex 8.98192152304899 2.44 1.2
   vertex 24.113966780805107 17.56 1.2
   vertex 9.346224224786607 1.56 0.84
  endloop
 endfacet
 facet normal 0.0 0.3786328457205042 -0.9255469562056767
  outer loop
   vertex 1.5453162254246593 1.56 0.84
   vertex 8.98192152304899 2.44 1.2
   vertex 9.346224224786607 1.56 0.84
  endloop
 endfacet
 facet normal 0.0 0.3786328457205042 -0.9255469562056767
  outer loop
   vertex 2.42601727217237 2.44 1.2
   vertex 8.98192152304899 2.44 1.2
   vertex 1.5453162254246593 1.56 0.84
  endloop
 endfacet
 facet normal 0.0 0.0 1.0
  outer loop
   vertex 0.9848701047670253 1.0 1.44
   vertex 27.59239280936826 19.0 1.44
   vertex 0.9992039901050428 19.0 1.44
  endloop
 endfacet
 facet normal 0.0 0.0 1.0
  outer loop
   vertex 0.9848701047670253 1.0 1.44
   vertex 9.578053216801454 1.0 1.44
   vertex 27.59239280936826 19.0 1.44
  endloop
 endfacet
 facet normal 0.0 0.0 -1.0
  outer loop
   vertex 2.42601727217237 2.44 1.2
   vertex 2.4380577358563045 17.56 1.2
   vertex 24.113966780805107 17.56 1.2
  endloop
 endfacet
 facet normal 0.0 0.0 -1.0
  outer loop
   vertex 2.42601727217237 2.44 1.2
   vertex 24.113966780805107 17.56 1.2
   vertex 8.98192152304899 2.44 1.2
  endloop
 endfacet
 facet normal 0.0 -0.0 -1.0
  outer loop
   vertex 0.0009044410814814823 19.88 0.84
   vertex 1.5453162254246593 1.56 0.84
   vertex -0.01492574262043236 0.001 0.84
  endloop
 endfacet
 facet normal -0.0 0.0 -1.0
  outer loop
   vertex 1.558758224563867 18.44 0.84
   vertex 1.5453162254246593 1.56 0.84
   vertex 0.0009044410814814823 19.88 0.84
  endloop
 endfacet
 facet normal -0.0 0.0 -1.0
  outer loop
   vertex 29.718097604601294 19.88 0.84
   vertex 1.558758224563867 18.44 0.84
   vertex 0.0009044410814814823 19.88 0.84
  endloop
 endfacet
 facet normal 0.0 0.0 -1.0
  outer loop
   vertex 26.239671576038145 18.44 0.84
   vertex 1.558758224563867 18.44 0.84
   vertex 29.718097604601294 19.88 0.84
  endloop
 endfacet
 facet normal 0.0 0.0 -1.0
  outer loop
   vertex 9.823261117899323 0.001 0.84
   vertex 26.239671576038145 18.44 0.84
   vertex 29.718097604601294 19.88 0.84
  endloop
 endfacet
 facet normal 0.0 0.0 -1.0
  outer loop
   vertex 9.346224224786607 1.56 0.84
   vertex 26.239671576038145 18.44 0.84
   vertex 9.823261117899323 0.001 0.84
  endloop
 endfacet
 facet normal 0.0 0.0 -1.0
  outer loop
   vertex -0.01492574262043236 0.001 0.84
   vertex 9.346224224786607 1.56 0.84
   vertex 9.823261117899323 0.001 0.84
  endloop
 endfacet
 facet normal 0.0 -0.0 -1.0
  outer loop
   vertex 1.5453162254246593 1.56 0.84
   vertex 9.346224224786607 1.56 0.84
   vertex -0.01492574262043236 0.001 0.84
  endloop
 endfacet
 facet normal 0.0 0.0 -1.0
  outer loop
   vertex 0.9992039901050428 21.0 0
   vertex 0.9848701047670253 39.0 0
   vertex 9.578053216801456 39.0 0
  endloop
 endfacet
 facet normal 0.0 0.0 -1.0
  outer loop
   vertex 0.9992039901050428 21.0 0
   vertex 9.578053216801456 39.0 0
   vertex 27.59239280936826 21.0 0
  endloop
 endfacet
 facet normal 0.0 -0.0 1.0
  outer loop
   vertex 2.4380577358563045 22.44 0.24
   vertex 8.981921523048987 37.56 0.24
   vertex 2.42601727217237 37.56 0.24
  endloop
 endfacet
 facet normal 0.0 0.0 1.0
  outer loop
   vertex 2.4380577358563045 22.44 0.24
   vertex 24.113966780805104 22.44 0.24
   vertex 8.981921523048987 37.56 0.24
  endloop
 endfacet
 facet normal -0.5148741260699664 -0.00041000814925549236 -0.8572656917181544
  outer loop
   vertex 0.9848701047670253 39.0 0
   vertex 0.9992039901050428 21.0 0
   vertex 0.0009044410814814823 20.12 0.6
  endloop
 endfacet
 facet normal -0.5148741260699665 -0.00041000814925549166 -0.8572656917181544
  outer loop
   vertex -0.014925742620432364 39.999 0.6
   vertex 0.9848701047670253 39.0 0
   vertex 0.0009044410814814823 20.12 0.6
  endloop
 endfacet
 facet normal 0.0 0.514874289320212 -0.857265691718155
  outer loop
   vertex 9.578053216801456 39.0 0
   vertex 0.9848701047670253 39.0 0
   vertex -0.014925742620432364 39.999 0.6
  endloop
 endfacet
 facet normal 0.0 0.5148742893202121 -0.8572656917181549
  outer loop
   vertex 9.823261117899321 39.999 0.6
   vertex 9.578053216801456 39.0 0
   vertex -0.014925742620432364 39.999 0.6
  endloop
 endfacet
 facet normal 0.3981806531005568 0.3984978613413038 -0.8262273428075477
  outer loop
   vertex 27.59239280936826 21.0 0
   vertex 9.578053216801456 39.0 0
   vertex 9.823261117899321 39.999 0.6
  endloop
 endfacet
 facet normal 0.3981806531005572 0.39849786134130416 -0.8262273428075474
  outer loop
   vertex 29.718097604601294 20.12 0.6
   vertex 27.59239280936826 21.0 0
   vertex 9.823261117899321 39.999 0.6
  endloop
 endfacet
 facet normal 0.0 -0.5633368246415101 -0.8262273428075473
  outer loop
   vertex 0.9992039901050428 21.0 0
   vertex 27.59239280936826 21.0 0
   vertex 29.718097604601294 20.12 0.6
  endloop
 endfacet
 facet normal 0.0 -0.5633368246415102 -0.8262273428075474
  outer loop
   vertex 0.0009044410814814823 20.12 0.6
   vertex 0.9992039901050428 21.0 0
   vertex 29.718097604601294 20.12 0.6
  endloop
 endfacet
 facet normal 0.3786327256680823 0.0003015154486081832 0.9255469562056767
  outer loop
   vertex 2.42601727217237 37.56 0.24
   vertex 1.558758224563867 21.56 0.6
   vertex 2.4380577358563045 22.44 0.24
  endloop
 endfacet
 facet normal 0.3786327256680823 0.00030151544860818725 0.9255469562056767
  outer loop
   vertex 1.5453162254246593 38.44 0.6
   vertex 1.558758224563867 21.56 0.6
   vertex 2.42601727217237 37.56 0.24
  endloop
 endfacet
 facet normal 0.0 -0.37863284572050576 0.925546956205676
  outer loop
   vertex 8.981921523048987 37.56 0.24
   vertex 1.5453162254246593 38.44 0.6
   vertex 2.42601727217237 37.56 0.24
  endloop
 endfacet
 facet normal 0.0 -0.3786328457205058 0.9255469562056761
  outer loop
   vertex 9.346224224786607 38.44 0.6
   vertex 1.5453162254246593 38.44 0.6
   vertex 8.981921523048987 37.56 0.24
  endloop
 endfacet
 facet normal -0.26762722974883557 -0.267840433384079 0.9255469562056766
  outer loop
   vertex 24.113966780805104 22.44 0.24
   vertex 9.346224224786607 38.44 0.6
   vertex 8.981921523048987 37.56 0.24
  endloop
 endfacet
 facet normal -0.26762722974883574 -0.2678404333840791 0.9255469562056766
  outer loop
   vertex 26.23967157603814 21.56 0.6
   vertex 9.346224224786607 38.44 0.6
   vertex 24.113966780805104 22.44 0.24
  endloop
 endfacet
 facet normal -0.0 0.3786328457205032 0.9255469562056772
  outer loop
   vertex 2.4380577358563045 22.44 0.24
   vertex 26.23967157603814 21.56 0.6
   vertex 24.113966780805104 22.44 0.24
  endloop
 endfacet
 facet normal -0.0 0.3786328457205032 0.9255469562056771
  outer loop
   vertex 1.558758224563867 21.56 0.6
   vertex 26.23967157603814 21.56 0.6
   vertex 2.4380577358563045 22.44 0.24
  endloop
 endfacet
 facet normal 0.0 0.0 1.0
  outer loop
   vertex -0.014925742620432364 39.999 0.6
   vertex 0.0009044410814814823 20.12 0.6
   vertex 1.558758224563867 21.56 0.6
  endloop
 endfacet
 facet normal 0.0 0.0 1.0
  outer loop
   vertex 1.5453162254246593 38.44 0.6
   vertex -0.014925742620432364 39.999 0.6
   vertex 1.558758224563867 21.56 0.6
  endloop
 endfacet
 facet normal 0.0 0.0 1.0
  outer loop
   vertex 9.823261117899321 39.999 0.6
   vertex -0.014925742620432364 39.999 0.6
   vertex 1.5453162254246593 38.44 0.6
  endloop
 endfacet
 facet normal 0.0 -0.0 1.0
  outer loop
   vertex 9.346224224786607 38.44 0.6
   vertex 9.823261117899321 39.999 0.6
   vertex 1.5453162254246593 38.44 0.6
  endloop
 endfacet
 facet normal 0.0 0.0 1.0
  outer loop
   vertex 29.718097604601294 20.12 0.6
   vertex 9.823261117899321 39.999 0.6
   vertex 9.346224224786607 38.44 0.6
  endloop
 endfacet
 facet normal -0.0 -0.0 1.0
  outer loop
   vertex 26.23967157603814 21.56 0.6
   vertex 29.718097604601294 20.12 0.6
   vertex 9.346224224786607 38.44 0.6
  endloop
 endfacet
 facet normal 0.0 0.0 1.0
  outer loop
   vertex 0.0009044410814814823 20.12 0.6
   vertex 29.718097604601294 20.12 0.6
   vertex 26.23967157603814 21.56 0.6
  endloop
 endfacet
 facet normal -0.0 0.0 1.0
  outer loop
   vertex 1.558758224563867 21.56 0.6
   vertex 0.0009044410814814823 20.12 0.6
   vertex 26.23967157603814 21.56 0.6
  endloop
 endfacet
 facet normal -0.5148741260699665 -0.00041000814925549166 0.8572656917181544
  outer loop
   vertex -0.014925742620432364 39.999 0.84
   vertex 0.0009044410814814823 20.12 0.84
   vertex 0.9992039901050428 21.0 1.44
  endloop
 endfacet
 facet normal -0.5148741260699664 -0.00041000814925549236 0.8572656917181544
  outer loop
   vertex 0.9848701047670253 39.0 1.44
   vertex -0.014925742620432364 39.999 0.84
   vertex 0.9992039901050428 21.0 1.44
  endloop
 endfacet
 facet normal 0.0 0.5148742893202121 0.8572656917181549
  outer loop
   vertex 9.823261117899321 39.999 0.84
   vertex -0.014925742620432364 39.999 0.84
   vertex 0.9848701047670253 39.0 1.44
  endloop
 endfacet
 facet normal 0.0 0.514874289320212 0.857265691718155
  outer loop
   vertex 9.578053216801456 39.0 1.44
   vertex 9.823261117899321 39.999 0.84
   vertex 0.9848701047670253 39.0 1.44
  endloop
 endfacet
 facet normal 0.3981806531005569 0.3984978613413038 0.8262273428075476
  outer loop
   vertex 29.718097604601294 20.12 0.84
   vertex 9.823261117899321 39.999 0.84
   vertex 9.578053216801456 39.0 1.44
  endloop
 endfacet
 facet normal 0.3981806531005572 0.3984978613413043 0.8262273428075474
  outer loop
   vertex 27.59239280936826 21.0 1.44
   vertex 29.718097604601294 20.12 0.84
   vertex 9.578053216801456 39.0 1.44
  endloop
 endfacet
 facet normal 0.0 -0.5633368246415102 0.8262273428075474
  outer loop
   vertex 0.0009044410814814823 20.12 0.84
   vertex 29.718097604601294 20.12 0.84
   vertex 27.59239280936826 21.0 1.44
  endloop
 endfacet
 facet normal 0.0 -0.5633368246415101 0.8262273428075473
  outer loop
   vertex 0.9992039901050428 21.0 1.44
   vertex 0.0009044410814814823 20.12 0.84
   vertex 27.59239280936826 21.0 1.44
  endloop
 endfacet
 facet normal 0.37863272566808237 0.0003015154486081873 -0.9255469562056767
  outer loop
   vertex 1.5453162254246593 38.44 0.84
   vertex 2.4380577358563045 22.44 1.2
   vertex 1.558758224563867 21.56 0.84
  endloop
 endfacet
 facet normal 0.3786327256680823 0.00030151544860818313 -0.9255469562056767
  outer loop
   vertex 2.42601727217237 37.56 1.2
   vertex 2.4380577358563045 22.44 1.2
   vertex 1.5453162254246593 38.44 0.84
  endloop
 endfacet
 facet normal -0.0 -0.3786328457205058 -0.9255469562056761
  outer loop
   vertex 9.346224224786607 38.44 0.84
   vertex 2.42601727217237 37.56 1.2
   vertex 1.5453162254246593 38.44 0.84
  endloop
 endfacet
 facet normal -0.0 -0.37863284572050576 -0.925546956205676
  outer loop
   vertex 8.981921523048987 37.56 1.2
   vertex 2.42601727217237 37.56 1.2
   vertex 9.346224224786607 38.44 0.84
  endloop
 endfacet
 facet normal -0.2676272297488359 -0.26784043338407926 -0.9255469562056766
  outer loop
   vertex 26.23967157603814 21.56 0.84
   vertex 8.981921523048987 37.56 1.2
   vertex 9.346224224786607 38.44 0.84
  endloop
 endfacet
 facet normal -0.2676272297488356 -0.26784043338407904 -0.9255469562056766
  outer loop
   vertex 24.113966780805104 22.44 1.2
   vertex 8.981921523048987 37.56 1.2
   vertex 26.23967157603814 21.56 0.84
  endloop
 endfacet
 facet normal 0.0 0.3786328457205032 -0.9255469562056771
  outer loop
   vertex 1.558758224563867 21.56 0.84
   vertex 24.113966780805104 22.44 1.2
   vertex 26.23967157603814 21.56 0.84
  endloop
 endfacet
 facet normal 0.0 0.3786328457205032 -0.9255469562056772
  outer loop
   vertex 2.4380577358563045 22.44 1.2
   vertex 24.113966780805104 22.44 1.2
   vertex 1.558758224563867 21.56 0.84
  endloop
 endfacet
 facet normal 0.0 -0.0 1.0
  outer loop
   vertex 0.9992039901050428 21.0 1.44
   vertex 9.578053216801456 39.0 1.44
   vertex 0.9848701047670253 39.0 1.44
  endloop
 endfacet
 facet normal 0.0 0.0 1.0
  outer loop
   vertex 0.9992039901050428 21.0 1.44
   vertex 27.59239280936826 21.0 1.44
   vertex 9.578053216801456 39.0 1.44
  endloop
 endfacet
 facet normal 0.0 0.0 -1.0
  outer loop
   vertex 2.4380577358563045 22.44 1.2
   vertex 2.42601727217237 37.56 1.2
   vertex 8.981921523048987 37.56 1.2
  endloop
 endfacet
 facet normal 0.0 0.0 -1.0
  outer loop
   vertex 2.4380577358563045 22.44 1.2
   vertex 8.981921523048987 37.56 1.2
   vertex 24.113966780805104 22.44 1.2
  endloop
 endfacet
 facet normal 0.0 0.0 -1.0
  outer loop
   vertex -0.014925742620432364 39.999 0.84
   vertex 1.558758224563867 21.56 0.84
   vertex 0.0009044410814814823 20.12 0.84
  endloop
 endfacet
 facet normal -0.0 -0.0 -1.0
  outer loop
   vertex 1.5453162254246593 38.44 0.84
   vertex 1.558758224563867 21.56 0.84
   vertex -0.014925742620432364 39.999 0.84
  endloop
 endfacet
 facet normal -0.0 0.0 -1.0
  outer loop
   vertex 9.823261117899321 39.999 0.84
   vertex 1.5453162254246593 38.44 0.84
   vertex -0.014925742620432364 39.999 0.84
  endloop
 endfacet
 facet normal 0.0 0.0 -1.0
  outer loop
   vertex 9.346224224786607 38.44 0.84
   vertex 1.5453162254246593 38.44 0.84
   vertex 9.823261117899321 39.999 0.84
  endloop
 endfacet
 facet normal 0.0 0.0 -1.0
  outer loop
   vertex 29.718097604601294 20.12 0.84
   vertex 9.346224224786607 38.44 0.84
   vertex 9.823261117899321 39.999 0.84
  endloop
 endfacet
 facet normal 0.0 0.0 -1.0
  outer loop
   vertex 26.23967157603814 21.56 0.84
   vertex 9.346224224786607 38.44 0.84
   vertex 29.718097604601294 20.12 0.84
  endloop
 endfacet
 facet normal 0.0 0.0 -1.0
  outer loop
   vertex 0.0009044410814814823 20.12 0.84
   vertex 26.23967157603814 21.56 0.84
   vertex 29.718097604601294 20.12 0.84
  endloop
 endfacet
 facet normal 0.0 -0.0 -1.0
  outer loop
   vertex 1.558758224563867 21.56 0.84
   vertex 26.23967157603814 21.56 0.84
   vertex 0.0009044410814814823 20.12 0.84
  endloop
 endfacet
 facet normal 0.0 0.0 -1.0
  outer loop
   vertex 12.40760719063174 1.0 0
   vertex 30.421946783198546 19.0 0
   vertex 38.99920335596851 19.0 0
  endloop
 endfacet
 facet normal 0.0 0.0 -1.0
  outer loop
   vertex 12.40760719063174 1.0 0
   vertex 38.99920335596851 19.0 0
   vertex 38.9848694706305 1.0 0
  endloop
 endfacet
 facet normal 0.0 0.0 1.0
  outer loop
   vertex 15.88603321919489 2.44 0.24
   vertex 37.55805618856317 17.56 0.24
   vertex 31.018078476951008 17.56 0.24
  endloop
 endfacet
 facet normal 0.0 0.0 1.0
  outer loop
   vertex 15.88603321919489 2.44 0.24
   vertex 37.54601572487924 2.44 0.24
   vertex 37.55805618856317 17.56 0.24
  endloop
 endfacet
 facet normal -0.3981806531005568 0.3984978613413038 -0.8262273428075477
  outer loop
   vertex 30.421946783198546 19.0 0
   vertex 12.40760719063174 1.0 0
   vertex 10.162807594758956 0.001 0.6
  endloop
 endfacet
 facet normal -0.39818065310055656 0.3984978613413036 -0.8262273428075478
  outer loop
   vertex 30.05764408146093 19.88 0.6
   vertex 30.421946783198546 19.0 0
   vertex 10.162807594758956 0.001 0.6
  endloop
 endfacet
 facet normal 0.0 0.5633368246415101 -0.8262273428075473
  outer loop
   vertex 38.99920335596851 19.0 0
   vertex 30.421946783198546 19.0 0
   vertex 30.05764408146093 19.88 0.6
  endloop
 endfacet
 facet normal 0.0 0.5633368246415101 -0.8262273428075474
  outer loop
   vertex 39.99890444044735 19.88 0.6
   vertex 38.99920335596851 19.0 0
   vertex 30.05764408146093 19.88 0.6
  endloop
 endfacet
 facet normal 0.5148741260699655 -0.00041000814925532013 -0.8572656917181549
  outer loop
   vertex 38.9848694706305 1.0 0
   vertex 38.99920335596851 19.0 0
   vertex 39.99890444044735 19.88 0.6
  endloop
 endfacet
 facet normal 0.5148741260699685 -0.0004100081492555295 -0.8572656917181533
  outer loop
   vertex 39.98307425674543 0.001 0.6
   vertex 38.9848694706305 1.0 0
   vertex 39.99890444044735 19.88 0.6
  endloop
 endfacet
 facet normal 0.0 -0.5148742893202128 -0.8572656917181544
  outer loop
   vertex 12.40760719063174 1.0 0
   vertex 38.9848694706305 1.0 0
   vertex 39.98307425674543 0.001 0.6
  endloop
 endfacet
 facet normal 0.0 -0.5148742893202128 -0.8572656917181544
  outer loop
   vertex 10.162807594758956 0.001 0.6
   vertex 12.40760719063174 1.0 0
   vertex 39.98307425674543 0.001 0.6
  endloop
 endfacet
 facet normal 0.2676272297488359 -0.26784043338407937 0.9255469562056765
  outer loop
   vertex 31.018078476951008 17.56 0.24
   vertex 13.760328423961854 1.56 0.6
   vertex 15.88603321919489 2.44 0.24
  endloop
 endfacet
 facet normal 0.2676272297488345 -0.2678404333840779 0.9255469562056773
  outer loop
   vertex 30.65377577521339 18.44 0.6
   vertex 13.760328423961854 1.56 0.6
   vertex 31.018078476951008 17.56 0.24
  endloop
 endfacet
 facet normal 0.0 -0.3786328457205032 0.9255469562056772
  outer loop
   vertex 37.55805618856317 17.56 0.24
   vertex 30.65377577521339 18.44 0.6
   vertex 31.018078476951008 17.56 0.24
  endloop
 endfacet
 facet normal 0.0 -0.37863284572050315 0.9255469562056771
  outer loop
   vertex 38.43875723531088 18.44 0.6
   vertex 30.65377577521339 18.44 0.6
   vertex 37.55805618856317 17.56 0.24
  endloop
 endfacet
 facet normal -0.3786327256680825 0.00030151544860809433 0.9255469562056766
  outer loop
   vertex 37.54601572487924 2.44 0.24
   vertex 38.43875723531088 18.44 0.6
   vertex 37.55805618856317 17.56 0.24
  endloop
 endfacet
 facet normal -0.37863272566808504 0.0003015154486082591 0.9255469562056757
  outer loop
   vertex 38.42531523617167 1.56 0.6
   vertex 38.43875723531088 18.44 0.6
   vertex 37.54601572487924 2.44 0.24
  endloop
 endfacet
 facet normal -0.0 0.37863284572050415 0.9255469562056767
  outer loop
   vertex 15.88603321919489 2.44 0.24
   vertex 38.42531523617167 1.56 0.6
   vertex 37.54601572487924 2.44 0.24
  endloop
 endfacet
 facet normal -0.0 0.3786328457205041 0.9255469562056767
  outer loop
   vertex 13.760328423961854 1.56 0.6
   vertex 38.42531523617167 1.56 0.6
   vertex 15.88603321919489 2.44 0.24
  endloop
 endfacet
 facet normal 0.0 0.0 1.0
  outer loop
   vertex 30.05764408146093 19.88 0.6
   vertex 10.162807594758956 0.001 0.6
   vertex 13.760328423961854 1.56 0.6
  endloop
 endfacet
 facet normal 0.0 0.0 1.0
  outer loop
   vertex 30.65377577521339 18.44 0.6
   vertex 30.05764408146093 19.88 0.6
   vertex 13.760328423961854 1.56 0.6
  endloop
 endfacet
 facet normal 0.0 0.0 1.0
  outer loop
   vertex 39.99890444044735 19.88 0.6
   vertex 30.05764408146093 19.88 0.6
   vertex 30.65377577521339 18.44 0.6
  endloop
 endfacet
 facet normal 0.0 -0.0 1.0
  outer loop
   vertex 38.43875723531088 18.44 0.6
   vertex 39.99890444044735 19.88 0.6
   vertex 30.65377577521339 18.44 0.6
  endloop
 endfacet
 facet normal 0.0 -0.0 1.0
  outer loop
   vertex 39.98307425674543 0.001 0.6
   vertex 39.99890444044735 19.88 0.6
   vertex 38.43875723531088 18.44 0.6
  endloop
 endfacet
 facet normal -0.0 0.0 1.0
  outer loop
   vertex 38.42531523617167 1.56 0.6
   vertex 39.98307425674543 0.001 0.6
   vertex 38.43875723531088 18.44 0.6
  endloop
 endfacet
 facet normal 0.0 0.0 1.0
  outer loop
   vertex 10.162807594758956 0.001 0.6
   vertex 39.98307425674543 0.001 0.6
   vertex 38.42531523617167 1.56 0.6
  endloop
 endfacet
 facet normal -0.0 0.0 1.0
  outer loop
   vertex 13.760328423961854 1.56 0.6
   vertex 10.162807594758956 0.001 0.6
   vertex 38.42531523617167 1.56 0.6
  endloop
 endfacet
 facet normal -0.39818065310055684 0.3984978613413038 0.8262273428075476
  outer loop
   vertex 30.05764408146093 19.88 0.84
   vertex 10.162807594758956 0.001 0.84
   vertex 12.40760719063174 1.0 1.44
  endloop
 endfacet
 facet normal -0.3981806531005566 0.3984978613413037 0.826227342807548
  outer loop
   vertex 30.421946783198546 19.0 1.44
   vertex 30.05764408146093 19.88 0.84
   vertex 12.40760719063174 1.0 1.44
  endloop
 endfacet
 facet normal 0.0 0.5633368246415101 0.8262273428075474
  outer loop
   vertex 39.99890444044735 19.88 0.84
   vertex 30.05764408146093 19.88 0.84
   vertex 30.421946783198546 19.0 1.44
  endloop
 endfacet
 facet normal 0.0 0.5633368246415101 0.8262273428075473
  outer loop
   vertex 38.99920335596851 19.0 1.44
   vertex 39.99890444044735 19.88 0.84
   vertex 30.421946783198546 19.0 1.44
  endloop
 endfacet
 facet normal 0.5148741260699657 -0.00041000814925552727 0.8572656917181549
  outer loop
   vertex 39.98307425674543 0.001 0.84
   vertex 39.99890444044735 19.88 0.84
   vertex 38.99920335596851 19.0 1.44
  endloop
 endfacet
 facet normal 0.5148741260699685 -0.0004100081492553226 0.8572656917181531
  outer loop
   vertex 38.9848694706305 1.0 1.44
   vertex 39.98307425674543 0.001 0.84
   vertex 38.99920335596851 19.0 1.44
  endloop
 endfacet
 facet normal 0.0 -0.5148742893202128 0.8572656917181544
  outer loop
   vertex 10.162807594758956 0.001 0.84
   vertex 39.98307425674543 0.001 0.84
   vertex 38.9848694706305 1.0 1.44
  endloop
 endfacet
 facet normal 0.0 -0.5148742893202128 0.8572656917181544
  outer loop
   vertex 12.40760719063174 1.0 1.44
   vertex 10.162807594758956 0.001 0.84
   vertex 38.9848694706305 1.0 1.44
  endloop
 endfacet
 facet normal 0.2676272297488356 -0.26784043338407904 -0.9255469562056766
  outer loop
   vertex 30.65377577521339 18.44 0.84
   vertex 15.88603321919489 2.44 1.2
   vertex 13.760328423961854 1.56 0.84
  endloop
 endfacet
 facet normal 0.2676272297488344 -0.26784043338407787 -0.9255469562056773
  outer loop
   vertex 31.018078476951008 17.56 1.2
   vertex 15.88603321919489 2.44 1.2
   vertex 30.65377577521339 18.44 0.84
  endloop
 endfacet
 facet normal -0.0 -0.37863284572050315 -0.9255469562056771
  outer loop
   vertex 38.43875723531088 18.44 0.84
   vertex 31.018078476951008 17.56 1.2
   vertex 30.65377577521339 18.44 0.84
  endloop
 endfacet
 facet normal -0.0 -0.3786328457205032 -0.9255469562056772
  outer loop
   vertex 37.55805618856317 17.56 1.2
   vertex 31.018078476951008 17.56 1.2
   vertex 38.43875723531088 18.44 0.84
  endloop
 endfacet
 facet normal -0.3786327256680827 0.00030151544860825723 -0.9255469562056768
  outer loop
   vertex 38.42531523617167 1.56 0.84
   vertex 37.55805618856317 17.56 1.2
   vertex 38.43875723531088 18.44 0.84
  endloop
 endfacet
 facet normal -0.3786327256680852 0.0003015154486080965 -0.9255469562056756
  outer loop
   vertex 37.54601572487924 2.44 1.2
   vertex 37.55805618856317 17.56 1.2
   vertex 38.42531523617167 1.56 0.84
  endloop
 endfacet
 facet normal 0.0 0.3786328457205041 -0.9255469562056767
  outer loop
   vertex 13.760328423961854 1.56 0.84
   vertex 37.54601572487924 2.44 1.2
   vertex 38.42531523617167 1.56 0.84
  endloop
 endfacet
 facet normal 0.0 0.37863284572050415 -0.9255469562056767
  outer loop
   vertex 15.88603321919489 2.44 1.2
   vertex 37.54601572487924 2.44 1.2
   vertex 13.760328423961854 1.56 0.84
  endloop
 endfacet
 facet normal 0.0 0.0 1.0
  outer loop
   vertex 12.40760719063174 1.0 1.44
   vertex 38.99920335596851 19.0 1.44
   vertex 30.421946783198546 19.0 1.44
  endloop
 endfacet
 facet normal 0.0 0.0 1.0
  outer loop
   vertex 12.40760719063174 1.0 1.44
   vertex 38.9848694706305 1.0 1.44
   vertex 38.99920335596851 19.0 1.44
  endloop
 endfacet
 facet normal 0.0 0.0 -1.0
  outer loop
   vertex 15.88603321919489 2.44 1.2
   vertex 31.018078476951008 17.56 1.2
   vertex 37.55805618856317 17.56 1.2
  endloop
 endfacet
 facet normal 0.0 0.0 -1.0
  outer loop
   vertex 15.88603321919489 2.44 1.2
   vertex 37.55805618856317 17.56 1.2
   vertex 37.54601572487924 2.44 1.2
  endloop
 endfacet
 facet normal 0.0 0.0 -1.0
  outer loop
   vertex 30.05764408146093 19.88 0.84
   vertex 13.760328423961854 1.56 0.84
   vertex 10.162807594758956 0.001 0.84
  endloop
 endfacet
 facet normal -0.0 0.0 -1.0
  outer loop
   vertex 30.65377577521339 18.44 0.84
   vertex 13.760328423961854 1.56 0.84
   vertex 30.05764408146093 19.88 0.84
  endloop
 endfacet
 facet normal -0.0 0.0 -1.0
  outer loop
   vertex 39.99890444044735 19.88 0.84
   vertex 30.65377577521339 18.44 0.84
   vertex 30.05764408146093 19.88 0.84
  endloop
 endfacet
 facet normal 0.0 0.0 -1.0
  outer loop
   vertex 38.43875723531088 18.44 0.84
   vertex 30.65377577521339 18.44 0.84
   vertex 39.99890444044735 19.88 0.84
  endloop
 endfacet
 facet normal 0.0 0.0 -1.0
  outer loop
   vertex 39.98307425674543 0.001 0.84
   vertex 38.43875723531088 18.44 0.84
   vertex 39.99890444044735 19.88 0.84
  endloop
 endfacet
 facet normal 0.0 0.0 -1.0
  outer loop
   vertex 38.42531523617167 1.56 0.84
   vertex 38.43875723531088 18.44 0.84
   vertex 39.98307425674543 0.001 0.84
  endloop
 endfacet
 facet normal 0.0 0.0 -1.0
  outer loop
   vertex 10.162807594758956 0.001 0.84
   vertex 38.42531523617167 1.56 0.84
   vertex 39.98307425674543 0.001 0.84
  endloop
 endfacet
 facet normal 0.0 -0.0 -1.0
  outer loop
   vertex 13.760328423961854 1.56 0.84
   vertex 38.42531523617167 1.56 0.84
   vertex 10.162807594758956 0.001 0.84
  endloop
 endfacet
 facet normal 0.0 0.0 -1.0
  outer loop
   vertex 30.42194678319854 21.0 0
   vertex 12.407607190631735 39.0 0
   vertex 38.98486947063049 39.0 0
  endloop
 endfacet
 facet normal 0.0 0.0 -1.0
  outer loop
   vertex 30.42194678319854 21.0 0
   vertex 38.98486947063049 39.0 0
   vertex 38.99920335596851 21.0 0
  endloop
 endfacet
 facet normal 0.0 -0.0 1.0
  outer loop
   vertex 31.018078476951004 22.44 0.24
   vertex 37.54601572487923 37.56 0.24
   vertex 15.886033219194886 37.56 0.24
  endloop
 endfacet
 facet normal 0.0 0.0 1.0
  outer loop
   vertex 31.018078476951004 22.44 0.24
   vertex 37.558056188563164 22.44 0.24
   vertex 37.54601572487923 37.56 0.24
  endloop
 endfacet
 facet normal -0.39818065310055745 -0.39849786134130455 -0.8262273428075471
  outer loop
   vertex 12.407607190631735 39.0 0
   vertex 30.42194678319854 21.0 0
   vertex 30.057644081460925 20.12 0.6
  endloop
 endfacet
 facet normal -0.3981806531005573 -0.3984978613413043 -0.8262273428075474
  outer loop
   vertex 10.16280759475895 39.999 0.6
   vertex 12.407607190631735 39.0 0
   vertex 30.057644081460925 20.12 0.6
  endloop
 endfacet
 facet normal 0.0 0.514874289320212 -0.857265691718155
  outer loop
   vertex 38.98486947063049 39.0 0
   vertex 12.407607190631735 39.0 0
   vertex 10.16280759475895 39.999 0.6
  endloop
 endfacet
 facet normal 0.0 0.514874289320212 -0.8572656917181548
  outer loop
   vertex 39.983074256745425 39.999 0.6
   vertex 38.98486947063049 39.0 0
   vertex 10.16280759475895 39.999 0.6
  endloop
 endfacet
 facet normal 0.5148741260699684 0.0004100081492555257 -0.8572656917181533
  outer loop
   vertex 38.99920335596851 21.0 0
   vertex 38.98486947063049 39.0 0
   vertex 39.983074256745425 39.999 0.6
  endloop
 endfacet
 facet normal 0.5148741260699683 0.0004100081492555293 -0.8572656917181533
  outer loop
   vertex 39.99890444044734 20.12 0.6
   vertex 38.99920335596851 21.0 0
   vertex 39.983074256745425 39.999 0.6
  endloop
 endfacet
 facet normal 0.0 -0.5633368246415101 -0.8262273428075473
  outer loop
   vertex 30.42194678319854 21.0 0
   vertex 38.99920335596851 21.0 0
   vertex 39.99890444044734 20.12 0.6
  endloop
 endfacet
 facet normal 0.0 -0.5633368246415101 -0.8262273428075474
  outer loop
   vertex 30.057644081460925 20.12 0.6
   vertex 30.42194678319854 21.0 0
   vertex 39.99890444044734 20.12 0.6
  endloop
 endfacet
 facet normal 0.2676272297488353 0.2678404333840787 0.9255469562056768
  outer loop
   vertex 15.886033219194886 37.56 0.24
   vertex 30.65377577521339 21.56 0.6
   vertex 31.018078476951004 22.44 0.24
  endloop
 endfacet
 facet normal 0.26762722974883574 0.2678404333840791 0.9255469562056766
  outer loop
   vertex 13.760328423961855 38.44 0.6
   vertex 30.65377577521339 21.56 0.6
   vertex 15.886033219194886 37.56 0.24
  endloop
 endfacet
 facet normal 0.0 -0.3786328457205058 0.9255469562056761
  outer loop
   vertex 37.54601572487923 37.56 0.24
   vertex 13.760328423961855 38.44 0.6
   vertex 15.886033219194886 37.56 0.24
  endloop
 endfacet
 facet normal 0.0 -0.3786328457205058 0.9255469562056761
  outer loop
   vertex 38.42531523617166 38.44 0.6
   vertex 13.760328423961855 38.44 0.6
   vertex 37.54601572487923 37.56 0.24
  endloop
 endfacet
 facet normal -0.3786327256680852 -0.00030151544860809645 0.9255469562056756
  outer loop
   vertex 37.558056188563164 22.44 0.24
   vertex 38.42531523617166 38.44 0.6
   vertex 37.54601572487923 37.56 0.24
  endloop
 endfacet
 facet normal -0.37863272566808265 -0.00030151544860825723 0.9255469562056767
  outer loop
   vertex 38.438757235310874 21.56 0.6
   vertex 38.42531523617166 38.44 0.6
   vertex 37.558056188563164 22.44 0.24
  endloop
 endfacet
 facet normal -0.0 0.37863284572050315 0.9255469562056771
  outer loop
   vertex 31.018078476951004 22.44 0.24
   vertex 38.438757235310874 21.56 0.6
   vertex 37.558056188563164 22.44 0.24
  endloop
 endfacet
 facet normal -0.0 0.37863284572050315 0.9255469562056772
  outer loop
   vertex 30.65377577521339 21.56 0.6
   vertex 38.438757235310874 21.56 0.6
   vertex 31.018078476951004 22.44 0.24
  endloop
 endfacet
 facet normal 0.0 0.0 1.0
  outer loop
   vertex 10.16280759475895 39.999 0.6
   vertex 30.057644081460925 20.12 0.6
   vertex 30.65377577521339 21.56 0.6
  endloop
 endfacet
 facet normal 0.0 0.0 1.0
  outer loop
   vertex 13.760328423961855 38.44 0.6
   vertex 10.16280759475895 39.999 0.6
   vertex 30.65377577521339 21.56 0.6
  endloop
 endfacet
 facet normal 0.0 0.0 1.0
  outer loop
   vertex 39.983074256745425 39.999 0.6
   vertex 10.16280759475895 39.999 0.6
   vertex 13.760328423961855 38.44 0.6
  endloop
 endfacet
 facet normal 0.0 -0.0 1.0
  outer loop
   vertex 38.42531523617166 38.44 0.6
   vertex 39.983074256745425 39.999 0.6
   vertex 13.760328423961855 38.44 0.6
  endloop
 endfacet
 facet normal 0.0 0.0 1.0
  outer loop
   vertex 39.99890444044734 20.12 0.6
   vertex 39.983074256745425 39.999 0.6
   vertex 38.42531523617166 38.44 0.6
  endloop
 endfacet
 facet normal -0.0 -0.0 1.0
  outer loop
   vertex 38.438757235310874 21.56 0.6
   vertex 39.99890444044734 20.12 0.6
   vertex 38.42531523617166 38.44 0.6
  endloop
 endfacet
 facet normal 0.0 0.0 1.0
  outer loop
   vertex 30.057644081460925 20.12 0.6
   vertex 39.99890444044734 20.12 0.6
   vertex 38.438757235310874 21.56 0.6
  endloop
 endfacet
 facet normal -0.0 0.0 1.0
  outer loop
   vertex 30.65377577521339 21.56 0.6
   vertex 30.057644081460925 20.12 0.6
   vertex 38.438757235310874 21.56 0.6
  endloop
 endfacet
 facet normal -0.39818065310055756 -0.39849786134130455 0.8262273428075472
  outer loop
   vertex 10.16280759475895 39.999 0.84
   vertex 30.057644081460925 20.12 0.84
   vertex 30.42194678319854 21.0 1.44
  endloop
 endfacet
 facet normal -0.3981806531005572 -0.3984978613413043 0.8262273428075474
  outer loop
   vertex 12.407607190631735 39.0 1.44
   vertex 10.16280759475895 39.999 0.84
   vertex 30.42194678319854 21.0 1.44
  endloop
 endfacet
 facet normal 0.0 0.514874289320212 0.8572656917181548
  outer loop
   vertex 39.983074256745425 39.999 0.84
   vertex 10.16280759475895 39.999 0.84
   vertex 12.407607190631735 39.0 1.44
  endloop
 endfacet
 facet normal 0.0 0.514874289320212 0.857265691718155
  outer loop
   vertex 38.98486947063049 39.0 1.44
   vertex 39.983074256745425 39.999 0.84
   vertex 12.407607190631735 39.0 1.44
  endloop
 endfacet
 facet normal 0.5148741260699684 0.00041000814925552933 0.8572656917181533
  outer loop
   vertex 39.99890444044734 20.12 0.84
   vertex 39.983074256745425 39.999 0.84
   vertex 38.98486947063049 39.0 1.44
  endloop
 endfacet
 facet normal 0.5148741260699684 0.00041000814925552565 0.8572656917181534
  outer loop
   vertex 38.99920335596851 21.0 1.44
   vertex 39.99890444044734 20.12 0.84
   vertex 38.98486947063049 39.0 1.44
  endloop
 endfacet
 facet normal 0.0 -0.5633368246415101 0.8262273428075474
  outer loop
   vertex 30.057644081460925 20.12 0.84
   vertex 39.99890444044734 20.12 0.84
   vertex 38.99920335596851 21.0 1.44
  endloop
 endfacet
 facet normal 0.0 -0.5633368246415101 0.8262273428075473
  outer loop
   vertex 30.42194678319854 21.0 1.44
   vertex 30.057644081460925 20.12 0.84
   vertex 38.99920335596851 21.0 1.44
  endloop
 endfacet
 facet normal 0.2676272297488353 0.26784043338407865 -0.925546956205677
  outer loop
   vertex 13.760328423961855 38.44 0.84
   vertex 31.018078476951004 22.44 1.2
   vertex 30.65377577521339 21.56 0.84
  endloop
 endfacet
 facet normal 0.2676272297488356 0.26784043338407904 -0.9255469562056766
  outer loop
   vertex 15.886033219194886 37.56 1.2
   vertex 31.018078476951004 22.44 1.2
   vertex 13.760328423961855 38.44 0.84
  endloop
 endfacet
 facet normal -0.0 -0.3786328457205058 -0.9255469562056761
  outer loop
   vertex 38.42531523617166 38.44 0.84
   vertex 15.886033219194886 37.56 1.2
   vertex 13.760328423961855 38.44 0.84
  endloop
 endfacet
 facet normal -0.0 -0.3786328457205058 -0.9255469562056761
  outer loop
   vertex 37.54601572487923 37.56 1.2
   vertex 15.886033219194886 37.56 1.2
   vertex 38.42531523617166 38.44 0.84
  endloop
 endfacet
 facet normal -0.37863272566808504 -0.00030151544860825913 -0.9255469562056757
  outer loop
   vertex 38.438757235310874 21.56 0.84
   vertex 37.54601572487923 37.56 1.2
   vertex 38.42531523617166 38.44 0.84
  endloop
 endfacet
 facet normal -0.37863272566808254 -0.00030151544860809433 -0.9255469562056768
  outer loop
   vertex 37.558056188563164 22.44 1.2
   vertex 37.54601572487923 37.56 1.2
   vertex 38.438757235310874 21.56 0.84
  endloop
 endfacet
 facet normal 0.0 0.37863284572050315 -0.9255469562056772
  outer loop
   vertex 30.65377577521339 21.56 0.84
   vertex 37.558056188563164 22.44 1.2
   vertex 38.438757235310874 21.56 0.84
  endloop
 endfacet
 facet normal 0.0 0.37863284572050315 -0.9255469562056771
  outer loop
   vertex 31.018078476951004 22.44 1.2
   vertex 37.558056188563164 22.44 1.2
   vertex 30.65377577521339 21.56 0.84
  endloop
 endfacet
 facet normal 0.0 -0.0 1.0
  outer loop
   vertex 30.42194678319854 21.0 1.44
   vertex 38.98486947063049 39.0 1.44
   vertex 12.407607190631735 39.0 1.44
  endloop
 endfacet
 facet normal 0.0 0.0 1.0
  outer loop
   vertex 30.42194678319854 21.0 1.44
   vertex 38.99920335596851 21.0 1.44
   vertex 38.98486947063049 39.0 1.44
  endloop
 endfacet
 facet normal 0.0 0.0 -1.0
  outer loop
   vertex 31.018078476951004 22.44 1.2
   vertex 15.886033219194886 37.56 1.2
   vertex 37.54601572487923 37.56 1.2
  endloop
 endfacet
 facet normal 0.0 0.0 -1.0
  outer loop
   vertex 31.018078476951004 22.44 1.2
   vertex 37.54601572487923 37.56 1.2
   vertex 37.558056188563164 22.44 1.2
  endloop
 endfacet
 facet normal 0.0 0.0 -1.0
  outer loop
   vertex 10.16280759475895 39.999 0.84
   vertex 30.65377577521339 21.56 0.84
   vertex 30.057644081460925 20.12 0.84
  endloop
 endfacet
 facet normal -0.0 -0.0 -1.0
  outer loop
   vertex 13.760328423961855 38.44 0.84
   vertex 30.65377577521339 21.56 0.84
   vertex 10.16280759475895 39.999 0.84
  endloop
 endfacet
 facet normal -0.0 0.0 -1.0
  outer loop
   vertex 39.983074256745425 39.999 0.84
   vertex 13.760328423961855 38.44 0.84
   vertex 10.16280759475895 39.999 0.84
  endloop
 endfacet
 facet normal 0.0 0.0 -1.0
  outer loop
   vertex 38.42531523617166 38.44 0.84
   vertex 13.760328423961855 38.44 0.84
   vertex 39.983074256745425 39.999 0.84
  endloop
 endfacet
 facet normal 0.0 0.0 -1.0
  outer loop
   vertex 39.99890444044734 20.12 0.84
   vertex 38.42531523617166 38.44 0.84
   vertex 39.983074256745425 39.999 0.84
  endloop
 endfacet
 facet normal 0.0 0.0 -1.0
  outer loop
   vertex 38.438757235310874 21.56 0.84
   vertex 38.42531523617166 38.44 0.84
   vertex 39.99890444044734 20.12 0.84
  endloop
 endfacet
 facet normal 0.0 0.0 -1.0
  outer loop
   vertex 30.057644081460925 20.12 0.84
   vertex 38.438757235310874 21.56 0.84
   vertex 39.99890444044734 20.12 0.84
  endloop
 endfacet
 facet normal 0.0 -0.0 -1.0
  outer loop
   vertex 30.65377577521339 21.56 0.84
   vertex 38.438757235310874 21.56 0.84
   vertex 30.057644081460925 20.12 0.84
  endloop
 endfacet
endsolid
