solid PyGamic generated __All_Units__ SLA File
 facet normal 0.0 0.0 -1.0
  outer loop
   vertex -0.0013889805726013114 17.0 0
   vertex 22.761245547474996 17.0 0
   vertex 5.748703395583711 0.001 0
  endloop
 endfacet
 facet normal 0.0 -0.0 -1.0
  outer loop
   vertex -0.0013889805726013114 17.0 0
   vertex 5.748703395583711 0.001 0
   vertex -0.01492574262043236 0.001 0
  endloop
 endfacet
 facet normal 0.0 0.2401802027534577 -0.9707283194618914
  outer loop
   vertex 22.761245547474996 17.0 0
   vertex -0.0013889805726013114 17.0 0
   vertex 0.0009283308903781791 19.91 0.72
  endloop
 endfacet
 facet normal 0.0 0.24018020275345767 -0.9707283194618914
  outer loop
   vertex 29.790564813529695 19.91 0.72
   vertex 22.761245547474996 17.0 0
   vertex 0.0009283308903781791 19.91 0.72
  endloop
 endfacet
 facet normal 0.16976541530913627 -0.16990065791399558 -0.9707283194618914
  outer loop
   vertex 5.748703395583711 0.001 0
   vertex 22.761245547474996 17.0 0
   vertex 29.790564813529695 19.91 0.72
  endloop
 endfacet
 facet normal 0.16976541530913627 -0.16990065791399558 -0.9707283194618913
  outer loop
   vertex 9.865704427506776 0.001 0.72
   vertex 5.748703395583711 0.001 0
   vertex 29.790564813529695 19.91 0.72
  endloop
 endfacet
 facet normal 0.0 -1.0 0.0
  outer loop
   vertex -0.01492574262043236 0.001 0
   vertex 5.748703395583711 0.001 0
   vertex 9.865704427506776 0.001 0.72
  endloop
 endfacet
 facet normal 0.0 -1.0 0.0
  outer loop
   vertex -0.01492574262043236 0.001 0.72
   vertex -0.01492574262043236 0.001 0
   vertex 9.865704427506776 0.001 0.72
  endloop
 endfacet
 facet normal -0.9999996829318346 0.0007963267107332632 0.0
  outer loop
   vertex -0.0013889805726013114 17.0 0
   vertex -0.01492574262043236 0.001 0
   vertex -0.01492574262043236 0.001 0.72
  endloop
 endfacet
 facet normal -0.9999996829318346 0.0007963267107332633 4.840699979214363e-19
  outer loop
   vertex 0.0009283308903781791 19.91 0.72
   vertex -0.0013889805726013114 17.0 0
   vertex -0.01492574262043236 0.001 0.72
  endloop
 endfacet
 facet normal -0.0 0.0 1.0
  outer loop
   vertex 0.0009283308903781791 19.91 0.72
   vertex 9.865704427506776 0.001 0.72
   vertex 29.790564813529695 19.91 0.72
  endloop
 endfacet
 facet normal 0.0 0.0 1.0
  outer loop
   vertex 0.0009283308903781791 19.91 0.72
   vertex -0.01492574262043236 0.001 0.72
   vertex 9.865704427506776 0.001 0.72
  endloop
 endfacet
 facet normal 0.0 0.0 -1.0
  outer loop
   vertex 0.0009283308903781791 19.91 1.26
   vertex 29.790564813529695 19.91 1.26
   vertex 9.865704427506776 0.001 1.26
  endloop
 endfacet
 facet normal 0.0 -0.0 -1.0
  outer loop
   vertex 0.0009283308903781791 19.91 1.26
   vertex 9.865704427506776 0.001 1.26
   vertex -0.01492574262043236 0.001 1.26
  endloop
 endfacet
 facet normal 0.0 0.24018020275345767 0.9707283194618914
  outer loop
   vertex 29.790564813529695 19.91 1.26
   vertex 0.0009283308903781791 19.91 1.26
   vertex -0.0013889805726013114 17.0 1.98
  endloop
 endfacet
 facet normal 0.0 0.2401802027534577 0.9707283194618914
  outer loop
   vertex 22.761245547474996 17.0 1.98
   vertex 29.790564813529695 19.91 1.26
   vertex -0.0013889805726013114 17.0 1.98
  endloop
 endfacet
 facet normal 0.16976541530913627 -0.16990065791399558 0.9707283194618915
  outer loop
   vertex 9.865704427506776 0.001 1.26
   vertex 29.790564813529695 19.91 1.26
   vertex 22.761245547474996 17.0 1.98
  endloop
 endfacet
 facet normal 0.16976541530913627 -0.16990065791399558 0.9707283194618914
  outer loop
   vertex 5.748703395583711 0.001 1.98
   vertex 9.865704427506776 0.001 1.26
   vertex 22.761245547474996 17.0 1.98
  endloop
 endfacet
 facet normal 0.0 -1.0 0.0
  outer loop
   vertex -0.01492574262043236 0.001 1.26
   vertex 9.865704427506776 0.001 1.26
   vertex 5.748703395583711 0.001 1.98
  endloop
 endfacet
 facet normal 0.0 -1.0 0.0
  outer loop
   vertex -0.01492574262043236 0.001 1.98
   vertex -0.01492574262043236 0.001 1.26
   vertex 5.748703395583711 0.001 1.98
  endloop
 endfacet
 facet normal -0.9999996829318346 0.0007963267107332633 0.0
  outer loop
   vertex 0.0009283308903781791 19.91 1.26
   vertex -0.01492574262043236 0.001 1.26
   vertex -0.01492574262043236 0.001 1.98
  endloop
 endfacet
 facet normal -0.9999996829318346 0.0007963267107332632 0.0
  outer loop
   vertex -0.0013889805726013114 17.0 1.98
   vertex 0.0009283308903781791 19.91 1.26
   vertex -0.01492574262043236 0.001 1.98
  endloop
 endfacet
 facet normal -0.0 0.0 1.0
  outer loop
   vertex -0.0013889805726013114 17.0 1.98
   vertex 5.748703395583711 0.001 1.98
   vertex 22.761245547474996 17.0 1.98
  endloop
 endfacet
 facet normal 0.0 0.0 1.0
  outer loop
   vertex -0.0013889805726013114 17.0 1.98
   vertex -0.01492574262043236 0.001 1.98
   vertex 5.748703395583711 0.001 1.98
  endloop
 endfacet
 facet normal 0.0 0.0 -1.0
  outer loop
   vertex 22.761245547474996 23.0 0
   vertex -0.0013889805726013114 23.0 0
   vertex -0.012537558057726007 37.0 0
  endloop
 endfacet
 facet normal 0.0 0.0 -1.0
  outer loop
   vertex 22.761245547474996 23.0 0
   vertex -0.012537558057726007 37.0 0
   vertex 8.750092531034147 37.0 0
  endloop
 endfacet
 facet normal 0.0 -0.2401802027534577 -0.9707283194618914
  outer loop
   vertex -0.0013889805726013114 23.0 0
   vertex 22.761245547474996 23.0 0
   vertex 29.79056481352969 20.09 0.72
  endloop
 endfacet
 facet normal 0.0 -0.24018020275345767 -0.9707283194618914
  outer loop
   vertex 0.0009283308903781791 20.09 0.72
   vertex -0.0013889805726013114 23.0 0
   vertex 29.79056481352969 20.09 0.72
  endloop
 endfacet
 facet normal -0.9999996829318345 -0.0007963267107332631 0.0
  outer loop
   vertex -0.012537558057726007 37.0 0
   vertex -0.0013889805726013114 23.0 0
   vertex 0.0009283308903781791 20.09 0.72
  endloop
 endfacet
 facet normal -0.9999996829318346 -0.0007963267107332632 9.72487344966486e-19
  outer loop
   vertex -0.014854869520705494 39.91 0.72
   vertex -0.012537558057726007 37.0 0
   vertex 0.0009283308903781791 20.09 0.72
  endloop
 endfacet
 facet normal 0.0 0.24018020275345792 -0.9707283194618914
  outer loop
   vertex 8.750092531034147 37.0 0
   vertex -0.012537558057726007 37.0 0
   vertex -0.014854869520705494 39.91 0.72
  endloop
 endfacet
 facet normal 0.0 0.24018020275345794 -0.9707283194618914
  outer loop
   vertex 9.954775328825582 39.91 0.72
   vertex 8.750092531034147 37.0 0
   vertex -0.014854869520705494 39.91 0.72
  endloop
 endfacet
 facet normal 0.1697654153091363 0.1699006579139956 -0.9707283194618914
  outer loop
   vertex 22.761245547474996 23.0 0
   vertex 8.750092531034147 37.0 0
   vertex 9.954775328825582 39.91 0.72
  endloop
 endfacet
 facet normal 0.16976541530913639 0.16990065791399564 -0.9707283194618914
  outer loop
   vertex 29.79056481352969 20.09 0.72
   vertex 22.761245547474996 23.0 0
   vertex 9.954775328825582 39.91 0.72
  endloop
 endfacet
 facet normal 0.0 0.0 1.0
  outer loop
   vertex 29.79056481352969 20.09 0.72
   vertex -0.014854869520705494 39.91 0.72
   vertex 0.0009283308903781791 20.09 0.72
  endloop
 endfacet
 facet normal 0.0 0.0 1.0
  outer loop
   vertex 29.79056481352969 20.09 0.72
   vertex 9.954775328825582 39.91 0.72
   vertex -0.014854869520705494 39.91 0.72
  endloop
 endfacet
 facet normal 0.0 0.0 -1.0
  outer loop
   vertex 29.79056481352969 20.09 1.26
   vertex 0.0009283308903781791 20.09 1.26
   vertex -0.014854869520705494 39.91 1.26
  endloop
 endfacet
 facet normal 0.0 0.0 -1.0
  outer loop
   vertex 29.79056481352969 20.09 1.26
   vertex -0.014854869520705494 39.91 1.26
   vertex 9.954775328825582 39.91 1.26
  endloop
 endfacet
 facet normal 0.0 -0.24018020275345767 0.9707283194618914
  outer loop
   vertex 0.0009283308903781791 20.09 1.26
   vertex 29.79056481352969 20.09 1.26
   vertex 22.761245547474996 23.0 1.98
  endloop
 endfacet
 facet normal 0.0 -0.2401802027534577 0.9707283194618914
  outer loop
   vertex -0.0013889805726013114 23.0 1.98
   vertex 0.0009283308903781791 20.09 1.26
   vertex 22.761245547474996 23.0 1.98
  endloop
 endfacet
 facet normal -0.9999996829318346 -0.0007963267107332632 -3.889949379865944e-18
  outer loop
   vertex -0.014854869520705494 39.91 1.26
   vertex 0.0009283308903781791 20.09 1.26
   vertex -0.0013889805726013114 23.0 1.98
  endloop
 endfacet
 facet normal -0.9999996829318345 -0.0007963267107332631 -6.883821134727051e-19
  outer loop
   vertex -0.012537558057726007 37.0 1.98
   vertex -0.014854869520705494 39.91 1.26
   vertex -0.0013889805726013114 23.0 1.98
  endloop
 endfacet
 facet normal 0.0 0.24018020275345794 0.9707283194618914
  outer loop
   vertex 9.954775328825582 39.91 1.26
   vertex -0.014854869520705494 39.91 1.26
   vertex -0.012537558057726007 37.0 1.98
  endloop
 endfacet
 facet normal 0.0 0.24018020275345792 0.9707283194618914
  outer loop
   vertex 8.750092531034147 37.0 1.98
   vertex 9.954775328825582 39.91 1.26
   vertex -0.012537558057726007 37.0 1.98
  endloop
 endfacet
 facet normal 0.16976541530913633 0.16990065791399558 0.9707283194618914
  outer loop
   vertex 29.79056481352969 20.09 1.26
   vertex 9.954775328825582 39.91 1.26
   vertex 8.750092531034147 37.0 1.98
  endloop
 endfacet
 facet normal 0.16976541530913644 0.16990065791399578 0.9707283194618914
  outer loop
   vertex 22.761245547474996 23.0 1.98
   vertex 29.79056481352969 20.09 1.26
   vertex 8.750092531034147 37.0 1.98
  endloop
 endfacet
 facet normal 0.0 0.0 1.0
  outer loop
   vertex 22.761245547474996 23.0 1.98
   vertex -0.012537558057726007 37.0 1.98
   vertex -0.0013889805726013114 23.0 1.98
  endloop
 endfacet
 facet normal 0.0 0.0 1.0
  outer loop
   vertex 22.761245547474996 23.0 1.98
   vertex 8.750092531034147 37.0 1.98
   vertex -0.012537558057726007 37.0 1.98
  endloop
 endfacet
 facet normal 0.0 0.0 -1.0
  outer loop
   vertex 31.24990746896585 17.0 0
   vertex 39.99661101879327 17.0 0
   vertex 39.98307425674543 0.001 0
  endloop
 endfacet
 facet normal 0.0 -0.0 -1.0
  outer loop
   vertex 31.24990746896585 17.0 0
   vertex 39.98307425674543 0.001 0
   vertex 14.237365317074566 0.001 0
  endloop
 endfacet
 facet normal 0.0 0.24018020275345767 -0.9707283194618914
  outer loop
   vertex 39.99661101879327 17.0 0
   vertex 31.24990746896585 17.0 0
   vertex 30.04522467117442 19.91 0.72
  endloop
 endfacet
 facet normal 0.0 0.24018020275345764 -0.9707283194618914
  outer loop
   vertex 39.99892833025625 19.91 0.72
   vertex 39.99661101879327 17.0 0
   vertex 30.04522467117442 19.91 0.72
  endloop
 endfacet
 facet normal 0.9999996829318346 -0.0007963267107334855 -1.6282409564392336e-15
  outer loop
   vertex 39.98307425674543 0.001 0
   vertex 39.99661101879327 17.0 0
   vertex 39.99892833025625 19.91 0.72
  endloop
 endfacet
 facet normal 0.9999996829318346 -0.0007963267107335443 0.0
  outer loop
   vertex 39.98307425674543 0.001 0.72
   vertex 39.98307425674543 0.001 0
   vertex 39.99892833025625 19.91 0.72
  endloop
 endfacet
 facet normal 0.0 -1.0 0.0
  outer loop
   vertex 14.237365317074566 0.001 0
   vertex 39.98307425674543 0.001 0
   vertex 39.98307425674543 0.001 0.72
  endloop
 endfacet
 facet normal 0.0 -1.0 0.0
  outer loop
   vertex 10.120364285151501 0.001 0.72
   vertex 14.237365317074566 0.001 0
   vertex 39.98307425674543 0.001 0.72
  endloop
 endfacet
 facet normal -0.1697654153091364 0.16990065791399572 -0.9707283194618914
  outer loop
   vertex 31.24990746896585 17.0 0
   vertex 14.237365317074566 0.001 0
   vertex 10.120364285151501 0.001 0.72
  endloop
 endfacet
 facet normal -0.16976541530913627 0.16990065791399558 -0.9707283194618913
  outer loop
   vertex 30.04522467117442 19.91 0.72
   vertex 31.24990746896585 17.0 0
   vertex 10.120364285151501 0.001 0.72
  endloop
 endfacet
 facet normal -0.0 0.0 1.0
  outer loop
   vertex 30.04522467117442 19.91 0.72
   vertex 39.98307425674543 0.001 0.72
   vertex 39.99892833025625 19.91 0.72
  endloop
 endfacet
 facet normal 0.0 0.0 1.0
  outer loop
   vertex 30.04522467117442 19.91 0.72
   vertex 10.120364285151501 0.001 0.72
   vertex 39.98307425674543 0.001 0.72
  endloop
 endfacet
 facet normal 0.0 0.0 -1.0
  outer loop
   vertex 30.04522467117442 19.91 1.26
   vertex 39.99892833025625 19.91 1.26
   vertex 39.98307425674543 0.001 1.26
  endloop
 endfacet
 facet normal 0.0 -0.0 -1.0
  outer loop
   vertex 30.04522467117442 19.91 1.26
   vertex 39.98307425674543 0.001 1.26
   vertex 10.120364285151501 0.001 1.26
  endloop
 endfacet
 facet normal 0.0 0.24018020275345764 0.9707283194618914
  outer loop
   vertex 39.99892833025625 19.91 1.26
   vertex 30.04522467117442 19.91 1.26
   vertex 31.24990746896585 17.0 1.98
  endloop
 endfacet
 facet normal 0.0 0.24018020275345767 0.9707283194618914
  outer loop
   vertex 39.99661101879327 17.0 1.98
   vertex 39.99892833025625 19.91 1.26
   vertex 31.24990746896585 17.0 1.98
  endloop
 endfacet
 facet normal 0.9999996829318346 -0.0007963267107335443 1.3902490340303648e-15
  outer loop
   vertex 39.98307425674543 0.001 1.26
   vertex 39.99892833025625 19.91 1.26
   vertex 39.99661101879327 17.0 1.98
  endloop
 endfacet
 facet normal 0.9999996829318346 -0.0007963267107334855 0.0
  outer loop
   vertex 39.98307425674543 0.001 1.98
   vertex 39.98307425674543 0.001 1.26
   vertex 39.99661101879327 17.0 1.98
  endloop
 endfacet
 facet normal 0.0 -1.0 0.0
  outer loop
   vertex 10.120364285151501 0.001 1.26
   vertex 39.98307425674543 0.001 1.26
   vertex 39.98307425674543 0.001 1.98
  endloop
 endfacet
 facet normal 0.0 -1.0 -0.0
  outer loop
   vertex 14.237365317074566 0.001 1.98
   vertex 10.120364285151501 0.001 1.26
   vertex 39.98307425674543 0.001 1.98
  endloop
 endfacet
 facet normal -0.16976541530913616 0.16990065791399547 0.9707283194618915
  outer loop
   vertex 30.04522467117442 19.91 1.26
   vertex 10.120364285151501 0.001 1.26
   vertex 14.237365317074566 0.001 1.98
  endloop
 endfacet
 facet normal -0.16976541530913627 0.16990065791399558 0.9707283194618914
  outer loop
   vertex 31.24990746896585 17.0 1.98
   vertex 30.04522467117442 19.91 1.26
   vertex 14.237365317074566 0.001 1.98
  endloop
 endfacet
 facet normal -0.0 0.0 1.0
  outer loop
   vertex 31.24990746896585 17.0 1.98
   vertex 39.98307425674543 0.001 1.98
   vertex 39.99661101879327 17.0 1.98
  endloop
 endfacet
 facet normal 0.0 0.0 1.0
  outer loop
   vertex 31.24990746896585 17.0 1.98
   vertex 14.237365317074566 0.001 1.98
   vertex 39.98307425674543 0.001 1.98
  endloop
 endfacet
 facet normal 0.0 0.0 -1.0
  outer loop
   vertex 39.99661101879326 23.0 0
   vertex 31.249907468965848 23.0 0
   vertex 17.238754452525 37.0 0
  endloop
 endfacet
 facet normal 0.0 0.0 -1.0
  outer loop
   vertex 39.99661101879326 23.0 0
   vertex 17.238754452525 37.0 0
   vertex 39.98546244130814 37.0 0
  endloop
 endfacet
 facet normal 0.0 -0.24018020275345767 -0.9707283194618914
  outer loop
   vertex 31.249907468965848 23.0 0
   vertex 39.99661101879326 23.0 0
   vertex 39.99892833025624 20.09 0.72
  endloop
 endfacet
 facet normal 0.0 -0.24018020275345764 -0.9707283194618914
  outer loop
   vertex 30.045224671174417 20.09 0.72
   vertex 31.249907468965848 23.0 0
   vertex 39.99892833025624 20.09 0.72
  endloop
 endfacet
 facet normal -0.1697654153091363 -0.16990065791399558 -0.9707283194618914
  outer loop
   vertex 17.238754452525 37.0 0
   vertex 31.249907468965848 23.0 0
   vertex 30.045224671174417 20.09 0.72
  endloop
 endfacet
 facet normal -0.16976541530913633 -0.16990065791399558 -0.9707283194618914
  outer loop
   vertex 10.209435186470307 39.91 0.72
   vertex 17.238754452525 37.0 0
   vertex 30.045224671174417 20.09 0.72
  endloop
 endfacet
 facet normal 0.0 0.24018020275345797 -0.9707283194618914
  outer loop
   vertex 39.98546244130814 37.0 0
   vertex 17.238754452525 37.0 0
   vertex 10.209435186470307 39.91 0.72
  endloop
 endfacet
 facet normal 0.0 0.24018020275345792 -0.9707283194618914
  outer loop
   vertex 39.983145129845155 39.91 0.72
   vertex 39.98546244130814 37.0 0
   vertex 10.209435186470307 39.91 0.72
  endloop
 endfacet
 facet normal 0.9999996829318345 0.0007963267107331572 2.9572895594787413e-15
  outer loop
   vertex 39.99661101879326 23.0 0
   vertex 39.98546244130814 37.0 0
   vertex 39.983145129845155 39.91 0.72
  endloop
 endfacet
 facet normal 0.9999996829318346 0.0007963267107333721 -2.0854991112806287e-15
  outer loop
   vertex 39.99892833025624 20.09 0.72
   vertex 39.99661101879326 23.0 0
   vertex 39.983145129845155 39.91 0.72
  endloop
 endfacet
 facet normal 0.0 0.0 1.0
  outer loop
   vertex 39.99892833025624 20.09 0.72
   vertex 10.209435186470307 39.91 0.72
   vertex 30.045224671174417 20.09 0.72
  endloop
 endfacet
 facet normal 0.0 0.0 1.0
  outer loop
   vertex 39.99892833025624 20.09 0.72
   vertex 39.983145129845155 39.91 0.72
   vertex 10.209435186470307 39.91 0.72
  endloop
 endfacet
 facet normal 0.0 0.0 -1.0
  outer loop
   vertex 39.99892833025624 20.09 1.26
   vertex 30.045224671174417 20.09 1.26
   vertex 10.209435186470307 39.91 1.26
  endloop
 endfacet
 facet normal 0.0 0.0 -1.0
  outer loop
   vertex 39.99892833025624 20.09 1.26
   vertex 10.209435186470307 39.91 1.26
   vertex 39.983145129845155 39.91 1.26
  endloop
 endfacet
 facet normal 0.0 -0.24018020275345764 0.9707283194618914
  outer loop
   vertex 30.045224671174417 20.09 1.26
   vertex 39.99892833025624 20.09 1.26
   vertex 39.99661101879326 23.0 1.98
  endloop
 endfacet
 facet normal 0.0 -0.24018020275345767 0.9707283194618914
  outer loop
   vertex 31.249907468965848 23.0 1.98
   vertex 30.045224671174417 20.09 1.26
   vertex 39.99661101879326 23.0 1.98
  endloop
 endfacet
 facet normal -0.16976541530913608 -0.16990065791399536 0.9707283194618914
  outer loop
   vertex 10.209435186470307 39.91 1.26
   vertex 30.045224671174417 20.09 1.26
   vertex 31.249907468965848 23.0 1.98
  endloop
 endfacet
 facet normal -0.16976541530913633 -0.1699006579139956 0.9707283194618914
  outer loop
   vertex 17.238754452525 37.0 1.98
   vertex 10.209435186470307 39.91 1.26
   vertex 31.249907468965848 23.0 1.98
  endloop
 endfacet
 facet normal 0.0 0.24018020275345792 0.9707283194618914
  outer loop
   vertex 39.983145129845155 39.91 1.26
   vertex 10.209435186470307 39.91 1.26
   vertex 17.238754452525 37.0 1.98
  endloop
 endfacet
 facet normal 0.0 0.24018020275345797 0.9707283194618914
  outer loop
   vertex 39.98546244130814 37.0 1.98
   vertex 39.983145129845155 39.91 1.26
   vertex 17.238754452525 37.0 1.98
  endloop
 endfacet
 facet normal 0.9999996829318346 0.0007963267107333721 -2.0889028169880115e-15
  outer loop
   vertex 39.99892833025624 20.09 1.26
   vertex 39.983145129845155 39.91 1.26
   vertex 39.98546244130814 37.0 1.98
  endloop
 endfacet
 facet normal 0.9999996829318345 0.0007963267107331572 2.953159266797905e-15
  outer loop
   vertex 39.99661101879326 23.0 1.98
   vertex 39.99892833025624 20.09 1.26
   vertex 39.98546244130814 37.0 1.98
  endloop
 endfacet
 facet normal 0.0 0.0 1.0
  outer loop
   vertex 39.99661101879326 23.0 1.98
   vertex 17.238754452525 37.0 1.98
   vertex 31.249907468965848 23.0 1.98
  endloop
 endfacet
 facet normal 0.0 0.0 1.0
  outer loop
   vertex 39.99661101879326 23.0 1.98
   vertex 39.98546244130814 37.0 1.98
   vertex 17.238754452525 37.0 1.98
  endloop
 endfacet
 facet normal 0.0 0.0 -1.0
  outer loop
   vertex -0.0013889805726013142 56.99999999999999 0
   vertex 22.761245547475003 57.0 0
   vertex 8.750092531034154 43.0 0
  endloop
 endfacet
 facet normal 0.0 -0.0 -1.0
  outer loop
   vertex -0.0013889805726013142 56.99999999999999 0
   vertex 8.750092531034154 43.0 0
   vertex -0.01253755805772601 43.0 0
  endloop
 endfacet
 facet normal -7.497299933782965e-17 0.2401802027534574 -0.9707283194618914
  outer loop
   vertex 22.761245547475003 57.0 0
   vertex -0.0013889805726013142 56.99999999999999 0
   vertex 0.0009283308903781734 59.91 0.72
  endloop
 endfacet
 facet normal 0.0 0.24018020275345792 -0.9707283194618914
  outer loop
   vertex 29.790564813529695 59.91 0.72
   vertex 22.761245547475003 57.0 0
   vertex 0.0009283308903781734 59.91 0.72
  endloop
 endfacet
 facet normal 0.16976541530913647 -0.16990065791399578 -0.9707283194618914
  outer loop
   vertex 8.750092531034154 43.0 0
   vertex 22.761245547475003 57.0 0
   vertex 29.790564813529695 59.91 0.72
  endloop
 endfacet
 facet normal 0.1697654153091363 -0.16990065791399558 -0.9707283194618914
  outer loop
   vertex 9.954775328825589 40.09 0.72
   vertex 8.750092531034154 43.0 0
   vertex 29.790564813529695 59.91 0.72
  endloop
 endfacet
 facet normal 0.0 -0.24018020275345797 -0.9707283194618914
  outer loop
   vertex -0.01253755805772601 43.0 0
   vertex 8.750092531034154 43.0 0
   vertex 9.954775328825589 40.09 0.72
  endloop
 endfacet
 facet normal 0.0 -0.24018020275345794 -0.9707283194618914
  outer loop
   vertex -0.014854869520705498 40.09 0.72
   vertex -0.01253755805772601 43.0 0
   vertex 9.954775328825589 40.09 0.72
  endloop
 endfacet
 facet normal -0.9999996829318345 0.0007963267107332637 2.753528453890822e-18
  outer loop
   vertex -0.0013889805726013142 56.99999999999999 0
   vertex -0.01253755805772601 43.0 0
   vertex -0.014854869520705498 40.09 0.72
  endloop
 endfacet
 facet normal -0.9999996829318347 0.0007963267107332633 -8.266142432215131e-18
  outer loop
   vertex 0.0009283308903781734 59.91 0.72
   vertex -0.0013889805726013142 56.99999999999999 0
   vertex -0.014854869520705498 40.09 0.72
  endloop
 endfacet
 facet normal -0.0 0.0 1.0
  outer loop
   vertex 0.0009283308903781734 59.91 0.72
   vertex 9.954775328825589 40.09 0.72
   vertex 29.790564813529695 59.91 0.72
  endloop
 endfacet
 facet normal 0.0 0.0 1.0
  outer loop
   vertex 0.0009283308903781734 59.91 0.72
   vertex -0.014854869520705498 40.09 0.72
   vertex 9.954775328825589 40.09 0.72
  endloop
 endfacet
 facet normal 0.0 0.0 -1.0
  outer loop
   vertex 0.0009283308903781734 59.91 1.26
   vertex 29.790564813529695 59.91 1.26
   vertex 9.954775328825589 40.09 1.26
  endloop
 endfacet
 facet normal 0.0 -0.0 -1.0
  outer loop
   vertex 0.0009283308903781734 59.91 1.26
   vertex 9.954775328825589 40.09 1.26
   vertex -0.014854869520705498 40.09 1.26
  endloop
 endfacet
 facet normal 0.0 0.24018020275345736 0.9707283194618914
  outer loop
   vertex 29.790564813529695 59.91 1.26
   vertex 0.0009283308903781734 59.91 1.26
   vertex -0.0013889805726013142 56.99999999999999 1.98
  endloop
 endfacet
 facet normal -7.497299933782989e-17 0.24018020275345814 0.9707283194618913
  outer loop
   vertex 22.761245547475003 57.0 1.98
   vertex 29.790564813529695 59.91 1.26
   vertex -0.0013889805726013142 56.99999999999999 1.98
  endloop
 endfacet
 facet normal 0.16976541530913636 -0.16990065791399564 0.9707283194618914
  outer loop
   vertex 9.954775328825589 40.09 1.26
   vertex 29.790564813529695 59.91 1.26
   vertex 22.761245547475003 57.0 1.98
  endloop
 endfacet
 facet normal 0.1697654153091363 -0.1699006579139956 0.9707283194618914
  outer loop
   vertex 8.750092531034154 43.0 1.98
   vertex 9.954775328825589 40.09 1.26
   vertex 22.761245547475003 57.0 1.98
  endloop
 endfacet
 facet normal 0.0 -0.24018020275345794 0.9707283194618914
  outer loop
   vertex -0.014854869520705498 40.09 1.26
   vertex 9.954775328825589 40.09 1.26
   vertex 8.750092531034154 43.0 1.98
  endloop
 endfacet
 facet normal 0.0 -0.24018020275345797 0.9707283194618914
  outer loop
   vertex -0.01253755805772601 43.0 1.98
   vertex -0.014854869520705498 40.09 1.26
   vertex 8.750092531034154 43.0 1.98
  endloop
 endfacet
 facet normal -0.9999996829318347 0.0007963267107332633 0.0
  outer loop
   vertex 0.0009283308903781734 59.91 1.26
   vertex -0.014854869520705498 40.09 1.26
   vertex -0.01253755805772601 43.0 1.98
  endloop
 endfacet
 facet normal -0.9999996829318345 0.0007963267107332637 9.637349588617878e-18
  outer loop
   vertex -0.0013889805726013142 56.99999999999999 1.98
   vertex 0.0009283308903781734 59.91 1.26
   vertex -0.01253755805772601 43.0 1.98
  endloop
 endfacet
 facet normal -0.0 0.0 1.0
  outer loop
   vertex -0.0013889805726013142 56.99999999999999 1.98
   vertex 8.750092531034154 43.0 1.98
   vertex 22.761245547475003 57.0 1.98
  endloop
 endfacet
 facet normal 0.0 0.0 1.0
  outer loop
   vertex -0.0013889805726013142 56.99999999999999 1.98
   vertex -0.01253755805772601 43.0 1.98
   vertex 8.750092531034154 43.0 1.98
  endloop
 endfacet
 facet normal 0.0 0.0 -1.0
  outer loop
   vertex 22.761245547474996 63.0 0
   vertex -0.0013889805726013142 63.0 0
   vertex -0.01492574262043236 79.999 0
  endloop
 endfacet
 facet normal 0.0 0.0 -1.0
  outer loop
   vertex 22.761245547474996 63.0 0
   vertex -0.01492574262043236 79.999 0
   vertex 5.748703395583716 79.999 0
  endloop
 endfacet
 facet normal 0.0 -0.24018020275345794 -0.9707283194618914
  outer loop
   vertex -0.0013889805726013142 63.0 0
   vertex 22.761245547474996 63.0 0
   vertex 29.79056481352968 60.09 0.72
  endloop
 endfacet
 facet normal 0.0 -0.24018020275345792 -0.9707283194618914
  outer loop
   vertex 0.0009283308903781734 60.09 0.72
   vertex -0.0013889805726013142 63.0 0
   vertex 29.79056481352968 60.09 0.72
  endloop
 endfacet
 facet normal -0.9999996829318346 -0.0007963267107332632 0.0
  outer loop
   vertex -0.01492574262043236 79.999 0
   vertex -0.0013889805726013142 63.0 0
   vertex 0.0009283308903781734 60.09 0.72
  endloop
 endfacet
 facet normal -0.9999996829318346 -0.0007963267107332632 -0.0
  outer loop
   vertex -0.01492574262043236 79.999 0.72
   vertex -0.01492574262043236 79.999 0
   vertex 0.0009283308903781734 60.09 0.72
  endloop
 endfacet
 facet normal 0.0 1.0 0.0
  outer loop
   vertex 5.748703395583716 79.999 0
   vertex -0.01492574262043236 79.999 0
   vertex -0.01492574262043236 79.999 0.72
  endloop
 endfacet
 facet normal 0.0 1.0 0.0
  outer loop
   vertex 9.865704427506772 79.999 0.72
   vertex 5.748703395583716 79.999 0
   vertex -0.01492574262043236 79.999 0.72
  endloop
 endfacet
 facet normal 0.1697654153091365 0.16990065791399583 -0.9707283194618913
  outer loop
   vertex 22.761245547474996 63.0 0
   vertex 5.748703395583716 79.999 0
   vertex 9.865704427506772 79.999 0.72
  endloop
 endfacet
 facet normal 0.16976541530913666 0.16990065791399594 -0.9707283194618912
  outer loop
   vertex 29.79056481352968 60.09 0.72
   vertex 22.761245547474996 63.0 0
   vertex 9.865704427506772 79.999 0.72
  endloop
 endfacet
 facet normal 0.0 0.0 1.0
  outer loop
   vertex 29.79056481352968 60.09 0.72
   vertex -0.01492574262043236 79.999 0.72
   vertex 0.0009283308903781734 60.09 0.72
  endloop
 endfacet
 facet normal 0.0 0.0 1.0
  outer loop
   vertex 29.79056481352968 60.09 0.72
   vertex 9.865704427506772 79.999 0.72
   vertex -0.01492574262043236 79.999 0.72
  endloop
 endfacet
 facet normal 0.0 0.0 -1.0
  outer loop
   vertex 29.79056481352968 60.09 1.26
   vertex 0.0009283308903781734 60.09 1.26
   vertex -0.01492574262043236 79.999 1.26
  endloop
 endfacet
 facet normal 0.0 0.0 -1.0
  outer loop
   vertex 29.79056481352968 60.09 1.26
   vertex -0.01492574262043236 79.999 1.26
   vertex 9.865704427506772 79.999 1.26
  endloop
 endfacet
 facet normal 0.0 -0.24018020275345792 0.9707283194618914
  outer loop
   vertex 0.0009283308903781734 60.09 1.26
   vertex 29.79056481352968 60.09 1.26
   vertex 22.761245547474996 63.0 1.98
  endloop
 endfacet
 facet normal 0.0 -0.24018020275345794 0.9707283194618914
  outer loop
   vertex -0.0013889805726013142 63.0 1.98
   vertex 0.0009283308903781734 60.09 1.26
   vertex 22.761245547474996 63.0 1.98
  endloop
 endfacet
 facet normal -0.9999996829318346 -0.0007963267107332632 0.0
  outer loop
   vertex -0.01492574262043236 79.999 1.26
   vertex 0.0009283308903781734 60.09 1.26
   vertex -0.0013889805726013142 63.0 1.98
  endloop
 endfacet
 facet normal -0.9999996829318346 -0.0007963267107332632 -0.0
  outer loop
   vertex -0.01492574262043236 79.999 1.98
   vertex -0.01492574262043236 79.999 1.26
   vertex -0.0013889805726013142 63.0 1.98
  endloop
 endfacet
 facet normal 0.0 1.0 0.0
  outer loop
   vertex 9.865704427506772 79.999 1.26
   vertex -0.01492574262043236 79.999 1.26
   vertex -0.01492574262043236 79.999 1.98
  endloop
 endfacet
 facet normal 0.0 1.0 0.0
  outer loop
   vertex 5.748703395583716 79.999 1.98
   vertex 9.865704427506772 79.999 1.26
   vertex -0.01492574262043236 79.999 1.98
  endloop
 endfacet
 facet normal 0.16976541530913655 0.16990065791399583 0.9707283194618914
  outer loop
   vertex 29.79056481352968 60.09 1.26
   vertex 9.865704427506772 79.999 1.26
   vertex 5.748703395583716 79.999 1.98
  endloop
 endfacet
 facet normal 0.16976541530913666 0.169900657913996 0.9707283194618913
  outer loop
   vertex 22.761245547474996 63.0 1.98
   vertex 29.79056481352968 60.09 1.26
   vertex 5.748703395583716 79.999 1.98
  endloop
 endfacet
 facet normal 0.0 0.0 1.0
  outer loop
   vertex 22.761245547474996 63.0 1.98
   vertex -0.01492574262043236 79.999 1.98
   vertex -0.0013889805726013142 63.0 1.98
  endloop
 endfacet
 facet normal 0.0 0.0 1.0
  outer loop
   vertex 22.761245547474996 63.0 1.98
   vertex 5.748703395583716 79.999 1.98
   vertex -0.01492574262043236 79.999 1.98
  endloop
 endfacet
 facet normal 0.0 0.0 -1.0
  outer loop
   vertex 31.24990746896585 56.99999999999999 0
   vertex 39.99661101879326 56.99999999999999 0
   vertex 39.98546244130814 43.0 0
  endloop
 endfacet
 facet normal 0.0 -0.0 -1.0
  outer loop
   vertex 31.24990746896585 56.99999999999999 0
   vertex 39.98546244130814 43.0 0
   vertex 17.23875445252501 43.0 0
  endloop
 endfacet
 facet normal 0.0 0.24018020275345794 -0.9707283194618914
  outer loop
   vertex 39.99661101879326 56.99999999999999 0
   vertex 31.24990746896585 56.99999999999999 0
   vertex 30.045224671174413 59.90999999999999 0.72
  endloop
 endfacet
 facet normal 0.0 0.24018020275345794 -0.9707283194618914
  outer loop
   vertex 39.99892833025624 59.90999999999999 0.72
   vertex 39.99661101879326 56.99999999999999 0
   vertex 30.045224671174413 59.90999999999999 0.72
  endloop
 endfacet
 facet normal 0.9999996829318345 -0.0007963267107331576 -2.957289559478743e-15
  outer loop
   vertex 39.98546244130814 43.0 0
   vertex 39.99661101879326 56.99999999999999 0
   vertex 39.99892833025624 59.90999999999999 0.72
  endloop
 endfacet
 facet normal 0.9999996829318346 -0.0007963267107333724 2.087930329643046e-15
  outer loop
   vertex 39.983145129845155 40.09 0.72
   vertex 39.98546244130814 43.0 0
   vertex 39.99892833025624 59.90999999999999 0.72
  endloop
 endfacet
 facet normal 0.0 -0.24018020275345792 -0.9707283194618914
  outer loop
   vertex 17.23875445252501 43.0 0
   vertex 39.98546244130814 43.0 0
   vertex 39.983145129845155 40.09 0.72
  endloop
 endfacet
 facet normal 0.0 -0.24018020275345792 -0.9707283194618914
  outer loop
   vertex 10.209435186470314 40.09 0.72
   vertex 17.23875445252501 43.0 0
   vertex 39.983145129845155 40.09 0.72
  endloop
 endfacet
 facet normal -0.1697654153091363 0.16990065791399558 -0.9707283194618914
  outer loop
   vertex 31.24990746896585 56.99999999999999 0
   vertex 17.23875445252501 43.0 0
   vertex 10.209435186470314 40.09 0.72
  endloop
 endfacet
 facet normal -0.16976541530913616 0.16990065791399547 -0.9707283194618914
  outer loop
   vertex 30.045224671174413 59.90999999999999 0.72
   vertex 31.24990746896585 56.99999999999999 0
   vertex 10.209435186470314 40.09 0.72
  endloop
 endfacet
 facet normal -0.0 0.0 1.0
  outer loop
   vertex 30.045224671174413 59.90999999999999 0.72
   vertex 39.983145129845155 40.09 0.72
   vertex 39.99892833025624 59.90999999999999 0.72
  endloop
 endfacet
 facet normal 0.0 0.0 1.0
  outer loop
   vertex 30.045224671174413 59.90999999999999 0.72
   vertex 10.209435186470314 40.09 0.72
   vertex 39.983145129845155 40.09 0.72
  endloop
 endfacet
 facet normal 0.0 0.0 -1.0
  outer loop
   vertex 30.045224671174413 59.90999999999999 1.26
   vertex 39.99892833025624 59.90999999999999 1.26
   vertex 39.983145129845155 40.09 1.26
  endloop
 endfacet
 facet normal 0.0 -0.0 -1.0
  outer loop
   vertex 30.045224671174413 59.90999999999999 1.26
   vertex 39.983145129845155 40.09 1.26
   vertex 10.209435186470314 40.09 1.26
  endloop
 endfacet
 facet normal 0.0 0.24018020275345794 0.9707283194618914
  outer loop
   vertex 39.99892833025624 59.90999999999999 1.26
   vertex 30.045224671174413 59.90999999999999 1.26
   vertex 31.24990746896585 56.99999999999999 1.98
  endloop
 endfacet
 facet normal 0.0 0.24018020275345794 0.9707283194618914
  outer loop
   vertex 39.99661101879326 56.99999999999999 1.98
   vertex 39.99892833025624 59.90999999999999 1.26
   vertex 31.24990746896585 56.99999999999999 1.98
  endloop
 endfacet
 facet normal 0.9999996829318346 -0.0007963267107333724 2.0850128676081467e-15
  outer loop
   vertex 39.983145129845155 40.09 1.26
   vertex 39.99892833025624 59.90999999999999 1.26
   vertex 39.99661101879326 56.99999999999999 1.98
  endloop
 endfacet
 facet normal 0.9999996829318345 -0.0007963267107331576 -2.9559127952517975e-15
  outer loop
   vertex 39.98546244130814 43.0 1.98
   vertex 39.983145129845155 40.09 1.26
   vertex 39.99661101879326 56.99999999999999 1.98
  endloop
 endfacet
 facet normal 0.0 -0.24018020275345792 0.9707283194618914
  outer loop
   vertex 10.209435186470314 40.09 1.26
   vertex 39.983145129845155 40.09 1.26
   vertex 39.98546244130814 43.0 1.98
  endloop
 endfacet
 facet normal 0.0 -0.24018020275345792 0.9707283194618914
  outer loop
   vertex 17.23875445252501 43.0 1.98
   vertex 10.209435186470314 40.09 1.26
   vertex 39.98546244130814 43.0 1.98
  endloop
 endfacet
 facet normal -0.1697654153091361 0.16990065791399542 0.9707283194618914
  outer loop
   vertex 30.045224671174413 59.90999999999999 1.26
   vertex 10.209435186470314 40.09 1.26
   vertex 17.23875445252501 43.0 1.98
  endloop
 endfacet
 facet normal -0.16976541530913616 0.16990065791399547 0.9707283194618914
  outer loop
   vertex 31.24990746896585 56.99999999999999 1.98
   vertex 30.045224671174413 59.90999999999999 1.26
   vertex 17.23875445252501 43.0 1.98
  endloop
 endfacet
 facet normal -0.0 0.0 1.0
  outer loop
   vertex 31.24990746896585 56.99999999999999 1.98
   vertex 39.98546244130814 43.0 1.98
   vertex 39.99661101879326 56.99999999999999 1.98
  endloop
 endfacet
 facet normal 0.0 0.0 1.0
  outer loop
   vertex 31.24990746896585 56.99999999999999 1.98
   vertex 17.23875445252501 43.0 1.98
   vertex 39.98546244130814 43.0 1.98
  endloop
 endfacet
 facet normal -0.0 0.0 -1.0
  outer loop
   vertex 39.99661101879327 63.0 0
   vertex 31.249907468965855 62.99999999999999 0
   vertex 14.237365317074568 79.999 0
  endloop
 endfacet
 facet normal 0.0 0.0 -1.0
  outer loop
   vertex 39.99661101879327 63.0 0
   vertex 14.237365317074568 79.999 0
   vertex 39.98307425674543 79.999 0
  endloop
 endfacet
 facet normal 1.951115610214371e-16 -0.2401802027534574 -0.9707283194618915
  outer loop
   vertex 31.249907468965855 62.99999999999999 0
   vertex 39.99661101879327 63.0 0
   vertex 39.99892833025625 60.089999999999996 0.72
  endloop
 endfacet
 facet normal 0.0 -0.24018020275345792 -0.9707283194618914
  outer loop
   vertex 30.045224671174427 60.089999999999996 0.72
   vertex 31.249907468965855 62.99999999999999 0
   vertex 39.99892833025625 60.089999999999996 0.72
  endloop
 endfacet
 facet normal -0.16976541530913644 -0.16990065791399578 -0.9707283194618914
  outer loop
   vertex 14.237365317074568 79.999 0
   vertex 31.249907468965855 62.99999999999999 0
   vertex 30.045224671174427 60.089999999999996 0.72
  endloop
 endfacet
 facet normal -0.1697654153091366 -0.1699006579139959 -0.9707283194618912
  outer loop
   vertex 10.120364285151512 79.999 0.72
   vertex 14.237365317074568 79.999 0
   vertex 30.045224671174427 60.089999999999996 0.72
  endloop
 endfacet
 facet normal 0.0 1.0 0.0
  outer loop
   vertex 39.98307425674543 79.999 0
   vertex 14.237365317074568 79.999 0
   vertex 10.120364285151512 79.999 0.72
  endloop
 endfacet
 facet normal 0.0 1.0 0.0
  outer loop
   vertex 39.98307425674543 79.999 0.72
   vertex 39.98307425674543 79.999 0
   vertex 10.120364285151512 79.999 0.72
  endloop
 endfacet
 facet normal 0.9999996829318346 0.0007963267107334857 0.0
  outer loop
   vertex 39.99661101879327 63.0 0
   vertex 39.98307425674543 79.999 0
   vertex 39.98307425674543 79.999 0.72
  endloop
 endfacet
 facet normal 0.9999996829318346 0.0007963267107335443 -1.3854083340511505e-15
  outer loop
   vertex 39.99892833025625 60.089999999999996 0.72
   vertex 39.99661101879327 63.0 0
   vertex 39.98307425674543 79.999 0.72
  endloop
 endfacet
 facet normal 0.0 0.0 1.0
  outer loop
   vertex 39.99892833025625 60.089999999999996 0.72
   vertex 10.120364285151512 79.999 0.72
   vertex 30.045224671174427 60.089999999999996 0.72
  endloop
 endfacet
 facet normal 0.0 0.0 1.0
  outer loop
   vertex 39.99892833025625 60.089999999999996 0.72
   vertex 39.98307425674543 79.999 0.72
   vertex 10.120364285151512 79.999 0.72
  endloop
 endfacet
 facet normal 0.0 0.0 -1.0
  outer loop
   vertex 39.99892833025625 60.089999999999996 1.26
   vertex 30.045224671174427 60.089999999999996 1.26
   vertex 10.120364285151512 79.999 1.26
  endloop
 endfacet
 facet normal 0.0 0.0 -1.0
  outer loop
   vertex 39.99892833025625 60.089999999999996 1.26
   vertex 10.120364285151512 79.999 1.26
   vertex 39.98307425674543 79.999 1.26
  endloop
 endfacet
 facet normal 0.0 -0.2401802027534574 0.9707283194618916
  outer loop
   vertex 30.045224671174427 60.089999999999996 1.26
   vertex 39.99892833025625 60.089999999999996 1.26
   vertex 39.99661101879327 63.0 1.98
  endloop
 endfacet
 facet normal 1.951115610214376e-16 -0.24018020275345803 0.9707283194618914
  outer loop
   vertex 31.249907468965855 62.99999999999999 1.98
   vertex 30.045224671174427 60.089999999999996 1.26
   vertex 39.99661101879327 63.0 1.98
  endloop
 endfacet
 facet normal -0.16976541530913658 -0.16990065791399583 0.9707283194618913
  outer loop
   vertex 10.120364285151512 79.999 1.26
   vertex 30.045224671174427 60.089999999999996 1.26
   vertex 31.249907468965855 62.99999999999999 1.98
  endloop
 endfacet
 facet normal -0.1697654153091366 -0.16990065791399594 0.9707283194618912
  outer loop
   vertex 14.237365317074568 79.999 1.98
   vertex 10.120364285151512 79.999 1.26
   vertex 31.249907468965855 62.99999999999999 1.98
  endloop
 endfacet
 facet normal 0.0 1.0 0.0
  outer loop
   vertex 39.98307425674543 79.999 1.26
   vertex 10.120364285151512 79.999 1.26
   vertex 14.237365317074568 79.999 1.98
  endloop
 endfacet
 facet normal 0.0 1.0 0.0
  outer loop
   vertex 39.98307425674543 79.999 1.98
   vertex 39.98307425674543 79.999 1.26
   vertex 14.237365317074568 79.999 1.98
  endloop
 endfacet
 facet normal 0.9999996829318346 0.0007963267107335443 0.0
  outer loop
   vertex 39.99892833025625 60.089999999999996 1.26
   vertex 39.98307425674543 79.999 1.26
   vertex 39.98307425674543 79.999 1.98
  endloop
 endfacet
 facet normal 0.9999996829318346 0.0007963267107334857 1.6225715937775375e-15
  outer loop
   vertex 39.99661101879327 63.0 1.98
   vertex 39.99892833025625 60.089999999999996 1.26
   vertex 39.98307425674543 79.999 1.98
  endloop
 endfacet
 facet normal 0.0 0.0 1.0
  outer loop
   vertex 39.99661101879327 63.0 1.98
   vertex 14.237365317074568 79.999 1.98
   vertex 31.249907468965855 62.99999999999999 1.98
  endloop
 endfacet
 facet normal 0.0 0.0 1.0
  outer loop
   vertex 39.99661101879327 63.0 1.98
   vertex 39.98307425674543 79.999 1.98
   vertex 14.237365317074568 79.999 1.98
  endloop
 endfacet
endsolid
