solid PyGamic generated __All_Crease__ SLA File
 facet normal 0.0 0.0 -1.0
  outer loop
   vertex 9.992033559685108 0.0 0
   vertex -0.01592653926446385 0.0 0
   vertex 2.9874641894740352 3.001 0
  endloop
 endfacet
 facet normal 0.0 0.0 -1.0
  outer loop
   vertex -0.01592653926446385 0.0 0
   vertex 0.0 20.0 0
   vertex 2.9986119706321968 17.0 0
  endloop
 endfacet
 facet normal 0.0 0.0 -1.0
  outer loop
   vertex 0.0 20.0 0
   vertex -0.01592653926446385 40.0 0
   vertex 2.9986119706321968 17.0 0
  endloop
 endfacet
 facet normal 0.0 0.0 -1.0
  outer loop
   vertex -0.01592653926446385 40.0 0
   vertex 0.0 60.0 0
   vertex 2.9986119706321968 17.0 0
  endloop
 endfacet
 facet normal 0.0 0.0 -1.0
  outer loop
   vertex 0.0 60.0 0
   vertex -0.01592653926446385 80.0 0
   vertex 2.9986119706321968 17.0 0
  endloop
 endfacet
 facet normal 0.0 0.0 -1.0
  outer loop
   vertex -0.01592653926446385 80.0 0
   vertex 9.992033559685108 80.0 0
   vertex 8.751093327678182 76.999 0
  endloop
 endfacet
 facet normal 0.0 0.0 -1.0
  outer loop
   vertex 9.992033559685108 80.0 0
   vertex 39.98407346073554 80.0 0
   vertex 36.985462286430305 76.999 0
  endloop
 endfacet
 facet normal 0.0 -0.0 -1.0
  outer loop
   vertex 39.98407346073554 80.0 0
   vertex 40.0 60.0 0
   vertex 36.99661006758846 23.0 0
  endloop
 endfacet
 facet normal 0.0 0.0 -1.0
  outer loop
   vertex 40.0 60.0 0
   vertex 39.98407346073554 40.0 0
   vertex 36.99661006758846 23.0 0
  endloop
 endfacet
 facet normal 0.0 -0.0 -1.0
  outer loop
   vertex 39.98407346073554 40.0 0
   vertex 40.0 20.0 0
   vertex 36.99661006758846 23.0 0
  endloop
 endfacet
 facet normal 0.0 0.0 -1.0
  outer loop
   vertex 40.0 20.0 0
   vertex 39.98407346073554 0.0 0
   vertex 36.985462286430305 3.001 0
  endloop
 endfacet
 facet normal 0.0 0.0 -1.0
  outer loop
   vertex 39.98407346073554 0.0 0
   vertex 9.992033559685108 0.0 0
   vertex 2.9874641894740352 3.001 0
  endloop
 endfacet
 facet normal 0.0 0.0 -1.0
  outer loop
   vertex 2.9986119706321968 17.0 0
   vertex 2.9874641894740352 3.001 0
   vertex -0.01592653926446385 0.0 0
  endloop
 endfacet
 facet normal 0.0 0.0 -1.0
  outer loop
   vertex 2.9986119706321968 17.0 0
   vertex -0.01592653926446385 80.0 0
   vertex 2.9874633931470718 37.0 0
  endloop
 endfacet
 facet normal 0.0 0.0 -1.0
  outer loop
   vertex 2.9986119706321968 17.0 0
   vertex 40.0 20.0 0
   vertex 22.761245547474996 17.0 0
  endloop
 endfacet
 facet normal 0.0 0.0 -1.0
  outer loop
   vertex 2.9986119706321968 17.0 0
   vertex 36.99661006758846 23.0 0
   vertex 40.0 20.0 0
  endloop
 endfacet
 facet normal 0.0 0.0 -1.0
  outer loop
   vertex 2.9986119706321968 17.0 0
   vertex 2.9986119706321968 23.0 0
   vertex 22.761245547474996 23.0 0
  endloop
 endfacet
 facet normal 0.0 0.0 -1.0
  outer loop
   vertex 2.9986119706321968 17.0 0
   vertex 2.9874633931470718 37.0 0
   vertex 2.9986119706321968 23.0 0
  endloop
 endfacet
 facet normal 0.0 0.0 -1.0
  outer loop
   vertex 2.9986119706321968 17.0 0
   vertex 31.249907468965848 23.0 0
   vertex 36.99661006758846 23.0 0
  endloop
 endfacet
 facet normal 0.0 0.0 -1.0
  outer loop
   vertex 2.9986119706321968 17.0 0
   vertex 22.761245547474996 23.0 0
   vertex 31.249907468965848 23.0 0
  endloop
 endfacet
 facet normal 0.0 0.0 -1.0
  outer loop
   vertex 2.9874641894740352 3.001 0
   vertex 8.751093327678177 3.001 0
   vertex 39.98407346073554 0.0 0
  endloop
 endfacet
 facet normal 0.0 0.0 -1.0
  outer loop
   vertex 8.751093327678177 3.001 0
   vertex 17.239755249169036 3.001 0
   vertex 39.98407346073554 0.0 0
  endloop
 endfacet
 facet normal 0.0 0.0 -1.0
  outer loop
   vertex 8.751093327678177 3.001 0
   vertex 22.761245547474996 17.0 0
   vertex 31.24990746896585 17.0 0
  endloop
 endfacet
 facet normal 0.0 0.0 -1.0
  outer loop
   vertex 8.751093327678177 3.001 0
   vertex 31.24990746896585 17.0 0
   vertex 17.239755249169036 3.001 0
  endloop
 endfacet
 facet normal 0.0 0.0 -1.0
  outer loop
   vertex 22.761245547474996 17.0 0
   vertex 40.0 20.0 0
   vertex 31.24990746896585 17.0 0
  endloop
 endfacet
 facet normal 0.0 0.0 -1.0
  outer loop
   vertex 22.761245547474996 23.0 0
   vertex 17.238754452525 37.0 0
   vertex 31.249907468965848 23.0 0
  endloop
 endfacet
 facet normal 0.0 0.0 -1.0
  outer loop
   vertex 22.761245547474996 23.0 0
   vertex 8.750092531034147 37.0 0
   vertex 2.9874633931470718 43.0 0
  endloop
 endfacet
 facet normal 0.0 0.0 -1.0
  outer loop
   vertex 22.761245547474996 23.0 0
   vertex 2.9874633931470718 43.0 0
   vertex 8.750092531034154 43.0 0
  endloop
 endfacet
 facet normal 0.0 0.0 -1.0
  outer loop
   vertex 22.761245547474996 23.0 0
   vertex 8.750092531034154 43.0 0
   vertex 17.238754452525 37.0 0
  endloop
 endfacet
 facet normal 0.0 0.0 -1.0
  outer loop
   vertex 8.750092531034147 37.0 0
   vertex 2.9874633931470718 37.0 0
   vertex 2.9874633931470718 43.0 0
  endloop
 endfacet
 facet normal 0.0 0.0 -1.0
  outer loop
   vertex 2.9874633931470718 37.0 0
   vertex -0.01592653926446385 80.0 0
   vertex 2.9874633931470718 43.0 0
  endloop
 endfacet
 facet normal 0.0 0.0 -1.0
  outer loop
   vertex 31.24990746896585 17.0 0
   vertex 40.0 20.0 0
   vertex 36.99661006758847 17.0 0
  endloop
 endfacet
 facet normal 0.0 0.0 -1.0
  outer loop
   vertex 17.239755249169036 3.001 0
   vertex 36.985462286430305 3.001 0
   vertex 39.98407346073554 0.0 0
  endloop
 endfacet
 facet normal 0.0 0.0 -1.0
  outer loop
   vertex 36.985462286430305 3.001 0
   vertex 36.99661006758847 17.0 0
   vertex 40.0 20.0 0
  endloop
 endfacet
 facet normal 0.0 0.0 -1.0
  outer loop
   vertex 36.99661006758846 23.0 0
   vertex 36.99661006758846 56.99999999999999 0
   vertex 39.98407346073554 80.0 0
  endloop
 endfacet
 facet normal 0.0 0.0 -1.0
  outer loop
   vertex 36.99661006758846 23.0 0
   vertex 36.98546149010334 37.0 0
   vertex 36.98546149010334 43.0 0
  endloop
 endfacet
 facet normal 0.0 0.0 -1.0
  outer loop
   vertex 36.99661006758846 23.0 0
   vertex 36.98546149010334 43.0 0
   vertex 36.99661006758846 56.99999999999999 0
  endloop
 endfacet
 facet normal 0.0 0.0 -1.0
  outer loop
   vertex 36.98546149010334 37.0 0
   vertex 17.238754452525 37.0 0
   vertex 8.750092531034154 43.0 0
  endloop
 endfacet
 facet normal 0.0 0.0 -1.0
  outer loop
   vertex 36.98546149010334 37.0 0
   vertex 8.750092531034154 43.0 0
   vertex 17.23875445252501 43.0 0
  endloop
 endfacet
 facet normal 0.0 0.0 -1.0
  outer loop
   vertex 36.98546149010334 37.0 0
   vertex 17.23875445252501 43.0 0
   vertex 36.98546149010334 43.0 0
  endloop
 endfacet
 facet normal -0.0 0.0 -1.0
  outer loop
   vertex 2.9986119706321968 56.99999999999999 0
   vertex 2.9874633931470718 43.0 0
   vertex -0.01592653926446385 80.0 0
  endloop
 endfacet
 facet normal 0.0 0.0 -1.0
  outer loop
   vertex 2.9986119706321968 56.99999999999999 0
   vertex -0.01592653926446385 80.0 0
   vertex 2.9874641894740352 76.999 0
  endloop
 endfacet
 facet normal 0.0 0.0 -1.0
  outer loop
   vertex 2.9986119706321968 56.99999999999999 0
   vertex 31.249907468965855 62.99999999999999 0
   vertex 36.99661006758847 63.0 0
  endloop
 endfacet
 facet normal 0.0 0.0 -1.0
  outer loop
   vertex 2.9986119706321968 56.99999999999999 0
   vertex 36.99661006758847 63.0 0
   vertex 22.761245547475003 57.0 0
  endloop
 endfacet
 facet normal 0.0 0.0 -1.0
  outer loop
   vertex 2.9986119706321968 56.99999999999999 0
   vertex 22.761245547474996 63.0 0
   vertex 31.249907468965855 62.99999999999999 0
  endloop
 endfacet
 facet normal 0.0 0.0 -1.0
  outer loop
   vertex 8.750092531034154 43.0 0
   vertex 31.24990746896585 56.99999999999999 0
   vertex 17.23875445252501 43.0 0
  endloop
 endfacet
 facet normal 0.0 0.0 -1.0
  outer loop
   vertex 8.750092531034154 43.0 0
   vertex 22.761245547475003 57.0 0
   vertex 36.99661006758847 63.0 0
  endloop
 endfacet
 facet normal 0.0 0.0 -1.0
  outer loop
   vertex 8.750092531034154 43.0 0
   vertex 36.99661006758847 63.0 0
   vertex 31.24990746896585 56.99999999999999 0
  endloop
 endfacet
 facet normal 0.0 0.0 -1.0
  outer loop
   vertex 22.761245547474996 63.0 0
   vertex 8.751093327678182 76.999 0
   vertex 9.992033559685108 80.0 0
  endloop
 endfacet
 facet normal 0.0 0.0 -1.0
  outer loop
   vertex 22.761245547474996 63.0 0
   vertex 9.992033559685108 80.0 0
   vertex 17.239755249169036 76.999 0
  endloop
 endfacet
 facet normal 0.0 0.0 -1.0
  outer loop
   vertex 22.761245547474996 63.0 0
   vertex 17.239755249169036 76.999 0
   vertex 31.249907468965855 62.99999999999999 0
  endloop
 endfacet
 facet normal 0.0 0.0 -1.0
  outer loop
   vertex 8.751093327678182 76.999 0
   vertex 2.9874641894740352 76.999 0
   vertex -0.01592653926446385 80.0 0
  endloop
 endfacet
 facet normal 0.0 0.0 -1.0
  outer loop
   vertex 31.24990746896585 56.99999999999999 0
   vertex 36.99661006758847 63.0 0
   vertex 36.99661006758846 56.99999999999999 0
  endloop
 endfacet
 facet normal 0.0 0.0 -1.0
  outer loop
   vertex 36.99661006758846 56.99999999999999 0
   vertex 36.99661006758847 63.0 0
   vertex 39.98407346073554 80.0 0
  endloop
 endfacet
 facet normal 0.0 0.0 -1.0
  outer loop
   vertex 36.99661006758847 63.0 0
   vertex 36.985462286430305 76.999 0
   vertex 39.98407346073554 80.0 0
  endloop
 endfacet
 facet normal 0.0 0.0 -1.0
  outer loop
   vertex 36.985462286430305 76.999 0
   vertex 17.239755249169036 76.999 0
   vertex 9.992033559685108 80.0 0
  endloop
 endfacet
 facet normal 0.0 -1.0 0.0
  outer loop
   vertex -0.01592653926446385 0.0 0
   vertex 9.992033559685108 0.0 0
   vertex 9.992033559685108 0.0 0.54
  endloop
 endfacet
 facet normal 0.0 -1.0 0.0
  outer loop
   vertex -0.01592653926446385 0.0 0.54
   vertex -0.01592653926446385 0.0 0
   vertex 9.992033559685108 0.0 0.54
  endloop
 endfacet
 facet normal -0.9999996829318346 0.0007963267107332631 0.0
  outer loop
   vertex 0.0 20.0 0
   vertex -0.01592653926446385 0.0 0
   vertex -0.01592653926446385 0.0 0.54
  endloop
 endfacet
 facet normal -0.9999996829318346 0.0007963267107332631 0.0
  outer loop
   vertex 0.0 20.0 0.54
   vertex 0.0 20.0 0
   vertex -0.01592653926446385 0.0 0.54
  endloop
 endfacet
 facet normal -0.9999996829318346 -0.0007963267107332631 0.0
  outer loop
   vertex -0.01592653926446385 40.0 0
   vertex 0.0 20.0 0
   vertex 0.0 20.0 0.54
  endloop
 endfacet
 facet normal -0.9999996829318346 -0.0007963267107332631 -0.0
  outer loop
   vertex -0.01592653926446385 40.0 0.54
   vertex -0.01592653926446385 40.0 0
   vertex 0.0 20.0 0.54
  endloop
 endfacet
 facet normal -0.9999996829318346 0.0007963267107332631 0.0
  outer loop
   vertex 0.0 60.0 0
   vertex -0.01592653926446385 40.0 0
   vertex -0.01592653926446385 40.0 0.54
  endloop
 endfacet
 facet normal -0.9999996829318346 0.0007963267107332631 0.0
  outer loop
   vertex 0.0 60.0 0.54
   vertex 0.0 60.0 0
   vertex -0.01592653926446385 40.0 0.54
  endloop
 endfacet
 facet normal -0.9999996829318346 -0.0007963267107332631 0.0
  outer loop
   vertex -0.01592653926446385 80.0 0
   vertex 0.0 60.0 0
   vertex 0.0 60.0 0.54
  endloop
 endfacet
 facet normal -0.9999996829318346 -0.0007963267107332631 -0.0
  outer loop
   vertex -0.01592653926446385 80.0 0.54
   vertex -0.01592653926446385 80.0 0
   vertex 0.0 60.0 0.54
  endloop
 endfacet
 facet normal 0.0 1.0 0.0
  outer loop
   vertex 9.992033559685108 80.0 0
   vertex -0.01592653926446385 80.0 0
   vertex -0.01592653926446385 80.0 0.54
  endloop
 endfacet
 facet normal 0.0 1.0 0.0
  outer loop
   vertex 9.992033559685108 80.0 0.54
   vertex 9.992033559685108 80.0 0
   vertex -0.01592653926446385 80.0 0.54
  endloop
 endfacet
 facet normal 0.0 1.0 0.0
  outer loop
   vertex 39.98407346073554 80.0 0
   vertex 9.992033559685108 80.0 0
   vertex 9.992033559685108 80.0 0.54
  endloop
 endfacet
 facet normal 0.0 1.0 0.0
  outer loop
   vertex 39.98407346073554 80.0 0.54
   vertex 39.98407346073554 80.0 0
   vertex 9.992033559685108 80.0 0.54
  endloop
 endfacet
 facet normal 0.9999996829318346 0.000796326710733208 0.0
  outer loop
   vertex 40.0 60.0 0
   vertex 39.98407346073554 80.0 0
   vertex 39.98407346073554 80.0 0.54
  endloop
 endfacet
 facet normal 0.9999996829318346 0.000796326710733208 0.0
  outer loop
   vertex 40.0 60.0 0.54
   vertex 40.0 60.0 0
   vertex 39.98407346073554 80.0 0.54
  endloop
 endfacet
 facet normal 0.9999996829318346 -0.000796326710733208 0.0
  outer loop
   vertex 39.98407346073554 40.0 0
   vertex 40.0 60.0 0
   vertex 40.0 60.0 0.54
  endloop
 endfacet
 facet normal 0.9999996829318346 -0.000796326710733208 0.0
  outer loop
   vertex 39.98407346073554 40.0 0.54
   vertex 39.98407346073554 40.0 0
   vertex 40.0 60.0 0.54
  endloop
 endfacet
 facet normal 0.9999996829318346 0.000796326710733208 0.0
  outer loop
   vertex 40.0 20.0 0
   vertex 39.98407346073554 40.0 0
   vertex 39.98407346073554 40.0 0.54
  endloop
 endfacet
 facet normal 0.9999996829318346 0.000796326710733208 0.0
  outer loop
   vertex 40.0 20.0 0.54
   vertex 40.0 20.0 0
   vertex 39.98407346073554 40.0 0.54
  endloop
 endfacet
 facet normal 0.9999996829318346 -0.000796326710733208 0.0
  outer loop
   vertex 39.98407346073554 0.0 0
   vertex 40.0 20.0 0
   vertex 40.0 20.0 0.54
  endloop
 endfacet
 facet normal 0.9999996829318346 -0.000796326710733208 0.0
  outer loop
   vertex 39.98407346073554 0.0 0.54
   vertex 39.98407346073554 0.0 0
   vertex 40.0 20.0 0.54
  endloop
 endfacet
 facet normal 0.0 -1.0 0.0
  outer loop
   vertex 9.992033559685108 0.0 0
   vertex 39.98407346073554 0.0 0
   vertex 39.98407346073554 0.0 0.54
  endloop
 endfacet
 facet normal 0.0 -1.0 0.0
  outer loop
   vertex 9.992033559685108 0.0 0.54
   vertex 9.992033559685108 0.0 0
   vertex 39.98407346073554 0.0 0.54
  endloop
 endfacet
 facet normal 0.0 0.0 1.0
  outer loop
   vertex 9.992033559685108 0.0 0.54
   vertex 2.9874641894740352 3.001 0.54
   vertex -0.01592653926446385 0.0 0.54
  endloop
 endfacet
 facet normal 0.0 0.0 1.0
  outer loop
   vertex -0.01592653926446385 0.0 0.54
   vertex 2.9986119706321968 17.0 0.54
   vertex 0.0 20.0 0.54
  endloop
 endfacet
 facet normal -0.0 -0.0 1.0
  outer loop
   vertex 0.0 20.0 0.54
   vertex 2.9986119706321968 17.0 0.54
   vertex -0.01592653926446385 40.0 0.54
  endloop
 endfacet
 facet normal -0.0 0.0 1.0
  outer loop
   vertex -0.01592653926446385 40.0 0.54
   vertex 2.9986119706321968 17.0 0.54
   vertex 0.0 60.0 0.54
  endloop
 endfacet
 facet normal -0.0 -0.0 1.0
  outer loop
   vertex 0.0 60.0 0.54
   vertex 2.9986119706321968 17.0 0.54
   vertex -0.01592653926446385 80.0 0.54
  endloop
 endfacet
 facet normal -0.0 0.0 1.0
  outer loop
   vertex -0.01592653926446385 80.0 0.54
   vertex 8.751093327678182 76.999 0.54
   vertex 9.992033559685108 80.0 0.54
  endloop
 endfacet
 facet normal -0.0 0.0 1.0
  outer loop
   vertex 9.992033559685108 80.0 0.54
   vertex 36.985462286430305 76.999 0.54
   vertex 39.98407346073554 80.0 0.54
  endloop
 endfacet
 facet normal 0.0 0.0 1.0
  outer loop
   vertex 39.98407346073554 80.0 0.54
   vertex 36.99661006758846 23.0 0.54
   vertex 40.0 60.0 0.54
  endloop
 endfacet
 facet normal 0.0 0.0 1.0
  outer loop
   vertex 40.0 60.0 0.54
   vertex 36.99661006758846 23.0 0.54
   vertex 39.98407346073554 40.0 0.54
  endloop
 endfacet
 facet normal 0.0 0.0 1.0
  outer loop
   vertex 39.98407346073554 40.0 0.54
   vertex 36.99661006758846 23.0 0.54
   vertex 40.0 20.0 0.54
  endloop
 endfacet
 facet normal 0.0 0.0 1.0
  outer loop
   vertex 40.0 20.0 0.54
   vertex 36.985462286430305 3.001 0.54
   vertex 39.98407346073554 0.0 0.54
  endloop
 endfacet
 facet normal 0.0 0.0 1.0
  outer loop
   vertex 39.98407346073554 0.0 0.54
   vertex 2.9874641894740352 3.001 0.54
   vertex 9.992033559685108 0.0 0.54
  endloop
 endfacet
 facet normal 0.0 0.0 1.0
  outer loop
   vertex 2.9986119706321968 17.0 0.54
   vertex -0.01592653926446385 0.0 0.54
   vertex 2.9874641894740352 3.001 0.54
  endloop
 endfacet
 facet normal 0.0 0.0 1.0
  outer loop
   vertex 2.9986119706321968 17.0 0.54
   vertex 2.9874633931470718 37.0 0.54
   vertex -0.01592653926446385 80.0 0.54
  endloop
 endfacet
 facet normal 0.0 0.0 1.0
  outer loop
   vertex 2.9986119706321968 17.0 0.54
   vertex 22.761245547474996 17.0 0.54
   vertex 40.0 20.0 0.54
  endloop
 endfacet
 facet normal 0.0 0.0 1.0
  outer loop
   vertex 2.9986119706321968 17.0 0.54
   vertex 40.0 20.0 0.54
   vertex 36.99661006758846 23.0 0.54
  endloop
 endfacet
 facet normal 0.0 0.0 1.0
  outer loop
   vertex 2.9986119706321968 17.0 0.54
   vertex 22.761245547474996 23.0 0.54
   vertex 2.9986119706321968 23.0 0.54
  endloop
 endfacet
 facet normal 0.0 -0.0 1.0
  outer loop
   vertex 2.9986119706321968 17.0 0.54
   vertex 2.9986119706321968 23.0 0.54
   vertex 2.9874633931470718 37.0 0.54
  endloop
 endfacet
 facet normal 0.0 0.0 1.0
  outer loop
   vertex 2.9986119706321968 17.0 0.54
   vertex 36.99661006758846 23.0 0.54
   vertex 31.249907468965848 23.0 0.54
  endloop
 endfacet
 facet normal 0.0 0.0 1.0
  outer loop
   vertex 2.9986119706321968 17.0 0.54
   vertex 31.249907468965848 23.0 0.54
   vertex 22.761245547474996 23.0 0.54
  endloop
 endfacet
 facet normal -0.0 0.0 1.0
  outer loop
   vertex 2.9874641894740352 3.001 0.54
   vertex 39.98407346073554 0.0 0.54
   vertex 8.751093327678177 3.001 0.54
  endloop
 endfacet
 facet normal -0.0 0.0 1.0
  outer loop
   vertex 8.751093327678177 3.001 0.54
   vertex 39.98407346073554 0.0 0.54
   vertex 17.239755249169036 3.001 0.54
  endloop
 endfacet
 facet normal 0.0 0.0 1.0
  outer loop
   vertex 8.751093327678177 3.001 0.54
   vertex 31.24990746896585 17.0 0.54
   vertex 22.761245547474996 17.0 0.54
  endloop
 endfacet
 facet normal 0.0 0.0 1.0
  outer loop
   vertex 8.751093327678177 3.001 0.54
   vertex 17.239755249169036 3.001 0.54
   vertex 31.24990746896585 17.0 0.54
  endloop
 endfacet
 facet normal 0.0 0.0 1.0
  outer loop
   vertex 22.761245547474996 17.0 0.54
   vertex 31.24990746896585 17.0 0.54
   vertex 40.0 20.0 0.54
  endloop
 endfacet
 facet normal 0.0 -0.0 1.0
  outer loop
   vertex 22.761245547474996 23.0 0.54
   vertex 31.249907468965848 23.0 0.54
   vertex 17.238754452525 37.0 0.54
  endloop
 endfacet
 facet normal 0.0 0.0 1.0
  outer loop
   vertex 22.761245547474996 23.0 0.54
   vertex 2.9874633931470718 43.0 0.54
   vertex 8.750092531034147 37.0 0.54
  endloop
 endfacet
 facet normal 0.0 0.0 1.0
  outer loop
   vertex 22.761245547474996 23.0 0.54
   vertex 8.750092531034154 43.0 0.54
   vertex 2.9874633931470718 43.0 0.54
  endloop
 endfacet
 facet normal 0.0 0.0 1.0
  outer loop
   vertex 22.761245547474996 23.0 0.54
   vertex 17.238754452525 37.0 0.54
   vertex 8.750092531034154 43.0 0.54
  endloop
 endfacet
 facet normal 0.0 0.0 1.0
  outer loop
   vertex 8.750092531034147 37.0 0.54
   vertex 2.9874633931470718 43.0 0.54
   vertex 2.9874633931470718 37.0 0.54
  endloop
 endfacet
 facet normal 0.0 -0.0 1.0
  outer loop
   vertex 2.9874633931470718 37.0 0.54
   vertex 2.9874633931470718 43.0 0.54
   vertex -0.01592653926446385 80.0 0.54
  endloop
 endfacet
 facet normal 0.0 0.0 1.0
  outer loop
   vertex 31.24990746896585 17.0 0.54
   vertex 36.99661006758847 17.0 0.54
   vertex 40.0 20.0 0.54
  endloop
 endfacet
 facet normal -0.0 0.0 1.0
  outer loop
   vertex 17.239755249169036 3.001 0.54
   vertex 39.98407346073554 0.0 0.54
   vertex 36.985462286430305 3.001 0.54
  endloop
 endfacet
 facet normal 0.0 0.0 1.0
  outer loop
   vertex 36.985462286430305 3.001 0.54
   vertex 40.0 20.0 0.54
   vertex 36.99661006758847 17.0 0.54
  endloop
 endfacet
 facet normal 0.0 0.0 1.0
  outer loop
   vertex 36.99661006758846 23.0 0.54
   vertex 39.98407346073554 80.0 0.54
   vertex 36.99661006758846 56.99999999999999 0.54
  endloop
 endfacet
 facet normal 0.0 0.0 1.0
  outer loop
   vertex 36.99661006758846 23.0 0.54
   vertex 36.98546149010334 43.0 0.54
   vertex 36.98546149010334 37.0 0.54
  endloop
 endfacet
 facet normal 0.0 -0.0 1.0
  outer loop
   vertex 36.99661006758846 23.0 0.54
   vertex 36.99661006758846 56.99999999999999 0.54
   vertex 36.98546149010334 43.0 0.54
  endloop
 endfacet
 facet normal 0.0 0.0 1.0
  outer loop
   vertex 36.98546149010334 37.0 0.54
   vertex 8.750092531034154 43.0 0.54
   vertex 17.238754452525 37.0 0.54
  endloop
 endfacet
 facet normal 0.0 0.0 1.0
  outer loop
   vertex 36.98546149010334 37.0 0.54
   vertex 17.23875445252501 43.0 0.54
   vertex 8.750092531034154 43.0 0.54
  endloop
 endfacet
 facet normal 0.0 -0.0 1.0
  outer loop
   vertex 36.98546149010334 37.0 0.54
   vertex 36.98546149010334 43.0 0.54
   vertex 17.23875445252501 43.0 0.54
  endloop
 endfacet
 facet normal 0.0 0.0 1.0
  outer loop
   vertex 2.9986119706321968 56.99999999999999 0.54
   vertex -0.01592653926446385 80.0 0.54
   vertex 2.9874633931470718 43.0 0.54
  endloop
 endfacet
 facet normal 0.0 0.0 1.0
  outer loop
   vertex 2.9986119706321968 56.99999999999999 0.54
   vertex 2.9874641894740352 76.999 0.54
   vertex -0.01592653926446385 80.0 0.54
  endloop
 endfacet
 facet normal 0.0 0.0 1.0
  outer loop
   vertex 2.9986119706321968 56.99999999999999 0.54
   vertex 36.99661006758847 63.0 0.54
   vertex 31.249907468965855 62.99999999999999 0.54
  endloop
 endfacet
 facet normal 0.0 0.0 1.0
  outer loop
   vertex 2.9986119706321968 56.99999999999999 0.54
   vertex 22.761245547475003 57.0 0.54
   vertex 36.99661006758847 63.0 0.54
  endloop
 endfacet
 facet normal 0.0 0.0 1.0
  outer loop
   vertex 2.9986119706321968 56.99999999999999 0.54
   vertex 31.249907468965855 62.99999999999999 0.54
   vertex 22.761245547474996 63.0 0.54
  endloop
 endfacet
 facet normal 0.0 0.0 1.0
  outer loop
   vertex 8.750092531034154 43.0 0.54
   vertex 17.23875445252501 43.0 0.54
   vertex 31.24990746896585 56.99999999999999 0.54
  endloop
 endfacet
 facet normal 0.0 0.0 1.0
  outer loop
   vertex 8.750092531034154 43.0 0.54
   vertex 36.99661006758847 63.0 0.54
   vertex 22.761245547475003 57.0 0.54
  endloop
 endfacet
 facet normal 0.0 0.0 1.0
  outer loop
   vertex 8.750092531034154 43.0 0.54
   vertex 31.24990746896585 56.99999999999999 0.54
   vertex 36.99661006758847 63.0 0.54
  endloop
 endfacet
 facet normal 0.0 0.0 1.0
  outer loop
   vertex 22.761245547474996 63.0 0.54
   vertex 9.992033559685108 80.0 0.54
   vertex 8.751093327678182 76.999 0.54
  endloop
 endfacet
 facet normal 0.0 0.0 1.0
  outer loop
   vertex 22.761245547474996 63.0 0.54
   vertex 17.239755249169036 76.999 0.54
   vertex 9.992033559685108 80.0 0.54
  endloop
 endfacet
 facet normal -0.0 -0.0 1.0
  outer loop
   vertex 22.761245547474996 63.0 0.54
   vertex 31.249907468965855 62.99999999999999 0.54
   vertex 17.239755249169036 76.999 0.54
  endloop
 endfacet
 facet normal 0.0 0.0 1.0
  outer loop
   vertex 8.751093327678182 76.999 0.54
   vertex -0.01592653926446385 80.0 0.54
   vertex 2.9874641894740352 76.999 0.54
  endloop
 endfacet
 facet normal 0.0 0.0 1.0
  outer loop
   vertex 31.24990746896585 56.99999999999999 0.54
   vertex 36.99661006758846 56.99999999999999 0.54
   vertex 36.99661006758847 63.0 0.54
  endloop
 endfacet
 facet normal 0.0 0.0 1.0
  outer loop
   vertex 36.99661006758846 56.99999999999999 0.54
   vertex 39.98407346073554 80.0 0.54
   vertex 36.99661006758847 63.0 0.54
  endloop
 endfacet
 facet normal 0.0 -0.0 1.0
  outer loop
   vertex 36.99661006758847 63.0 0.54
   vertex 39.98407346073554 80.0 0.54
   vertex 36.985462286430305 76.999 0.54
  endloop
 endfacet
 facet normal 0.0 0.0 1.0
  outer loop
   vertex 36.985462286430305 76.999 0.54
   vertex 9.992033559685108 80.0 0.54
   vertex 17.239755249169036 76.999 0.54
  endloop
 endfacet
 facet normal 0.9999996829318346 -0.0007963267107332657 0.0
  outer loop
   vertex 2.9986119706321968 17.0 0
   vertex 2.9986119706321968 17.0 0.54
   vertex 2.9874641894740352 3.001 0
  endloop
 endfacet
 facet normal 0.9999996829318346 -0.0007963267107332657 0.0
  outer loop
   vertex 2.9874641894740352 3.001 0
   vertex 2.9986119706321968 17.0 0.54
   vertex 2.9874641894740352 3.001 0.54
  endloop
 endfacet
 facet normal 0.0 1.0 0.0
  outer loop
   vertex 2.9874641894740352 3.001 0
   vertex 2.9874641894740352 3.001 0.54
   vertex 8.751093327678177 3.001 0
  endloop
 endfacet
 facet normal 0.0 1.0 -0.0
  outer loop
   vertex 8.751093327678177 3.001 0
   vertex 2.9874641894740352 3.001 0.54
   vertex 8.751093327678177 3.001 0.54
  endloop
 endfacet
 facet normal -0.7068251811053659 0.7073882691671998 0.0
  outer loop
   vertex 8.751093327678177 3.001 0
   vertex 8.751093327678177 3.001 0.54
   vertex 22.761245547474996 17.0 0
  endloop
 endfacet
 facet normal -0.7068251811053659 0.7073882691671998 0.0
  outer loop
   vertex 22.761245547474996 17.0 0
   vertex 8.751093327678177 3.001 0.54
   vertex 22.761245547474996 17.0 0.54
  endloop
 endfacet
 facet normal 0.0 -1.0 0.0
  outer loop
   vertex 22.761245547474996 17.0 0
   vertex 22.761245547474996 17.0 0.54
   vertex 2.9986119706321968 17.0 0
  endloop
 endfacet
 facet normal 0.0 -1.0 0.0
  outer loop
   vertex 2.9986119706321968 17.0 0
   vertex 22.761245547474996 17.0 0.54
   vertex 2.9986119706321968 17.0 0.54
  endloop
 endfacet
 facet normal -0.7068251811053659 -0.7073882691671998 0.0
  outer loop
   vertex 22.761245547474996 23.0 0
   vertex 22.761245547474996 23.0 0.54
   vertex 8.750092531034147 37.0 0
  endloop
 endfacet
 facet normal -0.7068251811053659 -0.7073882691671998 0.0
  outer loop
   vertex 8.750092531034147 37.0 0
   vertex 22.761245547474996 23.0 0.54
   vertex 8.750092531034147 37.0 0.54
  endloop
 endfacet
 facet normal 0.0 -1.0 0.0
  outer loop
   vertex 8.750092531034147 37.0 0
   vertex 8.750092531034147 37.0 0.54
   vertex 2.9874633931470718 37.0 0
  endloop
 endfacet
 facet normal 0.0 -1.0 0.0
  outer loop
   vertex 2.9874633931470718 37.0 0
   vertex 8.750092531034147 37.0 0.54
   vertex 2.9874633931470718 37.0 0.54
  endloop
 endfacet
 facet normal 0.9999996829318346 0.0007963267107332842 -0.0
  outer loop
   vertex 2.9874633931470718 37.0 0
   vertex 2.9874633931470718 37.0 0.54
   vertex 2.9986119706321968 23.0 0
  endloop
 endfacet
 facet normal 0.9999996829318346 0.0007963267107332842 -0.0
  outer loop
   vertex 2.9986119706321968 23.0 0
   vertex 2.9874633931470718 37.0 0.54
   vertex 2.9986119706321968 23.0 0.54
  endloop
 endfacet
 facet normal 0.0 1.0 0.0
  outer loop
   vertex 2.9986119706321968 23.0 0
   vertex 2.9986119706321968 23.0 0.54
   vertex 22.761245547474996 23.0 0
  endloop
 endfacet
 facet normal 0.0 1.0 -0.0
  outer loop
   vertex 22.761245547474996 23.0 0
   vertex 2.9986119706321968 23.0 0.54
   vertex 22.761245547474996 23.0 0.54
  endloop
 endfacet
 facet normal 0.706825181105366 -0.7073882691671998 0.0
  outer loop
   vertex 31.24990746896585 17.0 0
   vertex 31.24990746896585 17.0 0.54
   vertex 17.239755249169036 3.001 0
  endloop
 endfacet
 facet normal 0.706825181105366 -0.7073882691671998 0.0
  outer loop
   vertex 17.239755249169036 3.001 0
   vertex 31.24990746896585 17.0 0.54
   vertex 17.239755249169036 3.001 0.54
  endloop
 endfacet
 facet normal 0.0 1.0 0.0
  outer loop
   vertex 17.239755249169036 3.001 0
   vertex 17.239755249169036 3.001 0.54
   vertex 36.985462286430305 3.001 0
  endloop
 endfacet
 facet normal 0.0 1.0 -0.0
  outer loop
   vertex 36.985462286430305 3.001 0
   vertex 17.239755249169036 3.001 0.54
   vertex 36.985462286430305 3.001 0.54
  endloop
 endfacet
 facet normal -0.9999996829318346 0.0007963267107335194 0.0
  outer loop
   vertex 36.985462286430305 3.001 0
   vertex 36.985462286430305 3.001 0.54
   vertex 36.99661006758847 17.0 0
  endloop
 endfacet
 facet normal -0.9999996829318346 0.0007963267107335194 0.0
  outer loop
   vertex 36.99661006758847 17.0 0
   vertex 36.985462286430305 3.001 0.54
   vertex 36.99661006758847 17.0 0.54
  endloop
 endfacet
 facet normal 0.0 -1.0 0.0
  outer loop
   vertex 36.99661006758847 17.0 0
   vertex 36.99661006758847 17.0 0.54
   vertex 31.24990746896585 17.0 0
  endloop
 endfacet
 facet normal 0.0 -1.0 0.0
  outer loop
   vertex 31.24990746896585 17.0 0
   vertex 36.99661006758847 17.0 0.54
   vertex 31.24990746896585 17.0 0.54
  endloop
 endfacet
 facet normal -0.9999996829318346 -0.0007963267107331572 0.0
  outer loop
   vertex 36.99661006758846 23.0 0
   vertex 36.99661006758846 23.0 0.54
   vertex 36.98546149010334 37.0 0
  endloop
 endfacet
 facet normal -0.9999996829318346 -0.0007963267107331572 0.0
  outer loop
   vertex 36.98546149010334 37.0 0
   vertex 36.99661006758846 23.0 0.54
   vertex 36.98546149010334 37.0 0.54
  endloop
 endfacet
 facet normal 0.0 -1.0 0.0
  outer loop
   vertex 36.98546149010334 37.0 0
   vertex 36.98546149010334 37.0 0.54
   vertex 17.238754452525 37.0 0
  endloop
 endfacet
 facet normal 0.0 -1.0 0.0
  outer loop
   vertex 17.238754452525 37.0 0
   vertex 36.98546149010334 37.0 0.54
   vertex 17.238754452525 37.0 0.54
  endloop
 endfacet
 facet normal 0.7068251811053659 0.7073882691671998 -0.0
  outer loop
   vertex 17.238754452525 37.0 0
   vertex 17.238754452525 37.0 0.54
   vertex 31.249907468965848 23.0 0
  endloop
 endfacet
 facet normal 0.7068251811053659 0.7073882691671998 -0.0
  outer loop
   vertex 31.249907468965848 23.0 0
   vertex 17.238754452525 37.0 0.54
   vertex 31.249907468965848 23.0 0.54
  endloop
 endfacet
 facet normal 0.0 1.0 0.0
  outer loop
   vertex 31.249907468965848 23.0 0
   vertex 31.249907468965848 23.0 0.54
   vertex 36.99661006758846 23.0 0
  endloop
 endfacet
 facet normal 0.0 1.0 -0.0
  outer loop
   vertex 36.99661006758846 23.0 0
   vertex 31.249907468965848 23.0 0.54
   vertex 36.99661006758846 23.0 0.54
  endloop
 endfacet
 facet normal 0.9999996829318346 -0.0007963267107332845 0.0
  outer loop
   vertex 2.9986119706321968 56.99999999999999 0
   vertex 2.9986119706321968 56.99999999999999 0.54
   vertex 2.9874633931470718 43.0 0
  endloop
 endfacet
 facet normal 0.9999996829318346 -0.0007963267107332845 0.0
  outer loop
   vertex 2.9874633931470718 43.0 0
   vertex 2.9986119706321968 56.99999999999999 0.54
   vertex 2.9874633931470718 43.0 0.54
  endloop
 endfacet
 facet normal 0.0 1.0 0.0
  outer loop
   vertex 2.9874633931470718 43.0 0
   vertex 2.9874633931470718 43.0 0.54
   vertex 8.750092531034154 43.0 0
  endloop
 endfacet
 facet normal 0.0 1.0 -0.0
  outer loop
   vertex 8.750092531034154 43.0 0
   vertex 2.9874633931470718 43.0 0.54
   vertex 8.750092531034154 43.0 0.54
  endloop
 endfacet
 facet normal -0.7068251811053659 0.7073882691671998 0.0
  outer loop
   vertex 8.750092531034154 43.0 0
   vertex 8.750092531034154 43.0 0.54
   vertex 22.761245547475003 57.0 0
  endloop
 endfacet
 facet normal -0.7068251811053659 0.7073882691671998 0.0
  outer loop
   vertex 22.761245547475003 57.0 0
   vertex 8.750092531034154 43.0 0.54
   vertex 22.761245547475003 57.0 0.54
  endloop
 endfacet
 facet normal 3.5953848610171594e-16 -1.0 0.0
  outer loop
   vertex 22.761245547475003 57.0 0
   vertex 22.761245547475003 57.0 0.54
   vertex 2.9986119706321968 56.99999999999999 0
  endloop
 endfacet
 facet normal 3.5953848610171594e-16 -1.0 0.0
  outer loop
   vertex 2.9986119706321968 56.99999999999999 0
   vertex 22.761245547475003 57.0 0.54
   vertex 2.9986119706321968 56.99999999999999 0.54
  endloop
 endfacet
 facet normal -0.7068251811053659 -0.7073882691671998 0.0
  outer loop
   vertex 22.761245547474996 63.0 0
   vertex 22.761245547474996 63.0 0.54
   vertex 8.751093327678182 76.999 0
  endloop
 endfacet
 facet normal -0.7068251811053659 -0.7073882691671998 0.0
  outer loop
   vertex 8.751093327678182 76.999 0
   vertex 22.761245547474996 63.0 0.54
   vertex 8.751093327678182 76.999 0.54
  endloop
 endfacet
 facet normal 0.0 -1.0 0.0
  outer loop
   vertex 8.751093327678182 76.999 0
   vertex 8.751093327678182 76.999 0.54
   vertex 2.9874641894740352 76.999 0
  endloop
 endfacet
 facet normal 0.0 -1.0 0.0
  outer loop
   vertex 2.9874641894740352 76.999 0
   vertex 8.751093327678182 76.999 0.54
   vertex 2.9874641894740352 76.999 0.54
  endloop
 endfacet
 facet normal 0.9999996829318346 0.000796326710733266 -0.0
  outer loop
   vertex 2.9874641894740352 76.999 0
   vertex 2.9874641894740352 76.999 0.54
   vertex 2.9986119706321968 63.0 0
  endloop
 endfacet
 facet normal 0.9999996829318346 0.000796326710733266 -0.0
  outer loop
   vertex 2.9986119706321968 63.0 0
   vertex 2.9874641894740352 76.999 0.54
   vertex 2.9986119706321968 63.0 0.54
  endloop
 endfacet
 facet normal 0.0 1.0 0.0
  outer loop
   vertex 2.9986119706321968 63.0 0
   vertex 2.9986119706321968 63.0 0.54
   vertex 22.761245547474996 63.0 0
  endloop
 endfacet
 facet normal 0.0 1.0 -0.0
  outer loop
   vertex 22.761245547474996 63.0 0
   vertex 2.9986119706321968 63.0 0.54
   vertex 22.761245547474996 63.0 0.54
  endloop
 endfacet
 facet normal 0.7068251811053661 -0.7073882691671998 0.0
  outer loop
   vertex 31.24990746896585 56.99999999999999 0
   vertex 31.24990746896585 56.99999999999999 0.54
   vertex 17.23875445252501 43.0 0
  endloop
 endfacet
 facet normal 0.7068251811053661 -0.7073882691671998 0.0
  outer loop
   vertex 17.23875445252501 43.0 0
   vertex 31.24990746896585 56.99999999999999 0.54
   vertex 17.23875445252501 43.0 0.54
  endloop
 endfacet
 facet normal 0.0 1.0 0.0
  outer loop
   vertex 17.23875445252501 43.0 0
   vertex 17.23875445252501 43.0 0.54
   vertex 36.98546149010334 43.0 0
  endloop
 endfacet
 facet normal 0.0 1.0 -0.0
  outer loop
   vertex 36.98546149010334 43.0 0
   vertex 17.23875445252501 43.0 0.54
   vertex 36.98546149010334 43.0 0.54
  endloop
 endfacet
 facet normal -0.9999996829318346 0.0007963267107331576 0.0
  outer loop
   vertex 36.98546149010334 43.0 0
   vertex 36.98546149010334 43.0 0.54
   vertex 36.99661006758846 56.99999999999999 0
  endloop
 endfacet
 facet normal -0.9999996829318346 0.0007963267107331576 0.0
  outer loop
   vertex 36.99661006758846 56.99999999999999 0
   vertex 36.98546149010334 43.0 0.54
   vertex 36.99661006758846 56.99999999999999 0.54
  endloop
 endfacet
 facet normal 0.0 -1.0 0.0
  outer loop
   vertex 36.99661006758846 56.99999999999999 0
   vertex 36.99661006758846 56.99999999999999 0.54
   vertex 31.24990746896585 56.99999999999999 0
  endloop
 endfacet
 facet normal 0.0 -1.0 0.0
  outer loop
   vertex 31.24990746896585 56.99999999999999 0
   vertex 36.99661006758846 56.99999999999999 0.54
   vertex 31.24990746896585 56.99999999999999 0.54
  endloop
 endfacet
 facet normal -0.9999996829318346 -0.0007963267107335198 0.0
  outer loop
   vertex 36.99661006758847 63.0 0
   vertex 36.99661006758847 63.0 0.54
   vertex 36.985462286430305 76.999 0
  endloop
 endfacet
 facet normal -0.9999996829318346 -0.0007963267107335198 0.0
  outer loop
   vertex 36.985462286430305 76.999 0
   vertex 36.99661006758847 63.0 0.54
   vertex 36.985462286430305 76.999 0.54
  endloop
 endfacet
 facet normal 0.0 -1.0 0.0
  outer loop
   vertex 36.985462286430305 76.999 0
   vertex 36.985462286430305 76.999 0.54
   vertex 17.239755249169036 76.999 0
  endloop
 endfacet
 facet normal 0.0 -1.0 0.0
  outer loop
   vertex 17.239755249169036 76.999 0
   vertex 36.985462286430305 76.999 0.54
   vertex 17.239755249169036 76.999 0.54
  endloop
 endfacet
 facet normal 0.706825181105366 0.7073882691671998 -0.0
  outer loop
   vertex 17.239755249169036 76.999 0
   vertex 17.239755249169036 76.999 0.54
   vertex 31.249907468965855 62.99999999999999 0
  endloop
 endfacet
 facet normal 0.706825181105366 0.7073882691671998 -0.0
  outer loop
   vertex 31.249907468965855 62.99999999999999 0
   vertex 17.239755249169036 76.999 0.54
   vertex 31.249907468965855 62.99999999999999 0.54
  endloop
 endfacet
 facet normal -1.2364355446728788e-15 1.0 0.0
  outer loop
   vertex 31.249907468965855 62.99999999999999 0
   vertex 31.249907468965855 62.99999999999999 0.54
   vertex 36.99661006758847 63.0 0
  endloop
 endfacet
 facet normal -1.2364355446728788e-15 1.0 0.0
  outer loop
   vertex 36.99661006758847 63.0 0
   vertex 31.249907468965855 62.99999999999999 0.54
   vertex 36.99661006758847 63.0 0.54
  endloop
 endfacet
endsolid
