solid PyGamic generated __All_Crease__ SLA File
 facet normal 0.0 0.0 -1.0
  outer loop
   vertex 20.579073840656697 0.0 0
   vertex -0.01592653926446385 0.0 0
   vertex 2.9874641894740352 3.001 0
  endloop
 endfacet
 facet normal 0.0 0.0 -1.0
  outer loop
   vertex -0.01592653926446385 0.0 0
   vertex 0.0 20.0 0
   vertex 2.9986119706321968 17.0 0
  endloop
 endfacet
 facet normal 0.0 0.0 -1.0
  outer loop
   vertex 0.0 20.0 0
   vertex -0.01592653926446385 40.0 0
   vertex 2.9986119706321968 17.0 0
  endloop
 endfacet
 facet normal 0.0 0.0 -1.0
  outer loop
   vertex -0.01592653926446385 40.0 0
   vertex 0.0 60.0 0
   vertex 2.9986119706321968 17.0 0
  endloop
 endfacet
 facet normal 0.0 0.0 -1.0
  outer loop
   vertex 0.0 60.0 0
   vertex -0.01592653926446385 80.0 0
   vertex 2.9986119706321968 17.0 0
  endloop
 endfacet
 facet normal 0.0 0.0 -1.0
  outer loop
   vertex -0.01592653926446385 80.0 0
   vertex 20.579073840656697 80.0 0
   vertex 18.940808463741266 76.999 0
  endloop
 endfacet
 facet normal 0.0 0.0 -1.0
  outer loop
   vertex 20.579073840656697 80.0 0
   vertex 53.5790738406567 80.0 0
   vertex 51.94080846374126 76.99900000000001 0
  endloop
 endfacet
 facet normal 0.0 0.0 -1.0
  outer loop
   vertex 53.5790738406567 80.0 0
   vertex 86.57907384065669 80.0 0
   vertex 84.94080846374128 76.99899999999998 0
  endloop
 endfacet
 facet normal 0.0 0.0 -1.0
  outer loop
   vertex 86.57907384065669 80.0 0
   vertex 119.98407346073553 80.0 0
   vertex 116.98546228643029 76.99899999999998 0
  endloop
 endfacet
 facet normal 0.0 -0.0 -1.0
  outer loop
   vertex 119.98407346073553 80.0 0
   vertex 120.0 60.0 0
   vertex 116.99661006758846 23.0 0
  endloop
 endfacet
 facet normal 0.0 0.0 -1.0
  outer loop
   vertex 120.0 60.0 0
   vertex 119.98407346073553 40.0 0
   vertex 116.99661006758846 23.0 0
  endloop
 endfacet
 facet normal 0.0 -0.0 -1.0
  outer loop
   vertex 119.98407346073553 40.0 0
   vertex 120.0 20.0 0
   vertex 116.99661006758846 23.0 0
  endloop
 endfacet
 facet normal 0.0 0.0 -1.0
  outer loop
   vertex 120.0 20.0 0
   vertex 119.98407346073553 0.0 0
   vertex 116.98546228643026 3.001 0
  endloop
 endfacet
 facet normal 0.0 0.0 -1.0
  outer loop
   vertex 119.98407346073553 0.0 0
   vertex 86.57907384065669 0.0 0
   vertex 2.9874641894740352 3.001 0
  endloop
 endfacet
 facet normal 0.0 0.0 -1.0
  outer loop
   vertex 86.57907384065669 0.0 0
   vertex 53.5790738406567 0.0 0
   vertex 2.9874641894740352 3.001 0
  endloop
 endfacet
 facet normal 0.0 0.0 -1.0
  outer loop
   vertex 53.5790738406567 0.0 0
   vertex 20.579073840656697 0.0 0
   vertex 2.9874641894740352 3.001 0
  endloop
 endfacet
 facet normal 0.0 0.0 -1.0
  outer loop
   vertex 2.9986119706321968 17.0 0
   vertex 2.9874641894740352 3.001 0
   vertex -0.01592653926446385 0.0 0
  endloop
 endfacet
 facet normal 0.0 0.0 -1.0
  outer loop
   vertex 2.9986119706321968 17.0 0
   vertex -0.01592653926446385 80.0 0
   vertex 2.9874633931470718 37.0 0
  endloop
 endfacet
 facet normal 0.0 0.0 -1.0
  outer loop
   vertex 2.9986119706321968 17.0 0
   vertex 120.0 20.0 0
   vertex 27.929462994205952 17.0 0
  endloop
 endfacet
 facet normal 0.0 0.0 -1.0
  outer loop
   vertex 2.9986119706321968 17.0 0
   vertex 116.99661006758846 23.0 0
   vertex 120.0 20.0 0
  endloop
 endfacet
 facet normal 0.0 0.0 -1.0
  outer loop
   vertex 2.9986119706321968 17.0 0
   vertex 2.9986119706321968 23.0 0
   vertex 27.929462994205956 23.0 0
  endloop
 endfacet
 facet normal 0.0 0.0 -1.0
  outer loop
   vertex 2.9986119706321968 17.0 0
   vertex 2.9874633931470718 37.0 0
   vertex 2.9986119706321968 23.0 0
  endloop
 endfacet
 facet normal 0.0 0.0 -1.0
  outer loop
   vertex 2.9986119706321968 17.0 0
   vertex 35.059833628874685 23.0 0
   vertex 60.92946299420595 23.0 0
  endloop
 endfacet
 facet normal 0.0 0.0 -1.0
  outer loop
   vertex 2.9986119706321968 17.0 0
   vertex 27.929462994205956 23.0 0
   vertex 35.059833628874685 23.0 0
  endloop
 endfacet
 facet normal 0.0 0.0 -1.0
  outer loop
   vertex 2.9986119706321968 17.0 0
   vertex 68.05983362887467 23.0 0
   vertex 93.92946299420596 23.0 0
  endloop
 endfacet
 facet normal 0.0 0.0 -1.0
  outer loop
   vertex 2.9986119706321968 17.0 0
   vertex 60.92946299420595 23.0 0
   vertex 68.05983362887467 23.0 0
  endloop
 endfacet
 facet normal 0.0 0.0 -1.0
  outer loop
   vertex 2.9986119706321968 17.0 0
   vertex 101.0598336288747 23.0 0
   vertex 116.99661006758846 23.0 0
  endloop
 endfacet
 facet normal 0.0 0.0 -1.0
  outer loop
   vertex 2.9986119706321968 17.0 0
   vertex 93.92946299420596 23.0 0
   vertex 101.0598336288747 23.0 0
  endloop
 endfacet
 facet normal 0.0 0.0 -1.0
  outer loop
   vertex 2.9874641894740352 3.001 0
   vertex 18.94080846374126 3.001 0
   vertex 119.98407346073553 0.0 0
  endloop
 endfacet
 facet normal 0.0 0.0 -1.0
  outer loop
   vertex 18.94080846374126 3.001 0
   vertex 26.07117909840998 3.001 0
   vertex 119.98407346073553 0.0 0
  endloop
 endfacet
 facet normal 0.0 0.0 -1.0
  outer loop
   vertex 18.94080846374126 3.001 0
   vertex 27.929462994205952 17.0 0
   vertex 35.05983362887468 17.0 0
  endloop
 endfacet
 facet normal 0.0 0.0 -1.0
  outer loop
   vertex 18.94080846374126 3.001 0
   vertex 35.05983362887468 17.0 0
   vertex 26.07117909840998 3.001 0
  endloop
 endfacet
 facet normal 0.0 0.0 -1.0
  outer loop
   vertex 27.929462994205952 17.0 0
   vertex 120.0 20.0 0
   vertex 35.05983362887468 17.0 0
  endloop
 endfacet
 facet normal 0.0 0.0 -1.0
  outer loop
   vertex 27.929462994205956 23.0 0
   vertex 26.07053700579405 37.00000000000001 0
   vertex 35.059833628874685 23.0 0
  endloop
 endfacet
 facet normal 0.0 0.0 -1.0
  outer loop
   vertex 27.929462994205956 23.0 0
   vertex 18.94016637112533 37.0 0
   vertex 18.940166371125326 43.0 0
  endloop
 endfacet
 facet normal 0.0 0.0 -1.0
  outer loop
   vertex 27.929462994205956 23.0 0
   vertex 18.940166371125326 43.0 0
   vertex 26.07053700579405 37.00000000000001 0
  endloop
 endfacet
 facet normal 0.0 0.0 -1.0
  outer loop
   vertex 18.94016637112533 37.0 0
   vertex 2.9874633931470718 37.0 0
   vertex 2.9874633931470718 43.0 0
  endloop
 endfacet
 facet normal 0.0 0.0 -1.0
  outer loop
   vertex 18.94016637112533 37.0 0
   vertex 2.9874633931470718 43.0 0
   vertex 18.940166371125326 43.0 0
  endloop
 endfacet
 facet normal 0.0 0.0 -1.0
  outer loop
   vertex 2.9874633931470718 37.0 0
   vertex -0.01592653926446385 80.0 0
   vertex 2.9874633931470718 43.0 0
  endloop
 endfacet
 facet normal 0.0 0.0 -1.0
  outer loop
   vertex 35.05983362887468 17.0 0
   vertex 120.0 20.0 0
   vertex 60.929462994205956 17.0 0
  endloop
 endfacet
 facet normal 0.0 0.0 -1.0
  outer loop
   vertex 26.07117909840998 3.001 0
   vertex 51.94080846374126 3.001 0
   vertex 119.98407346073553 0.0 0
  endloop
 endfacet
 facet normal 0.0 0.0 -1.0
  outer loop
   vertex 51.94080846374126 3.001 0
   vertex 59.07117909840999 3.001 0
   vertex 119.98407346073553 0.0 0
  endloop
 endfacet
 facet normal 0.0 0.0 -1.0
  outer loop
   vertex 51.94080846374126 3.001 0
   vertex 60.929462994205956 17.0 0
   vertex 68.05983362887469 17.0 0
  endloop
 endfacet
 facet normal 0.0 0.0 -1.0
  outer loop
   vertex 51.94080846374126 3.001 0
   vertex 68.05983362887469 17.0 0
   vertex 59.07117909840999 3.001 0
  endloop
 endfacet
 facet normal 0.0 0.0 -1.0
  outer loop
   vertex 60.929462994205956 17.0 0
   vertex 120.0 20.0 0
   vertex 68.05983362887469 17.0 0
  endloop
 endfacet
 facet normal 0.0 0.0 -1.0
  outer loop
   vertex 60.92946299420595 23.0 0
   vertex 59.070537005794044 36.99999999999999 0
   vertex 68.05983362887467 23.0 0
  endloop
 endfacet
 facet normal 0.0 0.0 -1.0
  outer loop
   vertex 60.92946299420595 23.0 0
   vertex 51.940166371125315 37.00000000000001 0
   vertex 51.940166371125315 43.00000000000001 0
  endloop
 endfacet
 facet normal 0.0 0.0 -1.0
  outer loop
   vertex 60.92946299420595 23.0 0
   vertex 51.940166371125315 43.00000000000001 0
   vertex 59.070537005794044 36.99999999999999 0
  endloop
 endfacet
 facet normal 0.0 0.0 -1.0
  outer loop
   vertex 51.940166371125315 37.00000000000001 0
   vertex 26.07053700579405 37.00000000000001 0
   vertex 18.940166371125326 43.0 0
  endloop
 endfacet
 facet normal 0.0 0.0 -1.0
  outer loop
   vertex 51.940166371125315 37.00000000000001 0
   vertex 18.940166371125326 43.0 0
   vertex 26.07053700579406 43.00000000000001 0
  endloop
 endfacet
 facet normal 0.0 0.0 -1.0
  outer loop
   vertex 51.940166371125315 37.00000000000001 0
   vertex 26.07053700579406 43.00000000000001 0
   vertex 51.940166371125315 43.00000000000001 0
  endloop
 endfacet
 facet normal 0.0 0.0 -1.0
  outer loop
   vertex 68.05983362887469 17.0 0
   vertex 120.0 20.0 0
   vertex 93.92946299420595 17.0 0
  endloop
 endfacet
 facet normal 0.0 0.0 -1.0
  outer loop
   vertex 59.07117909840999 3.001 0
   vertex 84.94080846374125 3.001 0
   vertex 119.98407346073553 0.0 0
  endloop
 endfacet
 facet normal 0.0 0.0 -1.0
  outer loop
   vertex 84.94080846374125 3.001 0
   vertex 92.07117909840998 3.001 0
   vertex 119.98407346073553 0.0 0
  endloop
 endfacet
 facet normal 0.0 0.0 -1.0
  outer loop
   vertex 84.94080846374125 3.001 0
   vertex 93.92946299420595 17.0 0
   vertex 101.05983362887467 17.0 0
  endloop
 endfacet
 facet normal 0.0 0.0 -1.0
  outer loop
   vertex 84.94080846374125 3.001 0
   vertex 101.05983362887467 17.0 0
   vertex 92.07117909840998 3.001 0
  endloop
 endfacet
 facet normal 0.0 0.0 -1.0
  outer loop
   vertex 93.92946299420595 17.0 0
   vertex 120.0 20.0 0
   vertex 101.05983362887467 17.0 0
  endloop
 endfacet
 facet normal 0.0 0.0 -1.0
  outer loop
   vertex 93.92946299420596 23.0 0
   vertex 92.07053700579407 36.99999999999999 0
   vertex 101.0598336288747 23.0 0
  endloop
 endfacet
 facet normal 0.0 0.0 -1.0
  outer loop
   vertex 93.92946299420596 23.0 0
   vertex 84.94016637112533 36.99999999999999 0
   vertex 84.94016637112529 42.99999999999999 0
  endloop
 endfacet
 facet normal 0.0 0.0 -1.0
  outer loop
   vertex 93.92946299420596 23.0 0
   vertex 84.94016637112529 42.99999999999999 0
   vertex 92.07053700579407 36.99999999999999 0
  endloop
 endfacet
 facet normal 0.0 0.0 -1.0
  outer loop
   vertex 84.94016637112533 36.99999999999999 0
   vertex 59.070537005794044 36.99999999999999 0
   vertex 51.940166371125315 43.00000000000001 0
  endloop
 endfacet
 facet normal 0.0 0.0 -1.0
  outer loop
   vertex 84.94016637112533 36.99999999999999 0
   vertex 51.940166371125315 43.00000000000001 0
   vertex 59.07053700579404 42.999999999999986 0
  endloop
 endfacet
 facet normal 0.0 0.0 -1.0
  outer loop
   vertex 84.94016637112533 36.99999999999999 0
   vertex 59.07053700579404 42.999999999999986 0
   vertex 84.94016637112529 42.99999999999999 0
  endloop
 endfacet
 facet normal 0.0 0.0 -1.0
  outer loop
   vertex 101.05983362887467 17.0 0
   vertex 120.0 20.0 0
   vertex 116.99661006758843 17.0 0
  endloop
 endfacet
 facet normal 0.0 0.0 -1.0
  outer loop
   vertex 92.07117909840998 3.001 0
   vertex 116.98546228643026 3.001 0
   vertex 119.98407346073553 0.0 0
  endloop
 endfacet
 facet normal 0.0 0.0 -1.0
  outer loop
   vertex 116.98546228643026 3.001 0
   vertex 116.99661006758843 17.0 0
   vertex 120.0 20.0 0
  endloop
 endfacet
 facet normal 0.0 0.0 -1.0
  outer loop
   vertex 116.99661006758846 23.0 0
   vertex 116.99661006758846 56.999999999999986 0
   vertex 119.98407346073553 80.0 0
  endloop
 endfacet
 facet normal 0.0 0.0 -1.0
  outer loop
   vertex 116.99661006758846 23.0 0
   vertex 116.98546149010333 36.99999999999999 0
   vertex 116.98546149010333 42.99999999999999 0
  endloop
 endfacet
 facet normal 0.0 0.0 -1.0
  outer loop
   vertex 116.99661006758846 23.0 0
   vertex 116.98546149010333 42.99999999999999 0
   vertex 116.99661006758846 56.999999999999986 0
  endloop
 endfacet
 facet normal 0.0 0.0 -1.0
  outer loop
   vertex 116.98546149010333 36.99999999999999 0
   vertex 92.07053700579407 36.99999999999999 0
   vertex 84.94016637112529 42.99999999999999 0
  endloop
 endfacet
 facet normal 0.0 0.0 -1.0
  outer loop
   vertex 116.98546149010333 36.99999999999999 0
   vertex 84.94016637112529 42.99999999999999 0
   vertex 92.07053700579402 42.99999999999999 0
  endloop
 endfacet
 facet normal 0.0 0.0 -1.0
  outer loop
   vertex 116.98546149010333 36.99999999999999 0
   vertex 92.07053700579402 42.99999999999999 0
   vertex 116.98546149010333 42.99999999999999 0
  endloop
 endfacet
 facet normal -0.0 0.0 -1.0
  outer loop
   vertex 2.9986119706321968 56.99999999999999 0
   vertex 2.9874633931470718 43.0 0
   vertex -0.01592653926446385 80.0 0
  endloop
 endfacet
 facet normal 0.0 0.0 -1.0
  outer loop
   vertex 2.9986119706321968 56.99999999999999 0
   vertex -0.01592653926446385 80.0 0
   vertex 2.9874641894740352 76.999 0
  endloop
 endfacet
 facet normal 0.0 0.0 -1.0
  outer loop
   vertex 2.9986119706321968 56.99999999999999 0
   vertex 2.9986119706321968 63.0 0
   vertex 27.929462994205956 62.99999999999999 0
  endloop
 endfacet
 facet normal 0.0 0.0 -1.0
  outer loop
   vertex 2.9986119706321968 56.99999999999999 0
   vertex 2.9874641894740352 76.999 0
   vertex 2.9986119706321968 63.0 0
  endloop
 endfacet
 facet normal 0.0 0.0 -1.0
  outer loop
   vertex 2.9986119706321968 56.99999999999999 0
   vertex 35.05983362887468 63.00000000000001 0
   vertex 60.92946299420596 63.00000000000001 0
  endloop
 endfacet
 facet normal 0.0 0.0 -1.0
  outer loop
   vertex 2.9986119706321968 56.99999999999999 0
   vertex 27.929462994205956 62.99999999999999 0
   vertex 35.05983362887468 63.00000000000001 0
  endloop
 endfacet
 facet normal 0.0 0.0 -1.0
  outer loop
   vertex 2.9986119706321968 56.99999999999999 0
   vertex 68.05983362887469 62.99999999999999 0
   vertex 93.92946299420596 62.99999999999999 0
  endloop
 endfacet
 facet normal 0.0 0.0 -1.0
  outer loop
   vertex 2.9986119706321968 56.99999999999999 0
   vertex 60.92946299420596 63.00000000000001 0
   vertex 68.05983362887469 62.99999999999999 0
  endloop
 endfacet
 facet normal 0.0 0.0 -1.0
  outer loop
   vertex 2.9986119706321968 56.99999999999999 0
   vertex 101.0598336288747 62.999999999999986 0
   vertex 116.99661006758846 62.99999999999998 0
  endloop
 endfacet
 facet normal 0.0 0.0 -1.0
  outer loop
   vertex 2.9986119706321968 56.99999999999999 0
   vertex 116.99661006758846 62.99999999999998 0
   vertex 27.929462994205956 57.0 0
  endloop
 endfacet
 facet normal 0.0 0.0 -1.0
  outer loop
   vertex 2.9986119706321968 56.99999999999999 0
   vertex 93.92946299420596 62.99999999999999 0
   vertex 101.0598336288747 62.999999999999986 0
  endloop
 endfacet
 facet normal 0.0 0.0 -1.0
  outer loop
   vertex 18.940166371125326 43.0 0
   vertex 27.929462994205956 57.0 0
   vertex 35.059833628874685 57.000000000000014 0
  endloop
 endfacet
 facet normal 0.0 0.0 -1.0
  outer loop
   vertex 18.940166371125326 43.0 0
   vertex 35.059833628874685 57.000000000000014 0
   vertex 26.07053700579406 43.00000000000001 0
  endloop
 endfacet
 facet normal 0.0 0.0 -1.0
  outer loop
   vertex 27.929462994205956 57.0 0
   vertex 116.99661006758846 62.99999999999998 0
   vertex 35.059833628874685 57.000000000000014 0
  endloop
 endfacet
 facet normal 0.0 0.0 -1.0
  outer loop
   vertex 27.929462994205956 62.99999999999999 0
   vertex 18.940808463741266 76.999 0
   vertex 20.579073840656697 80.0 0
  endloop
 endfacet
 facet normal 0.0 0.0 -1.0
  outer loop
   vertex 27.929462994205956 62.99999999999999 0
   vertex 20.579073840656697 80.0 0
   vertex 26.07117909840998 76.99900000000001 0
  endloop
 endfacet
 facet normal 0.0 0.0 -1.0
  outer loop
   vertex 27.929462994205956 62.99999999999999 0
   vertex 26.07117909840998 76.99900000000001 0
   vertex 35.05983362887468 63.00000000000001 0
  endloop
 endfacet
 facet normal 0.0 0.0 -1.0
  outer loop
   vertex 18.940808463741266 76.999 0
   vertex 2.9874641894740352 76.999 0
   vertex -0.01592653926446385 80.0 0
  endloop
 endfacet
 facet normal 0.0 0.0 -1.0
  outer loop
   vertex 35.059833628874685 57.000000000000014 0
   vertex 116.99661006758846 62.99999999999998 0
   vertex 60.92946299420595 57.000000000000014 0
  endloop
 endfacet
 facet normal 0.0 0.0 -1.0
  outer loop
   vertex 51.940166371125315 43.00000000000001 0
   vertex 60.92946299420595 57.000000000000014 0
   vertex 68.05983362887467 57.0 0
  endloop
 endfacet
 facet normal 0.0 0.0 -1.0
  outer loop
   vertex 51.940166371125315 43.00000000000001 0
   vertex 68.05983362887467 57.0 0
   vertex 59.07053700579404 42.999999999999986 0
  endloop
 endfacet
 facet normal 0.0 0.0 -1.0
  outer loop
   vertex 60.92946299420595 57.000000000000014 0
   vertex 116.99661006758846 62.99999999999998 0
   vertex 68.05983362887467 57.0 0
  endloop
 endfacet
 facet normal 0.0 0.0 -1.0
  outer loop
   vertex 60.92946299420596 63.00000000000001 0
   vertex 51.94080846374126 76.99900000000001 0
   vertex 53.5790738406567 80.0 0
  endloop
 endfacet
 facet normal 0.0 0.0 -1.0
  outer loop
   vertex 60.92946299420596 63.00000000000001 0
   vertex 53.5790738406567 80.0 0
   vertex 59.071179098410006 76.99899999999998 0
  endloop
 endfacet
 facet normal 0.0 0.0 -1.0
  outer loop
   vertex 60.92946299420596 63.00000000000001 0
   vertex 59.071179098410006 76.99899999999998 0
   vertex 68.05983362887469 62.99999999999999 0
  endloop
 endfacet
 facet normal 0.0 0.0 -1.0
  outer loop
   vertex 51.94080846374126 76.99900000000001 0
   vertex 26.07117909840998 76.99900000000001 0
   vertex 20.579073840656697 80.0 0
  endloop
 endfacet
 facet normal 0.0 0.0 -1.0
  outer loop
   vertex 68.05983362887467 57.0 0
   vertex 116.99661006758846 62.99999999999998 0
   vertex 93.92946299420592 57.0 0
  endloop
 endfacet
 facet normal 0.0 0.0 -1.0
  outer loop
   vertex 84.94016637112529 42.99999999999999 0
   vertex 93.92946299420592 57.0 0
   vertex 101.05983362887466 56.999999999999986 0
  endloop
 endfacet
 facet normal 0.0 0.0 -1.0
  outer loop
   vertex 84.94016637112529 42.99999999999999 0
   vertex 101.05983362887466 56.999999999999986 0
   vertex 92.07053700579402 42.99999999999999 0
  endloop
 endfacet
 facet normal 0.0 0.0 -1.0
  outer loop
   vertex 93.92946299420592 57.0 0
   vertex 116.99661006758846 62.99999999999998 0
   vertex 101.05983362887466 56.999999999999986 0
  endloop
 endfacet
 facet normal 0.0 0.0 -1.0
  outer loop
   vertex 93.92946299420596 62.99999999999999 0
   vertex 84.94080846374128 76.99899999999998 0
   vertex 86.57907384065669 80.0 0
  endloop
 endfacet
 facet normal 0.0 0.0 -1.0
  outer loop
   vertex 93.92946299420596 62.99999999999999 0
   vertex 86.57907384065669 80.0 0
   vertex 92.07117909841001 76.99899999999998 0
  endloop
 endfacet
 facet normal 0.0 0.0 -1.0
  outer loop
   vertex 93.92946299420596 62.99999999999999 0
   vertex 92.07117909841001 76.99899999999998 0
   vertex 101.0598336288747 62.999999999999986 0
  endloop
 endfacet
 facet normal 0.0 0.0 -1.0
  outer loop
   vertex 84.94080846374128 76.99899999999998 0
   vertex 59.071179098410006 76.99899999999998 0
   vertex 53.5790738406567 80.0 0
  endloop
 endfacet
 facet normal 0.0 0.0 -1.0
  outer loop
   vertex 101.05983362887466 56.999999999999986 0
   vertex 116.99661006758846 62.99999999999998 0
   vertex 116.99661006758846 56.999999999999986 0
  endloop
 endfacet
 facet normal 0.0 0.0 -1.0
  outer loop
   vertex 116.99661006758846 56.999999999999986 0
   vertex 116.99661006758846 62.99999999999998 0
   vertex 119.98407346073553 80.0 0
  endloop
 endfacet
 facet normal 0.0 0.0 -1.0
  outer loop
   vertex 116.99661006758846 62.99999999999998 0
   vertex 116.98546228643029 76.99899999999998 0
   vertex 119.98407346073553 80.0 0
  endloop
 endfacet
 facet normal 0.0 0.0 -1.0
  outer loop
   vertex 116.98546228643029 76.99899999999998 0
   vertex 92.07117909841001 76.99899999999998 0
   vertex 86.57907384065669 80.0 0
  endloop
 endfacet
 facet normal 0.0 -1.0 0.0
  outer loop
   vertex -0.01592653926446385 0.0 0
   vertex 20.579073840656697 0.0 0
   vertex 20.579073840656697 0.0 0.36000000000000004
  endloop
 endfacet
 facet normal 0.0 -1.0 0.0
  outer loop
   vertex -0.01592653926446385 0.0 0.36000000000000004
   vertex -0.01592653926446385 0.0 0
   vertex 20.579073840656697 0.0 0.36000000000000004
  endloop
 endfacet
 facet normal -0.9999996829318346 0.0007963267107332631 0.0
  outer loop
   vertex 0.0 20.0 0
   vertex -0.01592653926446385 0.0 0
   vertex -0.01592653926446385 0.0 0.36000000000000004
  endloop
 endfacet
 facet normal -0.9999996829318346 0.0007963267107332631 0.0
  outer loop
   vertex 0.0 20.0 0.36000000000000004
   vertex 0.0 20.0 0
   vertex -0.01592653926446385 0.0 0.36000000000000004
  endloop
 endfacet
 facet normal -0.9999996829318346 -0.0007963267107332631 0.0
  outer loop
   vertex -0.01592653926446385 40.0 0
   vertex 0.0 20.0 0
   vertex 0.0 20.0 0.36000000000000004
  endloop
 endfacet
 facet normal -0.9999996829318346 -0.0007963267107332631 -0.0
  outer loop
   vertex -0.01592653926446385 40.0 0.36000000000000004
   vertex -0.01592653926446385 40.0 0
   vertex 0.0 20.0 0.36000000000000004
  endloop
 endfacet
 facet normal -0.9999996829318346 0.0007963267107332631 0.0
  outer loop
   vertex 0.0 60.0 0
   vertex -0.01592653926446385 40.0 0
   vertex -0.01592653926446385 40.0 0.36000000000000004
  endloop
 endfacet
 facet normal -0.9999996829318346 0.0007963267107332631 0.0
  outer loop
   vertex 0.0 60.0 0.36000000000000004
   vertex 0.0 60.0 0
   vertex -0.01592653926446385 40.0 0.36000000000000004
  endloop
 endfacet
 facet normal -0.9999996829318346 -0.0007963267107332631 0.0
  outer loop
   vertex -0.01592653926446385 80.0 0
   vertex 0.0 60.0 0
   vertex 0.0 60.0 0.36000000000000004
  endloop
 endfacet
 facet normal -0.9999996829318346 -0.0007963267107332631 -0.0
  outer loop
   vertex -0.01592653926446385 80.0 0.36000000000000004
   vertex -0.01592653926446385 80.0 0
   vertex 0.0 60.0 0.36000000000000004
  endloop
 endfacet
 facet normal 0.0 1.0 0.0
  outer loop
   vertex 20.579073840656697 80.0 0
   vertex -0.01592653926446385 80.0 0
   vertex -0.01592653926446385 80.0 0.36000000000000004
  endloop
 endfacet
 facet normal 0.0 1.0 0.0
  outer loop
   vertex 20.579073840656697 80.0 0.36000000000000004
   vertex 20.579073840656697 80.0 0
   vertex -0.01592653926446385 80.0 0.36000000000000004
  endloop
 endfacet
 facet normal 0.0 1.0 0.0
  outer loop
   vertex 53.5790738406567 80.0 0
   vertex 20.579073840656697 80.0 0
   vertex 20.579073840656697 80.0 0.36000000000000004
  endloop
 endfacet
 facet normal 0.0 1.0 0.0
  outer loop
   vertex 53.5790738406567 80.0 0.36000000000000004
   vertex 53.5790738406567 80.0 0
   vertex 20.579073840656697 80.0 0.36000000000000004
  endloop
 endfacet
 facet normal 0.0 1.0 0.0
  outer loop
   vertex 86.57907384065669 80.0 0
   vertex 53.5790738406567 80.0 0
   vertex 53.5790738406567 80.0 0.36000000000000004
  endloop
 endfacet
 facet normal 0.0 1.0 0.0
  outer loop
   vertex 86.57907384065669 80.0 0.36000000000000004
   vertex 86.57907384065669 80.0 0
   vertex 53.5790738406567 80.0 0.36000000000000004
  endloop
 endfacet
 facet normal 0.0 1.0 0.0
  outer loop
   vertex 119.98407346073553 80.0 0
   vertex 86.57907384065669 80.0 0
   vertex 86.57907384065669 80.0 0.36000000000000004
  endloop
 endfacet
 facet normal 0.0 1.0 0.0
  outer loop
   vertex 119.98407346073553 80.0 0.36000000000000004
   vertex 119.98407346073553 80.0 0
   vertex 86.57907384065669 80.0 0.36000000000000004
  endloop
 endfacet
 facet normal 0.9999996829318346 0.0007963267107335633 0.0
  outer loop
   vertex 120.0 60.0 0
   vertex 119.98407346073553 80.0 0
   vertex 119.98407346073553 80.0 0.36000000000000004
  endloop
 endfacet
 facet normal 0.9999996829318346 0.0007963267107335633 0.0
  outer loop
   vertex 120.0 60.0 0.36000000000000004
   vertex 120.0 60.0 0
   vertex 119.98407346073553 80.0 0.36000000000000004
  endloop
 endfacet
 facet normal 0.9999996829318346 -0.0007963267107335633 0.0
  outer loop
   vertex 119.98407346073553 40.0 0
   vertex 120.0 60.0 0
   vertex 120.0 60.0 0.36000000000000004
  endloop
 endfacet
 facet normal 0.9999996829318346 -0.0007963267107335633 0.0
  outer loop
   vertex 119.98407346073553 40.0 0.36000000000000004
   vertex 119.98407346073553 40.0 0
   vertex 120.0 60.0 0.36000000000000004
  endloop
 endfacet
 facet normal 0.9999996829318346 0.0007963267107335633 0.0
  outer loop
   vertex 120.0 20.0 0
   vertex 119.98407346073553 40.0 0
   vertex 119.98407346073553 40.0 0.36000000000000004
  endloop
 endfacet
 facet normal 0.9999996829318346 0.0007963267107335633 0.0
  outer loop
   vertex 120.0 20.0 0.36000000000000004
   vertex 120.0 20.0 0
   vertex 119.98407346073553 40.0 0.36000000000000004
  endloop
 endfacet
 facet normal 0.9999996829318346 -0.0007963267107335633 0.0
  outer loop
   vertex 119.98407346073553 0.0 0
   vertex 120.0 20.0 0
   vertex 120.0 20.0 0.36000000000000004
  endloop
 endfacet
 facet normal 0.9999996829318346 -0.0007963267107335633 0.0
  outer loop
   vertex 119.98407346073553 0.0 0.36000000000000004
   vertex 119.98407346073553 0.0 0
   vertex 120.0 20.0 0.36000000000000004
  endloop
 endfacet
 facet normal 0.0 -1.0 0.0
  outer loop
   vertex 86.57907384065669 0.0 0
   vertex 119.98407346073553 0.0 0
   vertex 119.98407346073553 0.0 0.36000000000000004
  endloop
 endfacet
 facet normal 0.0 -1.0 0.0
  outer loop
   vertex 86.57907384065669 0.0 0.36000000000000004
   vertex 86.57907384065669 0.0 0
   vertex 119.98407346073553 0.0 0.36000000000000004
  endloop
 endfacet
 facet normal 0.0 -1.0 0.0
  outer loop
   vertex 53.5790738406567 0.0 0
   vertex 86.57907384065669 0.0 0
   vertex 86.57907384065669 0.0 0.36000000000000004
  endloop
 endfacet
 facet normal 0.0 -1.0 0.0
  outer loop
   vertex 53.5790738406567 0.0 0.36000000000000004
   vertex 53.5790738406567 0.0 0
   vertex 86.57907384065669 0.0 0.36000000000000004
  endloop
 endfacet
 facet normal 0.0 -1.0 0.0
  outer loop
   vertex 20.579073840656697 0.0 0
   vertex 53.5790738406567 0.0 0
   vertex 53.5790738406567 0.0 0.36000000000000004
  endloop
 endfacet
 facet normal 0.0 -1.0 0.0
  outer loop
   vertex 20.579073840656697 0.0 0.36000000000000004
   vertex 20.579073840656697 0.0 0
   vertex 53.5790738406567 0.0 0.36000000000000004
  endloop
 endfacet
 facet normal 0.0 0.0 1.0
  outer loop
   vertex 20.579073840656697 0.0 0.36000000000000004
   vertex 2.9874641894740352 3.001 0.36000000000000004
   vertex -0.01592653926446385 0.0 0.36000000000000004
  endloop
 endfacet
 facet normal 0.0 0.0 1.0
  outer loop
   vertex -0.01592653926446385 0.0 0.36000000000000004
   vertex 2.9986119706321968 17.0 0.36000000000000004
   vertex 0.0 20.0 0.36000000000000004
  endloop
 endfacet
 facet normal -0.0 -0.0 1.0
  outer loop
   vertex 0.0 20.0 0.36000000000000004
   vertex 2.9986119706321968 17.0 0.36000000000000004
   vertex -0.01592653926446385 40.0 0.36000000000000004
  endloop
 endfacet
 facet normal -0.0 0.0 1.0
  outer loop
   vertex -0.01592653926446385 40.0 0.36000000000000004
   vertex 2.9986119706321968 17.0 0.36000000000000004
   vertex 0.0 60.0 0.36000000000000004
  endloop
 endfacet
 facet normal -0.0 -0.0 1.0
  outer loop
   vertex 0.0 60.0 0.36000000000000004
   vertex 2.9986119706321968 17.0 0.36000000000000004
   vertex -0.01592653926446385 80.0 0.36000000000000004
  endloop
 endfacet
 facet normal -0.0 0.0 1.0
  outer loop
   vertex -0.01592653926446385 80.0 0.36000000000000004
   vertex 18.940808463741266 76.999 0.36000000000000004
   vertex 20.579073840656697 80.0 0.36000000000000004
  endloop
 endfacet
 facet normal -0.0 0.0 1.0
  outer loop
   vertex 20.579073840656697 80.0 0.36000000000000004
   vertex 51.94080846374126 76.99900000000001 0.36000000000000004
   vertex 53.5790738406567 80.0 0.36000000000000004
  endloop
 endfacet
 facet normal -0.0 0.0 1.0
  outer loop
   vertex 53.5790738406567 80.0 0.36000000000000004
   vertex 84.94080846374128 76.99899999999998 0.36000000000000004
   vertex 86.57907384065669 80.0 0.36000000000000004
  endloop
 endfacet
 facet normal -0.0 0.0 1.0
  outer loop
   vertex 86.57907384065669 80.0 0.36000000000000004
   vertex 116.98546228643029 76.99899999999998 0.36000000000000004
   vertex 119.98407346073553 80.0 0.36000000000000004
  endloop
 endfacet
 facet normal 0.0 0.0 1.0
  outer loop
   vertex 119.98407346073553 80.0 0.36000000000000004
   vertex 116.99661006758846 23.0 0.36000000000000004
   vertex 120.0 60.0 0.36000000000000004
  endloop
 endfacet
 facet normal 0.0 0.0 1.0
  outer loop
   vertex 120.0 60.0 0.36000000000000004
   vertex 116.99661006758846 23.0 0.36000000000000004
   vertex 119.98407346073553 40.0 0.36000000000000004
  endloop
 endfacet
 facet normal 0.0 0.0 1.0
  outer loop
   vertex 119.98407346073553 40.0 0.36000000000000004
   vertex 116.99661006758846 23.0 0.36000000000000004
   vertex 120.0 20.0 0.36000000000000004
  endloop
 endfacet
 facet normal 0.0 0.0 1.0
  outer loop
   vertex 120.0 20.0 0.36000000000000004
   vertex 116.98546228643026 3.001 0.36000000000000004
   vertex 119.98407346073553 0.0 0.36000000000000004
  endloop
 endfacet
 facet normal 0.0 0.0 1.0
  outer loop
   vertex 119.98407346073553 0.0 0.36000000000000004
   vertex 2.9874641894740352 3.001 0.36000000000000004
   vertex 86.57907384065669 0.0 0.36000000000000004
  endloop
 endfacet
 facet normal 0.0 0.0 1.0
  outer loop
   vertex 86.57907384065669 0.0 0.36000000000000004
   vertex 2.9874641894740352 3.001 0.36000000000000004
   vertex 53.5790738406567 0.0 0.36000000000000004
  endloop
 endfacet
 facet normal 0.0 0.0 1.0
  outer loop
   vertex 53.5790738406567 0.0 0.36000000000000004
   vertex 2.9874641894740352 3.001 0.36000000000000004
   vertex 20.579073840656697 0.0 0.36000000000000004
  endloop
 endfacet
 facet normal 0.0 0.0 1.0
  outer loop
   vertex 2.9986119706321968 17.0 0.36000000000000004
   vertex -0.01592653926446385 0.0 0.36000000000000004
   vertex 2.9874641894740352 3.001 0.36000000000000004
  endloop
 endfacet
 facet normal 0.0 0.0 1.0
  outer loop
   vertex 2.9986119706321968 17.0 0.36000000000000004
   vertex 2.9874633931470718 37.0 0.36000000000000004
   vertex -0.01592653926446385 80.0 0.36000000000000004
  endloop
 endfacet
 facet normal 0.0 0.0 1.0
  outer loop
   vertex 2.9986119706321968 17.0 0.36000000000000004
   vertex 27.929462994205952 17.0 0.36000000000000004
   vertex 120.0 20.0 0.36000000000000004
  endloop
 endfacet
 facet normal 0.0 0.0 1.0
  outer loop
   vertex 2.9986119706321968 17.0 0.36000000000000004
   vertex 120.0 20.0 0.36000000000000004
   vertex 116.99661006758846 23.0 0.36000000000000004
  endloop
 endfacet
 facet normal 0.0 0.0 1.0
  outer loop
   vertex 2.9986119706321968 17.0 0.36000000000000004
   vertex 27.929462994205956 23.0 0.36000000000000004
   vertex 2.9986119706321968 23.0 0.36000000000000004
  endloop
 endfacet
 facet normal 0.0 -0.0 1.0
  outer loop
   vertex 2.9986119706321968 17.0 0.36000000000000004
   vertex 2.9986119706321968 23.0 0.36000000000000004
   vertex 2.9874633931470718 37.0 0.36000000000000004
  endloop
 endfacet
 facet normal 0.0 0.0 1.0
  outer loop
   vertex 2.9986119706321968 17.0 0.36000000000000004
   vertex 60.92946299420595 23.0 0.36000000000000004
   vertex 35.059833628874685 23.0 0.36000000000000004
  endloop
 endfacet
 facet normal 0.0 0.0 1.0
  outer loop
   vertex 2.9986119706321968 17.0 0.36000000000000004
   vertex 35.059833628874685 23.0 0.36000000000000004
   vertex 27.929462994205956 23.0 0.36000000000000004
  endloop
 endfacet
 facet normal 0.0 0.0 1.0
  outer loop
   vertex 2.9986119706321968 17.0 0.36000000000000004
   vertex 93.92946299420596 23.0 0.36000000000000004
   vertex 68.05983362887467 23.0 0.36000000000000004
  endloop
 endfacet
 facet normal 0.0 0.0 1.0
  outer loop
   vertex 2.9986119706321968 17.0 0.36000000000000004
   vertex 68.05983362887467 23.0 0.36000000000000004
   vertex 60.92946299420595 23.0 0.36000000000000004
  endloop
 endfacet
 facet normal 0.0 0.0 1.0
  outer loop
   vertex 2.9986119706321968 17.0 0.36000000000000004
   vertex 116.99661006758846 23.0 0.36000000000000004
   vertex 101.0598336288747 23.0 0.36000000000000004
  endloop
 endfacet
 facet normal 0.0 0.0 1.0
  outer loop
   vertex 2.9986119706321968 17.0 0.36000000000000004
   vertex 101.0598336288747 23.0 0.36000000000000004
   vertex 93.92946299420596 23.0 0.36000000000000004
  endloop
 endfacet
 facet normal -0.0 0.0 1.0
  outer loop
   vertex 2.9874641894740352 3.001 0.36000000000000004
   vertex 119.98407346073553 0.0 0.36000000000000004
   vertex 18.94080846374126 3.001 0.36000000000000004
  endloop
 endfacet
 facet normal -0.0 0.0 1.0
  outer loop
   vertex 18.94080846374126 3.001 0.36000000000000004
   vertex 119.98407346073553 0.0 0.36000000000000004
   vertex 26.07117909840998 3.001 0.36000000000000004
  endloop
 endfacet
 facet normal 0.0 0.0 1.0
  outer loop
   vertex 18.94080846374126 3.001 0.36000000000000004
   vertex 35.05983362887468 17.0 0.36000000000000004
   vertex 27.929462994205952 17.0 0.36000000000000004
  endloop
 endfacet
 facet normal 0.0 0.0 1.0
  outer loop
   vertex 18.94080846374126 3.001 0.36000000000000004
   vertex 26.07117909840998 3.001 0.36000000000000004
   vertex 35.05983362887468 17.0 0.36000000000000004
  endloop
 endfacet
 facet normal 0.0 0.0 1.0
  outer loop
   vertex 27.929462994205952 17.0 0.36000000000000004
   vertex 35.05983362887468 17.0 0.36000000000000004
   vertex 120.0 20.0 0.36000000000000004
  endloop
 endfacet
 facet normal 0.0 -0.0 1.0
  outer loop
   vertex 27.929462994205956 23.0 0.36000000000000004
   vertex 35.059833628874685 23.0 0.36000000000000004
   vertex 26.07053700579405 37.00000000000001 0.36000000000000004
  endloop
 endfacet
 facet normal 0.0 0.0 1.0
  outer loop
   vertex 27.929462994205956 23.0 0.36000000000000004
   vertex 18.940166371125326 43.0 0.36000000000000004
   vertex 18.94016637112533 37.0 0.36000000000000004
  endloop
 endfacet
 facet normal 0.0 0.0 1.0
  outer loop
   vertex 27.929462994205956 23.0 0.36000000000000004
   vertex 26.07053700579405 37.00000000000001 0.36000000000000004
   vertex 18.940166371125326 43.0 0.36000000000000004
  endloop
 endfacet
 facet normal 0.0 0.0 1.0
  outer loop
   vertex 18.94016637112533 37.0 0.36000000000000004
   vertex 2.9874633931470718 43.0 0.36000000000000004
   vertex 2.9874633931470718 37.0 0.36000000000000004
  endloop
 endfacet
 facet normal 0.0 0.0 1.0
  outer loop
   vertex 18.94016637112533 37.0 0.36000000000000004
   vertex 18.940166371125326 43.0 0.36000000000000004
   vertex 2.9874633931470718 43.0 0.36000000000000004
  endloop
 endfacet
 facet normal 0.0 -0.0 1.0
  outer loop
   vertex 2.9874633931470718 37.0 0.36000000000000004
   vertex 2.9874633931470718 43.0 0.36000000000000004
   vertex -0.01592653926446385 80.0 0.36000000000000004
  endloop
 endfacet
 facet normal 0.0 0.0 1.0
  outer loop
   vertex 35.05983362887468 17.0 0.36000000000000004
   vertex 60.929462994205956 17.0 0.36000000000000004
   vertex 120.0 20.0 0.36000000000000004
  endloop
 endfacet
 facet normal -0.0 0.0 1.0
  outer loop
   vertex 26.07117909840998 3.001 0.36000000000000004
   vertex 119.98407346073553 0.0 0.36000000000000004
   vertex 51.94080846374126 3.001 0.36000000000000004
  endloop
 endfacet
 facet normal -0.0 0.0 1.0
  outer loop
   vertex 51.94080846374126 3.001 0.36000000000000004
   vertex 119.98407346073553 0.0 0.36000000000000004
   vertex 59.07117909840999 3.001 0.36000000000000004
  endloop
 endfacet
 facet normal 0.0 0.0 1.0
  outer loop
   vertex 51.94080846374126 3.001 0.36000000000000004
   vertex 68.05983362887469 17.0 0.36000000000000004
   vertex 60.929462994205956 17.0 0.36000000000000004
  endloop
 endfacet
 facet normal 0.0 0.0 1.0
  outer loop
   vertex 51.94080846374126 3.001 0.36000000000000004
   vertex 59.07117909840999 3.001 0.36000000000000004
   vertex 68.05983362887469 17.0 0.36000000000000004
  endloop
 endfacet
 facet normal 0.0 0.0 1.0
  outer loop
   vertex 60.929462994205956 17.0 0.36000000000000004
   vertex 68.05983362887469 17.0 0.36000000000000004
   vertex 120.0 20.0 0.36000000000000004
  endloop
 endfacet
 facet normal 0.0 -0.0 1.0
  outer loop
   vertex 60.92946299420595 23.0 0.36000000000000004
   vertex 68.05983362887467 23.0 0.36000000000000004
   vertex 59.070537005794044 36.99999999999999 0.36000000000000004
  endloop
 endfacet
 facet normal 0.0 0.0 1.0
  outer loop
   vertex 60.92946299420595 23.0 0.36000000000000004
   vertex 51.940166371125315 43.00000000000001 0.36000000000000004
   vertex 51.940166371125315 37.00000000000001 0.36000000000000004
  endloop
 endfacet
 facet normal 0.0 0.0 1.0
  outer loop
   vertex 60.92946299420595 23.0 0.36000000000000004
   vertex 59.070537005794044 36.99999999999999 0.36000000000000004
   vertex 51.940166371125315 43.00000000000001 0.36000000000000004
  endloop
 endfacet
 facet normal 0.0 0.0 1.0
  outer loop
   vertex 51.940166371125315 37.00000000000001 0.36000000000000004
   vertex 18.940166371125326 43.0 0.36000000000000004
   vertex 26.07053700579405 37.00000000000001 0.36000000000000004
  endloop
 endfacet
 facet normal 0.0 0.0 1.0
  outer loop
   vertex 51.940166371125315 37.00000000000001 0.36000000000000004
   vertex 26.07053700579406 43.00000000000001 0.36000000000000004
   vertex 18.940166371125326 43.0 0.36000000000000004
  endloop
 endfacet
 facet normal 0.0 -0.0 1.0
  outer loop
   vertex 51.940166371125315 37.00000000000001 0.36000000000000004
   vertex 51.940166371125315 43.00000000000001 0.36000000000000004
   vertex 26.07053700579406 43.00000000000001 0.36000000000000004
  endloop
 endfacet
 facet normal 0.0 0.0 1.0
  outer loop
   vertex 68.05983362887469 17.0 0.36000000000000004
   vertex 93.92946299420595 17.0 0.36000000000000004
   vertex 120.0 20.0 0.36000000000000004
  endloop
 endfacet
 facet normal -0.0 0.0 1.0
  outer loop
   vertex 59.07117909840999 3.001 0.36000000000000004
   vertex 119.98407346073553 0.0 0.36000000000000004
   vertex 84.94080846374125 3.001 0.36000000000000004
  endloop
 endfacet
 facet normal -0.0 0.0 1.0
  outer loop
   vertex 84.94080846374125 3.001 0.36000000000000004
   vertex 119.98407346073553 0.0 0.36000000000000004
   vertex 92.07117909840998 3.001 0.36000000000000004
  endloop
 endfacet
 facet normal 0.0 0.0 1.0
  outer loop
   vertex 84.94080846374125 3.001 0.36000000000000004
   vertex 101.05983362887467 17.0 0.36000000000000004
   vertex 93.92946299420595 17.0 0.36000000000000004
  endloop
 endfacet
 facet normal 0.0 0.0 1.0
  outer loop
   vertex 84.94080846374125 3.001 0.36000000000000004
   vertex 92.07117909840998 3.001 0.36000000000000004
   vertex 101.05983362887467 17.0 0.36000000000000004
  endloop
 endfacet
 facet normal 0.0 0.0 1.0
  outer loop
   vertex 93.92946299420595 17.0 0.36000000000000004
   vertex 101.05983362887467 17.0 0.36000000000000004
   vertex 120.0 20.0 0.36000000000000004
  endloop
 endfacet
 facet normal 0.0 -0.0 1.0
  outer loop
   vertex 93.92946299420596 23.0 0.36000000000000004
   vertex 101.0598336288747 23.0 0.36000000000000004
   vertex 92.07053700579407 36.99999999999999 0.36000000000000004
  endloop
 endfacet
 facet normal 0.0 0.0 1.0
  outer loop
   vertex 93.92946299420596 23.0 0.36000000000000004
   vertex 84.94016637112529 42.99999999999999 0.36000000000000004
   vertex 84.94016637112533 36.99999999999999 0.36000000000000004
  endloop
 endfacet
 facet normal 0.0 0.0 1.0
  outer loop
   vertex 93.92946299420596 23.0 0.36000000000000004
   vertex 92.07053700579407 36.99999999999999 0.36000000000000004
   vertex 84.94016637112529 42.99999999999999 0.36000000000000004
  endloop
 endfacet
 facet normal 0.0 0.0 1.0
  outer loop
   vertex 84.94016637112533 36.99999999999999 0.36000000000000004
   vertex 51.940166371125315 43.00000000000001 0.36000000000000004
   vertex 59.070537005794044 36.99999999999999 0.36000000000000004
  endloop
 endfacet
 facet normal 0.0 0.0 1.0
  outer loop
   vertex 84.94016637112533 36.99999999999999 0.36000000000000004
   vertex 59.07053700579404 42.999999999999986 0.36000000000000004
   vertex 51.940166371125315 43.00000000000001 0.36000000000000004
  endloop
 endfacet
 facet normal 0.0 0.0 1.0
  outer loop
   vertex 84.94016637112533 36.99999999999999 0.36000000000000004
   vertex 84.94016637112529 42.99999999999999 0.36000000000000004
   vertex 59.07053700579404 42.999999999999986 0.36000000000000004
  endloop
 endfacet
 facet normal 0.0 0.0 1.0
  outer loop
   vertex 101.05983362887467 17.0 0.36000000000000004
   vertex 116.99661006758843 17.0 0.36000000000000004
   vertex 120.0 20.0 0.36000000000000004
  endloop
 endfacet
 facet normal -0.0 0.0 1.0
  outer loop
   vertex 92.07117909840998 3.001 0.36000000000000004
   vertex 119.98407346073553 0.0 0.36000000000000004
   vertex 116.98546228643026 3.001 0.36000000000000004
  endloop
 endfacet
 facet normal 0.0 0.0 1.0
  outer loop
   vertex 116.98546228643026 3.001 0.36000000000000004
   vertex 120.0 20.0 0.36000000000000004
   vertex 116.99661006758843 17.0 0.36000000000000004
  endloop
 endfacet
 facet normal 0.0 0.0 1.0
  outer loop
   vertex 116.99661006758846 23.0 0.36000000000000004
   vertex 119.98407346073553 80.0 0.36000000000000004
   vertex 116.99661006758846 56.999999999999986 0.36000000000000004
  endloop
 endfacet
 facet normal 0.0 0.0 1.0
  outer loop
   vertex 116.99661006758846 23.0 0.36000000000000004
   vertex 116.98546149010333 42.99999999999999 0.36000000000000004
   vertex 116.98546149010333 36.99999999999999 0.36000000000000004
  endloop
 endfacet
 facet normal 0.0 -0.0 1.0
  outer loop
   vertex 116.99661006758846 23.0 0.36000000000000004
   vertex 116.99661006758846 56.999999999999986 0.36000000000000004
   vertex 116.98546149010333 42.99999999999999 0.36000000000000004
  endloop
 endfacet
 facet normal 0.0 0.0 1.0
  outer loop
   vertex 116.98546149010333 36.99999999999999 0.36000000000000004
   vertex 84.94016637112529 42.99999999999999 0.36000000000000004
   vertex 92.07053700579407 36.99999999999999 0.36000000000000004
  endloop
 endfacet
 facet normal 0.0 0.0 1.0
  outer loop
   vertex 116.98546149010333 36.99999999999999 0.36000000000000004
   vertex 92.07053700579402 42.99999999999999 0.36000000000000004
   vertex 84.94016637112529 42.99999999999999 0.36000000000000004
  endloop
 endfacet
 facet normal 0.0 -0.0 1.0
  outer loop
   vertex 116.98546149010333 36.99999999999999 0.36000000000000004
   vertex 116.98546149010333 42.99999999999999 0.36000000000000004
   vertex 92.07053700579402 42.99999999999999 0.36000000000000004
  endloop
 endfacet
 facet normal 0.0 0.0 1.0
  outer loop
   vertex 2.9986119706321968 56.99999999999999 0.36000000000000004
   vertex -0.01592653926446385 80.0 0.36000000000000004
   vertex 2.9874633931470718 43.0 0.36000000000000004
  endloop
 endfacet
 facet normal 0.0 0.0 1.0
  outer loop
   vertex 2.9986119706321968 56.99999999999999 0.36000000000000004
   vertex 2.9874641894740352 76.999 0.36000000000000004
   vertex -0.01592653926446385 80.0 0.36000000000000004
  endloop
 endfacet
 facet normal 0.0 0.0 1.0
  outer loop
   vertex 2.9986119706321968 56.99999999999999 0.36000000000000004
   vertex 27.929462994205956 62.99999999999999 0.36000000000000004
   vertex 2.9986119706321968 63.0 0.36000000000000004
  endloop
 endfacet
 facet normal 0.0 -0.0 1.0
  outer loop
   vertex 2.9986119706321968 56.99999999999999 0.36000000000000004
   vertex 2.9986119706321968 63.0 0.36000000000000004
   vertex 2.9874641894740352 76.999 0.36000000000000004
  endloop
 endfacet
 facet normal 0.0 0.0 1.0
  outer loop
   vertex 2.9986119706321968 56.99999999999999 0.36000000000000004
   vertex 60.92946299420596 63.00000000000001 0.36000000000000004
   vertex 35.05983362887468 63.00000000000001 0.36000000000000004
  endloop
 endfacet
 facet normal 0.0 0.0 1.0
  outer loop
   vertex 2.9986119706321968 56.99999999999999 0.36000000000000004
   vertex 35.05983362887468 63.00000000000001 0.36000000000000004
   vertex 27.929462994205956 62.99999999999999 0.36000000000000004
  endloop
 endfacet
 facet normal 0.0 0.0 1.0
  outer loop
   vertex 2.9986119706321968 56.99999999999999 0.36000000000000004
   vertex 93.92946299420596 62.99999999999999 0.36000000000000004
   vertex 68.05983362887469 62.99999999999999 0.36000000000000004
  endloop
 endfacet
 facet normal 0.0 0.0 1.0
  outer loop
   vertex 2.9986119706321968 56.99999999999999 0.36000000000000004
   vertex 68.05983362887469 62.99999999999999 0.36000000000000004
   vertex 60.92946299420596 63.00000000000001 0.36000000000000004
  endloop
 endfacet
 facet normal 0.0 0.0 1.0
  outer loop
   vertex 2.9986119706321968 56.99999999999999 0.36000000000000004
   vertex 116.99661006758846 62.99999999999998 0.36000000000000004
   vertex 101.0598336288747 62.999999999999986 0.36000000000000004
  endloop
 endfacet
 facet normal 0.0 0.0 1.0
  outer loop
   vertex 2.9986119706321968 56.99999999999999 0.36000000000000004
   vertex 27.929462994205956 57.0 0.36000000000000004
   vertex 116.99661006758846 62.99999999999998 0.36000000000000004
  endloop
 endfacet
 facet normal 0.0 0.0 1.0
  outer loop
   vertex 2.9986119706321968 56.99999999999999 0.36000000000000004
   vertex 101.0598336288747 62.999999999999986 0.36000000000000004
   vertex 93.92946299420596 62.99999999999999 0.36000000000000004
  endloop
 endfacet
 facet normal 0.0 0.0 1.0
  outer loop
   vertex 18.940166371125326 43.0 0.36000000000000004
   vertex 35.059833628874685 57.000000000000014 0.36000000000000004
   vertex 27.929462994205956 57.0 0.36000000000000004
  endloop
 endfacet
 facet normal 0.0 0.0 1.0
  outer loop
   vertex 18.940166371125326 43.0 0.36000000000000004
   vertex 26.07053700579406 43.00000000000001 0.36000000000000004
   vertex 35.059833628874685 57.000000000000014 0.36000000000000004
  endloop
 endfacet
 facet normal 0.0 0.0 1.0
  outer loop
   vertex 27.929462994205956 57.0 0.36000000000000004
   vertex 35.059833628874685 57.000000000000014 0.36000000000000004
   vertex 116.99661006758846 62.99999999999998 0.36000000000000004
  endloop
 endfacet
 facet normal 0.0 0.0 1.0
  outer loop
   vertex 27.929462994205956 62.99999999999999 0.36000000000000004
   vertex 20.579073840656697 80.0 0.36000000000000004
   vertex 18.940808463741266 76.999 0.36000000000000004
  endloop
 endfacet
 facet normal 0.0 0.0 1.0
  outer loop
   vertex 27.929462994205956 62.99999999999999 0.36000000000000004
   vertex 26.07117909840998 76.99900000000001 0.36000000000000004
   vertex 20.579073840656697 80.0 0.36000000000000004
  endloop
 endfacet
 facet normal 0.0 -0.0 1.0
  outer loop
   vertex 27.929462994205956 62.99999999999999 0.36000000000000004
   vertex 35.05983362887468 63.00000000000001 0.36000000000000004
   vertex 26.07117909840998 76.99900000000001 0.36000000000000004
  endloop
 endfacet
 facet normal 0.0 0.0 1.0
  outer loop
   vertex 18.940808463741266 76.999 0.36000000000000004
   vertex -0.01592653926446385 80.0 0.36000000000000004
   vertex 2.9874641894740352 76.999 0.36000000000000004
  endloop
 endfacet
 facet normal 0.0 0.0 1.0
  outer loop
   vertex 35.059833628874685 57.000000000000014 0.36000000000000004
   vertex 60.92946299420595 57.000000000000014 0.36000000000000004
   vertex 116.99661006758846 62.99999999999998 0.36000000000000004
  endloop
 endfacet
 facet normal 0.0 0.0 1.0
  outer loop
   vertex 51.940166371125315 43.00000000000001 0.36000000000000004
   vertex 68.05983362887467 57.0 0.36000000000000004
   vertex 60.92946299420595 57.000000000000014 0.36000000000000004
  endloop
 endfacet
 facet normal -0.0 0.0 1.0
  outer loop
   vertex 51.940166371125315 43.00000000000001 0.36000000000000004
   vertex 59.07053700579404 42.999999999999986 0.36000000000000004
   vertex 68.05983362887467 57.0 0.36000000000000004
  endloop
 endfacet
 facet normal -0.0 0.0 1.0
  outer loop
   vertex 60.92946299420595 57.000000000000014 0.36000000000000004
   vertex 68.05983362887467 57.0 0.36000000000000004
   vertex 116.99661006758846 62.99999999999998 0.36000000000000004
  endloop
 endfacet
 facet normal 0.0 0.0 1.0
  outer loop
   vertex 60.92946299420596 63.00000000000001 0.36000000000000004
   vertex 53.5790738406567 80.0 0.36000000000000004
   vertex 51.94080846374126 76.99900000000001 0.36000000000000004
  endloop
 endfacet
 facet normal 0.0 0.0 1.0
  outer loop
   vertex 60.92946299420596 63.00000000000001 0.36000000000000004
   vertex 59.071179098410006 76.99899999999998 0.36000000000000004
   vertex 53.5790738406567 80.0 0.36000000000000004
  endloop
 endfacet
 facet normal -0.0 -0.0 1.0
  outer loop
   vertex 60.92946299420596 63.00000000000001 0.36000000000000004
   vertex 68.05983362887469 62.99999999999999 0.36000000000000004
   vertex 59.071179098410006 76.99899999999998 0.36000000000000004
  endloop
 endfacet
 facet normal 0.0 0.0 1.0
  outer loop
   vertex 51.94080846374126 76.99900000000001 0.36000000000000004
   vertex 20.579073840656697 80.0 0.36000000000000004
   vertex 26.07117909840998 76.99900000000001 0.36000000000000004
  endloop
 endfacet
 facet normal 0.0 0.0 1.0
  outer loop
   vertex 68.05983362887467 57.0 0.36000000000000004
   vertex 93.92946299420592 57.0 0.36000000000000004
   vertex 116.99661006758846 62.99999999999998 0.36000000000000004
  endloop
 endfacet
 facet normal 0.0 0.0 1.0
  outer loop
   vertex 84.94016637112529 42.99999999999999 0.36000000000000004
   vertex 101.05983362887466 56.999999999999986 0.36000000000000004
   vertex 93.92946299420592 57.0 0.36000000000000004
  endloop
 endfacet
 facet normal 0.0 0.0 1.0
  outer loop
   vertex 84.94016637112529 42.99999999999999 0.36000000000000004
   vertex 92.07053700579402 42.99999999999999 0.36000000000000004
   vertex 101.05983362887466 56.999999999999986 0.36000000000000004
  endloop
 endfacet
 facet normal -0.0 0.0 1.0
  outer loop
   vertex 93.92946299420592 57.0 0.36000000000000004
   vertex 101.05983362887466 56.999999999999986 0.36000000000000004
   vertex 116.99661006758846 62.99999999999998 0.36000000000000004
  endloop
 endfacet
 facet normal 0.0 0.0 1.0
  outer loop
   vertex 93.92946299420596 62.99999999999999 0.36000000000000004
   vertex 86.57907384065669 80.0 0.36000000000000004
   vertex 84.94080846374128 76.99899999999998 0.36000000000000004
  endloop
 endfacet
 facet normal 0.0 0.0 1.0
  outer loop
   vertex 93.92946299420596 62.99999999999999 0.36000000000000004
   vertex 92.07117909841001 76.99899999999998 0.36000000000000004
   vertex 86.57907384065669 80.0 0.36000000000000004
  endloop
 endfacet
 facet normal -0.0 -0.0 1.0
  outer loop
   vertex 93.92946299420596 62.99999999999999 0.36000000000000004
   vertex 101.0598336288747 62.999999999999986 0.36000000000000004
   vertex 92.07117909841001 76.99899999999998 0.36000000000000004
  endloop
 endfacet
 facet normal 0.0 0.0 1.0
  outer loop
   vertex 84.94080846374128 76.99899999999998 0.36000000000000004
   vertex 53.5790738406567 80.0 0.36000000000000004
   vertex 59.071179098410006 76.99899999999998 0.36000000000000004
  endloop
 endfacet
 facet normal 0.0 0.0 1.0
  outer loop
   vertex 101.05983362887466 56.999999999999986 0.36000000000000004
   vertex 116.99661006758846 56.999999999999986 0.36000000000000004
   vertex 116.99661006758846 62.99999999999998 0.36000000000000004
  endloop
 endfacet
 facet normal 0.0 0.0 1.0
  outer loop
   vertex 116.99661006758846 56.999999999999986 0.36000000000000004
   vertex 119.98407346073553 80.0 0.36000000000000004
   vertex 116.99661006758846 62.99999999999998 0.36000000000000004
  endloop
 endfacet
 facet normal 0.0 -0.0 1.0
  outer loop
   vertex 116.99661006758846 62.99999999999998 0.36000000000000004
   vertex 119.98407346073553 80.0 0.36000000000000004
   vertex 116.98546228643029 76.99899999999998 0.36000000000000004
  endloop
 endfacet
 facet normal 0.0 0.0 1.0
  outer loop
   vertex 116.98546228643029 76.99899999999998 0.36000000000000004
   vertex 86.57907384065669 80.0 0.36000000000000004
   vertex 92.07117909841001 76.99899999999998 0.36000000000000004
  endloop
 endfacet
 facet normal 0.9999996829318346 -0.0007963267107332656 0.0
  outer loop
   vertex 2.9986119706321968 17.0 0
   vertex 2.9986119706321968 17.0 0.36000000000000004
   vertex 2.9874641894740352 3.001 0
  endloop
 endfacet
 facet normal 0.9999996829318346 -0.0007963267107332656 0.0
  outer loop
   vertex 2.9874641894740352 3.001 0
   vertex 2.9986119706321968 17.0 0.36000000000000004
   vertex 2.9874641894740352 3.001 0.36000000000000004
  endloop
 endfacet
 facet normal 0.0 1.0 0.0
  outer loop
   vertex 2.9874641894740352 3.001 0
   vertex 2.9874641894740352 3.001 0.36000000000000004
   vertex 18.94080846374126 3.001 0
  endloop
 endfacet
 facet normal 0.0 1.0 -0.0
  outer loop
   vertex 18.94080846374126 3.001 0
   vertex 2.9874641894740352 3.001 0.36000000000000004
   vertex 18.94080846374126 3.001 0.36000000000000004
  endloop
 endfacet
 facet normal -0.8414709848078966 0.5403023058681395 0.0
  outer loop
   vertex 18.94080846374126 3.001 0
   vertex 18.94080846374126 3.001 0.36000000000000004
   vertex 27.929462994205952 17.0 0
  endloop
 endfacet
 facet normal -0.8414709848078966 0.5403023058681395 0.0
  outer loop
   vertex 27.929462994205952 17.0 0
   vertex 18.94080846374126 3.001 0.36000000000000004
   vertex 27.929462994205952 17.0 0.36000000000000004
  endloop
 endfacet
 facet normal 0.0 -1.0 0.0
  outer loop
   vertex 27.929462994205952 17.0 0
   vertex 27.929462994205952 17.0 0.36000000000000004
   vertex 2.9986119706321968 17.0 0
  endloop
 endfacet
 facet normal 0.0 -1.0 0.0
  outer loop
   vertex 2.9986119706321968 17.0 0
   vertex 27.929462994205952 17.0 0.36000000000000004
   vertex 2.9986119706321968 17.0 0.36000000000000004
  endloop
 endfacet
 facet normal -0.8414709848078966 -0.5403023058681395 0.0
  outer loop
   vertex 27.929462994205956 23.0 0
   vertex 27.929462994205956 23.0 0.36000000000000004
   vertex 18.94016637112533 37.0 0
  endloop
 endfacet
 facet normal -0.8414709848078966 -0.5403023058681395 0.0
  outer loop
   vertex 18.94016637112533 37.0 0
   vertex 27.929462994205956 23.0 0.36000000000000004
   vertex 18.94016637112533 37.0 0.36000000000000004
  endloop
 endfacet
 facet normal 0.0 -1.0 0.0
  outer loop
   vertex 18.94016637112533 37.0 0
   vertex 18.94016637112533 37.0 0.36000000000000004
   vertex 2.9874633931470718 37.0 0
  endloop
 endfacet
 facet normal 0.0 -1.0 0.0
  outer loop
   vertex 2.9874633931470718 37.0 0
   vertex 18.94016637112533 37.0 0.36000000000000004
   vertex 2.9874633931470718 37.0 0.36000000000000004
  endloop
 endfacet
 facet normal 0.9999996829318345 0.0007963267107332842 -0.0
  outer loop
   vertex 2.9874633931470718 37.0 0
   vertex 2.9874633931470718 37.0 0.36000000000000004
   vertex 2.9986119706321968 23.0 0
  endloop
 endfacet
 facet normal 0.9999996829318345 0.0007963267107332842 -0.0
  outer loop
   vertex 2.9986119706321968 23.0 0
   vertex 2.9874633931470718 37.0 0.36000000000000004
   vertex 2.9986119706321968 23.0 0.36000000000000004
  endloop
 endfacet
 facet normal 0.0 1.0 0.0
  outer loop
   vertex 2.9986119706321968 23.0 0
   vertex 2.9986119706321968 23.0 0.36000000000000004
   vertex 27.929462994205956 23.0 0
  endloop
 endfacet
 facet normal 0.0 1.0 -0.0
  outer loop
   vertex 27.929462994205956 23.0 0
   vertex 2.9986119706321968 23.0 0.36000000000000004
   vertex 27.929462994205956 23.0 0.36000000000000004
  endloop
 endfacet
 facet normal 0.8414709848078965 -0.5403023058681397 0.0
  outer loop
   vertex 35.05983362887468 17.0 0
   vertex 35.05983362887468 17.0 0.36000000000000004
   vertex 26.07117909840998 3.001 0
  endloop
 endfacet
 facet normal 0.8414709848078965 -0.5403023058681397 0.0
  outer loop
   vertex 26.07117909840998 3.001 0
   vertex 35.05983362887468 17.0 0.36000000000000004
   vertex 26.07117909840998 3.001 0.36000000000000004
  endloop
 endfacet
 facet normal 0.0 1.0 0.0
  outer loop
   vertex 26.07117909840998 3.001 0
   vertex 26.07117909840998 3.001 0.36000000000000004
   vertex 51.94080846374126 3.001 0
  endloop
 endfacet
 facet normal 0.0 1.0 -0.0
  outer loop
   vertex 51.94080846374126 3.001 0
   vertex 26.07117909840998 3.001 0.36000000000000004
   vertex 51.94080846374126 3.001 0.36000000000000004
  endloop
 endfacet
 facet normal -0.8414709848078966 0.5403023058681395 0.0
  outer loop
   vertex 51.94080846374126 3.001 0
   vertex 51.94080846374126 3.001 0.36000000000000004
   vertex 60.929462994205956 17.0 0
  endloop
 endfacet
 facet normal -0.8414709848078966 0.5403023058681395 0.0
  outer loop
   vertex 60.929462994205956 17.0 0
   vertex 51.94080846374126 3.001 0.36000000000000004
   vertex 60.929462994205956 17.0 0.36000000000000004
  endloop
 endfacet
 facet normal 0.0 -1.0 0.0
  outer loop
   vertex 60.929462994205956 17.0 0
   vertex 60.929462994205956 17.0 0.36000000000000004
   vertex 35.05983362887468 17.0 0
  endloop
 endfacet
 facet normal 0.0 -1.0 0.0
  outer loop
   vertex 35.05983362887468 17.0 0
   vertex 60.929462994205956 17.0 0.36000000000000004
   vertex 35.05983362887468 17.0 0.36000000000000004
  endloop
 endfacet
 facet normal -0.8414709848078965 -0.5403023058681397 0.0
  outer loop
   vertex 60.92946299420595 23.0 0
   vertex 60.92946299420595 23.0 0.36000000000000004
   vertex 51.940166371125315 37.00000000000001 0
  endloop
 endfacet
 facet normal -0.8414709848078965 -0.5403023058681397 0.0
  outer loop
   vertex 51.940166371125315 37.00000000000001 0
   vertex 60.92946299420595 23.0 0.36000000000000004
   vertex 51.940166371125315 37.00000000000001 0.36000000000000004
  endloop
 endfacet
 facet normal 0.0 -1.0 0.0
  outer loop
   vertex 51.940166371125315 37.00000000000001 0
   vertex 51.940166371125315 37.00000000000001 0.36000000000000004
   vertex 26.07053700579405 37.00000000000001 0
  endloop
 endfacet
 facet normal 0.0 -1.0 0.0
  outer loop
   vertex 26.07053700579405 37.00000000000001 0
   vertex 51.940166371125315 37.00000000000001 0.36000000000000004
   vertex 26.07053700579405 37.00000000000001 0.36000000000000004
  endloop
 endfacet
 facet normal 0.8414709848078965 0.5403023058681397 -0.0
  outer loop
   vertex 26.07053700579405 37.00000000000001 0
   vertex 26.07053700579405 37.00000000000001 0.36000000000000004
   vertex 35.059833628874685 23.0 0
  endloop
 endfacet
 facet normal 0.8414709848078965 0.5403023058681397 -0.0
  outer loop
   vertex 35.059833628874685 23.0 0
   vertex 26.07053700579405 37.00000000000001 0.36000000000000004
   vertex 35.059833628874685 23.0 0.36000000000000004
  endloop
 endfacet
 facet normal 0.0 1.0 0.0
  outer loop
   vertex 35.059833628874685 23.0 0
   vertex 35.059833628874685 23.0 0.36000000000000004
   vertex 60.92946299420595 23.0 0
  endloop
 endfacet
 facet normal 0.0 1.0 -0.0
  outer loop
   vertex 60.92946299420595 23.0 0
   vertex 35.059833628874685 23.0 0.36000000000000004
   vertex 60.92946299420595 23.0 0.36000000000000004
  endloop
 endfacet
 facet normal 0.8414709848078966 -0.5403023058681395 0.0
  outer loop
   vertex 68.05983362887469 17.0 0
   vertex 68.05983362887469 17.0 0.36000000000000004
   vertex 59.07117909840999 3.001 0
  endloop
 endfacet
 facet normal 0.8414709848078966 -0.5403023058681395 0.0
  outer loop
   vertex 59.07117909840999 3.001 0
   vertex 68.05983362887469 17.0 0.36000000000000004
   vertex 59.07117909840999 3.001 0.36000000000000004
  endloop
 endfacet
 facet normal 0.0 1.0 0.0
  outer loop
   vertex 59.07117909840999 3.001 0
   vertex 59.07117909840999 3.001 0.36000000000000004
   vertex 84.94080846374125 3.001 0
  endloop
 endfacet
 facet normal 0.0 1.0 -0.0
  outer loop
   vertex 84.94080846374125 3.001 0
   vertex 59.07117909840999 3.001 0.36000000000000004
   vertex 84.94080846374125 3.001 0.36000000000000004
  endloop
 endfacet
 facet normal -0.8414709848078965 0.5403023058681399 0.0
  outer loop
   vertex 84.94080846374125 3.001 0
   vertex 84.94080846374125 3.001 0.36000000000000004
   vertex 93.92946299420595 17.0 0
  endloop
 endfacet
 facet normal -0.8414709848078965 0.5403023058681399 0.0
  outer loop
   vertex 93.92946299420595 17.0 0
   vertex 84.94080846374125 3.001 0.36000000000000004
   vertex 93.92946299420595 17.0 0.36000000000000004
  endloop
 endfacet
 facet normal 0.0 -1.0 0.0
  outer loop
   vertex 93.92946299420595 17.0 0
   vertex 93.92946299420595 17.0 0.36000000000000004
   vertex 68.05983362887469 17.0 0
  endloop
 endfacet
 facet normal 0.0 -1.0 0.0
  outer loop
   vertex 68.05983362887469 17.0 0
   vertex 93.92946299420595 17.0 0.36000000000000004
   vertex 68.05983362887469 17.0 0.36000000000000004
  endloop
 endfacet
 facet normal -0.8414709848078963 -0.5403023058681401 0.0
  outer loop
   vertex 93.92946299420596 23.0 0
   vertex 93.92946299420596 23.0 0.36000000000000004
   vertex 84.94016637112533 36.99999999999999 0
  endloop
 endfacet
 facet normal -0.8414709848078963 -0.5403023058681401 0.0
  outer loop
   vertex 84.94016637112533 36.99999999999999 0
   vertex 93.92946299420596 23.0 0.36000000000000004
   vertex 84.94016637112533 36.99999999999999 0.36000000000000004
  endloop
 endfacet
 facet normal 0.0 -1.0 0.0
  outer loop
   vertex 84.94016637112533 36.99999999999999 0
   vertex 84.94016637112533 36.99999999999999 0.36000000000000004
   vertex 59.070537005794044 36.99999999999999 0
  endloop
 endfacet
 facet normal 0.0 -1.0 0.0
  outer loop
   vertex 59.070537005794044 36.99999999999999 0
   vertex 84.94016637112533 36.99999999999999 0.36000000000000004
   vertex 59.070537005794044 36.99999999999999 0.36000000000000004
  endloop
 endfacet
 facet normal 0.8414709848078964 0.5403023058681397 -0.0
  outer loop
   vertex 59.070537005794044 36.99999999999999 0
   vertex 59.070537005794044 36.99999999999999 0.36000000000000004
   vertex 68.05983362887467 23.0 0
  endloop
 endfacet
 facet normal 0.8414709848078964 0.5403023058681397 -0.0
  outer loop
   vertex 68.05983362887467 23.0 0
   vertex 59.070537005794044 36.99999999999999 0.36000000000000004
   vertex 68.05983362887467 23.0 0.36000000000000004
  endloop
 endfacet
 facet normal 0.0 1.0 0.0
  outer loop
   vertex 68.05983362887467 23.0 0
   vertex 68.05983362887467 23.0 0.36000000000000004
   vertex 93.92946299420596 23.0 0
  endloop
 endfacet
 facet normal 0.0 1.0 -0.0
  outer loop
   vertex 93.92946299420596 23.0 0
   vertex 68.05983362887467 23.0 0.36000000000000004
   vertex 93.92946299420596 23.0 0.36000000000000004
  endloop
 endfacet
 facet normal 0.8414709848078968 -0.5403023058681392 0.0
  outer loop
   vertex 101.05983362887467 17.0 0
   vertex 101.05983362887467 17.0 0.36000000000000004
   vertex 92.07117909840998 3.001 0
  endloop
 endfacet
 facet normal 0.8414709848078968 -0.5403023058681392 0.0
  outer loop
   vertex 92.07117909840998 3.001 0
   vertex 101.05983362887467 17.0 0.36000000000000004
   vertex 92.07117909840998 3.001 0.36000000000000004
  endloop
 endfacet
 facet normal 0.0 1.0 0.0
  outer loop
   vertex 92.07117909840998 3.001 0
   vertex 92.07117909840998 3.001 0.36000000000000004
   vertex 116.98546228643026 3.001 0
  endloop
 endfacet
 facet normal 0.0 1.0 -0.0
  outer loop
   vertex 116.98546228643026 3.001 0
   vertex 92.07117909840998 3.001 0.36000000000000004
   vertex 116.98546228643026 3.001 0.36000000000000004
  endloop
 endfacet
 facet normal -0.9999996829318346 0.0007963267107340271 0.0
  outer loop
   vertex 116.98546228643026 3.001 0
   vertex 116.98546228643026 3.001 0.36000000000000004
   vertex 116.99661006758843 17.0 0
  endloop
 endfacet
 facet normal -0.9999996829318346 0.0007963267107340271 0.0
  outer loop
   vertex 116.99661006758843 17.0 0
   vertex 116.98546228643026 3.001 0.36000000000000004
   vertex 116.99661006758843 17.0 0.36000000000000004
  endloop
 endfacet
 facet normal 0.0 -1.0 0.0
  outer loop
   vertex 116.99661006758843 17.0 0
   vertex 116.99661006758843 17.0 0.36000000000000004
   vertex 101.05983362887467 17.0 0
  endloop
 endfacet
 facet normal 0.0 -1.0 0.0
  outer loop
   vertex 101.05983362887467 17.0 0
   vertex 116.99661006758843 17.0 0.36000000000000004
   vertex 101.05983362887467 17.0 0.36000000000000004
  endloop
 endfacet
 facet normal -0.9999996829318345 -0.0007963267107336653 0.0
  outer loop
   vertex 116.99661006758846 23.0 0
   vertex 116.99661006758846 23.0 0.36000000000000004
   vertex 116.98546149010333 36.99999999999999 0
  endloop
 endfacet
 facet normal -0.9999996829318345 -0.0007963267107336653 0.0
  outer loop
   vertex 116.98546149010333 36.99999999999999 0
   vertex 116.99661006758846 23.0 0.36000000000000004
   vertex 116.98546149010333 36.99999999999999 0.36000000000000004
  endloop
 endfacet
 facet normal 0.0 -1.0 0.0
  outer loop
   vertex 116.98546149010333 36.99999999999999 0
   vertex 116.98546149010333 36.99999999999999 0.36000000000000004
   vertex 92.07053700579407 36.99999999999999 0
  endloop
 endfacet
 facet normal 0.0 -1.0 0.0
  outer loop
   vertex 92.07053700579407 36.99999999999999 0
   vertex 116.98546149010333 36.99999999999999 0.36000000000000004
   vertex 92.07053700579407 36.99999999999999 0.36000000000000004
  endloop
 endfacet
 facet normal 0.8414709848078963 0.5403023058681401 -0.0
  outer loop
   vertex 92.07053700579407 36.99999999999999 0
   vertex 92.07053700579407 36.99999999999999 0.36000000000000004
   vertex 101.0598336288747 23.0 0
  endloop
 endfacet
 facet normal 0.8414709848078963 0.5403023058681401 -0.0
  outer loop
   vertex 101.0598336288747 23.0 0
   vertex 92.07053700579407 36.99999999999999 0.36000000000000004
   vertex 101.0598336288747 23.0 0.36000000000000004
  endloop
 endfacet
 facet normal 0.0 1.0 0.0
  outer loop
   vertex 101.0598336288747 23.0 0
   vertex 101.0598336288747 23.0 0.36000000000000004
   vertex 116.99661006758846 23.0 0
  endloop
 endfacet
 facet normal 0.0 1.0 -0.0
  outer loop
   vertex 116.99661006758846 23.0 0
   vertex 101.0598336288747 23.0 0.36000000000000004
   vertex 116.99661006758846 23.0 0.36000000000000004
  endloop
 endfacet
 facet normal 0.9999996829318345 -0.0007963267107332846 0.0
  outer loop
   vertex 2.9986119706321968 56.99999999999999 0
   vertex 2.9986119706321968 56.99999999999999 0.36000000000000004
   vertex 2.9874633931470718 43.0 0
  endloop
 endfacet
 facet normal 0.9999996829318345 -0.0007963267107332846 0.0
  outer loop
   vertex 2.9874633931470718 43.0 0
   vertex 2.9986119706321968 56.99999999999999 0.36000000000000004
   vertex 2.9874633931470718 43.0 0.36000000000000004
  endloop
 endfacet
 facet normal 0.0 1.0 0.0
  outer loop
   vertex 2.9874633931470718 43.0 0
   vertex 2.9874633931470718 43.0 0.36000000000000004
   vertex 18.940166371125326 43.0 0
  endloop
 endfacet
 facet normal 0.0 1.0 -0.0
  outer loop
   vertex 18.940166371125326 43.0 0
   vertex 2.9874633931470718 43.0 0.36000000000000004
   vertex 18.940166371125326 43.0 0.36000000000000004
  endloop
 endfacet
 facet normal -0.8414709848078965 0.5403023058681397 0.0
  outer loop
   vertex 18.940166371125326 43.0 0
   vertex 18.940166371125326 43.0 0.36000000000000004
   vertex 27.929462994205956 57.0 0
  endloop
 endfacet
 facet normal -0.8414709848078965 0.5403023058681397 0.0
  outer loop
   vertex 27.929462994205956 57.0 0
   vertex 18.940166371125326 43.0 0.36000000000000004
   vertex 27.929462994205956 57.0 0.36000000000000004
  endloop
 endfacet
 facet normal 2.850054075924786e-16 -1.0 0.0
  outer loop
   vertex 27.929462994205956 57.0 0
   vertex 27.929462994205956 57.0 0.36000000000000004
   vertex 2.9986119706321968 56.99999999999999 0
  endloop
 endfacet
 facet normal 2.850054075924786e-16 -1.0 0.0
  outer loop
   vertex 2.9986119706321968 56.99999999999999 0
   vertex 27.929462994205956 57.0 0.36000000000000004
   vertex 2.9986119706321968 56.99999999999999 0.36000000000000004
  endloop
 endfacet
 facet normal -0.8414709848078967 -0.5403023058681394 0.0
  outer loop
   vertex 27.929462994205956 62.99999999999999 0
   vertex 27.929462994205956 62.99999999999999 0.36000000000000004
   vertex 18.940808463741266 76.999 0
  endloop
 endfacet
 facet normal -0.8414709848078967 -0.5403023058681394 0.0
  outer loop
   vertex 18.940808463741266 76.999 0
   vertex 27.929462994205956 62.99999999999999 0.36000000000000004
   vertex 18.940808463741266 76.999 0.36000000000000004
  endloop
 endfacet
 facet normal 0.0 -1.0 0.0
  outer loop
   vertex 18.940808463741266 76.999 0
   vertex 18.940808463741266 76.999 0.36000000000000004
   vertex 2.9874641894740352 76.999 0
  endloop
 endfacet
 facet normal 0.0 -1.0 0.0
  outer loop
   vertex 2.9874641894740352 76.999 0
   vertex 18.940808463741266 76.999 0.36000000000000004
   vertex 2.9874641894740352 76.999 0.36000000000000004
  endloop
 endfacet
 facet normal 0.9999996829318346 0.0007963267107332661 -0.0
  outer loop
   vertex 2.9874641894740352 76.999 0
   vertex 2.9874641894740352 76.999 0.36000000000000004
   vertex 2.9986119706321968 63.0 0
  endloop
 endfacet
 facet normal 0.9999996829318346 0.0007963267107332661 -0.0
  outer loop
   vertex 2.9986119706321968 63.0 0
   vertex 2.9874641894740352 76.999 0.36000000000000004
   vertex 2.9986119706321968 63.0 0.36000000000000004
  endloop
 endfacet
 facet normal 2.850054075924786e-16 1.0 -0.0
  outer loop
   vertex 2.9986119706321968 63.0 0
   vertex 2.9986119706321968 63.0 0.36000000000000004
   vertex 27.929462994205956 62.99999999999999 0
  endloop
 endfacet
 facet normal 2.850054075924786e-16 1.0 -0.0
  outer loop
   vertex 27.929462994205956 62.99999999999999 0
   vertex 2.9986119706321968 63.0 0.36000000000000004
   vertex 27.929462994205956 62.99999999999999 0.36000000000000004
  endloop
 endfacet
 facet normal 0.8414709848078967 -0.5403023058681393 0.0
  outer loop
   vertex 35.059833628874685 57.000000000000014 0
   vertex 35.059833628874685 57.000000000000014 0.36000000000000004
   vertex 26.07053700579406 43.00000000000001 0
  endloop
 endfacet
 facet normal 0.8414709848078967 -0.5403023058681393 0.0
  outer loop
   vertex 26.07053700579406 43.00000000000001 0
   vertex 35.059833628874685 57.000000000000014 0.36000000000000004
   vertex 26.07053700579406 43.00000000000001 0.36000000000000004
  endloop
 endfacet
 facet normal 0.0 1.0 0.0
  outer loop
   vertex 26.07053700579406 43.00000000000001 0
   vertex 26.07053700579406 43.00000000000001 0.36000000000000004
   vertex 51.940166371125315 43.00000000000001 0
  endloop
 endfacet
 facet normal 0.0 1.0 -0.0
  outer loop
   vertex 51.940166371125315 43.00000000000001 0
   vertex 26.07053700579406 43.00000000000001 0.36000000000000004
   vertex 51.940166371125315 43.00000000000001 0.36000000000000004
  endloop
 endfacet
 facet normal -0.8414709848078965 0.5403023058681397 0.0
  outer loop
   vertex 51.940166371125315 43.00000000000001 0
   vertex 51.940166371125315 43.00000000000001 0.36000000000000004
   vertex 60.92946299420595 57.000000000000014 0
  endloop
 endfacet
 facet normal -0.8414709848078965 0.5403023058681397 0.0
  outer loop
   vertex 60.92946299420595 57.000000000000014 0
   vertex 51.940166371125315 43.00000000000001 0.36000000000000004
   vertex 60.92946299420595 57.000000000000014 0.36000000000000004
  endloop
 endfacet
 facet normal 0.0 -1.0 0.0
  outer loop
   vertex 60.92946299420595 57.000000000000014 0
   vertex 60.92946299420595 57.000000000000014 0.36000000000000004
   vertex 35.059833628874685 57.000000000000014 0
  endloop
 endfacet
 facet normal 0.0 -1.0 0.0
  outer loop
   vertex 35.059833628874685 57.000000000000014 0
   vertex 60.92946299420595 57.000000000000014 0.36000000000000004
   vertex 35.059833628874685 57.000000000000014 0.36000000000000004
  endloop
 endfacet
 facet normal -0.8414709848078965 -0.5403023058681399 0.0
  outer loop
   vertex 60.92946299420596 63.00000000000001 0
   vertex 60.92946299420596 63.00000000000001 0.36000000000000004
   vertex 51.94080846374126 76.99900000000001 0
  endloop
 endfacet
 facet normal -0.8414709848078965 -0.5403023058681399 0.0
  outer loop
   vertex 51.94080846374126 76.99900000000001 0
   vertex 60.92946299420596 63.00000000000001 0.36000000000000004
   vertex 51.94080846374126 76.99900000000001 0.36000000000000004
  endloop
 endfacet
 facet normal 0.0 -1.0 0.0
  outer loop
   vertex 51.94080846374126 76.99900000000001 0
   vertex 51.94080846374126 76.99900000000001 0.36000000000000004
   vertex 26.07117909840998 76.99900000000001 0
  endloop
 endfacet
 facet normal 0.0 -1.0 0.0
  outer loop
   vertex 26.07117909840998 76.99900000000001 0
   vertex 51.94080846374126 76.99900000000001 0.36000000000000004
   vertex 26.07117909840998 76.99900000000001 0.36000000000000004
  endloop
 endfacet
 facet normal 0.8414709848078965 0.5403023058681397 -0.0
  outer loop
   vertex 26.07117909840998 76.99900000000001 0
   vertex 26.07117909840998 76.99900000000001 0.36000000000000004
   vertex 35.05983362887468 63.00000000000001 0
  endloop
 endfacet
 facet normal 0.8414709848078965 0.5403023058681397 -0.0
  outer loop
   vertex 35.05983362887468 63.00000000000001 0
   vertex 26.07117909840998 76.99900000000001 0.36000000000000004
   vertex 35.05983362887468 63.00000000000001 0.36000000000000004
  endloop
 endfacet
 facet normal 0.0 1.0 0.0
  outer loop
   vertex 35.05983362887468 63.00000000000001 0
   vertex 35.05983362887468 63.00000000000001 0.36000000000000004
   vertex 60.92946299420596 63.00000000000001 0
  endloop
 endfacet
 facet normal 0.0 1.0 -0.0
  outer loop
   vertex 60.92946299420596 63.00000000000001 0
   vertex 35.05983362887468 63.00000000000001 0.36000000000000004
   vertex 60.92946299420596 63.00000000000001 0.36000000000000004
  endloop
 endfacet
 facet normal 0.8414709848078966 -0.5403023058681395 0.0
  outer loop
   vertex 68.05983362887467 57.0 0
   vertex 68.05983362887467 57.0 0.36000000000000004
   vertex 59.07053700579404 42.999999999999986 0
  endloop
 endfacet
 facet normal 0.8414709848078966 -0.5403023058681395 0.0
  outer loop
   vertex 59.07053700579404 42.999999999999986 0
   vertex 68.05983362887467 57.0 0.36000000000000004
   vertex 59.07053700579404 42.999999999999986 0.36000000000000004
  endloop
 endfacet
 facet normal -2.746628974562435e-16 1.0 0.0
  outer loop
   vertex 59.07053700579404 42.999999999999986 0
   vertex 59.07053700579404 42.999999999999986 0.36000000000000004
   vertex 84.94016637112529 42.99999999999999 0
  endloop
 endfacet
 facet normal -2.746628974562435e-16 1.0 0.0
  outer loop
   vertex 84.94016637112529 42.99999999999999 0
   vertex 59.07053700579404 42.999999999999986 0.36000000000000004
   vertex 84.94016637112529 42.99999999999999 0.36000000000000004
  endloop
 endfacet
 facet normal -0.8414709848078965 0.5403023058681397 0.0
  outer loop
   vertex 84.94016637112529 42.99999999999999 0
   vertex 84.94016637112529 42.99999999999999 0.36000000000000004
   vertex 93.92946299420592 57.0 0
  endloop
 endfacet
 facet normal -0.8414709848078965 0.5403023058681397 0.0
  outer loop
   vertex 93.92946299420592 57.0 0
   vertex 84.94016637112529 42.99999999999999 0.36000000000000004
   vertex 93.92946299420592 57.0 0.36000000000000004
  endloop
 endfacet
 facet normal 0.0 -1.0 0.0
  outer loop
   vertex 93.92946299420592 57.0 0
   vertex 93.92946299420592 57.0 0.36000000000000004
   vertex 68.05983362887467 57.0 0
  endloop
 endfacet
 facet normal 0.0 -1.0 0.0
  outer loop
   vertex 68.05983362887467 57.0 0
   vertex 93.92946299420592 57.0 0.36000000000000004
   vertex 68.05983362887467 57.0 0.36000000000000004
  endloop
 endfacet
 facet normal -0.8414709848078966 -0.5403023058681397 0.0
  outer loop
   vertex 93.92946299420596 62.99999999999999 0
   vertex 93.92946299420596 62.99999999999999 0.36000000000000004
   vertex 84.94080846374128 76.99899999999998 0
  endloop
 endfacet
 facet normal -0.8414709848078966 -0.5403023058681397 0.0
  outer loop
   vertex 84.94080846374128 76.99899999999998 0
   vertex 93.92946299420596 62.99999999999999 0.36000000000000004
   vertex 84.94080846374128 76.99899999999998 0.36000000000000004
  endloop
 endfacet
 facet normal 0.0 -1.0 0.0
  outer loop
   vertex 84.94080846374128 76.99899999999998 0
   vertex 84.94080846374128 76.99899999999998 0.36000000000000004
   vertex 59.071179098410006 76.99899999999998 0
  endloop
 endfacet
 facet normal 0.0 -1.0 0.0
  outer loop
   vertex 59.071179098410006 76.99899999999998 0
   vertex 84.94080846374128 76.99899999999998 0.36000000000000004
   vertex 59.071179098410006 76.99899999999998 0.36000000000000004
  endloop
 endfacet
 facet normal 0.8414709848078968 0.5403023058681393 -0.0
  outer loop
   vertex 59.071179098410006 76.99899999999998 0
   vertex 59.071179098410006 76.99899999999998 0.36000000000000004
   vertex 68.05983362887469 62.99999999999999 0
  endloop
 endfacet
 facet normal 0.8414709848078968 0.5403023058681393 -0.0
  outer loop
   vertex 68.05983362887469 62.99999999999999 0
   vertex 59.071179098410006 76.99899999999998 0.36000000000000004
   vertex 68.05983362887469 62.99999999999999 0.36000000000000004
  endloop
 endfacet
 facet normal 0.0 1.0 0.0
  outer loop
   vertex 68.05983362887469 62.99999999999999 0
   vertex 68.05983362887469 62.99999999999999 0.36000000000000004
   vertex 93.92946299420596 62.99999999999999 0
  endloop
 endfacet
 facet normal 0.0 1.0 -0.0
  outer loop
   vertex 93.92946299420596 62.99999999999999 0
   vertex 68.05983362887469 62.99999999999999 0.36000000000000004
   vertex 93.92946299420596 62.99999999999999 0.36000000000000004
  endloop
 endfacet
 facet normal 0.8414709848078963 -0.5403023058681401 0.0
  outer loop
   vertex 101.05983362887466 56.999999999999986 0
   vertex 101.05983362887466 56.999999999999986 0.36000000000000004
   vertex 92.07053700579402 42.99999999999999 0
  endloop
 endfacet
 facet normal 0.8414709848078963 -0.5403023058681401 0.0
  outer loop
   vertex 92.07053700579402 42.99999999999999 0
   vertex 101.05983362887466 56.999999999999986 0.36000000000000004
   vertex 92.07053700579402 42.99999999999999 0.36000000000000004
  endloop
 endfacet
 facet normal 0.0 1.0 0.0
  outer loop
   vertex 92.07053700579402 42.99999999999999 0
   vertex 92.07053700579402 42.99999999999999 0.36000000000000004
   vertex 116.98546149010333 42.99999999999999 0
  endloop
 endfacet
 facet normal 0.0 1.0 -0.0
  outer loop
   vertex 116.98546149010333 42.99999999999999 0
   vertex 92.07053700579402 42.99999999999999 0.36000000000000004
   vertex 116.98546149010333 42.99999999999999 0.36000000000000004
  endloop
 endfacet
 facet normal -0.9999996829318345 0.0007963267107336653 0.0
  outer loop
   vertex 116.98546149010333 42.99999999999999 0
   vertex 116.98546149010333 42.99999999999999 0.36000000000000004
   vertex 116.99661006758846 56.999999999999986 0
  endloop
 endfacet
 facet normal -0.9999996829318345 0.0007963267107336653 0.0
  outer loop
   vertex 116.99661006758846 56.999999999999986 0
   vertex 116.98546149010333 42.99999999999999 0.36000000000000004
   vertex 116.99661006758846 56.999999999999986 0.36000000000000004
  endloop
 endfacet
 facet normal 0.0 -1.0 0.0
  outer loop
   vertex 116.99661006758846 56.999999999999986 0
   vertex 116.99661006758846 56.999999999999986 0.36000000000000004
   vertex 101.05983362887466 56.999999999999986 0
  endloop
 endfacet
 facet normal 0.0 -1.0 0.0
  outer loop
   vertex 101.05983362887466 56.999999999999986 0
   vertex 116.99661006758846 56.999999999999986 0.36000000000000004
   vertex 101.05983362887466 56.999999999999986 0.36000000000000004
  endloop
 endfacet
 facet normal -0.9999996829318346 -0.0007963267107340271 0.0
  outer loop
   vertex 116.99661006758846 62.99999999999998 0
   vertex 116.99661006758846 62.99999999999998 0.36000000000000004
   vertex 116.98546228643029 76.99899999999998 0
  endloop
 endfacet
 facet normal -0.9999996829318346 -0.0007963267107340271 0.0
  outer loop
   vertex 116.98546228643029 76.99899999999998 0
   vertex 116.99661006758846 62.99999999999998 0.36000000000000004
   vertex 116.98546228643029 76.99899999999998 0.36000000000000004
  endloop
 endfacet
 facet normal 0.0 -1.0 0.0
  outer loop
   vertex 116.98546228643029 76.99899999999998 0
   vertex 116.98546228643029 76.99899999999998 0.36000000000000004
   vertex 92.07117909841001 76.99899999999998 0
  endloop
 endfacet
 facet normal 0.0 -1.0 0.0
  outer loop
   vertex 92.07117909841001 76.99899999999998 0
   vertex 116.98546228643029 76.99899999999998 0.36000000000000004
   vertex 92.07117909841001 76.99899999999998 0.36000000000000004
  endloop
 endfacet
 facet normal 0.8414709848078966 0.5403023058681394 -0.0
  outer loop
   vertex 92.07117909841001 76.99899999999998 0
   vertex 92.07117909841001 76.99899999999998 0.36000000000000004
   vertex 101.0598336288747 62.999999999999986 0
  endloop
 endfacet
 facet normal 0.8414709848078966 0.5403023058681394 -0.0
  outer loop
   vertex 101.0598336288747 62.999999999999986 0
   vertex 92.07117909841001 76.99899999999998 0.36000000000000004
   vertex 101.0598336288747 62.999999999999986 0.36000000000000004
  endloop
 endfacet
 facet normal 4.458509777636356e-16 1.0 -0.0
  outer loop
   vertex 101.0598336288747 62.999999999999986 0
   vertex 101.0598336288747 62.999999999999986 0.36000000000000004
   vertex 116.99661006758846 62.99999999999998 0
  endloop
 endfacet
 facet normal 4.458509777636356e-16 1.0 -0.0
  outer loop
   vertex 116.99661006758846 62.99999999999998 0
   vertex 101.0598336288747 62.999999999999986 0.36000000000000004
   vertex 116.99661006758846 62.99999999999998 0.36000000000000004
  endloop
 endfacet
endsolid
