solid PyGamic generated __All_Crease__ SLA File
 facet normal 0.0 0.0 -1.0
  outer loop
   vertex 9.992033559685108 0.0 0
   vertex -0.01592653926446385 0.0 0
   vertex 2.7072411291452183 2.721 0
  endloop
 endfacet
 facet normal 0.0 0.0 -1.0
  outer loop
   vertex -0.01592653926446385 0.0 0
   vertex 0.0 20.0 0
   vertex 2.718834853402785 17.28 0
  endloop
 endfacet
 facet normal 0.0 0.0 -1.0
  outer loop
   vertex 0.0 20.0 0
   vertex -0.01592653926446385 40.0 0
   vertex 2.718834853402785 17.28 0
  endloop
 endfacet
 facet normal 0.0 0.0 -1.0
  outer loop
   vertex -0.01592653926446385 40.0 0
   vertex 9.992033559685108 40.0 0
   vertex 8.867007823685604 37.278999999999996 0
  endloop
 endfacet
 facet normal 0.0 0.0 -1.0
  outer loop
   vertex 9.992033559685108 40.0 0
   vertex 39.98407346073554 40.0 0
   vertex 37.26523940365971 37.278999999999996 0
  endloop
 endfacet
 facet normal 0.0 -0.0 -1.0
  outer loop
   vertex 39.98407346073554 40.0 0
   vertex 40.0 20.0 0
   vertex 37.27683312791728 22.72 0
  endloop
 endfacet
 facet normal 0.0 0.0 -1.0
  outer loop
   vertex 40.0 20.0 0
   vertex 39.98407346073554 0.0 0
   vertex 37.26523940365972 2.721 0
  endloop
 endfacet
 facet normal 0.0 0.0 -1.0
  outer loop
   vertex 39.98407346073554 0.0 0
   vertex 9.992033559685108 0.0 0
   vertex 2.7072411291452183 2.721 0
  endloop
 endfacet
 facet normal 0.0 0.0 -1.0
  outer loop
   vertex 2.718834853402785 17.28 0
   vertex 2.7072411291452183 2.721 0
   vertex -0.01592653926446385 0.0 0
  endloop
 endfacet
 facet normal 0.0 0.0 -1.0
  outer loop
   vertex 2.718834853402785 17.28 0
   vertex -0.01592653926446385 40.0 0
   vertex 2.7072411291452183 37.278999999999996 0
  endloop
 endfacet
 facet normal 0.0 0.0 -1.0
  outer loop
   vertex 2.718834853402785 17.28 0
   vertex 40.0 20.0 0
   vertex 23.437606164140053 17.28 0
  endloop
 endfacet
 facet normal 0.0 0.0 -1.0
  outer loop
   vertex 2.718834853402785 17.28 0
   vertex 37.27683312791728 22.72 0
   vertex 40.0 20.0 0
  endloop
 endfacet
 facet normal 0.0 0.0 -1.0
  outer loop
   vertex 2.718834853402785 17.28 0
   vertex 2.718834853402785 22.72 0
   vertex 23.437606164140053 22.72 0
  endloop
 endfacet
 facet normal 0.0 0.0 -1.0
  outer loop
   vertex 2.718834853402785 17.28 0
   vertex 2.7072411291452183 37.278999999999996 0
   vertex 2.718834853402785 22.72 0
  endloop
 endfacet
 facet normal 0.0 0.0 -1.0
  outer loop
   vertex 2.718834853402785 17.28 0
   vertex 31.133992972958428 22.72 0
   vertex 37.27683312791728 22.72 0
  endloop
 endfacet
 facet normal 0.0 0.0 -1.0
  outer loop
   vertex 2.718834853402785 17.28 0
   vertex 23.437606164140053 22.72 0
   vertex 31.133992972958428 22.72 0
  endloop
 endfacet
 facet normal 0.0 0.0 -1.0
  outer loop
   vertex 2.7072411291452183 2.721 0
   vertex 8.8670078236856 2.721 0
   vertex 39.98407346073554 0.0 0
  endloop
 endfacet
 facet normal 0.0 0.0 -1.0
  outer loop
   vertex 8.8670078236856 2.721 0
   vertex 16.56339463250398 2.721 0
   vertex 39.98407346073554 0.0 0
  endloop
 endfacet
 facet normal 0.0 0.0 -1.0
  outer loop
   vertex 8.8670078236856 2.721 0
   vertex 23.437606164140053 17.28 0
   vertex 31.13399297295843 17.28 0
  endloop
 endfacet
 facet normal 0.0 0.0 -1.0
  outer loop
   vertex 8.8670078236856 2.721 0
   vertex 31.13399297295843 17.28 0
   vertex 16.56339463250398 2.721 0
  endloop
 endfacet
 facet normal 0.0 0.0 -1.0
  outer loop
   vertex 23.437606164140053 17.28 0
   vertex 40.0 20.0 0
   vertex 31.13399297295843 17.28 0
  endloop
 endfacet
 facet normal 0.0 0.0 -1.0
  outer loop
   vertex 23.437606164140053 22.72 0
   vertex 8.867007823685604 37.278999999999996 0
   vertex 9.992033559685108 40.0 0
  endloop
 endfacet
 facet normal 0.0 0.0 -1.0
  outer loop
   vertex 23.437606164140053 22.72 0
   vertex 9.992033559685108 40.0 0
   vertex 16.56339463250398 37.278999999999996 0
  endloop
 endfacet
 facet normal 0.0 0.0 -1.0
  outer loop
   vertex 23.437606164140053 22.72 0
   vertex 16.56339463250398 37.278999999999996 0
   vertex 31.133992972958428 22.72 0
  endloop
 endfacet
 facet normal 0.0 0.0 -1.0
  outer loop
   vertex 8.867007823685604 37.278999999999996 0
   vertex 2.7072411291452183 37.278999999999996 0
   vertex -0.01592653926446385 40.0 0
  endloop
 endfacet
 facet normal 0.0 0.0 -1.0
  outer loop
   vertex 31.13399297295843 17.28 0
   vertex 40.0 20.0 0
   vertex 37.276833127917286 17.28 0
  endloop
 endfacet
 facet normal 0.0 0.0 -1.0
  outer loop
   vertex 16.56339463250398 2.721 0
   vertex 37.26523940365972 2.721 0
   vertex 39.98407346073554 0.0 0
  endloop
 endfacet
 facet normal 0.0 0.0 -1.0
  outer loop
   vertex 37.26523940365972 2.721 0
   vertex 37.276833127917286 17.28 0
   vertex 40.0 20.0 0
  endloop
 endfacet
 facet normal 0.0 0.0 -1.0
  outer loop
   vertex 37.27683312791728 22.72 0
   vertex 37.26523940365971 37.278999999999996 0
   vertex 39.98407346073554 40.0 0
  endloop
 endfacet
 facet normal 0.0 0.0 -1.0
  outer loop
   vertex 37.26523940365971 37.278999999999996 0
   vertex 16.56339463250398 37.278999999999996 0
   vertex 9.992033559685108 40.0 0
  endloop
 endfacet
 facet normal 0.0 -1.0 0.0
  outer loop
   vertex -0.01592653926446385 0.0 0
   vertex 9.992033559685108 0.0 0
   vertex 9.992033559685108 0.0 0.36
  endloop
 endfacet
 facet normal 0.0 -1.0 0.0
  outer loop
   vertex -0.01592653926446385 0.0 0.36
   vertex -0.01592653926446385 0.0 0
   vertex 9.992033559685108 0.0 0.36
  endloop
 endfacet
 facet normal -0.9999996829318346 0.0007963267107332632 0.0
  outer loop
   vertex 0.0 20.0 0
   vertex -0.01592653926446385 0.0 0
   vertex -0.01592653926446385 0.0 0.36
  endloop
 endfacet
 facet normal -0.9999996829318346 0.0007963267107332632 0.0
  outer loop
   vertex 0.0 20.0 0.36
   vertex 0.0 20.0 0
   vertex -0.01592653926446385 0.0 0.36
  endloop
 endfacet
 facet normal -0.9999996829318346 -0.0007963267107332632 0.0
  outer loop
   vertex -0.01592653926446385 40.0 0
   vertex 0.0 20.0 0
   vertex 0.0 20.0 0.36
  endloop
 endfacet
 facet normal -0.9999996829318346 -0.0007963267107332632 -0.0
  outer loop
   vertex -0.01592653926446385 40.0 0.36
   vertex -0.01592653926446385 40.0 0
   vertex 0.0 20.0 0.36
  endloop
 endfacet
 facet normal 0.0 1.0 0.0
  outer loop
   vertex 9.992033559685108 40.0 0
   vertex -0.01592653926446385 40.0 0
   vertex -0.01592653926446385 40.0 0.36
  endloop
 endfacet
 facet normal 0.0 1.0 0.0
  outer loop
   vertex 9.992033559685108 40.0 0.36
   vertex 9.992033559685108 40.0 0
   vertex -0.01592653926446385 40.0 0.36
  endloop
 endfacet
 facet normal 0.0 1.0 0.0
  outer loop
   vertex 39.98407346073554 40.0 0
   vertex 9.992033559685108 40.0 0
   vertex 9.992033559685108 40.0 0.36
  endloop
 endfacet
 facet normal 0.0 1.0 0.0
  outer loop
   vertex 39.98407346073554 40.0 0.36
   vertex 39.98407346073554 40.0 0
   vertex 9.992033559685108 40.0 0.36
  endloop
 endfacet
 facet normal 0.9999996829318346 0.0007963267107332082 0.0
  outer loop
   vertex 40.0 20.0 0
   vertex 39.98407346073554 40.0 0
   vertex 39.98407346073554 40.0 0.36
  endloop
 endfacet
 facet normal 0.9999996829318346 0.0007963267107332082 0.0
  outer loop
   vertex 40.0 20.0 0.36
   vertex 40.0 20.0 0
   vertex 39.98407346073554 40.0 0.36
  endloop
 endfacet
 facet normal 0.9999996829318346 -0.0007963267107332082 0.0
  outer loop
   vertex 39.98407346073554 0.0 0
   vertex 40.0 20.0 0
   vertex 40.0 20.0 0.36
  endloop
 endfacet
 facet normal 0.9999996829318346 -0.0007963267107332082 0.0
  outer loop
   vertex 39.98407346073554 0.0 0.36
   vertex 39.98407346073554 0.0 0
   vertex 40.0 20.0 0.36
  endloop
 endfacet
 facet normal 0.0 -1.0 0.0
  outer loop
   vertex 9.992033559685108 0.0 0
   vertex 39.98407346073554 0.0 0
   vertex 39.98407346073554 0.0 0.36
  endloop
 endfacet
 facet normal 0.0 -1.0 0.0
  outer loop
   vertex 9.992033559685108 0.0 0.36
   vertex 9.992033559685108 0.0 0
   vertex 39.98407346073554 0.0 0.36
  endloop
 endfacet
 facet normal 0.0 0.0 1.0
  outer loop
   vertex 9.992033559685108 0.0 0.36
   vertex 2.7072411291452183 2.721 0.36
   vertex -0.01592653926446385 0.0 0.36
  endloop
 endfacet
 facet normal 0.0 0.0 1.0
  outer loop
   vertex -0.01592653926446385 0.0 0.36
   vertex 2.718834853402785 17.28 0.36
   vertex 0.0 20.0 0.36
  endloop
 endfacet
 facet normal -0.0 -0.0 1.0
  outer loop
   vertex 0.0 20.0 0.36
   vertex 2.718834853402785 17.28 0.36
   vertex -0.01592653926446385 40.0 0.36
  endloop
 endfacet
 facet normal -0.0 0.0 1.0
  outer loop
   vertex -0.01592653926446385 40.0 0.36
   vertex 8.867007823685604 37.278999999999996 0.36
   vertex 9.992033559685108 40.0 0.36
  endloop
 endfacet
 facet normal -0.0 0.0 1.0
  outer loop
   vertex 9.992033559685108 40.0 0.36
   vertex 37.26523940365971 37.278999999999996 0.36
   vertex 39.98407346073554 40.0 0.36
  endloop
 endfacet
 facet normal 0.0 0.0 1.0
  outer loop
   vertex 39.98407346073554 40.0 0.36
   vertex 37.27683312791728 22.72 0.36
   vertex 40.0 20.0 0.36
  endloop
 endfacet
 facet normal 0.0 0.0 1.0
  outer loop
   vertex 40.0 20.0 0.36
   vertex 37.26523940365972 2.721 0.36
   vertex 39.98407346073554 0.0 0.36
  endloop
 endfacet
 facet normal 0.0 0.0 1.0
  outer loop
   vertex 39.98407346073554 0.0 0.36
   vertex 2.7072411291452183 2.721 0.36
   vertex 9.992033559685108 0.0 0.36
  endloop
 endfacet
 facet normal 0.0 0.0 1.0
  outer loop
   vertex 2.718834853402785 17.28 0.36
   vertex -0.01592653926446385 0.0 0.36
   vertex 2.7072411291452183 2.721 0.36
  endloop
 endfacet
 facet normal 0.0 0.0 1.0
  outer loop
   vertex 2.718834853402785 17.28 0.36
   vertex 2.7072411291452183 37.278999999999996 0.36
   vertex -0.01592653926446385 40.0 0.36
  endloop
 endfacet
 facet normal 0.0 0.0 1.0
  outer loop
   vertex 2.718834853402785 17.28 0.36
   vertex 23.437606164140053 17.28 0.36
   vertex 40.0 20.0 0.36
  endloop
 endfacet
 facet normal 0.0 0.0 1.0
  outer loop
   vertex 2.718834853402785 17.28 0.36
   vertex 40.0 20.0 0.36
   vertex 37.27683312791728 22.72 0.36
  endloop
 endfacet
 facet normal 0.0 0.0 1.0
  outer loop
   vertex 2.718834853402785 17.28 0.36
   vertex 23.437606164140053 22.72 0.36
   vertex 2.718834853402785 22.72 0.36
  endloop
 endfacet
 facet normal 0.0 -0.0 1.0
  outer loop
   vertex 2.718834853402785 17.28 0.36
   vertex 2.718834853402785 22.72 0.36
   vertex 2.7072411291452183 37.278999999999996 0.36
  endloop
 endfacet
 facet normal 0.0 0.0 1.0
  outer loop
   vertex 2.718834853402785 17.28 0.36
   vertex 37.27683312791728 22.72 0.36
   vertex 31.133992972958428 22.72 0.36
  endloop
 endfacet
 facet normal 0.0 0.0 1.0
  outer loop
   vertex 2.718834853402785 17.28 0.36
   vertex 31.133992972958428 22.72 0.36
   vertex 23.437606164140053 22.72 0.36
  endloop
 endfacet
 facet normal -0.0 0.0 1.0
  outer loop
   vertex 2.7072411291452183 2.721 0.36
   vertex 39.98407346073554 0.0 0.36
   vertex 8.8670078236856 2.721 0.36
  endloop
 endfacet
 facet normal -0.0 0.0 1.0
  outer loop
   vertex 8.8670078236856 2.721 0.36
   vertex 39.98407346073554 0.0 0.36
   vertex 16.56339463250398 2.721 0.36
  endloop
 endfacet
 facet normal 0.0 0.0 1.0
  outer loop
   vertex 8.8670078236856 2.721 0.36
   vertex 31.13399297295843 17.28 0.36
   vertex 23.437606164140053 17.28 0.36
  endloop
 endfacet
 facet normal 0.0 0.0 1.0
  outer loop
   vertex 8.8670078236856 2.721 0.36
   vertex 16.56339463250398 2.721 0.36
   vertex 31.13399297295843 17.28 0.36
  endloop
 endfacet
 facet normal 0.0 0.0 1.0
  outer loop
   vertex 23.437606164140053 17.28 0.36
   vertex 31.13399297295843 17.28 0.36
   vertex 40.0 20.0 0.36
  endloop
 endfacet
 facet normal 0.0 0.0 1.0
  outer loop
   vertex 23.437606164140053 22.72 0.36
   vertex 9.992033559685108 40.0 0.36
   vertex 8.867007823685604 37.278999999999996 0.36
  endloop
 endfacet
 facet normal 0.0 0.0 1.0
  outer loop
   vertex 23.437606164140053 22.72 0.36
   vertex 16.56339463250398 37.278999999999996 0.36
   vertex 9.992033559685108 40.0 0.36
  endloop
 endfacet
 facet normal 0.0 -0.0 1.0
  outer loop
   vertex 23.437606164140053 22.72 0.36
   vertex 31.133992972958428 22.72 0.36
   vertex 16.56339463250398 37.278999999999996 0.36
  endloop
 endfacet
 facet normal 0.0 0.0 1.0
  outer loop
   vertex 8.867007823685604 37.278999999999996 0.36
   vertex -0.01592653926446385 40.0 0.36
   vertex 2.7072411291452183 37.278999999999996 0.36
  endloop
 endfacet
 facet normal 0.0 0.0 1.0
  outer loop
   vertex 31.13399297295843 17.28 0.36
   vertex 37.276833127917286 17.28 0.36
   vertex 40.0 20.0 0.36
  endloop
 endfacet
 facet normal -0.0 0.0 1.0
  outer loop
   vertex 16.56339463250398 2.721 0.36
   vertex 39.98407346073554 0.0 0.36
   vertex 37.26523940365972 2.721 0.36
  endloop
 endfacet
 facet normal 0.0 0.0 1.0
  outer loop
   vertex 37.26523940365972 2.721 0.36
   vertex 40.0 20.0 0.36
   vertex 37.276833127917286 17.28 0.36
  endloop
 endfacet
 facet normal 0.0 -0.0 1.0
  outer loop
   vertex 37.27683312791728 22.72 0.36
   vertex 39.98407346073554 40.0 0.36
   vertex 37.26523940365971 37.278999999999996 0.36
  endloop
 endfacet
 facet normal 0.0 0.0 1.0
  outer loop
   vertex 37.26523940365971 37.278999999999996 0.36
   vertex 9.992033559685108 40.0 0.36
   vertex 16.56339463250398 37.278999999999996 0.36
  endloop
 endfacet
 facet normal 0.9999996829318346 -0.0007963267107332846 0.0
  outer loop
   vertex 2.718834853402785 17.28 0
   vertex 2.718834853402785 17.28 0.36
   vertex 2.7072411291452183 2.721 0
  endloop
 endfacet
 facet normal 0.9999996829318346 -0.0007963267107332846 0.0
  outer loop
   vertex 2.7072411291452183 2.721 0
   vertex 2.718834853402785 17.28 0.36
   vertex 2.7072411291452183 2.721 0.36
  endloop
 endfacet
 facet normal 0.0 1.0 0.0
  outer loop
   vertex 2.7072411291452183 2.721 0
   vertex 2.7072411291452183 2.721 0.36
   vertex 8.8670078236856 2.721 0
  endloop
 endfacet
 facet normal 0.0 1.0 -0.0
  outer loop
   vertex 8.8670078236856 2.721 0
   vertex 2.7072411291452183 2.721 0.36
   vertex 8.8670078236856 2.721 0.36
  endloop
 endfacet
 facet normal -0.706825181105366 0.7073882691671998 0.0
  outer loop
   vertex 8.8670078236856 2.721 0
   vertex 8.8670078236856 2.721 0.36
   vertex 23.437606164140053 17.28 0
  endloop
 endfacet
 facet normal -0.706825181105366 0.7073882691671998 0.0
  outer loop
   vertex 23.437606164140053 17.28 0
   vertex 8.8670078236856 2.721 0.36
   vertex 23.437606164140053 17.28 0.36
  endloop
 endfacet
 facet normal 0.0 -1.0 0.0
  outer loop
   vertex 23.437606164140053 17.28 0
   vertex 23.437606164140053 17.28 0.36
   vertex 2.718834853402785 17.28 0
  endloop
 endfacet
 facet normal 0.0 -1.0 0.0
  outer loop
   vertex 2.718834853402785 17.28 0
   vertex 23.437606164140053 17.28 0.36
   vertex 2.718834853402785 17.28 0.36
  endloop
 endfacet
 facet normal -0.7068251811053659 -0.7073882691671998 0.0
  outer loop
   vertex 23.437606164140053 22.72 0
   vertex 23.437606164140053 22.72 0.36
   vertex 8.867007823685604 37.278999999999996 0
  endloop
 endfacet
 facet normal -0.7068251811053659 -0.7073882691671998 0.0
  outer loop
   vertex 8.867007823685604 37.278999999999996 0
   vertex 23.437606164140053 22.72 0.36
   vertex 8.867007823685604 37.278999999999996 0.36
  endloop
 endfacet
 facet normal 0.0 -1.0 0.0
  outer loop
   vertex 8.867007823685604 37.278999999999996 0
   vertex 8.867007823685604 37.278999999999996 0.36
   vertex 2.7072411291452183 37.278999999999996 0
  endloop
 endfacet
 facet normal 0.0 -1.0 0.0
  outer loop
   vertex 2.7072411291452183 37.278999999999996 0
   vertex 8.867007823685604 37.278999999999996 0.36
   vertex 2.7072411291452183 37.278999999999996 0.36
  endloop
 endfacet
 facet normal 0.9999996829318346 0.0007963267107332849 -0.0
  outer loop
   vertex 2.7072411291452183 37.278999999999996 0
   vertex 2.7072411291452183 37.278999999999996 0.36
   vertex 2.718834853402785 22.72 0
  endloop
 endfacet
 facet normal 0.9999996829318346 0.0007963267107332849 -0.0
  outer loop
   vertex 2.718834853402785 22.72 0
   vertex 2.7072411291452183 37.278999999999996 0.36
   vertex 2.718834853402785 22.72 0.36
  endloop
 endfacet
 facet normal 0.0 1.0 0.0
  outer loop
   vertex 2.718834853402785 22.72 0
   vertex 2.718834853402785 22.72 0.36
   vertex 23.437606164140053 22.72 0
  endloop
 endfacet
 facet normal 0.0 1.0 -0.0
  outer loop
   vertex 23.437606164140053 22.72 0
   vertex 2.718834853402785 22.72 0.36
   vertex 23.437606164140053 22.72 0.36
  endloop
 endfacet
 facet normal 0.706825181105366 -0.7073882691671998 0.0
  outer loop
   vertex 31.13399297295843 17.28 0
   vertex 31.13399297295843 17.28 0.36
   vertex 16.56339463250398 2.721 0
  endloop
 endfacet
 facet normal 0.706825181105366 -0.7073882691671998 0.0
  outer loop
   vertex 16.56339463250398 2.721 0
   vertex 31.13399297295843 17.28 0.36
   vertex 16.56339463250398 2.721 0.36
  endloop
 endfacet
 facet normal 0.0 1.0 0.0
  outer loop
   vertex 16.56339463250398 2.721 0
   vertex 16.56339463250398 2.721 0.36
   vertex 37.26523940365972 2.721 0
  endloop
 endfacet
 facet normal 0.0 1.0 -0.0
  outer loop
   vertex 37.26523940365972 2.721 0
   vertex 16.56339463250398 2.721 0.36
   vertex 37.26523940365972 2.721 0.36
  endloop
 endfacet
 facet normal -0.9999996829318346 0.0007963267107331931 0.0
  outer loop
   vertex 37.26523940365972 2.721 0
   vertex 37.26523940365972 2.721 0.36
   vertex 37.276833127917286 17.28 0
  endloop
 endfacet
 facet normal -0.9999996829318346 0.0007963267107331931 0.0
  outer loop
   vertex 37.276833127917286 17.28 0
   vertex 37.26523940365972 2.721 0.36
   vertex 37.276833127917286 17.28 0.36
  endloop
 endfacet
 facet normal 0.0 -1.0 0.0
  outer loop
   vertex 37.276833127917286 17.28 0
   vertex 37.276833127917286 17.28 0.36
   vertex 31.13399297295843 17.28 0
  endloop
 endfacet
 facet normal 0.0 -1.0 0.0
  outer loop
   vertex 31.13399297295843 17.28 0
   vertex 37.276833127917286 17.28 0.36
   vertex 31.13399297295843 17.28 0.36
  endloop
 endfacet
 facet normal -0.9999996829318346 -0.0007963267107331934 0.0
  outer loop
   vertex 37.27683312791728 22.72 0
   vertex 37.27683312791728 22.72 0.36
   vertex 37.26523940365971 37.278999999999996 0
  endloop
 endfacet
 facet normal -0.9999996829318346 -0.0007963267107331934 0.0
  outer loop
   vertex 37.26523940365971 37.278999999999996 0
   vertex 37.27683312791728 22.72 0.36
   vertex 37.26523940365971 37.278999999999996 0.36
  endloop
 endfacet
 facet normal 0.0 -1.0 0.0
  outer loop
   vertex 37.26523940365971 37.278999999999996 0
   vertex 37.26523940365971 37.278999999999996 0.36
   vertex 16.56339463250398 37.278999999999996 0
  endloop
 endfacet
 facet normal 0.0 -1.0 0.0
  outer loop
   vertex 16.56339463250398 37.278999999999996 0
   vertex 37.26523940365971 37.278999999999996 0.36
   vertex 16.56339463250398 37.278999999999996 0.36
  endloop
 endfacet
 facet normal 0.7068251811053659 0.7073882691671998 -0.0
  outer loop
   vertex 16.56339463250398 37.278999999999996 0
   vertex 16.56339463250398 37.278999999999996 0.36
   vertex 31.133992972958428 22.72 0
  endloop
 endfacet
 facet normal 0.7068251811053659 0.7073882691671998 -0.0
  outer loop
   vertex 31.133992972958428 22.72 0
   vertex 16.56339463250398 37.278999999999996 0.36
   vertex 31.133992972958428 22.72 0.36
  endloop
 endfacet
 facet normal 0.0 1.0 0.0
  outer loop
   vertex 31.133992972958428 22.72 0
   vertex 31.133992972958428 22.72 0.36
   vertex 37.27683312791728 22.72 0
  endloop
 endfacet
 facet normal 0.0 1.0 -0.0
  outer loop
   vertex 37.27683312791728 22.72 0
   vertex 31.133992972958428 22.72 0.36
   vertex 37.27683312791728 22.72 0.36
  endloop
 endfacet
endsolid
