solid PyGamic generated __All_Units__ SLA File
 facet normal 0.0 0.0 -1.0
  outer loop
   vertex 4.257667329018797 64.41327945566267 0
   vertex 29.12566667492636 64.41327945566276 0
   vertex 29.125666269222094 39.54528012828067 0
  endloop
 endfacet
 facet normal -0.0 0.0 1.0
  outer loop
   vertex 6.213180293012365 63.60327945566269 0.54
   vertex 28.315666301124942 41.500793103428656 0.54
   vertex 28.31566666171177 63.603279455662765 0.54
  endloop
 endfacet
 facet normal -3.428708803840458e-15 1.0 1.1164303761433478e-16
  outer loop
   vertex 29.12566667492636 64.41327945566276 0
   vertex 4.257667329018797 64.41327945566267 0
   vertex 0.14230589454986667 64.41327945566266 0.9000000000000002
  endloop
 endfacet
 facet normal -3.56459259670012e-15 1.0 -4.26432250978292e-15
  outer loop
   vertex 32.03566667492637 64.41327945566277 0.9000000000000002
   vertex 29.12566667492636 64.41327945566276 0
   vertex 0.14230589454986667 64.41327945566266 0.9000000000000002
  endloop
 endfacet
 facet normal 0.295469722922067 -4.820384851640515e-09 -0.9553521041146855
  outer loop
   vertex 29.125666269222094 39.54528012828067 0
   vertex 29.12566667492636 64.41327945566276 0
   vertex 32.03566667492637 64.41327945566277 0.9000000000000002
  endloop
 endfacet
 facet normal 0.2954697229220676 -4.820384918660736e-09 -0.9553521041146854
  outer loop
   vertex 32.035666154608165 32.5199186990453 0.9000000000000002
   vertex 29.125666269222094 39.54528012828067 0
   vertex 32.03566667492637 64.41327945566277 0.9000000000000002
  endloop
 endfacet
 facet normal -0.20892864633994596 -0.20892864308706174 -0.9553521041146855
  outer loop
   vertex 4.257667329018797 64.41327945566267 0
   vertex 29.125666269222094 39.54528012828067 0
   vertex 32.035666154608165 32.5199186990453 0.9000000000000002
  endloop
 endfacet
 facet normal -0.2089286463399465 -0.2089286430870622 -0.9553521041146854
  outer loop
   vertex 0.14230589454986667 64.41327945566266 0.9000000000000002
   vertex 4.257667329018797 64.41327945566267 0
   vertex 32.035666154608165 32.5199186990453 0.9000000000000002
  endloop
 endfacet
 facet normal 3.5362402052783275e-15 -1.0 9.501440239414764e-16
  outer loop
   vertex 28.31566666171177 63.603279455662765 0.54
   vertex 2.0978188585434348 63.60327945566267 0.9000000000000002
   vertex 6.213180293012365 63.60327945566269 0.54
  endloop
 endfacet
 facet normal 3.415150466269385e-15 -1.0 -7.868501386785855e-15
  outer loop
   vertex 31.22566666171177 63.60327945566277 0.9000000000000002
   vertex 2.0978188585434348 63.60327945566267 0.9000000000000002
   vertex 28.31566666171177 63.603279455662765 0.54
  endloop
 endfacet
 facet normal -0.12277539984319993 2.002996010244844e-09 0.9924344820658654
  outer loop
   vertex 28.315666301124942 41.500793103428656 0.54
   vertex 31.22566666171177 63.60327945566277 0.9000000000000002
   vertex 28.31566666171177 63.603279455662765 0.54
  endloop
 endfacet
 facet normal -0.1227753998431999 2.0029960119283532e-09 0.9924344820658653
  outer loop
   vertex 31.225666186511013 34.475431674193295 0.9000000000000002
   vertex 31.22566666171177 63.60327945566277 0.9000000000000002
   vertex 28.315666301124942 41.500793103428656 0.54
  endloop
 endfacet
 facet normal 0.08681531846784564 0.08681531711618713 0.9924344820658654
  outer loop
   vertex 6.213180293012365 63.60327945566269 0.54
   vertex 31.225666186511013 34.475431674193295 0.9000000000000002
   vertex 28.315666301124942 41.500793103428656 0.54
  endloop
 endfacet
 facet normal 0.08681531846784571 0.0868153171161872 0.9924344820658654
  outer loop
   vertex 2.0978188585434348 63.60327945566267 0.9000000000000002
   vertex 31.225666186511013 34.475431674193295 0.9000000000000002
   vertex 6.213180293012365 63.60327945566269 0.54
  endloop
 endfacet
 facet normal 0.0 0.0 1.0
  outer loop
   vertex 32.03566667492637 64.41327945566277 0.9000000000000002
   vertex 0.14230589454986667 64.41327945566266 0.9000000000000002
   vertex 2.0978188585434348 63.60327945566267 0.9000000000000002
  endloop
 endfacet
 facet normal 0.0 -0.0 1.0
  outer loop
   vertex 31.22566666171177 63.60327945566277 0.9000000000000002
   vertex 32.03566667492637 64.41327945566277 0.9000000000000002
   vertex 2.0978188585434348 63.60327945566267 0.9000000000000002
  endloop
 endfacet
 facet normal 0.0 -0.0 1.0
  outer loop
   vertex 32.035666154608165 32.5199186990453 0.9000000000000002
   vertex 32.03566667492637 64.41327945566277 0.9000000000000002
   vertex 31.22566666171177 63.60327945566277 0.9000000000000002
  endloop
 endfacet
 facet normal -0.0 0.0 1.0
  outer loop
   vertex 31.225666186511013 34.475431674193295 0.9000000000000002
   vertex 32.035666154608165 32.5199186990453 0.9000000000000002
   vertex 31.22566666171177 63.60327945566277 0.9000000000000002
  endloop
 endfacet
 facet normal 0.0 0.0 1.0
  outer loop
   vertex 0.14230589454986667 64.41327945566266 0.9000000000000002
   vertex 32.035666154608165 32.5199186990453 0.9000000000000002
   vertex 31.225666186511013 34.475431674193295 0.9000000000000002
  endloop
 endfacet
 facet normal 0.0 0.0 1.0
  outer loop
   vertex 2.0978188585434348 63.60327945566267 0.9000000000000002
   vertex 0.14230589454986667 64.41327945566266 0.9000000000000002
   vertex 31.225666186511013 34.475431674193295 0.9000000000000002
  endloop
 endfacet
 facet normal -3.56459259670012e-15 1.0 5.097024298345906e-16
  outer loop
   vertex 32.03566667492637 64.41327945566277 1.4400000000000004
   vertex 0.14230589454986667 64.41327945566266 1.4400000000000004
   vertex 4.257667329018797 64.41327945566267 2.3400000000000007
  endloop
 endfacet
 facet normal -3.4287088038404588e-15 1.0 4.703680106695826e-15
  outer loop
   vertex 29.12566667492636 64.41327945566276 2.3400000000000007
   vertex 32.03566667492637 64.41327945566277 1.4400000000000004
   vertex 4.257667329018797 64.41327945566267 2.3400000000000007
  endloop
 endfacet
 facet normal 0.2954697229220671 -4.820384918660728e-09 0.9553521041146854
  outer loop
   vertex 32.035666154608165 32.5199186990453 1.4400000000000004
   vertex 32.03566667492637 64.41327945566277 1.4400000000000004
   vertex 29.12566667492636 64.41327945566276 2.3400000000000007
  endloop
 endfacet
 facet normal 0.2954697229220677 -4.820384851640526e-09 0.9553521041146852
  outer loop
   vertex 29.125666269222094 39.54528012828067 2.3400000000000007
   vertex 32.035666154608165 32.5199186990453 1.4400000000000004
   vertex 29.12566667492636 64.41327945566276 2.3400000000000007
  endloop
 endfacet
 facet normal -0.20892864633994593 -0.2089286430870616 0.9553521041146856
  outer loop
   vertex 0.14230589454986667 64.41327945566266 1.4400000000000004
   vertex 32.035666154608165 32.5199186990453 1.4400000000000004
   vertex 29.125666269222094 39.54528012828067 2.3400000000000007
  endloop
 endfacet
 facet normal -0.2089286463399465 -0.20892864308706227 0.9553521041146853
  outer loop
   vertex 4.257667329018797 64.41327945566267 2.3400000000000007
   vertex 0.14230589454986667 64.41327945566266 1.4400000000000004
   vertex 29.125666269222094 39.54528012828067 2.3400000000000007
  endloop
 endfacet
 facet normal 3.415150466269385e-15 -1.0 4.3410053724554123e-16
  outer loop
   vertex 31.22566666171177 63.60327945566277 1.4400000000000004
   vertex 6.213180293012365 63.60327945566269 1.8000000000000007
   vertex 2.0978188585434348 63.60327945566267 1.4400000000000004
  endloop
 endfacet
 facet normal 3.5362402052783275e-15 -1.0 8.847310110441472e-15
  outer loop
   vertex 28.31566666171177 63.603279455662765 1.8000000000000007
   vertex 6.213180293012365 63.60327945566269 1.8000000000000007
   vertex 31.22566666171177 63.60327945566277 1.4400000000000004
  endloop
 endfacet
 facet normal -0.12277539984319993 2.0029960119283532e-09 -0.9924344820658653
  outer loop
   vertex 31.225666186511013 34.475431674193295 1.4400000000000004
   vertex 28.31566666171177 63.603279455662765 1.8000000000000007
   vertex 31.22566666171177 63.60327945566277 1.4400000000000004
  endloop
 endfacet
 facet normal -0.12277539984319998 2.0029960102448447e-09 -0.9924344820658654
  outer loop
   vertex 28.315666301124942 41.500793103428656 1.8000000000000007
   vertex 28.31566666171177 63.603279455662765 1.8000000000000007
   vertex 31.225666186511013 34.475431674193295 1.4400000000000004
  endloop
 endfacet
 facet normal 0.08681531846784571 0.0868153171161872 -0.9924344820658653
  outer loop
   vertex 2.0978188585434348 63.60327945566267 1.4400000000000004
   vertex 28.315666301124942 41.500793103428656 1.8000000000000007
   vertex 31.225666186511013 34.475431674193295 1.4400000000000004
  endloop
 endfacet
 facet normal 0.08681531846784572 0.08681531711618722 -0.9924344820658652
  outer loop
   vertex 6.213180293012365 63.60327945566269 1.8000000000000007
   vertex 28.315666301124942 41.500793103428656 1.8000000000000007
   vertex 2.0978188585434348 63.60327945566267 1.4400000000000004
  endloop
 endfacet
 facet normal -0.0 0.0 1.0
  outer loop
   vertex 4.257667329018797 64.41327945566267 2.3400000000000007
   vertex 29.125666269222094 39.54528012828067 2.3400000000000007
   vertex 29.12566667492636 64.41327945566276 2.3400000000000007
  endloop
 endfacet
 facet normal 0.0 0.0 -1.0
  outer loop
   vertex 6.213180293012365 63.60327945566269 1.8000000000000007
   vertex 28.31566666171177 63.603279455662765 1.8000000000000007
   vertex 28.315666301124942 41.500793103428656 1.8000000000000007
  endloop
 endfacet
 facet normal 0.0 0.0 -1.0
  outer loop
   vertex 32.03566667492637 64.41327945566277 1.4400000000000004
   vertex 2.0978188585434348 63.60327945566267 1.4400000000000004
   vertex 0.14230589454986667 64.41327945566266 1.4400000000000004
  endloop
 endfacet
 facet normal -0.0 0.0 -1.0
  outer loop
   vertex 31.22566666171177 63.60327945566277 1.4400000000000004
   vertex 2.0978188585434348 63.60327945566267 1.4400000000000004
   vertex 32.03566667492637 64.41327945566277 1.4400000000000004
  endloop
 endfacet
 facet normal 0.0 0.0 -1.0
  outer loop
   vertex 32.035666154608165 32.5199186990453 1.4400000000000004
   vertex 31.22566666171177 63.60327945566277 1.4400000000000004
   vertex 32.03566667492637 64.41327945566277 1.4400000000000004
  endloop
 endfacet
 facet normal 0.0 0.0 -1.0
  outer loop
   vertex 31.225666186511013 34.475431674193295 1.4400000000000004
   vertex 31.22566666171177 63.60327945566277 1.4400000000000004
   vertex 32.035666154608165 32.5199186990453 1.4400000000000004
  endloop
 endfacet
 facet normal 0.0 0.0 -1.0
  outer loop
   vertex 0.14230589454986667 64.41327945566266 1.4400000000000004
   vertex 31.225666186511013 34.475431674193295 1.4400000000000004
   vertex 32.035666154608165 32.5199186990453 1.4400000000000004
  endloop
 endfacet
 facet normal -0.0 -0.0 -1.0
  outer loop
   vertex 2.0978188585434348 63.60327945566267 1.4400000000000004
   vertex 31.225666186511013 34.475431674193295 1.4400000000000004
   vertex 0.14230589454986667 64.41327945566266 1.4400000000000004
  endloop
 endfacet
 facet normal 0.0 0.0 -1.0
  outer loop
   vertex 0.015026674942670099 4.4346401789871885 0
   vertex 0.015026674942670099 60.170638735500226 0
   vertex 27.883025498551994 32.30263947800412 0
  endloop
 endfacet
 facet normal 0.0 0.0 1.0
  outer loop
   vertex 0.8250266749426701 6.390153188098207 0.54
   vertex 26.737512522373915 32.30263947757744 0.54
   vertex 0.8250266749426701 58.215125728449394 0.54
  endloop
 endfacet
 facet normal -1.0 0.0 0.0
  outer loop
   vertex 0.015026674942670099 60.170638735500226 0
   vertex 0.015026674942670099 4.4346401789871885 0
   vertex 0.015026674942670099 0.31927867737895993 0.9000000000000002
  endloop
 endfacet
 facet normal -1.0 -0.0 0.0
  outer loop
   vertex 0.015026674942670099 64.28600023404269 0.9000000000000002
   vertex 0.015026674942670099 60.170638735500226 0
   vertex 0.015026674942670099 0.31927867737895993 0.9000000000000002
  endloop
 endfacet
 facet normal 0.2089286463399468 0.20892864308706244 -0.9553521041146853
  outer loop
   vertex 27.883025498551994 32.30263947800412 0
   vertex 0.015026674942670099 60.170638735500226 0
   vertex 0.015026674942670099 64.28600023404269 0.9000000000000002
  endloop
 endfacet
 facet normal 0.2089286463399468 0.20892864308706244 -0.9553521041146851
  outer loop
   vertex 31.998386931488056 32.30263947953699 0.9000000000000002
   vertex 27.883025498551994 32.30263947800412 0
   vertex 0.015026674942670099 64.28600023404269 0.9000000000000002
  endloop
 endfacet
 facet normal 0.20892864649558873 -0.20892864293141944 -0.9553521041146855
  outer loop
   vertex 0.015026674942670099 4.4346401789871885 0
   vertex 27.883025498551994 32.30263947800412 0
   vertex 31.998386931488056 32.30263947953699 0.9000000000000002
  endloop
 endfacet
 facet normal 0.20892864649558898 -0.20892864293141972 -0.9553521041146852
  outer loop
   vertex 0.015026674942670099 0.31927867737895993 0.9000000000000002
   vertex 0.015026674942670099 4.4346401789871885 0
   vertex 31.998386931488056 32.30263947953699 0.9000000000000002
  endloop
 endfacet
 facet normal 1.0 0.0 0.0
  outer loop
   vertex 0.8250266749426701 58.215125728449394 0.54
   vertex 0.8250266749426701 2.2747916864899778 0.9000000000000002
   vertex 0.8250266749426701 6.390153188098207 0.54
  endloop
 endfacet
 facet normal 1.0 0.0 0.0
  outer loop
   vertex 0.8250266749426701 62.33048722699186 0.9000000000000002
   vertex 0.8250266749426701 2.2747916864899778 0.9000000000000002
   vertex 0.8250266749426701 58.215125728449394 0.54
  endloop
 endfacet
 facet normal -0.08681531846784576 -0.08681531711618722 0.9924344820658654
  outer loop
   vertex 26.737512522373915 32.30263947757744 0.54
   vertex 0.8250266749426701 62.33048722699186 0.9000000000000002
   vertex 0.8250266749426701 58.215125728449394 0.54
  endloop
 endfacet
 facet normal -0.08681531846784585 -0.08681531711618728 0.9924344820658653
  outer loop
   vertex 30.852873955309978 32.30263947911032 0.9000000000000002
   vertex 0.8250266749426701 62.33048722699186 0.9000000000000002
   vertex 26.737512522373915 32.30263947757744 0.54
  endloop
 endfacet
 facet normal -0.08681531853251914 0.08681531705151353 0.9924344820658653
  outer loop
   vertex 0.8250266749426701 6.390153188098207 0.54
   vertex 30.852873955309978 32.30263947911032 0.9000000000000002
   vertex 26.737512522373915 32.30263947757744 0.54
  endloop
 endfacet
 facet normal -0.08681531853251925 0.08681531705151366 0.9924344820658654
  outer loop
   vertex 0.8250266749426701 2.2747916864899778 0.9000000000000002
   vertex 30.852873955309978 32.30263947911032 0.9000000000000002
   vertex 0.8250266749426701 6.390153188098207 0.54
  endloop
 endfacet
 facet normal 0.0 0.0 1.0
  outer loop
   vertex 0.015026674942670099 64.28600023404269 0.9000000000000002
   vertex 0.015026674942670099 0.31927867737895993 0.9000000000000002
   vertex 0.8250266749426701 2.2747916864899778 0.9000000000000002
  endloop
 endfacet
 facet normal 0.0 0.0 1.0
  outer loop
   vertex 0.8250266749426701 62.33048722699186 0.9000000000000002
   vertex 0.015026674942670099 64.28600023404269 0.9000000000000002
   vertex 0.8250266749426701 2.2747916864899778 0.9000000000000002
  endloop
 endfacet
 facet normal 0.0 0.0 1.0
  outer loop
   vertex 31.998386931488056 32.30263947953699 0.9000000000000002
   vertex 0.015026674942670099 64.28600023404269 0.9000000000000002
   vertex 0.8250266749426701 62.33048722699186 0.9000000000000002
  endloop
 endfacet
 facet normal 0.0 -0.0 1.0
  outer loop
   vertex 30.852873955309978 32.30263947911032 0.9000000000000002
   vertex 31.998386931488056 32.30263947953699 0.9000000000000002
   vertex 0.8250266749426701 62.33048722699186 0.9000000000000002
  endloop
 endfacet
 facet normal 0.0 0.0 1.0
  outer loop
   vertex 0.015026674942670099 0.31927867737895993 0.9000000000000002
   vertex 31.998386931488056 32.30263947953699 0.9000000000000002
   vertex 30.852873955309978 32.30263947911032 0.9000000000000002
  endloop
 endfacet
 facet normal -0.0 0.0 1.0
  outer loop
   vertex 0.8250266749426701 2.2747916864899778 0.9000000000000002
   vertex 0.015026674942670099 0.31927867737895993 0.9000000000000002
   vertex 30.852873955309978 32.30263947911032 0.9000000000000002
  endloop
 endfacet
 facet normal -1.0 0.0 0.0
  outer loop
   vertex 0.015026674942670099 64.28600023404269 1.4400000000000004
   vertex 0.015026674942670099 0.31927867737895993 1.4400000000000004
   vertex 0.015026674942670099 4.4346401789871885 2.3400000000000007
  endloop
 endfacet
 facet normal -1.0 -0.0 -0.0
  outer loop
   vertex 0.015026674942670099 60.170638735500226 2.3400000000000007
   vertex 0.015026674942670099 64.28600023404269 1.4400000000000004
   vertex 0.015026674942670099 4.4346401789871885 2.3400000000000007
  endloop
 endfacet
 facet normal 0.2089286463399468 0.20892864308706244 0.9553521041146851
  outer loop
   vertex 31.998386931488056 32.30263947953699 1.4400000000000004
   vertex 0.015026674942670099 64.28600023404269 1.4400000000000004
   vertex 0.015026674942670099 60.170638735500226 2.3400000000000007
  endloop
 endfacet
 facet normal 0.20892864633994687 0.2089286430870625 0.9553521041146852
  outer loop
   vertex 27.883025498551994 32.30263947800412 2.3400000000000007
   vertex 31.998386931488056 32.30263947953699 1.4400000000000004
   vertex 0.015026674942670099 60.170638735500226 2.3400000000000007
  endloop
 endfacet
 facet normal 0.20892864649558893 -0.20892864293141966 0.9553521041146854
  outer loop
   vertex 0.015026674942670099 0.31927867737895993 1.4400000000000004
   vertex 31.998386931488056 32.30263947953699 1.4400000000000004
   vertex 27.883025498551994 32.30263947800412 2.3400000000000007
  endloop
 endfacet
 facet normal 0.20892864649558907 -0.20892864293141974 0.9553521041146853
  outer loop
   vertex 0.015026674942670099 4.4346401789871885 2.3400000000000007
   vertex 0.015026674942670099 0.31927867737895993 1.4400000000000004
   vertex 27.883025498551994 32.30263947800412 2.3400000000000007
  endloop
 endfacet
 facet normal 1.0 0.0 0.0
  outer loop
   vertex 0.8250266749426701 62.33048722699186 1.4400000000000004
   vertex 0.8250266749426701 6.390153188098207 1.8000000000000007
   vertex 0.8250266749426701 2.2747916864899778 1.4400000000000004
  endloop
 endfacet
 facet normal 1.0 0.0 0.0
  outer loop
   vertex 0.8250266749426701 58.215125728449394 1.8000000000000007
   vertex 0.8250266749426701 6.390153188098207 1.8000000000000007
   vertex 0.8250266749426701 62.33048722699186 1.4400000000000004
  endloop
 endfacet
 facet normal -0.0868153184678458 -0.08681531711618724 -0.9924344820658653
  outer loop
   vertex 30.852873955309978 32.30263947911032 1.4400000000000004
   vertex 0.8250266749426701 58.215125728449394 1.8000000000000007
   vertex 0.8250266749426701 62.33048722699186 1.4400000000000004
  endloop
 endfacet
 facet normal -0.08681531846784588 -0.08681531711618734 -0.9924344820658654
  outer loop
   vertex 26.737512522373915 32.30263947757744 1.8000000000000007
   vertex 0.8250266749426701 58.215125728449394 1.8000000000000007
   vertex 30.852873955309978 32.30263947911032 1.4400000000000004
  endloop
 endfacet
 facet normal -0.08681531853251918 0.08681531705151359 -0.9924344820658654
  outer loop
   vertex 0.8250266749426701 2.2747916864899778 1.4400000000000004
   vertex 26.737512522373915 32.30263947757744 1.8000000000000007
   vertex 30.852873955309978 32.30263947911032 1.4400000000000004
  endloop
 endfacet
 facet normal -0.08681531853251928 0.08681531705151367 -0.9924344820658653
  outer loop
   vertex 0.8250266749426701 6.390153188098207 1.8000000000000007
   vertex 26.737512522373915 32.30263947757744 1.8000000000000007
   vertex 0.8250266749426701 2.2747916864899778 1.4400000000000004
  endloop
 endfacet
 facet normal 0.0 0.0 1.0
  outer loop
   vertex 0.015026674942670099 4.4346401789871885 2.3400000000000007
   vertex 27.883025498551994 32.30263947800412 2.3400000000000007
   vertex 0.015026674942670099 60.170638735500226 2.3400000000000007
  endloop
 endfacet
 facet normal 0.0 0.0 -1.0
  outer loop
   vertex 0.8250266749426701 6.390153188098207 1.8000000000000007
   vertex 0.8250266749426701 58.215125728449394 1.8000000000000007
   vertex 26.737512522373915 32.30263947757744 1.8000000000000007
  endloop
 endfacet
 facet normal 0.0 0.0 -1.0
  outer loop
   vertex 0.015026674942670099 64.28600023404269 1.4400000000000004
   vertex 0.8250266749426701 2.2747916864899778 1.4400000000000004
   vertex 0.015026674942670099 0.31927867737895993 1.4400000000000004
  endloop
 endfacet
 facet normal -0.0 -0.0 -1.0
  outer loop
   vertex 0.8250266749426701 62.33048722699186 1.4400000000000004
   vertex 0.8250266749426701 2.2747916864899778 1.4400000000000004
   vertex 0.015026674942670099 64.28600023404269 1.4400000000000004
  endloop
 endfacet
 facet normal 0.0 0.0 -1.0
  outer loop
   vertex 31.998386931488056 32.30263947953699 1.4400000000000004
   vertex 0.8250266749426701 62.33048722699186 1.4400000000000004
   vertex 0.015026674942670099 64.28600023404269 1.4400000000000004
  endloop
 endfacet
 facet normal 0.0 0.0 -1.0
  outer loop
   vertex 30.852873955309978 32.30263947911032 1.4400000000000004
   vertex 0.8250266749426701 62.33048722699186 1.4400000000000004
   vertex 31.998386931488056 32.30263947953699 1.4400000000000004
  endloop
 endfacet
 facet normal 0.0 0.0 -1.0
  outer loop
   vertex 0.015026674942670099 0.31927867737895993 1.4400000000000004
   vertex 30.852873955309978 32.30263947911032 1.4400000000000004
   vertex 31.998386931488056 32.30263947953699 1.4400000000000004
  endloop
 endfacet
 facet normal 0.0 -0.0 -1.0
  outer loop
   vertex 0.8250266749426701 2.2747916864899778 1.4400000000000004
   vertex 30.852873955309978 32.30263947911032 1.4400000000000004
   vertex 0.015026674942670099 0.31927867737895993 1.4400000000000004
  endloop
 endfacet
 facet normal 0.0 0.0 -1.0
  outer loop
   vertex 35.125666674926364 64.4132794568182 0
   vertex 94.23630604626176 64.41327947958413 0
   vertex 94.23630614127214 35.30263947958441 0
  endloop
 endfacet
 facet normal 0.0 -0.0 -1.0
  outer loop
   vertex 35.125666674926364 64.4132794568182 0
   vertex 94.23630614127214 35.30263947958441 0
   vertex 35.12566620000634 35.30263947958441 0
  endloop
 endfacet
 facet normal -0.0 0.0 1.0
  outer loop
   vertex 35.93566666171178 63.603279457130164 0.54
   vertex 93.42630613862848 36.11263947958441 0.54
   vertex 93.42630604890542 63.60327947927218 0.54
  endloop
 endfacet
 facet normal 0.0 0.0 1.0
  outer loop
   vertex 35.93566666171178 63.603279457130164 0.54
   vertex 35.93566621322093 36.11263947958441 0.54
   vertex 93.42630613862848 36.11263947958441 0.54
  endloop
 endfacet
 facet normal -3.8514101022126107e-10 1.0 7.932311072882496e-15
  outer loop
   vertex 94.23630604626176 64.41327947958413 0
   vertex 35.125666674926364 64.4132794568182 0
   vertex 32.21566667492636 64.41327945569743 0.9000000000000002
  endloop
 endfacet
 facet normal -3.851411253293934e-10 1.0 0.0
  outer loop
   vertex 94.23630604626176 64.41327947958413 0.9000000000000002
   vertex 94.23630604626176 64.41327947958413 0
   vertex 32.21566667492636 64.41327945569743 0.9000000000000002
  endloop
 endfacet
 facet normal 1.0 3.263768100995531e-09 0.0
  outer loop
   vertex 94.23630614127214 35.30263947958441 0
   vertex 94.23630604626176 64.41327947958413 0
   vertex 94.23630604626176 64.41327947958413 0.9000000000000002
  endloop
 endfacet
 facet normal 1.0 3.263768219032629e-09 -3.817928273739926e-15
  outer loop
   vertex 94.2363061507697 32.39263947958441 0.9000000000000002
   vertex 94.23630614127214 35.30263947958441 0
   vertex 94.23630604626176 64.41327947958413 0.9000000000000002
  endloop
 endfacet
 facet normal 0.0 -0.295469722922068 -0.9553521041146852
  outer loop
   vertex 35.12566620000634 35.30263947958441 0
   vertex 94.23630614127214 35.30263947958441 0
   vertex 94.2363061507697 32.39263947958441 0.9000000000000002
  endloop
 endfacet
 facet normal 0.0 -0.295469722922068 -0.9553521041146852
  outer loop
   vertex 32.21566615253169 32.39263947958441 0.9000000000000002
   vertex 35.12566620000634 35.30263947958441 0
   vertex 94.2363061507697 32.39263947958441 0.9000000000000002
  endloop
 endfacet
 facet normal -0.29546972292206675 4.820384824304542e-09 -0.9553521041146855
  outer loop
   vertex 35.125666674926364 64.4132794568182 0
   vertex 35.12566620000634 35.30263947958441 0
   vertex 32.21566615253169 32.39263947958441 0.9000000000000002
  endloop
 endfacet
 facet normal -0.29546972292206736 4.820384881915765e-09 -0.9553521041146854
  outer loop
   vertex 32.21566667492636 64.41327945569743 0.9000000000000002
   vertex 35.125666674926364 64.4132794568182 0
   vertex 32.21566615253169 32.39263947958441 0.9000000000000002
  endloop
 endfacet
 facet normal 3.851412722645209e-10 -1.0 2.0247035500358925e-15
  outer loop
   vertex 93.42630604890542 63.60327947927218 0.54
   vertex 33.025666661711774 63.6032794560094 0.9000000000000002
   vertex 35.93566666171178 63.603279457130164 0.54
  endloop
 endfacet
 facet normal 3.851412601968791e-10 -1.0 0.0
  outer loop
   vertex 93.42630604890542 63.60327947927218 0.9000000000000002
   vertex 33.025666661711774 63.6032794560094 0.9000000000000002
   vertex 93.42630604890542 63.60327947927218 0.54
  endloop
 endfacet
 facet normal -1.0 -3.2637675661801696e-09 0.0
  outer loop
   vertex 93.42630613862848 36.11263947958441 0.54
   vertex 93.42630604890542 63.60327947927218 0.9000000000000002
   vertex 93.42630604890542 63.60327947927218 0.54
  endloop
 endfacet
 facet normal -1.0 -3.263767741700688e-09 1.3403253810335854e-14
  outer loop
   vertex 93.42630614812605 33.202639479584406 0.9000000000000002
   vertex 93.42630604890542 63.60327947927218 0.9000000000000002
   vertex 93.42630613862848 36.11263947958441 0.54
  endloop
 endfacet
 facet normal -0.0 0.12277539984319975 0.9924344820658654
  outer loop
   vertex 35.93566621322093 36.11263947958441 0.54
   vertex 93.42630614812605 33.202639479584406 0.9000000000000002
   vertex 93.42630613862848 36.11263947958441 0.54
  endloop
 endfacet
 facet normal -0.0 0.12277539984319977 0.9924344820658654
  outer loop
   vertex 33.02566616574629 33.202639479584406 0.9000000000000002
   vertex 93.42630614812605 33.202639479584406 0.9000000000000002
   vertex 35.93566621322093 36.11263947958441 0.54
  endloop
 endfacet
 facet normal 0.12277539984320014 -2.0029960623773994e-09 0.9924344820658653
  outer loop
   vertex 35.93566666171178 63.603279457130164 0.54
   vertex 33.02566616574629 33.202639479584406 0.9000000000000002
   vertex 35.93566621322093 36.11263947958441 0.54
  endloop
 endfacet
 facet normal 0.12277539984319977 -2.0029960245755105e-09 0.9924344820658654
  outer loop
   vertex 33.025666661711774 63.6032794560094 0.9000000000000002
   vertex 33.02566616574629 33.202639479584406 0.9000000000000002
   vertex 35.93566666171178 63.603279457130164 0.54
  endloop
 endfacet
 facet normal 0.0 0.0 1.0
  outer loop
   vertex 94.23630604626176 64.41327947958413 0.9000000000000002
   vertex 32.21566667492636 64.41327945569743 0.9000000000000002
   vertex 33.025666661711774 63.6032794560094 0.9000000000000002
  endloop
 endfacet
 facet normal 0.0 -0.0 1.0
  outer loop
   vertex 93.42630604890542 63.60327947927218 0.9000000000000002
   vertex 94.23630604626176 64.41327947958413 0.9000000000000002
   vertex 33.025666661711774 63.6032794560094 0.9000000000000002
  endloop
 endfacet
 facet normal 0.0 0.0 1.0
  outer loop
   vertex 94.2363061507697 32.39263947958441 0.9000000000000002
   vertex 94.23630604626176 64.41327947958413 0.9000000000000002
   vertex 93.42630604890542 63.60327947927218 0.9000000000000002
  endloop
 endfacet
 facet normal -0.0 -0.0 1.0
  outer loop
   vertex 93.42630614812605 33.202639479584406 0.9000000000000002
   vertex 94.2363061507697 32.39263947958441 0.9000000000000002
   vertex 93.42630604890542 63.60327947927218 0.9000000000000002
  endloop
 endfacet
 facet normal 0.0 0.0 1.0
  outer loop
   vertex 32.21566615253169 32.39263947958441 0.9000000000000002
   vertex 94.2363061507697 32.39263947958441 0.9000000000000002
   vertex 93.42630614812605 33.202639479584406 0.9000000000000002
  endloop
 endfacet
 facet normal -0.0 0.0 1.0
  outer loop
   vertex 33.02566616574629 33.202639479584406 0.9000000000000002
   vertex 32.21566615253169 32.39263947958441 0.9000000000000002
   vertex 93.42630614812605 33.202639479584406 0.9000000000000002
  endloop
 endfacet
 facet normal 0.0 0.0 1.0
  outer loop
   vertex 32.21566667492636 64.41327945569743 0.9000000000000002
   vertex 32.21566615253169 32.39263947958441 0.9000000000000002
   vertex 33.02566616574629 33.202639479584406 0.9000000000000002
  endloop
 endfacet
 facet normal 0.0 0.0 1.0
  outer loop
   vertex 33.025666661711774 63.6032794560094 0.9000000000000002
   vertex 32.21566667492636 64.41327945569743 0.9000000000000002
   vertex 33.02566616574629 33.202639479584406 0.9000000000000002
  endloop
 endfacet
 facet normal -3.8514112532939337e-10 1.0 -7.56012811159628e-15
  outer loop
   vertex 94.23630604626176 64.41327947958413 1.4400000000000004
   vertex 32.21566667492636 64.41327945569743 1.4400000000000004
   vertex 35.125666674926364 64.4132794568182 2.3400000000000007
  endloop
 endfacet
 facet normal -3.85141010221261e-10 1.0 0.0
  outer loop
   vertex 94.23630604626176 64.41327947958413 2.3400000000000007
   vertex 94.23630604626176 64.41327947958413 1.4400000000000004
   vertex 35.125666674926364 64.4132794568182 2.3400000000000007
  endloop
 endfacet
 facet normal 1.0 3.263768219032629e-09 0.0
  outer loop
   vertex 94.2363061507697 32.39263947958441 1.4400000000000004
   vertex 94.23630604626176 64.41327947958413 1.4400000000000004
   vertex 94.23630604626176 64.41327947958413 2.3400000000000007
  endloop
 endfacet
 facet normal 1.0 3.2637681009955313e-09 4.199581557055064e-15
  outer loop
   vertex 94.23630614127214 35.30263947958441 2.3400000000000007
   vertex 94.2363061507697 32.39263947958441 1.4400000000000004
   vertex 94.23630604626176 64.41327947958413 2.3400000000000007
  endloop
 endfacet
 facet normal 0.0 -0.295469722922068 0.9553521041146852
  outer loop
   vertex 32.21566615253169 32.39263947958441 1.4400000000000004
   vertex 94.2363061507697 32.39263947958441 1.4400000000000004
   vertex 94.23630614127214 35.30263947958441 2.3400000000000007
  endloop
 endfacet
 facet normal 0.0 -0.2954697229220681 0.9553521041146852
  outer loop
   vertex 35.12566620000634 35.30263947958441 2.3400000000000007
   vertex 32.21566615253169 32.39263947958441 1.4400000000000004
   vertex 94.23630614127214 35.30263947958441 2.3400000000000007
  endloop
 endfacet
 facet normal -0.29546972292206686 4.820384881915757e-09 0.9553521041146856
  outer loop
   vertex 32.21566667492636 64.41327945569743 1.4400000000000004
   vertex 32.21566615253169 32.39263947958441 1.4400000000000004
   vertex 35.12566620000634 35.30263947958441 2.3400000000000007
  endloop
 endfacet
 facet normal -0.2954697229220674 4.820384824304553e-09 0.9553521041146854
  outer loop
   vertex 35.125666674926364 64.4132794568182 2.3400000000000007
   vertex 32.21566667492636 64.41327945569743 1.4400000000000004
   vertex 35.12566620000634 35.30263947958441 2.3400000000000007
  endloop
 endfacet
 facet normal 3.851412601968791e-10 -1.0 -1.9271567791675412e-15
  outer loop
   vertex 93.42630604890542 63.60327947927218 1.4400000000000004
   vertex 35.93566666171178 63.603279457130164 1.8000000000000007
   vertex 33.025666661711774 63.6032794560094 1.4400000000000004
  endloop
 endfacet
 facet normal 3.8514127226452087e-10 -1.0 0.0
  outer loop
   vertex 93.42630604890542 63.60327947927218 1.8000000000000007
   vertex 35.93566666171178 63.603279457130164 1.8000000000000007
   vertex 93.42630604890542 63.60327947927218 1.4400000000000004
  endloop
 endfacet
 facet normal -1.0 -3.2637677417006875e-09 0.0
  outer loop
   vertex 93.42630614812605 33.202639479584406 1.4400000000000004
   vertex 93.42630604890542 63.60327947927218 1.8000000000000007
   vertex 93.42630604890542 63.60327947927218 1.4400000000000004
  endloop
 endfacet
 facet normal -1.0 -3.263767566180169e-09 -1.48220446691727e-14
  outer loop
   vertex 93.42630613862848 36.11263947958441 1.8000000000000007
   vertex 93.42630604890542 63.60327947927218 1.8000000000000007
   vertex 93.42630614812605 33.202639479584406 1.4400000000000004
  endloop
 endfacet
 facet normal 0.0 0.12277539984319978 -0.9924344820658653
  outer loop
   vertex 33.02566616574629 33.202639479584406 1.4400000000000004
   vertex 93.42630613862848 36.11263947958441 1.8000000000000007
   vertex 93.42630614812605 33.202639479584406 1.4400000000000004
  endloop
 endfacet
 facet normal 0.0 0.1227753998431998 -0.9924344820658654
  outer loop
   vertex 35.93566621322093 36.11263947958441 1.8000000000000007
   vertex 93.42630613862848 36.11263947958441 1.8000000000000007
   vertex 33.02566616574629 33.202639479584406 1.4400000000000004
  endloop
 endfacet
 facet normal 0.12277539984320014 -2.0029960245755167e-09 -0.9924344820658653
  outer loop
   vertex 33.025666661711774 63.6032794560094 1.4400000000000004
   vertex 35.93566621322093 36.11263947958441 1.8000000000000007
   vertex 33.02566616574629 33.202639479584406 1.4400000000000004
  endloop
 endfacet
 facet normal 0.1227753998431998 -2.002996062377394e-09 -0.9924344820658655
  outer loop
   vertex 35.93566666171178 63.603279457130164 1.8000000000000007
   vertex 35.93566621322093 36.11263947958441 1.8000000000000007
   vertex 33.025666661711774 63.6032794560094 1.4400000000000004
  endloop
 endfacet
 facet normal -0.0 0.0 1.0
  outer loop
   vertex 35.125666674926364 64.4132794568182 2.3400000000000007
   vertex 94.23630614127214 35.30263947958441 2.3400000000000007
   vertex 94.23630604626176 64.41327947958413 2.3400000000000007
  endloop
 endfacet
 facet normal 0.0 0.0 1.0
  outer loop
   vertex 35.125666674926364 64.4132794568182 2.3400000000000007
   vertex 35.12566620000634 35.30263947958441 2.3400000000000007
   vertex 94.23630614127214 35.30263947958441 2.3400000000000007
  endloop
 endfacet
 facet normal 0.0 0.0 -1.0
  outer loop
   vertex 35.93566666171178 63.603279457130164 1.8000000000000007
   vertex 93.42630604890542 63.60327947927218 1.8000000000000007
   vertex 93.42630613862848 36.11263947958441 1.8000000000000007
  endloop
 endfacet
 facet normal 0.0 -0.0 -1.0
  outer loop
   vertex 35.93566666171178 63.603279457130164 1.8000000000000007
   vertex 93.42630613862848 36.11263947958441 1.8000000000000007
   vertex 35.93566621322093 36.11263947958441 1.8000000000000007
  endloop
 endfacet
 facet normal 0.0 0.0 -1.0
  outer loop
   vertex 94.23630604626176 64.41327947958413 1.4400000000000004
   vertex 33.025666661711774 63.6032794560094 1.4400000000000004
   vertex 32.21566667492636 64.41327945569743 1.4400000000000004
  endloop
 endfacet
 facet normal -0.0 0.0 -1.0
  outer loop
   vertex 93.42630604890542 63.60327947927218 1.4400000000000004
   vertex 33.025666661711774 63.6032794560094 1.4400000000000004
   vertex 94.23630604626176 64.41327947958413 1.4400000000000004
  endloop
 endfacet
 facet normal 0.0 0.0 -1.0
  outer loop
   vertex 94.2363061507697 32.39263947958441 1.4400000000000004
   vertex 93.42630604890542 63.60327947927218 1.4400000000000004
   vertex 94.23630604626176 64.41327947958413 1.4400000000000004
  endloop
 endfacet
 facet normal 0.0 0.0 -1.0
  outer loop
   vertex 93.42630614812605 33.202639479584406 1.4400000000000004
   vertex 93.42630604890542 63.60327947927218 1.4400000000000004
   vertex 94.2363061507697 32.39263947958441 1.4400000000000004
  endloop
 endfacet
 facet normal 0.0 0.0 -1.0
  outer loop
   vertex 32.21566615253169 32.39263947958441 1.4400000000000004
   vertex 93.42630614812605 33.202639479584406 1.4400000000000004
   vertex 94.2363061507697 32.39263947958441 1.4400000000000004
  endloop
 endfacet
 facet normal 0.0 -0.0 -1.0
  outer loop
   vertex 33.02566616574629 33.202639479584406 1.4400000000000004
   vertex 93.42630614812605 33.202639479584406 1.4400000000000004
   vertex 32.21566615253169 32.39263947958441 1.4400000000000004
  endloop
 endfacet
 facet normal 0.0 -0.0 -1.0
  outer loop
   vertex 32.21566667492636 64.41327945569743 1.4400000000000004
   vertex 33.02566616574629 33.202639479584406 1.4400000000000004
   vertex 32.21566615253169 32.39263947958441 1.4400000000000004
  endloop
 endfacet
 facet normal -0.0 0.0 -1.0
  outer loop
   vertex 33.025666661711774 63.6032794560094 1.4400000000000004
   vertex 33.02566616574629 33.202639479584406 1.4400000000000004
   vertex 32.21566667492636 64.41327945569743 1.4400000000000004
  endloop
 endfacet
 facet normal 0.0 0.0 -1.0
  outer loop
   vertex 29.12566532972239 0.1919987110315479 0
   vertex 4.257667217310905 0.19199934711685157 0
   vertex 29.125665965807737 25.05999851984349 0
  endloop
 endfacet
 facet normal 0.0 -0.0 1.0
  outer loop
   vertex 28.31566535044095 1.0019987317501071 0.54
   vertex 28.315665915788706 23.10448546071344 0.54
   vertex 6.213180129225277 1.0019992970978264 0.54
  endloop
 endfacet
 facet normal -2.5578468391535838e-08 -0.9999999999999997 2.7070298844560712e-18
  outer loop
   vertex 4.257667217310905 0.19199934711685157 0
   vertex 29.12566532972239 0.1919987110315479 0
   vertex 32.03566532972239 0.19199863659820487 0.9000000000000002
  endloop
 endfacet
 facet normal -2.5578468391949732e-08 -0.9999999999999997 1.5481577134347126e-17
  outer loop
   vertex 0.14230589117235853 0.1919994523814912 0.9000000000000002
   vertex 4.257667217310905 0.19199934711685157 0
   vertex 32.03566532972239 0.19199863659820487 0.9000000000000002
  endloop
 endfacet
 facet normal -0.20892864649558898 0.2089286429314197 -0.9553521041146853
  outer loop
   vertex 29.125665965807737 25.05999851984349 0
   vertex 4.257667217310905 0.19199934711685157 0
   vertex 0.14230589117235853 0.1919994523814912 0.9000000000000002
  endloop
 endfacet
 facet normal -0.208928646495589 0.20892864293141972 -0.9553521041146853
  outer loop
   vertex 32.03566614550573 32.08536025079218 0.9000000000000002
   vertex 29.125665965807737 25.05999851984349 0
   vertex 0.14230589117235853 0.1919994523814912 0.9000000000000002
  endloop
 endfacet
 facet normal 0.2954697229220678 -7.557662957753834e-09 -0.9553521041146853
  outer loop
   vertex 29.12566532972239 0.1919987110315479 0
   vertex 29.125665965807737 25.05999851984349 0
   vertex 32.03566614550573 32.08536025079218 0.9000000000000002
  endloop
 endfacet
 facet normal 0.29546972292206747 -7.557662929715392e-09 -0.9553521041146853
  outer loop
   vertex 32.03566532972239 0.19199863659820487 0.9000000000000002
   vertex 29.12566532972239 0.1919987110315479 0
   vertex 32.03566614550573 32.08536025079218 0.9000000000000002
  endloop
 endfacet
 facet normal 2.5578468377983817e-08 0.9999999999999997 1.798771776997764e-16
  outer loop
   vertex 6.213180129225277 1.0019992970978264 0.54
   vertex 31.22566535044095 1.001998657316764 0.9000000000000002
   vertex 28.31566535044095 1.0019987317501071 0.54
  endloop
 endfacet
 facet normal 2.5578468384564293e-08 0.9999999999999997 -2.7732876443218565e-16
  outer loop
   vertex 2.097818803086731 1.001999402362466 0.9000000000000002
   vertex 31.22566535044095 1.001998657316764 0.9000000000000002
   vertex 6.213180129225277 1.0019992970978264 0.54
  endloop
 endfacet
 facet normal 0.08681531853251914 -0.08681531705151355 0.9924344820658653
  outer loop
   vertex 28.315665915788706 23.10448546071344 0.54
   vertex 2.097818803086731 1.001999402362466 0.9000000000000002
   vertex 6.213180129225277 1.0019992970978264 0.54
  endloop
 endfacet
 facet normal 0.08681531853251932 -0.08681531705151373 0.9924344820658654
  outer loop
   vertex 31.225666095486698 30.129847191662126 0.9000000000000002
   vertex 2.097818803086731 1.001999402362466 0.9000000000000002
   vertex 28.315665915788706 23.10448546071344 0.54
  endloop
 endfacet
 facet normal -0.12277539984319993 3.1404066828718106e-09 0.9924344820658653
  outer loop
   vertex 28.31566535044095 1.0019987317501071 0.54
   vertex 31.225666095486698 30.129847191662126 0.9000000000000002
   vertex 28.315665915788706 23.10448546071344 0.54
  endloop
 endfacet
 facet normal -0.12277539984319981 3.1404066693538476e-09 0.9924344820658654
  outer loop
   vertex 31.22566535044095 1.001998657316764 0.9000000000000002
   vertex 31.225666095486698 30.129847191662126 0.9000000000000002
   vertex 28.31566535044095 1.0019987317501071 0.54
  endloop
 endfacet
 facet normal -0.0 0.0 1.0
  outer loop
   vertex 0.14230589117235853 0.1919994523814912 0.9000000000000002
   vertex 32.03566532972239 0.19199863659820487 0.9000000000000002
   vertex 31.22566535044095 1.001998657316764 0.9000000000000002
  endloop
 endfacet
 facet normal 0.0 0.0 1.0
  outer loop
   vertex 2.097818803086731 1.001999402362466 0.9000000000000002
   vertex 0.14230589117235853 0.1919994523814912 0.9000000000000002
   vertex 31.22566535044095 1.001998657316764 0.9000000000000002
  endloop
 endfacet
 facet normal 0.0 0.0 1.0
  outer loop
   vertex 32.03566614550573 32.08536025079218 0.9000000000000002
   vertex 0.14230589117235853 0.1919994523814912 0.9000000000000002
   vertex 2.097818803086731 1.001999402362466 0.9000000000000002
  endloop
 endfacet
 facet normal 0.0 -0.0 1.0
  outer loop
   vertex 31.225666095486698 30.129847191662126 0.9000000000000002
   vertex 32.03566614550573 32.08536025079218 0.9000000000000002
   vertex 2.097818803086731 1.001999402362466 0.9000000000000002
  endloop
 endfacet
 facet normal 0.0 -0.0 1.0
  outer loop
   vertex 32.03566532972239 0.19199863659820487 0.9000000000000002
   vertex 32.03566614550573 32.08536025079218 0.9000000000000002
   vertex 31.225666095486698 30.129847191662126 0.9000000000000002
  endloop
 endfacet
 facet normal -0.0 0.0 1.0
  outer loop
   vertex 31.22566535044095 1.001998657316764 0.9000000000000002
   vertex 32.03566532972239 0.19199863659820487 0.9000000000000002
   vertex 31.225666095486698 30.129847191662126 0.9000000000000002
  endloop
 endfacet
 facet normal -2.5578468391949732e-08 -0.9999999999999997 -4.045240018803228e-18
  outer loop
   vertex 0.14230589117235853 0.1919994523814912 1.4400000000000004
   vertex 32.03566532972239 0.19199863659820487 1.4400000000000004
   vertex 29.12566532972239 0.1919987110315479 2.3400000000000007
  endloop
 endfacet
 facet normal -2.5578468391535844e-08 -0.9999999999999997 -1.737418314962265e-17
  outer loop
   vertex 4.257667217310905 0.19199934711685157 2.3400000000000007
   vertex 0.14230589117235853 0.1919994523814912 1.4400000000000004
   vertex 29.12566532972239 0.1919987110315479 2.3400000000000007
  endloop
 endfacet
 facet normal -0.20892864649558904 0.20892864293141974 0.9553521041146853
  outer loop
   vertex 32.03566614550573 32.08536025079218 1.4400000000000004
   vertex 0.14230589117235853 0.1919994523814912 1.4400000000000004
   vertex 4.257667217310905 0.19199934711685157 2.3400000000000007
  endloop
 endfacet
 facet normal -0.20892864649558904 0.20892864293141974 0.9553521041146853
  outer loop
   vertex 29.125665965807737 25.05999851984349 2.3400000000000007
   vertex 32.03566614550573 32.08536025079218 1.4400000000000004
   vertex 4.257667217310905 0.19199934711685157 2.3400000000000007
  endloop
 endfacet
 facet normal 0.29546972292206775 -7.557662929715399e-09 0.9553521041146853
  outer loop
   vertex 32.03566532972239 0.19199863659820487 1.4400000000000004
   vertex 32.03566614550573 32.08536025079218 1.4400000000000004
   vertex 29.125665965807737 25.05999851984349 2.3400000000000007
  endloop
 endfacet
 facet normal 0.2954697229220676 -7.557662957753829e-09 0.9553521041146854
  outer loop
   vertex 29.12566532972239 0.1919987110315479 2.3400000000000007
   vertex 32.03566532972239 0.19199863659820487 1.4400000000000004
   vertex 29.125665965807737 25.05999851984349 2.3400000000000007
  endloop
 endfacet
 facet normal 2.5578468384564296e-08 0.9999999999999997 -1.2668468200449843e-16
  outer loop
   vertex 2.097818803086731 1.001999402362466 1.4400000000000004
   vertex 28.31566535044095 1.0019987317501071 1.8000000000000007
   vertex 31.22566535044095 1.001998657316764 1.4400000000000004
  endloop
 endfacet
 facet normal 2.5578468377983813e-08 0.9999999999999997 3.525538945591071e-16
  outer loop
   vertex 6.213180129225277 1.0019992970978264 1.8000000000000007
   vertex 28.31566535044095 1.0019987317501071 1.8000000000000007
   vertex 2.097818803086731 1.001999402362466 1.4400000000000004
  endloop
 endfacet
 facet normal 0.08681531853251932 -0.08681531705151374 -0.9924344820658654
  outer loop
   vertex 31.225666095486698 30.129847191662126 1.4400000000000004
   vertex 6.213180129225277 1.0019992970978264 1.8000000000000007
   vertex 2.097818803086731 1.001999402362466 1.4400000000000004
  endloop
 endfacet
 facet normal 0.08681531853251936 -0.08681531705151375 -0.9924344820658653
  outer loop
   vertex 28.315665915788706 23.10448546071344 1.8000000000000007
   vertex 6.213180129225277 1.0019992970978264 1.8000000000000007
   vertex 31.225666095486698 30.129847191662126 1.4400000000000004
  endloop
 endfacet
 facet normal -0.12277539984319996 3.1404066693538513e-09 -0.9924344820658654
  outer loop
   vertex 31.22566535044095 1.001998657316764 1.4400000000000004
   vertex 28.315665915788706 23.10448546071344 1.8000000000000007
   vertex 31.225666095486698 30.129847191662126 1.4400000000000004
  endloop
 endfacet
 facet normal -0.12277539984319984 3.140406682871808e-09 -0.9924344820658653
  outer loop
   vertex 28.31566535044095 1.0019987317501071 1.8000000000000007
   vertex 28.315665915788706 23.10448546071344 1.8000000000000007
   vertex 31.22566535044095 1.001998657316764 1.4400000000000004
  endloop
 endfacet
 facet normal 0.0 -0.0 1.0
  outer loop
   vertex 29.12566532972239 0.1919987110315479 2.3400000000000007
   vertex 29.125665965807737 25.05999851984349 2.3400000000000007
   vertex 4.257667217310905 0.19199934711685157 2.3400000000000007
  endloop
 endfacet
 facet normal 0.0 0.0 -1.0
  outer loop
   vertex 28.31566535044095 1.0019987317501071 1.8000000000000007
   vertex 6.213180129225277 1.0019992970978264 1.8000000000000007
   vertex 28.315665915788706 23.10448546071344 1.8000000000000007
  endloop
 endfacet
 facet normal 0.0 0.0 -1.0
  outer loop
   vertex 0.14230589117235853 0.1919994523814912 1.4400000000000004
   vertex 31.22566535044095 1.001998657316764 1.4400000000000004
   vertex 32.03566532972239 0.19199863659820487 1.4400000000000004
  endloop
 endfacet
 facet normal 0.0 -0.0 -1.0
  outer loop
   vertex 2.097818803086731 1.001999402362466 1.4400000000000004
   vertex 31.22566535044095 1.001998657316764 1.4400000000000004
   vertex 0.14230589117235853 0.1919994523814912 1.4400000000000004
  endloop
 endfacet
 facet normal 0.0 0.0 -1.0
  outer loop
   vertex 32.03566614550573 32.08536025079218 1.4400000000000004
   vertex 2.097818803086731 1.001999402362466 1.4400000000000004
   vertex 0.14230589117235853 0.1919994523814912 1.4400000000000004
  endloop
 endfacet
 facet normal -0.0 0.0 -1.0
  outer loop
   vertex 31.225666095486698 30.129847191662126 1.4400000000000004
   vertex 2.097818803086731 1.001999402362466 1.4400000000000004
   vertex 32.03566614550573 32.08536025079218 1.4400000000000004
  endloop
 endfacet
 facet normal 0.0 0.0 -1.0
  outer loop
   vertex 32.03566532972239 0.19199863659820487 1.4400000000000004
   vertex 31.225666095486698 30.129847191662126 1.4400000000000004
   vertex 32.03566614550573 32.08536025079218 1.4400000000000004
  endloop
 endfacet
 facet normal 0.0 0.0 -1.0
  outer loop
   vertex 31.22566535044095 1.001998657316764 1.4400000000000004
   vertex 31.225666095486698 30.129847191662126 1.4400000000000004
   vertex 32.03566532972239 0.19199863659820487 1.4400000000000004
  endloop
 endfacet
 facet normal 0.0 0.0 -1.0
  outer loop
   vertex 4.257667329018797 64.41327945566267 0
   vertex 29.12566667492636 64.41327945566276 0
   vertex 29.125666269222094 39.54528012828067 0
  endloop
 endfacet
 facet normal -0.0 0.0 1.0
  outer loop
   vertex 6.213180293012365 63.60327945566269 0.54
   vertex 28.315666301124942 41.500793103428656 0.54
   vertex 28.31566666171177 63.603279455662765 0.54
  endloop
 endfacet
 facet normal -3.428708803840458e-15 1.0 1.1164303761433478e-16
  outer loop
   vertex 29.12566667492636 64.41327945566276 0
   vertex 4.257667329018797 64.41327945566267 0
   vertex 0.14230589454986667 64.41327945566266 0.9000000000000002
  endloop
 endfacet
 facet normal -3.56459259670012e-15 1.0 -4.26432250978292e-15
  outer loop
   vertex 32.03566667492637 64.41327945566277 0.9000000000000002
   vertex 29.12566667492636 64.41327945566276 0
   vertex 0.14230589454986667 64.41327945566266 0.9000000000000002
  endloop
 endfacet
 facet normal 0.295469722922067 -4.820384851640515e-09 -0.9553521041146855
  outer loop
   vertex 29.125666269222094 39.54528012828067 0
   vertex 29.12566667492636 64.41327945566276 0
   vertex 32.03566667492637 64.41327945566277 0.9000000000000002
  endloop
 endfacet
 facet normal 0.2954697229220676 -4.820384918660736e-09 -0.9553521041146854
  outer loop
   vertex 32.035666154608165 32.5199186990453 0.9000000000000002
   vertex 29.125666269222094 39.54528012828067 0
   vertex 32.03566667492637 64.41327945566277 0.9000000000000002
  endloop
 endfacet
 facet normal -0.20892864633994596 -0.20892864308706174 -0.9553521041146855
  outer loop
   vertex 4.257667329018797 64.41327945566267 0
   vertex 29.125666269222094 39.54528012828067 0
   vertex 32.035666154608165 32.5199186990453 0.9000000000000002
  endloop
 endfacet
 facet normal -0.2089286463399465 -0.2089286430870622 -0.9553521041146854
  outer loop
   vertex 0.14230589454986667 64.41327945566266 0.9000000000000002
   vertex 4.257667329018797 64.41327945566267 0
   vertex 32.035666154608165 32.5199186990453 0.9000000000000002
  endloop
 endfacet
 facet normal 3.5362402052783275e-15 -1.0 9.501440239414764e-16
  outer loop
   vertex 28.31566666171177 63.603279455662765 0.54
   vertex 2.0978188585434348 63.60327945566267 0.9000000000000002
   vertex 6.213180293012365 63.60327945566269 0.54
  endloop
 endfacet
 facet normal 3.415150466269385e-15 -1.0 -7.868501386785855e-15
  outer loop
   vertex 31.22566666171177 63.60327945566277 0.9000000000000002
   vertex 2.0978188585434348 63.60327945566267 0.9000000000000002
   vertex 28.31566666171177 63.603279455662765 0.54
  endloop
 endfacet
 facet normal -0.12277539984319993 2.002996010244844e-09 0.9924344820658654
  outer loop
   vertex 28.315666301124942 41.500793103428656 0.54
   vertex 31.22566666171177 63.60327945566277 0.9000000000000002
   vertex 28.31566666171177 63.603279455662765 0.54
  endloop
 endfacet
 facet normal -0.1227753998431999 2.0029960119283532e-09 0.9924344820658653
  outer loop
   vertex 31.225666186511013 34.475431674193295 0.9000000000000002
   vertex 31.22566666171177 63.60327945566277 0.9000000000000002
   vertex 28.315666301124942 41.500793103428656 0.54
  endloop
 endfacet
 facet normal 0.08681531846784564 0.08681531711618713 0.9924344820658654
  outer loop
   vertex 6.213180293012365 63.60327945566269 0.54
   vertex 31.225666186511013 34.475431674193295 0.9000000000000002
   vertex 28.315666301124942 41.500793103428656 0.54
  endloop
 endfacet
 facet normal 0.08681531846784571 0.0868153171161872 0.9924344820658654
  outer loop
   vertex 2.0978188585434348 63.60327945566267 0.9000000000000002
   vertex 31.225666186511013 34.475431674193295 0.9000000000000002
   vertex 6.213180293012365 63.60327945566269 0.54
  endloop
 endfacet
 facet normal 0.0 0.0 1.0
  outer loop
   vertex 32.03566667492637 64.41327945566277 0.9000000000000002
   vertex 0.14230589454986667 64.41327945566266 0.9000000000000002
   vertex 2.0978188585434348 63.60327945566267 0.9000000000000002
  endloop
 endfacet
 facet normal 0.0 -0.0 1.0
  outer loop
   vertex 31.22566666171177 63.60327945566277 0.9000000000000002
   vertex 32.03566667492637 64.41327945566277 0.9000000000000002
   vertex 2.0978188585434348 63.60327945566267 0.9000000000000002
  endloop
 endfacet
 facet normal 0.0 -0.0 1.0
  outer loop
   vertex 32.035666154608165 32.5199186990453 0.9000000000000002
   vertex 32.03566667492637 64.41327945566277 0.9000000000000002
   vertex 31.22566666171177 63.60327945566277 0.9000000000000002
  endloop
 endfacet
 facet normal -0.0 0.0 1.0
  outer loop
   vertex 31.225666186511013 34.475431674193295 0.9000000000000002
   vertex 32.035666154608165 32.5199186990453 0.9000000000000002
   vertex 31.22566666171177 63.60327945566277 0.9000000000000002
  endloop
 endfacet
 facet normal 0.0 0.0 1.0
  outer loop
   vertex 0.14230589454986667 64.41327945566266 0.9000000000000002
   vertex 32.035666154608165 32.5199186990453 0.9000000000000002
   vertex 31.225666186511013 34.475431674193295 0.9000000000000002
  endloop
 endfacet
 facet normal 0.0 0.0 1.0
  outer loop
   vertex 2.0978188585434348 63.60327945566267 0.9000000000000002
   vertex 0.14230589454986667 64.41327945566266 0.9000000000000002
   vertex 31.225666186511013 34.475431674193295 0.9000000000000002
  endloop
 endfacet
 facet normal -3.56459259670012e-15 1.0 5.097024298345906e-16
  outer loop
   vertex 32.03566667492637 64.41327945566277 1.4400000000000004
   vertex 0.14230589454986667 64.41327945566266 1.4400000000000004
   vertex 4.257667329018797 64.41327945566267 2.3400000000000007
  endloop
 endfacet
 facet normal -3.4287088038404588e-15 1.0 4.703680106695826e-15
  outer loop
   vertex 29.12566667492636 64.41327945566276 2.3400000000000007
   vertex 32.03566667492637 64.41327945566277 1.4400000000000004
   vertex 4.257667329018797 64.41327945566267 2.3400000000000007
  endloop
 endfacet
 facet normal 0.2954697229220671 -4.820384918660728e-09 0.9553521041146854
  outer loop
   vertex 32.035666154608165 32.5199186990453 1.4400000000000004
   vertex 32.03566667492637 64.41327945566277 1.4400000000000004
   vertex 29.12566667492636 64.41327945566276 2.3400000000000007
  endloop
 endfacet
 facet normal 0.2954697229220677 -4.820384851640526e-09 0.9553521041146852
  outer loop
   vertex 29.125666269222094 39.54528012828067 2.3400000000000007
   vertex 32.035666154608165 32.5199186990453 1.4400000000000004
   vertex 29.12566667492636 64.41327945566276 2.3400000000000007
  endloop
 endfacet
 facet normal -0.20892864633994593 -0.2089286430870616 0.9553521041146856
  outer loop
   vertex 0.14230589454986667 64.41327945566266 1.4400000000000004
   vertex 32.035666154608165 32.5199186990453 1.4400000000000004
   vertex 29.125666269222094 39.54528012828067 2.3400000000000007
  endloop
 endfacet
 facet normal -0.2089286463399465 -0.20892864308706227 0.9553521041146853
  outer loop
   vertex 4.257667329018797 64.41327945566267 2.3400000000000007
   vertex 0.14230589454986667 64.41327945566266 1.4400000000000004
   vertex 29.125666269222094 39.54528012828067 2.3400000000000007
  endloop
 endfacet
 facet normal 3.415150466269385e-15 -1.0 4.3410053724554123e-16
  outer loop
   vertex 31.22566666171177 63.60327945566277 1.4400000000000004
   vertex 6.213180293012365 63.60327945566269 1.8000000000000007
   vertex 2.0978188585434348 63.60327945566267 1.4400000000000004
  endloop
 endfacet
 facet normal 3.5362402052783275e-15 -1.0 8.847310110441472e-15
  outer loop
   vertex 28.31566666171177 63.603279455662765 1.8000000000000007
   vertex 6.213180293012365 63.60327945566269 1.8000000000000007
   vertex 31.22566666171177 63.60327945566277 1.4400000000000004
  endloop
 endfacet
 facet normal -0.12277539984319993 2.0029960119283532e-09 -0.9924344820658653
  outer loop
   vertex 31.225666186511013 34.475431674193295 1.4400000000000004
   vertex 28.31566666171177 63.603279455662765 1.8000000000000007
   vertex 31.22566666171177 63.60327945566277 1.4400000000000004
  endloop
 endfacet
 facet normal -0.12277539984319998 2.0029960102448447e-09 -0.9924344820658654
  outer loop
   vertex 28.315666301124942 41.500793103428656 1.8000000000000007
   vertex 28.31566666171177 63.603279455662765 1.8000000000000007
   vertex 31.225666186511013 34.475431674193295 1.4400000000000004
  endloop
 endfacet
 facet normal 0.08681531846784571 0.0868153171161872 -0.9924344820658653
  outer loop
   vertex 2.0978188585434348 63.60327945566267 1.4400000000000004
   vertex 28.315666301124942 41.500793103428656 1.8000000000000007
   vertex 31.225666186511013 34.475431674193295 1.4400000000000004
  endloop
 endfacet
 facet normal 0.08681531846784572 0.08681531711618722 -0.9924344820658652
  outer loop
   vertex 6.213180293012365 63.60327945566269 1.8000000000000007
   vertex 28.315666301124942 41.500793103428656 1.8000000000000007
   vertex 2.0978188585434348 63.60327945566267 1.4400000000000004
  endloop
 endfacet
 facet normal -0.0 0.0 1.0
  outer loop
   vertex 4.257667329018797 64.41327945566267 2.3400000000000007
   vertex 29.125666269222094 39.54528012828067 2.3400000000000007
   vertex 29.12566667492636 64.41327945566276 2.3400000000000007
  endloop
 endfacet
 facet normal 0.0 0.0 -1.0
  outer loop
   vertex 6.213180293012365 63.60327945566269 1.8000000000000007
   vertex 28.31566666171177 63.603279455662765 1.8000000000000007
   vertex 28.315666301124942 41.500793103428656 1.8000000000000007
  endloop
 endfacet
 facet normal 0.0 0.0 -1.0
  outer loop
   vertex 32.03566667492637 64.41327945566277 1.4400000000000004
   vertex 2.0978188585434348 63.60327945566267 1.4400000000000004
   vertex 0.14230589454986667 64.41327945566266 1.4400000000000004
  endloop
 endfacet
 facet normal -0.0 0.0 -1.0
  outer loop
   vertex 31.22566666171177 63.60327945566277 1.4400000000000004
   vertex 2.0978188585434348 63.60327945566267 1.4400000000000004
   vertex 32.03566667492637 64.41327945566277 1.4400000000000004
  endloop
 endfacet
 facet normal 0.0 0.0 -1.0
  outer loop
   vertex 32.035666154608165 32.5199186990453 1.4400000000000004
   vertex 31.22566666171177 63.60327945566277 1.4400000000000004
   vertex 32.03566667492637 64.41327945566277 1.4400000000000004
  endloop
 endfacet
 facet normal 0.0 0.0 -1.0
  outer loop
   vertex 31.225666186511013 34.475431674193295 1.4400000000000004
   vertex 31.22566666171177 63.60327945566277 1.4400000000000004
   vertex 32.035666154608165 32.5199186990453 1.4400000000000004
  endloop
 endfacet
 facet normal 0.0 0.0 -1.0
  outer loop
   vertex 0.14230589454986667 64.41327945566266 1.4400000000000004
   vertex 31.225666186511013 34.475431674193295 1.4400000000000004
   vertex 32.035666154608165 32.5199186990453 1.4400000000000004
  endloop
 endfacet
 facet normal -0.0 -0.0 -1.0
  outer loop
   vertex 2.0978188585434348 63.60327945566267 1.4400000000000004
   vertex 31.225666186511013 34.475431674193295 1.4400000000000004
   vertex 0.14230589454986667 64.41327945566266 1.4400000000000004
  endloop
 endfacet
 facet normal 0.0 0.0 -1.0
  outer loop
   vertex 0.015026674942670099 4.4346401789871885 0
   vertex 0.015026674942670099 60.170638735500226 0
   vertex 27.883025498551994 32.30263947800412 0
  endloop
 endfacet
 facet normal 0.0 0.0 1.0
  outer loop
   vertex 0.8250266749426701 6.390153188098207 0.54
   vertex 26.737512522373915 32.30263947757744 0.54
   vertex 0.8250266749426701 58.215125728449394 0.54
  endloop
 endfacet
 facet normal -1.0 0.0 0.0
  outer loop
   vertex 0.015026674942670099 60.170638735500226 0
   vertex 0.015026674942670099 4.4346401789871885 0
   vertex 0.015026674942670099 0.31927867737895993 0.9000000000000002
  endloop
 endfacet
 facet normal -1.0 -0.0 0.0
  outer loop
   vertex 0.015026674942670099 64.28600023404269 0.9000000000000002
   vertex 0.015026674942670099 60.170638735500226 0
   vertex 0.015026674942670099 0.31927867737895993 0.9000000000000002
  endloop
 endfacet
 facet normal 0.2089286463399468 0.20892864308706244 -0.9553521041146853
  outer loop
   vertex 27.883025498551994 32.30263947800412 0
   vertex 0.015026674942670099 60.170638735500226 0
   vertex 0.015026674942670099 64.28600023404269 0.9000000000000002
  endloop
 endfacet
 facet normal 0.2089286463399468 0.20892864308706244 -0.9553521041146851
  outer loop
   vertex 31.998386931488056 32.30263947953699 0.9000000000000002
   vertex 27.883025498551994 32.30263947800412 0
   vertex 0.015026674942670099 64.28600023404269 0.9000000000000002
  endloop
 endfacet
 facet normal 0.20892864649558873 -0.20892864293141944 -0.9553521041146855
  outer loop
   vertex 0.015026674942670099 4.4346401789871885 0
   vertex 27.883025498551994 32.30263947800412 0
   vertex 31.998386931488056 32.30263947953699 0.9000000000000002
  endloop
 endfacet
 facet normal 0.20892864649558898 -0.20892864293141972 -0.9553521041146852
  outer loop
   vertex 0.015026674942670099 0.31927867737895993 0.9000000000000002
   vertex 0.015026674942670099 4.4346401789871885 0
   vertex 31.998386931488056 32.30263947953699 0.9000000000000002
  endloop
 endfacet
 facet normal 1.0 0.0 0.0
  outer loop
   vertex 0.8250266749426701 58.215125728449394 0.54
   vertex 0.8250266749426701 2.2747916864899778 0.9000000000000002
   vertex 0.8250266749426701 6.390153188098207 0.54
  endloop
 endfacet
 facet normal 1.0 0.0 0.0
  outer loop
   vertex 0.8250266749426701 62.33048722699186 0.9000000000000002
   vertex 0.8250266749426701 2.2747916864899778 0.9000000000000002
   vertex 0.8250266749426701 58.215125728449394 0.54
  endloop
 endfacet
 facet normal -0.08681531846784576 -0.08681531711618722 0.9924344820658654
  outer loop
   vertex 26.737512522373915 32.30263947757744 0.54
   vertex 0.8250266749426701 62.33048722699186 0.9000000000000002
   vertex 0.8250266749426701 58.215125728449394 0.54
  endloop
 endfacet
 facet normal -0.08681531846784585 -0.08681531711618728 0.9924344820658653
  outer loop
   vertex 30.852873955309978 32.30263947911032 0.9000000000000002
   vertex 0.8250266749426701 62.33048722699186 0.9000000000000002
   vertex 26.737512522373915 32.30263947757744 0.54
  endloop
 endfacet
 facet normal -0.08681531853251914 0.08681531705151353 0.9924344820658653
  outer loop
   vertex 0.8250266749426701 6.390153188098207 0.54
   vertex 30.852873955309978 32.30263947911032 0.9000000000000002
   vertex 26.737512522373915 32.30263947757744 0.54
  endloop
 endfacet
 facet normal -0.08681531853251925 0.08681531705151366 0.9924344820658654
  outer loop
   vertex 0.8250266749426701 2.2747916864899778 0.9000000000000002
   vertex 30.852873955309978 32.30263947911032 0.9000000000000002
   vertex 0.8250266749426701 6.390153188098207 0.54
  endloop
 endfacet
 facet normal 0.0 0.0 1.0
  outer loop
   vertex 0.015026674942670099 64.28600023404269 0.9000000000000002
   vertex 0.015026674942670099 0.31927867737895993 0.9000000000000002
   vertex 0.8250266749426701 2.2747916864899778 0.9000000000000002
  endloop
 endfacet
 facet normal 0.0 0.0 1.0
  outer loop
   vertex 0.8250266749426701 62.33048722699186 0.9000000000000002
   vertex 0.015026674942670099 64.28600023404269 0.9000000000000002
   vertex 0.8250266749426701 2.2747916864899778 0.9000000000000002
  endloop
 endfacet
 facet normal 0.0 0.0 1.0
  outer loop
   vertex 31.998386931488056 32.30263947953699 0.9000000000000002
   vertex 0.015026674942670099 64.28600023404269 0.9000000000000002
   vertex 0.8250266749426701 62.33048722699186 0.9000000000000002
  endloop
 endfacet
 facet normal 0.0 -0.0 1.0
  outer loop
   vertex 30.852873955309978 32.30263947911032 0.9000000000000002
   vertex 31.998386931488056 32.30263947953699 0.9000000000000002
   vertex 0.8250266749426701 62.33048722699186 0.9000000000000002
  endloop
 endfacet
 facet normal 0.0 0.0 1.0
  outer loop
   vertex 0.015026674942670099 0.31927867737895993 0.9000000000000002
   vertex 31.998386931488056 32.30263947953699 0.9000000000000002
   vertex 30.852873955309978 32.30263947911032 0.9000000000000002
  endloop
 endfacet
 facet normal -0.0 0.0 1.0
  outer loop
   vertex 0.8250266749426701 2.2747916864899778 0.9000000000000002
   vertex 0.015026674942670099 0.31927867737895993 0.9000000000000002
   vertex 30.852873955309978 32.30263947911032 0.9000000000000002
  endloop
 endfacet
 facet normal -1.0 0.0 0.0
  outer loop
   vertex 0.015026674942670099 64.28600023404269 1.4400000000000004
   vertex 0.015026674942670099 0.31927867737895993 1.4400000000000004
   vertex 0.015026674942670099 4.4346401789871885 2.3400000000000007
  endloop
 endfacet
 facet normal -1.0 -0.0 -0.0
  outer loop
   vertex 0.015026674942670099 60.170638735500226 2.3400000000000007
   vertex 0.015026674942670099 64.28600023404269 1.4400000000000004
   vertex 0.015026674942670099 4.4346401789871885 2.3400000000000007
  endloop
 endfacet
 facet normal 0.2089286463399468 0.20892864308706244 0.9553521041146851
  outer loop
   vertex 31.998386931488056 32.30263947953699 1.4400000000000004
   vertex 0.015026674942670099 64.28600023404269 1.4400000000000004
   vertex 0.015026674942670099 60.170638735500226 2.3400000000000007
  endloop
 endfacet
 facet normal 0.20892864633994687 0.2089286430870625 0.9553521041146852
  outer loop
   vertex 27.883025498551994 32.30263947800412 2.3400000000000007
   vertex 31.998386931488056 32.30263947953699 1.4400000000000004
   vertex 0.015026674942670099 60.170638735500226 2.3400000000000007
  endloop
 endfacet
 facet normal 0.20892864649558893 -0.20892864293141966 0.9553521041146854
  outer loop
   vertex 0.015026674942670099 0.31927867737895993 1.4400000000000004
   vertex 31.998386931488056 32.30263947953699 1.4400000000000004
   vertex 27.883025498551994 32.30263947800412 2.3400000000000007
  endloop
 endfacet
 facet normal 0.20892864649558907 -0.20892864293141974 0.9553521041146853
  outer loop
   vertex 0.015026674942670099 4.4346401789871885 2.3400000000000007
   vertex 0.015026674942670099 0.31927867737895993 1.4400000000000004
   vertex 27.883025498551994 32.30263947800412 2.3400000000000007
  endloop
 endfacet
 facet normal 1.0 0.0 0.0
  outer loop
   vertex 0.8250266749426701 62.33048722699186 1.4400000000000004
   vertex 0.8250266749426701 6.390153188098207 1.8000000000000007
   vertex 0.8250266749426701 2.2747916864899778 1.4400000000000004
  endloop
 endfacet
 facet normal 1.0 0.0 0.0
  outer loop
   vertex 0.8250266749426701 58.215125728449394 1.8000000000000007
   vertex 0.8250266749426701 6.390153188098207 1.8000000000000007
   vertex 0.8250266749426701 62.33048722699186 1.4400000000000004
  endloop
 endfacet
 facet normal -0.0868153184678458 -0.08681531711618724 -0.9924344820658653
  outer loop
   vertex 30.852873955309978 32.30263947911032 1.4400000000000004
   vertex 0.8250266749426701 58.215125728449394 1.8000000000000007
   vertex 0.8250266749426701 62.33048722699186 1.4400000000000004
  endloop
 endfacet
 facet normal -0.08681531846784588 -0.08681531711618734 -0.9924344820658654
  outer loop
   vertex 26.737512522373915 32.30263947757744 1.8000000000000007
   vertex 0.8250266749426701 58.215125728449394 1.8000000000000007
   vertex 30.852873955309978 32.30263947911032 1.4400000000000004
  endloop
 endfacet
 facet normal -0.08681531853251918 0.08681531705151359 -0.9924344820658654
  outer loop
   vertex 0.8250266749426701 2.2747916864899778 1.4400000000000004
   vertex 26.737512522373915 32.30263947757744 1.8000000000000007
   vertex 30.852873955309978 32.30263947911032 1.4400000000000004
  endloop
 endfacet
 facet normal -0.08681531853251928 0.08681531705151367 -0.9924344820658653
  outer loop
   vertex 0.8250266749426701 6.390153188098207 1.8000000000000007
   vertex 26.737512522373915 32.30263947757744 1.8000000000000007
   vertex 0.8250266749426701 2.2747916864899778 1.4400000000000004
  endloop
 endfacet
 facet normal 0.0 0.0 1.0
  outer loop
   vertex 0.015026674942670099 4.4346401789871885 2.3400000000000007
   vertex 27.883025498551994 32.30263947800412 2.3400000000000007
   vertex 0.015026674942670099 60.170638735500226 2.3400000000000007
  endloop
 endfacet
 facet normal 0.0 0.0 -1.0
  outer loop
   vertex 0.8250266749426701 6.390153188098207 1.8000000000000007
   vertex 0.8250266749426701 58.215125728449394 1.8000000000000007
   vertex 26.737512522373915 32.30263947757744 1.8000000000000007
  endloop
 endfacet
 facet normal 0.0 0.0 -1.0
  outer loop
   vertex 0.015026674942670099 64.28600023404269 1.4400000000000004
   vertex 0.8250266749426701 2.2747916864899778 1.4400000000000004
   vertex 0.015026674942670099 0.31927867737895993 1.4400000000000004
  endloop
 endfacet
 facet normal -0.0 -0.0 -1.0
  outer loop
   vertex 0.8250266749426701 62.33048722699186 1.4400000000000004
   vertex 0.8250266749426701 2.2747916864899778 1.4400000000000004
   vertex 0.015026674942670099 64.28600023404269 1.4400000000000004
  endloop
 endfacet
 facet normal 0.0 0.0 -1.0
  outer loop
   vertex 31.998386931488056 32.30263947953699 1.4400000000000004
   vertex 0.8250266749426701 62.33048722699186 1.4400000000000004
   vertex 0.015026674942670099 64.28600023404269 1.4400000000000004
  endloop
 endfacet
 facet normal 0.0 0.0 -1.0
  outer loop
   vertex 30.852873955309978 32.30263947911032 1.4400000000000004
   vertex 0.8250266749426701 62.33048722699186 1.4400000000000004
   vertex 31.998386931488056 32.30263947953699 1.4400000000000004
  endloop
 endfacet
 facet normal 0.0 0.0 -1.0
  outer loop
   vertex 0.015026674942670099 0.31927867737895993 1.4400000000000004
   vertex 30.852873955309978 32.30263947911032 1.4400000000000004
   vertex 31.998386931488056 32.30263947953699 1.4400000000000004
  endloop
 endfacet
 facet normal 0.0 -0.0 -1.0
  outer loop
   vertex 0.8250266749426701 2.2747916864899778 1.4400000000000004
   vertex 30.852873955309978 32.30263947911032 1.4400000000000004
   vertex 0.015026674942670099 0.31927867737895993 1.4400000000000004
  endloop
 endfacet
 facet normal 0.0 0.0 -1.0
  outer loop
   vertex 35.125666674926364 64.4132794568182 0
   vertex 94.23630604626176 64.41327947958413 0
   vertex 94.23630614127214 35.30263947958441 0
  endloop
 endfacet
 facet normal 0.0 -0.0 -1.0
  outer loop
   vertex 35.125666674926364 64.4132794568182 0
   vertex 94.23630614127214 35.30263947958441 0
   vertex 35.12566620000634 35.30263947958441 0
  endloop
 endfacet
 facet normal -0.0 0.0 1.0
  outer loop
   vertex 35.93566666171178 63.603279457130164 0.54
   vertex 93.42630613862848 36.11263947958441 0.54
   vertex 93.42630604890542 63.60327947927218 0.54
  endloop
 endfacet
 facet normal 0.0 0.0 1.0
  outer loop
   vertex 35.93566666171178 63.603279457130164 0.54
   vertex 35.93566621322093 36.11263947958441 0.54
   vertex 93.42630613862848 36.11263947958441 0.54
  endloop
 endfacet
 facet normal -3.8514101022126107e-10 1.0 7.932311072882496e-15
  outer loop
   vertex 94.23630604626176 64.41327947958413 0
   vertex 35.125666674926364 64.4132794568182 0
   vertex 32.21566667492636 64.41327945569743 0.9000000000000002
  endloop
 endfacet
 facet normal -3.851411253293934e-10 1.0 0.0
  outer loop
   vertex 94.23630604626176 64.41327947958413 0.9000000000000002
   vertex 94.23630604626176 64.41327947958413 0
   vertex 32.21566667492636 64.41327945569743 0.9000000000000002
  endloop
 endfacet
 facet normal 1.0 3.263768100995531e-09 0.0
  outer loop
   vertex 94.23630614127214 35.30263947958441 0
   vertex 94.23630604626176 64.41327947958413 0
   vertex 94.23630604626176 64.41327947958413 0.9000000000000002
  endloop
 endfacet
 facet normal 1.0 3.263768219032629e-09 -3.817928273739926e-15
  outer loop
   vertex 94.2363061507697 32.39263947958441 0.9000000000000002
   vertex 94.23630614127214 35.30263947958441 0
   vertex 94.23630604626176 64.41327947958413 0.9000000000000002
  endloop
 endfacet
 facet normal 0.0 -0.295469722922068 -0.9553521041146852
  outer loop
   vertex 35.12566620000634 35.30263947958441 0
   vertex 94.23630614127214 35.30263947958441 0
   vertex 94.2363061507697 32.39263947958441 0.9000000000000002
  endloop
 endfacet
 facet normal 0.0 -0.295469722922068 -0.9553521041146852
  outer loop
   vertex 32.21566615253169 32.39263947958441 0.9000000000000002
   vertex 35.12566620000634 35.30263947958441 0
   vertex 94.2363061507697 32.39263947958441 0.9000000000000002
  endloop
 endfacet
 facet normal -0.29546972292206675 4.820384824304542e-09 -0.9553521041146855
  outer loop
   vertex 35.125666674926364 64.4132794568182 0
   vertex 35.12566620000634 35.30263947958441 0
   vertex 32.21566615253169 32.39263947958441 0.9000000000000002
  endloop
 endfacet
 facet normal -0.29546972292206736 4.820384881915765e-09 -0.9553521041146854
  outer loop
   vertex 32.21566667492636 64.41327945569743 0.9000000000000002
   vertex 35.125666674926364 64.4132794568182 0
   vertex 32.21566615253169 32.39263947958441 0.9000000000000002
  endloop
 endfacet
 facet normal 3.851412722645209e-10 -1.0 2.0247035500358925e-15
  outer loop
   vertex 93.42630604890542 63.60327947927218 0.54
   vertex 33.025666661711774 63.6032794560094 0.9000000000000002
   vertex 35.93566666171178 63.603279457130164 0.54
  endloop
 endfacet
 facet normal 3.851412601968791e-10 -1.0 0.0
  outer loop
   vertex 93.42630604890542 63.60327947927218 0.9000000000000002
   vertex 33.025666661711774 63.6032794560094 0.9000000000000002
   vertex 93.42630604890542 63.60327947927218 0.54
  endloop
 endfacet
 facet normal -1.0 -3.2637675661801696e-09 0.0
  outer loop
   vertex 93.42630613862848 36.11263947958441 0.54
   vertex 93.42630604890542 63.60327947927218 0.9000000000000002
   vertex 93.42630604890542 63.60327947927218 0.54
  endloop
 endfacet
 facet normal -1.0 -3.263767741700688e-09 1.3403253810335854e-14
  outer loop
   vertex 93.42630614812605 33.202639479584406 0.9000000000000002
   vertex 93.42630604890542 63.60327947927218 0.9000000000000002
   vertex 93.42630613862848 36.11263947958441 0.54
  endloop
 endfacet
 facet normal -0.0 0.12277539984319975 0.9924344820658654
  outer loop
   vertex 35.93566621322093 36.11263947958441 0.54
   vertex 93.42630614812605 33.202639479584406 0.9000000000000002
   vertex 93.42630613862848 36.11263947958441 0.54
  endloop
 endfacet
 facet normal -0.0 0.12277539984319977 0.9924344820658654
  outer loop
   vertex 33.02566616574629 33.202639479584406 0.9000000000000002
   vertex 93.42630614812605 33.202639479584406 0.9000000000000002
   vertex 35.93566621322093 36.11263947958441 0.54
  endloop
 endfacet
 facet normal 0.12277539984320014 -2.0029960623773994e-09 0.9924344820658653
  outer loop
   vertex 35.93566666171178 63.603279457130164 0.54
   vertex 33.02566616574629 33.202639479584406 0.9000000000000002
   vertex 35.93566621322093 36.11263947958441 0.54
  endloop
 endfacet
 facet normal 0.12277539984319977 -2.0029960245755105e-09 0.9924344820658654
  outer loop
   vertex 33.025666661711774 63.6032794560094 0.9000000000000002
   vertex 33.02566616574629 33.202639479584406 0.9000000000000002
   vertex 35.93566666171178 63.603279457130164 0.54
  endloop
 endfacet
 facet normal 0.0 0.0 1.0
  outer loop
   vertex 94.23630604626176 64.41327947958413 0.9000000000000002
   vertex 32.21566667492636 64.41327945569743 0.9000000000000002
   vertex 33.025666661711774 63.6032794560094 0.9000000000000002
  endloop
 endfacet
 facet normal 0.0 -0.0 1.0
  outer loop
   vertex 93.42630604890542 63.60327947927218 0.9000000000000002
   vertex 94.23630604626176 64.41327947958413 0.9000000000000002
   vertex 33.025666661711774 63.6032794560094 0.9000000000000002
  endloop
 endfacet
 facet normal 0.0 0.0 1.0
  outer loop
   vertex 94.2363061507697 32.39263947958441 0.9000000000000002
   vertex 94.23630604626176 64.41327947958413 0.9000000000000002
   vertex 93.42630604890542 63.60327947927218 0.9000000000000002
  endloop
 endfacet
 facet normal -0.0 -0.0 1.0
  outer loop
   vertex 93.42630614812605 33.202639479584406 0.9000000000000002
   vertex 94.2363061507697 32.39263947958441 0.9000000000000002
   vertex 93.42630604890542 63.60327947927218 0.9000000000000002
  endloop
 endfacet
 facet normal 0.0 0.0 1.0
  outer loop
   vertex 32.21566615253169 32.39263947958441 0.9000000000000002
   vertex 94.2363061507697 32.39263947958441 0.9000000000000002
   vertex 93.42630614812605 33.202639479584406 0.9000000000000002
  endloop
 endfacet
 facet normal -0.0 0.0 1.0
  outer loop
   vertex 33.02566616574629 33.202639479584406 0.9000000000000002
   vertex 32.21566615253169 32.39263947958441 0.9000000000000002
   vertex 93.42630614812605 33.202639479584406 0.9000000000000002
  endloop
 endfacet
 facet normal 0.0 0.0 1.0
  outer loop
   vertex 32.21566667492636 64.41327945569743 0.9000000000000002
   vertex 32.21566615253169 32.39263947958441 0.9000000000000002
   vertex 33.02566616574629 33.202639479584406 0.9000000000000002
  endloop
 endfacet
 facet normal 0.0 0.0 1.0
  outer loop
   vertex 33.025666661711774 63.6032794560094 0.9000000000000002
   vertex 32.21566667492636 64.41327945569743 0.9000000000000002
   vertex 33.02566616574629 33.202639479584406 0.9000000000000002
  endloop
 endfacet
 facet normal -3.8514112532939337e-10 1.0 -7.56012811159628e-15
  outer loop
   vertex 94.23630604626176 64.41327947958413 1.4400000000000004
   vertex 32.21566667492636 64.41327945569743 1.4400000000000004
   vertex 35.125666674926364 64.4132794568182 2.3400000000000007
  endloop
 endfacet
 facet normal -3.85141010221261e-10 1.0 0.0
  outer loop
   vertex 94.23630604626176 64.41327947958413 2.3400000000000007
   vertex 94.23630604626176 64.41327947958413 1.4400000000000004
   vertex 35.125666674926364 64.4132794568182 2.3400000000000007
  endloop
 endfacet
 facet normal 1.0 3.263768219032629e-09 0.0
  outer loop
   vertex 94.2363061507697 32.39263947958441 1.4400000000000004
   vertex 94.23630604626176 64.41327947958413 1.4400000000000004
   vertex 94.23630604626176 64.41327947958413 2.3400000000000007
  endloop
 endfacet
 facet normal 1.0 3.2637681009955313e-09 4.199581557055064e-15
  outer loop
   vertex 94.23630614127214 35.30263947958441 2.3400000000000007
   vertex 94.2363061507697 32.39263947958441 1.4400000000000004
   vertex 94.23630604626176 64.41327947958413 2.3400000000000007
  endloop
 endfacet
 facet normal 0.0 -0.295469722922068 0.9553521041146852
  outer loop
   vertex 32.21566615253169 32.39263947958441 1.4400000000000004
   vertex 94.2363061507697 32.39263947958441 1.4400000000000004
   vertex 94.23630614127214 35.30263947958441 2.3400000000000007
  endloop
 endfacet
 facet normal 0.0 -0.2954697229220681 0.9553521041146852
  outer loop
   vertex 35.12566620000634 35.30263947958441 2.3400000000000007
   vertex 32.21566615253169 32.39263947958441 1.4400000000000004
   vertex 94.23630614127214 35.30263947958441 2.3400000000000007
  endloop
 endfacet
 facet normal -0.29546972292206686 4.820384881915757e-09 0.9553521041146856
  outer loop
   vertex 32.21566667492636 64.41327945569743 1.4400000000000004
   vertex 32.21566615253169 32.39263947958441 1.4400000000000004
   vertex 35.12566620000634 35.30263947958441 2.3400000000000007
  endloop
 endfacet
 facet normal -0.2954697229220674 4.820384824304553e-09 0.9553521041146854
  outer loop
   vertex 35.125666674926364 64.4132794568182 2.3400000000000007
   vertex 32.21566667492636 64.41327945569743 1.4400000000000004
   vertex 35.12566620000634 35.30263947958441 2.3400000000000007
  endloop
 endfacet
 facet normal 3.851412601968791e-10 -1.0 -1.9271567791675412e-15
  outer loop
   vertex 93.42630604890542 63.60327947927218 1.4400000000000004
   vertex 35.93566666171178 63.603279457130164 1.8000000000000007
   vertex 33.025666661711774 63.6032794560094 1.4400000000000004
  endloop
 endfacet
 facet normal 3.8514127226452087e-10 -1.0 0.0
  outer loop
   vertex 93.42630604890542 63.60327947927218 1.8000000000000007
   vertex 35.93566666171178 63.603279457130164 1.8000000000000007
   vertex 93.42630604890542 63.60327947927218 1.4400000000000004
  endloop
 endfacet
 facet normal -1.0 -3.2637677417006875e-09 0.0
  outer loop
   vertex 93.42630614812605 33.202639479584406 1.4400000000000004
   vertex 93.42630604890542 63.60327947927218 1.8000000000000007
   vertex 93.42630604890542 63.60327947927218 1.4400000000000004
  endloop
 endfacet
 facet normal -1.0 -3.263767566180169e-09 -1.48220446691727e-14
  outer loop
   vertex 93.42630613862848 36.11263947958441 1.8000000000000007
   vertex 93.42630604890542 63.60327947927218 1.8000000000000007
   vertex 93.42630614812605 33.202639479584406 1.4400000000000004
  endloop
 endfacet
 facet normal 0.0 0.12277539984319978 -0.9924344820658653
  outer loop
   vertex 33.02566616574629 33.202639479584406 1.4400000000000004
   vertex 93.42630613862848 36.11263947958441 1.8000000000000007
   vertex 93.42630614812605 33.202639479584406 1.4400000000000004
  endloop
 endfacet
 facet normal 0.0 0.1227753998431998 -0.9924344820658654
  outer loop
   vertex 35.93566621322093 36.11263947958441 1.8000000000000007
   vertex 93.42630613862848 36.11263947958441 1.8000000000000007
   vertex 33.02566616574629 33.202639479584406 1.4400000000000004
  endloop
 endfacet
 facet normal 0.12277539984320014 -2.0029960245755167e-09 -0.9924344820658653
  outer loop
   vertex 33.025666661711774 63.6032794560094 1.4400000000000004
   vertex 35.93566621322093 36.11263947958441 1.8000000000000007
   vertex 33.02566616574629 33.202639479584406 1.4400000000000004
  endloop
 endfacet
 facet normal 0.1227753998431998 -2.002996062377394e-09 -0.9924344820658655
  outer loop
   vertex 35.93566666171178 63.603279457130164 1.8000000000000007
   vertex 35.93566621322093 36.11263947958441 1.8000000000000007
   vertex 33.025666661711774 63.6032794560094 1.4400000000000004
  endloop
 endfacet
 facet normal -0.0 0.0 1.0
  outer loop
   vertex 35.125666674926364 64.4132794568182 2.3400000000000007
   vertex 94.23630614127214 35.30263947958441 2.3400000000000007
   vertex 94.23630604626176 64.41327947958413 2.3400000000000007
  endloop
 endfacet
 facet normal 0.0 0.0 1.0
  outer loop
   vertex 35.125666674926364 64.4132794568182 2.3400000000000007
   vertex 35.12566620000634 35.30263947958441 2.3400000000000007
   vertex 94.23630614127214 35.30263947958441 2.3400000000000007
  endloop
 endfacet
 facet normal 0.0 0.0 -1.0
  outer loop
   vertex 35.93566666171178 63.603279457130164 1.8000000000000007
   vertex 93.42630604890542 63.60327947927218 1.8000000000000007
   vertex 93.42630613862848 36.11263947958441 1.8000000000000007
  endloop
 endfacet
 facet normal 0.0 -0.0 -1.0
  outer loop
   vertex 35.93566666171178 63.603279457130164 1.8000000000000007
   vertex 93.42630613862848 36.11263947958441 1.8000000000000007
   vertex 35.93566621322093 36.11263947958441 1.8000000000000007
  endloop
 endfacet
 facet normal 0.0 0.0 -1.0
  outer loop
   vertex 94.23630604626176 64.41327947958413 1.4400000000000004
   vertex 33.025666661711774 63.6032794560094 1.4400000000000004
   vertex 32.21566667492636 64.41327945569743 1.4400000000000004
  endloop
 endfacet
 facet normal -0.0 0.0 -1.0
  outer loop
   vertex 93.42630604890542 63.60327947927218 1.4400000000000004
   vertex 33.025666661711774 63.6032794560094 1.4400000000000004
   vertex 94.23630604626176 64.41327947958413 1.4400000000000004
  endloop
 endfacet
 facet normal 0.0 0.0 -1.0
  outer loop
   vertex 94.2363061507697 32.39263947958441 1.4400000000000004
   vertex 93.42630604890542 63.60327947927218 1.4400000000000004
   vertex 94.23630604626176 64.41327947958413 1.4400000000000004
  endloop
 endfacet
 facet normal 0.0 0.0 -1.0
  outer loop
   vertex 93.42630614812605 33.202639479584406 1.4400000000000004
   vertex 93.42630604890542 63.60327947927218 1.4400000000000004
   vertex 94.2363061507697 32.39263947958441 1.4400000000000004
  endloop
 endfacet
 facet normal 0.0 0.0 -1.0
  outer loop
   vertex 32.21566615253169 32.39263947958441 1.4400000000000004
   vertex 93.42630614812605 33.202639479584406 1.4400000000000004
   vertex 94.2363061507697 32.39263947958441 1.4400000000000004
  endloop
 endfacet
 facet normal 0.0 -0.0 -1.0
  outer loop
   vertex 33.02566616574629 33.202639479584406 1.4400000000000004
   vertex 93.42630614812605 33.202639479584406 1.4400000000000004
   vertex 32.21566615253169 32.39263947958441 1.4400000000000004
  endloop
 endfacet
 facet normal 0.0 -0.0 -1.0
  outer loop
   vertex 32.21566667492636 64.41327945569743 1.4400000000000004
   vertex 33.02566616574629 33.202639479584406 1.4400000000000004
   vertex 32.21566615253169 32.39263947958441 1.4400000000000004
  endloop
 endfacet
 facet normal -0.0 0.0 -1.0
  outer loop
   vertex 33.025666661711774 63.6032794560094 1.4400000000000004
   vertex 33.02566616574629 33.202639479584406 1.4400000000000004
   vertex 32.21566667492636 64.41327945569743 1.4400000000000004
  endloop
 endfacet
 facet normal 0.0 0.0 -1.0
  outer loop
   vertex 35.125666074327995 29.302639479584403 0
   vertex 94.23630615106343 29.302639479584407 0
   vertex 94.23630615106343 0.19199945564945303 0
  endloop
 endfacet
 facet normal 0.0 -0.0 -1.0
  outer loop
   vertex 35.125666074327995 29.302639479584403 0
   vertex 94.23630615106343 0.19199945564945303 0
   vertex 35.12566532972239 0.19199867396824877 0
  endloop
 endfacet
 facet normal 0.0 0.0 1.0
  outer loop
   vertex 35.93566605360944 28.492639479584412 0.54
   vertex 93.42630615106343 1.0019994449379843 0.54
   vertex 93.42630615106343 28.49263947958441 0.54
  endloop
 endfacet
 facet normal 0.0 0.0 1.0
  outer loop
   vertex 35.93566605360944 28.492639479584412 0.54
   vertex 35.93566535044095 1.0019986846797178 0.54
   vertex 93.42630615106343 1.0019994449379843 0.54
  endloop
 endfacet
 facet normal -1.775855116665821e-17 0.29546972292206763 -0.9553521041146853
  outer loop
   vertex 94.23630615106343 29.302639479584407 0
   vertex 35.125666074327995 29.302639479584403 0
   vertex 32.215666148761336 32.2126394795844 0.9000000000000002
  endloop
 endfacet
 facet normal 0.0 0.295469722922068 -0.9553521041146852
  outer loop
   vertex 94.23630615106343 32.2126394795844 0.9000000000000002
   vertex 94.23630615106343 29.302639479584407 0
   vertex 32.215666148761336 32.2126394795844 0.9000000000000002
  endloop
 endfacet
 facet normal 1.0 0.0 0.0
  outer loop
   vertex 94.23630615106343 0.19199945564945303 0
   vertex 94.23630615106343 29.302639479584407 0
   vertex 94.23630615106343 32.2126394795844 0.9000000000000002
  endloop
 endfacet
 facet normal 1.0 -0.0 0.0
  outer loop
   vertex 94.23630615106343 0.19199945564945303 0.9000000000000002
   vertex 94.23630615106343 0.19199945564945303 0
   vertex 94.23630615106343 32.2126394795844 0.9000000000000002
  endloop
 endfacet
 facet normal 1.3224035358160119e-08 -1.0 0.0
  outer loop
   vertex 35.12566532972239 0.19199867396824877 0
   vertex 94.23630615106343 0.19199945564945303 0
   vertex 94.23630615106343 0.19199945564945303 0.9000000000000002
  endloop
 endfacet
 facet normal 1.3224035358446489e-08 -1.0 -1.8808457695483025e-17
  outer loop
   vertex 32.215665329722384 0.19199863548630586 0.9000000000000002
   vertex 35.12566532972239 0.19199867396824877 0
   vertex 94.23630615106343 0.19199945564945303 0.9000000000000002
  endloop
 endfacet
 facet normal -0.29546972292206747 7.557662985578641e-09 -0.9553521041146853
  outer loop
   vertex 35.125666074327995 29.302639479584403 0
   vertex 35.12566532972239 0.19199867396824877 0
   vertex 32.215665329722384 0.19199863548630586 0.9000000000000002
  endloop
 endfacet
 facet normal -0.29546972292206747 7.557662991561332e-09 -0.9553521041146853
  outer loop
   vertex 32.215666148761336 32.2126394795844 0.9000000000000002
   vertex 35.125666074327995 29.302639479584403 0
   vertex 32.215665329722384 0.19199863548630586 0.9000000000000002
  endloop
 endfacet
 facet normal -7.58707576926864e-18 -0.12277539984319993 0.9924344820658654
  outer loop
   vertex 93.42630615106343 28.49263947958441 0.54
   vertex 33.02566612804277 31.402639479584412 0.9000000000000002
   vertex 35.93566605360944 28.492639479584412 0.54
  endloop
 endfacet
 facet normal -7.221543385581552e-18 -0.1227753998431999 0.9924344820658654
  outer loop
   vertex 93.42630615106343 31.40263947958441 0.9000000000000002
   vertex 33.02566612804277 31.402639479584412 0.9000000000000002
   vertex 93.42630615106343 28.49263947958441 0.54
  endloop
 endfacet
 facet normal -1.0 0.0 0.0
  outer loop
   vertex 93.42630615106343 1.0019994449379843 0.54
   vertex 93.42630615106343 31.40263947958441 0.9000000000000002
   vertex 93.42630615106343 28.49263947958441 0.54
  endloop
 endfacet
 facet normal -1.0 0.0 0.0
  outer loop
   vertex 93.42630615106343 1.0019994449379843 0.9000000000000002
   vertex 93.42630615106343 31.40263947958441 0.9000000000000002
   vertex 93.42630615106343 1.0019994449379843 0.54
  endloop
 endfacet
 facet normal -1.3224035355596678e-08 1.0 0.0
  outer loop
   vertex 35.93566535044095 1.0019986846797178 0.54
   vertex 93.42630615106343 1.0019994449379843 0.9000000000000002
   vertex 93.42630615106343 1.0019994449379843 0.54
  endloop
 endfacet
 facet normal -1.3224035353257085e-08 1.0 -3.736241039210499e-16
  outer loop
   vertex 33.025665350440946 1.001998646197775 0.9000000000000002
   vertex 93.42630615106343 1.0019994449379843 0.9000000000000002
   vertex 35.93566535044095 1.0019986846797178 0.54
  endloop
 endfacet
 facet normal 0.12277539984319978 -3.1404066936769298e-09 0.9924344820658653
  outer loop
   vertex 35.93566605360944 28.492639479584412 0.54
   vertex 33.025665350440946 1.001998646197775 0.9000000000000002
   vertex 35.93566535044095 1.0019986846797178 0.54
  endloop
 endfacet
 facet normal 0.12277539984319957 -3.140406667369917e-09 0.9924344820658655
  outer loop
   vertex 33.02566612804277 31.402639479584412 0.9000000000000002
   vertex 33.025665350440946 1.001998646197775 0.9000000000000002
   vertex 35.93566605360944 28.492639479584412 0.54
  endloop
 endfacet
 facet normal 0.0 0.0 1.0
  outer loop
   vertex 94.23630615106343 32.2126394795844 0.9000000000000002
   vertex 32.215666148761336 32.2126394795844 0.9000000000000002
   vertex 33.02566612804277 31.402639479584412 0.9000000000000002
  endloop
 endfacet
 facet normal 0.0 -0.0 1.0
  outer loop
   vertex 93.42630615106343 31.40263947958441 0.9000000000000002
   vertex 94.23630615106343 32.2126394795844 0.9000000000000002
   vertex 33.02566612804277 31.402639479584412 0.9000000000000002
  endloop
 endfacet
 facet normal 0.0 -0.0 1.0
  outer loop
   vertex 94.23630615106343 0.19199945564945303 0.9000000000000002
   vertex 94.23630615106343 32.2126394795844 0.9000000000000002
   vertex 93.42630615106343 31.40263947958441 0.9000000000000002
  endloop
 endfacet
 facet normal -0.0 0.0 1.0
  outer loop
   vertex 93.42630615106343 1.0019994449379843 0.9000000000000002
   vertex 94.23630615106343 0.19199945564945303 0.9000000000000002
   vertex 93.42630615106343 31.40263947958441 0.9000000000000002
  endloop
 endfacet
 facet normal 0.0 0.0 1.0
  outer loop
   vertex 32.215665329722384 0.19199863548630586 0.9000000000000002
   vertex 94.23630615106343 0.19199945564945303 0.9000000000000002
   vertex 93.42630615106343 1.0019994449379843 0.9000000000000002
  endloop
 endfacet
 facet normal -0.0 0.0 1.0
  outer loop
   vertex 33.025665350440946 1.001998646197775 0.9000000000000002
   vertex 32.215665329722384 0.19199863548630586 0.9000000000000002
   vertex 93.42630615106343 1.0019994449379843 0.9000000000000002
  endloop
 endfacet
 facet normal 0.0 0.0 1.0
  outer loop
   vertex 32.215666148761336 32.2126394795844 0.9000000000000002
   vertex 32.215665329722384 0.19199863548630586 0.9000000000000002
   vertex 33.025665350440946 1.001998646197775 0.9000000000000002
  endloop
 endfacet
 facet normal 0.0 0.0 1.0
  outer loop
   vertex 33.02566612804277 31.402639479584412 0.9000000000000002
   vertex 32.215666148761336 32.2126394795844 0.9000000000000002
   vertex 33.025665350440946 1.001998646197775 0.9000000000000002
  endloop
 endfacet
 facet normal 0.0 0.29546972292206775 0.9553521041146853
  outer loop
   vertex 94.23630615106343 32.2126394795844 1.4400000000000004
   vertex 32.215666148761336 32.2126394795844 1.4400000000000004
   vertex 35.125666074327995 29.302639479584403 2.3400000000000007
  endloop
 endfacet
 facet normal -1.7758551166658232e-17 0.295469722922068 0.9553521041146852
  outer loop
   vertex 94.23630615106343 29.302639479584407 2.3400000000000007
   vertex 94.23630615106343 32.2126394795844 1.4400000000000004
   vertex 35.125666074327995 29.302639479584403 2.3400000000000007
  endloop
 endfacet
 facet normal 1.0 0.0 0.0
  outer loop
   vertex 94.23630615106343 0.19199945564945303 1.4400000000000004
   vertex 94.23630615106343 32.2126394795844 1.4400000000000004
   vertex 94.23630615106343 29.302639479584407 2.3400000000000007
  endloop
 endfacet
 facet normal 1.0 -0.0 0.0
  outer loop
   vertex 94.23630615106343 0.19199945564945303 2.3400000000000007
   vertex 94.23630615106343 0.19199945564945303 1.4400000000000004
   vertex 94.23630615106343 29.302639479584407 2.3400000000000007
  endloop
 endfacet
 facet normal 1.3224035358446489e-08 -1.0 0.0
  outer loop
   vertex 32.215665329722384 0.19199863548630586 1.4400000000000004
   vertex 94.23630615106343 0.19199945564945303 1.4400000000000004
   vertex 94.23630615106343 0.19199945564945303 2.3400000000000007
  endloop
 endfacet
 facet normal 1.3224035358160117e-08 -0.9999999999999999 1.9734392707070567e-17
  outer loop
   vertex 35.12566532972239 0.19199867396824877 2.3400000000000007
   vertex 32.215665329722384 0.19199863548630586 1.4400000000000004
   vertex 94.23630615106343 0.19199945564945303 2.3400000000000007
  endloop
 endfacet
 facet normal -0.2954697229220674 7.55766299156133e-09 0.9553521041146853
  outer loop
   vertex 32.215666148761336 32.2126394795844 1.4400000000000004
   vertex 32.215665329722384 0.19199863548630586 1.4400000000000004
   vertex 35.12566532972239 0.19199867396824877 2.3400000000000007
  endloop
 endfacet
 facet normal -0.2954697229220675 7.557662985578643e-09 0.9553521041146853
  outer loop
   vertex 35.125666074327995 29.302639479584403 2.3400000000000007
   vertex 32.215666148761336 32.2126394795844 1.4400000000000004
   vertex 35.12566532972239 0.19199867396824877 2.3400000000000007
  endloop
 endfacet
 facet normal -7.221543385581554e-18 -0.12277539984319995 -0.9924344820658654
  outer loop
   vertex 93.42630615106343 31.40263947958441 1.4400000000000004
   vertex 35.93566605360944 28.492639479584412 1.8000000000000007
   vertex 33.02566612804277 31.402639479584412 1.4400000000000004
  endloop
 endfacet
 facet normal -7.587075769268642e-18 -0.12277539984319996 -0.9924344820658654
  outer loop
   vertex 93.42630615106343 28.49263947958441 1.8000000000000007
   vertex 35.93566605360944 28.492639479584412 1.8000000000000007
   vertex 93.42630615106343 31.40263947958441 1.4400000000000004
  endloop
 endfacet
 facet normal -1.0 0.0 0.0
  outer loop
   vertex 93.42630615106343 1.0019994449379843 1.4400000000000004
   vertex 93.42630615106343 28.49263947958441 1.8000000000000007
   vertex 93.42630615106343 31.40263947958441 1.4400000000000004
  endloop
 endfacet
 facet normal -1.0 0.0 0.0
  outer loop
   vertex 93.42630615106343 1.0019994449379843 1.8000000000000007
   vertex 93.42630615106343 28.49263947958441 1.8000000000000007
   vertex 93.42630615106343 1.0019994449379843 1.4400000000000004
  endloop
 endfacet
 facet normal -1.3224035353257087e-08 1.0 0.0
  outer loop
   vertex 33.025665350440946 1.001998646197775 1.4400000000000004
   vertex 93.42630615106343 1.0019994449379843 1.8000000000000007
   vertex 93.42630615106343 1.0019994449379843 1.4400000000000004
  endloop
 endfacet
 facet normal -1.322403535559668e-08 1.0 3.9253579025528587e-16
  outer loop
   vertex 35.93566535044095 1.0019986846797178 1.8000000000000007
   vertex 93.42630615106343 1.0019994449379843 1.8000000000000007
   vertex 33.025665350440946 1.001998646197775 1.4400000000000004
  endloop
 endfacet
 facet normal 0.12277539984319982 -3.1404066673699236e-09 -0.9924344820658653
  outer loop
   vertex 33.02566612804277 31.402639479584412 1.4400000000000004
   vertex 35.93566535044095 1.0019986846797178 1.8000000000000007
   vertex 33.025665350440946 1.001998646197775 1.4400000000000004
  endloop
 endfacet
 facet normal 0.12277539984319957 -3.1404066936769244e-09 -0.9924344820658655
  outer loop
   vertex 35.93566605360944 28.492639479584412 1.8000000000000007
   vertex 35.93566535044095 1.0019986846797178 1.8000000000000007
   vertex 33.02566612804277 31.402639479584412 1.4400000000000004
  endloop
 endfacet
 facet normal -0.0 0.0 1.0
  outer loop
   vertex 35.125666074327995 29.302639479584403 2.3400000000000007
   vertex 94.23630615106343 0.19199945564945303 2.3400000000000007
   vertex 94.23630615106343 29.302639479584407 2.3400000000000007
  endloop
 endfacet
 facet normal 0.0 0.0 1.0
  outer loop
   vertex 35.125666074327995 29.302639479584403 2.3400000000000007
   vertex 35.12566532972239 0.19199867396824877 2.3400000000000007
   vertex 94.23630615106343 0.19199945564945303 2.3400000000000007
  endloop
 endfacet
 facet normal 0.0 0.0 -1.0
  outer loop
   vertex 35.93566605360944 28.492639479584412 1.8000000000000007
   vertex 93.42630615106343 28.49263947958441 1.8000000000000007
   vertex 93.42630615106343 1.0019994449379843 1.8000000000000007
  endloop
 endfacet
 facet normal 0.0 -0.0 -1.0
  outer loop
   vertex 35.93566605360944 28.492639479584412 1.8000000000000007
   vertex 93.42630615106343 1.0019994449379843 1.8000000000000007
   vertex 35.93566535044095 1.0019986846797178 1.8000000000000007
  endloop
 endfacet
 facet normal -0.0 0.0 -1.0
  outer loop
   vertex 94.23630615106343 32.2126394795844 1.4400000000000004
   vertex 33.02566612804277 31.402639479584412 1.4400000000000004
   vertex 32.215666148761336 32.2126394795844 1.4400000000000004
  endloop
 endfacet
 facet normal 0.0 0.0 -1.0
  outer loop
   vertex 93.42630615106343 31.40263947958441 1.4400000000000004
   vertex 33.02566612804277 31.402639479584412 1.4400000000000004
   vertex 94.23630615106343 32.2126394795844 1.4400000000000004
  endloop
 endfacet
 facet normal 0.0 0.0 -1.0
  outer loop
   vertex 94.23630615106343 0.19199945564945303 1.4400000000000004
   vertex 93.42630615106343 31.40263947958441 1.4400000000000004
   vertex 94.23630615106343 32.2126394795844 1.4400000000000004
  endloop
 endfacet
 facet normal 0.0 0.0 -1.0
  outer loop
   vertex 93.42630615106343 1.0019994449379843 1.4400000000000004
   vertex 93.42630615106343 31.40263947958441 1.4400000000000004
   vertex 94.23630615106343 0.19199945564945303 1.4400000000000004
  endloop
 endfacet
 facet normal 0.0 0.0 -1.0
  outer loop
   vertex 32.215665329722384 0.19199863548630586 1.4400000000000004
   vertex 93.42630615106343 1.0019994449379843 1.4400000000000004
   vertex 94.23630615106343 0.19199945564945303 1.4400000000000004
  endloop
 endfacet
 facet normal 0.0 -0.0 -1.0
  outer loop
   vertex 33.025665350440946 1.001998646197775 1.4400000000000004
   vertex 93.42630615106343 1.0019994449379843 1.4400000000000004
   vertex 32.215665329722384 0.19199863548630586 1.4400000000000004
  endloop
 endfacet
 facet normal 0.0 -0.0 -1.0
  outer loop
   vertex 32.215666148761336 32.2126394795844 1.4400000000000004
   vertex 33.025665350440946 1.001998646197775 1.4400000000000004
   vertex 32.215665329722384 0.19199863548630586 1.4400000000000004
  endloop
 endfacet
 facet normal -0.0 0.0 -1.0
  outer loop
   vertex 33.02566612804277 31.402639479584412 1.4400000000000004
   vertex 33.025665350440946 1.001998646197775 1.4400000000000004
   vertex 32.215666148761336 32.2126394795844 1.4400000000000004
  endloop
 endfacet
endsolid
