solid PyGamic generated __Board__ SLA File
 facet normal 0.0 0.0 -1.0
  outer loop
   vertex 1.5987263841680686 28.400000000000002 0
   vertex 36.680242242337684 28.400000000000002 0
   vertex 25.463525491562432 17.42658477444271 0
  endloop
 endfacet
 facet normal 0.0 0.0 -1.0
  outer loop
   vertex 36.680242242337684 28.400000000000002 0
   vertex 34.10501830528305 1.6 0
   vertex 26.50000000000001 15.99999999999998 0
  endloop
 endfacet
 facet normal 0.0 0.0 -1.0
  outer loop
   vertex 34.10501830528305 1.6 0
   vertex 1.577384821553687 1.6 0
   vertex 23.78647450843759 15.11832212156127 0
  endloop
 endfacet
 facet normal 0.0 0.0 -1.0
  outer loop
   vertex 1.577384821553687 1.6 0
   vertex 1.5987263841680686 28.400000000000002 0
   vertex 4.5 15.0 0
  endloop
 endfacet
 facet normal 0.0 0.0 -1.0
  outer loop
   vertex 26.50000000000001 15.99999999999998 0
   vertex 26.213525491562432 16.88167787843869 0
   vertex 36.680242242337684 28.400000000000002 0
  endloop
 endfacet
 facet normal 0.0 -0.0 -1.0
  outer loop
   vertex 26.50000000000001 15.99999999999998 0
   vertex 34.10501830528305 1.6 0
   vertex 26.213525491562432 15.11832212156127 0
  endloop
 endfacet
 facet normal 0.0 0.0 -1.0
  outer loop
   vertex 26.213525491562432 16.88167787843869 0
   vertex 25.463525491562432 17.42658477444271 0
   vertex 36.680242242337684 28.400000000000002 0
  endloop
 endfacet
 facet normal 0.0 0.0 -1.0
  outer loop
   vertex 25.463525491562432 17.42658477444271 0
   vertex 24.53647450843759 17.426584774442713 0
   vertex 1.5987263841680686 28.400000000000002 0
  endloop
 endfacet
 facet normal -0.0 0.0 -1.0
  outer loop
   vertex 24.53647450843759 17.426584774442713 0
   vertex 5.536474508437579 16.42658477444273 0
   vertex 1.5987263841680686 28.400000000000002 0
  endloop
 endfacet
 facet normal 0.0 0.0 -1.0
  outer loop
   vertex 24.53647450843759 17.426584774442713 0
   vertex 23.78647450843759 16.88167787843869 0
   vertex 1.577384821553687 1.6 0
  endloop
 endfacet
 facet normal 0.0 0.0 -1.0
  outer loop
   vertex 24.53647450843759 17.426584774442713 0
   vertex 1.577384821553687 1.6 0
   vertex 6.463525491562421 13.57341522555727 0
  endloop
 endfacet
 facet normal 0.0 0.0 -1.0
  outer loop
   vertex 24.53647450843759 17.426584774442713 0
   vertex 7.213525491562421 14.11832212156129 0
   vertex 7.5 15.0 0
  endloop
 endfacet
 facet normal 0.0 0.0 -1.0
  outer loop
   vertex 24.53647450843759 17.426584774442713 0
   vertex 7.5 15.0 0
   vertex 7.213525491562422 15.88167787843871 0
  endloop
 endfacet
 facet normal 0.0 0.0 -1.0
  outer loop
   vertex 24.53647450843759 17.426584774442713 0
   vertex 7.213525491562422 15.88167787843871 0
   vertex 6.463525491562422 16.42658477444273 0
  endloop
 endfacet
 facet normal 0.0 0.0 -1.0
  outer loop
   vertex 24.53647450843759 17.426584774442713 0
   vertex 6.463525491562422 16.42658477444273 0
   vertex 5.536474508437579 16.42658477444273 0
  endloop
 endfacet
 facet normal 0.0 0.0 -1.0
  outer loop
   vertex 24.53647450843759 17.426584774442713 0
   vertex 6.463525491562421 13.57341522555727 0
   vertex 7.213525491562421 14.11832212156129 0
  endloop
 endfacet
 facet normal 0.0 0.0 -1.0
  outer loop
   vertex 23.78647450843759 16.88167787843869 0
   vertex 23.50000000000001 15.99999999999998 0
   vertex 1.577384821553687 1.6 0
  endloop
 endfacet
 facet normal 0.0 -0.0 -1.0
  outer loop
   vertex 23.50000000000001 15.99999999999998 0
   vertex 23.78647450843759 15.11832212156127 0
   vertex 1.577384821553687 1.6 0
  endloop
 endfacet
 facet normal 0.0 0.0 -1.0
  outer loop
   vertex 23.78647450843759 15.11832212156127 0
   vertex 24.53647450843759 14.57341522555725 0
   vertex 34.10501830528305 1.6 0
  endloop
 endfacet
 facet normal 0.0 0.0 -1.0
  outer loop
   vertex 24.53647450843759 14.57341522555725 0
   vertex 25.463525491562432 14.57341522555725 0
   vertex 34.10501830528305 1.6 0
  endloop
 endfacet
 facet normal 0.0 0.0 -1.0
  outer loop
   vertex 25.463525491562432 14.57341522555725 0
   vertex 26.213525491562432 15.11832212156127 0
   vertex 34.10501830528305 1.6 0
  endloop
 endfacet
 facet normal -0.0 0.0 -1.0
  outer loop
   vertex 5.536474508437579 16.42658477444273 0
   vertex 4.786474508437579 15.88167787843871 0
   vertex 1.5987263841680686 28.400000000000002 0
  endloop
 endfacet
 facet normal -0.0 0.0 -1.0
  outer loop
   vertex 4.786474508437579 15.88167787843871 0
   vertex 4.5 15.0 0
   vertex 1.5987263841680686 28.400000000000002 0
  endloop
 endfacet
 facet normal 0.0 -0.0 -1.0
  outer loop
   vertex 4.5 15.0 0
   vertex 4.786474508437578 14.11832212156129 0
   vertex 1.577384821553687 1.6 0
  endloop
 endfacet
 facet normal 0.0 -0.0 -1.0
  outer loop
   vertex 4.786474508437578 14.11832212156129 0
   vertex 5.536474508437578 13.57341522555727 0
   vertex 1.577384821553687 1.6 0
  endloop
 endfacet
 facet normal 0.0 -0.0 -1.0
  outer loop
   vertex 5.536474508437578 13.57341522555727 0
   vertex 6.463525491562421 13.57341522555727 0
   vertex 1.577384821553687 1.6 0
  endloop
 endfacet
 facet normal 0.0 1.0 0.0
  outer loop
   vertex 36.680242242337684 28.400000000000002 0
   vertex 1.5987263841680686 28.400000000000002 0
   vertex 1.5987263841680686 28.400000000000002 0.4
  endloop
 endfacet
 facet normal 0.0 1.0 0.0
  outer loop
   vertex 36.680242242337684 28.400000000000002 0.4
   vertex 36.680242242337684 28.400000000000002 0
   vertex 1.5987263841680686 28.400000000000002 0.4
  endloop
 endfacet
 facet normal 0.9954150398196859 -0.09564987454656133 0.0
  outer loop
   vertex 34.10501830528305 1.6 0
   vertex 36.680242242337684 28.400000000000002 0
   vertex 36.680242242337684 28.400000000000002 0.4
  endloop
 endfacet
 facet normal 0.9954150398196859 -0.09564987454656133 0.0
  outer loop
   vertex 34.10501830528305 1.6 0.4
   vertex 34.10501830528305 1.6 0
   vertex 36.680242242337684 28.400000000000002 0.4
  endloop
 endfacet
 facet normal 0.0 -1.0 0.0
  outer loop
   vertex 1.577384821553687 1.6 0
   vertex 34.10501830528305 1.6 0
   vertex 34.10501830528305 1.6 0.4
  endloop
 endfacet
 facet normal 0.0 -1.0 0.0
  outer loop
   vertex 1.577384821553687 1.6 0.4
   vertex 1.577384821553687 1.6 0
   vertex 34.10501830528305 1.6 0.4
  endloop
 endfacet
 facet normal -0.9999996829318345 0.000796326710733264 0.0
  outer loop
   vertex 1.5987263841680686 28.400000000000002 0
   vertex 1.577384821553687 1.6 0
   vertex 1.577384821553687 1.6 0.4
  endloop
 endfacet
 facet normal -0.9999996829318345 0.000796326710733264 0.0
  outer loop
   vertex 1.5987263841680686 28.400000000000002 0.4
   vertex 1.5987263841680686 28.400000000000002 0
   vertex 1.577384821553687 1.6 0.4
  endloop
 endfacet
 facet normal -0.0 0.0 1.0
  outer loop
   vertex 1.5987263841680686 28.400000000000002 0.4
   vertex 25.463525491562432 17.42658477444271 0.4
   vertex 36.680242242337684 28.400000000000002 0.4
  endloop
 endfacet
 facet normal 0.0 0.0 1.0
  outer loop
   vertex 36.680242242337684 28.400000000000002 0.4
   vertex 26.50000000000001 15.99999999999998 0.4
   vertex 34.10501830528305 1.6 0.4
  endloop
 endfacet
 facet normal 0.0 0.0 1.0
  outer loop
   vertex 34.10501830528305 1.6 0.4
   vertex 23.78647450843759 15.11832212156127 0.4
   vertex 1.577384821553687 1.6 0.4
  endloop
 endfacet
 facet normal 0.0 0.0 1.0
  outer loop
   vertex 1.577384821553687 1.6 0.4
   vertex 4.5 15.0 0.4
   vertex 1.5987263841680686 28.400000000000002 0.4
  endloop
 endfacet
 facet normal 0.0 -0.0 1.0
  outer loop
   vertex 26.50000000000001 15.99999999999998 0.4
   vertex 36.680242242337684 28.400000000000002 0.4
   vertex 26.213525491562432 16.88167787843869 0.4
  endloop
 endfacet
 facet normal 0.0 0.0 1.0
  outer loop
   vertex 26.50000000000001 15.99999999999998 0.4
   vertex 26.213525491562432 15.11832212156127 0.4
   vertex 34.10501830528305 1.6 0.4
  endloop
 endfacet
 facet normal 0.0 -0.0 1.0
  outer loop
   vertex 26.213525491562432 16.88167787843869 0.4
   vertex 36.680242242337684 28.400000000000002 0.4
   vertex 25.463525491562432 17.42658477444271 0.4
  endloop
 endfacet
 facet normal 0.0 0.0 1.0
  outer loop
   vertex 25.463525491562432 17.42658477444271 0.4
   vertex 1.5987263841680686 28.400000000000002 0.4
   vertex 24.53647450843759 17.426584774442713 0.4
  endloop
 endfacet
 facet normal 0.0 0.0 1.0
  outer loop
   vertex 24.53647450843759 17.426584774442713 0.4
   vertex 1.5987263841680686 28.400000000000002 0.4
   vertex 5.536474508437579 16.42658477444273 0.4
  endloop
 endfacet
 facet normal 0.0 0.0 1.0
  outer loop
   vertex 24.53647450843759 17.426584774442713 0.4
   vertex 1.577384821553687 1.6 0.4
   vertex 23.78647450843759 16.88167787843869 0.4
  endloop
 endfacet
 facet normal 0.0 0.0 1.0
  outer loop
   vertex 24.53647450843759 17.426584774442713 0.4
   vertex 6.463525491562421 13.57341522555727 0.4
   vertex 1.577384821553687 1.6 0.4
  endloop
 endfacet
 facet normal 0.0 0.0 1.0
  outer loop
   vertex 24.53647450843759 17.426584774442713 0.4
   vertex 7.5 15.0 0.4
   vertex 7.213525491562421 14.11832212156129 0.4
  endloop
 endfacet
 facet normal 0.0 0.0 1.0
  outer loop
   vertex 24.53647450843759 17.426584774442713 0.4
   vertex 7.213525491562422 15.88167787843871 0.4
   vertex 7.5 15.0 0.4
  endloop
 endfacet
 facet normal 0.0 0.0 1.0
  outer loop
   vertex 24.53647450843759 17.426584774442713 0.4
   vertex 6.463525491562422 16.42658477444273 0.4
   vertex 7.213525491562422 15.88167787843871 0.4
  endloop
 endfacet
 facet normal 0.0 0.0 1.0
  outer loop
   vertex 24.53647450843759 17.426584774442713 0.4
   vertex 5.536474508437579 16.42658477444273 0.4
   vertex 6.463525491562422 16.42658477444273 0.4
  endloop
 endfacet
 facet normal 0.0 0.0 1.0
  outer loop
   vertex 24.53647450843759 17.426584774442713 0.4
   vertex 7.213525491562421 14.11832212156129 0.4
   vertex 6.463525491562421 13.57341522555727 0.4
  endloop
 endfacet
 facet normal 0.0 0.0 1.0
  outer loop
   vertex 23.78647450843759 16.88167787843869 0.4
   vertex 1.577384821553687 1.6 0.4
   vertex 23.50000000000001 15.99999999999998 0.4
  endloop
 endfacet
 facet normal 0.0 0.0 1.0
  outer loop
   vertex 23.50000000000001 15.99999999999998 0.4
   vertex 1.577384821553687 1.6 0.4
   vertex 23.78647450843759 15.11832212156127 0.4
  endloop
 endfacet
 facet normal 0.0 0.0 1.0
  outer loop
   vertex 23.78647450843759 15.11832212156127 0.4
   vertex 34.10501830528305 1.6 0.4
   vertex 24.53647450843759 14.57341522555725 0.4
  endloop
 endfacet
 facet normal -0.0 0.0 1.0
  outer loop
   vertex 24.53647450843759 14.57341522555725 0.4
   vertex 34.10501830528305 1.6 0.4
   vertex 25.463525491562432 14.57341522555725 0.4
  endloop
 endfacet
 facet normal -0.0 0.0 1.0
  outer loop
   vertex 25.463525491562432 14.57341522555725 0.4
   vertex 34.10501830528305 1.6 0.4
   vertex 26.213525491562432 15.11832212156127 0.4
  endloop
 endfacet
 facet normal 0.0 0.0 1.0
  outer loop
   vertex 5.536474508437579 16.42658477444273 0.4
   vertex 1.5987263841680686 28.400000000000002 0.4
   vertex 4.786474508437579 15.88167787843871 0.4
  endloop
 endfacet
 facet normal 0.0 0.0 1.0
  outer loop
   vertex 4.786474508437579 15.88167787843871 0.4
   vertex 1.5987263841680686 28.400000000000002 0.4
   vertex 4.5 15.0 0.4
  endloop
 endfacet
 facet normal 0.0 0.0 1.0
  outer loop
   vertex 4.5 15.0 0.4
   vertex 1.577384821553687 1.6 0.4
   vertex 4.786474508437578 14.11832212156129 0.4
  endloop
 endfacet
 facet normal 0.0 0.0 1.0
  outer loop
   vertex 4.786474508437578 14.11832212156129 0.4
   vertex 1.577384821553687 1.6 0.4
   vertex 5.536474508437578 13.57341522555727 0.4
  endloop
 endfacet
 facet normal -0.0 0.0 1.0
  outer loop
   vertex 5.536474508437578 13.57341522555727 0.4
   vertex 1.577384821553687 1.6 0.4
   vertex 6.463525491562421 13.57341522555727 0.4
  endloop
 endfacet
 facet normal -0.9510565162951539 -0.30901699437494684 0.0
  outer loop
   vertex 26.50000000000001 15.99999999999998 0
   vertex 26.50000000000001 15.99999999999998 0.4
   vertex 26.213525491562432 16.88167787843869 0
  endloop
 endfacet
 facet normal -0.9510565162951539 -0.30901699437494684 0.0
  outer loop
   vertex 26.213525491562432 16.88167787843869 0
   vertex 26.50000000000001 15.99999999999998 0.4
   vertex 26.213525491562432 16.88167787843869 0.4
  endloop
 endfacet
 facet normal -0.5877852522924717 -0.8090169943749485 0.0
  outer loop
   vertex 26.213525491562432 16.88167787843869 0
   vertex 26.213525491562432 16.88167787843869 0.4
   vertex 25.463525491562432 17.42658477444271 0
  endloop
 endfacet
 facet normal -0.5877852522924717 -0.8090169943749485 0.0
  outer loop
   vertex 25.463525491562432 17.42658477444271 0
   vertex 26.213525491562432 16.88167787843869 0.4
   vertex 25.463525491562432 17.42658477444271 0.4
  endloop
 endfacet
 facet normal -3.832274323063921e-15 -1.0 0.0
  outer loop
   vertex 25.463525491562432 17.42658477444271 0
   vertex 25.463525491562432 17.42658477444271 0.4
   vertex 24.53647450843759 17.426584774442713 0
  endloop
 endfacet
 facet normal -3.832274323063921e-15 -1.0 0.0
  outer loop
   vertex 24.53647450843759 17.426584774442713 0
   vertex 25.463525491562432 17.42658477444271 0.4
   vertex 24.53647450843759 17.426584774442713 0.4
  endloop
 endfacet
 facet normal 0.5877852522924741 -0.8090169943749467 0.0
  outer loop
   vertex 24.53647450843759 17.426584774442713 0
   vertex 24.53647450843759 17.426584774442713 0.4
   vertex 23.78647450843759 16.88167787843869 0
  endloop
 endfacet
 facet normal 0.5877852522924741 -0.8090169943749467 0.0
  outer loop
   vertex 23.78647450843759 16.88167787843869 0
   vertex 24.53647450843759 17.426584774442713 0.4
   vertex 23.78647450843759 16.88167787843869 0.4
  endloop
 endfacet
 facet normal 0.9510565162951539 -0.30901699437494684 0.0
  outer loop
   vertex 23.78647450843759 16.88167787843869 0
   vertex 23.78647450843759 16.88167787843869 0.4
   vertex 23.50000000000001 15.99999999999998 0
  endloop
 endfacet
 facet normal 0.9510565162951539 -0.30901699437494684 0.0
  outer loop
   vertex 23.50000000000001 15.99999999999998 0
   vertex 23.78647450843759 16.88167787843869 0.4
   vertex 23.50000000000001 15.99999999999998 0.4
  endloop
 endfacet
 facet normal 0.9510565162951539 0.30901699437494684 -0.0
  outer loop
   vertex 23.50000000000001 15.99999999999998 0
   vertex 23.50000000000001 15.99999999999998 0.4
   vertex 23.78647450843759 15.11832212156127 0
  endloop
 endfacet
 facet normal 0.9510565162951539 0.30901699437494684 -0.0
  outer loop
   vertex 23.78647450843759 15.11832212156127 0
   vertex 23.50000000000001 15.99999999999998 0.4
   vertex 23.78647450843759 15.11832212156127 0.4
  endloop
 endfacet
 facet normal 0.5877852522924729 0.8090169943749477 -0.0
  outer loop
   vertex 23.78647450843759 15.11832212156127 0
   vertex 23.78647450843759 15.11832212156127 0.4
   vertex 24.53647450843759 14.57341522555725 0
  endloop
 endfacet
 facet normal 0.5877852522924729 0.8090169943749477 -0.0
  outer loop
   vertex 24.53647450843759 14.57341522555725 0
   vertex 23.78647450843759 15.11832212156127 0.4
   vertex 24.53647450843759 14.57341522555725 0.4
  endloop
 endfacet
 facet normal 0.0 1.0 0.0
  outer loop
   vertex 24.53647450843759 14.57341522555725 0
   vertex 24.53647450843759 14.57341522555725 0.4
   vertex 25.463525491562432 14.57341522555725 0
  endloop
 endfacet
 facet normal 0.0 1.0 -0.0
  outer loop
   vertex 25.463525491562432 14.57341522555725 0
   vertex 24.53647450843759 14.57341522555725 0.4
   vertex 25.463525491562432 14.57341522555725 0.4
  endloop
 endfacet
 facet normal -0.5877852522924729 0.8090169943749477 0.0
  outer loop
   vertex 25.463525491562432 14.57341522555725 0
   vertex 25.463525491562432 14.57341522555725 0.4
   vertex 26.213525491562432 15.11832212156127 0
  endloop
 endfacet
 facet normal -0.5877852522924729 0.8090169943749477 0.0
  outer loop
   vertex 26.213525491562432 15.11832212156127 0
   vertex 25.463525491562432 14.57341522555725 0.4
   vertex 26.213525491562432 15.11832212156127 0.4
  endloop
 endfacet
 facet normal -0.9510565162951539 0.30901699437494684 0.0
  outer loop
   vertex 26.213525491562432 15.11832212156127 0
   vertex 26.213525491562432 15.11832212156127 0.4
   vertex 26.50000000000001 15.99999999999998 0
  endloop
 endfacet
 facet normal -0.9510565162951539 0.30901699437494684 0.0
  outer loop
   vertex 26.50000000000001 15.99999999999998 0
   vertex 26.213525491562432 15.11832212156127 0.4
   vertex 26.50000000000001 15.99999999999998 0.4
  endloop
 endfacet
 facet normal -0.9510565162951539 -0.30901699437494684 0.0
  outer loop
   vertex 7.5 15.0 0
   vertex 7.5 15.0 0.4
   vertex 7.213525491562422 15.88167787843871 0
  endloop
 endfacet
 facet normal -0.9510565162951539 -0.30901699437494684 0.0
  outer loop
   vertex 7.213525491562422 15.88167787843871 0
   vertex 7.5 15.0 0.4
   vertex 7.213525491562422 15.88167787843871 0.4
  endloop
 endfacet
 facet normal -0.5877852522924729 -0.8090169943749477 0.0
  outer loop
   vertex 7.213525491562422 15.88167787843871 0
   vertex 7.213525491562422 15.88167787843871 0.4
   vertex 6.463525491562422 16.42658477444273 0
  endloop
 endfacet
 facet normal -0.5877852522924729 -0.8090169943749477 0.0
  outer loop
   vertex 6.463525491562422 16.42658477444273 0
   vertex 7.213525491562422 15.88167787843871 0.4
   vertex 6.463525491562422 16.42658477444273 0.4
  endloop
 endfacet
 facet normal 0.0 -1.0 0.0
  outer loop
   vertex 6.463525491562422 16.42658477444273 0
   vertex 6.463525491562422 16.42658477444273 0.4
   vertex 5.536474508437579 16.42658477444273 0
  endloop
 endfacet
 facet normal 0.0 -1.0 0.0
  outer loop
   vertex 5.536474508437579 16.42658477444273 0
   vertex 6.463525491562422 16.42658477444273 0.4
   vertex 5.536474508437579 16.42658477444273 0.4
  endloop
 endfacet
 facet normal 0.5877852522924729 -0.8090169943749477 0.0
  outer loop
   vertex 5.536474508437579 16.42658477444273 0
   vertex 5.536474508437579 16.42658477444273 0.4
   vertex 4.786474508437579 15.88167787843871 0
  endloop
 endfacet
 facet normal 0.5877852522924729 -0.8090169943749477 0.0
  outer loop
   vertex 4.786474508437579 15.88167787843871 0
   vertex 5.536474508437579 16.42658477444273 0.4
   vertex 4.786474508437579 15.88167787843871 0.4
  endloop
 endfacet
 facet normal 0.9510565162951535 -0.30901699437494773 0.0
  outer loop
   vertex 4.786474508437579 15.88167787843871 0
   vertex 4.786474508437579 15.88167787843871 0.4
   vertex 4.5 15.0 0
  endloop
 endfacet
 facet normal 0.9510565162951535 -0.30901699437494773 0.0
  outer loop
   vertex 4.5 15.0 0
   vertex 4.786474508437579 15.88167787843871 0.4
   vertex 4.5 15.0 0.4
  endloop
 endfacet
 facet normal 0.9510565162951539 0.30901699437494684 -0.0
  outer loop
   vertex 4.5 15.0 0
   vertex 4.5 15.0 0.4
   vertex 4.786474508437578 14.11832212156129 0
  endloop
 endfacet
 facet normal 0.9510565162951539 0.30901699437494684 -0.0
  outer loop
   vertex 4.786474508437578 14.11832212156129 0
   vertex 4.5 15.0 0.4
   vertex 4.786474508437578 14.11832212156129 0.4
  endloop
 endfacet
 facet normal 0.5877852522924729 0.8090169943749477 -0.0
  outer loop
   vertex 4.786474508437578 14.11832212156129 0
   vertex 4.786474508437578 14.11832212156129 0.4
   vertex 5.536474508437578 13.57341522555727 0
  endloop
 endfacet
 facet normal 0.5877852522924729 0.8090169943749477 -0.0
  outer loop
   vertex 5.536474508437578 13.57341522555727 0
   vertex 4.786474508437578 14.11832212156129 0.4
   vertex 5.536474508437578 13.57341522555727 0.4
  endloop
 endfacet
 facet normal 0.0 1.0 0.0
  outer loop
   vertex 5.536474508437578 13.57341522555727 0
   vertex 5.536474508437578 13.57341522555727 0.4
   vertex 6.463525491562421 13.57341522555727 0
  endloop
 endfacet
 facet normal 0.0 1.0 -0.0
  outer loop
   vertex 6.463525491562421 13.57341522555727 0
   vertex 5.536474508437578 13.57341522555727 0.4
   vertex 6.463525491562421 13.57341522555727 0.4
  endloop
 endfacet
 facet normal -0.5877852522924729 0.8090169943749477 0.0
  outer loop
   vertex 6.463525491562421 13.57341522555727 0
   vertex 6.463525491562421 13.57341522555727 0.4
   vertex 7.213525491562421 14.11832212156129 0
  endloop
 endfacet
 facet normal -0.5877852522924729 0.8090169943749477 0.0
  outer loop
   vertex 7.213525491562421 14.11832212156129 0
   vertex 6.463525491562421 13.57341522555727 0.4
   vertex 7.213525491562421 14.11832212156129 0.4
  endloop
 endfacet
 facet normal -0.9510565162951535 0.30901699437494773 0.0
  outer loop
   vertex 7.213525491562421 14.11832212156129 0
   vertex 7.213525491562421 14.11832212156129 0.4
   vertex 7.5 15.0 0
  endloop
 endfacet
 facet normal -0.9510565162951535 0.30901699437494773 0.0
  outer loop
   vertex 7.5 15.0 0
   vertex 7.213525491562421 14.11832212156129 0.4
   vertex 7.5 15.0 0.4
  endloop
 endfacet
 facet normal 0.0 0.0 -1.0
  outer loop
   vertex 36.6802422423377 31.600000000000005 0
   vertex 1.5987263841680686 31.60000000000001 0
   vertex 23.786474508437585 43.11832212156129 0
  endloop
 endfacet
 facet normal 0.0 0.0 -1.0
  outer loop
   vertex 1.5987263841680686 31.60000000000001 0
   vertex 1.577384821553687 58.4 0
   vertex 4.5 45.0 0
  endloop
 endfacet
 facet normal 0.0 0.0 -1.0
  outer loop
   vertex 1.577384821553687 58.4 0
   vertex 34.10501830528307 58.39999999999999 0
   vertex 25.46352549156243 45.42658477444273 0
  endloop
 endfacet
 facet normal 0.0 -0.0 -1.0
  outer loop
   vertex 34.10501830528307 58.39999999999999 0
   vertex 36.6802422423377 31.600000000000005 0
   vertex 26.500000000000007 44.0 0
  endloop
 endfacet
 facet normal 0.0 -0.0 -1.0
  outer loop
   vertex 26.500000000000007 44.0 0
   vertex 36.6802422423377 31.600000000000005 0
   vertex 26.21352549156243 43.11832212156129 0
  endloop
 endfacet
 facet normal 0.0 0.0 -1.0
  outer loop
   vertex 26.500000000000007 44.0 0
   vertex 26.21352549156243 44.88167787843871 0
   vertex 34.10501830528307 58.39999999999999 0
  endloop
 endfacet
 facet normal 0.0 0.0 -1.0
  outer loop
   vertex 26.21352549156243 44.88167787843871 0
   vertex 25.46352549156243 45.42658477444273 0
   vertex 34.10501830528307 58.39999999999999 0
  endloop
 endfacet
 facet normal 0.0 0.0 -1.0
  outer loop
   vertex 25.46352549156243 45.42658477444273 0
   vertex 6.463525491562422 46.42658477444273 0
   vertex 1.577384821553687 58.4 0
  endloop
 endfacet
 facet normal 0.0 0.0 -1.0
  outer loop
   vertex 25.46352549156243 45.42658477444273 0
   vertex 24.536474508437585 45.42658477444273 0
   vertex 7.213525491562422 45.88167787843871 0
  endloop
 endfacet
 facet normal 0.0 0.0 -1.0
  outer loop
   vertex 25.46352549156243 45.42658477444273 0
   vertex 7.213525491562422 45.88167787843871 0
   vertex 6.463525491562422 46.42658477444273 0
  endloop
 endfacet
 facet normal 0.0 0.0 -1.0
  outer loop
   vertex 24.536474508437585 45.42658477444273 0
   vertex 23.786474508437585 44.88167787843871 0
   vertex 1.5987263841680686 31.60000000000001 0
  endloop
 endfacet
 facet normal 0.0 0.0 -1.0
  outer loop
   vertex 24.536474508437585 45.42658477444273 0
   vertex 1.5987263841680686 31.60000000000001 0
   vertex 6.463525491562421 43.57341522555727 0
  endloop
 endfacet
 facet normal 0.0 0.0 -1.0
  outer loop
   vertex 24.536474508437585 45.42658477444273 0
   vertex 7.213525491562421 44.11832212156129 0
   vertex 7.5 45.0 0
  endloop
 endfacet
 facet normal -0.0 0.0 -1.0
  outer loop
   vertex 24.536474508437585 45.42658477444273 0
   vertex 7.5 45.0 0
   vertex 7.213525491562422 45.88167787843871 0
  endloop
 endfacet
 facet normal 0.0 0.0 -1.0
  outer loop
   vertex 24.536474508437585 45.42658477444273 0
   vertex 6.463525491562421 43.57341522555727 0
   vertex 7.213525491562421 44.11832212156129 0
  endloop
 endfacet
 facet normal 0.0 0.0 -1.0
  outer loop
   vertex 23.786474508437585 44.88167787843871 0
   vertex 23.500000000000007 44.0 0
   vertex 1.5987263841680686 31.60000000000001 0
  endloop
 endfacet
 facet normal 0.0 -0.0 -1.0
  outer loop
   vertex 23.500000000000007 44.0 0
   vertex 23.786474508437585 43.11832212156129 0
   vertex 1.5987263841680686 31.60000000000001 0
  endloop
 endfacet
 facet normal 0.0 0.0 -1.0
  outer loop
   vertex 23.786474508437585 43.11832212156129 0
   vertex 24.536474508437585 42.57341522555727 0
   vertex 36.6802422423377 31.600000000000005 0
  endloop
 endfacet
 facet normal 0.0 0.0 -1.0
  outer loop
   vertex 24.536474508437585 42.57341522555727 0
   vertex 25.46352549156243 42.57341522555727 0
   vertex 36.6802422423377 31.600000000000005 0
  endloop
 endfacet
 facet normal 0.0 0.0 -1.0
  outer loop
   vertex 25.46352549156243 42.57341522555727 0
   vertex 26.21352549156243 43.11832212156129 0
   vertex 36.6802422423377 31.600000000000005 0
  endloop
 endfacet
 facet normal 0.0 0.0 -1.0
  outer loop
   vertex 6.463525491562422 46.42658477444273 0
   vertex 5.536474508437579 46.42658477444273 0
   vertex 1.577384821553687 58.4 0
  endloop
 endfacet
 facet normal -0.0 0.0 -1.0
  outer loop
   vertex 5.536474508437579 46.42658477444273 0
   vertex 4.786474508437579 45.88167787843871 0
   vertex 1.577384821553687 58.4 0
  endloop
 endfacet
 facet normal -0.0 0.0 -1.0
  outer loop
   vertex 4.786474508437579 45.88167787843871 0
   vertex 4.5 45.0 0
   vertex 1.577384821553687 58.4 0
  endloop
 endfacet
 facet normal 0.0 -0.0 -1.0
  outer loop
   vertex 4.5 45.0 0
   vertex 4.786474508437578 44.11832212156129 0
   vertex 1.5987263841680686 31.60000000000001 0
  endloop
 endfacet
 facet normal 0.0 -0.0 -1.0
  outer loop
   vertex 4.786474508437578 44.11832212156129 0
   vertex 5.536474508437578 43.57341522555727 0
   vertex 1.5987263841680686 31.60000000000001 0
  endloop
 endfacet
 facet normal 0.0 -0.0 -1.0
  outer loop
   vertex 5.536474508437578 43.57341522555727 0
   vertex 6.463525491562421 43.57341522555727 0
   vertex 1.5987263841680686 31.60000000000001 0
  endloop
 endfacet
 facet normal -1.0127024422672319e-16 -1.0 0.0
  outer loop
   vertex 1.5987263841680686 31.60000000000001 0
   vertex 36.6802422423377 31.600000000000005 0
   vertex 36.6802422423377 31.600000000000005 0.4
  endloop
 endfacet
 facet normal -1.0127024422672319e-16 -1.0 -0.0
  outer loop
   vertex 1.5987263841680686 31.60000000000001 0.4
   vertex 1.5987263841680686 31.60000000000001 0
   vertex 36.6802422423377 31.600000000000005 0.4
  endloop
 endfacet
 facet normal -0.9999996829318347 -0.0007963267107332644 0.0
  outer loop
   vertex 1.577384821553687 58.4 0
   vertex 1.5987263841680686 31.60000000000001 0
   vertex 1.5987263841680686 31.60000000000001 0.4
  endloop
 endfacet
 facet normal -0.9999996829318347 -0.0007963267107332644 -0.0
  outer loop
   vertex 1.577384821553687 58.4 0.4
   vertex 1.577384821553687 58.4 0
   vertex 1.5987263841680686 31.60000000000001 0.4
  endloop
 endfacet
 facet normal 2.1844280067762081e-16 1.0 0.0
  outer loop
   vertex 34.10501830528307 58.39999999999999 0
   vertex 1.577384821553687 58.4 0
   vertex 1.577384821553687 58.4 0.4
  endloop
 endfacet
 facet normal 2.1844280067762081e-16 1.0 0.0
  outer loop
   vertex 34.10501830528307 58.39999999999999 0.4
   vertex 34.10501830528307 58.39999999999999 0
   vertex 1.577384821553687 58.4 0.4
  endloop
 endfacet
 facet normal 0.9954150398196859 0.09564987454656138 0.0
  outer loop
   vertex 36.6802422423377 31.600000000000005 0
   vertex 34.10501830528307 58.39999999999999 0
   vertex 34.10501830528307 58.39999999999999 0.4
  endloop
 endfacet
 facet normal 0.9954150398196859 0.09564987454656138 0.0
  outer loop
   vertex 36.6802422423377 31.600000000000005 0.4
   vertex 36.6802422423377 31.600000000000005 0
   vertex 34.10501830528307 58.39999999999999 0.4
  endloop
 endfacet
 facet normal 0.0 0.0 1.0
  outer loop
   vertex 36.6802422423377 31.600000000000005 0.4
   vertex 23.786474508437585 43.11832212156129 0.4
   vertex 1.5987263841680686 31.60000000000001 0.4
  endloop
 endfacet
 facet normal 0.0 -0.0 1.0
  outer loop
   vertex 1.5987263841680686 31.60000000000001 0.4
   vertex 4.5 45.0 0.4
   vertex 1.577384821553687 58.4 0.4
  endloop
 endfacet
 facet normal 0.0 0.0 1.0
  outer loop
   vertex 1.577384821553687 58.4 0.4
   vertex 25.46352549156243 45.42658477444273 0.4
   vertex 34.10501830528307 58.39999999999999 0.4
  endloop
 endfacet
 facet normal 0.0 0.0 1.0
  outer loop
   vertex 34.10501830528307 58.39999999999999 0.4
   vertex 26.500000000000007 44.0 0.4
   vertex 36.6802422423377 31.600000000000005 0.4
  endloop
 endfacet
 facet normal 0.0 0.0 1.0
  outer loop
   vertex 26.500000000000007 44.0 0.4
   vertex 26.21352549156243 43.11832212156129 0.4
   vertex 36.6802422423377 31.600000000000005 0.4
  endloop
 endfacet
 facet normal 0.0 -0.0 1.0
  outer loop
   vertex 26.500000000000007 44.0 0.4
   vertex 34.10501830528307 58.39999999999999 0.4
   vertex 26.21352549156243 44.88167787843871 0.4
  endloop
 endfacet
 facet normal 0.0 -0.0 1.0
  outer loop
   vertex 26.21352549156243 44.88167787843871 0.4
   vertex 34.10501830528307 58.39999999999999 0.4
   vertex 25.46352549156243 45.42658477444273 0.4
  endloop
 endfacet
 facet normal 0.0 0.0 1.0
  outer loop
   vertex 25.46352549156243 45.42658477444273 0.4
   vertex 1.577384821553687 58.4 0.4
   vertex 6.463525491562422 46.42658477444273 0.4
  endloop
 endfacet
 facet normal 0.0 0.0 1.0
  outer loop
   vertex 25.46352549156243 45.42658477444273 0.4
   vertex 7.213525491562422 45.88167787843871 0.4
   vertex 24.536474508437585 45.42658477444273 0.4
  endloop
 endfacet
 facet normal 0.0 0.0 1.0
  outer loop
   vertex 25.46352549156243 45.42658477444273 0.4
   vertex 6.463525491562422 46.42658477444273 0.4
   vertex 7.213525491562422 45.88167787843871 0.4
  endloop
 endfacet
 facet normal 0.0 0.0 1.0
  outer loop
   vertex 24.536474508437585 45.42658477444273 0.4
   vertex 1.5987263841680686 31.60000000000001 0.4
   vertex 23.786474508437585 44.88167787843871 0.4
  endloop
 endfacet
 facet normal 0.0 0.0 1.0
  outer loop
   vertex 24.536474508437585 45.42658477444273 0.4
   vertex 6.463525491562421 43.57341522555727 0.4
   vertex 1.5987263841680686 31.60000000000001 0.4
  endloop
 endfacet
 facet normal 0.0 0.0 1.0
  outer loop
   vertex 24.536474508437585 45.42658477444273 0.4
   vertex 7.5 45.0 0.4
   vertex 7.213525491562421 44.11832212156129 0.4
  endloop
 endfacet
 facet normal 0.0 0.0 1.0
  outer loop
   vertex 24.536474508437585 45.42658477444273 0.4
   vertex 7.213525491562422 45.88167787843871 0.4
   vertex 7.5 45.0 0.4
  endloop
 endfacet
 facet normal 0.0 0.0 1.0
  outer loop
   vertex 24.536474508437585 45.42658477444273 0.4
   vertex 7.213525491562421 44.11832212156129 0.4
   vertex 6.463525491562421 43.57341522555727 0.4
  endloop
 endfacet
 facet normal 0.0 0.0 1.0
  outer loop
   vertex 23.786474508437585 44.88167787843871 0.4
   vertex 1.5987263841680686 31.60000000000001 0.4
   vertex 23.500000000000007 44.0 0.4
  endloop
 endfacet
 facet normal 0.0 0.0 1.0
  outer loop
   vertex 23.500000000000007 44.0 0.4
   vertex 1.5987263841680686 31.60000000000001 0.4
   vertex 23.786474508437585 43.11832212156129 0.4
  endloop
 endfacet
 facet normal 0.0 0.0 1.0
  outer loop
   vertex 23.786474508437585 43.11832212156129 0.4
   vertex 36.6802422423377 31.600000000000005 0.4
   vertex 24.536474508437585 42.57341522555727 0.4
  endloop
 endfacet
 facet normal -0.0 0.0 1.0
  outer loop
   vertex 24.536474508437585 42.57341522555727 0.4
   vertex 36.6802422423377 31.600000000000005 0.4
   vertex 25.46352549156243 42.57341522555727 0.4
  endloop
 endfacet
 facet normal -0.0 0.0 1.0
  outer loop
   vertex 25.46352549156243 42.57341522555727 0.4
   vertex 36.6802422423377 31.600000000000005 0.4
   vertex 26.21352549156243 43.11832212156129 0.4
  endloop
 endfacet
 facet normal 0.0 0.0 1.0
  outer loop
   vertex 6.463525491562422 46.42658477444273 0.4
   vertex 1.577384821553687 58.4 0.4
   vertex 5.536474508437579 46.42658477444273 0.4
  endloop
 endfacet
 facet normal 0.0 0.0 1.0
  outer loop
   vertex 5.536474508437579 46.42658477444273 0.4
   vertex 1.577384821553687 58.4 0.4
   vertex 4.786474508437579 45.88167787843871 0.4
  endloop
 endfacet
 facet normal 0.0 0.0 1.0
  outer loop
   vertex 4.786474508437579 45.88167787843871 0.4
   vertex 1.577384821553687 58.4 0.4
   vertex 4.5 45.0 0.4
  endloop
 endfacet
 facet normal 0.0 0.0 1.0
  outer loop
   vertex 4.5 45.0 0.4
   vertex 1.5987263841680686 31.60000000000001 0.4
   vertex 4.786474508437578 44.11832212156129 0.4
  endloop
 endfacet
 facet normal 0.0 0.0 1.0
  outer loop
   vertex 4.786474508437578 44.11832212156129 0.4
   vertex 1.5987263841680686 31.60000000000001 0.4
   vertex 5.536474508437578 43.57341522555727 0.4
  endloop
 endfacet
 facet normal -0.0 0.0 1.0
  outer loop
   vertex 5.536474508437578 43.57341522555727 0.4
   vertex 1.5987263841680686 31.60000000000001 0.4
   vertex 6.463525491562421 43.57341522555727 0.4
  endloop
 endfacet
 facet normal -0.9510565162951536 -0.3090169943749474 0.0
  outer loop
   vertex 26.500000000000007 44.0 0
   vertex 26.500000000000007 44.0 0.4
   vertex 26.21352549156243 44.88167787843871 0
  endloop
 endfacet
 facet normal -0.9510565162951536 -0.3090169943749474 0.0
  outer loop
   vertex 26.21352549156243 44.88167787843871 0
   vertex 26.500000000000007 44.0 0.4
   vertex 26.21352549156243 44.88167787843871 0.4
  endloop
 endfacet
 facet normal -0.5877852522924741 -0.8090169943749467 0.0
  outer loop
   vertex 26.21352549156243 44.88167787843871 0
   vertex 26.21352549156243 44.88167787843871 0.4
   vertex 25.46352549156243 45.42658477444273 0
  endloop
 endfacet
 facet normal -0.5877852522924741 -0.8090169943749467 0.0
  outer loop
   vertex 25.46352549156243 45.42658477444273 0
   vertex 26.21352549156243 44.88167787843871 0.4
   vertex 25.46352549156243 45.42658477444273 0.4
  endloop
 endfacet
 facet normal 0.0 -1.0 0.0
  outer loop
   vertex 25.46352549156243 45.42658477444273 0
   vertex 25.46352549156243 45.42658477444273 0.4
   vertex 24.536474508437585 45.42658477444273 0
  endloop
 endfacet
 facet normal 0.0 -1.0 0.0
  outer loop
   vertex 24.536474508437585 45.42658477444273 0
   vertex 25.46352549156243 45.42658477444273 0.4
   vertex 24.536474508437585 45.42658477444273 0.4
  endloop
 endfacet
 facet normal 0.5877852522924741 -0.8090169943749467 0.0
  outer loop
   vertex 24.536474508437585 45.42658477444273 0
   vertex 24.536474508437585 45.42658477444273 0.4
   vertex 23.786474508437585 44.88167787843871 0
  endloop
 endfacet
 facet normal 0.5877852522924741 -0.8090169943749467 0.0
  outer loop
   vertex 23.786474508437585 44.88167787843871 0
   vertex 24.536474508437585 45.42658477444273 0.4
   vertex 23.786474508437585 44.88167787843871 0.4
  endloop
 endfacet
 facet normal 0.9510565162951536 -0.3090169943749474 0.0
  outer loop
   vertex 23.786474508437585 44.88167787843871 0
   vertex 23.786474508437585 44.88167787843871 0.4
   vertex 23.500000000000007 44.0 0
  endloop
 endfacet
 facet normal 0.9510565162951536 -0.3090169943749474 0.0
  outer loop
   vertex 23.500000000000007 44.0 0
   vertex 23.786474508437585 44.88167787843871 0.4
   vertex 23.500000000000007 44.0 0.4
  endloop
 endfacet
 facet normal 0.9510565162951536 0.3090169943749474 -0.0
  outer loop
   vertex 23.500000000000007 44.0 0
   vertex 23.500000000000007 44.0 0.4
   vertex 23.786474508437585 43.11832212156129 0
  endloop
 endfacet
 facet normal 0.9510565162951536 0.3090169943749474 -0.0
  outer loop
   vertex 23.786474508437585 43.11832212156129 0
   vertex 23.500000000000007 44.0 0.4
   vertex 23.786474508437585 43.11832212156129 0.4
  endloop
 endfacet
 facet normal 0.5877852522924741 0.8090169943749467 -0.0
  outer loop
   vertex 23.786474508437585 43.11832212156129 0
   vertex 23.786474508437585 43.11832212156129 0.4
   vertex 24.536474508437585 42.57341522555727 0
  endloop
 endfacet
 facet normal 0.5877852522924741 0.8090169943749467 -0.0
  outer loop
   vertex 24.536474508437585 42.57341522555727 0
   vertex 23.786474508437585 43.11832212156129 0.4
   vertex 24.536474508437585 42.57341522555727 0.4
  endloop
 endfacet
 facet normal 0.0 1.0 0.0
  outer loop
   vertex 24.536474508437585 42.57341522555727 0
   vertex 24.536474508437585 42.57341522555727 0.4
   vertex 25.46352549156243 42.57341522555727 0
  endloop
 endfacet
 facet normal 0.0 1.0 -0.0
  outer loop
   vertex 25.46352549156243 42.57341522555727 0
   vertex 24.536474508437585 42.57341522555727 0.4
   vertex 25.46352549156243 42.57341522555727 0.4
  endloop
 endfacet
 facet normal -0.5877852522924741 0.8090169943749467 0.0
  outer loop
   vertex 25.46352549156243 42.57341522555727 0
   vertex 25.46352549156243 42.57341522555727 0.4
   vertex 26.21352549156243 43.11832212156129 0
  endloop
 endfacet
 facet normal -0.5877852522924741 0.8090169943749467 0.0
  outer loop
   vertex 26.21352549156243 43.11832212156129 0
   vertex 25.46352549156243 42.57341522555727 0.4
   vertex 26.21352549156243 43.11832212156129 0.4
  endloop
 endfacet
 facet normal -0.9510565162951536 0.3090169943749474 0.0
  outer loop
   vertex 26.21352549156243 43.11832212156129 0
   vertex 26.21352549156243 43.11832212156129 0.4
   vertex 26.500000000000007 44.0 0
  endloop
 endfacet
 facet normal -0.9510565162951536 0.3090169943749474 0.0
  outer loop
   vertex 26.500000000000007 44.0 0
   vertex 26.21352549156243 43.11832212156129 0.4
   vertex 26.500000000000007 44.0 0.4
  endloop
 endfacet
 facet normal -0.9510565162951536 -0.3090169943749474 0.0
  outer loop
   vertex 7.5 45.0 0
   vertex 7.5 45.0 0.4
   vertex 7.213525491562422 45.88167787843871 0
  endloop
 endfacet
 facet normal -0.9510565162951536 -0.3090169943749474 0.0
  outer loop
   vertex 7.213525491562422 45.88167787843871 0
   vertex 7.5 45.0 0.4
   vertex 7.213525491562422 45.88167787843871 0.4
  endloop
 endfacet
 facet normal -0.5877852522924741 -0.8090169943749467 0.0
  outer loop
   vertex 7.213525491562422 45.88167787843871 0
   vertex 7.213525491562422 45.88167787843871 0.4
   vertex 6.463525491562422 46.42658477444273 0
  endloop
 endfacet
 facet normal -0.5877852522924741 -0.8090169943749467 0.0
  outer loop
   vertex 6.463525491562422 46.42658477444273 0
   vertex 7.213525491562422 45.88167787843871 0.4
   vertex 6.463525491562422 46.42658477444273 0.4
  endloop
 endfacet
 facet normal 0.0 -1.0 0.0
  outer loop
   vertex 6.463525491562422 46.42658477444273 0
   vertex 6.463525491562422 46.42658477444273 0.4
   vertex 5.536474508437579 46.42658477444273 0
  endloop
 endfacet
 facet normal 0.0 -1.0 0.0
  outer loop
   vertex 5.536474508437579 46.42658477444273 0
   vertex 6.463525491562422 46.42658477444273 0.4
   vertex 5.536474508437579 46.42658477444273 0.4
  endloop
 endfacet
 facet normal 0.5877852522924741 -0.8090169943749467 0.0
  outer loop
   vertex 5.536474508437579 46.42658477444273 0
   vertex 5.536474508437579 46.42658477444273 0.4
   vertex 4.786474508437579 45.88167787843871 0
  endloop
 endfacet
 facet normal 0.5877852522924741 -0.8090169943749467 0.0
  outer loop
   vertex 4.786474508437579 45.88167787843871 0
   vertex 5.536474508437579 46.42658477444273 0.4
   vertex 4.786474508437579 45.88167787843871 0.4
  endloop
 endfacet
 facet normal 0.9510565162951533 -0.3090169943749483 0.0
  outer loop
   vertex 4.786474508437579 45.88167787843871 0
   vertex 4.786474508437579 45.88167787843871 0.4
   vertex 4.5 45.0 0
  endloop
 endfacet
 facet normal 0.9510565162951533 -0.3090169943749483 0.0
  outer loop
   vertex 4.5 45.0 0
   vertex 4.786474508437579 45.88167787843871 0.4
   vertex 4.5 45.0 0.4
  endloop
 endfacet
 facet normal 0.9510565162951536 0.3090169943749474 -0.0
  outer loop
   vertex 4.5 45.0 0
   vertex 4.5 45.0 0.4
   vertex 4.786474508437578 44.11832212156129 0
  endloop
 endfacet
 facet normal 0.9510565162951536 0.3090169943749474 -0.0
  outer loop
   vertex 4.786474508437578 44.11832212156129 0
   vertex 4.5 45.0 0.4
   vertex 4.786474508437578 44.11832212156129 0.4
  endloop
 endfacet
 facet normal 0.5877852522924741 0.8090169943749467 -0.0
  outer loop
   vertex 4.786474508437578 44.11832212156129 0
   vertex 4.786474508437578 44.11832212156129 0.4
   vertex 5.536474508437578 43.57341522555727 0
  endloop
 endfacet
 facet normal 0.5877852522924741 0.8090169943749467 -0.0
  outer loop
   vertex 5.536474508437578 43.57341522555727 0
   vertex 4.786474508437578 44.11832212156129 0.4
   vertex 5.536474508437578 43.57341522555727 0.4
  endloop
 endfacet
 facet normal 0.0 1.0 0.0
  outer loop
   vertex 5.536474508437578 43.57341522555727 0
   vertex 5.536474508437578 43.57341522555727 0.4
   vertex 6.463525491562421 43.57341522555727 0
  endloop
 endfacet
 facet normal 0.0 1.0 -0.0
  outer loop
   vertex 6.463525491562421 43.57341522555727 0
   vertex 5.536474508437578 43.57341522555727 0.4
   vertex 6.463525491562421 43.57341522555727 0.4
  endloop
 endfacet
 facet normal -0.5877852522924741 0.8090169943749467 0.0
  outer loop
   vertex 6.463525491562421 43.57341522555727 0
   vertex 6.463525491562421 43.57341522555727 0.4
   vertex 7.213525491562421 44.11832212156129 0
  endloop
 endfacet
 facet normal -0.5877852522924741 0.8090169943749467 0.0
  outer loop
   vertex 7.213525491562421 44.11832212156129 0
   vertex 6.463525491562421 43.57341522555727 0.4
   vertex 7.213525491562421 44.11832212156129 0.4
  endloop
 endfacet
 facet normal -0.9510565162951533 0.3090169943749483 0.0
  outer loop
   vertex 7.213525491562421 44.11832212156129 0
   vertex 7.213525491562421 44.11832212156129 0.4
   vertex 7.5 45.0 0
  endloop
 endfacet
 facet normal -0.9510565162951533 0.3090169943749483 0.0
  outer loop
   vertex 7.5 45.0 0
   vertex 7.213525491562421 44.11832212156129 0.4
   vertex 7.5 45.0 0.4
  endloop
 endfacet
 facet normal 0.0 -0.0 -1.0
  outer loop
   vertex 39.89498169471693 28.399999999999988 0
   vertex 48.63029521665751 28.39999999999999 0
   vertex 37.696445838028126 5.520140850100345 0
  endloop
 endfacet
 facet normal -4.067070597840723e-16 1.0 0.0
  outer loop
   vertex 48.63029521665751 28.39999999999999 0
   vertex 39.89498169471693 28.399999999999988 0
   vertex 39.89498169471693 28.399999999999988 0.4
  endloop
 endfacet
 facet normal -4.067070597840723e-16 1.0 0.0
  outer loop
   vertex 48.63029521665751 28.39999999999999 0.4
   vertex 48.63029521665751 28.39999999999999 0
   vertex 39.89498169471693 28.399999999999988 0.4
  endloop
 endfacet
 facet normal 0.9022675940990952 -0.43117651679866614 0.0
  outer loop
   vertex 37.696445838028126 5.520140850100345 0
   vertex 48.63029521665751 28.39999999999999 0
   vertex 48.63029521665751 28.39999999999999 0.4
  endloop
 endfacet
 facet normal 0.9022675940990952 -0.43117651679866614 0.0
  outer loop
   vertex 37.696445838028126 5.520140850100345 0.4
   vertex 37.696445838028126 5.520140850100345 0
   vertex 48.63029521665751 28.39999999999999 0.4
  endloop
 endfacet
 facet normal -0.995415039819686 0.0956498745465614 0.0
  outer loop
   vertex 39.89498169471693 28.399999999999988 0
   vertex 37.696445838028126 5.520140850100345 0
   vertex 37.696445838028126 5.520140850100345 0.4
  endloop
 endfacet
 facet normal -0.995415039819686 0.0956498745465614 0.0
  outer loop
   vertex 39.89498169471693 28.399999999999988 0.4
   vertex 39.89498169471693 28.399999999999988 0
   vertex 37.696445838028126 5.520140850100345 0.4
  endloop
 endfacet
 facet normal -0.0 0.0 1.0
  outer loop
   vertex 39.89498169471693 28.399999999999988 0.4
   vertex 37.696445838028126 5.520140850100345 0.4
   vertex 48.63029521665751 28.39999999999999 0.4
  endloop
 endfacet
 facet normal -0.0 0.0 -1.0
  outer loop
   vertex 48.63029521665753 31.599999999999998 0
   vertex 39.89498169471695 31.599999999999994 0
   vertex 37.69644583802814 54.47985914989965 0
  endloop
 endfacet
 facet normal 4.06707059784072e-16 -1.0 0.0
  outer loop
   vertex 39.89498169471695 31.599999999999994 0
   vertex 48.63029521665753 31.599999999999998 0
   vertex 48.63029521665753 31.599999999999998 0.4
  endloop
 endfacet
 facet normal 4.06707059784072e-16 -1.0 0.0
  outer loop
   vertex 39.89498169471695 31.599999999999994 0.4
   vertex 39.89498169471695 31.599999999999994 0
   vertex 48.63029521665753 31.599999999999998 0.4
  endloop
 endfacet
 facet normal -0.995415039819686 -0.09564987454656135 0.0
  outer loop
   vertex 37.69644583802814 54.47985914989965 0
   vertex 39.89498169471695 31.599999999999994 0
   vertex 39.89498169471695 31.599999999999994 0.4
  endloop
 endfacet
 facet normal -0.995415039819686 -0.09564987454656135 -0.0
  outer loop
   vertex 37.69644583802814 54.47985914989965 0.4
   vertex 37.69644583802814 54.47985914989965 0
   vertex 39.89498169471695 31.599999999999994 0.4
  endloop
 endfacet
 facet normal 0.9022675940990952 0.43117651679866625 0.0
  outer loop
   vertex 48.63029521665753 31.599999999999998 0
   vertex 37.69644583802814 54.47985914989965 0
   vertex 37.69644583802814 54.47985914989965 0.4
  endloop
 endfacet
 facet normal 0.9022675940990952 0.43117651679866625 0.0
  outer loop
   vertex 48.63029521665753 31.599999999999998 0.4
   vertex 48.63029521665753 31.599999999999998 0
   vertex 37.69644583802814 54.47985914989965 0.4
  endloop
 endfacet
 facet normal 0.0 0.0 1.0
  outer loop
   vertex 48.63029521665753 31.599999999999998 0.4
   vertex 37.69644583802814 54.47985914989965 0.4
   vertex 39.89498169471695 31.599999999999994 0.4
  endloop
 endfacet
 facet normal 0.0 0.0 -1.0
  outer loop
   vertex 52.17691489016487 28.4 0
   vertex 67.39872536954961 28.4 0
   vertex 58.21352549156242 11.38167787843871 0
  endloop
 endfacet
 facet normal 0.0 0.0 -1.0
  outer loop
   vertex 67.39872536954961 28.4 0
   vertex 67.37738380693523 1.6 0
   vertex 58.5 10.5 0
  endloop
 endfacet
 facet normal 0.0 0.0 -1.0
  outer loop
   vertex 67.37738380693523 1.6 0
   vertex 39.36970478334247 1.6 0
   vertex 56.53647450843758 9.07341522555727 0
  endloop
 endfacet
 facet normal 0.0 0.0 -1.0
  outer loop
   vertex 39.36970478334247 1.6 0
   vertex 52.17691489016487 28.4 0
   vertex 56.53647450843758 11.92658477444273 0
  endloop
 endfacet
 facet normal 0.0 0.0 -1.0
  outer loop
   vertex 58.5 10.5 0
   vertex 58.21352549156242 11.38167787843871 0
   vertex 67.39872536954961 28.4 0
  endloop
 endfacet
 facet normal 0.0 -0.0 -1.0
  outer loop
   vertex 58.5 10.5 0
   vertex 67.37738380693523 1.6 0
   vertex 58.21352549156242 9.61832212156129 0
  endloop
 endfacet
 facet normal 0.0 0.0 -1.0
  outer loop
   vertex 58.21352549156242 11.38167787843871 0
   vertex 57.46352549156242 11.92658477444273 0
   vertex 52.17691489016487 28.4 0
  endloop
 endfacet
 facet normal 0.0 0.0 -1.0
  outer loop
   vertex 57.46352549156242 11.92658477444273 0
   vertex 56.53647450843758 11.92658477444273 0
   vertex 52.17691489016487 28.4 0
  endloop
 endfacet
 facet normal 0.0 0.0 -1.0
  outer loop
   vertex 56.53647450843758 11.92658477444273 0
   vertex 55.78647450843758 11.38167787843871 0
   vertex 39.36970478334247 1.6 0
  endloop
 endfacet
 facet normal 0.0 0.0 -1.0
  outer loop
   vertex 55.78647450843758 11.38167787843871 0
   vertex 55.5 10.5 0
   vertex 39.36970478334247 1.6 0
  endloop
 endfacet
 facet normal 0.0 -0.0 -1.0
  outer loop
   vertex 55.5 10.5 0
   vertex 55.78647450843758 9.61832212156129 0
   vertex 39.36970478334247 1.6 0
  endloop
 endfacet
 facet normal 0.0 -0.0 -1.0
  outer loop
   vertex 55.78647450843758 9.61832212156129 0
   vertex 56.53647450843758 9.07341522555727 0
   vertex 39.36970478334247 1.6 0
  endloop
 endfacet
 facet normal 0.0 0.0 -1.0
  outer loop
   vertex 56.53647450843758 9.07341522555727 0
   vertex 57.46352549156242 9.07341522555727 0
   vertex 67.37738380693523 1.6 0
  endloop
 endfacet
 facet normal 0.0 0.0 -1.0
  outer loop
   vertex 57.46352549156242 9.07341522555727 0
   vertex 58.21352549156242 9.61832212156129 0
   vertex 67.37738380693523 1.6 0
  endloop
 endfacet
 facet normal 0.0 1.0 0.0
  outer loop
   vertex 67.39872536954961 28.4 0
   vertex 52.17691489016487 28.4 0
   vertex 52.17691489016487 28.4 0.4
  endloop
 endfacet
 facet normal 0.0 1.0 0.0
  outer loop
   vertex 67.39872536954961 28.4 0.4
   vertex 67.39872536954961 28.4 0
   vertex 52.17691489016487 28.4 0.4
  endloop
 endfacet
 facet normal 0.9999996829318347 -0.0007963267107332561 0.0
  outer loop
   vertex 67.37738380693523 1.6 0
   vertex 67.39872536954961 28.4 0
   vertex 67.39872536954961 28.4 0.4
  endloop
 endfacet
 facet normal 0.9999996829318347 -0.0007963267107332561 0.0
  outer loop
   vertex 67.37738380693523 1.6 0.4
   vertex 67.37738380693523 1.6 0
   vertex 67.39872536954961 28.4 0.4
  endloop
 endfacet
 facet normal 0.0 -1.0 0.0
  outer loop
   vertex 39.36970478334247 1.6 0
   vertex 67.37738380693523 1.6 0
   vertex 67.37738380693523 1.6 0.4
  endloop
 endfacet
 facet normal 0.0 -1.0 0.0
  outer loop
   vertex 39.36970478334247 1.6 0.4
   vertex 39.36970478334247 1.6 0
   vertex 67.37738380693523 1.6 0.4
  endloop
 endfacet
 facet normal -0.9022675940990951 0.43117651679866664 0.0
  outer loop
   vertex 52.17691489016487 28.4 0
   vertex 39.36970478334247 1.6 0
   vertex 39.36970478334247 1.6 0.4
  endloop
 endfacet
 facet normal -0.9022675940990951 0.43117651679866664 0.0
  outer loop
   vertex 52.17691489016487 28.4 0.4
   vertex 52.17691489016487 28.4 0
   vertex 39.36970478334247 1.6 0.4
  endloop
 endfacet
 facet normal -0.0 0.0 1.0
  outer loop
   vertex 52.17691489016487 28.4 0.4
   vertex 58.21352549156242 11.38167787843871 0.4
   vertex 67.39872536954961 28.4 0.4
  endloop
 endfacet
 facet normal 0.0 0.0 1.0
  outer loop
   vertex 67.39872536954961 28.4 0.4
   vertex 58.5 10.5 0.4
   vertex 67.37738380693523 1.6 0.4
  endloop
 endfacet
 facet normal 0.0 0.0 1.0
  outer loop
   vertex 67.37738380693523 1.6 0.4
   vertex 56.53647450843758 9.07341522555727 0.4
   vertex 39.36970478334247 1.6 0.4
  endloop
 endfacet
 facet normal 0.0 0.0 1.0
  outer loop
   vertex 39.36970478334247 1.6 0.4
   vertex 56.53647450843758 11.92658477444273 0.4
   vertex 52.17691489016487 28.4 0.4
  endloop
 endfacet
 facet normal 0.0 -0.0 1.0
  outer loop
   vertex 58.5 10.5 0.4
   vertex 67.39872536954961 28.4 0.4
   vertex 58.21352549156242 11.38167787843871 0.4
  endloop
 endfacet
 facet normal 0.0 0.0 1.0
  outer loop
   vertex 58.5 10.5 0.4
   vertex 58.21352549156242 9.61832212156129 0.4
   vertex 67.37738380693523 1.6 0.4
  endloop
 endfacet
 facet normal 0.0 0.0 1.0
  outer loop
   vertex 58.21352549156242 11.38167787843871 0.4
   vertex 52.17691489016487 28.4 0.4
   vertex 57.46352549156242 11.92658477444273 0.4
  endloop
 endfacet
 facet normal 0.0 0.0 1.0
  outer loop
   vertex 57.46352549156242 11.92658477444273 0.4
   vertex 52.17691489016487 28.4 0.4
   vertex 56.53647450843758 11.92658477444273 0.4
  endloop
 endfacet
 facet normal 0.0 0.0 1.0
  outer loop
   vertex 56.53647450843758 11.92658477444273 0.4
   vertex 39.36970478334247 1.6 0.4
   vertex 55.78647450843758 11.38167787843871 0.4
  endloop
 endfacet
 facet normal 0.0 0.0 1.0
  outer loop
   vertex 55.78647450843758 11.38167787843871 0.4
   vertex 39.36970478334247 1.6 0.4
   vertex 55.5 10.5 0.4
  endloop
 endfacet
 facet normal 0.0 0.0 1.0
  outer loop
   vertex 55.5 10.5 0.4
   vertex 39.36970478334247 1.6 0.4
   vertex 55.78647450843758 9.61832212156129 0.4
  endloop
 endfacet
 facet normal 0.0 0.0 1.0
  outer loop
   vertex 55.78647450843758 9.61832212156129 0.4
   vertex 39.36970478334247 1.6 0.4
   vertex 56.53647450843758 9.07341522555727 0.4
  endloop
 endfacet
 facet normal -0.0 0.0 1.0
  outer loop
   vertex 56.53647450843758 9.07341522555727 0.4
   vertex 67.37738380693523 1.6 0.4
   vertex 57.46352549156242 9.07341522555727 0.4
  endloop
 endfacet
 facet normal -0.0 0.0 1.0
  outer loop
   vertex 57.46352549156242 9.07341522555727 0.4
   vertex 67.37738380693523 1.6 0.4
   vertex 58.21352549156242 9.61832212156129 0.4
  endloop
 endfacet
 facet normal -0.9510565162951539 -0.30901699437494684 0.0
  outer loop
   vertex 58.5 10.5 0
   vertex 58.5 10.5 0.4
   vertex 58.21352549156242 11.38167787843871 0
  endloop
 endfacet
 facet normal -0.9510565162951539 -0.30901699437494684 0.0
  outer loop
   vertex 58.21352549156242 11.38167787843871 0
   vertex 58.5 10.5 0.4
   vertex 58.21352549156242 11.38167787843871 0.4
  endloop
 endfacet
 facet normal -0.5877852522924729 -0.8090169943749477 0.0
  outer loop
   vertex 58.21352549156242 11.38167787843871 0
   vertex 58.21352549156242 11.38167787843871 0.4
   vertex 57.46352549156242 11.92658477444273 0
  endloop
 endfacet
 facet normal -0.5877852522924729 -0.8090169943749477 0.0
  outer loop
   vertex 57.46352549156242 11.92658477444273 0
   vertex 58.21352549156242 11.38167787843871 0.4
   vertex 57.46352549156242 11.92658477444273 0.4
  endloop
 endfacet
 facet normal 0.0 -1.0 0.0
  outer loop
   vertex 57.46352549156242 11.92658477444273 0
   vertex 57.46352549156242 11.92658477444273 0.4
   vertex 56.53647450843758 11.92658477444273 0
  endloop
 endfacet
 facet normal 0.0 -1.0 0.0
  outer loop
   vertex 56.53647450843758 11.92658477444273 0
   vertex 57.46352549156242 11.92658477444273 0.4
   vertex 56.53647450843758 11.92658477444273 0.4
  endloop
 endfacet
 facet normal 0.5877852522924729 -0.8090169943749477 0.0
  outer loop
   vertex 56.53647450843758 11.92658477444273 0
   vertex 56.53647450843758 11.92658477444273 0.4
   vertex 55.78647450843758 11.38167787843871 0
  endloop
 endfacet
 facet normal 0.5877852522924729 -0.8090169943749477 0.0
  outer loop
   vertex 55.78647450843758 11.38167787843871 0
   vertex 56.53647450843758 11.92658477444273 0.4
   vertex 55.78647450843758 11.38167787843871 0.4
  endloop
 endfacet
 facet normal 0.9510565162951539 -0.30901699437494684 0.0
  outer loop
   vertex 55.78647450843758 11.38167787843871 0
   vertex 55.78647450843758 11.38167787843871 0.4
   vertex 55.5 10.5 0
  endloop
 endfacet
 facet normal 0.9510565162951539 -0.30901699437494684 0.0
  outer loop
   vertex 55.5 10.5 0
   vertex 55.78647450843758 11.38167787843871 0.4
   vertex 55.5 10.5 0.4
  endloop
 endfacet
 facet normal 0.9510565162951539 0.30901699437494684 -0.0
  outer loop
   vertex 55.5 10.5 0
   vertex 55.5 10.5 0.4
   vertex 55.78647450843758 9.61832212156129 0
  endloop
 endfacet
 facet normal 0.9510565162951539 0.30901699437494684 -0.0
  outer loop
   vertex 55.78647450843758 9.61832212156129 0
   vertex 55.5 10.5 0.4
   vertex 55.78647450843758 9.61832212156129 0.4
  endloop
 endfacet
 facet normal 0.5877852522924729 0.8090169943749477 -0.0
  outer loop
   vertex 55.78647450843758 9.61832212156129 0
   vertex 55.78647450843758 9.61832212156129 0.4
   vertex 56.53647450843758 9.07341522555727 0
  endloop
 endfacet
 facet normal 0.5877852522924729 0.8090169943749477 -0.0
  outer loop
   vertex 56.53647450843758 9.07341522555727 0
   vertex 55.78647450843758 9.61832212156129 0.4
   vertex 56.53647450843758 9.07341522555727 0.4
  endloop
 endfacet
 facet normal 0.0 1.0 0.0
  outer loop
   vertex 56.53647450843758 9.07341522555727 0
   vertex 56.53647450843758 9.07341522555727 0.4
   vertex 57.46352549156242 9.07341522555727 0
  endloop
 endfacet
 facet normal 0.0 1.0 -0.0
  outer loop
   vertex 57.46352549156242 9.07341522555727 0
   vertex 56.53647450843758 9.07341522555727 0.4
   vertex 57.46352549156242 9.07341522555727 0.4
  endloop
 endfacet
 facet normal -0.5877852522924729 0.8090169943749477 0.0
  outer loop
   vertex 57.46352549156242 9.07341522555727 0
   vertex 57.46352549156242 9.07341522555727 0.4
   vertex 58.21352549156242 9.61832212156129 0
  endloop
 endfacet
 facet normal -0.5877852522924729 0.8090169943749477 0.0
  outer loop
   vertex 58.21352549156242 9.61832212156129 0
   vertex 57.46352549156242 9.07341522555727 0.4
   vertex 58.21352549156242 9.61832212156129 0.4
  endloop
 endfacet
 facet normal -0.9510565162951539 0.30901699437494684 0.0
  outer loop
   vertex 58.21352549156242 9.61832212156129 0
   vertex 58.21352549156242 9.61832212156129 0.4
   vertex 58.5 10.5 0
  endloop
 endfacet
 facet normal -0.9510565162951539 0.30901699437494684 0.0
  outer loop
   vertex 58.5 10.5 0
   vertex 58.21352549156242 9.61832212156129 0.4
   vertex 58.5 10.5 0.4
  endloop
 endfacet
 facet normal 0.0 0.0 -1.0
  outer loop
   vertex 67.39872536954961 31.599999999999998 0
   vertex 52.17691489016489 31.600000000000005 0
   vertex 55.78647450843758 48.618322121561285 0
  endloop
 endfacet
 facet normal 0.0 0.0 -1.0
  outer loop
   vertex 52.17691489016489 31.600000000000005 0
   vertex 39.369704783342485 58.4 0
   vertex 55.5 49.49999999999999 0
  endloop
 endfacet
 facet normal 0.0 0.0 -1.0
  outer loop
   vertex 39.369704783342485 58.4 0
   vertex 67.37738380693523 58.400000000000006 0
   vertex 57.46352549156242 50.92658477444272 0
  endloop
 endfacet
 facet normal 0.0 -0.0 -1.0
  outer loop
   vertex 67.37738380693523 58.400000000000006 0
   vertex 67.39872536954961 31.599999999999998 0
   vertex 58.5 49.49999999999999 0
  endloop
 endfacet
 facet normal 0.0 -0.0 -1.0
  outer loop
   vertex 58.5 49.49999999999999 0
   vertex 67.39872536954961 31.599999999999998 0
   vertex 58.21352549156242 48.618322121561285 0
  endloop
 endfacet
 facet normal 0.0 0.0 -1.0
  outer loop
   vertex 58.5 49.49999999999999 0
   vertex 58.21352549156242 50.3816778784387 0
   vertex 67.37738380693523 58.400000000000006 0
  endloop
 endfacet
 facet normal 0.0 0.0 -1.0
  outer loop
   vertex 58.21352549156242 50.3816778784387 0
   vertex 57.46352549156242 50.92658477444272 0
   vertex 67.37738380693523 58.400000000000006 0
  endloop
 endfacet
 facet normal 0.0 0.0 -1.0
  outer loop
   vertex 57.46352549156242 50.92658477444272 0
   vertex 56.53647450843758 50.92658477444272 0
   vertex 39.369704783342485 58.4 0
  endloop
 endfacet
 facet normal -0.0 0.0 -1.0
  outer loop
   vertex 56.53647450843758 50.92658477444272 0
   vertex 55.78647450843758 50.3816778784387 0
   vertex 39.369704783342485 58.4 0
  endloop
 endfacet
 facet normal -0.0 0.0 -1.0
  outer loop
   vertex 55.78647450843758 50.3816778784387 0
   vertex 55.5 49.49999999999999 0
   vertex 39.369704783342485 58.4 0
  endloop
 endfacet
 facet normal 0.0 -0.0 -1.0
  outer loop
   vertex 55.5 49.49999999999999 0
   vertex 55.78647450843758 48.618322121561285 0
   vertex 52.17691489016489 31.600000000000005 0
  endloop
 endfacet
 facet normal 0.0 0.0 -1.0
  outer loop
   vertex 55.78647450843758 48.618322121561285 0
   vertex 56.53647450843758 48.07341522555726 0
   vertex 67.39872536954961 31.599999999999998 0
  endloop
 endfacet
 facet normal 0.0 0.0 -1.0
  outer loop
   vertex 56.53647450843758 48.07341522555726 0
   vertex 57.46352549156242 48.07341522555726 0
   vertex 67.39872536954961 31.599999999999998 0
  endloop
 endfacet
 facet normal 0.0 0.0 -1.0
  outer loop
   vertex 57.46352549156242 48.07341522555726 0
   vertex 58.21352549156242 48.618322121561285 0
   vertex 67.39872536954961 31.599999999999998 0
  endloop
 endfacet
 facet normal -4.667925255818984e-16 -1.0 0.0
  outer loop
   vertex 52.17691489016489 31.600000000000005 0
   vertex 67.39872536954961 31.599999999999998 0
   vertex 67.39872536954961 31.599999999999998 0.4
  endloop
 endfacet
 facet normal -4.667925255818984e-16 -1.0 -0.0
  outer loop
   vertex 52.17691489016489 31.600000000000005 0.4
   vertex 52.17691489016489 31.600000000000005 0
   vertex 67.39872536954961 31.599999999999998 0.4
  endloop
 endfacet
 facet normal -0.9022675940990951 -0.43117651679866664 0.0
  outer loop
   vertex 39.369704783342485 58.4 0
   vertex 52.17691489016489 31.600000000000005 0
   vertex 52.17691489016489 31.600000000000005 0.4
  endloop
 endfacet
 facet normal -0.9022675940990951 -0.43117651679866664 -0.0
  outer loop
   vertex 39.369704783342485 58.4 0.4
   vertex 39.369704783342485 58.4 0
   vertex 52.17691489016489 31.600000000000005 0.4
  endloop
 endfacet
 facet normal -2.5369568651567395e-16 1.0 0.0
  outer loop
   vertex 67.37738380693523 58.400000000000006 0
   vertex 39.369704783342485 58.4 0
   vertex 39.369704783342485 58.4 0.4
  endloop
 endfacet
 facet normal -2.5369568651567395e-16 1.0 0.0
  outer loop
   vertex 67.37738380693523 58.400000000000006 0.4
   vertex 67.37738380693523 58.400000000000006 0
   vertex 39.369704783342485 58.4 0.4
  endloop
 endfacet
 facet normal 0.9999996829318347 0.0007963267107332556 0.0
  outer loop
   vertex 67.39872536954961 31.599999999999998 0
   vertex 67.37738380693523 58.400000000000006 0
   vertex 67.37738380693523 58.400000000000006 0.4
  endloop
 endfacet
 facet normal 0.9999996829318347 0.0007963267107332556 0.0
  outer loop
   vertex 67.39872536954961 31.599999999999998 0.4
   vertex 67.39872536954961 31.599999999999998 0
   vertex 67.37738380693523 58.400000000000006 0.4
  endloop
 endfacet
 facet normal 0.0 0.0 1.0
  outer loop
   vertex 67.39872536954961 31.599999999999998 0.4
   vertex 55.78647450843758 48.618322121561285 0.4
   vertex 52.17691489016489 31.600000000000005 0.4
  endloop
 endfacet
 facet normal 0.0 -0.0 1.0
  outer loop
   vertex 52.17691489016489 31.600000000000005 0.4
   vertex 55.5 49.49999999999999 0.4
   vertex 39.369704783342485 58.4 0.4
  endloop
 endfacet
 facet normal -0.0 0.0 1.0
  outer loop
   vertex 39.369704783342485 58.4 0.4
   vertex 57.46352549156242 50.92658477444272 0.4
   vertex 67.37738380693523 58.400000000000006 0.4
  endloop
 endfacet
 facet normal 0.0 0.0 1.0
  outer loop
   vertex 67.37738380693523 58.400000000000006 0.4
   vertex 58.5 49.49999999999999 0.4
   vertex 67.39872536954961 31.599999999999998 0.4
  endloop
 endfacet
 facet normal 0.0 0.0 1.0
  outer loop
   vertex 58.5 49.49999999999999 0.4
   vertex 58.21352549156242 48.618322121561285 0.4
   vertex 67.39872536954961 31.599999999999998 0.4
  endloop
 endfacet
 facet normal 0.0 -0.0 1.0
  outer loop
   vertex 58.5 49.49999999999999 0.4
   vertex 67.37738380693523 58.400000000000006 0.4
   vertex 58.21352549156242 50.3816778784387 0.4
  endloop
 endfacet
 facet normal 0.0 -0.0 1.0
  outer loop
   vertex 58.21352549156242 50.3816778784387 0.4
   vertex 67.37738380693523 58.400000000000006 0.4
   vertex 57.46352549156242 50.92658477444272 0.4
  endloop
 endfacet
 facet normal 0.0 0.0 1.0
  outer loop
   vertex 57.46352549156242 50.92658477444272 0.4
   vertex 39.369704783342485 58.4 0.4
   vertex 56.53647450843758 50.92658477444272 0.4
  endloop
 endfacet
 facet normal 0.0 0.0 1.0
  outer loop
   vertex 56.53647450843758 50.92658477444272 0.4
   vertex 39.369704783342485 58.4 0.4
   vertex 55.78647450843758 50.3816778784387 0.4
  endloop
 endfacet
 facet normal 0.0 0.0 1.0
  outer loop
   vertex 55.78647450843758 50.3816778784387 0.4
   vertex 39.369704783342485 58.4 0.4
   vertex 55.5 49.49999999999999 0.4
  endloop
 endfacet
 facet normal 0.0 0.0 1.0
  outer loop
   vertex 55.5 49.49999999999999 0.4
   vertex 52.17691489016489 31.600000000000005 0.4
   vertex 55.78647450843758 48.618322121561285 0.4
  endloop
 endfacet
 facet normal 0.0 0.0 1.0
  outer loop
   vertex 55.78647450843758 48.618322121561285 0.4
   vertex 67.39872536954961 31.599999999999998 0.4
   vertex 56.53647450843758 48.07341522555726 0.4
  endloop
 endfacet
 facet normal -0.0 0.0 1.0
  outer loop
   vertex 56.53647450843758 48.07341522555726 0.4
   vertex 67.39872536954961 31.599999999999998 0.4
   vertex 57.46352549156242 48.07341522555726 0.4
  endloop
 endfacet
 facet normal -0.0 0.0 1.0
  outer loop
   vertex 57.46352549156242 48.07341522555726 0.4
   vertex 67.39872536954961 31.599999999999998 0.4
   vertex 58.21352549156242 48.618322121561285 0.4
  endloop
 endfacet
 facet normal -0.9510565162951536 -0.3090169943749474 0.0
  outer loop
   vertex 58.5 49.49999999999999 0
   vertex 58.5 49.49999999999999 0.4
   vertex 58.21352549156242 50.3816778784387 0
  endloop
 endfacet
 facet normal -0.9510565162951536 -0.3090169943749474 0.0
  outer loop
   vertex 58.21352549156242 50.3816778784387 0
   vertex 58.5 49.49999999999999 0.4
   vertex 58.21352549156242 50.3816778784387 0.4
  endloop
 endfacet
 facet normal -0.5877852522924741 -0.8090169943749467 0.0
  outer loop
   vertex 58.21352549156242 50.3816778784387 0
   vertex 58.21352549156242 50.3816778784387 0.4
   vertex 57.46352549156242 50.92658477444272 0
  endloop
 endfacet
 facet normal -0.5877852522924741 -0.8090169943749467 0.0
  outer loop
   vertex 57.46352549156242 50.92658477444272 0
   vertex 58.21352549156242 50.3816778784387 0.4
   vertex 57.46352549156242 50.92658477444272 0.4
  endloop
 endfacet
 facet normal 0.0 -1.0 0.0
  outer loop
   vertex 57.46352549156242 50.92658477444272 0
   vertex 57.46352549156242 50.92658477444272 0.4
   vertex 56.53647450843758 50.92658477444272 0
  endloop
 endfacet
 facet normal 0.0 -1.0 0.0
  outer loop
   vertex 56.53647450843758 50.92658477444272 0
   vertex 57.46352549156242 50.92658477444272 0.4
   vertex 56.53647450843758 50.92658477444272 0.4
  endloop
 endfacet
 facet normal 0.5877852522924741 -0.8090169943749467 0.0
  outer loop
   vertex 56.53647450843758 50.92658477444272 0
   vertex 56.53647450843758 50.92658477444272 0.4
   vertex 55.78647450843758 50.3816778784387 0
  endloop
 endfacet
 facet normal 0.5877852522924741 -0.8090169943749467 0.0
  outer loop
   vertex 55.78647450843758 50.3816778784387 0
   vertex 56.53647450843758 50.92658477444272 0.4
   vertex 55.78647450843758 50.3816778784387 0.4
  endloop
 endfacet
 facet normal 0.9510565162951536 -0.3090169943749474 0.0
  outer loop
   vertex 55.78647450843758 50.3816778784387 0
   vertex 55.78647450843758 50.3816778784387 0.4
   vertex 55.5 49.49999999999999 0
  endloop
 endfacet
 facet normal 0.9510565162951536 -0.3090169943749474 0.0
  outer loop
   vertex 55.5 49.49999999999999 0
   vertex 55.78647450843758 50.3816778784387 0.4
   vertex 55.5 49.49999999999999 0.4
  endloop
 endfacet
 facet normal 0.9510565162951536 0.3090169943749474 -0.0
  outer loop
   vertex 55.5 49.49999999999999 0
   vertex 55.5 49.49999999999999 0.4
   vertex 55.78647450843758 48.618322121561285 0
  endloop
 endfacet
 facet normal 0.9510565162951536 0.3090169943749474 -0.0
  outer loop
   vertex 55.78647450843758 48.618322121561285 0
   vertex 55.5 49.49999999999999 0.4
   vertex 55.78647450843758 48.618322121561285 0.4
  endloop
 endfacet
 facet normal 0.5877852522924741 0.8090169943749467 -0.0
  outer loop
   vertex 55.78647450843758 48.618322121561285 0
   vertex 55.78647450843758 48.618322121561285 0.4
   vertex 56.53647450843758 48.07341522555726 0
  endloop
 endfacet
 facet normal 0.5877852522924741 0.8090169943749467 -0.0
  outer loop
   vertex 56.53647450843758 48.07341522555726 0
   vertex 55.78647450843758 48.618322121561285 0.4
   vertex 56.53647450843758 48.07341522555726 0.4
  endloop
 endfacet
 facet normal 0.0 1.0 0.0
  outer loop
   vertex 56.53647450843758 48.07341522555726 0
   vertex 56.53647450843758 48.07341522555726 0.4
   vertex 57.46352549156242 48.07341522555726 0
  endloop
 endfacet
 facet normal 0.0 1.0 -0.0
  outer loop
   vertex 57.46352549156242 48.07341522555726 0
   vertex 56.53647450843758 48.07341522555726 0.4
   vertex 57.46352549156242 48.07341522555726 0.4
  endloop
 endfacet
 facet normal -0.5877852522924741 0.8090169943749467 0.0
  outer loop
   vertex 57.46352549156242 48.07341522555726 0
   vertex 57.46352549156242 48.07341522555726 0.4
   vertex 58.21352549156242 48.618322121561285 0
  endloop
 endfacet
 facet normal -0.5877852522924741 0.8090169943749467 0.0
  outer loop
   vertex 58.21352549156242 48.618322121561285 0
   vertex 57.46352549156242 48.07341522555726 0.4
   vertex 58.21352549156242 48.618322121561285 0.4
  endloop
 endfacet
 facet normal -0.9510565162951536 0.3090169943749474 0.0
  outer loop
   vertex 58.21352549156242 48.618322121561285 0
   vertex 58.21352549156242 48.618322121561285 0.4
   vertex 58.5 49.49999999999999 0
  endloop
 endfacet
 facet normal -0.9510565162951536 0.3090169943749474 0.0
  outer loop
   vertex 58.5 49.49999999999999 0
   vertex 58.21352549156242 48.618322121561285 0.4
   vertex 58.5 49.49999999999999 0.4
  endloop
 endfacet
endsolid
