solid PyGamic generated __Board__ SLA File
 facet normal 0.0 0.0 -1.0
  outer loop
   vertex -0.000337828981146697 29.82 0
   vertex 15.541965880459514 29.82 0
   vertex 19.737522030810062 16.86334620331157 0
  endloop
 endfacet
 facet normal 0.0 0.0 -1.0
  outer loop
   vertex 15.541965880459514 29.82 0
   vertex 45.38472100883449 0.001 0
   vertex 20.15302727799242 16.29145229322886 0
  endloop
 endfacet
 facet normal 0.0 0.0 -1.0
  outer loop
   vertex 45.38472100883449 0.001 0
   vertex -0.024083502697499076 0.001 0
   vertex 17.75 14.127756813566453 0
  endloop
 endfacet
 facet normal 0.0 0.0 -1.0
  outer loop
   vertex -0.024083502697499076 0.001 0
   vertex -0.000337828981146697 29.82 0
   vertex 4.33714907875253 16.10344987439019 0
  endloop
 endfacet
 facet normal 0.0 0.0 -1.0
  outer loop
   vertex 20.3 15.6 0
   vertex 20.15302727799242 16.29145229322886 0
   vertex 45.38472100883449 0.001 0
  endloop
 endfacet
 facet normal 0.0 -0.0 -1.0
  outer loop
   vertex 20.3 15.6 0
   vertex 45.38472100883449 0.001 0
   vertex 20.15302727799242 14.908547706771138 0
  endloop
 endfacet
 facet normal 0.0 0.0 -1.0
  outer loop
   vertex 20.15302727799242 16.29145229322886 0
   vertex 19.737522030810062 16.86334620331157 0
   vertex 15.541965880459514 29.82 0
  endloop
 endfacet
 facet normal 0.0 0.0 -1.0
  outer loop
   vertex 19.737522030810062 16.86334620331157 0
   vertex 19.125328890437412 17.216796077701762 0
   vertex -0.000337828981146697 29.82 0
  endloop
 endfacet
 facet normal 0.0 0.0 -1.0
  outer loop
   vertex 19.125328890437412 17.216796077701762 0
   vertex 18.42230161244499 17.290687222126063 0
   vertex -0.000337828981146697 29.82 0
  endloop
 endfacet
 facet normal 0.0 0.0 -1.0
  outer loop
   vertex 18.42230161244499 17.290687222126063 0
   vertex 5.822301612444989 17.440687222126066 0
   vertex -0.000337828981146697 29.82 0
  endloop
 endfacet
 facet normal 0.0 0.0 -1.0
  outer loop
   vertex 18.42230161244499 17.290687222126063 0
   vertex 7.553027277992421 15.058547706771138 0
   vertex 7.7 15.75 0
  endloop
 endfacet
 facet normal 0.0 0.0 -1.0
  outer loop
   vertex 18.42230161244499 17.290687222126063 0
   vertex 7.7 15.75 0
   vertex 7.553027277992422 16.44145229322886 0
  endloop
 endfacet
 facet normal 0.0 0.0 -1.0
  outer loop
   vertex 18.42230161244499 17.290687222126063 0
   vertex 7.553027277992422 16.44145229322886 0
   vertex 7.137522030810059 17.01334620331157 0
  endloop
 endfacet
 facet normal -0.0 0.0 -1.0
  outer loop
   vertex 18.42230161244499 17.290687222126063 0
   vertex 7.137522030810059 17.01334620331157 0
   vertex 6.525328890437411 17.36679607770176 0
  endloop
 endfacet
 facet normal 0.0 0.0 -1.0
  outer loop
   vertex 18.42230161244499 17.290687222126063 0
   vertex 6.525328890437411 17.36679607770176 0
   vertex 5.822301612444989 17.440687222126066 0
  endloop
 endfacet
 facet normal 0.0 0.0 -1.0
  outer loop
   vertex 18.42230161244499 17.290687222126063 0
   vertex 17.75 17.072243186433546 0
   vertex 6.52532889043741 14.13320392229824 0
  endloop
 endfacet
 facet normal 0.0 0.0 -1.0
  outer loop
   vertex 18.42230161244499 17.290687222126063 0
   vertex 6.52532889043741 14.13320392229824 0
   vertex 7.137522030810058 14.48665379668843 0
  endloop
 endfacet
 facet normal 0.0 0.0 -1.0
  outer loop
   vertex 18.42230161244499 17.290687222126063 0
   vertex 7.137522030810058 14.48665379668843 0
   vertex 7.553027277992421 15.058547706771138 0
  endloop
 endfacet
 facet normal 0.0 0.0 -1.0
  outer loop
   vertex 17.75 17.072243186433546 0
   vertex 17.22467110956259 16.599234928897204 0
   vertex 6.52532889043741 14.13320392229824 0
  endloop
 endfacet
 facet normal 0.0 0.0 -1.0
  outer loop
   vertex 17.22467110956259 16.599234928897204 0
   vertex 16.937149078752533 15.953449874390191 0
   vertex -0.024083502697499076 0.001 0
  endloop
 endfacet
 facet normal 0.0 0.0 -1.0
  outer loop
   vertex 17.22467110956259 16.599234928897204 0
   vertex -0.024083502697499076 0.001 0
   vertex 6.52532889043741 14.13320392229824 0
  endloop
 endfacet
 facet normal 0.0 -0.0 -1.0
  outer loop
   vertex 16.937149078752533 15.953449874390191 0
   vertex 16.937149078752533 15.24655012560981 0
   vertex -0.024083502697499076 0.001 0
  endloop
 endfacet
 facet normal 0.0 -0.0 -1.0
  outer loop
   vertex 16.937149078752533 15.24655012560981 0
   vertex 17.22467110956259 14.600765071102796 0
   vertex -0.024083502697499076 0.001 0
  endloop
 endfacet
 facet normal 0.0 -0.0 -1.0
  outer loop
   vertex 17.22467110956259 14.600765071102796 0
   vertex 17.75 14.127756813566453 0
   vertex -0.024083502697499076 0.001 0
  endloop
 endfacet
 facet normal 0.0 0.0 -1.0
  outer loop
   vertex 17.75 14.127756813566453 0
   vertex 18.42230161244499 13.909312777873934 0
   vertex 45.38472100883449 0.001 0
  endloop
 endfacet
 facet normal 0.0 0.0 -1.0
  outer loop
   vertex 18.42230161244499 13.909312777873934 0
   vertex 19.125328890437412 13.983203922298237 0
   vertex 45.38472100883449 0.001 0
  endloop
 endfacet
 facet normal 0.0 0.0 -1.0
  outer loop
   vertex 19.125328890437412 13.983203922298237 0
   vertex 19.73752203081006 14.336653796688429 0
   vertex 45.38472100883449 0.001 0
  endloop
 endfacet
 facet normal 0.0 0.0 -1.0
  outer loop
   vertex 19.73752203081006 14.336653796688429 0
   vertex 20.15302727799242 14.908547706771138 0
   vertex 45.38472100883449 0.001 0
  endloop
 endfacet
 facet normal -0.0 0.0 -1.0
  outer loop
   vertex 5.822301612444989 17.440687222126066 0
   vertex 5.15 17.222243186433545 0
   vertex -0.000337828981146697 29.82 0
  endloop
 endfacet
 facet normal -0.0 0.0 -1.0
  outer loop
   vertex 5.15 17.222243186433545 0
   vertex 4.624671109562589 16.749234928897206 0
   vertex -0.000337828981146697 29.82 0
  endloop
 endfacet
 facet normal -0.0 0.0 -1.0
  outer loop
   vertex 4.624671109562589 16.749234928897206 0
   vertex 4.33714907875253 16.10344987439019 0
   vertex -0.000337828981146697 29.82 0
  endloop
 endfacet
 facet normal 0.0 -0.0 -1.0
  outer loop
   vertex 4.33714907875253 16.10344987439019 0
   vertex 4.33714907875253 15.39655012560981 0
   vertex -0.024083502697499076 0.001 0
  endloop
 endfacet
 facet normal 0.0 -0.0 -1.0
  outer loop
   vertex 4.33714907875253 15.39655012560981 0
   vertex 4.624671109562589 14.750765071102796 0
   vertex -0.024083502697499076 0.001 0
  endloop
 endfacet
 facet normal 0.0 -0.0 -1.0
  outer loop
   vertex 4.624671109562589 14.750765071102796 0
   vertex 5.1499999999999995 14.277756813566455 0
   vertex -0.024083502697499076 0.001 0
  endloop
 endfacet
 facet normal 0.0 -0.0 -1.0
  outer loop
   vertex 5.1499999999999995 14.277756813566455 0
   vertex 5.822301612444988 14.059312777873934 0
   vertex -0.024083502697499076 0.001 0
  endloop
 endfacet
 facet normal 0.0 -0.0 -1.0
  outer loop
   vertex 5.822301612444988 14.059312777873934 0
   vertex 6.52532889043741 14.13320392229824 0
   vertex -0.024083502697499076 0.001 0
  endloop
 endfacet
 facet normal 0.0 1.0 0.0
  outer loop
   vertex 15.541965880459514 29.82 0
   vertex -0.000337828981146697 29.82 0
   vertex -0.000337828981146697 29.82 0.36
  endloop
 endfacet
 facet normal 0.0 1.0 0.0
  outer loop
   vertex 15.541965880459514 29.82 0.36
   vertex 15.541965880459514 29.82 0
   vertex -0.000337828981146697 29.82 0.36
  endloop
 endfacet
 facet normal 0.7068251811053659 0.7073882691671998 0.0
  outer loop
   vertex 45.38472100883449 0.001 0
   vertex 15.541965880459514 29.82 0
   vertex 15.541965880459514 29.82 0.36
  endloop
 endfacet
 facet normal 0.7068251811053659 0.7073882691671998 0.0
  outer loop
   vertex 45.38472100883449 0.001 0.36
   vertex 45.38472100883449 0.001 0
   vertex 15.541965880459514 29.82 0.36
  endloop
 endfacet
 facet normal 0.0 -1.0 0.0
  outer loop
   vertex -0.024083502697499076 0.001 0
   vertex 45.38472100883449 0.001 0
   vertex 45.38472100883449 0.001 0.36
  endloop
 endfacet
 facet normal 0.0 -1.0 0.0
  outer loop
   vertex -0.024083502697499076 0.001 0.36
   vertex -0.024083502697499076 0.001 0
   vertex 45.38472100883449 0.001 0.36
  endloop
 endfacet
 facet normal -0.9999996829318346 0.0007963267107332635 0.0
  outer loop
   vertex -0.000337828981146697 29.82 0
   vertex -0.024083502697499076 0.001 0
   vertex -0.024083502697499076 0.001 0.36
  endloop
 endfacet
 facet normal -0.9999996829318346 0.0007963267107332635 0.0
  outer loop
   vertex -0.000337828981146697 29.82 0.36
   vertex -0.000337828981146697 29.82 0
   vertex -0.024083502697499076 0.001 0.36
  endloop
 endfacet
 facet normal -0.0 0.0 1.0
  outer loop
   vertex -0.000337828981146697 29.82 0.36
   vertex 19.737522030810062 16.86334620331157 0.36
   vertex 15.541965880459514 29.82 0.36
  endloop
 endfacet
 facet normal 0.0 0.0 1.0
  outer loop
   vertex 15.541965880459514 29.82 0.36
   vertex 20.15302727799242 16.29145229322886 0.36
   vertex 45.38472100883449 0.001 0.36
  endloop
 endfacet
 facet normal 0.0 0.0 1.0
  outer loop
   vertex 45.38472100883449 0.001 0.36
   vertex 17.75 14.127756813566453 0.36
   vertex -0.024083502697499076 0.001 0.36
  endloop
 endfacet
 facet normal 0.0 0.0 1.0
  outer loop
   vertex -0.024083502697499076 0.001 0.36
   vertex 4.33714907875253 16.10344987439019 0.36
   vertex -0.000337828981146697 29.82 0.36
  endloop
 endfacet
 facet normal -0.0 -0.0 1.0
  outer loop
   vertex 20.3 15.6 0.36
   vertex 45.38472100883449 0.001 0.36
   vertex 20.15302727799242 16.29145229322886 0.36
  endloop
 endfacet
 facet normal 0.0 0.0 1.0
  outer loop
   vertex 20.3 15.6 0.36
   vertex 20.15302727799242 14.908547706771138 0.36
   vertex 45.38472100883449 0.001 0.36
  endloop
 endfacet
 facet normal 0.0 0.0 1.0
  outer loop
   vertex 20.15302727799242 16.29145229322886 0.36
   vertex 15.541965880459514 29.82 0.36
   vertex 19.737522030810062 16.86334620331157 0.36
  endloop
 endfacet
 facet normal 0.0 0.0 1.0
  outer loop
   vertex 19.737522030810062 16.86334620331157 0.36
   vertex -0.000337828981146697 29.82 0.36
   vertex 19.125328890437412 17.216796077701762 0.36
  endloop
 endfacet
 facet normal 0.0 0.0 1.0
  outer loop
   vertex 19.125328890437412 17.216796077701762 0.36
   vertex -0.000337828981146697 29.82 0.36
   vertex 18.42230161244499 17.290687222126063 0.36
  endloop
 endfacet
 facet normal 0.0 0.0 1.0
  outer loop
   vertex 18.42230161244499 17.290687222126063 0.36
   vertex -0.000337828981146697 29.82 0.36
   vertex 5.822301612444989 17.440687222126066 0.36
  endloop
 endfacet
 facet normal 0.0 0.0 1.0
  outer loop
   vertex 18.42230161244499 17.290687222126063 0.36
   vertex 7.7 15.75 0.36
   vertex 7.553027277992421 15.058547706771138 0.36
  endloop
 endfacet
 facet normal 0.0 0.0 1.0
  outer loop
   vertex 18.42230161244499 17.290687222126063 0.36
   vertex 7.553027277992422 16.44145229322886 0.36
   vertex 7.7 15.75 0.36
  endloop
 endfacet
 facet normal 0.0 0.0 1.0
  outer loop
   vertex 18.42230161244499 17.290687222126063 0.36
   vertex 7.137522030810059 17.01334620331157 0.36
   vertex 7.553027277992422 16.44145229322886 0.36
  endloop
 endfacet
 facet normal 0.0 0.0 1.0
  outer loop
   vertex 18.42230161244499 17.290687222126063 0.36
   vertex 6.525328890437411 17.36679607770176 0.36
   vertex 7.137522030810059 17.01334620331157 0.36
  endloop
 endfacet
 facet normal 0.0 0.0 1.0
  outer loop
   vertex 18.42230161244499 17.290687222126063 0.36
   vertex 5.822301612444989 17.440687222126066 0.36
   vertex 6.525328890437411 17.36679607770176 0.36
  endloop
 endfacet
 facet normal 0.0 0.0 1.0
  outer loop
   vertex 18.42230161244499 17.290687222126063 0.36
   vertex 6.52532889043741 14.13320392229824 0.36
   vertex 17.75 17.072243186433546 0.36
  endloop
 endfacet
 facet normal 0.0 0.0 1.0
  outer loop
   vertex 18.42230161244499 17.290687222126063 0.36
   vertex 7.137522030810058 14.48665379668843 0.36
   vertex 6.52532889043741 14.13320392229824 0.36
  endloop
 endfacet
 facet normal 0.0 0.0 1.0
  outer loop
   vertex 18.42230161244499 17.290687222126063 0.36
   vertex 7.553027277992421 15.058547706771138 0.36
   vertex 7.137522030810058 14.48665379668843 0.36
  endloop
 endfacet
 facet normal 0.0 0.0 1.0
  outer loop
   vertex 17.75 17.072243186433546 0.36
   vertex 6.52532889043741 14.13320392229824 0.36
   vertex 17.22467110956259 16.599234928897204 0.36
  endloop
 endfacet
 facet normal 0.0 0.0 1.0
  outer loop
   vertex 17.22467110956259 16.599234928897204 0.36
   vertex -0.024083502697499076 0.001 0.36
   vertex 16.937149078752533 15.953449874390191 0.36
  endloop
 endfacet
 facet normal 0.0 0.0 1.0
  outer loop
   vertex 17.22467110956259 16.599234928897204 0.36
   vertex 6.52532889043741 14.13320392229824 0.36
   vertex -0.024083502697499076 0.001 0.36
  endloop
 endfacet
 facet normal 0.0 0.0 1.0
  outer loop
   vertex 16.937149078752533 15.953449874390191 0.36
   vertex -0.024083502697499076 0.001 0.36
   vertex 16.937149078752533 15.24655012560981 0.36
  endloop
 endfacet
 facet normal 0.0 0.0 1.0
  outer loop
   vertex 16.937149078752533 15.24655012560981 0.36
   vertex -0.024083502697499076 0.001 0.36
   vertex 17.22467110956259 14.600765071102796 0.36
  endloop
 endfacet
 facet normal 0.0 0.0 1.0
  outer loop
   vertex 17.22467110956259 14.600765071102796 0.36
   vertex -0.024083502697499076 0.001 0.36
   vertex 17.75 14.127756813566453 0.36
  endloop
 endfacet
 facet normal 0.0 0.0 1.0
  outer loop
   vertex 17.75 14.127756813566453 0.36
   vertex 45.38472100883449 0.001 0.36
   vertex 18.42230161244499 13.909312777873934 0.36
  endloop
 endfacet
 facet normal -0.0 0.0 1.0
  outer loop
   vertex 18.42230161244499 13.909312777873934 0.36
   vertex 45.38472100883449 0.001 0.36
   vertex 19.125328890437412 13.983203922298237 0.36
  endloop
 endfacet
 facet normal -0.0 0.0 1.0
  outer loop
   vertex 19.125328890437412 13.983203922298237 0.36
   vertex 45.38472100883449 0.001 0.36
   vertex 19.73752203081006 14.336653796688429 0.36
  endloop
 endfacet
 facet normal -0.0 0.0 1.0
  outer loop
   vertex 19.73752203081006 14.336653796688429 0.36
   vertex 45.38472100883449 0.001 0.36
   vertex 20.15302727799242 14.908547706771138 0.36
  endloop
 endfacet
 facet normal 0.0 0.0 1.0
  outer loop
   vertex 5.822301612444989 17.440687222126066 0.36
   vertex -0.000337828981146697 29.82 0.36
   vertex 5.15 17.222243186433545 0.36
  endloop
 endfacet
 facet normal 0.0 0.0 1.0
  outer loop
   vertex 5.15 17.222243186433545 0.36
   vertex -0.000337828981146697 29.82 0.36
   vertex 4.624671109562589 16.749234928897206 0.36
  endloop
 endfacet
 facet normal 0.0 0.0 1.0
  outer loop
   vertex 4.624671109562589 16.749234928897206 0.36
   vertex -0.000337828981146697 29.82 0.36
   vertex 4.33714907875253 16.10344987439019 0.36
  endloop
 endfacet
 facet normal 0.0 0.0 1.0
  outer loop
   vertex 4.33714907875253 16.10344987439019 0.36
   vertex -0.024083502697499076 0.001 0.36
   vertex 4.33714907875253 15.39655012560981 0.36
  endloop
 endfacet
 facet normal 0.0 0.0 1.0
  outer loop
   vertex 4.33714907875253 15.39655012560981 0.36
   vertex -0.024083502697499076 0.001 0.36
   vertex 4.624671109562589 14.750765071102796 0.36
  endloop
 endfacet
 facet normal 0.0 0.0 1.0
  outer loop
   vertex 4.624671109562589 14.750765071102796 0.36
   vertex -0.024083502697499076 0.001 0.36
   vertex 5.1499999999999995 14.277756813566455 0.36
  endloop
 endfacet
 facet normal 0.0 0.0 1.0
  outer loop
   vertex 5.1499999999999995 14.277756813566455 0.36
   vertex -0.024083502697499076 0.001 0.36
   vertex 5.822301612444988 14.059312777873934 0.36
  endloop
 endfacet
 facet normal -0.0 0.0 1.0
  outer loop
   vertex 5.822301612444988 14.059312777873934 0.36
   vertex -0.024083502697499076 0.001 0.36
   vertex 6.52532889043741 14.13320392229824 0.36
  endloop
 endfacet
 facet normal -0.9781476007338056 -0.2079116908177596 0.0
  outer loop
   vertex 20.3 15.6 0
   vertex 20.3 15.6 0.36
   vertex 20.15302727799242 16.29145229322886 0
  endloop
 endfacet
 facet normal -0.9781476007338056 -0.2079116908177596 0.0
  outer loop
   vertex 20.15302727799242 16.29145229322886 0
   vertex 20.3 15.6 0.36
   vertex 20.15302727799242 16.29145229322886 0.36
  endloop
 endfacet
 facet normal -0.8090169943749482 -0.5877852522924721 0.0
  outer loop
   vertex 20.15302727799242 16.29145229322886 0
   vertex 20.15302727799242 16.29145229322886 0.36
   vertex 19.737522030810062 16.86334620331157 0
  endloop
 endfacet
 facet normal -0.8090169943749482 -0.5877852522924721 0.0
  outer loop
   vertex 19.737522030810062 16.86334620331157 0
   vertex 20.15302727799242 16.29145229322886 0.36
   vertex 19.737522030810062 16.86334620331157 0.36
  endloop
 endfacet
 facet normal -0.5000000000000019 -0.8660254037844377 0.0
  outer loop
   vertex 19.737522030810062 16.86334620331157 0
   vertex 19.737522030810062 16.86334620331157 0.36
   vertex 19.125328890437412 17.216796077701762 0
  endloop
 endfacet
 facet normal -0.5000000000000019 -0.8660254037844377 0.0
  outer loop
   vertex 19.125328890437412 17.216796077701762 0
   vertex 19.737522030810062 16.86334620331157 0.36
   vertex 19.125328890437412 17.216796077701762 0.36
  endloop
 endfacet
 facet normal -0.10452846326765046 -0.9945218953682737 0.0
  outer loop
   vertex 19.125328890437412 17.216796077701762 0
   vertex 19.125328890437412 17.216796077701762 0.36
   vertex 18.42230161244499 17.290687222126063 0
  endloop
 endfacet
 facet normal -0.10452846326765046 -0.9945218953682737 0.0
  outer loop
   vertex 18.42230161244499 17.290687222126063 0
   vertex 19.125328890437412 17.216796077701762 0.36
   vertex 18.42230161244499 17.290687222126063 0.36
  endloop
 endfacet
 facet normal 0.3090169943749449 -0.9510565162951545 0.0
  outer loop
   vertex 18.42230161244499 17.290687222126063 0
   vertex 18.42230161244499 17.290687222126063 0.36
   vertex 17.75 17.072243186433546 0
  endloop
 endfacet
 facet normal 0.3090169943749449 -0.9510565162951545 0.0
  outer loop
   vertex 17.75 17.072243186433546 0
   vertex 18.42230161244499 17.290687222126063 0.36
   vertex 17.75 17.072243186433546 0.36
  endloop
 endfacet
 facet normal 0.669130606358859 -0.7431448254773937 0.0
  outer loop
   vertex 17.75 17.072243186433546 0
   vertex 17.75 17.072243186433546 0.36
   vertex 17.22467110956259 16.599234928897204 0
  endloop
 endfacet
 facet normal 0.669130606358859 -0.7431448254773937 0.0
  outer loop
   vertex 17.22467110956259 16.599234928897204 0
   vertex 17.75 17.072243186433546 0.36
   vertex 17.22467110956259 16.599234928897204 0.36
  endloop
 endfacet
 facet normal 0.9135454576426023 -0.40673664307579716 0.0
  outer loop
   vertex 17.22467110956259 16.599234928897204 0
   vertex 17.22467110956259 16.599234928897204 0.36
   vertex 16.937149078752533 15.953449874390191 0
  endloop
 endfacet
 facet normal 0.9135454576426023 -0.40673664307579716 0.0
  outer loop
   vertex 16.937149078752533 15.953449874390191 0
   vertex 17.22467110956259 16.599234928897204 0.36
   vertex 16.937149078752533 15.953449874390191 0.36
  endloop
 endfacet
 facet normal 1.0 0.0 -0.0
  outer loop
   vertex 16.937149078752533 15.953449874390191 0
   vertex 16.937149078752533 15.953449874390191 0.36
   vertex 16.937149078752533 15.24655012560981 0
  endloop
 endfacet
 facet normal 1.0 0.0 0.0
  outer loop
   vertex 16.937149078752533 15.24655012560981 0
   vertex 16.937149078752533 15.953449874390191 0.36
   vertex 16.937149078752533 15.24655012560981 0.36
  endloop
 endfacet
 facet normal 0.9135454576426026 0.4067366430757962 -0.0
  outer loop
   vertex 16.937149078752533 15.24655012560981 0
   vertex 16.937149078752533 15.24655012560981 0.36
   vertex 17.22467110956259 14.600765071102796 0
  endloop
 endfacet
 facet normal 0.9135454576426026 0.4067366430757962 -0.0
  outer loop
   vertex 17.22467110956259 14.600765071102796 0
   vertex 16.937149078752533 15.24655012560981 0.36
   vertex 17.22467110956259 14.600765071102796 0.36
  endloop
 endfacet
 facet normal 0.669130606358859 0.7431448254773937 -0.0
  outer loop
   vertex 17.22467110956259 14.600765071102796 0
   vertex 17.22467110956259 14.600765071102796 0.36
   vertex 17.75 14.127756813566453 0
  endloop
 endfacet
 facet normal 0.669130606358859 0.7431448254773937 -0.0
  outer loop
   vertex 17.75 14.127756813566453 0
   vertex 17.22467110956259 14.600765071102796 0.36
   vertex 17.75 14.127756813566453 0.36
  endloop
 endfacet
 facet normal 0.3090169943749472 0.9510565162951536 -0.0
  outer loop
   vertex 17.75 14.127756813566453 0
   vertex 17.75 14.127756813566453 0.36
   vertex 18.42230161244499 13.909312777873934 0
  endloop
 endfacet
 facet normal 0.3090169943749472 0.9510565162951536 -0.0
  outer loop
   vertex 18.42230161244499 13.909312777873934 0
   vertex 17.75 14.127756813566453 0.36
   vertex 18.42230161244499 13.909312777873934 0.36
  endloop
 endfacet
 facet normal -0.10452846326765297 0.9945218953682735 0.0
  outer loop
   vertex 18.42230161244499 13.909312777873934 0
   vertex 18.42230161244499 13.909312777873934 0.36
   vertex 19.125328890437412 13.983203922298237 0
  endloop
 endfacet
 facet normal -0.10452846326765297 0.9945218953682735 0.0
  outer loop
   vertex 19.125328890437412 13.983203922298237 0
   vertex 18.42230161244499 13.909312777873934 0.36
   vertex 19.125328890437412 13.983203922298237 0.36
  endloop
 endfacet
 facet normal -0.5000000000000021 0.8660254037844374 0.0
  outer loop
   vertex 19.125328890437412 13.983203922298237 0
   vertex 19.125328890437412 13.983203922298237 0.36
   vertex 19.73752203081006 14.336653796688429 0
  endloop
 endfacet
 facet normal -0.5000000000000021 0.8660254037844374 0.0
  outer loop
   vertex 19.73752203081006 14.336653796688429 0
   vertex 19.125328890437412 13.983203922298237 0.36
   vertex 19.73752203081006 14.336653796688429 0.36
  endloop
 endfacet
 facet normal -0.8090169943749467 0.5877852522924742 0.0
  outer loop
   vertex 19.73752203081006 14.336653796688429 0
   vertex 19.73752203081006 14.336653796688429 0.36
   vertex 20.15302727799242 14.908547706771138 0
  endloop
 endfacet
 facet normal -0.8090169943749467 0.5877852522924742 0.0
  outer loop
   vertex 20.15302727799242 14.908547706771138 0
   vertex 19.73752203081006 14.336653796688429 0.36
   vertex 20.15302727799242 14.908547706771138 0.36
  endloop
 endfacet
 facet normal -0.9781476007338056 0.2079116908177596 0.0
  outer loop
   vertex 20.15302727799242 14.908547706771138 0
   vertex 20.15302727799242 14.908547706771138 0.36
   vertex 20.3 15.6 0
  endloop
 endfacet
 facet normal -0.9781476007338056 0.2079116908177596 0.0
  outer loop
   vertex 20.3 15.6 0
   vertex 20.15302727799242 14.908547706771138 0.36
   vertex 20.3 15.6 0.36
  endloop
 endfacet
 facet normal -0.9781476007338056 -0.20791169081775887 0.0
  outer loop
   vertex 7.7 15.75 0
   vertex 7.7 15.75 0.36
   vertex 7.553027277992422 16.44145229322886 0
  endloop
 endfacet
 facet normal -0.9781476007338056 -0.20791169081775887 0.0
  outer loop
   vertex 7.553027277992422 16.44145229322886 0
   vertex 7.7 15.75 0.36
   vertex 7.553027277992422 16.44145229322886 0.36
  endloop
 endfacet
 facet normal -0.8090169943749476 -0.587785252292473 0.0
  outer loop
   vertex 7.553027277992422 16.44145229322886 0
   vertex 7.553027277992422 16.44145229322886 0.36
   vertex 7.137522030810059 17.01334620331157 0
  endloop
 endfacet
 facet normal -0.8090169943749476 -0.587785252292473 0.0
  outer loop
   vertex 7.137522030810059 17.01334620331157 0
   vertex 7.553027277992422 16.44145229322886 0.36
   vertex 7.137522030810059 17.01334620331157 0.36
  endloop
 endfacet
 facet normal -0.4999999999999991 -0.8660254037844392 0.0
  outer loop
   vertex 7.137522030810059 17.01334620331157 0
   vertex 7.137522030810059 17.01334620331157 0.36
   vertex 6.525328890437411 17.36679607770176 0
  endloop
 endfacet
 facet normal -0.4999999999999991 -0.8660254037844392 0.0
  outer loop
   vertex 6.525328890437411 17.36679607770176 0
   vertex 7.137522030810059 17.01334620331157 0.36
   vertex 6.525328890437411 17.36679607770176 0.36
  endloop
 endfacet
 facet normal -0.1045284632676556 -0.9945218953682733 0.0
  outer loop
   vertex 6.525328890437411 17.36679607770176 0
   vertex 6.525328890437411 17.36679607770176 0.36
   vertex 5.822301612444989 17.440687222126066 0
  endloop
 endfacet
 facet normal -0.1045284632676556 -0.9945218953682733 0.0
  outer loop
   vertex 5.822301612444989 17.440687222126066 0
   vertex 6.525328890437411 17.36679607770176 0.36
   vertex 5.822301612444989 17.440687222126066 0.36
  endloop
 endfacet
 facet normal 0.3090169943749498 -0.9510565162951528 0.0
  outer loop
   vertex 5.822301612444989 17.440687222126066 0
   vertex 5.822301612444989 17.440687222126066 0.36
   vertex 5.15 17.222243186433545 0
  endloop
 endfacet
 facet normal 0.3090169943749498 -0.9510565162951528 0.0
  outer loop
   vertex 5.15 17.222243186433545 0
   vertex 5.822301612444989 17.440687222126066 0.36
   vertex 5.15 17.222243186433545 0.36
  endloop
 endfacet
 facet normal 0.6691306063588562 -0.7431448254773961 0.0
  outer loop
   vertex 5.15 17.222243186433545 0
   vertex 5.15 17.222243186433545 0.36
   vertex 4.624671109562589 16.749234928897206 0
  endloop
 endfacet
 facet normal 0.6691306063588562 -0.7431448254773961 0.0
  outer loop
   vertex 4.624671109562589 16.749234928897206 0
   vertex 5.15 17.222243186433545 0.36
   vertex 4.624671109562589 16.749234928897206 0.36
  endloop
 endfacet
 facet normal 0.9135454576426011 -0.4067366430757995 0.0
  outer loop
   vertex 4.624671109562589 16.749234928897206 0
   vertex 4.624671109562589 16.749234928897206 0.36
   vertex 4.33714907875253 16.10344987439019 0
  endloop
 endfacet
 facet normal 0.9135454576426011 -0.4067366430757995 0.0
  outer loop
   vertex 4.33714907875253 16.10344987439019 0
   vertex 4.624671109562589 16.749234928897206 0.36
   vertex 4.33714907875253 16.10344987439019 0.36
  endloop
 endfacet
 facet normal 1.0 0.0 -0.0
  outer loop
   vertex 4.33714907875253 16.10344987439019 0
   vertex 4.33714907875253 16.10344987439019 0.36
   vertex 4.33714907875253 15.39655012560981 0
  endloop
 endfacet
 facet normal 1.0 0.0 0.0
  outer loop
   vertex 4.33714907875253 15.39655012560981 0
   vertex 4.33714907875253 16.10344987439019 0.36
   vertex 4.33714907875253 15.39655012560981 0.36
  endloop
 endfacet
 facet normal 0.9135454576426008 0.4067366430758005 -0.0
  outer loop
   vertex 4.33714907875253 15.39655012560981 0
   vertex 4.33714907875253 15.39655012560981 0.36
   vertex 4.624671109562589 14.750765071102796 0
  endloop
 endfacet
 facet normal 0.9135454576426008 0.4067366430758005 -0.0
  outer loop
   vertex 4.624671109562589 14.750765071102796 0
   vertex 4.33714907875253 15.39655012560981 0.36
   vertex 4.624671109562589 14.750765071102796 0.36
  endloop
 endfacet
 facet normal 0.6691306063588581 0.7431448254773942 -0.0
  outer loop
   vertex 4.624671109562589 14.750765071102796 0
   vertex 4.624671109562589 14.750765071102796 0.36
   vertex 5.1499999999999995 14.277756813566455 0
  endloop
 endfacet
 facet normal 0.6691306063588581 0.7431448254773942 -0.0
  outer loop
   vertex 5.1499999999999995 14.277756813566455 0
   vertex 4.624671109562589 14.750765071102796 0.36
   vertex 5.1499999999999995 14.277756813566455 0.36
  endloop
 endfacet
 facet normal 0.3090169943749501 0.9510565162951526 -0.0
  outer loop
   vertex 5.1499999999999995 14.277756813566455 0
   vertex 5.1499999999999995 14.277756813566455 0.36
   vertex 5.822301612444988 14.059312777873934 0
  endloop
 endfacet
 facet normal 0.3090169943749501 0.9510565162951526 -0.0
  outer loop
   vertex 5.822301612444988 14.059312777873934 0
   vertex 5.1499999999999995 14.277756813566455 0.36
   vertex 5.822301612444988 14.059312777873934 0.36
  endloop
 endfacet
 facet normal -0.10452846326765546 0.9945218953682733 0.0
  outer loop
   vertex 5.822301612444988 14.059312777873934 0
   vertex 5.822301612444988 14.059312777873934 0.36
   vertex 6.52532889043741 14.13320392229824 0
  endloop
 endfacet
 facet normal -0.10452846326765546 0.9945218953682733 0.0
  outer loop
   vertex 6.52532889043741 14.13320392229824 0
   vertex 5.822301612444988 14.059312777873934 0.36
   vertex 6.52532889043741 14.13320392229824 0.36
  endloop
 endfacet
 facet normal -0.4999999999999991 0.8660254037844392 0.0
  outer loop
   vertex 6.52532889043741 14.13320392229824 0
   vertex 6.52532889043741 14.13320392229824 0.36
   vertex 7.137522030810058 14.48665379668843 0
  endloop
 endfacet
 facet normal -0.4999999999999991 0.8660254037844392 0.0
  outer loop
   vertex 7.137522030810058 14.48665379668843 0
   vertex 6.52532889043741 14.13320392229824 0.36
   vertex 7.137522030810058 14.48665379668843 0.36
  endloop
 endfacet
 facet normal -0.8090169943749467 0.5877852522924742 0.0
  outer loop
   vertex 7.137522030810058 14.48665379668843 0
   vertex 7.137522030810058 14.48665379668843 0.36
   vertex 7.553027277992421 15.058547706771138 0
  endloop
 endfacet
 facet normal -0.8090169943749467 0.5877852522924742 0.0
  outer loop
   vertex 7.553027277992421 15.058547706771138 0
   vertex 7.137522030810058 14.48665379668843 0.36
   vertex 7.553027277992421 15.058547706771138 0.36
  endloop
 endfacet
 facet normal -0.9781476007338056 0.2079116908177596 0.0
  outer loop
   vertex 7.553027277992421 15.058547706771138 0
   vertex 7.553027277992421 15.058547706771138 0.36
   vertex 7.7 15.75 0
  endloop
 endfacet
 facet normal -0.9781476007338056 0.2079116908177596 0.0
  outer loop
   vertex 7.7 15.75 0
   vertex 7.553027277992421 15.058547706771138 0.36
   vertex 7.7 15.75 0.36
  endloop
 endfacet
 facet normal 0.0 0.0 -1.0
  outer loop
   vertex 15.5419658804595 33.18 0
   vertex -0.00033782898114669983 33.18 0
   vertex 16.937149078752533 47.553449874390196 0
  endloop
 endfacet
 facet normal 0.0 0.0 -1.0
  outer loop
   vertex -0.00033782898114669983 33.18 0
   vertex -0.024083502697499086 62.99900000000001 0
   vertex 4.33714907875253 47.60344987439019 0
  endloop
 endfacet
 facet normal 0.0 0.0 -1.0
  outer loop
   vertex -0.024083502697499086 62.99900000000001 0
   vertex 45.38472100883448 62.99900000000001 0
   vertex 19.737522030810062 48.46334620331157 0
  endloop
 endfacet
 facet normal 0.0 0.0 -1.0
  outer loop
   vertex 45.38472100883448 62.99900000000001 0
   vertex 15.5419658804595 33.18 0
   vertex 19.73752203081006 45.93665379668843 0
  endloop
 endfacet
 facet normal 0.0 0.0 -1.0
  outer loop
   vertex 20.3 47.2 0
   vertex 20.15302727799242 47.891452293228866 0
   vertex 45.38472100883448 62.99900000000001 0
  endloop
 endfacet
 facet normal 0.0 -0.0 -1.0
  outer loop
   vertex 20.3 47.2 0
   vertex 45.38472100883448 62.99900000000001 0
   vertex 20.15302727799242 46.50854770677114 0
  endloop
 endfacet
 facet normal 0.0 0.0 -1.0
  outer loop
   vertex 20.15302727799242 47.891452293228866 0
   vertex 19.737522030810062 48.46334620331157 0
   vertex 45.38472100883448 62.99900000000001 0
  endloop
 endfacet
 facet normal 0.0 0.0 -1.0
  outer loop
   vertex 19.737522030810062 48.46334620331157 0
   vertex 19.125328890437412 48.81679607770177 0
   vertex -0.024083502697499086 62.99900000000001 0
  endloop
 endfacet
 facet normal 0.0 0.0 -1.0
  outer loop
   vertex 19.125328890437412 48.81679607770177 0
   vertex 18.42230161244499 48.89068722212607 0
   vertex -0.024083502697499086 62.99900000000001 0
  endloop
 endfacet
 facet normal 0.0 0.0 -1.0
  outer loop
   vertex 18.42230161244499 48.89068722212607 0
   vertex 5.822301612444989 48.940687222126066 0
   vertex -0.024083502697499086 62.99900000000001 0
  endloop
 endfacet
 facet normal 0.0 0.0 -1.0
  outer loop
   vertex 18.42230161244499 48.89068722212607 0
   vertex 7.553027277992421 46.55854770677114 0
   vertex 7.7 47.25 0
  endloop
 endfacet
 facet normal 0.0 0.0 -1.0
  outer loop
   vertex 18.42230161244499 48.89068722212607 0
   vertex 7.7 47.25 0
   vertex 7.553027277992422 47.94145229322886 0
  endloop
 endfacet
 facet normal 0.0 0.0 -1.0
  outer loop
   vertex 18.42230161244499 48.89068722212607 0
   vertex 7.553027277992422 47.94145229322886 0
   vertex 7.137522030810059 48.51334620331157 0
  endloop
 endfacet
 facet normal 0.0 0.0 -1.0
  outer loop
   vertex 18.42230161244499 48.89068722212607 0
   vertex 7.137522030810059 48.51334620331157 0
   vertex 6.525328890437411 48.866796077701764 0
  endloop
 endfacet
 facet normal -0.0 0.0 -1.0
  outer loop
   vertex 18.42230161244499 48.89068722212607 0
   vertex 6.525328890437411 48.866796077701764 0
   vertex 5.822301612444989 48.940687222126066 0
  endloop
 endfacet
 facet normal 0.0 0.0 -1.0
  outer loop
   vertex 18.42230161244499 48.89068722212607 0
   vertex 17.75 48.67224318643355 0
   vertex 6.52532889043741 45.633203922298236 0
  endloop
 endfacet
 facet normal 0.0 0.0 -1.0
  outer loop
   vertex 18.42230161244499 48.89068722212607 0
   vertex 6.52532889043741 45.633203922298236 0
   vertex 7.137522030810058 45.98665379668843 0
  endloop
 endfacet
 facet normal 0.0 0.0 -1.0
  outer loop
   vertex 18.42230161244499 48.89068722212607 0
   vertex 7.137522030810058 45.98665379668843 0
   vertex 7.553027277992421 46.55854770677114 0
  endloop
 endfacet
 facet normal 0.0 0.0 -1.0
  outer loop
   vertex 17.75 48.67224318643355 0
   vertex 17.22467110956259 48.199234928897205 0
   vertex -0.00033782898114669983 33.18 0
  endloop
 endfacet
 facet normal 0.0 0.0 -1.0
  outer loop
   vertex 17.75 48.67224318643355 0
   vertex -0.00033782898114669983 33.18 0
   vertex 6.52532889043741 45.633203922298236 0
  endloop
 endfacet
 facet normal 0.0 0.0 -1.0
  outer loop
   vertex 17.22467110956259 48.199234928897205 0
   vertex 16.937149078752533 47.553449874390196 0
   vertex -0.00033782898114669983 33.18 0
  endloop
 endfacet
 facet normal 0.0 -0.0 -1.0
  outer loop
   vertex 16.937149078752533 47.553449874390196 0
   vertex 16.937149078752533 46.84655012560981 0
   vertex 15.5419658804595 33.18 0
  endloop
 endfacet
 facet normal 0.0 -0.0 -1.0
  outer loop
   vertex 16.937149078752533 46.84655012560981 0
   vertex 17.22467110956259 46.2007650711028 0
   vertex 15.5419658804595 33.18 0
  endloop
 endfacet
 facet normal 0.0 -0.0 -1.0
  outer loop
   vertex 17.22467110956259 46.2007650711028 0
   vertex 17.75 45.72775681356646 0
   vertex 15.5419658804595 33.18 0
  endloop
 endfacet
 facet normal 0.0 -0.0 -1.0
  outer loop
   vertex 17.75 45.72775681356646 0
   vertex 18.42230161244499 45.50931277787394 0
   vertex 15.5419658804595 33.18 0
  endloop
 endfacet
 facet normal 0.0 -0.0 -1.0
  outer loop
   vertex 18.42230161244499 45.50931277787394 0
   vertex 19.125328890437412 45.58320392229824 0
   vertex 15.5419658804595 33.18 0
  endloop
 endfacet
 facet normal 0.0 -0.0 -1.0
  outer loop
   vertex 19.125328890437412 45.58320392229824 0
   vertex 19.73752203081006 45.93665379668843 0
   vertex 15.5419658804595 33.18 0
  endloop
 endfacet
 facet normal 0.0 0.0 -1.0
  outer loop
   vertex 19.73752203081006 45.93665379668843 0
   vertex 20.15302727799242 46.50854770677114 0
   vertex 45.38472100883448 62.99900000000001 0
  endloop
 endfacet
 facet normal -0.0 0.0 -1.0
  outer loop
   vertex 5.822301612444989 48.940687222126066 0
   vertex 5.15 48.722243186433545 0
   vertex -0.024083502697499086 62.99900000000001 0
  endloop
 endfacet
 facet normal -0.0 0.0 -1.0
  outer loop
   vertex 5.15 48.722243186433545 0
   vertex 4.624671109562589 48.2492349288972 0
   vertex -0.024083502697499086 62.99900000000001 0
  endloop
 endfacet
 facet normal -0.0 0.0 -1.0
  outer loop
   vertex 4.624671109562589 48.2492349288972 0
   vertex 4.33714907875253 47.60344987439019 0
   vertex -0.024083502697499086 62.99900000000001 0
  endloop
 endfacet
 facet normal 0.0 -0.0 -1.0
  outer loop
   vertex 4.33714907875253 47.60344987439019 0
   vertex 4.33714907875253 46.89655012560981 0
   vertex -0.00033782898114669983 33.18 0
  endloop
 endfacet
 facet normal 0.0 -0.0 -1.0
  outer loop
   vertex 4.33714907875253 46.89655012560981 0
   vertex 4.624671109562589 46.2507650711028 0
   vertex -0.00033782898114669983 33.18 0
  endloop
 endfacet
 facet normal 0.0 -0.0 -1.0
  outer loop
   vertex 4.624671109562589 46.2507650711028 0
   vertex 5.1499999999999995 45.777756813566455 0
   vertex -0.00033782898114669983 33.18 0
  endloop
 endfacet
 facet normal 0.0 -0.0 -1.0
  outer loop
   vertex 5.1499999999999995 45.777756813566455 0
   vertex 5.822301612444988 45.559312777873934 0
   vertex -0.00033782898114669983 33.18 0
  endloop
 endfacet
 facet normal 0.0 -0.0 -1.0
  outer loop
   vertex 5.822301612444988 45.559312777873934 0
   vertex 6.52532889043741 45.633203922298236 0
   vertex -0.00033782898114669983 33.18 0
  endloop
 endfacet
 facet normal 0.0 -1.0 0.0
  outer loop
   vertex -0.00033782898114669983 33.18 0
   vertex 15.5419658804595 33.18 0
   vertex 15.5419658804595 33.18 0.36
  endloop
 endfacet
 facet normal 0.0 -1.0 0.0
  outer loop
   vertex -0.00033782898114669983 33.18 0.36
   vertex -0.00033782898114669983 33.18 0
   vertex 15.5419658804595 33.18 0.36
  endloop
 endfacet
 facet normal -0.9999996829318346 -0.0007963267107332631 0.0
  outer loop
   vertex -0.024083502697499086 62.99900000000001 0
   vertex -0.00033782898114669983 33.18 0
   vertex -0.00033782898114669983 33.18 0.36
  endloop
 endfacet
 facet normal -0.9999996829318346 -0.0007963267107332631 -0.0
  outer loop
   vertex -0.024083502697499086 62.99900000000001 0.36
   vertex -0.024083502697499086 62.99900000000001 0
   vertex -0.00033782898114669983 33.18 0.36
  endloop
 endfacet
 facet normal 0.0 1.0 0.0
  outer loop
   vertex 45.38472100883448 62.99900000000001 0
   vertex -0.024083502697499086 62.99900000000001 0
   vertex -0.024083502697499086 62.99900000000001 0.36
  endloop
 endfacet
 facet normal 0.0 1.0 0.0
  outer loop
   vertex 45.38472100883448 62.99900000000001 0.36
   vertex 45.38472100883448 62.99900000000001 0
   vertex -0.024083502697499086 62.99900000000001 0.36
  endloop
 endfacet
 facet normal 0.706825181105366 -0.7073882691671997 0.0
  outer loop
   vertex 15.5419658804595 33.18 0
   vertex 45.38472100883448 62.99900000000001 0
   vertex 45.38472100883448 62.99900000000001 0.36
  endloop
 endfacet
 facet normal 0.706825181105366 -0.7073882691671997 0.0
  outer loop
   vertex 15.5419658804595 33.18 0.36
   vertex 15.5419658804595 33.18 0
   vertex 45.38472100883448 62.99900000000001 0.36
  endloop
 endfacet
 facet normal 0.0 -0.0 1.0
  outer loop
   vertex 15.5419658804595 33.18 0.36
   vertex 16.937149078752533 47.553449874390196 0.36
   vertex -0.00033782898114669983 33.18 0.36
  endloop
 endfacet
 facet normal 0.0 -0.0 1.0
  outer loop
   vertex -0.00033782898114669983 33.18 0.36
   vertex 4.33714907875253 47.60344987439019 0.36
   vertex -0.024083502697499086 62.99900000000001 0.36
  endloop
 endfacet
 facet normal -0.0 0.0 1.0
  outer loop
   vertex -0.024083502697499086 62.99900000000001 0.36
   vertex 19.737522030810062 48.46334620331157 0.36
   vertex 45.38472100883448 62.99900000000001 0.36
  endloop
 endfacet
 facet normal 0.0 0.0 1.0
  outer loop
   vertex 45.38472100883448 62.99900000000001 0.36
   vertex 19.73752203081006 45.93665379668843 0.36
   vertex 15.5419658804595 33.18 0.36
  endloop
 endfacet
 facet normal 0.0 -0.0 1.0
  outer loop
   vertex 20.3 47.2 0.36
   vertex 45.38472100883448 62.99900000000001 0.36
   vertex 20.15302727799242 47.891452293228866 0.36
  endloop
 endfacet
 facet normal -0.0 0.0 1.0
  outer loop
   vertex 20.3 47.2 0.36
   vertex 20.15302727799242 46.50854770677114 0.36
   vertex 45.38472100883448 62.99900000000001 0.36
  endloop
 endfacet
 facet normal 0.0 -0.0 1.0
  outer loop
   vertex 20.15302727799242 47.891452293228866 0.36
   vertex 45.38472100883448 62.99900000000001 0.36
   vertex 19.737522030810062 48.46334620331157 0.36
  endloop
 endfacet
 facet normal 0.0 0.0 1.0
  outer loop
   vertex 19.737522030810062 48.46334620331157 0.36
   vertex -0.024083502697499086 62.99900000000001 0.36
   vertex 19.125328890437412 48.81679607770177 0.36
  endloop
 endfacet
 facet normal 0.0 0.0 1.0
  outer loop
   vertex 19.125328890437412 48.81679607770177 0.36
   vertex -0.024083502697499086 62.99900000000001 0.36
   vertex 18.42230161244499 48.89068722212607 0.36
  endloop
 endfacet
 facet normal 0.0 0.0 1.0
  outer loop
   vertex 18.42230161244499 48.89068722212607 0.36
   vertex -0.024083502697499086 62.99900000000001 0.36
   vertex 5.822301612444989 48.940687222126066 0.36
  endloop
 endfacet
 facet normal 0.0 0.0 1.0
  outer loop
   vertex 18.42230161244499 48.89068722212607 0.36
   vertex 7.7 47.25 0.36
   vertex 7.553027277992421 46.55854770677114 0.36
  endloop
 endfacet
 facet normal 0.0 0.0 1.0
  outer loop
   vertex 18.42230161244499 48.89068722212607 0.36
   vertex 7.553027277992422 47.94145229322886 0.36
   vertex 7.7 47.25 0.36
  endloop
 endfacet
 facet normal 0.0 0.0 1.0
  outer loop
   vertex 18.42230161244499 48.89068722212607 0.36
   vertex 7.137522030810059 48.51334620331157 0.36
   vertex 7.553027277992422 47.94145229322886 0.36
  endloop
 endfacet
 facet normal 0.0 0.0 1.0
  outer loop
   vertex 18.42230161244499 48.89068722212607 0.36
   vertex 6.525328890437411 48.866796077701764 0.36
   vertex 7.137522030810059 48.51334620331157 0.36
  endloop
 endfacet
 facet normal 0.0 0.0 1.0
  outer loop
   vertex 18.42230161244499 48.89068722212607 0.36
   vertex 5.822301612444989 48.940687222126066 0.36
   vertex 6.525328890437411 48.866796077701764 0.36
  endloop
 endfacet
 facet normal 0.0 0.0 1.0
  outer loop
   vertex 18.42230161244499 48.89068722212607 0.36
   vertex 6.52532889043741 45.633203922298236 0.36
   vertex 17.75 48.67224318643355 0.36
  endloop
 endfacet
 facet normal 0.0 0.0 1.0
  outer loop
   vertex 18.42230161244499 48.89068722212607 0.36
   vertex 7.137522030810058 45.98665379668843 0.36
   vertex 6.52532889043741 45.633203922298236 0.36
  endloop
 endfacet
 facet normal 0.0 0.0 1.0
  outer loop
   vertex 18.42230161244499 48.89068722212607 0.36
   vertex 7.553027277992421 46.55854770677114 0.36
   vertex 7.137522030810058 45.98665379668843 0.36
  endloop
 endfacet
 facet normal 0.0 0.0 1.0
  outer loop
   vertex 17.75 48.67224318643355 0.36
   vertex -0.00033782898114669983 33.18 0.36
   vertex 17.22467110956259 48.199234928897205 0.36
  endloop
 endfacet
 facet normal 0.0 0.0 1.0
  outer loop
   vertex 17.75 48.67224318643355 0.36
   vertex 6.52532889043741 45.633203922298236 0.36
   vertex -0.00033782898114669983 33.18 0.36
  endloop
 endfacet
 facet normal 0.0 0.0 1.0
  outer loop
   vertex 17.22467110956259 48.199234928897205 0.36
   vertex -0.00033782898114669983 33.18 0.36
   vertex 16.937149078752533 47.553449874390196 0.36
  endloop
 endfacet
 facet normal 0.0 0.0 1.0
  outer loop
   vertex 16.937149078752533 47.553449874390196 0.36
   vertex 15.5419658804595 33.18 0.36
   vertex 16.937149078752533 46.84655012560981 0.36
  endloop
 endfacet
 facet normal 0.0 0.0 1.0
  outer loop
   vertex 16.937149078752533 46.84655012560981 0.36
   vertex 15.5419658804595 33.18 0.36
   vertex 17.22467110956259 46.2007650711028 0.36
  endloop
 endfacet
 facet normal 0.0 0.0 1.0
  outer loop
   vertex 17.22467110956259 46.2007650711028 0.36
   vertex 15.5419658804595 33.18 0.36
   vertex 17.75 45.72775681356646 0.36
  endloop
 endfacet
 facet normal 0.0 0.0 1.0
  outer loop
   vertex 17.75 45.72775681356646 0.36
   vertex 15.5419658804595 33.18 0.36
   vertex 18.42230161244499 45.50931277787394 0.36
  endloop
 endfacet
 facet normal -0.0 0.0 1.0
  outer loop
   vertex 18.42230161244499 45.50931277787394 0.36
   vertex 15.5419658804595 33.18 0.36
   vertex 19.125328890437412 45.58320392229824 0.36
  endloop
 endfacet
 facet normal -0.0 0.0 1.0
  outer loop
   vertex 19.125328890437412 45.58320392229824 0.36
   vertex 15.5419658804595 33.18 0.36
   vertex 19.73752203081006 45.93665379668843 0.36
  endloop
 endfacet
 facet normal 0.0 0.0 1.0
  outer loop
   vertex 19.73752203081006 45.93665379668843 0.36
   vertex 45.38472100883448 62.99900000000001 0.36
   vertex 20.15302727799242 46.50854770677114 0.36
  endloop
 endfacet
 facet normal 0.0 0.0 1.0
  outer loop
   vertex 5.822301612444989 48.940687222126066 0.36
   vertex -0.024083502697499086 62.99900000000001 0.36
   vertex 5.15 48.722243186433545 0.36
  endloop
 endfacet
 facet normal 0.0 0.0 1.0
  outer loop
   vertex 5.15 48.722243186433545 0.36
   vertex -0.024083502697499086 62.99900000000001 0.36
   vertex 4.624671109562589 48.2492349288972 0.36
  endloop
 endfacet
 facet normal 0.0 0.0 1.0
  outer loop
   vertex 4.624671109562589 48.2492349288972 0.36
   vertex -0.024083502697499086 62.99900000000001 0.36
   vertex 4.33714907875253 47.60344987439019 0.36
  endloop
 endfacet
 facet normal 0.0 0.0 1.0
  outer loop
   vertex 4.33714907875253 47.60344987439019 0.36
   vertex -0.00033782898114669983 33.18 0.36
   vertex 4.33714907875253 46.89655012560981 0.36
  endloop
 endfacet
 facet normal 0.0 0.0 1.0
  outer loop
   vertex 4.33714907875253 46.89655012560981 0.36
   vertex -0.00033782898114669983 33.18 0.36
   vertex 4.624671109562589 46.2507650711028 0.36
  endloop
 endfacet
 facet normal 0.0 0.0 1.0
  outer loop
   vertex 4.624671109562589 46.2507650711028 0.36
   vertex -0.00033782898114669983 33.18 0.36
   vertex 5.1499999999999995 45.777756813566455 0.36
  endloop
 endfacet
 facet normal 0.0 0.0 1.0
  outer loop
   vertex 5.1499999999999995 45.777756813566455 0.36
   vertex -0.00033782898114669983 33.18 0.36
   vertex 5.822301612444988 45.559312777873934 0.36
  endloop
 endfacet
 facet normal -0.0 0.0 1.0
  outer loop
   vertex 5.822301612444988 45.559312777873934 0.36
   vertex -0.00033782898114669983 33.18 0.36
   vertex 6.52532889043741 45.633203922298236 0.36
  endloop
 endfacet
 facet normal -0.9781476007338057 -0.2079116908177591 0.0
  outer loop
   vertex 20.3 47.2 0
   vertex 20.3 47.2 0.36
   vertex 20.15302727799242 47.891452293228866 0
  endloop
 endfacet
 facet normal -0.9781476007338057 -0.2079116908177591 0.0
  outer loop
   vertex 20.15302727799242 47.891452293228866 0
   vertex 20.3 47.2 0.36
   vertex 20.15302727799242 47.891452293228866 0.36
  endloop
 endfacet
 facet normal -0.8090169943749482 -0.5877852522924721 0.0
  outer loop
   vertex 20.15302727799242 47.891452293228866 0
   vertex 20.15302727799242 47.891452293228866 0.36
   vertex 19.737522030810062 48.46334620331157 0
  endloop
 endfacet
 facet normal -0.8090169943749482 -0.5877852522924721 0.0
  outer loop
   vertex 19.737522030810062 48.46334620331157 0
   vertex 20.15302727799242 47.891452293228866 0.36
   vertex 19.737522030810062 48.46334620331157 0.36
  endloop
 endfacet
 facet normal -0.5000000000000019 -0.8660254037844377 0.0
  outer loop
   vertex 19.737522030810062 48.46334620331157 0
   vertex 19.737522030810062 48.46334620331157 0.36
   vertex 19.125328890437412 48.81679607770177 0
  endloop
 endfacet
 facet normal -0.5000000000000019 -0.8660254037844377 0.0
  outer loop
   vertex 19.125328890437412 48.81679607770177 0
   vertex 19.737522030810062 48.46334620331157 0.36
   vertex 19.125328890437412 48.81679607770177 0.36
  endloop
 endfacet
 facet normal -0.10452846326765046 -0.9945218953682737 0.0
  outer loop
   vertex 19.125328890437412 48.81679607770177 0
   vertex 19.125328890437412 48.81679607770177 0.36
   vertex 18.42230161244499 48.89068722212607 0
  endloop
 endfacet
 facet normal -0.10452846326765046 -0.9945218953682737 0.0
  outer loop
   vertex 18.42230161244499 48.89068722212607 0
   vertex 19.125328890437412 48.81679607770177 0.36
   vertex 18.42230161244499 48.89068722212607 0.36
  endloop
 endfacet
 facet normal 0.30901699437494945 -0.951056516295153 0.0
  outer loop
   vertex 18.42230161244499 48.89068722212607 0
   vertex 18.42230161244499 48.89068722212607 0.36
   vertex 17.75 48.67224318643355 0
  endloop
 endfacet
 facet normal 0.30901699437494945 -0.951056516295153 0.0
  outer loop
   vertex 17.75 48.67224318643355 0
   vertex 18.42230161244499 48.89068722212607 0.36
   vertex 17.75 48.67224318643355 0.36
  endloop
 endfacet
 facet normal 0.669130606358859 -0.7431448254773937 0.0
  outer loop
   vertex 17.75 48.67224318643355 0
   vertex 17.75 48.67224318643355 0.36
   vertex 17.22467110956259 48.199234928897205 0
  endloop
 endfacet
 facet normal 0.669130606358859 -0.7431448254773937 0.0
  outer loop
   vertex 17.22467110956259 48.199234928897205 0
   vertex 17.75 48.67224318643355 0.36
   vertex 17.22467110956259 48.199234928897205 0.36
  endloop
 endfacet
 facet normal 0.9135454576426014 -0.40673664307579904 0.0
  outer loop
   vertex 17.22467110956259 48.199234928897205 0
   vertex 17.22467110956259 48.199234928897205 0.36
   vertex 16.937149078752533 47.553449874390196 0
  endloop
 endfacet
 facet normal 0.9135454576426014 -0.40673664307579904 0.0
  outer loop
   vertex 16.937149078752533 47.553449874390196 0
   vertex 17.22467110956259 48.199234928897205 0.36
   vertex 16.937149078752533 47.553449874390196 0.36
  endloop
 endfacet
 facet normal 1.0 0.0 -0.0
  outer loop
   vertex 16.937149078752533 47.553449874390196 0
   vertex 16.937149078752533 47.553449874390196 0.36
   vertex 16.937149078752533 46.84655012560981 0
  endloop
 endfacet
 facet normal 1.0 0.0 0.0
  outer loop
   vertex 16.937149078752533 46.84655012560981 0
   vertex 16.937149078752533 47.553449874390196 0.36
   vertex 16.937149078752533 46.84655012560981 0.36
  endloop
 endfacet
 facet normal 0.9135454576426014 0.40673664307579904 -0.0
  outer loop
   vertex 16.937149078752533 46.84655012560981 0
   vertex 16.937149078752533 46.84655012560981 0.36
   vertex 17.22467110956259 46.2007650711028 0
  endloop
 endfacet
 facet normal 0.9135454576426014 0.40673664307579904 -0.0
  outer loop
   vertex 17.22467110956259 46.2007650711028 0
   vertex 16.937149078752533 46.84655012560981 0.36
   vertex 17.22467110956259 46.2007650711028 0.36
  endloop
 endfacet
 facet normal 0.669130606358859 0.7431448254773937 -0.0
  outer loop
   vertex 17.22467110956259 46.2007650711028 0
   vertex 17.22467110956259 46.2007650711028 0.36
   vertex 17.75 45.72775681356646 0
  endloop
 endfacet
 facet normal 0.669130606358859 0.7431448254773937 -0.0
  outer loop
   vertex 17.75 45.72775681356646 0
   vertex 17.22467110956259 46.2007650711028 0.36
   vertex 17.75 45.72775681356646 0.36
  endloop
 endfacet
 facet normal 0.30901699437494945 0.951056516295153 -0.0
  outer loop
   vertex 17.75 45.72775681356646 0
   vertex 17.75 45.72775681356646 0.36
   vertex 18.42230161244499 45.50931277787394 0
  endloop
 endfacet
 facet normal 0.30901699437494945 0.951056516295153 -0.0
  outer loop
   vertex 18.42230161244499 45.50931277787394 0
   vertex 17.75 45.72775681356646 0.36
   vertex 18.42230161244499 45.50931277787394 0.36
  endloop
 endfacet
 facet normal -0.10452846326765046 0.9945218953682737 0.0
  outer loop
   vertex 18.42230161244499 45.50931277787394 0
   vertex 18.42230161244499 45.50931277787394 0.36
   vertex 19.125328890437412 45.58320392229824 0
  endloop
 endfacet
 facet normal -0.10452846326765046 0.9945218953682737 0.0
  outer loop
   vertex 19.125328890437412 45.58320392229824 0
   vertex 18.42230161244499 45.50931277787394 0.36
   vertex 19.125328890437412 45.58320392229824 0.36
  endloop
 endfacet
 facet normal -0.5000000000000039 0.8660254037844363 0.0
  outer loop
   vertex 19.125328890437412 45.58320392229824 0
   vertex 19.125328890437412 45.58320392229824 0.36
   vertex 19.73752203081006 45.93665379668843 0
  endloop
 endfacet
 facet normal -0.5000000000000039 0.8660254037844363 0.0
  outer loop
   vertex 19.73752203081006 45.93665379668843 0
   vertex 19.125328890437412 45.58320392229824 0.36
   vertex 19.73752203081006 45.93665379668843 0.36
  endloop
 endfacet
 facet normal -0.8090169943749458 0.5877852522924754 0.0
  outer loop
   vertex 19.73752203081006 45.93665379668843 0
   vertex 19.73752203081006 45.93665379668843 0.36
   vertex 20.15302727799242 46.50854770677114 0
  endloop
 endfacet
 facet normal -0.8090169943749458 0.5877852522924754 0.0
  outer loop
   vertex 20.15302727799242 46.50854770677114 0
   vertex 19.73752203081006 45.93665379668843 0.36
   vertex 20.15302727799242 46.50854770677114 0.36
  endloop
 endfacet
 facet normal -0.9781476007338057 0.2079116908177591 0.0
  outer loop
   vertex 20.15302727799242 46.50854770677114 0
   vertex 20.15302727799242 46.50854770677114 0.36
   vertex 20.3 47.2 0
  endloop
 endfacet
 facet normal -0.9781476007338057 0.2079116908177591 0.0
  outer loop
   vertex 20.3 47.2 0
   vertex 20.15302727799242 46.50854770677114 0.36
   vertex 20.3 47.2 0.36
  endloop
 endfacet
 facet normal -0.9781476007338059 -0.20791169081775787 0.0
  outer loop
   vertex 7.7 47.25 0
   vertex 7.7 47.25 0.36
   vertex 7.553027277992422 47.94145229322886 0
  endloop
 endfacet
 facet normal -0.9781476007338059 -0.20791169081775787 0.0
  outer loop
   vertex 7.553027277992422 47.94145229322886 0
   vertex 7.7 47.25 0.36
   vertex 7.553027277992422 47.94145229322886 0.36
  endloop
 endfacet
 facet normal -0.8090169943749458 -0.5877852522924754 0.0
  outer loop
   vertex 7.553027277992422 47.94145229322886 0
   vertex 7.553027277992422 47.94145229322886 0.36
   vertex 7.137522030810059 48.51334620331157 0
  endloop
 endfacet
 facet normal -0.8090169943749458 -0.5877852522924754 0.0
  outer loop
   vertex 7.137522030810059 48.51334620331157 0
   vertex 7.553027277992422 47.94145229322886 0.36
   vertex 7.137522030810059 48.51334620331157 0.36
  endloop
 endfacet
 facet normal -0.500000000000003 -0.866025403784437 0.0
  outer loop
   vertex 7.137522030810059 48.51334620331157 0
   vertex 7.137522030810059 48.51334620331157 0.36
   vertex 6.525328890437411 48.866796077701764 0
  endloop
 endfacet
 facet normal -0.500000000000003 -0.866025403784437 0.0
  outer loop
   vertex 6.525328890437411 48.866796077701764 0
   vertex 7.137522030810059 48.51334620331157 0.36
   vertex 6.525328890437411 48.866796077701764 0.36
  endloop
 endfacet
 facet normal -0.1045284632676506 -0.9945218953682736 0.0
  outer loop
   vertex 6.525328890437411 48.866796077701764 0
   vertex 6.525328890437411 48.866796077701764 0.36
   vertex 5.822301612444989 48.940687222126066 0
  endloop
 endfacet
 facet normal -0.1045284632676506 -0.9945218953682736 0.0
  outer loop
   vertex 5.822301612444989 48.940687222126066 0
   vertex 6.525328890437411 48.866796077701764 0.36
   vertex 5.822301612444989 48.940687222126066 0.36
  endloop
 endfacet
 facet normal 0.3090169943749498 -0.9510565162951528 0.0
  outer loop
   vertex 5.822301612444989 48.940687222126066 0
   vertex 5.822301612444989 48.940687222126066 0.36
   vertex 5.15 48.722243186433545 0
  endloop
 endfacet
 facet normal 0.3090169943749498 -0.9510565162951528 0.0
  outer loop
   vertex 5.15 48.722243186433545 0
   vertex 5.822301612444989 48.940687222126066 0.36
   vertex 5.15 48.722243186433545 0.36
  endloop
 endfacet
 facet normal 0.669130606358859 -0.7431448254773937 0.0
  outer loop
   vertex 5.15 48.722243186433545 0
   vertex 5.15 48.722243186433545 0.36
   vertex 4.624671109562589 48.2492349288972 0
  endloop
 endfacet
 facet normal 0.669130606358859 -0.7431448254773937 0.0
  outer loop
   vertex 4.624671109562589 48.2492349288972 0
   vertex 5.15 48.722243186433545 0.36
   vertex 4.624671109562589 48.2492349288972 0.36
  endloop
 endfacet
 facet normal 0.9135454576425996 -0.4067366430758033 0.0
  outer loop
   vertex 4.624671109562589 48.2492349288972 0
   vertex 4.624671109562589 48.2492349288972 0.36
   vertex 4.33714907875253 47.60344987439019 0
  endloop
 endfacet
 facet normal 0.9135454576425996 -0.4067366430758033 0.0
  outer loop
   vertex 4.33714907875253 47.60344987439019 0
   vertex 4.624671109562589 48.2492349288972 0.36
   vertex 4.33714907875253 47.60344987439019 0.36
  endloop
 endfacet
 facet normal 1.0 0.0 -0.0
  outer loop
   vertex 4.33714907875253 47.60344987439019 0
   vertex 4.33714907875253 47.60344987439019 0.36
   vertex 4.33714907875253 46.89655012560981 0
  endloop
 endfacet
 facet normal 1.0 0.0 0.0
  outer loop
   vertex 4.33714907875253 46.89655012560981 0
   vertex 4.33714907875253 47.60344987439019 0.36
   vertex 4.33714907875253 46.89655012560981 0.36
  endloop
 endfacet
 facet normal 0.9135454576425996 0.4067366430758033 -0.0
  outer loop
   vertex 4.33714907875253 46.89655012560981 0
   vertex 4.33714907875253 46.89655012560981 0.36
   vertex 4.624671109562589 46.2507650711028 0
  endloop
 endfacet
 facet normal 0.9135454576425996 0.4067366430758033 -0.0
  outer loop
   vertex 4.624671109562589 46.2507650711028 0
   vertex 4.33714907875253 46.89655012560981 0.36
   vertex 4.624671109562589 46.2507650711028 0.36
  endloop
 endfacet
 facet normal 0.6691306063588596 0.7431448254773931 -0.0
  outer loop
   vertex 4.624671109562589 46.2507650711028 0
   vertex 4.624671109562589 46.2507650711028 0.36
   vertex 5.1499999999999995 45.777756813566455 0
  endloop
 endfacet
 facet normal 0.6691306063588596 0.7431448254773931 -0.0
  outer loop
   vertex 5.1499999999999995 45.777756813566455 0
   vertex 4.624671109562589 46.2507650711028 0.36
   vertex 5.1499999999999995 45.777756813566455 0.36
  endloop
 endfacet
 facet normal 0.3090169943749501 0.9510565162951526 -0.0
  outer loop
   vertex 5.1499999999999995 45.777756813566455 0
   vertex 5.1499999999999995 45.777756813566455 0.36
   vertex 5.822301612444988 45.559312777873934 0
  endloop
 endfacet
 facet normal 0.3090169943749501 0.9510565162951526 -0.0
  outer loop
   vertex 5.822301612444988 45.559312777873934 0
   vertex 5.1499999999999995 45.777756813566455 0.36
   vertex 5.822301612444988 45.559312777873934 0.36
  endloop
 endfacet
 facet normal -0.10452846326765046 0.9945218953682737 0.0
  outer loop
   vertex 5.822301612444988 45.559312777873934 0
   vertex 5.822301612444988 45.559312777873934 0.36
   vertex 6.52532889043741 45.633203922298236 0
  endloop
 endfacet
 facet normal -0.10452846326765046 0.9945218953682737 0.0
  outer loop
   vertex 6.52532889043741 45.633203922298236 0
   vertex 5.822301612444988 45.559312777873934 0.36
   vertex 6.52532889043741 45.633203922298236 0.36
  endloop
 endfacet
 facet normal -0.500000000000003 0.866025403784437 0.0
  outer loop
   vertex 6.52532889043741 45.633203922298236 0
   vertex 6.52532889043741 45.633203922298236 0.36
   vertex 7.137522030810058 45.98665379668843 0
  endloop
 endfacet
 facet normal -0.500000000000003 0.866025403784437 0.0
  outer loop
   vertex 7.137522030810058 45.98665379668843 0
   vertex 6.52532889043741 45.633203922298236 0.36
   vertex 7.137522030810058 45.98665379668843 0.36
  endloop
 endfacet
 facet normal -0.8090169943749458 0.5877852522924754 0.0
  outer loop
   vertex 7.137522030810058 45.98665379668843 0
   vertex 7.137522030810058 45.98665379668843 0.36
   vertex 7.553027277992421 46.55854770677114 0
  endloop
 endfacet
 facet normal -0.8090169943749458 0.5877852522924754 0.0
  outer loop
   vertex 7.553027277992421 46.55854770677114 0
   vertex 7.137522030810058 45.98665379668843 0.36
   vertex 7.553027277992421 46.55854770677114 0.36
  endloop
 endfacet
 facet normal -0.9781476007338057 0.2079116908177591 0.0
  outer loop
   vertex 7.553027277992421 46.55854770677114 0
   vertex 7.553027277992421 46.55854770677114 0.36
   vertex 7.7 47.25 0
  endloop
 endfacet
 facet normal -0.9781476007338057 0.2079116908177591 0.0
  outer loop
   vertex 7.7 47.25 0
   vertex 7.553027277992421 46.55854770677114 0.36
   vertex 7.7 47.25 0.36
  endloop
 endfacet
 facet normal 0.0 0.0 -1.0
  outer loop
   vertex 20.29561655649439 29.82 0
   vertex 81.99766217038471 29.820000000000004 0
   vertex 59.12532889043741 16.81679607770176 0
  endloop
 endfacet
 facet normal 0.0 0.0 -1.0
  outer loop
   vertex 81.99766217038471 29.820000000000004 0
   vertex 81.97391649666837 0.001 0
   vertex 60.300000000000004 15.2 0
  endloop
 endfacet
 facet normal 0.0 0.0 -1.0
  outer loop
   vertex 81.97391649666837 0.001 0
   vertex 50.13837168486936 0.001 0
   vertex 57.75 13.727756813566454 0
  endloop
 endfacet
 facet normal 0.0 0.0 -1.0
  outer loop
   vertex 50.13837168486936 0.001 0
   vertex 20.29561655649439 29.82 0
   vertex 56.93714907875253 15.553449874390191 0
  endloop
 endfacet
 facet normal 0.0 0.0 -1.0
  outer loop
   vertex 60.300000000000004 15.2 0
   vertex 60.15302727799242 15.891452293228859 0
   vertex 81.99766217038471 29.820000000000004 0
  endloop
 endfacet
 facet normal 0.0 -0.0 -1.0
  outer loop
   vertex 60.300000000000004 15.2 0
   vertex 81.97391649666837 0.001 0
   vertex 60.15302727799242 14.508547706771138 0
  endloop
 endfacet
 facet normal 0.0 0.0 -1.0
  outer loop
   vertex 60.15302727799242 15.891452293228859 0
   vertex 59.73752203081006 16.46334620331157 0
   vertex 81.99766217038471 29.820000000000004 0
  endloop
 endfacet
 facet normal 0.0 0.0 -1.0
  outer loop
   vertex 59.73752203081006 16.46334620331157 0
   vertex 59.12532889043741 16.81679607770176 0
   vertex 81.99766217038471 29.820000000000004 0
  endloop
 endfacet
 facet normal 0.0 0.0 -1.0
  outer loop
   vertex 59.12532889043741 16.81679607770176 0
   vertex 58.42230161244499 16.890687222126065 0
   vertex 20.29561655649439 29.82 0
  endloop
 endfacet
 facet normal -0.0 0.0 -1.0
  outer loop
   vertex 58.42230161244499 16.890687222126065 0
   vertex 57.75 16.672243186433544 0
   vertex 20.29561655649439 29.82 0
  endloop
 endfacet
 facet normal -0.0 0.0 -1.0
  outer loop
   vertex 57.75 16.672243186433544 0
   vertex 57.22467110956259 16.199234928897205 0
   vertex 20.29561655649439 29.82 0
  endloop
 endfacet
 facet normal -0.0 0.0 -1.0
  outer loop
   vertex 57.22467110956259 16.199234928897205 0
   vertex 56.93714907875253 15.553449874390191 0
   vertex 20.29561655649439 29.82 0
  endloop
 endfacet
 facet normal 0.0 -0.0 -1.0
  outer loop
   vertex 56.93714907875253 15.553449874390191 0
   vertex 56.93714907875253 14.84655012560981 0
   vertex 50.13837168486936 0.001 0
  endloop
 endfacet
 facet normal 0.0 -0.0 -1.0
  outer loop
   vertex 56.93714907875253 14.84655012560981 0
   vertex 57.22467110956259 14.200765071102795 0
   vertex 50.13837168486936 0.001 0
  endloop
 endfacet
 facet normal 0.0 -0.0 -1.0
  outer loop
   vertex 57.22467110956259 14.200765071102795 0
   vertex 57.75 13.727756813566454 0
   vertex 50.13837168486936 0.001 0
  endloop
 endfacet
 facet normal 0.0 0.0 -1.0
  outer loop
   vertex 57.75 13.727756813566454 0
   vertex 58.42230161244499 13.509312777873934 0
   vertex 81.97391649666837 0.001 0
  endloop
 endfacet
 facet normal 0.0 0.0 -1.0
  outer loop
   vertex 58.42230161244499 13.509312777873934 0
   vertex 59.12532889043741 13.583203922298237 0
   vertex 81.97391649666837 0.001 0
  endloop
 endfacet
 facet normal 0.0 0.0 -1.0
  outer loop
   vertex 59.12532889043741 13.583203922298237 0
   vertex 59.73752203081006 13.936653796688429 0
   vertex 81.97391649666837 0.001 0
  endloop
 endfacet
 facet normal 0.0 0.0 -1.0
  outer loop
   vertex 59.73752203081006 13.936653796688429 0
   vertex 60.15302727799242 14.508547706771138 0
   vertex 81.97391649666837 0.001 0
  endloop
 endfacet
 facet normal -5.757853963273977e-17 1.0 0.0
  outer loop
   vertex 81.99766217038471 29.820000000000004 0
   vertex 20.29561655649439 29.82 0
   vertex 20.29561655649439 29.82 0.36
  endloop
 endfacet
 facet normal -5.757853963273977e-17 1.0 0.0
  outer loop
   vertex 81.99766217038471 29.820000000000004 0.36
   vertex 81.99766217038471 29.820000000000004 0
   vertex 20.29561655649439 29.82 0.36
  endloop
 endfacet
 facet normal 0.9999996829318346 -0.0007963267107331294 0.0
  outer loop
   vertex 81.97391649666837 0.001 0
   vertex 81.99766217038471 29.820000000000004 0
   vertex 81.99766217038471 29.820000000000004 0.36
  endloop
 endfacet
 facet normal 0.9999996829318346 -0.0007963267107331294 0.0
  outer loop
   vertex 81.97391649666837 0.001 0.36
   vertex 81.97391649666837 0.001 0
   vertex 81.99766217038471 29.820000000000004 0.36
  endloop
 endfacet
 facet normal 0.0 -1.0 0.0
  outer loop
   vertex 50.13837168486936 0.001 0
   vertex 81.97391649666837 0.001 0
   vertex 81.97391649666837 0.001 0.36
  endloop
 endfacet
 facet normal 0.0 -1.0 0.0
  outer loop
   vertex 50.13837168486936 0.001 0.36
   vertex 50.13837168486936 0.001 0
   vertex 81.97391649666837 0.001 0.36
  endloop
 endfacet
 facet normal -0.7068251811053659 -0.7073882691671997 0.0
  outer loop
   vertex 20.29561655649439 29.82 0
   vertex 50.13837168486936 0.001 0
   vertex 50.13837168486936 0.001 0.36
  endloop
 endfacet
 facet normal -0.7068251811053659 -0.7073882691671997 -0.0
  outer loop
   vertex 20.29561655649439 29.82 0.36
   vertex 20.29561655649439 29.82 0
   vertex 50.13837168486936 0.001 0.36
  endloop
 endfacet
 facet normal -0.0 0.0 1.0
  outer loop
   vertex 20.29561655649439 29.82 0.36
   vertex 59.12532889043741 16.81679607770176 0.36
   vertex 81.99766217038471 29.820000000000004 0.36
  endloop
 endfacet
 facet normal 0.0 0.0 1.0
  outer loop
   vertex 81.99766217038471 29.820000000000004 0.36
   vertex 60.300000000000004 15.2 0.36
   vertex 81.97391649666837 0.001 0.36
  endloop
 endfacet
 facet normal 0.0 0.0 1.0
  outer loop
   vertex 81.97391649666837 0.001 0.36
   vertex 57.75 13.727756813566454 0.36
   vertex 50.13837168486936 0.001 0.36
  endloop
 endfacet
 facet normal 0.0 -0.0 1.0
  outer loop
   vertex 50.13837168486936 0.001 0.36
   vertex 56.93714907875253 15.553449874390191 0.36
   vertex 20.29561655649439 29.82 0.36
  endloop
 endfacet
 facet normal 0.0 -0.0 1.0
  outer loop
   vertex 60.300000000000004 15.2 0.36
   vertex 81.99766217038471 29.820000000000004 0.36
   vertex 60.15302727799242 15.891452293228859 0.36
  endloop
 endfacet
 facet normal 0.0 0.0 1.0
  outer loop
   vertex 60.300000000000004 15.2 0.36
   vertex 60.15302727799242 14.508547706771138 0.36
   vertex 81.97391649666837 0.001 0.36
  endloop
 endfacet
 facet normal 0.0 -0.0 1.0
  outer loop
   vertex 60.15302727799242 15.891452293228859 0.36
   vertex 81.99766217038471 29.820000000000004 0.36
   vertex 59.73752203081006 16.46334620331157 0.36
  endloop
 endfacet
 facet normal 0.0 -0.0 1.0
  outer loop
   vertex 59.73752203081006 16.46334620331157 0.36
   vertex 81.99766217038471 29.820000000000004 0.36
   vertex 59.12532889043741 16.81679607770176 0.36
  endloop
 endfacet
 facet normal 0.0 0.0 1.0
  outer loop
   vertex 59.12532889043741 16.81679607770176 0.36
   vertex 20.29561655649439 29.82 0.36
   vertex 58.42230161244499 16.890687222126065 0.36
  endloop
 endfacet
 facet normal 0.0 0.0 1.0
  outer loop
   vertex 58.42230161244499 16.890687222126065 0.36
   vertex 20.29561655649439 29.82 0.36
   vertex 57.75 16.672243186433544 0.36
  endloop
 endfacet
 facet normal 0.0 0.0 1.0
  outer loop
   vertex 57.75 16.672243186433544 0.36
   vertex 20.29561655649439 29.82 0.36
   vertex 57.22467110956259 16.199234928897205 0.36
  endloop
 endfacet
 facet normal 0.0 0.0 1.0
  outer loop
   vertex 57.22467110956259 16.199234928897205 0.36
   vertex 20.29561655649439 29.82 0.36
   vertex 56.93714907875253 15.553449874390191 0.36
  endloop
 endfacet
 facet normal 0.0 0.0 1.0
  outer loop
   vertex 56.93714907875253 15.553449874390191 0.36
   vertex 50.13837168486936 0.001 0.36
   vertex 56.93714907875253 14.84655012560981 0.36
  endloop
 endfacet
 facet normal 0.0 0.0 1.0
  outer loop
   vertex 56.93714907875253 14.84655012560981 0.36
   vertex 50.13837168486936 0.001 0.36
   vertex 57.22467110956259 14.200765071102795 0.36
  endloop
 endfacet
 facet normal 0.0 0.0 1.0
  outer loop
   vertex 57.22467110956259 14.200765071102795 0.36
   vertex 50.13837168486936 0.001 0.36
   vertex 57.75 13.727756813566454 0.36
  endloop
 endfacet
 facet normal 0.0 0.0 1.0
  outer loop
   vertex 57.75 13.727756813566454 0.36
   vertex 81.97391649666837 0.001 0.36
   vertex 58.42230161244499 13.509312777873934 0.36
  endloop
 endfacet
 facet normal -0.0 0.0 1.0
  outer loop
   vertex 58.42230161244499 13.509312777873934 0.36
   vertex 81.97391649666837 0.001 0.36
   vertex 59.12532889043741 13.583203922298237 0.36
  endloop
 endfacet
 facet normal -0.0 0.0 1.0
  outer loop
   vertex 59.12532889043741 13.583203922298237 0.36
   vertex 81.97391649666837 0.001 0.36
   vertex 59.73752203081006 13.936653796688429 0.36
  endloop
 endfacet
 facet normal -0.0 0.0 1.0
  outer loop
   vertex 59.73752203081006 13.936653796688429 0.36
   vertex 81.97391649666837 0.001 0.36
   vertex 60.15302727799242 14.508547706771138 0.36
  endloop
 endfacet
 facet normal -0.9781476007338045 -0.20791169081776492 0.0
  outer loop
   vertex 60.300000000000004 15.2 0
   vertex 60.300000000000004 15.2 0.36
   vertex 60.15302727799242 15.891452293228859 0
  endloop
 endfacet
 facet normal -0.9781476007338045 -0.20791169081776492 0.0
  outer loop
   vertex 60.15302727799242 15.891452293228859 0
   vertex 60.300000000000004 15.2 0.36
   vertex 60.15302727799242 15.891452293228859 0.36
  endloop
 endfacet
 facet normal -0.8090169943749499 -0.5877852522924697 0.0
  outer loop
   vertex 60.15302727799242 15.891452293228859 0
   vertex 60.15302727799242 15.891452293228859 0.36
   vertex 59.73752203081006 16.46334620331157 0
  endloop
 endfacet
 facet normal -0.8090169943749499 -0.5877852522924697 0.0
  outer loop
   vertex 59.73752203081006 16.46334620331157 0
   vertex 60.15302727799242 15.891452293228859 0.36
   vertex 59.73752203081006 16.46334620331157 0.36
  endloop
 endfacet
 facet normal -0.49999999999999584 -0.866025403784441 0.0
  outer loop
   vertex 59.73752203081006 16.46334620331157 0
   vertex 59.73752203081006 16.46334620331157 0.36
   vertex 59.12532889043741 16.81679607770176 0
  endloop
 endfacet
 facet normal -0.49999999999999584 -0.866025403784441 0.0
  outer loop
   vertex 59.12532889043741 16.81679607770176 0
   vertex 59.73752203081006 16.46334620331157 0.36
   vertex 59.12532889043741 16.81679607770176 0.36
  endloop
 endfacet
 facet normal -0.10452846326765595 -0.994521895368273 0.0
  outer loop
   vertex 59.12532889043741 16.81679607770176 0
   vertex 59.12532889043741 16.81679607770176 0.36
   vertex 58.42230161244499 16.890687222126065 0
  endloop
 endfacet
 facet normal -0.10452846326765595 -0.994521895368273 0.0
  outer loop
   vertex 58.42230161244499 16.890687222126065 0
   vertex 59.12532889043741 16.81679607770176 0.36
   vertex 58.42230161244499 16.890687222126065 0.36
  endloop
 endfacet
 facet normal 0.30901699437494945 -0.951056516295153 0.0
  outer loop
   vertex 58.42230161244499 16.890687222126065 0
   vertex 58.42230161244499 16.890687222126065 0.36
   vertex 57.75 16.672243186433544 0
  endloop
 endfacet
 facet normal 0.30901699437494945 -0.951056516295153 0.0
  outer loop
   vertex 57.75 16.672243186433544 0
   vertex 58.42230161244499 16.890687222126065 0.36
   vertex 57.75 16.672243186433544 0.36
  endloop
 endfacet
 facet normal 0.6691306063588587 -0.7431448254773939 0.0
  outer loop
   vertex 57.75 16.672243186433544 0
   vertex 57.75 16.672243186433544 0.36
   vertex 57.22467110956259 16.199234928897205 0
  endloop
 endfacet
 facet normal 0.6691306063588587 -0.7431448254773939 0.0
  outer loop
   vertex 57.22467110956259 16.199234928897205 0
   vertex 57.75 16.672243186433544 0.36
   vertex 57.22467110956259 16.199234928897205 0.36
  endloop
 endfacet
 facet normal 0.9135454576426008 -0.4067366430758005 0.0
  outer loop
   vertex 57.22467110956259 16.199234928897205 0
   vertex 57.22467110956259 16.199234928897205 0.36
   vertex 56.93714907875253 15.553449874390191 0
  endloop
 endfacet
 facet normal 0.9135454576426008 -0.4067366430758005 0.0
  outer loop
   vertex 56.93714907875253 15.553449874390191 0
   vertex 57.22467110956259 16.199234928897205 0.36
   vertex 56.93714907875253 15.553449874390191 0.36
  endloop
 endfacet
 facet normal 1.0 0.0 -0.0
  outer loop
   vertex 56.93714907875253 15.553449874390191 0
   vertex 56.93714907875253 15.553449874390191 0.36
   vertex 56.93714907875253 14.84655012560981 0
  endloop
 endfacet
 facet normal 1.0 0.0 0.0
  outer loop
   vertex 56.93714907875253 14.84655012560981 0
   vertex 56.93714907875253 15.553449874390191 0.36
   vertex 56.93714907875253 14.84655012560981 0.36
  endloop
 endfacet
 facet normal 0.9135454576426008 0.4067366430758005 -0.0
  outer loop
   vertex 56.93714907875253 14.84655012560981 0
   vertex 56.93714907875253 14.84655012560981 0.36
   vertex 57.22467110956259 14.200765071102795 0
  endloop
 endfacet
 facet normal 0.9135454576426008 0.4067366430758005 -0.0
  outer loop
   vertex 57.22467110956259 14.200765071102795 0
   vertex 56.93714907875253 14.84655012560981 0.36
   vertex 57.22467110956259 14.200765071102795 0.36
  endloop
 endfacet
 facet normal 0.66913060635886 0.7431448254773926 -0.0
  outer loop
   vertex 57.22467110956259 14.200765071102795 0
   vertex 57.22467110956259 14.200765071102795 0.36
   vertex 57.75 13.727756813566454 0
  endloop
 endfacet
 facet normal 0.66913060635886 0.7431448254773926 -0.0
  outer loop
   vertex 57.75 13.727756813566454 0
   vertex 57.22467110956259 14.200765071102795 0.36
   vertex 57.75 13.727756813566454 0.36
  endloop
 endfacet
 facet normal 0.30901699437494945 0.951056516295153 -0.0
  outer loop
   vertex 57.75 13.727756813566454 0
   vertex 57.75 13.727756813566454 0.36
   vertex 58.42230161244499 13.509312777873934 0
  endloop
 endfacet
 facet normal 0.30901699437494945 0.951056516295153 -0.0
  outer loop
   vertex 58.42230161244499 13.509312777873934 0
   vertex 57.75 13.727756813566454 0.36
   vertex 58.42230161244499 13.509312777873934 0.36
  endloop
 endfacet
 facet normal -0.10452846326765347 0.9945218953682732 0.0
  outer loop
   vertex 58.42230161244499 13.509312777873934 0
   vertex 58.42230161244499 13.509312777873934 0.36
   vertex 59.12532889043741 13.583203922298237 0
  endloop
 endfacet
 facet normal -0.10452846326765347 0.9945218953682732 0.0
  outer loop
   vertex 59.12532889043741 13.583203922298237 0
   vertex 58.42230161244499 13.509312777873934 0.36
   vertex 59.12532889043741 13.583203922298237 0.36
  endloop
 endfacet
 facet normal -0.49999999999999784 0.86602540378444 0.0
  outer loop
   vertex 59.12532889043741 13.583203922298237 0
   vertex 59.12532889043741 13.583203922298237 0.36
   vertex 59.73752203081006 13.936653796688429 0
  endloop
 endfacet
 facet normal -0.49999999999999784 0.86602540378444 0.0
  outer loop
   vertex 59.73752203081006 13.936653796688429 0
   vertex 59.12532889043741 13.583203922298237 0.36
   vertex 59.73752203081006 13.936653796688429 0.36
  endloop
 endfacet
 facet normal -0.809016994374949 0.5877852522924709 0.0
  outer loop
   vertex 59.73752203081006 13.936653796688429 0
   vertex 59.73752203081006 13.936653796688429 0.36
   vertex 60.15302727799242 14.508547706771138 0
  endloop
 endfacet
 facet normal -0.809016994374949 0.5877852522924709 0.0
  outer loop
   vertex 60.15302727799242 14.508547706771138 0
   vertex 59.73752203081006 13.936653796688429 0.36
   vertex 60.15302727799242 14.508547706771138 0.36
  endloop
 endfacet
 facet normal -0.9781476007338045 0.20791169081776437 0.0
  outer loop
   vertex 60.15302727799242 14.508547706771138 0
   vertex 60.15302727799242 14.508547706771138 0.36
   vertex 60.300000000000004 15.2 0
  endloop
 endfacet
 facet normal -0.9781476007338045 0.20791169081776437 0.0
  outer loop
   vertex 60.300000000000004 15.2 0
   vertex 60.15302727799242 14.508547706771138 0.36
   vertex 60.300000000000004 15.2 0.36
  endloop
 endfacet
 facet normal 0.0 0.0 -1.0
  outer loop
   vertex 81.9976621703847 33.18 0
   vertex 20.295616556494384 33.18 0
   vertex 57.55 45.32775681356645 0
  endloop
 endfacet
 facet normal 0.0 0.0 -1.0
  outer loop
   vertex 20.295616556494384 33.18 0
   vertex 50.13837168486936 62.99900000000001 0
   vertex 57.55 48.27224318643354 0
  endloop
 endfacet
 facet normal 0.0 0.0 -1.0
  outer loop
   vertex 50.13837168486936 62.99900000000001 0
   vertex 81.97391649666835 62.99900000000002 0
   vertex 59.95302727799242 47.49145229322886 0
  endloop
 endfacet
 facet normal 0.0 -0.0 -1.0
  outer loop
   vertex 81.97391649666835 62.99900000000002 0
   vertex 81.9976621703847 33.18 0
   vertex 60.1 46.8 0
  endloop
 endfacet
 facet normal 0.0 -0.0 -1.0
  outer loop
   vertex 60.1 46.8 0
   vertex 81.9976621703847 33.18 0
   vertex 59.95302727799242 46.108547706771134 0
  endloop
 endfacet
 facet normal 0.0 0.0 -1.0
  outer loop
   vertex 60.1 46.8 0
   vertex 59.95302727799242 47.49145229322886 0
   vertex 81.97391649666835 62.99900000000002 0
  endloop
 endfacet
 facet normal 0.0 0.0 -1.0
  outer loop
   vertex 59.95302727799242 47.49145229322886 0
   vertex 59.53752203081006 48.06334620331157 0
   vertex 50.13837168486936 62.99900000000001 0
  endloop
 endfacet
 facet normal 0.0 0.0 -1.0
  outer loop
   vertex 59.53752203081006 48.06334620331157 0
   vertex 58.925328890437406 48.41679607770176 0
   vertex 50.13837168486936 62.99900000000001 0
  endloop
 endfacet
 facet normal 0.0 0.0 -1.0
  outer loop
   vertex 58.925328890437406 48.41679607770176 0
   vertex 58.22230161244499 48.49068722212606 0
   vertex 50.13837168486936 62.99900000000001 0
  endloop
 endfacet
 facet normal -0.0 0.0 -1.0
  outer loop
   vertex 58.22230161244499 48.49068722212606 0
   vertex 57.55 48.27224318643354 0
   vertex 50.13837168486936 62.99900000000001 0
  endloop
 endfacet
 facet normal 0.0 0.0 -1.0
  outer loop
   vertex 57.55 48.27224318643354 0
   vertex 57.02467110956259 47.7992349288972 0
   vertex 20.295616556494384 33.18 0
  endloop
 endfacet
 facet normal 0.0 0.0 -1.0
  outer loop
   vertex 57.02467110956259 47.7992349288972 0
   vertex 56.73714907875253 47.15344987439019 0
   vertex 20.295616556494384 33.18 0
  endloop
 endfacet
 facet normal 0.0 -0.0 -1.0
  outer loop
   vertex 56.73714907875253 47.15344987439019 0
   vertex 56.73714907875253 46.446550125609804 0
   vertex 20.295616556494384 33.18 0
  endloop
 endfacet
 facet normal 0.0 -0.0 -1.0
  outer loop
   vertex 56.73714907875253 46.446550125609804 0
   vertex 57.02467110956259 45.800765071102795 0
   vertex 20.295616556494384 33.18 0
  endloop
 endfacet
 facet normal 0.0 -0.0 -1.0
  outer loop
   vertex 57.02467110956259 45.800765071102795 0
   vertex 57.55 45.32775681356645 0
   vertex 20.295616556494384 33.18 0
  endloop
 endfacet
 facet normal 0.0 0.0 -1.0
  outer loop
   vertex 57.55 45.32775681356645 0
   vertex 58.22230161244499 45.10931277787393 0
   vertex 81.9976621703847 33.18 0
  endloop
 endfacet
 facet normal 0.0 0.0 -1.0
  outer loop
   vertex 58.22230161244499 45.10931277787393 0
   vertex 58.925328890437406 45.18320392229823 0
   vertex 81.9976621703847 33.18 0
  endloop
 endfacet
 facet normal 0.0 0.0 -1.0
  outer loop
   vertex 58.925328890437406 45.18320392229823 0
   vertex 59.53752203081006 45.53665379668843 0
   vertex 81.9976621703847 33.18 0
  endloop
 endfacet
 facet normal 0.0 0.0 -1.0
  outer loop
   vertex 59.53752203081006 45.53665379668843 0
   vertex 59.95302727799242 46.108547706771134 0
   vertex 81.9976621703847 33.18 0
  endloop
 endfacet
 facet normal 0.0 -1.0 0.0
  outer loop
   vertex 20.295616556494384 33.18 0
   vertex 81.9976621703847 33.18 0
   vertex 81.9976621703847 33.18 0.36
  endloop
 endfacet
 facet normal 0.0 -1.0 0.0
  outer loop
   vertex 20.295616556494384 33.18 0.36
   vertex 20.295616556494384 33.18 0
   vertex 81.9976621703847 33.18 0.36
  endloop
 endfacet
 facet normal -0.706825181105366 0.7073882691671997 0.0
  outer loop
   vertex 50.13837168486936 62.99900000000001 0
   vertex 20.295616556494384 33.18 0
   vertex 20.295616556494384 33.18 0.36
  endloop
 endfacet
 facet normal -0.706825181105366 0.7073882691671997 0.0
  outer loop
   vertex 50.13837168486936 62.99900000000001 0.36
   vertex 50.13837168486936 62.99900000000001 0
   vertex 20.295616556494384 33.18 0.36
  endloop
 endfacet
 facet normal -2.231916368827954e-16 1.0 0.0
  outer loop
   vertex 81.97391649666835 62.99900000000002 0
   vertex 50.13837168486936 62.99900000000001 0
   vertex 50.13837168486936 62.99900000000001 0.36
  endloop
 endfacet
 facet normal -2.231916368827954e-16 1.0 0.0
  outer loop
   vertex 81.97391649666835 62.99900000000002 0.36
   vertex 81.97391649666835 62.99900000000002 0
   vertex 50.13837168486936 62.99900000000001 0.36
  endloop
 endfacet
 facet normal 0.9999996829318346 0.0007963267107331291 0.0
  outer loop
   vertex 81.9976621703847 33.18 0
   vertex 81.97391649666835 62.99900000000002 0
   vertex 81.97391649666835 62.99900000000002 0.36
  endloop
 endfacet
 facet normal 0.9999996829318346 0.0007963267107331291 0.0
  outer loop
   vertex 81.9976621703847 33.18 0.36
   vertex 81.9976621703847 33.18 0
   vertex 81.97391649666835 62.99900000000002 0.36
  endloop
 endfacet
 facet normal 0.0 0.0 1.0
  outer loop
   vertex 81.9976621703847 33.18 0.36
   vertex 57.55 45.32775681356645 0.36
   vertex 20.295616556494384 33.18 0.36
  endloop
 endfacet
 facet normal 0.0 0.0 1.0
  outer loop
   vertex 20.295616556494384 33.18 0.36
   vertex 57.55 48.27224318643354 0.36
   vertex 50.13837168486936 62.99900000000001 0.36
  endloop
 endfacet
 facet normal -0.0 0.0 1.0
  outer loop
   vertex 50.13837168486936 62.99900000000001 0.36
   vertex 59.95302727799242 47.49145229322886 0.36
   vertex 81.97391649666835 62.99900000000002 0.36
  endloop
 endfacet
 facet normal 0.0 0.0 1.0
  outer loop
   vertex 81.97391649666835 62.99900000000002 0.36
   vertex 60.1 46.8 0.36
   vertex 81.9976621703847 33.18 0.36
  endloop
 endfacet
 facet normal 0.0 0.0 1.0
  outer loop
   vertex 60.1 46.8 0.36
   vertex 59.95302727799242 46.108547706771134 0.36
   vertex 81.9976621703847 33.18 0.36
  endloop
 endfacet
 facet normal 0.0 -0.0 1.0
  outer loop
   vertex 60.1 46.8 0.36
   vertex 81.97391649666835 62.99900000000002 0.36
   vertex 59.95302727799242 47.49145229322886 0.36
  endloop
 endfacet
 facet normal 0.0 0.0 1.0
  outer loop
   vertex 59.95302727799242 47.49145229322886 0.36
   vertex 50.13837168486936 62.99900000000001 0.36
   vertex 59.53752203081006 48.06334620331157 0.36
  endloop
 endfacet
 facet normal 0.0 0.0 1.0
  outer loop
   vertex 59.53752203081006 48.06334620331157 0.36
   vertex 50.13837168486936 62.99900000000001 0.36
   vertex 58.925328890437406 48.41679607770176 0.36
  endloop
 endfacet
 facet normal 0.0 0.0 1.0
  outer loop
   vertex 58.925328890437406 48.41679607770176 0.36
   vertex 50.13837168486936 62.99900000000001 0.36
   vertex 58.22230161244499 48.49068722212606 0.36
  endloop
 endfacet
 facet normal 0.0 0.0 1.0
  outer loop
   vertex 58.22230161244499 48.49068722212606 0.36
   vertex 50.13837168486936 62.99900000000001 0.36
   vertex 57.55 48.27224318643354 0.36
  endloop
 endfacet
 facet normal 0.0 0.0 1.0
  outer loop
   vertex 57.55 48.27224318643354 0.36
   vertex 20.295616556494384 33.18 0.36
   vertex 57.02467110956259 47.7992349288972 0.36
  endloop
 endfacet
 facet normal 0.0 0.0 1.0
  outer loop
   vertex 57.02467110956259 47.7992349288972 0.36
   vertex 20.295616556494384 33.18 0.36
   vertex 56.73714907875253 47.15344987439019 0.36
  endloop
 endfacet
 facet normal 0.0 0.0 1.0
  outer loop
   vertex 56.73714907875253 47.15344987439019 0.36
   vertex 20.295616556494384 33.18 0.36
   vertex 56.73714907875253 46.446550125609804 0.36
  endloop
 endfacet
 facet normal 0.0 0.0 1.0
  outer loop
   vertex 56.73714907875253 46.446550125609804 0.36
   vertex 20.295616556494384 33.18 0.36
   vertex 57.02467110956259 45.800765071102795 0.36
  endloop
 endfacet
 facet normal 0.0 0.0 1.0
  outer loop
   vertex 57.02467110956259 45.800765071102795 0.36
   vertex 20.295616556494384 33.18 0.36
   vertex 57.55 45.32775681356645 0.36
  endloop
 endfacet
 facet normal 0.0 0.0 1.0
  outer loop
   vertex 57.55 45.32775681356645 0.36
   vertex 81.9976621703847 33.18 0.36
   vertex 58.22230161244499 45.10931277787393 0.36
  endloop
 endfacet
 facet normal -0.0 0.0 1.0
  outer loop
   vertex 58.22230161244499 45.10931277787393 0.36
   vertex 81.9976621703847 33.18 0.36
   vertex 58.925328890437406 45.18320392229823 0.36
  endloop
 endfacet
 facet normal -0.0 0.0 1.0
  outer loop
   vertex 58.925328890437406 45.18320392229823 0.36
   vertex 81.9976621703847 33.18 0.36
   vertex 59.53752203081006 45.53665379668843 0.36
  endloop
 endfacet
 facet normal -0.0 0.0 1.0
  outer loop
   vertex 59.53752203081006 45.53665379668843 0.36
   vertex 81.9976621703847 33.18 0.36
   vertex 59.95302727799242 46.108547706771134 0.36
  endloop
 endfacet
 facet normal -0.9781476007338046 -0.20791169081776387 0.0
  outer loop
   vertex 60.1 46.8 0
   vertex 60.1 46.8 0.36
   vertex 59.95302727799242 47.49145229322886 0
  endloop
 endfacet
 facet normal -0.9781476007338046 -0.20791169081776387 0.0
  outer loop
   vertex 59.95302727799242 47.49145229322886 0
   vertex 60.1 46.8 0.36
   vertex 59.95302727799242 47.49145229322886 0.36
  endloop
 endfacet
 facet normal -0.8090169943749482 -0.5877852522924721 0.0
  outer loop
   vertex 59.95302727799242 47.49145229322886 0
   vertex 59.95302727799242 47.49145229322886 0.36
   vertex 59.53752203081006 48.06334620331157 0
  endloop
 endfacet
 facet normal -0.8090169943749482 -0.5877852522924721 0.0
  outer loop
   vertex 59.53752203081006 48.06334620331157 0
   vertex 59.95302727799242 47.49145229322886 0.36
   vertex 59.53752203081006 48.06334620331157 0.36
  endloop
 endfacet
 facet normal -0.49999999999999967 -0.8660254037844389 0.0
  outer loop
   vertex 59.53752203081006 48.06334620331157 0
   vertex 59.53752203081006 48.06334620331157 0.36
   vertex 58.925328890437406 48.41679607770176 0
  endloop
 endfacet
 facet normal -0.49999999999999967 -0.8660254037844389 0.0
  outer loop
   vertex 58.925328890437406 48.41679607770176 0
   vertex 59.53752203081006 48.06334620331157 0.36
   vertex 58.925328890437406 48.41679607770176 0.36
  endloop
 endfacet
 facet normal -0.10452846326765099 -0.9945218953682736 0.0
  outer loop
   vertex 58.925328890437406 48.41679607770176 0
   vertex 58.925328890437406 48.41679607770176 0.36
   vertex 58.22230161244499 48.49068722212606 0
  endloop
 endfacet
 facet normal -0.10452846326765099 -0.9945218953682736 0.0
  outer loop
   vertex 58.22230161244499 48.49068722212606 0
   vertex 58.925328890437406 48.41679607770176 0.36
   vertex 58.22230161244499 48.49068722212606 0.36
  endloop
 endfacet
 facet normal 0.30901699437494945 -0.951056516295153 0.0
  outer loop
   vertex 58.22230161244499 48.49068722212606 0
   vertex 58.22230161244499 48.49068722212606 0.36
   vertex 57.55 48.27224318643354 0
  endloop
 endfacet
 facet normal 0.30901699437494945 -0.951056516295153 0.0
  outer loop
   vertex 57.55 48.27224318643354 0
   vertex 58.22230161244499 48.49068722212606 0.36
   vertex 57.55 48.27224318643354 0.36
  endloop
 endfacet
 facet normal 0.6691306063588613 -0.7431448254773912 0.0
  outer loop
   vertex 57.55 48.27224318643354 0
   vertex 57.55 48.27224318643354 0.36
   vertex 57.02467110956259 47.7992349288972 0
  endloop
 endfacet
 facet normal 0.6691306063588613 -0.7431448254773912 0.0
  outer loop
   vertex 57.02467110956259 47.7992349288972 0
   vertex 57.55 48.27224318643354 0.36
   vertex 57.02467110956259 47.7992349288972 0.36
  endloop
 endfacet
 facet normal 0.9135454576425996 -0.4067366430758033 0.0
  outer loop
   vertex 57.02467110956259 47.7992349288972 0
   vertex 57.02467110956259 47.7992349288972 0.36
   vertex 56.73714907875253 47.15344987439019 0
  endloop
 endfacet
 facet normal 0.9135454576425996 -0.4067366430758033 0.0
  outer loop
   vertex 56.73714907875253 47.15344987439019 0
   vertex 57.02467110956259 47.7992349288972 0.36
   vertex 56.73714907875253 47.15344987439019 0.36
  endloop
 endfacet
 facet normal 1.0 0.0 -0.0
  outer loop
   vertex 56.73714907875253 47.15344987439019 0
   vertex 56.73714907875253 47.15344987439019 0.36
   vertex 56.73714907875253 46.446550125609804 0
  endloop
 endfacet
 facet normal 1.0 0.0 0.0
  outer loop
   vertex 56.73714907875253 46.446550125609804 0
   vertex 56.73714907875253 47.15344987439019 0.36
   vertex 56.73714907875253 46.446550125609804 0.36
  endloop
 endfacet
 facet normal 0.9135454576425996 0.4067366430758033 -0.0
  outer loop
   vertex 56.73714907875253 46.446550125609804 0
   vertex 56.73714907875253 46.446550125609804 0.36
   vertex 57.02467110956259 45.800765071102795 0
  endloop
 endfacet
 facet normal 0.9135454576425996 0.4067366430758033 -0.0
  outer loop
   vertex 57.02467110956259 45.800765071102795 0
   vertex 56.73714907875253 46.446550125609804 0.36
   vertex 57.02467110956259 45.800765071102795 0.36
  endloop
 endfacet
 facet normal 0.6691306063588613 0.7431448254773912 -0.0
  outer loop
   vertex 57.02467110956259 45.800765071102795 0
   vertex 57.02467110956259 45.800765071102795 0.36
   vertex 57.55 45.32775681356645 0
  endloop
 endfacet
 facet normal 0.6691306063588613 0.7431448254773912 -0.0
  outer loop
   vertex 57.55 45.32775681356645 0
   vertex 57.02467110956259 45.800765071102795 0.36
   vertex 57.55 45.32775681356645 0.36
  endloop
 endfacet
 facet normal 0.30901699437494945 0.951056516295153 -0.0
  outer loop
   vertex 57.55 45.32775681356645 0
   vertex 57.55 45.32775681356645 0.36
   vertex 58.22230161244499 45.10931277787393 0
  endloop
 endfacet
 facet normal 0.30901699437494945 0.951056516295153 -0.0
  outer loop
   vertex 58.22230161244499 45.10931277787393 0
   vertex 57.55 45.32775681356645 0.36
   vertex 58.22230161244499 45.10931277787393 0.36
  endloop
 endfacet
 facet normal -0.10452846326765099 0.9945218953682736 0.0
  outer loop
   vertex 58.22230161244499 45.10931277787393 0
   vertex 58.22230161244499 45.10931277787393 0.36
   vertex 58.925328890437406 45.18320392229823 0
  endloop
 endfacet
 facet normal -0.10452846326765099 0.9945218953682736 0.0
  outer loop
   vertex 58.925328890437406 45.18320392229823 0
   vertex 58.22230161244499 45.10931277787393 0.36
   vertex 58.925328890437406 45.18320392229823 0.36
  endloop
 endfacet
 facet normal -0.49999999999999967 0.8660254037844389 0.0
  outer loop
   vertex 58.925328890437406 45.18320392229823 0
   vertex 58.925328890437406 45.18320392229823 0.36
   vertex 59.53752203081006 45.53665379668843 0
  endloop
 endfacet
 facet normal -0.49999999999999967 0.8660254037844389 0.0
  outer loop
   vertex 59.53752203081006 45.53665379668843 0
   vertex 58.925328890437406 45.18320392229823 0.36
   vertex 59.53752203081006 45.53665379668843 0.36
  endloop
 endfacet
 facet normal -0.8090169943749482 0.5877852522924721 0.0
  outer loop
   vertex 59.53752203081006 45.53665379668843 0
   vertex 59.53752203081006 45.53665379668843 0.36
   vertex 59.95302727799242 46.108547706771134 0
  endloop
 endfacet
 facet normal -0.8090169943749482 0.5877852522924721 0.0
  outer loop
   vertex 59.95302727799242 46.108547706771134 0
   vertex 59.53752203081006 45.53665379668843 0.36
   vertex 59.95302727799242 46.108547706771134 0.36
  endloop
 endfacet
 facet normal -0.9781476007338046 0.20791169081776387 0.0
  outer loop
   vertex 59.95302727799242 46.108547706771134 0
   vertex 59.95302727799242 46.108547706771134 0.36
   vertex 60.1 46.8 0
  endloop
 endfacet
 facet normal -0.9781476007338046 0.20791169081776387 0.0
  outer loop
   vertex 60.1 46.8 0
   vertex 59.95302727799242 46.108547706771134 0.36
   vertex 60.1 46.8 0.36
  endloop
 endfacet
endsolid
