solid PyGamic generated __Board__ SLA File
 facet normal 0.0 0.0 -1.0
  outer loop
   vertex 4.406492450489727 128.6365594556629 0
   vertex 62.41847356488922 128.6365594556629 0
   vertex 53.922815625718606 108.12622683763419 0
  endloop
 endfacet
 facet normal 0.0 1.0 0.0
  outer loop
   vertex 62.41847356488922 128.6365594556629 0
   vertex 4.406492450489727 128.6365594556629 0
   vertex 4.406492450489727 128.6365594556629 0.36
  endloop
 endfacet
 facet normal 0.0 1.0 0.0
  outer loop
   vertex 62.41847356488922 128.6365594556629 0.36
   vertex 62.41847356488922 128.6365594556629 0
   vertex 4.406492450489727 128.6365594556629 0.36
  endloop
 endfacet
 facet normal 0.9238795325112892 -0.38268343236508406 0.0
  outer loop
   vertex 53.922815625718606 108.12622683763419 0
   vertex 62.41847356488922 128.6365594556629 0
   vertex 62.41847356488922 128.6365594556629 0.36
  endloop
 endfacet
 facet normal 0.9238795325112892 -0.38268343236508406 0.0
  outer loop
   vertex 53.922815625718606 108.12622683763419 0.36
   vertex 53.922815625718606 108.12622683763419 0
   vertex 62.41847356488922 128.6365594556629 0.36
  endloop
 endfacet
 facet normal -0.38268343236508523 -0.9238795325112886 0.0
  outer loop
   vertex 4.406492450489727 128.6365594556629 0
   vertex 53.922815625718606 108.12622683763419 0
   vertex 53.922815625718606 108.12622683763419 0.36
  endloop
 endfacet
 facet normal -0.38268343236508523 -0.9238795325112886 -0.0
  outer loop
   vertex 4.406492450489727 128.6365594556629 0.36
   vertex 4.406492450489727 128.6365594556629 0
   vertex 53.922815625718606 108.12622683763419 0.36
  endloop
 endfacet
 facet normal -0.0 0.0 1.0
  outer loop
   vertex 4.406492450489727 128.6365594556629 0.36
   vertex 53.922815625718606 108.12622683763419 0.36
   vertex 62.41847356488922 128.6365594556629 0.36
  endloop
 endfacet
 facet normal 0.0 0.0 -1.0
  outer loop
   vertex 0.015026674942670099 66.23311256571652 0
   vertex 0.015026674942670099 124.24509368011596 0
   vertex 20.525359292971856 74.72877050488745 0
  endloop
 endfacet
 facet normal -1.0 0.0 0.0
  outer loop
   vertex 0.015026674942670099 124.24509368011596 0
   vertex 0.015026674942670099 66.23311256571652 0
   vertex 0.015026674942670099 66.23311256571652 0.36
  endloop
 endfacet
 facet normal -1.0 -0.0 -0.0
  outer loop
   vertex 0.015026674942670099 124.24509368011596 0.36
   vertex 0.015026674942670099 124.24509368011596 0
   vertex 0.015026674942670099 66.23311256571652 0.36
  endloop
 endfacet
 facet normal 0.9238795325112846 0.3826834323650953 0.0
  outer loop
   vertex 20.525359292971856 74.72877050488745 0
   vertex 0.015026674942670099 124.24509368011596 0
   vertex 0.015026674942670099 124.24509368011596 0.36
  endloop
 endfacet
 facet normal 0.9238795325112846 0.3826834323650953 0.0
  outer loop
   vertex 20.525359292971856 74.72877050488745 0.36
   vertex 20.525359292971856 74.72877050488745 0
   vertex 0.015026674942670099 124.24509368011596 0.36
  endloop
 endfacet
 facet normal 0.3826834323650885 -0.9238795325112873 0.0
  outer loop
   vertex 0.015026674942670099 66.23311256571652 0
   vertex 20.525359292971856 74.72877050488745 0
   vertex 20.525359292971856 74.72877050488745 0.36
  endloop
 endfacet
 facet normal 0.3826834323650885 -0.9238795325112873 0.0
  outer loop
   vertex 0.015026674942670099 66.23311256571652 0.36
   vertex 0.015026674942670099 66.23311256571652 0
   vertex 20.525359292971856 74.72877050488745 0.36
  endloop
 endfacet
 facet normal 0.0 0.0 1.0
  outer loop
   vertex 0.015026674942670099 66.23311256571652 0.36
   vertex 20.525359292971856 74.72877050488745 0.36
   vertex 0.015026674942670099 124.24509368011596 0.36
  endloop
 endfacet
 facet normal 0.0 0.0 -1.0
  outer loop
   vertex 65.91730667494281 68.47015824044976 0
   vertex 65.91730667494281 97.97952707479119 0
   vertex 80.67199109211349 83.22484265762046 0
  endloop
 endfacet
 facet normal -1.0 0.0 0.0
  outer loop
   vertex 65.91730667494281 97.97952707479119 0
   vertex 65.91730667494281 68.47015824044976 0
   vertex 65.91730667494281 68.47015824044976 0.36
  endloop
 endfacet
 facet normal -1.0 -0.0 -0.0
  outer loop
   vertex 65.91730667494281 97.97952707479119 0.36
   vertex 65.91730667494281 97.97952707479119 0
   vertex 65.91730667494281 68.47015824044976 0.36
  endloop
 endfacet
 facet normal 0.7071067811865489 0.7071067811865461 0.0
  outer loop
   vertex 80.67199109211349 83.22484265762046 0
   vertex 65.91730667494281 97.97952707479119 0
   vertex 65.91730667494281 97.97952707479119 0.36
  endloop
 endfacet
 facet normal 0.7071067811865489 0.7071067811865461 0.0
  outer loop
   vertex 80.67199109211349 83.22484265762046 0.36
   vertex 80.67199109211349 83.22484265762046 0
   vertex 65.91730667494281 97.97952707479119 0.36
  endloop
 endfacet
 facet normal 0.7071067811865479 -0.7071067811865472 0.0
  outer loop
   vertex 65.91730667494281 68.47015824044976 0
   vertex 80.67199109211349 83.22484265762046 0
   vertex 80.67199109211349 83.22484265762046 0.36
  endloop
 endfacet
 facet normal 0.7071067811865479 -0.7071067811865472 0.0
  outer loop
   vertex 65.91730667494281 68.47015824044976 0.36
   vertex 65.91730667494281 68.47015824044976 0
   vertex 80.67199109211349 83.22484265762046 0.36
  endloop
 endfacet
 facet normal 0.0 0.0 1.0
  outer loop
   vertex 65.91730667494281 68.47015824044976 0.36
   vertex 80.67199109211349 83.22484265762046 0.36
   vertex 65.91730667494281 97.97952707479119 0.36
  endloop
 endfacet
 facet normal 0.0 -0.0 -1.0
  outer loop
   vertex 62.5573066749428 60.35840067087614 0
   vertex 62.5573066749428 30.849031836534763 0
   vertex 47.80262225777214 45.60371625370542 0
  endloop
 endfacet
 facet normal 1.0 0.0 0.0
  outer loop
   vertex 62.5573066749428 30.849031836534763 0
   vertex 62.5573066749428 60.35840067087614 0
   vertex 62.5573066749428 60.35840067087614 0.36
  endloop
 endfacet
 facet normal 1.0 -0.0 0.0
  outer loop
   vertex 62.5573066749428 30.849031836534763 0.36
   vertex 62.5573066749428 30.849031836534763 0
   vertex 62.5573066749428 60.35840067087614 0.36
  endloop
 endfacet
 facet normal -0.7071067811865476 -0.7071067811865476 0.0
  outer loop
   vertex 47.80262225777214 45.60371625370542 0
   vertex 62.5573066749428 30.849031836534763 0
   vertex 62.5573066749428 30.849031836534763 0.36
  endloop
 endfacet
 facet normal -0.7071067811865476 -0.7071067811865476 -0.0
  outer loop
   vertex 47.80262225777214 45.60371625370542 0.36
   vertex 47.80262225777214 45.60371625370542 0
   vertex 62.5573066749428 30.849031836534763 0.36
  endloop
 endfacet
 facet normal -0.7071067811865489 0.7071067811865462 0.0
  outer loop
   vertex 62.5573066749428 60.35840067087614 0
   vertex 47.80262225777214 45.60371625370542 0
   vertex 47.80262225777214 45.60371625370542 0.36
  endloop
 endfacet
 facet normal -0.7071067811865489 0.7071067811865462 0.0
  outer loop
   vertex 62.5573066749428 60.35840067087614 0.36
   vertex 62.5573066749428 60.35840067087614 0
   vertex 47.80262225777214 45.60371625370542 0.36
  endloop
 endfacet
 facet normal 0.0 0.0 1.0
  outer loop
   vertex 62.5573066749428 60.35840067087614 0.36
   vertex 47.80262225777214 45.60371625370542 0.36
   vertex 62.5573066749428 30.849031836534763 0.36
  endloop
 endfacet
 facet normal 0.0 0.0 -1.0
  outer loop
   vertex 67.2031230076895 101.4454683116181 0
   vertex 121.30047266091786 123.85332422642496 0
   vertex 83.04786987690031 85.60072144240722 0
  endloop
 endfacet
 facet normal -0.382683432365093 0.9238795325112854 0.0
  outer loop
   vertex 121.30047266091786 123.85332422642496 0
   vertex 67.2031230076895 101.4454683116181 0
   vertex 67.2031230076895 101.4454683116181 0.36
  endloop
 endfacet
 facet normal -0.382683432365093 0.9238795325112854 0.0
  outer loop
   vertex 121.30047266091786 123.85332422642496 0.36
   vertex 121.30047266091786 123.85332422642496 0
   vertex 67.2031230076895 101.4454683116181 0.36
  endloop
 endfacet
 facet normal 0.7071067811865491 -0.7071067811865457 0.0
  outer loop
   vertex 83.04786987690031 85.60072144240722 0
   vertex 121.30047266091786 123.85332422642496 0
   vertex 121.30047266091786 123.85332422642496 0.36
  endloop
 endfacet
 facet normal 0.7071067811865491 -0.7071067811865457 0.0
  outer loop
   vertex 83.04786987690031 85.60072144240722 0.36
   vertex 83.04786987690031 85.60072144240722 0
   vertex 121.30047266091786 123.85332422642496 0.36
  endloop
 endfacet
 facet normal -0.707106781186549 -0.707106781186546 0.0
  outer loop
   vertex 67.2031230076895 101.4454683116181 0
   vertex 83.04786987690031 85.60072144240722 0
   vertex 83.04786987690031 85.60072144240722 0.36
  endloop
 endfacet
 facet normal -0.707106781186549 -0.707106781186546 -0.0
  outer loop
   vertex 67.2031230076895 101.4454683116181 0.36
   vertex 67.2031230076895 101.4454683116181 0
   vertex 83.04786987690031 85.60072144240722 0.36
  endloop
 endfacet
 facet normal -0.0 0.0 1.0
  outer loop
   vertex 67.2031230076895 101.4454683116181 0.36
   vertex 83.04786987690031 85.60072144240722 0.36
   vertex 121.30047266091786 123.85332422642496 0.36
  endloop
 endfacet
 facet normal 0.0 0.0 -1.0
  outer loop
   vertex 101.26849553089782 67.38009578840963 0
   vertex 85.42374866168713 83.22484265762043 0
   vertex 123.67635144570465 121.47744544163814 0
  endloop
 endfacet
 facet normal -0.7071067811865497 -0.7071067811865452 0.0
  outer loop
   vertex 85.42374866168713 83.22484265762043 0
   vertex 101.26849553089782 67.38009578840963 0
   vertex 101.26849553089782 67.38009578840963 0.36
  endloop
 endfacet
 facet normal -0.7071067811865497 -0.7071067811865452 -0.0
  outer loop
   vertex 85.42374866168713 83.22484265762043 0.36
   vertex 85.42374866168713 83.22484265762043 0
   vertex 101.26849553089782 67.38009578840963 0.36
  endloop
 endfacet
 facet normal -0.7071067811865492 0.7071067811865458 0.0
  outer loop
   vertex 123.67635144570465 121.47744544163814 0
   vertex 85.42374866168713 83.22484265762043 0
   vertex 85.42374866168713 83.22484265762043 0.36
  endloop
 endfacet
 facet normal -0.7071067811865492 0.7071067811865458 0.0
  outer loop
   vertex 123.67635144570465 121.47744544163814 0.36
   vertex 123.67635144570465 121.47744544163814 0
   vertex 85.42374866168713 83.22484265762043 0.36
  endloop
 endfacet
 facet normal 0.923879532511286 -0.38268343236509167 0.0
  outer loop
   vertex 101.26849553089782 67.38009578840963 0
   vertex 123.67635144570465 121.47744544163814 0
   vertex 123.67635144570465 121.47744544163814 0.36
  endloop
 endfacet
 facet normal 0.923879532511286 -0.38268343236509167 0.0
  outer loop
   vertex 101.26849553089782 67.38009578840963 0.36
   vertex 101.26849553089782 67.38009578840963 0
   vertex 123.67635144570465 121.47744544163814 0.36
  endloop
 endfacet
 facet normal 0.0 -0.0 1.0
  outer loop
   vertex 101.26849553089782 67.38009578840963 0.36
   vertex 123.67635144570465 121.47744544163814 0.36
   vertex 85.42374866168713 83.22484265762043 0.36
  endloop
 endfacet
 facet normal 0.0 -0.0 -1.0
  outer loop
   vertex 83.04786987690028 80.84896387283364 0
   vertex 97.80255429407093 66.09427945566294 0
   vertex 68.29318545972959 66.09427945566294 0
  endloop
 endfacet
 facet normal 0.7071067811865486 0.7071067811865465 0.0
  outer loop
   vertex 97.80255429407093 66.09427945566294 0
   vertex 83.04786987690028 80.84896387283364 0
   vertex 83.04786987690028 80.84896387283364 0.36
  endloop
 endfacet
 facet normal 0.7071067811865486 0.7071067811865465 0.0
  outer loop
   vertex 97.80255429407093 66.09427945566294 0.36
   vertex 97.80255429407093 66.09427945566294 0
   vertex 83.04786987690028 80.84896387283364 0.36
  endloop
 endfacet
 facet normal 0.0 -1.0 0.0
  outer loop
   vertex 68.29318545972959 66.09427945566294 0
   vertex 97.80255429407093 66.09427945566294 0
   vertex 97.80255429407093 66.09427945566294 0.36
  endloop
 endfacet
 facet normal 0.0 -1.0 0.0
  outer loop
   vertex 68.29318545972959 66.09427945566294 0.36
   vertex 68.29318545972959 66.09427945566294 0
   vertex 97.80255429407093 66.09427945566294 0.36
  endloop
 endfacet
 facet normal -0.7071067811865476 0.7071067811865476 0.0
  outer loop
   vertex 83.04786987690028 80.84896387283364 0
   vertex 68.29318545972959 66.09427945566294 0
   vertex 68.29318545972959 66.09427945566294 0.36
  endloop
 endfacet
 facet normal -0.7071067811865476 0.7071067811865476 0.0
  outer loop
   vertex 83.04786987690028 80.84896387283364 0.36
   vertex 83.04786987690028 80.84896387283364 0
   vertex 68.29318545972959 66.09427945566294 0.36
  endloop
 endfacet
 facet normal 0.0 0.0 1.0
  outer loop
   vertex 83.04786987690028 80.84896387283364 0.36
   vertex 68.29318545972959 66.09427945566294 0.36
   vertex 97.80255429407093 66.09427945566294 0.36
  endloop
 endfacet
 facet normal 0.0 0.0 -1.0
  outer loop
   vertex 30.672059055814536 62.734279455662936 0
   vertex 60.181427890156 62.734279455662936 0
   vertex 45.42674347298533 47.979595038492214 0
  endloop
 endfacet
 facet normal 0.0 1.0 0.0
  outer loop
   vertex 60.181427890156 62.734279455662936 0
   vertex 30.672059055814536 62.734279455662936 0
   vertex 30.672059055814536 62.734279455662936 0.36
  endloop
 endfacet
 facet normal 0.0 1.0 0.0
  outer loop
   vertex 60.181427890156 62.734279455662936 0.36
   vertex 60.181427890156 62.734279455662936 0
   vertex 30.672059055814536 62.734279455662936 0.36
  endloop
 endfacet
 facet normal 0.7071067811865488 -0.7071067811865465 0.0
  outer loop
   vertex 45.42674347298533 47.979595038492214 0
   vertex 60.181427890156 62.734279455662936 0
   vertex 60.181427890156 62.734279455662936 0.36
  endloop
 endfacet
 facet normal 0.7071067811865488 -0.7071067811865465 0.0
  outer loop
   vertex 45.42674347298533 47.979595038492214 0.36
   vertex 45.42674347298533 47.979595038492214 0
   vertex 60.181427890156 62.734279455662936 0.36
  endloop
 endfacet
 facet normal -0.7071067811865458 -0.7071067811865492 0.0
  outer loop
   vertex 30.672059055814536 62.734279455662936 0
   vertex 45.42674347298533 47.979595038492214 0
   vertex 45.42674347298533 47.979595038492214 0.36
  endloop
 endfacet
 facet normal -0.7071067811865458 -0.7071067811865492 -0.0
  outer loop
   vertex 30.672059055814536 62.734279455662936 0.36
   vertex 30.672059055814536 62.734279455662936 0
   vertex 45.42674347298533 47.979595038492214 0.36
  endloop
 endfacet
 facet normal -0.0 0.0 1.0
  outer loop
   vertex 30.672059055814536 62.734279455662936 0.36
   vertex 45.42674347298533 47.979595038492214 0.36
   vertex 60.181427890156 62.734279455662936 0.36
  endloop
 endfacet
 facet normal 0.0 -0.0 -1.0
  outer loop
   vertex 27.206117818987618 61.448463122916245 0
   vertex 43.05086468819854 45.60371625370541 0
   vertex 4.798261904180639 7.351113469687452 0
  endloop
 endfacet
 facet normal 0.7071067811865457 0.7071067811865492 0.0
  outer loop
   vertex 43.05086468819854 45.60371625370541 0
   vertex 27.206117818987618 61.448463122916245 0
   vertex 27.206117818987618 61.448463122916245 0.36
  endloop
 endfacet
 facet normal 0.7071067811865457 0.7071067811865492 0.0
  outer loop
   vertex 43.05086468819854 45.60371625370541 0.36
   vertex 43.05086468819854 45.60371625370541 0
   vertex 27.206117818987618 61.448463122916245 0.36
  endloop
 endfacet
 facet normal 0.707106781186548 -0.7071067811865469 0.0
  outer loop
   vertex 4.798261904180639 7.351113469687452 0
   vertex 43.05086468819854 45.60371625370541 0
   vertex 43.05086468819854 45.60371625370541 0.36
  endloop
 endfacet
 facet normal 0.707106781186548 -0.7071067811865469 0.0
  outer loop
   vertex 4.798261904180639 7.351113469687452 0.36
   vertex 4.798261904180639 7.351113469687452 0
   vertex 43.05086468819854 45.60371625370541 0.36
  endloop
 endfacet
 facet normal -0.9238795325112859 0.3826834323650922 0.0
  outer loop
   vertex 27.206117818987618 61.448463122916245 0
   vertex 4.798261904180639 7.351113469687452 0
   vertex 4.798261904180639 7.351113469687452 0.36
  endloop
 endfacet
 facet normal -0.9238795325112859 0.3826834323650922 0.0
  outer loop
   vertex 27.206117818987618 61.448463122916245 0.36
   vertex 27.206117818987618 61.448463122916245 0
   vertex 4.798261904180639 7.351113469687452 0.36
  endloop
 endfacet
 facet normal 0.0 0.0 1.0
  outer loop
   vertex 27.206117818987618 61.448463122916245 0.36
   vertex 4.798261904180639 7.351113469687452 0.36
   vertex 43.05086468819854 45.60371625370541 0.36
  endloop
 endfacet
 facet normal 0.0 -0.0 -1.0
  outer loop
   vertex 45.42674347298535 43.22783746891861 0
   vertex 61.27149034219612 27.383090599707852 0
   vertex 7.174140688967478 4.975234684900694 0
  endloop
 endfacet
 facet normal 0.7071067811865474 0.7071067811865478 0.0
  outer loop
   vertex 61.27149034219612 27.383090599707852 0
   vertex 45.42674347298535 43.22783746891861 0
   vertex 45.42674347298535 43.22783746891861 0.36
  endloop
 endfacet
 facet normal 0.7071067811865474 0.7071067811865478 0.0
  outer loop
   vertex 61.27149034219612 27.383090599707852 0.36
   vertex 61.27149034219612 27.383090599707852 0
   vertex 45.42674347298535 43.22783746891861 0.36
  endloop
 endfacet
 facet normal 0.38268343236509567 -0.9238795325112844 0.0
  outer loop
   vertex 7.174140688967478 4.975234684900694 0
   vertex 61.27149034219612 27.383090599707852 0
   vertex 61.27149034219612 27.383090599707852 0.36
  endloop
 endfacet
 facet normal 0.38268343236509567 -0.9238795325112844 0.0
  outer loop
   vertex 7.174140688967478 4.975234684900694 0.36
   vertex 7.174140688967478 4.975234684900694 0
   vertex 61.27149034219612 27.383090599707852 0.36
  endloop
 endfacet
 facet normal -0.7071067811865479 0.7071067811865471 0.0
  outer loop
   vertex 45.42674347298535 43.22783746891861 0
   vertex 7.174140688967478 4.975234684900694 0
   vertex 7.174140688967478 4.975234684900694 0.36
  endloop
 endfacet
 facet normal -0.7071067811865479 0.7071067811865471 0.0
  outer loop
   vertex 45.42674347298535 43.22783746891861 0.36
   vertex 45.42674347298535 43.22783746891861 0
   vertex 7.174140688967478 4.975234684900694 0.36
  endloop
 endfacet
 facet normal 0.0 0.0 1.0
  outer loop
   vertex 45.42674347298535 43.22783746891861 0.36
   vertex 7.174140688967478 4.975234684900694 0.36
   vertex 61.27149034219612 27.383090599707852 0.36
  endloop
 endfacet
 facet normal 0.0 0.0 -1.0
  outer loop
   vertex 7.174140688967271 123.85332422642507 0
   vertex 52.63699929297149 105.02199160839646 0
   vertex 44.83680592502508 86.19065899036727 0
  endloop
 endfacet
 facet normal 0.38268343236508473 0.9238795325112888 0.0
  outer loop
   vertex 52.63699929297149 105.02199160839646 0
   vertex 7.174140688967271 123.85332422642507 0
   vertex 7.174140688967271 123.85332422642507 0.36
  endloop
 endfacet
 facet normal 0.38268343236508473 0.9238795325112888 0.0
  outer loop
   vertex 52.63699929297149 105.02199160839646 0.36
   vertex 52.63699929297149 105.02199160839646 0
   vertex 7.174140688967271 123.85332422642507 0.36
  endloop
 endfacet
 facet normal 0.9238795325112891 -0.38268343236508434 0.0
  outer loop
   vertex 44.83680592502508 86.19065899036727 0
   vertex 52.63699929297149 105.02199160839646 0
   vertex 52.63699929297149 105.02199160839646 0.36
  endloop
 endfacet
 facet normal 0.9238795325112891 -0.38268343236508434 0.0
  outer loop
   vertex 44.83680592502508 86.19065899036727 0.36
   vertex 44.83680592502508 86.19065899036727 0
   vertex 52.63699929297149 105.02199160839646 0.36
  endloop
 endfacet
 facet normal -0.7071067811865475 -0.7071067811865476 0.0
  outer loop
   vertex 7.174140688967271 123.85332422642507 0
   vertex 44.83680592502508 86.19065899036727 0
   vertex 44.83680592502508 86.19065899036727 0.36
  endloop
 endfacet
 facet normal -0.7071067811865475 -0.7071067811865476 -0.0
  outer loop
   vertex 7.174140688967271 123.85332422642507 0.36
   vertex 7.174140688967271 123.85332422642507 0
   vertex 44.83680592502508 86.19065899036727 0.36
  endloop
 endfacet
 facet normal 0.0 0.0 1.0
  outer loop
   vertex 7.174140688967271 123.85332422642507 0.36
   vertex 44.83680592502508 86.19065899036727 0.36
   vertex 52.63699929297149 105.02199160839646 0.36
  endloop
 endfacet
 facet normal 0.0 0.0 -1.0
  outer loop
   vertex 23.629594522209782 76.01458683763414 0
   vertex 4.798261904180695 121.47744544163805 0
   vertex 42.46092714023828 83.81478020558043 0
  endloop
 endfacet
 facet normal -0.9238795325112846 -0.3826834323650952 0.0
  outer loop
   vertex 4.798261904180695 121.47744544163805 0
   vertex 23.629594522209782 76.01458683763414 0
   vertex 23.629594522209782 76.01458683763414 0.36
  endloop
 endfacet
 facet normal -0.9238795325112846 -0.3826834323650952 -0.0
  outer loop
   vertex 4.798261904180695 121.47744544163805 0.36
   vertex 4.798261904180695 121.47744544163805 0
   vertex 23.629594522209782 76.01458683763414 0.36
  endloop
 endfacet
 facet normal 0.7071067811865478 0.7071067811865472 0.0
  outer loop
   vertex 42.46092714023828 83.81478020558043 0
   vertex 4.798261904180695 121.47744544163805 0
   vertex 4.798261904180695 121.47744544163805 0.36
  endloop
 endfacet
 facet normal 0.7071067811865478 0.7071067811865472 0.0
  outer loop
   vertex 42.46092714023828 83.81478020558043 0.36
   vertex 42.46092714023828 83.81478020558043 0
   vertex 4.798261904180695 121.47744544163805 0.36
  endloop
 endfacet
 facet normal 0.3826834323650916 -0.923879532511286 0.0
  outer loop
   vertex 23.629594522209782 76.01458683763414 0
   vertex 42.46092714023828 83.81478020558043 0
   vertex 42.46092714023828 83.81478020558043 0.36
  endloop
 endfacet
 facet normal 0.3826834323650916 -0.923879532511286 0.0
  outer loop
   vertex 23.629594522209782 76.01458683763414 0.36
   vertex 23.629594522209782 76.01458683763414 0
   vertex 42.46092714023828 83.81478020558043 0.36
  endloop
 endfacet
 facet normal 0.0 -0.0 1.0
  outer loop
   vertex 23.629594522209782 76.01458683763414 0.36
   vertex 42.46092714023828 83.81478020558043 0.36
   vertex 4.798261904180695 121.47744544163805 0.36
  endloop
 endfacet
 facet normal 0.0 0.0 -1.0
  outer loop
   vertex 93.92896140321501 0.19199945566267707 0
   vertex 105.2708561152025 7.978081464793845 0
   vertex 124.06812089939537 0.19199945566267704 0
  endloop
 endfacet
 facet normal -0.5659625103131278 0.8244309776567489 0.0
  outer loop
   vertex 105.2708561152025 7.978081464793845 0
   vertex 93.92896140321501 0.19199945566267707 0
   vertex 93.92896140321501 0.19199945566267707 0.36
  endloop
 endfacet
 facet normal -0.5659625103131278 0.8244309776567489 0.0
  outer loop
   vertex 105.2708561152025 7.978081464793845 0.36
   vertex 105.2708561152025 7.978081464793845 0
   vertex 93.92896140321501 0.19199945566267707 0.36
  endloop
 endfacet
 facet normal 0.3826834323651029 0.9238795325112813 0.0
  outer loop
   vertex 124.06812089939537 0.19199945566267704 0
   vertex 105.2708561152025 7.978081464793845 0
   vertex 105.2708561152025 7.978081464793845 0.36
  endloop
 endfacet
 facet normal 0.3826834323651029 0.9238795325112813 0.0
  outer loop
   vertex 124.06812089939537 0.19199945566267704 0.36
   vertex 124.06812089939537 0.19199945566267704 0
   vertex 105.2708561152025 7.978081464793845 0.36
  endloop
 endfacet
 facet normal -9.20914055985751e-19 -1.0 0.0
  outer loop
   vertex 93.92896140321501 0.19199945566267707 0
   vertex 124.06812089939537 0.19199945566267704 0
   vertex 124.06812089939537 0.19199945566267704 0.36
  endloop
 endfacet
 facet normal -9.20914055985751e-19 -1.0 -0.0
  outer loop
   vertex 93.92896140321501 0.19199945566267707 0.36
   vertex 93.92896140321501 0.19199945566267707 0
   vertex 124.06812089939537 0.19199945566267704 0.36
  endloop
 endfacet
 facet normal -0.0 0.0 1.0
  outer loop
   vertex 93.92896140321501 0.19199945566267707 0.36
   vertex 124.06812089939537 0.19199945566267704 0.36
   vertex 105.2708561152025 7.978081464793845 0.36
  endloop
 endfacet
 facet normal 0.0 0.0 -1.0
  outer loop
   vertex 120.67350466581158 23.380730015403103 0
   vertex 128.45958667494259 34.72262472739013 0
   vertex 128.45958667494259 4.5834652312098 0
  endloop
 endfacet
 facet normal -0.8244309776567433 0.5659625103131359 0.0
  outer loop
   vertex 128.45958667494259 34.72262472739013 0
   vertex 120.67350466581158 23.380730015403103 0
   vertex 120.67350466581158 23.380730015403103 0.36
  endloop
 endfacet
 facet normal -0.8244309776567433 0.5659625103131359 0.0
  outer loop
   vertex 128.45958667494259 34.72262472739013 0.36
   vertex 128.45958667494259 34.72262472739013 0
   vertex 120.67350466581158 23.380730015403103 0.36
  endloop
 endfacet
 facet normal 1.0 0.0 0.0
  outer loop
   vertex 128.45958667494259 4.5834652312098 0
   vertex 128.45958667494259 34.72262472739013 0
   vertex 128.45958667494259 34.72262472739013 0.36
  endloop
 endfacet
 facet normal 1.0 -0.0 0.0
  outer loop
   vertex 128.45958667494259 4.5834652312098 0.36
   vertex 128.45958667494259 4.5834652312098 0
   vertex 128.45958667494259 34.72262472739013 0.36
  endloop
 endfacet
 facet normal -0.9238795325112872 -0.3826834323650886 0.0
  outer loop
   vertex 120.67350466581158 23.380730015403103 0
   vertex 128.45958667494259 4.5834652312098 0
   vertex 128.45958667494259 4.5834652312098 0.36
  endloop
 endfacet
 facet normal -0.9238795325112872 -0.3826834323650886 -0.0
  outer loop
   vertex 120.67350466581158 23.380730015403103 0.36
   vertex 120.67350466581158 23.380730015403103 0
   vertex 128.45958667494259 4.5834652312098 0.36
  endloop
 endfacet
 facet normal -0.0 0.0 1.0
  outer loop
   vertex 120.67350466581158 23.380730015403103 0.36
   vertex 128.45958667494259 4.5834652312098 0.36
   vertex 128.45958667494259 34.72262472739013 0.36
  endloop
 endfacet
 facet normal 0.0 0.0 -1.0
  outer loop
   vertex 106.55667244794896 11.082316694031864 0
   vertex 104.5845282896818 21.69117905613682 0
   vertex 121.30047266091802 4.975234684900515 0
  endloop
 endfacet
 facet normal -0.9831566638611187 -0.18276480598155473 0.0
  outer loop
   vertex 104.5845282896818 21.69117905613682 0
   vertex 106.55667244794896 11.082316694031864 0
   vertex 106.55667244794896 11.082316694031864 0.36
  endloop
 endfacet
 facet normal -0.9831566638611187 -0.18276480598155473 -0.0
  outer loop
   vertex 104.5845282896818 21.69117905613682 0.36
   vertex 104.5845282896818 21.69117905613682 0
   vertex 106.55667244794896 11.082316694031864 0.36
  endloop
 endfacet
 facet normal 0.7071067811865492 0.7071067811865457 0.0
  outer loop
   vertex 121.30047266091802 4.975234684900515 0
   vertex 104.5845282896818 21.69117905613682 0
   vertex 104.5845282896818 21.69117905613682 0.36
  endloop
 endfacet
 facet normal 0.7071067811865492 0.7071067811865457 0.0
  outer loop
   vertex 121.30047266091802 4.975234684900515 0.36
   vertex 121.30047266091802 4.975234684900515 0
   vertex 104.5845282896818 21.69117905613682 0.36
  endloop
 endfacet
 facet normal -0.3826834323651024 -0.9238795325112816 0.0
  outer loop
   vertex 106.55667244794896 11.082316694031864 0
   vertex 121.30047266091802 4.975234684900515 0
   vertex 121.30047266091802 4.975234684900515 0.36
  endloop
 endfacet
 facet normal -0.3826834323651024 -0.9238795325112816 -0.0
  outer loop
   vertex 106.55667244794896 11.082316694031864 0.36
   vertex 106.55667244794896 11.082316694031864 0
   vertex 121.30047266091802 4.975234684900515 0.36
  endloop
 endfacet
 facet normal -0.0 -0.0 1.0
  outer loop
   vertex 106.55667244794896 11.082316694031864 0.36
   vertex 121.30047266091802 4.975234684900515 0.36
   vertex 104.5845282896818 21.69117905613682 0.36
  endloop
 endfacet
 facet normal 0.0 0.0 -1.0
  outer loop
   vertex 106.96040707446865 24.067057840923553 0
   vertex 117.56926943657372 22.09491368265626 0
   vertex 123.67635144570471 7.3511134696874265 0
  endloop
 endfacet
 facet normal 0.18276480598156525 0.9831566638611167 0.0
  outer loop
   vertex 117.56926943657372 22.09491368265626 0
   vertex 106.96040707446865 24.067057840923553 0
   vertex 106.96040707446865 24.067057840923553 0.36
  endloop
 endfacet
 facet normal 0.18276480598156525 0.9831566638611167 0.0
  outer loop
   vertex 117.56926943657372 22.09491368265626 0.36
   vertex 117.56926943657372 22.09491368265626 0
   vertex 106.96040707446865 24.067057840923553 0.36
  endloop
 endfacet
 facet normal 0.9238795325112874 0.3826834323650884 0.0
  outer loop
   vertex 123.67635144570471 7.3511134696874265 0
   vertex 117.56926943657372 22.09491368265626 0
   vertex 117.56926943657372 22.09491368265626 0.36
  endloop
 endfacet
 facet normal 0.9238795325112874 0.3826834323650884 0.0
  outer loop
   vertex 123.67635144570471 7.3511134696874265 0.36
   vertex 123.67635144570471 7.3511134696874265 0
   vertex 117.56926943657372 22.09491368265626 0.36
  endloop
 endfacet
 facet normal -0.7071067811865488 -0.7071067811865461 0.0
  outer loop
   vertex 106.96040707446865 24.067057840923553 0
   vertex 123.67635144570471 7.3511134696874265 0
   vertex 123.67635144570471 7.3511134696874265 0.36
  endloop
 endfacet
 facet normal -0.7071067811865488 -0.7071067811865461 -0.0
  outer loop
   vertex 106.96040707446865 24.067057840923553 0.36
   vertex 106.96040707446865 24.067057840923553 0
   vertex 123.67635144570471 7.3511134696874265 0.36
  endloop
 endfacet
 facet normal 0.0 0.0 1.0
  outer loop
   vertex 106.96040707446865 24.067057840923553 0.36
   vertex 123.67635144570471 7.3511134696874265 0.36
   vertex 117.56926943657372 22.09491368265626 0.36
  endloop
 endfacet
 facet normal 0.0 -0.0 -1.0
  outer loop
   vertex 128.45958667494259 124.24509368011587 0
   vertex 128.45958667494259 66.23228413859178 0
   vertex 106.66343772416685 57.204023635676336 0
  endloop
 endfacet
 facet normal 0.0 0.0 -1.0
  outer loop
   vertex 128.45958667494259 124.24509368011587 0
   vertex 106.66343772416685 57.204023635676336 0
   vertex 103.67685197534891 64.41427945566284 0
  endloop
 endfacet
 facet normal 1.0 0.0 0.0
  outer loop
   vertex 128.45958667494259 66.23228413859178 0
   vertex 128.45958667494259 124.24509368011587 0
   vertex 128.45958667494259 124.24509368011587 0.36
  endloop
 endfacet
 facet normal 1.0 -0.0 0.0
  outer loop
   vertex 128.45958667494259 66.23228413859178 0.36
   vertex 128.45958667494259 66.23228413859178 0
   vertex 128.45958667494259 124.24509368011587 0.36
  endloop
 endfacet
 facet normal 0.3826834323650909 -0.9238795325112862 0.0
  outer loop
   vertex 106.66343772416685 57.204023635676336 0
   vertex 128.45958667494259 66.23228413859178 0
   vertex 128.45958667494259 66.23228413859178 0.36
  endloop
 endfacet
 facet normal 0.3826834323650909 -0.9238795325112862 0.0
  outer loop
   vertex 106.66343772416685 57.204023635676336 0.36
   vertex 106.66343772416685 57.204023635676336 0
   vertex 128.45958667494259 66.23228413859178 0.36
  endloop
 endfacet
 facet normal -0.923879532511287 -0.38268343236508917 0.0
  outer loop
   vertex 103.67685197534891 64.41427945566284 0
   vertex 106.66343772416685 57.204023635676336 0
   vertex 106.66343772416685 57.204023635676336 0.36
  endloop
 endfacet
 facet normal -0.923879532511287 -0.38268343236508917 -0.0
  outer loop
   vertex 103.67685197534891 64.41427945566284 0.36
   vertex 103.67685197534891 64.41427945566284 0
   vertex 106.66343772416685 57.204023635676336 0.36
  endloop
 endfacet
 facet normal -0.9238795325112861 0.3826834323650916 0.0
  outer loop
   vertex 128.45958667494259 124.24509368011587 0
   vertex 103.67685197534891 64.41427945566284 0
   vertex 103.67685197534891 64.41427945566284 0.36
  endloop
 endfacet
 facet normal -0.9238795325112861 0.3826834323650916 0.0
  outer loop
   vertex 128.45958667494259 124.24509368011587 0.36
   vertex 128.45958667494259 124.24509368011587 0
   vertex 103.67685197534891 64.41427945566284 0.36
  endloop
 endfacet
 facet normal 0.0 0.0 1.0
  outer loop
   vertex 128.45958667494259 124.24509368011587 0.36
   vertex 106.66343772416685 57.204023635676336 0.36
   vertex 128.45958667494259 66.23228413859178 0.36
  endloop
 endfacet
 facet normal 0.0 0.0 1.0
  outer loop
   vertex 128.45958667494259 124.24509368011587 0.36
   vertex 103.67685197534891 64.41427945566284 0.36
   vertex 106.66343772416685 57.204023635676336 0.36
  endloop
 endfacet
 facet normal 0.0 0.0 -1.0
  outer loop
   vertex 62.41930199201395 0.19199945566267712 0
   vertex 4.406492450489601 0.19199945566267715 0
   vertex 64.23730667494293 24.974734155256787 0
  endloop
 endfacet
 facet normal 0.0 0.0 -1.0
  outer loop
   vertex 62.41930199201395 0.19199945566267712 0
   vertex 64.23730667494293 24.974734155256787 0
   vertex 71.4475624949292 21.988148406438498 0
  endloop
 endfacet
 facet normal -4.784387419775292e-19 -1.0 0.0
  outer loop
   vertex 4.406492450489601 0.19199945566267715 0
   vertex 62.41930199201395 0.19199945566267712 0
   vertex 62.41930199201395 0.19199945566267712 0.36
  endloop
 endfacet
 facet normal -4.784387419775292e-19 -1.0 -0.0
  outer loop
   vertex 4.406492450489601 0.19199945566267715 0.36
   vertex 4.406492450489601 0.19199945566267715 0
   vertex 62.41930199201395 0.19199945566267712 0.36
  endloop
 endfacet
 facet normal -0.38268343236509567 0.9238795325112843 0.0
  outer loop
   vertex 64.23730667494293 24.974734155256787 0
   vertex 4.406492450489601 0.19199945566267715 0
   vertex 4.406492450489601 0.19199945566267715 0.36
  endloop
 endfacet
 facet normal -0.38268343236509567 0.9238795325112843 0.0
  outer loop
   vertex 64.23730667494293 24.974734155256787 0.36
   vertex 64.23730667494293 24.974734155256787 0
   vertex 4.406492450489601 0.19199945566267715 0.36
  endloop
 endfacet
 facet normal 0.3826834323651372 0.9238795325112671 0.0
  outer loop
   vertex 71.4475624949292 21.988148406438498 0
   vertex 64.23730667494293 24.974734155256787 0
   vertex 64.23730667494293 24.974734155256787 0.36
  endloop
 endfacet
 facet normal 0.3826834323651372 0.9238795325112671 0.0
  outer loop
   vertex 71.4475624949292 21.988148406438498 0.36
   vertex 71.4475624949292 21.988148406438498 0
   vertex 64.23730667494293 24.974734155256787 0.36
  endloop
 endfacet
 facet normal 0.9238795325112898 -0.3826834323650827 0.0
  outer loop
   vertex 62.41930199201395 0.19199945566267712 0
   vertex 71.4475624949292 21.988148406438498 0
   vertex 71.4475624949292 21.988148406438498 0.36
  endloop
 endfacet
 facet normal 0.9238795325112898 -0.3826834323650827 0.0
  outer loop
   vertex 62.41930199201395 0.19199945566267712 0.36
   vertex 62.41930199201395 0.19199945566267712 0
   vertex 71.4475624949292 21.988148406438498 0.36
  endloop
 endfacet
 facet normal 0.0 -0.0 1.0
  outer loop
   vertex 62.41930199201395 0.19199945566267712 0.36
   vertex 64.23730667494293 24.974734155256787 0.36
   vertex 4.406492450489601 0.19199945566267715 0.36
  endloop
 endfacet
 facet normal 0.0 0.0 1.0
  outer loop
   vertex 62.41930199201395 0.19199945566267712 0.36
   vertex 71.4475624949292 21.988148406438498 0.36
   vertex 64.23730667494293 24.974734155256787 0.36
  endloop
 endfacet
 facet normal 0.0 -0.0 -1.0
  outer loop
   vertex 62.5573066749428 100.91286574787352 0
   vertex 62.5573066749428 68.47015824044966 0
   vertex 47.408438590518486 83.61902632487383 0
  endloop
 endfacet
 facet normal -0.0 0.0 -1.0
  outer loop
   vertex 62.5573066749428 100.91286574787352 0
   vertex 47.408438590518486 83.61902632487383 0
   vertex 55.74123452220917 103.73617527564919 0
  endloop
 endfacet
 facet normal 1.0 0.0 0.0
  outer loop
   vertex 62.5573066749428 68.47015824044966 0
   vertex 62.5573066749428 100.91286574787352 0
   vertex 62.5573066749428 100.91286574787352 0.36
  endloop
 endfacet
 facet normal 1.0 -0.0 0.0
  outer loop
   vertex 62.5573066749428 68.47015824044966 0.36
   vertex 62.5573066749428 68.47015824044966 0
   vertex 62.5573066749428 100.91286574787352 0.36
  endloop
 endfacet
 facet normal -0.707106781186544 -0.707106781186551 0.0
  outer loop
   vertex 47.408438590518486 83.61902632487383 0
   vertex 62.5573066749428 68.47015824044966 0
   vertex 62.5573066749428 68.47015824044966 0.36
  endloop
 endfacet
 facet normal -0.707106781186544 -0.707106781186551 -0.0
  outer loop
   vertex 47.408438590518486 83.61902632487383 0.36
   vertex 47.408438590518486 83.61902632487383 0
   vertex 62.5573066749428 68.47015824044966 0.36
  endloop
 endfacet
 facet normal -0.9238795325112892 0.3826834323650839 0.0
  outer loop
   vertex 55.74123452220917 103.73617527564919 0
   vertex 47.408438590518486 83.61902632487383 0
   vertex 47.408438590518486 83.61902632487383 0.36
  endloop
 endfacet
 facet normal -0.9238795325112892 0.3826834323650839 0.0
  outer loop
   vertex 55.74123452220917 103.73617527564919 0.36
   vertex 55.74123452220917 103.73617527564919 0
   vertex 47.408438590518486 83.61902632487383 0.36
  endloop
 endfacet
 facet normal 0.3826834323650683 0.9238795325112956 0.0
  outer loop
   vertex 62.5573066749428 100.91286574787352 0
   vertex 55.74123452220917 103.73617527564919 0
   vertex 55.74123452220917 103.73617527564919 0.36
  endloop
 endfacet
 facet normal 0.3826834323650683 0.9238795325112956 0.0
  outer loop
   vertex 62.5573066749428 100.91286574787352 0.36
   vertex 62.5573066749428 100.91286574787352 0
   vertex 55.74123452220917 103.73617527564919 0.36
  endloop
 endfacet
 facet normal 0.0 0.0 1.0
  outer loop
   vertex 62.5573066749428 100.91286574787352 0.36
   vertex 47.408438590518486 83.61902632487383 0.36
   vertex 62.5573066749428 68.47015824044966 0.36
  endloop
 endfacet
 facet normal 0.0 0.0 1.0
  outer loop
   vertex 62.5573066749428 100.91286574787352 0.36
   vertex 55.74123452220917 103.73617527564919 0.36
   vertex 47.408438590518486 83.61902632487383 0.36
  endloop
 endfacet
 facet normal 0.0 0.0 -1.0
  outer loop
   vertex 65.91730667494281 27.915693163452456 0
   vertex 65.91730667494281 60.358400670876165 0
   vertex 81.06617475936679 45.20953258645199 0
  endloop
 endfacet
 facet normal 0.0 0.0 -1.0
  outer loop
   vertex 65.91730667494281 27.915693163452456 0
   vertex 81.06617475936679 45.20953258645199 0
   vertex 72.73337882767596 25.0923836356764 0
  endloop
 endfacet
 facet normal -1.0 0.0 0.0
  outer loop
   vertex 65.91730667494281 60.358400670876165 0
   vertex 65.91730667494281 27.915693163452456 0
   vertex 65.91730667494281 27.915693163452456 0.36
  endloop
 endfacet
 facet normal -1.0 -0.0 -0.0
  outer loop
   vertex 65.91730667494281 60.358400670876165 0.36
   vertex 65.91730667494281 60.358400670876165 0
   vertex 65.91730667494281 27.915693163452456 0.36
  endloop
 endfacet
 facet normal 0.707106781186552 0.707106781186543 0.0
  outer loop
   vertex 81.06617475936679 45.20953258645199 0
   vertex 65.91730667494281 60.358400670876165 0
   vertex 65.91730667494281 60.358400670876165 0.36
  endloop
 endfacet
 facet normal 0.707106781186552 0.707106781186543 0.0
  outer loop
   vertex 81.06617475936679 45.20953258645199 0.36
   vertex 81.06617475936679 45.20953258645199 0
   vertex 65.91730667494281 60.358400670876165 0.36
  endloop
 endfacet
 facet normal 0.9238795325112884 -0.3826834323650857 0.0
  outer loop
   vertex 72.73337882767596 25.0923836356764 0
   vertex 81.06617475936679 45.20953258645199 0
   vertex 81.06617475936679 45.20953258645199 0.36
  endloop
 endfacet
 facet normal 0.9238795325112884 -0.3826834323650857 0.0
  outer loop
   vertex 72.73337882767596 25.0923836356764 0.36
   vertex 72.73337882767596 25.0923836356764 0
   vertex 81.06617475936679 45.20953258645199 0.36
  endloop
 endfacet
 facet normal -0.38268343236513674 -0.9238795325112673 0.0
  outer loop
   vertex 65.91730667494281 27.915693163452456 0
   vertex 72.73337882767596 25.0923836356764 0
   vertex 72.73337882767596 25.0923836356764 0.36
  endloop
 endfacet
 facet normal -0.38268343236513674 -0.9238795325112673 -0.0
  outer loop
   vertex 65.91730667494281 27.915693163452456 0.36
   vertex 65.91730667494281 27.915693163452456 0
   vertex 72.73337882767596 25.0923836356764 0.36
  endloop
 endfacet
 facet normal 0.0 0.0 1.0
  outer loop
   vertex 65.91730667494281 27.915693163452456 0.36
   vertex 81.06617475936679 45.20953258645199 0.36
   vertex 65.91730667494281 60.358400670876165 0.36
  endloop
 endfacet
 facet normal -0.0 0.0 1.0
  outer loop
   vertex 65.91730667494281 27.915693163452456 0.36
   vertex 72.73337882767596 25.0923836356764 0.36
   vertex 81.06617475936679 45.20953258645199 0.36
  endloop
 endfacet
 facet normal 0.0 0.0 -1.0
  outer loop
   vertex 124.06812089939564 128.6365594556629 0
   vertex 64.23730667494276 103.8538247560692 0
   vertex 57.02705085495629 106.84041050488693 0
  endloop
 endfacet
 facet normal -0.0 0.0 -1.0
  outer loop
   vertex 124.06812089939564 128.6365594556629 0
   vertex 57.02705085495629 106.84041050488693 0
   vertex 66.05531135787164 128.6365594556629 0
  endloop
 endfacet
 facet normal 0.38268343236509283 -0.9238795325112855 0.0
  outer loop
   vertex 64.23730667494276 103.8538247560692 0
   vertex 124.06812089939564 128.6365594556629 0
   vertex 124.06812089939564 128.6365594556629 0.36
  endloop
 endfacet
 facet normal 0.38268343236509283 -0.9238795325112855 0.0
  outer loop
   vertex 64.23730667494276 103.8538247560692 0.36
   vertex 64.23730667494276 103.8538247560692 0
   vertex 124.06812089939564 128.6365594556629 0.36
  endloop
 endfacet
 facet normal -0.38268343236506747 -0.923879532511296 0.0
  outer loop
   vertex 57.02705085495629 106.84041050488693 0
   vertex 64.23730667494276 103.8538247560692 0
   vertex 64.23730667494276 103.8538247560692 0.36
  endloop
 endfacet
 facet normal -0.38268343236506747 -0.923879532511296 -0.0
  outer loop
   vertex 57.02705085495629 106.84041050488693 0.36
   vertex 57.02705085495629 106.84041050488693 0
   vertex 64.23730667494276 103.8538247560692 0.36
  endloop
 endfacet
 facet normal -0.9238795325112892 0.38268343236508395 0.0
  outer loop
   vertex 66.05531135787164 128.6365594556629 0
   vertex 57.02705085495629 106.84041050488693 0
   vertex 57.02705085495629 106.84041050488693 0.36
  endloop
 endfacet
 facet normal -0.9238795325112892 0.38268343236508395 0.0
  outer loop
   vertex 66.05531135787164 128.6365594556629 0.36
   vertex 66.05531135787164 128.6365594556629 0
   vertex 57.02705085495629 106.84041050488693 0.36
  endloop
 endfacet
 facet normal 0.0 1.0 0.0
  outer loop
   vertex 124.06812089939564 128.6365594556629 0
   vertex 66.05531135787164 128.6365594556629 0
   vertex 66.05531135787164 128.6365594556629 0.36
  endloop
 endfacet
 facet normal 0.0 1.0 0.0
  outer loop
   vertex 124.06812089939564 128.6365594556629 0.36
   vertex 124.06812089939564 128.6365594556629 0
   vertex 66.05531135787164 128.6365594556629 0.36
  endloop
 endfacet
 facet normal 0.0 0.0 1.0
  outer loop
   vertex 124.06812089939564 128.6365594556629 0.36
   vertex 57.02705085495629 106.84041050488693 0.36
   vertex 64.23730667494276 103.8538247560692 0.36
  endloop
 endfacet
 facet normal 0.0 0.0 1.0
  outer loop
   vertex 124.06812089939564 128.6365594556629 0.36
   vertex 66.05531135787164 128.6365594556629 0.36
   vertex 57.02705085495629 106.84041050488693 0.36
  endloop
 endfacet
 facet normal 0.0 0.0 -1.0
  outer loop
   vertex 68.29318545972961 62.734279455662936 0
   vertex 100.73589296715323 62.734279455662936 0
   vertex 103.55920249492895 55.91820730292962 0
  endloop
 endfacet
 facet normal 0.0 0.0 -1.0
  outer loop
   vertex 68.29318545972961 62.734279455662936 0
   vertex 103.55920249492895 55.91820730292962 0
   vertex 83.44205354415365 47.58541137123874 0
  endloop
 endfacet
 facet normal 0.0 1.0 0.0
  outer loop
   vertex 100.73589296715323 62.734279455662936 0
   vertex 68.29318545972961 62.734279455662936 0
   vertex 68.29318545972961 62.734279455662936 0.36
  endloop
 endfacet
 facet normal 0.0 1.0 0.0
  outer loop
   vertex 100.73589296715323 62.734279455662936 0.36
   vertex 100.73589296715323 62.734279455662936 0
   vertex 68.29318545972961 62.734279455662936 0.36
  endloop
 endfacet
 facet normal 0.9238795325112866 0.38268343236509017 0.0
  outer loop
   vertex 103.55920249492895 55.91820730292962 0
   vertex 100.73589296715323 62.734279455662936 0
   vertex 100.73589296715323 62.734279455662936 0.36
  endloop
 endfacet
 facet normal 0.9238795325112866 0.38268343236509017 0.0
  outer loop
   vertex 103.55920249492895 55.91820730292962 0.36
   vertex 103.55920249492895 55.91820730292962 0
   vertex 100.73589296715323 62.734279455662936 0.36
  endloop
 endfacet
 facet normal 0.38268343236509267 -0.9238795325112856 0.0
  outer loop
   vertex 83.44205354415365 47.58541137123874 0
   vertex 103.55920249492895 55.91820730292962 0
   vertex 103.55920249492895 55.91820730292962 0.36
  endloop
 endfacet
 facet normal 0.38268343236509267 -0.9238795325112856 0.0
  outer loop
   vertex 83.44205354415365 47.58541137123874 0.36
   vertex 83.44205354415365 47.58541137123874 0
   vertex 103.55920249492895 55.91820730292962 0.36
  endloop
 endfacet
 facet normal -0.7071067811865511 -0.7071067811865438 0.0
  outer loop
   vertex 68.29318545972961 62.734279455662936 0
   vertex 83.44205354415365 47.58541137123874 0
   vertex 83.44205354415365 47.58541137123874 0.36
  endloop
 endfacet
 facet normal -0.7071067811865511 -0.7071067811865438 -0.0
  outer loop
   vertex 68.29318545972961 62.734279455662936 0.36
   vertex 68.29318545972961 62.734279455662936 0
   vertex 83.44205354415365 47.58541137123874 0.36
  endloop
 endfacet
 facet normal -0.0 0.0 1.0
  outer loop
   vertex 68.29318545972961 62.734279455662936 0.36
   vertex 103.55920249492895 55.91820730292962 0.36
   vertex 100.73589296715323 62.734279455662936 0.36
  endloop
 endfacet
 facet normal 0.0 0.0 1.0
  outer loop
   vertex 68.29318545972961 62.734279455662936 0.36
   vertex 83.44205354415365 47.58541137123874 0.36
   vertex 103.55920249492895 55.91820730292962 0.36
  endloop
 endfacet
 facet normal 0.0 0.0 -1.0
  outer loop
   vertex 60.18142789015593 66.09427945566294 0
   vertex 27.73872038273217 66.09427945566294 0
   vertex 24.91541085495651 72.91035160839623 0
  endloop
 endfacet
 facet normal 0.0 0.0 -1.0
  outer loop
   vertex 60.18142789015593 66.09427945566294 0
   vertex 24.91541085495651 72.91035160839623 0
   vertex 45.032559805731694 81.24314754008705 0
  endloop
 endfacet
 facet normal 0.0 -1.0 0.0
  outer loop
   vertex 27.73872038273217 66.09427945566294 0
   vertex 60.18142789015593 66.09427945566294 0
   vertex 60.18142789015593 66.09427945566294 0.36
  endloop
 endfacet
 facet normal 0.0 -1.0 0.0
  outer loop
   vertex 27.73872038273217 66.09427945566294 0.36
   vertex 27.73872038273217 66.09427945566294 0
   vertex 60.18142789015593 66.09427945566294 0.36
  endloop
 endfacet
 facet normal -0.923879532511289 -0.38268343236508456 0.0
  outer loop
   vertex 24.91541085495651 72.91035160839623 0
   vertex 27.73872038273217 66.09427945566294 0
   vertex 27.73872038273217 66.09427945566294 0.36
  endloop
 endfacet
 facet normal -0.923879532511289 -0.38268343236508456 -0.0
  outer loop
   vertex 24.91541085495651 72.91035160839623 0.36
   vertex 24.91541085495651 72.91035160839623 0
   vertex 27.73872038273217 66.09427945566294 0.36
  endloop
 endfacet
 facet normal -0.3826834323650923 0.9238795325112857 0.0
  outer loop
   vertex 45.032559805731694 81.24314754008705 0
   vertex 24.91541085495651 72.91035160839623 0
   vertex 24.91541085495651 72.91035160839623 0.36
  endloop
 endfacet
 facet normal -0.3826834323650923 0.9238795325112857 0.0
  outer loop
   vertex 45.032559805731694 81.24314754008705 0.36
   vertex 45.032559805731694 81.24314754008705 0
   vertex 24.91541085495651 72.91035160839623 0.36
  endloop
 endfacet
 facet normal 0.7071067811865446 0.7071067811865506 0.0
  outer loop
   vertex 60.18142789015593 66.09427945566294 0
   vertex 45.032559805731694 81.24314754008705 0
   vertex 45.032559805731694 81.24314754008705 0.36
  endloop
 endfacet
 facet normal 0.7071067811865446 0.7071067811865506 0.0
  outer loop
   vertex 60.18142789015593 66.09427945566294 0.36
   vertex 60.18142789015593 66.09427945566294 0
   vertex 45.032559805731694 81.24314754008705 0.36
  endloop
 endfacet
 facet normal 0.0 0.0 1.0
  outer loop
   vertex 60.18142789015593 66.09427945566294 0.36
   vertex 24.91541085495651 72.91035160839623 0.36
   vertex 27.73872038273217 66.09427945566294 0.36
  endloop
 endfacet
 facet normal 0.0 0.0 1.0
  outer loop
   vertex 60.18142789015593 66.09427945566294 0.36
   vertex 45.032559805731694 81.24314754008705 0.36
   vertex 24.91541085495651 72.91035160839623 0.36
  endloop
 endfacet
 facet normal 0.0 0.0 -1.0
  outer loop
   vertex 24.79776137453651 64.41427945566298 0
   vertex 0.015026674942670099 4.583465231209647 0
   vertex 0.015026674942670099 62.59627477273408 0
  endloop
 endfacet
 facet normal -0.0 0.0 -1.0
  outer loop
   vertex 24.79776137453651 64.41427945566298 0
   vertex 0.015026674942670099 62.59627477273408 0
   vertex 21.81117562571859 71.62453527564954 0
  endloop
 endfacet
 facet normal 0.9238795325112857 -0.38268343236509206 0.0
  outer loop
   vertex 0.015026674942670099 4.583465231209647 0
   vertex 24.79776137453651 64.41427945566298 0
   vertex 24.79776137453651 64.41427945566298 0.36
  endloop
 endfacet
 facet normal 0.9238795325112857 -0.38268343236509206 0.0
  outer loop
   vertex 0.015026674942670099 4.583465231209647 0.36
   vertex 0.015026674942670099 4.583465231209647 0
   vertex 24.79776137453651 64.41427945566298 0.36
  endloop
 endfacet
 facet normal -1.0 0.0 0.0
  outer loop
   vertex 0.015026674942670099 62.59627477273408 0
   vertex 0.015026674942670099 4.583465231209647 0
   vertex 0.015026674942670099 4.583465231209647 0.36
  endloop
 endfacet
 facet normal -1.0 -0.0 -0.0
  outer loop
   vertex 0.015026674942670099 62.59627477273408 0.36
   vertex 0.015026674942670099 62.59627477273408 0
   vertex 0.015026674942670099 4.583465231209647 0.36
  endloop
 endfacet
 facet normal -0.3826834323650885 0.9238795325112872 0.0
  outer loop
   vertex 21.81117562571859 71.62453527564954 0
   vertex 0.015026674942670099 62.59627477273408 0
   vertex 0.015026674942670099 62.59627477273408 0.36
  endloop
 endfacet
 facet normal -0.3826834323650885 0.9238795325112872 0.0
  outer loop
   vertex 21.81117562571859 71.62453527564954 0.36
   vertex 21.81117562571859 71.62453527564954 0
   vertex 0.015026674942670099 62.59627477273408 0.36
  endloop
 endfacet
 facet normal 0.9238795325112891 0.3826834323650839 0.0
  outer loop
   vertex 24.79776137453651 64.41427945566298 0
   vertex 21.81117562571859 71.62453527564954 0
   vertex 21.81117562571859 71.62453527564954 0.36
  endloop
 endfacet
 facet normal 0.9238795325112891 0.3826834323650839 0.0
  outer loop
   vertex 24.79776137453651 64.41427945566298 0.36
   vertex 24.79776137453651 64.41427945566298 0
   vertex 21.81117562571859 71.62453527564954 0.36
  endloop
 endfacet
 facet normal 0.0 0.0 1.0
  outer loop
   vertex 24.79776137453651 64.41427945566298 0.36
   vertex 0.015026674942670099 62.59627477273408 0.36
   vertex 0.015026674942670099 4.583465231209647 0.36
  endloop
 endfacet
 facet normal 0.0 0.0 1.0
  outer loop
   vertex 24.79776137453651 64.41427945566298 0.36
   vertex 21.81117562571859 71.62453527564954 0.36
   vertex 0.015026674942670099 62.59627477273408 0.36
  endloop
 endfacet
 facet normal 0.0 0.0 -1.0
  outer loop
   vertex 74.55179772416722 20.70233207369201 0
   vertex 101.56818502287405 9.511778048243155 0
   vertex 87.99217241317922 0.19199945566267712 0
  endloop
 endfacet
 facet normal 0.0 -0.0 -1.0
  outer loop
   vertex 74.55179772416722 20.70233207369201 0
   vertex 87.99217241317922 0.19199945566267712 0
   vertex 66.05613978499638 0.19199945566267712 0
  endloop
 endfacet
 facet normal 0.3826834323650974 0.9238795325112837 0.0
  outer loop
   vertex 101.56818502287405 9.511778048243155 0
   vertex 74.55179772416722 20.70233207369201 0
   vertex 74.55179772416722 20.70233207369201 0.36
  endloop
 endfacet
 facet normal 0.3826834323650974 0.9238795325112837 0.0
  outer loop
   vertex 101.56818502287405 9.511778048243155 0.36
   vertex 101.56818502287405 9.511778048243155 0
   vertex 74.55179772416722 20.70233207369201 0.36
  endloop
 endfacet
 facet normal 0.5659625103131278 -0.8244309776567489 0.0
  outer loop
   vertex 87.99217241317922 0.19199945566267712 0
   vertex 101.56818502287405 9.511778048243155 0
   vertex 101.56818502287405 9.511778048243155 0.36
  endloop
 endfacet
 facet normal 0.5659625103131278 -0.8244309776567489 0.0
  outer loop
   vertex 87.99217241317922 0.19199945566267712 0.36
   vertex 87.99217241317922 0.19199945566267712 0
   vertex 101.56818502287405 9.511778048243155 0.36
  endloop
 endfacet
 facet normal 0.0 -1.0 0.0
  outer loop
   vertex 66.05613978499638 0.19199945566267712 0
   vertex 87.99217241317922 0.19199945566267712 0
   vertex 87.99217241317922 0.19199945566267712 0.36
  endloop
 endfacet
 facet normal 0.0 -1.0 0.0
  outer loop
   vertex 66.05613978499638 0.19199945566267712 0.36
   vertex 66.05613978499638 0.19199945566267712 0
   vertex 87.99217241317922 0.19199945566267712 0.36
  endloop
 endfacet
 facet normal -0.9238795325112896 0.3826834323650829 0.0
  outer loop
   vertex 74.55179772416722 20.70233207369201 0
   vertex 66.05613978499638 0.19199945566267712 0
   vertex 66.05613978499638 0.19199945566267712 0.36
  endloop
 endfacet
 facet normal -0.9238795325112896 0.3826834323650829 0.0
  outer loop
   vertex 74.55179772416722 20.70233207369201 0.36
   vertex 74.55179772416722 20.70233207369201 0
   vertex 66.05613978499638 0.19199945566267712 0.36
  endloop
 endfacet
 facet normal 0.0 0.0 1.0
  outer loop
   vertex 74.55179772416722 20.70233207369201 0.36
   vertex 87.99217241317922 0.19199945566267712 0.36
   vertex 101.56818502287405 9.511778048243155 0.36
  endloop
 endfacet
 facet normal 0.0 0.0 1.0
  outer loop
   vertex 74.55179772416722 20.70233207369201 0.36
   vertex 66.05613978499638 0.19199945566267712 0.36
   vertex 87.99217241317922 0.19199945566267712 0.36
  endloop
 endfacet
 facet normal 0.0 0.0 -1.0
  outer loop
   vertex 102.85400135562047 12.616013277481176 0
   vertex 75.83761405691399 23.806567302929903 0
   vertex 83.6378074248602 42.63789992095853 0
  endloop
 endfacet
 facet normal 0.0 0.0 -1.0
  outer loop
   vertex 102.85400135562047 12.616013277481176 0
   vertex 83.6378074248602 42.63789992095853 0
   vertex 100.38658453635392 25.88912280946471 0
  endloop
 endfacet
 facet normal -0.3826834323650979 -0.9238795325112834 0.0
  outer loop
   vertex 75.83761405691399 23.806567302929903 0
   vertex 102.85400135562047 12.616013277481176 0
   vertex 102.85400135562047 12.616013277481176 0.36
  endloop
 endfacet
 facet normal -0.3826834323650979 -0.9238795325112834 -0.0
  outer loop
   vertex 75.83761405691399 23.806567302929903 0.36
   vertex 75.83761405691399 23.806567302929903 0
   vertex 102.85400135562047 12.616013277481176 0.36
  endloop
 endfacet
 facet normal -0.9238795325112884 0.38268343236508584 0.0
  outer loop
   vertex 83.6378074248602 42.63789992095853 0
   vertex 75.83761405691399 23.806567302929903 0
   vertex 75.83761405691399 23.806567302929903 0.36
  endloop
 endfacet
 facet normal -0.9238795325112884 0.38268343236508584 0.0
  outer loop
   vertex 83.6378074248602 42.63789992095853 0.36
   vertex 83.6378074248602 42.63789992095853 0
   vertex 75.83761405691399 23.806567302929903 0.36
  endloop
 endfacet
 facet normal 0.7071067811865497 0.7071067811865455 0.0
  outer loop
   vertex 100.38658453635392 25.88912280946471 0
   vertex 83.6378074248602 42.63789992095853 0
   vertex 83.6378074248602 42.63789992095853 0.36
  endloop
 endfacet
 facet normal 0.7071067811865497 0.7071067811865455 0.0
  outer loop
   vertex 100.38658453635392 25.88912280946471 0.36
   vertex 100.38658453635392 25.88912280946471 0
   vertex 83.6378074248602 42.63789992095853 0.36
  endloop
 endfacet
 facet normal 0.9831566638611186 0.18276480598155587 0.0
  outer loop
   vertex 102.85400135562047 12.616013277481176 0
   vertex 100.38658453635392 25.88912280946471 0
   vertex 100.38658453635392 25.88912280946471 0.36
  endloop
 endfacet
 facet normal 0.9831566638611186 0.18276480598155587 0.0
  outer loop
   vertex 102.85400135562047 12.616013277481176 0.36
   vertex 102.85400135562047 12.616013277481176 0
   vertex 100.38658453635392 25.88912280946471 0.36
  endloop
 endfacet
 facet normal 0.0 0.0 1.0
  outer loop
   vertex 102.85400135562047 12.616013277481176 0.36
   vertex 83.6378074248602 42.63789992095853 0.36
   vertex 75.83761405691399 23.806567302929903 0.36
  endloop
 endfacet
 facet normal 0.0 0.0 1.0
  outer loop
   vertex 102.85400135562047 12.616013277481176 0.36
   vertex 100.38658453635392 25.88912280946471 0.36
   vertex 83.6378074248602 42.63789992095853 0.36
  endloop
 endfacet
 facet normal 0.0 0.0 -1.0
  outer loop
   vertex 119.13980808236234 27.083401107731593 0
   vertex 107.94925405691372 54.09978840643848 0
   vertex 128.45958667494259 62.595446345609346 0
  endloop
 endfacet
 facet normal 0.0 0.0 -1.0
  outer loop
   vertex 119.13980808236234 27.083401107731593 0
   vertex 128.45958667494259 62.595446345609346 0
   vertex 128.45958667494259 40.65941371742585 0
  endloop
 endfacet
 facet normal -0.9238795325112866 -0.38268343236508984 0.0
  outer loop
   vertex 107.94925405691372 54.09978840643848 0
   vertex 119.13980808236234 27.083401107731593 0
   vertex 119.13980808236234 27.083401107731593 0.36
  endloop
 endfacet
 facet normal -0.9238795325112866 -0.38268343236508984 -0.0
  outer loop
   vertex 107.94925405691372 54.09978840643848 0.36
   vertex 107.94925405691372 54.09978840643848 0
   vertex 119.13980808236234 27.083401107731593 0.36
  endloop
 endfacet
 facet normal -0.38268343236509134 0.9238795325112861 0.0
  outer loop
   vertex 128.45958667494259 62.595446345609346 0
   vertex 107.94925405691372 54.09978840643848 0
   vertex 107.94925405691372 54.09978840643848 0.36
  endloop
 endfacet
 facet normal -0.38268343236509134 0.9238795325112861 0.0
  outer loop
   vertex 128.45958667494259 62.595446345609346 0.36
   vertex 128.45958667494259 62.595446345609346 0
   vertex 107.94925405691372 54.09978840643848 0.36
  endloop
 endfacet
 facet normal 1.0 0.0 0.0
  outer loop
   vertex 128.45958667494259 40.65941371742585 0
   vertex 128.45958667494259 62.595446345609346 0
   vertex 128.45958667494259 62.595446345609346 0.36
  endloop
 endfacet
 facet normal 1.0 -0.0 0.0
  outer loop
   vertex 128.45958667494259 40.65941371742585 0.36
   vertex 128.45958667494259 40.65941371742585 0
   vertex 128.45958667494259 62.595446345609346 0.36
  endloop
 endfacet
 facet normal 0.8244309776567442 -0.5659625103131345 0.0
  outer loop
   vertex 119.13980808236234 27.083401107731593 0
   vertex 128.45958667494259 40.65941371742585 0
   vertex 128.45958667494259 40.65941371742585 0.36
  endloop
 endfacet
 facet normal 0.8244309776567442 -0.5659625103131345 0.0
  outer loop
   vertex 119.13980808236234 27.083401107731593 0.36
   vertex 119.13980808236234 27.083401107731593 0
   vertex 128.45958667494259 40.65941371742585 0.36
  endloop
 endfacet
 facet normal 0.0 -0.0 1.0
  outer loop
   vertex 119.13980808236234 27.083401107731593 0.36
   vertex 128.45958667494259 62.595446345609346 0.36
   vertex 107.94925405691372 54.09978840643848 0.36
  endloop
 endfacet
 facet normal 0.0 0.0 1.0
  outer loop
   vertex 119.13980808236234 27.083401107731593 0.36
   vertex 128.45958667494259 40.65941371742585 0.36
   vertex 128.45958667494259 62.595446345609346 0.36
  endloop
 endfacet
 facet normal 0.0 -0.0 -1.0
  outer loop
   vertex 104.8450188276758 52.813972073691744 0
   vertex 116.03557285312442 25.79758477498477 0
   vertex 102.76246332114073 28.26500159425148 0
  endloop
 endfacet
 facet normal 0.0 0.0 -1.0
  outer loop
   vertex 104.8450188276758 52.813972073691744 0
   vertex 102.76246332114073 28.26500159425148 0
   vertex 86.013686209647 45.01377870574533 0
  endloop
 endfacet
 facet normal 0.9238795325112872 0.3826834323650888 0.0
  outer loop
   vertex 116.03557285312442 25.79758477498477 0
   vertex 104.8450188276758 52.813972073691744 0
   vertex 104.8450188276758 52.813972073691744 0.36
  endloop
 endfacet
 facet normal 0.9238795325112872 0.3826834323650888 0.0
  outer loop
   vertex 116.03557285312442 25.79758477498477 0.36
   vertex 116.03557285312442 25.79758477498477 0
   vertex 104.8450188276758 52.813972073691744 0.36
  endloop
 endfacet
 facet normal -0.18276480598156541 -0.9831566638611168 0.0
  outer loop
   vertex 102.76246332114073 28.26500159425148 0
   vertex 116.03557285312442 25.79758477498477 0
   vertex 116.03557285312442 25.79758477498477 0.36
  endloop
 endfacet
 facet normal -0.18276480598156541 -0.9831566638611168 -0.0
  outer loop
   vertex 102.76246332114073 28.26500159425148 0.36
   vertex 102.76246332114073 28.26500159425148 0
   vertex 116.03557285312442 25.79758477498477 0.36
  endloop
 endfacet
 facet normal -0.7071067811865502 -0.7071067811865448 0.0
  outer loop
   vertex 86.013686209647 45.01377870574533 0
   vertex 102.76246332114073 28.26500159425148 0
   vertex 102.76246332114073 28.26500159425148 0.36
  endloop
 endfacet
 facet normal -0.7071067811865502 -0.7071067811865448 -0.0
  outer loop
   vertex 86.013686209647 45.01377870574533 0.36
   vertex 86.013686209647 45.01377870574533 0
   vertex 102.76246332114073 28.26500159425148 0.36
  endloop
 endfacet
 facet normal -0.38268343236509156 0.923879532511286 0.0
  outer loop
   vertex 104.8450188276758 52.813972073691744 0
   vertex 86.013686209647 45.01377870574533 0
   vertex 86.013686209647 45.01377870574533 0.36
  endloop
 endfacet
 facet normal -0.38268343236509156 0.923879532511286 0.0
  outer loop
   vertex 104.8450188276758 52.813972073691744 0.36
   vertex 104.8450188276758 52.813972073691744 0
   vertex 86.013686209647 45.01377870574533 0.36
  endloop
 endfacet
 facet normal 0.0 0.0 1.0
  outer loop
   vertex 104.8450188276758 52.813972073691744 0.36
   vertex 102.76246332114073 28.26500159425148 0.36
   vertex 116.03557285312442 25.79758477498477 0.36
  endloop
 endfacet
 facet normal 0.0 0.0 1.0
  outer loop
   vertex 104.8450188276758 52.813972073691744 0.36
   vertex 86.013686209647 45.01377870574533 0.36
   vertex 102.76246332114073 28.26500159425148 0.36
  endloop
 endfacet
endsolid
