solid PyGamic generated __All_Crease__ SLA File
 facet normal 0.0 0.0 -1.0
  outer loop
   vertex 14.16544849476608 11.1 0
   vertex 1.3988855861470597 11.1 0
   vertex 9.69715147674942 12.3 0
  endloop
 endfacet
 facet normal 0.0 0.0 -1.0
  outer loop
   vertex 1.3988855861470597 11.1 0
   vertex 5.867182604163717 12.3 0
   vertex 9.69715147674942 12.3 0
  endloop
 endfacet
 facet normal 0.0 0.0 -1.0
  outer loop
   vertex 1.3988855861470597 11.1 0
   vertex 1.3988855861470597 13.900000000000002 0
   vertex 5.867182604163717 12.3 0
  endloop
 endfacet
 facet normal 0.0 0.0 -1.0
  outer loop
   vertex 1.3988855861470597 13.900000000000002 0
   vertex 5.867182604163714 12.700000000000001 0
   vertex 5.867182604163717 12.3 0
  endloop
 endfacet
 facet normal 0.0 0.0 -1.0
  outer loop
   vertex 1.3988855861470597 13.900000000000002 0
   vertex 14.165448494766075 13.9 0
   vertex 5.867182604163714 12.700000000000001 0
  endloop
 endfacet
 facet normal 0.0 0.0 -1.0
  outer loop
   vertex 14.165448494766075 13.9 0
   vertex 9.697151476749422 12.700000000000001 0
   vertex 5.867182604163714 12.700000000000001 0
  endloop
 endfacet
 facet normal 0.0 -0.0 -1.0
  outer loop
   vertex 14.165448494766075 13.9 0
   vertex 14.16544849476608 11.1 0
   vertex 9.697151476749422 12.700000000000001 0
  endloop
 endfacet
 facet normal 0.0 0.0 -1.0
  outer loop
   vertex 14.16544849476608 11.1 0
   vertex 9.69715147674942 12.3 0
   vertex 9.697151476749422 12.700000000000001 0
  endloop
 endfacet
 facet normal 0.0 -1.0 0.0
  outer loop
   vertex 1.3988855861470597 11.1 0
   vertex 14.16544849476608 11.1 0
   vertex 14.16544849476608 11.1 0.2
  endloop
 endfacet
 facet normal 0.0 -1.0 0.0
  outer loop
   vertex 1.3988855861470597 11.1 0.2
   vertex 1.3988855861470597 11.1 0
   vertex 14.16544849476608 11.1 0.2
  endloop
 endfacet
 facet normal -1.0 0.0 0.0
  outer loop
   vertex 1.3988855861470597 13.900000000000002 0
   vertex 1.3988855861470597 11.1 0
   vertex 1.3988855861470597 11.1 0.2
  endloop
 endfacet
 facet normal -1.0 -0.0 -0.0
  outer loop
   vertex 1.3988855861470597 13.900000000000002 0.2
   vertex 1.3988855861470597 13.900000000000002 0
   vertex 1.3988855861470597 11.1 0.2
  endloop
 endfacet
 facet normal 1.3914135324559352e-16 1.0 0.0
  outer loop
   vertex 14.165448494766075 13.9 0
   vertex 1.3988855861470597 13.900000000000002 0
   vertex 1.3988855861470597 13.900000000000002 0.2
  endloop
 endfacet
 facet normal 1.3914135324559352e-16 1.0 0.0
  outer loop
   vertex 14.165448494766075 13.9 0.2
   vertex 14.165448494766075 13.9 0
   vertex 1.3988855861470597 13.900000000000002 0.2
  endloop
 endfacet
 facet normal 1.0 1.903239470785982e-15 0.0
  outer loop
   vertex 14.16544849476608 11.1 0
   vertex 14.165448494766075 13.9 0
   vertex 14.165448494766075 13.9 0.2
  endloop
 endfacet
 facet normal 1.0 1.903239470785982e-15 0.0
  outer loop
   vertex 14.16544849476608 11.1 0.2
   vertex 14.16544849476608 11.1 0
   vertex 14.165448494766075 13.9 0.2
  endloop
 endfacet
 facet normal 0.0 1.0 -0.0
  outer loop
   vertex 9.69715147674942 12.3 0
   vertex 5.867182604163717 12.3 0
   vertex 9.69715147674942 12.3 0.2
  endloop
 endfacet
 facet normal 0.0 1.0 0.0
  outer loop
   vertex 5.867182604163717 12.3 0
   vertex 5.867182604163717 12.3 0.2
   vertex 9.69715147674942 12.3 0.2
  endloop
 endfacet
 facet normal 1.0 6.6613381477509345e-15 -0.0
  outer loop
   vertex 5.867182604163717 12.3 0
   vertex 5.867182604163714 12.700000000000001 0
   vertex 5.867182604163717 12.3 0.2
  endloop
 endfacet
 facet normal 1.0 6.6613381477509345e-15 -0.0
  outer loop
   vertex 5.867182604163714 12.700000000000001 0
   vertex 5.867182604163714 12.700000000000001 0.2
   vertex 5.867182604163717 12.3 0.2
  endloop
 endfacet
 facet normal 0.0 -1.0 0.0
  outer loop
   vertex 5.867182604163714 12.700000000000001 0
   vertex 9.697151476749422 12.700000000000001 0
   vertex 5.867182604163714 12.700000000000001 0.2
  endloop
 endfacet
 facet normal 0.0 -1.0 0.0
  outer loop
   vertex 9.697151476749422 12.700000000000001 0
   vertex 9.697151476749422 12.700000000000001 0.2
   vertex 5.867182604163714 12.700000000000001 0.2
  endloop
 endfacet
 facet normal -1.0 4.440892098500622e-15 0.0
  outer loop
   vertex 9.697151476749422 12.700000000000001 0
   vertex 9.69715147674942 12.3 0
   vertex 9.697151476749422 12.700000000000001 0.2
  endloop
 endfacet
 facet normal -1.0 4.440892098500622e-15 0.0
  outer loop
   vertex 9.69715147674942 12.3 0
   vertex 9.69715147674942 12.3 0.2
   vertex 9.697151476749422 12.700000000000001 0.2
  endloop
 endfacet
 facet normal 0.0 0.0 1.0
  outer loop
   vertex 1.3988855861470597 11.1 0.2
   vertex 14.16544849476608 11.1 0.2
   vertex 9.69715147674942 12.3 0.2
  endloop
 endfacet
 facet normal -0.0 0.0 1.0
  outer loop
   vertex 5.867182604163717 12.3 0.2
   vertex 1.3988855861470597 11.1 0.2
   vertex 9.69715147674942 12.3 0.2
  endloop
 endfacet
 facet normal 0.0 0.0 1.0
  outer loop
   vertex 1.3988855861470597 13.900000000000002 0.2
   vertex 1.3988855861470597 11.1 0.2
   vertex 5.867182604163717 12.3 0.2
  endloop
 endfacet
 facet normal 0.0 0.0 1.0
  outer loop
   vertex 5.867182604163714 12.700000000000001 0.2
   vertex 1.3988855861470597 13.900000000000002 0.2
   vertex 5.867182604163717 12.3 0.2
  endloop
 endfacet
 facet normal 0.0 0.0 1.0
  outer loop
   vertex 14.165448494766075 13.9 0.2
   vertex 1.3988855861470597 13.900000000000002 0.2
   vertex 5.867182604163714 12.700000000000001 0.2
  endloop
 endfacet
 facet normal 0.0 -0.0 1.0
  outer loop
   vertex 9.697151476749422 12.700000000000001 0.2
   vertex 14.165448494766075 13.9 0.2
   vertex 5.867182604163714 12.700000000000001 0.2
  endloop
 endfacet
 facet normal 0.0 0.0 1.0
  outer loop
   vertex 14.16544849476608 11.1 0.2
   vertex 14.165448494766075 13.9 0.2
   vertex 9.697151476749422 12.700000000000001 0.2
  endloop
 endfacet
 facet normal -0.0 0.0 1.0
  outer loop
   vertex 9.69715147674942 12.3 0.2
   vertex 14.16544849476608 11.1 0.2
   vertex 9.697151476749422 12.700000000000001 0.2
  endloop
 endfacet
 facet normal 0.0 0.0 -1.0
  outer loop
   vertex 23.873175941871526 1.4 0
   vertex 14.16544849476608 11.1 0
   vertex 22.173203719682792 4.795 0
  endloop
 endfacet
 facet normal 0.0 0.0 -1.0
  outer loop
   vertex 14.16544849476608 11.1 0
   vertex 19.26088548555116 7.705 0
   vertex 22.173203719682792 4.795 0
  endloop
 endfacet
 facet normal 0.0 0.0 -1.0
  outer loop
   vertex 14.16544849476608 11.1 0
   vertex 18.126824058128484 11.1 0
   vertex 19.26088548555116 7.705 0
  endloop
 endfacet
 facet normal 0.0 0.0 -1.0
  outer loop
   vertex 18.126824058128484 11.1 0
   vertex 19.826796280317215 7.705 0
   vertex 19.26088548555116 7.705 0
  endloop
 endfacet
 facet normal 0.0 0.0 -1.0
  outer loop
   vertex 18.126824058128484 11.1 0
   vertex 27.834551505233925 1.4 0
   vertex 19.826796280317215 7.705 0
  endloop
 endfacet
 facet normal 0.0 0.0 -1.0
  outer loop
   vertex 27.834551505233925 1.4 0
   vertex 22.73911451444885 4.795 0
   vertex 19.826796280317215 7.705 0
  endloop
 endfacet
 facet normal 0.0 0.0 -1.0
  outer loop
   vertex 27.834551505233925 1.4 0
   vertex 23.873175941871526 1.4 0
   vertex 22.73911451444885 4.795 0
  endloop
 endfacet
 facet normal 0.0 0.0 -1.0
  outer loop
   vertex 23.873175941871526 1.4 0
   vertex 22.173203719682792 4.795 0
   vertex 22.73911451444885 4.795 0
  endloop
 endfacet
 facet normal -0.7068251811053659 -0.7073882691671998 0.0
  outer loop
   vertex 14.16544849476608 11.1 0
   vertex 23.873175941871526 1.4 0
   vertex 23.873175941871526 1.4 0.2
  endloop
 endfacet
 facet normal -0.7068251811053659 -0.7073882691671998 -0.0
  outer loop
   vertex 14.16544849476608 11.1 0.2
   vertex 14.16544849476608 11.1 0
   vertex 23.873175941871526 1.4 0.2
  endloop
 endfacet
 facet normal 0.0 1.0 0.0
  outer loop
   vertex 18.126824058128484 11.1 0
   vertex 14.16544849476608 11.1 0
   vertex 14.16544849476608 11.1 0.2
  endloop
 endfacet
 facet normal 0.0 1.0 0.0
  outer loop
   vertex 18.126824058128484 11.1 0.2
   vertex 18.126824058128484 11.1 0
   vertex 14.16544849476608 11.1 0.2
  endloop
 endfacet
 facet normal 0.7068251811053661 0.7073882691671997 0.0
  outer loop
   vertex 27.834551505233925 1.4 0
   vertex 18.126824058128484 11.1 0
   vertex 18.126824058128484 11.1 0.2
  endloop
 endfacet
 facet normal 0.7068251811053661 0.7073882691671997 0.0
  outer loop
   vertex 27.834551505233925 1.4 0.2
   vertex 27.834551505233925 1.4 0
   vertex 18.126824058128484 11.1 0.2
  endloop
 endfacet
 facet normal 0.0 -1.0 0.0
  outer loop
   vertex 23.873175941871526 1.4 0
   vertex 27.834551505233925 1.4 0
   vertex 27.834551505233925 1.4 0.2
  endloop
 endfacet
 facet normal 0.0 -1.0 0.0
  outer loop
   vertex 23.873175941871526 1.4 0.2
   vertex 23.873175941871526 1.4 0
   vertex 27.834551505233925 1.4 0.2
  endloop
 endfacet
 facet normal 0.7068251811053662 0.7073882691671995 -0.0
  outer loop
   vertex 22.173203719682792 4.795 0
   vertex 19.26088548555116 7.705 0
   vertex 22.173203719682792 4.795 0.2
  endloop
 endfacet
 facet normal 0.7068251811053662 0.7073882691671995 -0.0
  outer loop
   vertex 19.26088548555116 7.705 0
   vertex 19.26088548555116 7.705 0.2
   vertex 22.173203719682792 4.795 0.2
  endloop
 endfacet
 facet normal 0.0 -1.0 0.0
  outer loop
   vertex 19.26088548555116 7.705 0
   vertex 19.826796280317215 7.705 0
   vertex 19.26088548555116 7.705 0.2
  endloop
 endfacet
 facet normal 0.0 -1.0 0.0
  outer loop
   vertex 19.826796280317215 7.705 0
   vertex 19.826796280317215 7.705 0.2
   vertex 19.26088548555116 7.705 0.2
  endloop
 endfacet
 facet normal -0.7068251811053656 -0.7073882691672001 0.0
  outer loop
   vertex 19.826796280317215 7.705 0
   vertex 22.73911451444885 4.795 0
   vertex 19.826796280317215 7.705 0.2
  endloop
 endfacet
 facet normal -0.7068251811053656 -0.7073882691672001 0.0
  outer loop
   vertex 22.73911451444885 4.795 0
   vertex 22.73911451444885 4.795 0.2
   vertex 19.826796280317215 7.705 0.2
  endloop
 endfacet
 facet normal 0.0 1.0 -0.0
  outer loop
   vertex 22.73911451444885 4.795 0
   vertex 22.173203719682792 4.795 0
   vertex 22.73911451444885 4.795 0.2
  endloop
 endfacet
 facet normal 0.0 1.0 0.0
  outer loop
   vertex 22.173203719682792 4.795 0
   vertex 22.173203719682792 4.795 0.2
   vertex 22.73911451444885 4.795 0.2
  endloop
 endfacet
 facet normal 0.0 0.0 1.0
  outer loop
   vertex 14.16544849476608 11.1 0.2
   vertex 23.873175941871526 1.4 0.2
   vertex 22.173203719682792 4.795 0.2
  endloop
 endfacet
 facet normal 0.0 0.0 1.0
  outer loop
   vertex 19.26088548555116 7.705 0.2
   vertex 14.16544849476608 11.1 0.2
   vertex 22.173203719682792 4.795 0.2
  endloop
 endfacet
 facet normal 0.0 0.0 1.0
  outer loop
   vertex 18.126824058128484 11.1 0.2
   vertex 14.16544849476608 11.1 0.2
   vertex 19.26088548555116 7.705 0.2
  endloop
 endfacet
 facet normal 0.0 0.0 1.0
  outer loop
   vertex 19.826796280317215 7.705 0.2
   vertex 18.126824058128484 11.1 0.2
   vertex 19.26088548555116 7.705 0.2
  endloop
 endfacet
 facet normal 0.0 0.0 1.0
  outer loop
   vertex 27.834551505233925 1.4 0.2
   vertex 18.126824058128484 11.1 0.2
   vertex 19.826796280317215 7.705 0.2
  endloop
 endfacet
 facet normal -0.0 -0.0 1.0
  outer loop
   vertex 22.73911451444885 4.795 0.2
   vertex 27.834551505233925 1.4 0.2
   vertex 19.826796280317215 7.705 0.2
  endloop
 endfacet
 facet normal 0.0 -0.0 1.0
  outer loop
   vertex 23.873175941871526 1.4 0.2
   vertex 27.834551505233925 1.4 0.2
   vertex 22.73911451444885 4.795 0.2
  endloop
 endfacet
 facet normal -0.0 0.0 1.0
  outer loop
   vertex 22.173203719682792 4.795 0.2
   vertex 23.873175941871526 1.4 0.2
   vertex 22.73911451444885 4.795 0.2
  endloop
 endfacet
 facet normal 0.0 0.0 -1.0
  outer loop
   vertex 14.165448494766075 13.9 0
   vertex 23.873175941871523 23.600000000000005 0
   vertex 19.260885485551153 17.295 0
  endloop
 endfacet
 facet normal 0.0 0.0 -1.0
  outer loop
   vertex 23.873175941871523 23.600000000000005 0
   vertex 22.173203719682785 20.205000000000002 0
   vertex 19.260885485551153 17.295 0
  endloop
 endfacet
 facet normal 0.0 -0.0 -1.0
  outer loop
   vertex 23.873175941871523 23.600000000000005 0
   vertex 27.834551505233915 23.599999999999998 0
   vertex 22.173203719682785 20.205000000000002 0
  endloop
 endfacet
 facet normal 0.0 0.0 -1.0
  outer loop
   vertex 27.834551505233915 23.599999999999998 0
   vertex 22.739114514448843 20.205000000000002 0
   vertex 22.173203719682785 20.205000000000002 0
  endloop
 endfacet
 facet normal 0.0 0.0 -1.0
  outer loop
   vertex 27.834551505233915 23.599999999999998 0
   vertex 18.126824058128477 13.9 0
   vertex 22.739114514448843 20.205000000000002 0
  endloop
 endfacet
 facet normal 0.0 0.0 -1.0
  outer loop
   vertex 18.126824058128477 13.9 0
   vertex 19.826796280317208 17.294999999999998 0
   vertex 22.739114514448843 20.205000000000002 0
  endloop
 endfacet
 facet normal 0.0 0.0 -1.0
  outer loop
   vertex 18.126824058128477 13.9 0
   vertex 14.165448494766075 13.9 0
   vertex 19.826796280317208 17.294999999999998 0
  endloop
 endfacet
 facet normal 0.0 0.0 -1.0
  outer loop
   vertex 14.165448494766075 13.9 0
   vertex 19.260885485551153 17.295 0
   vertex 19.826796280317208 17.294999999999998 0
  endloop
 endfacet
 facet normal -0.706825181105366 0.7073882691671998 0.0
  outer loop
   vertex 23.873175941871523 23.600000000000005 0
   vertex 14.165448494766075 13.9 0
   vertex 14.165448494766075 13.9 0.2
  endloop
 endfacet
 facet normal -0.706825181105366 0.7073882691671998 0.0
  outer loop
   vertex 23.873175941871523 23.600000000000005 0.2
   vertex 23.873175941871523 23.600000000000005 0
   vertex 14.165448494766075 13.9 0.2
  endloop
 endfacet
 facet normal 1.7936767781669146e-15 1.0 0.0
  outer loop
   vertex 27.834551505233915 23.599999999999998 0
   vertex 23.873175941871523 23.600000000000005 0
   vertex 23.873175941871523 23.600000000000005 0.2
  endloop
 endfacet
 facet normal 1.7936767781669146e-15 1.0 0.0
  outer loop
   vertex 27.834551505233915 23.599999999999998 0.2
   vertex 27.834551505233915 23.599999999999998 0
   vertex 23.873175941871523 23.600000000000005 0.2
  endloop
 endfacet
 facet normal 0.7068251811053661 -0.7073882691671995 0.0
  outer loop
   vertex 18.126824058128477 13.9 0
   vertex 27.834551505233915 23.599999999999998 0
   vertex 27.834551505233915 23.599999999999998 0.2
  endloop
 endfacet
 facet normal 0.7068251811053661 -0.7073882691671995 0.0
  outer loop
   vertex 18.126824058128477 13.9 0.2
   vertex 18.126824058128477 13.9 0
   vertex 27.834551505233915 23.599999999999998 0.2
  endloop
 endfacet
 facet normal 0.0 -1.0 0.0
  outer loop
   vertex 14.165448494766075 13.9 0
   vertex 18.126824058128477 13.9 0
   vertex 18.126824058128477 13.9 0.2
  endloop
 endfacet
 facet normal 0.0 -1.0 0.0
  outer loop
   vertex 14.165448494766075 13.9 0.2
   vertex 14.165448494766075 13.9 0
   vertex 18.126824058128477 13.9 0.2
  endloop
 endfacet
 facet normal 0.7068251811053662 -0.7073882691671995 0.0
  outer loop
   vertex 19.260885485551153 17.295 0
   vertex 22.173203719682785 20.205000000000002 0
   vertex 19.260885485551153 17.295 0.2
  endloop
 endfacet
 facet normal 0.7068251811053662 -0.7073882691671995 0.0
  outer loop
   vertex 22.173203719682785 20.205000000000002 0
   vertex 22.173203719682785 20.205000000000002 0.2
   vertex 19.260885485551153 17.295 0.2
  endloop
 endfacet
 facet normal 0.0 -1.0 0.0
  outer loop
   vertex 22.173203719682785 20.205000000000002 0
   vertex 22.739114514448843 20.205000000000002 0
   vertex 22.173203719682785 20.205000000000002 0.2
  endloop
 endfacet
 facet normal 0.0 -1.0 0.0
  outer loop
   vertex 22.739114514448843 20.205000000000002 0
   vertex 22.739114514448843 20.205000000000002 0.2
   vertex 22.173203719682785 20.205000000000002 0.2
  endloop
 endfacet
 facet normal -0.7068251811053661 0.7073882691671997 0.0
  outer loop
   vertex 22.739114514448843 20.205000000000002 0
   vertex 19.826796280317208 17.294999999999998 0
   vertex 22.739114514448843 20.205000000000002 0.2
  endloop
 endfacet
 facet normal -0.7068251811053661 0.7073882691671997 0.0
  outer loop
   vertex 19.826796280317208 17.294999999999998 0
   vertex 19.826796280317208 17.294999999999998 0.2
   vertex 22.739114514448843 20.205000000000002 0.2
  endloop
 endfacet
 facet normal 6.2778687235842185e-15 1.0 -0.0
  outer loop
   vertex 19.826796280317208 17.294999999999998 0
   vertex 19.260885485551153 17.295 0
   vertex 19.826796280317208 17.294999999999998 0.2
  endloop
 endfacet
 facet normal 6.2778687235842185e-15 1.0 -0.0
  outer loop
   vertex 19.260885485551153 17.295 0
   vertex 19.260885485551153 17.295 0.2
   vertex 19.826796280317208 17.294999999999998 0.2
  endloop
 endfacet
 facet normal 0.0 0.0 1.0
  outer loop
   vertex 23.873175941871523 23.600000000000005 0.2
   vertex 14.165448494766075 13.9 0.2
   vertex 19.260885485551153 17.295 0.2
  endloop
 endfacet
 facet normal 0.0 -0.0 1.0
  outer loop
   vertex 22.173203719682785 20.205000000000002 0.2
   vertex 23.873175941871523 23.600000000000005 0.2
   vertex 19.260885485551153 17.295 0.2
  endloop
 endfacet
 facet normal 0.0 0.0 1.0
  outer loop
   vertex 27.834551505233915 23.599999999999998 0.2
   vertex 23.873175941871523 23.600000000000005 0.2
   vertex 22.173203719682785 20.205000000000002 0.2
  endloop
 endfacet
 facet normal 0.0 -0.0 1.0
  outer loop
   vertex 22.739114514448843 20.205000000000002 0.2
   vertex 27.834551505233915 23.599999999999998 0.2
   vertex 22.173203719682785 20.205000000000002 0.2
  endloop
 endfacet
 facet normal 0.0 0.0 1.0
  outer loop
   vertex 18.126824058128477 13.9 0.2
   vertex 27.834551505233915 23.599999999999998 0.2
   vertex 22.739114514448843 20.205000000000002 0.2
  endloop
 endfacet
 facet normal -0.0 0.0 1.0
  outer loop
   vertex 19.826796280317208 17.294999999999998 0.2
   vertex 18.126824058128477 13.9 0.2
   vertex 22.739114514448843 20.205000000000002 0.2
  endloop
 endfacet
 facet normal 0.0 0.0 1.0
  outer loop
   vertex 14.165448494766075 13.9 0.2
   vertex 18.126824058128477 13.9 0.2
   vertex 19.826796280317208 17.294999999999998 0.2
  endloop
 endfacet
 facet normal 0.0 0.0 1.0
  outer loop
   vertex 19.260885485551153 17.295 0.2
   vertex 14.165448494766075 13.9 0.2
   vertex 19.826796280317208 17.294999999999998 0.2
  endloop
 endfacet
 facet normal 0.0 0.0 -1.0
  outer loop
   vertex 23.873175941871523 23.600000000000005 0
   vertex 1.391161214603795 23.600000000000005 0
   vertex 16.00447078732782 24.800000000000004 0
  endloop
 endfacet
 facet normal 0.0 0.0 -1.0
  outer loop
   vertex 1.391161214603795 23.600000000000005 0
   vertex 9.259866369147499 24.800000000000004 0
   vertex 16.00447078732782 24.800000000000004 0
  endloop
 endfacet
 facet normal 0.0 0.0 -1.0
  outer loop
   vertex 1.391161214603795 23.600000000000005 0
   vertex 1.391161214603795 26.400000000000002 0
   vertex 9.259866369147499 24.800000000000004 0
  endloop
 endfacet
 facet normal 0.0 0.0 -1.0
  outer loop
   vertex 1.391161214603795 26.400000000000002 0
   vertex 9.2598663691475 25.200000000000003 0
   vertex 9.259866369147499 24.800000000000004 0
  endloop
 endfacet
 facet normal 0.0 0.0 -1.0
  outer loop
   vertex 1.391161214603795 26.400000000000002 0
   vertex 23.873175941871526 26.400000000000002 0
   vertex 9.2598663691475 25.200000000000003 0
  endloop
 endfacet
 facet normal 0.0 0.0 -1.0
  outer loop
   vertex 23.873175941871526 26.400000000000002 0
   vertex 16.00447078732782 25.200000000000003 0
   vertex 9.2598663691475 25.200000000000003 0
  endloop
 endfacet
 facet normal 0.0 0.0 -1.0
  outer loop
   vertex 23.873175941871526 26.400000000000002 0
   vertex 23.873175941871523 23.600000000000005 0
   vertex 16.00447078732782 25.200000000000003 0
  endloop
 endfacet
 facet normal 0.0 0.0 -1.0
  outer loop
   vertex 23.873175941871523 23.600000000000005 0
   vertex 16.00447078732782 24.800000000000004 0
   vertex 16.00447078732782 25.200000000000003 0
  endloop
 endfacet
 facet normal 0.0 -1.0 0.0
  outer loop
   vertex 1.391161214603795 23.600000000000005 0
   vertex 23.873175941871523 23.600000000000005 0
   vertex 23.873175941871523 23.600000000000005 0.2
  endloop
 endfacet
 facet normal 0.0 -1.0 0.0
  outer loop
   vertex 1.391161214603795 23.600000000000005 0.2
   vertex 1.391161214603795 23.600000000000005 0
   vertex 23.873175941871523 23.600000000000005 0.2
  endloop
 endfacet
 facet normal -1.0 0.0 0.0
  outer loop
   vertex 1.391161214603795 26.400000000000002 0
   vertex 1.391161214603795 23.600000000000005 0
   vertex 1.391161214603795 23.600000000000005 0.2
  endloop
 endfacet
 facet normal -1.0 -0.0 -0.0
  outer loop
   vertex 1.391161214603795 26.400000000000002 0.2
   vertex 1.391161214603795 26.400000000000002 0
   vertex 1.391161214603795 23.600000000000005 0.2
  endloop
 endfacet
 facet normal 0.0 1.0 0.0
  outer loop
   vertex 23.873175941871526 26.400000000000002 0
   vertex 1.391161214603795 26.400000000000002 0
   vertex 1.391161214603795 26.400000000000002 0.2
  endloop
 endfacet
 facet normal 0.0 1.0 0.0
  outer loop
   vertex 23.873175941871526 26.400000000000002 0.2
   vertex 23.873175941871526 26.400000000000002 0
   vertex 1.391161214603795 26.400000000000002 0.2
  endloop
 endfacet
 facet normal 1.0 -1.268826313857323e-15 0.0
  outer loop
   vertex 23.873175941871523 23.600000000000005 0
   vertex 23.873175941871526 26.400000000000002 0
   vertex 23.873175941871526 26.400000000000002 0.2
  endloop
 endfacet
 facet normal 1.0 -1.268826313857323e-15 0.0
  outer loop
   vertex 23.873175941871523 23.600000000000005 0.2
   vertex 23.873175941871523 23.600000000000005 0
   vertex 23.873175941871526 26.400000000000002 0.2
  endloop
 endfacet
 facet normal 0.0 1.0 -0.0
  outer loop
   vertex 16.00447078732782 24.800000000000004 0
   vertex 9.259866369147499 24.800000000000004 0
   vertex 16.00447078732782 24.800000000000004 0.2
  endloop
 endfacet
 facet normal 0.0 1.0 0.0
  outer loop
   vertex 9.259866369147499 24.800000000000004 0
   vertex 9.259866369147499 24.800000000000004 0.2
   vertex 16.00447078732782 24.800000000000004 0.2
  endloop
 endfacet
 facet normal 1.0 -4.440892098500642e-15 0.0
  outer loop
   vertex 9.259866369147499 24.800000000000004 0
   vertex 9.2598663691475 25.200000000000003 0
   vertex 9.259866369147499 24.800000000000004 0.2
  endloop
 endfacet
 facet normal 1.0 -4.440892098500642e-15 0.0
  outer loop
   vertex 9.2598663691475 25.200000000000003 0
   vertex 9.2598663691475 25.200000000000003 0.2
   vertex 9.259866369147499 24.800000000000004 0.2
  endloop
 endfacet
 facet normal 0.0 -1.0 0.0
  outer loop
   vertex 9.2598663691475 25.200000000000003 0
   vertex 16.00447078732782 25.200000000000003 0
   vertex 9.2598663691475 25.200000000000003 0.2
  endloop
 endfacet
 facet normal 0.0 -1.0 0.0
  outer loop
   vertex 16.00447078732782 25.200000000000003 0
   vertex 16.00447078732782 25.200000000000003 0.2
   vertex 9.2598663691475 25.200000000000003 0.2
  endloop
 endfacet
 facet normal -1.0 0.0 0.0
  outer loop
   vertex 16.00447078732782 25.200000000000003 0
   vertex 16.00447078732782 24.800000000000004 0
   vertex 16.00447078732782 25.200000000000003 0.2
  endloop
 endfacet
 facet normal -1.0 0.0 0.0
  outer loop
   vertex 16.00447078732782 24.800000000000004 0
   vertex 16.00447078732782 24.800000000000004 0.2
   vertex 16.00447078732782 25.200000000000003 0.2
  endloop
 endfacet
 facet normal 0.0 0.0 1.0
  outer loop
   vertex 1.391161214603795 23.600000000000005 0.2
   vertex 23.873175941871523 23.600000000000005 0.2
   vertex 16.00447078732782 24.800000000000004 0.2
  endloop
 endfacet
 facet normal -0.0 0.0 1.0
  outer loop
   vertex 9.259866369147499 24.800000000000004 0.2
   vertex 1.391161214603795 23.600000000000005 0.2
   vertex 16.00447078732782 24.800000000000004 0.2
  endloop
 endfacet
 facet normal 0.0 0.0 1.0
  outer loop
   vertex 1.391161214603795 26.400000000000002 0.2
   vertex 1.391161214603795 23.600000000000005 0.2
   vertex 9.259866369147499 24.800000000000004 0.2
  endloop
 endfacet
 facet normal 0.0 0.0 1.0
  outer loop
   vertex 9.2598663691475 25.200000000000003 0.2
   vertex 1.391161214603795 26.400000000000002 0.2
   vertex 9.259866369147499 24.800000000000004 0.2
  endloop
 endfacet
 facet normal 0.0 0.0 1.0
  outer loop
   vertex 23.873175941871526 26.400000000000002 0.2
   vertex 1.391161214603795 26.400000000000002 0.2
   vertex 9.2598663691475 25.200000000000003 0.2
  endloop
 endfacet
 facet normal 0.0 -0.0 1.0
  outer loop
   vertex 16.00447078732782 25.200000000000003 0.2
   vertex 23.873175941871526 26.400000000000002 0.2
   vertex 9.2598663691475 25.200000000000003 0.2
  endloop
 endfacet
 facet normal 0.0 -0.0 1.0
  outer loop
   vertex 23.873175941871523 23.600000000000005 0.2
   vertex 23.873175941871526 26.400000000000002 0.2
   vertex 16.00447078732782 25.200000000000003 0.2
  endloop
 endfacet
 facet normal -0.0 0.0 1.0
  outer loop
   vertex 16.00447078732782 24.800000000000004 0.2
   vertex 23.873175941871523 23.600000000000005 0.2
   vertex 16.00447078732782 25.200000000000003 0.2
  endloop
 endfacet
 facet normal 0.0 0.0 -1.0
  outer loop
   vertex 34.59888469835591 11.1 0
   vertex 18.126824058128484 11.1 0
   vertex 28.83366347427631 12.299999999999999 0
  endloop
 endfacet
 facet normal 0.0 0.0 -1.0
  outer loop
   vertex 18.126824058128484 11.1 0
   vertex 23.89204528220808 12.3 0
   vertex 28.83366347427631 12.299999999999999 0
  endloop
 endfacet
 facet normal 0.0 0.0 -1.0
  outer loop
   vertex 18.126824058128484 11.1 0
   vertex 18.126824058128477 13.9 0
   vertex 23.89204528220808 12.3 0
  endloop
 endfacet
 facet normal 0.0 0.0 -1.0
  outer loop
   vertex 18.126824058128477 13.9 0
   vertex 23.89204528220808 12.7 0
   vertex 23.89204528220808 12.3 0
  endloop
 endfacet
 facet normal 0.0 0.0 -1.0
  outer loop
   vertex 18.126824058128477 13.9 0
   vertex 34.59888469835591 13.899999999999999 0
   vertex 23.89204528220808 12.7 0
  endloop
 endfacet
 facet normal 0.0 0.0 -1.0
  outer loop
   vertex 34.59888469835591 13.899999999999999 0
   vertex 28.833663474276307 12.7 0
   vertex 23.89204528220808 12.7 0
  endloop
 endfacet
 facet normal 0.0 -0.0 -1.0
  outer loop
   vertex 34.59888469835591 13.899999999999999 0
   vertex 34.59888469835591 11.1 0
   vertex 28.833663474276307 12.7 0
  endloop
 endfacet
 facet normal 0.0 0.0 -1.0
  outer loop
   vertex 34.59888469835591 11.1 0
   vertex 28.83366347427631 12.299999999999999 0
   vertex 28.833663474276307 12.7 0
  endloop
 endfacet
 facet normal 0.0 -1.0 0.0
  outer loop
   vertex 18.126824058128484 11.1 0
   vertex 34.59888469835591 11.1 0
   vertex 34.59888469835591 11.1 0.2
  endloop
 endfacet
 facet normal 0.0 -1.0 0.0
  outer loop
   vertex 18.126824058128484 11.1 0.2
   vertex 18.126824058128484 11.1 0
   vertex 34.59888469835591 11.1 0.2
  endloop
 endfacet
 facet normal -1.0 -2.5376526277146428e-15 0.0
  outer loop
   vertex 18.126824058128477 13.9 0
   vertex 18.126824058128484 11.1 0
   vertex 18.126824058128484 11.1 0.2
  endloop
 endfacet
 facet normal -1.0 -2.5376526277146428e-15 -0.0
  outer loop
   vertex 18.126824058128477 13.9 0.2
   vertex 18.126824058128477 13.9 0
   vertex 18.126824058128484 11.1 0.2
  endloop
 endfacet
 facet normal 1.0784059615844906e-16 1.0 0.0
  outer loop
   vertex 34.59888469835591 13.899999999999999 0
   vertex 18.126824058128477 13.9 0
   vertex 18.126824058128477 13.9 0.2
  endloop
 endfacet
 facet normal 1.0784059615844906e-16 1.0 0.0
  outer loop
   vertex 34.59888469835591 13.899999999999999 0.2
   vertex 34.59888469835591 13.899999999999999 0
   vertex 18.126824058128477 13.9 0.2
  endloop
 endfacet
 facet normal 1.0 0.0 0.0
  outer loop
   vertex 34.59888469835591 11.1 0
   vertex 34.59888469835591 13.899999999999999 0
   vertex 34.59888469835591 13.899999999999999 0.2
  endloop
 endfacet
 facet normal 1.0 -0.0 0.0
  outer loop
   vertex 34.59888469835591 11.1 0.2
   vertex 34.59888469835591 11.1 0
   vertex 34.59888469835591 13.899999999999999 0.2
  endloop
 endfacet
 facet normal 3.5946865386149686e-16 1.0 -0.0
  outer loop
   vertex 28.83366347427631 12.299999999999999 0
   vertex 23.89204528220808 12.3 0
   vertex 28.83366347427631 12.299999999999999 0.2
  endloop
 endfacet
 facet normal 3.5946865386149686e-16 1.0 -0.0
  outer loop
   vertex 23.89204528220808 12.3 0
   vertex 23.89204528220808 12.3 0.2
   vertex 28.83366347427631 12.299999999999999 0.2
  endloop
 endfacet
 facet normal 1.0 0.0 0.0
  outer loop
   vertex 23.89204528220808 12.3 0
   vertex 23.89204528220808 12.7 0
   vertex 23.89204528220808 12.3 0.2
  endloop
 endfacet
 facet normal 1.0 0.0 -0.0
  outer loop
   vertex 23.89204528220808 12.7 0
   vertex 23.89204528220808 12.7 0.2
   vertex 23.89204528220808 12.3 0.2
  endloop
 endfacet
 facet normal 0.0 -1.0 0.0
  outer loop
   vertex 23.89204528220808 12.7 0
   vertex 28.833663474276307 12.7 0
   vertex 23.89204528220808 12.7 0.2
  endloop
 endfacet
 facet normal 0.0 -1.0 0.0
  outer loop
   vertex 28.833663474276307 12.7 0
   vertex 28.833663474276307 12.7 0.2
   vertex 23.89204528220808 12.7 0.2
  endloop
 endfacet
 facet normal -1.0 -8.881784197001244e-15 0.0
  outer loop
   vertex 28.833663474276307 12.7 0
   vertex 28.83366347427631 12.299999999999999 0
   vertex 28.833663474276307 12.7 0.2
  endloop
 endfacet
 facet normal -1.0 -8.881784197001244e-15 0.0
  outer loop
   vertex 28.83366347427631 12.299999999999999 0
   vertex 28.83366347427631 12.299999999999999 0.2
   vertex 28.833663474276307 12.7 0.2
  endloop
 endfacet
 facet normal 0.0 0.0 1.0
  outer loop
   vertex 18.126824058128484 11.1 0.2
   vertex 34.59888469835591 11.1 0.2
   vertex 28.83366347427631 12.299999999999999 0.2
  endloop
 endfacet
 facet normal 0.0 0.0 1.0
  outer loop
   vertex 23.89204528220808 12.3 0.2
   vertex 18.126824058128484 11.1 0.2
   vertex 28.83366347427631 12.299999999999999 0.2
  endloop
 endfacet
 facet normal 0.0 0.0 1.0
  outer loop
   vertex 18.126824058128477 13.9 0.2
   vertex 18.126824058128484 11.1 0.2
   vertex 23.89204528220808 12.3 0.2
  endloop
 endfacet
 facet normal 0.0 0.0 1.0
  outer loop
   vertex 23.89204528220808 12.7 0.2
   vertex 18.126824058128477 13.9 0.2
   vertex 23.89204528220808 12.3 0.2
  endloop
 endfacet
 facet normal 0.0 0.0 1.0
  outer loop
   vertex 34.59888469835591 13.899999999999999 0.2
   vertex 18.126824058128477 13.9 0.2
   vertex 23.89204528220808 12.7 0.2
  endloop
 endfacet
 facet normal 0.0 -0.0 1.0
  outer loop
   vertex 28.833663474276307 12.7 0.2
   vertex 34.59888469835591 13.899999999999999 0.2
   vertex 23.89204528220808 12.7 0.2
  endloop
 endfacet
 facet normal 0.0 -0.0 1.0
  outer loop
   vertex 34.59888469835591 11.1 0.2
   vertex 34.59888469835591 13.899999999999999 0.2
   vertex 28.833663474276307 12.7 0.2
  endloop
 endfacet
 facet normal -0.0 -0.0 1.0
  outer loop
   vertex 28.83366347427631 12.299999999999999 0.2
   vertex 34.59888469835591 11.1 0.2
   vertex 28.833663474276307 12.7 0.2
  endloop
 endfacet
 facet normal 0.0 0.0 -1.0
  outer loop
   vertex 34.59116032681265 23.599999999999998 0
   vertex 27.834551505233915 23.599999999999998 0
   vertex 32.22634723926009 24.799999999999994 0
  endloop
 endfacet
 facet normal 0.0 0.0 -1.0
  outer loop
   vertex 27.834551505233915 23.599999999999998 0
   vertex 30.19936459278648 24.799999999999997 0
   vertex 32.22634723926009 24.799999999999994 0
  endloop
 endfacet
 facet normal 0.0 0.0 -1.0
  outer loop
   vertex 27.834551505233915 23.599999999999998 0
   vertex 27.834551505233932 26.399999999999995 0
   vertex 30.19936459278648 24.799999999999997 0
  endloop
 endfacet
 facet normal 0.0 0.0 -1.0
  outer loop
   vertex 27.834551505233932 26.399999999999995 0
   vertex 30.199364592786477 25.199999999999996 0
   vertex 30.19936459278648 24.799999999999997 0
  endloop
 endfacet
 facet normal 0.0 0.0 -1.0
  outer loop
   vertex 27.834551505233932 26.399999999999995 0
   vertex 34.591160326812656 26.39999999999999 0
   vertex 30.199364592786477 25.199999999999996 0
  endloop
 endfacet
 facet normal 0.0 0.0 -1.0
  outer loop
   vertex 34.591160326812656 26.39999999999999 0
   vertex 32.2263472392601 25.199999999999996 0
   vertex 30.199364592786477 25.199999999999996 0
  endloop
 endfacet
 facet normal 0.0 0.0 -1.0
  outer loop
   vertex 34.591160326812656 26.39999999999999 0
   vertex 34.59116032681265 23.599999999999998 0
   vertex 32.2263472392601 25.199999999999996 0
  endloop
 endfacet
 facet normal 0.0 0.0 -1.0
  outer loop
   vertex 34.59116032681265 23.599999999999998 0
   vertex 32.22634723926009 24.799999999999994 0
   vertex 32.2263472392601 25.199999999999996 0
  endloop
 endfacet
 facet normal 0.0 -1.0 0.0
  outer loop
   vertex 27.834551505233915 23.599999999999998 0
   vertex 34.59116032681265 23.599999999999998 0
   vertex 34.59116032681265 23.599999999999998 0.2
  endloop
 endfacet
 facet normal 0.0 -1.0 0.0
  outer loop
   vertex 27.834551505233915 23.599999999999998 0.2
   vertex 27.834551505233915 23.599999999999998 0
   vertex 34.59116032681265 23.599999999999998 0.2
  endloop
 endfacet
 facet normal -1.0 6.344131569286615e-15 0.0
  outer loop
   vertex 27.834551505233932 26.399999999999995 0
   vertex 27.834551505233915 23.599999999999998 0
   vertex 27.834551505233915 23.599999999999998 0.2
  endloop
 endfacet
 facet normal -1.0 6.344131569286615e-15 0.0
  outer loop
   vertex 27.834551505233932 26.399999999999995 0.2
   vertex 27.834551505233932 26.399999999999995 0
   vertex 27.834551505233915 23.599999999999998 0.2
  endloop
 endfacet
 facet normal 5.258131368289555e-16 1.0 0.0
  outer loop
   vertex 34.591160326812656 26.39999999999999 0
   vertex 27.834551505233932 26.399999999999995 0
   vertex 27.834551505233932 26.399999999999995 0.2
  endloop
 endfacet
 facet normal 5.258131368289555e-16 1.0 0.0
  outer loop
   vertex 34.591160326812656 26.39999999999999 0.2
   vertex 34.591160326812656 26.39999999999999 0
   vertex 27.834551505233932 26.399999999999995 0.2
  endloop
 endfacet
 facet normal 1.0 -2.5376526277146495e-15 0.0
  outer loop
   vertex 34.59116032681265 23.599999999999998 0
   vertex 34.591160326812656 26.39999999999999 0
   vertex 34.591160326812656 26.39999999999999 0.2
  endloop
 endfacet
 facet normal 1.0 -2.5376526277146495e-15 0.0
  outer loop
   vertex 34.59116032681265 23.599999999999998 0.2
   vertex 34.59116032681265 23.599999999999998 0
   vertex 34.591160326812656 26.39999999999999 0.2
  endloop
 endfacet
 facet normal 1.752710456096522e-15 1.0 -0.0
  outer loop
   vertex 32.22634723926009 24.799999999999994 0
   vertex 30.19936459278648 24.799999999999997 0
   vertex 32.22634723926009 24.799999999999994 0.2
  endloop
 endfacet
 facet normal 1.752710456096522e-15 1.0 -0.0
  outer loop
   vertex 30.19936459278648 24.799999999999997 0
   vertex 30.19936459278648 24.799999999999997 0.2
   vertex 32.22634723926009 24.799999999999994 0.2
  endloop
 endfacet
 facet normal 1.0 8.881784197001284e-15 -0.0
  outer loop
   vertex 30.19936459278648 24.799999999999997 0
   vertex 30.199364592786477 25.199999999999996 0
   vertex 30.19936459278648 24.799999999999997 0.2
  endloop
 endfacet
 facet normal 1.0 8.881784197001284e-15 -0.0
  outer loop
   vertex 30.199364592786477 25.199999999999996 0
   vertex 30.199364592786477 25.199999999999996 0.2
   vertex 30.19936459278648 24.799999999999997 0.2
  endloop
 endfacet
 facet normal 0.0 -1.0 0.0
  outer loop
   vertex 30.199364592786477 25.199999999999996 0
   vertex 32.2263472392601 25.199999999999996 0
   vertex 30.199364592786477 25.199999999999996 0.2
  endloop
 endfacet
 facet normal 0.0 -1.0 0.0
  outer loop
   vertex 32.2263472392601 25.199999999999996 0
   vertex 32.2263472392601 25.199999999999996 0.2
   vertex 30.199364592786477 25.199999999999996 0.2
  endloop
 endfacet
 facet normal -1.0 1.776356839400241e-14 0.0
  outer loop
   vertex 32.2263472392601 25.199999999999996 0
   vertex 32.22634723926009 24.799999999999994 0
   vertex 32.2263472392601 25.199999999999996 0.2
  endloop
 endfacet
 facet normal -1.0 1.776356839400241e-14 0.0
  outer loop
   vertex 32.22634723926009 24.799999999999994 0
   vertex 32.22634723926009 24.799999999999994 0.2
   vertex 32.2263472392601 25.199999999999996 0.2
  endloop
 endfacet
 facet normal 0.0 0.0 1.0
  outer loop
   vertex 27.834551505233915 23.599999999999998 0.2
   vertex 34.59116032681265 23.599999999999998 0.2
   vertex 32.22634723926009 24.799999999999994 0.2
  endloop
 endfacet
 facet normal 0.0 0.0 1.0
  outer loop
   vertex 30.19936459278648 24.799999999999997 0.2
   vertex 27.834551505233915 23.599999999999998 0.2
   vertex 32.22634723926009 24.799999999999994 0.2
  endloop
 endfacet
 facet normal 0.0 0.0 1.0
  outer loop
   vertex 27.834551505233932 26.399999999999995 0.2
   vertex 27.834551505233915 23.599999999999998 0.2
   vertex 30.19936459278648 24.799999999999997 0.2
  endloop
 endfacet
 facet normal 0.0 0.0 1.0
  outer loop
   vertex 30.199364592786477 25.199999999999996 0.2
   vertex 27.834551505233932 26.399999999999995 0.2
   vertex 30.19936459278648 24.799999999999997 0.2
  endloop
 endfacet
 facet normal 0.0 0.0 1.0
  outer loop
   vertex 34.591160326812656 26.39999999999999 0.2
   vertex 27.834551505233932 26.399999999999995 0.2
   vertex 30.199364592786477 25.199999999999996 0.2
  endloop
 endfacet
 facet normal 0.0 -0.0 1.0
  outer loop
   vertex 32.2263472392601 25.199999999999996 0.2
   vertex 34.591160326812656 26.39999999999999 0.2
   vertex 30.199364592786477 25.199999999999996 0.2
  endloop
 endfacet
 facet normal 0.0 -0.0 1.0
  outer loop
   vertex 34.59116032681265 23.599999999999998 0.2
   vertex 34.591160326812656 26.39999999999999 0.2
   vertex 32.2263472392601 25.199999999999996 0.2
  endloop
 endfacet
 facet normal -0.0 0.0 1.0
  outer loop
   vertex 32.22634723926009 24.799999999999994 0.2
   vertex 34.59116032681265 23.599999999999998 0.2
   vertex 32.2263472392601 25.199999999999996 0.2
  endloop
 endfacet
 facet normal 0.0 0.0 -1.0
  outer loop
   vertex 14.165448494766082 36.1 0
   vertex 1.3988855861470597 36.1 0
   vertex 9.697151476749418 37.3 0
  endloop
 endfacet
 facet normal 0.0 0.0 -1.0
  outer loop
   vertex 1.3988855861470597 36.1 0
   vertex 5.867182604163717 37.3 0
   vertex 9.697151476749418 37.3 0
  endloop
 endfacet
 facet normal 0.0 0.0 -1.0
  outer loop
   vertex 1.3988855861470597 36.1 0
   vertex 1.3988855861470597 38.9 0
   vertex 5.867182604163717 37.3 0
  endloop
 endfacet
 facet normal 0.0 0.0 -1.0
  outer loop
   vertex 1.3988855861470597 38.9 0
   vertex 5.8671826041637125 37.7 0
   vertex 5.867182604163717 37.3 0
  endloop
 endfacet
 facet normal 0.0 0.0 -1.0
  outer loop
   vertex 1.3988855861470597 38.9 0
   vertex 14.165448494766068 38.9 0
   vertex 5.8671826041637125 37.7 0
  endloop
 endfacet
 facet normal 0.0 0.0 -1.0
  outer loop
   vertex 14.165448494766068 38.9 0
   vertex 9.697151476749422 37.7 0
   vertex 5.8671826041637125 37.7 0
  endloop
 endfacet
 facet normal 0.0 -0.0 -1.0
  outer loop
   vertex 14.165448494766068 38.9 0
   vertex 14.165448494766082 36.1 0
   vertex 9.697151476749422 37.7 0
  endloop
 endfacet
 facet normal 0.0 0.0 -1.0
  outer loop
   vertex 14.165448494766082 36.1 0
   vertex 9.697151476749418 37.3 0
   vertex 9.697151476749422 37.7 0
  endloop
 endfacet
 facet normal 0.0 -1.0 0.0
  outer loop
   vertex 1.3988855861470597 36.1 0
   vertex 14.165448494766082 36.1 0
   vertex 14.165448494766082 36.1 0.2
  endloop
 endfacet
 facet normal 0.0 -1.0 0.0
  outer loop
   vertex 1.3988855861470597 36.1 0.2
   vertex 1.3988855861470597 36.1 0
   vertex 14.165448494766082 36.1 0.2
  endloop
 endfacet
 facet normal -1.0 0.0 0.0
  outer loop
   vertex 1.3988855861470597 38.9 0
   vertex 1.3988855861470597 36.1 0
   vertex 1.3988855861470597 36.1 0.2
  endloop
 endfacet
 facet normal -1.0 -0.0 -0.0
  outer loop
   vertex 1.3988855861470597 38.9 0.2
   vertex 1.3988855861470597 38.9 0
   vertex 1.3988855861470597 36.1 0.2
  endloop
 endfacet
 facet normal 0.0 1.0 0.0
  outer loop
   vertex 14.165448494766068 38.9 0
   vertex 1.3988855861470597 38.9 0
   vertex 1.3988855861470597 38.9 0.2
  endloop
 endfacet
 facet normal 0.0 1.0 0.0
  outer loop
   vertex 14.165448494766068 38.9 0.2
   vertex 14.165448494766068 38.9 0
   vertex 1.3988855861470597 38.9 0.2
  endloop
 endfacet
 facet normal 1.0 5.075305255429292e-15 0.0
  outer loop
   vertex 14.165448494766082 36.1 0
   vertex 14.165448494766068 38.9 0
   vertex 14.165448494766068 38.9 0.2
  endloop
 endfacet
 facet normal 1.0 5.075305255429292e-15 0.0
  outer loop
   vertex 14.165448494766082 36.1 0.2
   vertex 14.165448494766082 36.1 0
   vertex 14.165448494766068 38.9 0.2
  endloop
 endfacet
 facet normal 0.0 1.0 -0.0
  outer loop
   vertex 9.697151476749418 37.3 0
   vertex 5.867182604163717 37.3 0
   vertex 9.697151476749418 37.3 0.2
  endloop
 endfacet
 facet normal 0.0 1.0 0.0
  outer loop
   vertex 5.867182604163717 37.3 0
   vertex 5.867182604163717 37.3 0.2
   vertex 9.697151476749418 37.3 0.2
  endloop
 endfacet
 facet normal 1.0 1.1102230246251408e-14 -0.0
  outer loop
   vertex 5.867182604163717 37.3 0
   vertex 5.8671826041637125 37.7 0
   vertex 5.867182604163717 37.3 0.2
  endloop
 endfacet
 facet normal 1.0 1.1102230246251408e-14 -0.0
  outer loop
   vertex 5.8671826041637125 37.7 0
   vertex 5.8671826041637125 37.7 0.2
   vertex 5.867182604163717 37.3 0.2
  endloop
 endfacet
 facet normal 0.0 -1.0 0.0
  outer loop
   vertex 5.8671826041637125 37.7 0
   vertex 9.697151476749422 37.7 0
   vertex 5.8671826041637125 37.7 0.2
  endloop
 endfacet
 facet normal 0.0 -1.0 0.0
  outer loop
   vertex 9.697151476749422 37.7 0
   vertex 9.697151476749422 37.7 0.2
   vertex 5.8671826041637125 37.7 0.2
  endloop
 endfacet
 facet normal -1.0 8.881784197001126e-15 0.0
  outer loop
   vertex 9.697151476749422 37.7 0
   vertex 9.697151476749418 37.3 0
   vertex 9.697151476749422 37.7 0.2
  endloop
 endfacet
 facet normal -1.0 8.881784197001126e-15 0.0
  outer loop
   vertex 9.697151476749418 37.3 0
   vertex 9.697151476749418 37.3 0.2
   vertex 9.697151476749422 37.7 0.2
  endloop
 endfacet
 facet normal 0.0 0.0 1.0
  outer loop
   vertex 1.3988855861470597 36.1 0.2
   vertex 14.165448494766082 36.1 0.2
   vertex 9.697151476749418 37.3 0.2
  endloop
 endfacet
 facet normal -0.0 0.0 1.0
  outer loop
   vertex 5.867182604163717 37.3 0.2
   vertex 1.3988855861470597 36.1 0.2
   vertex 9.697151476749418 37.3 0.2
  endloop
 endfacet
 facet normal 0.0 0.0 1.0
  outer loop
   vertex 1.3988855861470597 38.9 0.2
   vertex 1.3988855861470597 36.1 0.2
   vertex 5.867182604163717 37.3 0.2
  endloop
 endfacet
 facet normal 0.0 0.0 1.0
  outer loop
   vertex 5.8671826041637125 37.7 0.2
   vertex 1.3988855861470597 38.9 0.2
   vertex 5.867182604163717 37.3 0.2
  endloop
 endfacet
 facet normal 0.0 0.0 1.0
  outer loop
   vertex 14.165448494766068 38.9 0.2
   vertex 1.3988855861470597 38.9 0.2
   vertex 5.8671826041637125 37.7 0.2
  endloop
 endfacet
 facet normal 0.0 -0.0 1.0
  outer loop
   vertex 9.697151476749422 37.7 0.2
   vertex 14.165448494766068 38.9 0.2
   vertex 5.8671826041637125 37.7 0.2
  endloop
 endfacet
 facet normal 0.0 0.0 1.0
  outer loop
   vertex 14.165448494766082 36.1 0.2
   vertex 14.165448494766068 38.9 0.2
   vertex 9.697151476749422 37.7 0.2
  endloop
 endfacet
 facet normal -0.0 0.0 1.0
  outer loop
   vertex 9.697151476749418 37.3 0.2
   vertex 14.165448494766082 36.1 0.2
   vertex 9.697151476749422 37.7 0.2
  endloop
 endfacet
 facet normal 0.0 0.0 -1.0
  outer loop
   vertex 23.873175941871526 26.400000000000002 0
   vertex 14.165448494766082 36.1 0
   vertex 22.173203719682796 29.794999999999998 0
  endloop
 endfacet
 facet normal 0.0 0.0 -1.0
  outer loop
   vertex 14.165448494766082 36.1 0
   vertex 19.26088548555116 32.705 0
   vertex 22.173203719682796 29.794999999999998 0
  endloop
 endfacet
 facet normal 0.0 0.0 -1.0
  outer loop
   vertex 14.165448494766082 36.1 0
   vertex 18.126824058128484 36.1 0
   vertex 19.26088548555116 32.705 0
  endloop
 endfacet
 facet normal 0.0 0.0 -1.0
  outer loop
   vertex 18.126824058128484 36.1 0
   vertex 19.826796280317218 32.705 0
   vertex 19.26088548555116 32.705 0
  endloop
 endfacet
 facet normal 0.0 0.0 -1.0
  outer loop
   vertex 18.126824058128484 36.1 0
   vertex 27.834551505233932 26.399999999999995 0
   vertex 19.826796280317218 32.705 0
  endloop
 endfacet
 facet normal 0.0 0.0 -1.0
  outer loop
   vertex 27.834551505233932 26.399999999999995 0
   vertex 22.73911451444885 29.795 0
   vertex 19.826796280317218 32.705 0
  endloop
 endfacet
 facet normal 0.0 0.0 -1.0
  outer loop
   vertex 27.834551505233932 26.399999999999995 0
   vertex 23.873175941871526 26.400000000000002 0
   vertex 22.73911451444885 29.795 0
  endloop
 endfacet
 facet normal 0.0 0.0 -1.0
  outer loop
   vertex 23.873175941871526 26.400000000000002 0
   vertex 22.173203719682796 29.794999999999998 0
   vertex 22.73911451444885 29.795 0
  endloop
 endfacet
 facet normal -0.706825181105366 -0.7073882691671998 0.0
  outer loop
   vertex 14.165448494766082 36.1 0
   vertex 23.873175941871526 26.400000000000002 0
   vertex 23.873175941871526 26.400000000000002 0.2
  endloop
 endfacet
 facet normal -0.706825181105366 -0.7073882691671998 -0.0
  outer loop
   vertex 14.165448494766082 36.1 0.2
   vertex 14.165448494766082 36.1 0
   vertex 23.873175941871526 26.400000000000002 0.2
  endloop
 endfacet
 facet normal 0.0 1.0 0.0
  outer loop
   vertex 18.126824058128484 36.1 0
   vertex 14.165448494766082 36.1 0
   vertex 14.165448494766082 36.1 0.2
  endloop
 endfacet
 facet normal 0.0 1.0 0.0
  outer loop
   vertex 18.126824058128484 36.1 0.2
   vertex 18.126824058128484 36.1 0
   vertex 14.165448494766082 36.1 0.2
  endloop
 endfacet
 facet normal 0.706825181105366 0.7073882691671995 0.0
  outer loop
   vertex 27.834551505233932 26.399999999999995 0
   vertex 18.126824058128484 36.1 0
   vertex 18.126824058128484 36.1 0.2
  endloop
 endfacet
 facet normal 0.706825181105366 0.7073882691671995 0.0
  outer loop
   vertex 27.834551505233932 26.399999999999995 0.2
   vertex 27.834551505233932 26.399999999999995 0
   vertex 18.126824058128484 36.1 0.2
  endloop
 endfacet
 facet normal -1.7936767781669083e-15 -1.0 0.0
  outer loop
   vertex 23.873175941871526 26.400000000000002 0
   vertex 27.834551505233932 26.399999999999995 0
   vertex 27.834551505233932 26.399999999999995 0.2
  endloop
 endfacet
 facet normal -1.7936767781669083e-15 -1.0 -0.0
  outer loop
   vertex 23.873175941871526 26.400000000000002 0.2
   vertex 23.873175941871526 26.400000000000002 0
   vertex 27.834551505233932 26.399999999999995 0.2
  endloop
 endfacet
 facet normal 0.7068251811053656 0.7073882691672001 -0.0
  outer loop
   vertex 22.173203719682796 29.794999999999998 0
   vertex 19.26088548555116 32.705 0
   vertex 22.173203719682796 29.794999999999998 0.2
  endloop
 endfacet
 facet normal 0.7068251811053656 0.7073882691672001 -0.0
  outer loop
   vertex 19.26088548555116 32.705 0
   vertex 19.26088548555116 32.705 0.2
   vertex 22.173203719682796 29.794999999999998 0.2
  endloop
 endfacet
 facet normal 0.0 -1.0 0.0
  outer loop
   vertex 19.26088548555116 32.705 0
   vertex 19.826796280317218 32.705 0
   vertex 19.26088548555116 32.705 0.2
  endloop
 endfacet
 facet normal 0.0 -1.0 0.0
  outer loop
   vertex 19.826796280317218 32.705 0
   vertex 19.826796280317218 32.705 0.2
   vertex 19.26088548555116 32.705 0.2
  endloop
 endfacet
 facet normal -0.7068251811053655 -0.7073882691672 0.0
  outer loop
   vertex 19.826796280317218 32.705 0
   vertex 22.73911451444885 29.795 0
   vertex 19.826796280317218 32.705 0.2
  endloop
 endfacet
 facet normal -0.7068251811053655 -0.7073882691672 0.0
  outer loop
   vertex 22.73911451444885 29.795 0
   vertex 22.73911451444885 29.795 0.2
   vertex 19.826796280317218 32.705 0.2
  endloop
 endfacet
 facet normal -6.2778687235842185e-15 1.0 0.0
  outer loop
   vertex 22.73911451444885 29.795 0
   vertex 22.173203719682796 29.794999999999998 0
   vertex 22.73911451444885 29.795 0.2
  endloop
 endfacet
 facet normal -6.2778687235842185e-15 1.0 0.0
  outer loop
   vertex 22.173203719682796 29.794999999999998 0
   vertex 22.173203719682796 29.794999999999998 0.2
   vertex 22.73911451444885 29.795 0.2
  endloop
 endfacet
 facet normal 0.0 0.0 1.0
  outer loop
   vertex 14.165448494766082 36.1 0.2
   vertex 23.873175941871526 26.400000000000002 0.2
   vertex 22.173203719682796 29.794999999999998 0.2
  endloop
 endfacet
 facet normal 0.0 0.0 1.0
  outer loop
   vertex 19.26088548555116 32.705 0.2
   vertex 14.165448494766082 36.1 0.2
   vertex 22.173203719682796 29.794999999999998 0.2
  endloop
 endfacet
 facet normal 0.0 0.0 1.0
  outer loop
   vertex 18.126824058128484 36.1 0.2
   vertex 14.165448494766082 36.1 0.2
   vertex 19.26088548555116 32.705 0.2
  endloop
 endfacet
 facet normal 0.0 0.0 1.0
  outer loop
   vertex 19.826796280317218 32.705 0.2
   vertex 18.126824058128484 36.1 0.2
   vertex 19.26088548555116 32.705 0.2
  endloop
 endfacet
 facet normal 0.0 0.0 1.0
  outer loop
   vertex 27.834551505233932 26.399999999999995 0.2
   vertex 18.126824058128484 36.1 0.2
   vertex 19.826796280317218 32.705 0.2
  endloop
 endfacet
 facet normal -0.0 -0.0 1.0
  outer loop
   vertex 22.73911451444885 29.795 0.2
   vertex 27.834551505233932 26.399999999999995 0.2
   vertex 19.826796280317218 32.705 0.2
  endloop
 endfacet
 facet normal -0.0 -0.0 1.0
  outer loop
   vertex 23.873175941871526 26.400000000000002 0.2
   vertex 27.834551505233932 26.399999999999995 0.2
   vertex 22.73911451444885 29.795 0.2
  endloop
 endfacet
 facet normal -0.0 0.0 1.0
  outer loop
   vertex 22.173203719682796 29.794999999999998 0.2
   vertex 23.873175941871526 26.400000000000002 0.2
   vertex 22.73911451444885 29.795 0.2
  endloop
 endfacet
 facet normal 0.0 0.0 -1.0
  outer loop
   vertex 14.165448494766068 38.9 0
   vertex 23.873175941871523 48.60000000000001 0
   vertex 19.26088548555115 42.295 0
  endloop
 endfacet
 facet normal 0.0 0.0 -1.0
  outer loop
   vertex 23.873175941871523 48.60000000000001 0
   vertex 22.17320371968278 45.205 0
   vertex 19.26088548555115 42.295 0
  endloop
 endfacet
 facet normal 0.0 -0.0 -1.0
  outer loop
   vertex 23.873175941871523 48.60000000000001 0
   vertex 27.834551505233907 48.599999999999994 0
   vertex 22.17320371968278 45.205 0
  endloop
 endfacet
 facet normal 0.0 0.0 -1.0
  outer loop
   vertex 27.834551505233907 48.599999999999994 0
   vertex 22.73911451444884 45.205000000000005 0
   vertex 22.17320371968278 45.205 0
  endloop
 endfacet
 facet normal 0.0 0.0 -1.0
  outer loop
   vertex 27.834551505233907 48.599999999999994 0
   vertex 18.12682405812847 38.9 0
   vertex 22.73911451444884 45.205000000000005 0
  endloop
 endfacet
 facet normal 0.0 0.0 -1.0
  outer loop
   vertex 18.12682405812847 38.9 0
   vertex 19.8267962803172 42.294999999999995 0
   vertex 22.73911451444884 45.205000000000005 0
  endloop
 endfacet
 facet normal 0.0 0.0 -1.0
  outer loop
   vertex 18.12682405812847 38.9 0
   vertex 14.165448494766068 38.9 0
   vertex 19.8267962803172 42.294999999999995 0
  endloop
 endfacet
 facet normal 0.0 0.0 -1.0
  outer loop
   vertex 14.165448494766068 38.9 0
   vertex 19.26088548555115 42.295 0
   vertex 19.8267962803172 42.294999999999995 0
  endloop
 endfacet
 facet normal -0.706825181105366 0.7073882691671998 0.0
  outer loop
   vertex 23.873175941871523 48.60000000000001 0
   vertex 14.165448494766068 38.9 0
   vertex 14.165448494766068 38.9 0.2
  endloop
 endfacet
 facet normal -0.706825181105366 0.7073882691671998 0.0
  outer loop
   vertex 23.873175941871523 48.60000000000001 0.2
   vertex 23.873175941871523 48.60000000000001 0
   vertex 14.165448494766068 38.9 0.2
  endloop
 endfacet
 facet normal 3.587353556333836e-15 1.0 0.0
  outer loop
   vertex 27.834551505233907 48.599999999999994 0
   vertex 23.873175941871523 48.60000000000001 0
   vertex 23.873175941871523 48.60000000000001 0.2
  endloop
 endfacet
 facet normal 3.587353556333836e-15 1.0 0.0
  outer loop
   vertex 27.834551505233907 48.599999999999994 0.2
   vertex 27.834551505233907 48.599999999999994 0
   vertex 23.873175941871523 48.60000000000001 0.2
  endloop
 endfacet
 facet normal 0.7068251811053661 -0.7073882691671995 0.0
  outer loop
   vertex 18.12682405812847 38.9 0
   vertex 27.834551505233907 48.599999999999994 0
   vertex 27.834551505233907 48.599999999999994 0.2
  endloop
 endfacet
 facet normal 0.7068251811053661 -0.7073882691671995 0.0
  outer loop
   vertex 18.12682405812847 38.9 0.2
   vertex 18.12682405812847 38.9 0
   vertex 27.834551505233907 48.599999999999994 0.2
  endloop
 endfacet
 facet normal 0.0 -1.0 0.0
  outer loop
   vertex 14.165448494766068 38.9 0
   vertex 18.12682405812847 38.9 0
   vertex 18.12682405812847 38.9 0.2
  endloop
 endfacet
 facet normal 0.0 -1.0 0.0
  outer loop
   vertex 14.165448494766068 38.9 0.2
   vertex 14.165448494766068 38.9 0
   vertex 18.12682405812847 38.9 0.2
  endloop
 endfacet
 facet normal 0.7068251811053661 -0.7073882691671997 0.0
  outer loop
   vertex 19.26088548555115 42.295 0
   vertex 22.17320371968278 45.205 0
   vertex 19.26088548555115 42.295 0.2
  endloop
 endfacet
 facet normal 0.7068251811053661 -0.7073882691671997 0.0
  outer loop
   vertex 22.17320371968278 45.205 0
   vertex 22.17320371968278 45.205 0.2
   vertex 19.26088548555115 42.295 0.2
  endloop
 endfacet
 facet normal 1.255573744716828e-14 -1.0 0.0
  outer loop
   vertex 22.17320371968278 45.205 0
   vertex 22.73911451444884 45.205000000000005 0
   vertex 22.17320371968278 45.205 0.2
  endloop
 endfacet
 facet normal 1.255573744716828e-14 -1.0 0.0
  outer loop
   vertex 22.73911451444884 45.205000000000005 0
   vertex 22.73911451444884 45.205000000000005 0.2
   vertex 22.17320371968278 45.205 0.2
  endloop
 endfacet
 facet normal -0.7068251811053666 0.7073882691671992 0.0
  outer loop
   vertex 22.73911451444884 45.205000000000005 0
   vertex 19.8267962803172 42.294999999999995 0
   vertex 22.73911451444884 45.205000000000005 0.2
  endloop
 endfacet
 facet normal -0.7068251811053666 0.7073882691671992 0.0
  outer loop
   vertex 19.8267962803172 42.294999999999995 0
   vertex 19.8267962803172 42.294999999999995 0.2
   vertex 22.73911451444884 45.205000000000005 0.2
  endloop
 endfacet
 facet normal 1.2555737447168516e-14 1.0 -0.0
  outer loop
   vertex 19.8267962803172 42.294999999999995 0
   vertex 19.26088548555115 42.295 0
   vertex 19.8267962803172 42.294999999999995 0.2
  endloop
 endfacet
 facet normal 1.2555737447168516e-14 1.0 -0.0
  outer loop
   vertex 19.26088548555115 42.295 0
   vertex 19.26088548555115 42.295 0.2
   vertex 19.8267962803172 42.294999999999995 0.2
  endloop
 endfacet
 facet normal 0.0 0.0 1.0
  outer loop
   vertex 23.873175941871523 48.60000000000001 0.2
   vertex 14.165448494766068 38.9 0.2
   vertex 19.26088548555115 42.295 0.2
  endloop
 endfacet
 facet normal 0.0 -0.0 1.0
  outer loop
   vertex 22.17320371968278 45.205 0.2
   vertex 23.873175941871523 48.60000000000001 0.2
   vertex 19.26088548555115 42.295 0.2
  endloop
 endfacet
 facet normal 0.0 0.0 1.0
  outer loop
   vertex 27.834551505233907 48.599999999999994 0.2
   vertex 23.873175941871523 48.60000000000001 0.2
   vertex 22.17320371968278 45.205 0.2
  endloop
 endfacet
 facet normal 0.0 -0.0 1.0
  outer loop
   vertex 22.73911451444884 45.205000000000005 0.2
   vertex 27.834551505233907 48.599999999999994 0.2
   vertex 22.17320371968278 45.205 0.2
  endloop
 endfacet
 facet normal 0.0 0.0 1.0
  outer loop
   vertex 18.12682405812847 38.9 0.2
   vertex 27.834551505233907 48.599999999999994 0.2
   vertex 22.73911451444884 45.205000000000005 0.2
  endloop
 endfacet
 facet normal -0.0 0.0 1.0
  outer loop
   vertex 19.8267962803172 42.294999999999995 0.2
   vertex 18.12682405812847 38.9 0.2
   vertex 22.73911451444884 45.205000000000005 0.2
  endloop
 endfacet
 facet normal 0.0 0.0 1.0
  outer loop
   vertex 14.165448494766068 38.9 0.2
   vertex 18.12682405812847 38.9 0.2
   vertex 19.8267962803172 42.294999999999995 0.2
  endloop
 endfacet
 facet normal 0.0 0.0 1.0
  outer loop
   vertex 19.26088548555115 42.295 0.2
   vertex 14.165448494766068 38.9 0.2
   vertex 19.8267962803172 42.294999999999995 0.2
  endloop
 endfacet
 facet normal 0.0 0.0 -1.0
  outer loop
   vertex 34.59888469835592 36.1 0
   vertex 18.126824058128484 36.1 0
   vertex 28.83366347427631 37.3 0
  endloop
 endfacet
 facet normal 0.0 0.0 -1.0
  outer loop
   vertex 18.126824058128484 36.1 0
   vertex 23.89204528220808 37.3 0
   vertex 28.83366347427631 37.3 0
  endloop
 endfacet
 facet normal 0.0 0.0 -1.0
  outer loop
   vertex 18.126824058128484 36.1 0
   vertex 18.12682405812847 38.9 0
   vertex 23.89204528220808 37.3 0
  endloop
 endfacet
 facet normal 0.0 0.0 -1.0
  outer loop
   vertex 18.12682405812847 38.9 0
   vertex 23.892045282208077 37.7 0
   vertex 23.89204528220808 37.3 0
  endloop
 endfacet
 facet normal 0.0 0.0 -1.0
  outer loop
   vertex 18.12682405812847 38.9 0
   vertex 34.5988846983559 38.9 0
   vertex 23.892045282208077 37.7 0
  endloop
 endfacet
 facet normal 0.0 0.0 -1.0
  outer loop
   vertex 34.5988846983559 38.9 0
   vertex 28.833663474276307 37.7 0
   vertex 23.892045282208077 37.7 0
  endloop
 endfacet
 facet normal 0.0 -0.0 -1.0
  outer loop
   vertex 34.5988846983559 38.9 0
   vertex 34.59888469835592 36.1 0
   vertex 28.833663474276307 37.7 0
  endloop
 endfacet
 facet normal 0.0 0.0 -1.0
  outer loop
   vertex 34.59888469835592 36.1 0
   vertex 28.83366347427631 37.3 0
   vertex 28.833663474276307 37.7 0
  endloop
 endfacet
 facet normal 0.0 -1.0 0.0
  outer loop
   vertex 18.126824058128484 36.1 0
   vertex 34.59888469835592 36.1 0
   vertex 34.59888469835592 36.1 0.2
  endloop
 endfacet
 facet normal 0.0 -1.0 0.0
  outer loop
   vertex 18.126824058128484 36.1 0.2
   vertex 18.126824058128484 36.1 0
   vertex 34.59888469835592 36.1 0.2
  endloop
 endfacet
 facet normal -1.0 -5.075305255429292e-15 0.0
  outer loop
   vertex 18.12682405812847 38.9 0
   vertex 18.126824058128484 36.1 0
   vertex 18.126824058128484 36.1 0.2
  endloop
 endfacet
 facet normal -1.0 -5.075305255429292e-15 -0.0
  outer loop
   vertex 18.12682405812847 38.9 0.2
   vertex 18.12682405812847 38.9 0
   vertex 18.126824058128484 36.1 0.2
  endloop
 endfacet
 facet normal 0.0 1.0 0.0
  outer loop
   vertex 34.5988846983559 38.9 0
   vertex 18.12682405812847 38.9 0
   vertex 18.12682405812847 38.9 0.2
  endloop
 endfacet
 facet normal 0.0 1.0 0.0
  outer loop
   vertex 34.5988846983559 38.9 0.2
   vertex 34.5988846983559 38.9 0
   vertex 18.12682405812847 38.9 0.2
  endloop
 endfacet
 facet normal 1.0 5.075305255429292e-15 0.0
  outer loop
   vertex 34.59888469835592 36.1 0
   vertex 34.5988846983559 38.9 0
   vertex 34.5988846983559 38.9 0.2
  endloop
 endfacet
 facet normal 1.0 5.075305255429292e-15 0.0
  outer loop
   vertex 34.59888469835592 36.1 0.2
   vertex 34.59888469835592 36.1 0
   vertex 34.5988846983559 38.9 0.2
  endloop
 endfacet
 facet normal 0.0 1.0 -0.0
  outer loop
   vertex 28.83366347427631 37.3 0
   vertex 23.89204528220808 37.3 0
   vertex 28.83366347427631 37.3 0.2
  endloop
 endfacet
 facet normal 0.0 1.0 0.0
  outer loop
   vertex 23.89204528220808 37.3 0
   vertex 23.89204528220808 37.3 0.2
   vertex 28.83366347427631 37.3 0.2
  endloop
 endfacet
 facet normal 1.0 8.881784197001126e-15 -0.0
  outer loop
   vertex 23.89204528220808 37.3 0
   vertex 23.892045282208077 37.7 0
   vertex 23.89204528220808 37.3 0.2
  endloop
 endfacet
 facet normal 1.0 8.881784197001126e-15 -0.0
  outer loop
   vertex 23.892045282208077 37.7 0
   vertex 23.892045282208077 37.7 0.2
   vertex 23.89204528220808 37.3 0.2
  endloop
 endfacet
 facet normal 0.0 -1.0 0.0
  outer loop
   vertex 23.892045282208077 37.7 0
   vertex 28.833663474276307 37.7 0
   vertex 23.892045282208077 37.7 0.2
  endloop
 endfacet
 facet normal 0.0 -1.0 0.0
  outer loop
   vertex 28.833663474276307 37.7 0
   vertex 28.833663474276307 37.7 0.2
   vertex 23.892045282208077 37.7 0.2
  endloop
 endfacet
 facet normal -1.0 -8.881784197001126e-15 0.0
  outer loop
   vertex 28.833663474276307 37.7 0
   vertex 28.83366347427631 37.3 0
   vertex 28.833663474276307 37.7 0.2
  endloop
 endfacet
 facet normal -1.0 -8.881784197001126e-15 0.0
  outer loop
   vertex 28.83366347427631 37.3 0
   vertex 28.83366347427631 37.3 0.2
   vertex 28.833663474276307 37.7 0.2
  endloop
 endfacet
 facet normal 0.0 0.0 1.0
  outer loop
   vertex 18.126824058128484 36.1 0.2
   vertex 34.59888469835592 36.1 0.2
   vertex 28.83366347427631 37.3 0.2
  endloop
 endfacet
 facet normal -0.0 0.0 1.0
  outer loop
   vertex 23.89204528220808 37.3 0.2
   vertex 18.126824058128484 36.1 0.2
   vertex 28.83366347427631 37.3 0.2
  endloop
 endfacet
 facet normal 0.0 0.0 1.0
  outer loop
   vertex 18.12682405812847 38.9 0.2
   vertex 18.126824058128484 36.1 0.2
   vertex 23.89204528220808 37.3 0.2
  endloop
 endfacet
 facet normal 0.0 0.0 1.0
  outer loop
   vertex 23.892045282208077 37.7 0.2
   vertex 18.12682405812847 38.9 0.2
   vertex 23.89204528220808 37.3 0.2
  endloop
 endfacet
 facet normal 0.0 0.0 1.0
  outer loop
   vertex 34.5988846983559 38.9 0.2
   vertex 18.12682405812847 38.9 0.2
   vertex 23.892045282208077 37.7 0.2
  endloop
 endfacet
 facet normal 0.0 -0.0 1.0
  outer loop
   vertex 28.833663474276307 37.7 0.2
   vertex 34.5988846983559 38.9 0.2
   vertex 23.892045282208077 37.7 0.2
  endloop
 endfacet
 facet normal 0.0 0.0 1.0
  outer loop
   vertex 34.59888469835592 36.1 0.2
   vertex 34.5988846983559 38.9 0.2
   vertex 28.833663474276307 37.7 0.2
  endloop
 endfacet
 facet normal -0.0 -0.0 1.0
  outer loop
   vertex 28.83366347427631 37.3 0.2
   vertex 34.59888469835592 36.1 0.2
   vertex 28.833663474276307 37.7 0.2
  endloop
 endfacet
 facet normal 0.0 0.0 -1.0
  outer loop
   vertex 14.16544849476608 11.1 0
   vertex 1.3988855861470597 11.1 0
   vertex 9.69715147674942 12.3 0
  endloop
 endfacet
 facet normal 0.0 0.0 -1.0
  outer loop
   vertex 1.3988855861470597 11.1 0
   vertex 5.867182604163717 12.3 0
   vertex 9.69715147674942 12.3 0
  endloop
 endfacet
 facet normal 0.0 0.0 -1.0
  outer loop
   vertex 1.3988855861470597 11.1 0
   vertex 1.3988855861470597 13.900000000000002 0
   vertex 5.867182604163717 12.3 0
  endloop
 endfacet
 facet normal 0.0 0.0 -1.0
  outer loop
   vertex 1.3988855861470597 13.900000000000002 0
   vertex 5.867182604163714 12.700000000000001 0
   vertex 5.867182604163717 12.3 0
  endloop
 endfacet
 facet normal 0.0 0.0 -1.0
  outer loop
   vertex 1.3988855861470597 13.900000000000002 0
   vertex 14.165448494766075 13.9 0
   vertex 5.867182604163714 12.700000000000001 0
  endloop
 endfacet
 facet normal 0.0 0.0 -1.0
  outer loop
   vertex 14.165448494766075 13.9 0
   vertex 9.697151476749422 12.700000000000001 0
   vertex 5.867182604163714 12.700000000000001 0
  endloop
 endfacet
 facet normal 0.0 -0.0 -1.0
  outer loop
   vertex 14.165448494766075 13.9 0
   vertex 14.16544849476608 11.1 0
   vertex 9.697151476749422 12.700000000000001 0
  endloop
 endfacet
 facet normal 0.0 0.0 -1.0
  outer loop
   vertex 14.16544849476608 11.1 0
   vertex 9.69715147674942 12.3 0
   vertex 9.697151476749422 12.700000000000001 0
  endloop
 endfacet
 facet normal 0.0 -1.0 0.0
  outer loop
   vertex 1.3988855861470597 11.1 0
   vertex 14.16544849476608 11.1 0
   vertex 14.16544849476608 11.1 0.2
  endloop
 endfacet
 facet normal 0.0 -1.0 0.0
  outer loop
   vertex 1.3988855861470597 11.1 0.2
   vertex 1.3988855861470597 11.1 0
   vertex 14.16544849476608 11.1 0.2
  endloop
 endfacet
 facet normal -1.0 0.0 0.0
  outer loop
   vertex 1.3988855861470597 13.900000000000002 0
   vertex 1.3988855861470597 11.1 0
   vertex 1.3988855861470597 11.1 0.2
  endloop
 endfacet
 facet normal -1.0 -0.0 -0.0
  outer loop
   vertex 1.3988855861470597 13.900000000000002 0.2
   vertex 1.3988855861470597 13.900000000000002 0
   vertex 1.3988855861470597 11.1 0.2
  endloop
 endfacet
 facet normal 1.3914135324559352e-16 1.0 0.0
  outer loop
   vertex 14.165448494766075 13.9 0
   vertex 1.3988855861470597 13.900000000000002 0
   vertex 1.3988855861470597 13.900000000000002 0.2
  endloop
 endfacet
 facet normal 1.3914135324559352e-16 1.0 0.0
  outer loop
   vertex 14.165448494766075 13.9 0.2
   vertex 14.165448494766075 13.9 0
   vertex 1.3988855861470597 13.900000000000002 0.2
  endloop
 endfacet
 facet normal 1.0 1.903239470785982e-15 0.0
  outer loop
   vertex 14.16544849476608 11.1 0
   vertex 14.165448494766075 13.9 0
   vertex 14.165448494766075 13.9 0.2
  endloop
 endfacet
 facet normal 1.0 1.903239470785982e-15 0.0
  outer loop
   vertex 14.16544849476608 11.1 0.2
   vertex 14.16544849476608 11.1 0
   vertex 14.165448494766075 13.9 0.2
  endloop
 endfacet
 facet normal 0.0 1.0 -0.0
  outer loop
   vertex 9.69715147674942 12.3 0
   vertex 5.867182604163717 12.3 0
   vertex 9.69715147674942 12.3 0.2
  endloop
 endfacet
 facet normal 0.0 1.0 0.0
  outer loop
   vertex 5.867182604163717 12.3 0
   vertex 5.867182604163717 12.3 0.2
   vertex 9.69715147674942 12.3 0.2
  endloop
 endfacet
 facet normal 1.0 6.6613381477509345e-15 -0.0
  outer loop
   vertex 5.867182604163717 12.3 0
   vertex 5.867182604163714 12.700000000000001 0
   vertex 5.867182604163717 12.3 0.2
  endloop
 endfacet
 facet normal 1.0 6.6613381477509345e-15 -0.0
  outer loop
   vertex 5.867182604163714 12.700000000000001 0
   vertex 5.867182604163714 12.700000000000001 0.2
   vertex 5.867182604163717 12.3 0.2
  endloop
 endfacet
 facet normal 0.0 -1.0 0.0
  outer loop
   vertex 5.867182604163714 12.700000000000001 0
   vertex 9.697151476749422 12.700000000000001 0
   vertex 5.867182604163714 12.700000000000001 0.2
  endloop
 endfacet
 facet normal 0.0 -1.0 0.0
  outer loop
   vertex 9.697151476749422 12.700000000000001 0
   vertex 9.697151476749422 12.700000000000001 0.2
   vertex 5.867182604163714 12.700000000000001 0.2
  endloop
 endfacet
 facet normal -1.0 4.440892098500622e-15 0.0
  outer loop
   vertex 9.697151476749422 12.700000000000001 0
   vertex 9.69715147674942 12.3 0
   vertex 9.697151476749422 12.700000000000001 0.2
  endloop
 endfacet
 facet normal -1.0 4.440892098500622e-15 0.0
  outer loop
   vertex 9.69715147674942 12.3 0
   vertex 9.69715147674942 12.3 0.2
   vertex 9.697151476749422 12.700000000000001 0.2
  endloop
 endfacet
 facet normal 0.0 0.0 1.0
  outer loop
   vertex 1.3988855861470597 11.1 0.2
   vertex 14.16544849476608 11.1 0.2
   vertex 9.69715147674942 12.3 0.2
  endloop
 endfacet
 facet normal -0.0 0.0 1.0
  outer loop
   vertex 5.867182604163717 12.3 0.2
   vertex 1.3988855861470597 11.1 0.2
   vertex 9.69715147674942 12.3 0.2
  endloop
 endfacet
 facet normal 0.0 0.0 1.0
  outer loop
   vertex 1.3988855861470597 13.900000000000002 0.2
   vertex 1.3988855861470597 11.1 0.2
   vertex 5.867182604163717 12.3 0.2
  endloop
 endfacet
 facet normal 0.0 0.0 1.0
  outer loop
   vertex 5.867182604163714 12.700000000000001 0.2
   vertex 1.3988855861470597 13.900000000000002 0.2
   vertex 5.867182604163717 12.3 0.2
  endloop
 endfacet
 facet normal 0.0 0.0 1.0
  outer loop
   vertex 14.165448494766075 13.9 0.2
   vertex 1.3988855861470597 13.900000000000002 0.2
   vertex 5.867182604163714 12.700000000000001 0.2
  endloop
 endfacet
 facet normal 0.0 -0.0 1.0
  outer loop
   vertex 9.697151476749422 12.700000000000001 0.2
   vertex 14.165448494766075 13.9 0.2
   vertex 5.867182604163714 12.700000000000001 0.2
  endloop
 endfacet
 facet normal 0.0 0.0 1.0
  outer loop
   vertex 14.16544849476608 11.1 0.2
   vertex 14.165448494766075 13.9 0.2
   vertex 9.697151476749422 12.700000000000001 0.2
  endloop
 endfacet
 facet normal -0.0 0.0 1.0
  outer loop
   vertex 9.69715147674942 12.3 0.2
   vertex 14.16544849476608 11.1 0.2
   vertex 9.697151476749422 12.700000000000001 0.2
  endloop
 endfacet
 facet normal 0.0 0.0 -1.0
  outer loop
   vertex 23.873175941871523 23.600000000000005 0
   vertex 1.391161214603795 23.600000000000005 0
   vertex 16.00447078732782 24.800000000000004 0
  endloop
 endfacet
 facet normal 0.0 0.0 -1.0
  outer loop
   vertex 1.391161214603795 23.600000000000005 0
   vertex 9.259866369147499 24.800000000000004 0
   vertex 16.00447078732782 24.800000000000004 0
  endloop
 endfacet
 facet normal 0.0 0.0 -1.0
  outer loop
   vertex 1.391161214603795 23.600000000000005 0
   vertex 1.391161214603795 26.400000000000002 0
   vertex 9.259866369147499 24.800000000000004 0
  endloop
 endfacet
 facet normal 0.0 0.0 -1.0
  outer loop
   vertex 1.391161214603795 26.400000000000002 0
   vertex 9.2598663691475 25.200000000000003 0
   vertex 9.259866369147499 24.800000000000004 0
  endloop
 endfacet
 facet normal 0.0 0.0 -1.0
  outer loop
   vertex 1.391161214603795 26.400000000000002 0
   vertex 23.873175941871526 26.400000000000002 0
   vertex 9.2598663691475 25.200000000000003 0
  endloop
 endfacet
 facet normal 0.0 0.0 -1.0
  outer loop
   vertex 23.873175941871526 26.400000000000002 0
   vertex 16.00447078732782 25.200000000000003 0
   vertex 9.2598663691475 25.200000000000003 0
  endloop
 endfacet
 facet normal 0.0 0.0 -1.0
  outer loop
   vertex 23.873175941871526 26.400000000000002 0
   vertex 23.873175941871523 23.600000000000005 0
   vertex 16.00447078732782 25.200000000000003 0
  endloop
 endfacet
 facet normal 0.0 0.0 -1.0
  outer loop
   vertex 23.873175941871523 23.600000000000005 0
   vertex 16.00447078732782 24.800000000000004 0
   vertex 16.00447078732782 25.200000000000003 0
  endloop
 endfacet
 facet normal 0.0 -1.0 0.0
  outer loop
   vertex 1.391161214603795 23.600000000000005 0
   vertex 23.873175941871523 23.600000000000005 0
   vertex 23.873175941871523 23.600000000000005 0.2
  endloop
 endfacet
 facet normal 0.0 -1.0 0.0
  outer loop
   vertex 1.391161214603795 23.600000000000005 0.2
   vertex 1.391161214603795 23.600000000000005 0
   vertex 23.873175941871523 23.600000000000005 0.2
  endloop
 endfacet
 facet normal -1.0 0.0 0.0
  outer loop
   vertex 1.391161214603795 26.400000000000002 0
   vertex 1.391161214603795 23.600000000000005 0
   vertex 1.391161214603795 23.600000000000005 0.2
  endloop
 endfacet
 facet normal -1.0 -0.0 -0.0
  outer loop
   vertex 1.391161214603795 26.400000000000002 0.2
   vertex 1.391161214603795 26.400000000000002 0
   vertex 1.391161214603795 23.600000000000005 0.2
  endloop
 endfacet
 facet normal 0.0 1.0 0.0
  outer loop
   vertex 23.873175941871526 26.400000000000002 0
   vertex 1.391161214603795 26.400000000000002 0
   vertex 1.391161214603795 26.400000000000002 0.2
  endloop
 endfacet
 facet normal 0.0 1.0 0.0
  outer loop
   vertex 23.873175941871526 26.400000000000002 0.2
   vertex 23.873175941871526 26.400000000000002 0
   vertex 1.391161214603795 26.400000000000002 0.2
  endloop
 endfacet
 facet normal 1.0 -1.268826313857323e-15 0.0
  outer loop
   vertex 23.873175941871523 23.600000000000005 0
   vertex 23.873175941871526 26.400000000000002 0
   vertex 23.873175941871526 26.400000000000002 0.2
  endloop
 endfacet
 facet normal 1.0 -1.268826313857323e-15 0.0
  outer loop
   vertex 23.873175941871523 23.600000000000005 0.2
   vertex 23.873175941871523 23.600000000000005 0
   vertex 23.873175941871526 26.400000000000002 0.2
  endloop
 endfacet
 facet normal 0.0 1.0 -0.0
  outer loop
   vertex 16.00447078732782 24.800000000000004 0
   vertex 9.259866369147499 24.800000000000004 0
   vertex 16.00447078732782 24.800000000000004 0.2
  endloop
 endfacet
 facet normal 0.0 1.0 0.0
  outer loop
   vertex 9.259866369147499 24.800000000000004 0
   vertex 9.259866369147499 24.800000000000004 0.2
   vertex 16.00447078732782 24.800000000000004 0.2
  endloop
 endfacet
 facet normal 1.0 -4.440892098500642e-15 0.0
  outer loop
   vertex 9.259866369147499 24.800000000000004 0
   vertex 9.2598663691475 25.200000000000003 0
   vertex 9.259866369147499 24.800000000000004 0.2
  endloop
 endfacet
 facet normal 1.0 -4.440892098500642e-15 0.0
  outer loop
   vertex 9.2598663691475 25.200000000000003 0
   vertex 9.2598663691475 25.200000000000003 0.2
   vertex 9.259866369147499 24.800000000000004 0.2
  endloop
 endfacet
 facet normal 0.0 -1.0 0.0
  outer loop
   vertex 9.2598663691475 25.200000000000003 0
   vertex 16.00447078732782 25.200000000000003 0
   vertex 9.2598663691475 25.200000000000003 0.2
  endloop
 endfacet
 facet normal 0.0 -1.0 0.0
  outer loop
   vertex 16.00447078732782 25.200000000000003 0
   vertex 16.00447078732782 25.200000000000003 0.2
   vertex 9.2598663691475 25.200000000000003 0.2
  endloop
 endfacet
 facet normal -1.0 0.0 0.0
  outer loop
   vertex 16.00447078732782 25.200000000000003 0
   vertex 16.00447078732782 24.800000000000004 0
   vertex 16.00447078732782 25.200000000000003 0.2
  endloop
 endfacet
 facet normal -1.0 0.0 0.0
  outer loop
   vertex 16.00447078732782 24.800000000000004 0
   vertex 16.00447078732782 24.800000000000004 0.2
   vertex 16.00447078732782 25.200000000000003 0.2
  endloop
 endfacet
 facet normal 0.0 0.0 1.0
  outer loop
   vertex 1.391161214603795 23.600000000000005 0.2
   vertex 23.873175941871523 23.600000000000005 0.2
   vertex 16.00447078732782 24.800000000000004 0.2
  endloop
 endfacet
 facet normal -0.0 0.0 1.0
  outer loop
   vertex 9.259866369147499 24.800000000000004 0.2
   vertex 1.391161214603795 23.600000000000005 0.2
   vertex 16.00447078732782 24.800000000000004 0.2
  endloop
 endfacet
 facet normal 0.0 0.0 1.0
  outer loop
   vertex 1.391161214603795 26.400000000000002 0.2
   vertex 1.391161214603795 23.600000000000005 0.2
   vertex 9.259866369147499 24.800000000000004 0.2
  endloop
 endfacet
 facet normal 0.0 0.0 1.0
  outer loop
   vertex 9.2598663691475 25.200000000000003 0.2
   vertex 1.391161214603795 26.400000000000002 0.2
   vertex 9.259866369147499 24.800000000000004 0.2
  endloop
 endfacet
 facet normal 0.0 0.0 1.0
  outer loop
   vertex 23.873175941871526 26.400000000000002 0.2
   vertex 1.391161214603795 26.400000000000002 0.2
   vertex 9.2598663691475 25.200000000000003 0.2
  endloop
 endfacet
 facet normal 0.0 -0.0 1.0
  outer loop
   vertex 16.00447078732782 25.200000000000003 0.2
   vertex 23.873175941871526 26.400000000000002 0.2
   vertex 9.2598663691475 25.200000000000003 0.2
  endloop
 endfacet
 facet normal 0.0 -0.0 1.0
  outer loop
   vertex 23.873175941871523 23.600000000000005 0.2
   vertex 23.873175941871526 26.400000000000002 0.2
   vertex 16.00447078732782 25.200000000000003 0.2
  endloop
 endfacet
 facet normal -0.0 0.0 1.0
  outer loop
   vertex 16.00447078732782 24.800000000000004 0.2
   vertex 23.873175941871523 23.600000000000005 0.2
   vertex 16.00447078732782 25.200000000000003 0.2
  endloop
 endfacet
 facet normal 0.0 0.0 -1.0
  outer loop
   vertex 34.59888469835591 11.1 0
   vertex 18.126824058128484 11.1 0
   vertex 28.83366347427631 12.299999999999999 0
  endloop
 endfacet
 facet normal 0.0 0.0 -1.0
  outer loop
   vertex 18.126824058128484 11.1 0
   vertex 23.89204528220808 12.3 0
   vertex 28.83366347427631 12.299999999999999 0
  endloop
 endfacet
 facet normal 0.0 0.0 -1.0
  outer loop
   vertex 18.126824058128484 11.1 0
   vertex 18.126824058128477 13.9 0
   vertex 23.89204528220808 12.3 0
  endloop
 endfacet
 facet normal 0.0 0.0 -1.0
  outer loop
   vertex 18.126824058128477 13.9 0
   vertex 23.89204528220808 12.7 0
   vertex 23.89204528220808 12.3 0
  endloop
 endfacet
 facet normal 0.0 0.0 -1.0
  outer loop
   vertex 18.126824058128477 13.9 0
   vertex 34.59888469835591 13.899999999999999 0
   vertex 23.89204528220808 12.7 0
  endloop
 endfacet
 facet normal 0.0 0.0 -1.0
  outer loop
   vertex 34.59888469835591 13.899999999999999 0
   vertex 28.833663474276307 12.7 0
   vertex 23.89204528220808 12.7 0
  endloop
 endfacet
 facet normal 0.0 -0.0 -1.0
  outer loop
   vertex 34.59888469835591 13.899999999999999 0
   vertex 34.59888469835591 11.1 0
   vertex 28.833663474276307 12.7 0
  endloop
 endfacet
 facet normal 0.0 0.0 -1.0
  outer loop
   vertex 34.59888469835591 11.1 0
   vertex 28.83366347427631 12.299999999999999 0
   vertex 28.833663474276307 12.7 0
  endloop
 endfacet
 facet normal 0.0 -1.0 0.0
  outer loop
   vertex 18.126824058128484 11.1 0
   vertex 34.59888469835591 11.1 0
   vertex 34.59888469835591 11.1 0.2
  endloop
 endfacet
 facet normal 0.0 -1.0 0.0
  outer loop
   vertex 18.126824058128484 11.1 0.2
   vertex 18.126824058128484 11.1 0
   vertex 34.59888469835591 11.1 0.2
  endloop
 endfacet
 facet normal -1.0 -2.5376526277146428e-15 0.0
  outer loop
   vertex 18.126824058128477 13.9 0
   vertex 18.126824058128484 11.1 0
   vertex 18.126824058128484 11.1 0.2
  endloop
 endfacet
 facet normal -1.0 -2.5376526277146428e-15 -0.0
  outer loop
   vertex 18.126824058128477 13.9 0.2
   vertex 18.126824058128477 13.9 0
   vertex 18.126824058128484 11.1 0.2
  endloop
 endfacet
 facet normal 1.0784059615844906e-16 1.0 0.0
  outer loop
   vertex 34.59888469835591 13.899999999999999 0
   vertex 18.126824058128477 13.9 0
   vertex 18.126824058128477 13.9 0.2
  endloop
 endfacet
 facet normal 1.0784059615844906e-16 1.0 0.0
  outer loop
   vertex 34.59888469835591 13.899999999999999 0.2
   vertex 34.59888469835591 13.899999999999999 0
   vertex 18.126824058128477 13.9 0.2
  endloop
 endfacet
 facet normal 1.0 0.0 0.0
  outer loop
   vertex 34.59888469835591 11.1 0
   vertex 34.59888469835591 13.899999999999999 0
   vertex 34.59888469835591 13.899999999999999 0.2
  endloop
 endfacet
 facet normal 1.0 -0.0 0.0
  outer loop
   vertex 34.59888469835591 11.1 0.2
   vertex 34.59888469835591 11.1 0
   vertex 34.59888469835591 13.899999999999999 0.2
  endloop
 endfacet
 facet normal 3.5946865386149686e-16 1.0 -0.0
  outer loop
   vertex 28.83366347427631 12.299999999999999 0
   vertex 23.89204528220808 12.3 0
   vertex 28.83366347427631 12.299999999999999 0.2
  endloop
 endfacet
 facet normal 3.5946865386149686e-16 1.0 -0.0
  outer loop
   vertex 23.89204528220808 12.3 0
   vertex 23.89204528220808 12.3 0.2
   vertex 28.83366347427631 12.299999999999999 0.2
  endloop
 endfacet
 facet normal 1.0 0.0 0.0
  outer loop
   vertex 23.89204528220808 12.3 0
   vertex 23.89204528220808 12.7 0
   vertex 23.89204528220808 12.3 0.2
  endloop
 endfacet
 facet normal 1.0 0.0 -0.0
  outer loop
   vertex 23.89204528220808 12.7 0
   vertex 23.89204528220808 12.7 0.2
   vertex 23.89204528220808 12.3 0.2
  endloop
 endfacet
 facet normal 0.0 -1.0 0.0
  outer loop
   vertex 23.89204528220808 12.7 0
   vertex 28.833663474276307 12.7 0
   vertex 23.89204528220808 12.7 0.2
  endloop
 endfacet
 facet normal 0.0 -1.0 0.0
  outer loop
   vertex 28.833663474276307 12.7 0
   vertex 28.833663474276307 12.7 0.2
   vertex 23.89204528220808 12.7 0.2
  endloop
 endfacet
 facet normal -1.0 -8.881784197001244e-15 0.0
  outer loop
   vertex 28.833663474276307 12.7 0
   vertex 28.83366347427631 12.299999999999999 0
   vertex 28.833663474276307 12.7 0.2
  endloop
 endfacet
 facet normal -1.0 -8.881784197001244e-15 0.0
  outer loop
   vertex 28.83366347427631 12.299999999999999 0
   vertex 28.83366347427631 12.299999999999999 0.2
   vertex 28.833663474276307 12.7 0.2
  endloop
 endfacet
 facet normal 0.0 0.0 1.0
  outer loop
   vertex 18.126824058128484 11.1 0.2
   vertex 34.59888469835591 11.1 0.2
   vertex 28.83366347427631 12.299999999999999 0.2
  endloop
 endfacet
 facet normal 0.0 0.0 1.0
  outer loop
   vertex 23.89204528220808 12.3 0.2
   vertex 18.126824058128484 11.1 0.2
   vertex 28.83366347427631 12.299999999999999 0.2
  endloop
 endfacet
 facet normal 0.0 0.0 1.0
  outer loop
   vertex 18.126824058128477 13.9 0.2
   vertex 18.126824058128484 11.1 0.2
   vertex 23.89204528220808 12.3 0.2
  endloop
 endfacet
 facet normal 0.0 0.0 1.0
  outer loop
   vertex 23.89204528220808 12.7 0.2
   vertex 18.126824058128477 13.9 0.2
   vertex 23.89204528220808 12.3 0.2
  endloop
 endfacet
 facet normal 0.0 0.0 1.0
  outer loop
   vertex 34.59888469835591 13.899999999999999 0.2
   vertex 18.126824058128477 13.9 0.2
   vertex 23.89204528220808 12.7 0.2
  endloop
 endfacet
 facet normal 0.0 -0.0 1.0
  outer loop
   vertex 28.833663474276307 12.7 0.2
   vertex 34.59888469835591 13.899999999999999 0.2
   vertex 23.89204528220808 12.7 0.2
  endloop
 endfacet
 facet normal 0.0 -0.0 1.0
  outer loop
   vertex 34.59888469835591 11.1 0.2
   vertex 34.59888469835591 13.899999999999999 0.2
   vertex 28.833663474276307 12.7 0.2
  endloop
 endfacet
 facet normal -0.0 -0.0 1.0
  outer loop
   vertex 28.83366347427631 12.299999999999999 0.2
   vertex 34.59888469835591 11.1 0.2
   vertex 28.833663474276307 12.7 0.2
  endloop
 endfacet
 facet normal 0.0 0.0 -1.0
  outer loop
   vertex 14.165448494766082 36.1 0
   vertex 1.3988855861470597 36.1 0
   vertex 9.697151476749418 37.3 0
  endloop
 endfacet
 facet normal 0.0 0.0 -1.0
  outer loop
   vertex 1.3988855861470597 36.1 0
   vertex 5.867182604163717 37.3 0
   vertex 9.697151476749418 37.3 0
  endloop
 endfacet
 facet normal 0.0 0.0 -1.0
  outer loop
   vertex 1.3988855861470597 36.1 0
   vertex 1.3988855861470597 38.9 0
   vertex 5.867182604163717 37.3 0
  endloop
 endfacet
 facet normal 0.0 0.0 -1.0
  outer loop
   vertex 1.3988855861470597 38.9 0
   vertex 5.8671826041637125 37.7 0
   vertex 5.867182604163717 37.3 0
  endloop
 endfacet
 facet normal 0.0 0.0 -1.0
  outer loop
   vertex 1.3988855861470597 38.9 0
   vertex 14.165448494766068 38.9 0
   vertex 5.8671826041637125 37.7 0
  endloop
 endfacet
 facet normal 0.0 0.0 -1.0
  outer loop
   vertex 14.165448494766068 38.9 0
   vertex 9.697151476749422 37.7 0
   vertex 5.8671826041637125 37.7 0
  endloop
 endfacet
 facet normal 0.0 -0.0 -1.0
  outer loop
   vertex 14.165448494766068 38.9 0
   vertex 14.165448494766082 36.1 0
   vertex 9.697151476749422 37.7 0
  endloop
 endfacet
 facet normal 0.0 0.0 -1.0
  outer loop
   vertex 14.165448494766082 36.1 0
   vertex 9.697151476749418 37.3 0
   vertex 9.697151476749422 37.7 0
  endloop
 endfacet
 facet normal 0.0 -1.0 0.0
  outer loop
   vertex 1.3988855861470597 36.1 0
   vertex 14.165448494766082 36.1 0
   vertex 14.165448494766082 36.1 0.2
  endloop
 endfacet
 facet normal 0.0 -1.0 0.0
  outer loop
   vertex 1.3988855861470597 36.1 0.2
   vertex 1.3988855861470597 36.1 0
   vertex 14.165448494766082 36.1 0.2
  endloop
 endfacet
 facet normal -1.0 0.0 0.0
  outer loop
   vertex 1.3988855861470597 38.9 0
   vertex 1.3988855861470597 36.1 0
   vertex 1.3988855861470597 36.1 0.2
  endloop
 endfacet
 facet normal -1.0 -0.0 -0.0
  outer loop
   vertex 1.3988855861470597 38.9 0.2
   vertex 1.3988855861470597 38.9 0
   vertex 1.3988855861470597 36.1 0.2
  endloop
 endfacet
 facet normal 0.0 1.0 0.0
  outer loop
   vertex 14.165448494766068 38.9 0
   vertex 1.3988855861470597 38.9 0
   vertex 1.3988855861470597 38.9 0.2
  endloop
 endfacet
 facet normal 0.0 1.0 0.0
  outer loop
   vertex 14.165448494766068 38.9 0.2
   vertex 14.165448494766068 38.9 0
   vertex 1.3988855861470597 38.9 0.2
  endloop
 endfacet
 facet normal 1.0 5.075305255429292e-15 0.0
  outer loop
   vertex 14.165448494766082 36.1 0
   vertex 14.165448494766068 38.9 0
   vertex 14.165448494766068 38.9 0.2
  endloop
 endfacet
 facet normal 1.0 5.075305255429292e-15 0.0
  outer loop
   vertex 14.165448494766082 36.1 0.2
   vertex 14.165448494766082 36.1 0
   vertex 14.165448494766068 38.9 0.2
  endloop
 endfacet
 facet normal 0.0 1.0 -0.0
  outer loop
   vertex 9.697151476749418 37.3 0
   vertex 5.867182604163717 37.3 0
   vertex 9.697151476749418 37.3 0.2
  endloop
 endfacet
 facet normal 0.0 1.0 0.0
  outer loop
   vertex 5.867182604163717 37.3 0
   vertex 5.867182604163717 37.3 0.2
   vertex 9.697151476749418 37.3 0.2
  endloop
 endfacet
 facet normal 1.0 1.1102230246251408e-14 -0.0
  outer loop
   vertex 5.867182604163717 37.3 0
   vertex 5.8671826041637125 37.7 0
   vertex 5.867182604163717 37.3 0.2
  endloop
 endfacet
 facet normal 1.0 1.1102230246251408e-14 -0.0
  outer loop
   vertex 5.8671826041637125 37.7 0
   vertex 5.8671826041637125 37.7 0.2
   vertex 5.867182604163717 37.3 0.2
  endloop
 endfacet
 facet normal 0.0 -1.0 0.0
  outer loop
   vertex 5.8671826041637125 37.7 0
   vertex 9.697151476749422 37.7 0
   vertex 5.8671826041637125 37.7 0.2
  endloop
 endfacet
 facet normal 0.0 -1.0 0.0
  outer loop
   vertex 9.697151476749422 37.7 0
   vertex 9.697151476749422 37.7 0.2
   vertex 5.8671826041637125 37.7 0.2
  endloop
 endfacet
 facet normal -1.0 8.881784197001126e-15 0.0
  outer loop
   vertex 9.697151476749422 37.7 0
   vertex 9.697151476749418 37.3 0
   vertex 9.697151476749422 37.7 0.2
  endloop
 endfacet
 facet normal -1.0 8.881784197001126e-15 0.0
  outer loop
   vertex 9.697151476749418 37.3 0
   vertex 9.697151476749418 37.3 0.2
   vertex 9.697151476749422 37.7 0.2
  endloop
 endfacet
 facet normal 0.0 0.0 1.0
  outer loop
   vertex 1.3988855861470597 36.1 0.2
   vertex 14.165448494766082 36.1 0.2
   vertex 9.697151476749418 37.3 0.2
  endloop
 endfacet
 facet normal -0.0 0.0 1.0
  outer loop
   vertex 5.867182604163717 37.3 0.2
   vertex 1.3988855861470597 36.1 0.2
   vertex 9.697151476749418 37.3 0.2
  endloop
 endfacet
 facet normal 0.0 0.0 1.0
  outer loop
   vertex 1.3988855861470597 38.9 0.2
   vertex 1.3988855861470597 36.1 0.2
   vertex 5.867182604163717 37.3 0.2
  endloop
 endfacet
 facet normal 0.0 0.0 1.0
  outer loop
   vertex 5.8671826041637125 37.7 0.2
   vertex 1.3988855861470597 38.9 0.2
   vertex 5.867182604163717 37.3 0.2
  endloop
 endfacet
 facet normal 0.0 0.0 1.0
  outer loop
   vertex 14.165448494766068 38.9 0.2
   vertex 1.3988855861470597 38.9 0.2
   vertex 5.8671826041637125 37.7 0.2
  endloop
 endfacet
 facet normal 0.0 -0.0 1.0
  outer loop
   vertex 9.697151476749422 37.7 0.2
   vertex 14.165448494766068 38.9 0.2
   vertex 5.8671826041637125 37.7 0.2
  endloop
 endfacet
 facet normal 0.0 0.0 1.0
  outer loop
   vertex 14.165448494766082 36.1 0.2
   vertex 14.165448494766068 38.9 0.2
   vertex 9.697151476749422 37.7 0.2
  endloop
 endfacet
 facet normal -0.0 0.0 1.0
  outer loop
   vertex 9.697151476749418 37.3 0.2
   vertex 14.165448494766082 36.1 0.2
   vertex 9.697151476749422 37.7 0.2
  endloop
 endfacet
 facet normal 0.0 0.0 -1.0
  outer loop
   vertex 34.59888469835592 36.1 0
   vertex 18.126824058128484 36.1 0
   vertex 28.83366347427631 37.3 0
  endloop
 endfacet
 facet normal 0.0 0.0 -1.0
  outer loop
   vertex 18.126824058128484 36.1 0
   vertex 23.89204528220808 37.3 0
   vertex 28.83366347427631 37.3 0
  endloop
 endfacet
 facet normal 0.0 0.0 -1.0
  outer loop
   vertex 18.126824058128484 36.1 0
   vertex 18.12682405812847 38.9 0
   vertex 23.89204528220808 37.3 0
  endloop
 endfacet
 facet normal 0.0 0.0 -1.0
  outer loop
   vertex 18.12682405812847 38.9 0
   vertex 23.892045282208077 37.7 0
   vertex 23.89204528220808 37.3 0
  endloop
 endfacet
 facet normal 0.0 0.0 -1.0
  outer loop
   vertex 18.12682405812847 38.9 0
   vertex 34.5988846983559 38.9 0
   vertex 23.892045282208077 37.7 0
  endloop
 endfacet
 facet normal 0.0 0.0 -1.0
  outer loop
   vertex 34.5988846983559 38.9 0
   vertex 28.833663474276307 37.7 0
   vertex 23.892045282208077 37.7 0
  endloop
 endfacet
 facet normal 0.0 -0.0 -1.0
  outer loop
   vertex 34.5988846983559 38.9 0
   vertex 34.59888469835592 36.1 0
   vertex 28.833663474276307 37.7 0
  endloop
 endfacet
 facet normal 0.0 0.0 -1.0
  outer loop
   vertex 34.59888469835592 36.1 0
   vertex 28.83366347427631 37.3 0
   vertex 28.833663474276307 37.7 0
  endloop
 endfacet
 facet normal 0.0 -1.0 0.0
  outer loop
   vertex 18.126824058128484 36.1 0
   vertex 34.59888469835592 36.1 0
   vertex 34.59888469835592 36.1 0.2
  endloop
 endfacet
 facet normal 0.0 -1.0 0.0
  outer loop
   vertex 18.126824058128484 36.1 0.2
   vertex 18.126824058128484 36.1 0
   vertex 34.59888469835592 36.1 0.2
  endloop
 endfacet
 facet normal -1.0 -5.075305255429292e-15 0.0
  outer loop
   vertex 18.12682405812847 38.9 0
   vertex 18.126824058128484 36.1 0
   vertex 18.126824058128484 36.1 0.2
  endloop
 endfacet
 facet normal -1.0 -5.075305255429292e-15 -0.0
  outer loop
   vertex 18.12682405812847 38.9 0.2
   vertex 18.12682405812847 38.9 0
   vertex 18.126824058128484 36.1 0.2
  endloop
 endfacet
 facet normal 0.0 1.0 0.0
  outer loop
   vertex 34.5988846983559 38.9 0
   vertex 18.12682405812847 38.9 0
   vertex 18.12682405812847 38.9 0.2
  endloop
 endfacet
 facet normal 0.0 1.0 0.0
  outer loop
   vertex 34.5988846983559 38.9 0.2
   vertex 34.5988846983559 38.9 0
   vertex 18.12682405812847 38.9 0.2
  endloop
 endfacet
 facet normal 1.0 5.075305255429292e-15 0.0
  outer loop
   vertex 34.59888469835592 36.1 0
   vertex 34.5988846983559 38.9 0
   vertex 34.5988846983559 38.9 0.2
  endloop
 endfacet
 facet normal 1.0 5.075305255429292e-15 0.0
  outer loop
   vertex 34.59888469835592 36.1 0.2
   vertex 34.59888469835592 36.1 0
   vertex 34.5988846983559 38.9 0.2
  endloop
 endfacet
 facet normal 0.0 1.0 -0.0
  outer loop
   vertex 28.83366347427631 37.3 0
   vertex 23.89204528220808 37.3 0
   vertex 28.83366347427631 37.3 0.2
  endloop
 endfacet
 facet normal 0.0 1.0 0.0
  outer loop
   vertex 23.89204528220808 37.3 0
   vertex 23.89204528220808 37.3 0.2
   vertex 28.83366347427631 37.3 0.2
  endloop
 endfacet
 facet normal 1.0 8.881784197001126e-15 -0.0
  outer loop
   vertex 23.89204528220808 37.3 0
   vertex 23.892045282208077 37.7 0
   vertex 23.89204528220808 37.3 0.2
  endloop
 endfacet
 facet normal 1.0 8.881784197001126e-15 -0.0
  outer loop
   vertex 23.892045282208077 37.7 0
   vertex 23.892045282208077 37.7 0.2
   vertex 23.89204528220808 37.3 0.2
  endloop
 endfacet
 facet normal 0.0 -1.0 0.0
  outer loop
   vertex 23.892045282208077 37.7 0
   vertex 28.833663474276307 37.7 0
   vertex 23.892045282208077 37.7 0.2
  endloop
 endfacet
 facet normal 0.0 -1.0 0.0
  outer loop
   vertex 28.833663474276307 37.7 0
   vertex 28.833663474276307 37.7 0.2
   vertex 23.892045282208077 37.7 0.2
  endloop
 endfacet
 facet normal -1.0 -8.881784197001126e-15 0.0
  outer loop
   vertex 28.833663474276307 37.7 0
   vertex 28.83366347427631 37.3 0
   vertex 28.833663474276307 37.7 0.2
  endloop
 endfacet
 facet normal -1.0 -8.881784197001126e-15 0.0
  outer loop
   vertex 28.83366347427631 37.3 0
   vertex 28.83366347427631 37.3 0.2
   vertex 28.833663474276307 37.7 0.2
  endloop
 endfacet
 facet normal 0.0 0.0 1.0
  outer loop
   vertex 18.126824058128484 36.1 0.2
   vertex 34.59888469835592 36.1 0.2
   vertex 28.83366347427631 37.3 0.2
  endloop
 endfacet
 facet normal -0.0 0.0 1.0
  outer loop
   vertex 23.89204528220808 37.3 0.2
   vertex 18.126824058128484 36.1 0.2
   vertex 28.83366347427631 37.3 0.2
  endloop
 endfacet
 facet normal 0.0 0.0 1.0
  outer loop
   vertex 18.12682405812847 38.9 0.2
   vertex 18.126824058128484 36.1 0.2
   vertex 23.89204528220808 37.3 0.2
  endloop
 endfacet
 facet normal 0.0 0.0 1.0
  outer loop
   vertex 23.892045282208077 37.7 0.2
   vertex 18.12682405812847 38.9 0.2
   vertex 23.89204528220808 37.3 0.2
  endloop
 endfacet
 facet normal 0.0 0.0 1.0
  outer loop
   vertex 34.5988846983559 38.9 0.2
   vertex 18.12682405812847 38.9 0.2
   vertex 23.892045282208077 37.7 0.2
  endloop
 endfacet
 facet normal 0.0 -0.0 1.0
  outer loop
   vertex 28.833663474276307 37.7 0.2
   vertex 34.5988846983559 38.9 0.2
   vertex 23.892045282208077 37.7 0.2
  endloop
 endfacet
 facet normal 0.0 0.0 1.0
  outer loop
   vertex 34.59888469835592 36.1 0.2
   vertex 34.5988846983559 38.9 0.2
   vertex 28.833663474276307 37.7 0.2
  endloop
 endfacet
 facet normal -0.0 -0.0 1.0
  outer loop
   vertex 28.83366347427631 37.3 0.2
   vertex 34.59888469835592 36.1 0.2
   vertex 28.833663474276307 37.7 0.2
  endloop
 endfacet
endsolid
