solid PyGamic generated SLA File
 facet normal 0.0 0.0 -1.0
  outer loop
   vertex 0.0 15.0 0
   vertex 22.499277514240347 15.0 0
   vertex 37.50072248575965 0.0 0
  endloop
 endfacet
 facet normal 0.0 -0.0 -1.0
  outer loop
   vertex 0.0 15.0 0
   vertex 37.50072248575965 0.0 0
   vertex -0.011944904448347888 0.0 0
  endloop
 endfacet
 facet normal 0.0 -0.554700196225229 -0.8320502943378436
  outer loop
   vertex 0.0 15.0 0
   vertex 22.499277514240347 15.0 0
   vertex 2.9976119703151287 12.0 2
  endloop
 endfacet
 facet normal 0.0 -0.5547001962252291 -0.8320502943378436
  outer loop
   vertex 22.499277514240347 15.0 0
   vertex 21.256721466671852 12.0 2
   vertex 2.9976119703151287 12.0 2
  endloop
 endfacet
 facet normal -0.39221337858271715 -0.3922511610601533 -0.8320502943378434
  outer loop
   vertex 22.499277514240347 15.0 0
   vertex 37.50072248575965 0.0 0
   vertex 21.256721466671852 12.0 2
  endloop
 endfacet
 facet normal -0.392213378582717 -0.3922511610601531 -0.8320502943378436
  outer loop
   vertex 37.50072248575965 0.0 0
   vertex 30.257588449583434 3.0 2
   vertex 21.256721466671852 12.0 2
  endloop
 endfacet
 facet normal 0.0 0.5547001962252291 -0.8320502943378437
  outer loop
   vertex 37.50072248575965 0.0 0
   vertex -0.011944904448347888 0.0 0
   vertex 30.257588449583434 3.0 2
  endloop
 endfacet
 facet normal 0.0 0.5547001962252291 -0.8320502943378436
  outer loop
   vertex -0.011944904448347888 0.0 0
   vertex 2.99044502764612 3.0 2
   vertex 30.257588449583434 3.0 2
  endloop
 endfacet
 facet normal 0.5547000203474556 -0.00044172258270313235 -0.8320502943378437
  outer loop
   vertex -0.011944904448347888 0.0 0
   vertex 0.0 15.0 0
   vertex 2.99044502764612 3.0 2
  endloop
 endfacet
 facet normal 0.5547000203474555 -0.00044172258270314005 -0.8320502943378437
  outer loop
   vertex 0.0 15.0 0
   vertex 2.9976119703151287 12.0 2
   vertex 2.99044502764612 3.0 2
  endloop
 endfacet
 facet normal 0.0 0.0 -1.0
  outer loop
   vertex 2.9976119703151287 12.0 2
   vertex 21.256721466671852 12.0 2
   vertex 30.257588449583434 3.0 2
  endloop
 endfacet
 facet normal 0.0 -0.0 -1.0
  outer loop
   vertex 2.9976119703151287 12.0 2
   vertex 30.257588449583434 3.0 2
   vertex 2.99044502764612 3.0 2
  endloop
 endfacet
 facet normal 0.0 0.0 1.0
  outer loop
   vertex 0.0 15.0 0
   vertex 22.499277514240347 15.0 0
   vertex 37.50072248575965 30.0 0
  endloop
 endfacet
 facet normal 0.0 -0.0 1.0
  outer loop
   vertex 0.0 15.0 0
   vertex 37.50072248575965 30.0 0
   vertex -0.011944904448347888 30.0 0
  endloop
 endfacet
 facet normal 0.0 -0.554700196225229 0.8320502943378436
  outer loop
   vertex 0.0 15.0 0
   vertex 22.499277514240347 15.0 0
   vertex 2.9976119703151287 18.0 2
  endloop
 endfacet
 facet normal 0.0 -0.554700196225229 0.8320502943378436
  outer loop
   vertex 22.499277514240347 15.0 0
   vertex 21.256721466671845 18.0 2
   vertex 2.9976119703151287 18.0 2
  endloop
 endfacet
 facet normal 0.3922133785827167 -0.39225116106015284 0.8320502943378439
  outer loop
   vertex 22.499277514240347 15.0 0
   vertex 37.50072248575965 30.0 0
   vertex 21.256721466671845 18.0 2
  endloop
 endfacet
 facet normal 0.39221337858271665 -0.39225116106015273 0.832050294337844
  outer loop
   vertex 37.50072248575965 30.0 0
   vertex 30.257588449583427 27.0 2
   vertex 21.256721466671845 18.0 2
  endloop
 endfacet
 facet normal 0.0 0.5547001962252291 0.8320502943378437
  outer loop
   vertex 37.50072248575965 30.0 0
   vertex -0.011944904448347888 30.0 0
   vertex 30.257588449583427 27.0 2
  endloop
 endfacet
 facet normal 0.0 0.5547001962252291 0.8320502943378436
  outer loop
   vertex -0.011944904448347888 30.0 0
   vertex 2.99044502764612 27.0 2
   vertex 30.257588449583427 27.0 2
  endloop
 endfacet
 facet normal -0.5547000203474556 -0.00044172258270313235 0.8320502943378437
  outer loop
   vertex -0.011944904448347888 30.0 0
   vertex 0.0 15.0 0
   vertex 2.99044502764612 27.0 2
  endloop
 endfacet
 facet normal -0.5547000203474555 -0.00044172258270314005 0.8320502943378437
  outer loop
   vertex 0.0 15.0 0
   vertex 2.9976119703151287 18.0 2
   vertex 2.99044502764612 27.0 2
  endloop
 endfacet
 facet normal 0.0 0.0 1.0
  outer loop
   vertex 2.9976119703151287 18.0 2
   vertex 21.256721466671845 18.0 2
   vertex 30.257588449583427 27.0 2
  endloop
 endfacet
 facet normal 0.0 -0.0 1.0
  outer loop
   vertex 2.9976119703151287 18.0 2
   vertex 30.257588449583427 27.0 2
   vertex 2.99044502764612 27.0 2
  endloop
 endfacet
 facet normal 0.0 0.0 -1.0
  outer loop
   vertex 22.499277514240347 15.0 0
   vertex 60.0 15.0 0
   vertex 59.98805509555165 0.0 0
  endloop
 endfacet
 facet normal 0.0 0.0 -1.0
  outer loop
   vertex 22.499277514240347 15.0 0
   vertex 59.98805509555165 0.0 0
   vertex 37.50072248575965 0.0 0
  endloop
 endfacet
 facet normal 0.0 -0.5547001962252291 -0.8320502943378436
  outer loop
   vertex 22.499277514240347 15.0 0
   vertex 60.0 15.0 0
   vertex 29.742411550416577 12.0 2
  endloop
 endfacet
 facet normal 0.0 -0.5547001962252291 -0.8320502943378437
  outer loop
   vertex 60.0 15.0 0
   vertex 56.99761006790553 12.0 2
   vertex 29.742411550416577 12.0 2
  endloop
 endfacet
 facet normal -0.5547000203474557 0.0004417225827031676 -0.8320502943378436
  outer loop
   vertex 60.0 15.0 0
   vertex 59.98805509555165 0.0 0
   vertex 56.99761006790553 12.0 2
  endloop
 endfacet
 facet normal -0.5547000203474557 0.0004417225827031676 -0.8320502943378436
  outer loop
   vertex 59.98805509555165 0.0 0
   vertex 56.990443125236524 3.0 2
   vertex 56.99761006790553 12.0 2
  endloop
 endfacet
 facet normal 0.0 0.554700196225229 -0.8320502943378437
  outer loop
   vertex 59.98805509555165 0.0 0
   vertex 37.50072248575965 0.0 0
   vertex 56.990443125236524 3.0 2
  endloop
 endfacet
 facet normal 0.0 0.5547001962252291 -0.8320502943378437
  outer loop
   vertex 37.50072248575965 0.0 0
   vertex 38.74327853332816 3.0 2
   vertex 56.990443125236524 3.0 2
  endloop
 endfacet
 facet normal 0.3922133785827165 0.3922511610601526 -0.832050294337844
  outer loop
   vertex 37.50072248575965 0.0 0
   vertex 22.499277514240347 15.0 0
   vertex 38.74327853332816 3.0 2
  endloop
 endfacet
 facet normal 0.3922133785827163 0.39225116106015245 -0.8320502943378442
  outer loop
   vertex 22.499277514240347 15.0 0
   vertex 29.742411550416577 12.0 2
   vertex 38.74327853332816 3.0 2
  endloop
 endfacet
 facet normal 0.0 0.0 -1.0
  outer loop
   vertex 29.742411550416577 12.0 2
   vertex 56.99761006790553 12.0 2
   vertex 56.990443125236524 3.0 2
  endloop
 endfacet
 facet normal 0.0 0.0 -1.0
  outer loop
   vertex 29.742411550416577 12.0 2
   vertex 56.990443125236524 3.0 2
   vertex 38.74327853332816 3.0 2
  endloop
 endfacet
 facet normal 0.0 0.0 1.0
  outer loop
   vertex 22.499277514240347 15.0 0
   vertex 60.0 15.0 0
   vertex 59.98805509555165 30.0 0
  endloop
 endfacet
 facet normal 0.0 0.0 1.0
  outer loop
   vertex 22.499277514240347 15.0 0
   vertex 59.98805509555165 30.0 0
   vertex 37.50072248575965 30.0 0
  endloop
 endfacet
 facet normal 0.0 -0.5547001962252291 0.8320502943378436
  outer loop
   vertex 22.499277514240347 15.0 0
   vertex 60.0 15.0 0
   vertex 29.74241155041657 18.0 2
  endloop
 endfacet
 facet normal 0.0 -0.554700196225229 0.8320502943378436
  outer loop
   vertex 60.0 15.0 0
   vertex 56.99761006790553 18.0 2
   vertex 29.74241155041657 18.0 2
  endloop
 endfacet
 facet normal 0.5547000203474557 0.0004417225827031676 0.8320502943378436
  outer loop
   vertex 60.0 15.0 0
   vertex 59.98805509555165 30.0 0
   vertex 56.99761006790553 18.0 2
  endloop
 endfacet
 facet normal 0.5547000203474558 0.0004417225827031678 0.8320502943378437
  outer loop
   vertex 59.98805509555165 30.0 0
   vertex 56.990443125236524 26.999999999999996 2
   vertex 56.99761006790553 18.0 2
  endloop
 endfacet
 facet normal 0.0 0.5547001962252287 0.8320502943378439
  outer loop
   vertex 59.98805509555165 30.0 0
   vertex 37.50072248575965 30.0 0
   vertex 56.990443125236524 26.999999999999996 2
  endloop
 endfacet
 facet normal 0.0 0.5547001962252287 0.832050294337844
  outer loop
   vertex 37.50072248575965 30.0 0
   vertex 38.743278533328144 26.999999999999996 2
   vertex 56.990443125236524 26.999999999999996 2
  endloop
 endfacet
 facet normal -0.39221337858271715 0.3922511610601533 0.8320502943378435
  outer loop
   vertex 37.50072248575965 30.0 0
   vertex 22.499277514240347 15.0 0
   vertex 38.743278533328144 26.999999999999996 2
  endloop
 endfacet
 facet normal -0.3922133785827167 0.3922511610601527 0.8320502943378438
  outer loop
   vertex 22.499277514240347 15.0 0
   vertex 29.74241155041657 18.0 2
   vertex 38.743278533328144 26.999999999999996 2
  endloop
 endfacet
 facet normal 0.0 0.0 1.0
  outer loop
   vertex 29.74241155041657 18.0 2
   vertex 56.99761006790553 18.0 2
   vertex 56.990443125236524 26.999999999999996 2
  endloop
 endfacet
 facet normal 0.0 0.0 1.0
  outer loop
   vertex 29.74241155041657 18.0 2
   vertex 56.990443125236524 26.999999999999996 2
   vertex 38.743278533328144 26.999999999999996 2
  endloop
 endfacet
endsolid
