solid PyGamic generated SLA File
 facet normal 0.0 0.0 -1.0
  outer loop
   vertex 22.499277514240347 15.0 0
   vertex 60.0 15.0 0
   vertex 59.98805509555165 0.0 0
  endloop
 endfacet
 facet normal 0.0 0.0 -1.0
  outer loop
   vertex 22.499277514240347 15.0 0
   vertex 59.98805509555165 0.0 0
   vertex 37.50072248575965 0.0 0
  endloop
 endfacet
 facet normal 0.0 -0.4472135954999579 -0.8944271909999159
  outer loop
   vertex 22.499277514240347 15.0 0
   vertex 60.0 15.0 0
   vertex 32.15678956247532 11.0 2
  endloop
 endfacet
 facet normal 0.0 -0.4472135954999579 -0.8944271909999159
  outer loop
   vertex 60.0 15.0 0
   vertex 55.99681342387404 11.0 2
   vertex 32.15678956247532 11.0 2
  endloop
 endfacet
 facet normal -0.4472134537027632 0.00035612813149970554 -0.8944271909999162
  outer loop
   vertex 60.0 15.0 0
   vertex 59.98805509555165 0.0 0
   vertex 55.99681342387404 11.0 2
  endloop
 endfacet
 facet normal -0.44721345370276383 0.00035612813149940337 -0.8944271909999159
  outer loop
   vertex 59.98805509555165 0.0 0
   vertex 55.99123913513148 4.0 2
   vertex 55.99681342387404 11.0 2
  endloop
 endfacet
 facet normal 0.0 0.4472135954999579 -0.8944271909999159
  outer loop
   vertex 59.98805509555165 0.0 0
   vertex 37.50072248575965 0.0 0
   vertex 55.99123913513148 4.0 2
  endloop
 endfacet
 facet normal 0.0 0.4472135954999579 -0.8944271909999159
  outer loop
   vertex 37.50072248575965 0.0 0
   vertex 39.15746388251766 4.0 2
   vertex 55.99123913513148 4.0 2
  endloop
 endfacet
 facet normal 0.3162125350464858 0.3162429962536317 -0.8944271909999162
  outer loop
   vertex 37.50072248575965 0.0 0
   vertex 22.499277514240347 15.0 0
   vertex 39.15746388251766 4.0 2
  endloop
 endfacet
 facet normal 0.3162125350464857 0.3162429962536317 -0.8944271909999161
  outer loop
   vertex 22.499277514240347 15.0 0
   vertex 32.15678956247532 11.0 2
   vertex 39.15746388251766 4.0 2
  endloop
 endfacet
 facet normal 0.0 0.0 -1.0
  outer loop
   vertex 32.15678956247532 11.0 2
   vertex 55.99681342387404 11.0 2
   vertex 55.99123913513148 4.0 2
  endloop
 endfacet
 facet normal 0.0 0.0 -1.0
  outer loop
   vertex 32.15678956247532 11.0 2
   vertex 55.99123913513148 4.0 2
   vertex 39.15746388251766 4.0 2
  endloop
 endfacet
endsolid
