solid PyGamic generated __All_Units__ SLA File
 facet normal 0.0 0.0 -1.0
  outer loop
   vertex 0.0009283308903781791 12.41 0
   vertex 30.848334954635444 12.41 0
   vertex 22.880607683506334 0.001 0
  endloop
 endfacet
 facet normal 0.0 -0.0 -1.0
  outer loop
   vertex 0.0009283308903781791 12.41 0
   vertex 22.880607683506334 0.001 0
   vertex -0.008953290396258418 0.001 0
  endloop
 endfacet
 facet normal 0.0 0.5664086240493009 0.8241245479917326
  outer loop
   vertex 30.848334954635444 12.41 0
   vertex 0.0009283308903781791 12.41 0
   vertex -0.0013889805726013114 9.5 2.0000000000000004
  endloop
 endfacet
 facet normal 0.0 0.566408624049301 0.8241245479917327
  outer loop
   vertex 25.52161568445221 9.5 2.0000000000000004
   vertex 30.848334954635444 12.41 0
   vertex -0.0013889805726013114 9.5 2.0000000000000004
  endloop
 endfacet
 facet normal 0.4766164226824511 -0.30603188563743766 0.8241245479917325
  outer loop
   vertex 22.880607683506334 0.001 0
   vertex 30.848334954635444 12.41 0
   vertex 25.52161568445221 9.5 2.0000000000000004
  endloop
 endfacet
 facet normal 0.47661642268245114 -0.3060318856374377 0.8241245479917324
  outer loop
   vertex 19.422377925692004 0.001 2.0000000000000004
   vertex 22.880607683506334 0.001 0
   vertex 25.52161568445221 9.5 2.0000000000000004
  endloop
 endfacet
 facet normal 0.0 -1.0 0.0
  outer loop
   vertex -0.008953290396258418 0.001 0
   vertex 22.880607683506334 0.001 0
   vertex 19.422377925692004 0.001 2.0000000000000004
  endloop
 endfacet
 facet normal 0.0 -1.0 0.0
  outer loop
   vertex -0.008953290396258418 0.001 2.0000000000000004
   vertex -0.008953290396258418 0.001 0
   vertex 19.422377925692004 0.001 2.0000000000000004
  endloop
 endfacet
 facet normal -0.9999996829318346 0.0007963267107332631 0.0
  outer loop
   vertex 0.0009283308903781791 12.41 0
   vertex -0.008953290396258418 0.001 0
   vertex -0.008953290396258418 0.001 2.0000000000000004
  endloop
 endfacet
 facet normal -0.9999996829318346 0.0007963267107332632 -1.8262163658818998e-19
  outer loop
   vertex -0.0013889805726013114 9.5 2.0000000000000004
   vertex 0.0009283308903781791 12.41 0
   vertex -0.008953290396258418 0.001 2.0000000000000004
  endloop
 endfacet
 facet normal -0.0 0.0 1.0
  outer loop
   vertex -0.0013889805726013114 9.5 2.0000000000000004
   vertex 19.422377925692004 0.001 2.0000000000000004
   vertex 25.52161568445221 9.5 2.0000000000000004
  endloop
 endfacet
 facet normal 0.0 0.0 1.0
  outer loop
   vertex -0.0013889805726013114 9.5 2.0000000000000004
   vertex -0.008953290396258418 0.001 2.0000000000000004
   vertex 19.422377925692004 0.001 2.0000000000000004
  endloop
 endfacet
 facet normal 0.0 0.0 -1.0
  outer loop
   vertex 30.84833495463545 12.59 0
   vertex 0.0009283308903781791 12.59 0
   vertex -0.008882417296531556 24.910000000000004 0
  endloop
 endfacet
 facet normal 0.0 0.0 -1.0
  outer loop
   vertex 30.84833495463545 12.59 0
   vertex -0.008882417296531556 24.910000000000004 0
   vertex 22.937753926324493 24.910000000000004 0
  endloop
 endfacet
 facet normal 0.0 -0.5664086240493009 0.8241245479917327
  outer loop
   vertex 0.0009283308903781791 12.59 0
   vertex 30.84833495463545 12.59 0
   vertex 25.521615684452215 15.5 2.0000000000000004
  endloop
 endfacet
 facet normal 3.942105745112447e-17 -0.5664086240493011 0.8241245479917325
  outer loop
   vertex -0.0013889805726013114 15.499999999999998 2.0000000000000004
   vertex 0.0009283308903781791 12.59 0
   vertex 25.521615684452215 15.5 2.0000000000000004
  endloop
 endfacet
 facet normal -0.9999996829318345 -0.0007963267107332631 -1.1264434584098804e-18
  outer loop
   vertex -0.008882417296531556 24.910000000000004 0
   vertex 0.0009283308903781791 12.59 0
   vertex -0.0013889805726013114 15.499999999999998 2.0000000000000004
  endloop
 endfacet
 facet normal -0.9999996829318346 -0.0007963267107332629 4.003206752195112e-19
  outer loop
   vertex -0.006565105833552066 22.000000000000004 2.0000000000000004
   vertex -0.008882417296531556 24.910000000000004 0
   vertex -0.0013889805726013114 15.499999999999998 2.0000000000000004
  endloop
 endfacet
 facet normal 0.0 0.5664086240493009 0.8241245479917327
  outer loop
   vertex 22.937753926324493 24.910000000000004 0
   vertex -0.008882417296531556 24.910000000000004 0
   vertex -0.006565105833552066 22.000000000000004 2.0000000000000004
  endloop
 endfacet
 facet normal 0.0 0.5664086240493009 0.8241245479917326
  outer loop
   vertex 21.34801368087906 22.000000000000004 2.0000000000000004
   vertex 22.937753926324493 24.910000000000004 0
   vertex -0.006565105833552066 22.000000000000004 2.0000000000000004
  endloop
 endfacet
 facet normal 0.4766164226824505 0.30603188563743733 0.824124547991733
  outer loop
   vertex 30.84833495463545 12.59 0
   vertex 22.937753926324493 24.910000000000004 0
   vertex 21.34801368087906 22.000000000000004 2.0000000000000004
  endloop
 endfacet
 facet normal 0.4766164226824508 0.3060318856374377 0.8241245479917325
  outer loop
   vertex 25.521615684452215 15.5 2.0000000000000004
   vertex 30.84833495463545 12.59 0
   vertex 21.34801368087906 22.000000000000004 2.0000000000000004
  endloop
 endfacet
 facet normal 0.0 0.0 1.0
  outer loop
   vertex 25.521615684452215 15.5 2.0000000000000004
   vertex -0.006565105833552066 22.000000000000004 2.0000000000000004
   vertex -0.0013889805726013114 15.499999999999998 2.0000000000000004
  endloop
 endfacet
 facet normal 0.0 0.0 1.0
  outer loop
   vertex 25.521615684452215 15.5 2.0000000000000004
   vertex 21.34801368087906 22.000000000000004 2.0000000000000004
   vertex -0.006565105833552066 22.000000000000004 2.0000000000000004
  endloop
 endfacet
 facet normal 0.0 0.0 -1.0
  outer loop
   vertex 31.06224607367551 12.41 0
   vertex 63.84833495463544 12.410000000000002 0
   vertex 55.880607683506334 0.001 0
  endloop
 endfacet
 facet normal 0.0 -0.0 -1.0
  outer loop
   vertex 31.06224607367551 12.41 0
   vertex 55.880607683506334 0.001 0
   vertex 23.094518802546396 0.001 0
  endloop
 endfacet
 facet normal -3.0688132301427554e-17 0.5664086240493011 0.8241245479917325
  outer loop
   vertex 63.84833495463544 12.410000000000002 0
   vertex 31.06224607367551 12.41 0
   vertex 32.65198631912094 9.500000000000002 2.0000000000000004
  endloop
 endfacet
 facet normal 0.0 0.5664086240493009 0.8241245479917326
  outer loop
   vertex 58.5216156844522 9.500000000000002 2.0000000000000004
   vertex 63.84833495463544 12.410000000000002 0
   vertex 32.65198631912094 9.500000000000002 2.0000000000000004
  endloop
 endfacet
 facet normal 0.47661642268245036 -0.30603188563743705 0.8241245479917331
  outer loop
   vertex 55.880607683506334 0.001 0
   vertex 63.84833495463544 12.410000000000002 0
   vertex 58.5216156844522 9.500000000000002 2.0000000000000004
  endloop
 endfacet
 facet normal 0.47661642268245047 -0.30603188563743705 0.8241245479917331
  outer loop
   vertex 52.422377925692 0.001 2.0000000000000004
   vertex 55.880607683506334 0.001 0
   vertex 58.5216156844522 9.500000000000002 2.0000000000000004
  endloop
 endfacet
 facet normal 0.0 -1.0 0.0
  outer loop
   vertex 23.094518802546396 0.001 0
   vertex 55.880607683506334 0.001 0
   vertex 52.422377925692 0.001 2.0000000000000004
  endloop
 endfacet
 facet normal 0.0 -1.0 -0.0
  outer loop
   vertex 26.55274856036073 0.001 2.0000000000000004
   vertex 23.094518802546396 0.001 0
   vertex 52.422377925692 0.001 2.0000000000000004
  endloop
 endfacet
 facet normal -0.47661642268245086 0.30603188563743766 0.8241245479917326
  outer loop
   vertex 31.06224607367551 12.41 0
   vertex 23.094518802546396 0.001 0
   vertex 26.55274856036073 0.001 2.0000000000000004
  endloop
 endfacet
 facet normal -0.4766164226824514 0.30603188563743783 0.8241245479917324
  outer loop
   vertex 32.65198631912094 9.500000000000002 2.0000000000000004
   vertex 31.06224607367551 12.41 0
   vertex 26.55274856036073 0.001 2.0000000000000004
  endloop
 endfacet
 facet normal -0.0 0.0 1.0
  outer loop
   vertex 32.65198631912094 9.500000000000002 2.0000000000000004
   vertex 52.422377925692 0.001 2.0000000000000004
   vertex 58.5216156844522 9.500000000000002 2.0000000000000004
  endloop
 endfacet
 facet normal 0.0 0.0 1.0
  outer loop
   vertex 32.65198631912094 9.500000000000002 2.0000000000000004
   vertex 26.55274856036073 0.001 2.0000000000000004
   vertex 52.422377925692 0.001 2.0000000000000004
  endloop
 endfacet
 facet normal -0.0 0.0 -1.0
  outer loop
   vertex 63.84833495463544 12.590000000000002 0
   vertex 31.06224607367551 12.59 0
   vertex 23.151665045364556 24.910000000000004 0
  endloop
 endfacet
 facet normal 0.0 0.0 -1.0
  outer loop
   vertex 63.84833495463544 12.590000000000002 0
   vertex 23.151665045364556 24.910000000000004 0
   vertex 55.93775392632448 24.910000000000004 0
  endloop
 endfacet
 facet normal 3.068813230142754e-17 -0.5664086240493008 0.8241245479917327
  outer loop
   vertex 31.06224607367551 12.59 0
   vertex 63.84833495463544 12.590000000000002 0
   vertex 58.5216156844522 15.500000000000002 2.0000000000000004
  endloop
 endfacet
 facet normal -3.889285845639622e-17 -0.5664086240493005 0.8241245479917331
  outer loop
   vertex 32.65198631912094 15.500000000000004 2.0000000000000004
   vertex 31.06224607367551 12.59 0
   vertex 58.5216156844522 15.500000000000002 2.0000000000000004
  endloop
 endfacet
 facet normal -0.476616422682451 -0.30603188563743755 0.8241245479917325
  outer loop
   vertex 23.151665045364556 24.910000000000004 0
   vertex 31.06224607367551 12.59 0
   vertex 32.65198631912094 15.500000000000004 2.0000000000000004
  endloop
 endfacet
 facet normal -0.476616422682451 -0.3060318856374375 0.8241245479917326
  outer loop
   vertex 28.47838431554779 22.000000000000004 2.0000000000000004
   vertex 23.151665045364556 24.910000000000004 0
   vertex 32.65198631912094 15.500000000000004 2.0000000000000004
  endloop
 endfacet
 facet normal 0.0 0.5664086240493009 0.8241245479917326
  outer loop
   vertex 55.93775392632448 24.910000000000004 0
   vertex 23.151665045364556 24.910000000000004 0
   vertex 28.47838431554779 22.000000000000004 2.0000000000000004
  endloop
 endfacet
 facet normal 0.0 0.5664086240493009 0.8241245479917326
  outer loop
   vertex 54.34801368087905 22.000000000000004 2.0000000000000004
   vertex 55.93775392632448 24.910000000000004 0
   vertex 28.47838431554779 22.000000000000004 2.0000000000000004
  endloop
 endfacet
 facet normal 0.47661642268245047 0.30603188563743733 0.824124547991733
  outer loop
   vertex 63.84833495463544 12.590000000000002 0
   vertex 55.93775392632448 24.910000000000004 0
   vertex 54.34801368087905 22.000000000000004 2.0000000000000004
  endloop
 endfacet
 facet normal 0.4766164226824504 0.3060318856374373 0.8241245479917331
  outer loop
   vertex 58.5216156844522 15.500000000000002 2.0000000000000004
   vertex 63.84833495463544 12.590000000000002 0
   vertex 54.34801368087905 22.000000000000004 2.0000000000000004
  endloop
 endfacet
 facet normal 0.0 0.0 1.0
  outer loop
   vertex 58.5216156844522 15.500000000000002 2.0000000000000004
   vertex 28.47838431554779 22.000000000000004 2.0000000000000004
   vertex 32.65198631912094 15.500000000000004 2.0000000000000004
  endloop
 endfacet
 facet normal 0.0 0.0 1.0
  outer loop
   vertex 58.5216156844522 15.500000000000002 2.0000000000000004
   vertex 54.34801368087905 22.000000000000004 2.0000000000000004
   vertex 28.47838431554779 22.000000000000004 2.0000000000000004
  endloop
 endfacet
 facet normal 0.0 0.0 -1.0
  outer loop
   vertex 64.0622460736755 12.41 0
   vertex 96.84833495463542 12.41 0
   vertex 88.88060768350631 0.001 0
  endloop
 endfacet
 facet normal 0.0 -0.0 -1.0
  outer loop
   vertex 64.0622460736755 12.41 0
   vertex 88.88060768350631 0.001 0
   vertex 56.09451880254639 0.001 0
  endloop
 endfacet
 facet normal 0.0 0.5664086240493009 0.8241245479917326
  outer loop
   vertex 96.84833495463542 12.41 0
   vertex 64.0622460736755 12.41 0
   vertex 65.65198631912094 9.5 2.0000000000000004
  endloop
 endfacet
 facet normal 0.0 0.566408624049301 0.8241245479917327
  outer loop
   vertex 91.52161568445219 9.5 2.0000000000000004
   vertex 96.84833495463542 12.41 0
   vertex 65.65198631912094 9.5 2.0000000000000004
  endloop
 endfacet
 facet normal 0.476616422682451 -0.3060318856374375 0.8241245479917325
  outer loop
   vertex 88.88060768350631 0.001 0
   vertex 96.84833495463542 12.41 0
   vertex 91.52161568445219 9.5 2.0000000000000004
  endloop
 endfacet
 facet normal 0.4766164226824504 -0.30603188563743744 0.8241245479917328
  outer loop
   vertex 85.42237792569198 0.001 2.0000000000000004
   vertex 88.88060768350631 0.001 0
   vertex 91.52161568445219 9.5 2.0000000000000004
  endloop
 endfacet
 facet normal 0.0 -1.0 0.0
  outer loop
   vertex 56.09451880254639 0.001 0
   vertex 88.88060768350631 0.001 0
   vertex 85.42237792569198 0.001 2.0000000000000004
  endloop
 endfacet
 facet normal 0.0 -1.0 -0.0
  outer loop
   vertex 59.552748560360726 0.001 2.0000000000000004
   vertex 56.09451880254639 0.001 0
   vertex 85.42237792569198 0.001 2.0000000000000004
  endloop
 endfacet
 facet normal -0.4766164226824505 0.30603188563743716 0.824124547991733
  outer loop
   vertex 64.0622460736755 12.41 0
   vertex 56.09451880254639 0.001 0
   vertex 59.552748560360726 0.001 2.0000000000000004
  endloop
 endfacet
 facet normal -0.4766164226824497 0.306031885637437 0.8241245479917335
  outer loop
   vertex 65.65198631912094 9.5 2.0000000000000004
   vertex 64.0622460736755 12.41 0
   vertex 59.552748560360726 0.001 2.0000000000000004
  endloop
 endfacet
 facet normal -0.0 0.0 1.0
  outer loop
   vertex 65.65198631912094 9.5 2.0000000000000004
   vertex 85.42237792569198 0.001 2.0000000000000004
   vertex 91.52161568445219 9.5 2.0000000000000004
  endloop
 endfacet
 facet normal 0.0 0.0 1.0
  outer loop
   vertex 65.65198631912094 9.5 2.0000000000000004
   vertex 59.552748560360726 0.001 2.0000000000000004
   vertex 85.42237792569198 0.001 2.0000000000000004
  endloop
 endfacet
 facet normal 0.0 0.0 -1.0
  outer loop
   vertex 96.84833495463546 12.59 0
   vertex 64.0622460736755 12.59 0
   vertex 56.151665045364545 24.909999999999993 0
  endloop
 endfacet
 facet normal 0.0 0.0 -1.0
  outer loop
   vertex 96.84833495463546 12.59 0
   vertex 56.151665045364545 24.909999999999993 0
   vertex 88.9377539263245 24.909999999999993 0
  endloop
 endfacet
 facet normal 0.0 -0.5664086240493009 0.8241245479917326
  outer loop
   vertex 64.0622460736755 12.59 0
   vertex 96.84833495463546 12.59 0
   vertex 91.52161568445221 15.5 2.0000000000000004
  endloop
 endfacet
 facet normal 0.0 -0.5664086240493009 0.8241245479917326
  outer loop
   vertex 65.65198631912094 15.5 2.0000000000000004
   vertex 64.0622460736755 12.59 0
   vertex 91.52161568445221 15.5 2.0000000000000004
  endloop
 endfacet
 facet normal -0.4766164226824499 -0.30603188563743694 0.8241245479917335
  outer loop
   vertex 56.151665045364545 24.909999999999993 0
   vertex 64.0622460736755 12.59 0
   vertex 65.65198631912094 15.5 2.0000000000000004
  endloop
 endfacet
 facet normal -0.47661642268245036 -0.3060318856374375 0.8241245479917331
  outer loop
   vertex 61.478384315547785 21.999999999999996 2.0000000000000004
   vertex 56.151665045364545 24.909999999999993 0
   vertex 65.65198631912094 15.5 2.0000000000000004
  endloop
 endfacet
 facet normal 0.0 0.5664086240493014 0.8241245479917323
  outer loop
   vertex 88.9377539263245 24.909999999999993 0
   vertex 56.151665045364545 24.909999999999993 0
   vertex 61.478384315547785 21.999999999999996 2.0000000000000004
  endloop
 endfacet
 facet normal 0.0 0.5664086240493014 0.8241245479917324
  outer loop
   vertex 87.34801368087906 21.999999999999996 2.0000000000000004
   vertex 88.9377539263245 24.909999999999993 0
   vertex 61.478384315547785 21.999999999999996 2.0000000000000004
  endloop
 endfacet
 facet normal 0.47661642268244986 0.30603188563743716 0.8241245479917334
  outer loop
   vertex 96.84833495463546 12.59 0
   vertex 88.9377539263245 24.909999999999993 0
   vertex 87.34801368087906 21.999999999999996 2.0000000000000004
  endloop
 endfacet
 facet normal 0.4766164226824499 0.3060318856374372 0.8241245479917333
  outer loop
   vertex 91.52161568445221 15.5 2.0000000000000004
   vertex 96.84833495463546 12.59 0
   vertex 87.34801368087906 21.999999999999996 2.0000000000000004
  endloop
 endfacet
 facet normal 0.0 0.0 1.0
  outer loop
   vertex 91.52161568445221 15.5 2.0000000000000004
   vertex 61.478384315547785 21.999999999999996 2.0000000000000004
   vertex 65.65198631912094 15.5 2.0000000000000004
  endloop
 endfacet
 facet normal 0.0 0.0 1.0
  outer loop
   vertex 91.52161568445221 15.5 2.0000000000000004
   vertex 87.34801368087906 21.999999999999996 2.0000000000000004
   vertex 61.478384315547785 21.999999999999996 2.0000000000000004
  endloop
 endfacet
 facet normal 0.0 0.0 -1.0
  outer loop
   vertex 97.06224607367548 12.41 0
   vertex 119.99892833025625 12.409999999999998 0
   vertex 119.98904670896961 0.001 0
  endloop
 endfacet
 facet normal 0.0 -0.0 -1.0
  outer loop
   vertex 97.06224607367548 12.41 0
   vertex 119.98904670896961 0.001 0
   vertex 89.09451880254638 0.001 0
  endloop
 endfacet
 facet normal 4.386614515430137e-17 0.5664086240493007 0.824124547991733
  outer loop
   vertex 119.99892833025625 12.409999999999998 0
   vertex 97.06224607367548 12.41 0
   vertex 98.65198631912091 9.499999999999998 2.0000000000000004
  endloop
 endfacet
 facet normal 0.0 0.5664086240493009 0.8241245479917327
  outer loop
   vertex 119.99661101879327 9.499999999999998 2.0000000000000004
   vertex 119.99892833025625 12.409999999999998 0
   vertex 98.65198631912091 9.499999999999998 2.0000000000000004
  endloop
 endfacet
 facet normal 0.9999996829318346 -0.0007963267107333897 -2.8277842973761958e-15
  outer loop
   vertex 119.98904670896961 0.001 0
   vertex 119.99892833025625 12.409999999999998 0
   vertex 119.99661101879327 9.499999999999998 2.0000000000000004
  endloop
 endfacet
 facet normal 0.9999996829318346 -0.0007963267107339851 0.0
  outer loop
   vertex 119.98904670896961 0.001 2.0000000000000004
   vertex 119.98904670896961 0.001 0
   vertex 119.99661101879327 9.499999999999998 2.0000000000000004
  endloop
 endfacet
 facet normal 0.0 -1.0 0.0
  outer loop
   vertex 89.09451880254638 0.001 0
   vertex 119.98904670896961 0.001 0
   vertex 119.98904670896961 0.001 2.0000000000000004
  endloop
 endfacet
 facet normal 0.0 -1.0 -0.0
  outer loop
   vertex 92.55274856036071 0.001 2.0000000000000004
   vertex 89.09451880254638 0.001 0
   vertex 119.98904670896961 0.001 2.0000000000000004
  endloop
 endfacet
 facet normal -0.4766164226824505 0.30603188563743716 0.824124547991733
  outer loop
   vertex 97.06224607367548 12.41 0
   vertex 89.09451880254638 0.001 0
   vertex 92.55274856036071 0.001 2.0000000000000004
  endloop
 endfacet
 facet normal -0.47661642268245147 0.3060318856374375 0.8241245479917324
  outer loop
   vertex 98.65198631912091 9.499999999999998 2.0000000000000004
   vertex 97.06224607367548 12.41 0
   vertex 92.55274856036071 0.001 2.0000000000000004
  endloop
 endfacet
 facet normal -0.0 0.0 1.0
  outer loop
   vertex 98.65198631912091 9.499999999999998 2.0000000000000004
   vertex 119.98904670896961 0.001 2.0000000000000004
   vertex 119.99661101879327 9.499999999999998 2.0000000000000004
  endloop
 endfacet
 facet normal 0.0 0.0 1.0
  outer loop
   vertex 98.65198631912091 9.499999999999998 2.0000000000000004
   vertex 92.55274856036071 0.001 2.0000000000000004
   vertex 119.98904670896961 0.001 2.0000000000000004
  endloop
 endfacet
 facet normal 0.0 0.0 -1.0
  outer loop
   vertex 119.99892833025623 12.589999999999998 0
   vertex 97.06224607367552 12.59 0
   vertex 89.15166504536455 24.91000000000001 0
  endloop
 endfacet
 facet normal 0.0 0.0 -1.0
  outer loop
   vertex 119.99892833025623 12.589999999999998 0
   vertex 89.15166504536455 24.91000000000001 0
   vertex 119.98911758206933 24.91000000000001 0
  endloop
 endfacet
 facet normal -4.386614515430149e-17 -0.5664086240493009 0.8241245479917327
  outer loop
   vertex 97.06224607367552 12.59 0
   vertex 119.99892833025623 12.589999999999998 0
   vertex 119.99661101879325 15.499999999999998 2.0000000000000004
  endloop
 endfacet
 facet normal 0.0 -0.5664086240493011 0.8241245479917325
  outer loop
   vertex 98.65198631912095 15.499999999999998 2.0000000000000004
   vertex 97.06224607367552 12.59 0
   vertex 119.99661101879325 15.499999999999998 2.0000000000000004
  endloop
 endfacet
 facet normal -0.4766164226824511 -0.30603188563743805 0.8241245479917324
  outer loop
   vertex 89.15166504536455 24.91000000000001 0
   vertex 97.06224607367552 12.59 0
   vertex 98.65198631912095 15.499999999999998 2.0000000000000004
  endloop
 endfacet
 facet normal -0.47661642268244986 -0.3060318856374366 0.8241245479917335
  outer loop
   vertex 94.4783843155478 22.000000000000007 2.0000000000000004
   vertex 89.15166504536455 24.91000000000001 0
   vertex 98.65198631912095 15.499999999999998 2.0000000000000004
  endloop
 endfacet
 facet normal 0.0 0.5664086240493005 0.8241245479917331
  outer loop
   vertex 119.98911758206933 24.91000000000001 0
   vertex 89.15166504536455 24.91000000000001 0
   vertex 94.4783843155478 22.000000000000007 2.0000000000000004
  endloop
 endfacet
 facet normal -7.887287567982746e-17 0.5664086240493009 0.8241245479917327
  outer loop
   vertex 119.9914348935323 22.00000000000001 2.0000000000000004
   vertex 119.98911758206933 24.91000000000001 0
   vertex 94.4783843155478 22.000000000000007 2.0000000000000004
  endloop
 endfacet
 facet normal 0.9999996829318346 0.0007963267107331103 2.4212902138520365e-15
  outer loop
   vertex 119.99892833025623 12.589999999999998 0
   vertex 119.98911758206933 24.91000000000001 0
   vertex 119.9914348935323 22.00000000000001 2.0000000000000004
  endloop
 endfacet
 facet normal 0.9999996829318346 0.0007963267107324139 5.6974972899491505e-15
  outer loop
   vertex 119.99661101879325 15.499999999999998 2.0000000000000004
   vertex 119.99892833025623 12.589999999999998 0
   vertex 119.9914348935323 22.00000000000001 2.0000000000000004
  endloop
 endfacet
 facet normal 0.0 0.0 1.0
  outer loop
   vertex 119.99661101879325 15.499999999999998 2.0000000000000004
   vertex 94.4783843155478 22.000000000000007 2.0000000000000004
   vertex 98.65198631912095 15.499999999999998 2.0000000000000004
  endloop
 endfacet
 facet normal 0.0 0.0 1.0
  outer loop
   vertex 119.99661101879325 15.499999999999998 2.0000000000000004
   vertex 119.9914348935323 22.00000000000001 2.0000000000000004
   vertex 94.4783843155478 22.000000000000007 2.0000000000000004
  endloop
 endfacet
 facet normal 0.0 0.0 -1.0
  outer loop
   vertex 0.0009283308903781734 37.41 0
   vertex 30.848334954635444 37.41 0
   vertex 22.937753926324493 25.090000000000003 0
  endloop
 endfacet
 facet normal 0.0 -0.0 -1.0
  outer loop
   vertex 0.0009283308903781734 37.41 0
   vertex 22.937753926324493 25.090000000000003 0
   vertex -0.008882417296531553 25.090000000000003 0
  endloop
 endfacet
 facet normal 0.0 0.5664086240493014 0.8241245479917324
  outer loop
   vertex 30.848334954635444 37.41 0
   vertex 0.0009283308903781734 37.41 0
   vertex -0.0013889805726013142 34.5 2.0000000000000004
  endloop
 endfacet
 facet normal 0.0 0.5664086240493014 0.8241245479917323
  outer loop
   vertex 25.52161568445221 34.5 2.0000000000000004
   vertex 30.848334954635444 37.41 0
   vertex -0.0013889805726013142 34.5 2.0000000000000004
  endloop
 endfacet
 facet normal 0.47661642268245086 -0.30603188563743755 0.8241245479917326
  outer loop
   vertex 22.937753926324493 25.090000000000003 0
   vertex 30.848334954635444 37.41 0
   vertex 25.52161568445221 34.5 2.0000000000000004
  endloop
 endfacet
 facet normal 0.4766164226824504 -0.30603188563743755 0.824124547991733
  outer loop
   vertex 21.34801368087906 28.000000000000004 2.0000000000000004
   vertex 22.937753926324493 25.090000000000003 0
   vertex 25.52161568445221 34.5 2.0000000000000004
  endloop
 endfacet
 facet normal 0.0 -0.5664086240493009 0.8241245479917327
  outer loop
   vertex -0.008882417296531553 25.090000000000003 0
   vertex 22.937753926324493 25.090000000000003 0
   vertex 21.34801368087906 28.000000000000004 2.0000000000000004
  endloop
 endfacet
 facet normal 0.0 -0.5664086240493009 0.8241245479917326
  outer loop
   vertex -0.006565105833552063 28.000000000000004 2.0000000000000004
   vertex -0.008882417296531553 25.090000000000003 0
   vertex 21.34801368087906 28.000000000000004 2.0000000000000004
  endloop
 endfacet
 facet normal -0.9999996829318346 0.0007963267107332632 -5.632217292049408e-19
  outer loop
   vertex 0.0009283308903781734 37.41 0
   vertex -0.008882417296531553 25.090000000000003 0
   vertex -0.006565105833552063 28.000000000000004 2.0000000000000004
  endloop
 endfacet
 facet normal -0.9999996829318346 0.0007963267107332632 1.334402250731706e-19
  outer loop
   vertex -0.0013889805726013142 34.5 2.0000000000000004
   vertex 0.0009283308903781734 37.41 0
   vertex -0.006565105833552063 28.000000000000004 2.0000000000000004
  endloop
 endfacet
 facet normal -0.0 0.0 1.0
  outer loop
   vertex -0.0013889805726013142 34.5 2.0000000000000004
   vertex 21.34801368087906 28.000000000000004 2.0000000000000004
   vertex 25.52161568445221 34.5 2.0000000000000004
  endloop
 endfacet
 facet normal 0.0 0.0 1.0
  outer loop
   vertex -0.0013889805726013142 34.5 2.0000000000000004
   vertex -0.006565105833552063 28.000000000000004 2.0000000000000004
   vertex 21.34801368087906 28.000000000000004 2.0000000000000004
  endloop
 endfacet
 facet normal 0.0 0.0 -1.0
  outer loop
   vertex 30.848334954635444 37.59 0
   vertex 0.0009283308903781734 37.59 0
   vertex -0.00888241729653156 49.910000000000004 0
  endloop
 endfacet
 facet normal 0.0 0.0 -1.0
  outer loop
   vertex 30.848334954635444 37.59 0
   vertex -0.00888241729653156 49.910000000000004 0
   vertex 22.93775392632449 49.910000000000004 0
  endloop
 endfacet
 facet normal 0.0 -0.5664086240493014 0.8241245479917324
  outer loop
   vertex 0.0009283308903781734 37.59 0
   vertex 30.848334954635444 37.59 0
   vertex 25.52161568445221 40.5 2.0000000000000004
  endloop
 endfacet
 facet normal 0.0 -0.5664086240493014 0.8241245479917323
  outer loop
   vertex -0.0013889805726013142 40.5 2.0000000000000004
   vertex 0.0009283308903781734 37.59 0
   vertex 25.52161568445221 40.5 2.0000000000000004
  endloop
 endfacet
 facet normal -0.9999996829318346 -0.0007963267107332633 0.0
  outer loop
   vertex -0.00888241729653156 49.910000000000004 0
   vertex 0.0009283308903781734 37.59 0
   vertex -0.0013889805726013142 40.5 2.0000000000000004
  endloop
 endfacet
 facet normal -0.9999996829318346 -0.0007963267107332632 1.3344022507317037e-19
  outer loop
   vertex -0.006565105833552072 47.00000000000001 2.0000000000000004
   vertex -0.00888241729653156 49.910000000000004 0
   vertex -0.0013889805726013142 40.5 2.0000000000000004
  endloop
 endfacet
 facet normal 0.0 0.5664086240493013 0.8241245479917324
  outer loop
   vertex 22.93775392632449 49.910000000000004 0
   vertex -0.00888241729653156 49.910000000000004 0
   vertex -0.006565105833552072 47.00000000000001 2.0000000000000004
  endloop
 endfacet
 facet normal 0.0 0.5664086240493014 0.8241245479917325
  outer loop
   vertex 21.348013680879056 47.00000000000001 2.0000000000000004
   vertex 22.93775392632449 49.910000000000004 0
   vertex -0.006565105833552072 47.00000000000001 2.0000000000000004
  endloop
 endfacet
 facet normal 0.4766164226824507 0.30603188563743744 0.8241245479917327
  outer loop
   vertex 30.848334954635444 37.59 0
   vertex 22.93775392632449 49.910000000000004 0
   vertex 21.348013680879056 47.00000000000001 2.0000000000000004
  endloop
 endfacet
 facet normal 0.47661642268245097 0.30603188563743766 0.8241245479917326
  outer loop
   vertex 25.52161568445221 40.5 2.0000000000000004
   vertex 30.848334954635444 37.59 0
   vertex 21.348013680879056 47.00000000000001 2.0000000000000004
  endloop
 endfacet
 facet normal 0.0 0.0 1.0
  outer loop
   vertex 25.52161568445221 40.5 2.0000000000000004
   vertex -0.006565105833552072 47.00000000000001 2.0000000000000004
   vertex -0.0013889805726013142 40.5 2.0000000000000004
  endloop
 endfacet
 facet normal 0.0 0.0 1.0
  outer loop
   vertex 25.52161568445221 40.5 2.0000000000000004
   vertex 21.348013680879056 47.00000000000001 2.0000000000000004
   vertex -0.006565105833552072 47.00000000000001 2.0000000000000004
  endloop
 endfacet
 facet normal 0.0 0.0 -1.0
  outer loop
   vertex 31.0622460736755 37.40999999999999 0
   vertex 63.84833495463544 37.40999999999999 0
   vertex 55.93775392632448 25.090000000000003 0
  endloop
 endfacet
 facet normal 0.0 -0.0 -1.0
  outer loop
   vertex 31.0622460736755 37.40999999999999 0
   vertex 55.93775392632448 25.090000000000003 0
   vertex 23.151665045364556 25.090000000000003 0
  endloop
 endfacet
 facet normal 0.0 0.5664086240493014 0.8241245479917324
  outer loop
   vertex 63.84833495463544 37.40999999999999 0
   vertex 31.0622460736755 37.40999999999999 0
   vertex 32.65198631912094 34.49999999999999 2.0000000000000004
  endloop
 endfacet
 facet normal 0.0 0.5664086240493014 0.8241245479917324
  outer loop
   vertex 58.5216156844522 34.49999999999999 2.0000000000000004
   vertex 63.84833495463544 37.40999999999999 0
   vertex 32.65198631912094 34.49999999999999 2.0000000000000004
  endloop
 endfacet
 facet normal 0.47661642268245036 -0.30603188563743766 0.8241245479917328
  outer loop
   vertex 55.93775392632448 25.090000000000003 0
   vertex 63.84833495463544 37.40999999999999 0
   vertex 58.5216156844522 34.49999999999999 2.0000000000000004
  endloop
 endfacet
 facet normal 0.4766164226824525 -0.306031885637438 0.8241245479917316
  outer loop
   vertex 54.34801368087906 28.0 2.0000000000000004
   vertex 55.93775392632448 25.090000000000003 0
   vertex 58.5216156844522 34.49999999999999 2.0000000000000004
  endloop
 endfacet
 facet normal 0.0 -0.5664086240493014 0.8241245479917323
  outer loop
   vertex 23.151665045364556 25.090000000000003 0
   vertex 55.93775392632448 25.090000000000003 0
   vertex 54.34801368087906 28.0 2.0000000000000004
  endloop
 endfacet
 facet normal -7.778571691279247e-17 -0.5664086240493009 0.8241245479917327
  outer loop
   vertex 28.47838431554779 28.000000000000004 2.0000000000000004
   vertex 23.151665045364556 25.090000000000003 0
   vertex 54.34801368087906 28.0 2.0000000000000004
  endloop
 endfacet
 facet normal -0.47661642268245114 0.30603188563743766 0.8241245479917325
  outer loop
   vertex 31.0622460736755 37.40999999999999 0
   vertex 23.151665045364556 25.090000000000003 0
   vertex 28.47838431554779 28.000000000000004 2.0000000000000004
  endloop
 endfacet
 facet normal -0.4766164226824502 0.3060318856374375 0.8241245479917331
  outer loop
   vertex 32.65198631912094 34.49999999999999 2.0000000000000004
   vertex 31.0622460736755 37.40999999999999 0
   vertex 28.47838431554779 28.000000000000004 2.0000000000000004
  endloop
 endfacet
 facet normal -0.0 0.0 1.0
  outer loop
   vertex 32.65198631912094 34.49999999999999 2.0000000000000004
   vertex 54.34801368087906 28.0 2.0000000000000004
   vertex 58.5216156844522 34.49999999999999 2.0000000000000004
  endloop
 endfacet
 facet normal 0.0 0.0 1.0
  outer loop
   vertex 32.65198631912094 34.49999999999999 2.0000000000000004
   vertex 28.47838431554779 28.000000000000004 2.0000000000000004
   vertex 54.34801368087906 28.0 2.0000000000000004
  endloop
 endfacet
 facet normal 0.0 0.0 -1.0
  outer loop
   vertex 63.84833495463544 37.589999999999996 0
   vertex 31.06224607367551 37.589999999999996 0
   vertex 23.151665045364552 49.910000000000004 0
  endloop
 endfacet
 facet normal 0.0 0.0 -1.0
  outer loop
   vertex 63.84833495463544 37.589999999999996 0
   vertex 23.151665045364552 49.910000000000004 0
   vertex 55.93775392632448 49.91 0
  endloop
 endfacet
 facet normal 0.0 -0.5664086240493014 0.8241245479917323
  outer loop
   vertex 31.06224607367551 37.589999999999996 0
   vertex 63.84833495463544 37.589999999999996 0
   vertex 58.5216156844522 40.49999999999999 2.0000000000000004
  endloop
 endfacet
 facet normal 0.0 -0.5664086240493015 0.8241245479917324
  outer loop
   vertex 32.651986319120944 40.49999999999999 2.0000000000000004
   vertex 31.06224607367551 37.589999999999996 0
   vertex 58.5216156844522 40.49999999999999 2.0000000000000004
  endloop
 endfacet
 facet normal -0.4766164226824508 -0.30603188563743744 0.8241245479917326
  outer loop
   vertex 23.151665045364552 49.910000000000004 0
   vertex 31.06224607367551 37.589999999999996 0
   vertex 32.651986319120944 40.49999999999999 2.0000000000000004
  endloop
 endfacet
 facet normal -0.47661642268245086 -0.3060318856374375 0.8241245479917326
  outer loop
   vertex 28.478384315547785 47.00000000000001 2.0000000000000004
   vertex 23.151665045364552 49.910000000000004 0
   vertex 32.651986319120944 40.49999999999999 2.0000000000000004
  endloop
 endfacet
 facet normal 1.2275252920571031e-16 0.5664086240493015 0.8241245479917323
  outer loop
   vertex 55.93775392632448 49.91 0
   vertex 23.151665045364552 49.910000000000004 0
   vertex 28.478384315547785 47.00000000000001 2.0000000000000004
  endloop
 endfacet
 facet normal 1.5557143382558512e-16 0.5664086240493014 0.8241245479917324
  outer loop
   vertex 54.34801368087905 47.0 2.0000000000000004
   vertex 55.93775392632448 49.91 0
   vertex 28.478384315547785 47.00000000000001 2.0000000000000004
  endloop
 endfacet
 facet normal 0.4766164226824506 0.3060318856374375 0.8241245479917328
  outer loop
   vertex 63.84833495463544 37.589999999999996 0
   vertex 55.93775392632448 49.91 0
   vertex 54.34801368087905 47.0 2.0000000000000004
  endloop
 endfacet
 facet normal 0.47661642268245014 0.3060318856374369 0.8241245479917334
  outer loop
   vertex 58.5216156844522 40.49999999999999 2.0000000000000004
   vertex 63.84833495463544 37.589999999999996 0
   vertex 54.34801368087905 47.0 2.0000000000000004
  endloop
 endfacet
 facet normal 0.0 0.0 1.0
  outer loop
   vertex 58.5216156844522 40.49999999999999 2.0000000000000004
   vertex 28.478384315547785 47.00000000000001 2.0000000000000004
   vertex 32.651986319120944 40.49999999999999 2.0000000000000004
  endloop
 endfacet
 facet normal 0.0 0.0 1.0
  outer loop
   vertex 58.5216156844522 40.49999999999999 2.0000000000000004
   vertex 54.34801368087905 47.0 2.0000000000000004
   vertex 28.478384315547785 47.00000000000001 2.0000000000000004
  endloop
 endfacet
 facet normal 0.0 0.0 -1.0
  outer loop
   vertex 64.0622460736755 37.41 0
   vertex 96.84833495463543 37.41 0
   vertex 88.93775392632449 25.089999999999993 0
  endloop
 endfacet
 facet normal 0.0 -0.0 -1.0
  outer loop
   vertex 64.0622460736755 37.41 0
   vertex 88.93775392632449 25.089999999999993 0
   vertex 56.151665045364545 25.089999999999993 0
  endloop
 endfacet
 facet normal 0.0 0.5664086240493014 0.8241245479917324
  outer loop
   vertex 96.84833495463543 37.41 0
   vertex 64.0622460736755 37.41 0
   vertex 65.65198631912094 34.5 2.0000000000000004
  endloop
 endfacet
 facet normal 0.0 0.5664086240493014 0.8241245479917324
  outer loop
   vertex 91.5216156844522 34.5 2.0000000000000004
   vertex 96.84833495463543 37.41 0
   vertex 65.65198631912094 34.5 2.0000000000000004
  endloop
 endfacet
 facet normal 0.47661642268245064 -0.3060318856374369 0.824124547991733
  outer loop
   vertex 88.93775392632449 25.089999999999993 0
   vertex 96.84833495463543 37.41 0
   vertex 91.5216156844522 34.5 2.0000000000000004
  endloop
 endfacet
 facet normal 0.47661642268245 -0.3060318856374368 0.8241245479917333
  outer loop
   vertex 87.34801368087905 27.999999999999993 2.0000000000000004
   vertex 88.93775392632449 25.089999999999993 0
   vertex 91.5216156844522 34.5 2.0000000000000004
  endloop
 endfacet
 facet normal 0.0 -0.5664086240493009 0.8241245479917326
  outer loop
   vertex 56.151665045364545 25.089999999999993 0
   vertex 88.93775392632449 25.089999999999993 0
   vertex 87.34801368087905 27.999999999999993 2.0000000000000004
  endloop
 endfacet
 facet normal 0.0 -0.5664086240493009 0.8241245479917326
  outer loop
   vertex 61.478384315547785 27.999999999999993 2.0000000000000004
   vertex 56.151665045364545 25.089999999999993 0
   vertex 87.34801368087905 27.999999999999993 2.0000000000000004
  endloop
 endfacet
 facet normal -0.4766164226824503 0.30603188563743694 0.8241245479917332
  outer loop
   vertex 64.0622460736755 37.41 0
   vertex 56.151665045364545 25.089999999999993 0
   vertex 61.478384315547785 27.999999999999993 2.0000000000000004
  endloop
 endfacet
 facet normal -0.47661642268245025 0.30603188563743694 0.8241245479917332
  outer loop
   vertex 65.65198631912094 34.5 2.0000000000000004
   vertex 64.0622460736755 37.41 0
   vertex 61.478384315547785 27.999999999999993 2.0000000000000004
  endloop
 endfacet
 facet normal -0.0 0.0 1.0
  outer loop
   vertex 65.65198631912094 34.5 2.0000000000000004
   vertex 87.34801368087905 27.999999999999993 2.0000000000000004
   vertex 91.5216156844522 34.5 2.0000000000000004
  endloop
 endfacet
 facet normal 0.0 0.0 1.0
  outer loop
   vertex 65.65198631912094 34.5 2.0000000000000004
   vertex 61.478384315547785 27.999999999999993 2.0000000000000004
   vertex 87.34801368087905 27.999999999999993 2.0000000000000004
  endloop
 endfacet
 facet normal 0.0 0.0 -1.0
  outer loop
   vertex 96.84833495463543 37.59 0
   vertex 64.0622460736755 37.59 0
   vertex 56.15166504536456 49.90999999999998 0
  endloop
 endfacet
 facet normal 0.0 0.0 -1.0
  outer loop
   vertex 96.84833495463543 37.59 0
   vertex 56.15166504536456 49.90999999999998 0
   vertex 88.93775392632449 49.90999999999998 0
  endloop
 endfacet
 facet normal 0.0 -0.5664086240493014 0.8241245479917324
  outer loop
   vertex 64.0622460736755 37.59 0
   vertex 96.84833495463543 37.59 0
   vertex 91.5216156844522 40.5 2.0000000000000004
  endloop
 endfacet
 facet normal 0.0 -0.5664086240493014 0.8241245479917324
  outer loop
   vertex 65.65198631912094 40.5 2.0000000000000004
   vertex 64.0622460736755 37.59 0
   vertex 91.5216156844522 40.5 2.0000000000000004
  endloop
 endfacet
 facet normal -0.4766164226824502 -0.30603188563743694 0.8241245479917333
  outer loop
   vertex 56.15166504536456 49.90999999999998 0
   vertex 64.0622460736755 37.59 0
   vertex 65.65198631912094 40.5 2.0000000000000004
  endloop
 endfacet
 facet normal -0.4766164226824511 -0.30603188563743794 0.8241245479917325
  outer loop
   vertex 61.47838431554779 46.999999999999986 2.0000000000000004
   vertex 56.15166504536456 49.90999999999998 0
   vertex 65.65198631912094 40.5 2.0000000000000004
  endloop
 endfacet
 facet normal 0.0 0.5664086240493014 0.8241245479917323
  outer loop
   vertex 88.93775392632449 49.90999999999998 0
   vertex 56.15166504536456 49.90999999999998 0
   vertex 61.47838431554779 46.999999999999986 2.0000000000000004
  endloop
 endfacet
 facet normal 0.0 0.5664086240493015 0.8241245479917324
  outer loop
   vertex 87.34801368087906 46.999999999999986 2.0000000000000004
   vertex 88.93775392632449 49.90999999999998 0
   vertex 61.47838431554779 46.999999999999986 2.0000000000000004
  endloop
 endfacet
 facet normal 0.4766164226824514 0.306031885637438 0.8241245479917323
  outer loop
   vertex 96.84833495463543 37.59 0
   vertex 88.93775392632449 49.90999999999998 0
   vertex 87.34801368087906 46.999999999999986 2.0000000000000004
  endloop
 endfacet
 facet normal 0.47661642268245086 0.3060318856374373 0.8241245479917328
  outer loop
   vertex 91.5216156844522 40.5 2.0000000000000004
   vertex 96.84833495463543 37.59 0
   vertex 87.34801368087906 46.999999999999986 2.0000000000000004
  endloop
 endfacet
 facet normal 0.0 0.0 1.0
  outer loop
   vertex 91.5216156844522 40.5 2.0000000000000004
   vertex 61.47838431554779 46.999999999999986 2.0000000000000004
   vertex 65.65198631912094 40.5 2.0000000000000004
  endloop
 endfacet
 facet normal 0.0 0.0 1.0
  outer loop
   vertex 91.5216156844522 40.5 2.0000000000000004
   vertex 87.34801368087906 46.999999999999986 2.0000000000000004
   vertex 61.47838431554779 46.999999999999986 2.0000000000000004
  endloop
 endfacet
 facet normal 0.0 0.0 -1.0
  outer loop
   vertex 97.0622460736755 37.410000000000004 0
   vertex 119.99892833025623 37.410000000000004 0
   vertex 119.98911758206933 25.09000000000001 0
  endloop
 endfacet
 facet normal 0.0 -0.0 -1.0
  outer loop
   vertex 97.0622460736755 37.410000000000004 0
   vertex 119.98911758206933 25.09000000000001 0
   vertex 89.15166504536455 25.09000000000001 0
  endloop
 endfacet
 facet normal 0.0 0.5664086240493014 0.8241245479917323
  outer loop
   vertex 119.99892833025623 37.410000000000004 0
   vertex 97.0622460736755 37.410000000000004 0
   vertex 98.65198631912094 34.50000000000001 2.0000000000000004
  endloop
 endfacet
 facet normal 0.0 0.5664086240493014 0.8241245479917324
  outer loop
   vertex 119.99661101879325 34.50000000000001 2.0000000000000004
   vertex 119.99892833025623 37.410000000000004 0
   vertex 98.65198631912094 34.50000000000001 2.0000000000000004
  endloop
 endfacet
 facet normal 0.9999996829318346 -0.0007963267107331116 4.6843151217974926e-15
  outer loop
   vertex 119.98911758206933 25.09000000000001 0
   vertex 119.99892833025623 37.410000000000004 0
   vertex 119.99661101879325 34.50000000000001 2.0000000000000004
  endloop
 endfacet
 facet normal 0.9999996829318346 -0.0007963267107324163 1.4128651030747308e-15
  outer loop
   vertex 119.9914348935323 28.000000000000014 2.0000000000000004
   vertex 119.98911758206933 25.09000000000001 0
   vertex 119.99661101879325 34.50000000000001 2.0000000000000004
  endloop
 endfacet
 facet normal 0.0 -0.5664086240493005 0.8241245479917331
  outer loop
   vertex 89.15166504536455 25.09000000000001 0
   vertex 119.98911758206933 25.09000000000001 0
   vertex 119.9914348935323 28.000000000000014 2.0000000000000004
  endloop
 endfacet
 facet normal 7.887287567982742e-17 -0.5664086240493009 0.8241245479917326
  outer loop
   vertex 94.47838431554779 28.00000000000001 2.0000000000000004
   vertex 89.15166504536455 25.09000000000001 0
   vertex 119.9914348935323 28.000000000000014 2.0000000000000004
  endloop
 endfacet
 facet normal -0.476616422682451 0.3060318856374374 0.8241245479917326
  outer loop
   vertex 97.0622460736755 37.410000000000004 0
   vertex 89.15166504536455 25.09000000000001 0
   vertex 94.47838431554779 28.00000000000001 2.0000000000000004
  endloop
 endfacet
 facet normal -0.47661642268244986 0.30603188563743716 0.8241245479917333
  outer loop
   vertex 98.65198631912094 34.50000000000001 2.0000000000000004
   vertex 97.0622460736755 37.410000000000004 0
   vertex 94.47838431554779 28.00000000000001 2.0000000000000004
  endloop
 endfacet
 facet normal -0.0 0.0 1.0
  outer loop
   vertex 98.65198631912094 34.50000000000001 2.0000000000000004
   vertex 119.9914348935323 28.000000000000014 2.0000000000000004
   vertex 119.99661101879325 34.50000000000001 2.0000000000000004
  endloop
 endfacet
 facet normal 0.0 0.0 1.0
  outer loop
   vertex 98.65198631912094 34.50000000000001 2.0000000000000004
   vertex 94.47838431554779 28.00000000000001 2.0000000000000004
   vertex 119.9914348935323 28.000000000000014 2.0000000000000004
  endloop
 endfacet
 facet normal 0.0 0.0 -1.0
  outer loop
   vertex 119.99892833025625 37.59000000000001 0
   vertex 97.0622460736755 37.59000000000001 0
   vertex 89.15166504536452 49.91000000000002 0
  endloop
 endfacet
 facet normal 0.0 0.0 -1.0
  outer loop
   vertex 119.99892833025625 37.59000000000001 0
   vertex 89.15166504536452 49.91000000000002 0
   vertex 119.98911758206934 49.91000000000002 0
  endloop
 endfacet
 facet normal 0.0 -0.5664086240493013 0.8241245479917323
  outer loop
   vertex 97.0622460736755 37.59000000000001 0
   vertex 119.99892833025625 37.59000000000001 0
   vertex 119.99661101879327 40.50000000000001 2.0000000000000004
  endloop
 endfacet
 facet normal 0.0 -0.5664086240493014 0.8241245479917324
  outer loop
   vertex 98.65198631912094 40.50000000000001 2.0000000000000004
   vertex 97.0622460736755 37.59000000000001 0
   vertex 119.99661101879327 40.50000000000001 2.0000000000000004
  endloop
 endfacet
 facet normal -0.47661642268244975 -0.30603188563743733 0.8241245479917333
  outer loop
   vertex 89.15166504536452 49.91000000000002 0
   vertex 97.0622460736755 37.59000000000001 0
   vertex 98.65198631912094 40.50000000000001 2.0000000000000004
  endloop
 endfacet
 facet normal -0.4766164226824515 -0.3060318856374395 0.8241245479917316
  outer loop
   vertex 94.47838431554776 47.00000000000002 2.0000000000000004
   vertex 89.15166504536452 49.91000000000002 0
   vertex 98.65198631912094 40.50000000000001 2.0000000000000004
  endloop
 endfacet
 facet normal 0.0 0.5664086240493014 0.8241245479917323
  outer loop
   vertex 119.98911758206934 49.91000000000002 0
   vertex 89.15166504536452 49.91000000000002 0
   vertex 94.47838431554776 47.00000000000002 2.0000000000000004
  endloop
 endfacet
 facet normal 0.0 0.5664086240493015 0.8241245479917324
  outer loop
   vertex 119.99143489353233 47.00000000000002 2.0000000000000004
   vertex 119.98911758206934 49.91000000000002 0
   vertex 94.47838431554776 47.00000000000002 2.0000000000000004
  endloop
 endfacet
 facet normal 0.9999996829318345 0.0007963267107331106 -4.6854415652558966e-15
  outer loop
   vertex 119.99892833025625 37.59000000000001 0
   vertex 119.98911758206934 49.91000000000002 0
   vertex 119.99143489353233 47.00000000000002 2.0000000000000004
  endloop
 endfacet
 facet normal 0.9999996829318346 0.0007963267107324137 -1.4063265320461409e-15
  outer loop
   vertex 119.99661101879327 40.50000000000001 2.0000000000000004
   vertex 119.99892833025625 37.59000000000001 0
   vertex 119.99143489353233 47.00000000000002 2.0000000000000004
  endloop
 endfacet
 facet normal 0.0 0.0 1.0
  outer loop
   vertex 119.99661101879327 40.50000000000001 2.0000000000000004
   vertex 94.47838431554776 47.00000000000002 2.0000000000000004
   vertex 98.65198631912094 40.50000000000001 2.0000000000000004
  endloop
 endfacet
 facet normal 0.0 0.0 1.0
  outer loop
   vertex 119.99661101879327 40.50000000000001 2.0000000000000004
   vertex 119.99143489353233 47.00000000000002 2.0000000000000004
   vertex 94.47838431554776 47.00000000000002 2.0000000000000004
  endloop
 endfacet
 facet normal 0.0 0.0 -1.0
  outer loop
   vertex 0.0009283308903781677 62.40999999999999 0
   vertex 30.848334954635444 62.40999999999999 0
   vertex 22.937753926324497 50.09000000000001 0
  endloop
 endfacet
 facet normal 0.0 -0.0 -1.0
  outer loop
   vertex 0.0009283308903781677 62.40999999999999 0
   vertex 22.937753926324497 50.09000000000001 0
   vertex -0.008882417296531553 50.09000000000001 0
  endloop
 endfacet
 facet normal 0.0 0.5664086240493024 0.8241245479917317
  outer loop
   vertex 30.848334954635444 62.40999999999999 0
   vertex 0.0009283308903781677 62.40999999999999 0
   vertex -0.0013889805726013198 59.5 2.0000000000000004
  endloop
 endfacet
 facet normal 0.0 0.5664086240493024 0.8241245479917316
  outer loop
   vertex 25.52161568445221 59.5 2.0000000000000004
   vertex 30.848334954635444 62.40999999999999 0
   vertex -0.0013889805726013198 59.5 2.0000000000000004
  endloop
 endfacet
 facet normal 0.47661642268245064 -0.3060318856374376 0.8241245479917327
  outer loop
   vertex 22.937753926324497 50.09000000000001 0
   vertex 30.848334954635444 62.40999999999999 0
   vertex 25.52161568445221 59.5 2.0000000000000004
  endloop
 endfacet
 facet normal 0.4766164226824512 -0.3060318856374377 0.8241245479917325
  outer loop
   vertex 21.348013680879067 53.00000000000001 2.0000000000000004
   vertex 22.937753926324497 50.09000000000001 0
   vertex 25.52161568445221 59.5 2.0000000000000004
  endloop
 endfacet
 facet normal 0.0 -0.5664086240493014 0.8241245479917324
  outer loop
   vertex -0.008882417296531553 50.09000000000001 0
   vertex 22.937753926324497 50.09000000000001 0
   vertex 21.348013680879067 53.00000000000001 2.0000000000000004
  endloop
 endfacet
 facet normal 0.0 -0.5664086240493014 0.8241245479917324
  outer loop
   vertex -0.006565105833552066 53.00000000000001 2.0000000000000004
   vertex -0.008882417296531553 50.09000000000001 0
   vertex 21.348013680879067 53.00000000000001 2.0000000000000004
  endloop
 endfacet
 facet normal -0.9999996829318346 0.0007963267107332637 -5.632217292049415e-19
  outer loop
   vertex 0.0009283308903781677 62.40999999999999 0
   vertex -0.008882417296531553 50.09000000000001 0
   vertex -0.006565105833552066 53.00000000000001 2.0000000000000004
  endloop
 endfacet
 facet normal -0.9999996829318346 0.0007963267107332631 -2.8022447265365836e-18
  outer loop
   vertex -0.0013889805726013198 59.5 2.0000000000000004
   vertex 0.0009283308903781677 62.40999999999999 0
   vertex -0.006565105833552066 53.00000000000001 2.0000000000000004
  endloop
 endfacet
 facet normal -0.0 0.0 1.0
  outer loop
   vertex -0.0013889805726013198 59.5 2.0000000000000004
   vertex 21.348013680879067 53.00000000000001 2.0000000000000004
   vertex 25.52161568445221 59.5 2.0000000000000004
  endloop
 endfacet
 facet normal 0.0 0.0 1.0
  outer loop
   vertex -0.0013889805726013198 59.5 2.0000000000000004
   vertex -0.006565105833552066 53.00000000000001 2.0000000000000004
   vertex 21.348013680879067 53.00000000000001 2.0000000000000004
  endloop
 endfacet
 facet normal 0.0 0.0 -1.0
  outer loop
   vertex 30.84833495463546 62.59 0
   vertex 0.0009283308903781791 62.59 0
   vertex -0.00895329039625841 74.999 0
  endloop
 endfacet
 facet normal 0.0 0.0 -1.0
  outer loop
   vertex 30.84833495463546 62.59 0
   vertex -0.00895329039625841 74.999 0
   vertex 22.88060768350636 74.999 0
  endloop
 endfacet
 facet normal 0.0 -0.5664086240493014 0.8241245479917324
  outer loop
   vertex 0.0009283308903781791 62.59 0
   vertex 30.84833495463546 62.59 0
   vertex 25.52161568445223 65.5 2.0000000000000004
  endloop
 endfacet
 facet normal 0.0 -0.5664086240493014 0.8241245479917323
  outer loop
   vertex -0.0013889805726013085 65.5 2.0000000000000004
   vertex 0.0009283308903781791 62.59 0
   vertex 25.52161568445223 65.5 2.0000000000000004
  endloop
 endfacet
 facet normal -0.9999996829318346 -0.0007963267107332631 5.591821825936716e-19
  outer loop
   vertex -0.00895329039625841 74.999 0
   vertex 0.0009283308903781791 62.59 0
   vertex -0.0013889805726013085 65.5 2.0000000000000004
  endloop
 endfacet
 facet normal -0.9999996829318346 -0.0007963267107332633 -0.0
  outer loop
   vertex -0.00895329039625841 74.999 2.0000000000000004
   vertex -0.00895329039625841 74.999 0
   vertex -0.0013889805726013085 65.5 2.0000000000000004
  endloop
 endfacet
 facet normal 0.0 1.0 0.0
  outer loop
   vertex 22.88060768350636 74.999 0
   vertex -0.00895329039625841 74.999 0
   vertex -0.00895329039625841 74.999 2.0000000000000004
  endloop
 endfacet
 facet normal 0.0 1.0 0.0
  outer loop
   vertex 19.422377925692025 74.999 2.0000000000000004
   vertex 22.88060768350636 74.999 0
   vertex -0.00895329039625841 74.999 2.0000000000000004
  endloop
 endfacet
 facet normal 0.47661642268245097 0.30603188563743755 0.8241245479917327
  outer loop
   vertex 30.84833495463546 62.59 0
   vertex 22.88060768350636 74.999 0
   vertex 19.422377925692025 74.999 2.0000000000000004
  endloop
 endfacet
 facet normal 0.47661642268245086 0.30603188563743755 0.8241245479917327
  outer loop
   vertex 25.52161568445223 65.5 2.0000000000000004
   vertex 30.84833495463546 62.59 0
   vertex 19.422377925692025 74.999 2.0000000000000004
  endloop
 endfacet
 facet normal 0.0 0.0 1.0
  outer loop
   vertex 25.52161568445223 65.5 2.0000000000000004
   vertex -0.00895329039625841 74.999 2.0000000000000004
   vertex -0.0013889805726013085 65.5 2.0000000000000004
  endloop
 endfacet
 facet normal 0.0 0.0 1.0
  outer loop
   vertex 25.52161568445223 65.5 2.0000000000000004
   vertex 19.422377925692025 74.999 2.0000000000000004
   vertex -0.00895329039625841 74.999 2.0000000000000004
  endloop
 endfacet
 facet normal 0.0 0.0 -1.0
  outer loop
   vertex 31.062246073675507 62.40999999999999 0
   vertex 63.84833495463542 62.410000000000004 0
   vertex 55.93775392632447 50.09000000000001 0
  endloop
 endfacet
 facet normal 0.0 -0.0 -1.0
  outer loop
   vertex 31.062246073675507 62.40999999999999 0
   vertex 55.93775392632447 50.09000000000001 0
   vertex 23.15166504536456 50.09000000000001 0
  endloop
 endfacet
 facet normal -2.4550505841142107e-16 0.5664086240493023 0.8241245479917318
  outer loop
   vertex 63.84833495463542 62.410000000000004 0
   vertex 31.062246073675507 62.40999999999999 0
   vertex 32.65198631912094 59.5 2.0000000000000004
  endloop
 endfacet
 facet normal -1.555714338255853e-16 0.5664086240493016 0.8241245479917323
  outer loop
   vertex 58.521615684452186 59.50000000000001 2.0000000000000004
   vertex 63.84833495463542 62.410000000000004 0
   vertex 32.65198631912094 59.5 2.0000000000000004
  endloop
 endfacet
 facet normal 0.47661642268245086 -0.30603188563743755 0.8241245479917326
  outer loop
   vertex 55.93775392632447 50.09000000000001 0
   vertex 63.84833495463542 62.410000000000004 0
   vertex 58.521615684452186 59.50000000000001 2.0000000000000004
  endloop
 endfacet
 facet normal 0.47661642268245175 -0.3060318856374377 0.8241245479917321
  outer loop
   vertex 54.34801368087904 53.00000000000001 2.0000000000000004
   vertex 55.93775392632447 50.09000000000001 0
   vertex 58.521615684452186 59.50000000000001 2.0000000000000004
  endloop
 endfacet
 facet normal 0.0 -0.5664086240493014 0.8241245479917323
  outer loop
   vertex 23.15166504536456 50.09000000000001 0
   vertex 55.93775392632447 50.09000000000001 0
   vertex 54.34801368087904 53.00000000000001 2.0000000000000004
  endloop
 endfacet
 facet normal 0.0 -0.5664086240493014 0.8241245479917323
  outer loop
   vertex 28.478384315547792 53.00000000000001 2.0000000000000004
   vertex 23.15166504536456 50.09000000000001 0
   vertex 54.34801368087904 53.00000000000001 2.0000000000000004
  endloop
 endfacet
 facet normal -0.4766164226824511 0.3060318856374379 0.8241245479917324
  outer loop
   vertex 31.062246073675507 62.40999999999999 0
   vertex 23.15166504536456 50.09000000000001 0
   vertex 28.478384315547792 53.00000000000001 2.0000000000000004
  endloop
 endfacet
 facet normal -0.4766164226824516 0.30603188563743794 0.8241245479917321
  outer loop
   vertex 32.65198631912094 59.5 2.0000000000000004
   vertex 31.062246073675507 62.40999999999999 0
   vertex 28.478384315547792 53.00000000000001 2.0000000000000004
  endloop
 endfacet
 facet normal -0.0 0.0 1.0
  outer loop
   vertex 32.65198631912094 59.5 2.0000000000000004
   vertex 54.34801368087904 53.00000000000001 2.0000000000000004
   vertex 58.521615684452186 59.50000000000001 2.0000000000000004
  endloop
 endfacet
 facet normal 0.0 0.0 1.0
  outer loop
   vertex 32.65198631912094 59.5 2.0000000000000004
   vertex 28.478384315547792 53.00000000000001 2.0000000000000004
   vertex 54.34801368087904 53.00000000000001 2.0000000000000004
  endloop
 endfacet
 facet normal 0.0 0.0 -1.0
  outer loop
   vertex 63.84833495463542 62.59 0
   vertex 31.062246073675524 62.59 0
   vertex 23.09451880254641 74.99900000000001 0
  endloop
 endfacet
 facet normal 0.0 0.0 -1.0
  outer loop
   vertex 63.84833495463542 62.59 0
   vertex 23.09451880254641 74.99900000000001 0
   vertex 55.880607683506305 74.99900000000001 0
  endloop
 endfacet
 facet normal 0.0 -0.5664086240493014 0.8241245479917324
  outer loop
   vertex 31.062246073675524 62.59 0
   vertex 63.84833495463542 62.59 0
   vertex 58.521615684452186 65.5 2.0000000000000004
  endloop
 endfacet
 facet normal 0.0 -0.5664086240493014 0.8241245479917323
  outer loop
   vertex 32.65198631912096 65.5 2.0000000000000004
   vertex 31.062246073675524 62.59 0
   vertex 58.521615684452186 65.5 2.0000000000000004
  endloop
 endfacet
 facet normal -0.4766164226824508 -0.3060318856374375 0.8241245479917328
  outer loop
   vertex 23.09451880254641 74.99900000000001 0
   vertex 31.062246073675524 62.59 0
   vertex 32.65198631912096 65.5 2.0000000000000004
  endloop
 endfacet
 facet normal -0.47661642268245086 -0.3060318856374376 0.8241245479917327
  outer loop
   vertex 26.552748560360744 74.99900000000001 2.0000000000000004
   vertex 23.09451880254641 74.99900000000001 0
   vertex 32.65198631912096 65.5 2.0000000000000004
  endloop
 endfacet
 facet normal 0.0 1.0 0.0
  outer loop
   vertex 55.880607683506305 74.99900000000001 0
   vertex 23.09451880254641 74.99900000000001 0
   vertex 26.552748560360744 74.99900000000001 2.0000000000000004
  endloop
 endfacet
 facet normal 0.0 1.0 0.0
  outer loop
   vertex 52.42237792569197 74.99900000000001 2.0000000000000004
   vertex 55.880607683506305 74.99900000000001 0
   vertex 26.552748560360744 74.99900000000001 2.0000000000000004
  endloop
 endfacet
 facet normal 0.4766164226824505 0.30603188563743733 0.824124547991733
  outer loop
   vertex 63.84833495463542 62.59 0
   vertex 55.880607683506305 74.99900000000001 0
   vertex 52.42237792569197 74.99900000000001 2.0000000000000004
  endloop
 endfacet
 facet normal 0.47661642268245086 0.3060318856374378 0.8241245479917325
  outer loop
   vertex 58.521615684452186 65.5 2.0000000000000004
   vertex 63.84833495463542 62.59 0
   vertex 52.42237792569197 74.99900000000001 2.0000000000000004
  endloop
 endfacet
 facet normal 0.0 0.0 1.0
  outer loop
   vertex 58.521615684452186 65.5 2.0000000000000004
   vertex 26.552748560360744 74.99900000000001 2.0000000000000004
   vertex 32.65198631912096 65.5 2.0000000000000004
  endloop
 endfacet
 facet normal 0.0 0.0 1.0
  outer loop
   vertex 58.521615684452186 65.5 2.0000000000000004
   vertex 52.42237792569197 74.99900000000001 2.0000000000000004
   vertex 26.552748560360744 74.99900000000001 2.0000000000000004
  endloop
 endfacet
 facet normal 0.0 0.0 -1.0
  outer loop
   vertex 64.0622460736755 62.41000000000001 0
   vertex 96.84833495463548 62.41000000000001 0
   vertex 88.93775392632449 50.08999999999998 0
  endloop
 endfacet
 facet normal 0.0 -0.0 -1.0
  outer loop
   vertex 64.0622460736755 62.41000000000001 0
   vertex 88.93775392632449 50.08999999999998 0
   vertex 56.15166504536452 50.08999999999998 0
  endloop
 endfacet
 facet normal 0.0 0.5664086240493014 0.8241245479917324
  outer loop
   vertex 96.84833495463548 62.41000000000001 0
   vertex 64.0622460736755 62.41000000000001 0
   vertex 65.65198631912092 59.500000000000014 2.0000000000000004
  endloop
 endfacet
 facet normal 0.0 0.5664086240493014 0.8241245479917323
  outer loop
   vertex 91.52161568445221 59.500000000000014 2.0000000000000004
   vertex 96.84833495463548 62.41000000000001 0
   vertex 65.65198631912092 59.500000000000014 2.0000000000000004
  endloop
 endfacet
 facet normal 0.47661642268244847 -0.3060318856374365 0.8241245479917344
  outer loop
   vertex 88.93775392632449 50.08999999999998 0
   vertex 96.84833495463548 62.41000000000001 0
   vertex 91.52161568445221 59.500000000000014 2.0000000000000004
  endloop
 endfacet
 facet normal 0.4766164226824526 -0.3060318856374371 0.824124547991732
  outer loop
   vertex 87.34801368087906 52.99999999999998 2.0000000000000004
   vertex 88.93775392632449 50.08999999999998 0
   vertex 91.52161568445221 59.500000000000014 2.0000000000000004
  endloop
 endfacet
 facet normal 0.0 -0.5664086240493014 0.8241245479917323
  outer loop
   vertex 56.15166504536452 50.08999999999998 0
   vertex 88.93775392632449 50.08999999999998 0
   vertex 87.34801368087906 52.99999999999998 2.0000000000000004
  endloop
 endfacet
 facet normal 0.0 -0.5664086240493015 0.8241245479917324
  outer loop
   vertex 61.47838431554776 52.99999999999998 2.0000000000000004
   vertex 56.15166504536452 50.08999999999998 0
   vertex 87.34801368087906 52.99999999999998 2.0000000000000004
  endloop
 endfacet
 facet normal -0.47661642268245036 0.30603188563743744 0.824124547991733
  outer loop
   vertex 64.0622460736755 62.41000000000001 0
   vertex 56.15166504536452 50.08999999999998 0
   vertex 61.47838431554776 52.99999999999998 2.0000000000000004
  endloop
 endfacet
 facet normal -0.47661642268245186 0.30603188563743766 0.8241245479917321
  outer loop
   vertex 65.65198631912092 59.500000000000014 2.0000000000000004
   vertex 64.0622460736755 62.41000000000001 0
   vertex 61.47838431554776 52.99999999999998 2.0000000000000004
  endloop
 endfacet
 facet normal -0.0 0.0 1.0
  outer loop
   vertex 65.65198631912092 59.500000000000014 2.0000000000000004
   vertex 87.34801368087906 52.99999999999998 2.0000000000000004
   vertex 91.52161568445221 59.500000000000014 2.0000000000000004
  endloop
 endfacet
 facet normal 0.0 0.0 1.0
  outer loop
   vertex 65.65198631912092 59.500000000000014 2.0000000000000004
   vertex 61.47838431554776 52.99999999999998 2.0000000000000004
   vertex 87.34801368087906 52.99999999999998 2.0000000000000004
  endloop
 endfacet
 facet normal 0.0 0.0 -1.0
  outer loop
   vertex 96.84833495463536 62.59000000000002 0
   vertex 64.06224607367547 62.59000000000002 0
   vertex 56.094518802546375 74.999 0
  endloop
 endfacet
 facet normal 0.0 0.0 -1.0
  outer loop
   vertex 96.84833495463536 62.59000000000002 0
   vertex 56.094518802546375 74.999 0
   vertex 88.88060768350627 74.999 0
  endloop
 endfacet
 facet normal 0.0 -0.5664086240493014 0.8241245479917324
  outer loop
   vertex 64.06224607367547 62.59000000000002 0
   vertex 96.84833495463536 62.59000000000002 0
   vertex 91.52161568445214 65.50000000000001 2.0000000000000004
  endloop
 endfacet
 facet normal 0.0 -0.5664086240493014 0.8241245479917324
  outer loop
   vertex 65.65198631912091 65.50000000000001 2.0000000000000004
   vertex 64.06224607367547 62.59000000000002 0
   vertex 91.52161568445214 65.50000000000001 2.0000000000000004
  endloop
 endfacet
 facet normal -0.47661642268245025 -0.30603188563743705 0.8241245479917333
  outer loop
   vertex 56.094518802546375 74.999 0
   vertex 64.06224607367547 62.59000000000002 0
   vertex 65.65198631912091 65.50000000000001 2.0000000000000004
  endloop
 endfacet
 facet normal -0.4766164226824505 -0.30603188563743744 0.824124547991733
  outer loop
   vertex 59.55274856036071 74.999 2.0000000000000004
   vertex 56.094518802546375 74.999 0
   vertex 65.65198631912091 65.50000000000001 2.0000000000000004
  endloop
 endfacet
 facet normal 0.0 1.0 0.0
  outer loop
   vertex 88.88060768350627 74.999 0
   vertex 56.094518802546375 74.999 0
   vertex 59.55274856036071 74.999 2.0000000000000004
  endloop
 endfacet
 facet normal 0.0 1.0 0.0
  outer loop
   vertex 85.42237792569195 74.999 2.0000000000000004
   vertex 88.88060768350627 74.999 0
   vertex 59.55274856036071 74.999 2.0000000000000004
  endloop
 endfacet
 facet normal 0.47661642268245197 0.3060318856374381 0.8241245479917318
  outer loop
   vertex 96.84833495463536 62.59000000000002 0
   vertex 88.88060768350627 74.999 0
   vertex 85.42237792569195 74.999 2.0000000000000004
  endloop
 endfacet
 facet normal 0.4766164226824522 0.3060318856374385 0.8241245479917315
  outer loop
   vertex 91.52161568445214 65.50000000000001 2.0000000000000004
   vertex 96.84833495463536 62.59000000000002 0
   vertex 85.42237792569195 74.999 2.0000000000000004
  endloop
 endfacet
 facet normal 0.0 0.0 1.0
  outer loop
   vertex 91.52161568445214 65.50000000000001 2.0000000000000004
   vertex 59.55274856036071 74.999 2.0000000000000004
   vertex 65.65198631912091 65.50000000000001 2.0000000000000004
  endloop
 endfacet
 facet normal 0.0 0.0 1.0
  outer loop
   vertex 91.52161568445214 65.50000000000001 2.0000000000000004
   vertex 85.42237792569195 74.999 2.0000000000000004
   vertex 59.55274856036071 74.999 2.0000000000000004
  endloop
 endfacet
 facet normal 0.0 0.0 -1.0
  outer loop
   vertex 97.0622460736755 62.409999999999975 0
   vertex 119.99892833025625 62.409999999999975 0
   vertex 119.98911758206934 50.090000000000025 0
  endloop
 endfacet
 facet normal 0.0 -0.0 -1.0
  outer loop
   vertex 97.0622460736755 62.409999999999975 0
   vertex 119.98911758206934 50.090000000000025 0
   vertex 89.15166504536458 50.090000000000025 0
  endloop
 endfacet
 facet normal 0.0 0.5664086240493013 0.8241245479917323
  outer loop
   vertex 119.99892833025625 62.409999999999975 0
   vertex 97.0622460736755 62.409999999999975 0
   vertex 98.65198631912094 59.49999999999998 2.0000000000000004
  endloop
 endfacet
 facet normal 0.0 0.5664086240493014 0.8241245479917324
  outer loop
   vertex 119.99661101879327 59.49999999999998 2.0000000000000004
   vertex 119.99892833025625 62.409999999999975 0
   vertex 98.65198631912094 59.49999999999998 2.0000000000000004
  endloop
 endfacet
 facet normal 0.9999996829318346 -0.0007963267107331143 -2.4257959876856884e-15
  outer loop
   vertex 119.98911758206934 50.090000000000025 0
   vertex 119.99892833025625 62.409999999999975 0
   vertex 119.99661101879327 59.49999999999998 2.0000000000000004
  endloop
 endfacet
 facet normal 0.9999996829318346 -0.0007963267107324207 -5.688957115544516e-15
  outer loop
   vertex 119.99143489353233 53.00000000000002 2.0000000000000004
   vertex 119.98911758206934 50.090000000000025 0
   vertex 119.99661101879327 59.49999999999998 2.0000000000000004
  endloop
 endfacet
 facet normal 0.0 -0.5664086240493014 0.8241245479917324
  outer loop
   vertex 89.15166504536458 50.090000000000025 0
   vertex 119.98911758206934 50.090000000000025 0
   vertex 119.99143489353233 53.00000000000002 2.0000000000000004
  endloop
 endfacet
 facet normal 0.0 -0.5664086240493014 0.8241245479917323
  outer loop
   vertex 94.47838431554781 53.00000000000002 2.0000000000000004
   vertex 89.15166504536458 50.090000000000025 0
   vertex 119.99143489353233 53.00000000000002 2.0000000000000004
  endloop
 endfacet
 facet normal -0.4766164226824508 0.3060318856374372 0.8241245479917328
  outer loop
   vertex 97.0622460736755 62.409999999999975 0
   vertex 89.15166504536458 50.090000000000025 0
   vertex 94.47838431554781 53.00000000000002 2.0000000000000004
  endloop
 endfacet
 facet normal -0.4766164226824501 0.3060318856374371 0.8241245479917333
  outer loop
   vertex 98.65198631912094 59.49999999999998 2.0000000000000004
   vertex 97.0622460736755 62.409999999999975 0
   vertex 94.47838431554781 53.00000000000002 2.0000000000000004
  endloop
 endfacet
 facet normal -0.0 0.0 1.0
  outer loop
   vertex 98.65198631912094 59.49999999999998 2.0000000000000004
   vertex 119.99143489353233 53.00000000000002 2.0000000000000004
   vertex 119.99661101879327 59.49999999999998 2.0000000000000004
  endloop
 endfacet
 facet normal 0.0 0.0 1.0
  outer loop
   vertex 98.65198631912094 59.49999999999998 2.0000000000000004
   vertex 94.47838431554781 53.00000000000002 2.0000000000000004
   vertex 119.99143489353233 53.00000000000002 2.0000000000000004
  endloop
 endfacet
 facet normal -0.0 0.0 -1.0
  outer loop
   vertex 119.99892833025625 62.58999999999998 0
   vertex 97.06224607367547 62.589999999999975 0
   vertex 89.09451880254636 74.99899999999997 0
  endloop
 endfacet
 facet normal 0.0 0.0 -1.0
  outer loop
   vertex 119.99892833025625 62.58999999999998 0
   vertex 89.09451880254636 74.99899999999997 0
   vertex 119.98904670896961 74.99899999999997 0
  endloop
 endfacet
 facet normal 1.7546458061720582e-16 -0.5664086240493021 0.8241245479917317
  outer loop
   vertex 97.06224607367547 62.589999999999975 0
   vertex 119.99892833025625 62.58999999999998 0
   vertex 119.99661101879327 65.49999999999997 2.0000000000000004
  endloop
 endfacet
 facet normal 0.0 -0.5664086240493014 0.8241245479917324
  outer loop
   vertex 98.6519863191209 65.49999999999997 2.0000000000000004
   vertex 97.06224607367547 62.589999999999975 0
   vertex 119.99661101879327 65.49999999999997 2.0000000000000004
  endloop
 endfacet
 facet normal -0.47661642268245136 -0.30603188563743794 0.8241245479917323
  outer loop
   vertex 89.09451880254636 74.99899999999997 0
   vertex 97.06224607367547 62.589999999999975 0
   vertex 98.6519863191209 65.49999999999997 2.0000000000000004
  endloop
 endfacet
 facet normal -0.47661642268245175 -0.30603188563743844 0.8241245479917317
  outer loop
   vertex 92.55274856036068 74.99899999999997 2.0000000000000004
   vertex 89.09451880254636 74.99899999999997 0
   vertex 98.6519863191209 65.49999999999997 2.0000000000000004
  endloop
 endfacet
 facet normal 0.0 1.0 0.0
  outer loop
   vertex 119.98904670896961 74.99899999999997 0
   vertex 89.09451880254636 74.99899999999997 0
   vertex 92.55274856036068 74.99899999999997 2.0000000000000004
  endloop
 endfacet
 facet normal 0.0 1.0 0.0
  outer loop
   vertex 119.98904670896961 74.99899999999997 2.0000000000000004
   vertex 119.98904670896961 74.99899999999997 0
   vertex 92.55274856036068 74.99899999999997 2.0000000000000004
  endloop
 endfacet
 facet normal 0.9999996829318346 0.0007963267107333905 0.0
  outer loop
   vertex 119.99892833025625 62.58999999999998 0
   vertex 119.98904670896961 74.99899999999997 0
   vertex 119.98904670896961 74.99899999999997 2.0000000000000004
  endloop
 endfacet
 facet normal 0.9999996829318346 0.0007963267107339854 -3.690052788900969e-15
  outer loop
   vertex 119.99661101879327 65.49999999999997 2.0000000000000004
   vertex 119.99892833025625 62.58999999999998 0
   vertex 119.98904670896961 74.99899999999997 2.0000000000000004
  endloop
 endfacet
 facet normal 0.0 0.0 1.0
  outer loop
   vertex 119.99661101879327 65.49999999999997 2.0000000000000004
   vertex 92.55274856036068 74.99899999999997 2.0000000000000004
   vertex 98.6519863191209 65.49999999999997 2.0000000000000004
  endloop
 endfacet
 facet normal 0.0 0.0 1.0
  outer loop
   vertex 119.99661101879327 65.49999999999997 2.0000000000000004
   vertex 119.98904670896961 74.99899999999997 2.0000000000000004
   vertex 92.55274856036068 74.99899999999997 2.0000000000000004
  endloop
 endfacet
endsolid
