solid PyGamic generated __Board__ SLA File
 facet normal 0.0 0.0 -1.0
  outer loop
   vertex -0.00033782898114669707 9.32 0
   vertex 1.9480270889422813 9.32 0
   vertex 10.998775952404051 0.001 0
  endloop
 endfacet
 facet normal 0.0 -0.0 -1.0
  outer loop
   vertex -0.00033782898114669707 9.32 0
   vertex 10.998775952404051 0.001 0
   vertex -0.00775879995142363 0.001 0
  endloop
 endfacet
 facet normal 0.0 1.0 0.0
  outer loop
   vertex 1.9480270889422813 9.32 0
   vertex -0.00033782898114669707 9.32 0
   vertex -0.00033782898114669707 9.32 0.35999999999999993
  endloop
 endfacet
 facet normal 0.0 1.0 0.0
  outer loop
   vertex 1.9480270889422813 9.32 0.35999999999999993
   vertex 1.9480270889422813 9.32 0
   vertex -0.00033782898114669707 9.32 0.35999999999999993
  endloop
 endfacet
 facet normal 0.7173560908995228 0.6967067093471653 0.0
  outer loop
   vertex 10.998775952404051 0.001 0
   vertex 1.9480270889422813 9.32 0
   vertex 1.9480270889422813 9.32 0.35999999999999993
  endloop
 endfacet
 facet normal 0.7173560908995228 0.6967067093471653 0.0
  outer loop
   vertex 10.998775952404051 0.001 0.35999999999999993
   vertex 10.998775952404051 0.001 0
   vertex 1.9480270889422813 9.32 0.35999999999999993
  endloop
 endfacet
 facet normal 0.0 -1.0 0.0
  outer loop
   vertex -0.00775879995142363 0.001 0
   vertex 10.998775952404051 0.001 0
   vertex 10.998775952404051 0.001 0.35999999999999993
  endloop
 endfacet
 facet normal 0.0 -1.0 0.0
  outer loop
   vertex -0.00775879995142363 0.001 0.35999999999999993
   vertex -0.00775879995142363 0.001 0
   vertex 10.998775952404051 0.001 0.35999999999999993
  endloop
 endfacet
 facet normal -0.9999996829318345 0.0007963267107332633 0.0
  outer loop
   vertex -0.00033782898114669707 9.32 0
   vertex -0.00775879995142363 0.001 0
   vertex -0.00775879995142363 0.001 0.35999999999999993
  endloop
 endfacet
 facet normal -0.9999996829318345 0.0007963267107332633 0.0
  outer loop
   vertex -0.00033782898114669707 9.32 0.35999999999999993
   vertex -0.00033782898114669707 9.32 0
   vertex -0.00775879995142363 0.001 0.35999999999999993
  endloop
 endfacet
 facet normal -0.0 0.0 1.0
  outer loop
   vertex -0.00033782898114669707 9.32 0.35999999999999993
   vertex 10.998775952404051 0.001 0.35999999999999993
   vertex 1.9480270889422813 9.32 0.35999999999999993
  endloop
 endfacet
 facet normal 0.0 0.0 1.0
  outer loop
   vertex -0.00033782898114669707 9.32 0.35999999999999993
   vertex -0.00775879995142363 0.001 0.35999999999999993
   vertex 10.998775952404051 0.001 0.35999999999999993
  endloop
 endfacet
 facet normal 0.0 0.0 -1.0
  outer loop
   vertex 1.948027088942278 12.68 0
   vertex -0.00033782898114669707 12.68 0
   vertex -0.00642176698017189 20.32 0
  endloop
 endfacet
 facet normal 0.0 0.0 -1.0
  outer loop
   vertex 1.948027088942278 12.68 0
   vertex -0.00642176698017189 20.32 0
   vertex 9.3681066379119 20.32 0
  endloop
 endfacet
 facet normal 0.0 -1.0 0.0
  outer loop
   vertex -0.00033782898114669707 12.68 0
   vertex 1.948027088942278 12.68 0
   vertex 1.948027088942278 12.68 0.35999999999999993
  endloop
 endfacet
 facet normal 0.0 -1.0 0.0
  outer loop
   vertex -0.00033782898114669707 12.68 0.35999999999999993
   vertex -0.00033782898114669707 12.68 0
   vertex 1.948027088942278 12.68 0.35999999999999993
  endloop
 endfacet
 facet normal -0.9999996829318345 -0.0007963267107332633 0.0
  outer loop
   vertex -0.00642176698017189 20.32 0
   vertex -0.00033782898114669707 12.68 0
   vertex -0.00033782898114669707 12.68 0.35999999999999993
  endloop
 endfacet
 facet normal -0.9999996829318345 -0.0007963267107332633 -0.0
  outer loop
   vertex -0.00642176698017189 20.32 0.35999999999999993
   vertex -0.00642176698017189 20.32 0
   vertex -0.00033782898114669707 12.68 0.35999999999999993
  endloop
 endfacet
 facet normal 0.0 1.0 0.0
  outer loop
   vertex 9.3681066379119 20.32 0
   vertex -0.00642176698017189 20.32 0
   vertex -0.00642176698017189 20.32 0.35999999999999993
  endloop
 endfacet
 facet normal 0.0 1.0 0.0
  outer loop
   vertex 9.3681066379119 20.32 0.35999999999999993
   vertex 9.3681066379119 20.32 0
   vertex -0.00642176698017189 20.32 0.35999999999999993
  endloop
 endfacet
 facet normal 0.7173560908995229 -0.6967067093471653 0.0
  outer loop
   vertex 1.948027088942278 12.68 0
   vertex 9.3681066379119 20.32 0
   vertex 9.3681066379119 20.32 0.35999999999999993
  endloop
 endfacet
 facet normal 0.7173560908995229 -0.6967067093471653 0.0
  outer loop
   vertex 1.948027088942278 12.68 0.35999999999999993
   vertex 1.948027088942278 12.68 0
   vertex 9.3681066379119 20.32 0.35999999999999993
  endloop
 endfacet
 facet normal 0.0 0.0 1.0
  outer loop
   vertex 1.948027088942278 12.68 0.35999999999999993
   vertex -0.00642176698017189 20.32 0.35999999999999993
   vertex -0.00033782898114669707 12.68 0.35999999999999993
  endloop
 endfacet
 facet normal 0.0 -0.0 1.0
  outer loop
   vertex 1.948027088942278 12.68 0.35999999999999993
   vertex 9.3681066379119 20.32 0.35999999999999993
   vertex -0.00642176698017189 20.32 0.35999999999999993
  endloop
 endfacet
 facet normal 0.0 0.0 -1.0
  outer loop
   vertex 6.631893362088096 9.32 0
   vertex 21.948027088942286 9.32 0
   vertex 30.99877595240406 0.001 0
  endloop
 endfacet
 facet normal 0.0 0.0 -1.0
  outer loop
   vertex 6.631893362088096 9.32 0
   vertex 30.99877595240406 0.001 0
   vertex 15.682642225549863 0.001 0
  endloop
 endfacet
 facet normal 0.0 1.0 0.0
  outer loop
   vertex 21.948027088942286 9.32 0
   vertex 6.631893362088096 9.32 0
   vertex 6.631893362088096 9.32 0.35999999999999993
  endloop
 endfacet
 facet normal 0.0 1.0 0.0
  outer loop
   vertex 21.948027088942286 9.32 0.35999999999999993
   vertex 21.948027088942286 9.32 0
   vertex 6.631893362088096 9.32 0.35999999999999993
  endloop
 endfacet
 facet normal 0.7173560908995227 0.6967067093471655 0.0
  outer loop
   vertex 30.99877595240406 0.001 0
   vertex 21.948027088942286 9.32 0
   vertex 21.948027088942286 9.32 0.35999999999999993
  endloop
 endfacet
 facet normal 0.7173560908995227 0.6967067093471655 0.0
  outer loop
   vertex 30.99877595240406 0.001 0.35999999999999993
   vertex 30.99877595240406 0.001 0
   vertex 21.948027088942286 9.32 0.35999999999999993
  endloop
 endfacet
 facet normal 0.0 -1.0 0.0
  outer loop
   vertex 15.682642225549863 0.001 0
   vertex 30.99877595240406 0.001 0
   vertex 30.99877595240406 0.001 0.35999999999999993
  endloop
 endfacet
 facet normal 0.0 -1.0 0.0
  outer loop
   vertex 15.682642225549863 0.001 0.35999999999999993
   vertex 15.682642225549863 0.001 0
   vertex 30.99877595240406 0.001 0.35999999999999993
  endloop
 endfacet
 facet normal -0.7173560908995229 -0.6967067093471652 0.0
  outer loop
   vertex 6.631893362088096 9.32 0
   vertex 15.682642225549863 0.001 0
   vertex 15.682642225549863 0.001 0.35999999999999993
  endloop
 endfacet
 facet normal -0.7173560908995229 -0.6967067093471652 -0.0
  outer loop
   vertex 6.631893362088096 9.32 0.35999999999999993
   vertex 6.631893362088096 9.32 0
   vertex 15.682642225549863 0.001 0.35999999999999993
  endloop
 endfacet
 facet normal -0.0 0.0 1.0
  outer loop
   vertex 6.631893362088096 9.32 0.35999999999999993
   vertex 30.99877595240406 0.001 0.35999999999999993
   vertex 21.948027088942286 9.32 0.35999999999999993
  endloop
 endfacet
 facet normal 0.0 0.0 1.0
  outer loop
   vertex 6.631893362088096 9.32 0.35999999999999993
   vertex 15.682642225549863 0.001 0.35999999999999993
   vertex 30.99877595240406 0.001 0.35999999999999993
  endloop
 endfacet
 facet normal 0.0 0.0 -1.0
  outer loop
   vertex 21.94802708894228 12.68 0
   vertex 6.631893362088095 12.68 0
   vertex 14.05197291105772 20.32 0
  endloop
 endfacet
 facet normal 0.0 0.0 -1.0
  outer loop
   vertex 21.94802708894228 12.68 0
   vertex 14.05197291105772 20.32 0
   vertex 29.368106637911907 20.32 0
  endloop
 endfacet
 facet normal 0.0 -1.0 0.0
  outer loop
   vertex 6.631893362088095 12.68 0
   vertex 21.94802708894228 12.68 0
   vertex 21.94802708894228 12.68 0.35999999999999993
  endloop
 endfacet
 facet normal 0.0 -1.0 0.0
  outer loop
   vertex 6.631893362088095 12.68 0.35999999999999993
   vertex 6.631893362088095 12.68 0
   vertex 21.94802708894228 12.68 0.35999999999999993
  endloop
 endfacet
 facet normal -0.7173560908995228 0.6967067093471654 0.0
  outer loop
   vertex 14.05197291105772 20.32 0
   vertex 6.631893362088095 12.68 0
   vertex 6.631893362088095 12.68 0.35999999999999993
  endloop
 endfacet
 facet normal -0.7173560908995228 0.6967067093471654 0.0
  outer loop
   vertex 14.05197291105772 20.32 0.35999999999999993
   vertex 14.05197291105772 20.32 0
   vertex 6.631893362088095 12.68 0.35999999999999993
  endloop
 endfacet
 facet normal 0.0 1.0 0.0
  outer loop
   vertex 29.368106637911907 20.32 0
   vertex 14.05197291105772 20.32 0
   vertex 14.05197291105772 20.32 0.35999999999999993
  endloop
 endfacet
 facet normal 0.0 1.0 0.0
  outer loop
   vertex 29.368106637911907 20.32 0.35999999999999993
   vertex 29.368106637911907 20.32 0
   vertex 14.05197291105772 20.32 0.35999999999999993
  endloop
 endfacet
 facet normal 0.7173560908995227 -0.6967067093471656 0.0
  outer loop
   vertex 21.94802708894228 12.68 0
   vertex 29.368106637911907 20.32 0
   vertex 29.368106637911907 20.32 0.35999999999999993
  endloop
 endfacet
 facet normal 0.7173560908995227 -0.6967067093471656 0.0
  outer loop
   vertex 21.94802708894228 12.68 0.35999999999999993
   vertex 21.94802708894228 12.68 0
   vertex 29.368106637911907 20.32 0.35999999999999993
  endloop
 endfacet
 facet normal 0.0 0.0 1.0
  outer loop
   vertex 21.94802708894228 12.68 0.35999999999999993
   vertex 14.05197291105772 20.32 0.35999999999999993
   vertex 6.631893362088095 12.68 0.35999999999999993
  endloop
 endfacet
 facet normal 0.0 -0.0 1.0
  outer loop
   vertex 21.94802708894228 12.68 0.35999999999999993
   vertex 29.368106637911907 20.32 0.35999999999999993
   vertex 14.05197291105772 20.32 0.35999999999999993
  endloop
 endfacet
 facet normal 0.0 0.0 -1.0
  outer loop
   vertex 26.631893362088103 9.320000000000002 0
   vertex 49.3681066379119 9.320000000000002 0
   vertex 40.31735777445012 0.001 0
  endloop
 endfacet
 facet normal 0.0 0.0 -1.0
  outer loop
   vertex 26.631893362088103 9.320000000000002 0
   vertex 40.31735777445012 0.001 0
   vertex 35.68264222554988 0.001 0
  endloop
 endfacet
 facet normal 0.0 1.0 0.0
  outer loop
   vertex 49.3681066379119 9.320000000000002 0
   vertex 26.631893362088103 9.320000000000002 0
   vertex 26.631893362088103 9.320000000000002 0.35999999999999993
  endloop
 endfacet
 facet normal 0.0 1.0 0.0
  outer loop
   vertex 49.3681066379119 9.320000000000002 0.35999999999999993
   vertex 49.3681066379119 9.320000000000002 0
   vertex 26.631893362088103 9.320000000000002 0.35999999999999993
  endloop
 endfacet
 facet normal 0.7173560908995225 -0.6967067093471655 0.0
  outer loop
   vertex 40.31735777445012 0.001 0
   vertex 49.3681066379119 9.320000000000002 0
   vertex 49.3681066379119 9.320000000000002 0.35999999999999993
  endloop
 endfacet
 facet normal 0.7173560908995225 -0.6967067093471655 0.0
  outer loop
   vertex 40.31735777445012 0.001 0.35999999999999993
   vertex 40.31735777445012 0.001 0
   vertex 49.3681066379119 9.320000000000002 0.35999999999999993
  endloop
 endfacet
 facet normal 0.0 -1.0 0.0
  outer loop
   vertex 35.68264222554988 0.001 0
   vertex 40.31735777445012 0.001 0
   vertex 40.31735777445012 0.001 0.35999999999999993
  endloop
 endfacet
 facet normal 0.0 -1.0 0.0
  outer loop
   vertex 35.68264222554988 0.001 0.35999999999999993
   vertex 35.68264222554988 0.001 0
   vertex 40.31735777445012 0.001 0.35999999999999993
  endloop
 endfacet
 facet normal -0.7173560908995228 -0.6967067093471655 0.0
  outer loop
   vertex 26.631893362088103 9.320000000000002 0
   vertex 35.68264222554988 0.001 0
   vertex 35.68264222554988 0.001 0.35999999999999993
  endloop
 endfacet
 facet normal -0.7173560908995228 -0.6967067093471655 -0.0
  outer loop
   vertex 26.631893362088103 9.320000000000002 0.35999999999999993
   vertex 26.631893362088103 9.320000000000002 0
   vertex 35.68264222554988 0.001 0.35999999999999993
  endloop
 endfacet
 facet normal -0.0 0.0 1.0
  outer loop
   vertex 26.631893362088103 9.320000000000002 0.35999999999999993
   vertex 40.31735777445012 0.001 0.35999999999999993
   vertex 49.3681066379119 9.320000000000002 0.35999999999999993
  endloop
 endfacet
 facet normal 0.0 0.0 1.0
  outer loop
   vertex 26.631893362088103 9.320000000000002 0.35999999999999993
   vertex 35.68264222554988 0.001 0.35999999999999993
   vertex 40.31735777445012 0.001 0.35999999999999993
  endloop
 endfacet
 facet normal 0.0 0.0 -1.0
  outer loop
   vertex 49.36810663791191 12.680000000000001 0
   vertex 26.631893362088096 12.680000000000001 0
   vertex 34.05197291105772 20.31999999999999 0
  endloop
 endfacet
 facet normal 0.0 0.0 -1.0
  outer loop
   vertex 49.36810663791191 12.680000000000001 0
   vertex 34.05197291105772 20.31999999999999 0
   vertex 41.9480270889423 20.31999999999999 0
  endloop
 endfacet
 facet normal 0.0 -1.0 0.0
  outer loop
   vertex 26.631893362088096 12.680000000000001 0
   vertex 49.36810663791191 12.680000000000001 0
   vertex 49.36810663791191 12.680000000000001 0.35999999999999993
  endloop
 endfacet
 facet normal 0.0 -1.0 0.0
  outer loop
   vertex 26.631893362088096 12.680000000000001 0.35999999999999993
   vertex 26.631893362088096 12.680000000000001 0
   vertex 49.36810663791191 12.680000000000001 0.35999999999999993
  endloop
 endfacet
 facet normal -0.7173560908995223 0.6967067093471658 0.0
  outer loop
   vertex 34.05197291105772 20.31999999999999 0
   vertex 26.631893362088096 12.680000000000001 0
   vertex 26.631893362088096 12.680000000000001 0.35999999999999993
  endloop
 endfacet
 facet normal -0.7173560908995223 0.6967067093471658 0.0
  outer loop
   vertex 34.05197291105772 20.31999999999999 0.35999999999999993
   vertex 34.05197291105772 20.31999999999999 0
   vertex 26.631893362088096 12.680000000000001 0.35999999999999993
  endloop
 endfacet
 facet normal 0.0 1.0 0.0
  outer loop
   vertex 41.9480270889423 20.31999999999999 0
   vertex 34.05197291105772 20.31999999999999 0
   vertex 34.05197291105772 20.31999999999999 0.35999999999999993
  endloop
 endfacet
 facet normal 0.0 1.0 0.0
  outer loop
   vertex 41.9480270889423 20.31999999999999 0.35999999999999993
   vertex 41.9480270889423 20.31999999999999 0
   vertex 34.05197291105772 20.31999999999999 0.35999999999999993
  endloop
 endfacet
 facet normal 0.7173560908995229 0.6967067093471654 0.0
  outer loop
   vertex 49.36810663791191 12.680000000000001 0
   vertex 41.9480270889423 20.31999999999999 0
   vertex 41.9480270889423 20.31999999999999 0.35999999999999993
  endloop
 endfacet
 facet normal 0.7173560908995229 0.6967067093471654 0.0
  outer loop
   vertex 49.36810663791191 12.680000000000001 0.35999999999999993
   vertex 49.36810663791191 12.680000000000001 0
   vertex 41.9480270889423 20.31999999999999 0.35999999999999993
  endloop
 endfacet
 facet normal 0.0 0.0 1.0
  outer loop
   vertex 49.36810663791191 12.680000000000001 0.35999999999999993
   vertex 34.05197291105772 20.31999999999999 0.35999999999999993
   vertex 26.631893362088096 12.680000000000001 0.35999999999999993
  endloop
 endfacet
 facet normal 0.0 0.0 1.0
  outer loop
   vertex 49.36810663791191 12.680000000000001 0.35999999999999993
   vertex 41.9480270889423 20.31999999999999 0.35999999999999993
   vertex 34.05197291105772 20.31999999999999 0.35999999999999993
  endloop
 endfacet
 facet normal 0.0 0.0 -1.0
  outer loop
   vertex 54.05197291105771 9.32 0
   vertex 69.36810663791191 9.32 0
   vertex 60.31735777445014 0.001 0
  endloop
 endfacet
 facet normal 0.0 -0.0 -1.0
  outer loop
   vertex 54.05197291105771 9.32 0
   vertex 60.31735777445014 0.001 0
   vertex 45.00122404759594 0.001 0
  endloop
 endfacet
 facet normal 0.0 1.0 0.0
  outer loop
   vertex 69.36810663791191 9.32 0
   vertex 54.05197291105771 9.32 0
   vertex 54.05197291105771 9.32 0.35999999999999993
  endloop
 endfacet
 facet normal 0.0 1.0 0.0
  outer loop
   vertex 69.36810663791191 9.32 0.35999999999999993
   vertex 69.36810663791191 9.32 0
   vertex 54.05197291105771 9.32 0.35999999999999993
  endloop
 endfacet
 facet normal 0.7173560908995228 -0.6967067093471653 0.0
  outer loop
   vertex 60.31735777445014 0.001 0
   vertex 69.36810663791191 9.32 0
   vertex 69.36810663791191 9.32 0.35999999999999993
  endloop
 endfacet
 facet normal 0.7173560908995228 -0.6967067093471653 0.0
  outer loop
   vertex 60.31735777445014 0.001 0.35999999999999993
   vertex 60.31735777445014 0.001 0
   vertex 69.36810663791191 9.32 0.35999999999999993
  endloop
 endfacet
 facet normal 0.0 -1.0 0.0
  outer loop
   vertex 45.00122404759594 0.001 0
   vertex 60.31735777445014 0.001 0
   vertex 60.31735777445014 0.001 0.35999999999999993
  endloop
 endfacet
 facet normal 0.0 -1.0 0.0
  outer loop
   vertex 45.00122404759594 0.001 0.35999999999999993
   vertex 45.00122404759594 0.001 0
   vertex 60.31735777445014 0.001 0.35999999999999993
  endloop
 endfacet
 facet normal -0.7173560908995228 0.6967067093471653 0.0
  outer loop
   vertex 54.05197291105771 9.32 0
   vertex 45.00122404759594 0.001 0
   vertex 45.00122404759594 0.001 0.35999999999999993
  endloop
 endfacet
 facet normal -0.7173560908995228 0.6967067093471653 0.0
  outer loop
   vertex 54.05197291105771 9.32 0.35999999999999993
   vertex 54.05197291105771 9.32 0
   vertex 45.00122404759594 0.001 0.35999999999999993
  endloop
 endfacet
 facet normal -0.0 0.0 1.0
  outer loop
   vertex 54.05197291105771 9.32 0.35999999999999993
   vertex 60.31735777445014 0.001 0.35999999999999993
   vertex 69.36810663791191 9.32 0.35999999999999993
  endloop
 endfacet
 facet normal 0.0 0.0 1.0
  outer loop
   vertex 54.05197291105771 9.32 0.35999999999999993
   vertex 45.00122404759594 0.001 0.35999999999999993
   vertex 60.31735777445014 0.001 0.35999999999999993
  endloop
 endfacet
 facet normal 0.0 0.0 -1.0
  outer loop
   vertex 69.36810663791191 12.68 0
   vertex 54.051972911057725 12.68 0
   vertex 46.63189336208809 20.320000000000007 0
  endloop
 endfacet
 facet normal 0.0 0.0 -1.0
  outer loop
   vertex 69.36810663791191 12.68 0
   vertex 46.63189336208809 20.320000000000007 0
   vertex 61.94802708894227 20.320000000000007 0
  endloop
 endfacet
 facet normal 0.0 -1.0 0.0
  outer loop
   vertex 54.051972911057725 12.68 0
   vertex 69.36810663791191 12.68 0
   vertex 69.36810663791191 12.68 0.35999999999999993
  endloop
 endfacet
 facet normal 0.0 -1.0 0.0
  outer loop
   vertex 54.051972911057725 12.68 0.35999999999999993
   vertex 54.051972911057725 12.68 0
   vertex 69.36810663791191 12.68 0.35999999999999993
  endloop
 endfacet
 facet normal -0.7173560908995228 -0.6967067093471654 0.0
  outer loop
   vertex 46.63189336208809 20.320000000000007 0
   vertex 54.051972911057725 12.68 0
   vertex 54.051972911057725 12.68 0.35999999999999993
  endloop
 endfacet
 facet normal -0.7173560908995228 -0.6967067093471654 -0.0
  outer loop
   vertex 46.63189336208809 20.320000000000007 0.35999999999999993
   vertex 46.63189336208809 20.320000000000007 0
   vertex 54.051972911057725 12.68 0.35999999999999993
  endloop
 endfacet
 facet normal 0.0 1.0 0.0
  outer loop
   vertex 61.94802708894227 20.320000000000007 0
   vertex 46.63189336208809 20.320000000000007 0
   vertex 46.63189336208809 20.320000000000007 0.35999999999999993
  endloop
 endfacet
 facet normal 0.0 1.0 0.0
  outer loop
   vertex 61.94802708894227 20.320000000000007 0.35999999999999993
   vertex 61.94802708894227 20.320000000000007 0
   vertex 46.63189336208809 20.320000000000007 0.35999999999999993
  endloop
 endfacet
 facet normal 0.7173560908995225 0.6967067093471658 0.0
  outer loop
   vertex 69.36810663791191 12.68 0
   vertex 61.94802708894227 20.320000000000007 0
   vertex 61.94802708894227 20.320000000000007 0.35999999999999993
  endloop
 endfacet
 facet normal 0.7173560908995225 0.6967067093471658 0.0
  outer loop
   vertex 69.36810663791191 12.68 0.35999999999999993
   vertex 69.36810663791191 12.68 0
   vertex 61.94802708894227 20.320000000000007 0.35999999999999993
  endloop
 endfacet
 facet normal 0.0 0.0 1.0
  outer loop
   vertex 69.36810663791191 12.68 0.35999999999999993
   vertex 46.63189336208809 20.320000000000007 0.35999999999999993
   vertex 54.051972911057725 12.68 0.35999999999999993
  endloop
 endfacet
 facet normal 0.0 0.0 1.0
  outer loop
   vertex 69.36810663791191 12.68 0.35999999999999993
   vertex 61.94802708894227 20.320000000000007 0.35999999999999993
   vertex 46.63189336208809 20.320000000000007 0.35999999999999993
  endloop
 endfacet
 facet normal 0.0 0.0 -1.0
  outer loop
   vertex 74.0519729110577 9.319999999999984 0
   vertex 75.99766217038471 9.319999999999984 0
   vertex 75.99024119941444 0.001 0
  endloop
 endfacet
 facet normal 0.0 -0.0 -1.0
  outer loop
   vertex 74.0519729110577 9.319999999999984 0
   vertex 75.99024119941444 0.001 0
   vertex 65.00122404759597 0.001 0
  endloop
 endfacet
 facet normal 0.0 1.0 0.0
  outer loop
   vertex 75.99766217038471 9.319999999999984 0
   vertex 74.0519729110577 9.319999999999984 0
   vertex 74.0519729110577 9.319999999999984 0.35999999999999993
  endloop
 endfacet
 facet normal 0.0 1.0 0.0
  outer loop
   vertex 75.99766217038471 9.319999999999984 0.35999999999999993
   vertex 75.99766217038471 9.319999999999984 0
   vertex 74.0519729110577 9.319999999999984 0.35999999999999993
  endloop
 endfacet
 facet normal 0.9999996829318345 -0.0007963267107328247 0.0
  outer loop
   vertex 75.99024119941444 0.001 0
   vertex 75.99766217038471 9.319999999999984 0
   vertex 75.99766217038471 9.319999999999984 0.35999999999999993
  endloop
 endfacet
 facet normal 0.9999996829318345 -0.0007963267107328247 0.0
  outer loop
   vertex 75.99024119941444 0.001 0.35999999999999993
   vertex 75.99024119941444 0.001 0
   vertex 75.99766217038471 9.319999999999984 0.35999999999999993
  endloop
 endfacet
 facet normal 0.0 -1.0 0.0
  outer loop
   vertex 65.00122404759597 0.001 0
   vertex 75.99024119941444 0.001 0
   vertex 75.99024119941444 0.001 0.35999999999999993
  endloop
 endfacet
 facet normal 0.0 -1.0 0.0
  outer loop
   vertex 65.00122404759597 0.001 0.35999999999999993
   vertex 65.00122404759597 0.001 0
   vertex 75.99024119941444 0.001 0.35999999999999993
  endloop
 endfacet
 facet normal -0.7173560908995236 0.6967067093471645 0.0
  outer loop
   vertex 74.0519729110577 9.319999999999984 0
   vertex 65.00122404759597 0.001 0
   vertex 65.00122404759597 0.001 0.35999999999999993
  endloop
 endfacet
 facet normal -0.7173560908995236 0.6967067093471645 0.0
  outer loop
   vertex 74.0519729110577 9.319999999999984 0.35999999999999993
   vertex 74.0519729110577 9.319999999999984 0
   vertex 65.00122404759597 0.001 0.35999999999999993
  endloop
 endfacet
 facet normal -0.0 0.0 1.0
  outer loop
   vertex 74.0519729110577 9.319999999999984 0.35999999999999993
   vertex 75.99024119941444 0.001 0.35999999999999993
   vertex 75.99766217038471 9.319999999999984 0.35999999999999993
  endloop
 endfacet
 facet normal 0.0 0.0 1.0
  outer loop
   vertex 74.0519729110577 9.319999999999984 0.35999999999999993
   vertex 65.00122404759597 0.001 0.35999999999999993
   vertex 75.99024119941444 0.001 0.35999999999999993
  endloop
 endfacet
 facet normal 0.0 0.0 -1.0
  outer loop
   vertex 75.99766217038471 12.679999999999984 0
   vertex 74.05197291105775 12.679999999999984 0
   vertex 66.6318933620881 20.319999999999993 0
  endloop
 endfacet
 facet normal 0.0 0.0 -1.0
  outer loop
   vertex 75.99766217038471 12.679999999999984 0
   vertex 66.6318933620881 20.319999999999993 0
   vertex 75.99157823238568 20.319999999999993 0
  endloop
 endfacet
 facet normal 0.0 -1.0 0.0
  outer loop
   vertex 74.05197291105775 12.679999999999984 0
   vertex 75.99766217038471 12.679999999999984 0
   vertex 75.99766217038471 12.679999999999984 0.35999999999999993
  endloop
 endfacet
 facet normal 0.0 -1.0 0.0
  outer loop
   vertex 74.05197291105775 12.679999999999984 0.35999999999999993
   vertex 74.05197291105775 12.679999999999984 0
   vertex 75.99766217038471 12.679999999999984 0.35999999999999993
  endloop
 endfacet
 facet normal -0.7173560908995226 -0.6967067093471657 0.0
  outer loop
   vertex 66.6318933620881 20.319999999999993 0
   vertex 74.05197291105775 12.679999999999984 0
   vertex 74.05197291105775 12.679999999999984 0.35999999999999993
  endloop
 endfacet
 facet normal -0.7173560908995226 -0.6967067093471657 -0.0
  outer loop
   vertex 66.6318933620881 20.319999999999993 0.35999999999999993
   vertex 66.6318933620881 20.319999999999993 0
   vertex 74.05197291105775 12.679999999999984 0.35999999999999993
  endloop
 endfacet
 facet normal 0.0 1.0 0.0
  outer loop
   vertex 75.99157823238568 20.319999999999993 0
   vertex 66.6318933620881 20.319999999999993 0
   vertex 66.6318933620881 20.319999999999993 0.35999999999999993
  endloop
 endfacet
 facet normal 0.0 1.0 0.0
  outer loop
   vertex 75.99157823238568 20.319999999999993 0.35999999999999993
   vertex 75.99157823238568 20.319999999999993 0
   vertex 66.6318933620881 20.319999999999993 0.35999999999999993
  endloop
 endfacet
 facet normal 0.9999996829318345 0.0007963267107348011 0.0
  outer loop
   vertex 75.99766217038471 12.679999999999984 0
   vertex 75.99157823238568 20.319999999999993 0
   vertex 75.99157823238568 20.319999999999993 0.35999999999999993
  endloop
 endfacet
 facet normal 0.9999996829318345 0.0007963267107348011 0.0
  outer loop
   vertex 75.99766217038471 12.679999999999984 0.35999999999999993
   vertex 75.99766217038471 12.679999999999984 0
   vertex 75.99157823238568 20.319999999999993 0.35999999999999993
  endloop
 endfacet
 facet normal 0.0 0.0 1.0
  outer loop
   vertex 75.99766217038471 12.679999999999984 0.35999999999999993
   vertex 66.6318933620881 20.319999999999993 0.35999999999999993
   vertex 74.05197291105775 12.679999999999984 0.35999999999999993
  endloop
 endfacet
 facet normal 0.0 0.0 1.0
  outer loop
   vertex 75.99766217038471 12.679999999999984 0.35999999999999993
   vertex 75.99157823238568 20.319999999999993 0.35999999999999993
   vertex 66.6318933620881 20.319999999999993 0.35999999999999993
  endloop
 endfacet
 facet normal 0.0 0.0 -1.0
  outer loop
   vertex -0.00033782898114669707 31.319999999999997 0
   vertex 1.9480270889422813 31.32 0
   vertex 9.368106637911904 23.68 0
  endloop
 endfacet
 facet normal 0.0 -0.0 -1.0
  outer loop
   vertex -0.00033782898114669707 31.319999999999997 0
   vertex 9.368106637911904 23.68 0
   vertex -0.00642176698017189 23.68 0
  endloop
 endfacet
 facet normal -1.8234334061952788e-15 1.0 0.0
  outer loop
   vertex 1.9480270889422813 31.32 0
   vertex -0.00033782898114669707 31.319999999999997 0
   vertex -0.00033782898114669707 31.319999999999997 0.35999999999999993
  endloop
 endfacet
 facet normal -1.8234334061952788e-15 1.0 0.0
  outer loop
   vertex 1.9480270889422813 31.32 0.35999999999999993
   vertex 1.9480270889422813 31.32 0
   vertex -0.00033782898114669707 31.319999999999997 0.35999999999999993
  endloop
 endfacet
 facet normal 0.7173560908995228 0.6967067093471654 0.0
  outer loop
   vertex 9.368106637911904 23.68 0
   vertex 1.9480270889422813 31.32 0
   vertex 1.9480270889422813 31.32 0.35999999999999993
  endloop
 endfacet
 facet normal 0.7173560908995228 0.6967067093471654 0.0
  outer loop
   vertex 9.368106637911904 23.68 0.35999999999999993
   vertex 9.368106637911904 23.68 0
   vertex 1.9480270889422813 31.32 0.35999999999999993
  endloop
 endfacet
 facet normal 0.0 -1.0 0.0
  outer loop
   vertex -0.00642176698017189 23.68 0
   vertex 9.368106637911904 23.68 0
   vertex 9.368106637911904 23.68 0.35999999999999993
  endloop
 endfacet
 facet normal 0.0 -1.0 0.0
  outer loop
   vertex -0.00642176698017189 23.68 0.35999999999999993
   vertex -0.00642176698017189 23.68 0
   vertex 9.368106637911904 23.68 0.35999999999999993
  endloop
 endfacet
 facet normal -0.9999996829318345 0.0007963267107332637 0.0
  outer loop
   vertex -0.00033782898114669707 31.319999999999997 0
   vertex -0.00642176698017189 23.68 0
   vertex -0.00642176698017189 23.68 0.35999999999999993
  endloop
 endfacet
 facet normal -0.9999996829318345 0.0007963267107332637 0.0
  outer loop
   vertex -0.00033782898114669707 31.319999999999997 0.35999999999999993
   vertex -0.00033782898114669707 31.319999999999997 0
   vertex -0.00642176698017189 23.68 0.35999999999999993
  endloop
 endfacet
 facet normal -0.0 0.0 1.0
  outer loop
   vertex -0.00033782898114669707 31.319999999999997 0.35999999999999993
   vertex 9.368106637911904 23.68 0.35999999999999993
   vertex 1.9480270889422813 31.32 0.35999999999999993
  endloop
 endfacet
 facet normal 0.0 0.0 1.0
  outer loop
   vertex -0.00033782898114669707 31.319999999999997 0.35999999999999993
   vertex -0.00642176698017189 23.68 0.35999999999999993
   vertex 9.368106637911904 23.68 0.35999999999999993
  endloop
 endfacet
 facet normal 0.0 0.0 -1.0
  outer loop
   vertex 1.9480270889422744 34.68 0
   vertex -0.0003378289811466999 34.68 0
   vertex -0.007758799951423635 43.999 0
  endloop
 endfacet
 facet normal 0.0 0.0 -1.0
  outer loop
   vertex 1.9480270889422744 34.68 0
   vertex -0.007758799951423635 43.999 0
   vertex 10.998775952404046 43.999 0
  endloop
 endfacet
 facet normal 0.0 -1.0 0.0
  outer loop
   vertex -0.0003378289811466999 34.68 0
   vertex 1.9480270889422744 34.68 0
   vertex 1.9480270889422744 34.68 0.35999999999999993
  endloop
 endfacet
 facet normal 0.0 -1.0 0.0
  outer loop
   vertex -0.0003378289811466999 34.68 0.35999999999999993
   vertex -0.0003378289811466999 34.68 0
   vertex 1.9480270889422744 34.68 0.35999999999999993
  endloop
 endfacet
 facet normal -0.9999996829318345 -0.0007963267107332633 0.0
  outer loop
   vertex -0.007758799951423635 43.999 0
   vertex -0.0003378289811466999 34.68 0
   vertex -0.0003378289811466999 34.68 0.35999999999999993
  endloop
 endfacet
 facet normal -0.9999996829318345 -0.0007963267107332633 -0.0
  outer loop
   vertex -0.007758799951423635 43.999 0.35999999999999993
   vertex -0.007758799951423635 43.999 0
   vertex -0.0003378289811466999 34.68 0.35999999999999993
  endloop
 endfacet
 facet normal 0.0 1.0 0.0
  outer loop
   vertex 10.998775952404046 43.999 0
   vertex -0.007758799951423635 43.999 0
   vertex -0.007758799951423635 43.999 0.35999999999999993
  endloop
 endfacet
 facet normal 0.0 1.0 0.0
  outer loop
   vertex 10.998775952404046 43.999 0.35999999999999993
   vertex 10.998775952404046 43.999 0
   vertex -0.007758799951423635 43.999 0.35999999999999993
  endloop
 endfacet
 facet normal 0.7173560908995228 -0.6967067093471653 0.0
  outer loop
   vertex 1.9480270889422744 34.68 0
   vertex 10.998775952404046 43.999 0
   vertex 10.998775952404046 43.999 0.35999999999999993
  endloop
 endfacet
 facet normal 0.7173560908995228 -0.6967067093471653 0.0
  outer loop
   vertex 1.9480270889422744 34.68 0.35999999999999993
   vertex 1.9480270889422744 34.68 0
   vertex 10.998775952404046 43.999 0.35999999999999993
  endloop
 endfacet
 facet normal 0.0 0.0 1.0
  outer loop
   vertex 1.9480270889422744 34.68 0.35999999999999993
   vertex -0.007758799951423635 43.999 0.35999999999999993
   vertex -0.0003378289811466999 34.68 0.35999999999999993
  endloop
 endfacet
 facet normal 0.0 -0.0 1.0
  outer loop
   vertex 1.9480270889422744 34.68 0.35999999999999993
   vertex 10.998775952404046 43.999 0.35999999999999993
   vertex -0.007758799951423635 43.999 0.35999999999999993
  endloop
 endfacet
 facet normal 0.0 0.0 -1.0
  outer loop
   vertex 6.631893362088096 31.32 0
   vertex 21.948027088942272 31.32 0
   vertex 29.3681066379119 23.68 0
  endloop
 endfacet
 facet normal 0.0 0.0 -1.0
  outer loop
   vertex 6.631893362088096 31.32 0
   vertex 29.3681066379119 23.68 0
   vertex 14.05197291105772 23.68 0
  endloop
 endfacet
 facet normal 0.0 1.0 0.0
  outer loop
   vertex 21.948027088942272 31.32 0
   vertex 6.631893362088096 31.32 0
   vertex 6.631893362088096 31.32 0.35999999999999993
  endloop
 endfacet
 facet normal 0.0 1.0 0.0
  outer loop
   vertex 21.948027088942272 31.32 0.35999999999999993
   vertex 21.948027088942272 31.32 0
   vertex 6.631893362088096 31.32 0.35999999999999993
  endloop
 endfacet
 facet normal 0.7173560908995227 0.6967067093471656 0.0
  outer loop
   vertex 29.3681066379119 23.68 0
   vertex 21.948027088942272 31.32 0
   vertex 21.948027088942272 31.32 0.35999999999999993
  endloop
 endfacet
 facet normal 0.7173560908995227 0.6967067093471656 0.0
  outer loop
   vertex 29.3681066379119 23.68 0.35999999999999993
   vertex 29.3681066379119 23.68 0
   vertex 21.948027088942272 31.32 0.35999999999999993
  endloop
 endfacet
 facet normal 0.0 -1.0 0.0
  outer loop
   vertex 14.05197291105772 23.68 0
   vertex 29.3681066379119 23.68 0
   vertex 29.3681066379119 23.68 0.35999999999999993
  endloop
 endfacet
 facet normal 0.0 -1.0 0.0
  outer loop
   vertex 14.05197291105772 23.68 0.35999999999999993
   vertex 14.05197291105772 23.68 0
   vertex 29.3681066379119 23.68 0.35999999999999993
  endloop
 endfacet
 facet normal -0.7173560908995228 -0.6967067093471654 0.0
  outer loop
   vertex 6.631893362088096 31.32 0
   vertex 14.05197291105772 23.68 0
   vertex 14.05197291105772 23.68 0.35999999999999993
  endloop
 endfacet
 facet normal -0.7173560908995228 -0.6967067093471654 -0.0
  outer loop
   vertex 6.631893362088096 31.32 0.35999999999999993
   vertex 6.631893362088096 31.32 0
   vertex 14.05197291105772 23.68 0.35999999999999993
  endloop
 endfacet
 facet normal -0.0 0.0 1.0
  outer loop
   vertex 6.631893362088096 31.32 0.35999999999999993
   vertex 29.3681066379119 23.68 0.35999999999999993
   vertex 21.948027088942272 31.32 0.35999999999999993
  endloop
 endfacet
 facet normal 0.0 0.0 1.0
  outer loop
   vertex 6.631893362088096 31.32 0.35999999999999993
   vertex 14.05197291105772 23.68 0.35999999999999993
   vertex 29.3681066379119 23.68 0.35999999999999993
  endloop
 endfacet
 facet normal 0.0 0.0 -1.0
  outer loop
   vertex 21.94802708894229 34.68 0
   vertex 6.631893362088093 34.68 0
   vertex 15.682642225549863 43.999 0
  endloop
 endfacet
 facet normal 0.0 0.0 -1.0
  outer loop
   vertex 21.94802708894229 34.68 0
   vertex 15.682642225549863 43.999 0
   vertex 30.998775952404067 43.999 0
  endloop
 endfacet
 facet normal 0.0 -1.0 0.0
  outer loop
   vertex 6.631893362088093 34.68 0
   vertex 21.94802708894229 34.68 0
   vertex 21.94802708894229 34.68 0.35999999999999993
  endloop
 endfacet
 facet normal 0.0 -1.0 0.0
  outer loop
   vertex 6.631893362088093 34.68 0.35999999999999993
   vertex 6.631893362088093 34.68 0
   vertex 21.94802708894229 34.68 0.35999999999999993
  endloop
 endfacet
 facet normal -0.7173560908995229 0.6967067093471653 0.0
  outer loop
   vertex 15.682642225549863 43.999 0
   vertex 6.631893362088093 34.68 0
   vertex 6.631893362088093 34.68 0.35999999999999993
  endloop
 endfacet
 facet normal -0.7173560908995229 0.6967067093471653 0.0
  outer loop
   vertex 15.682642225549863 43.999 0.35999999999999993
   vertex 15.682642225549863 43.999 0
   vertex 6.631893362088093 34.68 0.35999999999999993
  endloop
 endfacet
 facet normal 0.0 1.0 0.0
  outer loop
   vertex 30.998775952404067 43.999 0
   vertex 15.682642225549863 43.999 0
   vertex 15.682642225549863 43.999 0.35999999999999993
  endloop
 endfacet
 facet normal 0.0 1.0 0.0
  outer loop
   vertex 30.998775952404067 43.999 0.35999999999999993
   vertex 30.998775952404067 43.999 0
   vertex 15.682642225549863 43.999 0.35999999999999993
  endloop
 endfacet
 facet normal 0.7173560908995225 -0.6967067093471655 0.0
  outer loop
   vertex 21.94802708894229 34.68 0
   vertex 30.998775952404067 43.999 0
   vertex 30.998775952404067 43.999 0.35999999999999993
  endloop
 endfacet
 facet normal 0.7173560908995225 -0.6967067093471655 0.0
  outer loop
   vertex 21.94802708894229 34.68 0.35999999999999993
   vertex 21.94802708894229 34.68 0
   vertex 30.998775952404067 43.999 0.35999999999999993
  endloop
 endfacet
 facet normal 0.0 0.0 1.0
  outer loop
   vertex 21.94802708894229 34.68 0.35999999999999993
   vertex 15.682642225549863 43.999 0.35999999999999993
   vertex 6.631893362088093 34.68 0.35999999999999993
  endloop
 endfacet
 facet normal 0.0 -0.0 1.0
  outer loop
   vertex 21.94802708894229 34.68 0.35999999999999993
   vertex 30.998775952404067 43.999 0.35999999999999993
   vertex 15.682642225549863 43.999 0.35999999999999993
  endloop
 endfacet
 facet normal 0.0 0.0 -1.0
  outer loop
   vertex 26.63189336208809 31.32 0
   vertex 49.36810663791191 31.32 0
   vertex 41.94802708894227 23.67999999999999 0
  endloop
 endfacet
 facet normal 0.0 0.0 -1.0
  outer loop
   vertex 26.63189336208809 31.32 0
   vertex 41.94802708894227 23.67999999999999 0
   vertex 34.05197291105773 23.67999999999999 0
  endloop
 endfacet
 facet normal 0.0 1.0 0.0
  outer loop
   vertex 49.36810663791191 31.32 0
   vertex 26.63189336208809 31.32 0
   vertex 26.63189336208809 31.32 0.35999999999999993
  endloop
 endfacet
 facet normal 0.0 1.0 0.0
  outer loop
   vertex 49.36810663791191 31.32 0.35999999999999993
   vertex 49.36810663791191 31.32 0
   vertex 26.63189336208809 31.32 0.35999999999999993
  endloop
 endfacet
 facet normal 0.7173560908995225 -0.6967067093471656 0.0
  outer loop
   vertex 41.94802708894227 23.67999999999999 0
   vertex 49.36810663791191 31.32 0
   vertex 49.36810663791191 31.32 0.35999999999999993
  endloop
 endfacet
 facet normal 0.7173560908995225 -0.6967067093471656 0.0
  outer loop
   vertex 41.94802708894227 23.67999999999999 0.35999999999999993
   vertex 41.94802708894227 23.67999999999999 0
   vertex 49.36810663791191 31.32 0.35999999999999993
  endloop
 endfacet
 facet normal 0.0 -1.0 0.0
  outer loop
   vertex 34.05197291105773 23.67999999999999 0
   vertex 41.94802708894227 23.67999999999999 0
   vertex 41.94802708894227 23.67999999999999 0.35999999999999993
  endloop
 endfacet
 facet normal 0.0 -1.0 0.0
  outer loop
   vertex 34.05197291105773 23.67999999999999 0.35999999999999993
   vertex 34.05197291105773 23.67999999999999 0
   vertex 41.94802708894227 23.67999999999999 0.35999999999999993
  endloop
 endfacet
 facet normal -0.7173560908995225 -0.6967067093471657 0.0
  outer loop
   vertex 26.63189336208809 31.32 0
   vertex 34.05197291105773 23.67999999999999 0
   vertex 34.05197291105773 23.67999999999999 0.35999999999999993
  endloop
 endfacet
 facet normal -0.7173560908995225 -0.6967067093471657 -0.0
  outer loop
   vertex 26.63189336208809 31.32 0.35999999999999993
   vertex 26.63189336208809 31.32 0
   vertex 34.05197291105773 23.67999999999999 0.35999999999999993
  endloop
 endfacet
 facet normal -0.0 0.0 1.0
  outer loop
   vertex 26.63189336208809 31.32 0.35999999999999993
   vertex 41.94802708894227 23.67999999999999 0.35999999999999993
   vertex 49.36810663791191 31.32 0.35999999999999993
  endloop
 endfacet
 facet normal 0.0 0.0 1.0
  outer loop
   vertex 26.63189336208809 31.32 0.35999999999999993
   vertex 34.05197291105773 23.67999999999999 0.35999999999999993
   vertex 41.94802708894227 23.67999999999999 0.35999999999999993
  endloop
 endfacet
 facet normal 0.0 0.0 -1.0
  outer loop
   vertex 49.3681066379119 34.68 0
   vertex 26.631893362088107 34.68 0
   vertex 35.68264222554986 43.99899999999998 0
  endloop
 endfacet
 facet normal 0.0 0.0 -1.0
  outer loop
   vertex 49.3681066379119 34.68 0
   vertex 35.68264222554986 43.99899999999998 0
   vertex 40.317357774450144 43.99899999999998 0
  endloop
 endfacet
 facet normal 0.0 -1.0 0.0
  outer loop
   vertex 26.631893362088107 34.68 0
   vertex 49.3681066379119 34.68 0
   vertex 49.3681066379119 34.68 0.35999999999999993
  endloop
 endfacet
 facet normal 0.0 -1.0 0.0
  outer loop
   vertex 26.631893362088107 34.68 0.35999999999999993
   vertex 26.631893362088107 34.68 0
   vertex 49.3681066379119 34.68 0.35999999999999993
  endloop
 endfacet
 facet normal -0.7173560908995227 0.6967067093471655 0.0
  outer loop
   vertex 35.68264222554986 43.99899999999998 0
   vertex 26.631893362088107 34.68 0
   vertex 26.631893362088107 34.68 0.35999999999999993
  endloop
 endfacet
 facet normal -0.7173560908995227 0.6967067093471655 0.0
  outer loop
   vertex 35.68264222554986 43.99899999999998 0.35999999999999993
   vertex 35.68264222554986 43.99899999999998 0
   vertex 26.631893362088107 34.68 0.35999999999999993
  endloop
 endfacet
 facet normal 0.0 1.0 0.0
  outer loop
   vertex 40.317357774450144 43.99899999999998 0
   vertex 35.68264222554986 43.99899999999998 0
   vertex 35.68264222554986 43.99899999999998 0.35999999999999993
  endloop
 endfacet
 facet normal 0.0 1.0 0.0
  outer loop
   vertex 40.317357774450144 43.99899999999998 0.35999999999999993
   vertex 40.317357774450144 43.99899999999998 0
   vertex 35.68264222554986 43.99899999999998 0.35999999999999993
  endloop
 endfacet
 facet normal 0.7173560908995227 0.6967067093471655 0.0
  outer loop
   vertex 49.3681066379119 34.68 0
   vertex 40.317357774450144 43.99899999999998 0
   vertex 40.317357774450144 43.99899999999998 0.35999999999999993
  endloop
 endfacet
 facet normal 0.7173560908995227 0.6967067093471655 0.0
  outer loop
   vertex 49.3681066379119 34.68 0.35999999999999993
   vertex 49.3681066379119 34.68 0
   vertex 40.317357774450144 43.99899999999998 0.35999999999999993
  endloop
 endfacet
 facet normal 0.0 0.0 1.0
  outer loop
   vertex 49.3681066379119 34.68 0.35999999999999993
   vertex 35.68264222554986 43.99899999999998 0.35999999999999993
   vertex 26.631893362088107 34.68 0.35999999999999993
  endloop
 endfacet
 facet normal 0.0 0.0 1.0
  outer loop
   vertex 49.3681066379119 34.68 0.35999999999999993
   vertex 40.317357774450144 43.99899999999998 0.35999999999999993
   vertex 35.68264222554986 43.99899999999998 0.35999999999999993
  endloop
 endfacet
 facet normal 0.0 0.0 -1.0
  outer loop
   vertex 54.05197291105772 31.32 0
   vertex 69.36810663791188 31.32 0
   vertex 61.94802708894226 23.680000000000007 0
  endloop
 endfacet
 facet normal 0.0 -0.0 -1.0
  outer loop
   vertex 54.05197291105772 31.32 0
   vertex 61.94802708894226 23.680000000000007 0
   vertex 46.63189336208809 23.680000000000007 0
  endloop
 endfacet
 facet normal 0.0 1.0 0.0
  outer loop
   vertex 69.36810663791188 31.32 0
   vertex 54.05197291105772 31.32 0
   vertex 54.05197291105772 31.32 0.35999999999999993
  endloop
 endfacet
 facet normal 0.0 1.0 0.0
  outer loop
   vertex 69.36810663791188 31.32 0.35999999999999993
   vertex 69.36810663791188 31.32 0
   vertex 54.05197291105772 31.32 0.35999999999999993
  endloop
 endfacet
 facet normal 0.7173560908995228 -0.6967067093471653 0.0
  outer loop
   vertex 61.94802708894226 23.680000000000007 0
   vertex 69.36810663791188 31.32 0
   vertex 69.36810663791188 31.32 0.35999999999999993
  endloop
 endfacet
 facet normal 0.7173560908995228 -0.6967067093471653 0.0
  outer loop
   vertex 61.94802708894226 23.680000000000007 0.35999999999999993
   vertex 61.94802708894226 23.680000000000007 0
   vertex 69.36810663791188 31.32 0.35999999999999993
  endloop
 endfacet
 facet normal 0.0 -1.0 0.0
  outer loop
   vertex 46.63189336208809 23.680000000000007 0
   vertex 61.94802708894226 23.680000000000007 0
   vertex 61.94802708894226 23.680000000000007 0.35999999999999993
  endloop
 endfacet
 facet normal 0.0 -1.0 0.0
  outer loop
   vertex 46.63189336208809 23.680000000000007 0.35999999999999993
   vertex 46.63189336208809 23.680000000000007 0
   vertex 61.94802708894226 23.680000000000007 0.35999999999999993
  endloop
 endfacet
 facet normal -0.7173560908995225 0.6967067093471657 0.0
  outer loop
   vertex 54.05197291105772 31.32 0
   vertex 46.63189336208809 23.680000000000007 0
   vertex 46.63189336208809 23.680000000000007 0.35999999999999993
  endloop
 endfacet
 facet normal -0.7173560908995225 0.6967067093471657 0.0
  outer loop
   vertex 54.05197291105772 31.32 0.35999999999999993
   vertex 54.05197291105772 31.32 0
   vertex 46.63189336208809 23.680000000000007 0.35999999999999993
  endloop
 endfacet
 facet normal -0.0 0.0 1.0
  outer loop
   vertex 54.05197291105772 31.32 0.35999999999999993
   vertex 61.94802708894226 23.680000000000007 0.35999999999999993
   vertex 69.36810663791188 31.32 0.35999999999999993
  endloop
 endfacet
 facet normal 0.0 0.0 1.0
  outer loop
   vertex 54.05197291105772 31.32 0.35999999999999993
   vertex 46.63189336208809 23.680000000000007 0.35999999999999993
   vertex 61.94802708894226 23.680000000000007 0.35999999999999993
  endloop
 endfacet
 facet normal 0.0 0.0 -1.0
  outer loop
   vertex 69.36810663791191 34.68 0
   vertex 54.051972911057725 34.68 0
   vertex 45.00122404759594 43.99900000000002 0
  endloop
 endfacet
 facet normal 0.0 0.0 -1.0
  outer loop
   vertex 69.36810663791191 34.68 0
   vertex 45.00122404759594 43.99900000000002 0
   vertex 60.31735777445013 43.99900000000002 0
  endloop
 endfacet
 facet normal 0.0 -1.0 0.0
  outer loop
   vertex 54.051972911057725 34.68 0
   vertex 69.36810663791191 34.68 0
   vertex 69.36810663791191 34.68 0.35999999999999993
  endloop
 endfacet
 facet normal 0.0 -1.0 0.0
  outer loop
   vertex 54.051972911057725 34.68 0.35999999999999993
   vertex 54.051972911057725 34.68 0
   vertex 69.36810663791191 34.68 0.35999999999999993
  endloop
 endfacet
 facet normal -0.7173560908995228 -0.6967067093471652 0.0
  outer loop
   vertex 45.00122404759594 43.99900000000002 0
   vertex 54.051972911057725 34.68 0
   vertex 54.051972911057725 34.68 0.35999999999999993
  endloop
 endfacet
 facet normal -0.7173560908995228 -0.6967067093471652 -0.0
  outer loop
   vertex 45.00122404759594 43.99900000000002 0.35999999999999993
   vertex 45.00122404759594 43.99900000000002 0
   vertex 54.051972911057725 34.68 0.35999999999999993
  endloop
 endfacet
 facet normal 0.0 1.0 0.0
  outer loop
   vertex 60.31735777445013 43.99900000000002 0
   vertex 45.00122404759594 43.99900000000002 0
   vertex 45.00122404759594 43.99900000000002 0.35999999999999993
  endloop
 endfacet
 facet normal 0.0 1.0 0.0
  outer loop
   vertex 60.31735777445013 43.99900000000002 0.35999999999999993
   vertex 60.31735777445013 43.99900000000002 0
   vertex 45.00122404759594 43.99900000000002 0.35999999999999993
  endloop
 endfacet
 facet normal 0.7173560908995231 0.6967067093471649 0.0
  outer loop
   vertex 69.36810663791191 34.68 0
   vertex 60.31735777445013 43.99900000000002 0
   vertex 60.31735777445013 43.99900000000002 0.35999999999999993
  endloop
 endfacet
 facet normal 0.7173560908995231 0.6967067093471649 0.0
  outer loop
   vertex 69.36810663791191 34.68 0.35999999999999993
   vertex 69.36810663791191 34.68 0
   vertex 60.31735777445013 43.99900000000002 0.35999999999999993
  endloop
 endfacet
 facet normal 0.0 0.0 1.0
  outer loop
   vertex 69.36810663791191 34.68 0.35999999999999993
   vertex 45.00122404759594 43.99900000000002 0.35999999999999993
   vertex 54.051972911057725 34.68 0.35999999999999993
  endloop
 endfacet
 facet normal 0.0 0.0 1.0
  outer loop
   vertex 69.36810663791191 34.68 0.35999999999999993
   vertex 60.31735777445013 43.99900000000002 0.35999999999999993
   vertex 45.00122404759594 43.99900000000002 0.35999999999999993
  endloop
 endfacet
 facet normal 0.0 0.0 -1.0
  outer loop
   vertex 74.05197291105773 31.320000000000036 0
   vertex 75.9976621703847 31.320000000000036 0
   vertex 75.99157823238566 23.679999999999993 0
  endloop
 endfacet
 facet normal 0.0 -0.0 -1.0
  outer loop
   vertex 74.05197291105773 31.320000000000036 0
   vertex 75.99157823238566 23.679999999999993 0
   vertex 66.63189336208808 23.679999999999993 0
  endloop
 endfacet
 facet normal 0.0 1.0 0.0
  outer loop
   vertex 75.9976621703847 31.320000000000036 0
   vertex 74.05197291105773 31.320000000000036 0
   vertex 74.05197291105773 31.320000000000036 0.35999999999999993
  endloop
 endfacet
 facet normal 0.0 1.0 0.0
  outer loop
   vertex 75.9976621703847 31.320000000000036 0.35999999999999993
   vertex 75.9976621703847 31.320000000000036 0
   vertex 74.05197291105773 31.320000000000036 0.35999999999999993
  endloop
 endfacet
 facet normal 0.9999996829318347 -0.0007963267107347977 0.0
  outer loop
   vertex 75.99157823238566 23.679999999999993 0
   vertex 75.9976621703847 31.320000000000036 0
   vertex 75.9976621703847 31.320000000000036 0.35999999999999993
  endloop
 endfacet
 facet normal 0.9999996829318347 -0.0007963267107347977 0.0
  outer loop
   vertex 75.99157823238566 23.679999999999993 0.35999999999999993
   vertex 75.99157823238566 23.679999999999993 0
   vertex 75.9976621703847 31.320000000000036 0.35999999999999993
  endloop
 endfacet
 facet normal 0.0 -1.0 0.0
  outer loop
   vertex 66.63189336208808 23.679999999999993 0
   vertex 75.99157823238566 23.679999999999993 0
   vertex 75.99157823238566 23.679999999999993 0.35999999999999993
  endloop
 endfacet
 facet normal 0.0 -1.0 0.0
  outer loop
   vertex 66.63189336208808 23.679999999999993 0.35999999999999993
   vertex 66.63189336208808 23.679999999999993 0
   vertex 75.99157823238566 23.679999999999993 0.35999999999999993
  endloop
 endfacet
 facet normal -0.7173560908995233 0.6967067093471647 0.0
  outer loop
   vertex 74.05197291105773 31.320000000000036 0
   vertex 66.63189336208808 23.679999999999993 0
   vertex 66.63189336208808 23.679999999999993 0.35999999999999993
  endloop
 endfacet
 facet normal -0.7173560908995233 0.6967067093471647 0.0
  outer loop
   vertex 74.05197291105773 31.320000000000036 0.35999999999999993
   vertex 74.05197291105773 31.320000000000036 0
   vertex 66.63189336208808 23.679999999999993 0.35999999999999993
  endloop
 endfacet
 facet normal -0.0 0.0 1.0
  outer loop
   vertex 74.05197291105773 31.320000000000036 0.35999999999999993
   vertex 75.99157823238566 23.679999999999993 0.35999999999999993
   vertex 75.9976621703847 31.320000000000036 0.35999999999999993
  endloop
 endfacet
 facet normal 0.0 0.0 1.0
  outer loop
   vertex 74.05197291105773 31.320000000000036 0.35999999999999993
   vertex 66.63189336208808 23.679999999999993 0.35999999999999993
   vertex 75.99157823238566 23.679999999999993 0.35999999999999993
  endloop
 endfacet
 facet normal 0.0 0.0 -1.0
  outer loop
   vertex 75.99766217038474 34.680000000000035 0
   vertex 74.0519729110577 34.680000000000035 0
   vertex 65.00122404759598 43.99899999999999 0
  endloop
 endfacet
 facet normal 0.0 0.0 -1.0
  outer loop
   vertex 75.99766217038474 34.680000000000035 0
   vertex 65.00122404759598 43.99899999999999 0
   vertex 75.99024119941446 43.99899999999999 0
  endloop
 endfacet
 facet normal 0.0 -1.0 0.0
  outer loop
   vertex 74.0519729110577 34.680000000000035 0
   vertex 75.99766217038474 34.680000000000035 0
   vertex 75.99766217038474 34.680000000000035 0.35999999999999993
  endloop
 endfacet
 facet normal 0.0 -1.0 0.0
  outer loop
   vertex 74.0519729110577 34.680000000000035 0.35999999999999993
   vertex 74.0519729110577 34.680000000000035 0
   vertex 75.99766217038474 34.680000000000035 0.35999999999999993
  endloop
 endfacet
 facet normal -0.7173560908995229 -0.6967067093471653 0.0
  outer loop
   vertex 65.00122404759598 43.99899999999999 0
   vertex 74.0519729110577 34.680000000000035 0
   vertex 74.0519729110577 34.680000000000035 0.35999999999999993
  endloop
 endfacet
 facet normal -0.7173560908995229 -0.6967067093471653 -0.0
  outer loop
   vertex 65.00122404759598 43.99899999999999 0.35999999999999993
   vertex 65.00122404759598 43.99899999999999 0
   vertex 74.0519729110577 34.680000000000035 0.35999999999999993
  endloop
 endfacet
 facet normal 0.0 1.0 0.0
  outer loop
   vertex 75.99024119941446 43.99899999999999 0
   vertex 65.00122404759598 43.99899999999999 0
   vertex 65.00122404759598 43.99899999999999 0.35999999999999993
  endloop
 endfacet
 facet normal 0.0 1.0 0.0
  outer loop
   vertex 75.99024119941446 43.99899999999999 0.35999999999999993
   vertex 75.99024119941446 43.99899999999999 0
   vertex 65.00122404759598 43.99899999999999 0.35999999999999993
  endloop
 endfacet
 facet normal 0.9999996829318345 0.0007963267107343524 0.0
  outer loop
   vertex 75.99766217038474 34.680000000000035 0
   vertex 75.99024119941446 43.99899999999999 0
   vertex 75.99024119941446 43.99899999999999 0.35999999999999993
  endloop
 endfacet
 facet normal 0.9999996829318345 0.0007963267107343524 0.0
  outer loop
   vertex 75.99766217038474 34.680000000000035 0.35999999999999993
   vertex 75.99766217038474 34.680000000000035 0
   vertex 75.99024119941446 43.99899999999999 0.35999999999999993
  endloop
 endfacet
 facet normal 0.0 0.0 1.0
  outer loop
   vertex 75.99766217038474 34.680000000000035 0.35999999999999993
   vertex 65.00122404759598 43.99899999999999 0.35999999999999993
   vertex 74.0519729110577 34.680000000000035 0.35999999999999993
  endloop
 endfacet
 facet normal 0.0 0.0 1.0
  outer loop
   vertex 75.99766217038474 34.680000000000035 0.35999999999999993
   vertex 75.99024119941446 43.99899999999999 0.35999999999999993
   vertex 65.00122404759598 43.99899999999999 0.35999999999999993
  endloop
 endfacet
endsolid
