solid PyGamic generated __Board__ SLA File
 facet normal 0.0 0.0 -1.0
  outer loop
   vertex -0.018713683635745024 0.0 0
   vertex 144.0 94.0 0
   vertex 144.0 0.0 0
  endloop
 endfacet
 facet normal 0.0 0.0 -1.0
  outer loop
   vertex -0.018713683635745024 0.0 0
   vertex -0.018713683635745024 94.0 0
   vertex 144.0 94.0 0
  endloop
 endfacet
 facet normal 0.0 -1.0 0.0
  outer loop
   vertex -0.018713683635745024 0.0 0
   vertex 144.0 0.0 0
   vertex -0.018713683635745024 0.0 0.15
  endloop
 endfacet
 facet normal 0.0 -1.0 0.0
  outer loop
   vertex 144.0 0.0 0
   vertex 144.0 0.0 0.15
   vertex -0.018713683635745024 0.0 0.15
  endloop
 endfacet
 facet normal 1.0 0.0 0.0
  outer loop
   vertex 144.0 0.0 0
   vertex 144.0 94.0 0
   vertex 144.0 0.0 0.15
  endloop
 endfacet
 facet normal 1.0 0.0 -0.0
  outer loop
   vertex 144.0 94.0 0
   vertex 144.0 94.0 0.15
   vertex 144.0 0.0 0.15
  endloop
 endfacet
 facet normal 0.0 1.0 -0.0
  outer loop
   vertex 144.0 94.0 0
   vertex -0.018713683635745024 94.0 0
   vertex 144.0 94.0 0.15
  endloop
 endfacet
 facet normal 0.0 1.0 0.0
  outer loop
   vertex -0.018713683635745024 94.0 0
   vertex -0.018713683635745024 94.0 0.15
   vertex 144.0 94.0 0.15
  endloop
 endfacet
 facet normal -1.0 0.0 0.0
  outer loop
   vertex -0.018713683635745024 94.0 0
   vertex -0.018713683635745024 0.0 0
   vertex -0.018713683635745024 94.0 0.15
  endloop
 endfacet
 facet normal -1.0 0.0 0.0
  outer loop
   vertex -0.018713683635745024 0.0 0
   vertex -0.018713683635745024 0.0 0.15
   vertex -0.018713683635745024 94.0 0.15
  endloop
 endfacet
 facet normal 0.0 0.0 1.0
  outer loop
   vertex -0.018713683635745024 0.0 0.15
   vertex 144.0 0.0 0.15
   vertex 144.0 94.0 0.15
  endloop
 endfacet
 facet normal 0.0 0.0 1.0
  outer loop
   vertex -0.018713683635745024 0.0 0.15
   vertex 144.0 94.0 0.15
   vertex -0.018713683635745024 94.0 0.15
  endloop
 endfacet
endsolid
