solid PyGamic generated SLA File
 facet normal 0.0 -0.0 -1.0
  outer loop
   vertex 2.1982487782310947 21.3 0
   vertex 18.439500267827558 21.3 0
   vertex 2.1853063721270374 5.047371743295797 0
  endloop
 endfacet
 facet normal 0.0 1.0 0.0
  outer loop
   vertex 18.439500267827558 21.3 0
   vertex 2.1982487782310947 21.3 0
   vertex 2.1982487782310947 21.3 2.0
  endloop
 endfacet
 facet normal 0.0 1.0 0.0
  outer loop
   vertex 18.439500267827558 21.3 2.0
   vertex 18.439500267827558 21.3 0
   vertex 2.1982487782310947 21.3 2.0
  endloop
 endfacet
 facet normal 0.7070727237014777 -0.7071408370313327 0.0
  outer loop
   vertex 2.1853063721270374 5.047371743295797 0
   vertex 18.439500267827558 21.3 0
   vertex 18.439500267827558 21.3 2.0
  endloop
 endfacet
 facet normal 0.7070727237014777 -0.7071408370313327 0.0
  outer loop
   vertex 2.1853063721270374 5.047371743295797 2.0
   vertex 2.1853063721270374 5.047371743295797 0
   vertex 18.439500267827558 21.3 2.0
  endloop
 endfacet
 facet normal -0.9999996829318347 0.0007963267107332986 0.0
  outer loop
   vertex 2.1982487782310947 21.3 0
   vertex 2.1853063721270374 5.047371743295797 0
   vertex 2.1853063721270374 5.047371743295797 2.0
  endloop
 endfacet
 facet normal -0.9999996829318347 0.0007963267107332986 0.0
  outer loop
   vertex 2.1982487782310947 21.3 2.0
   vertex 2.1982487782310947 21.3 0
   vertex 2.1853063721270374 5.047371743295797 2.0
  endloop
 endfacet
 facet normal -0.0 0.0 1.0
  outer loop
   vertex 2.1982487782310947 21.3 2.0
   vertex 2.1853063721270374 5.047371743295797 2.0
   vertex 18.439500267827558 21.3 2.0
  endloop
 endfacet
 facet normal 0.0 0.0 -1.0
  outer loop
   vertex 18.439500267827555 25.7 0
   vertex 2.1982487782310947 25.7 0
   vertex 2.185306372127038 41.9526282567042 0
  endloop
 endfacet
 facet normal 0.0 -1.0 0.0
  outer loop
   vertex 2.1982487782310947 25.7 0
   vertex 18.439500267827555 25.7 0
   vertex 18.439500267827555 25.7 2.0
  endloop
 endfacet
 facet normal 0.0 -1.0 0.0
  outer loop
   vertex 2.1982487782310947 25.7 2.0
   vertex 2.1982487782310947 25.7 0
   vertex 18.439500267827555 25.7 2.0
  endloop
 endfacet
 facet normal -0.9999996829318347 -0.0007963267107332713 0.0
  outer loop
   vertex 2.185306372127038 41.9526282567042 0
   vertex 2.1982487782310947 25.7 0
   vertex 2.1982487782310947 25.7 2.0
  endloop
 endfacet
 facet normal -0.9999996829318347 -0.0007963267107332713 -0.0
  outer loop
   vertex 2.185306372127038 41.9526282567042 2.0
   vertex 2.185306372127038 41.9526282567042 0
   vertex 2.1982487782310947 25.7 2.0
  endloop
 endfacet
 facet normal 0.7070727237014777 0.7071408370313326 0.0
  outer loop
   vertex 18.439500267827555 25.7 0
   vertex 2.185306372127038 41.9526282567042 0
   vertex 2.185306372127038 41.9526282567042 2.0
  endloop
 endfacet
 facet normal 0.7070727237014777 0.7071408370313326 0.0
  outer loop
   vertex 18.439500267827555 25.7 2.0
   vertex 18.439500267827555 25.7 0
   vertex 2.185306372127038 41.9526282567042 2.0
  endloop
 endfacet
 facet normal 0.0 0.0 1.0
  outer loop
   vertex 18.439500267827555 25.7 2.0
   vertex 2.185306372127038 41.9526282567042 2.0
   vertex 2.1982487782310947 25.7 2.0
  endloop
 endfacet
 facet normal 0.0 -0.0 -1.0
  outer loop
   vertex 23.999999999999993 20.637724135410462 0
   vertex 42.439500267827555 2.2 0
   vertex 5.56049973217244 2.2 0
  endloop
 endfacet
 facet normal 0.7070727237014777 0.7071408370313327 0.0
  outer loop
   vertex 42.439500267827555 2.2 0
   vertex 23.999999999999993 20.637724135410462 0
   vertex 23.999999999999993 20.637724135410462 2.0
  endloop
 endfacet
 facet normal 0.7070727237014777 0.7071408370313327 0.0
  outer loop
   vertex 42.439500267827555 2.2 2.0
   vertex 42.439500267827555 2.2 0
   vertex 23.999999999999993 20.637724135410462 2.0
  endloop
 endfacet
 facet normal 0.0 -1.0 0.0
  outer loop
   vertex 5.56049973217244 2.2 0
   vertex 42.439500267827555 2.2 0
   vertex 42.439500267827555 2.2 2.0
  endloop
 endfacet
 facet normal 0.0 -1.0 0.0
  outer loop
   vertex 5.56049973217244 2.2 2.0
   vertex 5.56049973217244 2.2 0
   vertex 42.439500267827555 2.2 2.0
  endloop
 endfacet
 facet normal -0.7070727237014777 0.7071408370313326 0.0
  outer loop
   vertex 23.999999999999993 20.637724135410462 0
   vertex 5.56049973217244 2.2 0
   vertex 5.56049973217244 2.2 2.0
  endloop
 endfacet
 facet normal -0.7070727237014777 0.7071408370313326 0.0
  outer loop
   vertex 23.999999999999993 20.637724135410462 2.0
   vertex 23.999999999999993 20.637724135410462 0
   vertex 5.56049973217244 2.2 2.0
  endloop
 endfacet
 facet normal 0.0 0.0 1.0
  outer loop
   vertex 23.999999999999993 20.637724135410462 2.0
   vertex 5.56049973217244 2.2 2.0
   vertex 42.439500267827555 2.2 2.0
  endloop
 endfacet
 facet normal 0.0 0.0 -1.0
  outer loop
   vertex 23.999999999999996 26.362275864589538 0
   vertex 5.56049973217244 44.8 0
   vertex 42.43950026782756 44.8 0
  endloop
 endfacet
 facet normal -0.7070727237014777 -0.7071408370313327 0.0
  outer loop
   vertex 5.56049973217244 44.8 0
   vertex 23.999999999999996 26.362275864589538 0
   vertex 23.999999999999996 26.362275864589538 2.0
  endloop
 endfacet
 facet normal -0.7070727237014777 -0.7071408370313327 -0.0
  outer loop
   vertex 5.56049973217244 44.8 2.0
   vertex 5.56049973217244 44.8 0
   vertex 23.999999999999996 26.362275864589538 2.0
  endloop
 endfacet
 facet normal 0.0 1.0 0.0
  outer loop
   vertex 42.43950026782756 44.8 0
   vertex 5.56049973217244 44.8 0
   vertex 5.56049973217244 44.8 2.0
  endloop
 endfacet
 facet normal 0.0 1.0 0.0
  outer loop
   vertex 42.43950026782756 44.8 2.0
   vertex 42.43950026782756 44.8 0
   vertex 5.56049973217244 44.8 2.0
  endloop
 endfacet
 facet normal 0.7070727237014774 -0.7071408370313329 0.0
  outer loop
   vertex 23.999999999999996 26.362275864589538 0
   vertex 42.43950026782756 44.8 0
   vertex 42.43950026782756 44.8 2.0
  endloop
 endfacet
 facet normal 0.7070727237014774 -0.7071408370313329 0.0
  outer loop
   vertex 23.999999999999996 26.362275864589538 2.0
   vertex 23.999999999999996 26.362275864589538 0
   vertex 42.43950026782756 44.8 2.0
  endloop
 endfacet
 facet normal 0.0 -0.0 1.0
  outer loop
   vertex 23.999999999999996 26.362275864589538 2.0
   vertex 42.43950026782756 44.8 2.0
   vertex 5.56049973217244 44.8 2.0
  endloop
 endfacet
 facet normal 0.0 0.0 -1.0
  outer loop
   vertex 29.560499732172435 21.300000000000004 0
   vertex 45.79908006889915 21.300000000000004 0
   vertex 45.80064427929424 5.061419738610957 0
  endloop
 endfacet
 facet normal 0.0 1.0 0.0
  outer loop
   vertex 45.79908006889915 21.300000000000004 0
   vertex 29.560499732172435 21.300000000000004 0
   vertex 29.560499732172435 21.300000000000004 2.0
  endloop
 endfacet
 facet normal 0.0 1.0 0.0
  outer loop
   vertex 45.79908006889915 21.300000000000004 2.0
   vertex 45.79908006889915 21.300000000000004 0
   vertex 29.560499732172435 21.300000000000004 2.0
  endloop
 endfacet
 facet normal 0.9999999953605745 9.632679474759078e-05 0.0
  outer loop
   vertex 45.80064427929424 5.061419738610957 0
   vertex 45.79908006889915 21.300000000000004 0
   vertex 45.79908006889915 21.300000000000004 2.0
  endloop
 endfacet
 facet normal 0.9999999953605745 9.632679474759078e-05 0.0
  outer loop
   vertex 45.80064427929424 5.061419738610957 2.0
   vertex 45.80064427929424 5.061419738610957 0
   vertex 45.79908006889915 21.300000000000004 2.0
  endloop
 endfacet
 facet normal -0.707072723701478 -0.7071408370313323 0.0
  outer loop
   vertex 29.560499732172435 21.300000000000004 0
   vertex 45.80064427929424 5.061419738610957 0
   vertex 45.80064427929424 5.061419738610957 2.0
  endloop
 endfacet
 facet normal -0.707072723701478 -0.7071408370313323 -0.0
  outer loop
   vertex 29.560499732172435 21.300000000000004 2.0
   vertex 29.560499732172435 21.300000000000004 0
   vertex 45.80064427929424 5.061419738610957 2.0
  endloop
 endfacet
 facet normal -0.0 0.0 1.0
  outer loop
   vertex 29.560499732172435 21.300000000000004 2.0
   vertex 45.80064427929424 5.061419738610957 2.0
   vertex 45.79908006889915 21.300000000000004 2.0
  endloop
 endfacet
 facet normal 0.0 0.0 -1.0
  outer loop
   vertex 45.79908006889917 25.700000000000003 0
   vertex 29.56049973217245 25.700000000000003 0
   vertex 45.80064427929426 41.938580261389035 0
  endloop
 endfacet
 facet normal 0.0 -1.0 0.0
  outer loop
   vertex 29.56049973217245 25.700000000000003 0
   vertex 45.79908006889917 25.700000000000003 0
   vertex 45.79908006889917 25.700000000000003 2.0
  endloop
 endfacet
 facet normal 0.0 -1.0 0.0
  outer loop
   vertex 29.56049973217245 25.700000000000003 2.0
   vertex 29.56049973217245 25.700000000000003 0
   vertex 45.79908006889917 25.700000000000003 2.0
  endloop
 endfacet
 facet normal -0.7070727237014776 0.7071408370313327 0.0
  outer loop
   vertex 45.80064427929426 41.938580261389035 0
   vertex 29.56049973217245 25.700000000000003 0
   vertex 29.56049973217245 25.700000000000003 2.0
  endloop
 endfacet
 facet normal -0.7070727237014776 0.7071408370313327 0.0
  outer loop
   vertex 45.80064427929426 41.938580261389035 2.0
   vertex 45.80064427929426 41.938580261389035 0
   vertex 29.56049973217245 25.700000000000003 2.0
  endloop
 endfacet
 facet normal 0.9999999953605745 -9.632679474759086e-05 0.0
  outer loop
   vertex 45.79908006889917 25.700000000000003 0
   vertex 45.80064427929426 41.938580261389035 0
   vertex 45.80064427929426 41.938580261389035 2.0
  endloop
 endfacet
 facet normal 0.9999999953605745 -9.632679474759086e-05 0.0
  outer loop
   vertex 45.79908006889917 25.700000000000003 2.0
   vertex 45.79908006889917 25.700000000000003 0
   vertex 45.80064427929426 41.938580261389035 2.0
  endloop
 endfacet
 facet normal 0.0 -0.0 1.0
  outer loop
   vertex 45.79908006889917 25.700000000000003 2.0
   vertex 45.80064427929426 41.938580261389035 2.0
   vertex 29.56049973217245 25.700000000000003 2.0
  endloop
 endfacet
 facet normal 0.0 0.0 -1.0
  outer loop
   vertex 50.19935572070576 18.438580261389017 0
   vertex 66.43950026782755 2.2 0
   vertex 50.20091993110085 2.2 0
  endloop
 endfacet
 facet normal 0.7070727237014777 0.7071408370313327 0.0
  outer loop
   vertex 66.43950026782755 2.2 0
   vertex 50.19935572070576 18.438580261389017 0
   vertex 50.19935572070576 18.438580261389017 2.0
  endloop
 endfacet
 facet normal 0.7070727237014777 0.7071408370313327 0.0
  outer loop
   vertex 66.43950026782755 2.2 2.0
   vertex 66.43950026782755 2.2 0
   vertex 50.19935572070576 18.438580261389017 2.0
  endloop
 endfacet
 facet normal 0.0 -1.0 0.0
  outer loop
   vertex 50.20091993110085 2.2 0
   vertex 66.43950026782755 2.2 0
   vertex 66.43950026782755 2.2 2.0
  endloop
 endfacet
 facet normal 0.0 -1.0 0.0
  outer loop
   vertex 50.20091993110085 2.2 2.0
   vertex 50.20091993110085 2.2 0
   vertex 66.43950026782755 2.2 2.0
  endloop
 endfacet
 facet normal -0.9999999953605745 -9.632679474759094e-05 0.0
  outer loop
   vertex 50.19935572070576 18.438580261389017 0
   vertex 50.20091993110085 2.2 0
   vertex 50.20091993110085 2.2 2.0
  endloop
 endfacet
 facet normal -0.9999999953605745 -9.632679474759094e-05 -0.0
  outer loop
   vertex 50.19935572070576 18.438580261389017 2.0
   vertex 50.19935572070576 18.438580261389017 0
   vertex 50.20091993110085 2.2 2.0
  endloop
 endfacet
 facet normal 0.0 0.0 1.0
  outer loop
   vertex 50.19935572070576 18.438580261389017 2.0
   vertex 50.20091993110085 2.2 2.0
   vertex 66.43950026782755 2.2 2.0
  endloop
 endfacet
 facet normal 0.0 0.0 -1.0
  outer loop
   vertex 50.19935572070579 28.561419738610997 0
   vertex 50.20091993110086 44.800000000000004 0
   vertex 66.43950026782755 44.800000000000004 0
  endloop
 endfacet
 facet normal -0.9999999953605745 9.632679474671588e-05 0.0
  outer loop
   vertex 50.20091993110086 44.800000000000004 0
   vertex 50.19935572070579 28.561419738610997 0
   vertex 50.19935572070579 28.561419738610997 2.0
  endloop
 endfacet
 facet normal -0.9999999953605745 9.632679474671588e-05 0.0
  outer loop
   vertex 50.20091993110086 44.800000000000004 2.0
   vertex 50.20091993110086 44.800000000000004 0
   vertex 50.19935572070579 28.561419738610997 2.0
  endloop
 endfacet
 facet normal 0.0 1.0 0.0
  outer loop
   vertex 66.43950026782755 44.800000000000004 0
   vertex 50.20091993110086 44.800000000000004 0
   vertex 50.20091993110086 44.800000000000004 2.0
  endloop
 endfacet
 facet normal 0.0 1.0 0.0
  outer loop
   vertex 66.43950026782755 44.800000000000004 2.0
   vertex 66.43950026782755 44.800000000000004 0
   vertex 50.20091993110086 44.800000000000004 2.0
  endloop
 endfacet
 facet normal 0.707072723701478 -0.7071408370313322 0.0
  outer loop
   vertex 50.19935572070579 28.561419738610997 0
   vertex 66.43950026782755 44.800000000000004 0
   vertex 66.43950026782755 44.800000000000004 2.0
  endloop
 endfacet
 facet normal 0.707072723701478 -0.7071408370313322 0.0
  outer loop
   vertex 50.19935572070579 28.561419738610997 2.0
   vertex 50.19935572070579 28.561419738610997 0
   vertex 66.43950026782755 44.800000000000004 2.0
  endloop
 endfacet
 facet normal 0.0 0.0 1.0
  outer loop
   vertex 50.19935572070579 28.561419738610997 2.0
   vertex 66.43950026782755 44.800000000000004 2.0
   vertex 50.20091993110086 44.800000000000004 2.0
  endloop
 endfacet
 facet normal 0.0 0.0 -1.0
  outer loop
   vertex 53.560499732172445 21.3 0
   vertex 90.43950026782755 21.3 0
   vertex 71.99999999999999 2.8622758645895408 0
  endloop
 endfacet
 facet normal 0.0 1.0 0.0
  outer loop
   vertex 90.43950026782755 21.3 0
   vertex 53.560499732172445 21.3 0
   vertex 53.560499732172445 21.3 2.0
  endloop
 endfacet
 facet normal 0.0 1.0 0.0
  outer loop
   vertex 90.43950026782755 21.3 2.0
   vertex 90.43950026782755 21.3 0
   vertex 53.560499732172445 21.3 2.0
  endloop
 endfacet
 facet normal 0.7070727237014774 -0.7071408370313329 0.0
  outer loop
   vertex 71.99999999999999 2.8622758645895408 0
   vertex 90.43950026782755 21.3 0
   vertex 90.43950026782755 21.3 2.0
  endloop
 endfacet
 facet normal 0.7070727237014774 -0.7071408370313329 0.0
  outer loop
   vertex 71.99999999999999 2.8622758645895408 2.0
   vertex 71.99999999999999 2.8622758645895408 0
   vertex 90.43950026782755 21.3 2.0
  endloop
 endfacet
 facet normal -0.707072723701478 -0.7071408370313323 0.0
  outer loop
   vertex 53.560499732172445 21.3 0
   vertex 71.99999999999999 2.8622758645895408 0
   vertex 71.99999999999999 2.8622758645895408 2.0
  endloop
 endfacet
 facet normal -0.707072723701478 -0.7071408370313323 -0.0
  outer loop
   vertex 53.560499732172445 21.3 2.0
   vertex 53.560499732172445 21.3 0
   vertex 71.99999999999999 2.8622758645895408 2.0
  endloop
 endfacet
 facet normal -0.0 0.0 1.0
  outer loop
   vertex 53.560499732172445 21.3 2.0
   vertex 71.99999999999999 2.8622758645895408 2.0
   vertex 90.43950026782755 21.3 2.0
  endloop
 endfacet
 facet normal 0.0 0.0 -1.0
  outer loop
   vertex 90.43950026782755 25.7 0
   vertex 53.56049973217244 25.7 0
   vertex 71.99999999999999 44.13772413541045 0
  endloop
 endfacet
 facet normal 0.0 -1.0 0.0
  outer loop
   vertex 53.56049973217244 25.7 0
   vertex 90.43950026782755 25.7 0
   vertex 90.43950026782755 25.7 2.0
  endloop
 endfacet
 facet normal 0.0 -1.0 0.0
  outer loop
   vertex 53.56049973217244 25.7 2.0
   vertex 53.56049973217244 25.7 0
   vertex 90.43950026782755 25.7 2.0
  endloop
 endfacet
 facet normal -0.7070727237014777 0.7071408370313327 0.0
  outer loop
   vertex 71.99999999999999 44.13772413541045 0
   vertex 53.56049973217244 25.7 0
   vertex 53.56049973217244 25.7 2.0
  endloop
 endfacet
 facet normal -0.7070727237014777 0.7071408370313327 0.0
  outer loop
   vertex 71.99999999999999 44.13772413541045 2.0
   vertex 71.99999999999999 44.13772413541045 0
   vertex 53.56049973217244 25.7 2.0
  endloop
 endfacet
 facet normal 0.7070727237014773 0.7071408370313331 0.0
  outer loop
   vertex 90.43950026782755 25.7 0
   vertex 71.99999999999999 44.13772413541045 0
   vertex 71.99999999999999 44.13772413541045 2.0
  endloop
 endfacet
 facet normal 0.7070727237014773 0.7071408370313331 0.0
  outer loop
   vertex 90.43950026782755 25.7 2.0
   vertex 90.43950026782755 25.7 0
   vertex 71.99999999999999 44.13772413541045 2.0
  endloop
 endfacet
 facet normal 0.0 0.0 1.0
  outer loop
   vertex 90.43950026782755 25.7 2.0
   vertex 71.99999999999999 44.13772413541045 2.0
   vertex 53.56049973217244 25.7 2.0
  endloop
 endfacet
 facet normal 0.0 0.0 -1.0
  outer loop
   vertex 93.80064427929426 18.438580261389056 0
   vertex 93.79908006889916 2.2 0
   vertex 77.56049973217245 2.2 0
  endloop
 endfacet
 facet normal 0.9999999953605743 -9.632679474846581e-05 0.0
  outer loop
   vertex 93.79908006889916 2.2 0
   vertex 93.80064427929426 18.438580261389056 0
   vertex 93.80064427929426 18.438580261389056 2.0
  endloop
 endfacet
 facet normal 0.9999999953605743 -9.632679474846581e-05 0.0
  outer loop
   vertex 93.79908006889916 2.2 2.0
   vertex 93.79908006889916 2.2 0
   vertex 93.80064427929426 18.438580261389056 2.0
  endloop
 endfacet
 facet normal 0.0 -1.0 0.0
  outer loop
   vertex 77.56049973217245 2.2 0
   vertex 93.79908006889916 2.2 0
   vertex 93.79908006889916 2.2 2.0
  endloop
 endfacet
 facet normal 0.0 -1.0 0.0
  outer loop
   vertex 77.56049973217245 2.2 2.0
   vertex 77.56049973217245 2.2 0
   vertex 93.79908006889916 2.2 2.0
  endloop
 endfacet
 facet normal -0.7070727237014781 0.7071408370313323 0.0
  outer loop
   vertex 93.80064427929426 18.438580261389056 0
   vertex 77.56049973217245 2.2 0
   vertex 77.56049973217245 2.2 2.0
  endloop
 endfacet
 facet normal -0.7070727237014781 0.7071408370313323 0.0
  outer loop
   vertex 93.80064427929426 18.438580261389056 2.0
   vertex 93.80064427929426 18.438580261389056 0
   vertex 77.56049973217245 2.2 2.0
  endloop
 endfacet
 facet normal 0.0 0.0 1.0
  outer loop
   vertex 93.80064427929426 18.438580261389056 2.0
   vertex 77.56049973217245 2.2 2.0
   vertex 93.79908006889916 2.2 2.0
  endloop
 endfacet
 facet normal 0.0 0.0 -1.0
  outer loop
   vertex 93.80064427929426 28.56141973861096 0
   vertex 77.56049973217245 44.800000000000004 0
   vertex 93.79908006889913 44.800000000000004 0
  endloop
 endfacet
 facet normal -0.7070727237014778 -0.7071408370313327 0.0
  outer loop
   vertex 77.56049973217245 44.800000000000004 0
   vertex 93.80064427929426 28.56141973861096 0
   vertex 93.80064427929426 28.56141973861096 2.0
  endloop
 endfacet
 facet normal -0.7070727237014778 -0.7071408370313327 -0.0
  outer loop
   vertex 77.56049973217245 44.800000000000004 2.0
   vertex 77.56049973217245 44.800000000000004 0
   vertex 93.80064427929426 28.56141973861096 2.0
  endloop
 endfacet
 facet normal 0.0 1.0 0.0
  outer loop
   vertex 93.79908006889913 44.800000000000004 0
   vertex 77.56049973217245 44.800000000000004 0
   vertex 77.56049973217245 44.800000000000004 2.0
  endloop
 endfacet
 facet normal 0.0 1.0 0.0
  outer loop
   vertex 93.79908006889913 44.800000000000004 2.0
   vertex 93.79908006889913 44.800000000000004 0
   vertex 77.56049973217245 44.800000000000004 2.0
  endloop
 endfacet
 facet normal 0.9999999953605745 9.632679475021618e-05 0.0
  outer loop
   vertex 93.80064427929426 28.56141973861096 0
   vertex 93.79908006889913 44.800000000000004 0
   vertex 93.79908006889913 44.800000000000004 2.0
  endloop
 endfacet
 facet normal 0.9999999953605745 9.632679475021618e-05 0.0
  outer loop
   vertex 93.80064427929426 28.56141973861096 2.0
   vertex 93.80064427929426 28.56141973861096 0
   vertex 93.79908006889913 44.800000000000004 2.0
  endloop
 endfacet
 facet normal 0.0 0.0 1.0
  outer loop
   vertex 93.80064427929426 28.56141973861096 2.0
   vertex 93.79908006889913 44.800000000000004 2.0
   vertex 77.56049973217245 44.800000000000004 2.0
  endloop
 endfacet
 facet normal 0.0 -0.0 -1.0
  outer loop
   vertex 98.20091993110087 21.300000000000004 0
   vertex 114.43950026782755 21.300000000000004 0
   vertex 98.19935572070577 5.0614197386109785 0
  endloop
 endfacet
 facet normal 0.0 1.0 0.0
  outer loop
   vertex 114.43950026782755 21.300000000000004 0
   vertex 98.20091993110087 21.300000000000004 0
   vertex 98.20091993110087 21.300000000000004 2.0
  endloop
 endfacet
 facet normal 0.0 1.0 0.0
  outer loop
   vertex 114.43950026782755 21.300000000000004 2.0
   vertex 114.43950026782755 21.300000000000004 0
   vertex 98.20091993110087 21.300000000000004 2.0
  endloop
 endfacet
 facet normal 0.707072723701478 -0.7071408370313325 0.0
  outer loop
   vertex 98.19935572070577 5.0614197386109785 0
   vertex 114.43950026782755 21.300000000000004 0
   vertex 114.43950026782755 21.300000000000004 2.0
  endloop
 endfacet
 facet normal 0.707072723701478 -0.7071408370313325 0.0
  outer loop
   vertex 98.19935572070577 5.0614197386109785 2.0
   vertex 98.19935572070577 5.0614197386109785 0
   vertex 114.43950026782755 21.300000000000004 2.0
  endloop
 endfacet
 facet normal -0.9999999953605745 9.632679474846602e-05 0.0
  outer loop
   vertex 98.20091993110087 21.300000000000004 0
   vertex 98.19935572070577 5.0614197386109785 0
   vertex 98.19935572070577 5.0614197386109785 2.0
  endloop
 endfacet
 facet normal -0.9999999953605745 9.632679474846602e-05 0.0
  outer loop
   vertex 98.20091993110087 21.300000000000004 2.0
   vertex 98.20091993110087 21.300000000000004 0
   vertex 98.19935572070577 5.0614197386109785 2.0
  endloop
 endfacet
 facet normal -0.0 0.0 1.0
  outer loop
   vertex 98.20091993110087 21.300000000000004 2.0
   vertex 98.19935572070577 5.0614197386109785 2.0
   vertex 114.43950026782755 21.300000000000004 2.0
  endloop
 endfacet
 facet normal 0.0 0.0 -1.0
  outer loop
   vertex 114.43950026782754 25.700000000000003 0
   vertex 98.20091993110084 25.700000000000003 0
   vertex 98.19935572070577 41.93858026138905 0
  endloop
 endfacet
 facet normal 0.0 -1.0 0.0
  outer loop
   vertex 98.20091993110084 25.700000000000003 0
   vertex 114.43950026782754 25.700000000000003 0
   vertex 114.43950026782754 25.700000000000003 2.0
  endloop
 endfacet
 facet normal 0.0 -1.0 0.0
  outer loop
   vertex 98.20091993110084 25.700000000000003 2.0
   vertex 98.20091993110084 25.700000000000003 0
   vertex 114.43950026782754 25.700000000000003 2.0
  endloop
 endfacet
 facet normal -0.9999999953605745 -9.632679474671563e-05 0.0
  outer loop
   vertex 98.19935572070577 41.93858026138905 0
   vertex 98.20091993110084 25.700000000000003 0
   vertex 98.20091993110084 25.700000000000003 2.0
  endloop
 endfacet
 facet normal -0.9999999953605745 -9.632679474671563e-05 -0.0
  outer loop
   vertex 98.19935572070577 41.93858026138905 2.0
   vertex 98.19935572070577 41.93858026138905 0
   vertex 98.20091993110084 25.700000000000003 2.0
  endloop
 endfacet
 facet normal 0.7070727237014788 0.7071408370313317 0.0
  outer loop
   vertex 114.43950026782754 25.700000000000003 0
   vertex 98.19935572070577 41.93858026138905 0
   vertex 98.19935572070577 41.93858026138905 2.0
  endloop
 endfacet
 facet normal 0.7070727237014788 0.7071408370313317 0.0
  outer loop
   vertex 114.43950026782754 25.700000000000003 2.0
   vertex 114.43950026782754 25.700000000000003 0
   vertex 98.19935572070577 41.93858026138905 2.0
  endloop
 endfacet
 facet normal 0.0 0.0 1.0
  outer loop
   vertex 114.43950026782754 25.700000000000003 2.0
   vertex 98.19935572070577 41.93858026138905 2.0
   vertex 98.20091993110084 25.700000000000003 2.0
  endloop
 endfacet
 facet normal 0.0 -0.0 -1.0
  outer loop
   vertex 120.00000000000001 20.63772413541045 0
   vertex 138.43950026782755 2.2 0
   vertex 101.56049973217245 2.2 0
  endloop
 endfacet
 facet normal 0.7070727237014778 0.7071408370313325 0.0
  outer loop
   vertex 138.43950026782755 2.2 0
   vertex 120.00000000000001 20.63772413541045 0
   vertex 120.00000000000001 20.63772413541045 2.0
  endloop
 endfacet
 facet normal 0.7070727237014778 0.7071408370313325 0.0
  outer loop
   vertex 138.43950026782755 2.2 2.0
   vertex 138.43950026782755 2.2 0
   vertex 120.00000000000001 20.63772413541045 2.0
  endloop
 endfacet
 facet normal 0.0 -1.0 0.0
  outer loop
   vertex 101.56049973217245 2.2 0
   vertex 138.43950026782755 2.2 0
   vertex 138.43950026782755 2.2 2.0
  endloop
 endfacet
 facet normal 0.0 -1.0 0.0
  outer loop
   vertex 101.56049973217245 2.2 2.0
   vertex 101.56049973217245 2.2 0
   vertex 138.43950026782755 2.2 2.0
  endloop
 endfacet
 facet normal -0.7070727237014773 0.7071408370313331 0.0
  outer loop
   vertex 120.00000000000001 20.63772413541045 0
   vertex 101.56049973217245 2.2 0
   vertex 101.56049973217245 2.2 2.0
  endloop
 endfacet
 facet normal -0.7070727237014773 0.7071408370313331 0.0
  outer loop
   vertex 120.00000000000001 20.63772413541045 2.0
   vertex 120.00000000000001 20.63772413541045 0
   vertex 101.56049973217245 2.2 2.0
  endloop
 endfacet
 facet normal 0.0 0.0 1.0
  outer loop
   vertex 120.00000000000001 20.63772413541045 2.0
   vertex 101.56049973217245 2.2 2.0
   vertex 138.43950026782755 2.2 2.0
  endloop
 endfacet
 facet normal 0.0 0.0 -1.0
  outer loop
   vertex 119.99999999999999 26.362275864589495 0
   vertex 101.56049973217245 44.79999999999999 0
   vertex 138.43950026782755 44.79999999999999 0
  endloop
 endfacet
 facet normal -0.7070727237014787 -0.7071408370313317 0.0
  outer loop
   vertex 101.56049973217245 44.79999999999999 0
   vertex 119.99999999999999 26.362275864589495 0
   vertex 119.99999999999999 26.362275864589495 2.0
  endloop
 endfacet
 facet normal -0.7070727237014787 -0.7071408370313317 -0.0
  outer loop
   vertex 101.56049973217245 44.79999999999999 2.0
   vertex 101.56049973217245 44.79999999999999 0
   vertex 119.99999999999999 26.362275864589495 2.0
  endloop
 endfacet
 facet normal 0.0 1.0 0.0
  outer loop
   vertex 138.43950026782755 44.79999999999999 0
   vertex 101.56049973217245 44.79999999999999 0
   vertex 101.56049973217245 44.79999999999999 2.0
  endloop
 endfacet
 facet normal 0.0 1.0 0.0
  outer loop
   vertex 138.43950026782755 44.79999999999999 2.0
   vertex 138.43950026782755 44.79999999999999 0
   vertex 101.56049973217245 44.79999999999999 2.0
  endloop
 endfacet
 facet normal 0.7070727237014781 -0.7071408370313322 0.0
  outer loop
   vertex 119.99999999999999 26.362275864589495 0
   vertex 138.43950026782755 44.79999999999999 0
   vertex 138.43950026782755 44.79999999999999 2.0
  endloop
 endfacet
 facet normal 0.7070727237014781 -0.7071408370313322 0.0
  outer loop
   vertex 119.99999999999999 26.362275864589495 2.0
   vertex 119.99999999999999 26.362275864589495 0
   vertex 138.43950026782755 44.79999999999999 2.0
  endloop
 endfacet
 facet normal 0.0 -0.0 1.0
  outer loop
   vertex 119.99999999999999 26.362275864589495 2.0
   vertex 138.43950026782755 44.79999999999999 2.0
   vertex 101.56049973217245 44.79999999999999 2.0
  endloop
 endfacet
 facet normal 0.0 0.0 -1.0
  outer loop
   vertex 125.56049973217243 21.3 0
   vertex 141.79824738313073 21.3 0
   vertex 141.78532835912955 5.076734183513233 0
  endloop
 endfacet
 facet normal 0.0 1.0 0.0
  outer loop
   vertex 141.79824738313073 21.3 0
   vertex 125.56049973217243 21.3 0
   vertex 125.56049973217243 21.3 2.0
  endloop
 endfacet
 facet normal 0.0 1.0 0.0
  outer loop
   vertex 141.79824738313073 21.3 2.0
   vertex 141.79824738313073 21.3 0
   vertex 125.56049973217243 21.3 2.0
  endloop
 endfacet
 facet normal 0.9999996829318346 -0.0007963267107315697 0.0
  outer loop
   vertex 141.78532835912955 5.076734183513233 0
   vertex 141.79824738313073 21.3 0
   vertex 141.79824738313073 21.3 2.0
  endloop
 endfacet
 facet normal 0.9999996829318346 -0.0007963267107315697 0.0
  outer loop
   vertex 141.78532835912955 5.076734183513233 2.0
   vertex 141.78532835912955 5.076734183513233 0
   vertex 141.79824738313073 21.3 2.0
  endloop
 endfacet
 facet normal -0.707072723701477 -0.7071408370313331 0.0
  outer loop
   vertex 125.56049973217243 21.3 0
   vertex 141.78532835912955 5.076734183513233 0
   vertex 141.78532835912955 5.076734183513233 2.0
  endloop
 endfacet
 facet normal -0.707072723701477 -0.7071408370313331 -0.0
  outer loop
   vertex 125.56049973217243 21.3 2.0
   vertex 125.56049973217243 21.3 0
   vertex 141.78532835912955 5.076734183513233 2.0
  endloop
 endfacet
 facet normal -0.0 0.0 1.0
  outer loop
   vertex 125.56049973217243 21.3 2.0
   vertex 141.78532835912955 5.076734183513233 2.0
   vertex 141.79824738313073 21.3 2.0
  endloop
 endfacet
 facet normal 0.0 0.0 -1.0
  outer loop
   vertex 141.7982473831307 25.7 0
   vertex 125.56049973217246 25.7 0
   vertex 141.7853283591295 41.92326581648672 0
  endloop
 endfacet
 facet normal 0.0 -1.0 0.0
  outer loop
   vertex 125.56049973217246 25.7 0
   vertex 141.7982473831307 25.7 0
   vertex 141.7982473831307 25.7 2.0
  endloop
 endfacet
 facet normal 0.0 -1.0 0.0
  outer loop
   vertex 125.56049973217246 25.7 2.0
   vertex 125.56049973217246 25.7 0
   vertex 141.7982473831307 25.7 2.0
  endloop
 endfacet
 facet normal -0.707072723701478 0.7071408370313325 0.0
  outer loop
   vertex 141.7853283591295 41.92326581648672 0
   vertex 125.56049973217246 25.7 0
   vertex 125.56049973217246 25.7 2.0
  endloop
 endfacet
 facet normal -0.707072723701478 0.7071408370313325 0.0
  outer loop
   vertex 141.7853283591295 41.92326581648672 2.0
   vertex 141.7853283591295 41.92326581648672 0
   vertex 125.56049973217246 25.7 2.0
  endloop
 endfacet
 facet normal 0.9999996829318346 0.000796326710733324 0.0
  outer loop
   vertex 141.7982473831307 25.7 0
   vertex 141.7853283591295 41.92326581648672 0
   vertex 141.7853283591295 41.92326581648672 2.0
  endloop
 endfacet
 facet normal 0.9999996829318346 0.000796326710733324 0.0
  outer loop
   vertex 141.7982473831307 25.7 2.0
   vertex 141.7982473831307 25.7 0
   vertex 141.7853283591295 41.92326581648672 2.0
  endloop
 endfacet
 facet normal 0.0 0.0 1.0
  outer loop
   vertex 141.7982473831307 25.7 2.0
   vertex 141.7853283591295 41.92326581648672 2.0
   vertex 125.56049973217246 25.7 2.0
  endloop
 endfacet
 facet normal 0.0 -0.0 -1.0
  outer loop
   vertex 2.1982487782310947 68.3 0
   vertex 18.439500267827558 68.3 0
   vertex 2.185306372127038 52.04737174329579 0
  endloop
 endfacet
 facet normal 0.0 1.0 0.0
  outer loop
   vertex 18.439500267827558 68.3 0
   vertex 2.1982487782310947 68.3 0
   vertex 2.1982487782310947 68.3 2.0
  endloop
 endfacet
 facet normal 0.0 1.0 0.0
  outer loop
   vertex 18.439500267827558 68.3 2.0
   vertex 18.439500267827558 68.3 0
   vertex 2.1982487782310947 68.3 2.0
  endloop
 endfacet
 facet normal 0.7070727237014778 -0.7071408370313326 0.0
  outer loop
   vertex 2.185306372127038 52.04737174329579 0
   vertex 18.439500267827558 68.3 0
   vertex 18.439500267827558 68.3 2.0
  endloop
 endfacet
 facet normal 0.7070727237014778 -0.7071408370313326 0.0
  outer loop
   vertex 2.185306372127038 52.04737174329579 2.0
   vertex 2.185306372127038 52.04737174329579 0
   vertex 18.439500267827558 68.3 2.0
  endloop
 endfacet
 facet normal -0.9999996829318347 0.000796326710733271 0.0
  outer loop
   vertex 2.1982487782310947 68.3 0
   vertex 2.185306372127038 52.04737174329579 0
   vertex 2.185306372127038 52.04737174329579 2.0
  endloop
 endfacet
 facet normal -0.9999996829318347 0.000796326710733271 0.0
  outer loop
   vertex 2.1982487782310947 68.3 2.0
   vertex 2.1982487782310947 68.3 0
   vertex 2.185306372127038 52.04737174329579 2.0
  endloop
 endfacet
 facet normal -0.0 0.0 1.0
  outer loop
   vertex 2.1982487782310947 68.3 2.0
   vertex 2.185306372127038 52.04737174329579 2.0
   vertex 18.439500267827558 68.3 2.0
  endloop
 endfacet
 facet normal 0.0 0.0 -1.0
  outer loop
   vertex 18.439500267827544 72.7 0
   vertex 2.1982487782310947 72.7 0
   vertex 2.1853063721270374 88.95262825670417 0
  endloop
 endfacet
 facet normal 0.0 -1.0 0.0
  outer loop
   vertex 2.1982487782310947 72.7 0
   vertex 18.439500267827544 72.7 0
   vertex 18.439500267827544 72.7 2.0
  endloop
 endfacet
 facet normal 0.0 -1.0 0.0
  outer loop
   vertex 2.1982487782310947 72.7 2.0
   vertex 2.1982487782310947 72.7 0
   vertex 18.439500267827544 72.7 2.0
  endloop
 endfacet
 facet normal -0.9999996829318345 -0.0007963267107333 0.0
  outer loop
   vertex 2.1853063721270374 88.95262825670417 0
   vertex 2.1982487782310947 72.7 0
   vertex 2.1982487782310947 72.7 2.0
  endloop
 endfacet
 facet normal -0.9999996829318345 -0.0007963267107333 -0.0
  outer loop
   vertex 2.1853063721270374 88.95262825670417 2.0
   vertex 2.1853063721270374 88.95262825670417 0
   vertex 2.1982487782310947 72.7 2.0
  endloop
 endfacet
 facet normal 0.7070727237014772 0.7071408370313331 0.0
  outer loop
   vertex 18.439500267827544 72.7 0
   vertex 2.1853063721270374 88.95262825670417 0
   vertex 2.1853063721270374 88.95262825670417 2.0
  endloop
 endfacet
 facet normal 0.7070727237014772 0.7071408370313331 0.0
  outer loop
   vertex 18.439500267827544 72.7 2.0
   vertex 18.439500267827544 72.7 0
   vertex 2.1853063721270374 88.95262825670417 2.0
  endloop
 endfacet
 facet normal 0.0 0.0 1.0
  outer loop
   vertex 18.439500267827544 72.7 2.0
   vertex 2.1853063721270374 88.95262825670417 2.0
   vertex 2.1982487782310947 72.7 2.0
  endloop
 endfacet
 facet normal 0.0 -0.0 -1.0
  outer loop
   vertex 24.0 67.63772413541047 0
   vertex 42.439500267827555 49.2 0
   vertex 5.560499732172447 49.2 0
  endloop
 endfacet
 facet normal 0.7070727237014777 0.7071408370313326 0.0
  outer loop
   vertex 42.439500267827555 49.2 0
   vertex 24.0 67.63772413541047 0
   vertex 24.0 67.63772413541047 2.0
  endloop
 endfacet
 facet normal 0.7070727237014777 0.7071408370313326 0.0
  outer loop
   vertex 42.439500267827555 49.2 2.0
   vertex 42.439500267827555 49.2 0
   vertex 24.0 67.63772413541047 2.0
  endloop
 endfacet
 facet normal 0.0 -1.0 0.0
  outer loop
   vertex 5.560499732172447 49.2 0
   vertex 42.439500267827555 49.2 0
   vertex 42.439500267827555 49.2 2.0
  endloop
 endfacet
 facet normal 0.0 -1.0 0.0
  outer loop
   vertex 5.560499732172447 49.2 2.0
   vertex 5.560499732172447 49.2 0
   vertex 42.439500267827555 49.2 2.0
  endloop
 endfacet
 facet normal -0.7070727237014777 0.7071408370313326 0.0
  outer loop
   vertex 24.0 67.63772413541047 0
   vertex 5.560499732172447 49.2 0
   vertex 5.560499732172447 49.2 2.0
  endloop
 endfacet
 facet normal -0.7070727237014777 0.7071408370313326 0.0
  outer loop
   vertex 24.0 67.63772413541047 2.0
   vertex 24.0 67.63772413541047 0
   vertex 5.560499732172447 49.2 2.0
  endloop
 endfacet
 facet normal 0.0 0.0 1.0
  outer loop
   vertex 24.0 67.63772413541047 2.0
   vertex 5.560499732172447 49.2 2.0
   vertex 42.439500267827555 49.2 2.0
  endloop
 endfacet
 facet normal 0.0 0.0 -1.0
  outer loop
   vertex 23.999999999999996 73.36227586458955 0
   vertex 5.560499732172433 91.8 0
   vertex 42.43950026782756 91.8 0
  endloop
 endfacet
 facet normal -0.7070727237014773 -0.707140837031333 0.0
  outer loop
   vertex 5.560499732172433 91.8 0
   vertex 23.999999999999996 73.36227586458955 0
   vertex 23.999999999999996 73.36227586458955 2.0
  endloop
 endfacet
 facet normal -0.7070727237014773 -0.707140837031333 -0.0
  outer loop
   vertex 5.560499732172433 91.8 2.0
   vertex 5.560499732172433 91.8 0
   vertex 23.999999999999996 73.36227586458955 2.0
  endloop
 endfacet
 facet normal 0.0 1.0 0.0
  outer loop
   vertex 42.43950026782756 91.8 0
   vertex 5.560499732172433 91.8 0
   vertex 5.560499732172433 91.8 2.0
  endloop
 endfacet
 facet normal 0.0 1.0 0.0
  outer loop
   vertex 42.43950026782756 91.8 2.0
   vertex 42.43950026782756 91.8 0
   vertex 5.560499732172433 91.8 2.0
  endloop
 endfacet
 facet normal 0.7070727237014772 -0.707140837031333 0.0
  outer loop
   vertex 23.999999999999996 73.36227586458955 0
   vertex 42.43950026782756 91.8 0
   vertex 42.43950026782756 91.8 2.0
  endloop
 endfacet
 facet normal 0.7070727237014772 -0.707140837031333 0.0
  outer loop
   vertex 23.999999999999996 73.36227586458955 2.0
   vertex 23.999999999999996 73.36227586458955 0
   vertex 42.43950026782756 91.8 2.0
  endloop
 endfacet
 facet normal 0.0 -0.0 1.0
  outer loop
   vertex 23.999999999999996 73.36227586458955 2.0
   vertex 42.43950026782756 91.8 2.0
   vertex 5.560499732172433 91.8 2.0
  endloop
 endfacet
 facet normal 0.0 0.0 -1.0
  outer loop
   vertex 29.560499732172456 68.29999999999998 0
   vertex 45.79908006889915 68.29999999999998 0
   vertex 45.80064427929426 52.06141973861095 0
  endloop
 endfacet
 facet normal 0.0 1.0 0.0
  outer loop
   vertex 45.79908006889915 68.29999999999998 0
   vertex 29.560499732172456 68.29999999999998 0
   vertex 29.560499732172456 68.29999999999998 2.0
  endloop
 endfacet
 facet normal 0.0 1.0 0.0
  outer loop
   vertex 45.79908006889915 68.29999999999998 2.0
   vertex 45.79908006889915 68.29999999999998 0
   vertex 29.560499732172456 68.29999999999998 2.0
  endloop
 endfacet
 facet normal 0.9999999953605745 9.632679474890354e-05 0.0
  outer loop
   vertex 45.80064427929426 52.06141973861095 0
   vertex 45.79908006889915 68.29999999999998 0
   vertex 45.79908006889915 68.29999999999998 2.0
  endloop
 endfacet
 facet normal 0.9999999953605745 9.632679474890354e-05 0.0
  outer loop
   vertex 45.80064427929426 52.06141973861095 2.0
   vertex 45.80064427929426 52.06141973861095 0
   vertex 45.79908006889915 68.29999999999998 2.0
  endloop
 endfacet
 facet normal -0.7070727237014778 -0.7071408370313327 0.0
  outer loop
   vertex 29.560499732172456 68.29999999999998 0
   vertex 45.80064427929426 52.06141973861095 0
   vertex 45.80064427929426 52.06141973861095 2.0
  endloop
 endfacet
 facet normal -0.7070727237014778 -0.7071408370313327 -0.0
  outer loop
   vertex 29.560499732172456 68.29999999999998 2.0
   vertex 29.560499732172456 68.29999999999998 0
   vertex 45.80064427929426 52.06141973861095 2.0
  endloop
 endfacet
 facet normal -0.0 0.0 1.0
  outer loop
   vertex 29.560499732172456 68.29999999999998 2.0
   vertex 45.80064427929426 52.06141973861095 2.0
   vertex 45.79908006889915 68.29999999999998 2.0
  endloop
 endfacet
 facet normal 0.0 0.0 -1.0
  outer loop
   vertex 45.79908006889917 72.69999999999999 0
   vertex 29.560499732172435 72.69999999999999 0
   vertex 45.800644279294254 88.93858026138905 0
  endloop
 endfacet
 facet normal 0.0 -1.0 0.0
  outer loop
   vertex 29.560499732172435 72.69999999999999 0
   vertex 45.79908006889917 72.69999999999999 0
   vertex 45.79908006889917 72.69999999999999 2.0
  endloop
 endfacet
 facet normal 0.0 -1.0 0.0
  outer loop
   vertex 29.560499732172435 72.69999999999999 2.0
   vertex 29.560499732172435 72.69999999999999 0
   vertex 45.79908006889917 72.69999999999999 2.0
  endloop
 endfacet
 facet normal -0.707072723701478 0.7071408370313322 0.0
  outer loop
   vertex 45.800644279294254 88.93858026138905 0
   vertex 29.560499732172435 72.69999999999999 0
   vertex 29.560499732172435 72.69999999999999 2.0
  endloop
 endfacet
 facet normal -0.707072723701478 0.7071408370313322 0.0
  outer loop
   vertex 45.800644279294254 88.93858026138905 2.0
   vertex 45.800644279294254 88.93858026138905 0
   vertex 29.560499732172435 72.69999999999999 2.0
  endloop
 endfacet
 facet normal 0.9999999953605743 -9.63267947471531e-05 0.0
  outer loop
   vertex 45.79908006889917 72.69999999999999 0
   vertex 45.800644279294254 88.93858026138905 0
   vertex 45.800644279294254 88.93858026138905 2.0
  endloop
 endfacet
 facet normal 0.9999999953605743 -9.63267947471531e-05 0.0
  outer loop
   vertex 45.79908006889917 72.69999999999999 2.0
   vertex 45.79908006889917 72.69999999999999 0
   vertex 45.800644279294254 88.93858026138905 2.0
  endloop
 endfacet
 facet normal 0.0 -0.0 1.0
  outer loop
   vertex 45.79908006889917 72.69999999999999 2.0
   vertex 45.800644279294254 88.93858026138905 2.0
   vertex 29.560499732172435 72.69999999999999 2.0
  endloop
 endfacet
 facet normal 0.0 0.0 -1.0
  outer loop
   vertex 50.199355720705746 65.43858026138906 0
   vertex 66.43950026782757 49.20000000000001 0
   vertex 50.20091993110085 49.20000000000001 0
  endloop
 endfacet
 facet normal 0.7070727237014778 0.7071408370313326 0.0
  outer loop
   vertex 66.43950026782757 49.20000000000001 0
   vertex 50.199355720705746 65.43858026138906 0
   vertex 50.199355720705746 65.43858026138906 2.0
  endloop
 endfacet
 facet normal 0.7070727237014778 0.7071408370313326 0.0
  outer loop
   vertex 66.43950026782757 49.20000000000001 2.0
   vertex 66.43950026782757 49.20000000000001 0
   vertex 50.199355720705746 65.43858026138906 2.0
  endloop
 endfacet
 facet normal 0.0 -1.0 0.0
  outer loop
   vertex 50.20091993110085 49.20000000000001 0
   vertex 66.43950026782757 49.20000000000001 0
   vertex 66.43950026782757 49.20000000000001 2.0
  endloop
 endfacet
 facet normal 0.0 -1.0 0.0
  outer loop
   vertex 50.20091993110085 49.20000000000001 2.0
   vertex 50.20091993110085 49.20000000000001 0
   vertex 66.43950026782757 49.20000000000001 2.0
  endloop
 endfacet
 facet normal -0.9999999953605745 -9.632679474846586e-05 0.0
  outer loop
   vertex 50.199355720705746 65.43858026138906 0
   vertex 50.20091993110085 49.20000000000001 0
   vertex 50.20091993110085 49.20000000000001 2.0
  endloop
 endfacet
 facet normal -0.9999999953605745 -9.632679474846586e-05 -0.0
  outer loop
   vertex 50.199355720705746 65.43858026138906 2.0
   vertex 50.199355720705746 65.43858026138906 0
   vertex 50.20091993110085 49.20000000000001 2.0
  endloop
 endfacet
 facet normal 0.0 0.0 1.0
  outer loop
   vertex 50.199355720705746 65.43858026138906 2.0
   vertex 50.20091993110085 49.20000000000001 2.0
   vertex 66.43950026782757 49.20000000000001 2.0
  endloop
 endfacet
 facet normal 0.0 0.0 -1.0
  outer loop
   vertex 50.19935572070575 75.56141973861102 0
   vertex 50.20091993110086 91.80000000000001 0
   vertex 66.43950026782755 91.80000000000001 0
  endloop
 endfacet
 facet normal -0.9999999953605743 9.632679474890378e-05 0.0
  outer loop
   vertex 50.20091993110086 91.80000000000001 0
   vertex 50.19935572070575 75.56141973861102 0
   vertex 50.19935572070575 75.56141973861102 2.0
  endloop
 endfacet
 facet normal -0.9999999953605743 9.632679474890378e-05 0.0
  outer loop
   vertex 50.20091993110086 91.80000000000001 2.0
   vertex 50.20091993110086 91.80000000000001 0
   vertex 50.19935572070575 75.56141973861102 2.0
  endloop
 endfacet
 facet normal 0.0 1.0 0.0
  outer loop
   vertex 66.43950026782755 91.80000000000001 0
   vertex 50.20091993110086 91.80000000000001 0
   vertex 50.20091993110086 91.80000000000001 2.0
  endloop
 endfacet
 facet normal 0.0 1.0 0.0
  outer loop
   vertex 66.43950026782755 91.80000000000001 2.0
   vertex 66.43950026782755 91.80000000000001 0
   vertex 50.20091993110086 91.80000000000001 2.0
  endloop
 endfacet
 facet normal 0.707072723701477 -0.7071408370313336 0.0
  outer loop
   vertex 50.19935572070575 75.56141973861102 0
   vertex 66.43950026782755 91.80000000000001 0
   vertex 66.43950026782755 91.80000000000001 2.0
  endloop
 endfacet
 facet normal 0.707072723701477 -0.7071408370313336 0.0
  outer loop
   vertex 50.19935572070575 75.56141973861102 2.0
   vertex 50.19935572070575 75.56141973861102 0
   vertex 66.43950026782755 91.80000000000001 2.0
  endloop
 endfacet
 facet normal 0.0 0.0 1.0
  outer loop
   vertex 50.19935572070575 75.56141973861102 2.0
   vertex 66.43950026782755 91.80000000000001 2.0
   vertex 50.20091993110086 91.80000000000001 2.0
  endloop
 endfacet
 facet normal 0.0 0.0 -1.0
  outer loop
   vertex 53.56049973217246 68.3 0
   vertex 90.43950026782754 68.3 0
   vertex 72.00000000000001 49.86227586458955 0
  endloop
 endfacet
 facet normal 0.0 1.0 0.0
  outer loop
   vertex 90.43950026782754 68.3 0
   vertex 53.56049973217246 68.3 0
   vertex 53.56049973217246 68.3 2.0
  endloop
 endfacet
 facet normal 0.0 1.0 0.0
  outer loop
   vertex 90.43950026782754 68.3 2.0
   vertex 90.43950026782754 68.3 0
   vertex 53.56049973217246 68.3 2.0
  endloop
 endfacet
 facet normal 0.707072723701478 -0.7071408370313323 0.0
  outer loop
   vertex 72.00000000000001 49.86227586458955 0
   vertex 90.43950026782754 68.3 0
   vertex 90.43950026782754 68.3 2.0
  endloop
 endfacet
 facet normal 0.707072723701478 -0.7071408370313323 0.0
  outer loop
   vertex 72.00000000000001 49.86227586458955 2.0
   vertex 72.00000000000001 49.86227586458955 0
   vertex 90.43950026782754 68.3 2.0
  endloop
 endfacet
 facet normal -0.7070727237014774 -0.7071408370313329 0.0
  outer loop
   vertex 53.56049973217246 68.3 0
   vertex 72.00000000000001 49.86227586458955 0
   vertex 72.00000000000001 49.86227586458955 2.0
  endloop
 endfacet
 facet normal -0.7070727237014774 -0.7071408370313329 -0.0
  outer loop
   vertex 53.56049973217246 68.3 2.0
   vertex 53.56049973217246 68.3 0
   vertex 72.00000000000001 49.86227586458955 2.0
  endloop
 endfacet
 facet normal -0.0 0.0 1.0
  outer loop
   vertex 53.56049973217246 68.3 2.0
   vertex 72.00000000000001 49.86227586458955 2.0
   vertex 90.43950026782754 68.3 2.0
  endloop
 endfacet
 facet normal 0.0 0.0 -1.0
  outer loop
   vertex 90.43950026782757 72.7 0
   vertex 53.56049973217243 72.7 0
   vertex 71.99999999999999 91.1377241354105 0
  endloop
 endfacet
 facet normal 0.0 -1.0 0.0
  outer loop
   vertex 53.56049973217243 72.7 0
   vertex 90.43950026782757 72.7 0
   vertex 90.43950026782757 72.7 2.0
  endloop
 endfacet
 facet normal 0.0 -1.0 0.0
  outer loop
   vertex 53.56049973217243 72.7 2.0
   vertex 53.56049973217243 72.7 0
   vertex 90.43950026782757 72.7 2.0
  endloop
 endfacet
 facet normal -0.7070727237014783 0.7071408370313321 0.0
  outer loop
   vertex 71.99999999999999 91.1377241354105 0
   vertex 53.56049973217243 72.7 0
   vertex 53.56049973217243 72.7 2.0
  endloop
 endfacet
 facet normal -0.7070727237014783 0.7071408370313321 0.0
  outer loop
   vertex 71.99999999999999 91.1377241354105 2.0
   vertex 71.99999999999999 91.1377241354105 0
   vertex 53.56049973217243 72.7 2.0
  endloop
 endfacet
 facet normal 0.7070727237014778 0.7071408370313326 0.0
  outer loop
   vertex 90.43950026782757 72.7 0
   vertex 71.99999999999999 91.1377241354105 0
   vertex 71.99999999999999 91.1377241354105 2.0
  endloop
 endfacet
 facet normal 0.7070727237014778 0.7071408370313326 0.0
  outer loop
   vertex 90.43950026782757 72.7 2.0
   vertex 90.43950026782757 72.7 0
   vertex 71.99999999999999 91.1377241354105 2.0
  endloop
 endfacet
 facet normal 0.0 0.0 1.0
  outer loop
   vertex 90.43950026782757 72.7 2.0
   vertex 71.99999999999999 91.1377241354105 2.0
   vertex 53.56049973217243 72.7 2.0
  endloop
 endfacet
 facet normal 0.0 0.0 -1.0
  outer loop
   vertex 93.80064427929425 65.43858026138905 0
   vertex 93.79908006889916 49.20000000000001 0
   vertex 77.56049973217245 49.20000000000001 0
  endloop
 endfacet
 facet normal 0.9999999953605745 -9.632679474759082e-05 0.0
  outer loop
   vertex 93.79908006889916 49.20000000000001 0
   vertex 93.80064427929425 65.43858026138905 0
   vertex 93.80064427929425 65.43858026138905 2.0
  endloop
 endfacet
 facet normal 0.9999999953605745 -9.632679474759082e-05 0.0
  outer loop
   vertex 93.79908006889916 49.20000000000001 2.0
   vertex 93.79908006889916 49.20000000000001 0
   vertex 93.80064427929425 65.43858026138905 2.0
  endloop
 endfacet
 facet normal 0.0 -1.0 0.0
  outer loop
   vertex 77.56049973217245 49.20000000000001 0
   vertex 93.79908006889916 49.20000000000001 0
   vertex 93.79908006889916 49.20000000000001 2.0
  endloop
 endfacet
 facet normal 0.0 -1.0 0.0
  outer loop
   vertex 77.56049973217245 49.20000000000001 2.0
   vertex 77.56049973217245 49.20000000000001 0
   vertex 93.79908006889916 49.20000000000001 2.0
  endloop
 endfacet
 facet normal -0.7070727237014781 0.7071408370313325 0.0
  outer loop
   vertex 93.80064427929425 65.43858026138905 0
   vertex 77.56049973217245 49.20000000000001 0
   vertex 77.56049973217245 49.20000000000001 2.0
  endloop
 endfacet
 facet normal -0.7070727237014781 0.7071408370313325 0.0
  outer loop
   vertex 93.80064427929425 65.43858026138905 2.0
   vertex 93.80064427929425 65.43858026138905 0
   vertex 77.56049973217245 49.20000000000001 2.0
  endloop
 endfacet
 facet normal 0.0 0.0 1.0
  outer loop
   vertex 93.80064427929425 65.43858026138905 2.0
   vertex 77.56049973217245 49.20000000000001 2.0
   vertex 93.79908006889916 49.20000000000001 2.0
  endloop
 endfacet
 facet normal 0.0 0.0 -1.0
  outer loop
   vertex 93.80064427929427 75.56141973861095 0
   vertex 77.56049973217245 91.80000000000001 0
   vertex 93.79908006889913 91.80000000000001 0
  endloop
 endfacet
 facet normal -0.7070727237014778 -0.7071408370313325 0.0
  outer loop
   vertex 77.56049973217245 91.80000000000001 0
   vertex 93.80064427929427 75.56141973861095 0
   vertex 93.80064427929427 75.56141973861095 2.0
  endloop
 endfacet
 facet normal -0.7070727237014778 -0.7071408370313325 -0.0
  outer loop
   vertex 77.56049973217245 91.80000000000001 2.0
   vertex 77.56049973217245 91.80000000000001 0
   vertex 93.80064427929427 75.56141973861095 2.0
  endloop
 endfacet
 facet normal 0.0 1.0 0.0
  outer loop
   vertex 93.79908006889913 91.80000000000001 0
   vertex 77.56049973217245 91.80000000000001 0
   vertex 77.56049973217245 91.80000000000001 2.0
  endloop
 endfacet
 facet normal 0.0 1.0 0.0
  outer loop
   vertex 93.79908006889913 91.80000000000001 2.0
   vertex 93.79908006889913 91.80000000000001 0
   vertex 77.56049973217245 91.80000000000001 2.0
  endloop
 endfacet
 facet normal 0.9999999953605743 9.632679475109118e-05 0.0
  outer loop
   vertex 93.80064427929427 75.56141973861095 0
   vertex 93.79908006889913 91.80000000000001 0
   vertex 93.79908006889913 91.80000000000001 2.0
  endloop
 endfacet
 facet normal 0.9999999953605743 9.632679475109118e-05 0.0
  outer loop
   vertex 93.80064427929427 75.56141973861095 2.0
   vertex 93.80064427929427 75.56141973861095 0
   vertex 93.79908006889913 91.80000000000001 2.0
  endloop
 endfacet
 facet normal 0.0 0.0 1.0
  outer loop
   vertex 93.80064427929427 75.56141973861095 2.0
   vertex 93.79908006889913 91.80000000000001 2.0
   vertex 77.56049973217245 91.80000000000001 2.0
  endloop
 endfacet
 facet normal 0.0 -0.0 -1.0
  outer loop
   vertex 98.20091993110087 68.29999999999997 0
   vertex 114.4395002678275 68.29999999999997 0
   vertex 98.19935572070577 52.06141973861102 0
  endloop
 endfacet
 facet normal 0.0 1.0 0.0
  outer loop
   vertex 114.4395002678275 68.29999999999997 0
   vertex 98.20091993110087 68.29999999999997 0
   vertex 98.20091993110087 68.29999999999997 2.0
  endloop
 endfacet
 facet normal 0.0 1.0 0.0
  outer loop
   vertex 114.4395002678275 68.29999999999997 2.0
   vertex 114.4395002678275 68.29999999999997 0
   vertex 98.20091993110087 68.29999999999997 2.0
  endloop
 endfacet
 facet normal 0.7070727237014776 -0.7071408370313329 0.0
  outer loop
   vertex 98.19935572070577 52.06141973861102 0
   vertex 114.4395002678275 68.29999999999997 0
   vertex 114.4395002678275 68.29999999999997 2.0
  endloop
 endfacet
 facet normal 0.7070727237014776 -0.7071408370313329 0.0
  outer loop
   vertex 98.19935572070577 52.06141973861102 2.0
   vertex 98.19935572070577 52.06141973861102 0
   vertex 114.4395002678275 68.29999999999997 2.0
  endloop
 endfacet
 facet normal -0.9999999953605743 9.632679474846647e-05 0.0
  outer loop
   vertex 98.20091993110087 68.29999999999997 0
   vertex 98.19935572070577 52.06141973861102 0
   vertex 98.19935572070577 52.06141973861102 2.0
  endloop
 endfacet
 facet normal -0.9999999953605743 9.632679474846647e-05 0.0
  outer loop
   vertex 98.20091993110087 68.29999999999997 2.0
   vertex 98.20091993110087 68.29999999999997 0
   vertex 98.19935572070577 52.06141973861102 2.0
  endloop
 endfacet
 facet normal -0.0 0.0 1.0
  outer loop
   vertex 98.20091993110087 68.29999999999997 2.0
   vertex 98.19935572070577 52.06141973861102 2.0
   vertex 114.4395002678275 68.29999999999997 2.0
  endloop
 endfacet
 facet normal 0.0 0.0 -1.0
  outer loop
   vertex 114.4395002678276 72.69999999999997 0
   vertex 98.20091993110084 72.69999999999997 0
   vertex 98.19935572070578 88.93858026138906 0
  endloop
 endfacet
 facet normal 0.0 -1.0 0.0
  outer loop
   vertex 98.20091993110084 72.69999999999997 0
   vertex 114.4395002678276 72.69999999999997 0
   vertex 114.4395002678276 72.69999999999997 2.0
  endloop
 endfacet
 facet normal 0.0 -1.0 0.0
  outer loop
   vertex 98.20091993110084 72.69999999999997 2.0
   vertex 98.20091993110084 72.69999999999997 0
   vertex 114.4395002678276 72.69999999999997 2.0
  endloop
 endfacet
 facet normal -0.9999999953605743 -9.632679474584024e-05 0.0
  outer loop
   vertex 98.19935572070578 88.93858026138906 0
   vertex 98.20091993110084 72.69999999999997 0
   vertex 98.20091993110084 72.69999999999997 2.0
  endloop
 endfacet
 facet normal -0.9999999953605743 -9.632679474584024e-05 -0.0
  outer loop
   vertex 98.19935572070578 88.93858026138906 2.0
   vertex 98.19935572070578 88.93858026138906 0
   vertex 98.20091993110084 72.69999999999997 2.0
  endloop
 endfacet
 facet normal 0.7070727237014787 0.7071408370313316 0.0
  outer loop
   vertex 114.4395002678276 72.69999999999997 0
   vertex 98.19935572070578 88.93858026138906 0
   vertex 98.19935572070578 88.93858026138906 2.0
  endloop
 endfacet
 facet normal 0.7070727237014787 0.7071408370313316 0.0
  outer loop
   vertex 114.4395002678276 72.69999999999997 2.0
   vertex 114.4395002678276 72.69999999999997 0
   vertex 98.19935572070578 88.93858026138906 2.0
  endloop
 endfacet
 facet normal 0.0 0.0 1.0
  outer loop
   vertex 114.4395002678276 72.69999999999997 2.0
   vertex 98.19935572070578 88.93858026138906 2.0
   vertex 98.20091993110084 72.69999999999997 2.0
  endloop
 endfacet
 facet normal 0.0 -0.0 -1.0
  outer loop
   vertex 119.99999999999999 67.63772413541045 0
   vertex 138.43950026782758 49.199999999999996 0
   vertex 101.56049973217242 49.199999999999996 0
  endloop
 endfacet
 facet normal 0.7070727237014768 0.7071408370313336 0.0
  outer loop
   vertex 138.43950026782758 49.199999999999996 0
   vertex 119.99999999999999 67.63772413541045 0
   vertex 119.99999999999999 67.63772413541045 2.0
  endloop
 endfacet
 facet normal 0.7070727237014768 0.7071408370313336 0.0
  outer loop
   vertex 138.43950026782758 49.199999999999996 2.0
   vertex 138.43950026782758 49.199999999999996 0
   vertex 119.99999999999999 67.63772413541045 2.0
  endloop
 endfacet
 facet normal 0.0 -1.0 0.0
  outer loop
   vertex 101.56049973217242 49.199999999999996 0
   vertex 138.43950026782758 49.199999999999996 0
   vertex 138.43950026782758 49.199999999999996 2.0
  endloop
 endfacet
 facet normal 0.0 -1.0 0.0
  outer loop
   vertex 101.56049973217242 49.199999999999996 2.0
   vertex 101.56049973217242 49.199999999999996 0
   vertex 138.43950026782758 49.199999999999996 2.0
  endloop
 endfacet
 facet normal -0.7070727237014773 0.707140837031333 0.0
  outer loop
   vertex 119.99999999999999 67.63772413541045 0
   vertex 101.56049973217242 49.199999999999996 0
   vertex 101.56049973217242 49.199999999999996 2.0
  endloop
 endfacet
 facet normal -0.7070727237014773 0.707140837031333 0.0
  outer loop
   vertex 119.99999999999999 67.63772413541045 2.0
   vertex 119.99999999999999 67.63772413541045 0
   vertex 101.56049973217242 49.199999999999996 2.0
  endloop
 endfacet
 facet normal 0.0 0.0 1.0
  outer loop
   vertex 119.99999999999999 67.63772413541045 2.0
   vertex 101.56049973217242 49.199999999999996 2.0
   vertex 138.43950026782758 49.199999999999996 2.0
  endloop
 endfacet
 facet normal 0.0 0.0 -1.0
  outer loop
   vertex 119.99999999999994 73.36227586458956 0
   vertex 101.56049973217247 91.79999999999998 0
   vertex 138.43950026782753 91.79999999999998 0
  endloop
 endfacet
 facet normal -0.7070727237014786 -0.7071408370313318 0.0
  outer loop
   vertex 101.56049973217247 91.79999999999998 0
   vertex 119.99999999999994 73.36227586458956 0
   vertex 119.99999999999994 73.36227586458956 2.0
  endloop
 endfacet
 facet normal -0.7070727237014786 -0.7071408370313318 -0.0
  outer loop
   vertex 101.56049973217247 91.79999999999998 2.0
   vertex 101.56049973217247 91.79999999999998 0
   vertex 119.99999999999994 73.36227586458956 2.0
  endloop
 endfacet
 facet normal 0.0 1.0 0.0
  outer loop
   vertex 138.43950026782753 91.79999999999998 0
   vertex 101.56049973217247 91.79999999999998 0
   vertex 101.56049973217247 91.79999999999998 2.0
  endloop
 endfacet
 facet normal 0.0 1.0 0.0
  outer loop
   vertex 138.43950026782753 91.79999999999998 2.0
   vertex 138.43950026782753 91.79999999999998 0
   vertex 101.56049973217247 91.79999999999998 2.0
  endloop
 endfacet
 facet normal 0.7070727237014764 -0.707140837031334 0.0
  outer loop
   vertex 119.99999999999994 73.36227586458956 0
   vertex 138.43950026782753 91.79999999999998 0
   vertex 138.43950026782753 91.79999999999998 2.0
  endloop
 endfacet
 facet normal 0.7070727237014764 -0.707140837031334 0.0
  outer loop
   vertex 119.99999999999994 73.36227586458956 2.0
   vertex 119.99999999999994 73.36227586458956 0
   vertex 138.43950026782753 91.79999999999998 2.0
  endloop
 endfacet
 facet normal 0.0 -0.0 1.0
  outer loop
   vertex 119.99999999999994 73.36227586458956 2.0
   vertex 138.43950026782753 91.79999999999998 2.0
   vertex 101.56049973217247 91.79999999999998 2.0
  endloop
 endfacet
 facet normal 0.0 0.0 -1.0
  outer loop
   vertex 125.56049973217249 68.29999999999997 0
   vertex 141.79824738313073 68.29999999999997 0
   vertex 141.7853283591295 52.07673418351326 0
  endloop
 endfacet
 facet normal 0.0 1.0 0.0
  outer loop
   vertex 141.79824738313073 68.29999999999997 0
   vertex 125.56049973217249 68.29999999999997 0
   vertex 125.56049973217249 68.29999999999997 2.0
  endloop
 endfacet
 facet normal 0.0 1.0 0.0
  outer loop
   vertex 141.79824738313073 68.29999999999997 2.0
   vertex 141.79824738313073 68.29999999999997 0
   vertex 125.56049973217249 68.29999999999997 2.0
  endloop
 endfacet
 facet normal 0.9999996829318346 -0.0007963267107350763 0.0
  outer loop
   vertex 141.7853283591295 52.07673418351326 0
   vertex 141.79824738313073 68.29999999999997 0
   vertex 141.79824738313073 68.29999999999997 2.0
  endloop
 endfacet
 facet normal 0.9999996829318346 -0.0007963267107350763 0.0
  outer loop
   vertex 141.7853283591295 52.07673418351326 2.0
   vertex 141.7853283591295 52.07673418351326 0
   vertex 141.79824738313073 68.29999999999997 2.0
  endloop
 endfacet
 facet normal -0.7070727237014783 -0.707140837031332 0.0
  outer loop
   vertex 125.56049973217249 68.29999999999997 0
   vertex 141.7853283591295 52.07673418351326 0
   vertex 141.7853283591295 52.07673418351326 2.0
  endloop
 endfacet
 facet normal -0.7070727237014783 -0.707140837031332 -0.0
  outer loop
   vertex 125.56049973217249 68.29999999999997 2.0
   vertex 125.56049973217249 68.29999999999997 0
   vertex 141.7853283591295 52.07673418351326 2.0
  endloop
 endfacet
 facet normal -0.0 0.0 1.0
  outer loop
   vertex 125.56049973217249 68.29999999999997 2.0
   vertex 141.7853283591295 52.07673418351326 2.0
   vertex 141.79824738313073 68.29999999999997 2.0
  endloop
 endfacet
 facet normal 0.0 0.0 -1.0
  outer loop
   vertex 141.7982473831307 72.69999999999997 0
   vertex 125.5604997321724 72.69999999999997 0
   vertex 141.78532835912952 88.92326581648678 0
  endloop
 endfacet
 facet normal 0.0 -1.0 0.0
  outer loop
   vertex 125.5604997321724 72.69999999999997 0
   vertex 141.7982473831307 72.69999999999997 0
   vertex 141.7982473831307 72.69999999999997 2.0
  endloop
 endfacet
 facet normal 0.0 -1.0 0.0
  outer loop
   vertex 125.5604997321724 72.69999999999997 2.0
   vertex 125.5604997321724 72.69999999999997 0
   vertex 141.7982473831307 72.69999999999997 2.0
  endloop
 endfacet
 facet normal -0.7070727237014778 0.7071408370313323 0.0
  outer loop
   vertex 141.78532835912952 88.92326581648678 0
   vertex 125.5604997321724 72.69999999999997 0
   vertex 125.5604997321724 72.69999999999997 2.0
  endloop
 endfacet
 facet normal -0.7070727237014778 0.7071408370313323 0.0
  outer loop
   vertex 141.78532835912952 88.92326581648678 2.0
   vertex 141.78532835912952 88.92326581648678 0
   vertex 125.5604997321724 72.69999999999997 2.0
  endloop
 endfacet
 facet normal 0.9999996829318346 0.000796326710731568 0.0
  outer loop
   vertex 141.7982473831307 72.69999999999997 0
   vertex 141.78532835912952 88.92326581648678 0
   vertex 141.78532835912952 88.92326581648678 2.0
  endloop
 endfacet
 facet normal 0.9999996829318346 0.000796326710731568 0.0
  outer loop
   vertex 141.7982473831307 72.69999999999997 2.0
   vertex 141.7982473831307 72.69999999999997 0
   vertex 141.78532835912952 88.92326581648678 2.0
  endloop
 endfacet
 facet normal 0.0 0.0 1.0
  outer loop
   vertex 141.7982473831307 72.69999999999997 2.0
   vertex 141.78532835912952 88.92326581648678 2.0
   vertex 125.5604997321724 72.69999999999997 2.0
  endloop
 endfacet
endsolid
