solid PyGamic generated __Board__ SLA File
 facet normal 0.0 0.0 -1.0
  outer loop
   vertex 1.9984079802100856 35.5 0
   vertex 133.93378981369716 35.5 0
   vertex 8.972243186433547 19.6 0
  endloop
 endfacet
 facet normal 0.0 0.0 -1.0
  outer loop
   vertex 133.93378981369716 35.5 0
   vertex 100.40710223864225 2.0 0
   vertex 9.2 18.75 0
  endloop
 endfacet
 facet normal 0.0 0.0 -1.0
  outer loop
   vertex 100.40710223864225 2.0 0
   vertex 1.9717310269421087 2.0 0
   vertex 7.060007623325713 17.107926095308585 0
  endloop
 endfacet
 facet normal 0.0 0.0 -1.0
  outer loop
   vertex 1.9717310269421087 2.0 0
   vertex 1.9984079802100856 35.5 0
   vertex 5.857926095308584 19.189992376674287 0
  endloop
 endfacet
 facet normal 0.0 0.0 -1.0
  outer loop
   vertex 9.2 18.75 0
   vertex 9.142073904691417 19.189992376674287 0
   vertex 133.93378981369716 35.5 0
  endloop
 endfacet
 facet normal 0.0 -0.0 -1.0
  outer loop
   vertex 9.2 18.75 0
   vertex 100.40710223864225 2.0 0
   vertex 9.142073904691415 18.310007623325713 0
  endloop
 endfacet
 facet normal 0.0 0.0 -1.0
  outer loop
   vertex 9.142073904691417 19.189992376674287 0
   vertex 8.972243186433547 19.6 0
   vertex 133.93378981369716 35.5 0
  endloop
 endfacet
 facet normal 0.0 0.0 -1.0
  outer loop
   vertex 8.972243186433547 19.6 0
   vertex 8.702081528017132 19.952081528017132 0
   vertex 1.9984079802100856 35.5 0
  endloop
 endfacet
 facet normal 0.0 0.0 -1.0
  outer loop
   vertex 8.702081528017132 19.952081528017132 0
   vertex 8.35 20.222243186433545 0
   vertex 1.9984079802100856 35.5 0
  endloop
 endfacet
 facet normal 0.0 0.0 -1.0
  outer loop
   vertex 8.35 20.222243186433545 0
   vertex 7.939992376674286 20.392073904691415 0
   vertex 1.9984079802100856 35.5 0
  endloop
 endfacet
 facet normal 0.0 0.0 -1.0
  outer loop
   vertex 7.939992376674286 20.392073904691415 0
   vertex 7.5 20.45 0
   vertex 1.9984079802100856 35.5 0
  endloop
 endfacet
 facet normal -0.0 0.0 -1.0
  outer loop
   vertex 7.5 20.45 0
   vertex 7.060007623325715 20.392073904691415 0
   vertex 1.9984079802100856 35.5 0
  endloop
 endfacet
 facet normal -0.0 0.0 -1.0
  outer loop
   vertex 7.060007623325715 20.392073904691415 0
   vertex 6.65 20.222243186433545 0
   vertex 1.9984079802100856 35.5 0
  endloop
 endfacet
 facet normal -0.0 0.0 -1.0
  outer loop
   vertex 6.65 20.222243186433545 0
   vertex 6.297918471982869 19.952081528017132 0
   vertex 1.9984079802100856 35.5 0
  endloop
 endfacet
 facet normal -0.0 0.0 -1.0
  outer loop
   vertex 6.297918471982869 19.952081528017132 0
   vertex 6.027756813566454 19.6 0
   vertex 1.9984079802100856 35.5 0
  endloop
 endfacet
 facet normal -0.0 0.0 -1.0
  outer loop
   vertex 6.027756813566454 19.6 0
   vertex 5.857926095308584 19.189992376674287 0
   vertex 1.9984079802100856 35.5 0
  endloop
 endfacet
 facet normal 0.0 0.0 -1.0
  outer loop
   vertex 5.857926095308584 19.189992376674287 0
   vertex 5.8 18.75 0
   vertex 1.9717310269421087 2.0 0
  endloop
 endfacet
 facet normal 0.0 -0.0 -1.0
  outer loop
   vertex 5.8 18.75 0
   vertex 5.857926095308583 18.310007623325717 0
   vertex 1.9717310269421087 2.0 0
  endloop
 endfacet
 facet normal 0.0 -0.0 -1.0
  outer loop
   vertex 5.857926095308583 18.310007623325717 0
   vertex 6.027756813566453 17.9 0
   vertex 1.9717310269421087 2.0 0
  endloop
 endfacet
 facet normal 0.0 -0.0 -1.0
  outer loop
   vertex 6.027756813566453 17.9 0
   vertex 6.297918471982868 17.547918471982868 0
   vertex 1.9717310269421087 2.0 0
  endloop
 endfacet
 facet normal 0.0 -0.0 -1.0
  outer loop
   vertex 6.297918471982868 17.547918471982868 0
   vertex 6.6499999999999995 17.277756813566455 0
   vertex 1.9717310269421087 2.0 0
  endloop
 endfacet
 facet normal 0.0 -0.0 -1.0
  outer loop
   vertex 6.6499999999999995 17.277756813566455 0
   vertex 7.060007623325713 17.107926095308585 0
   vertex 1.9717310269421087 2.0 0
  endloop
 endfacet
 facet normal 0.0 0.0 -1.0
  outer loop
   vertex 7.060007623325713 17.107926095308585 0
   vertex 7.5 17.05 0
   vertex 100.40710223864225 2.0 0
  endloop
 endfacet
 facet normal 0.0 0.0 -1.0
  outer loop
   vertex 7.5 17.05 0
   vertex 7.939992376674285 17.107926095308585 0
   vertex 100.40710223864225 2.0 0
  endloop
 endfacet
 facet normal 0.0 0.0 -1.0
  outer loop
   vertex 7.939992376674285 17.107926095308585 0
   vertex 8.35 17.277756813566455 0
   vertex 100.40710223864225 2.0 0
  endloop
 endfacet
 facet normal 0.0 0.0 -1.0
  outer loop
   vertex 8.35 17.277756813566455 0
   vertex 8.70208152801713 17.547918471982868 0
   vertex 100.40710223864225 2.0 0
  endloop
 endfacet
 facet normal 0.0 0.0 -1.0
  outer loop
   vertex 8.70208152801713 17.547918471982868 0
   vertex 8.972243186433545 17.9 0
   vertex 100.40710223864225 2.0 0
  endloop
 endfacet
 facet normal 0.0 0.0 -1.0
  outer loop
   vertex 8.972243186433545 17.9 0
   vertex 9.142073904691415 18.310007623325713 0
   vertex 100.40710223864225 2.0 0
  endloop
 endfacet
 facet normal 0.0 1.0 0.0
  outer loop
   vertex 133.93378981369716 35.5 0
   vertex 1.9984079802100856 35.5 0
   vertex 1.9984079802100856 35.5 0.24
  endloop
 endfacet
 facet normal 0.0 1.0 0.0
  outer loop
   vertex 133.93378981369716 35.5 0.24
   vertex 133.93378981369716 35.5 0
   vertex 1.9984079802100856 35.5 0.24
  endloop
 endfacet
 facet normal 0.7068251811053657 -0.7073882691672 0.0
  outer loop
   vertex 100.40710223864225 2.0 0
   vertex 133.93378981369716 35.5 0
   vertex 133.93378981369716 35.5 0.24
  endloop
 endfacet
 facet normal 0.7068251811053657 -0.7073882691672 0.0
  outer loop
   vertex 100.40710223864225 2.0 0.24
   vertex 100.40710223864225 2.0 0
   vertex 133.93378981369716 35.5 0.24
  endloop
 endfacet
 facet normal 0.0 -1.0 0.0
  outer loop
   vertex 1.9717310269421087 2.0 0
   vertex 100.40710223864225 2.0 0
   vertex 100.40710223864225 2.0 0.24
  endloop
 endfacet
 facet normal 0.0 -1.0 0.0
  outer loop
   vertex 1.9717310269421087 2.0 0.24
   vertex 1.9717310269421087 2.0 0
   vertex 100.40710223864225 2.0 0.24
  endloop
 endfacet
 facet normal -0.9999996829318346 0.0007963267107332625 0.0
  outer loop
   vertex 1.9984079802100856 35.5 0
   vertex 1.9717310269421087 2.0 0
   vertex 1.9717310269421087 2.0 0.24
  endloop
 endfacet
 facet normal -0.9999996829318346 0.0007963267107332625 0.0
  outer loop
   vertex 1.9984079802100856 35.5 0.24
   vertex 1.9984079802100856 35.5 0
   vertex 1.9717310269421087 2.0 0.24
  endloop
 endfacet
 facet normal -0.0 0.0 1.0
  outer loop
   vertex 1.9984079802100856 35.5 0.24
   vertex 8.972243186433547 19.6 0.24
   vertex 133.93378981369716 35.5 0.24
  endloop
 endfacet
 facet normal 0.0 0.0 1.0
  outer loop
   vertex 133.93378981369716 35.5 0.24
   vertex 9.2 18.75 0.24
   vertex 100.40710223864225 2.0 0.24
  endloop
 endfacet
 facet normal 0.0 0.0 1.0
  outer loop
   vertex 100.40710223864225 2.0 0.24
   vertex 7.060007623325713 17.107926095308585 0.24
   vertex 1.9717310269421087 2.0 0.24
  endloop
 endfacet
 facet normal 0.0 0.0 1.0
  outer loop
   vertex 1.9717310269421087 2.0 0.24
   vertex 5.857926095308584 19.189992376674287 0.24
   vertex 1.9984079802100856 35.5 0.24
  endloop
 endfacet
 facet normal 0.0 -0.0 1.0
  outer loop
   vertex 9.2 18.75 0.24
   vertex 133.93378981369716 35.5 0.24
   vertex 9.142073904691417 19.189992376674287 0.24
  endloop
 endfacet
 facet normal 0.0 0.0 1.0
  outer loop
   vertex 9.2 18.75 0.24
   vertex 9.142073904691415 18.310007623325713 0.24
   vertex 100.40710223864225 2.0 0.24
  endloop
 endfacet
 facet normal 0.0 -0.0 1.0
  outer loop
   vertex 9.142073904691417 19.189992376674287 0.24
   vertex 133.93378981369716 35.5 0.24
   vertex 8.972243186433547 19.6 0.24
  endloop
 endfacet
 facet normal 0.0 0.0 1.0
  outer loop
   vertex 8.972243186433547 19.6 0.24
   vertex 1.9984079802100856 35.5 0.24
   vertex 8.702081528017132 19.952081528017132 0.24
  endloop
 endfacet
 facet normal 0.0 0.0 1.0
  outer loop
   vertex 8.702081528017132 19.952081528017132 0.24
   vertex 1.9984079802100856 35.5 0.24
   vertex 8.35 20.222243186433545 0.24
  endloop
 endfacet
 facet normal 0.0 0.0 1.0
  outer loop
   vertex 8.35 20.222243186433545 0.24
   vertex 1.9984079802100856 35.5 0.24
   vertex 7.939992376674286 20.392073904691415 0.24
  endloop
 endfacet
 facet normal 0.0 0.0 1.0
  outer loop
   vertex 7.939992376674286 20.392073904691415 0.24
   vertex 1.9984079802100856 35.5 0.24
   vertex 7.5 20.45 0.24
  endloop
 endfacet
 facet normal 0.0 0.0 1.0
  outer loop
   vertex 7.5 20.45 0.24
   vertex 1.9984079802100856 35.5 0.24
   vertex 7.060007623325715 20.392073904691415 0.24
  endloop
 endfacet
 facet normal 0.0 0.0 1.0
  outer loop
   vertex 7.060007623325715 20.392073904691415 0.24
   vertex 1.9984079802100856 35.5 0.24
   vertex 6.65 20.222243186433545 0.24
  endloop
 endfacet
 facet normal 0.0 0.0 1.0
  outer loop
   vertex 6.65 20.222243186433545 0.24
   vertex 1.9984079802100856 35.5 0.24
   vertex 6.297918471982869 19.952081528017132 0.24
  endloop
 endfacet
 facet normal 0.0 0.0 1.0
  outer loop
   vertex 6.297918471982869 19.952081528017132 0.24
   vertex 1.9984079802100856 35.5 0.24
   vertex 6.027756813566454 19.6 0.24
  endloop
 endfacet
 facet normal 0.0 0.0 1.0
  outer loop
   vertex 6.027756813566454 19.6 0.24
   vertex 1.9984079802100856 35.5 0.24
   vertex 5.857926095308584 19.189992376674287 0.24
  endloop
 endfacet
 facet normal 0.0 0.0 1.0
  outer loop
   vertex 5.857926095308584 19.189992376674287 0.24
   vertex 1.9717310269421087 2.0 0.24
   vertex 5.8 18.75 0.24
  endloop
 endfacet
 facet normal 0.0 0.0 1.0
  outer loop
   vertex 5.8 18.75 0.24
   vertex 1.9717310269421087 2.0 0.24
   vertex 5.857926095308583 18.310007623325717 0.24
  endloop
 endfacet
 facet normal 0.0 0.0 1.0
  outer loop
   vertex 5.857926095308583 18.310007623325717 0.24
   vertex 1.9717310269421087 2.0 0.24
   vertex 6.027756813566453 17.9 0.24
  endloop
 endfacet
 facet normal 0.0 0.0 1.0
  outer loop
   vertex 6.027756813566453 17.9 0.24
   vertex 1.9717310269421087 2.0 0.24
   vertex 6.297918471982868 17.547918471982868 0.24
  endloop
 endfacet
 facet normal 0.0 0.0 1.0
  outer loop
   vertex 6.297918471982868 17.547918471982868 0.24
   vertex 1.9717310269421087 2.0 0.24
   vertex 6.6499999999999995 17.277756813566455 0.24
  endloop
 endfacet
 facet normal 0.0 0.0 1.0
  outer loop
   vertex 6.6499999999999995 17.277756813566455 0.24
   vertex 1.9717310269421087 2.0 0.24
   vertex 7.060007623325713 17.107926095308585 0.24
  endloop
 endfacet
 facet normal 0.0 0.0 1.0
  outer loop
   vertex 7.060007623325713 17.107926095308585 0.24
   vertex 100.40710223864225 2.0 0.24
   vertex 7.5 17.05 0.24
  endloop
 endfacet
 facet normal -0.0 0.0 1.0
  outer loop
   vertex 7.5 17.05 0.24
   vertex 100.40710223864225 2.0 0.24
   vertex 7.939992376674285 17.107926095308585 0.24
  endloop
 endfacet
 facet normal -0.0 0.0 1.0
  outer loop
   vertex 7.939992376674285 17.107926095308585 0.24
   vertex 100.40710223864225 2.0 0.24
   vertex 8.35 17.277756813566455 0.24
  endloop
 endfacet
 facet normal -0.0 0.0 1.0
  outer loop
   vertex 8.35 17.277756813566455 0.24
   vertex 100.40710223864225 2.0 0.24
   vertex 8.70208152801713 17.547918471982868 0.24
  endloop
 endfacet
 facet normal -0.0 0.0 1.0
  outer loop
   vertex 8.70208152801713 17.547918471982868 0.24
   vertex 100.40710223864225 2.0 0.24
   vertex 8.972243186433545 17.9 0.24
  endloop
 endfacet
 facet normal -0.0 0.0 1.0
  outer loop
   vertex 8.972243186433545 17.9 0.24
   vertex 100.40710223864225 2.0 0.24
   vertex 9.142073904691415 18.310007623325713 0.24
  endloop
 endfacet
 facet normal -0.9914448613738108 -0.13052619222004808 0.0
  outer loop
   vertex 9.2 18.75 0
   vertex 9.2 18.75 0.24
   vertex 9.142073904691417 19.189992376674287 0
  endloop
 endfacet
 facet normal -0.9914448613738108 -0.13052619222004808 0.0
  outer loop
   vertex 9.142073904691417 19.189992376674287 0
   vertex 9.2 18.75 0.24
   vertex 9.142073904691417 19.189992376674287 0.24
  endloop
 endfacet
 facet normal -0.923879532511287 -0.38268343236508934 0.0
  outer loop
   vertex 9.142073904691417 19.189992376674287 0
   vertex 9.142073904691417 19.189992376674287 0.24
   vertex 8.972243186433547 19.6 0
  endloop
 endfacet
 facet normal -0.923879532511287 -0.38268343236508934 0.0
  outer loop
   vertex 8.972243186433547 19.6 0
   vertex 9.142073904691417 19.189992376674287 0.24
   vertex 8.972243186433547 19.6 0.24
  endloop
 endfacet
 facet normal -0.7933533402912354 -0.6087614290087205 0.0
  outer loop
   vertex 8.972243186433547 19.6 0
   vertex 8.972243186433547 19.6 0.24
   vertex 8.702081528017132 19.952081528017132 0
  endloop
 endfacet
 facet normal -0.7933533402912354 -0.6087614290087205 0.0
  outer loop
   vertex 8.702081528017132 19.952081528017132 0
   vertex 8.972243186433547 19.6 0.24
   vertex 8.702081528017132 19.952081528017132 0.24
  endloop
 endfacet
 facet normal -0.6087614290087161 -0.7933533402912387 0.0
  outer loop
   vertex 8.702081528017132 19.952081528017132 0
   vertex 8.702081528017132 19.952081528017132 0.24
   vertex 8.35 20.222243186433545 0
  endloop
 endfacet
 facet normal -0.6087614290087161 -0.7933533402912387 0.0
  outer loop
   vertex 8.35 20.222243186433545 0
   vertex 8.702081528017132 19.952081528017132 0.24
   vertex 8.35 20.222243186433545 0.24
  endloop
 endfacet
 facet normal -0.38268343236509006 -0.9238795325112866 0.0
  outer loop
   vertex 8.35 20.222243186433545 0
   vertex 8.35 20.222243186433545 0.24
   vertex 7.939992376674286 20.392073904691415 0
  endloop
 endfacet
 facet normal -0.38268343236509006 -0.9238795325112866 0.0
  outer loop
   vertex 7.939992376674286 20.392073904691415 0
   vertex 8.35 20.222243186433545 0.24
   vertex 7.939992376674286 20.392073904691415 0.24
  endloop
 endfacet
 facet normal -0.1305261922200523 -0.9914448613738103 0.0
  outer loop
   vertex 7.939992376674286 20.392073904691415 0
   vertex 7.939992376674286 20.392073904691415 0.24
   vertex 7.5 20.45 0
  endloop
 endfacet
 facet normal -0.1305261922200523 -0.9914448613738103 0.0
  outer loop
   vertex 7.5 20.45 0
   vertex 7.939992376674286 20.392073904691415 0.24
   vertex 7.5 20.45 0.24
  endloop
 endfacet
 facet normal 0.13052619222005254 -0.9914448613738103 0.0
  outer loop
   vertex 7.5 20.45 0
   vertex 7.5 20.45 0.24
   vertex 7.060007623325715 20.392073904691415 0
  endloop
 endfacet
 facet normal 0.13052619222005254 -0.9914448613738103 0.0
  outer loop
   vertex 7.060007623325715 20.392073904691415 0
   vertex 7.5 20.45 0.24
   vertex 7.060007623325715 20.392073904691415 0.24
  endloop
 endfacet
 facet normal 0.38268343236508934 -0.923879532511287 0.0
  outer loop
   vertex 7.060007623325715 20.392073904691415 0
   vertex 7.060007623325715 20.392073904691415 0.24
   vertex 6.65 20.222243186433545 0
  endloop
 endfacet
 facet normal 0.38268343236508934 -0.923879532511287 0.0
  outer loop
   vertex 6.65 20.222243186433545 0
   vertex 7.060007623325715 20.392073904691415 0.24
   vertex 6.65 20.222243186433545 0.24
  endloop
 endfacet
 facet normal 0.608761429008717 -0.7933533402912379 0.0
  outer loop
   vertex 6.65 20.222243186433545 0
   vertex 6.65 20.222243186433545 0.24
   vertex 6.297918471982869 19.952081528017132 0
  endloop
 endfacet
 facet normal 0.608761429008717 -0.7933533402912379 0.0
  outer loop
   vertex 6.297918471982869 19.952081528017132 0
   vertex 6.65 20.222243186433545 0.24
   vertex 6.297918471982869 19.952081528017132 0.24
  endloop
 endfacet
 facet normal 0.7933533402912354 -0.6087614290087205 0.0
  outer loop
   vertex 6.297918471982869 19.952081528017132 0
   vertex 6.297918471982869 19.952081528017132 0.24
   vertex 6.027756813566454 19.6 0
  endloop
 endfacet
 facet normal 0.7933533402912354 -0.6087614290087205 0.0
  outer loop
   vertex 6.027756813566454 19.6 0
   vertex 6.297918471982869 19.952081528017132 0.24
   vertex 6.027756813566454 19.6 0.24
  endloop
 endfacet
 facet normal 0.923879532511287 -0.38268343236508934 0.0
  outer loop
   vertex 6.027756813566454 19.6 0
   vertex 6.027756813566454 19.6 0.24
   vertex 5.857926095308584 19.189992376674287 0
  endloop
 endfacet
 facet normal 0.923879532511287 -0.38268343236508934 0.0
  outer loop
   vertex 5.857926095308584 19.189992376674287 0
   vertex 6.027756813566454 19.6 0.24
   vertex 5.857926095308584 19.189992376674287 0.24
  endloop
 endfacet
 facet normal 0.9914448613738104 -0.13052619222005202 0.0
  outer loop
   vertex 5.857926095308584 19.189992376674287 0
   vertex 5.857926095308584 19.189992376674287 0.24
   vertex 5.8 18.75 0
  endloop
 endfacet
 facet normal 0.9914448613738104 -0.13052619222005202 0.0
  outer loop
   vertex 5.8 18.75 0
   vertex 5.857926095308584 19.189992376674287 0.24
   vertex 5.8 18.75 0.24
  endloop
 endfacet
 facet normal 0.9914448613738105 0.1305261922200511 -0.0
  outer loop
   vertex 5.8 18.75 0
   vertex 5.8 18.75 0.24
   vertex 5.857926095308583 18.310007623325717 0
  endloop
 endfacet
 facet normal 0.9914448613738105 0.1305261922200511 -0.0
  outer loop
   vertex 5.857926095308583 18.310007623325717 0
   vertex 5.8 18.75 0.24
   vertex 5.857926095308583 18.310007623325717 0.24
  endloop
 endfacet
 facet normal 0.923879532511288 0.38268343236508645 -0.0
  outer loop
   vertex 5.857926095308583 18.310007623325717 0
   vertex 5.857926095308583 18.310007623325717 0.24
   vertex 6.027756813566453 17.9 0
  endloop
 endfacet
 facet normal 0.923879532511288 0.38268343236508645 -0.0
  outer loop
   vertex 6.027756813566453 17.9 0
   vertex 5.857926095308583 18.310007623325717 0.24
   vertex 6.027756813566453 17.9 0.24
  endloop
 endfacet
 facet normal 0.7933533402912354 0.6087614290087205 -0.0
  outer loop
   vertex 6.027756813566453 17.9 0
   vertex 6.027756813566453 17.9 0.24
   vertex 6.297918471982868 17.547918471982868 0
  endloop
 endfacet
 facet normal 0.7933533402912354 0.6087614290087205 -0.0
  outer loop
   vertex 6.297918471982868 17.547918471982868 0
   vertex 6.027756813566453 17.9 0.24
   vertex 6.297918471982868 17.547918471982868 0.24
  endloop
 endfacet
 facet normal 0.608761429008717 0.7933533402912379 -0.0
  outer loop
   vertex 6.297918471982868 17.547918471982868 0
   vertex 6.297918471982868 17.547918471982868 0.24
   vertex 6.6499999999999995 17.277756813566455 0
  endloop
 endfacet
 facet normal 0.608761429008717 0.7933533402912379 -0.0
  outer loop
   vertex 6.6499999999999995 17.277756813566455 0
   vertex 6.297918471982868 17.547918471982868 0.24
   vertex 6.6499999999999995 17.277756813566455 0.24
  endloop
 endfacet
 facet normal 0.38268343236509006 0.9238795325112866 -0.0
  outer loop
   vertex 6.6499999999999995 17.277756813566455 0
   vertex 6.6499999999999995 17.277756813566455 0.24
   vertex 7.060007623325713 17.107926095308585 0
  endloop
 endfacet
 facet normal 0.38268343236509006 0.9238795325112866 -0.0
  outer loop
   vertex 7.060007623325713 17.107926095308585 0
   vertex 6.6499999999999995 17.277756813566455 0.24
   vertex 7.060007623325713 17.107926095308585 0.24
  endloop
 endfacet
 facet normal 0.13052619222005202 0.9914448613738104 -0.0
  outer loop
   vertex 7.060007623325713 17.107926095308585 0
   vertex 7.060007623325713 17.107926095308585 0.24
   vertex 7.5 17.05 0
  endloop
 endfacet
 facet normal 0.13052619222005202 0.9914448613738104 -0.0
  outer loop
   vertex 7.5 17.05 0
   vertex 7.060007623325713 17.107926095308585 0.24
   vertex 7.5 17.05 0.24
  endloop
 endfacet
 facet normal -0.13052619222005254 0.9914448613738103 0.0
  outer loop
   vertex 7.5 17.05 0
   vertex 7.5 17.05 0.24
   vertex 7.939992376674285 17.107926095308585 0
  endloop
 endfacet
 facet normal -0.13052619222005254 0.9914448613738103 0.0
  outer loop
   vertex 7.939992376674285 17.107926095308585 0
   vertex 7.5 17.05 0.24
   vertex 7.939992376674285 17.107926095308585 0.24
  endloop
 endfacet
 facet normal -0.38268343236508934 0.923879532511287 0.0
  outer loop
   vertex 7.939992376674285 17.107926095308585 0
   vertex 7.939992376674285 17.107926095308585 0.24
   vertex 8.35 17.277756813566455 0
  endloop
 endfacet
 facet normal -0.38268343236508934 0.923879532511287 0.0
  outer loop
   vertex 8.35 17.277756813566455 0
   vertex 7.939992376674285 17.107926095308585 0.24
   vertex 8.35 17.277756813566455 0.24
  endloop
 endfacet
 facet normal -0.608761429008718 0.7933533402912372 0.0
  outer loop
   vertex 8.35 17.277756813566455 0
   vertex 8.35 17.277756813566455 0.24
   vertex 8.70208152801713 17.547918471982868 0
  endloop
 endfacet
 facet normal -0.608761429008718 0.7933533402912372 0.0
  outer loop
   vertex 8.70208152801713 17.547918471982868 0
   vertex 8.35 17.277756813566455 0.24
   vertex 8.70208152801713 17.547918471982868 0.24
  endloop
 endfacet
 facet normal -0.7933533402912354 0.6087614290087205 0.0
  outer loop
   vertex 8.70208152801713 17.547918471982868 0
   vertex 8.70208152801713 17.547918471982868 0.24
   vertex 8.972243186433545 17.9 0
  endloop
 endfacet
 facet normal -0.7933533402912354 0.6087614290087205 0.0
  outer loop
   vertex 8.972243186433545 17.9 0
   vertex 8.70208152801713 17.547918471982868 0.24
   vertex 8.972243186433545 17.9 0.24
  endloop
 endfacet
 facet normal -0.923879532511287 0.38268343236508934 0.0
  outer loop
   vertex 8.972243186433545 17.9 0
   vertex 8.972243186433545 17.9 0.24
   vertex 9.142073904691415 18.310007623325713 0
  endloop
 endfacet
 facet normal -0.923879532511287 0.38268343236508934 0.0
  outer loop
   vertex 9.142073904691415 18.310007623325713 0
   vertex 8.972243186433545 17.9 0.24
   vertex 9.142073904691415 18.310007623325713 0.24
  endloop
 endfacet
 facet normal -0.9914448613738104 0.13052619222005202 0.0
  outer loop
   vertex 9.142073904691415 18.310007623325713 0
   vertex 9.142073904691415 18.310007623325713 0.24
   vertex 9.2 18.75 0
  endloop
 endfacet
 facet normal -0.9914448613738104 0.13052619222005202 0.0
  outer loop
   vertex 9.2 18.75 0
   vertex 9.142073904691415 18.310007623325713 0.24
   vertex 9.2 18.75 0.24
  endloop
 endfacet
 facet normal 0.0 0.0 -1.0
  outer loop
   vertex 133.9337898136971 39.5 0
   vertex 1.9984079802100856 39.5 0
   vertex 7.5 54.55 0
  endloop
 endfacet
 facet normal 0.0 0.0 -1.0
  outer loop
   vertex 1.9984079802100856 39.5 0
   vertex 1.9717310269421087 73.0 0
   vertex 5.857926095308584 56.68999237667428 0
  endloop
 endfacet
 facet normal 0.0 0.0 -1.0
  outer loop
   vertex 1.9717310269421087 73.0 0
   vertex 100.4071022386422 73.0 0
   vertex 8.972243186433547 57.1 0
  endloop
 endfacet
 facet normal 0.0 -0.0 -1.0
  outer loop
   vertex 100.4071022386422 73.0 0
   vertex 133.9337898136971 39.5 0
   vertex 9.2 56.25 0
  endloop
 endfacet
 facet normal 0.0 -0.0 -1.0
  outer loop
   vertex 9.2 56.25 0
   vertex 133.9337898136971 39.5 0
   vertex 9.142073904691415 55.81000762332571 0
  endloop
 endfacet
 facet normal 0.0 0.0 -1.0
  outer loop
   vertex 9.2 56.25 0
   vertex 9.142073904691417 56.68999237667428 0
   vertex 100.4071022386422 73.0 0
  endloop
 endfacet
 facet normal 0.0 0.0 -1.0
  outer loop
   vertex 9.142073904691417 56.68999237667428 0
   vertex 8.972243186433547 57.1 0
   vertex 100.4071022386422 73.0 0
  endloop
 endfacet
 facet normal 0.0 0.0 -1.0
  outer loop
   vertex 8.972243186433547 57.1 0
   vertex 8.702081528017132 57.45208152801713 0
   vertex 1.9717310269421087 73.0 0
  endloop
 endfacet
 facet normal 0.0 0.0 -1.0
  outer loop
   vertex 8.702081528017132 57.45208152801713 0
   vertex 8.35 57.722243186433545 0
   vertex 1.9717310269421087 73.0 0
  endloop
 endfacet
 facet normal 0.0 0.0 -1.0
  outer loop
   vertex 8.35 57.722243186433545 0
   vertex 7.939992376674286 57.892073904691415 0
   vertex 1.9717310269421087 73.0 0
  endloop
 endfacet
 facet normal 0.0 0.0 -1.0
  outer loop
   vertex 7.939992376674286 57.892073904691415 0
   vertex 7.5 57.95 0
   vertex 1.9717310269421087 73.0 0
  endloop
 endfacet
 facet normal -0.0 0.0 -1.0
  outer loop
   vertex 7.5 57.95 0
   vertex 7.060007623325715 57.892073904691415 0
   vertex 1.9717310269421087 73.0 0
  endloop
 endfacet
 facet normal -0.0 0.0 -1.0
  outer loop
   vertex 7.060007623325715 57.892073904691415 0
   vertex 6.65 57.722243186433545 0
   vertex 1.9717310269421087 73.0 0
  endloop
 endfacet
 facet normal -0.0 0.0 -1.0
  outer loop
   vertex 6.65 57.722243186433545 0
   vertex 6.297918471982869 57.45208152801713 0
   vertex 1.9717310269421087 73.0 0
  endloop
 endfacet
 facet normal -0.0 0.0 -1.0
  outer loop
   vertex 6.297918471982869 57.45208152801713 0
   vertex 6.027756813566454 57.1 0
   vertex 1.9717310269421087 73.0 0
  endloop
 endfacet
 facet normal -0.0 0.0 -1.0
  outer loop
   vertex 6.027756813566454 57.1 0
   vertex 5.857926095308584 56.68999237667428 0
   vertex 1.9717310269421087 73.0 0
  endloop
 endfacet
 facet normal 0.0 0.0 -1.0
  outer loop
   vertex 5.857926095308584 56.68999237667428 0
   vertex 5.8 56.25 0
   vertex 1.9984079802100856 39.5 0
  endloop
 endfacet
 facet normal 0.0 -0.0 -1.0
  outer loop
   vertex 5.8 56.25 0
   vertex 5.857926095308583 55.81000762332572 0
   vertex 1.9984079802100856 39.5 0
  endloop
 endfacet
 facet normal 0.0 -0.0 -1.0
  outer loop
   vertex 5.857926095308583 55.81000762332572 0
   vertex 6.027756813566453 55.4 0
   vertex 1.9984079802100856 39.5 0
  endloop
 endfacet
 facet normal 0.0 -0.0 -1.0
  outer loop
   vertex 6.027756813566453 55.4 0
   vertex 6.297918471982868 55.04791847198287 0
   vertex 1.9984079802100856 39.5 0
  endloop
 endfacet
 facet normal 0.0 -0.0 -1.0
  outer loop
   vertex 6.297918471982868 55.04791847198287 0
   vertex 6.6499999999999995 54.777756813566455 0
   vertex 1.9984079802100856 39.5 0
  endloop
 endfacet
 facet normal 0.0 -0.0 -1.0
  outer loop
   vertex 6.6499999999999995 54.777756813566455 0
   vertex 7.060007623325713 54.607926095308585 0
   vertex 1.9984079802100856 39.5 0
  endloop
 endfacet
 facet normal 0.0 -0.0 -1.0
  outer loop
   vertex 7.060007623325713 54.607926095308585 0
   vertex 7.5 54.55 0
   vertex 1.9984079802100856 39.5 0
  endloop
 endfacet
 facet normal 0.0 0.0 -1.0
  outer loop
   vertex 7.5 54.55 0
   vertex 7.939992376674285 54.607926095308585 0
   vertex 133.9337898136971 39.5 0
  endloop
 endfacet
 facet normal 0.0 0.0 -1.0
  outer loop
   vertex 7.939992376674285 54.607926095308585 0
   vertex 8.35 54.777756813566455 0
   vertex 133.9337898136971 39.5 0
  endloop
 endfacet
 facet normal 0.0 0.0 -1.0
  outer loop
   vertex 8.35 54.777756813566455 0
   vertex 8.70208152801713 55.04791847198287 0
   vertex 133.9337898136971 39.5 0
  endloop
 endfacet
 facet normal 0.0 0.0 -1.0
  outer loop
   vertex 8.70208152801713 55.04791847198287 0
   vertex 8.972243186433545 55.4 0
   vertex 133.9337898136971 39.5 0
  endloop
 endfacet
 facet normal 0.0 0.0 -1.0
  outer loop
   vertex 8.972243186433545 55.4 0
   vertex 9.142073904691415 55.81000762332571 0
   vertex 133.9337898136971 39.5 0
  endloop
 endfacet
 facet normal 0.0 -1.0 0.0
  outer loop
   vertex 1.9984079802100856 39.5 0
   vertex 133.9337898136971 39.5 0
   vertex 133.9337898136971 39.5 0.24
  endloop
 endfacet
 facet normal 0.0 -1.0 0.0
  outer loop
   vertex 1.9984079802100856 39.5 0.24
   vertex 1.9984079802100856 39.5 0
   vertex 133.9337898136971 39.5 0.24
  endloop
 endfacet
 facet normal -0.9999996829318346 -0.0007963267107332625 0.0
  outer loop
   vertex 1.9717310269421087 73.0 0
   vertex 1.9984079802100856 39.5 0
   vertex 1.9984079802100856 39.5 0.24
  endloop
 endfacet
 facet normal -0.9999996829318346 -0.0007963267107332625 -0.0
  outer loop
   vertex 1.9717310269421087 73.0 0.24
   vertex 1.9717310269421087 73.0 0
   vertex 1.9984079802100856 39.5 0.24
  endloop
 endfacet
 facet normal 0.0 1.0 0.0
  outer loop
   vertex 100.4071022386422 73.0 0
   vertex 1.9717310269421087 73.0 0
   vertex 1.9717310269421087 73.0 0.24
  endloop
 endfacet
 facet normal 0.0 1.0 0.0
  outer loop
   vertex 100.4071022386422 73.0 0.24
   vertex 100.4071022386422 73.0 0
   vertex 1.9717310269421087 73.0 0.24
  endloop
 endfacet
 facet normal 0.7068251811053657 0.7073882691672 0.0
  outer loop
   vertex 133.9337898136971 39.5 0
   vertex 100.4071022386422 73.0 0
   vertex 100.4071022386422 73.0 0.24
  endloop
 endfacet
 facet normal 0.7068251811053657 0.7073882691672 0.0
  outer loop
   vertex 133.9337898136971 39.5 0.24
   vertex 133.9337898136971 39.5 0
   vertex 100.4071022386422 73.0 0.24
  endloop
 endfacet
 facet normal 0.0 0.0 1.0
  outer loop
   vertex 133.9337898136971 39.5 0.24
   vertex 7.5 54.55 0.24
   vertex 1.9984079802100856 39.5 0.24
  endloop
 endfacet
 facet normal 0.0 -0.0 1.0
  outer loop
   vertex 1.9984079802100856 39.5 0.24
   vertex 5.857926095308584 56.68999237667428 0.24
   vertex 1.9717310269421087 73.0 0.24
  endloop
 endfacet
 facet normal -0.0 0.0 1.0
  outer loop
   vertex 1.9717310269421087 73.0 0.24
   vertex 8.972243186433547 57.1 0.24
   vertex 100.4071022386422 73.0 0.24
  endloop
 endfacet
 facet normal 0.0 0.0 1.0
  outer loop
   vertex 100.4071022386422 73.0 0.24
   vertex 9.2 56.25 0.24
   vertex 133.9337898136971 39.5 0.24
  endloop
 endfacet
 facet normal 0.0 0.0 1.0
  outer loop
   vertex 9.2 56.25 0.24
   vertex 9.142073904691415 55.81000762332571 0.24
   vertex 133.9337898136971 39.5 0.24
  endloop
 endfacet
 facet normal 0.0 -0.0 1.0
  outer loop
   vertex 9.2 56.25 0.24
   vertex 100.4071022386422 73.0 0.24
   vertex 9.142073904691417 56.68999237667428 0.24
  endloop
 endfacet
 facet normal 0.0 -0.0 1.0
  outer loop
   vertex 9.142073904691417 56.68999237667428 0.24
   vertex 100.4071022386422 73.0 0.24
   vertex 8.972243186433547 57.1 0.24
  endloop
 endfacet
 facet normal 0.0 0.0 1.0
  outer loop
   vertex 8.972243186433547 57.1 0.24
   vertex 1.9717310269421087 73.0 0.24
   vertex 8.702081528017132 57.45208152801713 0.24
  endloop
 endfacet
 facet normal 0.0 0.0 1.0
  outer loop
   vertex 8.702081528017132 57.45208152801713 0.24
   vertex 1.9717310269421087 73.0 0.24
   vertex 8.35 57.722243186433545 0.24
  endloop
 endfacet
 facet normal 0.0 0.0 1.0
  outer loop
   vertex 8.35 57.722243186433545 0.24
   vertex 1.9717310269421087 73.0 0.24
   vertex 7.939992376674286 57.892073904691415 0.24
  endloop
 endfacet
 facet normal 0.0 0.0 1.0
  outer loop
   vertex 7.939992376674286 57.892073904691415 0.24
   vertex 1.9717310269421087 73.0 0.24
   vertex 7.5 57.95 0.24
  endloop
 endfacet
 facet normal 0.0 0.0 1.0
  outer loop
   vertex 7.5 57.95 0.24
   vertex 1.9717310269421087 73.0 0.24
   vertex 7.060007623325715 57.892073904691415 0.24
  endloop
 endfacet
 facet normal 0.0 0.0 1.0
  outer loop
   vertex 7.060007623325715 57.892073904691415 0.24
   vertex 1.9717310269421087 73.0 0.24
   vertex 6.65 57.722243186433545 0.24
  endloop
 endfacet
 facet normal 0.0 0.0 1.0
  outer loop
   vertex 6.65 57.722243186433545 0.24
   vertex 1.9717310269421087 73.0 0.24
   vertex 6.297918471982869 57.45208152801713 0.24
  endloop
 endfacet
 facet normal 0.0 0.0 1.0
  outer loop
   vertex 6.297918471982869 57.45208152801713 0.24
   vertex 1.9717310269421087 73.0 0.24
   vertex 6.027756813566454 57.1 0.24
  endloop
 endfacet
 facet normal 0.0 0.0 1.0
  outer loop
   vertex 6.027756813566454 57.1 0.24
   vertex 1.9717310269421087 73.0 0.24
   vertex 5.857926095308584 56.68999237667428 0.24
  endloop
 endfacet
 facet normal 0.0 0.0 1.0
  outer loop
   vertex 5.857926095308584 56.68999237667428 0.24
   vertex 1.9984079802100856 39.5 0.24
   vertex 5.8 56.25 0.24
  endloop
 endfacet
 facet normal 0.0 0.0 1.0
  outer loop
   vertex 5.8 56.25 0.24
   vertex 1.9984079802100856 39.5 0.24
   vertex 5.857926095308583 55.81000762332572 0.24
  endloop
 endfacet
 facet normal 0.0 0.0 1.0
  outer loop
   vertex 5.857926095308583 55.81000762332572 0.24
   vertex 1.9984079802100856 39.5 0.24
   vertex 6.027756813566453 55.4 0.24
  endloop
 endfacet
 facet normal 0.0 0.0 1.0
  outer loop
   vertex 6.027756813566453 55.4 0.24
   vertex 1.9984079802100856 39.5 0.24
   vertex 6.297918471982868 55.04791847198287 0.24
  endloop
 endfacet
 facet normal 0.0 0.0 1.0
  outer loop
   vertex 6.297918471982868 55.04791847198287 0.24
   vertex 1.9984079802100856 39.5 0.24
   vertex 6.6499999999999995 54.777756813566455 0.24
  endloop
 endfacet
 facet normal 0.0 0.0 1.0
  outer loop
   vertex 6.6499999999999995 54.777756813566455 0.24
   vertex 1.9984079802100856 39.5 0.24
   vertex 7.060007623325713 54.607926095308585 0.24
  endloop
 endfacet
 facet normal 0.0 0.0 1.0
  outer loop
   vertex 7.060007623325713 54.607926095308585 0.24
   vertex 1.9984079802100856 39.5 0.24
   vertex 7.5 54.55 0.24
  endloop
 endfacet
 facet normal -0.0 0.0 1.0
  outer loop
   vertex 7.5 54.55 0.24
   vertex 133.9337898136971 39.5 0.24
   vertex 7.939992376674285 54.607926095308585 0.24
  endloop
 endfacet
 facet normal -0.0 0.0 1.0
  outer loop
   vertex 7.939992376674285 54.607926095308585 0.24
   vertex 133.9337898136971 39.5 0.24
   vertex 8.35 54.777756813566455 0.24
  endloop
 endfacet
 facet normal -0.0 0.0 1.0
  outer loop
   vertex 8.35 54.777756813566455 0.24
   vertex 133.9337898136971 39.5 0.24
   vertex 8.70208152801713 55.04791847198287 0.24
  endloop
 endfacet
 facet normal -0.0 0.0 1.0
  outer loop
   vertex 8.70208152801713 55.04791847198287 0.24
   vertex 133.9337898136971 39.5 0.24
   vertex 8.972243186433545 55.4 0.24
  endloop
 endfacet
 facet normal -0.0 0.0 1.0
  outer loop
   vertex 8.972243186433545 55.4 0.24
   vertex 133.9337898136971 39.5 0.24
   vertex 9.142073904691415 55.81000762332571 0.24
  endloop
 endfacet
 facet normal -0.9914448613738108 -0.13052619222004913 0.0
  outer loop
   vertex 9.2 56.25 0
   vertex 9.2 56.25 0.24
   vertex 9.142073904691417 56.68999237667428 0
  endloop
 endfacet
 facet normal -0.9914448613738108 -0.13052619222004913 0.0
  outer loop
   vertex 9.142073904691417 56.68999237667428 0
   vertex 9.2 56.25 0.24
   vertex 9.142073904691417 56.68999237667428 0.24
  endloop
 endfacet
 facet normal -0.923879532511288 -0.38268343236508645 0.0
  outer loop
   vertex 9.142073904691417 56.68999237667428 0
   vertex 9.142073904691417 56.68999237667428 0.24
   vertex 8.972243186433547 57.1 0
  endloop
 endfacet
 facet normal -0.923879532511288 -0.38268343236508645 0.0
  outer loop
   vertex 8.972243186433547 57.1 0
   vertex 9.142073904691417 56.68999237667428 0.24
   vertex 8.972243186433547 57.1 0.24
  endloop
 endfacet
 facet normal -0.7933533402912354 -0.6087614290087205 0.0
  outer loop
   vertex 8.972243186433547 57.1 0
   vertex 8.972243186433547 57.1 0.24
   vertex 8.702081528017132 57.45208152801713 0
  endloop
 endfacet
 facet normal -0.7933533402912354 -0.6087614290087205 0.0
  outer loop
   vertex 8.702081528017132 57.45208152801713 0
   vertex 8.972243186433547 57.1 0.24
   vertex 8.702081528017132 57.45208152801713 0.24
  endloop
 endfacet
 facet normal -0.6087614290087161 -0.7933533402912387 0.0
  outer loop
   vertex 8.702081528017132 57.45208152801713 0
   vertex 8.702081528017132 57.45208152801713 0.24
   vertex 8.35 57.722243186433545 0
  endloop
 endfacet
 facet normal -0.6087614290087161 -0.7933533402912387 0.0
  outer loop
   vertex 8.35 57.722243186433545 0
   vertex 8.702081528017132 57.45208152801713 0.24
   vertex 8.35 57.722243186433545 0.24
  endloop
 endfacet
 facet normal -0.38268343236509006 -0.9238795325112866 0.0
  outer loop
   vertex 8.35 57.722243186433545 0
   vertex 8.35 57.722243186433545 0.24
   vertex 7.939992376674286 57.892073904691415 0
  endloop
 endfacet
 facet normal -0.38268343236509006 -0.9238795325112866 0.0
  outer loop
   vertex 7.939992376674286 57.892073904691415 0
   vertex 8.35 57.722243186433545 0.24
   vertex 7.939992376674286 57.892073904691415 0.24
  endloop
 endfacet
 facet normal -0.13052619222006015 -0.9914448613738093 0.0
  outer loop
   vertex 7.939992376674286 57.892073904691415 0
   vertex 7.939992376674286 57.892073904691415 0.24
   vertex 7.5 57.95 0
  endloop
 endfacet
 facet normal -0.13052619222006015 -0.9914448613738093 0.0
  outer loop
   vertex 7.5 57.95 0
   vertex 7.939992376674286 57.892073904691415 0.24
   vertex 7.5 57.95 0.24
  endloop
 endfacet
 facet normal 0.1305261922200604 -0.9914448613738093 0.0
  outer loop
   vertex 7.5 57.95 0
   vertex 7.5 57.95 0.24
   vertex 7.060007623325715 57.892073904691415 0
  endloop
 endfacet
 facet normal 0.1305261922200604 -0.9914448613738093 0.0
  outer loop
   vertex 7.060007623325715 57.892073904691415 0
   vertex 7.5 57.95 0.24
   vertex 7.060007623325715 57.892073904691415 0.24
  endloop
 endfacet
 facet normal 0.38268343236508934 -0.923879532511287 0.0
  outer loop
   vertex 7.060007623325715 57.892073904691415 0
   vertex 7.060007623325715 57.892073904691415 0.24
   vertex 6.65 57.722243186433545 0
  endloop
 endfacet
 facet normal 0.38268343236508934 -0.923879532511287 0.0
  outer loop
   vertex 6.65 57.722243186433545 0
   vertex 7.060007623325715 57.892073904691415 0.24
   vertex 6.65 57.722243186433545 0.24
  endloop
 endfacet
 facet normal 0.608761429008717 -0.7933533402912379 0.0
  outer loop
   vertex 6.65 57.722243186433545 0
   vertex 6.65 57.722243186433545 0.24
   vertex 6.297918471982869 57.45208152801713 0
  endloop
 endfacet
 facet normal 0.608761429008717 -0.7933533402912379 0.0
  outer loop
   vertex 6.297918471982869 57.45208152801713 0
   vertex 6.65 57.722243186433545 0.24
   vertex 6.297918471982869 57.45208152801713 0.24
  endloop
 endfacet
 facet normal 0.7933533402912354 -0.6087614290087205 0.0
  outer loop
   vertex 6.297918471982869 57.45208152801713 0
   vertex 6.297918471982869 57.45208152801713 0.24
   vertex 6.027756813566454 57.1 0
  endloop
 endfacet
 facet normal 0.7933533402912354 -0.6087614290087205 0.0
  outer loop
   vertex 6.027756813566454 57.1 0
   vertex 6.297918471982869 57.45208152801713 0.24
   vertex 6.027756813566454 57.1 0.24
  endloop
 endfacet
 facet normal 0.923879532511288 -0.38268343236508645 0.0
  outer loop
   vertex 6.027756813566454 57.1 0
   vertex 6.027756813566454 57.1 0.24
   vertex 5.857926095308584 56.68999237667428 0
  endloop
 endfacet
 facet normal 0.923879532511288 -0.38268343236508645 0.0
  outer loop
   vertex 5.857926095308584 56.68999237667428 0
   vertex 6.027756813566454 57.1 0.24
   vertex 5.857926095308584 56.68999237667428 0.24
  endloop
 endfacet
 facet normal 0.9914448613738103 -0.13052619222005307 0.0
  outer loop
   vertex 5.857926095308584 56.68999237667428 0
   vertex 5.857926095308584 56.68999237667428 0.24
   vertex 5.8 56.25 0
  endloop
 endfacet
 facet normal 0.9914448613738103 -0.13052619222005307 0.0
  outer loop
   vertex 5.8 56.25 0
   vertex 5.857926095308584 56.68999237667428 0.24
   vertex 5.8 56.25 0.24
  endloop
 endfacet
 facet normal 0.9914448613738105 0.1305261922200511 -0.0
  outer loop
   vertex 5.8 56.25 0
   vertex 5.8 56.25 0.24
   vertex 5.857926095308583 55.81000762332572 0
  endloop
 endfacet
 facet normal 0.9914448613738105 0.1305261922200511 -0.0
  outer loop
   vertex 5.857926095308583 55.81000762332572 0
   vertex 5.8 56.25 0.24
   vertex 5.857926095308583 55.81000762332572 0.24
  endloop
 endfacet
 facet normal 0.923879532511288 0.38268343236508645 -0.0
  outer loop
   vertex 5.857926095308583 55.81000762332572 0
   vertex 5.857926095308583 55.81000762332572 0.24
   vertex 6.027756813566453 55.4 0
  endloop
 endfacet
 facet normal 0.923879532511288 0.38268343236508645 -0.0
  outer loop
   vertex 6.027756813566453 55.4 0
   vertex 5.857926095308583 55.81000762332572 0.24
   vertex 6.027756813566453 55.4 0.24
  endloop
 endfacet
 facet normal 0.7933533402912354 0.6087614290087205 -0.0
  outer loop
   vertex 6.027756813566453 55.4 0
   vertex 6.027756813566453 55.4 0.24
   vertex 6.297918471982868 55.04791847198287 0
  endloop
 endfacet
 facet normal 0.7933533402912354 0.6087614290087205 -0.0
  outer loop
   vertex 6.297918471982868 55.04791847198287 0
   vertex 6.027756813566453 55.4 0.24
   vertex 6.297918471982868 55.04791847198287 0.24
  endloop
 endfacet
 facet normal 0.608761429008717 0.7933533402912379 -0.0
  outer loop
   vertex 6.297918471982868 55.04791847198287 0
   vertex 6.297918471982868 55.04791847198287 0.24
   vertex 6.6499999999999995 54.777756813566455 0
  endloop
 endfacet
 facet normal 0.608761429008717 0.7933533402912379 -0.0
  outer loop
   vertex 6.6499999999999995 54.777756813566455 0
   vertex 6.297918471982868 55.04791847198287 0.24
   vertex 6.6499999999999995 54.777756813566455 0.24
  endloop
 endfacet
 facet normal 0.38268343236509006 0.9238795325112866 -0.0
  outer loop
   vertex 6.6499999999999995 54.777756813566455 0
   vertex 6.6499999999999995 54.777756813566455 0.24
   vertex 7.060007623325713 54.607926095308585 0
  endloop
 endfacet
 facet normal 0.38268343236509006 0.9238795325112866 -0.0
  outer loop
   vertex 7.060007623325713 54.607926095308585 0
   vertex 6.6499999999999995 54.777756813566455 0.24
   vertex 7.060007623325713 54.607926095308585 0.24
  endloop
 endfacet
 facet normal 0.13052619222005987 0.9914448613738093 -0.0
  outer loop
   vertex 7.060007623325713 54.607926095308585 0
   vertex 7.060007623325713 54.607926095308585 0.24
   vertex 7.5 54.55 0
  endloop
 endfacet
 facet normal 0.13052619222005987 0.9914448613738093 -0.0
  outer loop
   vertex 7.5 54.55 0
   vertex 7.060007623325713 54.607926095308585 0.24
   vertex 7.5 54.55 0.24
  endloop
 endfacet
 facet normal -0.1305261922200604 0.9914448613738093 0.0
  outer loop
   vertex 7.5 54.55 0
   vertex 7.5 54.55 0.24
   vertex 7.939992376674285 54.607926095308585 0
  endloop
 endfacet
 facet normal -0.1305261922200604 0.9914448613738093 0.0
  outer loop
   vertex 7.939992376674285 54.607926095308585 0
   vertex 7.5 54.55 0.24
   vertex 7.939992376674285 54.607926095308585 0.24
  endloop
 endfacet
 facet normal -0.38268343236508934 0.923879532511287 0.0
  outer loop
   vertex 7.939992376674285 54.607926095308585 0
   vertex 7.939992376674285 54.607926095308585 0.24
   vertex 8.35 54.777756813566455 0
  endloop
 endfacet
 facet normal -0.38268343236508934 0.923879532511287 0.0
  outer loop
   vertex 8.35 54.777756813566455 0
   vertex 7.939992376674285 54.607926095308585 0.24
   vertex 8.35 54.777756813566455 0.24
  endloop
 endfacet
 facet normal -0.608761429008718 0.7933533402912372 0.0
  outer loop
   vertex 8.35 54.777756813566455 0
   vertex 8.35 54.777756813566455 0.24
   vertex 8.70208152801713 55.04791847198287 0
  endloop
 endfacet
 facet normal -0.608761429008718 0.7933533402912372 0.0
  outer loop
   vertex 8.70208152801713 55.04791847198287 0
   vertex 8.35 54.777756813566455 0.24
   vertex 8.70208152801713 55.04791847198287 0.24
  endloop
 endfacet
 facet normal -0.7933533402912354 0.6087614290087205 0.0
  outer loop
   vertex 8.70208152801713 55.04791847198287 0
   vertex 8.70208152801713 55.04791847198287 0.24
   vertex 8.972243186433545 55.4 0
  endloop
 endfacet
 facet normal -0.7933533402912354 0.6087614290087205 0.0
  outer loop
   vertex 8.972243186433545 55.4 0
   vertex 8.70208152801713 55.04791847198287 0.24
   vertex 8.972243186433545 55.4 0.24
  endloop
 endfacet
 facet normal -0.9238795325112857 0.3826834323650921 0.0
  outer loop
   vertex 8.972243186433545 55.4 0
   vertex 8.972243186433545 55.4 0.24
   vertex 9.142073904691415 55.81000762332571 0
  endloop
 endfacet
 facet normal -0.9238795325112857 0.3826834323650921 0.0
  outer loop
   vertex 9.142073904691415 55.81000762332571 0
   vertex 8.972243186433545 55.4 0.24
   vertex 9.142073904691415 55.81000762332571 0.24
  endloop
 endfacet
 facet normal -0.9914448613738105 0.130526192220051 0.0
  outer loop
   vertex 9.142073904691415 55.81000762332571 0
   vertex 9.142073904691415 55.81000762332571 0.24
   vertex 9.2 56.25 0
  endloop
 endfacet
 facet normal -0.9914448613738105 0.130526192220051 0.0
  outer loop
   vertex 9.2 56.25 0
   vertex 9.142073904691415 55.81000762332571 0.24
   vertex 9.2 56.25 0.24
  endloop
 endfacet
 facet normal 0.0 0.0 -1.0
  outer loop
   vertex 139.5928977613577 35.500000000000014 0
   vertex 200.4071022386422 35.500000000000014 0
   vertex 233.93378981369713 2.0 0
  endloop
 endfacet
 facet normal 0.0 -0.0 -1.0
  outer loop
   vertex 139.5928977613577 35.500000000000014 0
   vertex 233.93378981369713 2.0 0
   vertex 106.06621018630281 2.0 0
  endloop
 endfacet
 facet normal 0.0 1.0 0.0
  outer loop
   vertex 200.4071022386422 35.500000000000014 0
   vertex 139.5928977613577 35.500000000000014 0
   vertex 139.5928977613577 35.500000000000014 0.24
  endloop
 endfacet
 facet normal 0.0 1.0 0.0
  outer loop
   vertex 200.4071022386422 35.500000000000014 0.24
   vertex 200.4071022386422 35.500000000000014 0
   vertex 139.5928977613577 35.500000000000014 0.24
  endloop
 endfacet
 facet normal 0.7068251811053657 0.7073882691672 0.0
  outer loop
   vertex 233.93378981369713 2.0 0
   vertex 200.4071022386422 35.500000000000014 0
   vertex 200.4071022386422 35.500000000000014 0.24
  endloop
 endfacet
 facet normal 0.7068251811053657 0.7073882691672 0.0
  outer loop
   vertex 233.93378981369713 2.0 0.24
   vertex 233.93378981369713 2.0 0
   vertex 200.4071022386422 35.500000000000014 0.24
  endloop
 endfacet
 facet normal 0.0 -1.0 0.0
  outer loop
   vertex 106.06621018630281 2.0 0
   vertex 233.93378981369713 2.0 0
   vertex 233.93378981369713 2.0 0.24
  endloop
 endfacet
 facet normal 0.0 -1.0 0.0
  outer loop
   vertex 106.06621018630281 2.0 0.24
   vertex 106.06621018630281 2.0 0
   vertex 233.93378981369713 2.0 0.24
  endloop
 endfacet
 facet normal -0.706825181105366 0.7073882691671998 0.0
  outer loop
   vertex 139.5928977613577 35.500000000000014 0
   vertex 106.06621018630281 2.0 0
   vertex 106.06621018630281 2.0 0.24
  endloop
 endfacet
 facet normal -0.706825181105366 0.7073882691671998 0.0
  outer loop
   vertex 139.5928977613577 35.500000000000014 0.24
   vertex 139.5928977613577 35.500000000000014 0
   vertex 106.06621018630281 2.0 0.24
  endloop
 endfacet
 facet normal -0.0 0.0 1.0
  outer loop
   vertex 139.5928977613577 35.500000000000014 0.24
   vertex 233.93378981369713 2.0 0.24
   vertex 200.4071022386422 35.500000000000014 0.24
  endloop
 endfacet
 facet normal 0.0 0.0 1.0
  outer loop
   vertex 139.5928977613577 35.500000000000014 0.24
   vertex 106.06621018630281 2.0 0.24
   vertex 233.93378981369713 2.0 0.24
  endloop
 endfacet
 facet normal 0.0 0.0 -1.0
  outer loop
   vertex 200.40710223864232 39.500000000000014 0
   vertex 139.59289776135765 39.500000000000014 0
   vertex 106.0662101863028 72.99999999999999 0
  endloop
 endfacet
 facet normal 0.0 0.0 -1.0
  outer loop
   vertex 200.40710223864232 39.500000000000014 0
   vertex 106.0662101863028 72.99999999999999 0
   vertex 233.93378981369716 72.99999999999999 0
  endloop
 endfacet
 facet normal 0.0 -1.0 0.0
  outer loop
   vertex 139.59289776135765 39.500000000000014 0
   vertex 200.40710223864232 39.500000000000014 0
   vertex 200.40710223864232 39.500000000000014 0.24
  endloop
 endfacet
 facet normal 0.0 -1.0 0.0
  outer loop
   vertex 139.59289776135765 39.500000000000014 0.24
   vertex 139.59289776135765 39.500000000000014 0
   vertex 200.40710223864232 39.500000000000014 0.24
  endloop
 endfacet
 facet normal -0.706825181105366 -0.7073882691671998 0.0
  outer loop
   vertex 106.0662101863028 72.99999999999999 0
   vertex 139.59289776135765 39.500000000000014 0
   vertex 139.59289776135765 39.500000000000014 0.24
  endloop
 endfacet
 facet normal -0.706825181105366 -0.7073882691671998 -0.0
  outer loop
   vertex 106.0662101863028 72.99999999999999 0.24
   vertex 106.0662101863028 72.99999999999999 0
   vertex 139.59289776135765 39.500000000000014 0.24
  endloop
 endfacet
 facet normal 0.0 1.0 0.0
  outer loop
   vertex 233.93378981369716 72.99999999999999 0
   vertex 106.0662101863028 72.99999999999999 0
   vertex 106.0662101863028 72.99999999999999 0.24
  endloop
 endfacet
 facet normal 0.0 1.0 0.0
  outer loop
   vertex 233.93378981369716 72.99999999999999 0.24
   vertex 233.93378981369716 72.99999999999999 0
   vertex 106.0662101863028 72.99999999999999 0.24
  endloop
 endfacet
 facet normal 0.7068251811053661 -0.7073882691671995 0.0
  outer loop
   vertex 200.40710223864232 39.500000000000014 0
   vertex 233.93378981369716 72.99999999999999 0
   vertex 233.93378981369716 72.99999999999999 0.24
  endloop
 endfacet
 facet normal 0.7068251811053661 -0.7073882691671995 0.0
  outer loop
   vertex 200.40710223864232 39.500000000000014 0.24
   vertex 200.40710223864232 39.500000000000014 0
   vertex 233.93378981369716 72.99999999999999 0.24
  endloop
 endfacet
 facet normal 0.0 0.0 1.0
  outer loop
   vertex 200.40710223864232 39.500000000000014 0.24
   vertex 106.0662101863028 72.99999999999999 0.24
   vertex 139.59289776135765 39.500000000000014 0.24
  endloop
 endfacet
 facet normal 0.0 -0.0 1.0
  outer loop
   vertex 200.40710223864232 39.500000000000014 0.24
   vertex 233.93378981369716 72.99999999999999 0.24
   vertex 106.0662101863028 72.99999999999999 0.24
  endloop
 endfacet
 facet normal 0.0 0.0 -1.0
  outer loop
   vertex 206.06621018630284 35.5 0
   vertex 413.93378981369716 35.5 0
   vertex 380.40710223864227 2.0 0
  endloop
 endfacet
 facet normal 0.0 0.0 -1.0
  outer loop
   vertex 206.06621018630284 35.5 0
   vertex 380.40710223864227 2.0 0
   vertex 239.59289776135773 2.0 0
  endloop
 endfacet
 facet normal 0.0 1.0 0.0
  outer loop
   vertex 413.93378981369716 35.5 0
   vertex 206.06621018630284 35.5 0
   vertex 206.06621018630284 35.5 0.24
  endloop
 endfacet
 facet normal 0.0 1.0 0.0
  outer loop
   vertex 413.93378981369716 35.5 0.24
   vertex 413.93378981369716 35.5 0
   vertex 206.06621018630284 35.5 0.24
  endloop
 endfacet
 facet normal 0.7068251811053659 -0.7073882691672 0.0
  outer loop
   vertex 380.40710223864227 2.0 0
   vertex 413.93378981369716 35.5 0
   vertex 413.93378981369716 35.5 0.24
  endloop
 endfacet
 facet normal 0.7068251811053659 -0.7073882691672 0.0
  outer loop
   vertex 380.40710223864227 2.0 0.24
   vertex 380.40710223864227 2.0 0
   vertex 413.93378981369716 35.5 0.24
  endloop
 endfacet
 facet normal 0.0 -1.0 0.0
  outer loop
   vertex 239.59289776135773 2.0 0
   vertex 380.40710223864227 2.0 0
   vertex 380.40710223864227 2.0 0.24
  endloop
 endfacet
 facet normal 0.0 -1.0 0.0
  outer loop
   vertex 239.59289776135773 2.0 0.24
   vertex 239.59289776135773 2.0 0
   vertex 380.40710223864227 2.0 0.24
  endloop
 endfacet
 facet normal -0.7068251811053659 -0.7073882691672 0.0
  outer loop
   vertex 206.06621018630284 35.5 0
   vertex 239.59289776135773 2.0 0
   vertex 239.59289776135773 2.0 0.24
  endloop
 endfacet
 facet normal -0.7068251811053659 -0.7073882691672 -0.0
  outer loop
   vertex 206.06621018630284 35.5 0.24
   vertex 206.06621018630284 35.5 0
   vertex 239.59289776135773 2.0 0.24
  endloop
 endfacet
 facet normal -0.0 0.0 1.0
  outer loop
   vertex 206.06621018630284 35.5 0.24
   vertex 380.40710223864227 2.0 0.24
   vertex 413.93378981369716 35.5 0.24
  endloop
 endfacet
 facet normal 0.0 0.0 1.0
  outer loop
   vertex 206.06621018630284 35.5 0.24
   vertex 239.59289776135773 2.0 0.24
   vertex 380.40710223864227 2.0 0.24
  endloop
 endfacet
 facet normal 0.0 0.0 -1.0
  outer loop
   vertex 413.9337898136972 39.5 0
   vertex 206.0662101863029 39.5 0
   vertex 239.5928977613578 73.0 0
  endloop
 endfacet
 facet normal 0.0 0.0 -1.0
  outer loop
   vertex 413.9337898136972 39.5 0
   vertex 239.5928977613578 73.0 0
   vertex 380.4071022386423 73.0 0
  endloop
 endfacet
 facet normal 0.0 -1.0 0.0
  outer loop
   vertex 206.0662101863029 39.5 0
   vertex 413.9337898136972 39.5 0
   vertex 413.9337898136972 39.5 0.24
  endloop
 endfacet
 facet normal 0.0 -1.0 0.0
  outer loop
   vertex 206.0662101863029 39.5 0.24
   vertex 206.0662101863029 39.5 0
   vertex 413.9337898136972 39.5 0.24
  endloop
 endfacet
 facet normal -0.7068251811053659 0.7073882691672 0.0
  outer loop
   vertex 239.5928977613578 73.0 0
   vertex 206.0662101863029 39.5 0
   vertex 206.0662101863029 39.5 0.24
  endloop
 endfacet
 facet normal -0.7068251811053659 0.7073882691672 0.0
  outer loop
   vertex 239.5928977613578 73.0 0.24
   vertex 239.5928977613578 73.0 0
   vertex 206.0662101863029 39.5 0.24
  endloop
 endfacet
 facet normal 0.0 1.0 0.0
  outer loop
   vertex 380.4071022386423 73.0 0
   vertex 239.5928977613578 73.0 0
   vertex 239.5928977613578 73.0 0.24
  endloop
 endfacet
 facet normal 0.0 1.0 0.0
  outer loop
   vertex 380.4071022386423 73.0 0.24
   vertex 380.4071022386423 73.0 0
   vertex 239.5928977613578 73.0 0.24
  endloop
 endfacet
 facet normal 0.7068251811053659 0.7073882691672 0.0
  outer loop
   vertex 413.9337898136972 39.5 0
   vertex 380.4071022386423 73.0 0
   vertex 380.4071022386423 73.0 0.24
  endloop
 endfacet
 facet normal 0.7068251811053659 0.7073882691672 0.0
  outer loop
   vertex 413.9337898136972 39.5 0.24
   vertex 413.9337898136972 39.5 0
   vertex 380.4071022386423 73.0 0.24
  endloop
 endfacet
 facet normal 0.0 0.0 1.0
  outer loop
   vertex 413.9337898136972 39.5 0.24
   vertex 239.5928977613578 73.0 0.24
   vertex 206.0662101863029 39.5 0.24
  endloop
 endfacet
 facet normal 0.0 0.0 1.0
  outer loop
   vertex 413.9337898136972 39.5 0.24
   vertex 380.4071022386423 73.0 0.24
   vertex 239.5928977613578 73.0 0.24
  endloop
 endfacet
 facet normal 0.0 0.0 -1.0
  outer loop
   vertex 419.59289776135773 35.49999999999999 0
   vertex 600.4071022386423 35.49999999999999 0
   vertex 633.9337898136972 2.0 0
  endloop
 endfacet
 facet normal 0.0 -0.0 -1.0
  outer loop
   vertex 419.59289776135773 35.49999999999999 0
   vertex 633.9337898136972 2.0 0
   vertex 386.06621018630284 2.0 0
  endloop
 endfacet
 facet normal 0.0 1.0 0.0
  outer loop
   vertex 600.4071022386423 35.49999999999999 0
   vertex 419.59289776135773 35.49999999999999 0
   vertex 419.59289776135773 35.49999999999999 0.24
  endloop
 endfacet
 facet normal 0.0 1.0 0.0
  outer loop
   vertex 600.4071022386423 35.49999999999999 0.24
   vertex 600.4071022386423 35.49999999999999 0
   vertex 419.59289776135773 35.49999999999999 0.24
  endloop
 endfacet
 facet normal 0.7068251811053656 0.7073882691672 0.0
  outer loop
   vertex 633.9337898136972 2.0 0
   vertex 600.4071022386423 35.49999999999999 0
   vertex 600.4071022386423 35.49999999999999 0.24
  endloop
 endfacet
 facet normal 0.7068251811053656 0.7073882691672 0.0
  outer loop
   vertex 633.9337898136972 2.0 0.24
   vertex 633.9337898136972 2.0 0
   vertex 600.4071022386423 35.49999999999999 0.24
  endloop
 endfacet
 facet normal 0.0 -1.0 0.0
  outer loop
   vertex 386.06621018630284 2.0 0
   vertex 633.9337898136972 2.0 0
   vertex 633.9337898136972 2.0 0.24
  endloop
 endfacet
 facet normal 0.0 -1.0 0.0
  outer loop
   vertex 386.06621018630284 2.0 0.24
   vertex 386.06621018630284 2.0 0
   vertex 633.9337898136972 2.0 0.24
  endloop
 endfacet
 facet normal -0.7068251811053656 0.7073882691672 0.0
  outer loop
   vertex 419.59289776135773 35.49999999999999 0
   vertex 386.06621018630284 2.0 0
   vertex 386.06621018630284 2.0 0.24
  endloop
 endfacet
 facet normal -0.7068251811053656 0.7073882691672 0.0
  outer loop
   vertex 419.59289776135773 35.49999999999999 0.24
   vertex 419.59289776135773 35.49999999999999 0
   vertex 386.06621018630284 2.0 0.24
  endloop
 endfacet
 facet normal -0.0 0.0 1.0
  outer loop
   vertex 419.59289776135773 35.49999999999999 0.24
   vertex 633.9337898136972 2.0 0.24
   vertex 600.4071022386423 35.49999999999999 0.24
  endloop
 endfacet
 facet normal 0.0 0.0 1.0
  outer loop
   vertex 419.59289776135773 35.49999999999999 0.24
   vertex 386.06621018630284 2.0 0.24
   vertex 633.9337898136972 2.0 0.24
  endloop
 endfacet
 facet normal 0.0 0.0 -1.0
  outer loop
   vertex 600.4071022386423 39.49999999999999 0
   vertex 419.5928977613578 39.49999999999999 0
   vertex 386.0662101863029 73.00000000000001 0
  endloop
 endfacet
 facet normal 0.0 0.0 -1.0
  outer loop
   vertex 600.4071022386423 39.49999999999999 0
   vertex 386.0662101863029 73.00000000000001 0
   vertex 633.9337898136972 73.00000000000001 0
  endloop
 endfacet
 facet normal 0.0 -1.0 0.0
  outer loop
   vertex 419.5928977613578 39.49999999999999 0
   vertex 600.4071022386423 39.49999999999999 0
   vertex 600.4071022386423 39.49999999999999 0.24
  endloop
 endfacet
 facet normal 0.0 -1.0 0.0
  outer loop
   vertex 419.5928977613578 39.49999999999999 0.24
   vertex 419.5928977613578 39.49999999999999 0
   vertex 600.4071022386423 39.49999999999999 0.24
  endloop
 endfacet
 facet normal -0.7068251811053661 -0.7073882691671998 0.0
  outer loop
   vertex 386.0662101863029 73.00000000000001 0
   vertex 419.5928977613578 39.49999999999999 0
   vertex 419.5928977613578 39.49999999999999 0.24
  endloop
 endfacet
 facet normal -0.7068251811053661 -0.7073882691671998 -0.0
  outer loop
   vertex 386.0662101863029 73.00000000000001 0.24
   vertex 386.0662101863029 73.00000000000001 0
   vertex 419.5928977613578 39.49999999999999 0.24
  endloop
 endfacet
 facet normal 0.0 1.0 0.0
  outer loop
   vertex 633.9337898136972 73.00000000000001 0
   vertex 386.0662101863029 73.00000000000001 0
   vertex 386.0662101863029 73.00000000000001 0.24
  endloop
 endfacet
 facet normal 0.0 1.0 0.0
  outer loop
   vertex 633.9337898136972 73.00000000000001 0.24
   vertex 633.9337898136972 73.00000000000001 0
   vertex 386.0662101863029 73.00000000000001 0.24
  endloop
 endfacet
 facet normal 0.7068251811053661 -0.7073882691671998 0.0
  outer loop
   vertex 600.4071022386423 39.49999999999999 0
   vertex 633.9337898136972 73.00000000000001 0
   vertex 633.9337898136972 73.00000000000001 0.24
  endloop
 endfacet
 facet normal 0.7068251811053661 -0.7073882691671998 0.0
  outer loop
   vertex 600.4071022386423 39.49999999999999 0.24
   vertex 600.4071022386423 39.49999999999999 0
   vertex 633.9337898136972 73.00000000000001 0.24
  endloop
 endfacet
 facet normal 0.0 0.0 1.0
  outer loop
   vertex 600.4071022386423 39.49999999999999 0.24
   vertex 386.0662101863029 73.00000000000001 0.24
   vertex 419.5928977613578 39.49999999999999 0.24
  endloop
 endfacet
 facet normal 0.0 -0.0 1.0
  outer loop
   vertex 600.4071022386423 39.49999999999999 0.24
   vertex 633.9337898136972 73.00000000000001 0.24
   vertex 386.0662101863029 73.00000000000001 0.24
  endloop
 endfacet
 facet normal 0.0 0.0 -1.0
  outer loop
   vertex 606.0662101863029 35.50000000000001 0
   vertex 693.9337898136972 35.50000000000001 0
   vertex 660.4071022386424 2.0 0
  endloop
 endfacet
 facet normal 0.0 0.0 -1.0
  outer loop
   vertex 606.0662101863029 35.50000000000001 0
   vertex 660.4071022386424 2.0 0
   vertex 639.5928977613577 2.0 0
  endloop
 endfacet
 facet normal 0.0 1.0 0.0
  outer loop
   vertex 693.9337898136972 35.50000000000001 0
   vertex 606.0662101863029 35.50000000000001 0
   vertex 606.0662101863029 35.50000000000001 0.24
  endloop
 endfacet
 facet normal 0.0 1.0 0.0
  outer loop
   vertex 693.9337898136972 35.50000000000001 0.24
   vertex 693.9337898136972 35.50000000000001 0
   vertex 606.0662101863029 35.50000000000001 0.24
  endloop
 endfacet
 facet normal 0.7068251811053671 -0.7073882691671985 0.0
  outer loop
   vertex 660.4071022386424 2.0 0
   vertex 693.9337898136972 35.50000000000001 0
   vertex 693.9337898136972 35.50000000000001 0.24
  endloop
 endfacet
 facet normal 0.7068251811053671 -0.7073882691671985 0.0
  outer loop
   vertex 660.4071022386424 2.0 0.24
   vertex 660.4071022386424 2.0 0
   vertex 693.9337898136972 35.50000000000001 0.24
  endloop
 endfacet
 facet normal 0.0 -1.0 0.0
  outer loop
   vertex 639.5928977613577 2.0 0
   vertex 660.4071022386424 2.0 0
   vertex 660.4071022386424 2.0 0.24
  endloop
 endfacet
 facet normal 0.0 -1.0 0.0
  outer loop
   vertex 639.5928977613577 2.0 0.24
   vertex 639.5928977613577 2.0 0
   vertex 660.4071022386424 2.0 0.24
  endloop
 endfacet
 facet normal -0.7068251811053671 -0.7073882691671985 0.0
  outer loop
   vertex 606.0662101863029 35.50000000000001 0
   vertex 639.5928977613577 2.0 0
   vertex 639.5928977613577 2.0 0.24
  endloop
 endfacet
 facet normal -0.7068251811053671 -0.7073882691671985 -0.0
  outer loop
   vertex 606.0662101863029 35.50000000000001 0.24
   vertex 606.0662101863029 35.50000000000001 0
   vertex 639.5928977613577 2.0 0.24
  endloop
 endfacet
 facet normal -0.0 0.0 1.0
  outer loop
   vertex 606.0662101863029 35.50000000000001 0.24
   vertex 660.4071022386424 2.0 0.24
   vertex 693.9337898136972 35.50000000000001 0.24
  endloop
 endfacet
 facet normal 0.0 0.0 1.0
  outer loop
   vertex 606.0662101863029 35.50000000000001 0.24
   vertex 639.5928977613577 2.0 0.24
   vertex 660.4071022386424 2.0 0.24
  endloop
 endfacet
 facet normal 0.0 0.0 -1.0
  outer loop
   vertex 693.9337898136972 39.50000000000001 0
   vertex 606.0662101863029 39.50000000000001 0
   vertex 639.5928977613576 72.99999999999991 0
  endloop
 endfacet
 facet normal 0.0 0.0 -1.0
  outer loop
   vertex 693.9337898136972 39.50000000000001 0
   vertex 639.5928977613576 72.99999999999991 0
   vertex 660.4071022386426 72.99999999999991 0
  endloop
 endfacet
 facet normal 0.0 -1.0 0.0
  outer loop
   vertex 606.0662101863029 39.50000000000001 0
   vertex 693.9337898136972 39.50000000000001 0
   vertex 693.9337898136972 39.50000000000001 0.24
  endloop
 endfacet
 facet normal 0.0 -1.0 0.0
  outer loop
   vertex 606.0662101863029 39.50000000000001 0.24
   vertex 606.0662101863029 39.50000000000001 0
   vertex 693.9337898136972 39.50000000000001 0.24
  endloop
 endfacet
 facet normal -0.7068251811053673 0.7073882691671984 0.0
  outer loop
   vertex 639.5928977613576 72.99999999999991 0
   vertex 606.0662101863029 39.50000000000001 0
   vertex 606.0662101863029 39.50000000000001 0.24
  endloop
 endfacet
 facet normal -0.7068251811053673 0.7073882691671984 0.0
  outer loop
   vertex 639.5928977613576 72.99999999999991 0.24
   vertex 639.5928977613576 72.99999999999991 0
   vertex 606.0662101863029 39.50000000000001 0.24
  endloop
 endfacet
 facet normal 0.0 1.0 0.0
  outer loop
   vertex 660.4071022386426 72.99999999999991 0
   vertex 639.5928977613576 72.99999999999991 0
   vertex 639.5928977613576 72.99999999999991 0.24
  endloop
 endfacet
 facet normal 0.0 1.0 0.0
  outer loop
   vertex 660.4071022386426 72.99999999999991 0.24
   vertex 660.4071022386426 72.99999999999991 0
   vertex 639.5928977613576 72.99999999999991 0.24
  endloop
 endfacet
 facet normal 0.7068251811053673 0.7073882691671984 0.0
  outer loop
   vertex 693.9337898136972 39.50000000000001 0
   vertex 660.4071022386426 72.99999999999991 0
   vertex 660.4071022386426 72.99999999999991 0.24
  endloop
 endfacet
 facet normal 0.7068251811053673 0.7073882691671984 0.0
  outer loop
   vertex 693.9337898136972 39.50000000000001 0.24
   vertex 693.9337898136972 39.50000000000001 0
   vertex 660.4071022386426 72.99999999999991 0.24
  endloop
 endfacet
 facet normal 0.0 0.0 1.0
  outer loop
   vertex 693.9337898136972 39.50000000000001 0.24
   vertex 639.5928977613576 72.99999999999991 0.24
   vertex 606.0662101863029 39.50000000000001 0.24
  endloop
 endfacet
 facet normal 0.0 0.0 1.0
  outer loop
   vertex 693.9337898136972 39.50000000000001 0.24
   vertex 660.4071022386426 72.99999999999991 0.24
   vertex 639.5928977613576 72.99999999999991 0.24
  endloop
 endfacet
 facet normal 0.0 0.0 -1.0
  outer loop
   vertex 699.5928977613578 35.49999999999999 0
   vertex 797.9984067119372 35.49999999999999 0
   vertex 797.9717297586691 2.0 0
  endloop
 endfacet
 facet normal 0.0 -0.0 -1.0
  outer loop
   vertex 699.5928977613578 35.49999999999999 0
   vertex 797.9717297586691 2.0 0
   vertex 666.0662101863029 2.0 0
  endloop
 endfacet
 facet normal 0.0 1.0 0.0
  outer loop
   vertex 797.9984067119372 35.49999999999999 0
   vertex 699.5928977613578 35.49999999999999 0
   vertex 699.5928977613578 35.49999999999999 0.24
  endloop
 endfacet
 facet normal 0.0 1.0 0.0
  outer loop
   vertex 797.9984067119372 35.49999999999999 0.24
   vertex 797.9984067119372 35.49999999999999 0
   vertex 699.5928977613578 35.49999999999999 0.24
  endloop
 endfacet
 facet normal 0.9999996829318346 -0.0007963267107359073 0.0
  outer loop
   vertex 797.9717297586691 2.0 0
   vertex 797.9984067119372 35.49999999999999 0
   vertex 797.9984067119372 35.49999999999999 0.24
  endloop
 endfacet
 facet normal 0.9999996829318346 -0.0007963267107359073 0.0
  outer loop
   vertex 797.9717297586691 2.0 0.24
   vertex 797.9717297586691 2.0 0
   vertex 797.9984067119372 35.49999999999999 0.24
  endloop
 endfacet
 facet normal 0.0 -1.0 0.0
  outer loop
   vertex 666.0662101863029 2.0 0
   vertex 797.9717297586691 2.0 0
   vertex 797.9717297586691 2.0 0.24
  endloop
 endfacet
 facet normal 0.0 -1.0 0.0
  outer loop
   vertex 666.0662101863029 2.0 0.24
   vertex 666.0662101863029 2.0 0
   vertex 797.9717297586691 2.0 0.24
  endloop
 endfacet
 facet normal -0.7068251811053656 0.7073882691672 0.0
  outer loop
   vertex 699.5928977613578 35.49999999999999 0
   vertex 666.0662101863029 2.0 0
   vertex 666.0662101863029 2.0 0.24
  endloop
 endfacet
 facet normal -0.7068251811053656 0.7073882691672 0.0
  outer loop
   vertex 699.5928977613578 35.49999999999999 0.24
   vertex 699.5928977613578 35.49999999999999 0
   vertex 666.0662101863029 2.0 0.24
  endloop
 endfacet
 facet normal -0.0 0.0 1.0
  outer loop
   vertex 699.5928977613578 35.49999999999999 0.24
   vertex 797.9717297586691 2.0 0.24
   vertex 797.9984067119372 35.49999999999999 0.24
  endloop
 endfacet
 facet normal 0.0 0.0 1.0
  outer loop
   vertex 699.5928977613578 35.49999999999999 0.24
   vertex 666.0662101863029 2.0 0.24
   vertex 797.9717297586691 2.0 0.24
  endloop
 endfacet
 facet normal 0.0 0.0 -1.0
  outer loop
   vertex 797.998406711937 39.49999999999999 0
   vertex 699.5928977613578 39.49999999999999 0
   vertex 666.0662101863029 73.00000000000003 0
  endloop
 endfacet
 facet normal 0.0 0.0 -1.0
  outer loop
   vertex 797.998406711937 39.49999999999999 0
   vertex 666.0662101863029 73.00000000000003 0
   vertex 797.971729758669 73.00000000000003 0
  endloop
 endfacet
 facet normal 0.0 -1.0 0.0
  outer loop
   vertex 699.5928977613578 39.49999999999999 0
   vertex 797.998406711937 39.49999999999999 0
   vertex 797.998406711937 39.49999999999999 0.24
  endloop
 endfacet
 facet normal 0.0 -1.0 0.0
  outer loop
   vertex 699.5928977613578 39.49999999999999 0.24
   vertex 699.5928977613578 39.49999999999999 0
   vertex 797.998406711937 39.49999999999999 0.24
  endloop
 endfacet
 facet normal -0.7068251811053662 -0.7073882691671995 0.0
  outer loop
   vertex 666.0662101863029 73.00000000000003 0
   vertex 699.5928977613578 39.49999999999999 0
   vertex 699.5928977613578 39.49999999999999 0.24
  endloop
 endfacet
 facet normal -0.7068251811053662 -0.7073882691671995 -0.0
  outer loop
   vertex 666.0662101863029 73.00000000000003 0.24
   vertex 666.0662101863029 73.00000000000003 0
   vertex 699.5928977613578 39.49999999999999 0.24
  endloop
 endfacet
 facet normal 0.0 1.0 0.0
  outer loop
   vertex 797.971729758669 73.00000000000003 0
   vertex 666.0662101863029 73.00000000000003 0
   vertex 666.0662101863029 73.00000000000003 0.24
  endloop
 endfacet
 facet normal 0.0 1.0 0.0
  outer loop
   vertex 797.971729758669 73.00000000000003 0.24
   vertex 797.971729758669 73.00000000000003 0
   vertex 666.0662101863029 73.00000000000003 0.24
  endloop
 endfacet
 facet normal 0.9999996829318346 0.0007963267107359062 0.0
  outer loop
   vertex 797.998406711937 39.49999999999999 0
   vertex 797.971729758669 73.00000000000003 0
   vertex 797.971729758669 73.00000000000003 0.24
  endloop
 endfacet
 facet normal 0.9999996829318346 0.0007963267107359062 0.0
  outer loop
   vertex 797.998406711937 39.49999999999999 0.24
   vertex 797.998406711937 39.49999999999999 0
   vertex 797.971729758669 73.00000000000003 0.24
  endloop
 endfacet
 facet normal 0.0 0.0 1.0
  outer loop
   vertex 797.998406711937 39.49999999999999 0.24
   vertex 666.0662101863029 73.00000000000003 0.24
   vertex 699.5928977613578 39.49999999999999 0.24
  endloop
 endfacet
 facet normal 0.0 0.0 1.0
  outer loop
   vertex 797.998406711937 39.49999999999999 0.24
   vertex 797.971729758669 73.00000000000003 0.24
   vertex 666.0662101863029 73.00000000000003 0.24
  endloop
 endfacet
endsolid
