solid PyGamic generated __All_Crease__ SLA File
 facet normal 0.0 0.0 -1.0
  outer loop
   vertex 11.985360933141218 14.4 0
   vertex -0.00027412282408884156 14.4 0
   vertex 5.998536222686546 15.9984 0
  endloop
 endfacet
 facet normal 0.0 0.0 -1.0
  outer loop
   vertex -0.00027412282408884156 14.4 0
   vertex 5.986550587630582 15.9984 0
   vertex 5.998536222686546 15.9984 0
  endloop
 endfacet
 facet normal 0.0 0.0 -1.0
  outer loop
   vertex -0.00027412282408884156 14.4 0
   vertex -0.00027412282408884297 17.6 0
   vertex 5.986550587630582 15.9984 0
  endloop
 endfacet
 facet normal 0.0 0.0 -1.0
  outer loop
   vertex -0.00027412282408884297 17.6 0
   vertex 5.986550587630581 16.0016 0
   vertex 5.986550587630582 15.9984 0
  endloop
 endfacet
 facet normal 0.0 0.0 -1.0
  outer loop
   vertex -0.00027412282408884297 17.6 0
   vertex 11.985360933141216 17.6 0
   vertex 5.986550587630581 16.0016 0
  endloop
 endfacet
 facet normal 0.0 0.0 -1.0
  outer loop
   vertex 11.985360933141216 17.6 0
   vertex 5.998536222686547 16.0016 0
   vertex 5.986550587630581 16.0016 0
  endloop
 endfacet
 facet normal 0.0 -0.0 -1.0
  outer loop
   vertex 11.985360933141216 17.6 0
   vertex 11.985360933141218 14.4 0
   vertex 5.998536222686547 16.0016 0
  endloop
 endfacet
 facet normal 0.0 0.0 -1.0
  outer loop
   vertex 11.985360933141218 14.4 0
   vertex 5.998536222686546 15.9984 0
   vertex 5.998536222686547 16.0016 0
  endloop
 endfacet
 facet normal 0.0 -1.0 0.0
  outer loop
   vertex -0.00027412282408884156 14.4 0
   vertex 11.985360933141218 14.4 0
   vertex 11.985360933141218 14.4 0.4
  endloop
 endfacet
 facet normal 0.0 -1.0 0.0
  outer loop
   vertex -0.00027412282408884156 14.4 0.4
   vertex -0.00027412282408884156 14.4 0
   vertex 11.985360933141218 14.4 0.4
  endloop
 endfacet
 facet normal -1.0 -4.40457132572236e-19 0.0
  outer loop
   vertex -0.00027412282408884297 17.6 0
   vertex -0.00027412282408884156 14.4 0
   vertex -0.00027412282408884156 14.4 0.4
  endloop
 endfacet
 facet normal -1.0 -4.40457132572236e-19 -0.0
  outer loop
   vertex -0.00027412282408884297 17.6 0.4
   vertex -0.00027412282408884297 17.6 0
   vertex -0.00027412282408884156 14.4 0.4
  endloop
 endfacet
 facet normal 0.0 1.0 0.0
  outer loop
   vertex 11.985360933141216 17.6 0
   vertex -0.00027412282408884297 17.6 0
   vertex -0.00027412282408884297 17.6 0.4
  endloop
 endfacet
 facet normal 0.0 1.0 0.0
  outer loop
   vertex 11.985360933141216 17.6 0.4
   vertex 11.985360933141216 17.6 0
   vertex -0.00027412282408884297 17.6 0.4
  endloop
 endfacet
 facet normal 1.0 5.551115123125781e-16 0.0
  outer loop
   vertex 11.985360933141218 14.4 0
   vertex 11.985360933141216 17.6 0
   vertex 11.985360933141216 17.6 0.4
  endloop
 endfacet
 facet normal 1.0 5.551115123125781e-16 0.0
  outer loop
   vertex 11.985360933141218 14.4 0.4
   vertex 11.985360933141218 14.4 0
   vertex 11.985360933141216 17.6 0.4
  endloop
 endfacet
 facet normal 0.0 1.0 -0.0
  outer loop
   vertex 5.998536222686546 15.9984 0
   vertex 5.986550587630582 15.9984 0
   vertex 5.998536222686546 15.9984 0.4
  endloop
 endfacet
 facet normal 0.0 1.0 0.0
  outer loop
   vertex 5.986550587630582 15.9984 0
   vertex 5.986550587630582 15.9984 0.4
   vertex 5.998536222686546 15.9984 0.4
  endloop
 endfacet
 facet normal 1.0 2.775557561563197e-13 -0.0
  outer loop
   vertex 5.986550587630582 15.9984 0
   vertex 5.986550587630581 16.0016 0
   vertex 5.986550587630582 15.9984 0.4
  endloop
 endfacet
 facet normal 1.0 2.775557561563197e-13 -0.0
  outer loop
   vertex 5.986550587630581 16.0016 0
   vertex 5.986550587630581 16.0016 0.4
   vertex 5.986550587630582 15.9984 0.4
  endloop
 endfacet
 facet normal 0.0 -1.0 0.0
  outer loop
   vertex 5.986550587630581 16.0016 0
   vertex 5.998536222686547 16.0016 0
   vertex 5.986550587630581 16.0016 0.4
  endloop
 endfacet
 facet normal 0.0 -1.0 0.0
  outer loop
   vertex 5.998536222686547 16.0016 0
   vertex 5.998536222686547 16.0016 0.4
   vertex 5.986550587630581 16.0016 0.4
  endloop
 endfacet
 facet normal -1.0 2.775557561563197e-13 0.0
  outer loop
   vertex 5.998536222686547 16.0016 0
   vertex 5.998536222686546 15.9984 0
   vertex 5.998536222686547 16.0016 0.4
  endloop
 endfacet
 facet normal -1.0 2.775557561563197e-13 0.0
  outer loop
   vertex 5.998536222686546 15.9984 0
   vertex 5.998536222686546 15.9984 0.4
   vertex 5.998536222686547 16.0016 0.4
  endloop
 endfacet
 facet normal 0.0 0.0 1.0
  outer loop
   vertex -0.00027412282408884156 14.4 0.4
   vertex 11.985360933141218 14.4 0.4
   vertex 5.998536222686546 15.9984 0.4
  endloop
 endfacet
 facet normal -0.0 0.0 1.0
  outer loop
   vertex 5.986550587630582 15.9984 0.4
   vertex -0.00027412282408884156 14.4 0.4
   vertex 5.998536222686546 15.9984 0.4
  endloop
 endfacet
 facet normal 0.0 0.0 1.0
  outer loop
   vertex -0.00027412282408884297 17.6 0.4
   vertex -0.00027412282408884156 14.4 0.4
   vertex 5.986550587630582 15.9984 0.4
  endloop
 endfacet
 facet normal 0.0 0.0 1.0
  outer loop
   vertex 5.986550587630581 16.0016 0.4
   vertex -0.00027412282408884297 17.6 0.4
   vertex 5.986550587630582 15.9984 0.4
  endloop
 endfacet
 facet normal 0.0 0.0 1.0
  outer loop
   vertex 11.985360933141216 17.6 0.4
   vertex -0.00027412282408884297 17.6 0.4
   vertex 5.986550587630581 16.0016 0.4
  endloop
 endfacet
 facet normal 0.0 -0.0 1.0
  outer loop
   vertex 5.998536222686547 16.0016 0.4
   vertex 11.985360933141216 17.6 0.4
   vertex 5.986550587630581 16.0016 0.4
  endloop
 endfacet
 facet normal 0.0 0.0 1.0
  outer loop
   vertex 11.985360933141218 14.4 0.4
   vertex 11.985360933141216 17.6 0.4
   vertex 5.998536222686547 16.0016 0.4
  endloop
 endfacet
 facet normal -0.0 0.0 1.0
  outer loop
   vertex 5.998536222686546 15.9984 0.4
   vertex 11.985360933141218 14.4 0.4
   vertex 5.998536222686547 16.0016 0.4
  endloop
 endfacet
 facet normal 0.0 0.0 -1.0
  outer loop
   vertex -0.010109556291507569 2.0490010741202638 0
   vertex 11.985360933141218 14.4 0
   vertex 7.216280303296873 7.19534850107412 0
  endloop
 endfacet
 facet normal 0.0 0.0 -1.0
  outer loop
   vertex 11.985360933141218 14.4 0
   vertex 8.221805522180368 8.230676036523072 0
   vertex 7.216280303296873 7.19534850107412 0
  endloop
 endfacet
 facet normal 0.0 -0.0 -1.0
  outer loop
   vertex 11.985360933141218 14.4 0
   vertex 16.446185955184855 14.4 0
   vertex 8.221805522180368 8.230676036523072 0
  endloop
 endfacet
 facet normal 0.0 0.0 -1.0
  outer loop
   vertex 16.446185955184855 14.4 0
   vertex 7.232736598808351 7.2076994999999995 0
   vertex 8.221805522180368 8.230676036523072 0
  endloop
 endfacet
 facet normal 0.0 0.0 -1.0
  outer loop
   vertex 16.446185955184855 14.4 0
   vertex 2.461666920418674 0.001 0
   vertex 7.232736598808351 7.2076994999999995 0
  endloop
 endfacet
 facet normal 0.0 0.0 1.0
  outer loop
   vertex 2.461666920418674 0.001 0
   vertex 8.212281828167647 8.216277036523072 0
   vertex 7.232736598808351 7.2076994999999995 0
  endloop
 endfacet
 facet normal 0.0 0.0 -1.0
  outer loop
   vertex 2.461666920418674 0.001 0
   vertex -0.010109556291507569 2.0490010741202638 0
   vertex 8.212281828167647 8.216277036523072 0
  endloop
 endfacet
 facet normal 0.0 0.0 1.0
  outer loop
   vertex -0.010109556291507569 2.0490010741202638 0
   vertex 7.216280303296873 7.19534850107412 0
   vertex 8.212281828167647 8.216277036523072 0
  endloop
 endfacet
 facet normal -0.7173560908995229 0.6967067093471654 0.0
  outer loop
   vertex 11.985360933141218 14.4 0
   vertex -0.010109556291507569 2.0490010741202638 0
   vertex -0.010109556291507569 2.0490010741202638 0.4
  endloop
 endfacet
 facet normal -0.7173560908995229 0.6967067093471654 0.0
  outer loop
   vertex 11.985360933141218 14.4 0.4
   vertex 11.985360933141218 14.4 0
   vertex -0.010109556291507569 2.0490010741202638 0.4
  endloop
 endfacet
 facet normal 0.0 1.0 0.0
  outer loop
   vertex 16.446185955184855 14.4 0
   vertex 11.985360933141218 14.4 0
   vertex 11.985360933141218 14.4 0.4
  endloop
 endfacet
 facet normal 0.0 1.0 0.0
  outer loop
   vertex 16.446185955184855 14.4 0.4
   vertex 16.446185955184855 14.4 0
   vertex 11.985360933141218 14.4 0.4
  endloop
 endfacet
 facet normal 0.7173560908995228 -0.6967067093471655 0.0
  outer loop
   vertex 2.461666920418674 0.001 0
   vertex 16.446185955184855 14.4 0
   vertex 16.446185955184855 14.4 0.4
  endloop
 endfacet
 facet normal 0.7173560908995228 -0.6967067093471655 0.0
  outer loop
   vertex 2.461666920418674 0.001 0.4
   vertex 2.461666920418674 0.001 0
   vertex 16.446185955184855 14.4 0.4
  endloop
 endfacet
 facet normal -0.6380100526788286 -0.7700280336979675 0.0
  outer loop
   vertex -0.010109556291507569 2.0490010741202638 0
   vertex 2.461666920418674 0.001 0
   vertex 2.461666920418674 0.001 0.4
  endloop
 endfacet
 facet normal -0.6380100526788286 -0.7700280336979675 -0.0
  outer loop
   vertex -0.010109556291507569 2.0490010741202638 0.4
   vertex -0.010109556291507569 2.0490010741202638 0
   vertex 2.461666920418674 0.001 0.4
  endloop
 endfacet
 facet normal 0.7173560908995222 -0.6967067093471659 0.0
  outer loop
   vertex 7.216280303296873 7.19534850107412 0
   vertex 8.221805522180368 8.230676036523072 0
   vertex 7.216280303296873 7.19534850107412 0.4
  endloop
 endfacet
 facet normal 0.7173560908995222 -0.6967067093471659 0.0
  outer loop
   vertex 8.221805522180368 8.230676036523072 0
   vertex 8.221805522180368 8.230676036523072 0.4
   vertex 7.216280303296873 7.19534850107412 0.4
  endloop
 endfacet
 facet normal -0.7189210839602529 0.6950917026101051 0.0
  outer loop
   vertex 8.221805522180368 8.230676036523072 0
   vertex 7.232736598808351 7.2076994999999995 0
   vertex 8.221805522180368 8.230676036523072 0.4
  endloop
 endfacet
 facet normal -0.7189210839602529 0.6950917026101051 0.0
  outer loop
   vertex 7.232736598808351 7.2076994999999995 0
   vertex 7.232736598808351 7.2076994999999995 0.4
   vertex 8.221805522180368 8.230676036523072 0.4
  endloop
 endfacet
 facet normal 0.7173560908995227 -0.6967067093471656 0.0
  outer loop
   vertex 7.232736598808351 7.2076994999999995 0
   vertex 8.212281828167647 8.216277036523072 0
   vertex 7.232736598808351 7.2076994999999995 0.4
  endloop
 endfacet
 facet normal 0.7173560908995227 -0.6967067093471656 0.0
  outer loop
   vertex 8.212281828167647 8.216277036523072 0
   vertex 8.212281828167647 8.216277036523072 0.4
   vertex 7.232736598808351 7.2076994999999995 0.4
  endloop
 endfacet
 facet normal -0.715791170317522 0.6983143994616411 0.0
  outer loop
   vertex 8.212281828167647 8.216277036523072 0
   vertex 7.216280303296873 7.19534850107412 0
   vertex 8.212281828167647 8.216277036523072 0.4
  endloop
 endfacet
 facet normal -0.715791170317522 0.6983143994616411 0.0
  outer loop
   vertex 7.216280303296873 7.19534850107412 0
   vertex 7.216280303296873 7.19534850107412 0.4
   vertex 8.212281828167647 8.216277036523072 0.4
  endloop
 endfacet
 facet normal 0.0 0.0 1.0
  outer loop
   vertex 11.985360933141218 14.4 0.4
   vertex -0.010109556291507569 2.0490010741202638 0.4
   vertex 7.216280303296873 7.19534850107412 0.4
  endloop
 endfacet
 facet normal 0.0 -0.0 1.0
  outer loop
   vertex 8.221805522180368 8.230676036523072 0.4
   vertex 11.985360933141218 14.4 0.4
   vertex 7.216280303296873 7.19534850107412 0.4
  endloop
 endfacet
 facet normal 0.0 0.0 1.0
  outer loop
   vertex 16.446185955184855 14.4 0.4
   vertex 11.985360933141218 14.4 0.4
   vertex 8.221805522180368 8.230676036523072 0.4
  endloop
 endfacet
 facet normal 0.0 0.0 1.0
  outer loop
   vertex 7.232736598808351 7.2076994999999995 0.4
   vertex 16.446185955184855 14.4 0.4
   vertex 8.221805522180368 8.230676036523072 0.4
  endloop
 endfacet
 facet normal 0.0 0.0 1.0
  outer loop
   vertex 2.461666920418674 0.001 0.4
   vertex 16.446185955184855 14.4 0.4
   vertex 7.232736598808351 7.2076994999999995 0.4
  endloop
 endfacet
 facet normal 0.0 0.0 -1.0
  outer loop
   vertex 8.212281828167647 8.216277036523072 0.4
   vertex 2.461666920418674 0.001 0.4
   vertex 7.232736598808351 7.2076994999999995 0.4
  endloop
 endfacet
 facet normal -0.0 0.0 1.0
  outer loop
   vertex -0.010109556291507569 2.0490010741202638 0.4
   vertex 2.461666920418674 0.001 0.4
   vertex 8.212281828167647 8.216277036523072 0.4
  endloop
 endfacet
 facet normal -0.0 0.0 -1.0
  outer loop
   vertex 7.216280303296873 7.19534850107412 0.4
   vertex -0.010109556291507569 2.0490010741202638 0.4
   vertex 8.212281828167647 8.216277036523072 0.4
  endloop
 endfacet
 facet normal 0.0 0.0 -1.0
  outer loop
   vertex 11.985360933141216 17.6 0
   vertex -0.010109556291507567 29.950998925879734 0
   vertex 8.221805522180368 23.76932396347693 0
  endloop
 endfacet
 facet normal 0.0 0.0 -1.0
  outer loop
   vertex -0.010109556291507567 29.950998925879734 0
   vertex 7.216280303296875 24.804651498925878 0
   vertex 8.221805522180368 23.76932396347693 0
  endloop
 endfacet
 facet normal 0.0 0.0 -1.0
  outer loop
   vertex -0.010109556291507567 29.950998925879734 0
   vertex 2.4616669204186783 31.999 0
   vertex 7.216280303296875 24.804651498925878 0
  endloop
 endfacet
 facet normal 0.0 0.0 -1.0
  outer loop
   vertex 2.4616669204186783 31.999 0
   vertex 8.212281828167646 23.783722963476926 0
   vertex 7.216280303296875 24.804651498925878 0
  endloop
 endfacet
 facet normal 0.0 0.0 -1.0
  outer loop
   vertex 2.4616669204186783 31.999 0
   vertex 16.446185955184855 17.6 0
   vertex 8.212281828167646 23.783722963476926 0
  endloop
 endfacet
 facet normal 0.0 0.0 1.0
  outer loop
   vertex 16.446185955184855 17.6 0
   vertex 7.232736598808351 24.7923005 0
   vertex 8.212281828167646 23.783722963476926 0
  endloop
 endfacet
 facet normal 0.0 0.0 -1.0
  outer loop
   vertex 16.446185955184855 17.6 0
   vertex 11.985360933141216 17.6 0
   vertex 7.232736598808351 24.7923005 0
  endloop
 endfacet
 facet normal 0.0 0.0 1.0
  outer loop
   vertex 11.985360933141216 17.6 0
   vertex 8.221805522180368 23.76932396347693 0
   vertex 7.232736598808351 24.7923005 0
  endloop
 endfacet
 facet normal -0.7173560908995228 -0.6967067093471654 0.0
  outer loop
   vertex -0.010109556291507567 29.950998925879734 0
   vertex 11.985360933141216 17.6 0
   vertex 11.985360933141216 17.6 0.4
  endloop
 endfacet
 facet normal -0.7173560908995228 -0.6967067093471654 -0.0
  outer loop
   vertex -0.010109556291507567 29.950998925879734 0.4
   vertex -0.010109556291507567 29.950998925879734 0
   vertex 11.985360933141216 17.6 0.4
  endloop
 endfacet
 facet normal -0.6380100526788282 0.7700280336979679 0.0
  outer loop
   vertex 2.4616669204186783 31.999 0
   vertex -0.010109556291507567 29.950998925879734 0
   vertex -0.010109556291507567 29.950998925879734 0.4
  endloop
 endfacet
 facet normal -0.6380100526788282 0.7700280336979679 0.0
  outer loop
   vertex 2.4616669204186783 31.999 0.4
   vertex 2.4616669204186783 31.999 0
   vertex -0.010109556291507567 29.950998925879734 0.4
  endloop
 endfacet
 facet normal 0.7173560908995227 0.6967067093471653 0.0
  outer loop
   vertex 16.446185955184855 17.6 0
   vertex 2.4616669204186783 31.999 0
   vertex 2.4616669204186783 31.999 0.4
  endloop
 endfacet
 facet normal 0.7173560908995227 0.6967067093471653 0.0
  outer loop
   vertex 16.446185955184855 17.6 0.4
   vertex 16.446185955184855 17.6 0
   vertex 2.4616669204186783 31.999 0.4
  endloop
 endfacet
 facet normal 0.0 -1.0 0.0
  outer loop
   vertex 11.985360933141216 17.6 0
   vertex 16.446185955184855 17.6 0
   vertex 16.446185955184855 17.6 0.4
  endloop
 endfacet
 facet normal 0.0 -1.0 0.0
  outer loop
   vertex 11.985360933141216 17.6 0.4
   vertex 11.985360933141216 17.6 0
   vertex 16.446185955184855 17.6 0.4
  endloop
 endfacet
 facet normal 0.7173560908995223 0.696706709347166 -0.0
  outer loop
   vertex 8.221805522180368 23.76932396347693 0
   vertex 7.216280303296875 24.804651498925878 0
   vertex 8.221805522180368 23.76932396347693 0.4
  endloop
 endfacet
 facet normal 0.7173560908995223 0.696706709347166 -0.0
  outer loop
   vertex 7.216280303296875 24.804651498925878 0
   vertex 7.216280303296875 24.804651498925878 0.4
   vertex 8.221805522180368 23.76932396347693 0.4
  endloop
 endfacet
 facet normal -0.7157911703175232 -0.6983143994616396 0.0
  outer loop
   vertex 7.216280303296875 24.804651498925878 0
   vertex 8.212281828167646 23.783722963476926 0
   vertex 7.216280303296875 24.804651498925878 0.4
  endloop
 endfacet
 facet normal -0.7157911703175232 -0.6983143994616396 0.0
  outer loop
   vertex 8.212281828167646 23.783722963476926 0
   vertex 8.212281828167646 23.783722963476926 0.4
   vertex 7.216280303296875 24.804651498925878 0.4
  endloop
 endfacet
 facet normal 0.7173560908995236 0.6967067093471646 -0.0
  outer loop
   vertex 8.212281828167646 23.783722963476926 0
   vertex 7.232736598808351 24.7923005 0
   vertex 8.212281828167646 23.783722963476926 0.4
  endloop
 endfacet
 facet normal 0.7173560908995236 0.6967067093471646 -0.0
  outer loop
   vertex 7.232736598808351 24.7923005 0
   vertex 7.232736598808351 24.7923005 0.4
   vertex 8.212281828167646 23.783722963476926 0.4
  endloop
 endfacet
 facet normal -0.7189210839602527 -0.6950917026101056 0.0
  outer loop
   vertex 7.232736598808351 24.7923005 0
   vertex 8.221805522180368 23.76932396347693 0
   vertex 7.232736598808351 24.7923005 0.4
  endloop
 endfacet
 facet normal -0.7189210839602527 -0.6950917026101056 0.0
  outer loop
   vertex 8.221805522180368 23.76932396347693 0
   vertex 8.221805522180368 23.76932396347693 0.4
   vertex 7.232736598808351 24.7923005 0.4
  endloop
 endfacet
 facet normal 0.0 0.0 1.0
  outer loop
   vertex -0.010109556291507567 29.950998925879734 0.4
   vertex 11.985360933141216 17.6 0.4
   vertex 8.221805522180368 23.76932396347693 0.4
  endloop
 endfacet
 facet normal 0.0 0.0 1.0
  outer loop
   vertex 7.216280303296875 24.804651498925878 0.4
   vertex -0.010109556291507567 29.950998925879734 0.4
   vertex 8.221805522180368 23.76932396347693 0.4
  endloop
 endfacet
 facet normal 0.0 0.0 1.0
  outer loop
   vertex 2.4616669204186783 31.999 0.4
   vertex -0.010109556291507567 29.950998925879734 0.4
   vertex 7.216280303296875 24.804651498925878 0.4
  endloop
 endfacet
 facet normal 0.0 0.0 1.0
  outer loop
   vertex 8.212281828167646 23.783722963476926 0.4
   vertex 2.4616669204186783 31.999 0.4
   vertex 7.216280303296875 24.804651498925878 0.4
  endloop
 endfacet
 facet normal 0.0 0.0 1.0
  outer loop
   vertex 16.446185955184855 17.6 0.4
   vertex 2.4616669204186783 31.999 0.4
   vertex 8.212281828167646 23.783722963476926 0.4
  endloop
 endfacet
 facet normal 0.0 0.0 -1.0
  outer loop
   vertex 7.232736598808351 24.7923005 0.4
   vertex 16.446185955184855 17.6 0.4
   vertex 8.212281828167646 23.783722963476926 0.4
  endloop
 endfacet
 facet normal 0.0 -0.0 1.0
  outer loop
   vertex 11.985360933141216 17.6 0.4
   vertex 16.446185955184855 17.6 0.4
   vertex 7.232736598808351 24.7923005 0.4
  endloop
 endfacet
 facet normal -0.0 -0.0 -1.0
  outer loop
   vertex 8.221805522180368 23.76932396347693 0.4
   vertex 11.985360933141216 17.6 0.4
   vertex 7.232736598808351 24.7923005 0.4
  endloop
 endfacet
 facet normal 0.0 0.0 -1.0
  outer loop
   vertex 31.985360933141216 14.4 0
   vertex 16.446185955184855 14.4 0
   vertex 24.223543031652014 15.9984 0
  endloop
 endfacet
 facet normal 0.0 0.0 -1.0
  outer loop
   vertex 16.446185955184855 14.4 0
   vertex 24.208003856674058 15.9984 0
   vertex 24.223543031652014 15.9984 0
  endloop
 endfacet
 facet normal 0.0 0.0 -1.0
  outer loop
   vertex 16.446185955184855 14.4 0
   vertex 16.446185955184855 17.6 0
   vertex 24.208003856674058 15.9984 0
  endloop
 endfacet
 facet normal 0.0 0.0 -1.0
  outer loop
   vertex 16.446185955184855 17.6 0
   vertex 24.208003856674058 16.0016 0
   vertex 24.208003856674058 15.9984 0
  endloop
 endfacet
 facet normal 0.0 0.0 -1.0
  outer loop
   vertex 16.446185955184855 17.6 0
   vertex 31.985360933141216 17.6 0
   vertex 24.208003856674058 16.0016 0
  endloop
 endfacet
 facet normal 0.0 0.0 -1.0
  outer loop
   vertex 31.985360933141216 17.6 0
   vertex 24.223543031652014 16.0016 0
   vertex 24.208003856674058 16.0016 0
  endloop
 endfacet
 facet normal 0.0 -0.0 -1.0
  outer loop
   vertex 31.985360933141216 17.6 0
   vertex 31.985360933141216 14.4 0
   vertex 24.223543031652014 16.0016 0
  endloop
 endfacet
 facet normal 0.0 0.0 -1.0
  outer loop
   vertex 31.985360933141216 14.4 0
   vertex 24.223543031652014 15.9984 0
   vertex 24.223543031652014 16.0016 0
  endloop
 endfacet
 facet normal 0.0 -1.0 0.0
  outer loop
   vertex 16.446185955184855 14.4 0
   vertex 31.985360933141216 14.4 0
   vertex 31.985360933141216 14.4 0.4
  endloop
 endfacet
 facet normal 0.0 -1.0 0.0
  outer loop
   vertex 16.446185955184855 14.4 0.4
   vertex 16.446185955184855 14.4 0
   vertex 31.985360933141216 14.4 0.4
  endloop
 endfacet
 facet normal -1.0 0.0 0.0
  outer loop
   vertex 16.446185955184855 17.6 0
   vertex 16.446185955184855 14.4 0
   vertex 16.446185955184855 14.4 0.4
  endloop
 endfacet
 facet normal -1.0 -0.0 -0.0
  outer loop
   vertex 16.446185955184855 17.6 0.4
   vertex 16.446185955184855 17.6 0
   vertex 16.446185955184855 14.4 0.4
  endloop
 endfacet
 facet normal 0.0 1.0 0.0
  outer loop
   vertex 31.985360933141216 17.6 0
   vertex 16.446185955184855 17.6 0
   vertex 16.446185955184855 17.6 0.4
  endloop
 endfacet
 facet normal 0.0 1.0 0.0
  outer loop
   vertex 31.985360933141216 17.6 0.4
   vertex 31.985360933141216 17.6 0
   vertex 16.446185955184855 17.6 0.4
  endloop
 endfacet
 facet normal 1.0 0.0 0.0
  outer loop
   vertex 31.985360933141216 14.4 0
   vertex 31.985360933141216 17.6 0
   vertex 31.985360933141216 17.6 0.4
  endloop
 endfacet
 facet normal 1.0 -0.0 0.0
  outer loop
   vertex 31.985360933141216 14.4 0.4
   vertex 31.985360933141216 14.4 0
   vertex 31.985360933141216 17.6 0.4
  endloop
 endfacet
 facet normal 0.0 1.0 -0.0
  outer loop
   vertex 24.223543031652014 15.9984 0
   vertex 24.208003856674058 15.9984 0
   vertex 24.223543031652014 15.9984 0.4
  endloop
 endfacet
 facet normal 0.0 1.0 0.0
  outer loop
   vertex 24.208003856674058 15.9984 0
   vertex 24.208003856674058 15.9984 0.4
   vertex 24.223543031652014 15.9984 0.4
  endloop
 endfacet
 facet normal 1.0 0.0 0.0
  outer loop
   vertex 24.208003856674058 15.9984 0
   vertex 24.208003856674058 16.0016 0
   vertex 24.208003856674058 15.9984 0.4
  endloop
 endfacet
 facet normal 1.0 0.0 -0.0
  outer loop
   vertex 24.208003856674058 16.0016 0
   vertex 24.208003856674058 16.0016 0.4
   vertex 24.208003856674058 15.9984 0.4
  endloop
 endfacet
 facet normal 0.0 -1.0 0.0
  outer loop
   vertex 24.208003856674058 16.0016 0
   vertex 24.223543031652014 16.0016 0
   vertex 24.208003856674058 16.0016 0.4
  endloop
 endfacet
 facet normal 0.0 -1.0 0.0
  outer loop
   vertex 24.223543031652014 16.0016 0
   vertex 24.223543031652014 16.0016 0.4
   vertex 24.208003856674058 16.0016 0.4
  endloop
 endfacet
 facet normal -1.0 0.0 0.0
  outer loop
   vertex 24.223543031652014 16.0016 0
   vertex 24.223543031652014 15.9984 0
   vertex 24.223543031652014 16.0016 0.4
  endloop
 endfacet
 facet normal -1.0 0.0 0.0
  outer loop
   vertex 24.223543031652014 15.9984 0
   vertex 24.223543031652014 15.9984 0.4
   vertex 24.223543031652014 16.0016 0.4
  endloop
 endfacet
 facet normal 0.0 0.0 1.0
  outer loop
   vertex 16.446185955184855 14.4 0.4
   vertex 31.985360933141216 14.4 0.4
   vertex 24.223543031652014 15.9984 0.4
  endloop
 endfacet
 facet normal -0.0 0.0 1.0
  outer loop
   vertex 24.208003856674058 15.9984 0.4
   vertex 16.446185955184855 14.4 0.4
   vertex 24.223543031652014 15.9984 0.4
  endloop
 endfacet
 facet normal 0.0 0.0 1.0
  outer loop
   vertex 16.446185955184855 17.6 0.4
   vertex 16.446185955184855 14.4 0.4
   vertex 24.208003856674058 15.9984 0.4
  endloop
 endfacet
 facet normal 0.0 0.0 1.0
  outer loop
   vertex 24.208003856674058 16.0016 0.4
   vertex 16.446185955184855 17.6 0.4
   vertex 24.208003856674058 15.9984 0.4
  endloop
 endfacet
 facet normal 0.0 0.0 1.0
  outer loop
   vertex 31.985360933141216 17.6 0.4
   vertex 16.446185955184855 17.6 0.4
   vertex 24.208003856674058 16.0016 0.4
  endloop
 endfacet
 facet normal 0.0 -0.0 1.0
  outer loop
   vertex 24.223543031652014 16.0016 0.4
   vertex 31.985360933141216 17.6 0.4
   vertex 24.208003856674058 16.0016 0.4
  endloop
 endfacet
 facet normal 0.0 -0.0 1.0
  outer loop
   vertex 31.985360933141216 14.4 0.4
   vertex 31.985360933141216 17.6 0.4
   vertex 24.223543031652014 16.0016 0.4
  endloop
 endfacet
 facet normal -0.0 0.0 1.0
  outer loop
   vertex 24.223543031652014 15.9984 0.4
   vertex 31.985360933141216 14.4 0.4
   vertex 24.223543031652014 16.0016 0.4
  endloop
 endfacet
 facet normal 0.0 0.0 -1.0
  outer loop
   vertex 18.00084189837504 0.001 0
   vertex 31.985360933141216 14.4 0
   vertex 27.21429125475154 7.193300500000001 0
  endloop
 endfacet
 facet normal 0.0 0.0 -1.0
  outer loop
   vertex 31.985360933141216 14.4 0
   vertex 27.228275773786308 7.2076994999999995 0
   vertex 27.21429125475154 7.193300500000001 0
  endloop
 endfacet
 facet normal 0.0 -0.0 -1.0
  outer loop
   vertex 31.985360933141216 14.4 0
   vertex 36.44618595518485 14.4 0
   vertex 27.228275773786308 7.2076994999999995 0
  endloop
 endfacet
 facet normal 0.0 0.0 -1.0
  outer loop
   vertex 36.44618595518485 14.4 0
   vertex 27.232736598808348 7.2076994999999995 0
   vertex 27.228275773786308 7.2076994999999995 0
  endloop
 endfacet
 facet normal 0.0 0.0 -1.0
  outer loop
   vertex 36.44618595518485 14.4 0
   vertex 22.461666920418672 0.001 0
   vertex 27.232736598808348 7.2076994999999995 0
  endloop
 endfacet
 facet normal 0.0 0.0 -1.0
  outer loop
   vertex 22.461666920418672 0.001 0
   vertex 27.218752079773584 7.193300500000001 0
   vertex 27.232736598808348 7.2076994999999995 0
  endloop
 endfacet
 facet normal 0.0 0.0 -1.0
  outer loop
   vertex 22.461666920418672 0.001 0
   vertex 18.00084189837504 0.001 0
   vertex 27.218752079773584 7.193300500000001 0
  endloop
 endfacet
 facet normal 0.0 0.0 -1.0
  outer loop
   vertex 18.00084189837504 0.001 0
   vertex 27.21429125475154 7.193300500000001 0
   vertex 27.218752079773584 7.193300500000001 0
  endloop
 endfacet
 facet normal -0.7173560908995229 0.6967067093471653 0.0
  outer loop
   vertex 31.985360933141216 14.4 0
   vertex 18.00084189837504 0.001 0
   vertex 18.00084189837504 0.001 0.4
  endloop
 endfacet
 facet normal -0.7173560908995229 0.6967067093471653 0.0
  outer loop
   vertex 31.985360933141216 14.4 0.4
   vertex 31.985360933141216 14.4 0
   vertex 18.00084189837504 0.001 0.4
  endloop
 endfacet
 facet normal 0.0 1.0 0.0
  outer loop
   vertex 36.44618595518485 14.4 0
   vertex 31.985360933141216 14.4 0
   vertex 31.985360933141216 14.4 0.4
  endloop
 endfacet
 facet normal 0.0 1.0 0.0
  outer loop
   vertex 36.44618595518485 14.4 0.4
   vertex 36.44618595518485 14.4 0
   vertex 31.985360933141216 14.4 0.4
  endloop
 endfacet
 facet normal 0.7173560908995228 -0.6967067093471654 0.0
  outer loop
   vertex 22.461666920418672 0.001 0
   vertex 36.44618595518485 14.4 0
   vertex 36.44618595518485 14.4 0.4
  endloop
 endfacet
 facet normal 0.7173560908995228 -0.6967067093471654 0.0
  outer loop
   vertex 22.461666920418672 0.001 0.4
   vertex 22.461666920418672 0.001 0
   vertex 36.44618595518485 14.4 0.4
  endloop
 endfacet
 facet normal 0.0 -1.0 0.0
  outer loop
   vertex 18.00084189837504 0.001 0
   vertex 22.461666920418672 0.001 0
   vertex 22.461666920418672 0.001 0.4
  endloop
 endfacet
 facet normal 0.0 -1.0 0.0
  outer loop
   vertex 18.00084189837504 0.001 0.4
   vertex 18.00084189837504 0.001 0
   vertex 22.461666920418672 0.001 0.4
  endloop
 endfacet
 facet normal 0.71735609089944 -0.6967067093472505 0.0
  outer loop
   vertex 27.21429125475154 7.193300500000001 0
   vertex 27.228275773786308 7.2076994999999995 0
   vertex 27.21429125475154 7.193300500000001 0.4
  endloop
 endfacet
 facet normal 0.71735609089944 -0.6967067093472505 0.0
  outer loop
   vertex 27.228275773786308 7.2076994999999995 0
   vertex 27.228275773786308 7.2076994999999995 0.4
   vertex 27.21429125475154 7.193300500000001 0.4
  endloop
 endfacet
 facet normal 0.0 -1.0 0.0
  outer loop
   vertex 27.228275773786308 7.2076994999999995 0
   vertex 27.232736598808348 7.2076994999999995 0
   vertex 27.228275773786308 7.2076994999999995 0.4
  endloop
 endfacet
 facet normal 0.0 -1.0 0.0
  outer loop
   vertex 27.232736598808348 7.2076994999999995 0
   vertex 27.232736598808348 7.2076994999999995 0.4
   vertex 27.228275773786308 7.2076994999999995 0.4
  endloop
 endfacet
 facet normal -0.7173560908995285 0.6967067093471595 0.0
  outer loop
   vertex 27.232736598808348 7.2076994999999995 0
   vertex 27.218752079773584 7.193300500000001 0
   vertex 27.232736598808348 7.2076994999999995 0.4
  endloop
 endfacet
 facet normal -0.7173560908995285 0.6967067093471595 0.0
  outer loop
   vertex 27.218752079773584 7.193300500000001 0
   vertex 27.218752079773584 7.193300500000001 0.4
   vertex 27.232736598808348 7.2076994999999995 0.4
  endloop
 endfacet
 facet normal 0.0 1.0 -0.0
  outer loop
   vertex 27.218752079773584 7.193300500000001 0
   vertex 27.21429125475154 7.193300500000001 0
   vertex 27.218752079773584 7.193300500000001 0.4
  endloop
 endfacet
 facet normal 0.0 1.0 0.0
  outer loop
   vertex 27.21429125475154 7.193300500000001 0
   vertex 27.21429125475154 7.193300500000001 0.4
   vertex 27.218752079773584 7.193300500000001 0.4
  endloop
 endfacet
 facet normal 0.0 0.0 1.0
  outer loop
   vertex 31.985360933141216 14.4 0.4
   vertex 18.00084189837504 0.001 0.4
   vertex 27.21429125475154 7.193300500000001 0.4
  endloop
 endfacet
 facet normal 0.0 -0.0 1.0
  outer loop
   vertex 27.228275773786308 7.2076994999999995 0.4
   vertex 31.985360933141216 14.4 0.4
   vertex 27.21429125475154 7.193300500000001 0.4
  endloop
 endfacet
 facet normal 0.0 0.0 1.0
  outer loop
   vertex 36.44618595518485 14.4 0.4
   vertex 31.985360933141216 14.4 0.4
   vertex 27.228275773786308 7.2076994999999995 0.4
  endloop
 endfacet
 facet normal 0.0 -0.0 1.0
  outer loop
   vertex 27.232736598808348 7.2076994999999995 0.4
   vertex 36.44618595518485 14.4 0.4
   vertex 27.228275773786308 7.2076994999999995 0.4
  endloop
 endfacet
 facet normal 0.0 0.0 1.0
  outer loop
   vertex 22.461666920418672 0.001 0.4
   vertex 36.44618595518485 14.4 0.4
   vertex 27.232736598808348 7.2076994999999995 0.4
  endloop
 endfacet
 facet normal -0.0 0.0 1.0
  outer loop
   vertex 27.218752079773584 7.193300500000001 0.4
   vertex 22.461666920418672 0.001 0.4
   vertex 27.232736598808348 7.2076994999999995 0.4
  endloop
 endfacet
 facet normal 0.0 0.0 1.0
  outer loop
   vertex 18.00084189837504 0.001 0.4
   vertex 22.461666920418672 0.001 0.4
   vertex 27.218752079773584 7.193300500000001 0.4
  endloop
 endfacet
 facet normal -0.0 0.0 1.0
  outer loop
   vertex 27.21429125475154 7.193300500000001 0.4
   vertex 18.00084189837504 0.001 0.4
   vertex 27.218752079773584 7.193300500000001 0.4
  endloop
 endfacet
 facet normal 0.0 0.0 -1.0
  outer loop
   vertex 31.985360933141216 17.6 0
   vertex 18.00084189837504 31.999 0
   vertex 27.22827577378631 24.7923005 0
  endloop
 endfacet
 facet normal 0.0 0.0 -1.0
  outer loop
   vertex 18.00084189837504 31.999 0
   vertex 27.214291254751544 24.8066995 0
   vertex 27.22827577378631 24.7923005 0
  endloop
 endfacet
 facet normal 0.0 0.0 -1.0
  outer loop
   vertex 18.00084189837504 31.999 0
   vertex 22.46166692041868 31.999 0
   vertex 27.214291254751544 24.8066995 0
  endloop
 endfacet
 facet normal 0.0 0.0 -1.0
  outer loop
   vertex 22.46166692041868 31.999 0
   vertex 27.218752079773587 24.8066995 0
   vertex 27.214291254751544 24.8066995 0
  endloop
 endfacet
 facet normal 0.0 0.0 -1.0
  outer loop
   vertex 22.46166692041868 31.999 0
   vertex 36.44618595518486 17.6 0
   vertex 27.218752079773587 24.8066995 0
  endloop
 endfacet
 facet normal 0.0 0.0 -1.0
  outer loop
   vertex 36.44618595518486 17.6 0
   vertex 27.23273659880835 24.7923005 0
   vertex 27.218752079773587 24.8066995 0
  endloop
 endfacet
 facet normal 0.0 0.0 -1.0
  outer loop
   vertex 36.44618595518486 17.6 0
   vertex 31.985360933141216 17.6 0
   vertex 27.23273659880835 24.7923005 0
  endloop
 endfacet
 facet normal 0.0 0.0 -1.0
  outer loop
   vertex 31.985360933141216 17.6 0
   vertex 27.22827577378631 24.7923005 0
   vertex 27.23273659880835 24.7923005 0
  endloop
 endfacet
 facet normal -0.7173560908995227 -0.6967067093471653 0.0
  outer loop
   vertex 18.00084189837504 31.999 0
   vertex 31.985360933141216 17.6 0
   vertex 31.985360933141216 17.6 0.4
  endloop
 endfacet
 facet normal -0.7173560908995227 -0.6967067093471653 -0.0
  outer loop
   vertex 18.00084189837504 31.999 0.4
   vertex 18.00084189837504 31.999 0
   vertex 31.985360933141216 17.6 0.4
  endloop
 endfacet
 facet normal 0.0 1.0 0.0
  outer loop
   vertex 22.46166692041868 31.999 0
   vertex 18.00084189837504 31.999 0
   vertex 18.00084189837504 31.999 0.4
  endloop
 endfacet
 facet normal 0.0 1.0 0.0
  outer loop
   vertex 22.46166692041868 31.999 0.4
   vertex 22.46166692041868 31.999 0
   vertex 18.00084189837504 31.999 0.4
  endloop
 endfacet
 facet normal 0.7173560908995227 0.6967067093471655 0.0
  outer loop
   vertex 36.44618595518486 17.6 0
   vertex 22.46166692041868 31.999 0
   vertex 22.46166692041868 31.999 0.4
  endloop
 endfacet
 facet normal 0.7173560908995227 0.6967067093471655 0.0
  outer loop
   vertex 36.44618595518486 17.6 0.4
   vertex 36.44618595518486 17.6 0
   vertex 22.46166692041868 31.999 0.4
  endloop
 endfacet
 facet normal 0.0 -1.0 0.0
  outer loop
   vertex 31.985360933141216 17.6 0
   vertex 36.44618595518486 17.6 0
   vertex 36.44618595518486 17.6 0.4
  endloop
 endfacet
 facet normal 0.0 -1.0 0.0
  outer loop
   vertex 31.985360933141216 17.6 0.4
   vertex 31.985360933141216 17.6 0
   vertex 36.44618595518486 17.6 0.4
  endloop
 endfacet
 facet normal 0.7173560908995044 0.6967067093471843 -0.0
  outer loop
   vertex 27.22827577378631 24.7923005 0
   vertex 27.214291254751544 24.8066995 0
   vertex 27.22827577378631 24.7923005 0.4
  endloop
 endfacet
 facet normal 0.7173560908995044 0.6967067093471843 -0.0
  outer loop
   vertex 27.214291254751544 24.8066995 0
   vertex 27.214291254751544 24.8066995 0.4
   vertex 27.22827577378631 24.7923005 0.4
  endloop
 endfacet
 facet normal 0.0 -1.0 0.0
  outer loop
   vertex 27.214291254751544 24.8066995 0
   vertex 27.218752079773587 24.8066995 0
   vertex 27.214291254751544 24.8066995 0.4
  endloop
 endfacet
 facet normal 0.0 -1.0 0.0
  outer loop
   vertex 27.218752079773587 24.8066995 0
   vertex 27.218752079773587 24.8066995 0.4
   vertex 27.214291254751544 24.8066995 0.4
  endloop
 endfacet
 facet normal -0.7173560908995928 -0.6967067093470931 0.0
  outer loop
   vertex 27.218752079773587 24.8066995 0
   vertex 27.23273659880835 24.7923005 0
   vertex 27.218752079773587 24.8066995 0.4
  endloop
 endfacet
 facet normal -0.7173560908995928 -0.6967067093470931 0.0
  outer loop
   vertex 27.23273659880835 24.7923005 0
   vertex 27.23273659880835 24.7923005 0.4
   vertex 27.218752079773587 24.8066995 0.4
  endloop
 endfacet
 facet normal 0.0 1.0 -0.0
  outer loop
   vertex 27.23273659880835 24.7923005 0
   vertex 27.22827577378631 24.7923005 0
   vertex 27.23273659880835 24.7923005 0.4
  endloop
 endfacet
 facet normal 0.0 1.0 0.0
  outer loop
   vertex 27.22827577378631 24.7923005 0
   vertex 27.22827577378631 24.7923005 0.4
   vertex 27.23273659880835 24.7923005 0.4
  endloop
 endfacet
 facet normal 0.0 0.0 1.0
  outer loop
   vertex 18.00084189837504 31.999 0.4
   vertex 31.985360933141216 17.6 0.4
   vertex 27.22827577378631 24.7923005 0.4
  endloop
 endfacet
 facet normal 0.0 0.0 1.0
  outer loop
   vertex 27.214291254751544 24.8066995 0.4
   vertex 18.00084189837504 31.999 0.4
   vertex 27.22827577378631 24.7923005 0.4
  endloop
 endfacet
 facet normal 0.0 0.0 1.0
  outer loop
   vertex 22.46166692041868 31.999 0.4
   vertex 18.00084189837504 31.999 0.4
   vertex 27.214291254751544 24.8066995 0.4
  endloop
 endfacet
 facet normal 0.0 0.0 1.0
  outer loop
   vertex 27.218752079773587 24.8066995 0.4
   vertex 22.46166692041868 31.999 0.4
   vertex 27.214291254751544 24.8066995 0.4
  endloop
 endfacet
 facet normal 0.0 0.0 1.0
  outer loop
   vertex 36.44618595518486 17.6 0.4
   vertex 22.46166692041868 31.999 0.4
   vertex 27.218752079773587 24.8066995 0.4
  endloop
 endfacet
 facet normal -0.0 -0.0 1.0
  outer loop
   vertex 27.23273659880835 24.7923005 0.4
   vertex 36.44618595518486 17.6 0.4
   vertex 27.218752079773587 24.8066995 0.4
  endloop
 endfacet
 facet normal 0.0 -0.0 1.0
  outer loop
   vertex 31.985360933141216 17.6 0.4
   vertex 36.44618595518486 17.6 0.4
   vertex 27.23273659880835 24.7923005 0.4
  endloop
 endfacet
 facet normal -0.0 0.0 1.0
  outer loop
   vertex 27.22827577378631 24.7923005 0.4
   vertex 31.985360933141216 17.6 0.4
   vertex 27.23273659880835 24.7923005 0.4
  endloop
 endfacet
 facet normal 0.0 0.0 -1.0
  outer loop
   vertex 39.55381404481515 14.4 0
   vertex 36.44618595518485 14.4 0
   vertex 38.00155381404482 15.9984 0
  endloop
 endfacet
 facet normal 0.0 0.0 -1.0
  outer loop
   vertex 36.44618595518485 14.4 0
   vertex 37.99844618595519 15.9984 0
   vertex 38.00155381404482 15.9984 0
  endloop
 endfacet
 facet normal 0.0 0.0 -1.0
  outer loop
   vertex 36.44618595518485 14.4 0
   vertex 36.44618595518486 17.6 0
   vertex 37.99844618595519 15.9984 0
  endloop
 endfacet
 facet normal 0.0 0.0 -1.0
  outer loop
   vertex 36.44618595518486 17.6 0
   vertex 37.99844618595519 16.0016 0
   vertex 37.99844618595519 15.9984 0
  endloop
 endfacet
 facet normal 0.0 0.0 -1.0
  outer loop
   vertex 36.44618595518486 17.6 0
   vertex 39.553814044815155 17.6 0
   vertex 37.99844618595519 16.0016 0
  endloop
 endfacet
 facet normal 0.0 0.0 -1.0
  outer loop
   vertex 39.553814044815155 17.6 0
   vertex 38.00155381404482 16.0016 0
   vertex 37.99844618595519 16.0016 0
  endloop
 endfacet
 facet normal 0.0 0.0 -1.0
  outer loop
   vertex 39.553814044815155 17.6 0
   vertex 39.55381404481515 14.4 0
   vertex 38.00155381404482 16.0016 0
  endloop
 endfacet
 facet normal 0.0 0.0 -1.0
  outer loop
   vertex 39.55381404481515 14.4 0
   vertex 38.00155381404482 15.9984 0
   vertex 38.00155381404482 16.0016 0
  endloop
 endfacet
 facet normal 0.0 -1.0 0.0
  outer loop
   vertex 36.44618595518485 14.4 0
   vertex 39.55381404481515 14.4 0
   vertex 39.55381404481515 14.4 0.4
  endloop
 endfacet
 facet normal 0.0 -1.0 0.0
  outer loop
   vertex 36.44618595518485 14.4 0.4
   vertex 36.44618595518485 14.4 0
   vertex 39.55381404481515 14.4 0.4
  endloop
 endfacet
 facet normal -1.0 2.2204460492503123e-15 0.0
  outer loop
   vertex 36.44618595518486 17.6 0
   vertex 36.44618595518485 14.4 0
   vertex 36.44618595518485 14.4 0.4
  endloop
 endfacet
 facet normal -1.0 2.2204460492503123e-15 0.0
  outer loop
   vertex 36.44618595518486 17.6 0.4
   vertex 36.44618595518486 17.6 0
   vertex 36.44618595518485 14.4 0.4
  endloop
 endfacet
 facet normal 0.0 1.0 0.0
  outer loop
   vertex 39.553814044815155 17.6 0
   vertex 36.44618595518486 17.6 0
   vertex 36.44618595518486 17.6 0.4
  endloop
 endfacet
 facet normal 0.0 1.0 0.0
  outer loop
   vertex 39.553814044815155 17.6 0.4
   vertex 39.553814044815155 17.6 0
   vertex 36.44618595518486 17.6 0.4
  endloop
 endfacet
 facet normal 1.0 -2.2204460492503123e-15 0.0
  outer loop
   vertex 39.55381404481515 14.4 0
   vertex 39.553814044815155 17.6 0
   vertex 39.553814044815155 17.6 0.4
  endloop
 endfacet
 facet normal 1.0 -2.2204460492503123e-15 0.0
  outer loop
   vertex 39.55381404481515 14.4 0.4
   vertex 39.55381404481515 14.4 0
   vertex 39.553814044815155 17.6 0.4
  endloop
 endfacet
 facet normal 0.0 1.0 -0.0
  outer loop
   vertex 38.00155381404482 15.9984 0
   vertex 37.99844618595519 15.9984 0
   vertex 38.00155381404482 15.9984 0.4
  endloop
 endfacet
 facet normal 0.0 1.0 0.0
  outer loop
   vertex 37.99844618595519 15.9984 0
   vertex 37.99844618595519 15.9984 0.4
   vertex 38.00155381404482 15.9984 0.4
  endloop
 endfacet
 facet normal 1.0 0.0 0.0
  outer loop
   vertex 37.99844618595519 15.9984 0
   vertex 37.99844618595519 16.0016 0
   vertex 37.99844618595519 15.9984 0.4
  endloop
 endfacet
 facet normal 1.0 0.0 -0.0
  outer loop
   vertex 37.99844618595519 16.0016 0
   vertex 37.99844618595519 16.0016 0.4
   vertex 37.99844618595519 15.9984 0.4
  endloop
 endfacet
 facet normal 0.0 -1.0 0.0
  outer loop
   vertex 37.99844618595519 16.0016 0
   vertex 38.00155381404482 16.0016 0
   vertex 37.99844618595519 16.0016 0.4
  endloop
 endfacet
 facet normal 0.0 -1.0 0.0
  outer loop
   vertex 38.00155381404482 16.0016 0
   vertex 38.00155381404482 16.0016 0.4
   vertex 37.99844618595519 16.0016 0.4
  endloop
 endfacet
 facet normal -1.0 0.0 0.0
  outer loop
   vertex 38.00155381404482 16.0016 0
   vertex 38.00155381404482 15.9984 0
   vertex 38.00155381404482 16.0016 0.4
  endloop
 endfacet
 facet normal -1.0 0.0 0.0
  outer loop
   vertex 38.00155381404482 15.9984 0
   vertex 38.00155381404482 15.9984 0.4
   vertex 38.00155381404482 16.0016 0.4
  endloop
 endfacet
 facet normal 0.0 0.0 1.0
  outer loop
   vertex 36.44618595518485 14.4 0.4
   vertex 39.55381404481515 14.4 0.4
   vertex 38.00155381404482 15.9984 0.4
  endloop
 endfacet
 facet normal -0.0 0.0 1.0
  outer loop
   vertex 37.99844618595519 15.9984 0.4
   vertex 36.44618595518485 14.4 0.4
   vertex 38.00155381404482 15.9984 0.4
  endloop
 endfacet
 facet normal 0.0 0.0 1.0
  outer loop
   vertex 36.44618595518486 17.6 0.4
   vertex 36.44618595518485 14.4 0.4
   vertex 37.99844618595519 15.9984 0.4
  endloop
 endfacet
 facet normal 0.0 0.0 1.0
  outer loop
   vertex 37.99844618595519 16.0016 0.4
   vertex 36.44618595518486 17.6 0.4
   vertex 37.99844618595519 15.9984 0.4
  endloop
 endfacet
 facet normal 0.0 0.0 1.0
  outer loop
   vertex 39.553814044815155 17.6 0.4
   vertex 36.44618595518486 17.6 0.4
   vertex 37.99844618595519 16.0016 0.4
  endloop
 endfacet
 facet normal 0.0 -0.0 1.0
  outer loop
   vertex 38.00155381404482 16.0016 0.4
   vertex 39.553814044815155 17.6 0.4
   vertex 37.99844618595519 16.0016 0.4
  endloop
 endfacet
 facet normal 0.0 -0.0 1.0
  outer loop
   vertex 39.55381404481515 14.4 0.4
   vertex 39.553814044815155 17.6 0.4
   vertex 38.00155381404482 16.0016 0.4
  endloop
 endfacet
 facet normal -0.0 0.0 1.0
  outer loop
   vertex 38.00155381404482 15.9984 0.4
   vertex 39.55381404481515 14.4 0.4
   vertex 38.00155381404482 16.0016 0.4
  endloop
 endfacet
 facet normal 0.0 0.0 -1.0
  outer loop
   vertex 53.538333079581335 0.001 0
   vertex 39.55381404481515 14.4 0
   vertex 48.78124792022643 7.193300500000001 0
  endloop
 endfacet
 facet normal 0.0 0.0 -1.0
  outer loop
   vertex 39.55381404481515 14.4 0
   vertex 48.767263401191656 7.2076994999999995 0
   vertex 48.78124792022643 7.193300500000001 0
  endloop
 endfacet
 facet normal 0.0 0.0 -1.0
  outer loop
   vertex 39.55381404481515 14.4 0
   vertex 44.01463906685879 14.4 0
   vertex 48.767263401191656 7.2076994999999995 0
  endloop
 endfacet
 facet normal 0.0 0.0 -1.0
  outer loop
   vertex 44.01463906685879 14.4 0
   vertex 48.7717242262137 7.2076994999999995 0
   vertex 48.767263401191656 7.2076994999999995 0
  endloop
 endfacet
 facet normal 0.0 0.0 -1.0
  outer loop
   vertex 44.01463906685879 14.4 0
   vertex 57.99915810162498 0.001 0
   vertex 48.7717242262137 7.2076994999999995 0
  endloop
 endfacet
 facet normal 0.0 0.0 -1.0
  outer loop
   vertex 57.99915810162498 0.001 0
   vertex 48.78570874524847 7.193300500000001 0
   vertex 48.7717242262137 7.2076994999999995 0
  endloop
 endfacet
 facet normal 0.0 0.0 -1.0
  outer loop
   vertex 57.99915810162498 0.001 0
   vertex 53.538333079581335 0.001 0
   vertex 48.78570874524847 7.193300500000001 0
  endloop
 endfacet
 facet normal 0.0 0.0 -1.0
  outer loop
   vertex 53.538333079581335 0.001 0
   vertex 48.78124792022643 7.193300500000001 0
   vertex 48.78570874524847 7.193300500000001 0
  endloop
 endfacet
 facet normal -0.7173560908995227 -0.6967067093471655 0.0
  outer loop
   vertex 39.55381404481515 14.4 0
   vertex 53.538333079581335 0.001 0
   vertex 53.538333079581335 0.001 0.4
  endloop
 endfacet
 facet normal -0.7173560908995227 -0.6967067093471655 -0.0
  outer loop
   vertex 39.55381404481515 14.4 0.4
   vertex 39.55381404481515 14.4 0
   vertex 53.538333079581335 0.001 0.4
  endloop
 endfacet
 facet normal 0.0 1.0 0.0
  outer loop
   vertex 44.01463906685879 14.4 0
   vertex 39.55381404481515 14.4 0
   vertex 39.55381404481515 14.4 0.4
  endloop
 endfacet
 facet normal 0.0 1.0 0.0
  outer loop
   vertex 44.01463906685879 14.4 0.4
   vertex 44.01463906685879 14.4 0
   vertex 39.55381404481515 14.4 0.4
  endloop
 endfacet
 facet normal 0.7173560908995227 0.6967067093471655 0.0
  outer loop
   vertex 57.99915810162498 0.001 0
   vertex 44.01463906685879 14.4 0
   vertex 44.01463906685879 14.4 0.4
  endloop
 endfacet
 facet normal 0.7173560908995227 0.6967067093471655 0.0
  outer loop
   vertex 57.99915810162498 0.001 0.4
   vertex 57.99915810162498 0.001 0
   vertex 44.01463906685879 14.4 0.4
  endloop
 endfacet
 facet normal 0.0 -1.0 0.0
  outer loop
   vertex 53.538333079581335 0.001 0
   vertex 57.99915810162498 0.001 0
   vertex 57.99915810162498 0.001 0.4
  endloop
 endfacet
 facet normal 0.0 -1.0 0.0
  outer loop
   vertex 53.538333079581335 0.001 0.4
   vertex 53.538333079581335 0.001 0
   vertex 57.99915810162498 0.001 0.4
  endloop
 endfacet
 facet normal 0.7173560908993516 0.6967067093473418 -0.0
  outer loop
   vertex 48.78124792022643 7.193300500000001 0
   vertex 48.767263401191656 7.2076994999999995 0
   vertex 48.78124792022643 7.193300500000001 0.4
  endloop
 endfacet
 facet normal 0.7173560908993516 0.6967067093473418 -0.0
  outer loop
   vertex 48.767263401191656 7.2076994999999995 0
   vertex 48.767263401191656 7.2076994999999995 0.4
   vertex 48.78124792022643 7.193300500000001 0.4
  endloop
 endfacet
 facet normal 0.0 -1.0 0.0
  outer loop
   vertex 48.767263401191656 7.2076994999999995 0
   vertex 48.7717242262137 7.2076994999999995 0
   vertex 48.767263401191656 7.2076994999999995 0.4
  endloop
 endfacet
 facet normal 0.0 -1.0 0.0
  outer loop
   vertex 48.7717242262137 7.2076994999999995 0
   vertex 48.7717242262137 7.2076994999999995 0.4
   vertex 48.767263401191656 7.2076994999999995 0.4
  endloop
 endfacet
 facet normal -0.7173560908993516 -0.6967067093473418 0.0
  outer loop
   vertex 48.7717242262137 7.2076994999999995 0
   vertex 48.78570874524847 7.193300500000001 0
   vertex 48.7717242262137 7.2076994999999995 0.4
  endloop
 endfacet
 facet normal -0.7173560908993516 -0.6967067093473418 0.0
  outer loop
   vertex 48.78570874524847 7.193300500000001 0
   vertex 48.78570874524847 7.193300500000001 0.4
   vertex 48.7717242262137 7.2076994999999995 0.4
  endloop
 endfacet
 facet normal 0.0 1.0 -0.0
  outer loop
   vertex 48.78570874524847 7.193300500000001 0
   vertex 48.78124792022643 7.193300500000001 0
   vertex 48.78570874524847 7.193300500000001 0.4
  endloop
 endfacet
 facet normal 0.0 1.0 0.0
  outer loop
   vertex 48.78124792022643 7.193300500000001 0
   vertex 48.78124792022643 7.193300500000001 0.4
   vertex 48.78570874524847 7.193300500000001 0.4
  endloop
 endfacet
 facet normal 0.0 0.0 1.0
  outer loop
   vertex 39.55381404481515 14.4 0.4
   vertex 53.538333079581335 0.001 0.4
   vertex 48.78124792022643 7.193300500000001 0.4
  endloop
 endfacet
 facet normal 0.0 0.0 1.0
  outer loop
   vertex 48.767263401191656 7.2076994999999995 0.4
   vertex 39.55381404481515 14.4 0.4
   vertex 48.78124792022643 7.193300500000001 0.4
  endloop
 endfacet
 facet normal 0.0 0.0 1.0
  outer loop
   vertex 44.01463906685879 14.4 0.4
   vertex 39.55381404481515 14.4 0.4
   vertex 48.767263401191656 7.2076994999999995 0.4
  endloop
 endfacet
 facet normal 0.0 0.0 1.0
  outer loop
   vertex 48.7717242262137 7.2076994999999995 0.4
   vertex 44.01463906685879 14.4 0.4
   vertex 48.767263401191656 7.2076994999999995 0.4
  endloop
 endfacet
 facet normal 0.0 0.0 1.0
  outer loop
   vertex 57.99915810162498 0.001 0.4
   vertex 44.01463906685879 14.4 0.4
   vertex 48.7717242262137 7.2076994999999995 0.4
  endloop
 endfacet
 facet normal -0.0 -0.0 1.0
  outer loop
   vertex 48.78570874524847 7.193300500000001 0.4
   vertex 57.99915810162498 0.001 0.4
   vertex 48.7717242262137 7.2076994999999995 0.4
  endloop
 endfacet
 facet normal 0.0 -0.0 1.0
  outer loop
   vertex 53.538333079581335 0.001 0.4
   vertex 57.99915810162498 0.001 0.4
   vertex 48.78570874524847 7.193300500000001 0.4
  endloop
 endfacet
 facet normal -0.0 0.0 1.0
  outer loop
   vertex 48.78124792022643 7.193300500000001 0.4
   vertex 53.538333079581335 0.001 0.4
   vertex 48.78570874524847 7.193300500000001 0.4
  endloop
 endfacet
 facet normal 0.0 0.0 -1.0
  outer loop
   vertex 39.553814044815155 17.6 0
   vertex 53.538333079581335 31.999 0
   vertex 48.767263401191656 24.7923005 0
  endloop
 endfacet
 facet normal 0.0 0.0 -1.0
  outer loop
   vertex 53.538333079581335 31.999 0
   vertex 48.78124792022643 24.8066995 0
   vertex 48.767263401191656 24.7923005 0
  endloop
 endfacet
 facet normal 0.0 -0.0 -1.0
  outer loop
   vertex 53.538333079581335 31.999 0
   vertex 57.99915810162497 31.999 0
   vertex 48.78124792022643 24.8066995 0
  endloop
 endfacet
 facet normal 0.0 0.0 -1.0
  outer loop
   vertex 57.99915810162497 31.999 0
   vertex 48.78570874524846 24.8066995 0
   vertex 48.78124792022643 24.8066995 0
  endloop
 endfacet
 facet normal 0.0 0.0 -1.0
  outer loop
   vertex 57.99915810162497 31.999 0
   vertex 44.014639066858784 17.6 0
   vertex 48.78570874524846 24.8066995 0
  endloop
 endfacet
 facet normal 0.0 0.0 -1.0
  outer loop
   vertex 44.014639066858784 17.6 0
   vertex 48.7717242262137 24.7923005 0
   vertex 48.78570874524846 24.8066995 0
  endloop
 endfacet
 facet normal 0.0 0.0 -1.0
  outer loop
   vertex 44.014639066858784 17.6 0
   vertex 39.553814044815155 17.6 0
   vertex 48.7717242262137 24.7923005 0
  endloop
 endfacet
 facet normal 0.0 0.0 -1.0
  outer loop
   vertex 39.553814044815155 17.6 0
   vertex 48.767263401191656 24.7923005 0
   vertex 48.7717242262137 24.7923005 0
  endloop
 endfacet
 facet normal -0.7173560908995227 0.6967067093471655 0.0
  outer loop
   vertex 53.538333079581335 31.999 0
   vertex 39.553814044815155 17.6 0
   vertex 39.553814044815155 17.6 0.4
  endloop
 endfacet
 facet normal -0.7173560908995227 0.6967067093471655 0.0
  outer loop
   vertex 53.538333079581335 31.999 0.4
   vertex 53.538333079581335 31.999 0
   vertex 39.553814044815155 17.6 0.4
  endloop
 endfacet
 facet normal 0.0 1.0 0.0
  outer loop
   vertex 57.99915810162497 31.999 0
   vertex 53.538333079581335 31.999 0
   vertex 53.538333079581335 31.999 0.4
  endloop
 endfacet
 facet normal 0.0 1.0 0.0
  outer loop
   vertex 57.99915810162497 31.999 0.4
   vertex 57.99915810162497 31.999 0
   vertex 53.538333079581335 31.999 0.4
  endloop
 endfacet
 facet normal 0.7173560908995226 -0.6967067093471657 0.0
  outer loop
   vertex 44.014639066858784 17.6 0
   vertex 57.99915810162497 31.999 0
   vertex 57.99915810162497 31.999 0.4
  endloop
 endfacet
 facet normal 0.7173560908995226 -0.6967067093471657 0.0
  outer loop
   vertex 44.014639066858784 17.6 0.4
   vertex 44.014639066858784 17.6 0
   vertex 57.99915810162497 31.999 0.4
  endloop
 endfacet
 facet normal 0.0 -1.0 0.0
  outer loop
   vertex 39.553814044815155 17.6 0
   vertex 44.014639066858784 17.6 0
   vertex 44.014639066858784 17.6 0.4
  endloop
 endfacet
 facet normal 0.0 -1.0 0.0
  outer loop
   vertex 39.553814044815155 17.6 0.4
   vertex 39.553814044815155 17.6 0
   vertex 44.014639066858784 17.6 0.4
  endloop
 endfacet
 facet normal 0.717356090899416 -0.6967067093472754 0.0
  outer loop
   vertex 48.767263401191656 24.7923005 0
   vertex 48.78124792022643 24.8066995 0
   vertex 48.767263401191656 24.7923005 0.4
  endloop
 endfacet
 facet normal 0.717356090899416 -0.6967067093472754 0.0
  outer loop
   vertex 48.78124792022643 24.8066995 0
   vertex 48.78124792022643 24.8066995 0.4
   vertex 48.767263401191656 24.7923005 0.4
  endloop
 endfacet
 facet normal 0.0 -1.0 0.0
  outer loop
   vertex 48.78124792022643 24.8066995 0
   vertex 48.78570874524846 24.8066995 0
   vertex 48.78124792022643 24.8066995 0.4
  endloop
 endfacet
 facet normal 0.0 -1.0 0.0
  outer loop
   vertex 48.78570874524846 24.8066995 0
   vertex 48.78570874524846 24.8066995 0.4
   vertex 48.78124792022643 24.8066995 0.4
  endloop
 endfacet
 facet normal -0.7173560908995928 0.6967067093470931 0.0
  outer loop
   vertex 48.78570874524846 24.8066995 0
   vertex 48.7717242262137 24.7923005 0
   vertex 48.78570874524846 24.8066995 0.4
  endloop
 endfacet
 facet normal -0.7173560908995928 0.6967067093470931 0.0
  outer loop
   vertex 48.7717242262137 24.7923005 0
   vertex 48.7717242262137 24.7923005 0.4
   vertex 48.78570874524846 24.8066995 0.4
  endloop
 endfacet
 facet normal 0.0 1.0 -0.0
  outer loop
   vertex 48.7717242262137 24.7923005 0
   vertex 48.767263401191656 24.7923005 0
   vertex 48.7717242262137 24.7923005 0.4
  endloop
 endfacet
 facet normal 0.0 1.0 0.0
  outer loop
   vertex 48.767263401191656 24.7923005 0
   vertex 48.767263401191656 24.7923005 0.4
   vertex 48.7717242262137 24.7923005 0.4
  endloop
 endfacet
 facet normal 0.0 0.0 1.0
  outer loop
   vertex 53.538333079581335 31.999 0.4
   vertex 39.553814044815155 17.6 0.4
   vertex 48.767263401191656 24.7923005 0.4
  endloop
 endfacet
 facet normal 0.0 -0.0 1.0
  outer loop
   vertex 48.78124792022643 24.8066995 0.4
   vertex 53.538333079581335 31.999 0.4
   vertex 48.767263401191656 24.7923005 0.4
  endloop
 endfacet
 facet normal 0.0 0.0 1.0
  outer loop
   vertex 57.99915810162497 31.999 0.4
   vertex 53.538333079581335 31.999 0.4
   vertex 48.78124792022643 24.8066995 0.4
  endloop
 endfacet
 facet normal 0.0 -0.0 1.0
  outer loop
   vertex 48.78570874524846 24.8066995 0.4
   vertex 57.99915810162497 31.999 0.4
   vertex 48.78124792022643 24.8066995 0.4
  endloop
 endfacet
 facet normal 0.0 0.0 1.0
  outer loop
   vertex 44.014639066858784 17.6 0.4
   vertex 57.99915810162497 31.999 0.4
   vertex 48.78570874524846 24.8066995 0.4
  endloop
 endfacet
 facet normal -0.0 0.0 1.0
  outer loop
   vertex 48.7717242262137 24.7923005 0.4
   vertex 44.014639066858784 17.6 0.4
   vertex 48.78570874524846 24.8066995 0.4
  endloop
 endfacet
 facet normal 0.0 0.0 1.0
  outer loop
   vertex 39.553814044815155 17.6 0.4
   vertex 44.014639066858784 17.6 0.4
   vertex 48.7717242262137 24.7923005 0.4
  endloop
 endfacet
 facet normal -0.0 0.0 1.0
  outer loop
   vertex 48.767263401191656 24.7923005 0.4
   vertex 39.553814044815155 17.6 0.4
   vertex 48.7717242262137 24.7923005 0.4
  endloop
 endfacet
 facet normal 0.0 0.0 -1.0
  outer loop
   vertex 59.55381404481515 14.4 0
   vertex 44.01463906685879 14.4 0
   vertex 51.791996143325946 15.9984 0
  endloop
 endfacet
 facet normal 0.0 0.0 -1.0
  outer loop
   vertex 44.01463906685879 14.4 0
   vertex 51.776456968347986 15.9984 0
   vertex 51.791996143325946 15.9984 0
  endloop
 endfacet
 facet normal 0.0 0.0 -1.0
  outer loop
   vertex 44.01463906685879 14.4 0
   vertex 44.014639066858784 17.6 0
   vertex 51.776456968347986 15.9984 0
  endloop
 endfacet
 facet normal 0.0 0.0 -1.0
  outer loop
   vertex 44.014639066858784 17.6 0
   vertex 51.77645696834799 16.0016 0
   vertex 51.776456968347986 15.9984 0
  endloop
 endfacet
 facet normal 0.0 0.0 -1.0
  outer loop
   vertex 44.014639066858784 17.6 0
   vertex 59.55381404481515 17.6 0
   vertex 51.77645696834799 16.0016 0
  endloop
 endfacet
 facet normal 0.0 0.0 -1.0
  outer loop
   vertex 59.55381404481515 17.6 0
   vertex 51.791996143325946 16.0016 0
   vertex 51.77645696834799 16.0016 0
  endloop
 endfacet
 facet normal 0.0 -0.0 -1.0
  outer loop
   vertex 59.55381404481515 17.6 0
   vertex 59.55381404481515 14.4 0
   vertex 51.791996143325946 16.0016 0
  endloop
 endfacet
 facet normal 0.0 0.0 -1.0
  outer loop
   vertex 59.55381404481515 14.4 0
   vertex 51.791996143325946 15.9984 0
   vertex 51.791996143325946 16.0016 0
  endloop
 endfacet
 facet normal 0.0 -1.0 0.0
  outer loop
   vertex 44.01463906685879 14.4 0
   vertex 59.55381404481515 14.4 0
   vertex 59.55381404481515 14.4 0.4
  endloop
 endfacet
 facet normal 0.0 -1.0 0.0
  outer loop
   vertex 44.01463906685879 14.4 0.4
   vertex 44.01463906685879 14.4 0
   vertex 59.55381404481515 14.4 0.4
  endloop
 endfacet
 facet normal -1.0 -2.2204460492503123e-15 0.0
  outer loop
   vertex 44.014639066858784 17.6 0
   vertex 44.01463906685879 14.4 0
   vertex 44.01463906685879 14.4 0.4
  endloop
 endfacet
 facet normal -1.0 -2.2204460492503123e-15 -0.0
  outer loop
   vertex 44.014639066858784 17.6 0.4
   vertex 44.014639066858784 17.6 0
   vertex 44.01463906685879 14.4 0.4
  endloop
 endfacet
 facet normal 0.0 1.0 0.0
  outer loop
   vertex 59.55381404481515 17.6 0
   vertex 44.014639066858784 17.6 0
   vertex 44.014639066858784 17.6 0.4
  endloop
 endfacet
 facet normal 0.0 1.0 0.0
  outer loop
   vertex 59.55381404481515 17.6 0.4
   vertex 59.55381404481515 17.6 0
   vertex 44.014639066858784 17.6 0.4
  endloop
 endfacet
 facet normal 1.0 0.0 0.0
  outer loop
   vertex 59.55381404481515 14.4 0
   vertex 59.55381404481515 17.6 0
   vertex 59.55381404481515 17.6 0.4
  endloop
 endfacet
 facet normal 1.0 -0.0 0.0
  outer loop
   vertex 59.55381404481515 14.4 0.4
   vertex 59.55381404481515 14.4 0
   vertex 59.55381404481515 17.6 0.4
  endloop
 endfacet
 facet normal 0.0 1.0 -0.0
  outer loop
   vertex 51.791996143325946 15.9984 0
   vertex 51.776456968347986 15.9984 0
   vertex 51.791996143325946 15.9984 0.4
  endloop
 endfacet
 facet normal 0.0 1.0 0.0
  outer loop
   vertex 51.776456968347986 15.9984 0
   vertex 51.776456968347986 15.9984 0.4
   vertex 51.791996143325946 15.9984 0.4
  endloop
 endfacet
 facet normal 1.0 -2.2204460492505574e-12 0.0
  outer loop
   vertex 51.776456968347986 15.9984 0
   vertex 51.77645696834799 16.0016 0
   vertex 51.776456968347986 15.9984 0.4
  endloop
 endfacet
 facet normal 1.0 -2.2204460492505574e-12 0.0
  outer loop
   vertex 51.77645696834799 16.0016 0
   vertex 51.77645696834799 16.0016 0.4
   vertex 51.776456968347986 15.9984 0.4
  endloop
 endfacet
 facet normal 0.0 -1.0 0.0
  outer loop
   vertex 51.77645696834799 16.0016 0
   vertex 51.791996143325946 16.0016 0
   vertex 51.77645696834799 16.0016 0.4
  endloop
 endfacet
 facet normal 0.0 -1.0 0.0
  outer loop
   vertex 51.791996143325946 16.0016 0
   vertex 51.791996143325946 16.0016 0.4
   vertex 51.77645696834799 16.0016 0.4
  endloop
 endfacet
 facet normal -1.0 0.0 0.0
  outer loop
   vertex 51.791996143325946 16.0016 0
   vertex 51.791996143325946 15.9984 0
   vertex 51.791996143325946 16.0016 0.4
  endloop
 endfacet
 facet normal -1.0 0.0 0.0
  outer loop
   vertex 51.791996143325946 15.9984 0
   vertex 51.791996143325946 15.9984 0.4
   vertex 51.791996143325946 16.0016 0.4
  endloop
 endfacet
 facet normal 0.0 0.0 1.0
  outer loop
   vertex 44.01463906685879 14.4 0.4
   vertex 59.55381404481515 14.4 0.4
   vertex 51.791996143325946 15.9984 0.4
  endloop
 endfacet
 facet normal -0.0 0.0 1.0
  outer loop
   vertex 51.776456968347986 15.9984 0.4
   vertex 44.01463906685879 14.4 0.4
   vertex 51.791996143325946 15.9984 0.4
  endloop
 endfacet
 facet normal 0.0 0.0 1.0
  outer loop
   vertex 44.014639066858784 17.6 0.4
   vertex 44.01463906685879 14.4 0.4
   vertex 51.776456968347986 15.9984 0.4
  endloop
 endfacet
 facet normal 0.0 0.0 1.0
  outer loop
   vertex 51.77645696834799 16.0016 0.4
   vertex 44.014639066858784 17.6 0.4
   vertex 51.776456968347986 15.9984 0.4
  endloop
 endfacet
 facet normal 0.0 0.0 1.0
  outer loop
   vertex 59.55381404481515 17.6 0.4
   vertex 44.014639066858784 17.6 0.4
   vertex 51.77645696834799 16.0016 0.4
  endloop
 endfacet
 facet normal 0.0 -0.0 1.0
  outer loop
   vertex 51.791996143325946 16.0016 0.4
   vertex 59.55381404481515 17.6 0.4
   vertex 51.77645696834799 16.0016 0.4
  endloop
 endfacet
 facet normal 0.0 -0.0 1.0
  outer loop
   vertex 59.55381404481515 14.4 0.4
   vertex 59.55381404481515 17.6 0.4
   vertex 51.791996143325946 16.0016 0.4
  endloop
 endfacet
 facet normal -0.0 0.0 1.0
  outer loop
   vertex 51.791996143325946 15.9984 0.4
   vertex 59.55381404481515 14.4 0.4
   vertex 51.791996143325946 16.0016 0.4
  endloop
 endfacet
 facet normal 0.0 0.0 -1.0
  outer loop
   vertex 73.53833307958132 0.001 0
   vertex 59.55381404481515 14.4 0
   vertex 67.77662881726319 8.227695063560288 0
  endloop
 endfacet
 facet normal 0.0 0.0 1.0
  outer loop
   vertex 59.55381404481515 14.4 0
   vertex 68.76726340119164 7.2076994999999995 0
   vertex 67.77662881726319 8.227695063560288 0
  endloop
 endfacet
 facet normal 0.0 0.0 -1.0
  outer loop
   vertex 59.55381404481515 14.4 0
   vertex 64.01463906685878 14.4 0
   vertex 68.76726340119164 7.2076994999999995 0
  endloop
 endfacet
 facet normal 0.0 0.0 1.0
  outer loop
   vertex 64.01463906685878 14.4 0
   vertex 67.76710512325046 8.242094063560288 0
   vertex 68.76726340119164 7.2076994999999995 0
  endloop
 endfacet
 facet normal 0.0 0.0 -1.0
  outer loop
   vertex 64.01463906685878 14.4 0
   vertex 75.98790864624311 2.071859987107685 0
   vertex 67.76710512325046 8.242094063560288 0
  endloop
 endfacet
 facet normal 0.0 0.0 -1.0
  outer loop
   vertex 75.98790864624311 2.071859987107685 0
   vertex 68.78369749579308 7.195371359987108 0
   vertex 67.76710512325046 8.242094063560288 0
  endloop
 endfacet
 facet normal -0.0 0.0 -1.0
  outer loop
   vertex 75.98790864624311 2.071859987107685 0
   vertex 73.53833307958132 0.001 0
   vertex 68.78369749579308 7.195371359987108 0
  endloop
 endfacet
 facet normal 0.0 0.0 -1.0
  outer loop
   vertex 73.53833307958132 0.001 0
   vertex 67.77662881726319 8.227695063560288 0
   vertex 68.78369749579308 7.195371359987108 0
  endloop
 endfacet
 facet normal -0.7173560908995229 -0.6967067093471652 0.0
  outer loop
   vertex 59.55381404481515 14.4 0
   vertex 73.53833307958132 0.001 0
   vertex 73.53833307958132 0.001 0.4
  endloop
 endfacet
 facet normal -0.7173560908995229 -0.6967067093471652 -0.0
  outer loop
   vertex 59.55381404481515 14.4 0.4
   vertex 59.55381404481515 14.4 0
   vertex 73.53833307958132 0.001 0.4
  endloop
 endfacet
 facet normal 0.0 1.0 0.0
  outer loop
   vertex 64.01463906685878 14.4 0
   vertex 59.55381404481515 14.4 0
   vertex 59.55381404481515 14.4 0.4
  endloop
 endfacet
 facet normal 0.0 1.0 0.0
  outer loop
   vertex 64.01463906685878 14.4 0.4
   vertex 64.01463906685878 14.4 0
   vertex 59.55381404481515 14.4 0.4
  endloop
 endfacet
 facet normal 0.717356090899523 0.696706709347165 0.0
  outer loop
   vertex 75.98790864624311 2.071859987107685 0
   vertex 64.01463906685878 14.4 0
   vertex 64.01463906685878 14.4 0.4
  endloop
 endfacet
 facet normal 0.717356090899523 0.696706709347165 0.0
  outer loop
   vertex 75.98790864624311 2.071859987107685 0.4
   vertex 75.98790864624311 2.071859987107685 0
   vertex 64.01463906685878 14.4 0.4
  endloop
 endfacet
 facet normal 0.6456046551545866 -0.7636718072855168 0.0
  outer loop
   vertex 73.53833307958132 0.001 0
   vertex 75.98790864624311 2.071859987107685 0
   vertex 75.98790864624311 2.071859987107685 0.4
  endloop
 endfacet
 facet normal 0.6456046551545866 -0.7636718072855168 0.0
  outer loop
   vertex 73.53833307958132 0.001 0.4
   vertex 73.53833307958132 0.001 0
   vertex 75.98790864624311 2.071859987107685 0.4
  endloop
 endfacet
 facet normal -0.7173560908995253 -0.6967067093471627 0.0
  outer loop
   vertex 67.77662881726319 8.227695063560288 0
   vertex 68.76726340119164 7.2076994999999995 0
   vertex 67.77662881726319 8.227695063560288 0.4
  endloop
 endfacet
 facet normal -0.7173560908995253 -0.6967067093471627 0.0
  outer loop
   vertex 68.76726340119164 7.2076994999999995 0
   vertex 68.76726340119164 7.2076994999999995 0.4
   vertex 67.77662881726319 8.227695063560288 0.4
  endloop
 endfacet
 facet normal 0.718903791609368 0.6951095873383378 -0.0
  outer loop
   vertex 68.76726340119164 7.2076994999999995 0
   vertex 67.76710512325046 8.242094063560288 0
   vertex 68.76726340119164 7.2076994999999995 0.4
  endloop
 endfacet
 facet normal 0.718903791609368 0.6951095873383378 -0.0
  outer loop
   vertex 67.76710512325046 8.242094063560288 0
   vertex 67.76710512325046 8.242094063560288 0.4
   vertex 68.76726340119164 7.2076994999999995 0.4
  endloop
 endfacet
 facet normal -0.7173560908995199 -0.6967067093471683 0.0
  outer loop
   vertex 67.76710512325046 8.242094063560288 0
   vertex 68.78369749579308 7.195371359987108 0
   vertex 67.76710512325046 8.242094063560288 0.4
  endloop
 endfacet
 facet normal -0.7173560908995199 -0.6967067093471683 0.0
  outer loop
   vertex 68.78369749579308 7.195371359987108 0
   vertex 68.78369749579308 7.195371359987108 0.4
   vertex 67.76710512325046 8.242094063560288 0.4
  endloop
 endfacet
 facet normal 0.7158084268416779 0.6982967106198069 -0.0
  outer loop
   vertex 68.78369749579308 7.195371359987108 0
   vertex 67.77662881726319 8.227695063560288 0
   vertex 68.78369749579308 7.195371359987108 0.4
  endloop
 endfacet
 facet normal 0.7158084268416779 0.6982967106198069 -0.0
  outer loop
   vertex 67.77662881726319 8.227695063560288 0
   vertex 67.77662881726319 8.227695063560288 0.4
   vertex 68.78369749579308 7.195371359987108 0.4
  endloop
 endfacet
 facet normal 0.0 0.0 1.0
  outer loop
   vertex 59.55381404481515 14.4 0.4
   vertex 73.53833307958132 0.001 0.4
   vertex 67.77662881726319 8.227695063560288 0.4
  endloop
 endfacet
 facet normal 0.0 0.0 -1.0
  outer loop
   vertex 68.76726340119164 7.2076994999999995 0.4
   vertex 59.55381404481515 14.4 0.4
   vertex 67.77662881726319 8.227695063560288 0.4
  endloop
 endfacet
 facet normal 0.0 0.0 1.0
  outer loop
   vertex 64.01463906685878 14.4 0.4
   vertex 59.55381404481515 14.4 0.4
   vertex 68.76726340119164 7.2076994999999995 0.4
  endloop
 endfacet
 facet normal 0.0 0.0 -1.0
  outer loop
   vertex 67.76710512325046 8.242094063560288 0.4
   vertex 64.01463906685878 14.4 0.4
   vertex 68.76726340119164 7.2076994999999995 0.4
  endloop
 endfacet
 facet normal 0.0 0.0 1.0
  outer loop
   vertex 75.98790864624311 2.071859987107685 0.4
   vertex 64.01463906685878 14.4 0.4
   vertex 67.76710512325046 8.242094063560288 0.4
  endloop
 endfacet
 facet normal -0.0 -0.0 1.0
  outer loop
   vertex 68.78369749579308 7.195371359987108 0.4
   vertex 75.98790864624311 2.071859987107685 0.4
   vertex 67.76710512325046 8.242094063560288 0.4
  endloop
 endfacet
 facet normal 0.0 -0.0 1.0
  outer loop
   vertex 73.53833307958132 0.001 0.4
   vertex 75.98790864624311 2.071859987107685 0.4
   vertex 68.78369749579308 7.195371359987108 0.4
  endloop
 endfacet
 facet normal 0.0 0.0 1.0
  outer loop
   vertex 67.77662881726319 8.227695063560288 0.4
   vertex 73.53833307958132 0.001 0.4
   vertex 68.78369749579308 7.195371359987108 0.4
  endloop
 endfacet
 facet normal 0.0 0.0 -1.0
  outer loop
   vertex 59.55381404481515 17.6 0
   vertex 73.53833307958132 31.999 0
   vertex 68.76726340119166 24.7923005 0
  endloop
 endfacet
 facet normal 0.0 0.0 1.0
  outer loop
   vertex 73.53833307958132 31.999 0
   vertex 67.77662881726317 23.772304936439696 0
   vertex 68.76726340119166 24.7923005 0
  endloop
 endfacet
 facet normal 0.0 -0.0 -1.0
  outer loop
   vertex 73.53833307958132 31.999 0
   vertex 75.9879086462431 29.928140012892285 0
   vertex 67.77662881726317 23.772304936439696 0
  endloop
 endfacet
 facet normal 0.0 0.0 1.0
  outer loop
   vertex 75.9879086462431 29.928140012892285 0
   vertex 68.78369749579308 24.804628640012893 0
   vertex 67.77662881726317 23.772304936439696 0
  endloop
 endfacet
 facet normal 0.0 0.0 -1.0
  outer loop
   vertex 75.9879086462431 29.928140012892285 0
   vertex 64.01463906685879 17.6 0
   vertex 68.78369749579308 24.804628640012893 0
  endloop
 endfacet
 facet normal 0.0 0.0 -1.0
  outer loop
   vertex 64.01463906685879 17.6 0
   vertex 67.76710512325046 23.7579059364397 0
   vertex 68.78369749579308 24.804628640012893 0
  endloop
 endfacet
 facet normal 0.0 0.0 -1.0
  outer loop
   vertex 64.01463906685879 17.6 0
   vertex 59.55381404481515 17.6 0
   vertex 67.76710512325046 23.7579059364397 0
  endloop
 endfacet
 facet normal 0.0 0.0 -1.0
  outer loop
   vertex 59.55381404481515 17.6 0
   vertex 68.76726340119166 24.7923005 0
   vertex 67.76710512325046 23.7579059364397 0
  endloop
 endfacet
 facet normal -0.7173560908995229 0.6967067093471653 0.0
  outer loop
   vertex 73.53833307958132 31.999 0
   vertex 59.55381404481515 17.6 0
   vertex 59.55381404481515 17.6 0.4
  endloop
 endfacet
 facet normal -0.7173560908995229 0.6967067093471653 0.0
  outer loop
   vertex 73.53833307958132 31.999 0.4
   vertex 73.53833307958132 31.999 0
   vertex 59.55381404481515 17.6 0.4
  endloop
 endfacet
 facet normal 0.645604655154594 0.7636718072855104 0.0
  outer loop
   vertex 75.9879086462431 29.928140012892285 0
   vertex 73.53833307958132 31.999 0
   vertex 73.53833307958132 31.999 0.4
  endloop
 endfacet
 facet normal 0.645604655154594 0.7636718072855104 0.0
  outer loop
   vertex 75.9879086462431 29.928140012892285 0.4
   vertex 75.9879086462431 29.928140012892285 0
   vertex 73.53833307958132 31.999 0.4
  endloop
 endfacet
 facet normal 0.717356090899523 -0.6967067093471653 0.0
  outer loop
   vertex 64.01463906685879 17.6 0
   vertex 75.9879086462431 29.928140012892285 0
   vertex 75.9879086462431 29.928140012892285 0.4
  endloop
 endfacet
 facet normal 0.717356090899523 -0.6967067093471653 0.0
  outer loop
   vertex 64.01463906685879 17.6 0.4
   vertex 64.01463906685879 17.6 0
   vertex 75.9879086462431 29.928140012892285 0.4
  endloop
 endfacet
 facet normal 0.0 -1.0 0.0
  outer loop
   vertex 59.55381404481515 17.6 0
   vertex 64.01463906685879 17.6 0
   vertex 64.01463906685879 17.6 0.4
  endloop
 endfacet
 facet normal 0.0 -1.0 0.0
  outer loop
   vertex 59.55381404481515 17.6 0.4
   vertex 59.55381404481515 17.6 0
   vertex 64.01463906685879 17.6 0.4
  endloop
 endfacet
 facet normal -0.7173560908995206 0.6967067093471677 0.0
  outer loop
   vertex 68.76726340119166 24.7923005 0
   vertex 67.77662881726317 23.772304936439696 0
   vertex 68.76726340119166 24.7923005 0.4
  endloop
 endfacet
 facet normal -0.7173560908995206 0.6967067093471677 0.0
  outer loop
   vertex 67.77662881726317 23.772304936439696 0
   vertex 67.77662881726317 23.772304936439696 0.4
   vertex 68.76726340119166 24.7923005 0.4
  endloop
 endfacet
 facet normal 0.715808426841679 -0.6982967106198059 0.0
  outer loop
   vertex 67.77662881726317 23.772304936439696 0
   vertex 68.78369749579308 24.804628640012893 0
   vertex 67.77662881726317 23.772304936439696 0.4
  endloop
 endfacet
 facet normal 0.715808426841679 -0.6982967106198059 0.0
  outer loop
   vertex 68.78369749579308 24.804628640012893 0
   vertex 68.78369749579308 24.804628640012893 0.4
   vertex 67.77662881726317 23.772304936439696 0.4
  endloop
 endfacet
 facet normal -0.7173560908995253 0.6967067093471628 0.0
  outer loop
   vertex 68.78369749579308 24.804628640012893 0
   vertex 67.76710512325046 23.7579059364397 0
   vertex 68.78369749579308 24.804628640012893 0.4
  endloop
 endfacet
 facet normal -0.7173560908995253 0.6967067093471628 0.0
  outer loop
   vertex 67.76710512325046 23.7579059364397 0
   vertex 67.76710512325046 23.7579059364397 0.4
   vertex 68.78369749579308 24.804628640012893 0.4
  endloop
 endfacet
 facet normal 0.7189037916093676 -0.6951095873383383 0.0
  outer loop
   vertex 67.76710512325046 23.7579059364397 0
   vertex 68.76726340119166 24.7923005 0
   vertex 67.76710512325046 23.7579059364397 0.4
  endloop
 endfacet
 facet normal 0.7189037916093676 -0.6951095873383383 0.0
  outer loop
   vertex 68.76726340119166 24.7923005 0
   vertex 68.76726340119166 24.7923005 0.4
   vertex 67.76710512325046 23.7579059364397 0.4
  endloop
 endfacet
 facet normal 0.0 0.0 1.0
  outer loop
   vertex 73.53833307958132 31.999 0.4
   vertex 59.55381404481515 17.6 0.4
   vertex 68.76726340119166 24.7923005 0.4
  endloop
 endfacet
 facet normal 0.0 0.0 -1.0
  outer loop
   vertex 67.77662881726317 23.772304936439696 0.4
   vertex 73.53833307958132 31.999 0.4
   vertex 68.76726340119166 24.7923005 0.4
  endloop
 endfacet
 facet normal 0.0 0.0 1.0
  outer loop
   vertex 75.9879086462431 29.928140012892285 0.4
   vertex 73.53833307958132 31.999 0.4
   vertex 67.77662881726317 23.772304936439696 0.4
  endloop
 endfacet
 facet normal 0.0 -0.0 -1.0
  outer loop
   vertex 68.78369749579308 24.804628640012893 0.4
   vertex 75.9879086462431 29.928140012892285 0.4
   vertex 67.77662881726317 23.772304936439696 0.4
  endloop
 endfacet
 facet normal 0.0 0.0 1.0
  outer loop
   vertex 64.01463906685879 17.6 0.4
   vertex 75.9879086462431 29.928140012892285 0.4
   vertex 68.78369749579308 24.804628640012893 0.4
  endloop
 endfacet
 facet normal -0.0 0.0 1.0
  outer loop
   vertex 67.76710512325046 23.7579059364397 0.4
   vertex 64.01463906685879 17.6 0.4
   vertex 68.78369749579308 24.804628640012893 0.4
  endloop
 endfacet
 facet normal 0.0 0.0 1.0
  outer loop
   vertex 59.55381404481515 17.6 0.4
   vertex 64.01463906685879 17.6 0.4
   vertex 67.76710512325046 23.7579059364397 0.4
  endloop
 endfacet
 facet normal 0.0 0.0 1.0
  outer loop
   vertex 68.76726340119166 24.7923005 0.4
   vertex 59.55381404481515 17.6 0.4
   vertex 67.76710512325046 23.7579059364397 0.4
  endloop
 endfacet
 facet normal 0.0 0.0 -1.0
  outer loop
   vertex 75.99772587654176 14.4 0
   vertex 64.01463906685878 14.4 0
   vertex 70.01217401510512 15.9984 0
  endloop
 endfacet
 facet normal 0.0 0.0 -1.0
  outer loop
   vertex 64.01463906685878 14.4 0
   vertex 70.00019092829544 15.9984 0
   vertex 70.01217401510512 15.9984 0
  endloop
 endfacet
 facet normal 0.0 0.0 -1.0
  outer loop
   vertex 64.01463906685878 14.4 0
   vertex 64.01463906685879 17.6 0
   vertex 70.00019092829544 15.9984 0
  endloop
 endfacet
 facet normal 0.0 0.0 -1.0
  outer loop
   vertex 64.01463906685879 17.6 0
   vertex 70.00019092829542 16.0016 0
   vertex 70.00019092829544 15.9984 0
  endloop
 endfacet
 facet normal 0.0 0.0 -1.0
  outer loop
   vertex 64.01463906685879 17.6 0
   vertex 75.99772587654176 17.6 0
   vertex 70.00019092829542 16.0016 0
  endloop
 endfacet
 facet normal 0.0 0.0 -1.0
  outer loop
   vertex 75.99772587654176 17.6 0
   vertex 70.01217401510512 16.0016 0
   vertex 70.00019092829542 16.0016 0
  endloop
 endfacet
 facet normal 0.0 -0.0 -1.0
  outer loop
   vertex 75.99772587654176 17.6 0
   vertex 75.99772587654176 14.4 0
   vertex 70.01217401510512 16.0016 0
  endloop
 endfacet
 facet normal 0.0 0.0 -1.0
  outer loop
   vertex 75.99772587654176 14.4 0
   vertex 70.01217401510512 15.9984 0
   vertex 70.01217401510512 16.0016 0
  endloop
 endfacet
 facet normal 0.0 -1.0 0.0
  outer loop
   vertex 64.01463906685878 14.4 0
   vertex 75.99772587654176 14.4 0
   vertex 75.99772587654176 14.4 0.4
  endloop
 endfacet
 facet normal 0.0 -1.0 0.0
  outer loop
   vertex 64.01463906685878 14.4 0.4
   vertex 64.01463906685878 14.4 0
   vertex 75.99772587654176 14.4 0.4
  endloop
 endfacet
 facet normal -1.0 4.4408920985006246e-15 0.0
  outer loop
   vertex 64.01463906685879 17.6 0
   vertex 64.01463906685878 14.4 0
   vertex 64.01463906685878 14.4 0.4
  endloop
 endfacet
 facet normal -1.0 4.4408920985006246e-15 0.0
  outer loop
   vertex 64.01463906685879 17.6 0.4
   vertex 64.01463906685879 17.6 0
   vertex 64.01463906685878 14.4 0.4
  endloop
 endfacet
 facet normal 0.0 1.0 0.0
  outer loop
   vertex 75.99772587654176 17.6 0
   vertex 64.01463906685879 17.6 0
   vertex 64.01463906685879 17.6 0.4
  endloop
 endfacet
 facet normal 0.0 1.0 0.0
  outer loop
   vertex 75.99772587654176 17.6 0.4
   vertex 75.99772587654176 17.6 0
   vertex 64.01463906685879 17.6 0.4
  endloop
 endfacet
 facet normal 1.0 0.0 0.0
  outer loop
   vertex 75.99772587654176 14.4 0
   vertex 75.99772587654176 17.6 0
   vertex 75.99772587654176 17.6 0.4
  endloop
 endfacet
 facet normal 1.0 -0.0 0.0
  outer loop
   vertex 75.99772587654176 14.4 0.4
   vertex 75.99772587654176 14.4 0
   vertex 75.99772587654176 17.6 0.4
  endloop
 endfacet
 facet normal 0.0 1.0 -0.0
  outer loop
   vertex 70.01217401510512 15.9984 0
   vertex 70.00019092829544 15.9984 0
   vertex 70.01217401510512 15.9984 0.4
  endloop
 endfacet
 facet normal 0.0 1.0 0.0
  outer loop
   vertex 70.00019092829544 15.9984 0
   vertex 70.00019092829544 15.9984 0.4
   vertex 70.01217401510512 15.9984 0.4
  endloop
 endfacet
 facet normal 1.0 4.440892098501115e-12 -0.0
  outer loop
   vertex 70.00019092829544 15.9984 0
   vertex 70.00019092829542 16.0016 0
   vertex 70.00019092829544 15.9984 0.4
  endloop
 endfacet
 facet normal 1.0 4.440892098501115e-12 -0.0
  outer loop
   vertex 70.00019092829542 16.0016 0
   vertex 70.00019092829542 16.0016 0.4
   vertex 70.00019092829544 15.9984 0.4
  endloop
 endfacet
 facet normal 0.0 -1.0 0.0
  outer loop
   vertex 70.00019092829542 16.0016 0
   vertex 70.01217401510512 16.0016 0
   vertex 70.00019092829542 16.0016 0.4
  endloop
 endfacet
 facet normal 0.0 -1.0 0.0
  outer loop
   vertex 70.01217401510512 16.0016 0
   vertex 70.01217401510512 16.0016 0.4
   vertex 70.00019092829542 16.0016 0.4
  endloop
 endfacet
 facet normal -1.0 0.0 0.0
  outer loop
   vertex 70.01217401510512 16.0016 0
   vertex 70.01217401510512 15.9984 0
   vertex 70.01217401510512 16.0016 0.4
  endloop
 endfacet
 facet normal -1.0 0.0 0.0
  outer loop
   vertex 70.01217401510512 15.9984 0
   vertex 70.01217401510512 15.9984 0.4
   vertex 70.01217401510512 16.0016 0.4
  endloop
 endfacet
 facet normal 0.0 0.0 1.0
  outer loop
   vertex 64.01463906685878 14.4 0.4
   vertex 75.99772587654176 14.4 0.4
   vertex 70.01217401510512 15.9984 0.4
  endloop
 endfacet
 facet normal -0.0 0.0 1.0
  outer loop
   vertex 70.00019092829544 15.9984 0.4
   vertex 64.01463906685878 14.4 0.4
   vertex 70.01217401510512 15.9984 0.4
  endloop
 endfacet
 facet normal 0.0 0.0 1.0
  outer loop
   vertex 64.01463906685879 17.6 0.4
   vertex 64.01463906685878 14.4 0.4
   vertex 70.00019092829544 15.9984 0.4
  endloop
 endfacet
 facet normal 0.0 0.0 1.0
  outer loop
   vertex 70.00019092829542 16.0016 0.4
   vertex 64.01463906685879 17.6 0.4
   vertex 70.00019092829544 15.9984 0.4
  endloop
 endfacet
 facet normal 0.0 0.0 1.0
  outer loop
   vertex 75.99772587654176 17.6 0.4
   vertex 64.01463906685879 17.6 0.4
   vertex 70.00019092829542 16.0016 0.4
  endloop
 endfacet
 facet normal 0.0 -0.0 1.0
  outer loop
   vertex 70.01217401510512 16.0016 0.4
   vertex 75.99772587654176 17.6 0.4
   vertex 70.00019092829542 16.0016 0.4
  endloop
 endfacet
 facet normal 0.0 -0.0 1.0
  outer loop
   vertex 75.99772587654176 14.4 0.4
   vertex 75.99772587654176 17.6 0.4
   vertex 70.01217401510512 16.0016 0.4
  endloop
 endfacet
 facet normal -0.0 0.0 1.0
  outer loop
   vertex 70.01217401510512 15.9984 0.4
   vertex 75.99772587654176 14.4 0.4
   vertex 70.01217401510512 16.0016 0.4
  endloop
 endfacet
endsolid
