solid PyGamic generated __All_Crease__ SLA File
 facet normal 0.0 0.0 -1.0
  outer loop
   vertex 13.003186576125955 0.0 0
   vertex -0.006370615705785541 0.0 0
   vertex 2.096303133404373 2.101 0
  endloop
 endfacet
 facet normal 0.0 0.0 -1.0
  outer loop
   vertex -0.006370615705785541 0.0 0
   vertex 0.0 8.0 0
   vertex 2.099328379537658 5.9 0
  endloop
 endfacet
 facet normal 0.0 0.0 -1.0
  outer loop
   vertex 0.0 8.0 0
   vertex -0.006370615705785541 16.0 0
   vertex 2.099328379537658 5.9 0
  endloop
 endfacet
 facet normal 0.0 0.0 -1.0
  outer loop
   vertex -0.006370615705785541 16.0 0
   vertex 13.003186576125955 16.0 0
   vertex 7.929481154493996 13.899000000000001 0
  endloop
 endfacet
 facet normal 0.0 0.0 -1.0
  outer loop
   vertex 13.003186576125955 16.0 0
   vertex 22.996813423874045 16.0 0
   vertex 22.128455500462405 13.899000000000001 0
  endloop
 endfacet
 facet normal 0.0 0.0 -1.0
  outer loop
   vertex 22.996813423874045 16.0 0
   vertex 34.444881722527185 16.0 0
   vertex 33.008583204579004 13.899000000000001 0
  endloop
 endfacet
 facet normal 0.0 0.0 -1.0
  outer loop
   vertex 34.444881722527185 16.0 0
   vertex 40.68946137012084 16.0 0
   vertex 40.1036948317142 13.899000000000001 0
  endloop
 endfacet
 facet normal 0.0 0.0 -1.0
  outer loop
   vertex 40.68946137012084 16.0 0
   vertex 71.99288497179224 16.0 0
   vertex 65.80519679435022 13.899000000000001 0
  endloop
 endfacet
 facet normal 0.0 -0.0 -1.0
  outer loop
   vertex 71.99288497179224 16.0 0
   vertex 78.80262115432166 16.0 0
   vertex 60.854259292390545 10.1 0
  endloop
 endfacet
 facet normal 0.0 0.0 -1.0
  outer loop
   vertex 78.80262115432166 16.0 0
   vertex 90.95491127640511 16.0 0
   vertex 85.41668024655597 13.899000000000003 0
  endloop
 endfacet
 facet normal 0.0 0.0 -1.0
  outer loop
   vertex 90.95491127640511 16.0 0
   vertex 98.89587489800014 16.0 0
   vertex 98.21877981613699 13.899000000000001 0
  endloop
 endfacet
 facet normal 0.0 0.0 -1.0
  outer loop
   vertex 98.89587489800014 16.0 0
   vertex 113.1895374138355 16.0 0
   vertex 111.59338579130132 13.899000000000001 0
  endloop
 endfacet
 facet normal 0.0 0.0 -1.0
  outer loop
   vertex 113.1895374138355 16.0 0
   vertex 118.4930861384644 16.0 0
   vertex 117.70978007133508 13.899000000000001 0
  endloop
 endfacet
 facet normal 0.0 0.0 -1.0
  outer loop
   vertex 118.4930861384644 16.0 0
   vertex 130.79362938429423 16.0 0
   vertex 128.69430180108353 13.899000000000001 0
  endloop
 endfacet
 facet normal 0.0 -0.0 -1.0
  outer loop
   vertex 130.79362938429423 16.0 0
   vertex 130.8 8.0 0
   vertex 128.6973270472168 10.1 0
  endloop
 endfacet
 facet normal 0.0 0.0 -1.0
  outer loop
   vertex 130.8 8.0 0
   vertex 130.79362938429423 0.0 0
   vertex 128.69430180108353 2.101 0
  endloop
 endfacet
 facet normal 0.0 0.0 -1.0
  outer loop
   vertex 130.79362938429423 0.0 0
   vertex 118.4930861384644 0.0 0
   vertex 2.096303133404373 2.101 0
  endloop
 endfacet
 facet normal 0.0 0.0 -1.0
  outer loop
   vertex 118.4930861384644 0.0 0
   vertex 113.1895374138355 0.0 0
   vertex 2.096303133404373 2.101 0
  endloop
 endfacet
 facet normal 0.0 0.0 -1.0
  outer loop
   vertex 113.1895374138355 0.0 0
   vertex 98.89587489800014 0.0 0
   vertex 2.096303133404373 2.101 0
  endloop
 endfacet
 facet normal 0.0 0.0 -1.0
  outer loop
   vertex 98.89587489800014 0.0 0
   vertex 90.95491127640511 0.0 0
   vertex 2.096303133404373 2.101 0
  endloop
 endfacet
 facet normal 0.0 0.0 -1.0
  outer loop
   vertex 90.95491127640511 0.0 0
   vertex 78.80262115432166 0.0 0
   vertex 2.096303133404373 2.101 0
  endloop
 endfacet
 facet normal 0.0 0.0 -1.0
  outer loop
   vertex 78.80262115432166 0.0 0
   vertex 71.99288497179224 0.0 0
   vertex 2.096303133404373 2.101 0
  endloop
 endfacet
 facet normal 0.0 0.0 -1.0
  outer loop
   vertex 71.99288497179224 0.0 0
   vertex 40.68946137012084 0.0 0
   vertex 2.096303133404373 2.101 0
  endloop
 endfacet
 facet normal 0.0 0.0 -1.0
  outer loop
   vertex 40.68946137012084 0.0 0
   vertex 34.444881722527185 0.0 0
   vertex 2.096303133404373 2.101 0
  endloop
 endfacet
 facet normal 0.0 0.0 -1.0
  outer loop
   vertex 34.444881722527185 0.0 0
   vertex 22.996813423874045 0.0 0
   vertex 2.096303133404373 2.101 0
  endloop
 endfacet
 facet normal 0.0 0.0 -1.0
  outer loop
   vertex 22.996813423874045 0.0 0
   vertex 13.003186576125955 0.0 0
   vertex 2.096303133404373 2.101 0
  endloop
 endfacet
 facet normal 0.0 0.0 -1.0
  outer loop
   vertex 2.099328379537658 5.9 0
   vertex 2.096303133404373 2.101 0
   vertex -0.006370615705785541 0.0 0
  endloop
 endfacet
 facet normal 0.0 0.0 -1.0
  outer loop
   vertex 2.099328379537658 5.9 0
   vertex -0.006370615705785541 16.0 0
   vertex 2.096303133404373 13.899000000000001 0
  endloop
 endfacet
 facet normal 0.0 0.0 -1.0
  outer loop
   vertex 2.099328379537658 5.9 0
   vertex 7.929481154493996 13.899000000000001 0
   vertex 13.003186576125955 16.0 0
  endloop
 endfacet
 facet normal 0.0 0.0 -1.0
  outer loop
   vertex 2.099328379537658 5.9 0
   vertex 13.003186576125955 16.0 0
   vertex 13.871544499537595 13.899000000000001 0
  endloop
 endfacet
 facet normal 0.0 0.0 -1.0
  outer loop
   vertex 2.099328379537658 5.9 0
   vertex 130.8 8.0 0
   vertex 4.127454703818369 5.9 0
  endloop
 endfacet
 facet normal 0.0 0.0 -1.0
  outer loop
   vertex 2.099328379537658 5.9 0
   vertex 128.6973270472168 10.1 0
   vertex 130.8 8.0 0
  endloop
 endfacet
 facet normal 0.0 0.0 -1.0
  outer loop
   vertex 2.099328379537658 5.9 0
   vertex 2.099328379537658 10.1 0
   vertex 4.127454703818369 10.1 0
  endloop
 endfacet
 facet normal 0.0 0.0 -1.0
  outer loop
   vertex 2.099328379537658 5.9 0
   vertex 4.127454703818369 10.1 0
   vertex 7.929481154493996 13.899000000000001 0
  endloop
 endfacet
 facet normal 0.0 0.0 -1.0
  outer loop
   vertex 2.099328379537658 5.9 0
   vertex 2.096303133404373 13.899000000000001 0
   vertex 2.099328379537658 10.1 0
  endloop
 endfacet
 facet normal 0.0 0.0 -1.0
  outer loop
   vertex 2.099328379537658 5.9 0
   vertex 10.069518048861969 10.1 0
   vertex 25.93048195113803 10.1 0
  endloop
 endfacet
 facet normal 0.0 0.0 -1.0
  outer loop
   vertex 2.099328379537658 5.9 0
   vertex 13.871544499537595 13.899000000000001 0
   vertex 10.069518048861969 10.1 0
  endloop
 endfacet
 facet normal 0.0 0.0 -1.0
  outer loop
   vertex 2.099328379537658 5.9 0
   vertex 31.872545296181627 10.1 0
   vertex 34.48555678860881 10.1 0
  endloop
 endfacet
 facet normal 0.0 0.0 -1.0
  outer loop
   vertex 2.099328379537658 5.9 0
   vertex 25.93048195113803 10.1 0
   vertex 31.872545296181627 10.1 0
  endloop
 endfacet
 facet normal 0.0 0.0 -1.0
  outer loop
   vertex 2.099328379537658 5.9 0
   vertex 38.99180557499038 10.1 0
   vertex 46.36305889544193 10.1 0
  endloop
 endfacet
 facet normal 0.0 0.0 -1.0
  outer loop
   vertex 2.099328379537658 5.9 0
   vertex 34.48555678860881 10.1 0
   vertex 38.99180557499038 10.1 0
  endloop
 endfacet
 facet normal 0.0 0.0 -1.0
  outer loop
   vertex 2.099328379537658 5.9 0
   vertex 54.45795280294326 10.1 0
   vertex 60.854259292390545 10.1 0
  endloop
 endfacet
 facet normal 0.0 0.0 -1.0
  outer loop
   vertex 2.099328379537658 5.9 0
   vertex 46.36305889544193 10.1 0
   vertex 54.45795280294326 10.1 0
  endloop
 endfacet
 facet normal 0.0 0.0 -1.0
  outer loop
   vertex 2.099328379537658 5.9 0
   vertex 67.75349998440686 10.1 0
   vertex 73.73873996605118 10.1 0
  endloop
 endfacet
 facet normal 0.0 0.0 -1.0
  outer loop
   vertex 2.099328379537658 5.9 0
   vertex 60.854259292390545 10.1 0
   vertex 67.75349998440686 10.1 0
  endloop
 endfacet
 facet normal 0.0 0.0 -1.0
  outer loop
   vertex 2.099328379537658 5.9 0
   vertex 78.37176993734325 10.1 0
   vertex 81.1286432617902 10.1 0
  endloop
 endfacet
 facet normal 0.0 0.0 -1.0
  outer loop
   vertex 2.099328379537658 5.9 0
   vertex 73.73873996605118 10.1 0
   vertex 78.37176993734325 10.1 0
  endloop
 endfacet
 facet normal 0.0 0.0 -1.0
  outer loop
   vertex 2.099328379537658 5.9 0
   vertex 87.46219102562492 10.1 0
   vertex 103.48431263176134 10.1 0
  endloop
 endfacet
 facet normal 0.0 0.0 -1.0
  outer loop
   vertex 2.099328379537658 5.9 0
   vertex 81.1286432617902 10.1 0
   vertex 87.46219102562492 10.1 0
  endloop
 endfacet
 facet normal 0.0 0.0 -1.0
  outer loop
   vertex 2.099328379537658 5.9 0
   vertex 110.6626062151385 10.1 0
   vertex 112.64804763251104 10.1 0
  endloop
 endfacet
 facet normal 0.0 0.0 -1.0
  outer loop
   vertex 2.099328379537658 5.9 0
   vertex 103.48431263176134 10.1 0
   vertex 110.6626062151385 10.1 0
  endloop
 endfacet
 facet normal 0.0 0.0 -1.0
  outer loop
   vertex 2.099328379537658 5.9 0
   vertex 117.0068918243452 10.1 0
   vertex 122.0851965113285 10.1 0
  endloop
 endfacet
 facet normal 0.0 0.0 -1.0
  outer loop
   vertex 2.099328379537658 5.9 0
   vertex 112.64804763251104 10.1 0
   vertex 117.0068918243452 10.1 0
  endloop
 endfacet
 facet normal 0.0 0.0 -1.0
  outer loop
   vertex 2.099328379537658 5.9 0
   vertex 128.4913716571303 10.1 0
   vertex 128.6973270472168 10.1 0
  endloop
 endfacet
 facet normal 0.0 0.0 -1.0
  outer loop
   vertex 2.099328379537658 5.9 0
   vertex 122.0851965113285 10.1 0
   vertex 128.4913716571303 10.1 0
  endloop
 endfacet
 facet normal 0.0 0.0 -1.0
  outer loop
   vertex 2.096303133404373 2.101 0
   vertex 7.929481154493995 2.101 0
   vertex 130.79362938429423 0.0 0
  endloop
 endfacet
 facet normal 0.0 0.0 -1.0
  outer loop
   vertex 7.929481154493995 2.101 0
   vertex 13.871544499537597 2.101 0
   vertex 130.79362938429423 0.0 0
  endloop
 endfacet
 facet normal 0.0 0.0 -1.0
  outer loop
   vertex 7.929481154493995 2.101 0
   vertex 4.127454703818369 5.9 0
   vertex 10.06951804886197 5.9 0
  endloop
 endfacet
 facet normal 0.0 0.0 -1.0
  outer loop
   vertex 7.929481154493995 2.101 0
   vertex 10.06951804886197 5.9 0
   vertex 13.871544499537597 2.101 0
  endloop
 endfacet
 facet normal 0.0 0.0 -1.0
  outer loop
   vertex 4.127454703818369 5.9 0
   vertex 130.8 8.0 0
   vertex 10.06951804886197 5.9 0
  endloop
 endfacet
 facet normal 0.0 0.0 -1.0
  outer loop
   vertex 7.929481154493996 13.899000000000001 0
   vertex 2.096303133404373 13.899000000000001 0
   vertex -0.006370615705785541 16.0 0
  endloop
 endfacet
 facet normal 0.0 0.0 -1.0
  outer loop
   vertex 10.06951804886197 5.9 0
   vertex 130.8 8.0 0
   vertex 25.93048195113803 5.9 0
  endloop
 endfacet
 facet normal 0.0 0.0 -1.0
  outer loop
   vertex 13.871544499537597 2.101 0
   vertex 22.1284555004624 2.101 0
   vertex 130.79362938429423 0.0 0
  endloop
 endfacet
 facet normal 0.0 0.0 -1.0
  outer loop
   vertex 22.1284555004624 2.101 0
   vertex 28.070518845506 2.101 0
   vertex 130.79362938429423 0.0 0
  endloop
 endfacet
 facet normal 0.0 0.0 -1.0
  outer loop
   vertex 22.1284555004624 2.101 0
   vertex 25.93048195113803 5.9 0
   vertex 31.872545296181627 5.9 0
  endloop
 endfacet
 facet normal 0.0 0.0 -1.0
  outer loop
   vertex 22.1284555004624 2.101 0
   vertex 31.872545296181627 5.9 0
   vertex 28.070518845506 2.101 0
  endloop
 endfacet
 facet normal 0.0 0.0 -1.0
  outer loop
   vertex 25.93048195113803 5.9 0
   vertex 130.8 8.0 0
   vertex 31.872545296181627 5.9 0
  endloop
 endfacet
 facet normal 0.0 0.0 -1.0
  outer loop
   vertex 25.93048195113803 10.1 0
   vertex 22.128455500462405 13.899000000000001 0
   vertex 22.996813423874045 16.0 0
  endloop
 endfacet
 facet normal 0.0 0.0 -1.0
  outer loop
   vertex 25.93048195113803 10.1 0
   vertex 22.996813423874045 16.0 0
   vertex 28.070518845506005 13.899000000000001 0
  endloop
 endfacet
 facet normal 0.0 0.0 -1.0
  outer loop
   vertex 25.93048195113803 10.1 0
   vertex 28.070518845506005 13.899000000000001 0
   vertex 31.872545296181627 10.1 0
  endloop
 endfacet
 facet normal 0.0 0.0 -1.0
  outer loop
   vertex 22.128455500462405 13.899000000000001 0
   vertex 13.871544499537595 13.899000000000001 0
   vertex 13.003186576125955 16.0 0
  endloop
 endfacet
 facet normal 0.0 0.0 -1.0
  outer loop
   vertex 31.872545296181627 5.9 0
   vertex 130.8 8.0 0
   vertex 34.48555678860881 5.9 0
  endloop
 endfacet
 facet normal 0.0 0.0 -1.0
  outer loop
   vertex 28.070518845506 2.101 0
   vertex 33.008583204579004 2.101 0
   vertex 130.79362938429423 0.0 0
  endloop
 endfacet
 facet normal 0.0 0.0 -1.0
  outer loop
   vertex 33.008583204579004 2.101 0
   vertex 37.514831990960566 2.101 0
   vertex 130.79362938429423 0.0 0
  endloop
 endfacet
 facet normal 0.0 0.0 -1.0
  outer loop
   vertex 33.008583204579004 2.101 0
   vertex 34.48555678860881 5.9 0
   vertex 38.99180557499038 5.9 0
  endloop
 endfacet
 facet normal 0.0 0.0 -1.0
  outer loop
   vertex 33.008583204579004 2.101 0
   vertex 38.99180557499038 5.9 0
   vertex 37.514831990960566 2.101 0
  endloop
 endfacet
 facet normal 0.0 0.0 -1.0
  outer loop
   vertex 34.48555678860881 5.9 0
   vertex 130.8 8.0 0
   vertex 38.99180557499038 5.9 0
  endloop
 endfacet
 facet normal 0.0 0.0 -1.0
  outer loop
   vertex 34.48555678860881 10.1 0
   vertex 33.008583204579004 13.899000000000001 0
   vertex 34.444881722527185 16.0 0
  endloop
 endfacet
 facet normal 0.0 0.0 -1.0
  outer loop
   vertex 34.48555678860881 10.1 0
   vertex 34.444881722527185 16.0 0
   vertex 37.514831990960566 13.899000000000001 0
  endloop
 endfacet
 facet normal 0.0 0.0 -1.0
  outer loop
   vertex 34.48555678860881 10.1 0
   vertex 37.514831990960566 13.899000000000001 0
   vertex 38.99180557499038 10.1 0
  endloop
 endfacet
 facet normal 0.0 0.0 -1.0
  outer loop
   vertex 33.008583204579004 13.899000000000001 0
   vertex 28.070518845506005 13.899000000000001 0
   vertex 22.996813423874045 16.0 0
  endloop
 endfacet
 facet normal 0.0 0.0 -1.0
  outer loop
   vertex 38.99180557499038 5.9 0
   vertex 130.8 8.0 0
   vertex 46.36305889544193 5.9 0
  endloop
 endfacet
 facet normal 0.0 0.0 -1.0
  outer loop
   vertex 37.514831990960566 2.101 0
   vertex 40.1036948317142 2.101 0
   vertex 130.79362938429423 0.0 0
  endloop
 endfacet
 facet normal 0.0 0.0 -1.0
  outer loop
   vertex 40.1036948317142 2.101 0
   vertex 48.198588739215545 2.101 0
   vertex 130.79362938429423 0.0 0
  endloop
 endfacet
 facet normal 0.0 0.0 -1.0
  outer loop
   vertex 40.1036948317142 2.101 0
   vertex 46.36305889544193 5.9 0
   vertex 54.457952802943275 5.9 0
  endloop
 endfacet
 facet normal 0.0 0.0 -1.0
  outer loop
   vertex 40.1036948317142 2.101 0
   vertex 54.457952802943275 5.9 0
   vertex 48.198588739215545 2.101 0
  endloop
 endfacet
 facet normal 0.0 0.0 -1.0
  outer loop
   vertex 46.36305889544193 5.9 0
   vertex 130.8 8.0 0
   vertex 54.457952802943275 5.9 0
  endloop
 endfacet
 facet normal 0.0 0.0 -1.0
  outer loop
   vertex 46.36305889544193 10.1 0
   vertex 40.1036948317142 13.899000000000001 0
   vertex 40.68946137012084 16.0 0
  endloop
 endfacet
 facet normal 0.0 0.0 -1.0
  outer loop
   vertex 46.36305889544193 10.1 0
   vertex 40.68946137012084 16.0 0
   vertex 48.19858873921553 13.899000000000001 0
  endloop
 endfacet
 facet normal 0.0 0.0 -1.0
  outer loop
   vertex 46.36305889544193 10.1 0
   vertex 48.19858873921553 13.899000000000001 0
   vertex 54.45795280294326 10.1 0
  endloop
 endfacet
 facet normal 0.0 0.0 -1.0
  outer loop
   vertex 40.1036948317142 13.899000000000001 0
   vertex 37.514831990960566 13.899000000000001 0
   vertex 34.444881722527185 16.0 0
  endloop
 endfacet
 facet normal 0.0 0.0 -1.0
  outer loop
   vertex 54.457952802943275 5.9 0
   vertex 130.8 8.0 0
   vertex 60.854259292390545 5.9 0
  endloop
 endfacet
 facet normal 0.0 0.0 -1.0
  outer loop
   vertex 48.198588739215545 2.101 0
   vertex 65.80519679435022 2.101 0
   vertex 130.79362938429423 0.0 0
  endloop
 endfacet
 facet normal 0.0 0.0 -1.0
  outer loop
   vertex 65.80519679435022 2.101 0
   vertex 72.70443748636653 2.101 0
   vertex 130.79362938429423 0.0 0
  endloop
 endfacet
 facet normal 0.0 0.0 -1.0
  outer loop
   vertex 65.80519679435022 2.101 0
   vertex 60.854259292390545 5.9 0
   vertex 67.75349998440686 5.9 0
  endloop
 endfacet
 facet normal 0.0 0.0 -1.0
  outer loop
   vertex 65.80519679435022 2.101 0
   vertex 67.75349998440686 5.9 0
   vertex 72.70443748636653 2.101 0
  endloop
 endfacet
 facet normal 0.0 0.0 -1.0
  outer loop
   vertex 60.854259292390545 5.9 0
   vertex 130.8 8.0 0
   vertex 67.75349998440686 5.9 0
  endloop
 endfacet
 facet normal 0.0 0.0 -1.0
  outer loop
   vertex 60.854259292390545 10.1 0
   vertex 65.80519679435022 13.899000000000001 0
   vertex 71.99288497179224 16.0 0
  endloop
 endfacet
 facet normal 0.0 0.0 -1.0
  outer loop
   vertex 60.854259292390545 10.1 0
   vertex 78.80262115432166 16.0 0
   vertex 72.70443748636653 13.899000000000001 0
  endloop
 endfacet
 facet normal 0.0 0.0 -1.0
  outer loop
   vertex 60.854259292390545 10.1 0
   vertex 72.70443748636653 13.899000000000001 0
   vertex 67.75349998440686 10.1 0
  endloop
 endfacet
 facet normal 0.0 0.0 -1.0
  outer loop
   vertex 65.80519679435022 13.899000000000001 0
   vertex 48.19858873921553 13.899000000000001 0
   vertex 40.68946137012084 16.0 0
  endloop
 endfacet
 facet normal 0.0 0.0 -1.0
  outer loop
   vertex 67.75349998440686 5.9 0
   vertex 130.8 8.0 0
   vertex 73.73873996605118 5.9 0
  endloop
 endfacet
 facet normal 0.0 0.0 -1.0
  outer loop
   vertex 72.70443748636653 2.101 0
   vertex 75.50776440736819 2.101 0
   vertex 130.79362938429423 0.0 0
  endloop
 endfacet
 facet normal 0.0 0.0 -1.0
  outer loop
   vertex 75.50776440736819 2.101 0
   vertex 80.14079437866025 2.101 0
   vertex 130.79362938429423 0.0 0
  endloop
 endfacet
 facet normal 0.0 0.0 -1.0
  outer loop
   vertex 75.50776440736819 2.101 0
   vertex 73.73873996605118 5.9 0
   vertex 78.37176993734325 5.9 0
  endloop
 endfacet
 facet normal 0.0 0.0 -1.0
  outer loop
   vertex 75.50776440736819 2.101 0
   vertex 78.37176993734325 5.9 0
   vertex 80.14079437866025 2.101 0
  endloop
 endfacet
 facet normal 0.0 0.0 -1.0
  outer loop
   vertex 73.73873996605118 5.9 0
   vertex 130.8 8.0 0
   vertex 78.37176993734325 5.9 0
  endloop
 endfacet
 facet normal 0.0 0.0 -1.0
  outer loop
   vertex 73.73873996605118 10.1 0
   vertex 75.50776440736819 13.899000000000001 0
   vertex 78.80262115432166 16.0 0
  endloop
 endfacet
 facet normal 0.0 0.0 -1.0
  outer loop
   vertex 73.73873996605118 10.1 0
   vertex 78.80262115432166 16.0 0
   vertex 80.14079437866025 13.899000000000001 0
  endloop
 endfacet
 facet normal 0.0 0.0 -1.0
  outer loop
   vertex 73.73873996605118 10.1 0
   vertex 80.14079437866025 13.899000000000001 0
   vertex 78.37176993734325 10.1 0
  endloop
 endfacet
 facet normal 0.0 0.0 -1.0
  outer loop
   vertex 75.50776440736819 13.899000000000001 0
   vertex 72.70443748636653 13.899000000000001 0
   vertex 78.80262115432166 16.0 0
  endloop
 endfacet
 facet normal 0.0 0.0 -1.0
  outer loop
   vertex 78.37176993734325 5.9 0
   vertex 130.8 8.0 0
   vertex 81.1286432617902 5.9 0
  endloop
 endfacet
 facet normal 0.0 0.0 -1.0
  outer loop
   vertex 80.14079437866025 2.101 0
   vertex 85.41668024655597 2.101 0
   vertex 130.79362938429423 0.0 0
  endloop
 endfacet
 facet normal 0.0 0.0 -1.0
  outer loop
   vertex 85.41668024655597 2.101 0
   vertex 91.75022801039069 2.101 0
   vertex 130.79362938429423 0.0 0
  endloop
 endfacet
 facet normal 0.0 0.0 -1.0
  outer loop
   vertex 85.41668024655597 2.101 0
   vertex 81.1286432617902 5.9 0
   vertex 87.46219102562492 5.9 0
  endloop
 endfacet
 facet normal 0.0 0.0 -1.0
  outer loop
   vertex 85.41668024655597 2.101 0
   vertex 87.46219102562492 5.9 0
   vertex 91.75022801039069 2.101 0
  endloop
 endfacet
 facet normal 0.0 0.0 -1.0
  outer loop
   vertex 81.1286432617902 5.9 0
   vertex 130.8 8.0 0
   vertex 87.46219102562492 5.9 0
  endloop
 endfacet
 facet normal 0.0 0.0 -1.0
  outer loop
   vertex 81.1286432617902 10.1 0
   vertex 85.41668024655597 13.899000000000003 0
   vertex 90.95491127640511 16.0 0
  endloop
 endfacet
 facet normal 0.0 0.0 -1.0
  outer loop
   vertex 81.1286432617902 10.1 0
   vertex 90.95491127640511 16.0 0
   vertex 91.75022801039069 13.899000000000003 0
  endloop
 endfacet
 facet normal 0.0 0.0 -1.0
  outer loop
   vertex 81.1286432617902 10.1 0
   vertex 91.75022801039069 13.899000000000003 0
   vertex 87.46219102562492 10.1 0
  endloop
 endfacet
 facet normal -0.0 0.0 -1.0
  outer loop
   vertex 85.41668024655597 13.899000000000003 0
   vertex 80.14079437866025 13.899000000000001 0
   vertex 78.80262115432166 16.0 0
  endloop
 endfacet
 facet normal 0.0 0.0 -1.0
  outer loop
   vertex 87.46219102562492 5.9 0
   vertex 130.8 8.0 0
   vertex 103.48431263176134 5.9 0
  endloop
 endfacet
 facet normal 0.0 0.0 -1.0
  outer loop
   vertex 91.75022801039069 2.101 0
   vertex 98.21877981613699 2.101 0
   vertex 130.79362938429423 0.0 0
  endloop
 endfacet
 facet normal 0.0 0.0 -1.0
  outer loop
   vertex 98.21877981613699 2.101 0
   vertex 105.39707339951413 2.101 0
   vertex 130.79362938429423 0.0 0
  endloop
 endfacet
 facet normal 0.0 0.0 -1.0
  outer loop
   vertex 98.21877981613699 2.101 0
   vertex 103.48431263176134 5.9 0
   vertex 110.6626062151385 5.9 0
  endloop
 endfacet
 facet normal 0.0 0.0 -1.0
  outer loop
   vertex 98.21877981613699 2.101 0
   vertex 110.6626062151385 5.9 0
   vertex 105.39707339951413 2.101 0
  endloop
 endfacet
 facet normal 0.0 0.0 -1.0
  outer loop
   vertex 103.48431263176134 5.9 0
   vertex 130.8 8.0 0
   vertex 110.6626062151385 5.9 0
  endloop
 endfacet
 facet normal 0.0 0.0 -1.0
  outer loop
   vertex 103.48431263176134 10.1 0
   vertex 98.21877981613699 13.899000000000001 0
   vertex 98.89587489800014 16.0 0
  endloop
 endfacet
 facet normal 0.0 0.0 -1.0
  outer loop
   vertex 103.48431263176134 10.1 0
   vertex 98.89587489800014 16.0 0
   vertex 105.39707339951413 13.899000000000001 0
  endloop
 endfacet
 facet normal 0.0 0.0 -1.0
  outer loop
   vertex 103.48431263176134 10.1 0
   vertex 105.39707339951413 13.899000000000001 0
   vertex 110.6626062151385 10.1 0
  endloop
 endfacet
 facet normal 0.0 0.0 -1.0
  outer loop
   vertex 98.21877981613699 13.899000000000001 0
   vertex 91.75022801039069 13.899000000000003 0
   vertex 90.95491127640511 16.0 0
  endloop
 endfacet
 facet normal 0.0 0.0 -1.0
  outer loop
   vertex 110.6626062151385 5.9 0
   vertex 130.8 8.0 0
   vertex 112.64804763251104 5.9 0
  endloop
 endfacet
 facet normal 0.0 0.0 -1.0
  outer loop
   vertex 105.39707339951413 2.101 0
   vertex 111.59338579130132 2.101 0
   vertex 130.79362938429423 0.0 0
  endloop
 endfacet
 facet normal 0.0 0.0 -1.0
  outer loop
   vertex 111.59338579130132 2.101 0
   vertex 115.95222998313547 2.101 0
   vertex 130.79362938429423 0.0 0
  endloop
 endfacet
 facet normal 0.0 0.0 -1.0
  outer loop
   vertex 111.59338579130132 2.101 0
   vertex 112.64804763251104 5.9 0
   vertex 117.0068918243452 5.9 0
  endloop
 endfacet
 facet normal 0.0 0.0 -1.0
  outer loop
   vertex 111.59338579130132 2.101 0
   vertex 117.0068918243452 5.9 0
   vertex 115.95222998313547 2.101 0
  endloop
 endfacet
 facet normal 0.0 0.0 -1.0
  outer loop
   vertex 112.64804763251104 5.9 0
   vertex 130.8 8.0 0
   vertex 117.0068918243452 5.9 0
  endloop
 endfacet
 facet normal 0.0 0.0 -1.0
  outer loop
   vertex 112.64804763251104 10.1 0
   vertex 111.59338579130132 13.899000000000001 0
   vertex 113.1895374138355 16.0 0
  endloop
 endfacet
 facet normal 0.0 0.0 -1.0
  outer loop
   vertex 112.64804763251104 10.1 0
   vertex 113.1895374138355 16.0 0
   vertex 115.95222998313547 13.899000000000001 0
  endloop
 endfacet
 facet normal 0.0 0.0 -1.0
  outer loop
   vertex 112.64804763251104 10.1 0
   vertex 115.95222998313547 13.899000000000001 0
   vertex 117.0068918243452 10.1 0
  endloop
 endfacet
 facet normal 0.0 0.0 -1.0
  outer loop
   vertex 111.59338579130132 13.899000000000001 0
   vertex 105.39707339951413 13.899000000000001 0
   vertex 98.89587489800014 16.0 0
  endloop
 endfacet
 facet normal 0.0 0.0 -1.0
  outer loop
   vertex 117.0068918243452 5.9 0
   vertex 130.8 8.0 0
   vertex 122.0851965113285 5.9 0
  endloop
 endfacet
 facet normal 0.0 0.0 -1.0
  outer loop
   vertex 115.95222998313547 2.101 0
   vertex 117.70978007133508 2.101 0
   vertex 130.79362938429423 0.0 0
  endloop
 endfacet
 facet normal 0.0 0.0 -1.0
  outer loop
   vertex 117.70978007133508 2.101 0
   vertex 122.0851965113285 5.9 0
   vertex 130.8 8.0 0
  endloop
 endfacet
 facet normal 0.0 0.0 -1.0
  outer loop
   vertex 117.70978007133508 2.101 0
   vertex 130.8 8.0 0
   vertex 128.4913716571303 5.9 0
  endloop
 endfacet
 facet normal 0.0 0.0 -1.0
  outer loop
   vertex 117.70978007133508 2.101 0
   vertex 124.11595521713684 2.101 0
   vertex 130.79362938429423 0.0 0
  endloop
 endfacet
 facet normal 0.0 0.0 -1.0
  outer loop
   vertex 117.70978007133508 2.101 0
   vertex 128.4913716571303 5.9 0
   vertex 124.11595521713684 2.101 0
  endloop
 endfacet
 facet normal 0.0 0.0 -1.0
  outer loop
   vertex 122.0851965113285 10.1 0
   vertex 117.70978007133508 13.899000000000001 0
   vertex 118.4930861384644 16.0 0
  endloop
 endfacet
 facet normal 0.0 0.0 -1.0
  outer loop
   vertex 122.0851965113285 10.1 0
   vertex 118.4930861384644 16.0 0
   vertex 124.11595521713684 13.899000000000001 0
  endloop
 endfacet
 facet normal 0.0 0.0 -1.0
  outer loop
   vertex 122.0851965113285 10.1 0
   vertex 124.11595521713684 13.899000000000001 0
   vertex 128.4913716571303 10.1 0
  endloop
 endfacet
 facet normal 0.0 0.0 -1.0
  outer loop
   vertex 117.70978007133508 13.899000000000001 0
   vertex 115.95222998313547 13.899000000000001 0
   vertex 113.1895374138355 16.0 0
  endloop
 endfacet
 facet normal 0.0 0.0 -1.0
  outer loop
   vertex 128.4913716571303 5.9 0
   vertex 130.8 8.0 0
   vertex 128.6973270472168 5.9 0
  endloop
 endfacet
 facet normal 0.0 0.0 -1.0
  outer loop
   vertex 124.11595521713684 2.101 0
   vertex 128.69430180108353 2.101 0
   vertex 130.79362938429423 0.0 0
  endloop
 endfacet
 facet normal 0.0 0.0 -1.0
  outer loop
   vertex 128.69430180108353 2.101 0
   vertex 128.6973270472168 5.9 0
   vertex 130.8 8.0 0
  endloop
 endfacet
 facet normal 0.0 0.0 -1.0
  outer loop
   vertex 128.6973270472168 10.1 0
   vertex 128.69430180108353 13.899000000000001 0
   vertex 130.79362938429423 16.0 0
  endloop
 endfacet
 facet normal 0.0 0.0 -1.0
  outer loop
   vertex 128.69430180108353 13.899000000000001 0
   vertex 124.11595521713684 13.899000000000001 0
   vertex 118.4930861384644 16.0 0
  endloop
 endfacet
 facet normal 0.0 -1.0 0.0
  outer loop
   vertex -0.006370615705785541 0.0 0
   vertex 13.003186576125955 0.0 0
   vertex 13.003186576125955 0.0 0.54
  endloop
 endfacet
 facet normal 0.0 -1.0 0.0
  outer loop
   vertex -0.006370615705785541 0.0 0.54
   vertex -0.006370615705785541 0.0 0
   vertex 13.003186576125955 0.0 0.54
  endloop
 endfacet
 facet normal -0.9999996829318346 0.0007963267107332633 0.0
  outer loop
   vertex 0.0 8.0 0
   vertex -0.006370615705785541 0.0 0
   vertex -0.006370615705785541 0.0 0.54
  endloop
 endfacet
 facet normal -0.9999996829318346 0.0007963267107332633 0.0
  outer loop
   vertex 0.0 8.0 0.54
   vertex 0.0 8.0 0
   vertex -0.006370615705785541 0.0 0.54
  endloop
 endfacet
 facet normal -0.9999996829318346 -0.0007963267107332633 0.0
  outer loop
   vertex -0.006370615705785541 16.0 0
   vertex 0.0 8.0 0
   vertex 0.0 8.0 0.54
  endloop
 endfacet
 facet normal -0.9999996829318346 -0.0007963267107332633 -0.0
  outer loop
   vertex -0.006370615705785541 16.0 0.54
   vertex -0.006370615705785541 16.0 0
   vertex 0.0 8.0 0.54
  endloop
 endfacet
 facet normal 0.0 1.0 0.0
  outer loop
   vertex 13.003186576125955 16.0 0
   vertex -0.006370615705785541 16.0 0
   vertex -0.006370615705785541 16.0 0.54
  endloop
 endfacet
 facet normal 0.0 1.0 0.0
  outer loop
   vertex 13.003186576125955 16.0 0.54
   vertex 13.003186576125955 16.0 0
   vertex -0.006370615705785541 16.0 0.54
  endloop
 endfacet
 facet normal 0.0 1.0 0.0
  outer loop
   vertex 22.996813423874045 16.0 0
   vertex 13.003186576125955 16.0 0
   vertex 13.003186576125955 16.0 0.54
  endloop
 endfacet
 facet normal 0.0 1.0 0.0
  outer loop
   vertex 22.996813423874045 16.0 0.54
   vertex 22.996813423874045 16.0 0
   vertex 13.003186576125955 16.0 0.54
  endloop
 endfacet
 facet normal 0.0 1.0 0.0
  outer loop
   vertex 34.444881722527185 16.0 0
   vertex 22.996813423874045 16.0 0
   vertex 22.996813423874045 16.0 0.54
  endloop
 endfacet
 facet normal 0.0 1.0 0.0
  outer loop
   vertex 34.444881722527185 16.0 0.54
   vertex 34.444881722527185 16.0 0
   vertex 22.996813423874045 16.0 0.54
  endloop
 endfacet
 facet normal 0.0 1.0 0.0
  outer loop
   vertex 40.68946137012084 16.0 0
   vertex 34.444881722527185 16.0 0
   vertex 34.444881722527185 16.0 0.54
  endloop
 endfacet
 facet normal 0.0 1.0 0.0
  outer loop
   vertex 40.68946137012084 16.0 0.54
   vertex 40.68946137012084 16.0 0
   vertex 34.444881722527185 16.0 0.54
  endloop
 endfacet
 facet normal 0.0 1.0 0.0
  outer loop
   vertex 71.99288497179224 16.0 0
   vertex 40.68946137012084 16.0 0
   vertex 40.68946137012084 16.0 0.54
  endloop
 endfacet
 facet normal 0.0 1.0 0.0
  outer loop
   vertex 71.99288497179224 16.0 0.54
   vertex 71.99288497179224 16.0 0
   vertex 40.68946137012084 16.0 0.54
  endloop
 endfacet
 facet normal 0.0 1.0 0.0
  outer loop
   vertex 78.80262115432166 16.0 0
   vertex 71.99288497179224 16.0 0
   vertex 71.99288497179224 16.0 0.54
  endloop
 endfacet
 facet normal 0.0 1.0 0.0
  outer loop
   vertex 78.80262115432166 16.0 0.54
   vertex 78.80262115432166 16.0 0
   vertex 71.99288497179224 16.0 0.54
  endloop
 endfacet
 facet normal 0.0 1.0 0.0
  outer loop
   vertex 90.95491127640511 16.0 0
   vertex 78.80262115432166 16.0 0
   vertex 78.80262115432166 16.0 0.54
  endloop
 endfacet
 facet normal 0.0 1.0 0.0
  outer loop
   vertex 90.95491127640511 16.0 0.54
   vertex 90.95491127640511 16.0 0
   vertex 78.80262115432166 16.0 0.54
  endloop
 endfacet
 facet normal 0.0 1.0 0.0
  outer loop
   vertex 98.89587489800014 16.0 0
   vertex 90.95491127640511 16.0 0
   vertex 90.95491127640511 16.0 0.54
  endloop
 endfacet
 facet normal 0.0 1.0 0.0
  outer loop
   vertex 98.89587489800014 16.0 0.54
   vertex 98.89587489800014 16.0 0
   vertex 90.95491127640511 16.0 0.54
  endloop
 endfacet
 facet normal 0.0 1.0 0.0
  outer loop
   vertex 113.1895374138355 16.0 0
   vertex 98.89587489800014 16.0 0
   vertex 98.89587489800014 16.0 0.54
  endloop
 endfacet
 facet normal 0.0 1.0 0.0
  outer loop
   vertex 113.1895374138355 16.0 0.54
   vertex 113.1895374138355 16.0 0
   vertex 98.89587489800014 16.0 0.54
  endloop
 endfacet
 facet normal 0.0 1.0 0.0
  outer loop
   vertex 118.4930861384644 16.0 0
   vertex 113.1895374138355 16.0 0
   vertex 113.1895374138355 16.0 0.54
  endloop
 endfacet
 facet normal 0.0 1.0 0.0
  outer loop
   vertex 118.4930861384644 16.0 0.54
   vertex 118.4930861384644 16.0 0
   vertex 113.1895374138355 16.0 0.54
  endloop
 endfacet
 facet normal 0.0 1.0 0.0
  outer loop
   vertex 130.79362938429423 16.0 0
   vertex 118.4930861384644 16.0 0
   vertex 118.4930861384644 16.0 0.54
  endloop
 endfacet
 facet normal 0.0 1.0 0.0
  outer loop
   vertex 130.79362938429423 16.0 0.54
   vertex 130.79362938429423 16.0 0
   vertex 118.4930861384644 16.0 0.54
  endloop
 endfacet
 facet normal 0.9999996829318346 0.0007963267107321423 0.0
  outer loop
   vertex 130.8 8.0 0
   vertex 130.79362938429423 16.0 0
   vertex 130.79362938429423 16.0 0.54
  endloop
 endfacet
 facet normal 0.9999996829318346 0.0007963267107321423 0.0
  outer loop
   vertex 130.8 8.0 0.54
   vertex 130.8 8.0 0
   vertex 130.79362938429423 16.0 0.54
  endloop
 endfacet
 facet normal 0.9999996829318346 -0.0007963267107321423 0.0
  outer loop
   vertex 130.79362938429423 0.0 0
   vertex 130.8 8.0 0
   vertex 130.8 8.0 0.54
  endloop
 endfacet
 facet normal 0.9999996829318346 -0.0007963267107321423 0.0
  outer loop
   vertex 130.79362938429423 0.0 0.54
   vertex 130.79362938429423 0.0 0
   vertex 130.8 8.0 0.54
  endloop
 endfacet
 facet normal 0.0 -1.0 0.0
  outer loop
   vertex 118.4930861384644 0.0 0
   vertex 130.79362938429423 0.0 0
   vertex 130.79362938429423 0.0 0.54
  endloop
 endfacet
 facet normal 0.0 -1.0 0.0
  outer loop
   vertex 118.4930861384644 0.0 0.54
   vertex 118.4930861384644 0.0 0
   vertex 130.79362938429423 0.0 0.54
  endloop
 endfacet
 facet normal 0.0 -1.0 0.0
  outer loop
   vertex 113.1895374138355 0.0 0
   vertex 118.4930861384644 0.0 0
   vertex 118.4930861384644 0.0 0.54
  endloop
 endfacet
 facet normal 0.0 -1.0 0.0
  outer loop
   vertex 113.1895374138355 0.0 0.54
   vertex 113.1895374138355 0.0 0
   vertex 118.4930861384644 0.0 0.54
  endloop
 endfacet
 facet normal 0.0 -1.0 0.0
  outer loop
   vertex 98.89587489800014 0.0 0
   vertex 113.1895374138355 0.0 0
   vertex 113.1895374138355 0.0 0.54
  endloop
 endfacet
 facet normal 0.0 -1.0 0.0
  outer loop
   vertex 98.89587489800014 0.0 0.54
   vertex 98.89587489800014 0.0 0
   vertex 113.1895374138355 0.0 0.54
  endloop
 endfacet
 facet normal 0.0 -1.0 0.0
  outer loop
   vertex 90.95491127640511 0.0 0
   vertex 98.89587489800014 0.0 0
   vertex 98.89587489800014 0.0 0.54
  endloop
 endfacet
 facet normal 0.0 -1.0 0.0
  outer loop
   vertex 90.95491127640511 0.0 0.54
   vertex 90.95491127640511 0.0 0
   vertex 98.89587489800014 0.0 0.54
  endloop
 endfacet
 facet normal 0.0 -1.0 0.0
  outer loop
   vertex 78.80262115432166 0.0 0
   vertex 90.95491127640511 0.0 0
   vertex 90.95491127640511 0.0 0.54
  endloop
 endfacet
 facet normal 0.0 -1.0 0.0
  outer loop
   vertex 78.80262115432166 0.0 0.54
   vertex 78.80262115432166 0.0 0
   vertex 90.95491127640511 0.0 0.54
  endloop
 endfacet
 facet normal 0.0 -1.0 0.0
  outer loop
   vertex 71.99288497179224 0.0 0
   vertex 78.80262115432166 0.0 0
   vertex 78.80262115432166 0.0 0.54
  endloop
 endfacet
 facet normal 0.0 -1.0 0.0
  outer loop
   vertex 71.99288497179224 0.0 0.54
   vertex 71.99288497179224 0.0 0
   vertex 78.80262115432166 0.0 0.54
  endloop
 endfacet
 facet normal 0.0 -1.0 0.0
  outer loop
   vertex 40.68946137012084 0.0 0
   vertex 71.99288497179224 0.0 0
   vertex 71.99288497179224 0.0 0.54
  endloop
 endfacet
 facet normal 0.0 -1.0 0.0
  outer loop
   vertex 40.68946137012084 0.0 0.54
   vertex 40.68946137012084 0.0 0
   vertex 71.99288497179224 0.0 0.54
  endloop
 endfacet
 facet normal 0.0 -1.0 0.0
  outer loop
   vertex 34.444881722527185 0.0 0
   vertex 40.68946137012084 0.0 0
   vertex 40.68946137012084 0.0 0.54
  endloop
 endfacet
 facet normal 0.0 -1.0 0.0
  outer loop
   vertex 34.444881722527185 0.0 0.54
   vertex 34.444881722527185 0.0 0
   vertex 40.68946137012084 0.0 0.54
  endloop
 endfacet
 facet normal 0.0 -1.0 0.0
  outer loop
   vertex 22.996813423874045 0.0 0
   vertex 34.444881722527185 0.0 0
   vertex 34.444881722527185 0.0 0.54
  endloop
 endfacet
 facet normal 0.0 -1.0 0.0
  outer loop
   vertex 22.996813423874045 0.0 0.54
   vertex 22.996813423874045 0.0 0
   vertex 34.444881722527185 0.0 0.54
  endloop
 endfacet
 facet normal 0.0 -1.0 0.0
  outer loop
   vertex 13.003186576125955 0.0 0
   vertex 22.996813423874045 0.0 0
   vertex 22.996813423874045 0.0 0.54
  endloop
 endfacet
 facet normal 0.0 -1.0 0.0
  outer loop
   vertex 13.003186576125955 0.0 0.54
   vertex 13.003186576125955 0.0 0
   vertex 22.996813423874045 0.0 0.54
  endloop
 endfacet
 facet normal 0.0 0.0 1.0
  outer loop
   vertex 13.003186576125955 0.0 0.54
   vertex 2.096303133404373 2.101 0.54
   vertex -0.006370615705785541 0.0 0.54
  endloop
 endfacet
 facet normal 0.0 0.0 1.0
  outer loop
   vertex -0.006370615705785541 0.0 0.54
   vertex 2.099328379537658 5.9 0.54
   vertex 0.0 8.0 0.54
  endloop
 endfacet
 facet normal -0.0 -0.0 1.0
  outer loop
   vertex 0.0 8.0 0.54
   vertex 2.099328379537658 5.9 0.54
   vertex -0.006370615705785541 16.0 0.54
  endloop
 endfacet
 facet normal -0.0 0.0 1.0
  outer loop
   vertex -0.006370615705785541 16.0 0.54
   vertex 7.929481154493996 13.899000000000001 0.54
   vertex 13.003186576125955 16.0 0.54
  endloop
 endfacet
 facet normal -0.0 0.0 1.0
  outer loop
   vertex 13.003186576125955 16.0 0.54
   vertex 22.128455500462405 13.899000000000001 0.54
   vertex 22.996813423874045 16.0 0.54
  endloop
 endfacet
 facet normal -0.0 0.0 1.0
  outer loop
   vertex 22.996813423874045 16.0 0.54
   vertex 33.008583204579004 13.899000000000001 0.54
   vertex 34.444881722527185 16.0 0.54
  endloop
 endfacet
 facet normal -0.0 0.0 1.0
  outer loop
   vertex 34.444881722527185 16.0 0.54
   vertex 40.1036948317142 13.899000000000001 0.54
   vertex 40.68946137012084 16.0 0.54
  endloop
 endfacet
 facet normal -0.0 0.0 1.0
  outer loop
   vertex 40.68946137012084 16.0 0.54
   vertex 65.80519679435022 13.899000000000001 0.54
   vertex 71.99288497179224 16.0 0.54
  endloop
 endfacet
 facet normal -0.0 0.0 1.0
  outer loop
   vertex 71.99288497179224 16.0 0.54
   vertex 60.854259292390545 10.1 0.54
   vertex 78.80262115432166 16.0 0.54
  endloop
 endfacet
 facet normal -0.0 0.0 1.0
  outer loop
   vertex 78.80262115432166 16.0 0.54
   vertex 85.41668024655597 13.899000000000003 0.54
   vertex 90.95491127640511 16.0 0.54
  endloop
 endfacet
 facet normal -0.0 0.0 1.0
  outer loop
   vertex 90.95491127640511 16.0 0.54
   vertex 98.21877981613699 13.899000000000001 0.54
   vertex 98.89587489800014 16.0 0.54
  endloop
 endfacet
 facet normal -0.0 0.0 1.0
  outer loop
   vertex 98.89587489800014 16.0 0.54
   vertex 111.59338579130132 13.899000000000001 0.54
   vertex 113.1895374138355 16.0 0.54
  endloop
 endfacet
 facet normal -0.0 0.0 1.0
  outer loop
   vertex 113.1895374138355 16.0 0.54
   vertex 117.70978007133508 13.899000000000001 0.54
   vertex 118.4930861384644 16.0 0.54
  endloop
 endfacet
 facet normal -0.0 0.0 1.0
  outer loop
   vertex 118.4930861384644 16.0 0.54
   vertex 128.69430180108353 13.899000000000001 0.54
   vertex 130.79362938429423 16.0 0.54
  endloop
 endfacet
 facet normal 0.0 0.0 1.0
  outer loop
   vertex 130.79362938429423 16.0 0.54
   vertex 128.6973270472168 10.1 0.54
   vertex 130.8 8.0 0.54
  endloop
 endfacet
 facet normal 0.0 0.0 1.0
  outer loop
   vertex 130.8 8.0 0.54
   vertex 128.69430180108353 2.101 0.54
   vertex 130.79362938429423 0.0 0.54
  endloop
 endfacet
 facet normal 0.0 0.0 1.0
  outer loop
   vertex 130.79362938429423 0.0 0.54
   vertex 2.096303133404373 2.101 0.54
   vertex 118.4930861384644 0.0 0.54
  endloop
 endfacet
 facet normal 0.0 0.0 1.0
  outer loop
   vertex 118.4930861384644 0.0 0.54
   vertex 2.096303133404373 2.101 0.54
   vertex 113.1895374138355 0.0 0.54
  endloop
 endfacet
 facet normal 0.0 0.0 1.0
  outer loop
   vertex 113.1895374138355 0.0 0.54
   vertex 2.096303133404373 2.101 0.54
   vertex 98.89587489800014 0.0 0.54
  endloop
 endfacet
 facet normal 0.0 0.0 1.0
  outer loop
   vertex 98.89587489800014 0.0 0.54
   vertex 2.096303133404373 2.101 0.54
   vertex 90.95491127640511 0.0 0.54
  endloop
 endfacet
 facet normal 0.0 0.0 1.0
  outer loop
   vertex 90.95491127640511 0.0 0.54
   vertex 2.096303133404373 2.101 0.54
   vertex 78.80262115432166 0.0 0.54
  endloop
 endfacet
 facet normal 0.0 0.0 1.0
  outer loop
   vertex 78.80262115432166 0.0 0.54
   vertex 2.096303133404373 2.101 0.54
   vertex 71.99288497179224 0.0 0.54
  endloop
 endfacet
 facet normal 0.0 0.0 1.0
  outer loop
   vertex 71.99288497179224 0.0 0.54
   vertex 2.096303133404373 2.101 0.54
   vertex 40.68946137012084 0.0 0.54
  endloop
 endfacet
 facet normal 0.0 0.0 1.0
  outer loop
   vertex 40.68946137012084 0.0 0.54
   vertex 2.096303133404373 2.101 0.54
   vertex 34.444881722527185 0.0 0.54
  endloop
 endfacet
 facet normal 0.0 0.0 1.0
  outer loop
   vertex 34.444881722527185 0.0 0.54
   vertex 2.096303133404373 2.101 0.54
   vertex 22.996813423874045 0.0 0.54
  endloop
 endfacet
 facet normal 0.0 0.0 1.0
  outer loop
   vertex 22.996813423874045 0.0 0.54
   vertex 2.096303133404373 2.101 0.54
   vertex 13.003186576125955 0.0 0.54
  endloop
 endfacet
 facet normal 0.0 0.0 1.0
  outer loop
   vertex 2.099328379537658 5.9 0.54
   vertex -0.006370615705785541 0.0 0.54
   vertex 2.096303133404373 2.101 0.54
  endloop
 endfacet
 facet normal 0.0 0.0 1.0
  outer loop
   vertex 2.099328379537658 5.9 0.54
   vertex 2.096303133404373 13.899000000000001 0.54
   vertex -0.006370615705785541 16.0 0.54
  endloop
 endfacet
 facet normal 0.0 0.0 1.0
  outer loop
   vertex 2.099328379537658 5.9 0.54
   vertex 13.003186576125955 16.0 0.54
   vertex 7.929481154493996 13.899000000000001 0.54
  endloop
 endfacet
 facet normal 0.0 0.0 1.0
  outer loop
   vertex 2.099328379537658 5.9 0.54
   vertex 13.871544499537595 13.899000000000001 0.54
   vertex 13.003186576125955 16.0 0.54
  endloop
 endfacet
 facet normal 0.0 0.0 1.0
  outer loop
   vertex 2.099328379537658 5.9 0.54
   vertex 4.127454703818369 5.9 0.54
   vertex 130.8 8.0 0.54
  endloop
 endfacet
 facet normal 0.0 0.0 1.0
  outer loop
   vertex 2.099328379537658 5.9 0.54
   vertex 130.8 8.0 0.54
   vertex 128.6973270472168 10.1 0.54
  endloop
 endfacet
 facet normal 0.0 0.0 1.0
  outer loop
   vertex 2.099328379537658 5.9 0.54
   vertex 4.127454703818369 10.1 0.54
   vertex 2.099328379537658 10.1 0.54
  endloop
 endfacet
 facet normal 0.0 0.0 1.0
  outer loop
   vertex 2.099328379537658 5.9 0.54
   vertex 7.929481154493996 13.899000000000001 0.54
   vertex 4.127454703818369 10.1 0.54
  endloop
 endfacet
 facet normal 0.0 -0.0 1.0
  outer loop
   vertex 2.099328379537658 5.9 0.54
   vertex 2.099328379537658 10.1 0.54
   vertex 2.096303133404373 13.899000000000001 0.54
  endloop
 endfacet
 facet normal 0.0 0.0 1.0
  outer loop
   vertex 2.099328379537658 5.9 0.54
   vertex 25.93048195113803 10.1 0.54
   vertex 10.069518048861969 10.1 0.54
  endloop
 endfacet
 facet normal 0.0 0.0 1.0
  outer loop
   vertex 2.099328379537658 5.9 0.54
   vertex 10.069518048861969 10.1 0.54
   vertex 13.871544499537595 13.899000000000001 0.54
  endloop
 endfacet
 facet normal 0.0 0.0 1.0
  outer loop
   vertex 2.099328379537658 5.9 0.54
   vertex 34.48555678860881 10.1 0.54
   vertex 31.872545296181627 10.1 0.54
  endloop
 endfacet
 facet normal 0.0 0.0 1.0
  outer loop
   vertex 2.099328379537658 5.9 0.54
   vertex 31.872545296181627 10.1 0.54
   vertex 25.93048195113803 10.1 0.54
  endloop
 endfacet
 facet normal 0.0 0.0 1.0
  outer loop
   vertex 2.099328379537658 5.9 0.54
   vertex 46.36305889544193 10.1 0.54
   vertex 38.99180557499038 10.1 0.54
  endloop
 endfacet
 facet normal 0.0 0.0 1.0
  outer loop
   vertex 2.099328379537658 5.9 0.54
   vertex 38.99180557499038 10.1 0.54
   vertex 34.48555678860881 10.1 0.54
  endloop
 endfacet
 facet normal 0.0 0.0 1.0
  outer loop
   vertex 2.099328379537658 5.9 0.54
   vertex 60.854259292390545 10.1 0.54
   vertex 54.45795280294326 10.1 0.54
  endloop
 endfacet
 facet normal 0.0 0.0 1.0
  outer loop
   vertex 2.099328379537658 5.9 0.54
   vertex 54.45795280294326 10.1 0.54
   vertex 46.36305889544193 10.1 0.54
  endloop
 endfacet
 facet normal 0.0 0.0 1.0
  outer loop
   vertex 2.099328379537658 5.9 0.54
   vertex 73.73873996605118 10.1 0.54
   vertex 67.75349998440686 10.1 0.54
  endloop
 endfacet
 facet normal 0.0 0.0 1.0
  outer loop
   vertex 2.099328379537658 5.9 0.54
   vertex 67.75349998440686 10.1 0.54
   vertex 60.854259292390545 10.1 0.54
  endloop
 endfacet
 facet normal 0.0 0.0 1.0
  outer loop
   vertex 2.099328379537658 5.9 0.54
   vertex 81.1286432617902 10.1 0.54
   vertex 78.37176993734325 10.1 0.54
  endloop
 endfacet
 facet normal 0.0 0.0 1.0
  outer loop
   vertex 2.099328379537658 5.9 0.54
   vertex 78.37176993734325 10.1 0.54
   vertex 73.73873996605118 10.1 0.54
  endloop
 endfacet
 facet normal 0.0 0.0 1.0
  outer loop
   vertex 2.099328379537658 5.9 0.54
   vertex 103.48431263176134 10.1 0.54
   vertex 87.46219102562492 10.1 0.54
  endloop
 endfacet
 facet normal 0.0 0.0 1.0
  outer loop
   vertex 2.099328379537658 5.9 0.54
   vertex 87.46219102562492 10.1 0.54
   vertex 81.1286432617902 10.1 0.54
  endloop
 endfacet
 facet normal 0.0 0.0 1.0
  outer loop
   vertex 2.099328379537658 5.9 0.54
   vertex 112.64804763251104 10.1 0.54
   vertex 110.6626062151385 10.1 0.54
  endloop
 endfacet
 facet normal 0.0 0.0 1.0
  outer loop
   vertex 2.099328379537658 5.9 0.54
   vertex 110.6626062151385 10.1 0.54
   vertex 103.48431263176134 10.1 0.54
  endloop
 endfacet
 facet normal 0.0 0.0 1.0
  outer loop
   vertex 2.099328379537658 5.9 0.54
   vertex 122.0851965113285 10.1 0.54
   vertex 117.0068918243452 10.1 0.54
  endloop
 endfacet
 facet normal 0.0 0.0 1.0
  outer loop
   vertex 2.099328379537658 5.9 0.54
   vertex 117.0068918243452 10.1 0.54
   vertex 112.64804763251104 10.1 0.54
  endloop
 endfacet
 facet normal 0.0 0.0 1.0
  outer loop
   vertex 2.099328379537658 5.9 0.54
   vertex 128.6973270472168 10.1 0.54
   vertex 128.4913716571303 10.1 0.54
  endloop
 endfacet
 facet normal 0.0 0.0 1.0
  outer loop
   vertex 2.099328379537658 5.9 0.54
   vertex 128.4913716571303 10.1 0.54
   vertex 122.0851965113285 10.1 0.54
  endloop
 endfacet
 facet normal -0.0 0.0 1.0
  outer loop
   vertex 2.096303133404373 2.101 0.54
   vertex 130.79362938429423 0.0 0.54
   vertex 7.929481154493995 2.101 0.54
  endloop
 endfacet
 facet normal -0.0 0.0 1.0
  outer loop
   vertex 7.929481154493995 2.101 0.54
   vertex 130.79362938429423 0.0 0.54
   vertex 13.871544499537597 2.101 0.54
  endloop
 endfacet
 facet normal 0.0 -0.0 1.0
  outer loop
   vertex 7.929481154493995 2.101 0.54
   vertex 10.06951804886197 5.9 0.54
   vertex 4.127454703818369 5.9 0.54
  endloop
 endfacet
 facet normal 0.0 0.0 1.0
  outer loop
   vertex 7.929481154493995 2.101 0.54
   vertex 13.871544499537597 2.101 0.54
   vertex 10.06951804886197 5.9 0.54
  endloop
 endfacet
 facet normal 0.0 0.0 1.0
  outer loop
   vertex 4.127454703818369 5.9 0.54
   vertex 10.06951804886197 5.9 0.54
   vertex 130.8 8.0 0.54
  endloop
 endfacet
 facet normal 0.0 0.0 1.0
  outer loop
   vertex 7.929481154493996 13.899000000000001 0.54
   vertex -0.006370615705785541 16.0 0.54
   vertex 2.096303133404373 13.899000000000001 0.54
  endloop
 endfacet
 facet normal 0.0 0.0 1.0
  outer loop
   vertex 10.06951804886197 5.9 0.54
   vertex 25.93048195113803 5.9 0.54
   vertex 130.8 8.0 0.54
  endloop
 endfacet
 facet normal -0.0 0.0 1.0
  outer loop
   vertex 13.871544499537597 2.101 0.54
   vertex 130.79362938429423 0.0 0.54
   vertex 22.1284555004624 2.101 0.54
  endloop
 endfacet
 facet normal -0.0 0.0 1.0
  outer loop
   vertex 22.1284555004624 2.101 0.54
   vertex 130.79362938429423 0.0 0.54
   vertex 28.070518845506 2.101 0.54
  endloop
 endfacet
 facet normal 0.0 0.0 1.0
  outer loop
   vertex 22.1284555004624 2.101 0.54
   vertex 31.872545296181627 5.9 0.54
   vertex 25.93048195113803 5.9 0.54
  endloop
 endfacet
 facet normal 0.0 0.0 1.0
  outer loop
   vertex 22.1284555004624 2.101 0.54
   vertex 28.070518845506 2.101 0.54
   vertex 31.872545296181627 5.9 0.54
  endloop
 endfacet
 facet normal 0.0 0.0 1.0
  outer loop
   vertex 25.93048195113803 5.9 0.54
   vertex 31.872545296181627 5.9 0.54
   vertex 130.8 8.0 0.54
  endloop
 endfacet
 facet normal 0.0 0.0 1.0
  outer loop
   vertex 25.93048195113803 10.1 0.54
   vertex 22.996813423874045 16.0 0.54
   vertex 22.128455500462405 13.899000000000001 0.54
  endloop
 endfacet
 facet normal 0.0 -0.0 1.0
  outer loop
   vertex 25.93048195113803 10.1 0.54
   vertex 28.070518845506005 13.899000000000001 0.54
   vertex 22.996813423874045 16.0 0.54
  endloop
 endfacet
 facet normal 0.0 0.0 1.0
  outer loop
   vertex 25.93048195113803 10.1 0.54
   vertex 31.872545296181627 10.1 0.54
   vertex 28.070518845506005 13.899000000000001 0.54
  endloop
 endfacet
 facet normal 0.0 0.0 1.0
  outer loop
   vertex 22.128455500462405 13.899000000000001 0.54
   vertex 13.003186576125955 16.0 0.54
   vertex 13.871544499537595 13.899000000000001 0.54
  endloop
 endfacet
 facet normal 0.0 0.0 1.0
  outer loop
   vertex 31.872545296181627 5.9 0.54
   vertex 34.48555678860881 5.9 0.54
   vertex 130.8 8.0 0.54
  endloop
 endfacet
 facet normal -0.0 0.0 1.0
  outer loop
   vertex 28.070518845506 2.101 0.54
   vertex 130.79362938429423 0.0 0.54
   vertex 33.008583204579004 2.101 0.54
  endloop
 endfacet
 facet normal -0.0 0.0 1.0
  outer loop
   vertex 33.008583204579004 2.101 0.54
   vertex 130.79362938429423 0.0 0.54
   vertex 37.514831990960566 2.101 0.54
  endloop
 endfacet
 facet normal 0.0 0.0 1.0
  outer loop
   vertex 33.008583204579004 2.101 0.54
   vertex 38.99180557499038 5.9 0.54
   vertex 34.48555678860881 5.9 0.54
  endloop
 endfacet
 facet normal 0.0 0.0 1.0
  outer loop
   vertex 33.008583204579004 2.101 0.54
   vertex 37.514831990960566 2.101 0.54
   vertex 38.99180557499038 5.9 0.54
  endloop
 endfacet
 facet normal 0.0 0.0 1.0
  outer loop
   vertex 34.48555678860881 5.9 0.54
   vertex 38.99180557499038 5.9 0.54
   vertex 130.8 8.0 0.54
  endloop
 endfacet
 facet normal 0.0 0.0 1.0
  outer loop
   vertex 34.48555678860881 10.1 0.54
   vertex 34.444881722527185 16.0 0.54
   vertex 33.008583204579004 13.899000000000001 0.54
  endloop
 endfacet
 facet normal 0.0 -0.0 1.0
  outer loop
   vertex 34.48555678860881 10.1 0.54
   vertex 37.514831990960566 13.899000000000001 0.54
   vertex 34.444881722527185 16.0 0.54
  endloop
 endfacet
 facet normal 0.0 0.0 1.0
  outer loop
   vertex 34.48555678860881 10.1 0.54
   vertex 38.99180557499038 10.1 0.54
   vertex 37.514831990960566 13.899000000000001 0.54
  endloop
 endfacet
 facet normal 0.0 0.0 1.0
  outer loop
   vertex 33.008583204579004 13.899000000000001 0.54
   vertex 22.996813423874045 16.0 0.54
   vertex 28.070518845506005 13.899000000000001 0.54
  endloop
 endfacet
 facet normal 0.0 0.0 1.0
  outer loop
   vertex 38.99180557499038 5.9 0.54
   vertex 46.36305889544193 5.9 0.54
   vertex 130.8 8.0 0.54
  endloop
 endfacet
 facet normal -0.0 0.0 1.0
  outer loop
   vertex 37.514831990960566 2.101 0.54
   vertex 130.79362938429423 0.0 0.54
   vertex 40.1036948317142 2.101 0.54
  endloop
 endfacet
 facet normal -0.0 0.0 1.0
  outer loop
   vertex 40.1036948317142 2.101 0.54
   vertex 130.79362938429423 0.0 0.54
   vertex 48.198588739215545 2.101 0.54
  endloop
 endfacet
 facet normal 0.0 0.0 1.0
  outer loop
   vertex 40.1036948317142 2.101 0.54
   vertex 54.457952802943275 5.9 0.54
   vertex 46.36305889544193 5.9 0.54
  endloop
 endfacet
 facet normal 0.0 0.0 1.0
  outer loop
   vertex 40.1036948317142 2.101 0.54
   vertex 48.198588739215545 2.101 0.54
   vertex 54.457952802943275 5.9 0.54
  endloop
 endfacet
 facet normal 0.0 0.0 1.0
  outer loop
   vertex 46.36305889544193 5.9 0.54
   vertex 54.457952802943275 5.9 0.54
   vertex 130.8 8.0 0.54
  endloop
 endfacet
 facet normal 0.0 0.0 1.0
  outer loop
   vertex 46.36305889544193 10.1 0.54
   vertex 40.68946137012084 16.0 0.54
   vertex 40.1036948317142 13.899000000000001 0.54
  endloop
 endfacet
 facet normal 0.0 -0.0 1.0
  outer loop
   vertex 46.36305889544193 10.1 0.54
   vertex 48.19858873921553 13.899000000000001 0.54
   vertex 40.68946137012084 16.0 0.54
  endloop
 endfacet
 facet normal 0.0 0.0 1.0
  outer loop
   vertex 46.36305889544193 10.1 0.54
   vertex 54.45795280294326 10.1 0.54
   vertex 48.19858873921553 13.899000000000001 0.54
  endloop
 endfacet
 facet normal 0.0 0.0 1.0
  outer loop
   vertex 40.1036948317142 13.899000000000001 0.54
   vertex 34.444881722527185 16.0 0.54
   vertex 37.514831990960566 13.899000000000001 0.54
  endloop
 endfacet
 facet normal 0.0 0.0 1.0
  outer loop
   vertex 54.457952802943275 5.9 0.54
   vertex 60.854259292390545 5.9 0.54
   vertex 130.8 8.0 0.54
  endloop
 endfacet
 facet normal -0.0 0.0 1.0
  outer loop
   vertex 48.198588739215545 2.101 0.54
   vertex 130.79362938429423 0.0 0.54
   vertex 65.80519679435022 2.101 0.54
  endloop
 endfacet
 facet normal -0.0 0.0 1.0
  outer loop
   vertex 65.80519679435022 2.101 0.54
   vertex 130.79362938429423 0.0 0.54
   vertex 72.70443748636653 2.101 0.54
  endloop
 endfacet
 facet normal 0.0 -0.0 1.0
  outer loop
   vertex 65.80519679435022 2.101 0.54
   vertex 67.75349998440686 5.9 0.54
   vertex 60.854259292390545 5.9 0.54
  endloop
 endfacet
 facet normal 0.0 0.0 1.0
  outer loop
   vertex 65.80519679435022 2.101 0.54
   vertex 72.70443748636653 2.101 0.54
   vertex 67.75349998440686 5.9 0.54
  endloop
 endfacet
 facet normal 0.0 0.0 1.0
  outer loop
   vertex 60.854259292390545 5.9 0.54
   vertex 67.75349998440686 5.9 0.54
   vertex 130.8 8.0 0.54
  endloop
 endfacet
 facet normal 0.0 0.0 1.0
  outer loop
   vertex 60.854259292390545 10.1 0.54
   vertex 71.99288497179224 16.0 0.54
   vertex 65.80519679435022 13.899000000000001 0.54
  endloop
 endfacet
 facet normal 0.0 0.0 1.0
  outer loop
   vertex 60.854259292390545 10.1 0.54
   vertex 72.70443748636653 13.899000000000001 0.54
   vertex 78.80262115432166 16.0 0.54
  endloop
 endfacet
 facet normal 0.0 0.0 1.0
  outer loop
   vertex 60.854259292390545 10.1 0.54
   vertex 67.75349998440686 10.1 0.54
   vertex 72.70443748636653 13.899000000000001 0.54
  endloop
 endfacet
 facet normal 0.0 0.0 1.0
  outer loop
   vertex 65.80519679435022 13.899000000000001 0.54
   vertex 40.68946137012084 16.0 0.54
   vertex 48.19858873921553 13.899000000000001 0.54
  endloop
 endfacet
 facet normal 0.0 0.0 1.0
  outer loop
   vertex 67.75349998440686 5.9 0.54
   vertex 73.73873996605118 5.9 0.54
   vertex 130.8 8.0 0.54
  endloop
 endfacet
 facet normal -0.0 0.0 1.0
  outer loop
   vertex 72.70443748636653 2.101 0.54
   vertex 130.79362938429423 0.0 0.54
   vertex 75.50776440736819 2.101 0.54
  endloop
 endfacet
 facet normal -0.0 0.0 1.0
  outer loop
   vertex 75.50776440736819 2.101 0.54
   vertex 130.79362938429423 0.0 0.54
   vertex 80.14079437866025 2.101 0.54
  endloop
 endfacet
 facet normal 0.0 -0.0 1.0
  outer loop
   vertex 75.50776440736819 2.101 0.54
   vertex 78.37176993734325 5.9 0.54
   vertex 73.73873996605118 5.9 0.54
  endloop
 endfacet
 facet normal 0.0 0.0 1.0
  outer loop
   vertex 75.50776440736819 2.101 0.54
   vertex 80.14079437866025 2.101 0.54
   vertex 78.37176993734325 5.9 0.54
  endloop
 endfacet
 facet normal 0.0 0.0 1.0
  outer loop
   vertex 73.73873996605118 5.9 0.54
   vertex 78.37176993734325 5.9 0.54
   vertex 130.8 8.0 0.54
  endloop
 endfacet
 facet normal 0.0 0.0 1.0
  outer loop
   vertex 73.73873996605118 10.1 0.54
   vertex 78.80262115432166 16.0 0.54
   vertex 75.50776440736819 13.899000000000001 0.54
  endloop
 endfacet
 facet normal 0.0 0.0 1.0
  outer loop
   vertex 73.73873996605118 10.1 0.54
   vertex 80.14079437866025 13.899000000000001 0.54
   vertex 78.80262115432166 16.0 0.54
  endloop
 endfacet
 facet normal 0.0 0.0 1.0
  outer loop
   vertex 73.73873996605118 10.1 0.54
   vertex 78.37176993734325 10.1 0.54
   vertex 80.14079437866025 13.899000000000001 0.54
  endloop
 endfacet
 facet normal 0.0 -0.0 1.0
  outer loop
   vertex 75.50776440736819 13.899000000000001 0.54
   vertex 78.80262115432166 16.0 0.54
   vertex 72.70443748636653 13.899000000000001 0.54
  endloop
 endfacet
 facet normal 0.0 0.0 1.0
  outer loop
   vertex 78.37176993734325 5.9 0.54
   vertex 81.1286432617902 5.9 0.54
   vertex 130.8 8.0 0.54
  endloop
 endfacet
 facet normal -0.0 0.0 1.0
  outer loop
   vertex 80.14079437866025 2.101 0.54
   vertex 130.79362938429423 0.0 0.54
   vertex 85.41668024655597 2.101 0.54
  endloop
 endfacet
 facet normal -0.0 0.0 1.0
  outer loop
   vertex 85.41668024655597 2.101 0.54
   vertex 130.79362938429423 0.0 0.54
   vertex 91.75022801039069 2.101 0.54
  endloop
 endfacet
 facet normal 0.0 -0.0 1.0
  outer loop
   vertex 85.41668024655597 2.101 0.54
   vertex 87.46219102562492 5.9 0.54
   vertex 81.1286432617902 5.9 0.54
  endloop
 endfacet
 facet normal 0.0 0.0 1.0
  outer loop
   vertex 85.41668024655597 2.101 0.54
   vertex 91.75022801039069 2.101 0.54
   vertex 87.46219102562492 5.9 0.54
  endloop
 endfacet
 facet normal 0.0 0.0 1.0
  outer loop
   vertex 81.1286432617902 5.9 0.54
   vertex 87.46219102562492 5.9 0.54
   vertex 130.8 8.0 0.54
  endloop
 endfacet
 facet normal 0.0 0.0 1.0
  outer loop
   vertex 81.1286432617902 10.1 0.54
   vertex 90.95491127640511 16.0 0.54
   vertex 85.41668024655597 13.899000000000003 0.54
  endloop
 endfacet
 facet normal 0.0 0.0 1.0
  outer loop
   vertex 81.1286432617902 10.1 0.54
   vertex 91.75022801039069 13.899000000000003 0.54
   vertex 90.95491127640511 16.0 0.54
  endloop
 endfacet
 facet normal 0.0 0.0 1.0
  outer loop
   vertex 81.1286432617902 10.1 0.54
   vertex 87.46219102562492 10.1 0.54
   vertex 91.75022801039069 13.899000000000003 0.54
  endloop
 endfacet
 facet normal 0.0 0.0 1.0
  outer loop
   vertex 85.41668024655597 13.899000000000003 0.54
   vertex 78.80262115432166 16.0 0.54
   vertex 80.14079437866025 13.899000000000001 0.54
  endloop
 endfacet
 facet normal 0.0 0.0 1.0
  outer loop
   vertex 87.46219102562492 5.9 0.54
   vertex 103.48431263176134 5.9 0.54
   vertex 130.8 8.0 0.54
  endloop
 endfacet
 facet normal -0.0 0.0 1.0
  outer loop
   vertex 91.75022801039069 2.101 0.54
   vertex 130.79362938429423 0.0 0.54
   vertex 98.21877981613699 2.101 0.54
  endloop
 endfacet
 facet normal -0.0 0.0 1.0
  outer loop
   vertex 98.21877981613699 2.101 0.54
   vertex 130.79362938429423 0.0 0.54
   vertex 105.39707339951413 2.101 0.54
  endloop
 endfacet
 facet normal 0.0 0.0 1.0
  outer loop
   vertex 98.21877981613699 2.101 0.54
   vertex 110.6626062151385 5.9 0.54
   vertex 103.48431263176134 5.9 0.54
  endloop
 endfacet
 facet normal 0.0 0.0 1.0
  outer loop
   vertex 98.21877981613699 2.101 0.54
   vertex 105.39707339951413 2.101 0.54
   vertex 110.6626062151385 5.9 0.54
  endloop
 endfacet
 facet normal 0.0 0.0 1.0
  outer loop
   vertex 103.48431263176134 5.9 0.54
   vertex 110.6626062151385 5.9 0.54
   vertex 130.8 8.0 0.54
  endloop
 endfacet
 facet normal 0.0 0.0 1.0
  outer loop
   vertex 103.48431263176134 10.1 0.54
   vertex 98.89587489800014 16.0 0.54
   vertex 98.21877981613699 13.899000000000001 0.54
  endloop
 endfacet
 facet normal 0.0 -0.0 1.0
  outer loop
   vertex 103.48431263176134 10.1 0.54
   vertex 105.39707339951413 13.899000000000001 0.54
   vertex 98.89587489800014 16.0 0.54
  endloop
 endfacet
 facet normal 0.0 0.0 1.0
  outer loop
   vertex 103.48431263176134 10.1 0.54
   vertex 110.6626062151385 10.1 0.54
   vertex 105.39707339951413 13.899000000000001 0.54
  endloop
 endfacet
 facet normal 0.0 0.0 1.0
  outer loop
   vertex 98.21877981613699 13.899000000000001 0.54
   vertex 90.95491127640511 16.0 0.54
   vertex 91.75022801039069 13.899000000000003 0.54
  endloop
 endfacet
 facet normal 0.0 0.0 1.0
  outer loop
   vertex 110.6626062151385 5.9 0.54
   vertex 112.64804763251104 5.9 0.54
   vertex 130.8 8.0 0.54
  endloop
 endfacet
 facet normal -0.0 0.0 1.0
  outer loop
   vertex 105.39707339951413 2.101 0.54
   vertex 130.79362938429423 0.0 0.54
   vertex 111.59338579130132 2.101 0.54
  endloop
 endfacet
 facet normal -0.0 0.0 1.0
  outer loop
   vertex 111.59338579130132 2.101 0.54
   vertex 130.79362938429423 0.0 0.54
   vertex 115.95222998313547 2.101 0.54
  endloop
 endfacet
 facet normal 0.0 0.0 1.0
  outer loop
   vertex 111.59338579130132 2.101 0.54
   vertex 117.0068918243452 5.9 0.54
   vertex 112.64804763251104 5.9 0.54
  endloop
 endfacet
 facet normal 0.0 0.0 1.0
  outer loop
   vertex 111.59338579130132 2.101 0.54
   vertex 115.95222998313547 2.101 0.54
   vertex 117.0068918243452 5.9 0.54
  endloop
 endfacet
 facet normal 0.0 0.0 1.0
  outer loop
   vertex 112.64804763251104 5.9 0.54
   vertex 117.0068918243452 5.9 0.54
   vertex 130.8 8.0 0.54
  endloop
 endfacet
 facet normal 0.0 -0.0 1.0
  outer loop
   vertex 112.64804763251104 10.1 0.54
   vertex 113.1895374138355 16.0 0.54
   vertex 111.59338579130132 13.899000000000001 0.54
  endloop
 endfacet
 facet normal 0.0 0.0 1.0
  outer loop
   vertex 112.64804763251104 10.1 0.54
   vertex 115.95222998313547 13.899000000000001 0.54
   vertex 113.1895374138355 16.0 0.54
  endloop
 endfacet
 facet normal 0.0 0.0 1.0
  outer loop
   vertex 112.64804763251104 10.1 0.54
   vertex 117.0068918243452 10.1 0.54
   vertex 115.95222998313547 13.899000000000001 0.54
  endloop
 endfacet
 facet normal 0.0 0.0 1.0
  outer loop
   vertex 111.59338579130132 13.899000000000001 0.54
   vertex 98.89587489800014 16.0 0.54
   vertex 105.39707339951413 13.899000000000001 0.54
  endloop
 endfacet
 facet normal 0.0 0.0 1.0
  outer loop
   vertex 117.0068918243452 5.9 0.54
   vertex 122.0851965113285 5.9 0.54
   vertex 130.8 8.0 0.54
  endloop
 endfacet
 facet normal -0.0 0.0 1.0
  outer loop
   vertex 115.95222998313547 2.101 0.54
   vertex 130.79362938429423 0.0 0.54
   vertex 117.70978007133508 2.101 0.54
  endloop
 endfacet
 facet normal 0.0 0.0 1.0
  outer loop
   vertex 117.70978007133508 2.101 0.54
   vertex 130.8 8.0 0.54
   vertex 122.0851965113285 5.9 0.54
  endloop
 endfacet
 facet normal 0.0 0.0 1.0
  outer loop
   vertex 117.70978007133508 2.101 0.54
   vertex 128.4913716571303 5.9 0.54
   vertex 130.8 8.0 0.54
  endloop
 endfacet
 facet normal -0.0 0.0 1.0
  outer loop
   vertex 117.70978007133508 2.101 0.54
   vertex 130.79362938429423 0.0 0.54
   vertex 124.11595521713684 2.101 0.54
  endloop
 endfacet
 facet normal 0.0 0.0 1.0
  outer loop
   vertex 117.70978007133508 2.101 0.54
   vertex 124.11595521713684 2.101 0.54
   vertex 128.4913716571303 5.9 0.54
  endloop
 endfacet
 facet normal 0.0 0.0 1.0
  outer loop
   vertex 122.0851965113285 10.1 0.54
   vertex 118.4930861384644 16.0 0.54
   vertex 117.70978007133508 13.899000000000001 0.54
  endloop
 endfacet
 facet normal 0.0 -0.0 1.0
  outer loop
   vertex 122.0851965113285 10.1 0.54
   vertex 124.11595521713684 13.899000000000001 0.54
   vertex 118.4930861384644 16.0 0.54
  endloop
 endfacet
 facet normal 0.0 0.0 1.0
  outer loop
   vertex 122.0851965113285 10.1 0.54
   vertex 128.4913716571303 10.1 0.54
   vertex 124.11595521713684 13.899000000000001 0.54
  endloop
 endfacet
 facet normal 0.0 0.0 1.0
  outer loop
   vertex 117.70978007133508 13.899000000000001 0.54
   vertex 113.1895374138355 16.0 0.54
   vertex 115.95222998313547 13.899000000000001 0.54
  endloop
 endfacet
 facet normal 0.0 0.0 1.0
  outer loop
   vertex 128.4913716571303 5.9 0.54
   vertex 128.6973270472168 5.9 0.54
   vertex 130.8 8.0 0.54
  endloop
 endfacet
 facet normal -0.0 0.0 1.0
  outer loop
   vertex 124.11595521713684 2.101 0.54
   vertex 130.79362938429423 0.0 0.54
   vertex 128.69430180108353 2.101 0.54
  endloop
 endfacet
 facet normal 0.0 0.0 1.0
  outer loop
   vertex 128.69430180108353 2.101 0.54
   vertex 130.8 8.0 0.54
   vertex 128.6973270472168 5.9 0.54
  endloop
 endfacet
 facet normal 0.0 -0.0 1.0
  outer loop
   vertex 128.6973270472168 10.1 0.54
   vertex 130.79362938429423 16.0 0.54
   vertex 128.69430180108353 13.899000000000001 0.54
  endloop
 endfacet
 facet normal 0.0 0.0 1.0
  outer loop
   vertex 128.69430180108353 13.899000000000001 0.54
   vertex 118.4930861384644 16.0 0.54
   vertex 124.11595521713684 13.899000000000001 0.54
  endloop
 endfacet
 facet normal 0.9999996829318346 -0.0007963267107332662 0.0
  outer loop
   vertex 2.099328379537658 5.9 0
   vertex 2.099328379537658 5.9 0.54
   vertex 2.096303133404373 2.101 0
  endloop
 endfacet
 facet normal 0.9999996829318346 -0.0007963267107332662 0.0
  outer loop
   vertex 2.096303133404373 2.101 0
   vertex 2.099328379537658 5.9 0.54
   vertex 2.096303133404373 2.101 0.54
  endloop
 endfacet
 facet normal 0.0 1.0 0.0
  outer loop
   vertex 2.096303133404373 2.101 0
   vertex 2.096303133404373 2.101 0.54
   vertex 7.929481154493995 2.101 0
  endloop
 endfacet
 facet normal 0.0 1.0 -0.0
  outer loop
   vertex 7.929481154493995 2.101 0
   vertex 2.096303133404373 2.101 0.54
   vertex 7.929481154493995 2.101 0.54
  endloop
 endfacet
 facet normal -0.7068251811053661 -0.7073882691671997 0.0
  outer loop
   vertex 7.929481154493995 2.101 0
   vertex 7.929481154493995 2.101 0.54
   vertex 4.127454703818369 5.9 0
  endloop
 endfacet
 facet normal -0.7068251811053661 -0.7073882691671997 0.0
  outer loop
   vertex 4.127454703818369 5.9 0
   vertex 7.929481154493995 2.101 0.54
   vertex 4.127454703818369 5.9 0.54
  endloop
 endfacet
 facet normal 0.0 -1.0 0.0
  outer loop
   vertex 4.127454703818369 5.9 0
   vertex 4.127454703818369 5.9 0.54
   vertex 2.099328379537658 5.9 0
  endloop
 endfacet
 facet normal 0.0 -1.0 0.0
  outer loop
   vertex 2.099328379537658 5.9 0
   vertex 4.127454703818369 5.9 0.54
   vertex 2.099328379537658 5.9 0.54
  endloop
 endfacet
 facet normal -0.706825181105366 0.7073882691671995 0.0
  outer loop
   vertex 4.127454703818369 10.1 0
   vertex 4.127454703818369 10.1 0.54
   vertex 7.929481154493996 13.899000000000001 0
  endloop
 endfacet
 facet normal -0.706825181105366 0.7073882691671995 0.0
  outer loop
   vertex 7.929481154493996 13.899000000000001 0
   vertex 4.127454703818369 10.1 0.54
   vertex 7.929481154493996 13.899000000000001 0.54
  endloop
 endfacet
 facet normal 0.0 -1.0 0.0
  outer loop
   vertex 7.929481154493996 13.899000000000001 0
   vertex 7.929481154493996 13.899000000000001 0.54
   vertex 2.096303133404373 13.899000000000001 0
  endloop
 endfacet
 facet normal 0.0 -1.0 0.0
  outer loop
   vertex 2.096303133404373 13.899000000000001 0
   vertex 7.929481154493996 13.899000000000001 0.54
   vertex 2.096303133404373 13.899000000000001 0.54
  endloop
 endfacet
 facet normal 0.9999996829318346 0.000796326710733266 -0.0
  outer loop
   vertex 2.096303133404373 13.899000000000001 0
   vertex 2.096303133404373 13.899000000000001 0.54
   vertex 2.099328379537658 10.1 0
  endloop
 endfacet
 facet normal 0.9999996829318346 0.000796326710733266 -0.0
  outer loop
   vertex 2.099328379537658 10.1 0
   vertex 2.096303133404373 13.899000000000001 0.54
   vertex 2.099328379537658 10.1 0.54
  endloop
 endfacet
 facet normal 0.0 1.0 0.0
  outer loop
   vertex 2.099328379537658 10.1 0
   vertex 2.099328379537658 10.1 0.54
   vertex 4.127454703818369 10.1 0
  endloop
 endfacet
 facet normal 0.0 1.0 -0.0
  outer loop
   vertex 4.127454703818369 10.1 0
   vertex 2.099328379537658 10.1 0.54
   vertex 4.127454703818369 10.1 0.54
  endloop
 endfacet
 facet normal 0.7068251811053661 0.7073882691671997 -0.0
  outer loop
   vertex 10.06951804886197 5.9 0
   vertex 10.06951804886197 5.9 0.54
   vertex 13.871544499537597 2.101 0
  endloop
 endfacet
 facet normal 0.7068251811053661 0.7073882691671997 -0.0
  outer loop
   vertex 13.871544499537597 2.101 0
   vertex 10.06951804886197 5.9 0.54
   vertex 13.871544499537597 2.101 0.54
  endloop
 endfacet
 facet normal 0.0 1.0 0.0
  outer loop
   vertex 13.871544499537597 2.101 0
   vertex 13.871544499537597 2.101 0.54
   vertex 22.1284555004624 2.101 0
  endloop
 endfacet
 facet normal 0.0 1.0 -0.0
  outer loop
   vertex 22.1284555004624 2.101 0
   vertex 13.871544499537597 2.101 0.54
   vertex 22.1284555004624 2.101 0.54
  endloop
 endfacet
 facet normal -0.7068251811053657 0.7073882691671999 0.0
  outer loop
   vertex 22.1284555004624 2.101 0
   vertex 22.1284555004624 2.101 0.54
   vertex 25.93048195113803 5.9 0
  endloop
 endfacet
 facet normal -0.7068251811053657 0.7073882691671999 0.0
  outer loop
   vertex 25.93048195113803 5.9 0
   vertex 22.1284555004624 2.101 0.54
   vertex 25.93048195113803 5.9 0.54
  endloop
 endfacet
 facet normal 0.0 -1.0 0.0
  outer loop
   vertex 25.93048195113803 5.9 0
   vertex 25.93048195113803 5.9 0.54
   vertex 10.06951804886197 5.9 0
  endloop
 endfacet
 facet normal 0.0 -1.0 0.0
  outer loop
   vertex 10.06951804886197 5.9 0
   vertex 25.93048195113803 5.9 0.54
   vertex 10.06951804886197 5.9 0.54
  endloop
 endfacet
 facet normal -0.7068251811053662 -0.7073882691671997 0.0
  outer loop
   vertex 25.93048195113803 10.1 0
   vertex 25.93048195113803 10.1 0.54
   vertex 22.128455500462405 13.899000000000001 0
  endloop
 endfacet
 facet normal -0.7068251811053662 -0.7073882691671997 0.0
  outer loop
   vertex 22.128455500462405 13.899000000000001 0
   vertex 25.93048195113803 10.1 0.54
   vertex 22.128455500462405 13.899000000000001 0.54
  endloop
 endfacet
 facet normal 0.0 -1.0 0.0
  outer loop
   vertex 22.128455500462405 13.899000000000001 0
   vertex 22.128455500462405 13.899000000000001 0.54
   vertex 13.871544499537595 13.899000000000001 0
  endloop
 endfacet
 facet normal 0.0 -1.0 0.0
  outer loop
   vertex 13.871544499537595 13.899000000000001 0
   vertex 22.128455500462405 13.899000000000001 0.54
   vertex 13.871544499537595 13.899000000000001 0.54
  endloop
 endfacet
 facet normal 0.7068251811053662 -0.7073882691671997 0.0
  outer loop
   vertex 13.871544499537595 13.899000000000001 0
   vertex 13.871544499537595 13.899000000000001 0.54
   vertex 10.069518048861969 10.1 0
  endloop
 endfacet
 facet normal 0.7068251811053662 -0.7073882691671997 0.0
  outer loop
   vertex 10.069518048861969 10.1 0
   vertex 13.871544499537595 13.899000000000001 0.54
   vertex 10.069518048861969 10.1 0.54
  endloop
 endfacet
 facet normal 0.0 1.0 0.0
  outer loop
   vertex 10.069518048861969 10.1 0
   vertex 10.069518048861969 10.1 0.54
   vertex 25.93048195113803 10.1 0
  endloop
 endfacet
 facet normal 0.0 1.0 -0.0
  outer loop
   vertex 25.93048195113803 10.1 0
   vertex 10.069518048861969 10.1 0.54
   vertex 25.93048195113803 10.1 0.54
  endloop
 endfacet
 facet normal 0.7068251811053661 -0.7073882691671997 0.0
  outer loop
   vertex 31.872545296181627 5.9 0
   vertex 31.872545296181627 5.9 0.54
   vertex 28.070518845506 2.101 0
  endloop
 endfacet
 facet normal 0.7068251811053661 -0.7073882691671997 0.0
  outer loop
   vertex 28.070518845506 2.101 0
   vertex 31.872545296181627 5.9 0.54
   vertex 28.070518845506 2.101 0.54
  endloop
 endfacet
 facet normal 0.0 1.0 0.0
  outer loop
   vertex 28.070518845506 2.101 0
   vertex 28.070518845506 2.101 0.54
   vertex 33.008583204579004 2.101 0
  endloop
 endfacet
 facet normal 0.0 1.0 -0.0
  outer loop
   vertex 33.008583204579004 2.101 0
   vertex 28.070518845506 2.101 0.54
   vertex 33.008583204579004 2.101 0.54
  endloop
 endfacet
 facet normal -0.9320390859672267 0.3623577544766728 0.0
  outer loop
   vertex 33.008583204579004 2.101 0
   vertex 33.008583204579004 2.101 0.54
   vertex 34.48555678860881 5.9 0
  endloop
 endfacet
 facet normal -0.9320390859672267 0.3623577544766728 0.0
  outer loop
   vertex 34.48555678860881 5.9 0
   vertex 33.008583204579004 2.101 0.54
   vertex 34.48555678860881 5.9 0.54
  endloop
 endfacet
 facet normal 0.0 -1.0 0.0
  outer loop
   vertex 34.48555678860881 5.9 0
   vertex 34.48555678860881 5.9 0.54
   vertex 31.872545296181627 5.9 0
  endloop
 endfacet
 facet normal 0.0 -1.0 0.0
  outer loop
   vertex 31.872545296181627 5.9 0
   vertex 34.48555678860881 5.9 0.54
   vertex 31.872545296181627 5.9 0.54
  endloop
 endfacet
 facet normal -0.9320390859672267 -0.36235775447667273 0.0
  outer loop
   vertex 34.48555678860881 10.1 0
   vertex 34.48555678860881 10.1 0.54
   vertex 33.008583204579004 13.899000000000001 0
  endloop
 endfacet
 facet normal -0.9320390859672267 -0.36235775447667273 0.0
  outer loop
   vertex 33.008583204579004 13.899000000000001 0
   vertex 34.48555678860881 10.1 0.54
   vertex 33.008583204579004 13.899000000000001 0.54
  endloop
 endfacet
 facet normal 0.0 -1.0 0.0
  outer loop
   vertex 33.008583204579004 13.899000000000001 0
   vertex 33.008583204579004 13.899000000000001 0.54
   vertex 28.070518845506005 13.899000000000001 0
  endloop
 endfacet
 facet normal 0.0 -1.0 0.0
  outer loop
   vertex 28.070518845506005 13.899000000000001 0
   vertex 33.008583204579004 13.899000000000001 0.54
   vertex 28.070518845506005 13.899000000000001 0.54
  endloop
 endfacet
 facet normal 0.7068251811053665 0.7073882691671992 -0.0
  outer loop
   vertex 28.070518845506005 13.899000000000001 0
   vertex 28.070518845506005 13.899000000000001 0.54
   vertex 31.872545296181627 10.1 0
  endloop
 endfacet
 facet normal 0.7068251811053665 0.7073882691671992 -0.0
  outer loop
   vertex 31.872545296181627 10.1 0
   vertex 28.070518845506005 13.899000000000001 0.54
   vertex 31.872545296181627 10.1 0.54
  endloop
 endfacet
 facet normal 0.0 1.0 0.0
  outer loop
   vertex 31.872545296181627 10.1 0
   vertex 31.872545296181627 10.1 0.54
   vertex 34.48555678860881 10.1 0
  endloop
 endfacet
 facet normal 0.0 1.0 -0.0
  outer loop
   vertex 34.48555678860881 10.1 0
   vertex 31.872545296181627 10.1 0.54
   vertex 34.48555678860881 10.1 0.54
  endloop
 endfacet
 facet normal 0.9320390859672262 -0.3623577544766743 0.0
  outer loop
   vertex 38.99180557499038 5.9 0
   vertex 38.99180557499038 5.9 0.54
   vertex 37.514831990960566 2.101 0
  endloop
 endfacet
 facet normal 0.9320390859672262 -0.3623577544766743 0.0
  outer loop
   vertex 37.514831990960566 2.101 0
   vertex 38.99180557499038 5.9 0.54
   vertex 37.514831990960566 2.101 0.54
  endloop
 endfacet
 facet normal 0.0 1.0 0.0
  outer loop
   vertex 37.514831990960566 2.101 0
   vertex 37.514831990960566 2.101 0.54
   vertex 40.1036948317142 2.101 0
  endloop
 endfacet
 facet normal 0.0 1.0 -0.0
  outer loop
   vertex 40.1036948317142 2.101 0
   vertex 37.514831990960566 2.101 0.54
   vertex 40.1036948317142 2.101 0.54
  endloop
 endfacet
 facet normal -0.5188455893298325 0.8548679748551695 0.0
  outer loop
   vertex 40.1036948317142 2.101 0
   vertex 40.1036948317142 2.101 0.54
   vertex 46.36305889544193 5.9 0
  endloop
 endfacet
 facet normal -0.5188455893298325 0.8548679748551695 0.0
  outer loop
   vertex 46.36305889544193 5.9 0
   vertex 40.1036948317142 2.101 0.54
   vertex 46.36305889544193 5.9 0.54
  endloop
 endfacet
 facet normal 0.0 -1.0 0.0
  outer loop
   vertex 46.36305889544193 5.9 0
   vertex 46.36305889544193 5.9 0.54
   vertex 38.99180557499038 5.9 0
  endloop
 endfacet
 facet normal 0.0 -1.0 0.0
  outer loop
   vertex 38.99180557499038 5.9 0
   vertex 46.36305889544193 5.9 0.54
   vertex 38.99180557499038 5.9 0.54
  endloop
 endfacet
 facet normal -0.5188455893298326 -0.8548679748551694 0.0
  outer loop
   vertex 46.36305889544193 10.1 0
   vertex 46.36305889544193 10.1 0.54
   vertex 40.1036948317142 13.899000000000001 0
  endloop
 endfacet
 facet normal -0.5188455893298326 -0.8548679748551694 0.0
  outer loop
   vertex 40.1036948317142 13.899000000000001 0
   vertex 46.36305889544193 10.1 0.54
   vertex 40.1036948317142 13.899000000000001 0.54
  endloop
 endfacet
 facet normal 0.0 -1.0 0.0
  outer loop
   vertex 40.1036948317142 13.899000000000001 0
   vertex 40.1036948317142 13.899000000000001 0.54
   vertex 37.514831990960566 13.899000000000001 0
  endloop
 endfacet
 facet normal 0.0 -1.0 0.0
  outer loop
   vertex 37.514831990960566 13.899000000000001 0
   vertex 40.1036948317142 13.899000000000001 0.54
   vertex 37.514831990960566 13.899000000000001 0.54
  endloop
 endfacet
 facet normal 0.9320390859672262 0.3623577544766742 -0.0
  outer loop
   vertex 37.514831990960566 13.899000000000001 0
   vertex 37.514831990960566 13.899000000000001 0.54
   vertex 38.99180557499038 10.1 0
  endloop
 endfacet
 facet normal 0.9320390859672262 0.3623577544766742 -0.0
  outer loop
   vertex 38.99180557499038 10.1 0
   vertex 37.514831990960566 13.899000000000001 0.54
   vertex 38.99180557499038 10.1 0.54
  endloop
 endfacet
 facet normal 0.0 1.0 0.0
  outer loop
   vertex 38.99180557499038 10.1 0
   vertex 38.99180557499038 10.1 0.54
   vertex 46.36305889544193 10.1 0
  endloop
 endfacet
 facet normal 0.0 1.0 -0.0
  outer loop
   vertex 46.36305889544193 10.1 0
   vertex 38.99180557499038 10.1 0.54
   vertex 46.36305889544193 10.1 0.54
  endloop
 endfacet
 facet normal 0.5188455893298325 -0.8548679748551695 0.0
  outer loop
   vertex 54.457952802943275 5.9 0
   vertex 54.457952802943275 5.9 0.54
   vertex 48.198588739215545 2.101 0
  endloop
 endfacet
 facet normal 0.5188455893298325 -0.8548679748551695 0.0
  outer loop
   vertex 48.198588739215545 2.101 0
   vertex 54.457952802943275 5.9 0.54
   vertex 48.198588739215545 2.101 0.54
  endloop
 endfacet
 facet normal 0.0 1.0 0.0
  outer loop
   vertex 48.198588739215545 2.101 0
   vertex 48.198588739215545 2.101 0.54
   vertex 65.80519679435022 2.101 0
  endloop
 endfacet
 facet normal 0.0 1.0 -0.0
  outer loop
   vertex 65.80519679435022 2.101 0
   vertex 48.198588739215545 2.101 0.54
   vertex 65.80519679435022 2.101 0.54
  endloop
 endfacet
 facet normal -0.6087626432369813 -0.7933524085796448 0.0
  outer loop
   vertex 65.80519679435022 2.101 0
   vertex 65.80519679435022 2.101 0.54
   vertex 60.854259292390545 5.9 0
  endloop
 endfacet
 facet normal -0.6087626432369813 -0.7933524085796448 0.0
  outer loop
   vertex 60.854259292390545 5.9 0
   vertex 65.80519679435022 2.101 0.54
   vertex 60.854259292390545 5.9 0.54
  endloop
 endfacet
 facet normal 0.0 -1.0 0.0
  outer loop
   vertex 60.854259292390545 5.9 0
   vertex 60.854259292390545 5.9 0.54
   vertex 54.457952802943275 5.9 0
  endloop
 endfacet
 facet normal 0.0 -1.0 0.0
  outer loop
   vertex 54.457952802943275 5.9 0
   vertex 60.854259292390545 5.9 0.54
   vertex 54.457952802943275 5.9 0.54
  endloop
 endfacet
 facet normal -0.6087626432369815 0.7933524085796448 0.0
  outer loop
   vertex 60.854259292390545 10.1 0
   vertex 60.854259292390545 10.1 0.54
   vertex 65.80519679435022 13.899000000000001 0
  endloop
 endfacet
 facet normal -0.6087626432369815 0.7933524085796448 0.0
  outer loop
   vertex 65.80519679435022 13.899000000000001 0
   vertex 60.854259292390545 10.1 0.54
   vertex 65.80519679435022 13.899000000000001 0.54
  endloop
 endfacet
 facet normal 0.0 -1.0 0.0
  outer loop
   vertex 65.80519679435022 13.899000000000001 0
   vertex 65.80519679435022 13.899000000000001 0.54
   vertex 48.19858873921553 13.899000000000001 0
  endloop
 endfacet
 facet normal 0.0 -1.0 0.0
  outer loop
   vertex 48.19858873921553 13.899000000000001 0
   vertex 65.80519679435022 13.899000000000001 0.54
   vertex 48.19858873921553 13.899000000000001 0.54
  endloop
 endfacet
 facet normal 0.5188455893298326 0.8548679748551694 -0.0
  outer loop
   vertex 48.19858873921553 13.899000000000001 0
   vertex 48.19858873921553 13.899000000000001 0.54
   vertex 54.45795280294326 10.1 0
  endloop
 endfacet
 facet normal 0.5188455893298326 0.8548679748551694 -0.0
  outer loop
   vertex 54.45795280294326 10.1 0
   vertex 48.19858873921553 13.899000000000001 0.54
   vertex 54.45795280294326 10.1 0.54
  endloop
 endfacet
 facet normal 0.0 1.0 0.0
  outer loop
   vertex 54.45795280294326 10.1 0
   vertex 54.45795280294326 10.1 0.54
   vertex 60.854259292390545 10.1 0
  endloop
 endfacet
 facet normal 0.0 1.0 -0.0
  outer loop
   vertex 60.854259292390545 10.1 0
   vertex 54.45795280294326 10.1 0.54
   vertex 60.854259292390545 10.1 0.54
  endloop
 endfacet
 facet normal 0.6087626432369818 0.7933524085796444 -0.0
  outer loop
   vertex 67.75349998440686 5.9 0
   vertex 67.75349998440686 5.9 0.54
   vertex 72.70443748636653 2.101 0
  endloop
 endfacet
 facet normal 0.6087626432369818 0.7933524085796444 -0.0
  outer loop
   vertex 72.70443748636653 2.101 0
   vertex 67.75349998440686 5.9 0.54
   vertex 72.70443748636653 2.101 0.54
  endloop
 endfacet
 facet normal 0.0 1.0 0.0
  outer loop
   vertex 72.70443748636653 2.101 0
   vertex 72.70443748636653 2.101 0.54
   vertex 75.50776440736819 2.101 0
  endloop
 endfacet
 facet normal 0.0 1.0 -0.0
  outer loop
   vertex 75.50776440736819 2.101 0
   vertex 72.70443748636653 2.101 0.54
   vertex 75.50776440736819 2.101 0.54
  endloop
 endfacet
 facet normal -0.9065341744009267 -0.42213243258867267 0.0
  outer loop
   vertex 75.50776440736819 2.101 0
   vertex 75.50776440736819 2.101 0.54
   vertex 73.73873996605118 5.9 0
  endloop
 endfacet
 facet normal -0.9065341744009267 -0.42213243258867267 0.0
  outer loop
   vertex 73.73873996605118 5.9 0
   vertex 75.50776440736819 2.101 0.54
   vertex 73.73873996605118 5.9 0.54
  endloop
 endfacet
 facet normal 0.0 -1.0 0.0
  outer loop
   vertex 73.73873996605118 5.9 0
   vertex 73.73873996605118 5.9 0.54
   vertex 67.75349998440686 5.9 0
  endloop
 endfacet
 facet normal 0.0 -1.0 0.0
  outer loop
   vertex 67.75349998440686 5.9 0
   vertex 73.73873996605118 5.9 0.54
   vertex 67.75349998440686 5.9 0.54
  endloop
 endfacet
 facet normal -0.9065341744009267 0.42213243258867256 0.0
  outer loop
   vertex 73.73873996605118 10.1 0
   vertex 73.73873996605118 10.1 0.54
   vertex 75.50776440736819 13.899000000000001 0
  endloop
 endfacet
 facet normal -0.9065341744009267 0.42213243258867256 0.0
  outer loop
   vertex 75.50776440736819 13.899000000000001 0
   vertex 73.73873996605118 10.1 0.54
   vertex 75.50776440736819 13.899000000000001 0.54
  endloop
 endfacet
 facet normal 0.0 -1.0 0.0
  outer loop
   vertex 75.50776440736819 13.899000000000001 0
   vertex 75.50776440736819 13.899000000000001 0.54
   vertex 72.70443748636653 13.899000000000001 0
  endloop
 endfacet
 facet normal 0.0 -1.0 0.0
  outer loop
   vertex 72.70443748636653 13.899000000000001 0
   vertex 75.50776440736819 13.899000000000001 0.54
   vertex 72.70443748636653 13.899000000000001 0.54
  endloop
 endfacet
 facet normal 0.608762643236982 -0.7933524085796444 0.0
  outer loop
   vertex 72.70443748636653 13.899000000000001 0
   vertex 72.70443748636653 13.899000000000001 0.54
   vertex 67.75349998440686 10.1 0
  endloop
 endfacet
 facet normal 0.608762643236982 -0.7933524085796444 0.0
  outer loop
   vertex 67.75349998440686 10.1 0
   vertex 72.70443748636653 13.899000000000001 0.54
   vertex 67.75349998440686 10.1 0.54
  endloop
 endfacet
 facet normal 0.0 1.0 0.0
  outer loop
   vertex 67.75349998440686 10.1 0
   vertex 67.75349998440686 10.1 0.54
   vertex 73.73873996605118 10.1 0
  endloop
 endfacet
 facet normal 0.0 1.0 -0.0
  outer loop
   vertex 73.73873996605118 10.1 0
   vertex 67.75349998440686 10.1 0.54
   vertex 73.73873996605118 10.1 0.54
  endloop
 endfacet
 facet normal 0.9065341744009267 0.42213243258867267 -0.0
  outer loop
   vertex 78.37176993734325 5.9 0
   vertex 78.37176993734325 5.9 0.54
   vertex 80.14079437866025 2.101 0
  endloop
 endfacet
 facet normal 0.9065341744009267 0.42213243258867267 -0.0
  outer loop
   vertex 80.14079437866025 2.101 0
   vertex 78.37176993734325 5.9 0.54
   vertex 80.14079437866025 2.101 0.54
  endloop
 endfacet
 facet normal 0.0 1.0 0.0
  outer loop
   vertex 80.14079437866025 2.101 0
   vertex 80.14079437866025 2.101 0.54
   vertex 85.41668024655597 2.101 0
  endloop
 endfacet
 facet normal 0.0 1.0 -0.0
  outer loop
   vertex 85.41668024655597 2.101 0
   vertex 80.14079437866025 2.101 0.54
   vertex 85.41668024655597 2.101 0.54
  endloop
 endfacet
 facet normal -0.6631354426633496 -0.7484994219661651 0.0
  outer loop
   vertex 85.41668024655597 2.101 0
   vertex 85.41668024655597 2.101 0.54
   vertex 81.1286432617902 5.9 0
  endloop
 endfacet
 facet normal -0.6631354426633496 -0.7484994219661651 0.0
  outer loop
   vertex 81.1286432617902 5.9 0
   vertex 85.41668024655597 2.101 0.54
   vertex 81.1286432617902 5.9 0.54
  endloop
 endfacet
 facet normal 0.0 -1.0 0.0
  outer loop
   vertex 81.1286432617902 5.9 0
   vertex 81.1286432617902 5.9 0.54
   vertex 78.37176993734325 5.9 0
  endloop
 endfacet
 facet normal 0.0 -1.0 0.0
  outer loop
   vertex 78.37176993734325 5.9 0
   vertex 81.1286432617902 5.9 0.54
   vertex 78.37176993734325 5.9 0.54
  endloop
 endfacet
 facet normal -0.6631354426633499 0.748499421966165 0.0
  outer loop
   vertex 81.1286432617902 10.1 0
   vertex 81.1286432617902 10.1 0.54
   vertex 85.41668024655597 13.899000000000003 0
  endloop
 endfacet
 facet normal -0.6631354426633499 0.748499421966165 0.0
  outer loop
   vertex 85.41668024655597 13.899000000000003 0
   vertex 81.1286432617902 10.1 0.54
   vertex 85.41668024655597 13.899000000000003 0.54
  endloop
 endfacet
 facet normal 3.3669356841275773e-16 -1.0 0.0
  outer loop
   vertex 85.41668024655597 13.899000000000003 0
   vertex 85.41668024655597 13.899000000000003 0.54
   vertex 80.14079437866025 13.899000000000001 0
  endloop
 endfacet
 facet normal 3.3669356841275773e-16 -1.0 0.0
  outer loop
   vertex 80.14079437866025 13.899000000000001 0
   vertex 85.41668024655597 13.899000000000003 0.54
   vertex 80.14079437866025 13.899000000000001 0.54
  endloop
 endfacet
 facet normal 0.9065341744009267 -0.42213243258867256 0.0
  outer loop
   vertex 80.14079437866025 13.899000000000001 0
   vertex 80.14079437866025 13.899000000000001 0.54
   vertex 78.37176993734325 10.1 0
  endloop
 endfacet
 facet normal 0.9065341744009267 -0.42213243258867256 0.0
  outer loop
   vertex 78.37176993734325 10.1 0
   vertex 80.14079437866025 13.899000000000001 0.54
   vertex 78.37176993734325 10.1 0.54
  endloop
 endfacet
 facet normal 0.0 1.0 0.0
  outer loop
   vertex 78.37176993734325 10.1 0
   vertex 78.37176993734325 10.1 0.54
   vertex 81.1286432617902 10.1 0
  endloop
 endfacet
 facet normal 0.0 1.0 -0.0
  outer loop
   vertex 81.1286432617902 10.1 0
   vertex 78.37176993734325 10.1 0.54
   vertex 81.1286432617902 10.1 0.54
  endloop
 endfacet
 facet normal 0.6631354426633496 0.7484994219661651 -0.0
  outer loop
   vertex 87.46219102562492 5.9 0
   vertex 87.46219102562492 5.9 0.54
   vertex 91.75022801039069 2.101 0
  endloop
 endfacet
 facet normal 0.6631354426633496 0.7484994219661651 -0.0
  outer loop
   vertex 91.75022801039069 2.101 0
   vertex 87.46219102562492 5.9 0.54
   vertex 91.75022801039069 2.101 0.54
  endloop
 endfacet
 facet normal 0.0 1.0 0.0
  outer loop
   vertex 91.75022801039069 2.101 0
   vertex 91.75022801039069 2.101 0.54
   vertex 98.21877981613699 2.101 0
  endloop
 endfacet
 facet normal 0.0 1.0 -0.0
  outer loop
   vertex 98.21877981613699 2.101 0
   vertex 91.75022801039069 2.101 0.54
   vertex 98.21877981613699 2.101 0.54
  endloop
 endfacet
 facet normal -0.5850972729404622 0.8109631195052178 0.0
  outer loop
   vertex 98.21877981613699 2.101 0
   vertex 98.21877981613699 2.101 0.54
   vertex 103.48431263176134 5.9 0
  endloop
 endfacet
 facet normal -0.5850972729404622 0.8109631195052178 0.0
  outer loop
   vertex 103.48431263176134 5.9 0
   vertex 98.21877981613699 2.101 0.54
   vertex 103.48431263176134 5.9 0.54
  endloop
 endfacet
 facet normal 0.0 -1.0 0.0
  outer loop
   vertex 103.48431263176134 5.9 0
   vertex 103.48431263176134 5.9 0.54
   vertex 87.46219102562492 5.9 0
  endloop
 endfacet
 facet normal 0.0 -1.0 0.0
  outer loop
   vertex 87.46219102562492 5.9 0
   vertex 103.48431263176134 5.9 0.54
   vertex 87.46219102562492 5.9 0.54
  endloop
 endfacet
 facet normal -0.5850972729404623 -0.8109631195052178 0.0
  outer loop
   vertex 103.48431263176134 10.1 0
   vertex 103.48431263176134 10.1 0.54
   vertex 98.21877981613699 13.899000000000001 0
  endloop
 endfacet
 facet normal -0.5850972729404623 -0.8109631195052178 0.0
  outer loop
   vertex 98.21877981613699 13.899000000000001 0
   vertex 103.48431263176134 10.1 0.54
   vertex 98.21877981613699 13.899000000000001 0.54
  endloop
 endfacet
 facet normal -2.746143020486029e-16 -1.0 0.0
  outer loop
   vertex 98.21877981613699 13.899000000000001 0
   vertex 98.21877981613699 13.899000000000001 0.54
   vertex 91.75022801039069 13.899000000000003 0
  endloop
 endfacet
 facet normal -2.746143020486029e-16 -1.0 0.0
  outer loop
   vertex 91.75022801039069 13.899000000000003 0
   vertex 98.21877981613699 13.899000000000001 0.54
   vertex 91.75022801039069 13.899000000000003 0.54
  endloop
 endfacet
 facet normal 0.6631354426633499 -0.748499421966165 0.0
  outer loop
   vertex 91.75022801039069 13.899000000000003 0
   vertex 91.75022801039069 13.899000000000003 0.54
   vertex 87.46219102562492 10.1 0
  endloop
 endfacet
 facet normal 0.6631354426633499 -0.748499421966165 0.0
  outer loop
   vertex 87.46219102562492 10.1 0
   vertex 91.75022801039069 13.899000000000003 0.54
   vertex 87.46219102562492 10.1 0.54
  endloop
 endfacet
 facet normal 0.0 1.0 0.0
  outer loop
   vertex 87.46219102562492 10.1 0
   vertex 87.46219102562492 10.1 0.54
   vertex 103.48431263176134 10.1 0
  endloop
 endfacet
 facet normal 0.0 1.0 -0.0
  outer loop
   vertex 103.48431263176134 10.1 0
   vertex 87.46219102562492 10.1 0.54
   vertex 103.48431263176134 10.1 0.54
  endloop
 endfacet
 facet normal 0.5850972729404611 -0.8109631195052186 0.0
  outer loop
   vertex 110.6626062151385 5.9 0
   vertex 110.6626062151385 5.9 0.54
   vertex 105.39707339951413 2.101 0
  endloop
 endfacet
 facet normal 0.5850972729404611 -0.8109631195052186 0.0
  outer loop
   vertex 105.39707339951413 2.101 0
   vertex 110.6626062151385 5.9 0.54
   vertex 105.39707339951413 2.101 0.54
  endloop
 endfacet
 facet normal 0.0 1.0 0.0
  outer loop
   vertex 105.39707339951413 2.101 0
   vertex 105.39707339951413 2.101 0.54
   vertex 111.59338579130132 2.101 0
  endloop
 endfacet
 facet normal 0.0 1.0 -0.0
  outer loop
   vertex 111.59338579130132 2.101 0
   vertex 105.39707339951413 2.101 0.54
   vertex 111.59338579130132 2.101 0.54
  endloop
 endfacet
 facet normal -0.9635581854171938 0.26749882862458435 0.0
  outer loop
   vertex 111.59338579130132 2.101 0
   vertex 111.59338579130132 2.101 0.54
   vertex 112.64804763251104 5.9 0
  endloop
 endfacet
 facet normal -0.9635581854171938 0.26749882862458435 0.0
  outer loop
   vertex 112.64804763251104 5.9 0
   vertex 111.59338579130132 2.101 0.54
   vertex 112.64804763251104 5.9 0.54
  endloop
 endfacet
 facet normal 0.0 -1.0 0.0
  outer loop
   vertex 112.64804763251104 5.9 0
   vertex 112.64804763251104 5.9 0.54
   vertex 110.6626062151385 5.9 0
  endloop
 endfacet
 facet normal 0.0 -1.0 0.0
  outer loop
   vertex 110.6626062151385 5.9 0
   vertex 112.64804763251104 5.9 0.54
   vertex 110.6626062151385 5.9 0.54
  endloop
 endfacet
 facet normal -0.9635581854171938 -0.2674988286245843 0.0
  outer loop
   vertex 112.64804763251104 10.1 0
   vertex 112.64804763251104 10.1 0.54
   vertex 111.59338579130132 13.899000000000001 0
  endloop
 endfacet
 facet normal -0.9635581854171938 -0.2674988286245843 0.0
  outer loop
   vertex 111.59338579130132 13.899000000000001 0
   vertex 112.64804763251104 10.1 0.54
   vertex 111.59338579130132 13.899000000000001 0.54
  endloop
 endfacet
 facet normal 0.0 -1.0 0.0
  outer loop
   vertex 111.59338579130132 13.899000000000001 0
   vertex 111.59338579130132 13.899000000000001 0.54
   vertex 105.39707339951413 13.899000000000001 0
  endloop
 endfacet
 facet normal 0.0 -1.0 0.0
  outer loop
   vertex 105.39707339951413 13.899000000000001 0
   vertex 111.59338579130132 13.899000000000001 0.54
   vertex 105.39707339951413 13.899000000000001 0.54
  endloop
 endfacet
 facet normal 0.5850972729404612 0.8109631195052186 -0.0
  outer loop
   vertex 105.39707339951413 13.899000000000001 0
   vertex 105.39707339951413 13.899000000000001 0.54
   vertex 110.6626062151385 10.1 0
  endloop
 endfacet
 facet normal 0.5850972729404612 0.8109631195052186 -0.0
  outer loop
   vertex 110.6626062151385 10.1 0
   vertex 105.39707339951413 13.899000000000001 0.54
   vertex 110.6626062151385 10.1 0.54
  endloop
 endfacet
 facet normal 0.0 1.0 0.0
  outer loop
   vertex 110.6626062151385 10.1 0
   vertex 110.6626062151385 10.1 0.54
   vertex 112.64804763251104 10.1 0
  endloop
 endfacet
 facet normal 0.0 1.0 -0.0
  outer loop
   vertex 112.64804763251104 10.1 0
   vertex 110.6626062151385 10.1 0.54
   vertex 112.64804763251104 10.1 0.54
  endloop
 endfacet
 facet normal 0.963558185417193 -0.2674988286245877 0.0
  outer loop
   vertex 117.0068918243452 5.9 0
   vertex 117.0068918243452 5.9 0.54
   vertex 115.95222998313547 2.101 0
  endloop
 endfacet
 facet normal 0.963558185417193 -0.2674988286245877 0.0
  outer loop
   vertex 115.95222998313547 2.101 0
   vertex 117.0068918243452 5.9 0.54
   vertex 115.95222998313547 2.101 0.54
  endloop
 endfacet
 facet normal 0.0 1.0 0.0
  outer loop
   vertex 115.95222998313547 2.101 0
   vertex 115.95222998313547 2.101 0.54
   vertex 117.70978007133508 2.101 0
  endloop
 endfacet
 facet normal 0.0 1.0 -0.0
  outer loop
   vertex 117.70978007133508 2.101 0
   vertex 115.95222998313547 2.101 0.54
   vertex 117.70978007133508 2.101 0.54
  endloop
 endfacet
 facet normal -0.6556174166971402 0.7550932412115529 0.0
  outer loop
   vertex 117.70978007133508 2.101 0
   vertex 117.70978007133508 2.101 0.54
   vertex 122.0851965113285 5.9 0
  endloop
 endfacet
 facet normal -0.6556174166971402 0.7550932412115529 0.0
  outer loop
   vertex 122.0851965113285 5.9 0
   vertex 117.70978007133508 2.101 0.54
   vertex 122.0851965113285 5.9 0.54
  endloop
 endfacet
 facet normal 0.0 -1.0 0.0
  outer loop
   vertex 122.0851965113285 5.9 0
   vertex 122.0851965113285 5.9 0.54
   vertex 117.0068918243452 5.9 0
  endloop
 endfacet
 facet normal 0.0 -1.0 0.0
  outer loop
   vertex 117.0068918243452 5.9 0
   vertex 122.0851965113285 5.9 0.54
   vertex 117.0068918243452 5.9 0.54
  endloop
 endfacet
 facet normal -0.6556174166971402 -0.7550932412115527 0.0
  outer loop
   vertex 122.0851965113285 10.1 0
   vertex 122.0851965113285 10.1 0.54
   vertex 117.70978007133508 13.899000000000001 0
  endloop
 endfacet
 facet normal -0.6556174166971402 -0.7550932412115527 0.0
  outer loop
   vertex 117.70978007133508 13.899000000000001 0
   vertex 122.0851965113285 10.1 0.54
   vertex 117.70978007133508 13.899000000000001 0.54
  endloop
 endfacet
 facet normal 0.0 -1.0 0.0
  outer loop
   vertex 117.70978007133508 13.899000000000001 0
   vertex 117.70978007133508 13.899000000000001 0.54
   vertex 115.95222998313547 13.899000000000001 0
  endloop
 endfacet
 facet normal 0.0 -1.0 0.0
  outer loop
   vertex 115.95222998313547 13.899000000000001 0
   vertex 117.70978007133508 13.899000000000001 0.54
   vertex 115.95222998313547 13.899000000000001 0.54
  endloop
 endfacet
 facet normal 0.963558185417193 0.2674988286245876 -0.0
  outer loop
   vertex 115.95222998313547 13.899000000000001 0
   vertex 115.95222998313547 13.899000000000001 0.54
   vertex 117.0068918243452 10.1 0
  endloop
 endfacet
 facet normal 0.963558185417193 0.2674988286245876 -0.0
  outer loop
   vertex 117.0068918243452 10.1 0
   vertex 115.95222998313547 13.899000000000001 0.54
   vertex 117.0068918243452 10.1 0.54
  endloop
 endfacet
 facet normal 0.0 1.0 0.0
  outer loop
   vertex 117.0068918243452 10.1 0
   vertex 117.0068918243452 10.1 0.54
   vertex 122.0851965113285 10.1 0
  endloop
 endfacet
 facet normal 0.0 1.0 -0.0
  outer loop
   vertex 122.0851965113285 10.1 0
   vertex 117.0068918243452 10.1 0.54
   vertex 122.0851965113285 10.1 0.54
  endloop
 endfacet
 facet normal 0.6556174166971389 -0.755093241211554 0.0
  outer loop
   vertex 128.4913716571303 5.9 0
   vertex 128.4913716571303 5.9 0.54
   vertex 124.11595521713684 2.101 0
  endloop
 endfacet
 facet normal 0.6556174166971389 -0.755093241211554 0.0
  outer loop
   vertex 124.11595521713684 2.101 0
   vertex 128.4913716571303 5.9 0.54
   vertex 124.11595521713684 2.101 0.54
  endloop
 endfacet
 facet normal 0.0 1.0 0.0
  outer loop
   vertex 124.11595521713684 2.101 0
   vertex 124.11595521713684 2.101 0.54
   vertex 128.69430180108353 2.101 0
  endloop
 endfacet
 facet normal 0.0 1.0 -0.0
  outer loop
   vertex 128.69430180108353 2.101 0
   vertex 124.11595521713684 2.101 0.54
   vertex 128.69430180108353 2.101 0.54
  endloop
 endfacet
 facet normal -0.9999996829318346 0.0007963267107273045 0.0
  outer loop
   vertex 128.69430180108353 2.101 0
   vertex 128.69430180108353 2.101 0.54
   vertex 128.6973270472168 5.9 0
  endloop
 endfacet
 facet normal -0.9999996829318346 0.0007963267107273045 0.0
  outer loop
   vertex 128.6973270472168 5.9 0
   vertex 128.69430180108353 2.101 0.54
   vertex 128.6973270472168 5.9 0.54
  endloop
 endfacet
 facet normal 0.0 -1.0 0.0
  outer loop
   vertex 128.6973270472168 5.9 0
   vertex 128.6973270472168 5.9 0.54
   vertex 128.4913716571303 5.9 0
  endloop
 endfacet
 facet normal 0.0 -1.0 0.0
  outer loop
   vertex 128.4913716571303 5.9 0
   vertex 128.6973270472168 5.9 0.54
   vertex 128.4913716571303 5.9 0.54
  endloop
 endfacet
 facet normal -0.9999996829318346 -0.0007963267107273042 0.0
  outer loop
   vertex 128.6973270472168 10.1 0
   vertex 128.6973270472168 10.1 0.54
   vertex 128.69430180108353 13.899000000000001 0
  endloop
 endfacet
 facet normal -0.9999996829318346 -0.0007963267107273042 0.0
  outer loop
   vertex 128.69430180108353 13.899000000000001 0
   vertex 128.6973270472168 10.1 0.54
   vertex 128.69430180108353 13.899000000000001 0.54
  endloop
 endfacet
 facet normal 0.0 -1.0 0.0
  outer loop
   vertex 128.69430180108353 13.899000000000001 0
   vertex 128.69430180108353 13.899000000000001 0.54
   vertex 124.11595521713684 13.899000000000001 0
  endloop
 endfacet
 facet normal 0.0 -1.0 0.0
  outer loop
   vertex 124.11595521713684 13.899000000000001 0
   vertex 128.69430180108353 13.899000000000001 0.54
   vertex 124.11595521713684 13.899000000000001 0.54
  endloop
 endfacet
 facet normal 0.655617416697139 0.755093241211554 -0.0
  outer loop
   vertex 124.11595521713684 13.899000000000001 0
   vertex 124.11595521713684 13.899000000000001 0.54
   vertex 128.4913716571303 10.1 0
  endloop
 endfacet
 facet normal 0.655617416697139 0.755093241211554 -0.0
  outer loop
   vertex 128.4913716571303 10.1 0
   vertex 124.11595521713684 13.899000000000001 0.54
   vertex 128.4913716571303 10.1 0.54
  endloop
 endfacet
 facet normal 0.0 1.0 0.0
  outer loop
   vertex 128.4913716571303 10.1 0
   vertex 128.4913716571303 10.1 0.54
   vertex 128.6973270472168 10.1 0
  endloop
 endfacet
 facet normal 0.0 1.0 -0.0
  outer loop
   vertex 128.6973270472168 10.1 0
   vertex 128.4913716571303 10.1 0.54
   vertex 128.6973270472168 10.1 0.54
  endloop
 endfacet
endsolid
