solid PyGamic generated __All_Crease__ SLA File
 facet normal 0.0 0.0 -1.0
  outer loop
   vertex 17.996813423874045 0.0 0
   vertex -0.006370615705785541 0.0 0
   vertex 2.1563509320462626 2.161 0
  endloop
 endfacet
 facet normal 0.0 0.0 -1.0
  outer loop
   vertex -0.006370615705785541 0.0 0
   vertex 0.0 8.0 0
   vertex 2.159280618943961 5.84 0
  endloop
 endfacet
 facet normal 0.0 0.0 -1.0
  outer loop
   vertex 0.0 8.0 0
   vertex -0.006370615705785541 16.0 0
   vertex 2.159280618943961 5.84 0
  endloop
 endfacet
 facet normal 0.0 0.0 -1.0
  outer loop
   vertex -0.006370615705785541 16.0 0
   vertex 17.996813423874045 16.0 0
   vertex 17.103616679889384 13.839 0
  endloop
 endfacet
 facet normal 0.0 0.0 -1.0
  outer loop
   vertex 17.996813423874045 16.0 0
   vertex 25.783875698912077 16.0 0
   vertex 25.052318003484128 13.838999999999999 0
  endloop
 endfacet
 facet normal 0.0 0.0 -1.0
  outer loop
   vertex 25.783875698912077 16.0 0
   vertex 50.73604424310913 16.0 0
   vertex 44.36951053839061 13.839 0
  endloop
 endfacet
 facet normal 0.0 0.0 -1.0
  outer loop
   vertex 50.73604424310913 16.0 0
   vertex 58.52218548283343 16.0 0
   vertex 53.305391035479545 13.839 0
  endloop
 endfacet
 facet normal 0.0 -0.0 -1.0
  outer loop
   vertex 58.52218548283343 16.0 0
   vertex 61.51981451716657 16.0 0
   vertex 49.6253006876435 10.16 0
  endloop
 endfacet
 facet normal 0.0 0.0 -1.0
  outer loop
   vertex 61.51981451716657 16.0 0
   vertex 69.75271042001617 16.0 0
   vertex 68.9678878621305 13.839 0
  endloop
 endfacet
 facet normal 0.0 0.0 -1.0
  outer loop
   vertex 69.75271042001617 16.0 0
   vertex 92.49928957998384 16.0 0
   vertex 86.56233013092563 13.839 0
  endloop
 endfacet
 facet normal 0.0 0.0 -1.0
  outer loop
   vertex 92.49928957998384 16.0 0
   vertex 100.73418657612595 16.0 0
   vertex 95.51554673663719 13.839 0
  endloop
 endfacet
 facet normal 0.0 0.0 -1.0
  outer loop
   vertex 100.73418657612595 16.0 0
   vertex 111.7246293842942 16.0 0
   vertex 109.5653495616772 13.839000000000002 0
  endloop
 endfacet
 facet normal 0.0 -0.0 -1.0
  outer loop
   vertex 111.7246293842942 16.0 0
   vertex 111.731 8.0 0
   vertex 109.5682792485749 10.16 0
  endloop
 endfacet
 facet normal 0.0 0.0 -1.0
  outer loop
   vertex 111.731 8.0 0
   vertex 111.7246293842942 0.0 0
   vertex 109.5653495616772 2.161 0
  endloop
 endfacet
 facet normal 0.0 0.0 -1.0
  outer loop
   vertex 111.7246293842942 0.0 0
   vertex 100.73418657612595 0.0 0
   vertex 2.1563509320462626 2.161 0
  endloop
 endfacet
 facet normal 0.0 0.0 -1.0
  outer loop
   vertex 100.73418657612595 0.0 0
   vertex 92.49928957998384 0.0 0
   vertex 2.1563509320462626 2.161 0
  endloop
 endfacet
 facet normal 0.0 0.0 -1.0
  outer loop
   vertex 92.49928957998384 0.0 0
   vertex 69.75271042001617 0.0 0
   vertex 2.1563509320462626 2.161 0
  endloop
 endfacet
 facet normal 0.0 0.0 -1.0
  outer loop
   vertex 69.75271042001617 0.0 0
   vertex 61.51981451716657 0.0 0
   vertex 2.1563509320462626 2.161 0
  endloop
 endfacet
 facet normal 0.0 0.0 -1.0
  outer loop
   vertex 61.51981451716657 0.0 0
   vertex 58.52218548283343 0.0 0
   vertex 2.1563509320462626 2.161 0
  endloop
 endfacet
 facet normal 0.0 0.0 -1.0
  outer loop
   vertex 58.52218548283343 0.0 0
   vertex 50.73604424310913 0.0 0
   vertex 2.1563509320462626 2.161 0
  endloop
 endfacet
 facet normal 0.0 0.0 -1.0
  outer loop
   vertex 50.73604424310913 0.0 0
   vertex 25.783875698912077 0.0 0
   vertex 2.1563509320462626 2.161 0
  endloop
 endfacet
 facet normal 0.0 0.0 -1.0
  outer loop
   vertex 25.783875698912077 0.0 0
   vertex 17.996813423874045 0.0 0
   vertex 2.1563509320462626 2.161 0
  endloop
 endfacet
 facet normal 0.0 0.0 -1.0
  outer loop
   vertex 2.159280618943961 5.84 0
   vertex 2.1563509320462626 2.161 0
   vertex -0.006370615705785541 0.0 0
  endloop
 endfacet
 facet normal 0.0 0.0 -1.0
  outer loop
   vertex 2.159280618943961 5.84 0
   vertex -0.006370615705785541 16.0 0
   vertex 2.1563509320462626 13.839 0
  endloop
 endfacet
 facet normal 0.0 0.0 -1.0
  outer loop
   vertex 2.159280618943961 5.84 0
   vertex 111.731 8.0 0
   vertex 20.785547533281232 5.84 0
  endloop
 endfacet
 facet normal 0.0 0.0 -1.0
  outer loop
   vertex 2.159280618943961 5.84 0
   vertex 109.5682792485749 10.16 0
   vertex 111.731 8.0 0
  endloop
 endfacet
 facet normal 0.0 0.0 -1.0
  outer loop
   vertex 2.159280618943961 5.84 0
   vertex 2.159280618943961 10.16 0
   vertex 20.785547533281232 10.16 0
  endloop
 endfacet
 facet normal 0.0 0.0 -1.0
  outer loop
   vertex 2.159280618943961 5.84 0
   vertex 2.1563509320462626 13.839 0
   vertex 2.159280618943961 10.16 0
  endloop
 endfacet
 facet normal 0.0 0.0 -1.0
  outer loop
   vertex 2.159280618943961 5.84 0
   vertex 26.89738411675465 10.16 0
   vertex 29.84984832940974 10.16 0
  endloop
 endfacet
 facet normal 0.0 0.0 -1.0
  outer loop
   vertex 2.159280618943961 5.84 0
   vertex 20.785547533281232 10.16 0
   vertex 26.89738411675465 10.16 0
  endloop
 endfacet
 facet normal 0.0 0.0 -1.0
  outer loop
   vertex 2.159280618943961 5.84 0
   vertex 36.94898602759113 10.16 0
   vertex 39.572973595790984 10.16 0
  endloop
 endfacet
 facet normal 0.0 0.0 -1.0
  outer loop
   vertex 2.159280618943961 5.84 0
   vertex 29.84984832940974 10.16 0
   vertex 36.94898602759113 10.16 0
  endloop
 endfacet
 facet normal 0.0 0.0 -1.0
  outer loop
   vertex 2.159280618943961 5.84 0
   vertex 46.67118570054863 10.16 0
   vertex 49.6253006876435 10.16 0
  endloop
 endfacet
 facet normal 0.0 0.0 -1.0
  outer loop
   vertex 2.159280618943961 5.84 0
   vertex 39.572973595790984 10.16 0
   vertex 46.67118570054863 10.16 0
  endloop
 endfacet
 facet normal 0.0 0.0 -1.0
  outer loop
   vertex 2.159280618943961 5.84 0
   vertex 55.73560866814975 10.16 0
   vertex 64.30639133185026 10.16 0
  endloop
 endfacet
 facet normal 0.0 0.0 -1.0
  outer loop
   vertex 2.159280618943961 5.84 0
   vertex 49.6253006876435 10.16 0
   vertex 55.73560866814975 10.16 0
  endloop
 endfacet
 facet normal 0.0 0.0 -1.0
  outer loop
   vertex 2.159280618943961 5.84 0
   vertex 70.41669931235651 10.16 0
   vertex 73.35352220332062 10.16 0
  endloop
 endfacet
 facet normal 0.0 0.0 -1.0
  outer loop
   vertex 2.159280618943961 5.84 0
   vertex 64.30639133185026 10.16 0
   vertex 70.41669931235651 10.16 0
  endloop
 endfacet
 facet normal 0.0 0.0 -1.0
  outer loop
   vertex 2.159280618943961 5.84 0
   vertex 80.07530421026452 10.16 0
   vertex 82.1766957897355 10.16 0
  endloop
 endfacet
 facet normal 0.0 0.0 -1.0
  outer loop
   vertex 2.159280618943961 5.84 0
   vertex 73.35352220332062 10.16 0
   vertex 80.07530421026452 10.16 0
  endloop
 endfacet
 facet normal 0.0 0.0 -1.0
  outer loop
   vertex 2.159280618943961 5.84 0
   vertex 88.89847779667939 10.16 0
   vertex 91.83361588324534 10.16 0
  endloop
 endfacet
 facet normal 0.0 0.0 -1.0
  outer loop
   vertex 2.159280618943961 5.84 0
   vertex 82.1766957897355 10.16 0
   vertex 88.89847779667939 10.16 0
  endloop
 endfacet
 facet normal 0.0 0.0 -1.0
  outer loop
   vertex 2.159280618943961 5.84 0
   vertex 97.94545246671875 10.16 0
   vertex 109.5682792485749 10.16 0
  endloop
 endfacet
 facet normal 0.0 0.0 -1.0
  outer loop
   vertex 2.159280618943961 5.84 0
   vertex 91.83361588324534 10.16 0
   vertex 97.94545246671875 10.16 0
  endloop
 endfacet
 facet normal 0.0 0.0 -1.0
  outer loop
   vertex 2.1563509320462626 2.161 0
   vertex 17.103616679889384 2.161 0
   vertex 111.7246293842942 0.0 0
  endloop
 endfacet
 facet normal 0.0 0.0 -1.0
  outer loop
   vertex 17.103616679889384 2.161 0
   vertex 23.215453263362804 2.161 0
   vertex 111.7246293842942 0.0 0
  endloop
 endfacet
 facet normal 0.0 0.0 -1.0
  outer loop
   vertex 17.103616679889384 2.161 0
   vertex 20.785547533281232 5.84 0
   vertex 26.89738411675465 5.84 0
  endloop
 endfacet
 facet normal 0.0 0.0 -1.0
  outer loop
   vertex 17.103616679889384 2.161 0
   vertex 26.89738411675465 5.84 0
   vertex 23.215453263362804 2.161 0
  endloop
 endfacet
 facet normal 0.0 0.0 -1.0
  outer loop
   vertex 20.785547533281232 5.84 0
   vertex 111.731 8.0 0
   vertex 26.89738411675465 5.84 0
  endloop
 endfacet
 facet normal 0.0 0.0 -1.0
  outer loop
   vertex 20.785547533281232 10.16 0
   vertex 17.103616679889384 13.839 0
   vertex 17.996813423874045 16.0 0
  endloop
 endfacet
 facet normal 0.0 0.0 -1.0
  outer loop
   vertex 20.785547533281232 10.16 0
   vertex 17.996813423874045 16.0 0
   vertex 23.215453263362804 13.839 0
  endloop
 endfacet
 facet normal 0.0 0.0 -1.0
  outer loop
   vertex 20.785547533281232 10.16 0
   vertex 23.215453263362804 13.839 0
   vertex 26.89738411675465 10.16 0
  endloop
 endfacet
 facet normal 0.0 0.0 -1.0
  outer loop
   vertex 17.103616679889384 13.839 0
   vertex 2.1563509320462626 13.839 0
   vertex -0.006370615705785541 16.0 0
  endloop
 endfacet
 facet normal 0.0 0.0 -1.0
  outer loop
   vertex 26.89738411675465 5.84 0
   vertex 111.731 8.0 0
   vertex 29.84984832940975 5.84 0
  endloop
 endfacet
 facet normal 0.0 0.0 -1.0
  outer loop
   vertex 23.215453263362804 2.161 0
   vertex 25.052318003484135 2.161 0
   vertex 111.7246293842942 0.0 0
  endloop
 endfacet
 facet normal 0.0 0.0 -1.0
  outer loop
   vertex 25.052318003484135 2.161 0
   vertex 32.15145570166552 2.161 0
   vertex 111.7246293842942 0.0 0
  endloop
 endfacet
 facet normal 0.0 0.0 -1.0
  outer loop
   vertex 25.052318003484135 2.161 0
   vertex 29.84984832940975 5.84 0
   vertex 36.94898602759113 5.84 0
  endloop
 endfacet
 facet normal 0.0 0.0 -1.0
  outer loop
   vertex 25.052318003484135 2.161 0
   vertex 36.94898602759113 5.84 0
   vertex 32.15145570166552 2.161 0
  endloop
 endfacet
 facet normal 0.0 0.0 -1.0
  outer loop
   vertex 29.84984832940975 5.84 0
   vertex 111.731 8.0 0
   vertex 36.94898602759113 5.84 0
  endloop
 endfacet
 facet normal 0.0 0.0 -1.0
  outer loop
   vertex 29.84984832940974 10.16 0
   vertex 25.052318003484128 13.838999999999999 0
   vertex 25.783875698912077 16.0 0
  endloop
 endfacet
 facet normal 0.0 0.0 -1.0
  outer loop
   vertex 29.84984832940974 10.16 0
   vertex 25.783875698912077 16.0 0
   vertex 32.15145570166552 13.838999999999999 0
  endloop
 endfacet
 facet normal 0.0 0.0 -1.0
  outer loop
   vertex 29.84984832940974 10.16 0
   vertex 32.15145570166552 13.838999999999999 0
   vertex 36.94898602759113 10.16 0
  endloop
 endfacet
 facet normal 0.0 0.0 -1.0
  outer loop
   vertex 25.052318003484128 13.838999999999999 0
   vertex 23.215453263362804 13.839 0
   vertex 17.996813423874045 16.0 0
  endloop
 endfacet
 facet normal 0.0 0.0 -1.0
  outer loop
   vertex 36.94898602759113 5.84 0
   vertex 111.731 8.0 0
   vertex 39.572973595790984 5.84 0
  endloop
 endfacet
 facet normal 0.0 0.0 -1.0
  outer loop
   vertex 32.15145570166552 2.161 0
   vertex 44.36951053839061 2.161 0
   vertex 111.7246293842942 0.0 0
  endloop
 endfacet
 facet normal 0.0 0.0 -1.0
  outer loop
   vertex 44.36951053839061 2.161 0
   vertex 51.467722643148235 2.161 0
   vertex 111.7246293842942 0.0 0
  endloop
 endfacet
 facet normal 0.0 0.0 -1.0
  outer loop
   vertex 44.36951053839061 2.161 0
   vertex 39.572973595790984 5.84 0
   vertex 46.67118570054861 5.84 0
  endloop
 endfacet
 facet normal 0.0 0.0 -1.0
  outer loop
   vertex 44.36951053839061 2.161 0
   vertex 46.67118570054861 5.84 0
   vertex 51.467722643148235 2.161 0
  endloop
 endfacet
 facet normal 0.0 0.0 -1.0
  outer loop
   vertex 39.572973595790984 5.84 0
   vertex 111.731 8.0 0
   vertex 46.67118570054861 5.84 0
  endloop
 endfacet
 facet normal 0.0 0.0 -1.0
  outer loop
   vertex 39.572973595790984 10.16 0
   vertex 44.36951053839061 13.839 0
   vertex 50.73604424310913 16.0 0
  endloop
 endfacet
 facet normal 0.0 0.0 -1.0
  outer loop
   vertex 39.572973595790984 10.16 0
   vertex 50.73604424310913 16.0 0
   vertex 51.46772264314825 13.839 0
  endloop
 endfacet
 facet normal 0.0 0.0 -1.0
  outer loop
   vertex 39.572973595790984 10.16 0
   vertex 51.46772264314825 13.839 0
   vertex 46.67118570054863 10.16 0
  endloop
 endfacet
 facet normal -0.0 0.0 -1.0
  outer loop
   vertex 44.36951053839061 13.839 0
   vertex 32.15145570166552 13.838999999999999 0
   vertex 25.783875698912077 16.0 0
  endloop
 endfacet
 facet normal 0.0 0.0 -1.0
  outer loop
   vertex 46.67118570054861 5.84 0
   vertex 111.731 8.0 0
   vertex 49.6253006876435 5.84 0
  endloop
 endfacet
 facet normal 0.0 0.0 -1.0
  outer loop
   vertex 51.467722643148235 2.161 0
   vertex 53.305391035479545 2.161 0
   vertex 111.7246293842942 0.0 0
  endloop
 endfacet
 facet normal 0.0 0.0 -1.0
  outer loop
   vertex 53.305391035479545 2.161 0
   vertex 59.41569901598579 2.161 0
   vertex 111.7246293842942 0.0 0
  endloop
 endfacet
 facet normal 0.0 0.0 -1.0
  outer loop
   vertex 53.305391035479545 2.161 0
   vertex 49.6253006876435 5.84 0
   vertex 55.73560866814975 5.84 0
  endloop
 endfacet
 facet normal 0.0 0.0 -1.0
  outer loop
   vertex 53.305391035479545 2.161 0
   vertex 55.73560866814975 5.84 0
   vertex 59.41569901598579 2.161 0
  endloop
 endfacet
 facet normal 0.0 0.0 -1.0
  outer loop
   vertex 49.6253006876435 5.84 0
   vertex 111.731 8.0 0
   vertex 55.73560866814975 5.84 0
  endloop
 endfacet
 facet normal 0.0 0.0 -1.0
  outer loop
   vertex 49.6253006876435 10.16 0
   vertex 53.305391035479545 13.839 0
   vertex 58.52218548283343 16.0 0
  endloop
 endfacet
 facet normal 0.0 0.0 -1.0
  outer loop
   vertex 49.6253006876435 10.16 0
   vertex 61.51981451716657 16.0 0
   vertex 59.41569901598579 13.839 0
  endloop
 endfacet
 facet normal 0.0 0.0 -1.0
  outer loop
   vertex 49.6253006876435 10.16 0
   vertex 59.41569901598579 13.839 0
   vertex 55.73560866814975 10.16 0
  endloop
 endfacet
 facet normal 0.0 0.0 -1.0
  outer loop
   vertex 53.305391035479545 13.839 0
   vertex 51.46772264314825 13.839 0
   vertex 50.73604424310913 16.0 0
  endloop
 endfacet
 facet normal 0.0 0.0 -1.0
  outer loop
   vertex 55.73560866814975 5.84 0
   vertex 111.731 8.0 0
   vertex 64.30639133185025 5.84 0
  endloop
 endfacet
 facet normal 0.0 0.0 -1.0
  outer loop
   vertex 59.41569901598579 2.161 0
   vertex 60.62630098401421 2.161 0
   vertex 111.7246293842942 0.0 0
  endloop
 endfacet
 facet normal 0.0 0.0 -1.0
  outer loop
   vertex 60.62630098401421 2.161 0
   vertex 66.73660896452044 2.161 0
   vertex 111.7246293842942 0.0 0
  endloop
 endfacet
 facet normal 0.0 0.0 -1.0
  outer loop
   vertex 60.62630098401421 2.161 0
   vertex 64.30639133185025 5.84 0
   vertex 70.4166993123565 5.84 0
  endloop
 endfacet
 facet normal 0.0 0.0 -1.0
  outer loop
   vertex 60.62630098401421 2.161 0
   vertex 70.4166993123565 5.84 0
   vertex 66.73660896452044 2.161 0
  endloop
 endfacet
 facet normal 0.0 0.0 -1.0
  outer loop
   vertex 64.30639133185025 5.84 0
   vertex 111.731 8.0 0
   vertex 70.4166993123565 5.84 0
  endloop
 endfacet
 facet normal 0.0 0.0 -1.0
  outer loop
   vertex 64.30639133185026 10.16 0
   vertex 60.626300984014215 13.839 0
   vertex 61.51981451716657 16.0 0
  endloop
 endfacet
 facet normal 0.0 0.0 -1.0
  outer loop
   vertex 64.30639133185026 10.16 0
   vertex 61.51981451716657 16.0 0
   vertex 66.73660896452046 13.839 0
  endloop
 endfacet
 facet normal 0.0 0.0 -1.0
  outer loop
   vertex 64.30639133185026 10.16 0
   vertex 66.73660896452046 13.839 0
   vertex 70.41669931235651 10.16 0
  endloop
 endfacet
 facet normal 0.0 0.0 -1.0
  outer loop
   vertex 60.626300984014215 13.839 0
   vertex 59.41569901598579 13.839 0
   vertex 61.51981451716657 16.0 0
  endloop
 endfacet
 facet normal 0.0 0.0 -1.0
  outer loop
   vertex 70.4166993123565 5.84 0
   vertex 111.731 8.0 0
   vertex 73.35352220332062 5.84 0
  endloop
 endfacet
 facet normal 0.0 0.0 -1.0
  outer loop
   vertex 66.73660896452044 2.161 0
   vertex 68.9678878621305 2.161 0
   vertex 111.7246293842942 0.0 0
  endloop
 endfacet
 facet normal 0.0 0.0 -1.0
  outer loop
   vertex 68.9678878621305 2.161 0
   vertex 75.68966986907436 2.161 0
   vertex 111.7246293842942 0.0 0
  endloop
 endfacet
 facet normal 0.0 0.0 -1.0
  outer loop
   vertex 68.9678878621305 2.161 0
   vertex 73.35352220332062 5.84 0
   vertex 80.07530421026449 5.84 0
  endloop
 endfacet
 facet normal 0.0 0.0 -1.0
  outer loop
   vertex 68.9678878621305 2.161 0
   vertex 80.07530421026449 5.84 0
   vertex 75.68966986907436 2.161 0
  endloop
 endfacet
 facet normal 0.0 0.0 -1.0
  outer loop
   vertex 73.35352220332062 5.84 0
   vertex 111.731 8.0 0
   vertex 80.07530421026449 5.84 0
  endloop
 endfacet
 facet normal 0.0 0.0 -1.0
  outer loop
   vertex 73.35352220332062 10.16 0
   vertex 68.9678878621305 13.839 0
   vertex 69.75271042001617 16.0 0
  endloop
 endfacet
 facet normal 0.0 0.0 -1.0
  outer loop
   vertex 73.35352220332062 10.16 0
   vertex 69.75271042001617 16.0 0
   vertex 75.68966986907438 13.839 0
  endloop
 endfacet
 facet normal 0.0 0.0 -1.0
  outer loop
   vertex 73.35352220332062 10.16 0
   vertex 75.68966986907438 13.839 0
   vertex 80.07530421026452 10.16 0
  endloop
 endfacet
 facet normal 0.0 0.0 -1.0
  outer loop
   vertex 68.9678878621305 13.839 0
   vertex 66.73660896452046 13.839 0
   vertex 61.51981451716657 16.0 0
  endloop
 endfacet
 facet normal 0.0 0.0 -1.0
  outer loop
   vertex 80.07530421026449 5.84 0
   vertex 111.731 8.0 0
   vertex 82.17669578973549 5.84 0
  endloop
 endfacet
 facet normal 0.0 0.0 -1.0
  outer loop
   vertex 75.68966986907436 2.161 0
   vertex 86.56233013092562 2.161 0
   vertex 111.7246293842942 0.0 0
  endloop
 endfacet
 facet normal 0.0 0.0 -1.0
  outer loop
   vertex 86.56233013092562 2.161 0
   vertex 93.28411213786951 2.161 0
   vertex 111.7246293842942 0.0 0
  endloop
 endfacet
 facet normal 0.0 0.0 -1.0
  outer loop
   vertex 86.56233013092562 2.161 0
   vertex 82.17669578973549 5.84 0
   vertex 88.89847779667939 5.84 0
  endloop
 endfacet
 facet normal 0.0 0.0 -1.0
  outer loop
   vertex 86.56233013092562 2.161 0
   vertex 88.89847779667939 5.84 0
   vertex 93.28411213786951 2.161 0
  endloop
 endfacet
 facet normal 0.0 0.0 -1.0
  outer loop
   vertex 82.17669578973549 5.84 0
   vertex 111.731 8.0 0
   vertex 88.89847779667939 5.84 0
  endloop
 endfacet
 facet normal 0.0 0.0 -1.0
  outer loop
   vertex 82.1766957897355 10.16 0
   vertex 86.56233013092563 13.839 0
   vertex 92.49928957998384 16.0 0
  endloop
 endfacet
 facet normal 0.0 0.0 -1.0
  outer loop
   vertex 82.1766957897355 10.16 0
   vertex 92.49928957998384 16.0 0
   vertex 93.28411213786951 13.839 0
  endloop
 endfacet
 facet normal 0.0 0.0 -1.0
  outer loop
   vertex 82.1766957897355 10.16 0
   vertex 93.28411213786951 13.839 0
   vertex 88.89847779667939 10.16 0
  endloop
 endfacet
 facet normal 0.0 0.0 -1.0
  outer loop
   vertex 86.56233013092563 13.839 0
   vertex 75.68966986907438 13.839 0
   vertex 69.75271042001617 16.0 0
  endloop
 endfacet
 facet normal 0.0 0.0 -1.0
  outer loop
   vertex 88.89847779667939 5.84 0
   vertex 111.731 8.0 0
   vertex 91.83361588324534 5.84 0
  endloop
 endfacet
 facet normal 0.0 0.0 -1.0
  outer loop
   vertex 93.28411213786951 2.161 0
   vertex 95.51554673663719 2.161 0
   vertex 111.7246293842942 0.0 0
  endloop
 endfacet
 facet normal 0.0 0.0 -1.0
  outer loop
   vertex 95.51554673663719 2.161 0
   vertex 101.6273833201106 2.161 0
   vertex 111.7246293842942 0.0 0
  endloop
 endfacet
 facet normal 0.0 0.0 -1.0
  outer loop
   vertex 95.51554673663719 2.161 0
   vertex 91.83361588324534 5.84 0
   vertex 97.94545246671875 5.84 0
  endloop
 endfacet
 facet normal 0.0 0.0 -1.0
  outer loop
   vertex 95.51554673663719 2.161 0
   vertex 97.94545246671875 5.84 0
   vertex 101.6273833201106 2.161 0
  endloop
 endfacet
 facet normal 0.0 0.0 -1.0
  outer loop
   vertex 91.83361588324534 5.84 0
   vertex 111.731 8.0 0
   vertex 97.94545246671875 5.84 0
  endloop
 endfacet
 facet normal 0.0 0.0 -1.0
  outer loop
   vertex 91.83361588324534 10.16 0
   vertex 95.51554673663719 13.839 0
   vertex 100.73418657612595 16.0 0
  endloop
 endfacet
 facet normal 0.0 0.0 -1.0
  outer loop
   vertex 91.83361588324534 10.16 0
   vertex 100.73418657612595 16.0 0
   vertex 101.6273833201106 13.839 0
  endloop
 endfacet
 facet normal 0.0 0.0 -1.0
  outer loop
   vertex 91.83361588324534 10.16 0
   vertex 101.6273833201106 13.839 0
   vertex 97.94545246671875 10.16 0
  endloop
 endfacet
 facet normal 0.0 0.0 -1.0
  outer loop
   vertex 95.51554673663719 13.839 0
   vertex 93.28411213786951 13.839 0
   vertex 92.49928957998384 16.0 0
  endloop
 endfacet
 facet normal 0.0 0.0 -1.0
  outer loop
   vertex 97.94545246671875 5.84 0
   vertex 111.731 8.0 0
   vertex 109.5682792485749 5.84 0
  endloop
 endfacet
 facet normal 0.0 0.0 -1.0
  outer loop
   vertex 101.6273833201106 2.161 0
   vertex 109.5653495616772 2.161 0
   vertex 111.7246293842942 0.0 0
  endloop
 endfacet
 facet normal 0.0 0.0 -1.0
  outer loop
   vertex 109.5653495616772 2.161 0
   vertex 109.5682792485749 5.84 0
   vertex 111.731 8.0 0
  endloop
 endfacet
 facet normal 0.0 0.0 -1.0
  outer loop
   vertex 109.5682792485749 10.16 0
   vertex 109.5653495616772 13.839000000000002 0
   vertex 111.7246293842942 16.0 0
  endloop
 endfacet
 facet normal -0.0 0.0 -1.0
  outer loop
   vertex 109.5653495616772 13.839000000000002 0
   vertex 101.6273833201106 13.839 0
   vertex 100.73418657612595 16.0 0
  endloop
 endfacet
 facet normal 0.0 -1.0 0.0
  outer loop
   vertex -0.006370615705785541 0.0 0
   vertex 17.996813423874045 0.0 0
   vertex 17.996813423874045 0.0 0.36
  endloop
 endfacet
 facet normal 0.0 -1.0 0.0
  outer loop
   vertex -0.006370615705785541 0.0 0.36
   vertex -0.006370615705785541 0.0 0
   vertex 17.996813423874045 0.0 0.36
  endloop
 endfacet
 facet normal -0.9999996829318346 0.0007963267107332633 0.0
  outer loop
   vertex 0.0 8.0 0
   vertex -0.006370615705785541 0.0 0
   vertex -0.006370615705785541 0.0 0.36
  endloop
 endfacet
 facet normal -0.9999996829318346 0.0007963267107332633 0.0
  outer loop
   vertex 0.0 8.0 0.36
   vertex 0.0 8.0 0
   vertex -0.006370615705785541 0.0 0.36
  endloop
 endfacet
 facet normal -0.9999996829318346 -0.0007963267107332633 0.0
  outer loop
   vertex -0.006370615705785541 16.0 0
   vertex 0.0 8.0 0
   vertex 0.0 8.0 0.36
  endloop
 endfacet
 facet normal -0.9999996829318346 -0.0007963267107332633 -0.0
  outer loop
   vertex -0.006370615705785541 16.0 0.36
   vertex -0.006370615705785541 16.0 0
   vertex 0.0 8.0 0.36
  endloop
 endfacet
 facet normal 0.0 1.0 0.0
  outer loop
   vertex 17.996813423874045 16.0 0
   vertex -0.006370615705785541 16.0 0
   vertex -0.006370615705785541 16.0 0.36
  endloop
 endfacet
 facet normal 0.0 1.0 0.0
  outer loop
   vertex 17.996813423874045 16.0 0.36
   vertex 17.996813423874045 16.0 0
   vertex -0.006370615705785541 16.0 0.36
  endloop
 endfacet
 facet normal 0.0 1.0 0.0
  outer loop
   vertex 25.783875698912077 16.0 0
   vertex 17.996813423874045 16.0 0
   vertex 17.996813423874045 16.0 0.36
  endloop
 endfacet
 facet normal 0.0 1.0 0.0
  outer loop
   vertex 25.783875698912077 16.0 0.36
   vertex 25.783875698912077 16.0 0
   vertex 17.996813423874045 16.0 0.36
  endloop
 endfacet
 facet normal 0.0 1.0 0.0
  outer loop
   vertex 50.73604424310913 16.0 0
   vertex 25.783875698912077 16.0 0
   vertex 25.783875698912077 16.0 0.36
  endloop
 endfacet
 facet normal 0.0 1.0 0.0
  outer loop
   vertex 50.73604424310913 16.0 0.36
   vertex 50.73604424310913 16.0 0
   vertex 25.783875698912077 16.0 0.36
  endloop
 endfacet
 facet normal 0.0 1.0 0.0
  outer loop
   vertex 58.52218548283343 16.0 0
   vertex 50.73604424310913 16.0 0
   vertex 50.73604424310913 16.0 0.36
  endloop
 endfacet
 facet normal 0.0 1.0 0.0
  outer loop
   vertex 58.52218548283343 16.0 0.36
   vertex 58.52218548283343 16.0 0
   vertex 50.73604424310913 16.0 0.36
  endloop
 endfacet
 facet normal 0.0 1.0 0.0
  outer loop
   vertex 61.51981451716657 16.0 0
   vertex 58.52218548283343 16.0 0
   vertex 58.52218548283343 16.0 0.36
  endloop
 endfacet
 facet normal 0.0 1.0 0.0
  outer loop
   vertex 61.51981451716657 16.0 0.36
   vertex 61.51981451716657 16.0 0
   vertex 58.52218548283343 16.0 0.36
  endloop
 endfacet
 facet normal 0.0 1.0 0.0
  outer loop
   vertex 69.75271042001617 16.0 0
   vertex 61.51981451716657 16.0 0
   vertex 61.51981451716657 16.0 0.36
  endloop
 endfacet
 facet normal 0.0 1.0 0.0
  outer loop
   vertex 69.75271042001617 16.0 0.36
   vertex 69.75271042001617 16.0 0
   vertex 61.51981451716657 16.0 0.36
  endloop
 endfacet
 facet normal 0.0 1.0 0.0
  outer loop
   vertex 92.49928957998384 16.0 0
   vertex 69.75271042001617 16.0 0
   vertex 69.75271042001617 16.0 0.36
  endloop
 endfacet
 facet normal 0.0 1.0 0.0
  outer loop
   vertex 92.49928957998384 16.0 0.36
   vertex 92.49928957998384 16.0 0
   vertex 69.75271042001617 16.0 0.36
  endloop
 endfacet
 facet normal 0.0 1.0 0.0
  outer loop
   vertex 100.73418657612595 16.0 0
   vertex 92.49928957998384 16.0 0
   vertex 92.49928957998384 16.0 0.36
  endloop
 endfacet
 facet normal 0.0 1.0 0.0
  outer loop
   vertex 100.73418657612595 16.0 0.36
   vertex 100.73418657612595 16.0 0
   vertex 92.49928957998384 16.0 0.36
  endloop
 endfacet
 facet normal 0.0 1.0 0.0
  outer loop
   vertex 111.7246293842942 16.0 0
   vertex 100.73418657612595 16.0 0
   vertex 100.73418657612595 16.0 0.36
  endloop
 endfacet
 facet normal 0.0 1.0 0.0
  outer loop
   vertex 111.7246293842942 16.0 0.36
   vertex 111.7246293842942 16.0 0
   vertex 100.73418657612595 16.0 0.36
  endloop
 endfacet
 facet normal 0.9999996829318346 0.0007963267107339185 0.0
  outer loop
   vertex 111.731 8.0 0
   vertex 111.7246293842942 16.0 0
   vertex 111.7246293842942 16.0 0.36
  endloop
 endfacet
 facet normal 0.9999996829318346 0.0007963267107339185 0.0
  outer loop
   vertex 111.731 8.0 0.36
   vertex 111.731 8.0 0
   vertex 111.7246293842942 16.0 0.36
  endloop
 endfacet
 facet normal 0.9999996829318346 -0.0007963267107339185 0.0
  outer loop
   vertex 111.7246293842942 0.0 0
   vertex 111.731 8.0 0
   vertex 111.731 8.0 0.36
  endloop
 endfacet
 facet normal 0.9999996829318346 -0.0007963267107339185 0.0
  outer loop
   vertex 111.7246293842942 0.0 0.36
   vertex 111.7246293842942 0.0 0
   vertex 111.731 8.0 0.36
  endloop
 endfacet
 facet normal 0.0 -1.0 0.0
  outer loop
   vertex 100.73418657612595 0.0 0
   vertex 111.7246293842942 0.0 0
   vertex 111.7246293842942 0.0 0.36
  endloop
 endfacet
 facet normal 0.0 -1.0 0.0
  outer loop
   vertex 100.73418657612595 0.0 0.36
   vertex 100.73418657612595 0.0 0
   vertex 111.7246293842942 0.0 0.36
  endloop
 endfacet
 facet normal 0.0 -1.0 0.0
  outer loop
   vertex 92.49928957998384 0.0 0
   vertex 100.73418657612595 0.0 0
   vertex 100.73418657612595 0.0 0.36
  endloop
 endfacet
 facet normal 0.0 -1.0 0.0
  outer loop
   vertex 92.49928957998384 0.0 0.36
   vertex 92.49928957998384 0.0 0
   vertex 100.73418657612595 0.0 0.36
  endloop
 endfacet
 facet normal 0.0 -1.0 0.0
  outer loop
   vertex 69.75271042001617 0.0 0
   vertex 92.49928957998384 0.0 0
   vertex 92.49928957998384 0.0 0.36
  endloop
 endfacet
 facet normal 0.0 -1.0 0.0
  outer loop
   vertex 69.75271042001617 0.0 0.36
   vertex 69.75271042001617 0.0 0
   vertex 92.49928957998384 0.0 0.36
  endloop
 endfacet
 facet normal 0.0 -1.0 0.0
  outer loop
   vertex 61.51981451716657 0.0 0
   vertex 69.75271042001617 0.0 0
   vertex 69.75271042001617 0.0 0.36
  endloop
 endfacet
 facet normal 0.0 -1.0 0.0
  outer loop
   vertex 61.51981451716657 0.0 0.36
   vertex 61.51981451716657 0.0 0
   vertex 69.75271042001617 0.0 0.36
  endloop
 endfacet
 facet normal 0.0 -1.0 0.0
  outer loop
   vertex 58.52218548283343 0.0 0
   vertex 61.51981451716657 0.0 0
   vertex 61.51981451716657 0.0 0.36
  endloop
 endfacet
 facet normal 0.0 -1.0 0.0
  outer loop
   vertex 58.52218548283343 0.0 0.36
   vertex 58.52218548283343 0.0 0
   vertex 61.51981451716657 0.0 0.36
  endloop
 endfacet
 facet normal 0.0 -1.0 0.0
  outer loop
   vertex 50.73604424310913 0.0 0
   vertex 58.52218548283343 0.0 0
   vertex 58.52218548283343 0.0 0.36
  endloop
 endfacet
 facet normal 0.0 -1.0 0.0
  outer loop
   vertex 50.73604424310913 0.0 0.36
   vertex 50.73604424310913 0.0 0
   vertex 58.52218548283343 0.0 0.36
  endloop
 endfacet
 facet normal 0.0 -1.0 0.0
  outer loop
   vertex 25.783875698912077 0.0 0
   vertex 50.73604424310913 0.0 0
   vertex 50.73604424310913 0.0 0.36
  endloop
 endfacet
 facet normal 0.0 -1.0 0.0
  outer loop
   vertex 25.783875698912077 0.0 0.36
   vertex 25.783875698912077 0.0 0
   vertex 50.73604424310913 0.0 0.36
  endloop
 endfacet
 facet normal 0.0 -1.0 0.0
  outer loop
   vertex 17.996813423874045 0.0 0
   vertex 25.783875698912077 0.0 0
   vertex 25.783875698912077 0.0 0.36
  endloop
 endfacet
 facet normal 0.0 -1.0 0.0
  outer loop
   vertex 17.996813423874045 0.0 0.36
   vertex 17.996813423874045 0.0 0
   vertex 25.783875698912077 0.0 0.36
  endloop
 endfacet
 facet normal 0.0 0.0 1.0
  outer loop
   vertex 17.996813423874045 0.0 0.36
   vertex 2.1563509320462626 2.161 0.36
   vertex -0.006370615705785541 0.0 0.36
  endloop
 endfacet
 facet normal 0.0 0.0 1.0
  outer loop
   vertex -0.006370615705785541 0.0 0.36
   vertex 2.159280618943961 5.84 0.36
   vertex 0.0 8.0 0.36
  endloop
 endfacet
 facet normal -0.0 -0.0 1.0
  outer loop
   vertex 0.0 8.0 0.36
   vertex 2.159280618943961 5.84 0.36
   vertex -0.006370615705785541 16.0 0.36
  endloop
 endfacet
 facet normal -0.0 0.0 1.0
  outer loop
   vertex -0.006370615705785541 16.0 0.36
   vertex 17.103616679889384 13.839 0.36
   vertex 17.996813423874045 16.0 0.36
  endloop
 endfacet
 facet normal -0.0 0.0 1.0
  outer loop
   vertex 17.996813423874045 16.0 0.36
   vertex 25.052318003484128 13.838999999999999 0.36
   vertex 25.783875698912077 16.0 0.36
  endloop
 endfacet
 facet normal -0.0 0.0 1.0
  outer loop
   vertex 25.783875698912077 16.0 0.36
   vertex 44.36951053839061 13.839 0.36
   vertex 50.73604424310913 16.0 0.36
  endloop
 endfacet
 facet normal -0.0 0.0 1.0
  outer loop
   vertex 50.73604424310913 16.0 0.36
   vertex 53.305391035479545 13.839 0.36
   vertex 58.52218548283343 16.0 0.36
  endloop
 endfacet
 facet normal -0.0 0.0 1.0
  outer loop
   vertex 58.52218548283343 16.0 0.36
   vertex 49.6253006876435 10.16 0.36
   vertex 61.51981451716657 16.0 0.36
  endloop
 endfacet
 facet normal -0.0 0.0 1.0
  outer loop
   vertex 61.51981451716657 16.0 0.36
   vertex 68.9678878621305 13.839 0.36
   vertex 69.75271042001617 16.0 0.36
  endloop
 endfacet
 facet normal -0.0 0.0 1.0
  outer loop
   vertex 69.75271042001617 16.0 0.36
   vertex 86.56233013092563 13.839 0.36
   vertex 92.49928957998384 16.0 0.36
  endloop
 endfacet
 facet normal -0.0 0.0 1.0
  outer loop
   vertex 92.49928957998384 16.0 0.36
   vertex 95.51554673663719 13.839 0.36
   vertex 100.73418657612595 16.0 0.36
  endloop
 endfacet
 facet normal -0.0 0.0 1.0
  outer loop
   vertex 100.73418657612595 16.0 0.36
   vertex 109.5653495616772 13.839000000000002 0.36
   vertex 111.7246293842942 16.0 0.36
  endloop
 endfacet
 facet normal 0.0 0.0 1.0
  outer loop
   vertex 111.7246293842942 16.0 0.36
   vertex 109.5682792485749 10.16 0.36
   vertex 111.731 8.0 0.36
  endloop
 endfacet
 facet normal 0.0 0.0 1.0
  outer loop
   vertex 111.731 8.0 0.36
   vertex 109.5653495616772 2.161 0.36
   vertex 111.7246293842942 0.0 0.36
  endloop
 endfacet
 facet normal 0.0 0.0 1.0
  outer loop
   vertex 111.7246293842942 0.0 0.36
   vertex 2.1563509320462626 2.161 0.36
   vertex 100.73418657612595 0.0 0.36
  endloop
 endfacet
 facet normal 0.0 0.0 1.0
  outer loop
   vertex 100.73418657612595 0.0 0.36
   vertex 2.1563509320462626 2.161 0.36
   vertex 92.49928957998384 0.0 0.36
  endloop
 endfacet
 facet normal 0.0 0.0 1.0
  outer loop
   vertex 92.49928957998384 0.0 0.36
   vertex 2.1563509320462626 2.161 0.36
   vertex 69.75271042001617 0.0 0.36
  endloop
 endfacet
 facet normal 0.0 0.0 1.0
  outer loop
   vertex 69.75271042001617 0.0 0.36
   vertex 2.1563509320462626 2.161 0.36
   vertex 61.51981451716657 0.0 0.36
  endloop
 endfacet
 facet normal 0.0 0.0 1.0
  outer loop
   vertex 61.51981451716657 0.0 0.36
   vertex 2.1563509320462626 2.161 0.36
   vertex 58.52218548283343 0.0 0.36
  endloop
 endfacet
 facet normal 0.0 0.0 1.0
  outer loop
   vertex 58.52218548283343 0.0 0.36
   vertex 2.1563509320462626 2.161 0.36
   vertex 50.73604424310913 0.0 0.36
  endloop
 endfacet
 facet normal 0.0 0.0 1.0
  outer loop
   vertex 50.73604424310913 0.0 0.36
   vertex 2.1563509320462626 2.161 0.36
   vertex 25.783875698912077 0.0 0.36
  endloop
 endfacet
 facet normal 0.0 0.0 1.0
  outer loop
   vertex 25.783875698912077 0.0 0.36
   vertex 2.1563509320462626 2.161 0.36
   vertex 17.996813423874045 0.0 0.36
  endloop
 endfacet
 facet normal 0.0 0.0 1.0
  outer loop
   vertex 2.159280618943961 5.84 0.36
   vertex -0.006370615705785541 0.0 0.36
   vertex 2.1563509320462626 2.161 0.36
  endloop
 endfacet
 facet normal 0.0 0.0 1.0
  outer loop
   vertex 2.159280618943961 5.84 0.36
   vertex 2.1563509320462626 13.839 0.36
   vertex -0.006370615705785541 16.0 0.36
  endloop
 endfacet
 facet normal 0.0 0.0 1.0
  outer loop
   vertex 2.159280618943961 5.84 0.36
   vertex 20.785547533281232 5.84 0.36
   vertex 111.731 8.0 0.36
  endloop
 endfacet
 facet normal 0.0 0.0 1.0
  outer loop
   vertex 2.159280618943961 5.84 0.36
   vertex 111.731 8.0 0.36
   vertex 109.5682792485749 10.16 0.36
  endloop
 endfacet
 facet normal 0.0 0.0 1.0
  outer loop
   vertex 2.159280618943961 5.84 0.36
   vertex 20.785547533281232 10.16 0.36
   vertex 2.159280618943961 10.16 0.36
  endloop
 endfacet
 facet normal 0.0 -0.0 1.0
  outer loop
   vertex 2.159280618943961 5.84 0.36
   vertex 2.159280618943961 10.16 0.36
   vertex 2.1563509320462626 13.839 0.36
  endloop
 endfacet
 facet normal 0.0 0.0 1.0
  outer loop
   vertex 2.159280618943961 5.84 0.36
   vertex 29.84984832940974 10.16 0.36
   vertex 26.89738411675465 10.16 0.36
  endloop
 endfacet
 facet normal 0.0 0.0 1.0
  outer loop
   vertex 2.159280618943961 5.84 0.36
   vertex 26.89738411675465 10.16 0.36
   vertex 20.785547533281232 10.16 0.36
  endloop
 endfacet
 facet normal 0.0 0.0 1.0
  outer loop
   vertex 2.159280618943961 5.84 0.36
   vertex 39.572973595790984 10.16 0.36
   vertex 36.94898602759113 10.16 0.36
  endloop
 endfacet
 facet normal 0.0 0.0 1.0
  outer loop
   vertex 2.159280618943961 5.84 0.36
   vertex 36.94898602759113 10.16 0.36
   vertex 29.84984832940974 10.16 0.36
  endloop
 endfacet
 facet normal 0.0 0.0 1.0
  outer loop
   vertex 2.159280618943961 5.84 0.36
   vertex 49.6253006876435 10.16 0.36
   vertex 46.67118570054863 10.16 0.36
  endloop
 endfacet
 facet normal 0.0 0.0 1.0
  outer loop
   vertex 2.159280618943961 5.84 0.36
   vertex 46.67118570054863 10.16 0.36
   vertex 39.572973595790984 10.16 0.36
  endloop
 endfacet
 facet normal 0.0 0.0 1.0
  outer loop
   vertex 2.159280618943961 5.84 0.36
   vertex 64.30639133185026 10.16 0.36
   vertex 55.73560866814975 10.16 0.36
  endloop
 endfacet
 facet normal 0.0 0.0 1.0
  outer loop
   vertex 2.159280618943961 5.84 0.36
   vertex 55.73560866814975 10.16 0.36
   vertex 49.6253006876435 10.16 0.36
  endloop
 endfacet
 facet normal 0.0 0.0 1.0
  outer loop
   vertex 2.159280618943961 5.84 0.36
   vertex 73.35352220332062 10.16 0.36
   vertex 70.41669931235651 10.16 0.36
  endloop
 endfacet
 facet normal 0.0 0.0 1.0
  outer loop
   vertex 2.159280618943961 5.84 0.36
   vertex 70.41669931235651 10.16 0.36
   vertex 64.30639133185026 10.16 0.36
  endloop
 endfacet
 facet normal 0.0 0.0 1.0
  outer loop
   vertex 2.159280618943961 5.84 0.36
   vertex 82.1766957897355 10.16 0.36
   vertex 80.07530421026452 10.16 0.36
  endloop
 endfacet
 facet normal 0.0 0.0 1.0
  outer loop
   vertex 2.159280618943961 5.84 0.36
   vertex 80.07530421026452 10.16 0.36
   vertex 73.35352220332062 10.16 0.36
  endloop
 endfacet
 facet normal 0.0 0.0 1.0
  outer loop
   vertex 2.159280618943961 5.84 0.36
   vertex 91.83361588324534 10.16 0.36
   vertex 88.89847779667939 10.16 0.36
  endloop
 endfacet
 facet normal 0.0 0.0 1.0
  outer loop
   vertex 2.159280618943961 5.84 0.36
   vertex 88.89847779667939 10.16 0.36
   vertex 82.1766957897355 10.16 0.36
  endloop
 endfacet
 facet normal 0.0 0.0 1.0
  outer loop
   vertex 2.159280618943961 5.84 0.36
   vertex 109.5682792485749 10.16 0.36
   vertex 97.94545246671875 10.16 0.36
  endloop
 endfacet
 facet normal 0.0 0.0 1.0
  outer loop
   vertex 2.159280618943961 5.84 0.36
   vertex 97.94545246671875 10.16 0.36
   vertex 91.83361588324534 10.16 0.36
  endloop
 endfacet
 facet normal -0.0 0.0 1.0
  outer loop
   vertex 2.1563509320462626 2.161 0.36
   vertex 111.7246293842942 0.0 0.36
   vertex 17.103616679889384 2.161 0.36
  endloop
 endfacet
 facet normal -0.0 0.0 1.0
  outer loop
   vertex 17.103616679889384 2.161 0.36
   vertex 111.7246293842942 0.0 0.36
   vertex 23.215453263362804 2.161 0.36
  endloop
 endfacet
 facet normal 0.0 0.0 1.0
  outer loop
   vertex 17.103616679889384 2.161 0.36
   vertex 26.89738411675465 5.84 0.36
   vertex 20.785547533281232 5.84 0.36
  endloop
 endfacet
 facet normal 0.0 0.0 1.0
  outer loop
   vertex 17.103616679889384 2.161 0.36
   vertex 23.215453263362804 2.161 0.36
   vertex 26.89738411675465 5.84 0.36
  endloop
 endfacet
 facet normal 0.0 0.0 1.0
  outer loop
   vertex 20.785547533281232 5.84 0.36
   vertex 26.89738411675465 5.84 0.36
   vertex 111.731 8.0 0.36
  endloop
 endfacet
 facet normal 0.0 0.0 1.0
  outer loop
   vertex 20.785547533281232 10.16 0.36
   vertex 17.996813423874045 16.0 0.36
   vertex 17.103616679889384 13.839 0.36
  endloop
 endfacet
 facet normal 0.0 -0.0 1.0
  outer loop
   vertex 20.785547533281232 10.16 0.36
   vertex 23.215453263362804 13.839 0.36
   vertex 17.996813423874045 16.0 0.36
  endloop
 endfacet
 facet normal 0.0 0.0 1.0
  outer loop
   vertex 20.785547533281232 10.16 0.36
   vertex 26.89738411675465 10.16 0.36
   vertex 23.215453263362804 13.839 0.36
  endloop
 endfacet
 facet normal 0.0 0.0 1.0
  outer loop
   vertex 17.103616679889384 13.839 0.36
   vertex -0.006370615705785541 16.0 0.36
   vertex 2.1563509320462626 13.839 0.36
  endloop
 endfacet
 facet normal 0.0 0.0 1.0
  outer loop
   vertex 26.89738411675465 5.84 0.36
   vertex 29.84984832940975 5.84 0.36
   vertex 111.731 8.0 0.36
  endloop
 endfacet
 facet normal -0.0 0.0 1.0
  outer loop
   vertex 23.215453263362804 2.161 0.36
   vertex 111.7246293842942 0.0 0.36
   vertex 25.052318003484135 2.161 0.36
  endloop
 endfacet
 facet normal -0.0 0.0 1.0
  outer loop
   vertex 25.052318003484135 2.161 0.36
   vertex 111.7246293842942 0.0 0.36
   vertex 32.15145570166552 2.161 0.36
  endloop
 endfacet
 facet normal 0.0 0.0 1.0
  outer loop
   vertex 25.052318003484135 2.161 0.36
   vertex 36.94898602759113 5.84 0.36
   vertex 29.84984832940975 5.84 0.36
  endloop
 endfacet
 facet normal 0.0 0.0 1.0
  outer loop
   vertex 25.052318003484135 2.161 0.36
   vertex 32.15145570166552 2.161 0.36
   vertex 36.94898602759113 5.84 0.36
  endloop
 endfacet
 facet normal 0.0 0.0 1.0
  outer loop
   vertex 29.84984832940975 5.84 0.36
   vertex 36.94898602759113 5.84 0.36
   vertex 111.731 8.0 0.36
  endloop
 endfacet
 facet normal 0.0 0.0 1.0
  outer loop
   vertex 29.84984832940974 10.16 0.36
   vertex 25.783875698912077 16.0 0.36
   vertex 25.052318003484128 13.838999999999999 0.36
  endloop
 endfacet
 facet normal 0.0 -0.0 1.0
  outer loop
   vertex 29.84984832940974 10.16 0.36
   vertex 32.15145570166552 13.838999999999999 0.36
   vertex 25.783875698912077 16.0 0.36
  endloop
 endfacet
 facet normal 0.0 0.0 1.0
  outer loop
   vertex 29.84984832940974 10.16 0.36
   vertex 36.94898602759113 10.16 0.36
   vertex 32.15145570166552 13.838999999999999 0.36
  endloop
 endfacet
 facet normal 0.0 0.0 1.0
  outer loop
   vertex 25.052318003484128 13.838999999999999 0.36
   vertex 17.996813423874045 16.0 0.36
   vertex 23.215453263362804 13.839 0.36
  endloop
 endfacet
 facet normal 0.0 0.0 1.0
  outer loop
   vertex 36.94898602759113 5.84 0.36
   vertex 39.572973595790984 5.84 0.36
   vertex 111.731 8.0 0.36
  endloop
 endfacet
 facet normal -0.0 0.0 1.0
  outer loop
   vertex 32.15145570166552 2.161 0.36
   vertex 111.7246293842942 0.0 0.36
   vertex 44.36951053839061 2.161 0.36
  endloop
 endfacet
 facet normal -0.0 0.0 1.0
  outer loop
   vertex 44.36951053839061 2.161 0.36
   vertex 111.7246293842942 0.0 0.36
   vertex 51.467722643148235 2.161 0.36
  endloop
 endfacet
 facet normal 0.0 -0.0 1.0
  outer loop
   vertex 44.36951053839061 2.161 0.36
   vertex 46.67118570054861 5.84 0.36
   vertex 39.572973595790984 5.84 0.36
  endloop
 endfacet
 facet normal 0.0 0.0 1.0
  outer loop
   vertex 44.36951053839061 2.161 0.36
   vertex 51.467722643148235 2.161 0.36
   vertex 46.67118570054861 5.84 0.36
  endloop
 endfacet
 facet normal 0.0 0.0 1.0
  outer loop
   vertex 39.572973595790984 5.84 0.36
   vertex 46.67118570054861 5.84 0.36
   vertex 111.731 8.0 0.36
  endloop
 endfacet
 facet normal 0.0 0.0 1.0
  outer loop
   vertex 39.572973595790984 10.16 0.36
   vertex 50.73604424310913 16.0 0.36
   vertex 44.36951053839061 13.839 0.36
  endloop
 endfacet
 facet normal 0.0 0.0 1.0
  outer loop
   vertex 39.572973595790984 10.16 0.36
   vertex 51.46772264314825 13.839 0.36
   vertex 50.73604424310913 16.0 0.36
  endloop
 endfacet
 facet normal 0.0 0.0 1.0
  outer loop
   vertex 39.572973595790984 10.16 0.36
   vertex 46.67118570054863 10.16 0.36
   vertex 51.46772264314825 13.839 0.36
  endloop
 endfacet
 facet normal 0.0 0.0 1.0
  outer loop
   vertex 44.36951053839061 13.839 0.36
   vertex 25.783875698912077 16.0 0.36
   vertex 32.15145570166552 13.838999999999999 0.36
  endloop
 endfacet
 facet normal 0.0 0.0 1.0
  outer loop
   vertex 46.67118570054861 5.84 0.36
   vertex 49.6253006876435 5.84 0.36
   vertex 111.731 8.0 0.36
  endloop
 endfacet
 facet normal -0.0 0.0 1.0
  outer loop
   vertex 51.467722643148235 2.161 0.36
   vertex 111.7246293842942 0.0 0.36
   vertex 53.305391035479545 2.161 0.36
  endloop
 endfacet
 facet normal -0.0 0.0 1.0
  outer loop
   vertex 53.305391035479545 2.161 0.36
   vertex 111.7246293842942 0.0 0.36
   vertex 59.41569901598579 2.161 0.36
  endloop
 endfacet
 facet normal 0.0 -0.0 1.0
  outer loop
   vertex 53.305391035479545 2.161 0.36
   vertex 55.73560866814975 5.84 0.36
   vertex 49.6253006876435 5.84 0.36
  endloop
 endfacet
 facet normal 0.0 0.0 1.0
  outer loop
   vertex 53.305391035479545 2.161 0.36
   vertex 59.41569901598579 2.161 0.36
   vertex 55.73560866814975 5.84 0.36
  endloop
 endfacet
 facet normal 0.0 0.0 1.0
  outer loop
   vertex 49.6253006876435 5.84 0.36
   vertex 55.73560866814975 5.84 0.36
   vertex 111.731 8.0 0.36
  endloop
 endfacet
 facet normal 0.0 0.0 1.0
  outer loop
   vertex 49.6253006876435 10.16 0.36
   vertex 58.52218548283343 16.0 0.36
   vertex 53.305391035479545 13.839 0.36
  endloop
 endfacet
 facet normal 0.0 0.0 1.0
  outer loop
   vertex 49.6253006876435 10.16 0.36
   vertex 59.41569901598579 13.839 0.36
   vertex 61.51981451716657 16.0 0.36
  endloop
 endfacet
 facet normal 0.0 0.0 1.0
  outer loop
   vertex 49.6253006876435 10.16 0.36
   vertex 55.73560866814975 10.16 0.36
   vertex 59.41569901598579 13.839 0.36
  endloop
 endfacet
 facet normal 0.0 0.0 1.0
  outer loop
   vertex 53.305391035479545 13.839 0.36
   vertex 50.73604424310913 16.0 0.36
   vertex 51.46772264314825 13.839 0.36
  endloop
 endfacet
 facet normal 0.0 0.0 1.0
  outer loop
   vertex 55.73560866814975 5.84 0.36
   vertex 64.30639133185025 5.84 0.36
   vertex 111.731 8.0 0.36
  endloop
 endfacet
 facet normal -0.0 0.0 1.0
  outer loop
   vertex 59.41569901598579 2.161 0.36
   vertex 111.7246293842942 0.0 0.36
   vertex 60.62630098401421 2.161 0.36
  endloop
 endfacet
 facet normal -0.0 0.0 1.0
  outer loop
   vertex 60.62630098401421 2.161 0.36
   vertex 111.7246293842942 0.0 0.36
   vertex 66.73660896452044 2.161 0.36
  endloop
 endfacet
 facet normal 0.0 0.0 1.0
  outer loop
   vertex 60.62630098401421 2.161 0.36
   vertex 70.4166993123565 5.84 0.36
   vertex 64.30639133185025 5.84 0.36
  endloop
 endfacet
 facet normal 0.0 0.0 1.0
  outer loop
   vertex 60.62630098401421 2.161 0.36
   vertex 66.73660896452044 2.161 0.36
   vertex 70.4166993123565 5.84 0.36
  endloop
 endfacet
 facet normal 0.0 0.0 1.0
  outer loop
   vertex 64.30639133185025 5.84 0.36
   vertex 70.4166993123565 5.84 0.36
   vertex 111.731 8.0 0.36
  endloop
 endfacet
 facet normal 0.0 0.0 1.0
  outer loop
   vertex 64.30639133185026 10.16 0.36
   vertex 61.51981451716657 16.0 0.36
   vertex 60.626300984014215 13.839 0.36
  endloop
 endfacet
 facet normal 0.0 -0.0 1.0
  outer loop
   vertex 64.30639133185026 10.16 0.36
   vertex 66.73660896452046 13.839 0.36
   vertex 61.51981451716657 16.0 0.36
  endloop
 endfacet
 facet normal 0.0 0.0 1.0
  outer loop
   vertex 64.30639133185026 10.16 0.36
   vertex 70.41669931235651 10.16 0.36
   vertex 66.73660896452046 13.839 0.36
  endloop
 endfacet
 facet normal 0.0 -0.0 1.0
  outer loop
   vertex 60.626300984014215 13.839 0.36
   vertex 61.51981451716657 16.0 0.36
   vertex 59.41569901598579 13.839 0.36
  endloop
 endfacet
 facet normal 0.0 0.0 1.0
  outer loop
   vertex 70.4166993123565 5.84 0.36
   vertex 73.35352220332062 5.84 0.36
   vertex 111.731 8.0 0.36
  endloop
 endfacet
 facet normal -0.0 0.0 1.0
  outer loop
   vertex 66.73660896452044 2.161 0.36
   vertex 111.7246293842942 0.0 0.36
   vertex 68.9678878621305 2.161 0.36
  endloop
 endfacet
 facet normal -0.0 0.0 1.0
  outer loop
   vertex 68.9678878621305 2.161 0.36
   vertex 111.7246293842942 0.0 0.36
   vertex 75.68966986907436 2.161 0.36
  endloop
 endfacet
 facet normal 0.0 0.0 1.0
  outer loop
   vertex 68.9678878621305 2.161 0.36
   vertex 80.07530421026449 5.84 0.36
   vertex 73.35352220332062 5.84 0.36
  endloop
 endfacet
 facet normal 0.0 0.0 1.0
  outer loop
   vertex 68.9678878621305 2.161 0.36
   vertex 75.68966986907436 2.161 0.36
   vertex 80.07530421026449 5.84 0.36
  endloop
 endfacet
 facet normal 0.0 0.0 1.0
  outer loop
   vertex 73.35352220332062 5.84 0.36
   vertex 80.07530421026449 5.84 0.36
   vertex 111.731 8.0 0.36
  endloop
 endfacet
 facet normal 0.0 0.0 1.0
  outer loop
   vertex 73.35352220332062 10.16 0.36
   vertex 69.75271042001617 16.0 0.36
   vertex 68.9678878621305 13.839 0.36
  endloop
 endfacet
 facet normal 0.0 -0.0 1.0
  outer loop
   vertex 73.35352220332062 10.16 0.36
   vertex 75.68966986907438 13.839 0.36
   vertex 69.75271042001617 16.0 0.36
  endloop
 endfacet
 facet normal 0.0 0.0 1.0
  outer loop
   vertex 73.35352220332062 10.16 0.36
   vertex 80.07530421026452 10.16 0.36
   vertex 75.68966986907438 13.839 0.36
  endloop
 endfacet
 facet normal 0.0 0.0 1.0
  outer loop
   vertex 68.9678878621305 13.839 0.36
   vertex 61.51981451716657 16.0 0.36
   vertex 66.73660896452046 13.839 0.36
  endloop
 endfacet
 facet normal 0.0 0.0 1.0
  outer loop
   vertex 80.07530421026449 5.84 0.36
   vertex 82.17669578973549 5.84 0.36
   vertex 111.731 8.0 0.36
  endloop
 endfacet
 facet normal -0.0 0.0 1.0
  outer loop
   vertex 75.68966986907436 2.161 0.36
   vertex 111.7246293842942 0.0 0.36
   vertex 86.56233013092562 2.161 0.36
  endloop
 endfacet
 facet normal -0.0 0.0 1.0
  outer loop
   vertex 86.56233013092562 2.161 0.36
   vertex 111.7246293842942 0.0 0.36
   vertex 93.28411213786951 2.161 0.36
  endloop
 endfacet
 facet normal 0.0 -0.0 1.0
  outer loop
   vertex 86.56233013092562 2.161 0.36
   vertex 88.89847779667939 5.84 0.36
   vertex 82.17669578973549 5.84 0.36
  endloop
 endfacet
 facet normal 0.0 0.0 1.0
  outer loop
   vertex 86.56233013092562 2.161 0.36
   vertex 93.28411213786951 2.161 0.36
   vertex 88.89847779667939 5.84 0.36
  endloop
 endfacet
 facet normal 0.0 0.0 1.0
  outer loop
   vertex 82.17669578973549 5.84 0.36
   vertex 88.89847779667939 5.84 0.36
   vertex 111.731 8.0 0.36
  endloop
 endfacet
 facet normal 0.0 0.0 1.0
  outer loop
   vertex 82.1766957897355 10.16 0.36
   vertex 92.49928957998384 16.0 0.36
   vertex 86.56233013092563 13.839 0.36
  endloop
 endfacet
 facet normal 0.0 0.0 1.0
  outer loop
   vertex 82.1766957897355 10.16 0.36
   vertex 93.28411213786951 13.839 0.36
   vertex 92.49928957998384 16.0 0.36
  endloop
 endfacet
 facet normal 0.0 0.0 1.0
  outer loop
   vertex 82.1766957897355 10.16 0.36
   vertex 88.89847779667939 10.16 0.36
   vertex 93.28411213786951 13.839 0.36
  endloop
 endfacet
 facet normal 0.0 0.0 1.0
  outer loop
   vertex 86.56233013092563 13.839 0.36
   vertex 69.75271042001617 16.0 0.36
   vertex 75.68966986907438 13.839 0.36
  endloop
 endfacet
 facet normal 0.0 0.0 1.0
  outer loop
   vertex 88.89847779667939 5.84 0.36
   vertex 91.83361588324534 5.84 0.36
   vertex 111.731 8.0 0.36
  endloop
 endfacet
 facet normal -0.0 0.0 1.0
  outer loop
   vertex 93.28411213786951 2.161 0.36
   vertex 111.7246293842942 0.0 0.36
   vertex 95.51554673663719 2.161 0.36
  endloop
 endfacet
 facet normal -0.0 0.0 1.0
  outer loop
   vertex 95.51554673663719 2.161 0.36
   vertex 111.7246293842942 0.0 0.36
   vertex 101.6273833201106 2.161 0.36
  endloop
 endfacet
 facet normal 0.0 -0.0 1.0
  outer loop
   vertex 95.51554673663719 2.161 0.36
   vertex 97.94545246671875 5.84 0.36
   vertex 91.83361588324534 5.84 0.36
  endloop
 endfacet
 facet normal 0.0 0.0 1.0
  outer loop
   vertex 95.51554673663719 2.161 0.36
   vertex 101.6273833201106 2.161 0.36
   vertex 97.94545246671875 5.84 0.36
  endloop
 endfacet
 facet normal 0.0 0.0 1.0
  outer loop
   vertex 91.83361588324534 5.84 0.36
   vertex 97.94545246671875 5.84 0.36
   vertex 111.731 8.0 0.36
  endloop
 endfacet
 facet normal 0.0 0.0 1.0
  outer loop
   vertex 91.83361588324534 10.16 0.36
   vertex 100.73418657612595 16.0 0.36
   vertex 95.51554673663719 13.839 0.36
  endloop
 endfacet
 facet normal 0.0 0.0 1.0
  outer loop
   vertex 91.83361588324534 10.16 0.36
   vertex 101.6273833201106 13.839 0.36
   vertex 100.73418657612595 16.0 0.36
  endloop
 endfacet
 facet normal 0.0 0.0 1.0
  outer loop
   vertex 91.83361588324534 10.16 0.36
   vertex 97.94545246671875 10.16 0.36
   vertex 101.6273833201106 13.839 0.36
  endloop
 endfacet
 facet normal 0.0 0.0 1.0
  outer loop
   vertex 95.51554673663719 13.839 0.36
   vertex 92.49928957998384 16.0 0.36
   vertex 93.28411213786951 13.839 0.36
  endloop
 endfacet
 facet normal 0.0 0.0 1.0
  outer loop
   vertex 97.94545246671875 5.84 0.36
   vertex 109.5682792485749 5.84 0.36
   vertex 111.731 8.0 0.36
  endloop
 endfacet
 facet normal -0.0 0.0 1.0
  outer loop
   vertex 101.6273833201106 2.161 0.36
   vertex 111.7246293842942 0.0 0.36
   vertex 109.5653495616772 2.161 0.36
  endloop
 endfacet
 facet normal 0.0 0.0 1.0
  outer loop
   vertex 109.5653495616772 2.161 0.36
   vertex 111.731 8.0 0.36
   vertex 109.5682792485749 5.84 0.36
  endloop
 endfacet
 facet normal 0.0 -0.0 1.0
  outer loop
   vertex 109.5682792485749 10.16 0.36
   vertex 111.7246293842942 16.0 0.36
   vertex 109.5653495616772 13.839000000000002 0.36
  endloop
 endfacet
 facet normal 0.0 0.0 1.0
  outer loop
   vertex 109.5653495616772 13.839000000000002 0.36
   vertex 100.73418657612595 16.0 0.36
   vertex 101.6273833201106 13.839 0.36
  endloop
 endfacet
 facet normal 0.9999996829318347 -0.0007963267107332935 0.0
  outer loop
   vertex 2.159280618943961 5.84 0
   vertex 2.159280618943961 5.84 0.36
   vertex 2.1563509320462626 2.161 0
  endloop
 endfacet
 facet normal 0.9999996829318347 -0.0007963267107332935 0.0
  outer loop
   vertex 2.1563509320462626 2.161 0
   vertex 2.159280618943961 5.84 0.36
   vertex 2.1563509320462626 2.161 0.36
  endloop
 endfacet
 facet normal 0.0 1.0 0.0
  outer loop
   vertex 2.1563509320462626 2.161 0
   vertex 2.1563509320462626 2.161 0.36
   vertex 17.103616679889384 2.161 0
  endloop
 endfacet
 facet normal 0.0 1.0 -0.0
  outer loop
   vertex 17.103616679889384 2.161 0
   vertex 2.1563509320462626 2.161 0.36
   vertex 17.103616679889384 2.161 0.36
  endloop
 endfacet
 facet normal -0.7068251811053661 0.7073882691671998 0.0
  outer loop
   vertex 17.103616679889384 2.161 0
   vertex 17.103616679889384 2.161 0.36
   vertex 20.785547533281232 5.84 0
  endloop
 endfacet
 facet normal -0.7068251811053661 0.7073882691671998 0.0
  outer loop
   vertex 20.785547533281232 5.84 0
   vertex 17.103616679889384 2.161 0.36
   vertex 20.785547533281232 5.84 0.36
  endloop
 endfacet
 facet normal 0.0 -1.0 0.0
  outer loop
   vertex 20.785547533281232 5.84 0
   vertex 20.785547533281232 5.84 0.36
   vertex 2.159280618943961 5.84 0
  endloop
 endfacet
 facet normal 0.0 -1.0 0.0
  outer loop
   vertex 2.159280618943961 5.84 0
   vertex 20.785547533281232 5.84 0.36
   vertex 2.159280618943961 5.84 0.36
  endloop
 endfacet
 facet normal -0.7068251811053661 -0.7073882691671997 0.0
  outer loop
   vertex 20.785547533281232 10.16 0
   vertex 20.785547533281232 10.16 0.36
   vertex 17.103616679889384 13.839 0
  endloop
 endfacet
 facet normal -0.7068251811053661 -0.7073882691671997 0.0
  outer loop
   vertex 17.103616679889384 13.839 0
   vertex 20.785547533281232 10.16 0.36
   vertex 17.103616679889384 13.839 0.36
  endloop
 endfacet
 facet normal 0.0 -1.0 0.0
  outer loop
   vertex 17.103616679889384 13.839 0
   vertex 17.103616679889384 13.839 0.36
   vertex 2.1563509320462626 13.839 0
  endloop
 endfacet
 facet normal 0.0 -1.0 0.0
  outer loop
   vertex 2.1563509320462626 13.839 0
   vertex 17.103616679889384 13.839 0.36
   vertex 2.1563509320462626 13.839 0.36
  endloop
 endfacet
 facet normal 0.9999996829318347 0.0007963267107332934 -0.0
  outer loop
   vertex 2.1563509320462626 13.839 0
   vertex 2.1563509320462626 13.839 0.36
   vertex 2.159280618943961 10.16 0
  endloop
 endfacet
 facet normal 0.9999996829318347 0.0007963267107332934 -0.0
  outer loop
   vertex 2.159280618943961 10.16 0
   vertex 2.1563509320462626 13.839 0.36
   vertex 2.159280618943961 10.16 0.36
  endloop
 endfacet
 facet normal 0.0 1.0 0.0
  outer loop
   vertex 2.159280618943961 10.16 0
   vertex 2.159280618943961 10.16 0.36
   vertex 20.785547533281232 10.16 0
  endloop
 endfacet
 facet normal 0.0 1.0 -0.0
  outer loop
   vertex 20.785547533281232 10.16 0
   vertex 2.159280618943961 10.16 0.36
   vertex 20.785547533281232 10.16 0.36
  endloop
 endfacet
 facet normal 0.7068251811053661 -0.7073882691671998 0.0
  outer loop
   vertex 26.89738411675465 5.84 0
   vertex 26.89738411675465 5.84 0.36
   vertex 23.215453263362804 2.161 0
  endloop
 endfacet
 facet normal 0.7068251811053661 -0.7073882691671998 0.0
  outer loop
   vertex 23.215453263362804 2.161 0
   vertex 26.89738411675465 5.84 0.36
   vertex 23.215453263362804 2.161 0.36
  endloop
 endfacet
 facet normal 0.0 1.0 0.0
  outer loop
   vertex 23.215453263362804 2.161 0
   vertex 23.215453263362804 2.161 0.36
   vertex 25.052318003484135 2.161 0
  endloop
 endfacet
 facet normal 0.0 1.0 -0.0
  outer loop
   vertex 25.052318003484135 2.161 0
   vertex 23.215453263362804 2.161 0.36
   vertex 25.052318003484135 2.161 0.36
  endloop
 endfacet
 facet normal -0.6085246101236594 0.7935350016690179 0.0
  outer loop
   vertex 25.052318003484135 2.161 0
   vertex 25.052318003484135 2.161 0.36
   vertex 29.84984832940975 5.84 0
  endloop
 endfacet
 facet normal -0.6085246101236594 0.7935350016690179 0.0
  outer loop
   vertex 29.84984832940975 5.84 0
   vertex 25.052318003484135 2.161 0.36
   vertex 29.84984832940975 5.84 0.36
  endloop
 endfacet
 facet normal 0.0 -1.0 0.0
  outer loop
   vertex 29.84984832940975 5.84 0
   vertex 29.84984832940975 5.84 0.36
   vertex 26.89738411675465 5.84 0
  endloop
 endfacet
 facet normal 0.0 -1.0 0.0
  outer loop
   vertex 26.89738411675465 5.84 0
   vertex 29.84984832940975 5.84 0.36
   vertex 26.89738411675465 5.84 0.36
  endloop
 endfacet
 facet normal -0.6085246101236595 -0.7935350016690178 0.0
  outer loop
   vertex 29.84984832940974 10.16 0
   vertex 29.84984832940974 10.16 0.36
   vertex 25.052318003484128 13.838999999999999 0
  endloop
 endfacet
 facet normal -0.6085246101236595 -0.7935350016690178 0.0
  outer loop
   vertex 25.052318003484128 13.838999999999999 0
   vertex 29.84984832940974 10.16 0.36
   vertex 25.052318003484128 13.838999999999999 0.36
  endloop
 endfacet
 facet normal -9.670591419175058e-16 -1.0 0.0
  outer loop
   vertex 25.052318003484128 13.838999999999999 0
   vertex 25.052318003484128 13.838999999999999 0.36
   vertex 23.215453263362804 13.839 0
  endloop
 endfacet
 facet normal -9.670591419175058e-16 -1.0 0.0
  outer loop
   vertex 23.215453263362804 13.839 0
   vertex 25.052318003484128 13.838999999999999 0.36
   vertex 23.215453263362804 13.839 0.36
  endloop
 endfacet
 facet normal 0.7068251811053661 0.7073882691671997 -0.0
  outer loop
   vertex 23.215453263362804 13.839 0
   vertex 23.215453263362804 13.839 0.36
   vertex 26.89738411675465 10.16 0
  endloop
 endfacet
 facet normal 0.7068251811053661 0.7073882691671997 -0.0
  outer loop
   vertex 26.89738411675465 10.16 0
   vertex 23.215453263362804 13.839 0.36
   vertex 26.89738411675465 10.16 0.36
  endloop
 endfacet
 facet normal 0.0 1.0 0.0
  outer loop
   vertex 26.89738411675465 10.16 0
   vertex 26.89738411675465 10.16 0.36
   vertex 29.84984832940974 10.16 0
  endloop
 endfacet
 facet normal 0.0 1.0 -0.0
  outer loop
   vertex 29.84984832940974 10.16 0
   vertex 26.89738411675465 10.16 0.36
   vertex 29.84984832940974 10.16 0.36
  endloop
 endfacet
 facet normal 0.6085246101236594 -0.7935350016690179 0.0
  outer loop
   vertex 36.94898602759113 5.84 0
   vertex 36.94898602759113 5.84 0.36
   vertex 32.15145570166552 2.161 0
  endloop
 endfacet
 facet normal 0.6085246101236594 -0.7935350016690179 0.0
  outer loop
   vertex 32.15145570166552 2.161 0
   vertex 36.94898602759113 5.84 0.36
   vertex 32.15145570166552 2.161 0.36
  endloop
 endfacet
 facet normal 0.0 1.0 0.0
  outer loop
   vertex 32.15145570166552 2.161 0
   vertex 32.15145570166552 2.161 0.36
   vertex 44.36951053839061 2.161 0
  endloop
 endfacet
 facet normal 0.0 1.0 -0.0
  outer loop
   vertex 44.36951053839061 2.161 0
   vertex 32.15145570166552 2.161 0.36
   vertex 44.36951053839061 2.161 0.36
  endloop
 endfacet
 facet normal -0.6086039605810706 -0.7934741452404321 0.0
  outer loop
   vertex 44.36951053839061 2.161 0
   vertex 44.36951053839061 2.161 0.36
   vertex 39.572973595790984 5.84 0
  endloop
 endfacet
 facet normal -0.6086039605810706 -0.7934741452404321 0.0
  outer loop
   vertex 39.572973595790984 5.84 0
   vertex 44.36951053839061 2.161 0.36
   vertex 39.572973595790984 5.84 0.36
  endloop
 endfacet
 facet normal 0.0 -1.0 0.0
  outer loop
   vertex 39.572973595790984 5.84 0
   vertex 39.572973595790984 5.84 0.36
   vertex 36.94898602759113 5.84 0
  endloop
 endfacet
 facet normal 0.0 -1.0 0.0
  outer loop
   vertex 36.94898602759113 5.84 0
   vertex 39.572973595790984 5.84 0.36
   vertex 36.94898602759113 5.84 0.36
  endloop
 endfacet
 facet normal -0.6086039605810707 0.7934741452404321 0.0
  outer loop
   vertex 39.572973595790984 10.16 0
   vertex 39.572973595790984 10.16 0.36
   vertex 44.36951053839061 13.839 0
  endloop
 endfacet
 facet normal -0.6086039605810707 0.7934741452404321 0.0
  outer loop
   vertex 44.36951053839061 13.839 0
   vertex 39.572973595790984 10.16 0.36
   vertex 44.36951053839061 13.839 0.36
  endloop
 endfacet
 facet normal 1.4538785945377072e-16 -1.0 0.0
  outer loop
   vertex 44.36951053839061 13.839 0
   vertex 44.36951053839061 13.839 0.36
   vertex 32.15145570166552 13.838999999999999 0
  endloop
 endfacet
 facet normal 1.4538785945377072e-16 -1.0 0.0
  outer loop
   vertex 32.15145570166552 13.838999999999999 0
   vertex 44.36951053839061 13.839 0.36
   vertex 32.15145570166552 13.838999999999999 0.36
  endloop
 endfacet
 facet normal 0.6085246101236593 0.7935350016690181 -0.0
  outer loop
   vertex 32.15145570166552 13.838999999999999 0
   vertex 32.15145570166552 13.838999999999999 0.36
   vertex 36.94898602759113 10.16 0
  endloop
 endfacet
 facet normal 0.6085246101236593 0.7935350016690181 -0.0
  outer loop
   vertex 36.94898602759113 10.16 0
   vertex 32.15145570166552 13.838999999999999 0.36
   vertex 36.94898602759113 10.16 0.36
  endloop
 endfacet
 facet normal 0.0 1.0 0.0
  outer loop
   vertex 36.94898602759113 10.16 0
   vertex 36.94898602759113 10.16 0.36
   vertex 39.572973595790984 10.16 0
  endloop
 endfacet
 facet normal 0.0 1.0 -0.0
  outer loop
   vertex 39.572973595790984 10.16 0
   vertex 36.94898602759113 10.16 0.36
   vertex 39.572973595790984 10.16 0.36
  endloop
 endfacet
 facet normal 0.6086039605810706 0.7934741452404321 -0.0
  outer loop
   vertex 46.67118570054861 5.84 0
   vertex 46.67118570054861 5.84 0.36
   vertex 51.467722643148235 2.161 0
  endloop
 endfacet
 facet normal 0.6086039605810706 0.7934741452404321 -0.0
  outer loop
   vertex 51.467722643148235 2.161 0
   vertex 46.67118570054861 5.84 0.36
   vertex 51.467722643148235 2.161 0.36
  endloop
 endfacet
 facet normal 0.0 1.0 0.0
  outer loop
   vertex 51.467722643148235 2.161 0
   vertex 51.467722643148235 2.161 0.36
   vertex 53.305391035479545 2.161 0
  endloop
 endfacet
 facet normal 0.0 1.0 -0.0
  outer loop
   vertex 53.305391035479545 2.161 0
   vertex 51.467722643148235 2.161 0.36
   vertex 53.305391035479545 2.161 0.36
  endloop
 endfacet
 facet normal -0.7070020060825287 -0.7072115407678807 0.0
  outer loop
   vertex 53.305391035479545 2.161 0
   vertex 53.305391035479545 2.161 0.36
   vertex 49.6253006876435 5.84 0
  endloop
 endfacet
 facet normal -0.7070020060825287 -0.7072115407678807 0.0
  outer loop
   vertex 49.6253006876435 5.84 0
   vertex 53.305391035479545 2.161 0.36
   vertex 49.6253006876435 5.84 0.36
  endloop
 endfacet
 facet normal 0.0 -1.0 0.0
  outer loop
   vertex 49.6253006876435 5.84 0
   vertex 49.6253006876435 5.84 0.36
   vertex 46.67118570054861 5.84 0
  endloop
 endfacet
 facet normal 0.0 -1.0 0.0
  outer loop
   vertex 46.67118570054861 5.84 0
   vertex 49.6253006876435 5.84 0.36
   vertex 46.67118570054861 5.84 0.36
  endloop
 endfacet
 facet normal -0.7070020060825288 0.7072115407678807 0.0
  outer loop
   vertex 49.6253006876435 10.16 0
   vertex 49.6253006876435 10.16 0.36
   vertex 53.305391035479545 13.839 0
  endloop
 endfacet
 facet normal -0.7070020060825288 0.7072115407678807 0.0
  outer loop
   vertex 53.305391035479545 13.839 0
   vertex 49.6253006876435 10.16 0.36
   vertex 53.305391035479545 13.839 0.36
  endloop
 endfacet
 facet normal 0.0 -1.0 0.0
  outer loop
   vertex 53.305391035479545 13.839 0
   vertex 53.305391035479545 13.839 0.36
   vertex 51.46772264314825 13.839 0
  endloop
 endfacet
 facet normal 0.0 -1.0 0.0
  outer loop
   vertex 51.46772264314825 13.839 0
   vertex 53.305391035479545 13.839 0.36
   vertex 51.46772264314825 13.839 0.36
  endloop
 endfacet
 facet normal 0.6086039605810707 -0.7934741452404321 0.0
  outer loop
   vertex 51.46772264314825 13.839 0
   vertex 51.46772264314825 13.839 0.36
   vertex 46.67118570054863 10.16 0
  endloop
 endfacet
 facet normal 0.6086039605810707 -0.7934741452404321 0.0
  outer loop
   vertex 46.67118570054863 10.16 0
   vertex 51.46772264314825 13.839 0.36
   vertex 46.67118570054863 10.16 0.36
  endloop
 endfacet
 facet normal 0.0 1.0 0.0
  outer loop
   vertex 46.67118570054863 10.16 0
   vertex 46.67118570054863 10.16 0.36
   vertex 49.6253006876435 10.16 0
  endloop
 endfacet
 facet normal 0.0 1.0 -0.0
  outer loop
   vertex 49.6253006876435 10.16 0
   vertex 46.67118570054863 10.16 0.36
   vertex 49.6253006876435 10.16 0.36
  endloop
 endfacet
 facet normal 0.7070020060825294 0.7072115407678801 -0.0
  outer loop
   vertex 55.73560866814975 5.84 0
   vertex 55.73560866814975 5.84 0.36
   vertex 59.41569901598579 2.161 0
  endloop
 endfacet
 facet normal 0.7070020060825294 0.7072115407678801 -0.0
  outer loop
   vertex 59.41569901598579 2.161 0
   vertex 55.73560866814975 5.84 0.36
   vertex 59.41569901598579 2.161 0.36
  endloop
 endfacet
 facet normal 0.0 1.0 0.0
  outer loop
   vertex 59.41569901598579 2.161 0
   vertex 59.41569901598579 2.161 0.36
   vertex 60.62630098401421 2.161 0
  endloop
 endfacet
 facet normal 0.0 1.0 -0.0
  outer loop
   vertex 60.62630098401421 2.161 0
   vertex 59.41569901598579 2.161 0.36
   vertex 60.62630098401421 2.161 0.36
  endloop
 endfacet
 facet normal -0.7070020060825287 0.7072115407678807 0.0
  outer loop
   vertex 60.62630098401421 2.161 0
   vertex 60.62630098401421 2.161 0.36
   vertex 64.30639133185025 5.84 0
  endloop
 endfacet
 facet normal -0.7070020060825287 0.7072115407678807 0.0
  outer loop
   vertex 64.30639133185025 5.84 0
   vertex 60.62630098401421 2.161 0.36
   vertex 64.30639133185025 5.84 0.36
  endloop
 endfacet
 facet normal 0.0 -1.0 0.0
  outer loop
   vertex 64.30639133185025 5.84 0
   vertex 64.30639133185025 5.84 0.36
   vertex 55.73560866814975 5.84 0
  endloop
 endfacet
 facet normal 0.0 -1.0 0.0
  outer loop
   vertex 55.73560866814975 5.84 0
   vertex 64.30639133185025 5.84 0.36
   vertex 55.73560866814975 5.84 0.36
  endloop
 endfacet
 facet normal -0.7070020060825282 -0.7072115407678814 0.0
  outer loop
   vertex 64.30639133185026 10.16 0
   vertex 64.30639133185026 10.16 0.36
   vertex 60.626300984014215 13.839 0
  endloop
 endfacet
 facet normal -0.7070020060825282 -0.7072115407678814 0.0
  outer loop
   vertex 60.626300984014215 13.839 0
   vertex 64.30639133185026 10.16 0.36
   vertex 60.626300984014215 13.839 0.36
  endloop
 endfacet
 facet normal 0.0 -1.0 0.0
  outer loop
   vertex 60.626300984014215 13.839 0
   vertex 60.626300984014215 13.839 0.36
   vertex 59.41569901598579 13.839 0
  endloop
 endfacet
 facet normal 0.0 -1.0 0.0
  outer loop
   vertex 59.41569901598579 13.839 0
   vertex 60.626300984014215 13.839 0.36
   vertex 59.41569901598579 13.839 0.36
  endloop
 endfacet
 facet normal 0.7070020060825296 -0.7072115407678801 0.0
  outer loop
   vertex 59.41569901598579 13.839 0
   vertex 59.41569901598579 13.839 0.36
   vertex 55.73560866814975 10.16 0
  endloop
 endfacet
 facet normal 0.7070020060825296 -0.7072115407678801 0.0
  outer loop
   vertex 55.73560866814975 10.16 0
   vertex 59.41569901598579 13.839 0.36
   vertex 55.73560866814975 10.16 0.36
  endloop
 endfacet
 facet normal 0.0 1.0 0.0
  outer loop
   vertex 55.73560866814975 10.16 0
   vertex 55.73560866814975 10.16 0.36
   vertex 64.30639133185026 10.16 0
  endloop
 endfacet
 facet normal 0.0 1.0 -0.0
  outer loop
   vertex 64.30639133185026 10.16 0
   vertex 55.73560866814975 10.16 0.36
   vertex 64.30639133185026 10.16 0.36
  endloop
 endfacet
 facet normal 0.7070020060825274 -0.7072115407678821 0.0
  outer loop
   vertex 70.4166993123565 5.84 0
   vertex 70.4166993123565 5.84 0.36
   vertex 66.73660896452044 2.161 0
  endloop
 endfacet
 facet normal 0.7070020060825274 -0.7072115407678821 0.0
  outer loop
   vertex 66.73660896452044 2.161 0
   vertex 70.4166993123565 5.84 0.36
   vertex 66.73660896452044 2.161 0.36
  endloop
 endfacet
 facet normal 0.0 1.0 0.0
  outer loop
   vertex 66.73660896452044 2.161 0
   vertex 66.73660896452044 2.161 0.36
   vertex 68.9678878621305 2.161 0
  endloop
 endfacet
 facet normal 0.0 1.0 -0.0
  outer loop
   vertex 68.9678878621305 2.161 0
   vertex 66.73660896452044 2.161 0.36
   vertex 68.9678878621305 2.161 0.36
  endloop
 endfacet
 facet normal -0.6426867154479664 0.7661290921161426 0.0
  outer loop
   vertex 68.9678878621305 2.161 0
   vertex 68.9678878621305 2.161 0.36
   vertex 73.35352220332062 5.84 0
  endloop
 endfacet
 facet normal -0.6426867154479664 0.7661290921161426 0.0
  outer loop
   vertex 73.35352220332062 5.84 0
   vertex 68.9678878621305 2.161 0.36
   vertex 73.35352220332062 5.84 0.36
  endloop
 endfacet
 facet normal 0.0 -1.0 0.0
  outer loop
   vertex 73.35352220332062 5.84 0
   vertex 73.35352220332062 5.84 0.36
   vertex 70.4166993123565 5.84 0
  endloop
 endfacet
 facet normal 0.0 -1.0 0.0
  outer loop
   vertex 70.4166993123565 5.84 0
   vertex 73.35352220332062 5.84 0.36
   vertex 70.4166993123565 5.84 0.36
  endloop
 endfacet
 facet normal -0.6426867154479664 -0.7661290921161424 0.0
  outer loop
   vertex 73.35352220332062 10.16 0
   vertex 73.35352220332062 10.16 0.36
   vertex 68.9678878621305 13.839 0
  endloop
 endfacet
 facet normal -0.6426867154479664 -0.7661290921161424 0.0
  outer loop
   vertex 68.9678878621305 13.839 0
   vertex 73.35352220332062 10.16 0.36
   vertex 68.9678878621305 13.839 0.36
  endloop
 endfacet
 facet normal 0.0 -1.0 0.0
  outer loop
   vertex 68.9678878621305 13.839 0
   vertex 68.9678878621305 13.839 0.36
   vertex 66.73660896452046 13.839 0
  endloop
 endfacet
 facet normal 0.0 -1.0 0.0
  outer loop
   vertex 66.73660896452046 13.839 0
   vertex 68.9678878621305 13.839 0.36
   vertex 66.73660896452046 13.839 0.36
  endloop
 endfacet
 facet normal 0.7070020060825275 0.7072115407678821 -0.0
  outer loop
   vertex 66.73660896452046 13.839 0
   vertex 66.73660896452046 13.839 0.36
   vertex 70.41669931235651 10.16 0
  endloop
 endfacet
 facet normal 0.7070020060825275 0.7072115407678821 -0.0
  outer loop
   vertex 70.41669931235651 10.16 0
   vertex 66.73660896452046 13.839 0.36
   vertex 70.41669931235651 10.16 0.36
  endloop
 endfacet
 facet normal 0.0 1.0 0.0
  outer loop
   vertex 70.41669931235651 10.16 0
   vertex 70.41669931235651 10.16 0.36
   vertex 73.35352220332062 10.16 0
  endloop
 endfacet
 facet normal 0.0 1.0 -0.0
  outer loop
   vertex 73.35352220332062 10.16 0
   vertex 70.41669931235651 10.16 0.36
   vertex 73.35352220332062 10.16 0.36
  endloop
 endfacet
 facet normal 0.6426867154479664 -0.7661290921161426 0.0
  outer loop
   vertex 80.07530421026449 5.84 0
   vertex 80.07530421026449 5.84 0.36
   vertex 75.68966986907436 2.161 0
  endloop
 endfacet
 facet normal 0.6426867154479664 -0.7661290921161426 0.0
  outer loop
   vertex 75.68966986907436 2.161 0
   vertex 80.07530421026449 5.84 0.36
   vertex 75.68966986907436 2.161 0.36
  endloop
 endfacet
 facet normal 0.0 1.0 0.0
  outer loop
   vertex 75.68966986907436 2.161 0
   vertex 75.68966986907436 2.161 0.36
   vertex 86.56233013092562 2.161 0
  endloop
 endfacet
 facet normal 0.0 1.0 -0.0
  outer loop
   vertex 86.56233013092562 2.161 0
   vertex 75.68966986907436 2.161 0.36
   vertex 86.56233013092562 2.161 0.36
  endloop
 endfacet
 facet normal -0.6426867154479664 -0.7661290921161426 0.0
  outer loop
   vertex 86.56233013092562 2.161 0
   vertex 86.56233013092562 2.161 0.36
   vertex 82.17669578973549 5.84 0
  endloop
 endfacet
 facet normal -0.6426867154479664 -0.7661290921161426 0.0
  outer loop
   vertex 82.17669578973549 5.84 0
   vertex 86.56233013092562 2.161 0.36
   vertex 82.17669578973549 5.84 0.36
  endloop
 endfacet
 facet normal 0.0 -1.0 0.0
  outer loop
   vertex 82.17669578973549 5.84 0
   vertex 82.17669578973549 5.84 0.36
   vertex 80.07530421026449 5.84 0
  endloop
 endfacet
 facet normal 0.0 -1.0 0.0
  outer loop
   vertex 80.07530421026449 5.84 0
   vertex 82.17669578973549 5.84 0.36
   vertex 80.07530421026449 5.84 0.36
  endloop
 endfacet
 facet normal -0.6426867154479664 0.7661290921161424 0.0
  outer loop
   vertex 82.1766957897355 10.16 0
   vertex 82.1766957897355 10.16 0.36
   vertex 86.56233013092563 13.839 0
  endloop
 endfacet
 facet normal -0.6426867154479664 0.7661290921161424 0.0
  outer loop
   vertex 86.56233013092563 13.839 0
   vertex 82.1766957897355 10.16 0.36
   vertex 86.56233013092563 13.839 0.36
  endloop
 endfacet
 facet normal 0.0 -1.0 0.0
  outer loop
   vertex 86.56233013092563 13.839 0
   vertex 86.56233013092563 13.839 0.36
   vertex 75.68966986907438 13.839 0
  endloop
 endfacet
 facet normal 0.0 -1.0 0.0
  outer loop
   vertex 75.68966986907438 13.839 0
   vertex 86.56233013092563 13.839 0.36
   vertex 75.68966986907438 13.839 0.36
  endloop
 endfacet
 facet normal 0.6426867154479651 0.7661290921161434 -0.0
  outer loop
   vertex 75.68966986907438 13.839 0
   vertex 75.68966986907438 13.839 0.36
   vertex 80.07530421026452 10.16 0
  endloop
 endfacet
 facet normal 0.6426867154479651 0.7661290921161434 -0.0
  outer loop
   vertex 80.07530421026452 10.16 0
   vertex 75.68966986907438 13.839 0.36
   vertex 80.07530421026452 10.16 0.36
  endloop
 endfacet
 facet normal 0.0 1.0 0.0
  outer loop
   vertex 80.07530421026452 10.16 0
   vertex 80.07530421026452 10.16 0.36
   vertex 82.1766957897355 10.16 0
  endloop
 endfacet
 facet normal 0.0 1.0 -0.0
  outer loop
   vertex 82.1766957897355 10.16 0
   vertex 80.07530421026452 10.16 0.36
   vertex 82.1766957897355 10.16 0.36
  endloop
 endfacet
 facet normal 0.6426867154479664 0.7661290921161426 -0.0
  outer loop
   vertex 88.89847779667939 5.84 0
   vertex 88.89847779667939 5.84 0.36
   vertex 93.28411213786951 2.161 0
  endloop
 endfacet
 facet normal 0.6426867154479664 0.7661290921161426 -0.0
  outer loop
   vertex 93.28411213786951 2.161 0
   vertex 88.89847779667939 5.84 0.36
   vertex 93.28411213786951 2.161 0.36
  endloop
 endfacet
 facet normal 0.0 1.0 0.0
  outer loop
   vertex 93.28411213786951 2.161 0
   vertex 93.28411213786951 2.161 0.36
   vertex 95.51554673663719 2.161 0
  endloop
 endfacet
 facet normal 0.0 1.0 -0.0
  outer loop
   vertex 95.51554673663719 2.161 0
   vertex 93.28411213786951 2.161 0.36
   vertex 95.51554673663719 2.161 0.36
  endloop
 endfacet
 facet normal -0.7068251811053661 -0.7073882691671998 0.0
  outer loop
   vertex 95.51554673663719 2.161 0
   vertex 95.51554673663719 2.161 0.36
   vertex 91.83361588324534 5.84 0
  endloop
 endfacet
 facet normal -0.7068251811053661 -0.7073882691671998 0.0
  outer loop
   vertex 91.83361588324534 5.84 0
   vertex 95.51554673663719 2.161 0.36
   vertex 91.83361588324534 5.84 0.36
  endloop
 endfacet
 facet normal 0.0 -1.0 0.0
  outer loop
   vertex 91.83361588324534 5.84 0
   vertex 91.83361588324534 5.84 0.36
   vertex 88.89847779667939 5.84 0
  endloop
 endfacet
 facet normal 0.0 -1.0 0.0
  outer loop
   vertex 88.89847779667939 5.84 0
   vertex 91.83361588324534 5.84 0.36
   vertex 88.89847779667939 5.84 0.36
  endloop
 endfacet
 facet normal -0.7068251811053661 0.7073882691671997 0.0
  outer loop
   vertex 91.83361588324534 10.16 0
   vertex 91.83361588324534 10.16 0.36
   vertex 95.51554673663719 13.839 0
  endloop
 endfacet
 facet normal -0.7068251811053661 0.7073882691671997 0.0
  outer loop
   vertex 95.51554673663719 13.839 0
   vertex 91.83361588324534 10.16 0.36
   vertex 95.51554673663719 13.839 0.36
  endloop
 endfacet
 facet normal 0.0 -1.0 0.0
  outer loop
   vertex 95.51554673663719 13.839 0
   vertex 95.51554673663719 13.839 0.36
   vertex 93.28411213786951 13.839 0
  endloop
 endfacet
 facet normal 0.0 -1.0 0.0
  outer loop
   vertex 93.28411213786951 13.839 0
   vertex 95.51554673663719 13.839 0.36
   vertex 93.28411213786951 13.839 0.36
  endloop
 endfacet
 facet normal 0.6426867154479664 -0.7661290921161424 0.0
  outer loop
   vertex 93.28411213786951 13.839 0
   vertex 93.28411213786951 13.839 0.36
   vertex 88.89847779667939 10.16 0
  endloop
 endfacet
 facet normal 0.6426867154479664 -0.7661290921161424 0.0
  outer loop
   vertex 88.89847779667939 10.16 0
   vertex 93.28411213786951 13.839 0.36
   vertex 88.89847779667939 10.16 0.36
  endloop
 endfacet
 facet normal 0.0 1.0 0.0
  outer loop
   vertex 88.89847779667939 10.16 0
   vertex 88.89847779667939 10.16 0.36
   vertex 91.83361588324534 10.16 0
  endloop
 endfacet
 facet normal 0.0 1.0 -0.0
  outer loop
   vertex 91.83361588324534 10.16 0
   vertex 88.89847779667939 10.16 0.36
   vertex 91.83361588324534 10.16 0.36
  endloop
 endfacet
 facet normal 0.7068251811053661 0.7073882691671998 -0.0
  outer loop
   vertex 97.94545246671875 5.84 0
   vertex 97.94545246671875 5.84 0.36
   vertex 101.6273833201106 2.161 0
  endloop
 endfacet
 facet normal 0.7068251811053661 0.7073882691671998 -0.0
  outer loop
   vertex 101.6273833201106 2.161 0
   vertex 97.94545246671875 5.84 0.36
   vertex 101.6273833201106 2.161 0.36
  endloop
 endfacet
 facet normal 0.0 1.0 0.0
  outer loop
   vertex 101.6273833201106 2.161 0
   vertex 101.6273833201106 2.161 0.36
   vertex 109.5653495616772 2.161 0
  endloop
 endfacet
 facet normal 0.0 1.0 -0.0
  outer loop
   vertex 109.5653495616772 2.161 0
   vertex 101.6273833201106 2.161 0.36
   vertex 109.5653495616772 2.161 0.36
  endloop
 endfacet
 facet normal -0.9999996829318347 0.0007963267107341384 0.0
  outer loop
   vertex 109.5653495616772 2.161 0
   vertex 109.5653495616772 2.161 0.36
   vertex 109.5682792485749 5.84 0
  endloop
 endfacet
 facet normal -0.9999996829318347 0.0007963267107341384 0.0
  outer loop
   vertex 109.5682792485749 5.84 0
   vertex 109.5653495616772 2.161 0.36
   vertex 109.5682792485749 5.84 0.36
  endloop
 endfacet
 facet normal 0.0 -1.0 0.0
  outer loop
   vertex 109.5682792485749 5.84 0
   vertex 109.5682792485749 5.84 0.36
   vertex 97.94545246671875 5.84 0
  endloop
 endfacet
 facet normal 0.0 -1.0 0.0
  outer loop
   vertex 97.94545246671875 5.84 0
   vertex 109.5682792485749 5.84 0.36
   vertex 97.94545246671875 5.84 0.36
  endloop
 endfacet
 facet normal -0.9999996829318347 -0.000796326710734138 0.0
  outer loop
   vertex 109.5682792485749 10.16 0
   vertex 109.5682792485749 10.16 0.36
   vertex 109.5653495616772 13.839000000000002 0
  endloop
 endfacet
 facet normal -0.9999996829318347 -0.000796326710734138 0.0
  outer loop
   vertex 109.5653495616772 13.839000000000002 0
   vertex 109.5682792485749 10.16 0.36
   vertex 109.5653495616772 13.839000000000002 0.36
  endloop
 endfacet
 facet normal 2.2377984301551743e-16 -1.0 0.0
  outer loop
   vertex 109.5653495616772 13.839000000000002 0
   vertex 109.5653495616772 13.839000000000002 0.36
   vertex 101.6273833201106 13.839 0
  endloop
 endfacet
 facet normal 2.2377984301551743e-16 -1.0 0.0
  outer loop
   vertex 101.6273833201106 13.839 0
   vertex 109.5653495616772 13.839000000000002 0.36
   vertex 101.6273833201106 13.839 0.36
  endloop
 endfacet
 facet normal 0.7068251811053661 -0.7073882691671997 0.0
  outer loop
   vertex 101.6273833201106 13.839 0
   vertex 101.6273833201106 13.839 0.36
   vertex 97.94545246671875 10.16 0
  endloop
 endfacet
 facet normal 0.7068251811053661 -0.7073882691671997 0.0
  outer loop
   vertex 97.94545246671875 10.16 0
   vertex 101.6273833201106 13.839 0.36
   vertex 97.94545246671875 10.16 0.36
  endloop
 endfacet
 facet normal 0.0 1.0 0.0
  outer loop
   vertex 97.94545246671875 10.16 0
   vertex 97.94545246671875 10.16 0.36
   vertex 109.5682792485749 10.16 0
  endloop
 endfacet
 facet normal 0.0 1.0 -0.0
  outer loop
   vertex 109.5682792485749 10.16 0
   vertex 97.94545246671875 10.16 0.36
   vertex 109.5682792485749 10.16 0.36
  endloop
 endfacet
endsolid
