solid PyGamic generated __All_Units__ SLA File
 facet normal 0.0 0.0 -1.0
  outer loop
   vertex -0.0012934213370145275 13.620000000000001 0
   vertex 45.29972025613348 13.620000000000001 0
   vertex 31.669870761068633 0.001 0
  endloop
 endfacet
 facet normal 0.0 -0.0 -1.0
  outer loop
   vertex -0.0012934213370145275 13.620000000000001 0
   vertex 31.669870761068633 0.001 0
   vertex -0.012138598249151188 0.001 0
  endloop
 endfacet
 facet normal 0.0 0.32226379780430425 -0.946649906050144
  outer loop
   vertex 45.29972025613348 13.620000000000001 0
   vertex -0.0012934213370145275 13.620000000000001 0
   vertex 0.0009522206992748757 16.44 0.96
  endloop
 endfacet
 facet normal 0.0 0.32226379780430436 -0.9466499060501441
  outer loop
   vertex 52.111637895402986 16.44 0.96
   vertex 45.29972025613348 13.620000000000001 0
   vertex 0.0009522206992748757 16.44 0.96
  endloop
 endfacet
 facet normal 0.22778416724673045 -0.22796563014403523 -0.946649906050144
  outer loop
   vertex 31.669870761068633 0.001 0
   vertex 45.29972025613348 13.620000000000001 0
   vertex 52.111637895402986 16.44 0.96
  endloop
 endfacet
 facet normal 0.2277841672467306 -0.22796563014403542 -0.9466499060501439
  outer loop
   vertex 35.659541864169334 0.001 0.96
   vertex 31.669870761068633 0.001 0
   vertex 52.111637895402986 16.44 0.96
  endloop
 endfacet
 facet normal 0.0 -1.0 0.0
  outer loop
   vertex -0.012138598249151188 0.001 0
   vertex 31.669870761068633 0.001 0
   vertex 35.659541864169334 0.001 0.96
  endloop
 endfacet
 facet normal 0.0 -1.0 0.0
  outer loop
   vertex -0.012138598249151188 0.001 0.96
   vertex -0.012138598249151188 0.001 0
   vertex 35.659541864169334 0.001 0.96
  endloop
 endfacet
 facet normal -0.9999996829318346 0.0007963267107332633 0.0
  outer loop
   vertex -0.0012934213370145275 13.620000000000001 0
   vertex -0.012138598249151188 0.001 0
   vertex -0.012138598249151188 0.001 0.96
  endloop
 endfacet
 facet normal -0.9999996829318346 0.0007963267107332633 -4.396868539122455e-19
  outer loop
   vertex 0.0009522206992748757 16.44 0.96
   vertex -0.0012934213370145275 13.620000000000001 0
   vertex -0.012138598249151188 0.001 0.96
  endloop
 endfacet
 facet normal -0.0 0.0 1.0
  outer loop
   vertex 0.0009522206992748757 16.44 0.96
   vertex 35.659541864169334 0.001 0.96
   vertex 52.111637895402986 16.44 0.96
  endloop
 endfacet
 facet normal 0.0 0.0 1.0
  outer loop
   vertex 0.0009522206992748757 16.44 0.96
   vertex -0.012138598249151188 0.001 0.96
   vertex 35.659541864169334 0.001 0.96
  endloop
 endfacet
 facet normal 0.0 0.0 -1.0
  outer loop
   vertex 0.0009522206992748757 16.44 1.3199999999999998
   vertex 52.111637895402986 16.44 1.3199999999999998
   vertex 35.659541864169334 0.001 1.3199999999999998
  endloop
 endfacet
 facet normal 0.0 -0.0 -1.0
  outer loop
   vertex 0.0009522206992748757 16.44 1.3199999999999998
   vertex 35.659541864169334 0.001 1.3199999999999998
   vertex -0.012138598249151188 0.001 1.3199999999999998
  endloop
 endfacet
 facet normal 0.0 0.32226379780430436 0.9466499060501441
  outer loop
   vertex 52.111637895402986 16.44 1.3199999999999998
   vertex 0.0009522206992748757 16.44 1.3199999999999998
   vertex -0.0012934213370145275 13.620000000000001 2.28
  endloop
 endfacet
 facet normal 0.0 0.32226379780430425 0.946649906050144
  outer loop
   vertex 45.29972025613348 13.620000000000001 2.28
   vertex 52.111637895402986 16.44 1.3199999999999998
   vertex -0.0012934213370145275 13.620000000000001 2.28
  endloop
 endfacet
 facet normal 0.2277841672467304 -0.22796563014403523 0.9466499060501439
  outer loop
   vertex 35.659541864169334 0.001 1.3199999999999998
   vertex 52.111637895402986 16.44 1.3199999999999998
   vertex 45.29972025613348 13.620000000000001 2.28
  endloop
 endfacet
 facet normal 0.2277841672467306 -0.22796563014403537 0.946649906050144
  outer loop
   vertex 31.669870761068633 0.001 2.28
   vertex 35.659541864169334 0.001 1.3199999999999998
   vertex 45.29972025613348 13.620000000000001 2.28
  endloop
 endfacet
 facet normal 0.0 -1.0 0.0
  outer loop
   vertex -0.012138598249151188 0.001 1.3199999999999998
   vertex 35.659541864169334 0.001 1.3199999999999998
   vertex 31.669870761068633 0.001 2.28
  endloop
 endfacet
 facet normal 0.0 -1.0 0.0
  outer loop
   vertex -0.012138598249151188 0.001 2.28
   vertex -0.012138598249151188 0.001 1.3199999999999998
   vertex 31.669870761068633 0.001 2.28
  endloop
 endfacet
 facet normal -0.9999996829318346 0.0007963267107332633 0.0
  outer loop
   vertex 0.0009522206992748757 16.44 1.3199999999999998
   vertex -0.012138598249151188 0.001 1.3199999999999998
   vertex -0.012138598249151188 0.001 2.28
  endloop
 endfacet
 facet normal -0.9999996829318346 0.0007963267107332633 0.0
  outer loop
   vertex -0.0012934213370145275 13.620000000000001 2.28
   vertex 0.0009522206992748757 16.44 1.3199999999999998
   vertex -0.012138598249151188 0.001 2.28
  endloop
 endfacet
 facet normal -0.0 0.0 1.0
  outer loop
   vertex -0.0012934213370145275 13.620000000000001 2.28
   vertex 31.669870761068633 0.001 2.28
   vertex 45.29972025613348 13.620000000000001 2.28
  endloop
 endfacet
 facet normal 0.0 0.0 1.0
  outer loop
   vertex -0.0012934213370145275 13.620000000000001 2.28
   vertex -0.012138598249151188 0.001 2.28
   vertex 31.669870761068633 0.001 2.28
  endloop
 endfacet
 facet normal 0.0 0.0 -1.0
  outer loop
   vertex 45.29972025613347 19.38 0
   vertex -0.0012934213370145275 19.38 0
   vertex -0.01213859824915119 32.999 0
  endloop
 endfacet
 facet normal 0.0 0.0 -1.0
  outer loop
   vertex 45.29972025613347 19.38 0
   vertex -0.01213859824915119 32.999 0
   vertex 31.66987076106861 32.999 0
  endloop
 endfacet
 facet normal 0.0 -0.3222637978043043 -0.9466499060501441
  outer loop
   vertex -0.0012934213370145275 19.38 0
   vertex 45.29972025613347 19.38 0
   vertex 52.11163789540297 16.56 0.96
  endloop
 endfacet
 facet normal 0.0 -0.32226379780430425 -0.9466499060501439
  outer loop
   vertex 0.0009522206992748757 16.56 0.96
   vertex -0.0012934213370145275 19.38 0
   vertex 52.11163789540297 16.56 0.96
  endloop
 endfacet
 facet normal -0.9999996829318345 -0.0007963267107332632 0.0
  outer loop
   vertex -0.01213859824915119 32.999 0
   vertex -0.0012934213370145275 19.38 0
   vertex 0.0009522206992748757 16.56 0.96
  endloop
 endfacet
 facet normal -0.9999996829318346 -0.0007963267107332632 -0.0
  outer loop
   vertex -0.01213859824915119 32.999 0.96
   vertex -0.01213859824915119 32.999 0
   vertex 0.0009522206992748757 16.56 0.96
  endloop
 endfacet
 facet normal 0.0 1.0 0.0
  outer loop
   vertex 31.66987076106861 32.999 0
   vertex -0.01213859824915119 32.999 0
   vertex -0.01213859824915119 32.999 0.96
  endloop
 endfacet
 facet normal 0.0 1.0 0.0
  outer loop
   vertex 35.65954186416933 32.999 0.96
   vertex 31.66987076106861 32.999 0
   vertex -0.01213859824915119 32.999 0.96
  endloop
 endfacet
 facet normal 0.22778416724672962 0.2279656301440345 -0.9466499060501443
  outer loop
   vertex 45.29972025613347 19.38 0
   vertex 31.66987076106861 32.999 0
   vertex 35.65954186416933 32.999 0.96
  endloop
 endfacet
 facet normal 0.2277841672467304 0.2279656301440351 -0.9466499060501441
  outer loop
   vertex 52.11163789540297 16.56 0.96
   vertex 45.29972025613347 19.38 0
   vertex 35.65954186416933 32.999 0.96
  endloop
 endfacet
 facet normal 0.0 0.0 1.0
  outer loop
   vertex 52.11163789540297 16.56 0.96
   vertex -0.01213859824915119 32.999 0.96
   vertex 0.0009522206992748757 16.56 0.96
  endloop
 endfacet
 facet normal 0.0 0.0 1.0
  outer loop
   vertex 52.11163789540297 16.56 0.96
   vertex 35.65954186416933 32.999 0.96
   vertex -0.01213859824915119 32.999 0.96
  endloop
 endfacet
 facet normal 0.0 0.0 -1.0
  outer loop
   vertex 52.11163789540297 16.56 1.3199999999999998
   vertex 0.0009522206992748757 16.56 1.3199999999999998
   vertex -0.01213859824915119 32.999 1.3199999999999998
  endloop
 endfacet
 facet normal 0.0 0.0 -1.0
  outer loop
   vertex 52.11163789540297 16.56 1.3199999999999998
   vertex -0.01213859824915119 32.999 1.3199999999999998
   vertex 35.65954186416933 32.999 1.3199999999999998
  endloop
 endfacet
 facet normal 0.0 -0.32226379780430425 0.9466499060501439
  outer loop
   vertex 0.0009522206992748757 16.56 1.3199999999999998
   vertex 52.11163789540297 16.56 1.3199999999999998
   vertex 45.29972025613347 19.38 2.28
  endloop
 endfacet
 facet normal 0.0 -0.3222637978043043 0.9466499060501441
  outer loop
   vertex -0.0012934213370145275 19.38 2.28
   vertex 0.0009522206992748757 16.56 1.3199999999999998
   vertex 45.29972025613347 19.38 2.28
  endloop
 endfacet
 facet normal -0.9999996829318346 -0.0007963267107332632 0.0
  outer loop
   vertex -0.01213859824915119 32.999 1.3199999999999998
   vertex 0.0009522206992748757 16.56 1.3199999999999998
   vertex -0.0012934213370145275 19.38 2.28
  endloop
 endfacet
 facet normal -0.9999996829318345 -0.0007963267107332632 -0.0
  outer loop
   vertex -0.01213859824915119 32.999 2.28
   vertex -0.01213859824915119 32.999 1.3199999999999998
   vertex -0.0012934213370145275 19.38 2.28
  endloop
 endfacet
 facet normal 0.0 1.0 0.0
  outer loop
   vertex 35.65954186416933 32.999 1.3199999999999998
   vertex -0.01213859824915119 32.999 1.3199999999999998
   vertex -0.01213859824915119 32.999 2.28
  endloop
 endfacet
 facet normal 0.0 1.0 0.0
  outer loop
   vertex 31.66987076106861 32.999 2.28
   vertex 35.65954186416933 32.999 1.3199999999999998
   vertex -0.01213859824915119 32.999 2.28
  endloop
 endfacet
 facet normal 0.22778416724672984 0.22796563014403454 0.9466499060501443
  outer loop
   vertex 52.11163789540297 16.56 1.3199999999999998
   vertex 35.65954186416933 32.999 1.3199999999999998
   vertex 31.66987076106861 32.999 2.28
  endloop
 endfacet
 facet normal 0.22778416724673056 0.22796563014403548 0.946649906050144
  outer loop
   vertex 45.29972025613347 19.38 2.28
   vertex 52.11163789540297 16.56 1.3199999999999998
   vertex 31.66987076106861 32.999 2.28
  endloop
 endfacet
 facet normal 0.0 0.0 1.0
  outer loop
   vertex 45.29972025613347 19.38 2.28
   vertex -0.01213859824915119 32.999 2.28
   vertex -0.0012934213370145275 19.38 2.28
  endloop
 endfacet
 facet normal 0.0 0.0 1.0
  outer loop
   vertex 45.29972025613347 19.38 2.28
   vertex 31.66987076106861 32.999 2.28
   vertex -0.01213859824915119 32.999 2.28
  endloop
 endfacet
 facet normal 0.0 -0.0 -1.0
  outer loop
   vertex 53.448835700764704 13.620000000000001 0
   vertex 64.26988840875627 13.620000000000001 0
   vertex 46.51028919462718 0.001 0
  endloop
 endfacet
 facet normal 0.0 0.0 -1.0
  outer loop
   vertex 53.448835700764704 13.620000000000001 0
   vertex 46.51028919462718 0.001 0
   vertex 39.81898620569985 0.001 0
  endloop
 endfacet
 facet normal 0.0 0.3222637978043043 -0.9466499060501441
  outer loop
   vertex 64.26988840875627 13.620000000000001 0
   vertex 53.448835700764704 13.620000000000001 0
   vertex 52.28141113383281 16.44 0.96
  endloop
 endfacet
 facet normal 0.0 0.3222637978043043 -0.946649906050144
  outer loop
   vertex 72.58141537178054 16.44 0.96
   vertex 64.26988840875627 13.620000000000001 0
   vertex 52.28141113383281 16.44 0.96
  endloop
 endfacet
 facet normal 0.19610545191583448 -0.2557276033285032 -0.9466499060501438
  outer loop
   vertex 46.51028919462718 0.001 0
   vertex 64.26988840875627 13.620000000000001 0
   vertex 72.58141537178054 16.44 0.96
  endloop
 endfacet
 facet normal 0.1961054519158344 -0.25572760332850303 -0.9466499060501439
  outer loop
   vertex 51.14444852538446 0.001 0.96
   vertex 46.51028919462718 0.001 0
   vertex 72.58141537178054 16.44 0.96
  endloop
 endfacet
 facet normal 0.0 -1.0 0.0
  outer loop
   vertex 39.81898620569985 0.001 0
   vertex 46.51028919462718 0.001 0
   vertex 51.14444852538446 0.001 0.96
  endloop
 endfacet
 facet normal 0.0 -1.0 0.0
  outer loop
   vertex 35.82931510259915 0.001 0.96
   vertex 39.81898620569985 0.001 0
   vertex 51.14444852538446 0.001 0.96
  endloop
 endfacet
 facet normal -0.22778416724673076 0.22796563014403562 -0.9466499060501438
  outer loop
   vertex 53.448835700764704 13.620000000000001 0
   vertex 39.81898620569985 0.001 0
   vertex 35.82931510259915 0.001 0.96
  endloop
 endfacet
 facet normal -0.22778416724673095 0.2279656301440359 -0.9466499060501435
  outer loop
   vertex 52.28141113383281 16.44 0.96
   vertex 53.448835700764704 13.620000000000001 0
   vertex 35.82931510259915 0.001 0.96
  endloop
 endfacet
 facet normal -0.0 0.0 1.0
  outer loop
   vertex 52.28141113383281 16.44 0.96
   vertex 51.14444852538446 0.001 0.96
   vertex 72.58141537178054 16.44 0.96
  endloop
 endfacet
 facet normal 0.0 0.0 1.0
  outer loop
   vertex 52.28141113383281 16.44 0.96
   vertex 35.82931510259915 0.001 0.96
   vertex 51.14444852538446 0.001 0.96
  endloop
 endfacet
 facet normal 0.0 -0.0 -1.0
  outer loop
   vertex 52.28141113383281 16.44 1.3199999999999998
   vertex 72.58141537178054 16.44 1.3199999999999998
   vertex 51.14444852538446 0.001 1.3199999999999998
  endloop
 endfacet
 facet normal 0.0 0.0 -1.0
  outer loop
   vertex 52.28141113383281 16.44 1.3199999999999998
   vertex 51.14444852538446 0.001 1.3199999999999998
   vertex 35.82931510259915 0.001 1.3199999999999998
  endloop
 endfacet
 facet normal 0.0 0.3222637978043043 0.946649906050144
  outer loop
   vertex 72.58141537178054 16.44 1.3199999999999998
   vertex 52.28141113383281 16.44 1.3199999999999998
   vertex 53.448835700764704 13.620000000000001 2.28
  endloop
 endfacet
 facet normal 0.0 0.3222637978043043 0.9466499060501441
  outer loop
   vertex 64.26988840875627 13.620000000000001 2.28
   vertex 72.58141537178054 16.44 1.3199999999999998
   vertex 53.448835700764704 13.620000000000001 2.28
  endloop
 endfacet
 facet normal 0.19610545191583453 -0.2557276033285032 0.9466499060501437
  outer loop
   vertex 51.14444852538446 0.001 1.3199999999999998
   vertex 72.58141537178054 16.44 1.3199999999999998
   vertex 64.26988840875627 13.620000000000001 2.28
  endloop
 endfacet
 facet normal 0.1961054519158344 -0.2557276033285031 0.9466499060501438
  outer loop
   vertex 46.51028919462718 0.001 2.28
   vertex 51.14444852538446 0.001 1.3199999999999998
   vertex 64.26988840875627 13.620000000000001 2.28
  endloop
 endfacet
 facet normal 0.0 -1.0 0.0
  outer loop
   vertex 35.82931510259915 0.001 1.3199999999999998
   vertex 51.14444852538446 0.001 1.3199999999999998
   vertex 46.51028919462718 0.001 2.28
  endloop
 endfacet
 facet normal 0.0 -1.0 -0.0
  outer loop
   vertex 39.81898620569985 0.001 2.28
   vertex 35.82931510259915 0.001 1.3199999999999998
   vertex 46.51028919462718 0.001 2.28
  endloop
 endfacet
 facet normal -0.22778416724673067 0.22796563014403562 0.9466499060501439
  outer loop
   vertex 52.28141113383281 16.44 1.3199999999999998
   vertex 35.82931510259915 0.001 1.3199999999999998
   vertex 39.81898620569985 0.001 2.28
  endloop
 endfacet
 facet normal -0.22778416724673103 0.2279656301440359 0.9466499060501438
  outer loop
   vertex 53.448835700764704 13.620000000000001 2.28
   vertex 52.28141113383281 16.44 1.3199999999999998
   vertex 39.81898620569985 0.001 2.28
  endloop
 endfacet
 facet normal -0.0 0.0 1.0
  outer loop
   vertex 53.448835700764704 13.620000000000001 2.28
   vertex 46.51028919462718 0.001 2.28
   vertex 64.26988840875627 13.620000000000001 2.28
  endloop
 endfacet
 facet normal 0.0 0.0 1.0
  outer loop
   vertex 53.448835700764704 13.620000000000001 2.28
   vertex 39.81898620569985 0.001 2.28
   vertex 46.51028919462718 0.001 2.28
  endloop
 endfacet
 facet normal 0.0 0.0 -1.0
  outer loop
   vertex 64.26988840875629 19.38 0
   vertex 53.448835700764704 19.38 0
   vertex 39.81898620569985 32.998999999999995 0
  endloop
 endfacet
 facet normal 0.0 0.0 -1.0
  outer loop
   vertex 64.26988840875629 19.38 0
   vertex 39.81898620569985 32.998999999999995 0
   vertex 46.51028919462719 32.998999999999995 0
  endloop
 endfacet
 facet normal 0.0 -0.32226379780430425 -0.9466499060501439
  outer loop
   vertex 53.448835700764704 19.38 0
   vertex 64.26988840875629 19.38 0
   vertex 72.58141537178057 16.56 0.96
  endloop
 endfacet
 facet normal 0.0 -0.32226379780430425 -0.946649906050144
  outer loop
   vertex 52.28141113383278 16.56 0.96
   vertex 53.448835700764704 19.38 0
   vertex 72.58141537178057 16.56 0.96
  endloop
 endfacet
 facet normal -0.22778416724672948 -0.22796563014403443 -0.9466499060501443
  outer loop
   vertex 39.81898620569985 32.998999999999995 0
   vertex 53.448835700764704 19.38 0
   vertex 52.28141113383278 16.56 0.96
  endloop
 endfacet
 facet normal -0.22778416724673006 -0.22796563014403484 -0.9466499060501442
  outer loop
   vertex 35.82931510259914 32.998999999999995 0.96
   vertex 39.81898620569985 32.998999999999995 0
   vertex 52.28141113383278 16.56 0.96
  endloop
 endfacet
 facet normal 0.0 1.0 0.0
  outer loop
   vertex 46.51028919462719 32.998999999999995 0
   vertex 39.81898620569985 32.998999999999995 0
   vertex 35.82931510259914 32.998999999999995 0.96
  endloop
 endfacet
 facet normal 0.0 1.0 0.0
  outer loop
   vertex 51.14444852538449 32.998999999999995 0.96
   vertex 46.51028919462719 32.998999999999995 0
   vertex 35.82931510259914 32.998999999999995 0.96
  endloop
 endfacet
 facet normal 0.19610545191583378 0.25572760332850236 -0.9466499060501442
  outer loop
   vertex 64.26988840875629 19.38 0
   vertex 46.51028919462719 32.998999999999995 0
   vertex 51.14444852538449 32.998999999999995 0.96
  endloop
 endfacet
 facet normal 0.19610545191583403 0.25572760332850264 -0.946649906050144
  outer loop
   vertex 72.58141537178057 16.56 0.96
   vertex 64.26988840875629 19.38 0
   vertex 51.14444852538449 32.998999999999995 0.96
  endloop
 endfacet
 facet normal 0.0 0.0 1.0
  outer loop
   vertex 72.58141537178057 16.56 0.96
   vertex 35.82931510259914 32.998999999999995 0.96
   vertex 52.28141113383278 16.56 0.96
  endloop
 endfacet
 facet normal 0.0 0.0 1.0
  outer loop
   vertex 72.58141537178057 16.56 0.96
   vertex 51.14444852538449 32.998999999999995 0.96
   vertex 35.82931510259914 32.998999999999995 0.96
  endloop
 endfacet
 facet normal 0.0 0.0 -1.0
  outer loop
   vertex 72.58141537178057 16.56 1.3199999999999998
   vertex 52.28141113383278 16.56 1.3199999999999998
   vertex 35.82931510259914 32.998999999999995 1.3199999999999998
  endloop
 endfacet
 facet normal 0.0 0.0 -1.0
  outer loop
   vertex 72.58141537178057 16.56 1.3199999999999998
   vertex 35.82931510259914 32.998999999999995 1.3199999999999998
   vertex 51.14444852538449 32.998999999999995 1.3199999999999998
  endloop
 endfacet
 facet normal 0.0 -0.32226379780430425 0.946649906050144
  outer loop
   vertex 52.28141113383278 16.56 1.3199999999999998
   vertex 72.58141537178057 16.56 1.3199999999999998
   vertex 64.26988840875629 19.38 2.28
  endloop
 endfacet
 facet normal 0.0 -0.32226379780430425 0.9466499060501439
  outer loop
   vertex 53.448835700764704 19.38 2.28
   vertex 52.28141113383278 16.56 1.3199999999999998
   vertex 64.26988840875629 19.38 2.28
  endloop
 endfacet
 facet normal -0.2277841672467296 -0.22796563014403437 0.9466499060501445
  outer loop
   vertex 35.82931510259914 32.998999999999995 1.3199999999999998
   vertex 52.28141113383278 16.56 1.3199999999999998
   vertex 53.448835700764704 19.38 2.28
  endloop
 endfacet
 facet normal -0.22778416724673 -0.22796563014403495 0.9466499060501441
  outer loop
   vertex 39.81898620569985 32.998999999999995 2.28
   vertex 35.82931510259914 32.998999999999995 1.3199999999999998
   vertex 53.448835700764704 19.38 2.28
  endloop
 endfacet
 facet normal 0.0 1.0 0.0
  outer loop
   vertex 51.14444852538449 32.998999999999995 1.3199999999999998
   vertex 35.82931510259914 32.998999999999995 1.3199999999999998
   vertex 39.81898620569985 32.998999999999995 2.28
  endloop
 endfacet
 facet normal 0.0 1.0 0.0
  outer loop
   vertex 46.51028919462719 32.998999999999995 2.28
   vertex 51.14444852538449 32.998999999999995 1.3199999999999998
   vertex 39.81898620569985 32.998999999999995 2.28
  endloop
 endfacet
 facet normal 0.19610545191583387 0.2557276033285024 0.9466499060501442
  outer loop
   vertex 72.58141537178057 16.56 1.3199999999999998
   vertex 51.14444852538449 32.998999999999995 1.3199999999999998
   vertex 46.51028919462719 32.998999999999995 2.28
  endloop
 endfacet
 facet normal 0.19610545191583412 0.2557276033285028 0.946649906050144
  outer loop
   vertex 64.26988840875629 19.38 2.28
   vertex 72.58141537178057 16.56 1.3199999999999998
   vertex 46.51028919462719 32.998999999999995 2.28
  endloop
 endfacet
 facet normal 0.0 0.0 1.0
  outer loop
   vertex 64.26988840875629 19.38 2.28
   vertex 39.81898620569985 32.998999999999995 2.28
   vertex 53.448835700764704 19.38 2.28
  endloop
 endfacet
 facet normal 0.0 0.0 1.0
  outer loop
   vertex 64.26988840875629 19.38 2.28
   vertex 46.51028919462719 32.998999999999995 2.28
   vertex 39.81898620569985 32.998999999999995 2.28
  endloop
 endfacet
 facet normal 0.0 0.0 -1.0
  outer loop
   vertex 73.73540533966477 13.619999999999987 0
   vertex 79.31666170045426 13.619999999999985 0
   vertex 97.07258358718003 0.001 0
  endloop
 endfacet
 facet normal 0.0 -0.0 -1.0
  outer loop
   vertex 73.73540533966477 13.619999999999987 0
   vertex 97.07258358718003 0.001 0
   vertex 55.975806125535684 0.001 0
  endloop
 endfacet
 facet normal 1.025674981250635e-16 0.3222637978043043 -0.9466499060501439
  outer loop
   vertex 79.31666170045426 13.619999999999985 0
   vertex 73.73540533966477 13.619999999999987 0
   vertex 72.77861364117446 16.439999999999987 0.96
  endloop
 endfacet
 facet normal 0.0 0.32226379780430414 -0.9466499060501441
  outer loop
   vertex 80.27361063300135 16.439999999999987 0.96
   vertex 79.31666170045426 13.619999999999985 0
   vertex 72.77861364117446 16.439999999999987 0.96
  endloop
 endfacet
 facet normal 0.1961310236955967 0.2557079915047052 -0.9466499060501443
  outer loop
   vertex 97.07258358718003 0.001 0
   vertex 79.31666170045426 13.619999999999985 0
   vertex 80.27361063300135 16.439999999999987 0.96
  endloop
 endfacet
 facet normal 0.19613102369559696 0.25570799150470547 -0.9466499060501441
  outer loop
   vertex 101.70613871111905 0.001 0.96
   vertex 97.07258358718003 0.001 0
   vertex 80.27361063300135 16.439999999999987 0.96
  endloop
 endfacet
 facet normal 0.0 -1.0 0.0
  outer loop
   vertex 55.975806125535684 0.001 0
   vertex 97.07258358718003 0.001 0
   vertex 101.70613871111905 0.001 0.96
  endloop
 endfacet
 facet normal 0.0 -1.0 0.0
  outer loop
   vertex 51.34164679477839 0.001 0.96
   vertex 55.975806125535684 0.001 0
   vertex 101.70613871111905 0.001 0.96
  endloop
 endfacet
 facet normal -0.19610545191583414 0.2557276033285028 -0.946649906050144
  outer loop
   vertex 73.73540533966477 13.619999999999987 0
   vertex 55.975806125535684 0.001 0
   vertex 51.34164679477839 0.001 0.96
  endloop
 endfacet
 facet normal -0.19610545191583412 0.2557276033285028 -0.9466499060501439
  outer loop
   vertex 72.77861364117446 16.439999999999987 0.96
   vertex 73.73540533966477 13.619999999999987 0
   vertex 51.34164679477839 0.001 0.96
  endloop
 endfacet
 facet normal -0.0 0.0 1.0
  outer loop
   vertex 72.77861364117446 16.439999999999987 0.96
   vertex 101.70613871111905 0.001 0.96
   vertex 80.27361063300135 16.439999999999987 0.96
  endloop
 endfacet
 facet normal 0.0 0.0 1.0
  outer loop
   vertex 72.77861364117446 16.439999999999987 0.96
   vertex 51.34164679477839 0.001 0.96
   vertex 101.70613871111905 0.001 0.96
  endloop
 endfacet
 facet normal 0.0 0.0 -1.0
  outer loop
   vertex 72.77861364117446 16.439999999999987 1.3199999999999998
   vertex 80.27361063300135 16.439999999999987 1.3199999999999998
   vertex 101.70613871111905 0.001 1.3199999999999998
  endloop
 endfacet
 facet normal 0.0 -0.0 -1.0
  outer loop
   vertex 72.77861364117446 16.439999999999987 1.3199999999999998
   vertex 101.70613871111905 0.001 1.3199999999999998
   vertex 51.34164679477839 0.001 1.3199999999999998
  endloop
 endfacet
 facet normal 0.0 0.32226379780430436 0.9466499060501441
  outer loop
   vertex 80.27361063300135 16.439999999999987 1.3199999999999998
   vertex 72.77861364117446 16.439999999999987 1.3199999999999998
   vertex 73.73540533966477 13.619999999999987 2.28
  endloop
 endfacet
 facet normal 1.0256749812506344e-16 0.3222637978043041 0.9466499060501442
  outer loop
   vertex 79.31666170045426 13.619999999999985 2.28
   vertex 80.27361063300135 16.439999999999987 1.3199999999999998
   vertex 73.73540533966477 13.619999999999987 2.28
  endloop
 endfacet
 facet normal 0.1961310236955967 0.25570799150470513 0.9466499060501443
  outer loop
   vertex 101.70613871111905 0.001 1.3199999999999998
   vertex 80.27361063300135 16.439999999999987 1.3199999999999998
   vertex 79.31666170045426 13.619999999999985 2.28
  endloop
 endfacet
 facet normal 0.19613102369559696 0.2557079915047055 0.9466499060501441
  outer loop
   vertex 97.07258358718003 0.001 2.28
   vertex 101.70613871111905 0.001 1.3199999999999998
   vertex 79.31666170045426 13.619999999999985 2.28
  endloop
 endfacet
 facet normal 0.0 -1.0 0.0
  outer loop
   vertex 51.34164679477839 0.001 1.3199999999999998
   vertex 101.70613871111905 0.001 1.3199999999999998
   vertex 97.07258358718003 0.001 2.28
  endloop
 endfacet
 facet normal 0.0 -1.0 -0.0
  outer loop
   vertex 55.975806125535684 0.001 2.28
   vertex 51.34164679477839 0.001 1.3199999999999998
   vertex 97.07258358718003 0.001 2.28
  endloop
 endfacet
 facet normal -0.19610545191583412 0.2557276033285028 0.9466499060501439
  outer loop
   vertex 72.77861364117446 16.439999999999987 1.3199999999999998
   vertex 51.34164679477839 0.001 1.3199999999999998
   vertex 55.975806125535684 0.001 2.28
  endloop
 endfacet
 facet normal -0.19610545191583414 0.2557276033285028 0.9466499060501439
  outer loop
   vertex 73.73540533966477 13.619999999999987 2.28
   vertex 72.77861364117446 16.439999999999987 1.3199999999999998
   vertex 55.975806125535684 0.001 2.28
  endloop
 endfacet
 facet normal 0.0 0.0 1.0
  outer loop
   vertex 73.73540533966477 13.619999999999987 2.28
   vertex 97.07258358718003 0.001 2.28
   vertex 79.31666170045426 13.619999999999985 2.28
  endloop
 endfacet
 facet normal 0.0 0.0 1.0
  outer loop
   vertex 73.73540533966477 13.619999999999987 2.28
   vertex 55.975806125535684 0.001 2.28
   vertex 97.07258358718003 0.001 2.28
  endloop
 endfacet
 facet normal 0.0 0.0 -1.0
  outer loop
   vertex 79.3166617004542 19.379999999999985 0
   vertex 73.73540533966481 19.379999999999985 0
   vertex 55.97580612553569 32.999 0
  endloop
 endfacet
 facet normal 0.0 0.0 -1.0
  outer loop
   vertex 79.3166617004542 19.379999999999985 0
   vertex 55.97580612553569 32.999 0
   vertex 97.07258358718002 32.999 0
  endloop
 endfacet
 facet normal 0.0 -0.32226379780430425 -0.9466499060501439
  outer loop
   vertex 73.73540533966481 19.379999999999985 0
   vertex 79.3166617004542 19.379999999999985 0
   vertex 80.27361063300128 16.559999999999985 0.96
  endloop
 endfacet
 facet normal 0.0 -0.3222637978043043 -0.946649906050144
  outer loop
   vertex 72.77861364117449 16.559999999999985 0.96
   vertex 73.73540533966481 19.379999999999985 0
   vertex 80.27361063300128 16.559999999999985 0.96
  endloop
 endfacet
 facet normal -0.19610545191583356 -0.25572760332850203 -0.9466499060501443
  outer loop
   vertex 55.97580612553569 32.999 0
   vertex 73.73540533966481 19.379999999999985 0
   vertex 72.77861364117449 16.559999999999985 0.96
  endloop
 endfacet
 facet normal -0.19610545191583384 -0.2557276033285023 -0.9466499060501441
  outer loop
   vertex 51.34164679477839 32.999 0.96
   vertex 55.97580612553569 32.999 0
   vertex 72.77861364117449 16.559999999999985 0.96
  endloop
 endfacet
 facet normal 0.0 1.0 0.0
  outer loop
   vertex 97.07258358718002 32.999 0
   vertex 55.97580612553569 32.999 0
   vertex 51.34164679477839 32.999 0.96
  endloop
 endfacet
 facet normal 0.0 1.0 0.0
  outer loop
   vertex 101.70613871111904 32.999 0.96
   vertex 97.07258358718002 32.999 0
   vertex 51.34164679477839 32.999 0.96
  endloop
 endfacet
 facet normal 0.19613102369559693 -0.2557079915047056 -0.9466499060501441
  outer loop
   vertex 79.3166617004542 19.379999999999985 0
   vertex 97.07258358718002 32.999 0
   vertex 101.70613871111904 32.999 0.96
  endloop
 endfacet
 facet normal 0.19613102369559715 -0.2557079915047059 -0.946649906050144
  outer loop
   vertex 80.27361063300128 16.559999999999985 0.96
   vertex 79.3166617004542 19.379999999999985 0
   vertex 101.70613871111904 32.999 0.96
  endloop
 endfacet
 facet normal 0.0 0.0 1.0
  outer loop
   vertex 80.27361063300128 16.559999999999985 0.96
   vertex 51.34164679477839 32.999 0.96
   vertex 72.77861364117449 16.559999999999985 0.96
  endloop
 endfacet
 facet normal 0.0 -0.0 1.0
  outer loop
   vertex 80.27361063300128 16.559999999999985 0.96
   vertex 101.70613871111904 32.999 0.96
   vertex 51.34164679477839 32.999 0.96
  endloop
 endfacet
 facet normal 0.0 0.0 -1.0
  outer loop
   vertex 80.27361063300128 16.559999999999985 1.3199999999999998
   vertex 72.77861364117449 16.559999999999985 1.3199999999999998
   vertex 51.34164679477839 32.999 1.3199999999999998
  endloop
 endfacet
 facet normal 0.0 0.0 -1.0
  outer loop
   vertex 80.27361063300128 16.559999999999985 1.3199999999999998
   vertex 51.34164679477839 32.999 1.3199999999999998
   vertex 101.70613871111904 32.999 1.3199999999999998
  endloop
 endfacet
 facet normal 0.0 -0.3222637978043043 0.946649906050144
  outer loop
   vertex 72.77861364117449 16.559999999999985 1.3199999999999998
   vertex 80.27361063300128 16.559999999999985 1.3199999999999998
   vertex 79.3166617004542 19.379999999999985 2.28
  endloop
 endfacet
 facet normal 0.0 -0.32226379780430425 0.9466499060501439
  outer loop
   vertex 73.73540533966481 19.379999999999985 2.28
   vertex 72.77861364117449 16.559999999999985 1.3199999999999998
   vertex 79.3166617004542 19.379999999999985 2.28
  endloop
 endfacet
 facet normal -0.1961054519158337 -0.25572760332850214 0.9466499060501443
  outer loop
   vertex 51.34164679477839 32.999 1.3199999999999998
   vertex 72.77861364117449 16.559999999999985 1.3199999999999998
   vertex 73.73540533966481 19.379999999999985 2.28
  endloop
 endfacet
 facet normal -0.1961054519158338 -0.25572760332850236 0.946649906050144
  outer loop
   vertex 55.97580612553569 32.999 2.28
   vertex 51.34164679477839 32.999 1.3199999999999998
   vertex 73.73540533966481 19.379999999999985 2.28
  endloop
 endfacet
 facet normal 0.0 1.0 0.0
  outer loop
   vertex 101.70613871111904 32.999 1.3199999999999998
   vertex 51.34164679477839 32.999 1.3199999999999998
   vertex 55.97580612553569 32.999 2.28
  endloop
 endfacet
 facet normal 0.0 1.0 0.0
  outer loop
   vertex 97.07258358718002 32.999 2.28
   vertex 101.70613871111904 32.999 1.3199999999999998
   vertex 55.97580612553569 32.999 2.28
  endloop
 endfacet
 facet normal 0.19613102369559687 -0.2557079915047056 0.946649906050144
  outer loop
   vertex 80.27361063300128 16.559999999999985 1.3199999999999998
   vertex 101.70613871111904 32.999 1.3199999999999998
   vertex 97.07258358718002 32.999 2.28
  endloop
 endfacet
 facet normal 0.19613102369559718 -0.2557079915047059 0.946649906050144
  outer loop
   vertex 79.3166617004542 19.379999999999985 2.28
   vertex 80.27361063300128 16.559999999999985 1.3199999999999998
   vertex 97.07258358718002 32.999 2.28
  endloop
 endfacet
 facet normal 0.0 0.0 1.0
  outer loop
   vertex 79.3166617004542 19.379999999999985 2.28
   vertex 55.97580612553569 32.999 2.28
   vertex 73.73540533966481 19.379999999999985 2.28
  endloop
 endfacet
 facet normal 0.0 -0.0 1.0
  outer loop
   vertex 79.3166617004542 19.379999999999985 2.28
   vertex 97.07258358718002 32.999 2.28
   vertex 55.97580612553569 32.999 2.28
  endloop
 endfacet
 facet normal 0.0 0.0 -1.0
  outer loop
   vertex 88.78094450679777 13.620000000000005 0
   vertex 99.6048698356253 13.620000000000005 0
   vertex 113.2279061083024 0.001 0
  endloop
 endfacet
 facet normal 0.0 0.0 -1.0
  outer loop
   vertex 88.78094450679777 13.620000000000005 0
   vertex 113.2279061083024 0.001 0
   vertex 106.53686639352355 0.001 0
  endloop
 endfacet
 facet normal 0.0 0.3222637978043043 -0.946649906050144
  outer loop
   vertex 99.6048698356253 13.620000000000005 0
   vertex 88.78094450679777 13.620000000000005 0
   vertex 80.47078319146681 16.440000000000005 0.96
  endloop
 endfacet
 facet normal 0.0 0.3222637978043043 -0.946649906050144
  outer loop
   vertex 100.77270733528043 16.440000000000005 0.96
   vertex 99.6048698356253 13.620000000000005 0
   vertex 80.47078319146681 16.440000000000005 0.96
  endloop
 endfacet
 facet normal 0.22784115153541704 0.22790867697889033 -0.9466499060501443
  outer loop
   vertex 113.2279061083024 0.001 0
   vertex 99.6048698356253 13.620000000000005 0
   vertex 100.77270733528043 16.440000000000005 0.96
  endloop
 endfacet
 facet normal 0.22784115153541712 0.2279086769788904 -0.9466499060501442
  outer loop
   vertex 117.2165793733551 0.001 0.96
   vertex 113.2279061083024 0.001 0
   vertex 100.77270733528043 16.440000000000005 0.96
  endloop
 endfacet
 facet normal 0.0 -1.0 0.0
  outer loop
   vertex 106.53686639352355 0.001 0
   vertex 113.2279061083024 0.001 0
   vertex 117.2165793733551 0.001 0.96
  endloop
 endfacet
 facet normal 0.0 -1.0 0.0
  outer loop
   vertex 101.90331126958453 0.001 0.96
   vertex 106.53686639352355 0.001 0
   vertex 117.2165793733551 0.001 0.96
  endloop
 endfacet
 facet normal -0.19613102369559696 -0.25570799150470536 -0.9466499060501441
  outer loop
   vertex 88.78094450679777 13.620000000000005 0
   vertex 106.53686639352355 0.001 0
   vertex 101.90331126958453 0.001 0.96
  endloop
 endfacet
 facet normal -0.19613102369559668 -0.25570799150470513 -0.9466499060501442
  outer loop
   vertex 80.47078319146681 16.440000000000005 0.96
   vertex 88.78094450679777 13.620000000000005 0
   vertex 101.90331126958453 0.001 0.96
  endloop
 endfacet
 facet normal -0.0 0.0 1.0
  outer loop
   vertex 80.47078319146681 16.440000000000005 0.96
   vertex 117.2165793733551 0.001 0.96
   vertex 100.77270733528043 16.440000000000005 0.96
  endloop
 endfacet
 facet normal 0.0 0.0 1.0
  outer loop
   vertex 80.47078319146681 16.440000000000005 0.96
   vertex 101.90331126958453 0.001 0.96
   vertex 117.2165793733551 0.001 0.96
  endloop
 endfacet
 facet normal 0.0 0.0 -1.0
  outer loop
   vertex 80.47078319146681 16.440000000000005 1.3199999999999998
   vertex 100.77270733528043 16.440000000000005 1.3199999999999998
   vertex 117.2165793733551 0.001 1.3199999999999998
  endloop
 endfacet
 facet normal 0.0 0.0 -1.0
  outer loop
   vertex 80.47078319146681 16.440000000000005 1.3199999999999998
   vertex 117.2165793733551 0.001 1.3199999999999998
   vertex 101.90331126958453 0.001 1.3199999999999998
  endloop
 endfacet
 facet normal 0.0 0.3222637978043043 0.946649906050144
  outer loop
   vertex 100.77270733528043 16.440000000000005 1.3199999999999998
   vertex 80.47078319146681 16.440000000000005 1.3199999999999998
   vertex 88.78094450679777 13.620000000000005 2.28
  endloop
 endfacet
 facet normal 0.0 0.3222637978043043 0.946649906050144
  outer loop
   vertex 99.6048698356253 13.620000000000005 2.28
   vertex 100.77270733528043 16.440000000000005 1.3199999999999998
   vertex 88.78094450679777 13.620000000000005 2.28
  endloop
 endfacet
 facet normal 0.22784115153541706 0.22790867697889033 0.9466499060501444
  outer loop
   vertex 117.2165793733551 0.001 1.3199999999999998
   vertex 100.77270733528043 16.440000000000005 1.3199999999999998
   vertex 99.6048698356253 13.620000000000005 2.28
  endloop
 endfacet
 facet normal 0.22784115153541712 0.22790867697889042 0.9466499060501442
  outer loop
   vertex 113.2279061083024 0.001 2.28
   vertex 117.2165793733551 0.001 1.3199999999999998
   vertex 99.6048698356253 13.620000000000005 2.28
  endloop
 endfacet
 facet normal 0.0 -1.0 0.0
  outer loop
   vertex 101.90331126958453 0.001 1.3199999999999998
   vertex 117.2165793733551 0.001 1.3199999999999998
   vertex 113.2279061083024 0.001 2.28
  endloop
 endfacet
 facet normal 0.0 -1.0 -0.0
  outer loop
   vertex 106.53686639352355 0.001 2.28
   vertex 101.90331126958453 0.001 1.3199999999999998
   vertex 113.2279061083024 0.001 2.28
  endloop
 endfacet
 facet normal -0.1961310236955969 -0.2557079915047054 0.9466499060501442
  outer loop
   vertex 80.47078319146681 16.440000000000005 1.3199999999999998
   vertex 101.90331126958453 0.001 1.3199999999999998
   vertex 106.53686639352355 0.001 2.28
  endloop
 endfacet
 facet normal -0.19613102369559662 -0.2557079915047049 0.9466499060501443
  outer loop
   vertex 88.78094450679777 13.620000000000005 2.28
   vertex 80.47078319146681 16.440000000000005 1.3199999999999998
   vertex 106.53686639352355 0.001 2.28
  endloop
 endfacet
 facet normal -0.0 0.0 1.0
  outer loop
   vertex 88.78094450679777 13.620000000000005 2.28
   vertex 113.2279061083024 0.001 2.28
   vertex 99.6048698356253 13.620000000000005 2.28
  endloop
 endfacet
 facet normal 0.0 0.0 1.0
  outer loop
   vertex 88.78094450679777 13.620000000000005 2.28
   vertex 106.53686639352355 0.001 2.28
   vertex 113.2279061083024 0.001 2.28
  endloop
 endfacet
 facet normal 0.0 0.0 -1.0
  outer loop
   vertex 99.60486983562531 19.380000000000003 0
   vertex 88.78094450679775 19.380000000000003 0
   vertex 106.53686639352352 32.998999999999995 0
  endloop
 endfacet
 facet normal 0.0 0.0 -1.0
  outer loop
   vertex 99.60486983562531 19.380000000000003 0
   vertex 106.53686639352352 32.998999999999995 0
   vertex 113.2279061083024 32.998999999999995 0
  endloop
 endfacet
 facet normal 0.0 -0.3222637978043043 -0.946649906050144
  outer loop
   vertex 88.78094450679775 19.380000000000003 0
   vertex 99.60486983562531 19.380000000000003 0
   vertex 100.77270733528043 16.560000000000002 0.96
  endloop
 endfacet
 facet normal 0.0 -0.3222637978043043 -0.946649906050144
  outer loop
   vertex 80.4707831914668 16.560000000000002 0.96
   vertex 88.78094450679775 19.380000000000003 0
   vertex 100.77270733528043 16.560000000000002 0.96
  endloop
 endfacet
 facet normal -0.19613102369559654 0.25570799150470486 -0.9466499060501443
  outer loop
   vertex 106.53686639352352 32.998999999999995 0
   vertex 88.78094450679775 19.380000000000003 0
   vertex 80.4707831914668 16.560000000000002 0.96
  endloop
 endfacet
 facet normal -0.19613102369559746 0.25570799150470636 -0.9466499060501437
  outer loop
   vertex 101.90331126958452 32.998999999999995 0.96
   vertex 106.53686639352352 32.998999999999995 0
   vertex 80.4707831914668 16.560000000000002 0.96
  endloop
 endfacet
 facet normal 0.0 1.0 0.0
  outer loop
   vertex 113.2279061083024 32.998999999999995 0
   vertex 106.53686639352352 32.998999999999995 0
   vertex 101.90331126958452 32.998999999999995 0.96
  endloop
 endfacet
 facet normal 0.0 1.0 0.0
  outer loop
   vertex 117.2165793733551 32.998999999999995 0.96
   vertex 113.2279061083024 32.998999999999995 0
   vertex 101.90331126958452 32.998999999999995 0.96
  endloop
 endfacet
 facet normal 0.22784115153541715 -0.22790867697889042 -0.9466499060501442
  outer loop
   vertex 99.60486983562531 19.380000000000003 0
   vertex 113.2279061083024 32.998999999999995 0
   vertex 117.2165793733551 32.998999999999995 0.96
  endloop
 endfacet
 facet normal 0.22784115153541756 -0.227908676978891 -0.946649906050144
  outer loop
   vertex 100.77270733528043 16.560000000000002 0.96
   vertex 99.60486983562531 19.380000000000003 0
   vertex 117.2165793733551 32.998999999999995 0.96
  endloop
 endfacet
 facet normal 0.0 -0.0 1.0
  outer loop
   vertex 100.77270733528043 16.560000000000002 0.96
   vertex 101.90331126958452 32.998999999999995 0.96
   vertex 80.4707831914668 16.560000000000002 0.96
  endloop
 endfacet
 facet normal 0.0 0.0 1.0
  outer loop
   vertex 100.77270733528043 16.560000000000002 0.96
   vertex 117.2165793733551 32.998999999999995 0.96
   vertex 101.90331126958452 32.998999999999995 0.96
  endloop
 endfacet
 facet normal 0.0 0.0 -1.0
  outer loop
   vertex 100.77270733528043 16.560000000000002 1.3199999999999998
   vertex 80.4707831914668 16.560000000000002 1.3199999999999998
   vertex 101.90331126958452 32.998999999999995 1.3199999999999998
  endloop
 endfacet
 facet normal 0.0 0.0 -1.0
  outer loop
   vertex 100.77270733528043 16.560000000000002 1.3199999999999998
   vertex 101.90331126958452 32.998999999999995 1.3199999999999998
   vertex 117.2165793733551 32.998999999999995 1.3199999999999998
  endloop
 endfacet
 facet normal 0.0 -0.3222637978043043 0.946649906050144
  outer loop
   vertex 80.4707831914668 16.560000000000002 1.3199999999999998
   vertex 100.77270733528043 16.560000000000002 1.3199999999999998
   vertex 99.60486983562531 19.380000000000003 2.28
  endloop
 endfacet
 facet normal 0.0 -0.3222637978043043 0.946649906050144
  outer loop
   vertex 88.78094450679775 19.380000000000003 2.28
   vertex 80.4707831914668 16.560000000000002 1.3199999999999998
   vertex 99.60486983562531 19.380000000000003 2.28
  endloop
 endfacet
 facet normal -0.19613102369559676 0.2557079915047054 0.9466499060501442
  outer loop
   vertex 101.90331126958452 32.998999999999995 1.3199999999999998
   vertex 80.4707831914668 16.560000000000002 1.3199999999999998
   vertex 88.78094450679775 19.380000000000003 2.28
  endloop
 endfacet
 facet normal -0.1961310236955975 0.25570799150470613 0.9466499060501439
  outer loop
   vertex 106.53686639352352 32.998999999999995 2.28
   vertex 101.90331126958452 32.998999999999995 1.3199999999999998
   vertex 88.78094450679775 19.380000000000003 2.28
  endloop
 endfacet
 facet normal 0.0 1.0 0.0
  outer loop
   vertex 117.2165793733551 32.998999999999995 1.3199999999999998
   vertex 101.90331126958452 32.998999999999995 1.3199999999999998
   vertex 106.53686639352352 32.998999999999995 2.28
  endloop
 endfacet
 facet normal 0.0 1.0 0.0
  outer loop
   vertex 113.2279061083024 32.998999999999995 2.28
   vertex 117.2165793733551 32.998999999999995 1.3199999999999998
   vertex 106.53686639352352 32.998999999999995 2.28
  endloop
 endfacet
 facet normal 0.22784115153541706 -0.22790867697889047 0.9466499060501441
  outer loop
   vertex 100.77270733528043 16.560000000000002 1.3199999999999998
   vertex 117.2165793733551 32.998999999999995 1.3199999999999998
   vertex 113.2279061083024 32.998999999999995 2.28
  endloop
 endfacet
 facet normal 0.22784115153541765 -0.22790867697889092 0.946649906050144
  outer loop
   vertex 99.60486983562531 19.380000000000003 2.28
   vertex 100.77270733528043 16.560000000000002 1.3199999999999998
   vertex 113.2279061083024 32.998999999999995 2.28
  endloop
 endfacet
 facet normal 0.0 -0.0 1.0
  outer loop
   vertex 99.60486983562531 19.380000000000003 2.28
   vertex 106.53686639352352 32.998999999999995 2.28
   vertex 88.78094450679775 19.380000000000003 2.28
  endloop
 endfacet
 facet normal 0.0 0.0 1.0
  outer loop
   vertex 99.60486983562531 19.380000000000003 2.28
   vertex 113.2279061083024 32.998999999999995 2.28
   vertex 106.53686639352352 32.998999999999995 2.28
  endloop
 endfacet
 facet normal 0.0 0.0 -1.0
  outer loop
   vertex 107.75194714296696 13.620000000000008 0
   vertex 132.34805285703305 13.620000000000008 0
   vertex 120.05000000000001 1.3255908457168197 0
  endloop
 endfacet
 facet normal 0.0 0.3222637978043043 -0.946649906050144
  outer loop
   vertex 132.34805285703305 13.620000000000008 0
   vertex 107.75194714296696 13.620000000000008 0
   vertex 100.9424381125167 16.44000000000001 0.96
  endloop
 endfacet
 facet normal 0.0 0.3222637978043043 -0.946649906050144
  outer loop
   vertex 139.15756188748333 16.44000000000001 0.96
   vertex 132.34805285703305 13.620000000000008 0
   vertex 100.9424381125167 16.44000000000001 0.96
  endloop
 endfacet
 facet normal 0.2278411515354163 -0.22790867697888909 -0.9466499060501447
  outer loop
   vertex 120.05000000000001 1.3255908457168197 0
   vertex 132.34805285703305 13.620000000000008 0
   vertex 139.15756188748333 16.44000000000001 0.96
  endloop
 endfacet
 facet normal 0.22784115153541823 -0.22790867697889164 -0.9466499060501438
  outer loop
   vertex 122.71368984940864 0.001 0.96
   vertex 120.05000000000001 1.3255908457168197 0
   vertex 139.15756188748333 16.44000000000001 0.96
  endloop
 endfacet
 facet normal 0.0 -0.5868359951504449 -0.8097058199097911
  outer loop
   vertex 117.38631015059138 0.001 0.96
   vertex 120.05000000000001 1.3255908457168197 0
   vertex 122.71368984940864 0.001 0.96
  endloop
 endfacet
 facet normal -0.2278411515354184 -0.22790867697889147 -0.9466499060501437
  outer loop
   vertex 107.75194714296696 13.620000000000008 0
   vertex 120.05000000000001 1.3255908457168197 0
   vertex 117.38631015059138 0.001 0.96
  endloop
 endfacet
 facet normal -0.22784115153541745 -0.22790867697889083 -0.9466499060501441
  outer loop
   vertex 100.9424381125167 16.44000000000001 0.96
   vertex 107.75194714296696 13.620000000000008 0
   vertex 117.38631015059138 0.001 0.96
  endloop
 endfacet
 facet normal -0.0 0.0 1.0
  outer loop
   vertex 100.9424381125167 16.44000000000001 0.96
   vertex 122.71368984940864 0.001 0.96
   vertex 139.15756188748333 16.44000000000001 0.96
  endloop
 endfacet
 facet normal 0.0 0.0 1.0
  outer loop
   vertex 100.9424381125167 16.44000000000001 0.96
   vertex 117.38631015059138 0.001 0.96
   vertex 122.71368984940864 0.001 0.96
  endloop
 endfacet
 facet normal 0.0 0.0 -1.0
  outer loop
   vertex 100.9424381125167 16.44000000000001 1.3199999999999998
   vertex 139.15756188748333 16.44000000000001 1.3199999999999998
   vertex 122.71368984940864 0.001 1.3199999999999998
  endloop
 endfacet
 facet normal 0.0 0.0 -1.0
  outer loop
   vertex 100.9424381125167 16.44000000000001 1.3199999999999998
   vertex 122.71368984940864 0.001 1.3199999999999998
   vertex 117.38631015059138 0.001 1.3199999999999998
  endloop
 endfacet
 facet normal 0.0 0.3222637978043043 0.946649906050144
  outer loop
   vertex 139.15756188748333 16.44000000000001 1.3199999999999998
   vertex 100.9424381125167 16.44000000000001 1.3199999999999998
   vertex 107.75194714296696 13.620000000000008 2.28
  endloop
 endfacet
 facet normal 0.0 0.3222637978043043 0.946649906050144
  outer loop
   vertex 132.34805285703305 13.620000000000008 2.28
   vertex 139.15756188748333 16.44000000000001 1.3199999999999998
   vertex 107.75194714296696 13.620000000000008 2.28
  endloop
 endfacet
 facet normal 0.2278411515354166 -0.22790867697889 0.9466499060501443
  outer loop
   vertex 122.71368984940864 0.001 1.3199999999999998
   vertex 139.15756188748333 16.44000000000001 1.3199999999999998
   vertex 132.34805285703305 13.620000000000008 2.28
  endloop
 endfacet
 facet normal 0.22784115153541845 -0.22790867697889128 0.9466499060501438
  outer loop
   vertex 120.05000000000001 1.3255908457168197 2.28
   vertex 122.71368984940864 0.001 1.3199999999999998
   vertex 132.34805285703305 13.620000000000008 2.28
  endloop
 endfacet
 facet normal 0.0 -0.5868359951504449 0.8097058199097911
  outer loop
   vertex 117.38631015059138 0.001 1.3199999999999998
   vertex 122.71368984940864 0.001 1.3199999999999998
   vertex 120.05000000000001 1.3255908457168197 2.28
  endloop
 endfacet
 facet normal -0.22784115153541837 -0.22790867697889178 0.9466499060501434
  outer loop
   vertex 100.9424381125167 16.44000000000001 1.3199999999999998
   vertex 117.38631015059138 0.001 1.3199999999999998
   vertex 120.05000000000001 1.3255908457168197 2.28
  endloop
 endfacet
 facet normal -0.22784115153541723 -0.22790867697889033 0.9466499060501441
  outer loop
   vertex 107.75194714296696 13.620000000000008 2.28
   vertex 100.9424381125167 16.44000000000001 1.3199999999999998
   vertex 120.05000000000001 1.3255908457168197 2.28
  endloop
 endfacet
 facet normal -0.0 0.0 1.0
  outer loop
   vertex 107.75194714296696 13.620000000000008 2.28
   vertex 120.05000000000001 1.3255908457168197 2.28
   vertex 132.34805285703305 13.620000000000008 2.28
  endloop
 endfacet
 facet normal 0.0 0.0 -1.0
  outer loop
   vertex 132.34805285703308 19.380000000000006 0
   vertex 107.75194714296697 19.380000000000006 0
   vertex 120.05000000000003 31.674409154283182 0
  endloop
 endfacet
 facet normal 0.0 -0.3222637978043043 -0.9466499060501441
  outer loop
   vertex 107.75194714296697 19.380000000000006 0
   vertex 132.34805285703308 19.380000000000006 0
   vertex 139.15756188748335 16.560000000000006 0.96
  endloop
 endfacet
 facet normal 0.0 -0.3222637978043043 -0.9466499060501441
  outer loop
   vertex 100.94243811251671 16.560000000000006 0.96
   vertex 107.75194714296697 19.380000000000006 0
   vertex 139.15756188748335 16.560000000000006 0.96
  endloop
 endfacet
 facet normal -0.22784115153541734 0.22790867697889067 -0.9466499060501441
  outer loop
   vertex 120.05000000000003 31.674409154283182 0
   vertex 107.75194714296697 19.380000000000006 0
   vertex 100.94243811251671 16.560000000000006 0.96
  endloop
 endfacet
 facet normal -0.22784115153541754 0.2279086769788909 -0.9466499060501441
  outer loop
   vertex 117.38631015059138 32.999 0.96
   vertex 120.05000000000003 31.674409154283182 0
   vertex 100.94243811251671 16.560000000000006 0.96
  endloop
 endfacet
 facet normal 0.0 0.5868359951504449 -0.8097058199097911
  outer loop
   vertex 122.71368984940868 32.999 0.96
   vertex 120.05000000000003 31.674409154283182 0
   vertex 117.38631015059138 32.999 0.96
  endloop
 endfacet
 facet normal 0.2278411515354168 0.22790867697889014 -0.9466499060501443
  outer loop
   vertex 132.34805285703308 19.380000000000006 0
   vertex 120.05000000000003 31.674409154283182 0
   vertex 122.71368984940868 32.999 0.96
  endloop
 endfacet
 facet normal 0.22784115153541667 0.22790867697889006 -0.9466499060501444
  outer loop
   vertex 139.15756188748335 16.560000000000006 0.96
   vertex 132.34805285703308 19.380000000000006 0
   vertex 122.71368984940868 32.999 0.96
  endloop
 endfacet
 facet normal 0.0 0.0 1.0
  outer loop
   vertex 139.15756188748335 16.560000000000006 0.96
   vertex 117.38631015059138 32.999 0.96
   vertex 100.94243811251671 16.560000000000006 0.96
  endloop
 endfacet
 facet normal 0.0 0.0 1.0
  outer loop
   vertex 139.15756188748335 16.560000000000006 0.96
   vertex 122.71368984940868 32.999 0.96
   vertex 117.38631015059138 32.999 0.96
  endloop
 endfacet
 facet normal 0.0 0.0 -1.0
  outer loop
   vertex 139.15756188748335 16.560000000000006 1.3199999999999998
   vertex 100.94243811251671 16.560000000000006 1.3199999999999998
   vertex 117.38631015059138 32.999 1.3199999999999998
  endloop
 endfacet
 facet normal 0.0 0.0 -1.0
  outer loop
   vertex 139.15756188748335 16.560000000000006 1.3199999999999998
   vertex 117.38631015059138 32.999 1.3199999999999998
   vertex 122.71368984940868 32.999 1.3199999999999998
  endloop
 endfacet
 facet normal 0.0 -0.3222637978043043 0.9466499060501441
  outer loop
   vertex 100.94243811251671 16.560000000000006 1.3199999999999998
   vertex 139.15756188748335 16.560000000000006 1.3199999999999998
   vertex 132.34805285703308 19.380000000000006 2.28
  endloop
 endfacet
 facet normal 0.0 -0.3222637978043043 0.9466499060501441
  outer loop
   vertex 107.75194714296697 19.380000000000006 2.28
   vertex 100.94243811251671 16.560000000000006 1.3199999999999998
   vertex 132.34805285703308 19.380000000000006 2.28
  endloop
 endfacet
 facet normal -0.22784115153541748 0.22790867697889086 0.9466499060501441
  outer loop
   vertex 117.38631015059138 32.999 1.3199999999999998
   vertex 100.94243811251671 16.560000000000006 1.3199999999999998
   vertex 107.75194714296697 19.380000000000006 2.28
  endloop
 endfacet
 facet normal -0.22784115153541754 0.22790867697889086 0.946649906050144
  outer loop
   vertex 120.05000000000003 31.674409154283182 2.28
   vertex 117.38631015059138 32.999 1.3199999999999998
   vertex 107.75194714296697 19.380000000000006 2.28
  endloop
 endfacet
 facet normal 0.0 0.5868359951504449 0.8097058199097911
  outer loop
   vertex 122.71368984940868 32.999 1.3199999999999998
   vertex 117.38631015059138 32.999 1.3199999999999998
   vertex 120.05000000000003 31.674409154283182 2.28
  endloop
 endfacet
 facet normal 0.22784115153541679 0.22790867697889014 0.9466499060501444
  outer loop
   vertex 139.15756188748335 16.560000000000006 1.3199999999999998
   vertex 122.71368984940868 32.999 1.3199999999999998
   vertex 120.05000000000003 31.674409154283182 2.28
  endloop
 endfacet
 facet normal 0.2278411515354166 0.22790867697888992 0.9466499060501444
  outer loop
   vertex 132.34805285703308 19.380000000000006 2.28
   vertex 139.15756188748335 16.560000000000006 1.3199999999999998
   vertex 120.05000000000003 31.674409154283182 2.28
  endloop
 endfacet
 facet normal 0.0 0.0 1.0
  outer loop
   vertex 132.34805285703308 19.380000000000006 2.28
   vertex 120.05000000000003 31.674409154283182 2.28
   vertex 107.75194714296697 19.380000000000006 2.28
  endloop
 endfacet
 facet normal 0.0 -0.0 -1.0
  outer loop
   vertex 140.4951301643747 13.619999999999997 0
   vertex 150.97024075649907 13.619999999999997 0
   vertex 134.73540680904912 0.001 0
  endloop
 endfacet
 facet normal 0.0 0.0 -1.0
  outer loop
   vertex 140.4951301643747 13.619999999999997 0
   vertex 134.73540680904912 0.001 0
   vertex 126.8720938916976 0.001 0
  endloop
 endfacet
 facet normal 0.0 0.32226379780430436 -0.946649906050144
  outer loop
   vertex 150.97024075649907 13.619999999999997 0
   vertex 140.4951301643747 13.619999999999997 0
   vertex 139.32729266471958 16.439999999999998 0.96
  endloop
 endfacet
 facet normal 0.0 0.3222637978043043 -0.946649906050144
  outer loop
   vertex 158.71971483158714 16.439999999999998 0.96
   vertex 150.97024075649907 13.619999999999997 0
   vertex 139.32729266471958 16.439999999999998 0.96
  endloop
 endfacet
 facet normal 0.20711466171863596 -0.24689567083371192 -0.9466499060501439
  outer loop
   vertex 134.73540680904912 0.001 0
   vertex 150.97024075649907 13.619999999999997 0
   vertex 158.71971483158714 16.439999999999998 0.96
  endloop
 endfacet
 facet normal 0.2071146617186356 -0.2468956708337114 -0.9466499060501442
  outer loop
   vertex 139.1232367302486 0.001 0.96
   vertex 134.73540680904912 0.001 0
   vertex 158.71971483158714 16.439999999999998 0.96
  endloop
 endfacet
 facet normal 0.0 -1.0 0.0
  outer loop
   vertex 126.8720938916976 0.001 0
   vertex 134.73540680904912 0.001 0
   vertex 139.1232367302486 0.001 0.96
  endloop
 endfacet
 facet normal 0.0 -1.0 0.0
  outer loop
   vertex 122.88342062664492 0.001 0.96
   vertex 126.8720938916976 0.001 0
   vertex 139.1232367302486 0.001 0.96
  endloop
 endfacet
 facet normal -0.22784115153541787 0.22790867697889106 -0.9466499060501439
  outer loop
   vertex 140.4951301643747 13.619999999999997 0
   vertex 126.8720938916976 0.001 0
   vertex 122.88342062664492 0.001 0.96
  endloop
 endfacet
 facet normal -0.22784115153541776 0.22790867697889092 -0.946649906050144
  outer loop
   vertex 139.32729266471958 16.439999999999998 0.96
   vertex 140.4951301643747 13.619999999999997 0
   vertex 122.88342062664492 0.001 0.96
  endloop
 endfacet
 facet normal -0.0 0.0 1.0
  outer loop
   vertex 139.32729266471958 16.439999999999998 0.96
   vertex 139.1232367302486 0.001 0.96
   vertex 158.71971483158714 16.439999999999998 0.96
  endloop
 endfacet
 facet normal 0.0 0.0 1.0
  outer loop
   vertex 139.32729266471958 16.439999999999998 0.96
   vertex 122.88342062664492 0.001 0.96
   vertex 139.1232367302486 0.001 0.96
  endloop
 endfacet
 facet normal 0.0 -0.0 -1.0
  outer loop
   vertex 139.32729266471958 16.439999999999998 1.3199999999999998
   vertex 158.71971483158714 16.439999999999998 1.3199999999999998
   vertex 139.1232367302486 0.001 1.3199999999999998
  endloop
 endfacet
 facet normal 0.0 0.0 -1.0
  outer loop
   vertex 139.32729266471958 16.439999999999998 1.3199999999999998
   vertex 139.1232367302486 0.001 1.3199999999999998
   vertex 122.88342062664492 0.001 1.3199999999999998
  endloop
 endfacet
 facet normal 0.0 0.3222637978043043 0.946649906050144
  outer loop
   vertex 158.71971483158714 16.439999999999998 1.3199999999999998
   vertex 139.32729266471958 16.439999999999998 1.3199999999999998
   vertex 140.4951301643747 13.619999999999997 2.28
  endloop
 endfacet
 facet normal 0.0 0.32226379780430436 0.946649906050144
  outer loop
   vertex 150.97024075649907 13.619999999999997 2.28
   vertex 158.71971483158714 16.439999999999998 1.3199999999999998
   vertex 140.4951301643747 13.619999999999997 2.28
  endloop
 endfacet
 facet normal 0.20711466171863582 -0.24689567083371167 0.946649906050144
  outer loop
   vertex 139.1232367302486 0.001 1.3199999999999998
   vertex 158.71971483158714 16.439999999999998 1.3199999999999998
   vertex 150.97024075649907 13.619999999999997 2.28
  endloop
 endfacet
 facet normal 0.20711466171863563 -0.2468956708337115 0.9466499060501442
  outer loop
   vertex 134.73540680904912 0.001 2.28
   vertex 139.1232367302486 0.001 1.3199999999999998
   vertex 150.97024075649907 13.619999999999997 2.28
  endloop
 endfacet
 facet normal 0.0 -1.0 0.0
  outer loop
   vertex 122.88342062664492 0.001 1.3199999999999998
   vertex 139.1232367302486 0.001 1.3199999999999998
   vertex 134.73540680904912 0.001 2.28
  endloop
 endfacet
 facet normal 0.0 -1.0 -0.0
  outer loop
   vertex 126.8720938916976 0.001 2.28
   vertex 122.88342062664492 0.001 1.3199999999999998
   vertex 134.73540680904912 0.001 2.28
  endloop
 endfacet
 facet normal -0.22784115153541776 0.22790867697889092 0.946649906050144
  outer loop
   vertex 139.32729266471958 16.439999999999998 1.3199999999999998
   vertex 122.88342062664492 0.001 1.3199999999999998
   vertex 126.8720938916976 0.001 2.28
  endloop
 endfacet
 facet normal -0.22784115153541773 0.22790867697889092 0.946649906050144
  outer loop
   vertex 140.4951301643747 13.619999999999997 2.28
   vertex 139.32729266471958 16.439999999999998 1.3199999999999998
   vertex 126.8720938916976 0.001 2.28
  endloop
 endfacet
 facet normal -0.0 0.0 1.0
  outer loop
   vertex 140.4951301643747 13.619999999999997 2.28
   vertex 134.73540680904912 0.001 2.28
   vertex 150.97024075649907 13.619999999999997 2.28
  endloop
 endfacet
 facet normal 0.0 0.0 1.0
  outer loop
   vertex 140.4951301643747 13.619999999999997 2.28
   vertex 126.8720938916976 0.001 2.28
   vertex 134.73540680904912 0.001 2.28
  endloop
 endfacet
 facet normal 0.0 0.0 -1.0
  outer loop
   vertex 150.9702407564991 19.379999999999995 0
   vertex 140.49513016437476 19.379999999999995 0
   vertex 126.87209389169765 32.99900000000001 0
  endloop
 endfacet
 facet normal 0.0 0.0 -1.0
  outer loop
   vertex 150.9702407564991 19.379999999999995 0
   vertex 126.87209389169765 32.99900000000001 0
   vertex 134.73540680904915 32.99900000000001 0
  endloop
 endfacet
 facet normal 0.0 -0.32226379780430425 -0.946649906050144
  outer loop
   vertex 140.49513016437476 19.379999999999995 0
   vertex 150.9702407564991 19.379999999999995 0
   vertex 158.71971483158714 16.559999999999995 0.96
  endloop
 endfacet
 facet normal 0.0 -0.3222637978043043 -0.946649906050144
  outer loop
   vertex 139.32729266471964 16.559999999999995 0.96
   vertex 140.49513016437476 19.379999999999995 0
   vertex 158.71971483158714 16.559999999999995 0.96
  endloop
 endfacet
 facet normal -0.2278411515354177 -0.22790867697889086 -0.9466499060501441
  outer loop
   vertex 126.87209389169765 32.99900000000001 0
   vertex 140.49513016437476 19.379999999999995 0
   vertex 139.32729266471964 16.559999999999995 0.96
  endloop
 endfacet
 facet normal -0.2278411515354171 -0.22790867697889042 -0.9466499060501442
  outer loop
   vertex 122.88342062664495 32.99900000000001 0.96
   vertex 126.87209389169765 32.99900000000001 0
   vertex 139.32729266471964 16.559999999999995 0.96
  endloop
 endfacet
 facet normal 0.0 1.0 0.0
  outer loop
   vertex 134.73540680904915 32.99900000000001 0
   vertex 126.87209389169765 32.99900000000001 0
   vertex 122.88342062664495 32.99900000000001 0.96
  endloop
 endfacet
 facet normal 0.0 1.0 0.0
  outer loop
   vertex 139.1232367302486 32.99900000000001 0.96
   vertex 134.73540680904915 32.99900000000001 0
   vertex 122.88342062664495 32.99900000000001 0.96
  endloop
 endfacet
 facet normal 0.20711466171863682 0.24689567083371267 -0.9466499060501437
  outer loop
   vertex 150.9702407564991 19.379999999999995 0
   vertex 134.73540680904915 32.99900000000001 0
   vertex 139.1232367302486 32.99900000000001 0.96
  endloop
 endfacet
 facet normal 0.20711466171863702 0.2468956708337128 -0.9466499060501435
  outer loop
   vertex 158.71971483158714 16.559999999999995 0.96
   vertex 150.9702407564991 19.379999999999995 0
   vertex 139.1232367302486 32.99900000000001 0.96
  endloop
 endfacet
 facet normal 0.0 0.0 1.0
  outer loop
   vertex 158.71971483158714 16.559999999999995 0.96
   vertex 122.88342062664495 32.99900000000001 0.96
   vertex 139.32729266471964 16.559999999999995 0.96
  endloop
 endfacet
 facet normal 0.0 0.0 1.0
  outer loop
   vertex 158.71971483158714 16.559999999999995 0.96
   vertex 139.1232367302486 32.99900000000001 0.96
   vertex 122.88342062664495 32.99900000000001 0.96
  endloop
 endfacet
 facet normal 0.0 0.0 -1.0
  outer loop
   vertex 158.71971483158714 16.559999999999995 1.3199999999999998
   vertex 139.32729266471964 16.559999999999995 1.3199999999999998
   vertex 122.88342062664495 32.99900000000001 1.3199999999999998
  endloop
 endfacet
 facet normal 0.0 0.0 -1.0
  outer loop
   vertex 158.71971483158714 16.559999999999995 1.3199999999999998
   vertex 122.88342062664495 32.99900000000001 1.3199999999999998
   vertex 139.1232367302486 32.99900000000001 1.3199999999999998
  endloop
 endfacet
 facet normal 0.0 -0.3222637978043043 0.946649906050144
  outer loop
   vertex 139.32729266471964 16.559999999999995 1.3199999999999998
   vertex 158.71971483158714 16.559999999999995 1.3199999999999998
   vertex 150.9702407564991 19.379999999999995 2.28
  endloop
 endfacet
 facet normal 0.0 -0.32226379780430425 0.946649906050144
  outer loop
   vertex 140.49513016437476 19.379999999999995 2.28
   vertex 139.32729266471964 16.559999999999995 1.3199999999999998
   vertex 150.9702407564991 19.379999999999995 2.28
  endloop
 endfacet
 facet normal -0.2278411515354177 -0.22790867697889103 0.9466499060501441
  outer loop
   vertex 122.88342062664495 32.99900000000001 1.3199999999999998
   vertex 139.32729266471964 16.559999999999995 1.3199999999999998
   vertex 140.49513016437476 19.379999999999995 2.28
  endloop
 endfacet
 facet normal -0.22784115153541712 -0.2279086769788903 0.9466499060501443
  outer loop
   vertex 126.87209389169765 32.99900000000001 2.28
   vertex 122.88342062664495 32.99900000000001 1.3199999999999998
   vertex 140.49513016437476 19.379999999999995 2.28
  endloop
 endfacet
 facet normal 0.0 1.0 0.0
  outer loop
   vertex 139.1232367302486 32.99900000000001 1.3199999999999998
   vertex 122.88342062664495 32.99900000000001 1.3199999999999998
   vertex 126.87209389169765 32.99900000000001 2.28
  endloop
 endfacet
 facet normal 0.0 1.0 0.0
  outer loop
   vertex 134.73540680904915 32.99900000000001 2.28
   vertex 139.1232367302486 32.99900000000001 1.3199999999999998
   vertex 126.87209389169765 32.99900000000001 2.28
  endloop
 endfacet
 facet normal 0.20711466171863668 0.24689567083371244 0.9466499060501437
  outer loop
   vertex 158.71971483158714 16.559999999999995 1.3199999999999998
   vertex 139.1232367302486 32.99900000000001 1.3199999999999998
   vertex 134.73540680904915 32.99900000000001 2.28
  endloop
 endfacet
 facet normal 0.20711466171863702 0.2468956708337129 0.9466499060501434
  outer loop
   vertex 150.9702407564991 19.379999999999995 2.28
   vertex 158.71971483158714 16.559999999999995 1.3199999999999998
   vertex 134.73540680904915 32.99900000000001 2.28
  endloop
 endfacet
 facet normal 0.0 0.0 1.0
  outer loop
   vertex 150.9702407564991 19.379999999999995 2.28
   vertex 126.87209389169765 32.99900000000001 2.28
   vertex 140.49513016437476 19.379999999999995 2.28
  endloop
 endfacet
 facet normal 0.0 0.0 1.0
  outer loop
   vertex 150.9702407564991 19.379999999999995 2.28
   vertex 134.73540680904915 32.99900000000001 2.28
   vertex 126.87209389169765 32.99900000000001 2.28
  endloop
 endfacet
 facet normal 0.0 0.0 -1.0
  outer loop
   vertex 159.93261676575753 13.619999999999965 0
   vertex 164.5673832342425 13.619999999999965 0
   vertex 180.80221718169238 0.001 0
  endloop
 endfacet
 facet normal 0.0 -0.0 -1.0
  outer loop
   vertex 159.93261676575753 13.619999999999965 0
   vertex 180.80221718169238 0.001 0
   vertex 143.69778281830764 0.001 0
  endloop
 endfacet
 facet normal 0.0 0.3222637978043043 -0.946649906050144
  outer loop
   vertex 164.5673832342425 13.619999999999965 0
   vertex 159.93261676575753 13.619999999999965 0
   vertex 158.90643099844664 16.439999999999966 0.96
  endloop
 endfacet
 facet normal 0.0 0.3222637978043043 -0.9466499060501441
  outer loop
   vertex 165.59356900155336 16.439999999999966 0.96
   vertex 164.5673832342425 13.619999999999965 0
   vertex 158.90643099844664 16.439999999999966 0.96
  endloop
 endfacet
 facet normal 0.2071146617186367 0.24689567083371253 -0.9466499060501437
  outer loop
   vertex 180.80221718169238 0.001 0
   vertex 164.5673832342425 13.619999999999965 0
   vertex 165.59356900155336 16.439999999999966 0.96
  endloop
 endfacet
 facet normal 0.20711466171863682 0.2468956708337126 -0.9466499060501437
  outer loop
   vertex 185.19004710289184 0.001 0.96
   vertex 180.80221718169238 0.001 0
   vertex 165.59356900155336 16.439999999999966 0.96
  endloop
 endfacet
 facet normal 0.0 -1.0 0.0
  outer loop
   vertex 143.69778281830764 0.001 0
   vertex 180.80221718169238 0.001 0
   vertex 185.19004710289184 0.001 0.96
  endloop
 endfacet
 facet normal 0.0 -1.0 0.0
  outer loop
   vertex 139.30995289710816 0.001 0.96
   vertex 143.69778281830764 0.001 0
   vertex 185.19004710289184 0.001 0.96
  endloop
 endfacet
 facet normal -0.20711466171863566 0.24689567083371128 -0.9466499060501442
  outer loop
   vertex 159.93261676575753 13.619999999999965 0
   vertex 143.69778281830764 0.001 0
   vertex 139.30995289710816 0.001 0.96
  endloop
 endfacet
 facet normal -0.2071146617186354 0.24689567083371092 -0.9466499060501443
  outer loop
   vertex 158.90643099844664 16.439999999999966 0.96
   vertex 159.93261676575753 13.619999999999965 0
   vertex 139.30995289710816 0.001 0.96
  endloop
 endfacet
 facet normal -0.0 0.0 1.0
  outer loop
   vertex 158.90643099844664 16.439999999999966 0.96
   vertex 185.19004710289184 0.001 0.96
   vertex 165.59356900155336 16.439999999999966 0.96
  endloop
 endfacet
 facet normal 0.0 0.0 1.0
  outer loop
   vertex 158.90643099844664 16.439999999999966 0.96
   vertex 139.30995289710816 0.001 0.96
   vertex 185.19004710289184 0.001 0.96
  endloop
 endfacet
 facet normal 0.0 0.0 -1.0
  outer loop
   vertex 158.90643099844664 16.439999999999966 1.3199999999999998
   vertex 165.59356900155336 16.439999999999966 1.3199999999999998
   vertex 185.19004710289184 0.001 1.3199999999999998
  endloop
 endfacet
 facet normal 0.0 -0.0 -1.0
  outer loop
   vertex 158.90643099844664 16.439999999999966 1.3199999999999998
   vertex 185.19004710289184 0.001 1.3199999999999998
   vertex 139.30995289710816 0.001 1.3199999999999998
  endloop
 endfacet
 facet normal 0.0 0.3222637978043043 0.9466499060501441
  outer loop
   vertex 165.59356900155336 16.439999999999966 1.3199999999999998
   vertex 158.90643099844664 16.439999999999966 1.3199999999999998
   vertex 159.93261676575753 13.619999999999965 2.28
  endloop
 endfacet
 facet normal 0.0 0.3222637978043043 0.946649906050144
  outer loop
   vertex 164.5673832342425 13.619999999999965 2.28
   vertex 165.59356900155336 16.439999999999966 1.3199999999999998
   vertex 159.93261676575753 13.619999999999965 2.28
  endloop
 endfacet
 facet normal 0.2071146617186366 0.24689567083371233 0.9466499060501437
  outer loop
   vertex 185.19004710289184 0.001 1.3199999999999998
   vertex 165.59356900155336 16.439999999999966 1.3199999999999998
   vertex 164.5673832342425 13.619999999999965 2.28
  endloop
 endfacet
 facet normal 0.20711466171863682 0.24689567083371267 0.9466499060501435
  outer loop
   vertex 180.80221718169238 0.001 2.28
   vertex 185.19004710289184 0.001 1.3199999999999998
   vertex 164.5673832342425 13.619999999999965 2.28
  endloop
 endfacet
 facet normal 0.0 -1.0 0.0
  outer loop
   vertex 139.30995289710816 0.001 1.3199999999999998
   vertex 185.19004710289184 0.001 1.3199999999999998
   vertex 180.80221718169238 0.001 2.28
  endloop
 endfacet
 facet normal 0.0 -1.0 -0.0
  outer loop
   vertex 143.69778281830764 0.001 2.28
   vertex 139.30995289710816 0.001 1.3199999999999998
   vertex 180.80221718169238 0.001 2.28
  endloop
 endfacet
 facet normal -0.20711466171863555 0.2468956708337111 0.9466499060501441
  outer loop
   vertex 158.90643099844664 16.439999999999966 1.3199999999999998
   vertex 139.30995289710816 0.001 1.3199999999999998
   vertex 143.69778281830764 0.001 2.28
  endloop
 endfacet
 facet normal -0.2071146617186354 0.24689567083371095 0.9466499060501444
  outer loop
   vertex 159.93261676575753 13.619999999999965 2.28
   vertex 158.90643099844664 16.439999999999966 1.3199999999999998
   vertex 143.69778281830764 0.001 2.28
  endloop
 endfacet
 facet normal -0.0 0.0 1.0
  outer loop
   vertex 159.93261676575753 13.619999999999965 2.28
   vertex 180.80221718169238 0.001 2.28
   vertex 164.5673832342425 13.619999999999965 2.28
  endloop
 endfacet
 facet normal 0.0 0.0 1.0
  outer loop
   vertex 159.93261676575753 13.619999999999965 2.28
   vertex 143.69778281830764 0.001 2.28
   vertex 180.80221718169238 0.001 2.28
  endloop
 endfacet
 facet normal 0.0 0.0 -1.0
  outer loop
   vertex 164.56738323424239 19.379999999999967 0
   vertex 159.93261676575761 19.379999999999967 0
   vertex 143.69778281830764 32.998999999999995 0
  endloop
 endfacet
 facet normal 0.0 0.0 -1.0
  outer loop
   vertex 164.56738323424239 19.379999999999967 0
   vertex 143.69778281830764 32.998999999999995 0
   vertex 180.80221718169238 32.998999999999995 0
  endloop
 endfacet
 facet normal 0.0 -0.3222637978043039 -0.9466499060501441
  outer loop
   vertex 159.93261676575761 19.379999999999967 0
   vertex 164.56738323424239 19.379999999999967 0
   vertex 165.59356900155328 16.559999999999963 0.96
  endloop
 endfacet
 facet normal 0.0 -0.3222637978043039 -0.9466499060501442
  outer loop
   vertex 158.90643099844675 16.559999999999963 0.96
   vertex 159.93261676575761 19.379999999999967 0
   vertex 165.59356900155328 16.559999999999963 0.96
  endloop
 endfacet
 facet normal -0.2071146617186363 -0.24689567083371222 -0.9466499060501439
  outer loop
   vertex 143.69778281830764 32.998999999999995 0
   vertex 159.93261676575761 19.379999999999967 0
   vertex 158.90643099844675 16.559999999999963 0.96
  endloop
 endfacet
 facet normal -0.20711466171863682 -0.2468956708337127 -0.9466499060501437
  outer loop
   vertex 139.3099528971082 32.998999999999995 0.96
   vertex 143.69778281830764 32.998999999999995 0
   vertex 158.90643099844675 16.559999999999963 0.96
  endloop
 endfacet
 facet normal 0.0 1.0 0.0
  outer loop
   vertex 180.80221718169238 32.998999999999995 0
   vertex 143.69778281830764 32.998999999999995 0
   vertex 139.3099528971082 32.998999999999995 0.96
  endloop
 endfacet
 facet normal 0.0 1.0 0.0
  outer loop
   vertex 185.19004710289187 32.998999999999995 0.96
   vertex 180.80221718169238 32.998999999999995 0
   vertex 139.3099528971082 32.998999999999995 0.96
  endloop
 endfacet
 facet normal 0.20711466171863555 -0.24689567083371175 -0.946649906050144
  outer loop
   vertex 164.56738323424239 19.379999999999967 0
   vertex 180.80221718169238 32.998999999999995 0
   vertex 185.19004710289187 32.998999999999995 0.96
  endloop
 endfacet
 facet normal 0.20711466171863496 -0.2468956708337108 -0.9466499060501445
  outer loop
   vertex 165.59356900155328 16.559999999999963 0.96
   vertex 164.56738323424239 19.379999999999967 0
   vertex 185.19004710289187 32.998999999999995 0.96
  endloop
 endfacet
 facet normal 0.0 0.0 1.0
  outer loop
   vertex 165.59356900155328 16.559999999999963 0.96
   vertex 139.3099528971082 32.998999999999995 0.96
   vertex 158.90643099844675 16.559999999999963 0.96
  endloop
 endfacet
 facet normal 0.0 -0.0 1.0
  outer loop
   vertex 165.59356900155328 16.559999999999963 0.96
   vertex 185.19004710289187 32.998999999999995 0.96
   vertex 139.3099528971082 32.998999999999995 0.96
  endloop
 endfacet
 facet normal 0.0 0.0 -1.0
  outer loop
   vertex 165.59356900155328 16.559999999999963 1.3199999999999998
   vertex 158.90643099844675 16.559999999999963 1.3199999999999998
   vertex 139.3099528971082 32.998999999999995 1.3199999999999998
  endloop
 endfacet
 facet normal 0.0 0.0 -1.0
  outer loop
   vertex 165.59356900155328 16.559999999999963 1.3199999999999998
   vertex 139.3099528971082 32.998999999999995 1.3199999999999998
   vertex 185.19004710289187 32.998999999999995 1.3199999999999998
  endloop
 endfacet
 facet normal 0.0 -0.3222637978043039 0.9466499060501442
  outer loop
   vertex 158.90643099844675 16.559999999999963 1.3199999999999998
   vertex 165.59356900155328 16.559999999999963 1.3199999999999998
   vertex 164.56738323424239 19.379999999999967 2.28
  endloop
 endfacet
 facet normal 0.0 -0.3222637978043039 0.9466499060501441
  outer loop
   vertex 159.93261676575761 19.379999999999967 2.28
   vertex 158.90643099844675 16.559999999999963 1.3199999999999998
   vertex 164.56738323424239 19.379999999999967 2.28
  endloop
 endfacet
 facet normal -0.20711466171863632 -0.24689567083371208 0.9466499060501438
  outer loop
   vertex 139.3099528971082 32.998999999999995 1.3199999999999998
   vertex 158.90643099844675 16.559999999999963 1.3199999999999998
   vertex 159.93261676575761 19.379999999999967 2.28
  endloop
 endfacet
 facet normal -0.20711466171863677 -0.24689567083371278 0.9466499060501435
  outer loop
   vertex 143.69778281830764 32.998999999999995 2.28
   vertex 139.3099528971082 32.998999999999995 1.3199999999999998
   vertex 159.93261676575761 19.379999999999967 2.28
  endloop
 endfacet
 facet normal 0.0 1.0 0.0
  outer loop
   vertex 185.19004710289187 32.998999999999995 1.3199999999999998
   vertex 139.3099528971082 32.998999999999995 1.3199999999999998
   vertex 143.69778281830764 32.998999999999995 2.28
  endloop
 endfacet
 facet normal 0.0 1.0 0.0
  outer loop
   vertex 180.80221718169238 32.998999999999995 2.28
   vertex 185.19004710289187 32.998999999999995 1.3199999999999998
   vertex 143.69778281830764 32.998999999999995 2.28
  endloop
 endfacet
 facet normal 0.20711466171863557 -0.24689567083371153 0.9466499060501441
  outer loop
   vertex 165.59356900155328 16.559999999999963 1.3199999999999998
   vertex 185.19004710289187 32.998999999999995 1.3199999999999998
   vertex 180.80221718169238 32.998999999999995 2.28
  endloop
 endfacet
 facet normal 0.2071146617186348 -0.24689567083371083 0.9466499060501444
  outer loop
   vertex 164.56738323424239 19.379999999999967 2.28
   vertex 165.59356900155328 16.559999999999963 1.3199999999999998
   vertex 180.80221718169238 32.998999999999995 2.28
  endloop
 endfacet
 facet normal 0.0 0.0 1.0
  outer loop
   vertex 164.56738323424239 19.379999999999967 2.28
   vertex 143.69778281830764 32.998999999999995 2.28
   vertex 159.93261676575761 19.379999999999967 2.28
  endloop
 endfacet
 facet normal 0.0 -0.0 1.0
  outer loop
   vertex 164.56738323424239 19.379999999999967 2.28
   vertex 180.80221718169238 32.998999999999995 2.28
   vertex 143.69778281830764 32.998999999999995 2.28
  endloop
 endfacet
 facet normal 0.0 0.0 -1.0
  outer loop
   vertex 173.52975924350093 13.620000000000017 0
   vertex 184.0011642992353 13.620000000000015 0
   vertex 197.63101379430017 0.001 0
  endloop
 endfacet
 facet normal 0.0 0.0 -1.0
  outer loop
   vertex 173.52975924350093 13.620000000000017 0
   vertex 197.63101379430017 0.001 0
   vertex 189.76459319095088 0.001 0
  endloop
 endfacet
 facet normal 5.4668451680921874e-17 0.3222637978043046 -0.9466499060501439
  outer loop
   vertex 184.0011642992353 13.620000000000015 0
   vertex 173.52975924350093 13.620000000000017 0
   vertex 165.78028516841286 16.440000000000015 0.96
  endloop
 endfacet
 facet normal 0.0 0.32226379780430436 -0.946649906050144
  outer loop
   vertex 185.1685888661672 16.440000000000015 0.96
   vertex 184.0011642992353 13.620000000000015 0
   vertex 165.78028516841286 16.440000000000015 0.96
  endloop
 endfacet
 facet normal 0.2277841672467315 0.22796563014403623 -0.9466499060501435
  outer loop
   vertex 197.63101379430017 0.001 0
   vertex 184.0011642992353 13.620000000000015 0
   vertex 185.1685888661672 16.440000000000015 0.96
  endloop
 endfacet
 facet normal 0.2277841672467304 0.22796563014403545 -0.946649906050144
  outer loop
   vertex 201.62068489740088 0.001 0.96
   vertex 197.63101379430017 0.001 0
   vertex 185.1685888661672 16.440000000000015 0.96
  endloop
 endfacet
 facet normal 0.0 -1.0 0.0
  outer loop
   vertex 189.76459319095088 0.001 0
   vertex 197.63101379430017 0.001 0
   vertex 201.62068489740088 0.001 0.96
  endloop
 endfacet
 facet normal 0.0 -1.0 0.0
  outer loop
   vertex 185.37676326975142 0.001 0.96
   vertex 189.76459319095088 0.001 0
   vertex 201.62068489740088 0.001 0.96
  endloop
 endfacet
 facet normal -0.2071146617186368 -0.24689567083371255 -0.9466499060501437
  outer loop
   vertex 173.52975924350093 13.620000000000017 0
   vertex 189.76459319095088 0.001 0
   vertex 185.37676326975142 0.001 0.96
  endloop
 endfacet
 facet normal -0.20711466171863588 -0.24689567083371186 -0.946649906050144
  outer loop
   vertex 165.78028516841286 16.440000000000015 0.96
   vertex 173.52975924350093 13.620000000000017 0
   vertex 185.37676326975142 0.001 0.96
  endloop
 endfacet
 facet normal -0.0 0.0 1.0
  outer loop
   vertex 165.78028516841286 16.440000000000015 0.96
   vertex 201.62068489740088 0.001 0.96
   vertex 185.1685888661672 16.440000000000015 0.96
  endloop
 endfacet
 facet normal 0.0 0.0 1.0
  outer loop
   vertex 165.78028516841286 16.440000000000015 0.96
   vertex 185.37676326975142 0.001 0.96
   vertex 201.62068489740088 0.001 0.96
  endloop
 endfacet
 facet normal 0.0 0.0 -1.0
  outer loop
   vertex 165.78028516841286 16.440000000000015 1.3199999999999998
   vertex 185.1685888661672 16.440000000000015 1.3199999999999998
   vertex 201.62068489740088 0.001 1.3199999999999998
  endloop
 endfacet
 facet normal 0.0 0.0 -1.0
  outer loop
   vertex 165.78028516841286 16.440000000000015 1.3199999999999998
   vertex 201.62068489740088 0.001 1.3199999999999998
   vertex 185.37676326975142 0.001 1.3199999999999998
  endloop
 endfacet
 facet normal 0.0 0.3222637978043045 0.9466499060501439
  outer loop
   vertex 185.1685888661672 16.440000000000015 1.3199999999999998
   vertex 165.78028516841286 16.440000000000015 1.3199999999999998
   vertex 173.52975924350093 13.620000000000017 2.28
  endloop
 endfacet
 facet normal 5.4668451680921806e-17 0.32226379780430425 0.946649906050144
  outer loop
   vertex 184.0011642992353 13.620000000000015 2.28
   vertex 185.1685888661672 16.440000000000015 1.3199999999999998
   vertex 173.52975924350093 13.620000000000017 2.28
  endloop
 endfacet
 facet normal 0.22778416724673145 0.22796563014403654 0.9466499060501435
  outer loop
   vertex 201.62068489740088 0.001 1.3199999999999998
   vertex 185.1685888661672 16.440000000000015 1.3199999999999998
   vertex 184.0011642992353 13.620000000000015 2.28
  endloop
 endfacet
 facet normal 0.2277841672467304 0.22796563014403512 0.9466499060501441
  outer loop
   vertex 197.63101379430017 0.001 2.28
   vertex 201.62068489740088 0.001 1.3199999999999998
   vertex 184.0011642992353 13.620000000000015 2.28
  endloop
 endfacet
 facet normal 0.0 -1.0 0.0
  outer loop
   vertex 185.37676326975142 0.001 1.3199999999999998
   vertex 201.62068489740088 0.001 1.3199999999999998
   vertex 197.63101379430017 0.001 2.28
  endloop
 endfacet
 facet normal 0.0 -1.0 -0.0
  outer loop
   vertex 189.76459319095088 0.001 2.28
   vertex 185.37676326975142 0.001 1.3199999999999998
   vertex 197.63101379430017 0.001 2.28
  endloop
 endfacet
 facet normal -0.20711466171863682 -0.24689567083371294 0.9466499060501434
  outer loop
   vertex 165.78028516841286 16.440000000000015 1.3199999999999998
   vertex 185.37676326975142 0.001 1.3199999999999998
   vertex 189.76459319095088 0.001 2.28
  endloop
 endfacet
 facet normal -0.20711466171863568 -0.24689567083371125 0.9466499060501442
  outer loop
   vertex 173.52975924350093 13.620000000000017 2.28
   vertex 165.78028516841286 16.440000000000015 1.3199999999999998
   vertex 189.76459319095088 0.001 2.28
  endloop
 endfacet
 facet normal 0.0 0.0 1.0
  outer loop
   vertex 173.52975924350093 13.620000000000017 2.28
   vertex 197.63101379430017 0.001 2.28
   vertex 184.0011642992353 13.620000000000015 2.28
  endloop
 endfacet
 facet normal 0.0 0.0 1.0
  outer loop
   vertex 173.52975924350093 13.620000000000017 2.28
   vertex 189.76459319095088 0.001 2.28
   vertex 197.63101379430017 0.001 2.28
  endloop
 endfacet
 facet normal 0.0 0.0 -1.0
  outer loop
   vertex 184.00116429923534 19.380000000000013 0
   vertex 173.52975924350096 19.380000000000013 0
   vertex 189.76459319095093 32.999000000000024 0
  endloop
 endfacet
 facet normal 0.0 0.0 -1.0
  outer loop
   vertex 184.00116429923534 19.380000000000013 0
   vertex 189.76459319095093 32.999000000000024 0
   vertex 197.6310137943002 32.999000000000024 0
  endloop
 endfacet
 facet normal 0.0 -0.3222637978043043 -0.946649906050144
  outer loop
   vertex 173.52975924350096 19.380000000000013 0
   vertex 184.00116429923534 19.380000000000013 0
   vertex 185.16858886616723 16.560000000000013 0.96
  endloop
 endfacet
 facet normal 0.0 -0.32226379780430436 -0.946649906050144
  outer loop
   vertex 165.7802851684129 16.560000000000013 0.96
   vertex 173.52975924350096 19.380000000000013 0
   vertex 185.16858886616723 16.560000000000013 0.96
  endloop
 endfacet
 facet normal -0.20711466171863616 0.24689567083371233 -0.9466499060501438
  outer loop
   vertex 189.76459319095093 32.999000000000024 0
   vertex 173.52975924350096 19.380000000000013 0
   vertex 165.7802851684129 16.560000000000013 0.96
  endloop
 endfacet
 facet normal -0.20711466171863563 0.24689567083371158 -0.9466499060501442
  outer loop
   vertex 185.37676326975145 32.999000000000024 0.96
   vertex 189.76459319095093 32.999000000000024 0
   vertex 165.7802851684129 16.560000000000013 0.96
  endloop
 endfacet
 facet normal 0.0 1.0 0.0
  outer loop
   vertex 197.6310137943002 32.999000000000024 0
   vertex 189.76459319095093 32.999000000000024 0
   vertex 185.37676326975145 32.999000000000024 0.96
  endloop
 endfacet
 facet normal 0.0 1.0 0.0
  outer loop
   vertex 201.6206848974009 32.999000000000024 0.96
   vertex 197.6310137943002 32.999000000000024 0
   vertex 185.37676326975145 32.999000000000024 0.96
  endloop
 endfacet
 facet normal 0.22778416724673037 -0.22796563014403518 -0.9466499060501441
  outer loop
   vertex 184.00116429923534 19.380000000000013 0
   vertex 197.6310137943002 32.999000000000024 0
   vertex 201.6206848974009 32.999000000000024 0.96
  endloop
 endfacet
 facet normal 0.22778416724673126 -0.22796563014403634 -0.9466499060501435
  outer loop
   vertex 185.16858886616723 16.560000000000013 0.96
   vertex 184.00116429923534 19.380000000000013 0
   vertex 201.6206848974009 32.999000000000024 0.96
  endloop
 endfacet
 facet normal 0.0 -0.0 1.0
  outer loop
   vertex 185.16858886616723 16.560000000000013 0.96
   vertex 185.37676326975145 32.999000000000024 0.96
   vertex 165.7802851684129 16.560000000000013 0.96
  endloop
 endfacet
 facet normal 0.0 0.0 1.0
  outer loop
   vertex 185.16858886616723 16.560000000000013 0.96
   vertex 201.6206848974009 32.999000000000024 0.96
   vertex 185.37676326975145 32.999000000000024 0.96
  endloop
 endfacet
 facet normal 0.0 0.0 -1.0
  outer loop
   vertex 185.16858886616723 16.560000000000013 1.3199999999999998
   vertex 165.7802851684129 16.560000000000013 1.3199999999999998
   vertex 185.37676326975145 32.999000000000024 1.3199999999999998
  endloop
 endfacet
 facet normal 0.0 0.0 -1.0
  outer loop
   vertex 185.16858886616723 16.560000000000013 1.3199999999999998
   vertex 185.37676326975145 32.999000000000024 1.3199999999999998
   vertex 201.6206848974009 32.999000000000024 1.3199999999999998
  endloop
 endfacet
 facet normal 0.0 -0.32226379780430436 0.946649906050144
  outer loop
   vertex 165.7802851684129 16.560000000000013 1.3199999999999998
   vertex 185.16858886616723 16.560000000000013 1.3199999999999998
   vertex 184.00116429923534 19.380000000000013 2.28
  endloop
 endfacet
 facet normal 0.0 -0.3222637978043043 0.946649906050144
  outer loop
   vertex 173.52975924350096 19.380000000000013 2.28
   vertex 165.7802851684129 16.560000000000013 1.3199999999999998
   vertex 184.00116429923534 19.380000000000013 2.28
  endloop
 endfacet
 facet normal -0.2071146617186361 0.24689567083371214 0.946649906050144
  outer loop
   vertex 185.37676326975145 32.999000000000024 1.3199999999999998
   vertex 165.7802851684129 16.560000000000013 1.3199999999999998
   vertex 173.52975924350096 19.380000000000013 2.28
  endloop
 endfacet
 facet normal -0.20711466171863557 0.24689567083371167 0.9466499060501441
  outer loop
   vertex 189.76459319095093 32.999000000000024 2.28
   vertex 185.37676326975145 32.999000000000024 1.3199999999999998
   vertex 173.52975924350096 19.380000000000013 2.28
  endloop
 endfacet
 facet normal 0.0 1.0 0.0
  outer loop
   vertex 201.6206848974009 32.999000000000024 1.3199999999999998
   vertex 185.37676326975145 32.999000000000024 1.3199999999999998
   vertex 189.76459319095093 32.999000000000024 2.28
  endloop
 endfacet
 facet normal 0.0 1.0 0.0
  outer loop
   vertex 197.6310137943002 32.999000000000024 2.28
   vertex 201.6206848974009 32.999000000000024 1.3199999999999998
   vertex 189.76459319095093 32.999000000000024 2.28
  endloop
 endfacet
 facet normal 0.22778416724673037 -0.22796563014403545 0.946649906050144
  outer loop
   vertex 185.16858886616723 16.560000000000013 1.3199999999999998
   vertex 201.6206848974009 32.999000000000024 1.3199999999999998
   vertex 197.6310137943002 32.999000000000024 2.28
  endloop
 endfacet
 facet normal 0.22778416724673145 -0.22796563014403623 0.9466499060501435
  outer loop
   vertex 184.00116429923534 19.380000000000013 2.28
   vertex 185.16858886616723 16.560000000000013 1.3199999999999998
   vertex 197.6310137943002 32.999000000000024 2.28
  endloop
 endfacet
 facet normal 0.0 -0.0 1.0
  outer loop
   vertex 184.00116429923534 19.380000000000013 2.28
   vertex 189.76459319095093 32.999000000000024 2.28
   vertex 173.52975924350096 19.380000000000013 2.28
  endloop
 endfacet
 facet normal 0.0 0.0 1.0
  outer loop
   vertex 184.00116429923534 19.380000000000013 2.28
   vertex 197.6310137943002 32.999000000000024 2.28
   vertex 189.76459319095093 32.999000000000024 2.28
  endloop
 endfacet
 facet normal 0.0 0.0 -1.0
  outer loop
   vertex 192.15027974386652 13.619999999999994 0
   vertex 218.44670657802885 13.619999999999994 0
   vertex 218.4358614011167 0.001 0
  endloop
 endfacet
 facet normal 0.0 0.0 -1.0
  outer loop
   vertex 192.15027974386652 13.619999999999994 0
   vertex 218.4358614011167 0.001 0
   vertex 205.78012923893138 0.001 0
  endloop
 endfacet
 facet normal 0.0 0.3222637978043043 -0.946649906050144
  outer loop
   vertex 218.44670657802885 13.619999999999994 0
   vertex 192.15027974386652 13.619999999999994 0
   vertex 185.33836210459702 16.439999999999994 0.96
  endloop
 endfacet
 facet normal 0.0 0.3222637978043043 -0.946649906050144
  outer loop
   vertex 218.44895222006517 16.439999999999994 0.96
   vertex 218.44670657802885 13.619999999999994 0
   vertex 185.33836210459702 16.439999999999994 0.96
  endloop
 endfacet
 facet normal 0.9999996829318345 -0.000796326710733626 -2.47298961798538e-14
  outer loop
   vertex 218.4358614011167 0.001 0
   vertex 218.44670657802885 13.619999999999994 0
   vertex 218.44895222006517 16.439999999999994 0.96
  endloop
 endfacet
 facet normal 0.9999996829318346 -0.0007963267107350703 0.0
  outer loop
   vertex 218.4358614011167 0.001 0.96
   vertex 218.4358614011167 0.001 0
   vertex 218.44895222006517 16.439999999999994 0.96
  endloop
 endfacet
 facet normal 0.0 -1.0 0.0
  outer loop
   vertex 205.78012923893138 0.001 0
   vertex 218.4358614011167 0.001 0
   vertex 218.4358614011167 0.001 0.96
  endloop
 endfacet
 facet normal 0.0 -1.0 0.0
  outer loop
   vertex 201.79045813583068 0.001 0.96
   vertex 205.78012923893138 0.001 0
   vertex 218.4358614011167 0.001 0.96
  endloop
 endfacet
 facet normal -0.2277841672467303 -0.2279656301440354 -0.946649906050144
  outer loop
   vertex 192.15027974386652 13.619999999999994 0
   vertex 205.78012923893138 0.001 0
   vertex 201.79045813583068 0.001 0.96
  endloop
 endfacet
 facet normal -0.2277841672467309 -0.22796563014403584 -0.9466499060501435
  outer loop
   vertex 185.33836210459702 16.439999999999994 0.96
   vertex 192.15027974386652 13.619999999999994 0
   vertex 201.79045813583068 0.001 0.96
  endloop
 endfacet
 facet normal -0.0 0.0 1.0
  outer loop
   vertex 185.33836210459702 16.439999999999994 0.96
   vertex 218.4358614011167 0.001 0.96
   vertex 218.44895222006517 16.439999999999994 0.96
  endloop
 endfacet
 facet normal 0.0 0.0 1.0
  outer loop
   vertex 185.33836210459702 16.439999999999994 0.96
   vertex 201.79045813583068 0.001 0.96
   vertex 218.4358614011167 0.001 0.96
  endloop
 endfacet
 facet normal 0.0 0.0 -1.0
  outer loop
   vertex 185.33836210459702 16.439999999999994 1.3199999999999998
   vertex 218.44895222006517 16.439999999999994 1.3199999999999998
   vertex 218.4358614011167 0.001 1.3199999999999998
  endloop
 endfacet
 facet normal 0.0 0.0 -1.0
  outer loop
   vertex 185.33836210459702 16.439999999999994 1.3199999999999998
   vertex 218.4358614011167 0.001 1.3199999999999998
   vertex 201.79045813583068 0.001 1.3199999999999998
  endloop
 endfacet
 facet normal 0.0 0.3222637978043043 0.946649906050144
  outer loop
   vertex 218.44895222006517 16.439999999999994 1.3199999999999998
   vertex 185.33836210459702 16.439999999999994 1.3199999999999998
   vertex 192.15027974386652 13.619999999999994 2.28
  endloop
 endfacet
 facet normal 0.0 0.3222637978043043 0.946649906050144
  outer loop
   vertex 218.44670657802885 13.619999999999994 2.28
   vertex 218.44895222006517 16.439999999999994 1.3199999999999998
   vertex 192.15027974386652 13.619999999999994 2.28
  endloop
 endfacet
 facet normal 0.9999996829318346 -0.0007963267107350703 2.0487648644895002e-14
  outer loop
   vertex 218.4358614011167 0.001 1.3199999999999998
   vertex 218.44895222006517 16.439999999999994 1.3199999999999998
   vertex 218.44670657802885 13.619999999999994 2.28
  endloop
 endfacet
 facet normal 0.9999996829318345 -0.000796326710733626 0.0
  outer loop
   vertex 218.4358614011167 0.001 2.28
   vertex 218.4358614011167 0.001 1.3199999999999998
   vertex 218.44670657802885 13.619999999999994 2.28
  endloop
 endfacet
 facet normal 0.0 -1.0 0.0
  outer loop
   vertex 201.79045813583068 0.001 1.3199999999999998
   vertex 218.4358614011167 0.001 1.3199999999999998
   vertex 218.4358614011167 0.001 2.28
  endloop
 endfacet
 facet normal 0.0 -1.0 -0.0
  outer loop
   vertex 205.78012923893138 0.001 2.28
   vertex 201.79045813583068 0.001 1.3199999999999998
   vertex 218.4358614011167 0.001 2.28
  endloop
 endfacet
 facet normal -0.2277841672467304 -0.22796563014403531 0.9466499060501439
  outer loop
   vertex 185.33836210459702 16.439999999999994 1.3199999999999998
   vertex 201.79045813583068 0.001 1.3199999999999998
   vertex 205.78012923893138 0.001 2.28
  endloop
 endfacet
 facet normal -0.227784167246731 -0.22796563014403606 0.9466499060501438
  outer loop
   vertex 192.15027974386652 13.619999999999994 2.28
   vertex 185.33836210459702 16.439999999999994 1.3199999999999998
   vertex 205.78012923893138 0.001 2.28
  endloop
 endfacet
 facet normal -0.0 0.0 1.0
  outer loop
   vertex 192.15027974386652 13.619999999999994 2.28
   vertex 218.4358614011167 0.001 2.28
   vertex 218.44670657802885 13.619999999999994 2.28
  endloop
 endfacet
 facet normal 0.0 0.0 1.0
  outer loop
   vertex 192.15027974386652 13.619999999999994 2.28
   vertex 205.78012923893138 0.001 2.28
   vertex 218.4358614011167 0.001 2.28
  endloop
 endfacet
 facet normal 0.0 0.0 -1.0
  outer loop
   vertex 218.44670657802885 19.379999999999992 0
   vertex 192.15027974386652 19.379999999999992 0
   vertex 205.78012923893135 32.998999999999974 0
  endloop
 endfacet
 facet normal 0.0 0.0 -1.0
  outer loop
   vertex 218.44670657802885 19.379999999999992 0
   vertex 205.78012923893135 32.998999999999974 0
   vertex 218.4358614011167 32.998999999999974 0
  endloop
 endfacet
 facet normal 0.0 -0.3222637978043043 -0.946649906050144
  outer loop
   vertex 192.15027974386652 19.379999999999992 0
   vertex 218.44670657802885 19.379999999999992 0
   vertex 218.44895222006517 16.55999999999999 0.96
  endloop
 endfacet
 facet normal 0.0 -0.3222637978043043 -0.946649906050144
  outer loop
   vertex 185.33836210459702 16.55999999999999 0.96
   vertex 192.15027974386652 19.379999999999992 0
   vertex 218.44895222006517 16.55999999999999 0.96
  endloop
 endfacet
 facet normal -0.22778416724673087 0.2279656301440357 -0.9466499060501437
  outer loop
   vertex 205.78012923893135 32.998999999999974 0
   vertex 192.15027974386652 19.379999999999992 0
   vertex 185.33836210459702 16.55999999999999 0.96
  endloop
 endfacet
 facet normal -0.22778416724673042 0.22796563014403512 -0.9466499060501441
  outer loop
   vertex 201.79045813583065 32.998999999999974 0.96
   vertex 205.78012923893135 32.998999999999974 0
   vertex 185.33836210459702 16.55999999999999 0.96
  endloop
 endfacet
 facet normal 0.0 1.0 0.0
  outer loop
   vertex 218.4358614011167 32.998999999999974 0
   vertex 205.78012923893135 32.998999999999974 0
   vertex 201.79045813583065 32.998999999999974 0.96
  endloop
 endfacet
 facet normal 0.0 1.0 0.0
  outer loop
   vertex 218.4358614011167 32.998999999999974 0.96
   vertex 218.4358614011167 32.998999999999974 0
   vertex 201.79045813583065 32.998999999999974 0.96
  endloop
 endfacet
 facet normal 0.9999996829318346 0.0007963267107336269 0.0
  outer loop
   vertex 218.44670657802885 19.379999999999992 0
   vertex 218.4358614011167 32.998999999999974 0
   vertex 218.4358614011167 32.998999999999974 0.96
  endloop
 endfacet
 facet normal 0.9999996829318346 0.0007963267107350708 -2.0485010523771543e-14
  outer loop
   vertex 218.44895222006517 16.55999999999999 0.96
   vertex 218.44670657802885 19.379999999999992 0
   vertex 218.4358614011167 32.998999999999974 0.96
  endloop
 endfacet
 facet normal 0.0 0.0 1.0
  outer loop
   vertex 218.44895222006517 16.55999999999999 0.96
   vertex 201.79045813583065 32.998999999999974 0.96
   vertex 185.33836210459702 16.55999999999999 0.96
  endloop
 endfacet
 facet normal 0.0 0.0 1.0
  outer loop
   vertex 218.44895222006517 16.55999999999999 0.96
   vertex 218.4358614011167 32.998999999999974 0.96
   vertex 201.79045813583065 32.998999999999974 0.96
  endloop
 endfacet
 facet normal 0.0 0.0 -1.0
  outer loop
   vertex 218.44895222006517 16.55999999999999 1.3199999999999998
   vertex 185.33836210459702 16.55999999999999 1.3199999999999998
   vertex 201.79045813583065 32.998999999999974 1.3199999999999998
  endloop
 endfacet
 facet normal 0.0 0.0 -1.0
  outer loop
   vertex 218.44895222006517 16.55999999999999 1.3199999999999998
   vertex 201.79045813583065 32.998999999999974 1.3199999999999998
   vertex 218.4358614011167 32.998999999999974 1.3199999999999998
  endloop
 endfacet
 facet normal 0.0 -0.3222637978043043 0.946649906050144
  outer loop
   vertex 185.33836210459702 16.55999999999999 1.3199999999999998
   vertex 218.44895222006517 16.55999999999999 1.3199999999999998
   vertex 218.44670657802885 19.379999999999992 2.28
  endloop
 endfacet
 facet normal 0.0 -0.3222637978043043 0.946649906050144
  outer loop
   vertex 192.15027974386652 19.379999999999992 2.28
   vertex 185.33836210459702 16.55999999999999 1.3199999999999998
   vertex 218.44670657802885 19.379999999999992 2.28
  endloop
 endfacet
 facet normal -0.2277841672467307 0.2279656301440354 0.9466499060501438
  outer loop
   vertex 201.79045813583065 32.998999999999974 1.3199999999999998
   vertex 185.33836210459702 16.55999999999999 1.3199999999999998
   vertex 192.15027974386652 19.379999999999992 2.28
  endloop
 endfacet
 facet normal -0.2277841672467304 0.2279656301440352 0.9466499060501441
  outer loop
   vertex 205.78012923893135 32.998999999999974 2.28
   vertex 201.79045813583065 32.998999999999974 1.3199999999999998
   vertex 192.15027974386652 19.379999999999992 2.28
  endloop
 endfacet
 facet normal 0.0 1.0 0.0
  outer loop
   vertex 218.4358614011167 32.998999999999974 1.3199999999999998
   vertex 201.79045813583065 32.998999999999974 1.3199999999999998
   vertex 205.78012923893135 32.998999999999974 2.28
  endloop
 endfacet
 facet normal 0.0 1.0 0.0
  outer loop
   vertex 218.4358614011167 32.998999999999974 2.28
   vertex 218.4358614011167 32.998999999999974 1.3199999999999998
   vertex 205.78012923893135 32.998999999999974 2.28
  endloop
 endfacet
 facet normal 0.9999996829318346 0.0007963267107350708 0.0
  outer loop
   vertex 218.44895222006517 16.55999999999999 1.3199999999999998
   vertex 218.4358614011167 32.998999999999974 1.3199999999999998
   vertex 218.4358614011167 32.998999999999974 2.28
  endloop
 endfacet
 facet normal 0.9999996829318346 0.0007963267107336269 2.4726711799712203e-14
  outer loop
   vertex 218.44670657802885 19.379999999999992 2.28
   vertex 218.44895222006517 16.55999999999999 1.3199999999999998
   vertex 218.4358614011167 32.998999999999974 2.28
  endloop
 endfacet
 facet normal 0.0 0.0 1.0
  outer loop
   vertex 218.44670657802885 19.379999999999992 2.28
   vertex 205.78012923893135 32.998999999999974 2.28
   vertex 192.15027974386652 19.379999999999992 2.28
  endloop
 endfacet
 facet normal 0.0 0.0 1.0
  outer loop
   vertex 218.44670657802885 19.379999999999992 2.28
   vertex 218.4358614011167 32.998999999999974 2.28
   vertex 205.78012923893135 32.998999999999974 2.28
  endloop
 endfacet
endsolid
