solid PyGamic generated __All_Units__ SLA File
 facet normal 0.0 0.0 -1.0
  outer loop
   vertex 0.0009999999999983037 24.939999999999998 0
   vertex 6.097131841010269 24.939999999999998 0
   vertex 0.0009999999999988369 15.795802238484592 0
  endloop
 endfacet
 facet normal 0.0 1.0 0.0
  outer loop
   vertex 6.097131841010269 24.939999999999998 0
   vertex 0.0009999999999983037 24.939999999999998 0
   vertex 0.0009999999999983037 24.939999999999998 0.54
  endloop
 endfacet
 facet normal 0.0 1.0 0.0
  outer loop
   vertex 7.887888974490717 24.939999999999998 0.54
   vertex 6.097131841010269 24.939999999999998 0
   vertex 0.0009999999999983037 24.939999999999998 0.54
  endloop
 endfacet
 facet normal 0.2835041728577541 -0.1890027819051694 -0.9401613331786985
  outer loop
   vertex 0.0009999999999988369 15.795802238484592 0
   vertex 6.097131841010269 24.939999999999998 0
   vertex 7.887888974490717 24.939999999999998 0.54
  endloop
 endfacet
 facet normal 0.2835041728577539 -0.18900278190516923 -0.9401613331786984
  outer loop
   vertex 0.0009999999999989937 13.109666538263918 0.54
   vertex 0.0009999999999988369 15.795802238484592 0
   vertex 7.887888974490717 24.939999999999998 0.54
  endloop
 endfacet
 facet normal -1.0 -5.831136227963707e-17 2.6555961772160237e-19
  outer loop
   vertex 0.0009999999999983037 24.939999999999998 0
   vertex 0.0009999999999988369 15.795802238484592 0
   vertex 0.0009999999999989937 13.109666538263918 0.54
  endloop
 endfacet
 facet normal -1.0 -5.832348384781039e-17 -0.0
  outer loop
   vertex 0.0009999999999983037 24.939999999999998 0.54
   vertex 0.0009999999999983037 24.939999999999998 0
   vertex 0.0009999999999989937 13.109666538263918 0.54
  endloop
 endfacet
 facet normal 0.0 1.0 0.0
  outer loop
   vertex 7.887888974490717 24.939999999999998 0.54
   vertex 0.0009999999999983037 24.939999999999998 0.54
   vertex 0.0009999999999983037 24.939999999999998 0.6
  endloop
 endfacet
 facet normal 0.0 1.0 0.0
  outer loop
   vertex 7.887888974490717 24.939999999999998 0.6
   vertex 7.887888974490717 24.939999999999998 0.54
   vertex 0.0009999999999983037 24.939999999999998 0.6
  endloop
 endfacet
 facet normal 0.8320502943378436 -0.554700196225229 0.0
  outer loop
   vertex 0.0009999999999989937 13.109666538263918 0.54
   vertex 7.887888974490717 24.939999999999998 0.54
   vertex 7.887888974490717 24.939999999999998 0.6
  endloop
 endfacet
 facet normal 0.8320502943378436 -0.554700196225229 0.0
  outer loop
   vertex 0.0009999999999989937 13.109666538263918 0.6
   vertex 0.0009999999999989937 13.109666538263918 0.54
   vertex 7.887888974490717 24.939999999999998 0.6
  endloop
 endfacet
 facet normal -1.0 -5.832348384781039e-17 0.0
  outer loop
   vertex 0.0009999999999983037 24.939999999999998 0.54
   vertex 0.0009999999999989937 13.109666538263918 0.54
   vertex 0.0009999999999989937 13.109666538263918 0.6
  endloop
 endfacet
 facet normal -1.0 -5.832348384781039e-17 -0.0
  outer loop
   vertex 0.0009999999999983037 24.939999999999998 0.6
   vertex 0.0009999999999983037 24.939999999999998 0.54
   vertex 0.0009999999999989937 13.109666538263918 0.6
  endloop
 endfacet
 facet normal -0.0 0.0 1.0
  outer loop
   vertex 0.0009999999999983037 24.939999999999998 0.6
   vertex 0.0009999999999989937 13.109666538263918 0.6
   vertex 7.887888974490717 24.939999999999998 0.6
  endloop
 endfacet
 facet normal 0.0 0.0 -1.0
  outer loop
   vertex 0.0009999999999983037 24.939999999999998 0.96
   vertex 7.887888974490717 24.939999999999998 0.96
   vertex 0.0009999999999989937 13.109666538263918 0.96
  endloop
 endfacet
 facet normal 0.0 1.0 0.0
  outer loop
   vertex 7.887888974490717 24.939999999999998 0.96
   vertex 0.0009999999999983037 24.939999999999998 0.96
   vertex 0.0009999999999983037 24.939999999999998 1.02
  endloop
 endfacet
 facet normal 0.0 1.0 0.0
  outer loop
   vertex 7.887888974490717 24.939999999999998 1.02
   vertex 7.887888974490717 24.939999999999998 0.96
   vertex 0.0009999999999983037 24.939999999999998 1.02
  endloop
 endfacet
 facet normal 0.8320502943378437 -0.554700196225229 0.0
  outer loop
   vertex 0.0009999999999989937 13.109666538263918 0.96
   vertex 7.887888974490717 24.939999999999998 0.96
   vertex 7.887888974490717 24.939999999999998 1.02
  endloop
 endfacet
 facet normal 0.8320502943378437 -0.554700196225229 0.0
  outer loop
   vertex 0.0009999999999989937 13.109666538263918 1.02
   vertex 0.0009999999999989937 13.109666538263918 0.96
   vertex 7.887888974490717 24.939999999999998 1.02
  endloop
 endfacet
 facet normal -1.0 -5.832348384781039e-17 0.0
  outer loop
   vertex 0.0009999999999983037 24.939999999999998 0.96
   vertex 0.0009999999999989937 13.109666538263918 0.96
   vertex 0.0009999999999989937 13.109666538263918 1.02
  endloop
 endfacet
 facet normal -1.0 -5.832348384781039e-17 -0.0
  outer loop
   vertex 0.0009999999999983037 24.939999999999998 1.02
   vertex 0.0009999999999983037 24.939999999999998 0.96
   vertex 0.0009999999999989937 13.109666538263918 1.02
  endloop
 endfacet
 facet normal 0.0 0.5594728550010623 0.8288486740756486
  outer loop
   vertex 7.887888974490717 24.939999999999998 1.02
   vertex 0.0009999999999983037 24.939999999999998 1.02
   vertex 0.00099999999999835 24.139999999999997 1.56
  endloop
 endfacet
 facet normal 0.0 0.5594728550010623 0.8288486740756484
  outer loop
   vertex 7.354555641157383 24.139999999999997 1.56
   vertex 7.887888974490717 24.939999999999998 1.02
   vertex 0.00099999999999835 24.139999999999997 1.56
  endloop
 endfacet
 facet normal 0.8320502943378437 -0.554700196225229 1.850883278740553e-15
  outer loop
   vertex 0.0009999999999989937 13.109666538263918 1.02
   vertex 7.887888974490717 24.939999999999998 1.02
   vertex 7.354555641157383 24.139999999999997 1.56
  endloop
 endfacet
 facet normal 0.8320502943378438 -0.554700196225229 0.0
  outer loop
   vertex 0.0009999999999989937 13.109666538263918 1.56
   vertex 0.0009999999999989937 13.109666538263918 1.02
   vertex 7.354555641157383 24.139999999999997 1.56
  endloop
 endfacet
 facet normal -1.0 -5.832348384781039e-17 0.0
  outer loop
   vertex 0.0009999999999983037 24.939999999999998 1.02
   vertex 0.0009999999999989937 13.109666538263918 1.02
   vertex 0.0009999999999989937 13.109666538263918 1.56
  endloop
 endfacet
 facet normal -1.0 -5.834659594108962e-17 -5.063403157261962e-19
  outer loop
   vertex 0.00099999999999835 24.139999999999997 1.56
   vertex 0.0009999999999983037 24.939999999999998 1.02
   vertex 0.0009999999999989937 13.109666538263918 1.56
  endloop
 endfacet
 facet normal -0.0 0.0 1.0
  outer loop
   vertex 0.00099999999999835 24.139999999999997 1.56
   vertex 0.0009999999999989937 13.109666538263918 1.56
   vertex 7.354555641157383 24.139999999999997 1.56
  endloop
 endfacet
 facet normal 0.0 0.0 -1.0
  outer loop
   vertex 6.15722436226801 25.059999999999995 0
   vertex 0.0009999999999983037 25.059999999999995 0
   vertex 0.000999999999998842 34.29433654340202 0
  endloop
 endfacet
 facet normal 0.0 -1.0 0.0
  outer loop
   vertex 0.0009999999999983037 25.059999999999995 0
   vertex 6.15722436226801 25.059999999999995 0
   vertex 7.88788897449072 25.059999999999995 0.54
  endloop
 endfacet
 facet normal 0.0 -1.0 0.0
  outer loop
   vertex 0.0009999999999983037 25.059999999999995 0.54
   vertex 0.0009999999999983037 25.059999999999995 0
   vertex 7.88788897449072 25.059999999999995 0.54
  endloop
 endfacet
 facet normal -1.0 5.830573710690688e-17 0.0
  outer loop
   vertex 0.000999999999998842 34.29433654340202 0
   vertex 0.0009999999999983037 25.059999999999995 0
   vertex 0.0009999999999983037 25.059999999999995 0.54
  endloop
 endfacet
 facet normal -1.0 5.832348384781038e-17 3.0348032972501066e-19
  outer loop
   vertex 0.0009999999999989937 36.89033346173608 0.54
   vertex 0.000999999999998842 34.29433654340202 0
   vertex 0.0009999999999983037 25.059999999999995 0.54
  endloop
 endfacet
 facet normal 0.29215236292253943 0.1947682419483595 -0.9363291775690439
  outer loop
   vertex 6.15722436226801 25.059999999999995 0
   vertex 0.000999999999998842 34.29433654340202 0
   vertex 0.0009999999999989937 36.89033346173608 0.54
  endloop
 endfacet
 facet normal 0.2921523629225386 0.19476824194835907 -0.9363291775690442
  outer loop
   vertex 7.88788897449072 25.059999999999995 0.54
   vertex 6.15722436226801 25.059999999999995 0
   vertex 0.0009999999999989937 36.89033346173608 0.54
  endloop
 endfacet
 facet normal 0.0 -1.0 0.0
  outer loop
   vertex 0.0009999999999983037 25.059999999999995 0.54
   vertex 7.88788897449072 25.059999999999995 0.54
   vertex 7.88788897449072 25.059999999999995 0.6
  endloop
 endfacet
 facet normal 0.0 -1.0 0.0
  outer loop
   vertex 0.0009999999999983037 25.059999999999995 0.6
   vertex 0.0009999999999983037 25.059999999999995 0.54
   vertex 7.88788897449072 25.059999999999995 0.6
  endloop
 endfacet
 facet normal -1.0 5.832348384781038e-17 0.0
  outer loop
   vertex 0.0009999999999989937 36.89033346173608 0.54
   vertex 0.0009999999999983037 25.059999999999995 0.54
   vertex 0.0009999999999983037 25.059999999999995 0.6
  endloop
 endfacet
 facet normal -1.0 5.832348384781038e-17 0.0
  outer loop
   vertex 0.0009999999999989937 36.89033346173608 0.6
   vertex 0.0009999999999989937 36.89033346173608 0.54
   vertex 0.0009999999999983037 25.059999999999995 0.6
  endloop
 endfacet
 facet normal 0.8320502943378437 0.5547001962252291 0.0
  outer loop
   vertex 7.88788897449072 25.059999999999995 0.54
   vertex 0.0009999999999989937 36.89033346173608 0.54
   vertex 0.0009999999999989937 36.89033346173608 0.6
  endloop
 endfacet
 facet normal 0.8320502943378437 0.5547001962252291 0.0
  outer loop
   vertex 7.88788897449072 25.059999999999995 0.6
   vertex 7.88788897449072 25.059999999999995 0.54
   vertex 0.0009999999999989937 36.89033346173608 0.6
  endloop
 endfacet
 facet normal 0.0 0.0 1.0
  outer loop
   vertex 7.88788897449072 25.059999999999995 0.6
   vertex 0.0009999999999989937 36.89033346173608 0.6
   vertex 0.0009999999999983037 25.059999999999995 0.6
  endloop
 endfacet
 facet normal 0.0 0.0 -1.0
  outer loop
   vertex 7.88788897449072 25.059999999999995 0.96
   vertex 0.0009999999999983037 25.059999999999995 0.96
   vertex 0.0009999999999989937 36.89033346173608 0.96
  endloop
 endfacet
 facet normal 0.0 -1.0 0.0
  outer loop
   vertex 0.0009999999999983037 25.059999999999995 0.96
   vertex 7.88788897449072 25.059999999999995 0.96
   vertex 7.88788897449072 25.059999999999995 1.02
  endloop
 endfacet
 facet normal 0.0 -1.0 0.0
  outer loop
   vertex 0.0009999999999983037 25.059999999999995 1.02
   vertex 0.0009999999999983037 25.059999999999995 0.96
   vertex 7.88788897449072 25.059999999999995 1.02
  endloop
 endfacet
 facet normal -1.0 5.832348384781038e-17 0.0
  outer loop
   vertex 0.0009999999999989937 36.89033346173608 0.96
   vertex 0.0009999999999983037 25.059999999999995 0.96
   vertex 0.0009999999999983037 25.059999999999995 1.02
  endloop
 endfacet
 facet normal -1.0 5.832348384781038e-17 0.0
  outer loop
   vertex 0.0009999999999989937 36.89033346173608 1.02
   vertex 0.0009999999999989937 36.89033346173608 0.96
   vertex 0.0009999999999983037 25.059999999999995 1.02
  endloop
 endfacet
 facet normal 0.8320502943378437 0.5547001962252293 0.0
  outer loop
   vertex 7.88788897449072 25.059999999999995 0.96
   vertex 0.0009999999999989937 36.89033346173608 0.96
   vertex 0.0009999999999989937 36.89033346173608 1.02
  endloop
 endfacet
 facet normal 0.8320502943378437 0.5547001962252293 0.0
  outer loop
   vertex 7.88788897449072 25.059999999999995 1.02
   vertex 7.88788897449072 25.059999999999995 0.96
   vertex 0.0009999999999989937 36.89033346173608 1.02
  endloop
 endfacet
 facet normal 0.0 -0.5594728550010621 0.8288486740756483
  outer loop
   vertex 0.0009999999999983037 25.059999999999995 1.02
   vertex 7.88788897449072 25.059999999999995 1.02
   vertex 7.354555641157386 25.859999999999996 1.56
  endloop
 endfacet
 facet normal 0.0 -0.5594728550010621 0.8288486740756483
  outer loop
   vertex 0.00099999999999835 25.859999999999996 1.56
   vertex 0.0009999999999983037 25.059999999999995 1.02
   vertex 7.354555641157386 25.859999999999996 1.56
  endloop
 endfacet
 facet normal -1.0 5.832348384781038e-17 -4.721001775348699e-19
  outer loop
   vertex 0.0009999999999989937 36.89033346173608 1.02
   vertex 0.0009999999999983037 25.059999999999995 1.02
   vertex 0.00099999999999835 25.859999999999996 1.56
  endloop
 endfacet
 facet normal -1.0 5.834659594108961e-17 0.0
  outer loop
   vertex 0.0009999999999989937 36.89033346173608 1.56
   vertex 0.0009999999999989937 36.89033346173608 1.02
   vertex 0.00099999999999835 25.859999999999996 1.56
  endloop
 endfacet
 facet normal 0.8320502943378437 0.5547001962252291 0.0
  outer loop
   vertex 7.88788897449072 25.059999999999995 1.02
   vertex 0.0009999999999989937 36.89033346173608 1.02
   vertex 0.0009999999999989937 36.89033346173608 1.56
  endloop
 endfacet
 facet normal 0.8320502943378437 0.5547001962252291 3.722105239759533e-16
  outer loop
   vertex 7.354555641157386 25.859999999999996 1.56
   vertex 7.88788897449072 25.059999999999995 1.02
   vertex 0.0009999999999989937 36.89033346173608 1.56
  endloop
 endfacet
 facet normal 0.0 0.0 1.0
  outer loop
   vertex 7.354555641157386 25.859999999999996 1.56
   vertex 0.0009999999999989937 36.89033346173608 1.56
   vertex 0.00099999999999835 25.859999999999996 1.56
  endloop
 endfacet
 facet normal -0.0 -0.0 -1.0
  outer loop
   vertex 19.999 24.940000000000005 0
   vertex 19.999 15.795802238484576 0
   vertex 13.90286815898971 24.940000000000005 0
  endloop
 endfacet
 facet normal 1.0 0.0 0.0
  outer loop
   vertex 19.999 15.795802238484576 0
   vertex 19.999 24.940000000000005 0
   vertex 19.999 24.940000000000005 0.54
  endloop
 endfacet
 facet normal 1.0 -0.0 0.0
  outer loop
   vertex 19.999 13.109666538263909 0.54
   vertex 19.999 15.795802238484576 0
   vertex 19.999 24.940000000000005 0.54
  endloop
 endfacet
 facet normal -0.2835041728577544 -0.18900278190516975 -0.9401613331786982
  outer loop
   vertex 13.90286815898971 24.940000000000005 0
   vertex 19.999 15.795802238484576 0
   vertex 19.999 13.109666538263909 0.54
  endloop
 endfacet
 facet normal -0.2835041728577544 -0.18900278190516973 -0.9401613331786983
  outer loop
   vertex 12.112111025509265 24.940000000000005 0.54
   vertex 13.90286815898971 24.940000000000005 0
   vertex 19.999 13.109666538263909 0.54
  endloop
 endfacet
 facet normal 0.0 1.0 0.0
  outer loop
   vertex 19.999 24.940000000000005 0
   vertex 13.90286815898971 24.940000000000005 0
   vertex 12.112111025509265 24.940000000000005 0.54
  endloop
 endfacet
 facet normal 0.0 1.0 0.0
  outer loop
   vertex 19.999 24.940000000000005 0.54
   vertex 19.999 24.940000000000005 0
   vertex 12.112111025509265 24.940000000000005 0.54
  endloop
 endfacet
 facet normal 1.0 0.0 0.0
  outer loop
   vertex 19.999 13.109666538263909 0.54
   vertex 19.999 24.940000000000005 0.54
   vertex 19.999 24.940000000000005 0.6
  endloop
 endfacet
 facet normal 1.0 -0.0 0.0
  outer loop
   vertex 19.999 13.109666538263909 0.6
   vertex 19.999 13.109666538263909 0.54
   vertex 19.999 24.940000000000005 0.6
  endloop
 endfacet
 facet normal -0.8320502943378436 -0.5547001962252293 0.0
  outer loop
   vertex 12.112111025509265 24.940000000000005 0.54
   vertex 19.999 13.109666538263909 0.54
   vertex 19.999 13.109666538263909 0.6
  endloop
 endfacet
 facet normal -0.8320502943378436 -0.5547001962252293 -0.0
  outer loop
   vertex 12.112111025509265 24.940000000000005 0.6
   vertex 12.112111025509265 24.940000000000005 0.54
   vertex 19.999 13.109666538263909 0.6
  endloop
 endfacet
 facet normal 0.0 1.0 0.0
  outer loop
   vertex 19.999 24.940000000000005 0.54
   vertex 12.112111025509265 24.940000000000005 0.54
   vertex 12.112111025509265 24.940000000000005 0.6
  endloop
 endfacet
 facet normal 0.0 1.0 0.0
  outer loop
   vertex 19.999 24.940000000000005 0.6
   vertex 19.999 24.940000000000005 0.54
   vertex 12.112111025509265 24.940000000000005 0.6
  endloop
 endfacet
 facet normal 0.0 0.0 1.0
  outer loop
   vertex 19.999 24.940000000000005 0.6
   vertex 12.112111025509265 24.940000000000005 0.6
   vertex 19.999 13.109666538263909 0.6
  endloop
 endfacet
 facet normal -0.0 -0.0 -1.0
  outer loop
   vertex 19.999 24.940000000000005 0.96
   vertex 19.999 13.109666538263909 0.96
   vertex 12.112111025509265 24.940000000000005 0.96
  endloop
 endfacet
 facet normal 1.0 0.0 0.0
  outer loop
   vertex 19.999 13.109666538263909 0.96
   vertex 19.999 24.940000000000005 0.96
   vertex 19.999 24.940000000000005 1.02
  endloop
 endfacet
 facet normal 1.0 -0.0 0.0
  outer loop
   vertex 19.999 13.109666538263909 1.02
   vertex 19.999 13.109666538263909 0.96
   vertex 19.999 24.940000000000005 1.02
  endloop
 endfacet
 facet normal -0.8320502943378436 -0.5547001962252293 0.0
  outer loop
   vertex 12.112111025509265 24.940000000000005 0.96
   vertex 19.999 13.109666538263909 0.96
   vertex 19.999 13.109666538263909 1.02
  endloop
 endfacet
 facet normal -0.8320502943378436 -0.5547001962252293 -0.0
  outer loop
   vertex 12.112111025509265 24.940000000000005 1.02
   vertex 12.112111025509265 24.940000000000005 0.96
   vertex 19.999 13.109666538263909 1.02
  endloop
 endfacet
 facet normal 0.0 1.0 0.0
  outer loop
   vertex 19.999 24.940000000000005 0.96
   vertex 12.112111025509265 24.940000000000005 0.96
   vertex 12.112111025509265 24.940000000000005 1.02
  endloop
 endfacet
 facet normal 0.0 1.0 0.0
  outer loop
   vertex 19.999 24.940000000000005 1.02
   vertex 19.999 24.940000000000005 0.96
   vertex 12.112111025509265 24.940000000000005 1.02
  endloop
 endfacet
 facet normal 1.0 0.0 0.0
  outer loop
   vertex 19.999 13.109666538263909 1.02
   vertex 19.999 24.940000000000005 1.02
   vertex 19.999 24.140000000000004 1.56
  endloop
 endfacet
 facet normal 1.0 -0.0 0.0
  outer loop
   vertex 19.999 13.109666538263909 1.56
   vertex 19.999 13.109666538263909 1.02
   vertex 19.999 24.140000000000004 1.56
  endloop
 endfacet
 facet normal -0.8320502943378436 -0.5547001962252294 0.0
  outer loop
   vertex 12.112111025509265 24.940000000000005 1.02
   vertex 19.999 13.109666538263909 1.02
   vertex 19.999 13.109666538263909 1.56
  endloop
 endfacet
 facet normal -0.8320502943378435 -0.5547001962252294 -2.3573333185143684e-15
  outer loop
   vertex 12.6454443588426 24.14 1.56
   vertex 12.112111025509265 24.940000000000005 1.02
   vertex 19.999 13.109666538263909 1.56
  endloop
 endfacet
 facet normal 0.0 0.5594728550010605 0.8288486740756495
  outer loop
   vertex 19.999 24.940000000000005 1.02
   vertex 12.112111025509265 24.940000000000005 1.02
   vertex 12.6454443588426 24.14 1.56
  endloop
 endfacet
 facet normal -2.702973856286754e-16 0.5594728550010623 0.8288486740756483
  outer loop
   vertex 19.999 24.140000000000004 1.56
   vertex 19.999 24.940000000000005 1.02
   vertex 12.6454443588426 24.14 1.56
  endloop
 endfacet
 facet normal 0.0 0.0 1.0
  outer loop
   vertex 19.999 24.140000000000004 1.56
   vertex 12.6454443588426 24.14 1.56
   vertex 19.999 13.109666538263909 1.56
  endloop
 endfacet
 facet normal 0.0 0.0 -1.0
  outer loop
   vertex 19.999 25.060000000000002 0
   vertex 13.902868158989723 25.060000000000002 0
   vertex 19.999 34.20419776151541 0
  endloop
 endfacet
 facet normal 0.0 -1.0 0.0
  outer loop
   vertex 13.902868158989723 25.060000000000002 0
   vertex 19.999 25.060000000000002 0
   vertex 19.999 25.060000000000002 0.54
  endloop
 endfacet
 facet normal 0.0 -1.0 0.0
  outer loop
   vertex 12.112111025509273 25.060000000000002 0.54
   vertex 13.902868158989723 25.060000000000002 0
   vertex 19.999 25.060000000000002 0.54
  endloop
 endfacet
 facet normal -0.28350417285775403 0.1890027819051695 -0.9401613331786985
  outer loop
   vertex 19.999 34.20419776151541 0
   vertex 13.902868158989723 25.060000000000002 0
   vertex 12.112111025509273 25.060000000000002 0.54
  endloop
 endfacet
 facet normal -0.2835041728577538 0.18900278190516928 -0.9401613331786987
  outer loop
   vertex 19.999 36.890333461736084 0.54
   vertex 19.999 34.20419776151541 0
   vertex 12.112111025509273 25.060000000000002 0.54
  endloop
 endfacet
 facet normal 1.0 0.0 0.0
  outer loop
   vertex 19.999 25.060000000000002 0
   vertex 19.999 34.20419776151541 0
   vertex 19.999 36.890333461736084 0.54
  endloop
 endfacet
 facet normal 1.0 -0.0 0.0
  outer loop
   vertex 19.999 25.060000000000002 0.54
   vertex 19.999 25.060000000000002 0
   vertex 19.999 36.890333461736084 0.54
  endloop
 endfacet
 facet normal 0.0 -1.0 0.0
  outer loop
   vertex 12.112111025509273 25.060000000000002 0.54
   vertex 19.999 25.060000000000002 0.54
   vertex 19.999 25.060000000000002 0.6
  endloop
 endfacet
 facet normal 0.0 -1.0 0.0
  outer loop
   vertex 12.112111025509273 25.060000000000002 0.6
   vertex 12.112111025509273 25.060000000000002 0.54
   vertex 19.999 25.060000000000002 0.6
  endloop
 endfacet
 facet normal -0.8320502943378436 0.5547001962252294 0.0
  outer loop
   vertex 19.999 36.890333461736084 0.54
   vertex 12.112111025509273 25.060000000000002 0.54
   vertex 12.112111025509273 25.060000000000002 0.6
  endloop
 endfacet
 facet normal -0.8320502943378436 0.5547001962252294 0.0
  outer loop
   vertex 19.999 36.890333461736084 0.6
   vertex 19.999 36.890333461736084 0.54
   vertex 12.112111025509273 25.060000000000002 0.6
  endloop
 endfacet
 facet normal 1.0 0.0 0.0
  outer loop
   vertex 19.999 25.060000000000002 0.54
   vertex 19.999 36.890333461736084 0.54
   vertex 19.999 36.890333461736084 0.6
  endloop
 endfacet
 facet normal 1.0 -0.0 0.0
  outer loop
   vertex 19.999 25.060000000000002 0.6
   vertex 19.999 25.060000000000002 0.54
   vertex 19.999 36.890333461736084 0.6
  endloop
 endfacet
 facet normal 0.0 -0.0 1.0
  outer loop
   vertex 19.999 25.060000000000002 0.6
   vertex 19.999 36.890333461736084 0.6
   vertex 12.112111025509273 25.060000000000002 0.6
  endloop
 endfacet
 facet normal 0.0 0.0 -1.0
  outer loop
   vertex 19.999 25.060000000000002 0.96
   vertex 12.112111025509273 25.060000000000002 0.96
   vertex 19.999 36.890333461736084 0.96
  endloop
 endfacet
 facet normal 0.0 -1.0 0.0
  outer loop
   vertex 12.112111025509273 25.060000000000002 0.96
   vertex 19.999 25.060000000000002 0.96
   vertex 19.999 25.060000000000002 1.02
  endloop
 endfacet
 facet normal 0.0 -1.0 0.0
  outer loop
   vertex 12.112111025509273 25.060000000000002 1.02
   vertex 12.112111025509273 25.060000000000002 0.96
   vertex 19.999 25.060000000000002 1.02
  endloop
 endfacet
 facet normal -0.8320502943378435 0.5547001962252294 0.0
  outer loop
   vertex 19.999 36.890333461736084 0.96
   vertex 12.112111025509273 25.060000000000002 0.96
   vertex 12.112111025509273 25.060000000000002 1.02
  endloop
 endfacet
 facet normal -0.8320502943378435 0.5547001962252294 0.0
  outer loop
   vertex 19.999 36.890333461736084 1.02
   vertex 19.999 36.890333461736084 0.96
   vertex 12.112111025509273 25.060000000000002 1.02
  endloop
 endfacet
 facet normal 1.0 0.0 0.0
  outer loop
   vertex 19.999 25.060000000000002 0.96
   vertex 19.999 36.890333461736084 0.96
   vertex 19.999 36.890333461736084 1.02
  endloop
 endfacet
 facet normal 1.0 -0.0 0.0
  outer loop
   vertex 19.999 25.060000000000002 1.02
   vertex 19.999 25.060000000000002 0.96
   vertex 19.999 36.890333461736084 1.02
  endloop
 endfacet
 facet normal 0.0 -0.5594728550010621 0.8288486740756484
  outer loop
   vertex 12.112111025509273 25.060000000000002 1.02
   vertex 19.999 25.060000000000002 1.02
   vertex 19.999 25.860000000000003 1.56
  endloop
 endfacet
 facet normal 0.0 -0.5594728550010623 0.8288486740756484
  outer loop
   vertex 12.645444358842608 25.860000000000003 1.56
   vertex 12.112111025509273 25.060000000000002 1.02
   vertex 19.999 25.860000000000003 1.56
  endloop
 endfacet
 facet normal -0.8320502943378436 0.5547001962252293 1.850883278740552e-15
  outer loop
   vertex 19.999 36.890333461736084 1.02
   vertex 12.112111025509273 25.060000000000002 1.02
   vertex 12.645444358842608 25.860000000000003 1.56
  endloop
 endfacet
 facet normal -0.8320502943378435 0.5547001962252291 0.0
  outer loop
   vertex 19.999 36.890333461736084 1.56
   vertex 19.999 36.890333461736084 1.02
   vertex 12.645444358842608 25.860000000000003 1.56
  endloop
 endfacet
 facet normal 1.0 0.0 0.0
  outer loop
   vertex 19.999 25.060000000000002 1.02
   vertex 19.999 36.890333461736084 1.02
   vertex 19.999 36.890333461736084 1.56
  endloop
 endfacet
 facet normal 1.0 -0.0 0.0
  outer loop
   vertex 19.999 25.860000000000003 1.56
   vertex 19.999 25.060000000000002 1.02
   vertex 19.999 36.890333461736084 1.56
  endloop
 endfacet
 facet normal 0.0 -0.0 1.0
  outer loop
   vertex 19.999 25.860000000000003 1.56
   vertex 19.999 36.890333461736084 1.56
   vertex 12.645444358842608 25.860000000000003 1.56
  endloop
 endfacet
 facet normal 0.0 0.0 -1.0
  outer loop
   vertex 19.999 -6.999 0
   vertex 0.0009999999999957003 -6.998999999999999 0
   vertex 0.0009999999999987445 11.451112951550485 0
  endloop
 endfacet
 facet normal 0.0 0.0 -1.0
  outer loop
   vertex 19.999 -6.999 0
   vertex 0.0009999999999987445 11.451112951550485 0
   vertex 8.460258032299675 24.14 0
  endloop
 endfacet
 facet normal 0.0 0.0 -1.0
  outer loop
   vertex 19.999 -6.999 0
   vertex 8.460258032299675 24.14 0
   vertex 11.539741967700309 24.14 0
  endloop
 endfacet
 facet normal 0.0 0.0 -1.0
  outer loop
   vertex 19.999 -6.999 0
   vertex 11.539741967700309 24.14 0
   vertex 19.999 11.45111295155047 0
  endloop
 endfacet
 facet normal -4.4413362321238377e-17 -1.0 0.0
  outer loop
   vertex 0.0009999999999957003 -6.998999999999999 0
   vertex 19.999 -6.999 0
   vertex 19.999 -6.999 0.54
  endloop
 endfacet
 facet normal -4.4413362321238377e-17 -1.0 -0.0
  outer loop
   vertex 0.0009999999999957003 -6.998999999999999 0.54
   vertex 0.0009999999999957003 -6.998999999999999 0
   vertex 19.999 -6.999 0.54
  endloop
 endfacet
 facet normal -1.0 1.6499751887150228e-16 0.0
  outer loop
   vertex 0.0009999999999987445 11.451112951550485 0
   vertex 0.0009999999999957003 -6.998999999999999 0
   vertex 0.0009999999999957003 -6.998999999999999 0.54
  endloop
 endfacet
 facet normal -1.0 1.6500395307047884e-16 2.198364775382599e-19
  outer loop
   vertex 0.0009999999999989826 12.89333346173608 0.54
   vertex 0.0009999999999987445 11.451112951550485 0
   vertex 0.0009999999999957003 -6.998999999999999 0.54
  endloop
 endfacet
 facet normal -0.465509553677668 0.3103397024517786 -0.8288486740756481
  outer loop
   vertex 8.460258032299675 24.14 0
   vertex 0.0009999999999987445 11.451112951550485 0
   vertex 0.0009999999999989826 12.89333346173608 0.54
  endloop
 endfacet
 facet normal -0.4655095536776671 0.3103397024517779 -0.8288486740756488
  outer loop
   vertex 8.032111025509279 24.940000000000005 0.54
   vertex 8.460258032299675 24.14 0
   vertex 0.0009999999999989826 12.89333346173608 0.54
  endloop
 endfacet
 facet normal 0.0 0.5594728550010604 -0.8288486740756495
  outer loop
   vertex 11.539741967700309 24.14 0
   vertex 8.460258032299675 24.14 0
   vertex 8.032111025509279 24.940000000000005 0.54
  endloop
 endfacet
 facet normal 1.0100401448685633e-15 0.5594728550010636 -0.8288486740756474
  outer loop
   vertex 11.967888974490704 24.939999999999998 0.54
   vertex 11.539741967700309 24.14 0
   vertex 8.032111025509279 24.940000000000005 0.54
  endloop
 endfacet
 facet normal 0.46550955367766905 0.3103397024517795 -0.8288486740756471
  outer loop
   vertex 19.999 11.45111295155047 0
   vertex 11.539741967700309 24.14 0
   vertex 11.967888974490704 24.939999999999998 0.54
  endloop
 endfacet
 facet normal 0.4655095536776683 0.3103397024517791 -0.8288486740756476
  outer loop
   vertex 19.999 12.893333461736063 0.54
   vertex 19.999 11.45111295155047 0
   vertex 11.967888974490704 24.939999999999998 0.54
  endloop
 endfacet
 facet normal 1.0 0.0 0.0
  outer loop
   vertex 19.999 -6.999 0
   vertex 19.999 11.45111295155047 0
   vertex 19.999 12.893333461736063 0.54
  endloop
 endfacet
 facet normal 1.0 -0.0 0.0
  outer loop
   vertex 19.999 -6.999 0.54
   vertex 19.999 -6.999 0
   vertex 19.999 12.893333461736063 0.54
  endloop
 endfacet
 facet normal -4.441336232123837e-17 -1.0 0.0
  outer loop
   vertex 0.0009999999999957003 -6.998999999999999 0.54
   vertex 19.999 -6.999 0.54
   vertex 19.999 -6.999 0.6
  endloop
 endfacet
 facet normal -4.441336232123837e-17 -1.0 -0.0
  outer loop
   vertex 0.0009999999999957003 -6.998999999999999 0.6
   vertex 0.0009999999999957003 -6.998999999999999 0.54
   vertex 19.999 -6.999 0.6
  endloop
 endfacet
 facet normal -1.0 1.6500395307047886e-16 0.0
  outer loop
   vertex 0.0009999999999989826 12.89333346173608 0.54
   vertex 0.0009999999999957003 -6.998999999999999 0.54
   vertex 0.0009999999999957003 -6.998999999999999 0.6
  endloop
 endfacet
 facet normal -1.0 1.6500395307047886e-16 0.0
  outer loop
   vertex 0.0009999999999989826 12.89333346173608 0.6
   vertex 0.0009999999999989826 12.89333346173608 0.54
   vertex 0.0009999999999957003 -6.998999999999999 0.6
  endloop
 endfacet
 facet normal -0.8320502943378438 0.5547001962252289 0.0
  outer loop
   vertex 8.032111025509279 24.940000000000005 0.54
   vertex 0.0009999999999989826 12.89333346173608 0.54
   vertex 0.0009999999999989826 12.89333346173608 0.6
  endloop
 endfacet
 facet normal -0.8320502943378438 0.5547001962252289 0.0
  outer loop
   vertex 8.032111025509279 24.940000000000005 0.6
   vertex 8.032111025509279 24.940000000000005 0.54
   vertex 0.0009999999999989826 12.89333346173608 0.6
  endloop
 endfacet
 facet normal 1.8053425395708307e-15 1.0 0.0
  outer loop
   vertex 11.967888974490704 24.939999999999998 0.54
   vertex 8.032111025509279 24.940000000000005 0.54
   vertex 8.032111025509279 24.940000000000005 0.6
  endloop
 endfacet
 facet normal 1.8053425395708307e-15 1.0 0.0
  outer loop
   vertex 11.967888974490704 24.939999999999998 0.6
   vertex 11.967888974490704 24.939999999999998 0.54
   vertex 8.032111025509279 24.940000000000005 0.6
  endloop
 endfacet
 facet normal 0.8320502943378435 0.5547001962252294 0.0
  outer loop
   vertex 19.999 12.893333461736063 0.54
   vertex 11.967888974490704 24.939999999999998 0.54
   vertex 11.967888974490704 24.939999999999998 0.6
  endloop
 endfacet
 facet normal 0.8320502943378435 0.5547001962252294 0.0
  outer loop
   vertex 19.999 12.893333461736063 0.6
   vertex 19.999 12.893333461736063 0.54
   vertex 11.967888974490704 24.939999999999998 0.6
  endloop
 endfacet
 facet normal 1.0 0.0 0.0
  outer loop
   vertex 19.999 -6.999 0.54
   vertex 19.999 12.893333461736063 0.54
   vertex 19.999 12.893333461736063 0.6
  endloop
 endfacet
 facet normal 1.0 -0.0 0.0
  outer loop
   vertex 19.999 -6.999 0.6
   vertex 19.999 -6.999 0.54
   vertex 19.999 12.893333461736063 0.6
  endloop
 endfacet
 facet normal 0.0 0.0 1.0
  outer loop
   vertex 19.999 -6.999 0.6
   vertex 0.0009999999999989826 12.89333346173608 0.6
   vertex 0.0009999999999957003 -6.998999999999999 0.6
  endloop
 endfacet
 facet normal 0.0 0.0 1.0
  outer loop
   vertex 19.999 -6.999 0.6
   vertex 8.032111025509279 24.940000000000005 0.6
   vertex 0.0009999999999989826 12.89333346173608 0.6
  endloop
 endfacet
 facet normal 0.0 0.0 1.0
  outer loop
   vertex 19.999 -6.999 0.6
   vertex 11.967888974490704 24.939999999999998 0.6
   vertex 8.032111025509279 24.940000000000005 0.6
  endloop
 endfacet
 facet normal 0.0 -0.0 1.0
  outer loop
   vertex 19.999 -6.999 0.6
   vertex 19.999 12.893333461736063 0.6
   vertex 11.967888974490704 24.939999999999998 0.6
  endloop
 endfacet
 facet normal 0.0 0.0 -1.0
  outer loop
   vertex 19.999 -6.999 0.96
   vertex 0.0009999999999957003 -6.998999999999999 0.96
   vertex 0.0009999999999989826 12.89333346173608 0.96
  endloop
 endfacet
 facet normal 0.0 0.0 -1.0
  outer loop
   vertex 19.999 -6.999 0.96
   vertex 0.0009999999999989826 12.89333346173608 0.96
   vertex 8.032111025509279 24.940000000000005 0.96
  endloop
 endfacet
 facet normal 0.0 0.0 -1.0
  outer loop
   vertex 19.999 -6.999 0.96
   vertex 8.032111025509279 24.940000000000005 0.96
   vertex 11.967888974490704 24.939999999999998 0.96
  endloop
 endfacet
 facet normal 0.0 0.0 -1.0
  outer loop
   vertex 19.999 -6.999 0.96
   vertex 11.967888974490704 24.939999999999998 0.96
   vertex 19.999 12.893333461736063 0.96
  endloop
 endfacet
 facet normal -4.441336232123837e-17 -1.0 0.0
  outer loop
   vertex 0.0009999999999957003 -6.998999999999999 0.96
   vertex 19.999 -6.999 0.96
   vertex 19.999 -6.999 1.02
  endloop
 endfacet
 facet normal -4.441336232123837e-17 -1.0 -0.0
  outer loop
   vertex 0.0009999999999957003 -6.998999999999999 1.02
   vertex 0.0009999999999957003 -6.998999999999999 0.96
   vertex 19.999 -6.999 1.02
  endloop
 endfacet
 facet normal -1.0 1.6500395307047886e-16 0.0
  outer loop
   vertex 0.0009999999999989826 12.89333346173608 0.96
   vertex 0.0009999999999957003 -6.998999999999999 0.96
   vertex 0.0009999999999957003 -6.998999999999999 1.02
  endloop
 endfacet
 facet normal -1.0 1.6500395307047886e-16 0.0
  outer loop
   vertex 0.0009999999999989826 12.89333346173608 1.02
   vertex 0.0009999999999989826 12.89333346173608 0.96
   vertex 0.0009999999999957003 -6.998999999999999 1.02
  endloop
 endfacet
 facet normal -0.8320502943378438 0.5547001962252289 0.0
  outer loop
   vertex 8.032111025509279 24.940000000000005 0.96
   vertex 0.0009999999999989826 12.89333346173608 0.96
   vertex 0.0009999999999989826 12.89333346173608 1.02
  endloop
 endfacet
 facet normal -0.8320502943378438 0.5547001962252289 0.0
  outer loop
   vertex 8.032111025509279 24.940000000000005 1.02
   vertex 8.032111025509279 24.940000000000005 0.96
   vertex 0.0009999999999989826 12.89333346173608 1.02
  endloop
 endfacet
 facet normal 1.805342539570831e-15 1.0 0.0
  outer loop
   vertex 11.967888974490704 24.939999999999998 0.96
   vertex 8.032111025509279 24.940000000000005 0.96
   vertex 8.032111025509279 24.940000000000005 1.02
  endloop
 endfacet
 facet normal 1.805342539570831e-15 1.0 0.0
  outer loop
   vertex 11.967888974490704 24.939999999999998 1.02
   vertex 11.967888974490704 24.939999999999998 0.96
   vertex 8.032111025509279 24.940000000000005 1.02
  endloop
 endfacet
 facet normal 0.8320502943378435 0.5547001962252294 0.0
  outer loop
   vertex 19.999 12.893333461736063 0.96
   vertex 11.967888974490704 24.939999999999998 0.96
   vertex 11.967888974490704 24.939999999999998 1.02
  endloop
 endfacet
 facet normal 0.8320502943378435 0.5547001962252294 0.0
  outer loop
   vertex 19.999 12.893333461736063 1.02
   vertex 19.999 12.893333461736063 0.96
   vertex 11.967888974490704 24.939999999999998 1.02
  endloop
 endfacet
 facet normal 1.0 0.0 0.0
  outer loop
   vertex 19.999 -6.999 0.96
   vertex 19.999 12.893333461736063 0.96
   vertex 19.999 12.893333461736063 1.02
  endloop
 endfacet
 facet normal 1.0 -0.0 0.0
  outer loop
   vertex 19.999 -6.999 1.02
   vertex 19.999 -6.999 0.96
   vertex 19.999 12.893333461736063 1.02
  endloop
 endfacet
 facet normal -4.4413362321238377e-17 -1.0 0.0
  outer loop
   vertex 0.0009999999999957003 -6.998999999999999 1.02
   vertex 19.999 -6.999 1.02
   vertex 19.999 -6.999 1.56
  endloop
 endfacet
 facet normal -4.4413362321238377e-17 -1.0 -0.0
  outer loop
   vertex 0.0009999999999957003 -6.998999999999999 1.56
   vertex 0.0009999999999957003 -6.998999999999999 1.02
   vertex 19.999 -6.999 1.56
  endloop
 endfacet
 facet normal -1.0 1.6500395307047884e-16 0.0
  outer loop
   vertex 0.0009999999999989826 12.89333346173608 1.02
   vertex 0.0009999999999957003 -6.998999999999999 1.02
   vertex 0.0009999999999957003 -6.998999999999999 1.56
  endloop
 endfacet
 facet normal -1.0 1.6500395307047884e-16 0.0
  outer loop
   vertex 0.0009999999999989826 12.89333346173608 1.56
   vertex 0.0009999999999989826 12.89333346173608 1.02
   vertex 0.0009999999999957003 -6.998999999999999 1.56
  endloop
 endfacet
 facet normal -0.8320502943378438 0.5547001962252289 0.0
  outer loop
   vertex 8.032111025509279 24.940000000000005 1.02
   vertex 0.0009999999999989826 12.89333346173608 1.02
   vertex 0.0009999999999989826 12.89333346173608 1.56
  endloop
 endfacet
 facet normal -0.8320502943378438 0.5547001962252289 0.0
  outer loop
   vertex 8.032111025509279 24.940000000000005 1.56
   vertex 8.032111025509279 24.940000000000005 1.02
   vertex 0.0009999999999989826 12.89333346173608 1.56
  endloop
 endfacet
 facet normal 1.8053425395708307e-15 1.0 0.0
  outer loop
   vertex 11.967888974490704 24.939999999999998 1.02
   vertex 8.032111025509279 24.940000000000005 1.02
   vertex 8.032111025509279 24.940000000000005 1.56
  endloop
 endfacet
 facet normal 1.8053425395708307e-15 1.0 0.0
  outer loop
   vertex 11.967888974490704 24.939999999999998 1.56
   vertex 11.967888974490704 24.939999999999998 1.02
   vertex 8.032111025509279 24.940000000000005 1.56
  endloop
 endfacet
 facet normal 0.8320502943378435 0.5547001962252294 0.0
  outer loop
   vertex 19.999 12.893333461736063 1.02
   vertex 11.967888974490704 24.939999999999998 1.02
   vertex 11.967888974490704 24.939999999999998 1.56
  endloop
 endfacet
 facet normal 0.8320502943378435 0.5547001962252294 0.0
  outer loop
   vertex 19.999 12.893333461736063 1.56
   vertex 19.999 12.893333461736063 1.02
   vertex 11.967888974490704 24.939999999999998 1.56
  endloop
 endfacet
 facet normal 1.0 0.0 0.0
  outer loop
   vertex 19.999 -6.999 1.02
   vertex 19.999 12.893333461736063 1.02
   vertex 19.999 12.893333461736063 1.56
  endloop
 endfacet
 facet normal 1.0 -0.0 0.0
  outer loop
   vertex 19.999 -6.999 1.56
   vertex 19.999 -6.999 1.02
   vertex 19.999 12.893333461736063 1.56
  endloop
 endfacet
 facet normal 0.0 0.0 1.0
  outer loop
   vertex 19.999 -6.999 1.56
   vertex 0.0009999999999989826 12.89333346173608 1.56
   vertex 0.0009999999999957003 -6.998999999999999 1.56
  endloop
 endfacet
 facet normal 0.0 0.0 1.0
  outer loop
   vertex 19.999 -6.999 1.56
   vertex 8.032111025509279 24.940000000000005 1.56
   vertex 0.0009999999999989826 12.89333346173608 1.56
  endloop
 endfacet
 facet normal 0.0 0.0 1.0
  outer loop
   vertex 19.999 -6.999 1.56
   vertex 11.967888974490704 24.939999999999998 1.56
   vertex 8.032111025509279 24.940000000000005 1.56
  endloop
 endfacet
 facet normal 0.0 -0.0 1.0
  outer loop
   vertex 19.999 -6.999 1.56
   vertex 19.999 12.893333461736063 1.56
   vertex 11.967888974490704 24.939999999999998 1.56
  endloop
 endfacet
 facet normal 0.0 0.0 -1.0
  outer loop
   vertex 0.0009999999999991105 38.548887048449515 0
   vertex 0.0010000000000009999 64.999 0
   vertex 19.999 64.999 0
  endloop
 endfacet
 facet normal 0.0 0.0 -1.0
  outer loop
   vertex 0.0009999999999991105 38.548887048449515 0
   vertex 19.999 64.999 0
   vertex 19.999 38.548887048449515 0
  endloop
 endfacet
 facet normal 0.0 0.0 -1.0
  outer loop
   vertex 0.0009999999999991105 38.548887048449515 0
   vertex 19.999 38.548887048449515 0
   vertex 11.539741967700314 25.86 0
  endloop
 endfacet
 facet normal 0.0 0.0 -1.0
  outer loop
   vertex 0.0009999999999991105 38.548887048449515 0
   vertex 11.539741967700314 25.86 0
   vertex 8.460258032299675 25.86 0
  endloop
 endfacet
 facet normal -1.0 7.14299673968874e-17 3.4365991770988606e-20
  outer loop
   vertex 0.0010000000000009999 64.999 0
   vertex 0.0009999999999991105 38.548887048449515 0
   vertex 0.0009999999999990075 37.10666653826392 0.54
  endloop
 endfacet
 facet normal -1.0 7.142930206583571e-17 0.0
  outer loop
   vertex 0.0010000000000009999 64.999 0.54
   vertex 0.0010000000000009999 64.999 0
   vertex 0.0009999999999990075 37.10666653826392 0.54
  endloop
 endfacet
 facet normal 0.0 1.0 0.0
  outer loop
   vertex 19.999 64.999 0
   vertex 0.0010000000000009999 64.999 0
   vertex 0.0010000000000009999 64.999 0.54
  endloop
 endfacet
 facet normal 0.0 1.0 0.0
  outer loop
   vertex 19.999 64.999 0.54
   vertex 19.999 64.999 0
   vertex 0.0010000000000009999 64.999 0.54
  endloop
 endfacet
 facet normal 1.0 0.0 0.0
  outer loop
   vertex 19.999 38.548887048449515 0
   vertex 19.999 64.999 0
   vertex 19.999 64.999 0.54
  endloop
 endfacet
 facet normal 1.0 -0.0 0.0
  outer loop
   vertex 19.999 37.10666653826392 0.54
   vertex 19.999 38.548887048449515 0
   vertex 19.999 64.999 0.54
  endloop
 endfacet
 facet normal 0.4655095536776683 -0.31033970245177916 -0.8288486740756477
  outer loop
   vertex 11.539741967700314 25.86 0
   vertex 19.999 38.548887048449515 0
   vertex 19.999 37.10666653826392 0.54
  endloop
 endfacet
 facet normal 0.46550955367766716 -0.3103397024517782 -0.8288486740756487
  outer loop
   vertex 11.967888974490712 25.06 0.54
   vertex 11.539741967700314 25.86 0
   vertex 19.999 37.10666653826392 0.54
  endloop
 endfacet
 facet normal 0.0 -0.5594728550010621 -0.8288486740756483
  outer loop
   vertex 8.460258032299675 25.86 0
   vertex 11.539741967700314 25.86 0
   vertex 11.967888974490712 25.06 0.54
  endloop
 endfacet
 facet normal 0.0 -0.5594728550010623 -0.8288486740756484
  outer loop
   vertex 8.032111025509282 25.06 0.54
   vertex 8.460258032299675 25.86 0
   vertex 11.967888974490712 25.06 0.54
  endloop
 endfacet
 facet normal -0.4655095536776687 -0.3103397024517791 -0.8288486740756474
  outer loop
   vertex 0.0009999999999991105 38.548887048449515 0
   vertex 8.460258032299675 25.86 0
   vertex 8.032111025509282 25.06 0.54
  endloop
 endfacet
 facet normal -0.46550955367766855 -0.31033970245177905 -0.8288486740756477
  outer loop
   vertex 0.0009999999999990075 37.10666653826392 0.54
   vertex 0.0009999999999991105 38.548887048449515 0
   vertex 8.032111025509282 25.06 0.54
  endloop
 endfacet
 facet normal -1.0 7.142930206583572e-17 0.0
  outer loop
   vertex 0.0010000000000009999 64.999 0.54
   vertex 0.0009999999999990075 37.10666653826392 0.54
   vertex 0.0009999999999990075 37.10666653826392 0.6
  endloop
 endfacet
 facet normal -1.0 7.142930206583572e-17 0.0
  outer loop
   vertex 0.0010000000000009999 64.999 0.6
   vertex 0.0010000000000009999 64.999 0.54
   vertex 0.0009999999999990075 37.10666653826392 0.6
  endloop
 endfacet
 facet normal 0.0 1.0 0.0
  outer loop
   vertex 19.999 64.999 0.54
   vertex 0.0010000000000009999 64.999 0.54
   vertex 0.0010000000000009999 64.999 0.6
  endloop
 endfacet
 facet normal 0.0 1.0 0.0
  outer loop
   vertex 19.999 64.999 0.6
   vertex 19.999 64.999 0.54
   vertex 0.0010000000000009999 64.999 0.6
  endloop
 endfacet
 facet normal 1.0 0.0 0.0
  outer loop
   vertex 19.999 37.10666653826392 0.54
   vertex 19.999 64.999 0.54
   vertex 19.999 64.999 0.6
  endloop
 endfacet
 facet normal 1.0 -0.0 0.0
  outer loop
   vertex 19.999 37.10666653826392 0.6
   vertex 19.999 37.10666653826392 0.54
   vertex 19.999 64.999 0.6
  endloop
 endfacet
 facet normal 0.8320502943378436 -0.5547001962252293 0.0
  outer loop
   vertex 11.967888974490712 25.06 0.54
   vertex 19.999 37.10666653826392 0.54
   vertex 19.999 37.10666653826392 0.6
  endloop
 endfacet
 facet normal 0.8320502943378436 -0.5547001962252293 0.0
  outer loop
   vertex 11.967888974490712 25.06 0.6
   vertex 11.967888974490712 25.06 0.54
   vertex 19.999 37.10666653826392 0.6
  endloop
 endfacet
 facet normal 0.0 -1.0 0.0
  outer loop
   vertex 8.032111025509282 25.06 0.54
   vertex 11.967888974490712 25.06 0.54
   vertex 11.967888974490712 25.06 0.6
  endloop
 endfacet
 facet normal 0.0 -1.0 0.0
  outer loop
   vertex 8.032111025509282 25.06 0.6
   vertex 8.032111025509282 25.06 0.54
   vertex 11.967888974490712 25.06 0.6
  endloop
 endfacet
 facet normal -0.8320502943378437 -0.5547001962252291 0.0
  outer loop
   vertex 0.0009999999999990075 37.10666653826392 0.54
   vertex 8.032111025509282 25.06 0.54
   vertex 8.032111025509282 25.06 0.6
  endloop
 endfacet
 facet normal -0.8320502943378437 -0.5547001962252291 -0.0
  outer loop
   vertex 0.0009999999999990075 37.10666653826392 0.6
   vertex 0.0009999999999990075 37.10666653826392 0.54
   vertex 8.032111025509282 25.06 0.6
  endloop
 endfacet
 facet normal 0.0 0.0 1.0
  outer loop
   vertex 0.0009999999999990075 37.10666653826392 0.6
   vertex 19.999 64.999 0.6
   vertex 0.0010000000000009999 64.999 0.6
  endloop
 endfacet
 facet normal 0.0 0.0 1.0
  outer loop
   vertex 0.0009999999999990075 37.10666653826392 0.6
   vertex 19.999 37.10666653826392 0.6
   vertex 19.999 64.999 0.6
  endloop
 endfacet
 facet normal -0.0 0.0 1.0
  outer loop
   vertex 0.0009999999999990075 37.10666653826392 0.6
   vertex 11.967888974490712 25.06 0.6
   vertex 19.999 37.10666653826392 0.6
  endloop
 endfacet
 facet normal 0.0 0.0 1.0
  outer loop
   vertex 0.0009999999999990075 37.10666653826392 0.6
   vertex 8.032111025509282 25.06 0.6
   vertex 11.967888974490712 25.06 0.6
  endloop
 endfacet
 facet normal 0.0 0.0 -1.0
  outer loop
   vertex 0.0009999999999990075 37.10666653826392 0.96
   vertex 0.0010000000000009999 64.999 0.96
   vertex 19.999 64.999 0.96
  endloop
 endfacet
 facet normal 0.0 0.0 -1.0
  outer loop
   vertex 0.0009999999999990075 37.10666653826392 0.96
   vertex 19.999 64.999 0.96
   vertex 19.999 37.10666653826392 0.96
  endloop
 endfacet
 facet normal 0.0 0.0 -1.0
  outer loop
   vertex 0.0009999999999990075 37.10666653826392 0.96
   vertex 19.999 37.10666653826392 0.96
   vertex 11.967888974490712 25.06 0.96
  endloop
 endfacet
 facet normal 0.0 0.0 -1.0
  outer loop
   vertex 0.0009999999999990075 37.10666653826392 0.96
   vertex 11.967888974490712 25.06 0.96
   vertex 8.032111025509282 25.06 0.96
  endloop
 endfacet
 facet normal -1.0 7.142930206583572e-17 0.0
  outer loop
   vertex 0.0010000000000009999 64.999 0.96
   vertex 0.0009999999999990075 37.10666653826392 0.96
   vertex 0.0009999999999990075 37.10666653826392 1.02
  endloop
 endfacet
 facet normal -1.0 7.142930206583572e-17 0.0
  outer loop
   vertex 0.0010000000000009999 64.999 1.02
   vertex 0.0010000000000009999 64.999 0.96
   vertex 0.0009999999999990075 37.10666653826392 1.02
  endloop
 endfacet
 facet normal 0.0 1.0 0.0
  outer loop
   vertex 19.999 64.999 0.96
   vertex 0.0010000000000009999 64.999 0.96
   vertex 0.0010000000000009999 64.999 1.02
  endloop
 endfacet
 facet normal 0.0 1.0 0.0
  outer loop
   vertex 19.999 64.999 1.02
   vertex 19.999 64.999 0.96
   vertex 0.0010000000000009999 64.999 1.02
  endloop
 endfacet
 facet normal 1.0 0.0 0.0
  outer loop
   vertex 19.999 37.10666653826392 0.96
   vertex 19.999 64.999 0.96
   vertex 19.999 64.999 1.02
  endloop
 endfacet
 facet normal 1.0 -0.0 0.0
  outer loop
   vertex 19.999 37.10666653826392 1.02
   vertex 19.999 37.10666653826392 0.96
   vertex 19.999 64.999 1.02
  endloop
 endfacet
 facet normal 0.8320502943378436 -0.5547001962252293 0.0
  outer loop
   vertex 11.967888974490712 25.06 0.96
   vertex 19.999 37.10666653826392 0.96
   vertex 19.999 37.10666653826392 1.02
  endloop
 endfacet
 facet normal 0.8320502943378436 -0.5547001962252293 0.0
  outer loop
   vertex 11.967888974490712 25.06 1.02
   vertex 11.967888974490712 25.06 0.96
   vertex 19.999 37.10666653826392 1.02
  endloop
 endfacet
 facet normal 0.0 -1.0 0.0
  outer loop
   vertex 8.032111025509282 25.06 0.96
   vertex 11.967888974490712 25.06 0.96
   vertex 11.967888974490712 25.06 1.02
  endloop
 endfacet
 facet normal 0.0 -1.0 0.0
  outer loop
   vertex 8.032111025509282 25.06 1.02
   vertex 8.032111025509282 25.06 0.96
   vertex 11.967888974490712 25.06 1.02
  endloop
 endfacet
 facet normal -0.8320502943378437 -0.5547001962252291 0.0
  outer loop
   vertex 0.0009999999999990075 37.10666653826392 0.96
   vertex 8.032111025509282 25.06 0.96
   vertex 8.032111025509282 25.06 1.02
  endloop
 endfacet
 facet normal -0.8320502943378437 -0.5547001962252291 -0.0
  outer loop
   vertex 0.0009999999999990075 37.10666653826392 1.02
   vertex 0.0009999999999990075 37.10666653826392 0.96
   vertex 8.032111025509282 25.06 1.02
  endloop
 endfacet
 facet normal -1.0 7.142930206583571e-17 0.0
  outer loop
   vertex 0.0010000000000009999 64.999 1.02
   vertex 0.0009999999999990075 37.10666653826392 1.02
   vertex 0.0009999999999990075 37.10666653826392 1.56
  endloop
 endfacet
 facet normal -1.0 7.142930206583571e-17 0.0
  outer loop
   vertex 0.0010000000000009999 64.999 1.56
   vertex 0.0010000000000009999 64.999 1.02
   vertex 0.0009999999999990075 37.10666653826392 1.56
  endloop
 endfacet
 facet normal 0.0 1.0 0.0
  outer loop
   vertex 19.999 64.999 1.02
   vertex 0.0010000000000009999 64.999 1.02
   vertex 0.0010000000000009999 64.999 1.56
  endloop
 endfacet
 facet normal 0.0 1.0 0.0
  outer loop
   vertex 19.999 64.999 1.56
   vertex 19.999 64.999 1.02
   vertex 0.0010000000000009999 64.999 1.56
  endloop
 endfacet
 facet normal 1.0 0.0 0.0
  outer loop
   vertex 19.999 37.10666653826392 1.02
   vertex 19.999 64.999 1.02
   vertex 19.999 64.999 1.56
  endloop
 endfacet
 facet normal 1.0 -0.0 0.0
  outer loop
   vertex 19.999 37.10666653826392 1.56
   vertex 19.999 37.10666653826392 1.02
   vertex 19.999 64.999 1.56
  endloop
 endfacet
 facet normal 0.8320502943378436 -0.5547001962252293 0.0
  outer loop
   vertex 11.967888974490712 25.06 1.02
   vertex 19.999 37.10666653826392 1.02
   vertex 19.999 37.10666653826392 1.56
  endloop
 endfacet
 facet normal 0.8320502943378436 -0.5547001962252293 0.0
  outer loop
   vertex 11.967888974490712 25.06 1.56
   vertex 11.967888974490712 25.06 1.02
   vertex 19.999 37.10666653826392 1.56
  endloop
 endfacet
 facet normal 0.0 -1.0 0.0
  outer loop
   vertex 8.032111025509282 25.06 1.02
   vertex 11.967888974490712 25.06 1.02
   vertex 11.967888974490712 25.06 1.56
  endloop
 endfacet
 facet normal 0.0 -1.0 0.0
  outer loop
   vertex 8.032111025509282 25.06 1.56
   vertex 8.032111025509282 25.06 1.02
   vertex 11.967888974490712 25.06 1.56
  endloop
 endfacet
 facet normal -0.8320502943378437 -0.5547001962252291 0.0
  outer loop
   vertex 0.0009999999999990075 37.10666653826392 1.02
   vertex 8.032111025509282 25.06 1.02
   vertex 8.032111025509282 25.06 1.56
  endloop
 endfacet
 facet normal -0.8320502943378437 -0.5547001962252291 -0.0
  outer loop
   vertex 0.0009999999999990075 37.10666653826392 1.56
   vertex 0.0009999999999990075 37.10666653826392 1.02
   vertex 8.032111025509282 25.06 1.56
  endloop
 endfacet
 facet normal 0.0 0.0 1.0
  outer loop
   vertex 0.0009999999999990075 37.10666653826392 1.56
   vertex 19.999 64.999 1.56
   vertex 0.0010000000000009999 64.999 1.56
  endloop
 endfacet
 facet normal 0.0 0.0 1.0
  outer loop
   vertex 0.0009999999999990075 37.10666653826392 1.56
   vertex 19.999 37.10666653826392 1.56
   vertex 19.999 64.999 1.56
  endloop
 endfacet
 facet normal -0.0 0.0 1.0
  outer loop
   vertex 0.0009999999999990075 37.10666653826392 1.56
   vertex 11.967888974490712 25.06 1.56
   vertex 19.999 37.10666653826392 1.56
  endloop
 endfacet
 facet normal 0.0 0.0 1.0
  outer loop
   vertex 0.0009999999999990075 37.10666653826392 1.56
   vertex 8.032111025509282 25.06 1.56
   vertex 11.967888974490712 25.06 1.56
  endloop
 endfacet
endsolid
