solid PyGamic generated __All_Units__ SLA File
 facet normal 0.0 0.0 -1.0
  outer loop
   vertex 0.0009999999999983045 24.94 0
   vertex 5.724477597393147 24.939999999999998 0
   vertex 0.0009999999999988768 17.58124308906595 0
  endloop
 endfacet
 facet normal 6.207264059911133e-16 1.0 0.0
  outer loop
   vertex 5.724477597393147 24.939999999999998 0
   vertex 0.0009999999999983045 24.94 0
   vertex 0.0009999999999983045 24.94 0.54
  endloop
 endfacet
 facet normal 5.166590316250849e-16 1.0 -1.1030134922286842e-15
  outer loop
   vertex 6.87732163832672 24.939999999999998 0.54
   vertex 5.724477597393147 24.939999999999998 0
   vertex 0.0009999999999983045 24.94 0.54
  endloop
 endfacet
 facet normal 0.40282253111936805 -0.3133064130928418 -0.8599843602865598
  outer loop
   vertex 0.0009999999999988768 17.58124308906595 0
   vertex 5.724477597393147 24.939999999999998 0
   vertex 6.87732163832672 24.939999999999998 0.54
  endloop
 endfacet
 facet normal 0.40282253111936794 -0.31330641309284174 -0.8599843602865598
  outer loop
   vertex 0.0009999999999989921 16.09901503643707 0.54
   vertex 0.0009999999999988768 17.58124308906595 0
   vertex 6.87732163832672 24.939999999999998 0.54
  endloop
 endfacet
 facet normal -1.0 -7.776339313336745e-17 1.778303380969536e-19
  outer loop
   vertex 0.0009999999999983045 24.94 0
   vertex 0.0009999999999988768 17.58124308906595 0
   vertex 0.0009999999999989921 16.09901503643707 0.54
  endloop
 endfacet
 facet normal -1.0 -7.77742548623454e-17 -0.0
  outer loop
   vertex 0.0009999999999983045 24.94 0.54
   vertex 0.0009999999999983045 24.94 0
   vertex 0.0009999999999989921 16.09901503643707 0.54
  endloop
 endfacet
 facet normal 5.166590316250849e-16 1.0 0.0
  outer loop
   vertex 6.87732163832672 24.939999999999998 0.54
   vertex 0.0009999999999983045 24.94 0.54
   vertex 0.0009999999999983045 24.94 0.6
  endloop
 endfacet
 facet normal 5.166590316250849e-16 1.0 0.0
  outer loop
   vertex 6.87732163832672 24.939999999999998 0.6
   vertex 6.87732163832672 24.939999999999998 0.54
   vertex 0.0009999999999983045 24.94 0.6
  endloop
 endfacet
 facet normal 0.7893522173763263 -0.6139406135149205 0.0
  outer loop
   vertex 0.0009999999999989921 16.09901503643707 0.54
   vertex 6.87732163832672 24.939999999999998 0.54
   vertex 6.87732163832672 24.939999999999998 0.6
  endloop
 endfacet
 facet normal 0.7893522173763263 -0.6139406135149205 0.0
  outer loop
   vertex 0.0009999999999989921 16.09901503643707 0.6
   vertex 0.0009999999999989921 16.09901503643707 0.54
   vertex 6.87732163832672 24.939999999999998 0.6
  endloop
 endfacet
 facet normal -1.0 -7.77742548623454e-17 0.0
  outer loop
   vertex 0.0009999999999983045 24.94 0.54
   vertex 0.0009999999999989921 16.09901503643707 0.54
   vertex 0.0009999999999989921 16.09901503643707 0.6
  endloop
 endfacet
 facet normal -1.0 -7.77742548623454e-17 -0.0
  outer loop
   vertex 0.0009999999999983045 24.94 0.6
   vertex 0.0009999999999983045 24.94 0.54
   vertex 0.0009999999999989921 16.09901503643707 0.6
  endloop
 endfacet
 facet normal 0.0 0.0 1.0
  outer loop
   vertex 0.0009999999999983045 24.94 0.6
   vertex 0.0009999999999989921 16.09901503643707 0.6
   vertex 6.87732163832672 24.939999999999998 0.6
  endloop
 endfacet
 facet normal 0.0 0.0 -1.0
  outer loop
   vertex 0.0009999999999983045 24.94 0.96
   vertex 6.87732163832672 24.939999999999998 0.96
   vertex 0.0009999999999989921 16.09901503643707 0.96
  endloop
 endfacet
 facet normal 5.166590316250849e-16 1.0 0.0
  outer loop
   vertex 6.87732163832672 24.939999999999998 0.96
   vertex 0.0009999999999983045 24.94 0.96
   vertex 0.0009999999999983045 24.94 1.02
  endloop
 endfacet
 facet normal 5.166590316250849e-16 1.0 0.0
  outer loop
   vertex 6.87732163832672 24.939999999999998 1.02
   vertex 6.87732163832672 24.939999999999998 0.96
   vertex 0.0009999999999983045 24.94 1.02
  endloop
 endfacet
 facet normal 0.7893522173763262 -0.6139406135149205 0.0
  outer loop
   vertex 0.0009999999999989921 16.09901503643707 0.96
   vertex 6.87732163832672 24.939999999999998 0.96
   vertex 6.87732163832672 24.939999999999998 1.02
  endloop
 endfacet
 facet normal 0.7893522173763262 -0.6139406135149205 0.0
  outer loop
   vertex 0.0009999999999989921 16.09901503643707 1.02
   vertex 0.0009999999999989921 16.09901503643707 0.96
   vertex 6.87732163832672 24.939999999999998 1.02
  endloop
 endfacet
 facet normal -1.0 -7.77742548623454e-17 0.0
  outer loop
   vertex 0.0009999999999983045 24.94 0.96
   vertex 0.0009999999999989921 16.09901503643707 0.96
   vertex 0.0009999999999989921 16.09901503643707 1.02
  endloop
 endfacet
 facet normal -1.0 -7.77742548623454e-17 -0.0
  outer loop
   vertex 0.0009999999999983045 24.94 1.02
   vertex 0.0009999999999983045 24.94 0.96
   vertex 0.0009999999999989921 16.09901503643707 1.02
  endloop
 endfacet
 facet normal 3.653331048233715e-16 0.7071067811865458 0.7071067811865493
  outer loop
   vertex 6.87732163832672 24.939999999999998 1.02
   vertex 0.0009999999999983045 24.94 1.02
   vertex 0.0009999999999983466 24.4 1.56
  endloop
 endfacet
 facet normal 0.0 0.7071067811865481 0.7071067811865469
  outer loop
   vertex 6.457321638326718 24.4 1.56
   vertex 6.87732163832672 24.939999999999998 1.02
   vertex 0.0009999999999983466 24.4 1.56
  endloop
 endfacet
 facet normal 0.7893522173763262 -0.6139406135149204 3.5244218094881025e-15
  outer loop
   vertex 0.0009999999999989921 16.09901503643707 1.02
   vertex 6.87732163832672 24.939999999999998 1.02
   vertex 6.457321638326718 24.4 1.56
  endloop
 endfacet
 facet normal 0.7893522173763264 -0.6139406135149204 0.0
  outer loop
   vertex 0.0009999999999989921 16.09901503643707 1.56
   vertex 0.0009999999999989921 16.09901503643707 1.02
   vertex 6.457321638326718 24.4 1.56
  endloop
 endfacet
 facet normal -1.0 -7.77742548623454e-17 0.0
  outer loop
   vertex 0.0009999999999983045 24.94 1.02
   vertex 0.0009999999999989921 16.09901503643707 1.02
   vertex 0.0009999999999989921 16.09901503643707 1.56
  endloop
 endfacet
 facet normal -1.0 -7.776594902068042e-17 1.3598485420358621e-19
  outer loop
   vertex 0.0009999999999983466 24.4 1.56
   vertex 0.0009999999999983045 24.94 1.02
   vertex 0.0009999999999989921 16.09901503643707 1.56
  endloop
 endfacet
 facet normal -0.0 0.0 1.0
  outer loop
   vertex 0.0009999999999983466 24.4 1.56
   vertex 0.0009999999999989921 16.09901503643707 1.56
   vertex 6.457321638326718 24.4 1.56
  endloop
 endfacet
 facet normal 0.0 0.0 -1.0
  outer loop
   vertex 5.724477597393149 25.06 0
   vertex 0.0009999999999983045 25.06 0
   vertex 0.0009999999999988768 32.41875691093405 0
  endloop
 endfacet
 facet normal 0.0 -1.0 0.0
  outer loop
   vertex 0.0009999999999983045 25.06 0
   vertex 5.724477597393149 25.06 0
   vertex 6.877321638326726 25.06 0.54
  endloop
 endfacet
 facet normal 0.0 -1.0 0.0
  outer loop
   vertex 0.0009999999999983045 25.06 0.54
   vertex 0.0009999999999983045 25.06 0
   vertex 6.877321638326726 25.06 0.54
  endloop
 endfacet
 facet normal -1.0 7.776339313336745e-17 0.0
  outer loop
   vertex 0.0009999999999988768 32.41875691093405 0
   vertex 0.0009999999999983045 25.06 0
   vertex 0.0009999999999983045 25.06 0.54
  endloop
 endfacet
 facet normal -1.0 7.777425486234544e-17 1.4801633922495356e-19
  outer loop
   vertex 0.0009999999999989921 33.90098496356293 0.54
   vertex 0.0009999999999988768 32.41875691093405 0
   vertex 0.0009999999999983045 25.06 0.54
  endloop
 endfacet
 facet normal 0.40282253111936867 0.3133064130928423 -0.8599843602865592
  outer loop
   vertex 5.724477597393149 25.06 0
   vertex 0.0009999999999988768 32.41875691093405 0
   vertex 0.0009999999999989921 33.90098496356293 0.54
  endloop
 endfacet
 facet normal 0.40282253111936717 0.3133064130928414 -0.8599843602865603
  outer loop
   vertex 6.877321638326726 25.06 0.54
   vertex 5.724477597393149 25.06 0
   vertex 0.0009999999999989921 33.90098496356293 0.54
  endloop
 endfacet
 facet normal 0.0 -1.0 0.0
  outer loop
   vertex 0.0009999999999983045 25.06 0.54
   vertex 6.877321638326726 25.06 0.54
   vertex 6.877321638326726 25.06 0.6
  endloop
 endfacet
 facet normal 0.0 -1.0 0.0
  outer loop
   vertex 0.0009999999999983045 25.06 0.6
   vertex 0.0009999999999983045 25.06 0.54
   vertex 6.877321638326726 25.06 0.6
  endloop
 endfacet
 facet normal -1.0 7.777425486234543e-17 0.0
  outer loop
   vertex 0.0009999999999989921 33.90098496356293 0.54
   vertex 0.0009999999999983045 25.06 0.54
   vertex 0.0009999999999983045 25.06 0.6
  endloop
 endfacet
 facet normal -1.0 7.777425486234543e-17 0.0
  outer loop
   vertex 0.0009999999999989921 33.90098496356293 0.6
   vertex 0.0009999999999989921 33.90098496356293 0.54
   vertex 0.0009999999999983045 25.06 0.6
  endloop
 endfacet
 facet normal 0.7893522173763261 0.6139406135149208 0.0
  outer loop
   vertex 6.877321638326726 25.06 0.54
   vertex 0.0009999999999989921 33.90098496356293 0.54
   vertex 0.0009999999999989921 33.90098496356293 0.6
  endloop
 endfacet
 facet normal 0.7893522173763261 0.6139406135149208 0.0
  outer loop
   vertex 6.877321638326726 25.06 0.6
   vertex 6.877321638326726 25.06 0.54
   vertex 0.0009999999999989921 33.90098496356293 0.6
  endloop
 endfacet
 facet normal 0.0 0.0 1.0
  outer loop
   vertex 6.877321638326726 25.06 0.6
   vertex 0.0009999999999989921 33.90098496356293 0.6
   vertex 0.0009999999999983045 25.06 0.6
  endloop
 endfacet
 facet normal 0.0 0.0 -1.0
  outer loop
   vertex 6.877321638326726 25.06 0.96
   vertex 0.0009999999999983045 25.06 0.96
   vertex 0.0009999999999989921 33.90098496356293 0.96
  endloop
 endfacet
 facet normal 0.0 -1.0 0.0
  outer loop
   vertex 0.0009999999999983045 25.06 0.96
   vertex 6.877321638326726 25.06 0.96
   vertex 6.877321638326726 25.06 1.02
  endloop
 endfacet
 facet normal 0.0 -1.0 0.0
  outer loop
   vertex 0.0009999999999983045 25.06 1.02
   vertex 0.0009999999999983045 25.06 0.96
   vertex 6.877321638326726 25.06 1.02
  endloop
 endfacet
 facet normal -1.0 7.777425486234544e-17 0.0
  outer loop
   vertex 0.0009999999999989921 33.90098496356293 0.96
   vertex 0.0009999999999983045 25.06 0.96
   vertex 0.0009999999999983045 25.06 1.02
  endloop
 endfacet
 facet normal -1.0 7.777425486234544e-17 0.0
  outer loop
   vertex 0.0009999999999989921 33.90098496356293 1.02
   vertex 0.0009999999999989921 33.90098496356293 0.96
   vertex 0.0009999999999983045 25.06 1.02
  endloop
 endfacet
 facet normal 0.789352217376326 0.6139406135149208 0.0
  outer loop
   vertex 6.877321638326726 25.06 0.96
   vertex 0.0009999999999989921 33.90098496356293 0.96
   vertex 0.0009999999999989921 33.90098496356293 1.02
  endloop
 endfacet
 facet normal 0.789352217376326 0.6139406135149208 0.0
  outer loop
   vertex 6.877321638326726 25.06 1.02
   vertex 6.877321638326726 25.06 0.96
   vertex 0.0009999999999989921 33.90098496356293 1.02
  endloop
 endfacet
 facet normal 0.0 -0.7071067811865458 0.7071067811865492
  outer loop
   vertex 0.0009999999999983045 25.06 1.02
   vertex 6.877321638326726 25.06 1.02
   vertex 6.457321638326723 25.6 1.56
  endloop
 endfacet
 facet normal 3.890989443557387e-16 -0.7071067811865481 0.7071067811865469
  outer loop
   vertex 0.0009999999999983466 25.599999999999998 1.56
   vertex 0.0009999999999983045 25.06 1.02
   vertex 6.457321638326723 25.6 1.56
  endloop
 endfacet
 facet normal -1.0 7.777425486234544e-17 1.2767901253921297e-19
  outer loop
   vertex 0.0009999999999989921 33.90098496356293 1.02
   vertex 0.0009999999999983045 25.06 1.02
   vertex 0.0009999999999983466 25.599999999999998 1.56
  endloop
 endfacet
 facet normal -1.0 7.776594902068042e-17 0.0
  outer loop
   vertex 0.0009999999999989921 33.90098496356293 1.56
   vertex 0.0009999999999989921 33.90098496356293 1.02
   vertex 0.0009999999999983466 25.599999999999998 1.56
  endloop
 endfacet
 facet normal 0.789352217376326 0.6139406135149207 0.0
  outer loop
   vertex 6.877321638326726 25.06 1.02
   vertex 0.0009999999999989921 33.90098496356293 1.02
   vertex 0.0009999999999989921 33.90098496356293 1.56
  endloop
 endfacet
 facet normal 0.789352217376326 0.6139406135149208 2.346058958644004e-16
  outer loop
   vertex 6.457321638326723 25.6 1.56
   vertex 6.877321638326726 25.06 1.02
   vertex 0.0009999999999989921 33.90098496356293 1.56
  endloop
 endfacet
 facet normal 0.0 0.0 1.0
  outer loop
   vertex 6.457321638326723 25.6 1.56
   vertex 0.0009999999999989921 33.90098496356293 1.56
   vertex 0.0009999999999983466 25.599999999999998 1.56
  endloop
 endfacet
 facet normal -0.0 -0.0 -1.0
  outer loop
   vertex 19.999 24.940000000000005 0
   vertex 19.999 17.581243089065946 0
   vertex 14.275522402606835 24.940000000000005 0
  endloop
 endfacet
 facet normal 1.0 0.0 0.0
  outer loop
   vertex 19.999 17.581243089065946 0
   vertex 19.999 24.940000000000005 0
   vertex 19.999 24.940000000000005 0.54
  endloop
 endfacet
 facet normal 1.0 -0.0 0.0
  outer loop
   vertex 19.999 16.099015036437063 0.54
   vertex 19.999 17.581243089065946 0
   vertex 19.999 24.940000000000005 0.54
  endloop
 endfacet
 facet normal -0.40282253111936667 -0.31330641309284113 -0.8599843602865606
  outer loop
   vertex 14.275522402606835 24.940000000000005 0
   vertex 19.999 17.581243089065946 0
   vertex 19.999 16.099015036437063 0.54
  endloop
 endfacet
 facet normal -0.4028225311193667 -0.31330641309284113 -0.8599843602865606
  outer loop
   vertex 13.122678361673257 24.940000000000005 0.54
   vertex 14.275522402606835 24.940000000000005 0
   vertex 19.999 16.099015036437063 0.54
  endloop
 endfacet
 facet normal 0.0 1.0 0.0
  outer loop
   vertex 19.999 24.940000000000005 0
   vertex 14.275522402606835 24.940000000000005 0
   vertex 13.122678361673257 24.940000000000005 0.54
  endloop
 endfacet
 facet normal 0.0 1.0 0.0
  outer loop
   vertex 19.999 24.940000000000005 0.54
   vertex 19.999 24.940000000000005 0
   vertex 13.122678361673257 24.940000000000005 0.54
  endloop
 endfacet
 facet normal 1.0 0.0 0.0
  outer loop
   vertex 19.999 16.099015036437063 0.54
   vertex 19.999 24.940000000000005 0.54
   vertex 19.999 24.940000000000005 0.6
  endloop
 endfacet
 facet normal 1.0 -0.0 0.0
  outer loop
   vertex 19.999 16.099015036437063 0.6
   vertex 19.999 16.099015036437063 0.54
   vertex 19.999 24.940000000000005 0.6
  endloop
 endfacet
 facet normal -0.7893522173763258 -0.6139406135149209 0.0
  outer loop
   vertex 13.122678361673257 24.940000000000005 0.54
   vertex 19.999 16.099015036437063 0.54
   vertex 19.999 16.099015036437063 0.6
  endloop
 endfacet
 facet normal -0.7893522173763258 -0.6139406135149209 -0.0
  outer loop
   vertex 13.122678361673257 24.940000000000005 0.6
   vertex 13.122678361673257 24.940000000000005 0.54
   vertex 19.999 16.099015036437063 0.6
  endloop
 endfacet
 facet normal 0.0 1.0 0.0
  outer loop
   vertex 19.999 24.940000000000005 0.54
   vertex 13.122678361673257 24.940000000000005 0.54
   vertex 13.122678361673257 24.940000000000005 0.6
  endloop
 endfacet
 facet normal 0.0 1.0 0.0
  outer loop
   vertex 19.999 24.940000000000005 0.6
   vertex 19.999 24.940000000000005 0.54
   vertex 13.122678361673257 24.940000000000005 0.6
  endloop
 endfacet
 facet normal 0.0 0.0 1.0
  outer loop
   vertex 19.999 24.940000000000005 0.6
   vertex 13.122678361673257 24.940000000000005 0.6
   vertex 19.999 16.099015036437063 0.6
  endloop
 endfacet
 facet normal -0.0 -0.0 -1.0
  outer loop
   vertex 19.999 24.940000000000005 0.96
   vertex 19.999 16.099015036437063 0.96
   vertex 13.122678361673257 24.940000000000005 0.96
  endloop
 endfacet
 facet normal 1.0 0.0 0.0
  outer loop
   vertex 19.999 16.099015036437063 0.96
   vertex 19.999 24.940000000000005 0.96
   vertex 19.999 24.940000000000005 1.02
  endloop
 endfacet
 facet normal 1.0 -0.0 0.0
  outer loop
   vertex 19.999 16.099015036437063 1.02
   vertex 19.999 16.099015036437063 0.96
   vertex 19.999 24.940000000000005 1.02
  endloop
 endfacet
 facet normal -0.7893522173763259 -0.6139406135149209 0.0
  outer loop
   vertex 13.122678361673257 24.940000000000005 0.96
   vertex 19.999 16.099015036437063 0.96
   vertex 19.999 16.099015036437063 1.02
  endloop
 endfacet
 facet normal -0.7893522173763259 -0.6139406135149209 -0.0
  outer loop
   vertex 13.122678361673257 24.940000000000005 1.02
   vertex 13.122678361673257 24.940000000000005 0.96
   vertex 19.999 16.099015036437063 1.02
  endloop
 endfacet
 facet normal 0.0 1.0 0.0
  outer loop
   vertex 19.999 24.940000000000005 0.96
   vertex 13.122678361673257 24.940000000000005 0.96
   vertex 13.122678361673257 24.940000000000005 1.02
  endloop
 endfacet
 facet normal 0.0 1.0 0.0
  outer loop
   vertex 19.999 24.940000000000005 1.02
   vertex 19.999 24.940000000000005 0.96
   vertex 13.122678361673257 24.940000000000005 1.02
  endloop
 endfacet
 facet normal 1.0 0.0 0.0
  outer loop
   vertex 19.999 16.099015036437063 1.02
   vertex 19.999 24.940000000000005 1.02
   vertex 19.999 24.400000000000002 1.56
  endloop
 endfacet
 facet normal 1.0 -0.0 0.0
  outer loop
   vertex 19.999 16.099015036437063 1.56
   vertex 19.999 16.099015036437063 1.02
   vertex 19.999 24.400000000000002 1.56
  endloop
 endfacet
 facet normal -0.7893522173763259 -0.6139406135149209 0.0
  outer loop
   vertex 13.122678361673257 24.940000000000005 1.02
   vertex 19.999 16.099015036437063 1.02
   vertex 19.999 16.099015036437063 1.56
  endloop
 endfacet
 facet normal -0.7893522173763259 -0.6139406135149209 1.251231444610133e-15
  outer loop
   vertex 13.54267836167326 24.400000000000002 1.56
   vertex 13.122678361673257 24.940000000000005 1.02
   vertex 19.999 16.099015036437063 1.56
  endloop
 endfacet
 facet normal 0.0 0.7071067811865457 0.7071067811865492
  outer loop
   vertex 19.999 24.940000000000005 1.02
   vertex 13.122678361673257 24.940000000000005 1.02
   vertex 13.54267836167326 24.400000000000002 1.56
  endloop
 endfacet
 facet normal 0.0 0.7071067811865457 0.7071067811865492
  outer loop
   vertex 19.999 24.400000000000002 1.56
   vertex 19.999 24.940000000000005 1.02
   vertex 13.54267836167326 24.400000000000002 1.56
  endloop
 endfacet
 facet normal 0.0 0.0 1.0
  outer loop
   vertex 19.999 24.400000000000002 1.56
   vertex 13.54267836167326 24.400000000000002 1.56
   vertex 19.999 16.099015036437063 1.56
  endloop
 endfacet
 facet normal 0.0 0.0 -1.0
  outer loop
   vertex 19.999 25.060000000000002 0
   vertex 14.275522402606843 25.060000000000002 0
   vertex 19.999 32.41875691093405 0
  endloop
 endfacet
 facet normal 0.0 -1.0 0.0
  outer loop
   vertex 14.275522402606843 25.060000000000002 0
   vertex 19.999 25.060000000000002 0
   vertex 19.999 25.060000000000002 0.54
  endloop
 endfacet
 facet normal 0.0 -1.0 0.0
  outer loop
   vertex 13.122678361673268 25.060000000000002 0.54
   vertex 14.275522402606843 25.060000000000002 0
   vertex 19.999 25.060000000000002 0.54
  endloop
 endfacet
 facet normal -0.40282253111936744 0.3133064130928418 -0.8599843602865599
  outer loop
   vertex 19.999 32.41875691093405 0
   vertex 14.275522402606843 25.060000000000002 0
   vertex 13.122678361673268 25.060000000000002 0.54
  endloop
 endfacet
 facet normal -0.40282253111936694 0.31330641309284124 -0.8599843602865604
  outer loop
   vertex 19.999 33.900984963562934 0.54
   vertex 19.999 32.41875691093405 0
   vertex 13.122678361673268 25.060000000000002 0.54
  endloop
 endfacet
 facet normal 1.0 0.0 0.0
  outer loop
   vertex 19.999 25.060000000000002 0
   vertex 19.999 32.41875691093405 0
   vertex 19.999 33.900984963562934 0.54
  endloop
 endfacet
 facet normal 1.0 -0.0 0.0
  outer loop
   vertex 19.999 25.060000000000002 0.54
   vertex 19.999 25.060000000000002 0
   vertex 19.999 33.900984963562934 0.54
  endloop
 endfacet
 facet normal 0.0 -1.0 0.0
  outer loop
   vertex 13.122678361673268 25.060000000000002 0.54
   vertex 19.999 25.060000000000002 0.54
   vertex 19.999 25.060000000000002 0.6
  endloop
 endfacet
 facet normal 0.0 -1.0 0.0
  outer loop
   vertex 13.122678361673268 25.060000000000002 0.6
   vertex 13.122678361673268 25.060000000000002 0.54
   vertex 19.999 25.060000000000002 0.6
  endloop
 endfacet
 facet normal -0.789352217376326 0.6139406135149207 0.0
  outer loop
   vertex 19.999 33.900984963562934 0.54
   vertex 13.122678361673268 25.060000000000002 0.54
   vertex 13.122678361673268 25.060000000000002 0.6
  endloop
 endfacet
 facet normal -0.789352217376326 0.6139406135149207 0.0
  outer loop
   vertex 19.999 33.900984963562934 0.6
   vertex 19.999 33.900984963562934 0.54
   vertex 13.122678361673268 25.060000000000002 0.6
  endloop
 endfacet
 facet normal 1.0 0.0 0.0
  outer loop
   vertex 19.999 25.060000000000002 0.54
   vertex 19.999 33.900984963562934 0.54
   vertex 19.999 33.900984963562934 0.6
  endloop
 endfacet
 facet normal 1.0 -0.0 0.0
  outer loop
   vertex 19.999 25.060000000000002 0.6
   vertex 19.999 25.060000000000002 0.54
   vertex 19.999 33.900984963562934 0.6
  endloop
 endfacet
 facet normal 0.0 -0.0 1.0
  outer loop
   vertex 19.999 25.060000000000002 0.6
   vertex 19.999 33.900984963562934 0.6
   vertex 13.122678361673268 25.060000000000002 0.6
  endloop
 endfacet
 facet normal 0.0 0.0 -1.0
  outer loop
   vertex 19.999 25.060000000000002 0.96
   vertex 13.122678361673268 25.060000000000002 0.96
   vertex 19.999 33.900984963562934 0.96
  endloop
 endfacet
 facet normal 0.0 -1.0 0.0
  outer loop
   vertex 13.122678361673268 25.060000000000002 0.96
   vertex 19.999 25.060000000000002 0.96
   vertex 19.999 25.060000000000002 1.02
  endloop
 endfacet
 facet normal 0.0 -1.0 0.0
  outer loop
   vertex 13.122678361673268 25.060000000000002 1.02
   vertex 13.122678361673268 25.060000000000002 0.96
   vertex 19.999 25.060000000000002 1.02
  endloop
 endfacet
 facet normal -0.7893522173763261 0.6139406135149209 0.0
  outer loop
   vertex 19.999 33.900984963562934 0.96
   vertex 13.122678361673268 25.060000000000002 0.96
   vertex 13.122678361673268 25.060000000000002 1.02
  endloop
 endfacet
 facet normal -0.7893522173763261 0.6139406135149209 0.0
  outer loop
   vertex 19.999 33.900984963562934 1.02
   vertex 19.999 33.900984963562934 0.96
   vertex 13.122678361673268 25.060000000000002 1.02
  endloop
 endfacet
 facet normal 1.0 0.0 0.0
  outer loop
   vertex 19.999 25.060000000000002 0.96
   vertex 19.999 33.900984963562934 0.96
   vertex 19.999 33.900984963562934 1.02
  endloop
 endfacet
 facet normal 1.0 -0.0 0.0
  outer loop
   vertex 19.999 25.060000000000002 1.02
   vertex 19.999 25.060000000000002 0.96
   vertex 19.999 33.900984963562934 1.02
  endloop
 endfacet
 facet normal 0.0 -0.7071067811865457 0.7071067811865492
  outer loop
   vertex 13.122678361673268 25.060000000000002 1.02
   vertex 19.999 25.060000000000002 1.02
   vertex 19.999 25.600000000000005 1.56
  endloop
 endfacet
 facet normal 3.890989443557386e-16 -0.7071067811865482 0.7071067811865468
  outer loop
   vertex 13.542678361673271 25.6 1.56
   vertex 13.122678361673268 25.060000000000002 1.02
   vertex 19.999 25.600000000000005 1.56
  endloop
 endfacet
 facet normal -0.7893522173763261 0.6139406135149208 5.8740363491468345e-15
  outer loop
   vertex 19.999 33.900984963562934 1.02
   vertex 13.122678361673268 25.060000000000002 1.02
   vertex 13.542678361673271 25.6 1.56
  endloop
 endfacet
 facet normal -0.7893522173763261 0.6139406135149206 0.0
  outer loop
   vertex 19.999 33.900984963562934 1.56
   vertex 19.999 33.900984963562934 1.02
   vertex 13.542678361673271 25.6 1.56
  endloop
 endfacet
 facet normal 1.0 0.0 0.0
  outer loop
   vertex 19.999 25.060000000000002 1.02
   vertex 19.999 33.900984963562934 1.02
   vertex 19.999 33.900984963562934 1.56
  endloop
 endfacet
 facet normal 1.0 -0.0 0.0
  outer loop
   vertex 19.999 25.600000000000005 1.56
   vertex 19.999 25.060000000000002 1.02
   vertex 19.999 33.900984963562934 1.56
  endloop
 endfacet
 facet normal 0.0 -0.0 1.0
  outer loop
   vertex 19.999 25.600000000000005 1.56
   vertex 19.999 33.900984963562934 1.56
   vertex 13.542678361673271 25.6 1.56
  endloop
 endfacet
 facet normal 0.0 0.0 -1.0
  outer loop
   vertex 0.0010000000000009 62.999 0
   vertex 19.999 62.999 0
   vertex 19.999 53.8 0
  endloop
 endfacet
 facet normal 0.0 -0.0 -1.0
  outer loop
   vertex 0.0010000000000009 62.999 0
   vertex 19.999 53.8 0
   vertex 0.0010000000000007327 53.8 0
  endloop
 endfacet
 facet normal 0.0 1.0 0.0
  outer loop
   vertex 19.999 62.999 0
   vertex 0.0010000000000009 62.999 0
   vertex 0.0010000000000009 62.999 0.54
  endloop
 endfacet
 facet normal 0.0 1.0 0.0
  outer loop
   vertex 19.999 62.999 0.54
   vertex 19.999 62.999 0
   vertex 0.0010000000000009 62.999 0.54
  endloop
 endfacet
 facet normal 1.0 0.0 0.0
  outer loop
   vertex 19.999 53.8 0
   vertex 19.999 62.999 0
   vertex 19.999 62.999 0.54
  endloop
 endfacet
 facet normal 1.0 -0.0 0.0
  outer loop
   vertex 19.999 52.06 0.54
   vertex 19.999 53.8 0
   vertex 19.999 62.999 0.54
  endloop
 endfacet
 facet normal 0.0 -0.2963992148724537 -0.9550641368112369
  outer loop
   vertex 0.0010000000000007327 53.8 0
   vertex 19.999 53.8 0
   vertex 19.999 52.06 0.54
  endloop
 endfacet
 facet normal 0.0 -0.2963992148724537 -0.9550641368112369
  outer loop
   vertex 0.001000000000000701 52.06 0.54
   vertex 0.0010000000000007327 53.8 0
   vertex 19.999 52.06 0.54
  endloop
 endfacet
 facet normal -1.0 1.8174146646077256e-17 -6.608939333784627e-20
  outer loop
   vertex 0.0010000000000009 62.999 0
   vertex 0.0010000000000007327 53.8 0
   vertex 0.001000000000000701 52.06 0.54
  endloop
 endfacet
 facet normal -1.0 1.8177409126413885e-17 0.0
  outer loop
   vertex 0.0010000000000009 62.999 0.54
   vertex 0.0010000000000009 62.999 0
   vertex 0.001000000000000701 52.06 0.54
  endloop
 endfacet
 facet normal 0.0 1.0 0.0
  outer loop
   vertex 19.999 62.999 0.54
   vertex 0.0010000000000009 62.999 0.54
   vertex 0.0010000000000009 62.999 0.6
  endloop
 endfacet
 facet normal 0.0 1.0 0.0
  outer loop
   vertex 19.999 62.999 0.6
   vertex 19.999 62.999 0.54
   vertex 0.0010000000000009 62.999 0.6
  endloop
 endfacet
 facet normal 1.0 0.0 0.0
  outer loop
   vertex 19.999 52.06 0.54
   vertex 19.999 62.999 0.54
   vertex 19.999 62.999 0.6
  endloop
 endfacet
 facet normal 1.0 -0.0 0.0
  outer loop
   vertex 19.999 52.06 0.6
   vertex 19.999 52.06 0.54
   vertex 19.999 62.999 0.6
  endloop
 endfacet
 facet normal 0.0 -1.0 0.0
  outer loop
   vertex 0.001000000000000701 52.06 0.54
   vertex 19.999 52.06 0.54
   vertex 19.999 52.06 0.6
  endloop
 endfacet
 facet normal 0.0 -1.0 0.0
  outer loop
   vertex 0.001000000000000701 52.06 0.6
   vertex 0.001000000000000701 52.06 0.54
   vertex 19.999 52.06 0.6
  endloop
 endfacet
 facet normal -1.0 1.8177409126413888e-17 0.0
  outer loop
   vertex 0.0010000000000009 62.999 0.54
   vertex 0.001000000000000701 52.06 0.54
   vertex 0.001000000000000701 52.06 0.6
  endloop
 endfacet
 facet normal -1.0 1.8177409126413888e-17 0.0
  outer loop
   vertex 0.0010000000000009 62.999 0.6
   vertex 0.0010000000000009 62.999 0.54
   vertex 0.001000000000000701 52.06 0.6
  endloop
 endfacet
 facet normal -0.0 0.0 1.0
  outer loop
   vertex 0.0010000000000009 62.999 0.6
   vertex 19.999 52.06 0.6
   vertex 19.999 62.999 0.6
  endloop
 endfacet
 facet normal 0.0 0.0 1.0
  outer loop
   vertex 0.0010000000000009 62.999 0.6
   vertex 0.001000000000000701 52.06 0.6
   vertex 19.999 52.06 0.6
  endloop
 endfacet
 facet normal 0.0 0.0 -1.0
  outer loop
   vertex 0.0010000000000009 62.999 0.96
   vertex 19.999 62.999 0.96
   vertex 19.999 52.06 0.96
  endloop
 endfacet
 facet normal 0.0 -0.0 -1.0
  outer loop
   vertex 0.0010000000000009 62.999 0.96
   vertex 19.999 52.06 0.96
   vertex 0.001000000000000701 52.06 0.96
  endloop
 endfacet
 facet normal 0.0 1.0 0.0
  outer loop
   vertex 19.999 62.999 0.96
   vertex 0.0010000000000009 62.999 0.96
   vertex 0.0010000000000009 62.999 1.02
  endloop
 endfacet
 facet normal 0.0 1.0 0.0
  outer loop
   vertex 19.999 62.999 1.02
   vertex 19.999 62.999 0.96
   vertex 0.0010000000000009 62.999 1.02
  endloop
 endfacet
 facet normal 1.0 0.0 0.0
  outer loop
   vertex 19.999 52.06 0.96
   vertex 19.999 62.999 0.96
   vertex 19.999 62.999 1.02
  endloop
 endfacet
 facet normal 1.0 -0.0 0.0
  outer loop
   vertex 19.999 52.06 1.02
   vertex 19.999 52.06 0.96
   vertex 19.999 62.999 1.02
  endloop
 endfacet
 facet normal 0.0 -1.0 0.0
  outer loop
   vertex 0.001000000000000701 52.06 0.96
   vertex 19.999 52.06 0.96
   vertex 19.999 52.06 1.02
  endloop
 endfacet
 facet normal 0.0 -1.0 0.0
  outer loop
   vertex 0.001000000000000701 52.06 1.02
   vertex 0.001000000000000701 52.06 0.96
   vertex 19.999 52.06 1.02
  endloop
 endfacet
 facet normal -1.0 1.8177409126413885e-17 0.0
  outer loop
   vertex 0.0010000000000009 62.999 0.96
   vertex 0.001000000000000701 52.06 0.96
   vertex 0.001000000000000701 52.06 1.02
  endloop
 endfacet
 facet normal -1.0 1.8177409126413885e-17 0.0
  outer loop
   vertex 0.0010000000000009 62.999 1.02
   vertex 0.0010000000000009 62.999 0.96
   vertex 0.001000000000000701 52.06 1.02
  endloop
 endfacet
 facet normal 0.0 1.0 0.0
  outer loop
   vertex 19.999 62.999 1.02
   vertex 0.0010000000000009 62.999 1.02
   vertex 0.0010000000000009 62.999 1.56
  endloop
 endfacet
 facet normal 0.0 1.0 0.0
  outer loop
   vertex 19.999 62.999 1.56
   vertex 19.999 62.999 1.02
   vertex 0.0010000000000009 62.999 1.56
  endloop
 endfacet
 facet normal 1.0 0.0 0.0
  outer loop
   vertex 19.999 52.06 1.02
   vertex 19.999 62.999 1.02
   vertex 19.999 62.999 1.56
  endloop
 endfacet
 facet normal 1.0 -0.0 0.0
  outer loop
   vertex 19.999 52.06 1.56
   vertex 19.999 52.06 1.02
   vertex 19.999 62.999 1.56
  endloop
 endfacet
 facet normal 0.0 -1.0 0.0
  outer loop
   vertex 0.001000000000000701 52.06 1.02
   vertex 19.999 52.06 1.02
   vertex 19.999 52.06 1.56
  endloop
 endfacet
 facet normal 0.0 -1.0 0.0
  outer loop
   vertex 0.001000000000000701 52.06 1.56
   vertex 0.001000000000000701 52.06 1.02
   vertex 19.999 52.06 1.56
  endloop
 endfacet
 facet normal -1.0 1.8177409126413885e-17 0.0
  outer loop
   vertex 0.0010000000000009 62.999 1.02
   vertex 0.001000000000000701 52.06 1.02
   vertex 0.001000000000000701 52.06 1.56
  endloop
 endfacet
 facet normal -1.0 1.8177409126413885e-17 0.0
  outer loop
   vertex 0.0010000000000009 62.999 1.56
   vertex 0.0010000000000009 62.999 1.02
   vertex 0.001000000000000701 52.06 1.56
  endloop
 endfacet
 facet normal -0.0 0.0 1.0
  outer loop
   vertex 0.0010000000000009 62.999 1.56
   vertex 19.999 52.06 1.56
   vertex 19.999 62.999 1.56
  endloop
 endfacet
 facet normal 0.0 0.0 1.0
  outer loop
   vertex 0.0010000000000009 62.999 1.56
   vertex 0.001000000000000701 52.06 1.56
   vertex 19.999 52.06 1.56
  endloop
 endfacet
 facet normal 0.0 0.0 -1.0
  outer loop
   vertex 19.999 -3.999 0
   vertex 0.000999999999999 -3.999 0
   vertex 0.000999999999999 1.2 0
  endloop
 endfacet
 facet normal 0.0 0.0 -1.0
  outer loop
   vertex 19.999 -3.999 0
   vertex 0.000999999999999 1.2 0
   vertex 19.999 1.200000000000003 0
  endloop
 endfacet
 facet normal 0.0 -1.0 0.0
  outer loop
   vertex 0.000999999999999 -3.999 0
   vertex 19.999 -3.999 0
   vertex 19.999 -3.999 0.54
  endloop
 endfacet
 facet normal 0.0 -1.0 0.0
  outer loop
   vertex 0.000999999999999 -3.999 0.54
   vertex 0.000999999999999 -3.999 0
   vertex 19.999 -3.999 0.54
  endloop
 endfacet
 facet normal -1.0 0.0 0.0
  outer loop
   vertex 0.000999999999999 1.2 0
   vertex 0.000999999999999 -3.999 0
   vertex 0.000999999999999 -3.999 0.54
  endloop
 endfacet
 facet normal -1.0 -0.0 0.0
  outer loop
   vertex 0.000999999999999 2.94 0.54
   vertex 0.000999999999999 1.2 0
   vertex 0.000999999999999 -3.999 0.54
  endloop
 endfacet
 facet normal -4.607430002651295e-17 0.29639921487245297 -0.9550641368112373
  outer loop
   vertex 19.999 1.200000000000003 0
   vertex 0.000999999999999 1.2 0
   vertex 0.000999999999999 2.94 0.54
  endloop
 endfacet
 facet normal -4.607430002651295e-17 0.29639921487245297 -0.9550641368112373
  outer loop
   vertex 19.999 2.940000000000003 0.54
   vertex 19.999 1.200000000000003 0
   vertex 0.000999999999999 2.94 0.54
  endloop
 endfacet
 facet normal 1.0 0.0 0.0
  outer loop
   vertex 19.999 -3.999 0
   vertex 19.999 1.200000000000003 0
   vertex 19.999 2.940000000000003 0.54
  endloop
 endfacet
 facet normal 1.0 -0.0 0.0
  outer loop
   vertex 19.999 -3.999 0.54
   vertex 19.999 -3.999 0
   vertex 19.999 2.940000000000003 0.54
  endloop
 endfacet
 facet normal 0.0 -1.0 0.0
  outer loop
   vertex 0.000999999999999 -3.999 0.54
   vertex 19.999 -3.999 0.54
   vertex 19.999 -3.999 0.6
  endloop
 endfacet
 facet normal 0.0 -1.0 0.0
  outer loop
   vertex 0.000999999999999 -3.999 0.6
   vertex 0.000999999999999 -3.999 0.54
   vertex 19.999 -3.999 0.6
  endloop
 endfacet
 facet normal -1.0 0.0 0.0
  outer loop
   vertex 0.000999999999999 2.94 0.54
   vertex 0.000999999999999 -3.999 0.54
   vertex 0.000999999999999 -3.999 0.6
  endloop
 endfacet
 facet normal -1.0 -0.0 -0.0
  outer loop
   vertex 0.000999999999999 2.94 0.6
   vertex 0.000999999999999 2.94 0.54
   vertex 0.000999999999999 -3.999 0.6
  endloop
 endfacet
 facet normal -1.5544676812433433e-16 1.0 0.0
  outer loop
   vertex 19.999 2.940000000000003 0.54
   vertex 0.000999999999999 2.94 0.54
   vertex 0.000999999999999 2.94 0.6
  endloop
 endfacet
 facet normal -1.5544676812433433e-16 1.0 0.0
  outer loop
   vertex 19.999 2.940000000000003 0.6
   vertex 19.999 2.940000000000003 0.54
   vertex 0.000999999999999 2.94 0.6
  endloop
 endfacet
 facet normal 1.0 0.0 0.0
  outer loop
   vertex 19.999 -3.999 0.54
   vertex 19.999 2.940000000000003 0.54
   vertex 19.999 2.940000000000003 0.6
  endloop
 endfacet
 facet normal 1.0 -0.0 0.0
  outer loop
   vertex 19.999 -3.999 0.6
   vertex 19.999 -3.999 0.54
   vertex 19.999 2.940000000000003 0.6
  endloop
 endfacet
 facet normal 0.0 0.0 1.0
  outer loop
   vertex 19.999 -3.999 0.6
   vertex 0.000999999999999 2.94 0.6
   vertex 0.000999999999999 -3.999 0.6
  endloop
 endfacet
 facet normal 0.0 -0.0 1.0
  outer loop
   vertex 19.999 -3.999 0.6
   vertex 19.999 2.940000000000003 0.6
   vertex 0.000999999999999 2.94 0.6
  endloop
 endfacet
 facet normal 0.0 0.0 -1.0
  outer loop
   vertex 19.999 -3.999 0.96
   vertex 0.000999999999999 -3.999 0.96
   vertex 0.000999999999999 2.94 0.96
  endloop
 endfacet
 facet normal 0.0 0.0 -1.0
  outer loop
   vertex 19.999 -3.999 0.96
   vertex 0.000999999999999 2.94 0.96
   vertex 19.999 2.940000000000003 0.96
  endloop
 endfacet
 facet normal 0.0 -1.0 0.0
  outer loop
   vertex 0.000999999999999 -3.999 0.96
   vertex 19.999 -3.999 0.96
   vertex 19.999 -3.999 1.02
  endloop
 endfacet
 facet normal 0.0 -1.0 0.0
  outer loop
   vertex 0.000999999999999 -3.999 1.02
   vertex 0.000999999999999 -3.999 0.96
   vertex 19.999 -3.999 1.02
  endloop
 endfacet
 facet normal -1.0 0.0 0.0
  outer loop
   vertex 0.000999999999999 2.94 0.96
   vertex 0.000999999999999 -3.999 0.96
   vertex 0.000999999999999 -3.999 1.02
  endloop
 endfacet
 facet normal -1.0 -0.0 -0.0
  outer loop
   vertex 0.000999999999999 2.94 1.02
   vertex 0.000999999999999 2.94 0.96
   vertex 0.000999999999999 -3.999 1.02
  endloop
 endfacet
 facet normal -1.5544676812433433e-16 1.0 0.0
  outer loop
   vertex 19.999 2.940000000000003 0.96
   vertex 0.000999999999999 2.94 0.96
   vertex 0.000999999999999 2.94 1.02
  endloop
 endfacet
 facet normal -1.5544676812433433e-16 1.0 0.0
  outer loop
   vertex 19.999 2.940000000000003 1.02
   vertex 19.999 2.940000000000003 0.96
   vertex 0.000999999999999 2.94 1.02
  endloop
 endfacet
 facet normal 1.0 0.0 0.0
  outer loop
   vertex 19.999 -3.999 0.96
   vertex 19.999 2.940000000000003 0.96
   vertex 19.999 2.940000000000003 1.02
  endloop
 endfacet
 facet normal 1.0 -0.0 0.0
  outer loop
   vertex 19.999 -3.999 1.02
   vertex 19.999 -3.999 0.96
   vertex 19.999 2.940000000000003 1.02
  endloop
 endfacet
 facet normal 0.0 -1.0 0.0
  outer loop
   vertex 0.000999999999999 -3.999 1.02
   vertex 19.999 -3.999 1.02
   vertex 19.999 -3.999 1.56
  endloop
 endfacet
 facet normal 0.0 -1.0 0.0
  outer loop
   vertex 0.000999999999999 -3.999 1.56
   vertex 0.000999999999999 -3.999 1.02
   vertex 19.999 -3.999 1.56
  endloop
 endfacet
 facet normal -1.0 0.0 0.0
  outer loop
   vertex 0.000999999999999 2.94 1.02
   vertex 0.000999999999999 -3.999 1.02
   vertex 0.000999999999999 -3.999 1.56
  endloop
 endfacet
 facet normal -1.0 -0.0 -0.0
  outer loop
   vertex 0.000999999999999 2.94 1.56
   vertex 0.000999999999999 2.94 1.02
   vertex 0.000999999999999 -3.999 1.56
  endloop
 endfacet
 facet normal -1.5544676812433436e-16 1.0 0.0
  outer loop
   vertex 19.999 2.940000000000003 1.02
   vertex 0.000999999999999 2.94 1.02
   vertex 0.000999999999999 2.94 1.56
  endloop
 endfacet
 facet normal -1.5544676812433436e-16 1.0 0.0
  outer loop
   vertex 19.999 2.940000000000003 1.56
   vertex 19.999 2.940000000000003 1.02
   vertex 0.000999999999999 2.94 1.56
  endloop
 endfacet
 facet normal 1.0 0.0 0.0
  outer loop
   vertex 19.999 -3.999 1.02
   vertex 19.999 2.940000000000003 1.02
   vertex 19.999 2.940000000000003 1.56
  endloop
 endfacet
 facet normal 1.0 -0.0 0.0
  outer loop
   vertex 19.999 -3.999 1.56
   vertex 19.999 -3.999 1.02
   vertex 19.999 2.940000000000003 1.56
  endloop
 endfacet
 facet normal 0.0 0.0 1.0
  outer loop
   vertex 19.999 -3.999 1.56
   vertex 0.000999999999999 2.94 1.56
   vertex 0.000999999999999 -3.999 1.56
  endloop
 endfacet
 facet normal 0.0 -0.0 1.0
  outer loop
   vertex 19.999 -3.999 1.56
   vertex 19.999 2.940000000000003 1.56
   vertex 0.000999999999999 2.94 1.56
  endloop
 endfacet
 facet normal 0.0 0.0 -1.0
  outer loop
   vertex 19.999 45.06 0
   vertex 0.0009999999999990147 45.06 0
   vertex 0.001000000000000263 50.2 0
  endloop
 endfacet
 facet normal 0.0 0.0 -1.0
  outer loop
   vertex 19.999 45.06 0
   vertex 0.001000000000000263 50.2 0
   vertex 19.999 50.2 0
  endloop
 endfacet
 facet normal 0.0 -1.0 0.0
  outer loop
   vertex 0.0009999999999990147 45.06 0
   vertex 19.999 45.06 0
   vertex 19.999 45.06 0.54
  endloop
 endfacet
 facet normal 0.0 -1.0 0.0
  outer loop
   vertex 0.0009999999999990147 45.06 0.54
   vertex 0.0009999999999990147 45.06 0
   vertex 19.999 45.06 0.54
  endloop
 endfacet
 facet normal -1.0 2.428697240077451e-16 0.0
  outer loop
   vertex 0.001000000000000263 50.2 0
   vertex 0.0009999999999990147 45.06 0
   vertex 0.0009999999999990147 45.06 0.54
  endloop
 endfacet
 facet normal -1.0 2.428423761337447e-16 -2.603112451148176e-19
  outer loop
   vertex 0.0010000000000006855 51.94 0.54
   vertex 0.001000000000000263 50.2 0
   vertex 0.0009999999999990147 45.06 0.54
  endloop
 endfacet
 facet normal 0.0 0.2963992148724537 -0.9550641368112369
  outer loop
   vertex 19.999 50.2 0
   vertex 0.001000000000000263 50.2 0
   vertex 0.0010000000000006855 51.94 0.54
  endloop
 endfacet
 facet normal 0.0 0.2963992148724537 -0.9550641368112369
  outer loop
   vertex 19.999 51.94 0.54
   vertex 19.999 50.2 0
   vertex 0.0010000000000006855 51.94 0.54
  endloop
 endfacet
 facet normal 1.0 0.0 0.0
  outer loop
   vertex 19.999 45.06 0
   vertex 19.999 50.2 0
   vertex 19.999 51.94 0.54
  endloop
 endfacet
 facet normal 1.0 -0.0 0.0
  outer loop
   vertex 19.999 45.06 0.54
   vertex 19.999 45.06 0
   vertex 19.999 51.94 0.54
  endloop
 endfacet
 facet normal 0.0 -1.0 0.0
  outer loop
   vertex 0.0009999999999990147 45.06 0.54
   vertex 19.999 45.06 0.54
   vertex 19.999 45.06 0.6
  endloop
 endfacet
 facet normal 0.0 -1.0 0.0
  outer loop
   vertex 0.0009999999999990147 45.06 0.6
   vertex 0.0009999999999990147 45.06 0.54
   vertex 19.999 45.06 0.6
  endloop
 endfacet
 facet normal -1.0 2.4284237613374467e-16 0.0
  outer loop
   vertex 0.0010000000000006855 51.94 0.54
   vertex 0.0009999999999990147 45.06 0.54
   vertex 0.0009999999999990147 45.06 0.6
  endloop
 endfacet
 facet normal -1.0 2.4284237613374467e-16 0.0
  outer loop
   vertex 0.0010000000000006855 51.94 0.6
   vertex 0.0010000000000006855 51.94 0.54
   vertex 0.0009999999999990147 45.06 0.6
  endloop
 endfacet
 facet normal 0.0 1.0 0.0
  outer loop
   vertex 19.999 51.94 0.54
   vertex 0.0010000000000006855 51.94 0.54
   vertex 0.0010000000000006855 51.94 0.6
  endloop
 endfacet
 facet normal 0.0 1.0 0.0
  outer loop
   vertex 19.999 51.94 0.6
   vertex 19.999 51.94 0.54
   vertex 0.0010000000000006855 51.94 0.6
  endloop
 endfacet
 facet normal 1.0 0.0 0.0
  outer loop
   vertex 19.999 45.06 0.54
   vertex 19.999 51.94 0.54
   vertex 19.999 51.94 0.6
  endloop
 endfacet
 facet normal 1.0 -0.0 0.0
  outer loop
   vertex 19.999 45.06 0.6
   vertex 19.999 45.06 0.54
   vertex 19.999 51.94 0.6
  endloop
 endfacet
 facet normal 0.0 0.0 1.0
  outer loop
   vertex 19.999 45.06 0.6
   vertex 0.0010000000000006855 51.94 0.6
   vertex 0.0009999999999990147 45.06 0.6
  endloop
 endfacet
 facet normal 0.0 -0.0 1.0
  outer loop
   vertex 19.999 45.06 0.6
   vertex 19.999 51.94 0.6
   vertex 0.0010000000000006855 51.94 0.6
  endloop
 endfacet
 facet normal 0.0 0.0 -1.0
  outer loop
   vertex 19.999 45.06 0.96
   vertex 0.0009999999999990147 45.06 0.96
   vertex 0.0010000000000006855 51.94 0.96
  endloop
 endfacet
 facet normal 0.0 0.0 -1.0
  outer loop
   vertex 19.999 45.06 0.96
   vertex 0.0010000000000006855 51.94 0.96
   vertex 19.999 51.94 0.96
  endloop
 endfacet
 facet normal 0.0 -1.0 0.0
  outer loop
   vertex 0.0009999999999990147 45.06 0.96
   vertex 19.999 45.06 0.96
   vertex 19.999 45.06 1.02
  endloop
 endfacet
 facet normal 0.0 -1.0 0.0
  outer loop
   vertex 0.0009999999999990147 45.06 1.02
   vertex 0.0009999999999990147 45.06 0.96
   vertex 19.999 45.06 1.02
  endloop
 endfacet
 facet normal -1.0 2.4284237613374467e-16 0.0
  outer loop
   vertex 0.0010000000000006855 51.94 0.96
   vertex 0.0009999999999990147 45.06 0.96
   vertex 0.0009999999999990147 45.06 1.02
  endloop
 endfacet
 facet normal -1.0 2.4284237613374467e-16 0.0
  outer loop
   vertex 0.0010000000000006855 51.94 1.02
   vertex 0.0010000000000006855 51.94 0.96
   vertex 0.0009999999999990147 45.06 1.02
  endloop
 endfacet
 facet normal 0.0 1.0 0.0
  outer loop
   vertex 19.999 51.94 0.96
   vertex 0.0010000000000006855 51.94 0.96
   vertex 0.0010000000000006855 51.94 1.02
  endloop
 endfacet
 facet normal 0.0 1.0 0.0
  outer loop
   vertex 19.999 51.94 1.02
   vertex 19.999 51.94 0.96
   vertex 0.0010000000000006855 51.94 1.02
  endloop
 endfacet
 facet normal 1.0 0.0 0.0
  outer loop
   vertex 19.999 45.06 0.96
   vertex 19.999 51.94 0.96
   vertex 19.999 51.94 1.02
  endloop
 endfacet
 facet normal 1.0 -0.0 0.0
  outer loop
   vertex 19.999 45.06 1.02
   vertex 19.999 45.06 0.96
   vertex 19.999 51.94 1.02
  endloop
 endfacet
 facet normal 0.0 -0.2963992148724537 0.9550641368112369
  outer loop
   vertex 0.0009999999999990147 45.06 1.02
   vertex 19.999 45.06 1.02
   vertex 19.999 46.8 1.56
  endloop
 endfacet
 facet normal -1.053126857748866e-16 -0.2963992148724526 0.9550641368112373
  outer loop
   vertex 0.000999999999999437 46.800000000000004 1.56
   vertex 0.0009999999999990147 45.06 1.02
   vertex 19.999 46.8 1.56
  endloop
 endfacet
 facet normal -1.0 2.428423761337447e-16 -2.6031124511821496e-19
  outer loop
   vertex 0.0010000000000006855 51.94 1.02
   vertex 0.0009999999999990147 45.06 1.02
   vertex 0.000999999999999437 46.800000000000004 1.56
  endloop
 endfacet
 facet normal -1.0 2.428697240077454e-16 0.0
  outer loop
   vertex 0.0010000000000006855 51.94 1.56
   vertex 0.0010000000000006855 51.94 1.02
   vertex 0.000999999999999437 46.800000000000004 1.56
  endloop
 endfacet
 facet normal 0.0 1.0 0.0
  outer loop
   vertex 19.999 51.94 1.02
   vertex 0.0010000000000006855 51.94 1.02
   vertex 0.0010000000000006855 51.94 1.56
  endloop
 endfacet
 facet normal 0.0 1.0 0.0
  outer loop
   vertex 19.999 51.94 1.56
   vertex 19.999 51.94 1.02
   vertex 0.0010000000000006855 51.94 1.56
  endloop
 endfacet
 facet normal 1.0 0.0 0.0
  outer loop
   vertex 19.999 45.06 1.02
   vertex 19.999 51.94 1.02
   vertex 19.999 51.94 1.56
  endloop
 endfacet
 facet normal 1.0 -0.0 0.0
  outer loop
   vertex 19.999 46.8 1.56
   vertex 19.999 45.06 1.02
   vertex 19.999 51.94 1.56
  endloop
 endfacet
 facet normal 0.0 0.0 1.0
  outer loop
   vertex 19.999 46.8 1.56
   vertex 0.0010000000000006855 51.94 1.56
   vertex 0.000999999999999437 46.800000000000004 1.56
  endloop
 endfacet
 facet normal 0.0 -0.0 1.0
  outer loop
   vertex 19.999 46.8 1.56
   vertex 19.999 51.94 1.56
   vertex 0.0010000000000006855 51.94 1.56
  endloop
 endfacet
 facet normal 0.0 0.0 -1.0
  outer loop
   vertex 0.000999999999999 7.94 0
   vertex 19.999 7.940000000000004 0
   vertex 19.999 4.8000000000000025 0
  endloop
 endfacet
 facet normal 0.0 0.0 -1.0
  outer loop
   vertex 0.000999999999999 7.94 0
   vertex 19.999 4.8000000000000025 0
   vertex 0.000999999999999 4.8 0
  endloop
 endfacet
 facet normal -1.7765344928495353e-16 1.0 0.0
  outer loop
   vertex 19.999 7.940000000000004 0
   vertex 0.000999999999999 7.94 0
   vertex 0.000999999999999 7.94 0.54
  endloop
 endfacet
 facet normal -1.7765344928495353e-16 1.0 0.0
  outer loop
   vertex 19.999 7.940000000000004 0.54
   vertex 19.999 7.940000000000004 0
   vertex 0.000999999999999 7.94 0.54
  endloop
 endfacet
 facet normal 1.0 0.0 0.0
  outer loop
   vertex 19.999 4.8000000000000025 0
   vertex 19.999 7.940000000000004 0
   vertex 19.999 7.940000000000004 0.54
  endloop
 endfacet
 facet normal 1.0 -0.0 0.0
  outer loop
   vertex 19.999 3.060000000000003 0.54
   vertex 19.999 4.8000000000000025 0
   vertex 19.999 7.940000000000004 0.54
  endloop
 endfacet
 facet normal 3.949225716558253e-17 -0.296399214872453 -0.955064136811237
  outer loop
   vertex 0.000999999999999 4.8 0
   vertex 19.999 4.8000000000000025 0
   vertex 19.999 3.060000000000003 0.54
  endloop
 endfacet
 facet normal 4.6074300026512954e-17 -0.296399214872453 -0.9550641368112373
  outer loop
   vertex 0.000999999999999 3.06 0.54
   vertex 0.000999999999999 4.8 0
   vertex 19.999 3.060000000000003 0.54
  endloop
 endfacet
 facet normal -1.0 0.0 0.0
  outer loop
   vertex 0.000999999999999 7.94 0
   vertex 0.000999999999999 4.8 0
   vertex 0.000999999999999 3.06 0.54
  endloop
 endfacet
 facet normal -1.0 -0.0 -0.0
  outer loop
   vertex 0.000999999999999 7.94 0.54
   vertex 0.000999999999999 7.94 0
   vertex 0.000999999999999 3.06 0.54
  endloop
 endfacet
 facet normal -1.7765344928495353e-16 1.0 0.0
  outer loop
   vertex 19.999 7.940000000000004 0.54
   vertex 0.000999999999999 7.94 0.54
   vertex 0.000999999999999 7.94 0.6
  endloop
 endfacet
 facet normal -1.7765344928495353e-16 1.0 0.0
  outer loop
   vertex 19.999 7.940000000000004 0.6
   vertex 19.999 7.940000000000004 0.54
   vertex 0.000999999999999 7.94 0.6
  endloop
 endfacet
 facet normal 1.0 0.0 0.0
  outer loop
   vertex 19.999 3.060000000000003 0.54
   vertex 19.999 7.940000000000004 0.54
   vertex 19.999 7.940000000000004 0.6
  endloop
 endfacet
 facet normal 1.0 -0.0 0.0
  outer loop
   vertex 19.999 3.060000000000003 0.6
   vertex 19.999 3.060000000000003 0.54
   vertex 19.999 7.940000000000004 0.6
  endloop
 endfacet
 facet normal 1.5544676812433433e-16 -1.0 0.0
  outer loop
   vertex 0.000999999999999 3.06 0.54
   vertex 19.999 3.060000000000003 0.54
   vertex 19.999 3.060000000000003 0.6
  endloop
 endfacet
 facet normal 1.5544676812433433e-16 -1.0 0.0
  outer loop
   vertex 0.000999999999999 3.06 0.6
   vertex 0.000999999999999 3.06 0.54
   vertex 19.999 3.060000000000003 0.6
  endloop
 endfacet
 facet normal -1.0 0.0 0.0
  outer loop
   vertex 0.000999999999999 7.94 0.54
   vertex 0.000999999999999 3.06 0.54
   vertex 0.000999999999999 3.06 0.6
  endloop
 endfacet
 facet normal -1.0 -0.0 -0.0
  outer loop
   vertex 0.000999999999999 7.94 0.6
   vertex 0.000999999999999 7.94 0.54
   vertex 0.000999999999999 3.06 0.6
  endloop
 endfacet
 facet normal -0.0 0.0 1.0
  outer loop
   vertex 0.000999999999999 7.94 0.6
   vertex 19.999 3.060000000000003 0.6
   vertex 19.999 7.940000000000004 0.6
  endloop
 endfacet
 facet normal 0.0 0.0 1.0
  outer loop
   vertex 0.000999999999999 7.94 0.6
   vertex 0.000999999999999 3.06 0.6
   vertex 19.999 3.060000000000003 0.6
  endloop
 endfacet
 facet normal 0.0 0.0 -1.0
  outer loop
   vertex 0.000999999999999 7.94 0.96
   vertex 19.999 7.940000000000004 0.96
   vertex 19.999 3.060000000000003 0.96
  endloop
 endfacet
 facet normal 0.0 0.0 -1.0
  outer loop
   vertex 0.000999999999999 7.94 0.96
   vertex 19.999 3.060000000000003 0.96
   vertex 0.000999999999999 3.06 0.96
  endloop
 endfacet
 facet normal -1.7765344928495353e-16 1.0 0.0
  outer loop
   vertex 19.999 7.940000000000004 0.96
   vertex 0.000999999999999 7.94 0.96
   vertex 0.000999999999999 7.94 1.02
  endloop
 endfacet
 facet normal -1.7765344928495353e-16 1.0 0.0
  outer loop
   vertex 19.999 7.940000000000004 1.02
   vertex 19.999 7.940000000000004 0.96
   vertex 0.000999999999999 7.94 1.02
  endloop
 endfacet
 facet normal 1.0 0.0 0.0
  outer loop
   vertex 19.999 3.060000000000003 0.96
   vertex 19.999 7.940000000000004 0.96
   vertex 19.999 7.940000000000004 1.02
  endloop
 endfacet
 facet normal 1.0 -0.0 0.0
  outer loop
   vertex 19.999 3.060000000000003 1.02
   vertex 19.999 3.060000000000003 0.96
   vertex 19.999 7.940000000000004 1.02
  endloop
 endfacet
 facet normal 1.5544676812433433e-16 -1.0 0.0
  outer loop
   vertex 0.000999999999999 3.06 0.96
   vertex 19.999 3.060000000000003 0.96
   vertex 19.999 3.060000000000003 1.02
  endloop
 endfacet
 facet normal 1.5544676812433433e-16 -1.0 0.0
  outer loop
   vertex 0.000999999999999 3.06 1.02
   vertex 0.000999999999999 3.06 0.96
   vertex 19.999 3.060000000000003 1.02
  endloop
 endfacet
 facet normal -1.0 0.0 0.0
  outer loop
   vertex 0.000999999999999 7.94 0.96
   vertex 0.000999999999999 3.06 0.96
   vertex 0.000999999999999 3.06 1.02
  endloop
 endfacet
 facet normal -1.0 -0.0 -0.0
  outer loop
   vertex 0.000999999999999 7.94 1.02
   vertex 0.000999999999999 7.94 0.96
   vertex 0.000999999999999 3.06 1.02
  endloop
 endfacet
 facet normal -5.2656342887443346e-17 0.29639921487245285 0.955064136811237
  outer loop
   vertex 19.999 7.940000000000004 1.02
   vertex 0.000999999999999 7.94 1.02
   vertex 0.000999999999999 6.2 1.56
  endloop
 endfacet
 facet normal -5.2656342887443346e-17 0.29639921487245285 0.955064136811237
  outer loop
   vertex 19.999 6.200000000000004 1.56
   vertex 19.999 7.940000000000004 1.02
   vertex 0.000999999999999 6.2 1.56
  endloop
 endfacet
 facet normal 1.0 0.0 0.0
  outer loop
   vertex 19.999 3.060000000000003 1.02
   vertex 19.999 7.940000000000004 1.02
   vertex 19.999 6.200000000000004 1.56
  endloop
 endfacet
 facet normal 1.0 -0.0 0.0
  outer loop
   vertex 19.999 3.060000000000003 1.56
   vertex 19.999 3.060000000000003 1.02
   vertex 19.999 6.200000000000004 1.56
  endloop
 endfacet
 facet normal 1.5544676812433436e-16 -1.0 0.0
  outer loop
   vertex 0.000999999999999 3.06 1.02
   vertex 19.999 3.060000000000003 1.02
   vertex 19.999 3.060000000000003 1.56
  endloop
 endfacet
 facet normal 1.5544676812433436e-16 -1.0 0.0
  outer loop
   vertex 0.000999999999999 3.06 1.56
   vertex 0.000999999999999 3.06 1.02
   vertex 19.999 3.060000000000003 1.56
  endloop
 endfacet
 facet normal -1.0 0.0 0.0
  outer loop
   vertex 0.000999999999999 7.94 1.02
   vertex 0.000999999999999 3.06 1.02
   vertex 0.000999999999999 3.06 1.56
  endloop
 endfacet
 facet normal -1.0 -0.0 -0.0
  outer loop
   vertex 0.000999999999999 6.2 1.56
   vertex 0.000999999999999 7.94 1.02
   vertex 0.000999999999999 3.06 1.56
  endloop
 endfacet
 facet normal -0.0 0.0 1.0
  outer loop
   vertex 0.000999999999999 6.2 1.56
   vertex 19.999 3.060000000000003 1.56
   vertex 19.999 6.200000000000004 1.56
  endloop
 endfacet
 facet normal 0.0 0.0 1.0
  outer loop
   vertex 0.000999999999999 6.2 1.56
   vertex 0.000999999999999 3.06 1.56
   vertex 19.999 3.060000000000003 1.56
  endloop
 endfacet
 facet normal 0.0 0.0 -1.0
  outer loop
   vertex 12.706549716600565 25.599999999999998 0
   vertex 7.293450283399427 25.599999999999998 0
   vertex 0.000999999999999 34.976007507227834 0
  endloop
 endfacet
 facet normal 0.0 0.0 -1.0
  outer loop
   vertex 12.706549716600565 25.599999999999998 0
   vertex 0.000999999999999 34.976007507227834 0
   vertex 0.000999999999999 44.94 0
  endloop
 endfacet
 facet normal 0.0 0.0 -1.0
  outer loop
   vertex 12.706549716600565 25.599999999999998 0
   vertex 0.000999999999999 44.94 0
   vertex 19.999 44.94 0
  endloop
 endfacet
 facet normal 0.0 0.0 -1.0
  outer loop
   vertex 12.706549716600565 25.599999999999998 0
   vertex 19.999 44.94 0
   vertex 19.999 34.976007507227834 0
  endloop
 endfacet
 facet normal 0.0 -0.7071067811865481 -0.7071067811865469
  outer loop
   vertex 7.293450283399427 25.599999999999998 0
   vertex 12.706549716600565 25.599999999999998 0
   vertex 12.970654971660045 25.06 0.54
  endloop
 endfacet
 facet normal 8.456545636769781e-16 -0.7071067811865437 -0.7071067811865513
  outer loop
   vertex 7.029345028339942 25.05999999999999 0.54
   vertex 7.293450283399427 25.599999999999998 0
   vertex 12.970654971660045 25.06 0.54
  endloop
 endfacet
 facet normal -0.5581563056514353 -0.4341215710622274 -0.7071067811865511
  outer loop
   vertex 0.000999999999999 34.976007507227834 0
   vertex 7.293450283399427 25.599999999999998 0
   vertex 7.029345028339942 25.05999999999999 0.54
  endloop
 endfacet
 facet normal -0.5581563056514369 -0.43412157106222854 -0.707106781186549
  outer loop
   vertex 0.000999999999999 34.09644360786564 0.54
   vertex 0.000999999999999 34.976007507227834 0
   vertex 7.029345028339942 25.05999999999999 0.54
  endloop
 endfacet
 facet normal -1.0 0.0 0.0
  outer loop
   vertex 0.000999999999999 44.94 0
   vertex 0.000999999999999 34.976007507227834 0
   vertex 0.000999999999999 34.09644360786564 0.54
  endloop
 endfacet
 facet normal -1.0 -0.0 -0.0
  outer loop
   vertex 0.000999999999999 44.94 0.54
   vertex 0.000999999999999 44.94 0
   vertex 0.000999999999999 34.09644360786564 0.54
  endloop
 endfacet
 facet normal 0.0 1.0 0.0
  outer loop
   vertex 19.999 44.94 0
   vertex 0.000999999999999 44.94 0
   vertex 0.000999999999999 44.94 0.54
  endloop
 endfacet
 facet normal 0.0 1.0 0.0
  outer loop
   vertex 19.999 44.94 0.54
   vertex 19.999 44.94 0
   vertex 0.000999999999999 44.94 0.54
  endloop
 endfacet
 facet normal 1.0 0.0 0.0
  outer loop
   vertex 19.999 34.976007507227834 0
   vertex 19.999 44.94 0
   vertex 19.999 44.94 0.54
  endloop
 endfacet
 facet normal 1.0 -0.0 0.0
  outer loop
   vertex 19.999 34.09644360786564 0.54
   vertex 19.999 34.976007507227834 0
   vertex 19.999 44.94 0.54
  endloop
 endfacet
 facet normal 0.5581563056514367 -0.4341215710622289 -0.707106781186549
  outer loop
   vertex 12.706549716600565 25.599999999999998 0
   vertex 19.999 34.976007507227834 0
   vertex 19.999 34.09644360786564 0.54
  endloop
 endfacet
 facet normal 0.5581563056514389 -0.4341215710622311 -0.7071067811865458
  outer loop
   vertex 12.970654971660045 25.06 0.54
   vertex 12.706549716600565 25.599999999999998 0
   vertex 19.999 34.09644360786564 0.54
  endloop
 endfacet
 facet normal 1.1959361530346913e-15 -1.0 0.0
  outer loop
   vertex 7.029345028339942 25.05999999999999 0.54
   vertex 12.970654971660045 25.06 0.54
   vertex 12.970654971660045 25.06 0.6
  endloop
 endfacet
 facet normal 1.1959361530346913e-15 -1.0 0.0
  outer loop
   vertex 7.029345028339942 25.05999999999999 0.6
   vertex 7.029345028339942 25.05999999999999 0.54
   vertex 12.970654971660045 25.06 0.6
  endloop
 endfacet
 facet normal -0.7893522173763264 -0.6139406135149202 0.0
  outer loop
   vertex 0.000999999999999 34.09644360786564 0.54
   vertex 7.029345028339942 25.05999999999999 0.54
   vertex 7.029345028339942 25.05999999999999 0.6
  endloop
 endfacet
 facet normal -0.7893522173763264 -0.6139406135149202 -0.0
  outer loop
   vertex 0.000999999999999 34.09644360786564 0.6
   vertex 0.000999999999999 34.09644360786564 0.54
   vertex 7.029345028339942 25.05999999999999 0.6
  endloop
 endfacet
 facet normal -1.0 0.0 0.0
  outer loop
   vertex 0.000999999999999 44.94 0.54
   vertex 0.000999999999999 34.09644360786564 0.54
   vertex 0.000999999999999 34.09644360786564 0.6
  endloop
 endfacet
 facet normal -1.0 -0.0 -0.0
  outer loop
   vertex 0.000999999999999 44.94 0.6
   vertex 0.000999999999999 44.94 0.54
   vertex 0.000999999999999 34.09644360786564 0.6
  endloop
 endfacet
 facet normal 0.0 1.0 0.0
  outer loop
   vertex 19.999 44.94 0.54
   vertex 0.000999999999999 44.94 0.54
   vertex 0.000999999999999 44.94 0.6
  endloop
 endfacet
 facet normal 0.0 1.0 0.0
  outer loop
   vertex 19.999 44.94 0.6
   vertex 19.999 44.94 0.54
   vertex 0.000999999999999 44.94 0.6
  endloop
 endfacet
 facet normal 1.0 0.0 0.0
  outer loop
   vertex 19.999 34.09644360786564 0.54
   vertex 19.999 44.94 0.54
   vertex 19.999 44.94 0.6
  endloop
 endfacet
 facet normal 1.0 -0.0 0.0
  outer loop
   vertex 19.999 34.09644360786564 0.6
   vertex 19.999 34.09644360786564 0.54
   vertex 19.999 44.94 0.6
  endloop
 endfacet
 facet normal 0.7893522173763257 -0.6139406135149211 0.0
  outer loop
   vertex 12.970654971660045 25.06 0.54
   vertex 19.999 34.09644360786564 0.54
   vertex 19.999 34.09644360786564 0.6
  endloop
 endfacet
 facet normal 0.7893522173763257 -0.6139406135149211 0.0
  outer loop
   vertex 12.970654971660045 25.06 0.6
   vertex 12.970654971660045 25.06 0.54
   vertex 19.999 34.09644360786564 0.6
  endloop
 endfacet
 facet normal 0.0 0.0 1.0
  outer loop
   vertex 12.970654971660045 25.06 0.6
   vertex 0.000999999999999 34.09644360786564 0.6
   vertex 7.029345028339942 25.05999999999999 0.6
  endloop
 endfacet
 facet normal 0.0 0.0 1.0
  outer loop
   vertex 12.970654971660045 25.06 0.6
   vertex 0.000999999999999 44.94 0.6
   vertex 0.000999999999999 34.09644360786564 0.6
  endloop
 endfacet
 facet normal 0.0 -0.0 1.0
  outer loop
   vertex 12.970654971660045 25.06 0.6
   vertex 19.999 44.94 0.6
   vertex 0.000999999999999 44.94 0.6
  endloop
 endfacet
 facet normal 0.0 0.0 1.0
  outer loop
   vertex 12.970654971660045 25.06 0.6
   vertex 19.999 34.09644360786564 0.6
   vertex 19.999 44.94 0.6
  endloop
 endfacet
 facet normal -0.0 0.0 -1.0
  outer loop
   vertex 12.970654971660045 25.06 0.96
   vertex 7.029345028339942 25.05999999999999 0.96
   vertex 0.000999999999999 34.09644360786564 0.96
  endloop
 endfacet
 facet normal 0.0 0.0 -1.0
  outer loop
   vertex 12.970654971660045 25.06 0.96
   vertex 0.000999999999999 34.09644360786564 0.96
   vertex 0.000999999999999 44.94 0.96
  endloop
 endfacet
 facet normal 0.0 0.0 -1.0
  outer loop
   vertex 12.970654971660045 25.06 0.96
   vertex 0.000999999999999 44.94 0.96
   vertex 19.999 44.94 0.96
  endloop
 endfacet
 facet normal 0.0 0.0 -1.0
  outer loop
   vertex 12.970654971660045 25.06 0.96
   vertex 19.999 44.94 0.96
   vertex 19.999 34.09644360786564 0.96
  endloop
 endfacet
 facet normal 1.195936153034691e-15 -1.0 0.0
  outer loop
   vertex 7.029345028339942 25.05999999999999 0.96
   vertex 12.970654971660045 25.06 0.96
   vertex 12.970654971660045 25.06 1.02
  endloop
 endfacet
 facet normal 1.195936153034691e-15 -1.0 0.0
  outer loop
   vertex 7.029345028339942 25.05999999999999 1.02
   vertex 7.029345028339942 25.05999999999999 0.96
   vertex 12.970654971660045 25.06 1.02
  endloop
 endfacet
 facet normal -0.7893522173763263 -0.6139406135149202 0.0
  outer loop
   vertex 0.000999999999999 34.09644360786564 0.96
   vertex 7.029345028339942 25.05999999999999 0.96
   vertex 7.029345028339942 25.05999999999999 1.02
  endloop
 endfacet
 facet normal -0.7893522173763263 -0.6139406135149202 -0.0
  outer loop
   vertex 0.000999999999999 34.09644360786564 1.02
   vertex 0.000999999999999 34.09644360786564 0.96
   vertex 7.029345028339942 25.05999999999999 1.02
  endloop
 endfacet
 facet normal -1.0 0.0 0.0
  outer loop
   vertex 0.000999999999999 44.94 0.96
   vertex 0.000999999999999 34.09644360786564 0.96
   vertex 0.000999999999999 34.09644360786564 1.02
  endloop
 endfacet
 facet normal -1.0 -0.0 -0.0
  outer loop
   vertex 0.000999999999999 44.94 1.02
   vertex 0.000999999999999 44.94 0.96
   vertex 0.000999999999999 34.09644360786564 1.02
  endloop
 endfacet
 facet normal 0.0 1.0 0.0
  outer loop
   vertex 19.999 44.94 0.96
   vertex 0.000999999999999 44.94 0.96
   vertex 0.000999999999999 44.94 1.02
  endloop
 endfacet
 facet normal 0.0 1.0 0.0
  outer loop
   vertex 19.999 44.94 1.02
   vertex 19.999 44.94 0.96
   vertex 0.000999999999999 44.94 1.02
  endloop
 endfacet
 facet normal 1.0 0.0 0.0
  outer loop
   vertex 19.999 34.09644360786564 0.96
   vertex 19.999 44.94 0.96
   vertex 19.999 44.94 1.02
  endloop
 endfacet
 facet normal 1.0 -0.0 0.0
  outer loop
   vertex 19.999 34.09644360786564 1.02
   vertex 19.999 34.09644360786564 0.96
   vertex 19.999 44.94 1.02
  endloop
 endfacet
 facet normal 0.7893522173763258 -0.6139406135149212 0.0
  outer loop
   vertex 12.970654971660045 25.06 0.96
   vertex 19.999 34.09644360786564 0.96
   vertex 19.999 34.09644360786564 1.02
  endloop
 endfacet
 facet normal 0.7893522173763258 -0.6139406135149212 0.0
  outer loop
   vertex 12.970654971660045 25.06 1.02
   vertex 12.970654971660045 25.06 0.96
   vertex 19.999 34.09644360786564 1.02
  endloop
 endfacet
 facet normal 1.195936153034691e-15 -1.0 0.0
  outer loop
   vertex 7.029345028339942 25.05999999999999 1.02
   vertex 12.970654971660045 25.06 1.02
   vertex 12.970654971660045 25.06 1.56
  endloop
 endfacet
 facet normal 1.195936153034691e-15 -1.0 0.0
  outer loop
   vertex 7.029345028339942 25.05999999999999 1.56
   vertex 7.029345028339942 25.05999999999999 1.02
   vertex 12.970654971660045 25.06 1.56
  endloop
 endfacet
 facet normal -0.7893522173763265 -0.6139406135149204 0.0
  outer loop
   vertex 0.000999999999999 34.09644360786564 1.02
   vertex 7.029345028339942 25.05999999999999 1.02
   vertex 7.029345028339942 25.05999999999999 1.56
  endloop
 endfacet
 facet normal -0.7893522173763265 -0.6139406135149204 -0.0
  outer loop
   vertex 0.000999999999999 34.09644360786564 1.56
   vertex 0.000999999999999 34.09644360786564 1.02
   vertex 7.029345028339942 25.05999999999999 1.56
  endloop
 endfacet
 facet normal -1.0 0.0 0.0
  outer loop
   vertex 0.000999999999999 44.94 1.02
   vertex 0.000999999999999 34.09644360786564 1.02
   vertex 0.000999999999999 34.09644360786564 1.56
  endloop
 endfacet
 facet normal -1.0 -0.0 -0.0
  outer loop
   vertex 0.000999999999999 43.2 1.56
   vertex 0.000999999999999 44.94 1.02
   vertex 0.000999999999999 34.09644360786564 1.56
  endloop
 endfacet
 facet normal 0.0 0.2963992148724537 0.9550641368112369
  outer loop
   vertex 19.999 44.94 1.02
   vertex 0.000999999999999 44.94 1.02
   vertex 0.000999999999999 43.2 1.56
  endloop
 endfacet
 facet normal 0.0 0.2963992148724537 0.9550641368112369
  outer loop
   vertex 19.999 43.2 1.56
   vertex 19.999 44.94 1.02
   vertex 0.000999999999999 43.2 1.56
  endloop
 endfacet
 facet normal 1.0 0.0 0.0
  outer loop
   vertex 19.999 34.09644360786564 1.02
   vertex 19.999 44.94 1.02
   vertex 19.999 43.2 1.56
  endloop
 endfacet
 facet normal 1.0 -0.0 0.0
  outer loop
   vertex 19.999 34.09644360786564 1.56
   vertex 19.999 34.09644360786564 1.02
   vertex 19.999 43.2 1.56
  endloop
 endfacet
 facet normal 0.7893522173763258 -0.6139406135149211 0.0
  outer loop
   vertex 12.970654971660045 25.06 1.02
   vertex 19.999 34.09644360786564 1.02
   vertex 19.999 34.09644360786564 1.56
  endloop
 endfacet
 facet normal 0.7893522173763258 -0.6139406135149211 0.0
  outer loop
   vertex 12.970654971660045 25.06 1.56
   vertex 12.970654971660045 25.06 1.02
   vertex 19.999 34.09644360786564 1.56
  endloop
 endfacet
 facet normal 0.0 0.0 1.0
  outer loop
   vertex 12.970654971660045 25.06 1.56
   vertex 0.000999999999999 34.09644360786564 1.56
   vertex 7.029345028339942 25.05999999999999 1.56
  endloop
 endfacet
 facet normal 0.0 0.0 1.0
  outer loop
   vertex 12.970654971660045 25.06 1.56
   vertex 0.000999999999999 43.2 1.56
   vertex 0.000999999999999 34.09644360786564 1.56
  endloop
 endfacet
 facet normal 0.0 -0.0 1.0
  outer loop
   vertex 12.970654971660045 25.06 1.56
   vertex 19.999 43.2 1.56
   vertex 0.000999999999999 43.2 1.56
  endloop
 endfacet
 facet normal 0.0 0.0 1.0
  outer loop
   vertex 12.970654971660045 25.06 1.56
   vertex 19.999 34.09644360786564 1.56
   vertex 19.999 43.2 1.56
  endloop
 endfacet
 facet normal 0.0 0.0 -1.0
  outer loop
   vertex 7.293450283399417 24.399999999999995 0
   vertex 12.706549716600565 24.399999999999995 0
   vertex 19.999 15.023992492772162 0
  endloop
 endfacet
 facet normal 0.0 0.0 -1.0
  outer loop
   vertex 7.293450283399417 24.399999999999995 0
   vertex 19.999 15.023992492772162 0
   vertex 19.999 8.060000000000004 0
  endloop
 endfacet
 facet normal 0.0 -0.0 -1.0
  outer loop
   vertex 7.293450283399417 24.399999999999995 0
   vertex 19.999 8.060000000000004 0
   vertex 0.000999999999999 8.06 0
  endloop
 endfacet
 facet normal 0.0 0.0 -1.0
  outer loop
   vertex 7.293450283399417 24.399999999999995 0
   vertex 0.000999999999999 8.06 0
   vertex 0.000999999999999 15.02399249277217 0
  endloop
 endfacet
 facet normal 0.0 0.7071067811865457 -0.7071067811865492
  outer loop
   vertex 12.706549716600565 24.399999999999995 0
   vertex 7.293450283399417 24.399999999999995 0
   vertex 7.029345028339937 24.939999999999998 0.54
  endloop
 endfacet
 facet normal 0.0 0.7071067811865458 -0.7071067811865493
  outer loop
   vertex 12.970654971660048 24.939999999999998 0.54
   vertex 12.706549716600565 24.399999999999995 0
   vertex 7.029345028339937 24.939999999999998 0.54
  endloop
 endfacet
 facet normal 0.5581563056514363 0.4341215710622287 -0.7071067811865496
  outer loop
   vertex 19.999 15.023992492772162 0
   vertex 12.706549716600565 24.399999999999995 0
   vertex 12.970654971660048 24.939999999999998 0.54
  endloop
 endfacet
 facet normal 0.5581563056514363 0.43412157106222876 -0.7071067811865495
  outer loop
   vertex 19.999 15.903556392134359 0.54
   vertex 19.999 15.023992492772162 0
   vertex 12.970654971660048 24.939999999999998 0.54
  endloop
 endfacet
 facet normal 1.0 0.0 0.0
  outer loop
   vertex 19.999 8.060000000000004 0
   vertex 19.999 15.023992492772162 0
   vertex 19.999 15.903556392134359 0.54
  endloop
 endfacet
 facet normal 1.0 -0.0 0.0
  outer loop
   vertex 19.999 8.060000000000004 0.54
   vertex 19.999 8.060000000000004 0
   vertex 19.999 15.903556392134359 0.54
  endloop
 endfacet
 facet normal 1.7765344928495353e-16 -1.0 0.0
  outer loop
   vertex 0.000999999999999 8.06 0
   vertex 19.999 8.060000000000004 0
   vertex 19.999 8.060000000000004 0.54
  endloop
 endfacet
 facet normal 1.7765344928495353e-16 -1.0 0.0
  outer loop
   vertex 0.000999999999999 8.06 0.54
   vertex 0.000999999999999 8.06 0
   vertex 19.999 8.060000000000004 0.54
  endloop
 endfacet
 facet normal -1.0 0.0 0.0
  outer loop
   vertex 0.000999999999999 15.02399249277217 0
   vertex 0.000999999999999 8.06 0
   vertex 0.000999999999999 8.06 0.54
  endloop
 endfacet
 facet normal -1.0 -0.0 0.0
  outer loop
   vertex 0.000999999999999 15.90355639213436 0.54
   vertex 0.000999999999999 15.02399249277217 0
   vertex 0.000999999999999 8.06 0.54
  endloop
 endfacet
 facet normal -0.5581563056514386 0.43412157106223 -0.7071067811865469
  outer loop
   vertex 7.293450283399417 24.399999999999995 0
   vertex 0.000999999999999 15.02399249277217 0
   vertex 0.000999999999999 15.90355639213436 0.54
  endloop
 endfacet
 facet normal -0.5581563056514384 0.43412157106222976 -0.7071067811865471
  outer loop
   vertex 7.029345028339937 24.939999999999998 0.54
   vertex 7.293450283399417 24.399999999999995 0
   vertex 0.000999999999999 15.90355639213436 0.54
  endloop
 endfacet
 facet normal 0.0 1.0 0.0
  outer loop
   vertex 12.970654971660048 24.939999999999998 0.54
   vertex 7.029345028339937 24.939999999999998 0.54
   vertex 7.029345028339937 24.939999999999998 0.6
  endloop
 endfacet
 facet normal 0.0 1.0 0.0
  outer loop
   vertex 12.970654971660048 24.939999999999998 0.6
   vertex 12.970654971660048 24.939999999999998 0.54
   vertex 7.029345028339937 24.939999999999998 0.6
  endloop
 endfacet
 facet normal 0.7893522173763258 0.6139406135149209 0.0
  outer loop
   vertex 19.999 15.903556392134359 0.54
   vertex 12.970654971660048 24.939999999999998 0.54
   vertex 12.970654971660048 24.939999999999998 0.6
  endloop
 endfacet
 facet normal 0.7893522173763258 0.6139406135149209 0.0
  outer loop
   vertex 19.999 15.903556392134359 0.6
   vertex 19.999 15.903556392134359 0.54
   vertex 12.970654971660048 24.939999999999998 0.6
  endloop
 endfacet
 facet normal 1.0 0.0 0.0
  outer loop
   vertex 19.999 8.060000000000004 0.54
   vertex 19.999 15.903556392134359 0.54
   vertex 19.999 15.903556392134359 0.6
  endloop
 endfacet
 facet normal 1.0 -0.0 0.0
  outer loop
   vertex 19.999 8.060000000000004 0.6
   vertex 19.999 8.060000000000004 0.54
   vertex 19.999 15.903556392134359 0.6
  endloop
 endfacet
 facet normal 1.7765344928495353e-16 -1.0 0.0
  outer loop
   vertex 0.000999999999999 8.06 0.54
   vertex 19.999 8.060000000000004 0.54
   vertex 19.999 8.060000000000004 0.6
  endloop
 endfacet
 facet normal 1.7765344928495353e-16 -1.0 0.0
  outer loop
   vertex 0.000999999999999 8.06 0.6
   vertex 0.000999999999999 8.06 0.54
   vertex 19.999 8.060000000000004 0.6
  endloop
 endfacet
 facet normal -1.0 0.0 0.0
  outer loop
   vertex 0.000999999999999 15.90355639213436 0.54
   vertex 0.000999999999999 8.06 0.54
   vertex 0.000999999999999 8.06 0.6
  endloop
 endfacet
 facet normal -1.0 -0.0 -0.0
  outer loop
   vertex 0.000999999999999 15.90355639213436 0.6
   vertex 0.000999999999999 15.90355639213436 0.54
   vertex 0.000999999999999 8.06 0.6
  endloop
 endfacet
 facet normal -0.7893522173763264 0.6139406135149204 0.0
  outer loop
   vertex 7.029345028339937 24.939999999999998 0.54
   vertex 0.000999999999999 15.90355639213436 0.54
   vertex 0.000999999999999 15.90355639213436 0.6
  endloop
 endfacet
 facet normal -0.7893522173763264 0.6139406135149204 0.0
  outer loop
   vertex 7.029345028339937 24.939999999999998 0.6
   vertex 7.029345028339937 24.939999999999998 0.54
   vertex 0.000999999999999 15.90355639213436 0.6
  endloop
 endfacet
 facet normal -0.0 0.0 1.0
  outer loop
   vertex 7.029345028339937 24.939999999999998 0.6
   vertex 19.999 15.903556392134359 0.6
   vertex 12.970654971660048 24.939999999999998 0.6
  endloop
 endfacet
 facet normal 0.0 0.0 1.0
  outer loop
   vertex 7.029345028339937 24.939999999999998 0.6
   vertex 19.999 8.060000000000004 0.6
   vertex 19.999 15.903556392134359 0.6
  endloop
 endfacet
 facet normal 0.0 0.0 1.0
  outer loop
   vertex 7.029345028339937 24.939999999999998 0.6
   vertex 0.000999999999999 8.06 0.6
   vertex 19.999 8.060000000000004 0.6
  endloop
 endfacet
 facet normal 0.0 0.0 1.0
  outer loop
   vertex 7.029345028339937 24.939999999999998 0.6
   vertex 0.000999999999999 15.90355639213436 0.6
   vertex 0.000999999999999 8.06 0.6
  endloop
 endfacet
 facet normal 0.0 0.0 -1.0
  outer loop
   vertex 7.029345028339937 24.939999999999998 0.96
   vertex 12.970654971660048 24.939999999999998 0.96
   vertex 19.999 15.903556392134359 0.96
  endloop
 endfacet
 facet normal 0.0 0.0 -1.0
  outer loop
   vertex 7.029345028339937 24.939999999999998 0.96
   vertex 19.999 15.903556392134359 0.96
   vertex 19.999 8.060000000000004 0.96
  endloop
 endfacet
 facet normal 0.0 -0.0 -1.0
  outer loop
   vertex 7.029345028339937 24.939999999999998 0.96
   vertex 19.999 8.060000000000004 0.96
   vertex 0.000999999999999 8.06 0.96
  endloop
 endfacet
 facet normal 0.0 0.0 -1.0
  outer loop
   vertex 7.029345028339937 24.939999999999998 0.96
   vertex 0.000999999999999 8.06 0.96
   vertex 0.000999999999999 15.90355639213436 0.96
  endloop
 endfacet
 facet normal 0.0 1.0 0.0
  outer loop
   vertex 12.970654971660048 24.939999999999998 0.96
   vertex 7.029345028339937 24.939999999999998 0.96
   vertex 7.029345028339937 24.939999999999998 1.02
  endloop
 endfacet
 facet normal 0.0 1.0 0.0
  outer loop
   vertex 12.970654971660048 24.939999999999998 1.02
   vertex 12.970654971660048 24.939999999999998 0.96
   vertex 7.029345028339937 24.939999999999998 1.02
  endloop
 endfacet
 facet normal 0.7893522173763259 0.613940613514921 0.0
  outer loop
   vertex 19.999 15.903556392134359 0.96
   vertex 12.970654971660048 24.939999999999998 0.96
   vertex 12.970654971660048 24.939999999999998 1.02
  endloop
 endfacet
 facet normal 0.7893522173763259 0.613940613514921 0.0
  outer loop
   vertex 19.999 15.903556392134359 1.02
   vertex 19.999 15.903556392134359 0.96
   vertex 12.970654971660048 24.939999999999998 1.02
  endloop
 endfacet
 facet normal 1.0 0.0 0.0
  outer loop
   vertex 19.999 8.060000000000004 0.96
   vertex 19.999 15.903556392134359 0.96
   vertex 19.999 15.903556392134359 1.02
  endloop
 endfacet
 facet normal 1.0 -0.0 0.0
  outer loop
   vertex 19.999 8.060000000000004 1.02
   vertex 19.999 8.060000000000004 0.96
   vertex 19.999 15.903556392134359 1.02
  endloop
 endfacet
 facet normal 1.7765344928495353e-16 -1.0 0.0
  outer loop
   vertex 0.000999999999999 8.06 0.96
   vertex 19.999 8.060000000000004 0.96
   vertex 19.999 8.060000000000004 1.02
  endloop
 endfacet
 facet normal 1.7765344928495353e-16 -1.0 0.0
  outer loop
   vertex 0.000999999999999 8.06 1.02
   vertex 0.000999999999999 8.06 0.96
   vertex 19.999 8.060000000000004 1.02
  endloop
 endfacet
 facet normal -1.0 0.0 0.0
  outer loop
   vertex 0.000999999999999 15.90355639213436 0.96
   vertex 0.000999999999999 8.06 0.96
   vertex 0.000999999999999 8.06 1.02
  endloop
 endfacet
 facet normal -1.0 -0.0 -0.0
  outer loop
   vertex 0.000999999999999 15.90355639213436 1.02
   vertex 0.000999999999999 15.90355639213436 0.96
   vertex 0.000999999999999 8.06 1.02
  endloop
 endfacet
 facet normal -0.7893522173763263 0.6139406135149205 0.0
  outer loop
   vertex 7.029345028339937 24.939999999999998 0.96
   vertex 0.000999999999999 15.90355639213436 0.96
   vertex 0.000999999999999 15.90355639213436 1.02
  endloop
 endfacet
 facet normal -0.7893522173763263 0.6139406135149205 0.0
  outer loop
   vertex 7.029345028339937 24.939999999999998 1.02
   vertex 7.029345028339937 24.939999999999998 0.96
   vertex 0.000999999999999 15.90355639213436 1.02
  endloop
 endfacet
 facet normal 0.0 1.0 0.0
  outer loop
   vertex 12.970654971660048 24.939999999999998 1.02
   vertex 7.029345028339937 24.939999999999998 1.02
   vertex 7.029345028339937 24.939999999999998 1.56
  endloop
 endfacet
 facet normal 0.0 1.0 0.0
  outer loop
   vertex 12.970654971660048 24.939999999999998 1.56
   vertex 12.970654971660048 24.939999999999998 1.02
   vertex 7.029345028339937 24.939999999999998 1.56
  endloop
 endfacet
 facet normal 0.7893522173763259 0.613940613514921 0.0
  outer loop
   vertex 19.999 15.903556392134359 1.02
   vertex 12.970654971660048 24.939999999999998 1.02
   vertex 12.970654971660048 24.939999999999998 1.56
  endloop
 endfacet
 facet normal 0.7893522173763259 0.613940613514921 0.0
  outer loop
   vertex 19.999 15.903556392134359 1.56
   vertex 19.999 15.903556392134359 1.02
   vertex 12.970654971660048 24.939999999999998 1.56
  endloop
 endfacet
 facet normal 1.0 0.0 0.0
  outer loop
   vertex 19.999 8.060000000000004 1.02
   vertex 19.999 15.903556392134359 1.02
   vertex 19.999 15.903556392134359 1.56
  endloop
 endfacet
 facet normal 1.0 -0.0 0.0
  outer loop
   vertex 19.999 9.800000000000004 1.56
   vertex 19.999 8.060000000000004 1.02
   vertex 19.999 15.903556392134359 1.56
  endloop
 endfacet
 facet normal 5.2656342887443346e-17 -0.29639921487245285 0.955064136811237
  outer loop
   vertex 0.000999999999999 8.06 1.02
   vertex 19.999 8.060000000000004 1.02
   vertex 19.999 9.800000000000004 1.56
  endloop
 endfacet
 facet normal 5.2656342887443346e-17 -0.29639921487245285 0.955064136811237
  outer loop
   vertex 0.000999999999999 9.8 1.56
   vertex 0.000999999999999 8.06 1.02
   vertex 19.999 9.800000000000004 1.56
  endloop
 endfacet
 facet normal -1.0 0.0 0.0
  outer loop
   vertex 0.000999999999999 15.90355639213436 1.02
   vertex 0.000999999999999 8.06 1.02
   vertex 0.000999999999999 9.8 1.56
  endloop
 endfacet
 facet normal -1.0 -0.0 -0.0
  outer loop
   vertex 0.000999999999999 15.90355639213436 1.56
   vertex 0.000999999999999 15.90355639213436 1.02
   vertex 0.000999999999999 9.8 1.56
  endloop
 endfacet
 facet normal -0.7893522173763263 0.6139406135149204 0.0
  outer loop
   vertex 7.029345028339937 24.939999999999998 1.02
   vertex 0.000999999999999 15.90355639213436 1.02
   vertex 0.000999999999999 15.90355639213436 1.56
  endloop
 endfacet
 facet normal -0.7893522173763263 0.6139406135149204 0.0
  outer loop
   vertex 7.029345028339937 24.939999999999998 1.56
   vertex 7.029345028339937 24.939999999999998 1.02
   vertex 0.000999999999999 15.90355639213436 1.56
  endloop
 endfacet
 facet normal -0.0 0.0 1.0
  outer loop
   vertex 7.029345028339937 24.939999999999998 1.56
   vertex 19.999 15.903556392134359 1.56
   vertex 12.970654971660048 24.939999999999998 1.56
  endloop
 endfacet
 facet normal 0.0 0.0 1.0
  outer loop
   vertex 7.029345028339937 24.939999999999998 1.56
   vertex 19.999 9.800000000000004 1.56
   vertex 19.999 15.903556392134359 1.56
  endloop
 endfacet
 facet normal 0.0 0.0 1.0
  outer loop
   vertex 7.029345028339937 24.939999999999998 1.56
   vertex 0.000999999999999 9.8 1.56
   vertex 19.999 9.800000000000004 1.56
  endloop
 endfacet
 facet normal 0.0 0.0 1.0
  outer loop
   vertex 7.029345028339937 24.939999999999998 1.56
   vertex 0.000999999999999 15.90355639213436 1.56
   vertex 0.000999999999999 9.8 1.56
  endloop
 endfacet
endsolid
