  0
SECTION
  2
HEADER
  9
$ACADVER
  1
AC1032
  9
$ACADMAINTVER
 90
      155
  9
$DWGCODEPAGE
  3
ANSI_936
  9
$LASTSAVEDBY
  1
Administrator
  9
$REQUIREDVERSIONS
160
                 0
  9
$INSBASE
 10
0.0
 20
0.0
 30
0.0
  9
$EXTMIN
 10
-18.68942053755726
 20
0.001
 30
0.0
  9
$EXTMAX
 10
161.3105794624427
 20
207.997
 30
0.0
  9
$LIMMIN
 10
0.0
 20
0.0
  9
$LIMMAX
 10
420.0
 20
297.0
  9
$ORTHOMODE
 70
     0
  9
$REGENMODE
 70
     1
  9
$FILLMODE
 70
     1
  9
$QTEXTMODE
 70
     0
  9
$MIRRTEXT
 70
     1
  9
$LTSCALE
 40
1.0
  9
$ATTMODE
 70
     1
  9
$TEXTSIZE
 40
2.5
  9
$TRACEWID
 40
1.0
  9
$TEXTSTYLE
  7
OpenSans
  9
$CLAYER
  8
0
  9
$CELTYPE
  6
ByLayer
  9
$CECOLOR
 62
   256
  9
$CELTSCALE
 40
1.0
  9
$DISPSILH
 70
     0
  9
$DIMSCALE
 40
1.0
  9
$DIMASZ
 40
0.175
  9
$DIMEXO
 40
0.125
  9
$DIMDLI
 40
3.75
  9
$DIMRND
 40
0.0
  9
$DIMDLE
 40
0.0
  9
$DIMEXE
 40
0.375
  9
$DIMTP
 40
0.0
  9
$DIMTM
 40
0.0
  9
$DIMTXT
 40
0.25
  9
$DIMCEN
 40
2.5
  9
$DIMTSZ
 40
0.0
  9
$DIMTOL
 70
     0
  9
$DIMLIM
 70
     0
  9
$DIMTIH
 70
     0
  9
$DIMTOH
 70
     0
  9
$DIMSE1
 70
     0
  9
$DIMSE2
 70
     0
  9
$DIMTAD
 70
     1
  9
$DIMZIN
 70
    12
  9
$DIMBLK
  1
ARCHTICK
  9
$DIMASO
 70
     1
  9
$DIMSHO
 70
     1
  9
$DIMPOST
  1

  9
$DIMAPOST
  1

  9
$DIMALT
 70
     0
  9
$DIMALTD
 70
     3
  9
$DIMALTF
 40
0.03937007874
  9
$DIMLFAC
 40
100.0
  9
$DIMTOFL
 70
     1
  9
$DIMTVP
 40
0.0
  9
$DIMTIX
 70
     0
  9
$DIMSOXD
 70
     0
  9
$DIMSAH
 70
     0
  9
$DIMBLK1
  1

  9
$DIMBLK2
  1

  9
$DIMSTYLE
  2
EZDXF
  9
$DIMCLRD
 70
     0
  9
$DIMCLRE
 70
     0
  9
$DIMCLRT
 70
     0
  9
$DIMTFAC
 40
0.5
  9
$DIMGAP
 40
0.1
  9
$DIMJUST
 70
     0
  9
$DIMSD1
 70
     0
  9
$DIMSD2
 70
     0
  9
$DIMTOLJ
 70
     0
  9
$DIMTZIN
 70
     8
  9
$DIMALTZ
 70
     0
  9
$DIMALTTZ
 70
     0
  9
$DIMUPT
 70
     1
  9
$DIMDEC
 70
     2
  9
$DIMTDEC
 70
     2
  9
$DIMALTU
 70
     2
  9
$DIMALTTD
 70
     3
  9
$DIMTXSTY
  7
OpenSansCondensed-Light
  9
$DIMAUNIT
 70
     0
  9
$DIMADEC
 70
     2
  9
$DIMALTRND
 40
0.0
  9
$DIMAZIN
 70
     3
  9
$DIMDSEP
 70
    46
  9
$DIMATFIT
 70
     3
  9
$DIMFRAC
 70
     0
  9
$DIMLDRBLK
  1

  9
$DIMLUNIT
 70
     2
  9
$DIMLWD
 70
    -2
  9
$DIMLWE
 70
    -2
  9
$DIMTMOVE
 70
     2
  9
$DIMFXL
 40
1.0
  9
$DIMFXLON
 70
     0
  9
$DIMJOGANG
 40
0.785398163397
  9
$DIMTFILL
 70
     0
  9
$DIMTFILLCLR
 70
     0
  9
$DIMARCSYM
 70
     0
  9
$DIMLTYPE
  6

  9
$DIMLTEX1
  6

  9
$DIMLTEX2
  6

  9
$DIMTXTDIRECTION
 70
     0
  9
$LUNITS
 70
     2
  9
$LUPREC
 70
     4
  9
$SKETCHINC
 40
1.0
  9
$FILLETRAD
 40
10.0
  9
$AUNITS
 70
     0
  9
$AUPREC
 70
     2
  9
$MENU
  1
.
  9
$ELEVATION
 40
0.0
  9
$PELEVATION
 40
0.0
  9
$THICKNESS
 40
0.0
  9
$LIMCHECK
 70
     0
  9
$CHAMFERA
 40
0.0
  9
$CHAMFERB
 40
0.0
  9
$CHAMFERC
 40
0.0
  9
$CHAMFERD
 40
0.0
  9
$SKPOLY
 70
     0
  9
$TDCREATE
 40
2458532.487326389
  9
$TDUCREATE
 40
2458532.153996898
  9
$TDUPDATE
 40
2460073.777511574
  9
$TDUUPDATE
 40
2460073.444178241
  9
$TDINDWG
 40
0.0035648148
  9
$TDUSRTIMER
 40
0.0035648148
  9
$USRTIMER
 70
     1
  9
$ANGBASE
 50
0.0
  9
$ANGDIR
 70
     0
  9
$PDMODE
 70
     0
  9
$PDSIZE
 40
0.0
  9
$PLINEWID
 40
0.0
  9
$SPLFRAME
 70
     0
  9
$SPLINETYPE
 70
     6
  9
$SPLINESEGS
 70
     8
  9
$HANDSEED
  5
33A
  9
$SURFTAB1
 70
     6
  9
$SURFTAB2
 70
     6
  9
$SURFTYPE
 70
     6
  9
$SURFU
 70
     6
  9
$SURFV
 70
     6
  9
$UCSBASE
  2

  9
$UCSNAME
  2

  9
$UCSORG
 10
0.0
 20
0.0
 30
0.0
  9
$UCSXDIR
 10
1.0
 20
0.0
 30
0.0
  9
$UCSYDIR
 10
0.0
 20
1.0
 30
0.0
  9
$UCSORTHOREF
  2

  9
$UCSORTHOVIEW
 70
     0
  9
$UCSORGTOP
 10
0.0
 20
0.0
 30
0.0
  9
$UCSORGBOTTOM
 10
0.0
 20
0.0
 30
0.0
  9
$UCSORGLEFT
 10
0.0
 20
0.0
 30
0.0
  9
$UCSORGRIGHT
 10
0.0
 20
0.0
 30
0.0
  9
$UCSORGFRONT
 10
0.0
 20
0.0
 30
0.0
  9
$UCSORGBACK
 10
0.0
 20
0.0
 30
0.0
  9
$PUCSBASE
  2

  9
$PUCSNAME
  2

  9
$PUCSORG
 10
0.0
 20
0.0
 30
0.0
  9
$PUCSXDIR
 10
1.0
 20
0.0
 30
0.0
  9
$PUCSYDIR
 10
0.0
 20
1.0
 30
0.0
  9
$PUCSORTHOREF
  2

  9
$PUCSORTHOVIEW
 70
     0
  9
$PUCSORGTOP
 10
0.0
 20
0.0
 30
0.0
  9
$PUCSORGBOTTOM
 10
0.0
 20
0.0
 30
0.0
  9
$PUCSORGLEFT
 10
0.0
 20
0.0
 30
0.0
  9
$PUCSORGRIGHT
 10
0.0
 20
0.0
 30
0.0
  9
$PUCSORGFRONT
 10
0.0
 20
0.0
 30
0.0
  9
$PUCSORGBACK
 10
0.0
 20
0.0
 30
0.0
  9
$USERI1
 70
     0
  9
$USERI2
 70
     0
  9
$USERI3
 70
     0
  9
$USERI4
 70
     0
  9
$USERI5
 70
     0
  9
$USERR1
 40
0.0
  9
$USERR2
 40
0.0
  9
$USERR3
 40
0.0
  9
$USERR4
 40
0.0
  9
$USERR5
 40
0.0
  9
$WORLDVIEW
 70
     1
  9
$SHADEDGE
 70
     3
  9
$SHADEDIF
 70
    70
  9
$TILEMODE
 70
     1
  9
$MAXACTVP
 70
    64
  9
$PINSBASE
 10
0.0
 20
0.0
 30
0.0
  9
$PLIMCHECK
 70
     0
  9
$PEXTMIN
 10
1.000000000000000E+20
 20
1.000000000000000E+20
 30
1.000000000000000E+20
  9
$PEXTMAX
 10
-1.000000000000000E+20
 20
-1.000000000000000E+20
 30
-1.000000000000000E+20
  9
$PLIMMIN
 10
0.0
 20
0.0
  9
$PLIMMAX
 10
420.0
 20
297.0
  9
$UNITMODE
 70
     0
  9
$VISRETAIN
 70
     1
  9
$PLINEGEN
 70
     0
  9
$PSLTSCALE
 70
     1
  9
$TREEDEPTH
 70
  3020
  9
$CMLSTYLE
  2
Standard
  9
$CMLJUST
 70
     0
  9
$CMLSCALE
 40
20.0
  9
$PROXYGRAPHICS
 70
     1
  9
$MEASUREMENT
 70
     1
  9
$CELWEIGHT
370
    -1
  9
$ENDCAPS
280
     0
  9
$JOINSTYLE
280
     0
  9
$LWDISPLAY
290
     0
  9
$INSUNITS
 70
     4
  9
$HYPERLINKBASE
  1

  9
$STYLESHEET
  1

  9
$XEDIT
290
     1
  9
$CEPSNTYPE
380
     0
  9
$PSTYLEMODE
290
     1
  9
$FINGERPRINTGUID
  2
{FB12648D-937D-43E4-B0B0-AD10C9E7DB43}
  9
$VERSIONGUID
  2
{63240F34-7A4D-8C4D-B5DA-754D36EC37BC}
  9
$EXTNAMES
290
     1
  9
$PSVPSCALE
 40
0.0
  9
$OLESTARTUP
290
     0
  9
$SORTENTS
280
   127
  9
$INDEXCTL
280
     0
  9
$HIDETEXT
280
     1
  9
$XCLIPFRAME
280
     0
  9
$HALOGAP
280
     0
  9
$OBSCOLOR
 70
   257
  9
$OBSLTYPE
280
     0
  9
$INTERSECTIONDISPLAY
280
     0
  9
$INTERSECTIONCOLOR
 70
   257
  9
$DIMASSOC
280
     2
  9
$PROJECTNAME
  1

  9
$CAMERADISPLAY
290
     0
  9
$LENSLENGTH
 40
50.0
  9
$CAMERAHEIGHT
 40
0.0
  9
$STEPSPERSEC
 40
24.0
  9
$STEPSIZE
 40
100.0
  9
$3DDWFPREC
 40
2.0
  9
$PSOLWIDTH
 40
0.005
  9
$PSOLHEIGHT
 40
0.08
  9
$LOFTANG1
 40
1.570796326795
  9
$LOFTANG2
 40
1.570796326795
  9
$LOFTMAG1
 40
0.0
  9
$LOFTMAG2
 40
0.0
  9
$LOFTPARAM
 70
     7
  9
$LOFTNORMALS
280
     1
  9
$LATITUDE
 40
37.795
  9
$LONGITUDE
 40
-122.394
  9
$NORTHDIRECTION
 40
0.0
  9
$TIMEZONE
 70
 -8000
  9
$LIGHTGLYPHDISPLAY
280
     1
  9
$TILEMODELIGHTSYNCH
280
     1
  9
$CMATERIAL
347
20
  9
$SOLIDHIST
280
     0
  9
$SHOWHIST
280
     1
  9
$DWFFRAME
280
     2
  9
$DGNFRAME
280
     2
  9
$REALWORLDSCALE
290
     1
  9
$INTERFERECOLOR
 62
   256
  9
$INTERFEREOBJVS
345
6B
  9
$INTERFEREVPVS
346
71
  9
$CSHADOW
280
     0
  9
$SHADOWPLANELOCATION
 40
0.0
  0
ENDSEC
  0
SECTION
  2
CLASSES
  0
CLASS
  1
ACDBDICTIONARYWDFLT
  2
AcDbDictionaryWithDefault
  3
ObjectDBX Classes
 90
        0
 91
        1
280
     0
281
     0
  0
CLASS
  1
SUN
  2
AcDbSun
  3
SCENEOE
 90
     1153
 91
        0
280
     0
281
     0
  0
CLASS
  1
VISUALSTYLE
  2
AcDbVisualStyle
  3
ObjectDBX Classes
 90
     4095
 91
       25
280
     0
281
     0
  0
CLASS
  1
MATERIAL
  2
AcDbMaterial
  3
ObjectDBX Classes
 90
     1153
 91
        3
280
     0
281
     0
  0
CLASS
  1
SCALE
  2
AcDbScale
  3
ObjectDBX Classes
 90
     1153
 91
       17
280
     0
281
     0
  0
CLASS
  1
TABLESTYLE
  2
AcDbTableStyle
  3
ObjectDBX Classes
 90
     4095
 91
        1
280
     0
281
     0
  0
CLASS
  1
MLEADERSTYLE
  2
AcDbMLeaderStyle
  3
ACDB_MLEADERSTYLE_CLASS
 90
     4095
 91
        1
280
     0
281
     0
  0
CLASS
  1
DICTIONARYVAR
  2
AcDbDictionaryVar
  3
ObjectDBX Classes
 90
        0
 91
        7
280
     0
281
     0
  0
CLASS
  1
CELLSTYLEMAP
  2
AcDbCellStyleMap
  3
ObjectDBX Classes
 90
     1152
 91
        2
280
     0
281
     0
  0
CLASS
  1
MENTALRAYRENDERSETTINGS
  2
AcDbMentalRayRenderSettings
  3
SCENEOE
 90
     1024
 91
        0
280
     0
281
     0
  0
CLASS
  1
ACDBDETAILVIEWSTYLE
  2
AcDbDetailViewStyle
  3
ObjectDBX Classes
 90
     1025
 91
        1
280
     0
281
     0
  0
CLASS
  1
ACDBSECTIONVIEWSTYLE
  2
AcDbSectionViewStyle
  3
ObjectDBX Classes
 90
     1025
 91
        1
280
     0
281
     0
  0
CLASS
  1
RASTERVARIABLES
  2
AcDbRasterVariables
  3
ISM
 90
        0
 91
        0
280
     0
281
     0
  0
ENDSEC
  0
SECTION
  2
TABLES
  0
TABLE
  2
VPORT
  5
8
330
0
100
AcDbSymbolTable
 70
     1
  0
VPORT
  5
23
330
8
100
AcDbSymbolTableRecord
100
AcDbViewportTableRecord
  2
*Active
 70
     0
 10
0.0
 20
0.0
 11
1.0
 21
1.0
 12
-2.599433769593929
 22
94.77378133353804
 13
0.0
 23
0.0
 14
0.5
 24
0.5
 15
0.5
 25
0.5
 16
0.0
 26
0.0
 36
1.0
 17
0.0
 27
0.0
 37
0.0
 40
251.1995529095181
 41
2.341911764705882
 42
50.0
 43
0.0
 44
0.0
 50
0.0
 51
0.0
 71
     0
 72
  1000
 73
     1
 74
     3
 75
     0
 76
     0
 77
     0
 78
     0
281
     0
 65
     0
110
0.0
120
0.0
130
0.0
111
1.0
121
0.0
131
0.0
112
0.0
122
1.0
132
0.0
 79
     0
146
0.0
348
5A
 60
     3
 61
     5
292
     1
282
     1
141
0.0
142
0.0
 63
   250
421
  3355443
1001
ACAD_NAV_VCDISPLAY
1070
     3
  0
ENDTAB
  0
TABLE
  2
LTYPE
  5
2
330
0
100
AcDbSymbolTable
 70
    20
  0
LTYPE
  5
24
330
2
100
AcDbSymbolTableRecord
100
AcDbLinetypeTableRecord
  2
ByBlock
 70
     0
  3

 72
    65
 73
     0
 40
0.0
  0
LTYPE
  5
25
330
2
100
AcDbSymbolTableRecord
100
AcDbLinetypeTableRecord
  2
ByLayer
 70
     0
  3

 72
    65
 73
     0
 40
0.0
  0
LTYPE
  5
26
330
2
100
AcDbSymbolTableRecord
100
AcDbLinetypeTableRecord
  2
Continuous
 70
     0
  3

 72
    65
 73
     0
 40
0.0
  0
LTYPE
  5
2F
330
2
100
AcDbSymbolTableRecord
100
AcDbLinetypeTableRecord
  2
CENTER
 70
     0
  3
Center ____ _ ____ _ ____ _ ____ _ ____ _ ____
 72
    65
 73
     4
 40
5.08
 49
3.174999999999998
 74
     0
 49
-0.635
 74
     0
 49
0.635
 74
     0
 49
-0.635
 74
     0
  0
LTYPE
  5
30
330
2
100
AcDbSymbolTableRecord
100
AcDbLinetypeTableRecord
  2
CENTERX2
 70
     0
  3
Center (2x) ________  __  ________  __  ________
 72
    65
 73
     4
 40
8.89
 49
6.349999999999998
 74
     0
 49
-0.635
 74
     0
 49
1.27
 74
     0
 49
-0.635
 74
     0
  0
LTYPE
  5
31
330
2
100
AcDbSymbolTableRecord
100
AcDbLinetypeTableRecord
  2
CENTER2
 70
     0
  3
Center (.5x) ____ _ ____ _ ____ _ ____ _ ____
 72
    65
 73
     4
 40
2.54
 49
1.586999999999999
 74
     0
 49
-0.318
 74
     0
 49
0.318
 74
     0
 49
-0.318
 74
     0
  0
LTYPE
  5
32
330
2
100
AcDbSymbolTableRecord
100
AcDbLinetypeTableRecord
  2
DASHED
 70
     0
  3
Dashed __ __ __ __ __ __ __ __ __ __ __ __ __ _
 72
    65
 73
     2
 40
1.524
 49
1.27
 74
     0
 49
-0.254
 74
     0
  0
LTYPE
  5
33
330
2
100
AcDbSymbolTableRecord
100
AcDbLinetypeTableRecord
  2
DASHEDX2
 70
     0
  3
Dashed (2x) ____  ____  ____  ____  ____  ____
 72
    65
 73
     2
 40
3.048
 49
2.54
 74
     0
 49
-0.508
 74
     0
  0
LTYPE
  5
34
330
2
100
AcDbSymbolTableRecord
100
AcDbLinetypeTableRecord
  2
DASHED2
 70
     0
  3
Dashed (.5x) _ _ _ _ _ _ _ _ _ _ _ _ _ _
 72
    65
 73
     2
 40
0.762
 49
0.635
 74
     0
 49
-0.127
 74
     0
  0
LTYPE
  5
35
330
2
100
AcDbSymbolTableRecord
100
AcDbLinetypeTableRecord
  2
PHANTOM
 70
     0
  3
Phantom ______  __  __  ______  __  __  ______
 72
    65
 73
     6
 40
6.349999999999998
 49
3.174999999999998
 74
     0
 49
-0.635
 74
     0
 49
0.635
 74
     0
 49
-0.635
 74
     0
 49
0.635
 74
     0
 49
-0.635
 74
     0
  0
LTYPE
  5
36
330
2
100
AcDbSymbolTableRecord
100
AcDbLinetypeTableRecord
  2
PHANTOMX2
 70
     0
  3
Phantom (2x)____________    ____    ____    ____________
 72
    65
 73
     6
 40
10.795
 49
6.349999999999998
 74
     0
 49
-0.635
 74
     0
 49
1.27
 74
     0
 49
-0.635
 74
     0
 49
1.27
 74
     0
 49
-0.635
 74
     0
  0
LTYPE
  5
37
330
2
100
AcDbSymbolTableRecord
100
AcDbLinetypeTableRecord
  2
PHANTOM2
 70
     0
  3
Phantom (.5x) ___ _ _ ___ _ _ ___ _ _ ___ _ _ ___
 72
    65
 73
     6
 40
3.174999999999998
 49
1.586999999999999
 74
     0
 49
-0.318
 74
     0
 49
0.318
 74
     0
 49
-0.318
 74
     0
 49
0.318
 74
     0
 49
-0.318
 74
     0
  0
LTYPE
  5
38
330
2
100
AcDbSymbolTableRecord
100
AcDbLinetypeTableRecord
  2
DASHDOT
 70
     0
  3
Dash dot __ . __ . __ . __ . __ . __ . __ . __
 72
    65
 73
     4
 40
3.556
 49
2.54
 74
     0
 49
-0.508
 74
     0
 49
0.0
 74
     0
 49
-0.508
 74
     0
  0
LTYPE
  5
39
330
2
100
AcDbSymbolTableRecord
100
AcDbLinetypeTableRecord
  2
DASHDOTX2
 70
     0
  3
Dash dot (2x) ____  .  ____  .  ____  .  ____
 72
    65
 73
     4
 40
6.096
 49
5.08
 74
     0
 49
-0.508
 74
     0
 49
0.0
 74
     0
 49
-0.508
 74
     0
  0
LTYPE
  5
3A
330
2
100
AcDbSymbolTableRecord
100
AcDbLinetypeTableRecord
  2
DASHDOT2
 70
     0
  3
Dash dot (.5x) _ . _ . _ . _ . _ . _ . _ . _
 72
    65
 73
     4
 40
1.778
 49
1.27
 74
     0
 49
-0.254
 74
     0
 49
0.0
 74
     0
 49
-0.254
 74
     0
  0
LTYPE
  5
3B
330
2
100
AcDbSymbolTableRecord
100
AcDbLinetypeTableRecord
  2
DOT
 70
     0
  3
Dot .  .  .  .  .  .  .  .  .  .  .  .  .  .  .  .
 72
    65
 73
     2
 40
0.508
 49
0.0
 74
     0
 49
-0.508
 74
     0
  0
LTYPE
  5
3C
330
2
100
AcDbSymbolTableRecord
100
AcDbLinetypeTableRecord
  2
DOTX2
 70
     0
  3
Dot (2x) .    .    .    .    .    .    .    . 
 72
    65
 73
     2
 40
1.016
 49
0.0
 74
     0
 49
-1.016
 74
     0
  0
LTYPE
  5
3D
330
2
100
AcDbSymbolTableRecord
100
AcDbLinetypeTableRecord
  2
DOT2
 70
     0
  3
Dot (.5) . . . . . . . . . . . . . . . . . . . 
 72
    65
 73
     2
 40
0.254
 49
0.0
 74
     0
 49
-0.254
 74
     0
  0
LTYPE
  5
3E
330
2
100
AcDbSymbolTableRecord
100
AcDbLinetypeTableRecord
  2
DIVIDE
 70
     0
  3
Divide __ . . __ . . __ . . __ . . __ . . __
 72
    65
 73
     6
 40
4.064
 49
2.54
 74
     0
 49
-0.508
 74
     0
 49
0.0
 74
     0
 49
-0.508
 74
     0
 49
0.0
 74
     0
 49
-0.508
 74
     0
  0
LTYPE
  5
3F
330
2
100
AcDbSymbolTableRecord
100
AcDbLinetypeTableRecord
  2
DIVIDEX2
 70
     0
  3
Divide (2x) ____  . .  ____  . .  ____  . .  ____
 72
    65
 73
     6
 40
6.604
 49
5.08
 74
     0
 49
-0.508
 74
     0
 49
0.0
 74
     0
 49
-0.508
 74
     0
 49
0.0
 74
     0
 49
-0.508
 74
     0
  0
LTYPE
  5
40
330
2
100
AcDbSymbolTableRecord
100
AcDbLinetypeTableRecord
  2
DIVIDE2
 70
     0
  3
Divide(.5x) _ . _ . _ . _ . _ . _ . _ . _
 72
    65
 73
     6
 40
2.032
 49
1.27
 74
     0
 49
-0.254
 74
     0
 49
0.0
 74
     0
 49
-0.254
 74
     0
 49
0.0
 74
     0
 49
-0.254
 74
     0
  0
ENDTAB
  0
TABLE
  2
LAYER
  5
1
102
{ACAD_XDICTIONARY
360
318
102
}
330
0
100
AcDbSymbolTable
 70
     6
  0
LAYER
  5
27
330
1
100
AcDbSymbolTableRecord
100
AcDbLayerTableRecord
  2
0
 70
     0
 62
     7
  6
Continuous
370
    -3
390
13
347
21
348
0
  0
LAYER
  5
28
330
1
100
AcDbSymbolTableRecord
100
AcDbLayerTableRecord
  2
Defpoints
 70
     0
 62
     7
  6
Continuous
290
     0
370
    -3
390
13
347
21
348
0
  0
LAYER
  5
8A
330
1
100
AcDbSymbolTableRecord
100
AcDbLayerTableRecord
  2
Mountain
 70
     0
 62
     1
  6
ByLayer
370
    25
390
13
347
21
348
0
  0
LAYER
  5
8B
330
1
100
AcDbSymbolTableRecord
100
AcDbLayerTableRecord
  2
Valley
 70
     0
 62
     5
  6
DASHEDX2
370
    25
390
13
347
21
348
0
  0
LAYER
  5
8C
330
1
100
AcDbSymbolTableRecord
100
AcDbLayerTableRecord
  2
Cutting
 70
     0
 62
     3
  6
ByLayer
370
    25
390
13
347
21
348
0
  0
LAYER
  5
8D
330
1
100
AcDbSymbolTableRecord
100
AcDbLayerTableRecord
  2
Border
 70
     0
 62
     7
  6
ByLayer
370
    30
390
13
347
21
348
0
  0
ENDTAB
  0
TABLE
  2
STYLE
  5
5
330
0
100
AcDbSymbolTable
 70
    26
  0
STYLE
  5
29
330
5
100
AcDbSymbolTableRecord
100
AcDbTextStyleTableRecord
  2
Standard
 70
     0
 40
0.0
 41
1.0
 50
0.0
 71
     0
 42
2.5
  3
txt
  4

  0
STYLE
  5
41
330
5
100
AcDbSymbolTableRecord
100
AcDbTextStyleTableRecord
  2
OpenSans-Light
 70
     0
 40
0.0
 41
1.0
 50
0.0
 71
     0
 42
2.5
  3
OpenSans-Light.ttf
  4

  0
STYLE
  5
42
330
5
100
AcDbSymbolTableRecord
100
AcDbTextStyleTableRecord
  2
OpenSans-Light-Italic
 70
     0
 40
0.0
 41
1.0
 50
0.0
 71
     0
 42
2.5
  3
OpenSans-LightItalic.ttf
  4

  0
STYLE
  5
43
330
5
100
AcDbSymbolTableRecord
100
AcDbTextStyleTableRecord
  2
OpenSans
 70
     0
 40
0.0
 41
1.0
 50
0.0
 71
     0
 42
2.5
  3
OpenSans-Regular.ttf
  4

  0
STYLE
  5
44
330
5
100
AcDbSymbolTableRecord
100
AcDbTextStyleTableRecord
  2
OpenSans-Italic
 70
     0
 40
0.0
 41
1.0
 50
0.0
 71
     0
 42
2.5
  3
OpenSans-Italic.ttf
  4

  0
STYLE
  5
45
330
5
100
AcDbSymbolTableRecord
100
AcDbTextStyleTableRecord
  2
OpenSans-SemiBold
 70
     0
 40
0.0
 41
1.0
 50
0.0
 71
     0
 42
2.5
  3
OpenSans-SemiBold.ttf
  4

  0
STYLE
  5
46
330
5
100
AcDbSymbolTableRecord
100
AcDbTextStyleTableRecord
  2
OpenSans-SemiBoldItalic
 70
     0
 40
0.0
 41
1.0
 50
0.0
 71
     0
 42
2.5
  3
OpenSans-SemiBoldItalic.ttf
  4

  0
STYLE
  5
47
330
5
100
AcDbSymbolTableRecord
100
AcDbTextStyleTableRecord
  2
OpenSans-Bold
 70
     0
 40
0.0
 41
1.0
 50
0.0
 71
     0
 42
2.5
  3
OpenSans-Bold.ttf
  4

  0
STYLE
  5
48
330
5
100
AcDbSymbolTableRecord
100
AcDbTextStyleTableRecord
  2
OpenSans-BoldItalic
 70
     0
 40
0.0
 41
1.0
 50
0.0
 71
     0
 42
2.5
  3
OpenSans-BoldItalic.ttf
  4

  0
STYLE
  5
49
330
5
100
AcDbSymbolTableRecord
100
AcDbTextStyleTableRecord
  2
OpenSans-ExtraBold
 70
     0
 40
0.0
 41
1.0
 50
0.0
 71
     0
 42
2.5
  3
OpenSans-ExtraBold.ttf
  4

  0
STYLE
  5
4A
330
5
100
AcDbSymbolTableRecord
100
AcDbTextStyleTableRecord
  2
OpenSans-ExtraBoldItalic
 70
     0
 40
0.0
 41
1.0
 50
0.0
 71
     0
 42
2.5
  3
OpenSans-ExtraBoldItalic.ttf
  4

  0
STYLE
  5
4B
330
5
100
AcDbSymbolTableRecord
100
AcDbTextStyleTableRecord
  2
OpenSansCondensed-Bold
 70
     0
 40
0.0
 41
1.0
 50
0.0
 71
     0
 42
2.5
  3
OpenSansCondensed-Bold.ttf
  4

  0
STYLE
  5
4C
330
5
100
AcDbSymbolTableRecord
100
AcDbTextStyleTableRecord
  2
OpenSansCondensed-Light
 70
     0
 40
0.0
 41
1.0
 50
0.0
 71
     0
 42
2.5
  3
OpenSansCondensed-Light.ttf
  4

  0
STYLE
  5
4D
330
5
100
AcDbSymbolTableRecord
100
AcDbTextStyleTableRecord
  2
OpenSansCondensed-Italic
 70
     0
 40
0.0
 41
1.0
 50
0.0
 71
     0
 42
2.5
  3
OpenSansCondensed-LightItalic.ttf
  4

  0
STYLE
  5
4E
330
5
100
AcDbSymbolTableRecord
100
AcDbTextStyleTableRecord
  2
LiberationSans
 70
     0
 40
0.0
 41
1.0
 50
0.0
 71
     0
 42
2.5
  3
LiberationSans-Regular.ttf
  4

  0
STYLE
  5
4F
330
5
100
AcDbSymbolTableRecord
100
AcDbTextStyleTableRecord
  2
LiberationSans-Bold
 70
     0
 40
0.0
 41
1.0
 50
0.0
 71
     0
 42
2.5
  3
LiberationSans-Bold.ttf
  4

  0
STYLE
  5
50
330
5
100
AcDbSymbolTableRecord
100
AcDbTextStyleTableRecord
  2
LiberationSans-BoldItalic
 70
     0
 40
0.0
 41
1.0
 50
0.0
 71
     0
 42
2.5
  3
LiberationSans-BoldItalic.ttf
  4

  0
STYLE
  5
51
330
5
100
AcDbSymbolTableRecord
100
AcDbTextStyleTableRecord
  2
LiberationSans-Italic
 70
     0
 40
0.0
 41
1.0
 50
0.0
 71
     0
 42
2.5
  3
LiberationSans-Italic.ttf
  4

  0
STYLE
  5
52
330
5
100
AcDbSymbolTableRecord
100
AcDbTextStyleTableRecord
  2
LiberationSerif
 70
     0
 40
0.0
 41
1.0
 50
0.0
 71
     0
 42
2.5
  3
LiberationSerif-Regular.ttf
  4

  0
STYLE
  5
53
330
5
100
AcDbSymbolTableRecord
100
AcDbTextStyleTableRecord
  2
LiberationSerif-Bold
 70
     0
 40
0.0
 41
1.0
 50
0.0
 71
     0
 42
2.5
  3
LiberationSerif-Bold.ttf
  4

  0
STYLE
  5
54
330
5
100
AcDbSymbolTableRecord
100
AcDbTextStyleTableRecord
  2
LiberationSerif-BoldItalic
 70
     0
 40
0.0
 41
1.0
 50
0.0
 71
     0
 42
2.5
  3
LiberationSerif-BoldItalic.ttf
  4

  0
STYLE
  5
55
330
5
100
AcDbSymbolTableRecord
100
AcDbTextStyleTableRecord
  2
LiberationSerif-Italic
 70
     0
 40
0.0
 41
1.0
 50
0.0
 71
     0
 42
2.5
  3
LiberationSerif-Italic.ttf
  4

  0
STYLE
  5
56
330
5
100
AcDbSymbolTableRecord
100
AcDbTextStyleTableRecord
  2
LiberationMono
 70
     0
 40
0.0
 41
1.0
 50
0.0
 71
     0
 42
2.5
  3
LiberationMono-Regular.ttf
  4

  0
STYLE
  5
57
330
5
100
AcDbSymbolTableRecord
100
AcDbTextStyleTableRecord
  2
LiberationMono-Bold
 70
     0
 40
0.0
 41
1.0
 50
0.0
 71
     0
 42
2.5
  3
LiberationMono-Bold.ttf
  4

  0
STYLE
  5
58
330
5
100
AcDbSymbolTableRecord
100
AcDbTextStyleTableRecord
  2
LiberationMono-BoldItalic
 70
     0
 40
0.0
 41
1.0
 50
0.0
 71
     0
 42
2.5
  3
LiberationMono-BoldItalic.ttf
  4

  0
STYLE
  5
59
330
5
100
AcDbSymbolTableRecord
100
AcDbTextStyleTableRecord
  2
LiberationMono-Italic
 70
     0
 40
0.0
 41
1.0
 50
0.0
 71
     0
 42
2.5
  3
LiberationMono-Italic.ttf
  4

  0
ENDTAB
  0
TABLE
  2
VIEW
  5
7
330
0
100
AcDbSymbolTable
 70
     1
  0
ENDTAB
  0
TABLE
  2
UCS
  5
6
330
0
100
AcDbSymbolTable
 70
     0
  0
ENDTAB
  0
TABLE
  2
APPID
  5
3
330
0
100
AcDbSymbolTable
 70
     5
  0
APPID
  5
2A
330
3
100
AcDbSymbolTableRecord
100
AcDbRegAppTableRecord
  2
ACAD
 70
     0
  0
APPID
  5
146
330
3
100
AcDbSymbolTableRecord
100
AcDbRegAppTableRecord
  2
HATCHBACKGROUNDCOLOR
 70
     0
  0
APPID
  5
147
330
3
100
AcDbSymbolTableRecord
100
AcDbRegAppTableRecord
  2
EZDXF
 70
     0
  0
APPID
  5
164
330
3
100
AcDbSymbolTableRecord
100
AcDbRegAppTableRecord
  2
ACAD_EXEMPT_FROM_CAD_STANDARDS
 70
     0
  0
APPID
  5
16E
330
3
100
AcDbSymbolTableRecord
100
AcDbRegAppTableRecord
  2
ACAD_NAV_VCDISPLAY
 70
     0
  0
ENDTAB
  0
TABLE
  2
DIMSTYLE
  5
4
330
0
100
AcDbSymbolTable
 70
    13
100
AcDbDimStyleTable
 71
     1
340
73
  0
DIMSTYLE
105
2B
330
4
100
AcDbSymbolTableRecord
100
AcDbDimStyleTableRecord
  2
Standard
 70
     0
 41
2.5
 42
0.625
 43
3.75
 44
1.25
 49
2.5
 73
     0
 74
     0
 77
     1
 78
     8
 79
     3
140
2.5
141
2.5
143
0.03937007874
147
0.625
171
     3
172
     1
179
     2
271
     2
272
     2
274
     3
278
    44
283
     0
284
     8
  0
DIMSTYLE
105
73
330
4
100
AcDbSymbolTableRecord
100
AcDbDimStyleTableRecord
  2
EZDXF
 70
     0
 41
0.175
 42
0.125
 43
3.75
 44
0.375
 49
2.5
 73
     0
 74
     0
 77
     1
 78
    12
 79
     3
140
0.25
141
2.5
143
0.03937007874
144
100.0
146
0.5
147
0.1
171
     3
172
     1
179
     2
271
     2
272
     2
274
     3
279
     2
283
     0
284
     8
288
     1
340
4C
342
74
  0
DIMSTYLE
105
7C
330
4
100
AcDbSymbolTableRecord
100
AcDbDimStyleTableRecord
  2
EZ_M_100_H25_CM
 70
     0
 41
0.25
 42
0.125
 43
3.75
 44
0.375
 49
2.5
 73
     0
 74
     0
 77
     1
 78
    12
 79
     3
140
0.25
141
2.5
142
0.125
143
0.03937007874
144
100.0
146
0.5
147
0.1
171
     3
172
     1
179
     2
271
     2
272
     2
274
     3
279
     2
283
     0
284
     8
288
     1
340
4C
  0
DIMSTYLE
105
7D
330
4
100
AcDbSymbolTableRecord
100
AcDbDimStyleTableRecord
  2
EZ_M_50_H25_CM
 70
     0
 41
0.125
 43
3.75
 44
0.1875
 49
2.5
 73
     0
 74
     0
 77
     1
 78
    12
 79
     3
140
0.125
141
2.5
142
0.0625
143
0.03937007874
144
100.0
146
0.5
147
0.05
171
     3
172
     1
179
     2
271
     2
272
     2
274
     3
279
     2
283
     0
284
     8
288
     1
340
4C
  0
DIMSTYLE
105
7E
330
4
100
AcDbSymbolTableRecord
100
AcDbDimStyleTableRecord
  2
EZ_M_25_H25_CM
 70
     0
 41
0.0625
 42
0.03125
 43
3.75
 44
0.09375
 49
2.5
 73
     0
 74
     0
 77
     1
 78
    12
 79
     3
140
0.0625
141
2.5
142
0.03125
143
0.03937007874
144
100.0
146
0.5
147
0.025
171
     3
172
     1
179
     2
271
     2
272
     2
274
     3
279
     2
283
     0
284
     8
288
     1
340
4C
  0
DIMSTYLE
105
7F
330
4
100
AcDbSymbolTableRecord
100
AcDbDimStyleTableRecord
  2
EZ_M_20_H25_CM
 70
     0
 41
0.05
 42
0.025
 43
3.75
 44
0.075
 49
2.5
 73
     0
 74
     0
 77
     1
 78
    12
 79
     3
140
0.05
141
2.5
142
0.025
143
0.03937007874
144
100.0
146
0.5
147
0.02
171
     3
172
     1
179
     2
271
     2
272
     2
274
     3
279
     2
283
     0
284
     8
288
     1
340
4C
  0
DIMSTYLE
105
80
330
4
100
AcDbSymbolTableRecord
100
AcDbDimStyleTableRecord
  2
EZ_M_10_H25_CM
 70
     0
 41
0.025
 42
0.0125
 43
3.75
 44
0.0375
 49
2.5
 73
     0
 74
     0
 77
     1
 78
    12
 79
     3
140
0.025
141
2.5
142
0.0125
143
0.03937007874
144
100.0
146
0.5
147
0.01
171
     3
172
     1
179
     2
271
     2
272
     2
274
     3
279
     2
283
     0
284
     8
288
     1
340
4C
  0
DIMSTYLE
105
81
330
4
100
AcDbSymbolTableRecord
100
AcDbDimStyleTableRecord
  2
EZ_M_5_H25_CM
 70
     0
 41
0.0125
 42
0.00625
 43
3.75
 44
0.01875
 49
2.5
 73
     0
 74
     0
 77
     1
 78
    12
 79
     3
140
0.0125
141
2.5
142
0.00625
143
0.03937007874
144
100.0
146
0.5
147
0.005
171
     3
172
     1
179
     2
271
     2
272
     2
274
     3
279
     2
283
     0
284
     8
288
     1
340
4C
  0
DIMSTYLE
105
82
330
4
100
AcDbSymbolTableRecord
100
AcDbDimStyleTableRecord
  2
EZ_M_1_H25_CM
 70
     0
 41
0.0025
 42
0.00125
 43
3.75
 44
0.00375
 49
2.5
 73
     0
 74
     0
 77
     1
 78
    12
 79
     3
140
0.0025
141
2.5
142
0.00125
143
0.03937007874
144
100.0
146
0.5
147
0.001
171
     3
172
     1
179
     2
271
     2
272
     2
274
     3
279
     2
283
     0
284
     8
288
     1
340
4C
  0
DIMSTYLE
105
83
330
4
100
AcDbSymbolTableRecord
100
AcDbDimStyleTableRecord
  2
EZ_RADIUS
 70
     0
 41
0.25
 42
0.125
 43
3.75
 44
0.375
 49
2.5
 73
     0
 74
     0
 77
     1
 78
    12
 79
     3
140
0.25
141
0.0
143
0.03937007874
144
100.0
146
0.5
147
0.1
171
     3
179
     2
271
     2
272
     2
274
     3
279
     1
283
     0
284
     8
288
     1
340
4C
342
84
  0
DIMSTYLE
105
88
330
4
100
AcDbSymbolTableRecord
100
AcDbDimStyleTableRecord
  2
EZ_RADIUS_INSIDE
 70
     0
 41
0.25
 42
0.125
 43
3.75
 44
0.375
 49
2.5
 73
     0
 74
     0
 78
    12
 79
     3
140
0.25
141
0.0
143
0.03937007874
144
100.0
146
0.5
147
0.1
171
     3
174
     1
179
     2
271
     2
272
     2
274
     3
283
     0
284
     8
288
     1
289
     0
340
4C
342
84
  0
DIMSTYLE
105
89
330
4
100
AcDbSymbolTableRecord
100
AcDbDimStyleTableRecord
  2
EZ_CURVED
 70
     0
 41
0.25
 42
0.125
 43
3.75
 44
0.375
 49
2.5
 73
     0
 74
     0
 77
     1
 78
    12
 79
     2
 90
     2
140
0.25
141
2.5
143
0.03937007874
144
100.0
146
0.5
147
0.1
171
     3
172
     1
179
     2
271
     2
272
     2
274
     3
279
     2
283
     0
284
     8
288
     1
340
4C
  0
ENDTAB
  0
TABLE
  2
BLOCK_RECORD
  5
9
330
0
100
AcDbSymbolTable
 70
     4
  0
BLOCK_RECORD
  5
17
330
9
100
AcDbSymbolTableRecord
100
AcDbBlockTableRecord
  2
*Model_Space
340
1A
 70
     0
280
     1
281
     0
  0
BLOCK_RECORD
  5
1B
330
9
100
AcDbSymbolTableRecord
100
AcDbBlockTableRecord
  2
*Paper_Space
340
1E
 70
     0
280
     1
281
     0
  0
BLOCK_RECORD
  5
74
330
9
100
AcDbSymbolTableRecord
100
AcDbBlockTableRecord
  2
_ARCHTICK
340
0
 70
     0
280
     1
281
     0
  0
BLOCK_RECORD
  5
78
330
9
100
AcDbSymbolTableRecord
100
AcDbBlockTableRecord
  2
_CLOSEDFILLED
340
0
 70
     0
280
     1
281
     0
  0
BLOCK_RECORD
  5
84
330
9
100
AcDbSymbolTableRecord
100
AcDbBlockTableRecord
  2
_CLOSEDBLANK
340
0
 70
     0
280
     1
281
     0
  0
ENDTAB
  0
ENDSEC
  0
SECTION
  2
BLOCKS
  0
BLOCK
  5
18
330
17
100
AcDbEntity
  8
0
100
AcDbBlockBegin
  2
*Model_Space
 70
     0
 10
0.0
 20
0.0
 30
0.0
  3
*Model_Space
  1

  0
ENDBLK
  5
19
330
17
100
AcDbEntity
  8
0
100
AcDbBlockEnd
  0
BLOCK
  5
1C
330
1B
100
AcDbEntity
 67
     1
  8
0
100
AcDbBlockBegin
  2
*Paper_Space
 70
     0
 10
0.0
 20
0.0
 30
0.0
  3
*Paper_Space
  1

  0
ENDBLK
  5
1D
330
1B
100
AcDbEntity
 67
     1
  8
0
100
AcDbBlockEnd
  0
BLOCK
  5
75
330
74
100
AcDbEntity
  8
0
100
AcDbBlockBegin
  2
_ARCHTICK
 70
     0
 10
0.0
 20
0.0
 30
0.0
  3
_ARCHTICK
  1

  0
LWPOLYLINE
  5
77
330
74
100
AcDbEntity
  8
0
  6
ByBlock
 62
     0
100
AcDbPolyline
 90
        2
 70
     0
 43
0.15
 10
-0.5
 20
-0.5000000000000001
 10
0.5000000000000001
 20
0.5000000000000001
  0
ENDBLK
  5
76
330
74
100
AcDbEntity
  8
0
100
AcDbBlockEnd
  0
BLOCK
  5
79
330
78
100
AcDbEntity
  8
0
100
AcDbBlockBegin
  2
_CLOSEDFILLED
 70
     0
 10
0.0
 20
0.0
 30
0.0
  3
_CLOSEDFILLED
  1

  0
SOLID
  5
7B
330
78
100
AcDbEntity
  8
0
  6
ByBlock
 62
     0
100
AcDbTrace
 10
-1.0
 20
0.1643989837240255
 30
0.0
 11
0.0
 21
0.0
 31
0.0
 12
-1.0
 22
-0.1643989837240255
 32
0.0
 13
-1.0
 23
-0.1643989837240255
 33
0.0
  0
ENDBLK
  5
7A
330
78
100
AcDbEntity
  8
0
100
AcDbBlockEnd
  0
BLOCK
  5
85
330
84
100
AcDbEntity
  8
0
100
AcDbBlockBegin
  2
_CLOSEDBLANK
 70
     0
 10
0.0
 20
0.0
 30
0.0
  3
_CLOSEDBLANK
  1

  0
LWPOLYLINE
  5
87
330
84
100
AcDbEntity
  8
0
  6
ByBlock
 62
     0
100
AcDbPolyline
 90
        3
 70
     1
 43
0.0
 10
-1.0
 20
0.1643989837240255
 10
0.0
 20
0.0
 10
-1.0
 20
-0.1643989837240255
  0
ENDBLK
  5
86
330
84
100
AcDbEntity
  8
0
100
AcDbBlockEnd
  0
ENDSEC
  0
SECTION
  2
ENTITIES
  0
LINE
  5
8E
330
17
100
AcDbEntity
  8
Valley
100
AcDbLine
 10
0.0007611022281013
 20
23.2
 30
0.0
 11
22.39039173445831
 21
23.2
 31
0.0
  0
LINE
  5
8F
330
17
100
AcDbEntity
  8
Valley
100
AcDbLine
 10
22.39039173445831
 20
23.8
 30
0.0
 11
0.0007611022281013
 21
23.8
 31
0.0
  0
LINE
  5
90
330
17
100
AcDbEntity
  8
Border
100
AcDbLine
 10
0.0007611022281013
 20
23.2
 30
0.0
 11
0.0007611022281013
 21
23.8
 31
0.0
  0
LINE
  5
91
330
17
100
AcDbEntity
  8
Border
100
AcDbLine
 10
22.39039173445831
 20
23.8
 30
0.0
 11
22.39039173445831
 21
23.2
 31
0.0
  0
LINE
  5
92
330
17
100
AcDbEntity
  8
Mountain
100
AcDbLine
 10
22.39039173445831
 20
23.2
 30
0.0
 11
-0.0170808536302739
 21
0.7946857479764301
 31
0.0
  0
LINE
  5
93
330
17
100
AcDbEntity
  8
Border
100
AcDbLine
 10
1.310579462442735
 20
0.001
 30
0.0
 11
24.0
 21
22.68823504365794
 31
0.0
  0
LINE
  5
94
330
17
100
AcDbEntity
  8
Border
100
AcDbLine
 10
22.39039173445831
 20
23.2
 30
0.0
 11
24.0
 21
22.68823504365794
 31
0.0
  0
LINE
  5
95
330
17
100
AcDbEntity
  8
Border
100
AcDbLine
 10
1.310579462442735
 20
0.001
 30
0.0
 11
-0.0170808536302739
 21
0.7946857479764301
 31
0.0
  0
LINE
  5
96
330
17
100
AcDbEntity
  8
Mountain
100
AcDbLine
 10
-0.017080853630274
 20
46.20531425202358
 30
0.0
 11
22.39039173445831
 21
23.8
 31
0.0
  0
LINE
  5
97
330
17
100
AcDbEntity
  8
Mountain
100
AcDbLine
 10
24.0
 20
24.31176495634205
 30
0.0
 11
1.609608265541678
 21
46.7
 31
0.0
  0
LINE
  5
98
330
17
100
AcDbEntity
  8
Border
100
AcDbLine
 10
-0.017080853630274
 20
46.20531425202358
 30
0.0
 11
1.609608265541678
 21
46.7
 31
0.0
  0
LINE
  5
99
330
17
100
AcDbEntity
  8
Border
100
AcDbLine
 10
24.0
 20
24.31176495634205
 30
0.0
 11
22.39039173445831
 21
23.8
 31
0.0
  0
LINE
  5
9A
330
17
100
AcDbEntity
  8
Mountain
100
AcDbLine
 10
24.0
 20
22.68823504365794
 30
0.0
 11
46.68942053755727
 21
0.001
 31
0.0
  0
LINE
  5
9B
330
17
100
AcDbEntity
  8
Border
100
AcDbLine
 10
47.70102484719072
 20
1.110711311220093
 30
0.0
 11
25.60960826554168
 21
23.20000000000001
 31
0.0
  0
LINE
  5
9C
330
17
100
AcDbEntity
  8
Border
100
AcDbLine
 10
24.0
 20
22.68823504365794
 30
0.0
 11
25.60960826554168
 21
23.20000000000001
 31
0.0
  0
LINE
  5
9D
330
17
100
AcDbEntity
  8
Border
100
AcDbLine
 10
47.70102484719072
 20
1.110711311220093
 30
0.0
 11
46.68942053755727
 21
0.001
 31
0.0
  0
LINE
  5
9E
330
17
100
AcDbEntity
  8
Valley
100
AcDbLine
 10
46.39039173445831
 20
46.7
 30
0.0
 11
24.0
 21
24.31176495634205
 31
0.0
  0
LINE
  5
9F
330
17
100
AcDbEntity
  8
Mountain
100
AcDbLine
 10
25.60960826554169
 20
23.8
 30
0.0
 11
47.70102484719072
 21
45.8892886887799
 31
0.0
  0
LINE
  5
A0
330
17
100
AcDbEntity
  8
Border
100
AcDbLine
 10
46.39039173445831
 20
46.7
 30
0.0
 11
47.70102484719072
 21
45.8892886887799
 31
0.0
  0
LINE
  5
A1
330
17
100
AcDbEntity
  8
Border
100
AcDbLine
 10
25.60960826554169
 20
23.8
 30
0.0
 11
24.0
 21
24.31176495634205
 31
0.0
  0
LINE
  5
A2
330
17
100
AcDbEntity
  8
Mountain
100
AcDbLine
 10
1.609608265541678
 20
46.7
 30
0.0
 11
46.39039173445831
 21
46.7
 31
0.0
  0
LINE
  5
A3
330
17
100
AcDbEntity
  8
Mountain
100
AcDbLine
 10
46.39039173445831
 20
47.29999999999999
 30
0.0
 11
1.609608265541685
 21
47.29999999999999
 31
0.0
  0
LINE
  5
A4
330
17
100
AcDbEntity
  8
Border
100
AcDbLine
 10
1.609608265541678
 20
46.7
 30
0.0
 11
1.609608265541685
 21
47.29999999999999
 31
0.0
  0
LINE
  5
A5
330
17
100
AcDbEntity
  8
Border
100
AcDbLine
 10
46.39039173445831
 20
47.29999999999999
 30
0.0
 11
46.39039173445831
 21
46.7
 31
0.0
  0
LINE
  5
A6
330
17
100
AcDbEntity
  8
Valley
100
AcDbLine
 10
25.60960826554168
 20
23.20000000000001
 30
0.0
 11
47.69889705680319
 21
23.20000000000001
 31
0.0
  0
LINE
  5
A7
330
17
100
AcDbEntity
  8
Valley
100
AcDbLine
 10
47.6988970568032
 20
23.8
 30
0.0
 11
25.60960826554169
 21
23.8
 31
0.0
  0
LINE
  5
A8
330
17
100
AcDbEntity
  8
Border
100
AcDbLine
 10
25.60960826554168
 20
23.20000000000001
 30
0.0
 11
25.60960826554169
 21
23.8
 31
0.0
  0
LINE
  5
A9
330
17
100
AcDbEntity
  8
Border
100
AcDbLine
 10
47.6988970568032
 20
23.8
 30
0.0
 11
47.69889705680319
 21
23.20000000000001
 31
0.0
  0
LINE
  5
AA
330
17
100
AcDbEntity
  8
Valley
100
AcDbLine
 10
47.69889705680319
 20
23.20000000000001
 30
0.0
 11
47.70102484719072
 21
1.110711311220093
 31
0.0
  0
LINE
  5
AB
330
17
100
AcDbEntity
  8
Border
100
AcDbLine
 10
48.30113174490858
 20
0.001
 30
0.0
 11
48.29897515280928
 21
22.38928868877989
 31
0.0
  0
LINE
  5
AC
330
17
100
AcDbEntity
  8
Border
100
AcDbLine
 10
47.69889705680319
 20
23.20000000000001
 30
0.0
 11
48.29897515280928
 21
22.38928868877989
 31
0.0
  0
LINE
  5
AD
330
17
100
AcDbEntity
  8
Border
100
AcDbLine
 10
48.30113174490858
 20
0.001
 30
0.0
 11
47.70102484719072
 21
1.110711311220093
 31
0.0
  0
LINE
  5
AE
330
17
100
AcDbEntity
  8
Mountain
100
AcDbLine
 10
47.70102484719072
 20
45.8892886887799
 30
0.0
 11
47.6988970568032
 21
23.8
 31
0.0
  0
LINE
  5
AF
330
17
100
AcDbEntity
  8
Mountain
100
AcDbLine
 10
48.29897515280933
 20
24.61071131122014
 30
0.0
 11
48.30110294319682
 21
46.7
 31
0.0
  0
LINE
  5
B0
330
17
100
AcDbEntity
  8
Border
100
AcDbLine
 10
47.70102484719072
 20
45.8892886887799
 30
0.0
 11
48.30110294319682
 21
46.7
 31
0.0
  0
LINE
  5
B1
330
17
100
AcDbEntity
  8
Border
100
AcDbLine
 10
48.29897515280933
 20
24.61071131122014
 30
0.0
 11
47.6988970568032
 21
23.8
 31
0.0
  0
LINE
  5
B2
330
17
100
AcDbEntity
  8
Mountain
100
AcDbLine
 10
48.29897515280928
 20
22.38928868877989
 30
0.0
 11
70.68942053755725
 21
0.001
 31
0.0
  0
LINE
  5
B3
330
17
100
AcDbEntity
  8
Border
100
AcDbLine
 10
72.0
 20
0.8117649563420576
 30
0.0
 11
49.6096082655417
 21
23.2
 31
0.0
  0
LINE
  5
B4
330
17
100
AcDbEntity
  8
Border
100
AcDbLine
 10
48.29897515280928
 20
22.38928868877989
 30
0.0
 11
49.6096082655417
 21
23.2
 31
0.0
  0
LINE
  5
B5
330
17
100
AcDbEntity
  8
Border
100
AcDbLine
 10
72.0
 20
0.8117649563420576
 30
0.0
 11
70.68942053755725
 21
0.001
 31
0.0
  0
LINE
  5
B6
330
17
100
AcDbEntity
  8
Valley
100
AcDbLine
 10
70.39039173445833
 20
46.7
 30
0.0
 11
48.29897515280933
 21
24.61071131122014
 31
0.0
  0
LINE
  5
B7
330
17
100
AcDbEntity
  8
Mountain
100
AcDbLine
 10
49.6096082655417
 20
23.8
 30
0.0
 11
72.00000000000001
 21
46.18823504365793
 31
0.0
  0
LINE
  5
B8
330
17
100
AcDbEntity
  8
Border
100
AcDbLine
 10
70.39039173445833
 20
46.7
 30
0.0
 11
72.00000000000001
 21
46.18823504365793
 31
0.0
  0
LINE
  5
B9
330
17
100
AcDbEntity
  8
Border
100
AcDbLine
 10
49.6096082655417
 20
23.8
 30
0.0
 11
48.29897515280933
 21
24.61071131122014
 31
0.0
  0
LINE
  5
BA
330
17
100
AcDbEntity
  8
Valley
100
AcDbLine
 10
48.30110294319682
 20
46.7
 30
0.0
 11
70.39039173445833
 21
46.7
 31
0.0
  0
LINE
  5
BB
330
17
100
AcDbEntity
  8
Mountain
100
AcDbLine
 10
70.39039173445833
 20
47.29999999999999
 30
0.0
 11
48.3011029431968
 21
47.29999999999999
 31
0.0
  0
LINE
  5
BC
330
17
100
AcDbEntity
  8
Border
100
AcDbLine
 10
48.30110294319682
 20
46.7
 30
0.0
 11
48.3011029431968
 21
47.29999999999999
 31
0.0
  0
LINE
  5
BD
330
17
100
AcDbEntity
  8
Border
100
AcDbLine
 10
70.39039173445833
 20
47.29999999999999
 30
0.0
 11
70.39039173445833
 21
46.7
 31
0.0
  0
LINE
  5
BE
330
17
100
AcDbEntity
  8
Valley
100
AcDbLine
 10
49.6096082655417
 20
23.2
 30
0.0
 11
94.39039173445827
 21
23.2
 31
0.0
  0
LINE
  5
BF
330
17
100
AcDbEntity
  8
Valley
100
AcDbLine
 10
94.39039173445827
 20
23.8
 30
0.0
 11
49.6096082655417
 21
23.8
 31
0.0
  0
LINE
  5
C0
330
17
100
AcDbEntity
  8
Border
100
AcDbLine
 10
49.6096082655417
 20
23.2
 30
0.0
 11
49.6096082655417
 21
23.8
 31
0.0
  0
LINE
  5
C1
330
17
100
AcDbEntity
  8
Border
100
AcDbLine
 10
94.39039173445827
 20
23.8
 30
0.0
 11
94.39039173445827
 21
23.2
 31
0.0
  0
LINE
  5
C2
330
17
100
AcDbEntity
  8
Mountain
100
AcDbLine
 10
94.39039173445827
 20
23.2
 30
0.0
 11
72.0
 21
0.8117649563420576
 31
0.0
  0
LINE
  5
C3
330
17
100
AcDbEntity
  8
Border
100
AcDbLine
 10
73.31057946244275
 20
0.001
 30
0.0
 11
95.70102484719074
 21
22.38928868877992
 31
0.0
  0
LINE
  5
C4
330
17
100
AcDbEntity
  8
Border
100
AcDbLine
 10
94.39039173445827
 20
23.2
 30
0.0
 11
95.70102484719074
 21
22.38928868877992
 31
0.0
  0
LINE
  5
C5
330
17
100
AcDbEntity
  8
Border
100
AcDbLine
 10
73.31057946244275
 20
0.001
 30
0.0
 11
72.0
 21
0.8117649563420576
 31
0.0
  0
LINE
  5
C6
330
17
100
AcDbEntity
  8
Mountain
100
AcDbLine
 10
72.00000000000001
 20
46.18823504365793
 30
0.0
 11
94.39039173445827
 21
23.8
 31
0.0
  0
LINE
  5
C7
330
17
100
AcDbEntity
  8
Mountain
100
AcDbLine
 10
95.70102484719072
 20
24.61071131122014
 30
0.0
 11
73.60960826554168
 21
46.7
 31
0.0
  0
LINE
  5
C8
330
17
100
AcDbEntity
  8
Border
100
AcDbLine
 10
72.00000000000001
 20
46.18823504365793
 30
0.0
 11
73.60960826554168
 21
46.7
 31
0.0
  0
LINE
  5
C9
330
17
100
AcDbEntity
  8
Border
100
AcDbLine
 10
95.70102484719072
 20
24.61071131122014
 30
0.0
 11
94.39039173445827
 21
23.8
 31
0.0
  0
LINE
  5
CA
330
17
100
AcDbEntity
  8
Mountain
100
AcDbLine
 10
95.70102484719074
 20
22.38928868877992
 30
0.0
 11
95.69886825509144
 21
0.001
 31
0.0
  0
LINE
  5
CB
330
17
100
AcDbEntity
  8
Border
100
AcDbLine
 10
96.29897515280932
 20
1.11071131122011
 30
0.0
 11
96.30110294319679
 21
23.20000000000001
 31
0.0
  0
LINE
  5
CC
330
17
100
AcDbEntity
  8
Border
100
AcDbLine
 10
95.70102484719074
 20
22.38928868877992
 30
0.0
 11
96.30110294319679
 21
23.20000000000001
 31
0.0
  0
LINE
  5
CD
330
17
100
AcDbEntity
  8
Border
100
AcDbLine
 10
96.29897515280932
 20
1.11071131122011
 30
0.0
 11
95.69886825509144
 21
0.001
 31
0.0
  0
LINE
  5
CE
330
17
100
AcDbEntity
  8
Valley
100
AcDbLine
 10
95.69889705680321
 20
46.7
 30
0.0
 11
95.70102484719072
 21
24.61071131122014
 31
0.0
  0
LINE
  5
CF
330
17
100
AcDbEntity
  8
Valley
100
AcDbLine
 10
96.30110294319679
 20
23.8
 30
0.0
 11
96.29897515280928
 21
45.88928868877992
 31
0.0
  0
LINE
  5
D0
330
17
100
AcDbEntity
  8
Border
100
AcDbLine
 10
95.69889705680321
 20
46.7
 30
0.0
 11
96.29897515280928
 21
45.88928868877992
 31
0.0
  0
LINE
  5
D1
330
17
100
AcDbEntity
  8
Border
100
AcDbLine
 10
96.30110294319679
 20
23.8
 30
0.0
 11
95.70102484719072
 21
24.61071131122014
 31
0.0
  0
LINE
  5
D2
330
17
100
AcDbEntity
  8
Mountain
100
AcDbLine
 10
73.60960826554168
 20
46.7
 30
0.0
 11
95.69889705680321
 21
46.7
 31
0.0
  0
LINE
  5
D3
330
17
100
AcDbEntity
  8
Valley
100
AcDbLine
 10
95.69889705680321
 20
47.29999999999999
 30
0.0
 11
73.60960826554165
 21
47.29999999999999
 31
0.0
  0
LINE
  5
D4
330
17
100
AcDbEntity
  8
Border
100
AcDbLine
 10
73.60960826554168
 20
46.7
 30
0.0
 11
73.60960826554165
 21
47.29999999999999
 31
0.0
  0
LINE
  5
D5
330
17
100
AcDbEntity
  8
Border
100
AcDbLine
 10
95.69889705680321
 20
47.29999999999999
 30
0.0
 11
95.69889705680321
 21
46.7
 31
0.0
  0
LINE
  5
D6
330
17
100
AcDbEntity
  8
Valley
100
AcDbLine
 10
96.30110294319679
 20
23.20000000000001
 30
0.0
 11
118.3903917344583
 21
23.20000000000001
 31
0.0
  0
LINE
  5
D7
330
17
100
AcDbEntity
  8
Valley
100
AcDbLine
 10
118.3903917344583
 20
23.8
 30
0.0
 11
96.30110294319679
 21
23.8
 31
0.0
  0
LINE
  5
D8
330
17
100
AcDbEntity
  8
Border
100
AcDbLine
 10
96.30110294319679
 20
23.20000000000001
 30
0.0
 11
96.30110294319679
 21
23.8
 31
0.0
  0
LINE
  5
D9
330
17
100
AcDbEntity
  8
Border
100
AcDbLine
 10
118.3903917344583
 20
23.8
 30
0.0
 11
118.3903917344583
 21
23.20000000000001
 31
0.0
  0
LINE
  5
DA
330
17
100
AcDbEntity
  8
Mountain
100
AcDbLine
 10
118.3903917344583
 20
23.20000000000001
 30
0.0
 11
96.29897515280932
 21
1.11071131122011
 31
0.0
  0
LINE
  5
DB
330
17
100
AcDbEntity
  8
Border
100
AcDbLine
 10
97.31057946244277
 20
0.001
 30
0.0
 11
120.0
 21
22.68823504365792
 31
0.0
  0
LINE
  5
DC
330
17
100
AcDbEntity
  8
Border
100
AcDbLine
 10
118.3903917344583
 20
23.20000000000001
 30
0.0
 11
120.0
 21
22.68823504365792
 31
0.0
  0
LINE
  5
DD
330
17
100
AcDbEntity
  8
Border
100
AcDbLine
 10
97.31057946244277
 20
0.001
 30
0.0
 11
96.29897515280932
 21
1.11071131122011
 31
0.0
  0
LINE
  5
DE
330
17
100
AcDbEntity
  8
Mountain
100
AcDbLine
 10
96.29897515280928
 20
45.88928868877992
 30
0.0
 11
118.3903917344583
 21
23.8
 31
0.0
  0
LINE
  5
DF
330
17
100
AcDbEntity
  8
Mountain
100
AcDbLine
 10
120.0
 20
24.31176495634204
 30
0.0
 11
97.60960826554173
 21
46.7
 31
0.0
  0
LINE
  5
E0
330
17
100
AcDbEntity
  8
Border
100
AcDbLine
 10
96.29897515280928
 20
45.88928868877992
 30
0.0
 11
97.60960826554173
 21
46.7
 31
0.0
  0
LINE
  5
E1
330
17
100
AcDbEntity
  8
Border
100
AcDbLine
 10
120.0
 20
24.31176495634204
 30
0.0
 11
118.3903917344583
 21
23.8
 31
0.0
  0
LINE
  5
E2
330
17
100
AcDbEntity
  8
Mountain
100
AcDbLine
 10
120.0
 20
22.68823504365792
 30
0.0
 11
142.6894205375571
 21
0.001
 31
0.0
  0
LINE
  5
E3
330
17
100
AcDbEntity
  8
Border
100
AcDbLine
 10
143.9809479165961
 20
0.8308152046082167
 30
0.0
 11
121.6096082655417
 21
23.2
 31
0.0
  0
LINE
  5
E4
330
17
100
AcDbEntity
  8
Border
100
AcDbLine
 10
120.0
 20
22.68823504365792
 30
0.0
 11
121.6096082655417
 21
23.2
 31
0.0
  0
LINE
  5
E5
330
17
100
AcDbEntity
  8
Border
100
AcDbLine
 10
143.9809479165961
 20
0.8308152046082167
 30
0.0
 11
142.6894205375571
 21
0.001
 31
0.0
  0
LINE
  5
E6
330
17
100
AcDbEntity
  8
Valley
100
AcDbLine
 10
142.3903917344583
 20
46.7
 30
0.0
 11
120.0
 21
24.31176495634204
 31
0.0
  0
LINE
  5
E7
330
17
100
AcDbEntity
  8
Mountain
100
AcDbLine
 10
121.6096082655417
 20
23.8
 30
0.0
 11
143.9809479165961
 21
46.16918479539174
 31
0.0
  0
LINE
  5
E8
330
17
100
AcDbEntity
  8
Border
100
AcDbLine
 10
142.3903917344583
 20
46.7
 30
0.0
 11
143.9809479165961
 21
46.16918479539174
 31
0.0
  0
LINE
  5
E9
330
17
100
AcDbEntity
  8
Border
100
AcDbLine
 10
121.6096082655417
 20
23.8
 30
0.0
 11
120.0
 21
24.31176495634204
 31
0.0
  0
LINE
  5
EA
330
17
100
AcDbEntity
  8
Mountain
100
AcDbLine
 10
97.60960826554173
 20
46.7
 30
0.0
 11
142.3903917344583
 21
46.7
 31
0.0
  0
LINE
  5
EB
330
17
100
AcDbEntity
  8
Mountain
100
AcDbLine
 10
142.3903917344583
 20
47.29999999999999
 30
0.0
 11
97.60960826554168
 21
47.29999999999999
 31
0.0
  0
LINE
  5
EC
330
17
100
AcDbEntity
  8
Border
100
AcDbLine
 10
97.60960826554173
 20
46.7
 30
0.0
 11
97.60960826554168
 21
47.29999999999999
 31
0.0
  0
LINE
  5
ED
330
17
100
AcDbEntity
  8
Border
100
AcDbLine
 10
142.3903917344583
 20
47.29999999999999
 30
0.0
 11
142.3903917344583
 21
46.7
 31
0.0
  0
LINE
  5
EE
330
17
100
AcDbEntity
  8
Valley
100
AcDbLine
 10
121.6096082655417
 20
23.2
 30
0.0
 11
143.998761101594
 21
23.2
 31
0.0
  0
LINE
  5
EF
330
17
100
AcDbEntity
  8
Valley
100
AcDbLine
 10
143.9987611015939
 20
23.8
 30
0.0
 11
121.6096082655417
 21
23.8
 31
0.0
  0
LINE
  5
F0
330
17
100
AcDbEntity
  8
Border
100
AcDbLine
 10
121.6096082655417
 20
23.2
 30
0.0
 11
121.6096082655417
 21
23.8
 31
0.0
  0
LINE
  5
F1
330
17
100
AcDbEntity
  8
Border
100
AcDbLine
 10
143.9987611015939
 20
23.8
 30
0.0
 11
143.998761101594
 21
23.2
 31
0.0
  0
LINE
  5
F2
330
17
100
AcDbEntity
  8
Valley
100
AcDbLine
 10
0.0007611022281013
 20
70.2
 30
0.0
 11
22.39039173445832
 21
70.2
 31
0.0
  0
LINE
  5
F3
330
17
100
AcDbEntity
  8
Valley
100
AcDbLine
 10
22.3903917344583
 20
70.8
 30
0.0
 11
0.0007611022281013
 21
70.8
 31
0.0
  0
LINE
  5
F4
330
17
100
AcDbEntity
  8
Border
100
AcDbLine
 10
0.0007611022281013
 20
70.2
 30
0.0
 11
0.0007611022281013
 21
70.8
 31
0.0
  0
LINE
  5
F5
330
17
100
AcDbEntity
  8
Border
100
AcDbLine
 10
22.3903917344583
 20
70.8
 30
0.0
 11
22.39039173445832
 21
70.2
 31
0.0
  0
LINE
  5
F6
330
17
100
AcDbEntity
  8
Mountain
100
AcDbLine
 10
22.39039173445832
 20
70.2
 30
0.0
 11
-0.017080853630274
 21
47.79468574797641
 31
0.0
  0
LINE
  5
F7
330
17
100
AcDbEntity
  8
Valley
100
AcDbLine
 10
1.609608265541685
 20
47.29999999999999
 30
0.0
 11
24.0
 21
69.68823504365794
 31
0.0
  0
LINE
  5
F8
330
17
100
AcDbEntity
  8
Border
100
AcDbLine
 10
22.39039173445832
 20
70.2
 30
0.0
 11
24.0
 21
69.68823504365794
 31
0.0
  0
LINE
  5
F9
330
17
100
AcDbEntity
  8
Border
100
AcDbLine
 10
1.609608265541685
 20
47.29999999999999
 30
0.0
 11
-0.017080853630274
 21
47.79468574797641
 31
0.0
  0
LINE
  5
FA
330
17
100
AcDbEntity
  8
Border
100
AcDbLine
 10
-0.0170808536302739
 20
93.20531425202357
 30
0.0
 11
22.3903917344583
 21
70.8
 31
0.0
  0
LINE
  5
FB
330
17
100
AcDbEntity
  8
Mountain
100
AcDbLine
 10
24.00000000000001
 20
71.31176495634204
 30
0.0
 11
1.310579462442734
 21
93.999
 31
0.0
  0
LINE
  5
FC
330
17
100
AcDbEntity
  8
Border
100
AcDbLine
 10
-0.0170808536302739
 20
93.20531425202357
 30
0.0
 11
1.310579462442734
 21
93.999
 31
0.0
  0
LINE
  5
FD
330
17
100
AcDbEntity
  8
Border
100
AcDbLine
 10
24.00000000000001
 20
71.31176495634204
 30
0.0
 11
22.3903917344583
 21
70.8
 31
0.0
  0
LINE
  5
FE
330
17
100
AcDbEntity
  8
Mountain
100
AcDbLine
 10
24.0
 20
69.68823504365794
 30
0.0
 11
46.39039173445831
 21
47.29999999999999
 31
0.0
  0
LINE
  5
FF
330
17
100
AcDbEntity
  8
Mountain
100
AcDbLine
 10
47.70102484719072
 20
48.11071131122012
 30
0.0
 11
25.60960826554171
 21
70.19999999999999
 31
0.0
  0
LINE
  5
100
330
17
100
AcDbEntity
  8
Border
100
AcDbLine
 10
24.0
 20
69.68823504365794
 30
0.0
 11
25.60960826554171
 21
70.19999999999999
 31
0.0
  0
LINE
  5
101
330
17
100
AcDbEntity
  8
Border
100
AcDbLine
 10
47.70102484719072
 20
48.11071131122012
 30
0.0
 11
46.39039173445831
 21
47.29999999999999
 31
0.0
  0
LINE
  5
102
330
17
100
AcDbEntity
  8
Border
100
AcDbLine
 10
46.68942053755727
 20
93.999
 30
0.0
 11
24.00000000000001
 21
71.31176495634204
 31
0.0
  0
LINE
  5
103
330
17
100
AcDbEntity
  8
Mountain
100
AcDbLine
 10
25.60960826554167
 20
70.79999999999998
 30
0.0
 11
47.70102484719072
 21
92.88928868877993
 31
0.0
  0
LINE
  5
104
330
17
100
AcDbEntity
  8
Border
100
AcDbLine
 10
46.68942053755727
 20
93.999
 30
0.0
 11
47.70102484719072
 21
92.88928868877993
 31
0.0
  0
LINE
  5
105
330
17
100
AcDbEntity
  8
Border
100
AcDbLine
 10
25.60960826554167
 20
70.79999999999998
 30
0.0
 11
24.00000000000001
 21
71.31176495634204
 31
0.0
  0
LINE
  5
106
330
17
100
AcDbEntity
  8
Valley
100
AcDbLine
 10
25.60960826554171
 20
70.19999999999999
 30
0.0
 11
47.69889705680319
 21
70.19999999999999
 31
0.0
  0
LINE
  5
107
330
17
100
AcDbEntity
  8
Valley
100
AcDbLine
 10
47.6988970568032
 20
70.79999999999998
 30
0.0
 11
25.60960826554167
 21
70.79999999999998
 31
0.0
  0
LINE
  5
108
330
17
100
AcDbEntity
  8
Border
100
AcDbLine
 10
25.60960826554171
 20
70.19999999999999
 30
0.0
 11
25.60960826554167
 21
70.79999999999998
 31
0.0
  0
LINE
  5
109
330
17
100
AcDbEntity
  8
Border
100
AcDbLine
 10
47.6988970568032
 20
70.79999999999998
 30
0.0
 11
47.69889705680319
 21
70.19999999999999
 31
0.0
  0
LINE
  5
10A
330
17
100
AcDbEntity
  8
Valley
100
AcDbLine
 10
47.69889705680319
 20
70.19999999999999
 30
0.0
 11
47.70102484719072
 21
48.11071131122012
 31
0.0
  0
LINE
  5
10B
330
17
100
AcDbEntity
  8
Valley
100
AcDbLine
 10
48.3011029431968
 20
47.29999999999999
 30
0.0
 11
48.29897515280928
 21
69.38928868877988
 31
0.0
  0
LINE
  5
10C
330
17
100
AcDbEntity
  8
Border
100
AcDbLine
 10
47.69889705680319
 20
70.19999999999999
 30
0.0
 11
48.29897515280928
 21
69.38928868877988
 31
0.0
  0
LINE
  5
10D
330
17
100
AcDbEntity
  8
Border
100
AcDbLine
 10
48.3011029431968
 20
47.29999999999999
 30
0.0
 11
47.70102484719072
 21
48.11071131122012
 31
0.0
  0
LINE
  5
10E
330
17
100
AcDbEntity
  8
Border
100
AcDbLine
 10
47.70102484719072
 20
92.88928868877993
 30
0.0
 11
47.6988970568032
 21
70.79999999999998
 31
0.0
  0
LINE
  5
10F
330
17
100
AcDbEntity
  8
Mountain
100
AcDbLine
 10
48.29897515280928
 20
71.61071131122014
 30
0.0
 11
48.30113174490858
 21
93.999
 31
0.0
  0
LINE
  5
110
330
17
100
AcDbEntity
  8
Border
100
AcDbLine
 10
47.70102484719072
 20
92.88928868877993
 30
0.0
 11
48.30113174490858
 21
93.999
 31
0.0
  0
LINE
  5
111
330
17
100
AcDbEntity
  8
Border
100
AcDbLine
 10
48.29897515280928
 20
71.61071131122014
 30
0.0
 11
47.6988970568032
 21
70.79999999999998
 31
0.0
  0
LINE
  5
112
330
17
100
AcDbEntity
  8
Mountain
100
AcDbLine
 10
48.29897515280928
 20
69.38928868877988
 30
0.0
 11
70.39039173445833
 21
47.29999999999999
 31
0.0
  0
LINE
  5
113
330
17
100
AcDbEntity
  8
Mountain
100
AcDbLine
 10
71.99999999999999
 20
47.81176495634209
 30
0.0
 11
49.60960826554171
 21
70.2
 31
0.0
  0
LINE
  5
114
330
17
100
AcDbEntity
  8
Border
100
AcDbLine
 10
48.29897515280928
 20
69.38928868877988
 30
0.0
 11
49.60960826554171
 21
70.2
 31
0.0
  0
LINE
  5
115
330
17
100
AcDbEntity
  8
Border
100
AcDbLine
 10
71.99999999999999
 20
47.81176495634209
 30
0.0
 11
70.39039173445833
 21
47.29999999999999
 31
0.0
  0
LINE
  5
116
330
17
100
AcDbEntity
  8
Border
100
AcDbLine
 10
70.68942053755725
 20
93.999
 30
0.0
 11
48.29897515280928
 21
71.61071131122014
 31
0.0
  0
LINE
  5
117
330
17
100
AcDbEntity
  8
Mountain
100
AcDbLine
 10
49.60960826554168
 20
70.8
 30
0.0
 11
71.99999999999999
 21
93.18823504365798
 31
0.0
  0
LINE
  5
118
330
17
100
AcDbEntity
  8
Border
100
AcDbLine
 10
70.68942053755725
 20
93.999
 30
0.0
 11
71.99999999999999
 21
93.18823504365798
 31
0.0
  0
LINE
  5
119
330
17
100
AcDbEntity
  8
Border
100
AcDbLine
 10
49.60960826554168
 20
70.8
 30
0.0
 11
48.29897515280928
 21
71.61071131122014
 31
0.0
  0
LINE
  5
11A
330
17
100
AcDbEntity
  8
Valley
100
AcDbLine
 10
49.60960826554171
 20
70.2
 30
0.0
 11
94.39039173445827
 21
70.2
 31
0.0
  0
LINE
  5
11B
330
17
100
AcDbEntity
  8
Valley
100
AcDbLine
 10
94.39039173445832
 20
70.8
 30
0.0
 11
49.60960826554168
 21
70.8
 31
0.0
  0
LINE
  5
11C
330
17
100
AcDbEntity
  8
Border
100
AcDbLine
 10
49.60960826554171
 20
70.2
 30
0.0
 11
49.60960826554168
 21
70.8
 31
0.0
  0
LINE
  5
11D
330
17
100
AcDbEntity
  8
Border
100
AcDbLine
 10
94.39039173445832
 20
70.8
 30
0.0
 11
94.39039173445827
 21
70.2
 31
0.0
  0
LINE
  5
11E
330
17
100
AcDbEntity
  8
Mountain
100
AcDbLine
 10
94.39039173445827
 20
70.2
 30
0.0
 11
71.99999999999999
 21
47.81176495634209
 31
0.0
  0
LINE
  5
11F
330
17
100
AcDbEntity
  8
Valley
100
AcDbLine
 10
73.60960826554165
 20
47.29999999999999
 30
0.0
 11
95.70102484719074
 21
69.38928868877997
 31
0.0
  0
LINE
  5
120
330
17
100
AcDbEntity
  8
Border
100
AcDbLine
 10
94.39039173445827
 20
70.2
 30
0.0
 11
95.70102484719074
 21
69.38928868877997
 31
0.0
  0
LINE
  5
121
330
17
100
AcDbEntity
  8
Border
100
AcDbLine
 10
73.60960826554165
 20
47.29999999999999
 30
0.0
 11
71.99999999999999
 21
47.81176495634209
 31
0.0
  0
LINE
  5
122
330
17
100
AcDbEntity
  8
Border
100
AcDbLine
 10
71.99999999999999
 20
93.18823504365798
 30
0.0
 11
94.39039173445832
 21
70.8
 31
0.0
  0
LINE
  5
123
330
17
100
AcDbEntity
  8
Mountain
100
AcDbLine
 10
95.70102484719072
 20
71.61071131122007
 30
0.0
 11
73.31057946244275
 21
93.999
 31
0.0
  0
LINE
  5
124
330
17
100
AcDbEntity
  8
Border
100
AcDbLine
 10
71.99999999999999
 20
93.18823504365798
 30
0.0
 11
73.31057946244275
 21
93.999
 31
0.0
  0
LINE
  5
125
330
17
100
AcDbEntity
  8
Border
100
AcDbLine
 10
95.70102484719072
 20
71.61071131122007
 30
0.0
 11
94.39039173445832
 21
70.8
 31
0.0
  0
LINE
  5
126
330
17
100
AcDbEntity
  8
Mountain
100
AcDbLine
 10
95.70102484719074
 20
69.38928868877997
 30
0.0
 11
95.69889705680321
 21
47.29999999999999
 31
0.0
  0
LINE
  5
127
330
17
100
AcDbEntity
  8
Mountain
100
AcDbLine
 10
96.29897515280932
 20
48.11071131122014
 30
0.0
 11
96.30110294319679
 21
70.19999999999997
 31
0.0
  0
LINE
  5
128
330
17
100
AcDbEntity
  8
Border
100
AcDbLine
 10
95.70102484719074
 20
69.38928868877997
 30
0.0
 11
96.30110294319679
 21
70.19999999999997
 31
0.0
  0
LINE
  5
129
330
17
100
AcDbEntity
  8
Border
100
AcDbLine
 10
96.29897515280932
 20
48.11071131122014
 30
0.0
 11
95.69889705680321
 21
47.29999999999999
 31
0.0
  0
LINE
  5
12A
330
17
100
AcDbEntity
  8
Border
100
AcDbLine
 10
95.6988682550914
 20
93.999
 30
0.0
 11
95.70102484719072
 21
71.61071131122007
 31
0.0
  0
LINE
  5
12B
330
17
100
AcDbEntity
  8
Valley
100
AcDbLine
 10
96.30110294319679
 20
70.79999999999997
 30
0.0
 11
96.29897515280928
 21
92.88928868877993
 31
0.0
  0
LINE
  5
12C
330
17
100
AcDbEntity
  8
Border
100
AcDbLine
 10
95.6988682550914
 20
93.999
 30
0.0
 11
96.29897515280928
 21
92.88928868877993
 31
0.0
  0
LINE
  5
12D
330
17
100
AcDbEntity
  8
Border
100
AcDbLine
 10
96.30110294319679
 20
70.79999999999997
 30
0.0
 11
95.70102484719072
 21
71.61071131122007
 31
0.0
  0
LINE
  5
12E
330
17
100
AcDbEntity
  8
Valley
100
AcDbLine
 10
96.30110294319679
 20
70.19999999999997
 30
0.0
 11
118.3903917344583
 21
70.19999999999997
 31
0.0
  0
LINE
  5
12F
330
17
100
AcDbEntity
  8
Valley
100
AcDbLine
 10
118.3903917344583
 20
70.79999999999997
 30
0.0
 11
96.30110294319679
 21
70.79999999999997
 31
0.0
  0
LINE
  5
130
330
17
100
AcDbEntity
  8
Border
100
AcDbLine
 10
96.30110294319679
 20
70.19999999999997
 30
0.0
 11
96.30110294319679
 21
70.79999999999997
 31
0.0
  0
LINE
  5
131
330
17
100
AcDbEntity
  8
Border
100
AcDbLine
 10
118.3903917344583
 20
70.79999999999997
 30
0.0
 11
118.3903917344583
 21
70.19999999999997
 31
0.0
  0
LINE
  5
132
330
17
100
AcDbEntity
  8
Mountain
100
AcDbLine
 10
118.3903917344583
 20
70.19999999999997
 30
0.0
 11
96.29897515280932
 21
48.11071131122014
 31
0.0
  0
LINE
  5
133
330
17
100
AcDbEntity
  8
Valley
100
AcDbLine
 10
97.60960826554168
 20
47.29999999999999
 30
0.0
 11
120.0
 21
69.68823504365793
 31
0.0
  0
LINE
  5
134
330
17
100
AcDbEntity
  8
Border
100
AcDbLine
 10
118.3903917344583
 20
70.19999999999997
 30
0.0
 11
120.0
 21
69.68823504365793
 31
0.0
  0
LINE
  5
135
330
17
100
AcDbEntity
  8
Border
100
AcDbLine
 10
97.60960826554168
 20
47.29999999999999
 30
0.0
 11
96.29897515280932
 21
48.11071131122014
 31
0.0
  0
LINE
  5
136
330
17
100
AcDbEntity
  8
Border
100
AcDbLine
 10
96.29897515280928
 20
92.88928868877993
 30
0.0
 11
118.3903917344583
 21
70.79999999999997
 31
0.0
  0
LINE
  5
137
330
17
100
AcDbEntity
  8
Mountain
100
AcDbLine
 10
120.0
 20
71.3117649563421
 30
0.0
 11
97.31057946244277
 21
93.99899999999998
 31
0.0
  0
LINE
  5
138
330
17
100
AcDbEntity
  8
Border
100
AcDbLine
 10
96.29897515280928
 20
92.88928868877993
 30
0.0
 11
97.31057946244277
 21
93.99899999999998
 31
0.0
  0
LINE
  5
139
330
17
100
AcDbEntity
  8
Border
100
AcDbLine
 10
120.0
 20
71.3117649563421
 30
0.0
 11
118.3903917344583
 21
70.79999999999997
 31
0.0
  0
LINE
  5
13A
330
17
100
AcDbEntity
  8
Mountain
100
AcDbLine
 10
120.0
 20
69.68823504365793
 30
0.0
 11
142.3903917344583
 21
47.29999999999999
 31
0.0
  0
LINE
  5
13B
330
17
100
AcDbEntity
  8
Mountain
100
AcDbLine
 10
143.9809479165961
 20
47.83081520460824
 30
0.0
 11
121.6096082655417
 21
70.19999999999997
 31
0.0
  0
LINE
  5
13C
330
17
100
AcDbEntity
  8
Border
100
AcDbLine
 10
120.0
 20
69.68823504365793
 30
0.0
 11
121.6096082655417
 21
70.19999999999997
 31
0.0
  0
LINE
  5
13D
330
17
100
AcDbEntity
  8
Border
100
AcDbLine
 10
143.9809479165961
 20
47.83081520460824
 30
0.0
 11
142.3903917344583
 21
47.29999999999999
 31
0.0
  0
LINE
  5
13E
330
17
100
AcDbEntity
  8
Border
100
AcDbLine
 10
142.6894205375571
 20
93.99899999999998
 30
0.0
 11
120.0
 21
71.3117649563421
 31
0.0
  0
LINE
  5
13F
330
17
100
AcDbEntity
  8
Mountain
100
AcDbLine
 10
121.6096082655416
 20
70.79999999999997
 30
0.0
 11
143.9809479165961
 21
93.16918479539188
 31
0.0
  0
LINE
  5
140
330
17
100
AcDbEntity
  8
Border
100
AcDbLine
 10
142.6894205375571
 20
93.99899999999998
 30
0.0
 11
143.9809479165961
 21
93.16918479539188
 31
0.0
  0
LINE
  5
141
330
17
100
AcDbEntity
  8
Border
100
AcDbLine
 10
121.6096082655416
 20
70.79999999999997
 30
0.0
 11
120.0
 21
71.3117649563421
 31
0.0
  0
LINE
  5
142
330
17
100
AcDbEntity
  8
Valley
100
AcDbLine
 10
121.6096082655417
 20
70.19999999999997
 30
0.0
 11
143.998761101594
 21
70.19999999999997
 31
0.0
  0
LINE
  5
143
330
17
100
AcDbEntity
  8
Valley
100
AcDbLine
 10
143.9987611015939
 20
70.79999999999997
 30
0.0
 11
121.6096082655416
 21
70.79999999999997
 31
0.0
  0
LINE
  5
144
330
17
100
AcDbEntity
  8
Border
100
AcDbLine
 10
121.6096082655417
 20
70.19999999999997
 30
0.0
 11
121.6096082655416
 21
70.79999999999997
 31
0.0
  0
LINE
  5
145
330
17
100
AcDbEntity
  8
Border
100
AcDbLine
 10
143.9987611015939
 20
70.79999999999997
 30
0.0
 11
143.998761101594
 21
70.19999999999997
 31
0.0
  0
LINE
  5
16D
330
17
100
AcDbEntity
  8
0
100
AcDbLine
 10
-0.6360240011861862
 20
103.999
 30
0.0
 11
143.9987906794625
 21
103.9989999999999
 31
0.0
  0
LINE
  5
243
330
17
100
AcDbEntity
  8
Valley
100
AcDbLine
 10
0.0187518697480605
 20
136.748
 30
0.0
 11
22.595124256247
 21
136.748
 31
0.0
  0
LINE
  5
244
330
17
100
AcDbEntity
  8
Valley
100
AcDbLine
 10
22.595124256247
 20
138.248
 30
0.0
 11
0.0187518697480605
 21
138.248
 31
0.0
  0
LINE
  5
245
330
17
100
AcDbEntity
  8
Border
100
AcDbLine
 10
-0.63602400118619
 20
136.748
 30
0.0
 11
-0.63602400118619
 21
138.248
 31
0.0
  0
LINE
  5
246
330
17
100
AcDbEntity
  8
Border
100
AcDbLine
 10
22.595124256247
 20
138.248
 30
0.0
 11
22.595124256247
 21
136.748
 31
0.0
  0
LINE
  5
247
330
17
100
AcDbEntity
  8
Mountain
100
AcDbLine
 10
22.595124256247
 20
136.748
 30
0.0
 11
0.0007611022281039
 21
114.1558131837483
 31
0.0
  0
LINE
  5
248
330
17
100
AcDbEntity
  8
Mountain
100
AcDbLine
 10
0.6925018208152919
 20
113.999
 30
0.0
 11
23.89373661376713
 21
137.1979999999999
 31
0.0
  0
LINE
  5
249
330
17
100
AcDbEntity
  8
Border
100
AcDbLine
 10
22.595124256247
 20
136.748
 30
0.0
 11
23.89373661376713
 21
137.1979999999999
 31
0.0
  0
LINE
  5
24A
330
17
100
AcDbEntity
  8
Border
100
AcDbLine
 10
0.6925018208152919
 20
113.999
 30
0.0
 11
0.0007611022281039
 21
114.1558131837483
 31
0.0
  0
LINE
  5
24B
330
17
100
AcDbEntity
  8
Mountain
100
AcDbLine
 10
0.1429616155397735
 20
160.698
 30
0.0
 11
22.595124256247
 21
138.248
 31
0.0
  0
LINE
  5
24C
330
17
100
AcDbEntity
  8
Mountain
100
AcDbLine
 10
23.89373661376696
 20
137.7980000000001
 30
0.0
 11
1.441573973059818
 21
160.248
 31
0.0
  0
LINE
  5
24D
330
17
100
AcDbEntity
  8
Border
100
AcDbLine
 10
-0.511814255394477
 20
160.698
 30
0.0
 11
0.7867981021255675
 21
160.248
 31
0.0
  0
LINE
  5
24E
330
17
100
AcDbEntity
  8
Border
100
AcDbLine
 10
23.89373661376696
 20
137.7980000000001
 30
0.0
 11
22.595124256247
 21
138.248
 31
0.0
  0
LINE
  5
24F
330
17
100
AcDbEntity
  8
Mountain
100
AcDbLine
 10
-0.6539015415105506
 20
160.698
 30
0.0
 11
-0.511814255394477
 21
160.698
 31
0.0
  0
LINE
  5
250
330
17
100
AcDbEntity
  8
Mountain
100
AcDbLine
 10
-0.5118142553944841
 20
161.298
 30
0.0
 11
-0.6539015415105506
 21
161.298
 31
0.0
  0
LINE
  5
251
330
17
100
AcDbEntity
  8
Border
100
AcDbLine
 10
-0.6539015415105506
 20
160.698
 30
0.0
 11
-0.6539015415105506
 21
161.298
 31
0.0
  0
LINE
  5
252
330
17
100
AcDbEntity
  8
Border
100
AcDbLine
 10
-0.5118142553944841
 20
161.298
 30
0.0
 11
-0.511814255394477
 21
160.698
 31
0.0
  0
LINE
  5
253
330
17
100
AcDbEntity
  8
Mountain
100
AcDbLine
 10
23.89373661376713
 20
137.1979999999999
 30
0.0
 11
24.14296161553969
 21
137.1979999999999
 31
0.0
  0
LINE
  5
254
330
17
100
AcDbEntity
  8
Mountain
100
AcDbLine
 10
24.14296161553986
 20
137.7980000000001
 30
0.0
 11
23.89373661376696
 21
137.7980000000001
 31
0.0
  0
LINE
  5
255
330
17
100
AcDbEntity
  8
Border
100
AcDbLine
 10
23.89373661376713
 20
137.1979999999999
 30
0.0
 11
23.89373661376696
 21
137.7980000000001
 31
0.0
  0
LINE
  5
256
330
17
100
AcDbEntity
  8
Border
100
AcDbLine
 10
24.14296161553986
 20
137.7980000000001
 30
0.0
 11
24.14296161553969
 21
137.1979999999999
 31
0.0
  0
LINE
  5
257
330
17
100
AcDbEntity
  8
Mountain
100
AcDbLine
 10
24.14296161553969
 20
137.1979999999999
 30
0.0
 11
47.34419640849153
 21
113.999
 31
0.0
  0
LINE
  5
258
330
17
100
AcDbEntity
  8
Border
100
AcDbLine
 10
47.26939191764808
 20
114.9222845578919
 30
0.0
 11
25.44157397305982
 21
136.748
 31
0.0
  0
LINE
  5
259
330
17
100
AcDbEntity
  8
Border
100
AcDbLine
 10
24.14296161553969
 20
137.1979999999999
 30
0.0
 11
25.44157397305982
 21
136.748
 31
0.0
  0
LINE
  5
25A
330
17
100
AcDbEntity
  8
Border
100
AcDbLine
 10
47.26939191764808
 20
114.9222845578919
 30
0.0
 11
47.34419640849153
 21
113.999
 31
0.0
  0
LINE
  5
25B
330
17
100
AcDbEntity
  8
Mountain
100
AcDbLine
 10
46.595124256247
 20
160.248
 30
0.0
 11
24.14296161553986
 21
137.7980000000001
 31
0.0
  0
LINE
  5
25C
330
17
100
AcDbEntity
  8
Mountain
100
AcDbLine
 10
25.44157397305983
 20
138.248
 30
0.0
 11
47.26939191764805
 21
160.0737154421081
 31
0.0
  0
LINE
  5
25D
330
17
100
AcDbEntity
  8
Border
100
AcDbLine
 10
46.595124256247
 20
160.248
 30
0.0
 11
47.26939191764805
 21
160.0737154421081
 31
0.0
  0
LINE
  5
25E
330
17
100
AcDbEntity
  8
Border
100
AcDbLine
 10
25.44157397305983
 20
138.248
 30
0.0
 11
24.14296161553986
 21
137.7980000000001
 31
0.0
  0
LINE
  5
25F
330
17
100
AcDbEntity
  8
Valley
100
AcDbLine
 10
1.441573973059818
 20
160.248
 30
0.0
 11
46.595124256247
 21
160.248
 31
0.0
  0
LINE
  5
260
330
17
100
AcDbEntity
  8
Valley
100
AcDbLine
 10
46.595124256247
 20
161.748
 30
0.0
 11
1.441573973059823
 21
161.748
 31
0.0
  0
LINE
  5
261
330
17
100
AcDbEntity
  8
Border
100
AcDbLine
 10
0.7867981021255675
 20
160.248
 30
0.0
 11
0.7867981021255745
 21
161.748
 31
0.0
  0
LINE
  5
262
330
17
100
AcDbEntity
  8
Border
100
AcDbLine
 10
46.595124256247
 20
161.748
 30
0.0
 11
46.595124256247
 21
160.248
 31
0.0
  0
LINE
  5
263
330
17
100
AcDbEntity
  8
Valley
100
AcDbLine
 10
25.44157397305982
 20
136.748
 30
0.0
 11
47.2672895164267
 21
136.748
 31
0.0
  0
LINE
  5
264
330
17
100
AcDbEntity
  8
Valley
100
AcDbLine
 10
47.2672895164267
 20
138.248
 30
0.0
 11
25.44157397305983
 21
138.248
 31
0.0
  0
LINE
  5
265
330
17
100
AcDbEntity
  8
Border
100
AcDbLine
 10
25.44157397305982
 20
136.748
 30
0.0
 11
25.44157397305983
 21
138.248
 31
0.0
  0
LINE
  5
266
330
17
100
AcDbEntity
  8
Border
100
AcDbLine
 10
47.2672895164267
 20
138.248
 30
0.0
 11
47.2672895164267
 21
136.748
 31
0.0
  0
LINE
  5
267
330
17
100
AcDbEntity
  8
Valley
100
AcDbLine
 10
47.2672895164267
 20
136.748
 30
0.0
 11
47.26939191764808
 21
114.9222845578919
 31
0.0
  0
LINE
  5
268
330
17
100
AcDbEntity
  8
Border
100
AcDbLine
 10
48.76948086164972
 20
113.999
 30
0.0
 11
48.76730631165876
 21
136.5737154421081
 31
0.0
  0
LINE
  5
269
330
17
100
AcDbEntity
  8
Border
100
AcDbLine
 10
47.2672895164267
 20
136.748
 30
0.0
 11
48.76730631165876
 21
136.5737154421081
 31
0.0
  0
LINE
  5
26A
330
17
100
AcDbEntity
  8
Border
100
AcDbLine
 10
48.76948086164972
 20
113.999
 30
0.0
 11
47.26939191764808
 21
114.9222845578919
 31
0.0
  0
LINE
  5
26B
330
17
100
AcDbEntity
  8
Mountain
100
AcDbLine
 10
47.26939191764805
 20
160.0737154421081
 30
0.0
 11
47.2672895164267
 21
138.248
 31
0.0
  0
LINE
  5
26C
330
17
100
AcDbEntity
  8
Mountain
100
AcDbLine
 10
48.76730631165877
 20
138.4222845578919
 30
0.0
 11
48.76940871288014
 21
160.248
 31
0.0
  0
LINE
  5
26D
330
17
100
AcDbEntity
  8
Border
100
AcDbLine
 10
47.26939191764805
 20
160.0737154421081
 30
0.0
 11
48.76940871288014
 21
160.248
 31
0.0
  0
LINE
  5
26E
330
17
100
AcDbEntity
  8
Border
100
AcDbLine
 10
48.76730631165877
 20
138.4222845578919
 30
0.0
 11
47.2672895164267
 21
138.248
 31
0.0
  0
LINE
  5
26F
330
17
100
AcDbEntity
  8
Mountain
100
AcDbLine
 10
48.76730631165876
 20
136.5737154421081
 30
0.0
 11
71.34419640849151
 21
113.999
 31
0.0
  0
LINE
  5
270
330
17
100
AcDbEntity
  8
Border
100
AcDbLine
 10
72.0183491146534
 20
114.1733995020583
 30
0.0
 11
49.44157397305982
 21
136.748
 31
0.0
  0
LINE
  5
271
330
17
100
AcDbEntity
  8
Border
100
AcDbLine
 10
48.76730631165876
 20
136.5737154421081
 30
0.0
 11
49.44157397305982
 21
136.748
 31
0.0
  0
LINE
  5
272
330
17
100
AcDbEntity
  8
Border
100
AcDbLine
 10
72.0183491146534
 20
114.1733995020583
 30
0.0
 11
71.34419640849151
 21
113.999
 31
0.0
  0
LINE
  5
273
330
17
100
AcDbEntity
  8
Valley
100
AcDbLine
 10
70.59512425624699
 20
160.248
 30
0.0
 11
48.76730631165877
 21
138.4222845578919
 31
0.0
  0
LINE
  5
274
330
17
100
AcDbEntity
  8
Mountain
100
AcDbLine
 10
49.44157397305982
 20
138.248
 30
0.0
 11
71.89373661376722
 21
160.6980000000001
 31
0.0
  0
LINE
  5
275
330
17
100
AcDbEntity
  8
Border
100
AcDbLine
 10
70.59512425624699
 20
160.248
 30
0.0
 11
71.89373661376722
 21
160.6980000000001
 31
0.0
  0
LINE
  5
276
330
17
100
AcDbEntity
  8
Border
100
AcDbLine
 10
49.44157397305982
 20
138.248
 30
0.0
 11
48.76730631165877
 21
138.4222845578919
 31
0.0
  0
LINE
  5
277
330
17
100
AcDbEntity
  8
Valley
100
AcDbLine
 10
48.76940871288014
 20
160.248
 30
0.0
 11
70.59512425624699
 21
160.248
 31
0.0
  0
LINE
  5
278
330
17
100
AcDbEntity
  8
Mountain
100
AcDbLine
 10
70.59512425624699
 20
161.748
 30
0.0
 11
48.76940871288011
 21
161.748
 31
0.0
  0
LINE
  5
279
330
17
100
AcDbEntity
  8
Border
100
AcDbLine
 10
48.76940871288014
 20
160.248
 30
0.0
 11
48.76940871288011
 21
161.748
 31
0.0
  0
LINE
  5
27A
330
17
100
AcDbEntity
  8
Border
100
AcDbLine
 10
70.59512425624699
 20
161.748
 30
0.0
 11
70.59512425624699
 21
160.248
 31
0.0
  0
LINE
  5
27B
330
17
100
AcDbEntity
  8
Valley
100
AcDbLine
 10
49.44157397305982
 20
136.748
 30
0.0
 11
94.595124256247
 21
136.748
 31
0.0
  0
LINE
  5
27C
330
17
100
AcDbEntity
  8
Valley
100
AcDbLine
 10
94.595124256247
 20
138.248
 30
0.0
 11
49.44157397305982
 21
138.248
 31
0.0
  0
LINE
  5
27D
330
17
100
AcDbEntity
  8
Border
100
AcDbLine
 10
49.44157397305982
 20
136.748
 30
0.0
 11
49.44157397305982
 21
138.248
 31
0.0
  0
LINE
  5
27E
330
17
100
AcDbEntity
  8
Border
100
AcDbLine
 10
94.595124256247
 20
138.248
 30
0.0
 11
94.595124256247
 21
136.748
 31
0.0
  0
LINE
  5
27F
330
17
100
AcDbEntity
  8
Mountain
100
AcDbLine
 10
94.595124256247
 20
136.748
 30
0.0
 11
72.0183491146534
 21
114.1733995020583
 31
0.0
  0
LINE
  5
280
330
17
100
AcDbEntity
  8
Border
100
AcDbLine
 10
72.69250182081528
 20
113.999
 30
0.0
 11
95.26939191764805
 21
136.5737154421081
 31
0.0
  0
LINE
  5
281
330
17
100
AcDbEntity
  8
Border
100
AcDbLine
 10
94.595124256247
 20
136.748
 30
0.0
 11
95.26939191764805
 21
136.5737154421081
 31
0.0
  0
LINE
  5
282
330
17
100
AcDbEntity
  8
Border
100
AcDbLine
 10
72.69250182081528
 20
113.999
 30
0.0
 11
72.0183491146534
 21
114.1733995020583
 31
0.0
  0
LINE
  5
283
330
17
100
AcDbEntity
  8
Mountain
100
AcDbLine
 10
72.1429616155396
 20
160.6980000000001
 30
0.0
 11
94.595124256247
 21
138.248
 31
0.0
  0
LINE
  5
284
330
17
100
AcDbEntity
  8
Mountain
100
AcDbLine
 10
95.26939191764805
 20
138.4222845578919
 30
0.0
 11
73.44157397305981
 21
160.248
 31
0.0
  0
LINE
  5
285
330
17
100
AcDbEntity
  8
Border
100
AcDbLine
 10
72.1429616155396
 20
160.6980000000001
 30
0.0
 11
73.44157397305981
 21
160.248
 31
0.0
  0
LINE
  5
286
330
17
100
AcDbEntity
  8
Border
100
AcDbLine
 10
95.26939191764805
 20
138.4222845578919
 30
0.0
 11
94.595124256247
 21
138.248
 31
0.0
  0
LINE
  5
287
330
17
100
AcDbEntity
  8
Mountain
100
AcDbLine
 10
71.89373661376722
 20
160.6980000000001
 30
0.0
 11
72.1429616155396
 21
160.6980000000001
 31
0.0
  0
LINE
  5
288
330
17
100
AcDbEntity
  8
Mountain
100
AcDbLine
 10
72.14296161553992
 20
161.2980000000002
 30
0.0
 11
71.89373661376689
 21
161.2980000000002
 31
0.0
  0
LINE
  5
289
330
17
100
AcDbEntity
  8
Border
100
AcDbLine
 10
71.89373661376722
 20
160.6980000000001
 30
0.0
 11
71.89373661376689
 21
161.2980000000002
 31
0.0
  0
LINE
  5
28A
330
17
100
AcDbEntity
  8
Border
100
AcDbLine
 10
72.14296161553992
 20
161.2980000000002
 30
0.0
 11
72.1429616155396
 21
160.6980000000001
 31
0.0
  0
LINE
  5
28B
330
17
100
AcDbEntity
  8
Mountain
100
AcDbLine
 10
95.26939191764805
 20
136.5737154421081
 30
0.0
 11
95.26721736765713
 21
113.999
 31
0.0
  0
LINE
  5
28C
330
17
100
AcDbEntity
  8
Border
100
AcDbLine
 10
96.76730631165876
 20
114.9222845578919
 30
0.0
 11
96.76940871288012
 21
136.748
 31
0.0
  0
LINE
  5
28D
330
17
100
AcDbEntity
  8
Border
100
AcDbLine
 10
95.26939191764805
 20
136.5737154421081
 30
0.0
 11
96.76940871288012
 21
136.748
 31
0.0
  0
LINE
  5
28E
330
17
100
AcDbEntity
  8
Border
100
AcDbLine
 10
96.76730631165876
 20
114.9222845578919
 30
0.0
 11
95.26721736765713
 21
113.999
 31
0.0
  0
LINE
  5
28F
330
17
100
AcDbEntity
  8
Valley
100
AcDbLine
 10
95.2672895164267
 20
160.248
 30
0.0
 11
95.26939191764805
 21
138.4222845578919
 31
0.0
  0
LINE
  5
290
330
17
100
AcDbEntity
  8
Valley
100
AcDbLine
 10
96.7694087128801
 20
138.248
 30
0.0
 11
96.76730631165874
 21
160.0737154421081
 31
0.0
  0
LINE
  5
291
330
17
100
AcDbEntity
  8
Border
100
AcDbLine
 10
95.2672895164267
 20
160.248
 30
0.0
 11
96.76730631165874
 21
160.0737154421081
 31
0.0
  0
LINE
  5
292
330
17
100
AcDbEntity
  8
Border
100
AcDbLine
 10
96.7694087128801
 20
138.248
 30
0.0
 11
95.26939191764805
 21
138.4222845578919
 31
0.0
  0
LINE
  5
293
330
17
100
AcDbEntity
  8
Mountain
100
AcDbLine
 10
73.44157397305981
 20
160.248
 30
0.0
 11
95.2672895164267
 21
160.248
 31
0.0
  0
LINE
  5
294
330
17
100
AcDbEntity
  8
Valley
100
AcDbLine
 10
95.2672895164267
 20
161.748
 30
0.0
 11
73.44157397305981
 21
161.748
 31
0.0
  0
LINE
  5
295
330
17
100
AcDbEntity
  8
Border
100
AcDbLine
 10
73.44157397305981
 20
160.248
 30
0.0
 11
73.44157397305981
 21
161.748
 31
0.0
  0
LINE
  5
296
330
17
100
AcDbEntity
  8
Border
100
AcDbLine
 10
95.2672895164267
 20
161.748
 30
0.0
 11
95.2672895164267
 21
160.248
 31
0.0
  0
LINE
  5
297
330
17
100
AcDbEntity
  8
Valley
100
AcDbLine
 10
96.76940871288012
 20
136.748
 30
0.0
 11
118.595124256247
 21
136.748
 31
0.0
  0
LINE
  5
298
330
17
100
AcDbEntity
  8
Valley
100
AcDbLine
 10
118.595124256247
 20
138.248
 30
0.0
 11
96.7694087128801
 21
138.248
 31
0.0
  0
LINE
  5
299
330
17
100
AcDbEntity
  8
Border
100
AcDbLine
 10
96.76940871288012
 20
136.748
 30
0.0
 11
96.7694087128801
 21
138.248
 31
0.0
  0
LINE
  5
29A
330
17
100
AcDbEntity
  8
Border
100
AcDbLine
 10
118.595124256247
 20
138.248
 30
0.0
 11
118.595124256247
 21
136.748
 31
0.0
  0
LINE
  5
29B
330
17
100
AcDbEntity
  8
Mountain
100
AcDbLine
 10
118.595124256247
 20
136.748
 30
0.0
 11
96.76730631165876
 21
114.9222845578919
 31
0.0
  0
LINE
  5
29C
330
17
100
AcDbEntity
  8
Mountain
100
AcDbLine
 10
96.69250182081528
 20
113.999
 30
0.0
 11
119.8937366137671
 21
137.1979999999999
 31
0.0
  0
LINE
  5
29D
330
17
100
AcDbEntity
  8
Border
100
AcDbLine
 10
118.595124256247
 20
136.748
 30
0.0
 11
119.8937366137671
 21
137.1979999999999
 31
0.0
  0
LINE
  5
29E
330
17
100
AcDbEntity
  8
Border
100
AcDbLine
 10
96.69250182081528
 20
113.999
 30
0.0
 11
96.76730631165876
 21
114.9222845578919
 31
0.0
  0
LINE
  5
29F
330
17
100
AcDbEntity
  8
Mountain
100
AcDbLine
 10
96.76730631165874
 20
160.0737154421081
 30
0.0
 11
118.595124256247
 21
138.248
 31
0.0
  0
LINE
  5
2A0
330
17
100
AcDbEntity
  8
Mountain
100
AcDbLine
 10
119.8937366137669
 20
137.7980000000001
 30
0.0
 11
97.44157397305984
 21
160.248
 31
0.0
  0
LINE
  5
2A1
330
17
100
AcDbEntity
  8
Border
100
AcDbLine
 10
96.76730631165874
 20
160.0737154421081
 30
0.0
 11
97.44157397305984
 21
160.248
 31
0.0
  0
LINE
  5
2A2
330
17
100
AcDbEntity
  8
Border
100
AcDbLine
 10
119.8937366137669
 20
137.7980000000001
 30
0.0
 11
118.595124256247
 21
138.248
 31
0.0
  0
LINE
  5
2A3
330
17
100
AcDbEntity
  8
Mountain
100
AcDbLine
 10
119.8937366137671
 20
137.1979999999999
 30
0.0
 11
120.1429616155396
 21
137.1979999999999
 31
0.0
  0
LINE
  5
2A4
330
17
100
AcDbEntity
  8
Mountain
100
AcDbLine
 10
120.1429616155398
 20
137.7980000000001
 30
0.0
 11
119.8937366137669
 21
137.7980000000001
 31
0.0
  0
LINE
  5
2A5
330
17
100
AcDbEntity
  8
Border
100
AcDbLine
 10
119.8937366137671
 20
137.1979999999999
 30
0.0
 11
119.8937366137669
 21
137.7980000000001
 31
0.0
  0
LINE
  5
2A6
330
17
100
AcDbEntity
  8
Border
100
AcDbLine
 10
120.1429616155398
 20
137.7980000000001
 30
0.0
 11
120.1429616155396
 21
137.1979999999999
 31
0.0
  0
LINE
  5
2A7
330
17
100
AcDbEntity
  8
Mountain
100
AcDbLine
 10
120.1429616155396
 20
137.1979999999999
 30
0.0
 11
143.3441964084915
 21
113.999
 31
0.0
  0
LINE
  5
2A8
330
17
100
AcDbEntity
  8
Border
100
AcDbLine
 10
143.9987906794625
 20
114.1929560533385
 30
0.0
 11
121.4415739730598
 21
136.748
 31
0.0
  0
LINE
  5
2A9
330
17
100
AcDbEntity
  8
Border
100
AcDbLine
 10
120.1429616155396
 20
137.1979999999999
 30
0.0
 11
121.4415739730598
 21
136.748
 31
0.0
  0
LINE
  5
2AA
330
17
100
AcDbEntity
  8
Border
100
AcDbLine
 10
143.9987906794625
 20
114.1929560533385
 30
0.0
 11
143.3441964084915
 21
113.999
 31
0.0
  0
LINE
  5
2AB
330
17
100
AcDbEntity
  8
Mountain
100
AcDbLine
 10
142.595124256247
 20
160.248
 30
0.0
 11
120.1429616155398
 21
137.7980000000001
 31
0.0
  0
LINE
  5
2AC
330
17
100
AcDbEntity
  8
Mountain
100
AcDbLine
 10
121.4415739730598
 20
138.248
 30
0.0
 11
143.89373661377
 21
160.698000000003
 31
0.0
  0
LINE
  5
2AD
330
17
100
AcDbEntity
  8
Border
100
AcDbLine
 10
142.595124256247
 20
160.248
 30
0.0
 11
143.89373661377
 21
160.698000000003
 31
0.0
  0
LINE
  5
2AE
330
17
100
AcDbEntity
  8
Border
100
AcDbLine
 10
121.4415739730598
 20
138.248
 30
0.0
 11
120.1429616155398
 21
137.7980000000001
 31
0.0
  0
LINE
  5
2AF
330
17
100
AcDbEntity
  8
Valley
100
AcDbLine
 10
97.44157397305984
 20
160.248
 30
0.0
 11
142.595124256247
 21
160.248
 31
0.0
  0
LINE
  5
2B0
330
17
100
AcDbEntity
  8
Valley
100
AcDbLine
 10
142.595124256247
 20
161.748
 30
0.0
 11
97.44157397305984
 21
161.748
 31
0.0
  0
LINE
  5
2B1
330
17
100
AcDbEntity
  8
Border
100
AcDbLine
 10
97.44157397305984
 20
160.248
 30
0.0
 11
97.44157397305984
 21
161.748
 31
0.0
  0
LINE
  5
2B2
330
17
100
AcDbEntity
  8
Border
100
AcDbLine
 10
142.595124256247
 20
161.748
 30
0.0
 11
142.595124256247
 21
160.248
 31
0.0
  0
LINE
  5
2B3
330
17
100
AcDbEntity
  8
Valley
100
AcDbLine
 10
121.4415739730598
 20
136.748
 30
0.0
 11
144.0167518691139
 21
136.748
 31
0.0
  0
LINE
  5
2B4
330
17
100
AcDbEntity
  8
Valley
100
AcDbLine
 10
144.0167518691139
 20
138.248
 30
0.0
 11
121.4415739730598
 21
138.248
 31
0.0
  0
LINE
  5
2B5
330
17
100
AcDbEntity
  8
Border
100
AcDbLine
 10
121.4415739730598
 20
136.748
 30
0.0
 11
121.4415739730598
 21
138.248
 31
0.0
  0
LINE
  5
2B6
330
17
100
AcDbEntity
  8
Border
100
AcDbLine
 10
144.0167518691139
 20
138.248
 30
0.0
 11
144.0167518691139
 21
136.748
 31
0.0
  0
LINE
  5
2B7
330
17
100
AcDbEntity
  8
Valley
100
AcDbLine
 10
0.0187518697480605
 20
183.748
 30
0.0
 11
22.595124256247
 21
183.748
 31
0.0
  0
LINE
  5
2B8
330
17
100
AcDbEntity
  8
Valley
100
AcDbLine
 10
22.59512425624699
 20
185.248
 30
0.0
 11
0.0187518697480605
 21
185.248
 31
0.0
  0
LINE
  5
2B9
330
17
100
AcDbEntity
  8
Border
100
AcDbLine
 10
-0.63602400118619
 20
183.748
 30
0.0
 11
-0.63602400118619
 21
185.248
 31
0.0
  0
LINE
  5
2BA
330
17
100
AcDbEntity
  8
Border
100
AcDbLine
 10
22.59512425624699
 20
185.248
 30
0.0
 11
22.595124256247
 21
183.748
 31
0.0
  0
LINE
  5
2BB
330
17
100
AcDbEntity
  8
Mountain
100
AcDbLine
 10
22.595124256247
 20
183.748
 30
0.0
 11
0.1429616155397664
 21
161.298
 31
0.0
  0
LINE
  5
2BC
330
17
100
AcDbEntity
  8
Mountain
100
AcDbLine
 10
1.441573973059823
 20
161.748
 30
0.0
 11
23.89373661376731
 21
184.1980000000001
 31
0.0
  0
LINE
  5
2BD
330
17
100
AcDbEntity
  8
Border
100
AcDbLine
 10
22.595124256247
 20
183.748
 30
0.0
 11
23.89373661376731
 21
184.1980000000001
 31
0.0
  0
LINE
  5
2BE
330
17
100
AcDbEntity
  8
Border
100
AcDbLine
 10
0.7867981021255745
 20
161.748
 30
0.0
 11
-0.5118142553944841
 21
161.298
 31
0.0
  0
LINE
  5
2BF
330
17
100
AcDbEntity
  8
Border
100
AcDbLine
 10
0.0007611022281039
 20
207.8401868162517
 30
0.0
 11
22.59512425624699
 21
185.248
 31
0.0
  0
LINE
  5
2C0
330
17
100
AcDbEntity
  8
Mountain
100
AcDbLine
 10
23.89373661376678
 20
184.7980000000002
 30
0.0
 11
0.6925018208152851
 21
207.997
 31
0.0
  0
LINE
  5
2C1
330
17
100
AcDbEntity
  8
Border
100
AcDbLine
 10
-0.6540147687061468
 20
207.8401868162517
 30
0.0
 11
0.0377259498810345
 21
207.997
 31
0.0
  0
LINE
  5
2C2
330
17
100
AcDbEntity
  8
Border
100
AcDbLine
 10
23.89373661376678
 20
184.7980000000002
 30
0.0
 11
22.59512425624699
 21
185.248
 31
0.0
  0
LINE
  5
2C3
330
17
100
AcDbEntity
  8
Mountain
100
AcDbLine
 10
23.89373661376731
 20
184.1980000000001
 30
0.0
 11
24.14296161553951
 21
184.1980000000001
 31
0.0
  0
LINE
  5
2C4
330
17
100
AcDbEntity
  8
Mountain
100
AcDbLine
 10
24.14296161554003
 20
184.7980000000002
 30
0.0
 11
23.89373661376678
 21
184.7980000000002
 31
0.0
  0
LINE
  5
2C5
330
17
100
AcDbEntity
  8
Border
100
AcDbLine
 10
23.89373661376731
 20
184.1980000000001
 30
0.0
 11
23.89373661376678
 21
184.7980000000002
 31
0.0
  0
LINE
  5
2C6
330
17
100
AcDbEntity
  8
Border
100
AcDbLine
 10
24.14296161554003
 20
184.7980000000002
 30
0.0
 11
24.14296161553951
 21
184.1980000000001
 31
0.0
  0
LINE
  5
2C7
330
17
100
AcDbEntity
  8
Mountain
100
AcDbLine
 10
24.14296161553951
 20
184.1980000000001
 30
0.0
 11
46.595124256247
 21
161.748
 31
0.0
  0
LINE
  5
2C8
330
17
100
AcDbEntity
  8
Mountain
100
AcDbLine
 10
47.26939191764808
 20
161.9222845578919
 30
0.0
 11
25.44157397305983
 21
183.748
 31
0.0
  0
LINE
  5
2C9
330
17
100
AcDbEntity
  8
Border
100
AcDbLine
 10
24.14296161553951
 20
184.1980000000001
 30
0.0
 11
25.44157397305983
 21
183.748
 31
0.0
  0
LINE
  5
2CA
330
17
100
AcDbEntity
  8
Border
100
AcDbLine
 10
47.26939191764808
 20
161.9222845578919
 30
0.0
 11
46.595124256247
 21
161.748
 31
0.0
  0
LINE
  5
2CB
330
17
100
AcDbEntity
  8
Mountain
100
AcDbLine
 10
47.34419640849153
 20
207.997
 30
0.0
 11
24.14296161554003
 21
184.7980000000002
 31
0.0
  0
LINE
  5
2CC
330
17
100
AcDbEntity
  8
Mountain
100
AcDbLine
 10
25.44157397305981
 20
185.248
 30
0.0
 11
47.26939191764809
 21
207.0737154421081
 31
0.0
  0
LINE
  5
2CD
330
17
100
AcDbEntity
  8
Border
100
AcDbLine
 10
47.34419640849153
 20
207.997
 30
0.0
 11
47.26939191764809
 21
207.0737154421081
 31
0.0
  0
LINE
  5
2CE
330
17
100
AcDbEntity
  8
Border
100
AcDbLine
 10
25.44157397305981
 20
185.248
 30
0.0
 11
24.14296161554003
 21
184.7980000000002
 31
0.0
  0
LINE
  5
2CF
330
17
100
AcDbEntity
  8
Valley
100
AcDbLine
 10
25.44157397305983
 20
183.748
 30
0.0
 11
47.2672895164267
 21
183.748
 31
0.0
  0
LINE
  5
2D0
330
17
100
AcDbEntity
  8
Valley
100
AcDbLine
 10
47.2672895164267
 20
185.248
 30
0.0
 11
25.44157397305981
 21
185.248
 31
0.0
  0
LINE
  5
2D1
330
17
100
AcDbEntity
  8
Border
100
AcDbLine
 10
25.44157397305983
 20
183.748
 30
0.0
 11
25.44157397305981
 21
185.248
 31
0.0
  0
LINE
  5
2D2
330
17
100
AcDbEntity
  8
Border
100
AcDbLine
 10
47.2672895164267
 20
185.248
 30
0.0
 11
47.2672895164267
 21
183.748
 31
0.0
  0
LINE
  5
2D3
330
17
100
AcDbEntity
  8
Valley
100
AcDbLine
 10
47.2672895164267
 20
183.748
 30
0.0
 11
47.26939191764808
 21
161.9222845578919
 31
0.0
  0
LINE
  5
2D4
330
17
100
AcDbEntity
  8
Valley
100
AcDbLine
 10
48.76940871288011
 20
161.748
 30
0.0
 11
48.76730631165874
 21
183.5737154421081
 31
0.0
  0
LINE
  5
2D5
330
17
100
AcDbEntity
  8
Border
100
AcDbLine
 10
47.2672895164267
 20
183.748
 30
0.0
 11
48.76730631165874
 21
183.5737154421081
 31
0.0
  0
LINE
  5
2D6
330
17
100
AcDbEntity
  8
Border
100
AcDbLine
 10
48.76940871288011
 20
161.748
 30
0.0
 11
47.26939191764808
 21
161.9222845578919
 31
0.0
  0
LINE
  5
2D7
330
17
100
AcDbEntity
  8
Border
100
AcDbLine
 10
47.26939191764809
 20
207.0737154421081
 30
0.0
 11
47.2672895164267
 21
185.248
 31
0.0
  0
LINE
  5
2D8
330
17
100
AcDbEntity
  8
Mountain
100
AcDbLine
 10
48.76730631165879
 20
185.4222845578919
 30
0.0
 11
48.76948086164974
 21
207.997
 31
0.0
  0
LINE
  5
2D9
330
17
100
AcDbEntity
  8
Border
100
AcDbLine
 10
47.26939191764809
 20
207.0737154421081
 30
0.0
 11
48.76948086164974
 21
207.997
 31
0.0
  0
LINE
  5
2DA
330
17
100
AcDbEntity
  8
Border
100
AcDbLine
 10
48.76730631165879
 20
185.4222845578919
 30
0.0
 11
47.2672895164267
 21
185.248
 31
0.0
  0
LINE
  5
2DB
330
17
100
AcDbEntity
  8
Mountain
100
AcDbLine
 10
48.76730631165874
 20
183.5737154421081
 30
0.0
 11
70.59512425624699
 21
161.748
 31
0.0
  0
LINE
  5
2DC
330
17
100
AcDbEntity
  8
Mountain
100
AcDbLine
 10
71.89373661376689
 20
161.2980000000002
 30
0.0
 11
49.44157397305985
 21
183.748
 31
0.0
  0
LINE
  5
2DD
330
17
100
AcDbEntity
  8
Border
100
AcDbLine
 10
48.76730631165874
 20
183.5737154421081
 30
0.0
 11
49.44157397305985
 21
183.748
 31
0.0
  0
LINE
  5
2DE
330
17
100
AcDbEntity
  8
Border
100
AcDbLine
 10
71.89373661376689
 20
161.2980000000002
 30
0.0
 11
70.59512425624699
 21
161.748
 31
0.0
  0
LINE
  5
2DF
330
17
100
AcDbEntity
  8
Border
100
AcDbLine
 10
71.34419640849151
 20
207.997
 30
0.0
 11
48.76730631165879
 21
185.4222845578919
 31
0.0
  0
LINE
  5
2E0
330
17
100
AcDbEntity
  8
Mountain
100
AcDbLine
 10
49.44157397305982
 20
185.248
 30
0.0
 11
72.01834911465343
 21
207.8226004979417
 31
0.0
  0
LINE
  5
2E1
330
17
100
AcDbEntity
  8
Border
100
AcDbLine
 10
71.34419640849151
 20
207.997
 30
0.0
 11
72.01834911465343
 21
207.8226004979417
 31
0.0
  0
LINE
  5
2E2
330
17
100
AcDbEntity
  8
Border
100
AcDbLine
 10
49.44157397305982
 20
185.248
 30
0.0
 11
48.76730631165879
 21
185.4222845578919
 31
0.0
  0
LINE
  5
2E3
330
17
100
AcDbEntity
  8
Valley
100
AcDbLine
 10
49.44157397305985
 20
183.748
 30
0.0
 11
94.595124256247
 21
183.748
 31
0.0
  0
LINE
  5
2E4
330
17
100
AcDbEntity
  8
Valley
100
AcDbLine
 10
94.595124256247
 20
185.248
 30
0.0
 11
49.44157397305982
 21
185.248
 31
0.0
  0
LINE
  5
2E5
330
17
100
AcDbEntity
  8
Border
100
AcDbLine
 10
49.44157397305985
 20
183.748
 30
0.0
 11
49.44157397305982
 21
185.248
 31
0.0
  0
LINE
  5
2E6
330
17
100
AcDbEntity
  8
Border
100
AcDbLine
 10
94.595124256247
 20
185.248
 30
0.0
 11
94.595124256247
 21
183.748
 31
0.0
  0
LINE
  5
2E7
330
17
100
AcDbEntity
  8
Mountain
100
AcDbLine
 10
94.595124256247
 20
183.748
 30
0.0
 11
72.14296161553992
 21
161.2980000000002
 31
0.0
  0
LINE
  5
2E8
330
17
100
AcDbEntity
  8
Valley
100
AcDbLine
 10
73.44157397305981
 20
161.748
 30
0.0
 11
95.26939191764808
 21
183.5737154421081
 31
0.0
  0
LINE
  5
2E9
330
17
100
AcDbEntity
  8
Border
100
AcDbLine
 10
94.595124256247
 20
183.748
 30
0.0
 11
95.26939191764808
 21
183.5737154421081
 31
0.0
  0
LINE
  5
2EA
330
17
100
AcDbEntity
  8
Border
100
AcDbLine
 10
73.44157397305981
 20
161.748
 30
0.0
 11
72.14296161553992
 21
161.2980000000002
 31
0.0
  0
LINE
  5
2EB
330
17
100
AcDbEntity
  8
Border
100
AcDbLine
 10
72.01834911465343
 20
207.8226004979417
 30
0.0
 11
94.595124256247
 21
185.248
 31
0.0
  0
LINE
  5
2EC
330
17
100
AcDbEntity
  8
Mountain
100
AcDbLine
 10
95.26939191764808
 20
185.4222845578919
 30
0.0
 11
72.69250182081529
 21
207.997
 31
0.0
  0
LINE
  5
2ED
330
17
100
AcDbEntity
  8
Border
100
AcDbLine
 10
72.01834911465343
 20
207.8226004979417
 30
0.0
 11
72.69250182081529
 21
207.997
 31
0.0
  0
LINE
  5
2EE
330
17
100
AcDbEntity
  8
Border
100
AcDbLine
 10
95.26939191764808
 20
185.4222845578919
 30
0.0
 11
94.595124256247
 21
185.248
 31
0.0
  0
LINE
  5
2EF
330
17
100
AcDbEntity
  8
Mountain
100
AcDbLine
 10
95.26939191764808
 20
183.5737154421081
 30
0.0
 11
95.2672895164267
 21
161.748
 31
0.0
  0
LINE
  5
2F0
330
17
100
AcDbEntity
  8
Mountain
100
AcDbLine
 10
96.76730631165876
 20
161.9222845578919
 30
0.0
 11
96.76940871288012
 21
183.7479999999999
 31
0.0
  0
LINE
  5
2F1
330
17
100
AcDbEntity
  8
Border
100
AcDbLine
 10
95.26939191764808
 20
183.5737154421081
 30
0.0
 11
96.76940871288012
 21
183.7479999999999
 31
0.0
  0
LINE
  5
2F2
330
17
100
AcDbEntity
  8
Border
100
AcDbLine
 10
96.76730631165876
 20
161.9222845578919
 30
0.0
 11
95.2672895164267
 21
161.748
 31
0.0
  0
LINE
  5
2F3
330
17
100
AcDbEntity
  8
Border
100
AcDbLine
 10
95.26721736765706
 20
207.997
 30
0.0
 11
95.26939191764808
 21
185.4222845578919
 31
0.0
  0
LINE
  5
2F4
330
17
100
AcDbEntity
  8
Valley
100
AcDbLine
 10
96.7694087128801
 20
185.2479999999999
 30
0.0
 11
96.76730631165876
 21
207.0737154421081
 31
0.0
  0
LINE
  5
2F5
330
17
100
AcDbEntity
  8
Border
100
AcDbLine
 10
95.26721736765706
 20
207.997
 30
0.0
 11
96.76730631165876
 21
207.0737154421081
 31
0.0
  0
LINE
  5
2F6
330
17
100
AcDbEntity
  8
Border
100
AcDbLine
 10
96.7694087128801
 20
185.2479999999999
 30
0.0
 11
95.26939191764808
 21
185.4222845578919
 31
0.0
  0
LINE
  5
2F7
330
17
100
AcDbEntity
  8
Valley
100
AcDbLine
 10
96.76940871288012
 20
183.7479999999999
 30
0.0
 11
118.5951242562469
 21
183.7479999999999
 31
0.0
  0
LINE
  5
2F8
330
17
100
AcDbEntity
  8
Valley
100
AcDbLine
 10
118.595124256247
 20
185.2479999999999
 30
0.0
 11
96.7694087128801
 21
185.2479999999999
 31
0.0
  0
LINE
  5
2F9
330
17
100
AcDbEntity
  8
Border
100
AcDbLine
 10
96.76940871288012
 20
183.7479999999999
 30
0.0
 11
96.7694087128801
 21
185.2479999999999
 31
0.0
  0
LINE
  5
2FA
330
17
100
AcDbEntity
  8
Border
100
AcDbLine
 10
118.595124256247
 20
185.2479999999999
 30
0.0
 11
118.5951242562469
 21
183.7479999999999
 31
0.0
  0
LINE
  5
2FB
330
17
100
AcDbEntity
  8
Mountain
100
AcDbLine
 10
118.5951242562469
 20
183.7479999999999
 30
0.0
 11
96.76730631165876
 21
161.9222845578919
 31
0.0
  0
LINE
  5
2FC
330
17
100
AcDbEntity
  8
Mountain
100
AcDbLine
 10
97.44157397305984
 20
161.748
 30
0.0
 11
119.8937366137691
 21
184.1980000000021
 31
0.0
  0
LINE
  5
2FD
330
17
100
AcDbEntity
  8
Border
100
AcDbLine
 10
118.5951242562469
 20
183.7479999999999
 30
0.0
 11
119.8937366137691
 21
184.1980000000021
 31
0.0
  0
LINE
  5
2FE
330
17
100
AcDbEntity
  8
Border
100
AcDbLine
 10
97.44157397305984
 20
161.748
 30
0.0
 11
96.76730631165876
 21
161.9222845578919
 31
0.0
  0
LINE
  5
2FF
330
17
100
AcDbEntity
  8
Border
100
AcDbLine
 10
96.76730631165876
 20
207.0737154421081
 30
0.0
 11
118.595124256247
 21
185.2479999999999
 31
0.0
  0
LINE
  5
300
330
17
100
AcDbEntity
  8
Mountain
100
AcDbLine
 10
119.893736613765
 20
184.7980000000021
 30
0.0
 11
96.69250182081531
 21
207.9969999999999
 31
0.0
  0
LINE
  5
301
330
17
100
AcDbEntity
  8
Border
100
AcDbLine
 10
96.76730631165876
 20
207.0737154421081
 30
0.0
 11
96.69250182081531
 21
207.9969999999999
 31
0.0
  0
LINE
  5
302
330
17
100
AcDbEntity
  8
Border
100
AcDbLine
 10
119.893736613765
 20
184.7980000000021
 30
0.0
 11
118.595124256247
 21
185.2479999999999
 31
0.0
  0
LINE
  5
303
330
17
100
AcDbEntity
  8
Mountain
100
AcDbLine
 10
119.8937366137691
 20
184.1980000000021
 30
0.0
 11
120.1429616155377
 21
184.1980000000021
 31
0.0
  0
LINE
  5
304
330
17
100
AcDbEntity
  8
Mountain
100
AcDbLine
 10
120.1429616155418
 20
184.7980000000021
 30
0.0
 11
119.893736613765
 21
184.7980000000021
 31
0.0
  0
LINE
  5
305
330
17
100
AcDbEntity
  8
Border
100
AcDbLine
 10
119.8937366137691
 20
184.1980000000021
 30
0.0
 11
119.893736613765
 21
184.7980000000021
 31
0.0
  0
LINE
  5
306
330
17
100
AcDbEntity
  8
Border
100
AcDbLine
 10
120.1429616155418
 20
184.7980000000021
 30
0.0
 11
120.1429616155377
 21
184.1980000000021
 31
0.0
  0
LINE
  5
307
330
17
100
AcDbEntity
  8
Mountain
100
AcDbLine
 10
120.1429616155377
 20
184.1980000000021
 30
0.0
 11
142.595124256247
 21
161.748
 31
0.0
  0
LINE
  5
308
330
17
100
AcDbEntity
  8
Mountain
100
AcDbLine
 10
143.8937366137639
 20
161.298000000003
 30
0.0
 11
121.4415739730599
 21
183.7479999999999
 31
0.0
  0
LINE
  5
309
330
17
100
AcDbEntity
  8
Border
100
AcDbLine
 10
120.1429616155377
 20
184.1980000000021
 30
0.0
 11
121.4415739730599
 21
183.7479999999999
 31
0.0
  0
LINE
  5
30A
330
17
100
AcDbEntity
  8
Border
100
AcDbLine
 10
143.8937366137639
 20
161.298000000003
 30
0.0
 11
142.595124256247
 21
161.748
 31
0.0
  0
LINE
  5
30B
330
17
100
AcDbEntity
  8
Mountain
100
AcDbLine
 10
143.3441964084915
 20
207.9969999999999
 30
0.0
 11
120.1429616155418
 21
184.7980000000021
 31
0.0
  0
LINE
  5
30C
330
17
100
AcDbEntity
  8
Mountain
100
AcDbLine
 10
121.4415739730597
 20
185.2479999999999
 30
0.0
 11
143.9987906794624
 21
207.8030439466613
 31
0.0
  0
LINE
  5
30D
330
17
100
AcDbEntity
  8
Border
100
AcDbLine
 10
143.3441964084915
 20
207.9969999999999
 30
0.0
 11
143.9987906794624
 21
207.8030439466613
 31
0.0
  0
LINE
  5
30E
330
17
100
AcDbEntity
  8
Border
100
AcDbLine
 10
121.4415739730597
 20
185.2479999999999
 30
0.0
 11
120.1429616155418
 21
184.7980000000021
 31
0.0
  0
LINE
  5
30F
330
17
100
AcDbEntity
  8
Valley
100
AcDbLine
 10
121.4415739730599
 20
183.7479999999999
 30
0.0
 11
144.0167518691139
 21
183.7479999999999
 31
0.0
  0
LINE
  5
310
330
17
100
AcDbEntity
  8
Valley
100
AcDbLine
 10
144.0167518691139
 20
185.2479999999999
 30
0.0
 11
121.4415739730597
 21
185.2479999999999
 31
0.0
  0
LINE
  5
311
330
17
100
AcDbEntity
  8
Border
100
AcDbLine
 10
121.4415739730599
 20
183.7479999999999
 30
0.0
 11
121.4415739730597
 21
185.2479999999999
 31
0.0
  0
LINE
  5
312
330
17
100
AcDbEntity
  8
Border
100
AcDbLine
 10
144.0167518691139
 20
185.2479999999999
 30
0.0
 11
144.0167518691139
 21
183.7479999999999
 31
0.0
  0
ENDSEC
  0
SECTION
  2
OBJECTS
  0
DICTIONARY
  5
A
330
0
100
AcDbDictionary
281
     1
  3
ACAD_CIP_PREVIOUS_PRODUCT_INFO
350
163
  3
ACAD_COLOR
350
B
  3
ACAD_DETAILVIEWSTYLE
350
15F
  3
ACAD_GROUP
350
C
  3
ACAD_LAYOUT
350
D
  3
ACAD_MATERIAL
350
E
  3
ACAD_MLEADERSTYLE
350
F
  3
ACAD_MLINESTYLE
350
10
  3
ACAD_PLOTSETTINGS
350
11
  3
ACAD_PLOTSTYLENAME
350
12
  3
ACAD_SCALELIST
350
14
  3
ACAD_SECTIONVIEWSTYLE
350
15D
  3
ACAD_TABLESTYLE
350
15
  3
ACAD_VISUALSTYLE
350
16
  3
ACDB_RECOMPOSE_DATA
350
339
  3
AcDbVariableDictionary
350
31E
  3
EZDXF_META
350
2D
  0
DICTIONARY
  5
318
330
1
100
AcDbDictionary
280
     1
281
     1
  3
ACAD_LAYERSTATES
360
319
  0
XRECORD
  5
163
102
{ACAD_REACTORS
330
A
102
}
330
A
100
AcDbXrecord
280
     1
300
ACD
300
2020
300

  0
DICTIONARY
  5
B
330
A
100
AcDbDictionary
281
     1
  0
DICTIONARY
  5
15F
102
{ACAD_REACTORS
330
A
102
}
330
A
100
AcDbDictionary
281
     1
  3
Metric50
350
160
  0
DICTIONARY
  5
C
330
A
100
AcDbDictionary
281
     1
  0
DICTIONARY
  5
D
330
A
100
AcDbDictionary
281
     1
  3
Layout1
350
1E
  3
Model
350
1A
  0
DICTIONARY
  5
E
330
A
100
AcDbDictionary
281
     1
  3
ByBlock
350
1F
  3
ByLayer
350
20
  3
Global
350
21
  0
DICTIONARY
  5
F
330
A
100
AcDbDictionary
281
     1
  3
Standard
350
2C
  0
DICTIONARY
  5
10
330
A
100
AcDbDictionary
281
     1
  3
Standard
350
22
  0
DICTIONARY
  5
11
330
A
100
AcDbDictionary
281
     1
  0
ACDBDICTIONARYWDFLT
  5
12
330
A
100
AcDbDictionary
281
     1
  3
Normal
350
13
100
AcDbDictionaryWithDefault
340
13
  0
DICTIONARY
  5
14
330
A
100
AcDbDictionary
281
     1
  3
A0
350
14C
  3
A1
350
14D
  3
A2
350
14E
  3
A3
350
14F
  3
A4
350
150
  3
A5
350
151
  3
A6
350
152
  3
A7
350
153
  3
A8
350
154
  3
A9
350
155
  3
B0
350
156
  3
B1
350
157
  3
B2
350
158
  3
B3
350
159
  3
B4
350
15A
  3
B5
350
15B
  3
B6
350
15C
  0
DICTIONARY
  5
15D
102
{ACAD_REACTORS
330
A
102
}
330
A
100
AcDbDictionary
281
     1
  3
Metric50
350
15E
  0
DICTIONARY
  5
15
330
A
100
AcDbDictionary
281
     1
  3
Standard
350
14B
  0
DICTIONARY
  5
16
330
A
100
AcDbDictionary
281
     1
  3
2dWireframe
350
5A
  3
Basic
350
5B
  3
Brighten
350
5C
  3
ColorChange
350
5D
  3
Conceptual
350
5E
  3
Dim
350
5F
  3
EdgeColorOff
350
60
  3
Facepattern
350
61
  3
Flat
350
62
  3
FlatWithEdges
350
63
  3
Gouraud
350
64
  3
GouraudWithEdges
350
65
  3
Hidden
350
66
  3
JitterOff
350
67
  3
Linepattern
350
68
  3
Modeling
350
69
  3
OverhangOff
350
6A
  3
Realistic
350
6B
  3
Shaded
350
6C
  3
Shaded with edges
350
6D
  3
Shades of Gray
350
6E
  3
Sketchy
350
6F
  3
Thicken
350
70
  3
Wireframe
350
71
  3
X-Ray
350
72
  0
XRECORD
  5
339
102
{ACAD_REACTORS
330
A
102
}
330
A
100
AcDbXrecord
280
     1
 90
        1
330
14B
  0
DICTIONARY
  5
31E
102
{ACAD_REACTORS
330
A
102
}
330
A
100
AcDbDictionary
281
     1
  3
CANNOSCALE
350
323
  3
CMLEADERSTYLE
350
320
  3
CTABLESTYLE
350
31F
  3
CVIEWDETAILSTYLE
350
321
  3
CVIEWSECTIONSTYLE
350
322
  0
DICTIONARY
  5
2D
330
A
100
AcDbDictionary
280
     1
281
     1
  3
CREATED_BY_EZDXF
360
2E
  3
WRITTEN_BY_EZDXF
360
148
  0
DICTIONARY
  5
319
102
{ACAD_REACTORS
330
318
102
}
330
318
100
AcDbDictionary
281
     1
  0
ACDBDETAILVIEWSTYLE
  5
160
102
{ACAD_REACTORS
330
15F
102
}
330
15F
100
AcDbModelDocViewStyle
 70
     0
  3
Metric50
290
     0
300
Metric50
 90
        0
100
AcDbDetailViewStyle
 70
     0
 71
     0
 90
        3
 71
     1
340
29
 62
   256
 40
5.0
340
0
 62
   256
 40
5.0
300

 40
0.0
280
     1
 71
     2
340
26
 90
       25
 62
   256
 71
     3
340
29
 62
   256
 40
5.0
 90
        0
 40
15.0
 90
        1
300
%<\AcVar ViewDetailId>% (%<\AcVar ViewScale \f "%sn">%)
 71
     4
340
26
 90
       25
 62
   256
340
26
 90
       25
 62
   256
280
     0
  0
LAYOUT
  5
1E
330
D
100
AcDbPlotSettings
  1

  2
Adobe PDF
  4
A3
  6

 40
7.5
 41
20.0
 42
7.5
 43
20.0
 44
420.0
 45
297.0
 46
0.0
 47
0.0
 48
0.0
 49
0.0
140
0.0
141
0.0
142
1.0
143
1.0
 70
     0
 72
     1
 73
     0
 74
     5
  7

 75
    16
147
1.0
 76
     0
 77
     2
 78
   300
148
0.0
149
0.0
100
AcDbLayout
  1
Layout1
 70
     1
 71
     1
 10
0.0
 20
0.0
 11
420.0
 21
297.0
 12
0.0
 22
0.0
 32
0.0
 14
1.000000000000000E+20
 24
1.000000000000000E+20
 34
1.000000000000000E+20
 15
-1.000000000000000E+20
 25
-1.000000000000000E+20
 35
-1.000000000000000E+20
146
0.0
 13
0.0
 23
0.0
 33
0.0
 16
1.0
 26
0.0
 36
0.0
 17
0.0
 27
1.0
 37
0.0
 76
     0
330
1B
  0
LAYOUT
  5
1A
330
D
100
AcDbPlotSettings
  1

  2
Adobe PDF
  4
A3
  6

 40
7.5
 41
20.0
 42
7.5
 43
20.0
 44
420.0
 45
297.0
 46
0.0
 47
0.0
 48
0.0
 49
0.0
140
0.0
141
0.0
142
1.0
143
1.0
 70
  1024
 72
     1
 73
     0
 74
     5
  7

 75
    16
147
1.0
 76
     0
 77
     2
 78
   300
148
0.0
149
0.0
100
AcDbLayout
  1
Model
 70
     1
 71
     0
 10
0.0
 20
0.0
 11
420.0
 21
297.0
 12
0.0
 22
0.0
 32
0.0
 14
1.000000000000000E+20
 24
1.000000000000000E+20
 34
1.000000000000000E+20
 15
-1.000000000000000E+20
 25
-1.000000000000000E+20
 35
-1.000000000000000E+20
146
0.0
 13
0.0
 23
0.0
 33
0.0
 16
1.0
 26
0.0
 36
0.0
 17
0.0
 27
1.0
 37
0.0
 76
     1
330
17
331
23
  0
MATERIAL
  5
1F
102
{ACAD_REACTORS
330
E
102
}
330
E
100
AcDbMaterial
  1
ByBlock
 71
     1
 91
-1023410177
 73
     1
 78
     1
172
     1
176
     1
270
     1
273
     1
274
     1
 94
       63
  0
MATERIAL
  5
20
102
{ACAD_REACTORS
330
E
102
}
330
E
100
AcDbMaterial
  1
ByLayer
 71
     1
 91
-1023410177
 73
     1
 78
     1
172
     1
176
     1
270
     1
273
     1
274
     1
 94
       63
  0
MATERIAL
  5
21
102
{ACAD_REACTORS
330
E
102
}
330
E
100
AcDbMaterial
  1
Global
 71
     1
 91
-1023410177
 73
     1
 78
     1
172
     1
176
     1
270
     1
273
     1
274
     1
 94
       63
  0
MLEADERSTYLE
  5
2C
102
{ACAD_REACTORS
330
F
102
}
330
F
100
AcDbMLeaderStyle
179
     2
170
     2
171
     1
172
     0
 90
        2
 40
0.0
 41
0.0
173
     1
 91
-1056964608
 92
       -2
290
     1
 42
2.0
291
     1
 43
8.0
  3
Standard
 44
4.0
300

342
29
174
     1
178
     1
175
     1
176
     0
 93
-1056964608
 45
4.0
292
     0
297
     0
 46
4.0
 94
-1056964608
 47
1.0
 49
1.0
140
1.0
293
     1
141
0.0
294
     1
177
     0
142
1.0
295
     0
296
     0
143
3.75
271
     0
272
     9
273
     9
298
     1
  0
MLINESTYLE
  5
22
102
{ACAD_REACTORS
330
10
102
}
330
10
100
AcDbMlineStyle
  2
STANDARD
 70
     0
  3

 62
   256
 51
90.0
 52
90.0
 71
     2
 49
0.5
 62
   256
  6
BYLAYER
 49
-0.5
 62
   256
  6
BYLAYER
  0
ACDBPLACEHOLDER
  5
13
330
12
  0
SCALE
  5
14C
102
{ACAD_REACTORS
330
14
102
}
330
14
100
AcDbScale
 70
     0
300
1:1
140
1.0
141
1.0
290
     1
  0
SCALE
  5
14D
102
{ACAD_REACTORS
330
14
102
}
330
14
100
AcDbScale
 70
     0
300
1:2
140
1.0
141
2.0
290
     0
  0
SCALE
  5
14E
102
{ACAD_REACTORS
330
14
102
}
330
14
100
AcDbScale
 70
     0
300
1:4
140
1.0
141
4.0
290
     0
  0
SCALE
  5
14F
102
{ACAD_REACTORS
330
14
102
}
330
14
100
AcDbScale
 70
     0
300
1:5
140
1.0
141
5.0
290
     0
  0
SCALE
  5
150
102
{ACAD_REACTORS
330
14
102
}
330
14
100
AcDbScale
 70
     0
300
1:8
140
1.0
141
8.0
290
     0
  0
SCALE
  5
151
102
{ACAD_REACTORS
330
14
102
}
330
14
100
AcDbScale
 70
     0
300
1:10
140
1.0
141
10.0
290
     0
  0
SCALE
  5
152
102
{ACAD_REACTORS
330
14
102
}
330
14
100
AcDbScale
 70
     0
300
1:16
140
1.0
141
16.0
290
     0
  0
SCALE
  5
153
102
{ACAD_REACTORS
330
14
102
}
330
14
100
AcDbScale
 70
     0
300
1:20
140
1.0
141
20.0
290
     0
  0
SCALE
  5
154
102
{ACAD_REACTORS
330
14
102
}
330
14
100
AcDbScale
 70
     0
300
1:30
140
1.0
141
30.0
290
     0
  0
SCALE
  5
155
102
{ACAD_REACTORS
330
14
102
}
330
14
100
AcDbScale
 70
     0
300
1:40
140
1.0
141
40.0
290
     0
  0
SCALE
  5
156
102
{ACAD_REACTORS
330
14
102
}
330
14
100
AcDbScale
 70
     0
300
1:50
140
1.0
141
50.0
290
     0
  0
SCALE
  5
157
102
{ACAD_REACTORS
330
14
102
}
330
14
100
AcDbScale
 70
     0
300
1:100
140
1.0
141
100.0
290
     0
  0
SCALE
  5
158
102
{ACAD_REACTORS
330
14
102
}
330
14
100
AcDbScale
 70
     0
300
2:1
140
2.0
141
1.0
290
     0
  0
SCALE
  5
159
102
{ACAD_REACTORS
330
14
102
}
330
14
100
AcDbScale
 70
     0
300
4:1
140
4.0
141
1.0
290
     0
  0
SCALE
  5
15A
102
{ACAD_REACTORS
330
14
102
}
330
14
100
AcDbScale
 70
     0
300
8:1
140
8.0
141
1.0
290
     0
  0
SCALE
  5
15B
102
{ACAD_REACTORS
330
14
102
}
330
14
100
AcDbScale
 70
     0
300
10:1
140
10.0
141
1.0
290
     0
  0
SCALE
  5
15C
102
{ACAD_REACTORS
330
14
102
}
330
14
100
AcDbScale
 70
     0
300
100:1
140
100.0
141
1.0
290
     0
  0
ACDBSECTIONVIEWSTYLE
  5
15E
102
{ACAD_REACTORS
330
15D
102
}
330
15D
100
AcDbModelDocViewStyle
 70
     0
  3
Metric50
290
     0
300
Metric50
 90
        0
100
AcDbSectionViewStyle
 70
     0
 71
     0
 90
      102
 71
     1
340
29
 62
   256
 40
5.0
340
0
340
0
 62
   256
 40
5.0
300
I, O, Q, S, X, Z
 40
10.0
 90
        0
 40
2.5
 90
        0
 71
     2
340
26
 90
       25
 62
   256
340
26
 90
       50
 62
   256
 40
5.0
 40
2.5
 40
5.0
 71
     3
340
29
 62
   256
 40
5.0
 90
        0
 40
15.0
 90
        1
300
%<\AcVar ViewSectionStartId>%-%<\AcVar ViewSectionEndId>% (%<\AcVar ViewScale \f "%sn">%)
 71
     4
 62
   256
 62
   257
300
ANSI31
 40
1.0
 90
        0
290
     0
290
     0
 90
        6
 40
0.0
 40
1.570796326794896
 40
0.2617993877991494
 40
1.308996938995747
 40
-0.2617993877991494
 40
1.832595714594045
  0
TABLESTYLE
  5
14B
102
{ACAD_XDICTIONARY
360
324
102
}
102
{ACAD_REACTORS
330
15
102
}
330
15
100
AcDbTableStyle
280
     0
  3
Standard
 70
     0
 71
     0
 40
1.5
 41
1.5
280
     0
281
     0
  7
Standard
140
4.5
170
     2
 62
     0
 63
     7
283
     0
 90
      512
 91
        0
  1

274
    -2
284
     1
 64
     0
275
    -2
285
     1
 65
     0
276
    -2
286
     1
 66
     0
277
    -2
287
     1
 67
     0
278
    -2
288
     1
 68
     0
279
    -2
289
     1
 69
     0
  7
Standard
140
6.0
170
     5
 62
     0
 63
     7
283
     0
 90
      512
 91
        0
  1

274
    -2
284
     1
 64
     0
275
    -2
285
     1
 65
     0
276
    -2
286
     1
 66
     0
277
    -2
287
     1
 67
     0
278
    -2
288
     1
 68
     0
279
    -2
289
     1
 69
     0
  7
Standard
140
4.5
170
     5
 62
     0
 63
     7
283
     0
 90
      512
 91
        0
  1

274
    -2
284
     1
 64
     0
275
    -2
285
     1
 65
     0
276
    -2
286
     1
 66
     0
277
    -2
287
     1
 67
     0
278
    -2
288
     1
 68
     0
279
    -2
289
     1
 69
     0
  0
VISUALSTYLE
  5
5A
102
{ACAD_REACTORS
330
16
102
}
330
16
100
AcDbVisualStyle
  2
2dWireframe
 70
     4
177
     3
291
     0
 70
    58
 90
        2
176
     1
 90
        2
176
     1
 90
        0
176
     1
 90
        0
176
     1
 40
0.6
176
     1
 40
30.0
176
     1
 62
     7
420
 16777215
176
     1
 90
        1
176
     1
 90
        4
176
     1
 62
     7
176
     1
 62
   257
176
     1
 90
        1
176
     1
 90
        1
176
     1
 40
1.0
176
     1
 90
        8
176
     1
 62
     7
176
     1
 40
1.0
176
     1
 90
        1
176
     1
 90
        6
176
     1
 90
        2
176
     1
 62
     7
176
     1
 90
        5
176
     1
 90
        0
176
     1
 90
        0
176
     1
290
     0
176
     1
 90
        1
176
     1
 40
0.0
176
     1
 90
        0
176
     1
290
     1
176
     1
290
     1
176
     1
290
     0
176
     1
290
     0
176
     1
290
     0
176
     1
290
     0
176
     1
290
     0
176
     1
290
     0
176
     1
290
     0
176
     1
 90
       50
176
     1
 40
0.0
176
     1
 40
1.0
176
     1
 90
        0
176
     1
 62
    18
176
     1
 90
       50
176
     1
 90
        3
176
     1
 62
     5
420
      255
176
     1
290
     0
176
     1
 90
       50
176
     1
 90
       50
176
     1
 90
       50
176
     1
290
     0
176
     1
 90
       50
176
     1
 62
   256
176
     0
 40
1.0
176
     0
 90
        2
176
     1
  1
strokes_ogs.tif
176
     1
290
     0
176
     1
 40
1.0
176
     1
 40
1.0
176
     1
  0
VISUALSTYLE
  5
5B
102
{ACAD_REACTORS
330
16
102
}
330
16
100
AcDbVisualStyle
  2
Basic
 70
     7
177
     3
291
     1
 70
    58
 90
        2
176
     1
 90
        2
176
     1
 90
        0
176
     1
 90
        1
176
     1
 40
0.6
176
     1
 40
30.0
176
     1
 62
     7
420
 16777215
176
     1
 90
        1
176
     1
 90
        4
176
     1
 62
     7
176
     1
 62
   257
176
     1
 90
        1
176
     1
 90
        1
176
     1
 40
1.0
176
     1
 90
        8
176
     1
 62
     7
176
     1
 40
1.0
176
     1
 90
        1
176
     1
 90
        6
176
     1
 90
        2
176
     1
 62
     7
176
     1
 90
        5
176
     1
 90
        0
176
     1
 90
        0
176
     1
290
     0
176
     1
 90
        1
176
     1
 40
0.0
176
     1
 90
        0
176
     1
290
     0
176
     1
290
     1
176
     1
290
     1
176
     1
290
     0
176
     1
290
     0
176
     1
290
     0
176
     1
290
     0
176
     1
290
     0
176
     1
290
     0
176
     1
 90
       50
176
     1
 40
0.0
176
     1
 40
1.0
176
     1
 90
        0
176
     1
 62
    18
176
     1
 90
       50
176
     1
 90
        3
176
     1
 62
     5
420
      255
176
     1
290
     0
176
     1
 90
       50
176
     1
 90
       50
176
     1
 90
       50
176
     1
290
     0
176
     1
 90
       50
176
     1
 62
   256
176
     0
 40
1.0
176
     0
 90
        2
176
     1
  1
strokes_ogs.tif
176
     1
290
     0
176
     1
 40
1.0
176
     1
 40
1.0
176
     1
  0
VISUALSTYLE
  5
5C
102
{ACAD_REACTORS
330
16
102
}
330
16
100
AcDbVisualStyle
  2
Brighten
 70
    12
177
     3
291
     1
 70
    58
 90
        2
176
     1
 90
        2
176
     1
 90
        0
176
     1
 90
        2
176
     1
 40
0.6
176
     1
 40
30.0
176
     1
 62
     7
420
 16777215
176
     1
 90
        1
176
     1
 90
        4
176
     1
 62
     7
176
     1
 62
   257
176
     1
 90
        1
176
     1
 90
        1
176
     1
 40
1.0
176
     1
 90
        8
176
     1
 62
     7
176
     1
 40
1.0
176
     1
 90
        1
176
     1
 90
        6
176
     1
 90
        2
176
     1
 62
     7
176
     1
 90
        5
176
     1
 90
        0
176
     1
 90
        0
176
     1
290
     0
176
     1
 90
        1
176
     1
 40
0.0
176
     1
 90
        0
176
     1
290
     0
176
     1
290
     1
176
     1
290
     1
176
     1
290
     0
176
     1
290
     0
176
     1
290
     0
176
     1
290
     0
176
     1
290
     0
176
     1
290
     0
176
     1
 90
       50
176
     1
 40
0.0
176
     1
 40
1.0
176
     1
 90
        0
176
     1
 62
    18
176
     1
 90
       50
176
     1
 90
        3
176
     1
 62
     5
420
      255
176
     1
290
     0
176
     1
 90
       50
176
     1
 90
       50
176
     1
 90
       50
176
     1
290
     0
176
     1
 90
       50
176
     1
 62
   256
176
     0
 40
1.0
176
     0
 90
        2
176
     1
  1
strokes_ogs.tif
176
     1
290
     0
176
     1
 40
1.0
176
     1
 40
1.0
176
     1
  0
VISUALSTYLE
  5
5D
102
{ACAD_REACTORS
330
16
102
}
330
16
100
AcDbVisualStyle
  2
ColorChange
 70
    16
177
     3
291
     1
 70
    58
 90
        2
176
     1
 90
        2
176
     1
 90
        0
176
     1
 90
        2
176
     1
 40
0.6
176
     1
 40
30.0
176
     1
 62
     7
420
 16777215
176
     1
 90
        1
176
     1
 90
        4
176
     1
 62
     7
176
     1
 62
   257
176
     1
 90
        1
176
     1
 90
        1
176
     1
 40
1.0
176
     1
 90
        8
176
     1
 62
     7
176
     1
 40
1.0
176
     1
 90
        1
176
     1
 90
        6
176
     1
 90
        2
176
     1
 62
     7
176
     1
 90
        5
176
     1
 90
        0
176
     1
 90
        0
176
     1
290
     0
176
     1
 90
        1
176
     1
 40
0.0
176
     1
 90
        0
176
     1
290
     0
176
     1
290
     1
176
     1
290
     1
176
     1
290
     0
176
     1
290
     0
176
     1
290
     0
176
     1
290
     0
176
     1
290
     0
176
     1
290
     0
176
     1
 90
       50
176
     1
 40
0.0
176
     1
 40
1.0
176
     1
 90
        0
176
     1
 62
    18
176
     1
 90
       50
176
     1
 90
        3
176
     1
 62
     5
420
      255
176
     1
290
     0
176
     1
 90
       50
176
     1
 90
       50
176
     1
 90
       50
176
     1
290
     0
176
     1
 90
       50
176
     1
 62
   256
176
     0
 40
1.0
176
     0
 90
        2
176
     1
  1
strokes_ogs.tif
176
     1
290
     0
176
     1
 40
1.0
176
     1
 40
1.0
176
     1
  0
VISUALSTYLE
  5
5E
102
{ACAD_REACTORS
330
16
102
}
330
16
100
AcDbVisualStyle
  2
Conceptual
 70
     9
177
     3
291
     0
 70
    58
 90
        2
176
     1
 90
        2
176
     1
 90
        0
176
     1
 90
        3
176
     1
 40
0.6
176
     1
 40
30.0
176
     1
 62
     7
420
 16777215
176
     1
 90
        1
176
     1
 90
        4
176
     1
 62
     7
176
     1
 62
   257
176
     1
 90
        1
176
     1
 90
        1
176
     1
 40
1.0
176
     1
 90
        8
176
     1
 62
     7
176
     1
 40
1.0
176
     1
 90
        1
176
     1
 90
        6
176
     1
 90
        2
176
     1
 62
     7
176
     1
 90
        5
176
     1
 90
        0
176
     1
 90
        0
176
     1
290
     0
176
     1
 90
        1
176
     1
 40
0.0
176
     1
 90
        0
176
     1
290
     0
176
     1
290
     1
176
     1
290
     1
176
     1
290
     0
176
     1
290
     0
176
     1
290
     0
176
     1
290
     0
176
     1
290
     0
176
     1
290
     0
176
     1
 90
       50
176
     1
 40
0.0
176
     1
 40
1.0
176
     1
 90
        0
176
     1
 62
    18
176
     1
 90
       50
176
     1
 90
        3
176
     1
 62
     5
420
      255
176
     1
290
     0
176
     1
 90
       50
176
     1
 90
       50
176
     1
 90
       50
176
     1
290
     0
176
     1
 90
       50
176
     1
 62
   256
176
     0
 40
1.0
176
     0
 90
        2
176
     1
  1
strokes_ogs.tif
176
     1
290
     0
176
     1
 40
1.0
176
     1
 40
1.0
176
     1
  0
VISUALSTYLE
  5
5F
102
{ACAD_REACTORS
330
16
102
}
330
16
100
AcDbVisualStyle
  2
Dim
 70
    11
177
     3
291
     1
 70
    58
 90
        2
176
     1
 90
        2
176
     1
 90
        0
176
     1
 90
        2
176
     1
 40
0.6
176
     1
 40
30.0
176
     1
 62
     7
420
 16777215
176
     1
 90
        1
176
     1
 90
        4
176
     1
 62
     7
176
     1
 62
   257
176
     1
 90
        1
176
     1
 90
        1
176
     1
 40
1.0
176
     1
 90
        8
176
     1
 62
     7
176
     1
 40
1.0
176
     1
 90
        1
176
     1
 90
        6
176
     1
 90
        2
176
     1
 62
     7
176
     1
 90
        5
176
     1
 90
        0
176
     1
 90
        0
176
     1
290
     0
176
     1
 90
        1
176
     1
 40
0.0
176
     1
 90
        0
176
     1
290
     0
176
     1
290
     1
176
     1
290
     1
176
     1
290
     0
176
     1
290
     0
176
     1
290
     0
176
     1
290
     0
176
     1
290
     0
176
     1
290
     0
176
     1
 90
       50
176
     1
 40
0.0
176
     1
 40
1.0
176
     1
 90
        0
176
     1
 62
    18
176
     1
 90
       50
176
     1
 90
        3
176
     1
 62
     5
420
      255
176
     1
290
     0
176
     1
 90
       50
176
     1
 90
       50
176
     1
 90
       50
176
     1
290
     0
176
     1
 90
       50
176
     1
 62
   256
176
     0
 40
1.0
176
     0
 90
        2
176
     1
  1
strokes_ogs.tif
176
     1
290
     0
176
     1
 40
1.0
176
     1
 40
1.0
176
     1
  0
VISUALSTYLE
  5
60
102
{ACAD_REACTORS
330
16
102
}
330
16
100
AcDbVisualStyle
  2
EdgeColorOff
 70
    22
177
     3
291
     1
 70
    58
 90
        2
176
     1
 90
        2
176
     1
 90
        0
176
     1
 90
        2
176
     1
 40
0.6
176
     1
 40
30.0
176
     1
 62
     7
420
 16777215
176
     1
 90
        1
176
     1
 90
        4
176
     1
 62
     7
176
     1
 62
   257
176
     1
 90
        1
176
     1
 90
        1
176
     1
 40
1.0
176
     1
 90
        8
176
     1
 62
     7
176
     1
 40
1.0
176
     1
 90
        1
176
     1
 90
        6
176
     1
 90
        2
176
     1
 62
     7
176
     1
 90
        5
176
     1
 90
        0
176
     1
 90
        0
176
     1
290
     0
176
     1
 90
        1
176
     1
 40
0.0
176
     1
 90
        0
176
     1
290
     0
176
     1
290
     1
176
     1
290
     1
176
     1
290
     0
176
     1
290
     0
176
     1
290
     0
176
     1
290
     0
176
     1
290
     0
176
     1
290
     0
176
     1
 90
       50
176
     1
 40
0.0
176
     1
 40
1.0
176
     1
 90
        0
176
     1
 62
    18
176
     1
 90
       50
176
     1
 90
        3
176
     1
 62
     5
420
      255
176
     1
290
     0
176
     1
 90
       50
176
     1
 90
       50
176
     1
 90
       50
176
     1
290
     0
176
     1
 90
       50
176
     1
 62
   256
176
     0
 40
1.0
176
     0
 90
        2
176
     1
  1
strokes_ogs.tif
176
     1
290
     0
176
     1
 40
1.0
176
     1
 40
1.0
176
     1
  0
VISUALSTYLE
  5
61
102
{ACAD_REACTORS
330
16
102
}
330
16
100
AcDbVisualStyle
  2
Facepattern
 70
    15
177
     3
291
     1
 70
    58
 90
        2
176
     1
 90
        2
176
     1
 90
        0
176
     1
 90
        2
176
     1
 40
0.6
176
     1
 40
30.0
176
     1
 62
     7
420
 16777215
176
     1
 90
        1
176
     1
 90
        4
176
     1
 62
     7
176
     1
 62
   257
176
     1
 90
        1
176
     1
 90
        1
176
     1
 40
1.0
176
     1
 90
        8
176
     1
 62
     7
176
     1
 40
1.0
176
     1
 90
        1
176
     1
 90
        6
176
     1
 90
        2
176
     1
 62
     7
176
     1
 90
        5
176
     1
 90
        0
176
     1
 90
        0
176
     1
290
     0
176
     1
 90
        1
176
     1
 40
0.0
176
     1
 90
        0
176
     1
290
     0
176
     1
290
     1
176
     1
290
     1
176
     1
290
     0
176
     1
290
     0
176
     1
290
     0
176
     1
290
     0
176
     1
290
     0
176
     1
290
     0
176
     1
 90
       50
176
     1
 40
0.0
176
     1
 40
1.0
176
     1
 90
        0
176
     1
 62
    18
176
     1
 90
       50
176
     1
 90
        3
176
     1
 62
     5
420
      255
176
     1
290
     0
176
     1
 90
       50
176
     1
 90
       50
176
     1
 90
       50
176
     1
290
     0
176
     1
 90
       50
176
     1
 62
   256
176
     0
 40
1.0
176
     0
 90
        2
176
     1
  1
strokes_ogs.tif
176
     1
290
     0
176
     1
 40
1.0
176
     1
 40
1.0
176
     1
  0
VISUALSTYLE
  5
62
102
{ACAD_REACTORS
330
16
102
}
330
16
100
AcDbVisualStyle
  2
Flat
 70
     0
177
     3
291
     1
 70
    58
 90
        2
176
     1
 90
        2
176
     1
 90
        0
176
     1
 90
        2
176
     1
 40
0.6
176
     1
 40
30.0
176
     1
 62
     7
420
 16777215
176
     1
 90
        1
176
     1
 90
        4
176
     1
 62
     7
176
     1
 62
   257
176
     1
 90
        1
176
     1
 90
        1
176
     1
 40
1.0
176
     1
 90
        8
176
     1
 62
     7
176
     1
 40
1.0
176
     1
 90
        1
176
     1
 90
        6
176
     1
 90
        2
176
     1
 62
     7
176
     1
 90
        5
176
     1
 90
        0
176
     1
 90
        0
176
     1
290
     0
176
     1
 90
        1
176
     1
 40
0.0
176
     1
 90
        0
176
     1
290
     0
176
     1
290
     1
176
     1
290
     1
176
     1
290
     0
176
     1
290
     0
176
     1
290
     0
176
     1
290
     0
176
     1
290
     0
176
     1
290
     0
176
     1
 90
       50
176
     1
 40
0.0
176
     1
 40
1.0
176
     1
 90
        0
176
     1
 62
    18
176
     1
 90
       50
176
     1
 90
        3
176
     1
 62
     5
420
      255
176
     1
290
     0
176
     1
 90
       50
176
     1
 90
       50
176
     1
 90
       50
176
     1
290
     0
176
     1
 90
       50
176
     1
 62
   256
176
     0
 40
1.0
176
     0
 90
        2
176
     1
  1
strokes_ogs.tif
176
     1
290
     0
176
     1
 40
1.0
176
     1
 40
1.0
176
     1
  0
VISUALSTYLE
  5
63
102
{ACAD_REACTORS
330
16
102
}
330
16
100
AcDbVisualStyle
  2
FlatWithEdges
 70
     1
177
     3
291
     1
 70
    58
 90
        2
176
     1
 90
        2
176
     1
 90
        0
176
     1
 90
        2
176
     1
 40
0.6
176
     1
 40
30.0
176
     1
 62
     7
420
 16777215
176
     1
 90
        1
176
     1
 90
        4
176
     1
 62
     7
176
     1
 62
   257
176
     1
 90
        1
176
     1
 90
        1
176
     1
 40
1.0
176
     1
 90
        8
176
     1
 62
     7
176
     1
 40
1.0
176
     1
 90
        1
176
     1
 90
        6
176
     1
 90
        2
176
     1
 62
     7
176
     1
 90
        5
176
     1
 90
        0
176
     1
 90
        0
176
     1
290
     0
176
     1
 90
        1
176
     1
 40
0.0
176
     1
 90
        0
176
     1
290
     0
176
     1
290
     1
176
     1
290
     1
176
     1
290
     0
176
     1
290
     0
176
     1
290
     0
176
     1
290
     0
176
     1
290
     0
176
     1
290
     0
176
     1
 90
       50
176
     1
 40
0.0
176
     1
 40
1.0
176
     1
 90
        0
176
     1
 62
    18
176
     1
 90
       50
176
     1
 90
        3
176
     1
 62
     5
420
      255
176
     1
290
     0
176
     1
 90
       50
176
     1
 90
       50
176
     1
 90
       50
176
     1
290
     0
176
     1
 90
       50
176
     1
 62
   256
176
     0
 40
1.0
176
     0
 90
        2
176
     1
  1
strokes_ogs.tif
176
     1
290
     0
176
     1
 40
1.0
176
     1
 40
1.0
176
     1
  0
VISUALSTYLE
  5
64
102
{ACAD_REACTORS
330
16
102
}
330
16
100
AcDbVisualStyle
  2
Gouraud
 70
     2
177
     3
291
     1
 70
    58
 90
        2
176
     1
 90
        2
176
     1
 90
        0
176
     1
 90
        2
176
     1
 40
0.6
176
     1
 40
30.0
176
     1
 62
     7
420
 16777215
176
     1
 90
        1
176
     1
 90
        4
176
     1
 62
     7
176
     1
 62
   257
176
     1
 90
        1
176
     1
 90
        1
176
     1
 40
1.0
176
     1
 90
        8
176
     1
 62
     7
176
     1
 40
1.0
176
     1
 90
        1
176
     1
 90
        6
176
     1
 90
        2
176
     1
 62
     7
176
     1
 90
        5
176
     1
 90
        0
176
     1
 90
        0
176
     1
290
     0
176
     1
 90
        1
176
     1
 40
0.0
176
     1
 90
        0
176
     1
290
     0
176
     1
290
     1
176
     1
290
     1
176
     1
290
     0
176
     1
290
     0
176
     1
290
     0
176
     1
290
     0
176
     1
290
     0
176
     1
290
     0
176
     1
 90
       50
176
     1
 40
0.0
176
     1
 40
1.0
176
     1
 90
        0
176
     1
 62
    18
176
     1
 90
       50
176
     1
 90
        3
176
     1
 62
     5
420
      255
176
     1
290
     0
176
     1
 90
       50
176
     1
 90
       50
176
     1
 90
       50
176
     1
290
     0
176
     1
 90
       50
176
     1
 62
   256
176
     0
 40
1.0
176
     0
 90
        2
176
     1
  1
strokes_ogs.tif
176
     1
290
     0
176
     1
 40
1.0
176
     1
 40
1.0
176
     1
  0
VISUALSTYLE
  5
65
102
{ACAD_REACTORS
330
16
102
}
330
16
100
AcDbVisualStyle
  2
GouraudWithEdges
 70
     3
177
     3
291
     1
 70
    58
 90
        2
176
     1
 90
        2
176
     1
 90
        0
176
     1
 90
        2
176
     1
 40
0.6
176
     1
 40
30.0
176
     1
 62
     7
420
 16777215
176
     1
 90
        1
176
     1
 90
        4
176
     1
 62
     7
176
     1
 62
   257
176
     1
 90
        1
176
     1
 90
        1
176
     1
 40
1.0
176
     1
 90
        8
176
     1
 62
     7
176
     1
 40
1.0
176
     1
 90
        1
176
     1
 90
        6
176
     1
 90
        2
176
     1
 62
     7
176
     1
 90
        5
176
     1
 90
        0
176
     1
 90
        0
176
     1
290
     0
176
     1
 90
        1
176
     1
 40
0.0
176
     1
 90
        0
176
     1
290
     0
176
     1
290
     1
176
     1
290
     1
176
     1
290
     0
176
     1
290
     0
176
     1
290
     0
176
     1
290
     0
176
     1
290
     0
176
     1
290
     0
176
     1
 90
       50
176
     1
 40
0.0
176
     1
 40
1.0
176
     1
 90
        0
176
     1
 62
    18
176
     1
 90
       50
176
     1
 90
        3
176
     1
 62
     5
420
      255
176
     1
290
     0
176
     1
 90
       50
176
     1
 90
       50
176
     1
 90
       50
176
     1
290
     0
176
     1
 90
       50
176
     1
 62
   256
176
     0
 40
1.0
176
     0
 90
        2
176
     1
  1
strokes_ogs.tif
176
     1
290
     0
176
     1
 40
1.0
176
     1
 40
1.0
176
     1
  0
VISUALSTYLE
  5
66
102
{ACAD_REACTORS
330
16
102
}
330
16
100
AcDbVisualStyle
  2
Hidden
 70
     6
177
     3
291
     0
 70
    58
 90
        2
176
     1
 90
        2
176
     1
 90
        0
176
     1
 90
        1
176
     1
 40
0.6
176
     1
 40
30.0
176
     1
 62
     7
420
 16777215
176
     1
 90
        1
176
     1
 90
        4
176
     1
 62
     7
176
     1
 62
   257
176
     1
 90
        1
176
     1
 90
        1
176
     1
 40
1.0
176
     1
 90
        8
176
     1
 62
     7
176
     1
 40
1.0
176
     1
 90
        1
176
     1
 90
        6
176
     1
 90
        2
176
     1
 62
     7
176
     1
 90
        5
176
     1
 90
        0
176
     1
 90
        0
176
     1
290
     0
176
     1
 90
        1
176
     1
 40
0.0
176
     1
 90
        0
176
     1
290
     0
176
     1
290
     1
176
     1
290
     1
176
     1
290
     0
176
     1
290
     0
176
     1
290
     0
176
     1
290
     0
176
     1
290
     0
176
     1
290
     0
176
     1
 90
       50
176
     1
 40
0.0
176
     1
 40
1.0
176
     1
 90
        0
176
     1
 62
    18
176
     1
 90
       50
176
     1
 90
        3
176
     1
 62
     5
420
      255
176
     1
290
     0
176
     1
 90
       50
176
     1
 90
       50
176
     1
 90
       50
176
     1
290
     0
176
     1
 90
       50
176
     1
 62
   256
176
     0
 40
1.0
176
     0
 90
        2
176
     1
  1
strokes_ogs.tif
176
     1
290
     0
176
     1
 40
1.0
176
     1
 40
1.0
176
     1
  0
VISUALSTYLE
  5
67
102
{ACAD_REACTORS
330
16
102
}
330
16
100
AcDbVisualStyle
  2
JitterOff
 70
    20
177
     3
291
     1
 70
    58
 90
        2
176
     1
 90
        2
176
     1
 90
        0
176
     1
 90
        2
176
     1
 40
0.6
176
     1
 40
30.0
176
     1
 62
     7
420
 16777215
176
     1
 90
        1
176
     1
 90
        4
176
     1
 62
     7
176
     1
 62
   257
176
     1
 90
        1
176
     1
 90
        1
176
     1
 40
1.0
176
     1
 90
        8
176
     1
 62
     7
176
     1
 40
1.0
176
     1
 90
        1
176
     1
 90
        6
176
     1
 90
        2
176
     1
 62
     7
176
     1
 90
        5
176
     1
 90
        0
176
     1
 90
        0
176
     1
290
     0
176
     1
 90
        1
176
     1
 40
0.0
176
     1
 90
        0
176
     1
290
     0
176
     1
290
     1
176
     1
290
     1
176
     1
290
     0
176
     1
290
     0
176
     1
290
     0
176
     1
290
     0
176
     1
290
     0
176
     1
290
     0
176
     1
 90
       50
176
     1
 40
0.0
176
     1
 40
1.0
176
     1
 90
        0
176
     1
 62
    18
176
     1
 90
       50
176
     1
 90
        3
176
     1
 62
     5
420
      255
176
     1
290
     0
176
     1
 90
       50
176
     1
 90
       50
176
     1
 90
       50
176
     1
290
     0
176
     1
 90
       50
176
     1
 62
   256
176
     0
 40
1.0
176
     0
 90
        2
176
     1
  1
strokes_ogs.tif
176
     1
290
     0
176
     1
 40
1.0
176
     1
 40
1.0
176
     1
  0
VISUALSTYLE
  5
68
102
{ACAD_REACTORS
330
16
102
}
330
16
100
AcDbVisualStyle
  2
Linepattern
 70
    14
177
     3
291
     1
 70
    58
 90
        2
176
     1
 90
        2
176
     1
 90
        0
176
     1
 90
        2
176
     1
 40
0.6
176
     1
 40
30.0
176
     1
 62
     7
420
 16777215
176
     1
 90
        1
176
     1
 90
        4
176
     1
 62
     7
176
     1
 62
   257
176
     1
 90
        1
176
     1
 90
        1
176
     1
 40
1.0
176
     1
 90
        8
176
     1
 62
     7
176
     1
 40
1.0
176
     1
 90
        1
176
     1
 90
        6
176
     1
 90
        2
176
     1
 62
     7
176
     1
 90
        5
176
     1
 90
        0
176
     1
 90
        0
176
     1
290
     0
176
     1
 90
        1
176
     1
 40
0.0
176
     1
 90
        0
176
     1
290
     0
176
     1
290
     1
176
     1
290
     1
176
     1
290
     0
176
     1
290
     0
176
     1
290
     0
176
     1
290
     0
176
     1
290
     0
176
     1
290
     0
176
     1
 90
       50
176
     1
 40
0.0
176
     1
 40
1.0
176
     1
 90
        0
176
     1
 62
    18
176
     1
 90
       50
176
     1
 90
        3
176
     1
 62
     5
420
      255
176
     1
290
     0
176
     1
 90
       50
176
     1
 90
       50
176
     1
 90
       50
176
     1
290
     0
176
     1
 90
       50
176
     1
 62
   256
176
     0
 40
1.0
176
     0
 90
        2
176
     1
  1
strokes_ogs.tif
176
     1
290
     0
176
     1
 40
1.0
176
     1
 40
1.0
176
     1
  0
VISUALSTYLE
  5
69
102
{ACAD_REACTORS
330
16
102
}
330
16
100
AcDbVisualStyle
  2
Modeling
 70
    10
177
     3
291
     0
 70
    58
 90
        2
176
     1
 90
        2
176
     1
 90
        0
176
     1
 90
        2
176
     1
 40
0.6
176
     1
 40
30.0
176
     1
 62
     7
420
 16777215
176
     1
 90
        1
176
     1
 90
        4
176
     1
 62
     7
176
     1
 62
   257
176
     1
 90
        1
176
     1
 90
        1
176
     1
 40
1.0
176
     1
 90
        8
176
     1
 62
     7
176
     1
 40
1.0
176
     1
 90
        1
176
     1
 90
        6
176
     1
 90
        2
176
     1
 62
     7
176
     1
 90
        5
176
     1
 90
        0
176
     1
 90
        0
176
     1
290
     0
176
     1
 90
        1
176
     1
 40
0.0
176
     1
 90
        0
176
     1
290
     0
176
     1
290
     1
176
     1
290
     1
176
     1
290
     0
176
     1
290
     0
176
     1
290
     0
176
     1
290
     0
176
     1
290
     0
176
     1
290
     0
176
     1
 90
       50
176
     1
 40
0.0
176
     1
 40
1.0
176
     1
 90
        0
176
     1
 62
    18
176
     1
 90
       50
176
     1
 90
        3
176
     1
 62
     5
420
      255
176
     1
290
     0
176
     1
 90
       50
176
     1
 90
       50
176
     1
 90
       50
176
     1
290
     0
176
     1
 90
       50
176
     1
 62
   256
176
     0
 40
1.0
176
     0
 90
        2
176
     1
  1
strokes_ogs.tif
176
     1
290
     0
176
     1
 40
1.0
176
     1
 40
1.0
176
     1
  0
VISUALSTYLE
  5
6A
102
{ACAD_REACTORS
330
16
102
}
330
16
100
AcDbVisualStyle
  2
OverhangOff
 70
    21
177
     3
291
     1
 70
    58
 90
        2
176
     1
 90
        2
176
     1
 90
        0
176
     1
 90
        2
176
     1
 40
0.6
176
     1
 40
30.0
176
     1
 62
     7
420
 16777215
176
     1
 90
        1
176
     1
 90
        4
176
     1
 62
     7
176
     1
 62
   257
176
     1
 90
        1
176
     1
 90
        1
176
     1
 40
1.0
176
     1
 90
        8
176
     1
 62
     7
176
     1
 40
1.0
176
     1
 90
        1
176
     1
 90
        6
176
     1
 90
        2
176
     1
 62
     7
176
     1
 90
        5
176
     1
 90
        0
176
     1
 90
        0
176
     1
290
     0
176
     1
 90
        1
176
     1
 40
0.0
176
     1
 90
        0
176
     1
290
     0
176
     1
290
     1
176
     1
290
     1
176
     1
290
     0
176
     1
290
     0
176
     1
290
     0
176
     1
290
     0
176
     1
290
     0
176
     1
290
     0
176
     1
 90
       50
176
     1
 40
0.0
176
     1
 40
1.0
176
     1
 90
        0
176
     1
 62
    18
176
     1
 90
       50
176
     1
 90
        3
176
     1
 62
     5
420
      255
176
     1
290
     0
176
     1
 90
       50
176
     1
 90
       50
176
     1
 90
       50
176
     1
290
     0
176
     1
 90
       50
176
     1
 62
   256
176
     0
 40
1.0
176
     0
 90
        2
176
     1
  1
strokes_ogs.tif
176
     1
290
     0
176
     1
 40
1.0
176
     1
 40
1.0
176
     1
  0
VISUALSTYLE
  5
6B
102
{ACAD_REACTORS
330
16
102
}
330
16
100
AcDbVisualStyle
  2
Realistic
 70
     8
177
     3
291
     0
 70
    58
 90
        2
176
     1
 90
        2
176
     1
 90
        0
176
     1
 90
        2
176
     1
 40
0.6
176
     1
 40
30.0
176
     1
 62
     7
420
 16777215
176
     1
 90
        1
176
     1
 90
        4
176
     1
 62
     7
176
     1
 62
   257
176
     1
 90
        1
176
     1
 90
        1
176
     1
 40
1.0
176
     1
 90
        8
176
     1
 62
     7
176
     1
 40
1.0
176
     1
 90
        1
176
     1
 90
        6
176
     1
 90
        2
176
     1
 62
     7
176
     1
 90
        5
176
     1
 90
        0
176
     1
 90
        0
176
     1
290
     0
176
     1
 90
        1
176
     1
 40
0.0
176
     1
 90
        0
176
     1
290
     0
176
     1
290
     1
176
     1
290
     1
176
     1
290
     0
176
     1
290
     0
176
     1
290
     0
176
     1
290
     0
176
     1
290
     0
176
     1
290
     0
176
     1
 90
       50
176
     1
 40
0.0
176
     1
 40
1.0
176
     1
 90
        0
176
     1
 62
    18
176
     1
 90
       50
176
     1
 90
        3
176
     1
 62
     5
420
      255
176
     1
290
     0
176
     1
 90
       50
176
     1
 90
       50
176
     1
 90
       50
176
     1
290
     0
176
     1
 90
       50
176
     1
 62
   256
176
     0
 40
1.0
176
     0
 90
        2
176
     1
  1
strokes_ogs.tif
176
     1
290
     0
176
     1
 40
1.0
176
     1
 40
1.0
176
     1
  0
VISUALSTYLE
  5
6C
102
{ACAD_REACTORS
330
16
102
}
330
16
100
AcDbVisualStyle
  2
Shaded
 70
    27
177
     3
291
     0
 70
    58
 90
        2
176
     1
 90
        2
176
     1
 90
        0
176
     1
 90
        2
176
     1
 40
0.6
176
     1
 40
30.0
176
     1
 62
     7
420
 16777215
176
     1
 90
        1
176
     1
 90
        4
176
     1
 62
     7
176
     1
 62
   257
176
     1
 90
        1
176
     1
 90
        1
176
     1
 40
1.0
176
     1
 90
        8
176
     1
 62
     7
176
     1
 40
1.0
176
     1
 90
        1
176
     1
 90
        6
176
     1
 90
        2
176
     1
 62
     7
176
     1
 90
        5
176
     1
 90
        0
176
     1
 90
        0
176
     1
290
     0
176
     1
 90
        1
176
     1
 40
0.0
176
     1
 90
        0
176
     1
290
     0
176
     1
290
     1
176
     1
290
     1
176
     1
290
     0
176
     1
290
     0
176
     1
290
     0
176
     1
290
     0
176
     1
290
     0
176
     1
290
     0
176
     1
 90
       50
176
     1
 40
0.0
176
     1
 40
1.0
176
     1
 90
        0
176
     1
 62
    18
176
     1
 90
       50
176
     1
 90
        3
176
     1
 62
     5
420
      255
176
     1
290
     0
176
     1
 90
       50
176
     1
 90
       50
176
     1
 90
       50
176
     1
290
     0
176
     1
 90
       50
176
     1
 62
   256
176
     0
 40
1.0
176
     0
 90
        2
176
     1
  1
strokes_ogs.tif
176
     1
290
     0
176
     1
 40
1.0
176
     1
 40
1.0
176
     1
  0
VISUALSTYLE
  5
6D
102
{ACAD_REACTORS
330
16
102
}
330
16
100
AcDbVisualStyle
  2
Shaded with edges
 70
    26
177
     3
291
     0
 70
    58
 90
        2
176
     1
 90
        2
176
     1
 90
        0
176
     1
 90
        2
176
     1
 40
0.6
176
     1
 40
30.0
176
     1
 62
     7
420
 16777215
176
     1
 90
        1
176
     1
 90
        4
176
     1
 62
     7
176
     1
 62
   257
176
     1
 90
        1
176
     1
 90
        1
176
     1
 40
1.0
176
     1
 90
        8
176
     1
 62
     7
176
     1
 40
1.0
176
     1
 90
        1
176
     1
 90
        6
176
     1
 90
        2
176
     1
 62
     7
176
     1
 90
        5
176
     1
 90
        0
176
     1
 90
        0
176
     1
290
     0
176
     1
 90
        1
176
     1
 40
0.0
176
     1
 90
        0
176
     1
290
     0
176
     1
290
     1
176
     1
290
     1
176
     1
290
     0
176
     1
290
     0
176
     1
290
     0
176
     1
290
     0
176
     1
290
     0
176
     1
290
     0
176
     1
 90
       50
176
     1
 40
0.0
176
     1
 40
1.0
176
     1
 90
        0
176
     1
 62
    18
176
     1
 90
       50
176
     1
 90
        3
176
     1
 62
     5
420
      255
176
     1
290
     0
176
     1
 90
       50
176
     1
 90
       50
176
     1
 90
       50
176
     1
290
     0
176
     1
 90
       50
176
     1
 62
   256
176
     0
 40
1.0
176
     0
 90
        2
176
     1
  1
strokes_ogs.tif
176
     1
290
     0
176
     1
 40
1.0
176
     1
 40
1.0
176
     1
  0
VISUALSTYLE
  5
6E
102
{ACAD_REACTORS
330
16
102
}
330
16
100
AcDbVisualStyle
  2
Shades of Gray
 70
    23
177
     3
291
     0
 70
    58
 90
        2
176
     1
 90
        2
176
     1
 90
        0
176
     1
 90
        2
176
     1
 40
0.6
176
     1
 40
30.0
176
     1
 62
     7
420
 16777215
176
     1
 90
        1
176
     1
 90
        4
176
     1
 62
     7
176
     1
 62
   257
176
     1
 90
        1
176
     1
 90
        1
176
     1
 40
1.0
176
     1
 90
        8
176
     1
 62
     7
176
     1
 40
1.0
176
     1
 90
        1
176
     1
 90
        6
176
     1
 90
        2
176
     1
 62
     7
176
     1
 90
        5
176
     1
 90
        0
176
     1
 90
        0
176
     1
290
     0
176
     1
 90
        1
176
     1
 40
0.0
176
     1
 90
        0
176
     1
290
     0
176
     1
290
     1
176
     1
290
     1
176
     1
290
     0
176
     1
290
     0
176
     1
290
     0
176
     1
290
     0
176
     1
290
     0
176
     1
290
     0
176
     1
 90
       50
176
     1
 40
0.0
176
     1
 40
1.0
176
     1
 90
        0
176
     1
 62
    18
176
     1
 90
       50
176
     1
 90
        3
176
     1
 62
     5
420
      255
176
     1
290
     0
176
     1
 90
       50
176
     1
 90
       50
176
     1
 90
       50
176
     1
290
     0
176
     1
 90
       50
176
     1
 62
   256
176
     0
 40
1.0
176
     0
 90
        2
176
     1
  1
strokes_ogs.tif
176
     1
290
     0
176
     1
 40
1.0
176
     1
 40
1.0
176
     1
  0
VISUALSTYLE
  5
6F
102
{ACAD_REACTORS
330
16
102
}
330
16
100
AcDbVisualStyle
  2
Sketchy
 70
    24
177
     3
291
     0
 70
    58
 90
        2
176
     1
 90
        2
176
     1
 90
        0
176
     1
 90
        1
176
     1
 40
0.6
176
     1
 40
30.0
176
     1
 62
     7
420
 16777215
176
     1
 90
        1
176
     1
 90
        4
176
     1
 62
     7
176
     1
 62
   257
176
     1
 90
        1
176
     1
 90
        1
176
     1
 40
1.0
176
     1
 90
        8
176
     1
 62
     7
176
     1
 40
1.0
176
     1
 90
        1
176
     1
 90
        6
176
     1
 90
        2
176
     1
 62
     7
176
     1
 90
        5
176
     1
 90
        0
176
     1
 90
        0
176
     1
290
     0
176
     1
 90
        1
176
     1
 40
0.0
176
     1
 90
        0
176
     1
290
     0
176
     1
290
     1
176
     1
290
     1
176
     1
290
     0
176
     1
290
     0
176
     1
290
     0
176
     1
290
     0
176
     1
290
     0
176
     1
290
     0
176
     1
 90
       50
176
     1
 40
0.0
176
     1
 40
1.0
176
     1
 90
        0
176
     1
 62
    18
176
     1
 90
       50
176
     1
 90
        3
176
     1
 62
     5
420
      255
176
     1
290
     0
176
     1
 90
       50
176
     1
 90
       50
176
     1
 90
       50
176
     1
290
     0
176
     1
 90
       50
176
     1
 62
   256
176
     0
 40
1.0
176
     0
 90
        2
176
     1
  1
strokes_ogs.tif
176
     1
290
     0
176
     1
 40
1.0
176
     1
 40
1.0
176
     1
  0
VISUALSTYLE
  5
70
102
{ACAD_REACTORS
330
16
102
}
330
16
100
AcDbVisualStyle
  2
Thicken
 70
    13
177
     3
291
     1
 70
    58
 90
        2
176
     1
 90
        2
176
     1
 90
        0
176
     1
 90
        2
176
     1
 40
0.6
176
     1
 40
30.0
176
     1
 62
     7
420
 16777215
176
     1
 90
        1
176
     1
 90
        4
176
     1
 62
     7
176
     1
 62
   257
176
     1
 90
        1
176
     1
 90
        1
176
     1
 40
1.0
176
     1
 90
        8
176
     1
 62
     7
176
     1
 40
1.0
176
     1
 90
        1
176
     1
 90
        6
176
     1
 90
        2
176
     1
 62
     7
176
     1
 90
        5
176
     1
 90
        0
176
     1
 90
        0
176
     1
290
     0
176
     1
 90
        1
176
     1
 40
0.0
176
     1
 90
        0
176
     1
290
     0
176
     1
290
     1
176
     1
290
     1
176
     1
290
     0
176
     1
290
     0
176
     1
290
     0
176
     1
290
     0
176
     1
290
     0
176
     1
290
     0
176
     1
 90
       50
176
     1
 40
0.0
176
     1
 40
1.0
176
     1
 90
        0
176
     1
 62
    18
176
     1
 90
       50
176
     1
 90
        3
176
     1
 62
     5
420
      255
176
     1
290
     0
176
     1
 90
       50
176
     1
 90
       50
176
     1
 90
       50
176
     1
290
     0
176
     1
 90
       50
176
     1
 62
   256
176
     0
 40
1.0
176
     0
 90
        2
176
     1
  1
strokes_ogs.tif
176
     1
290
     0
176
     1
 40
1.0
176
     1
 40
1.0
176
     1
  0
VISUALSTYLE
  5
71
102
{ACAD_REACTORS
330
16
102
}
330
16
100
AcDbVisualStyle
  2
Wireframe
 70
     5
177
     3
291
     0
 70
    58
 90
        2
176
     1
 90
        2
176
     1
 90
        0
176
     1
 90
        0
176
     1
 40
0.6
176
     1
 40
30.0
176
     1
 62
     7
420
 16777215
176
     1
 90
        1
176
     1
 90
        4
176
     1
 62
     7
176
     1
 62
   257
176
     1
 90
        1
176
     1
 90
        1
176
     1
 40
1.0
176
     1
 90
        8
176
     1
 62
     7
176
     1
 40
1.0
176
     1
 90
        1
176
     1
 90
        6
176
     1
 90
        2
176
     1
 62
     7
176
     1
 90
        5
176
     1
 90
        0
176
     1
 90
        0
176
     1
290
     0
176
     1
 90
        1
176
     1
 40
0.0
176
     1
 90
        0
176
     1
290
     0
176
     1
290
     1
176
     1
290
     1
176
     1
290
     0
176
     1
290
     0
176
     1
290
     0
176
     1
290
     0
176
     1
290
     0
176
     1
290
     0
176
     1
 90
       50
176
     1
 40
0.0
176
     1
 40
1.0
176
     1
 90
        0
176
     1
 62
    18
176
     1
 90
       50
176
     1
 90
        3
176
     1
 62
     5
420
      255
176
     1
290
     0
176
     1
 90
       50
176
     1
 90
       50
176
     1
 90
       50
176
     1
290
     0
176
     1
 90
       50
176
     1
 62
   256
176
     0
 40
1.0
176
     0
 90
        2
176
     1
  1
strokes_ogs.tif
176
     1
290
     0
176
     1
 40
1.0
176
     1
 40
1.0
176
     1
  0
VISUALSTYLE
  5
72
102
{ACAD_REACTORS
330
16
102
}
330
16
100
AcDbVisualStyle
  2
X-Ray
 70
    25
177
     3
291
     0
 70
    58
 90
        2
176
     1
 90
        2
176
     1
 90
        0
176
     1
 90
        2
176
     1
 40
0.5
176
     1
 40
30.0
176
     1
 62
     7
420
 16777215
176
     1
 90
        1
176
     1
 90
        4
176
     1
 62
     7
176
     1
 62
   257
176
     1
 90
        1
176
     1
 90
        1
176
     1
 40
1.0
176
     1
 90
        8
176
     1
 62
     7
176
     1
 40
1.0
176
     1
 90
        1
176
     1
 90
        6
176
     1
 90
        2
176
     1
 62
     7
176
     1
 90
        5
176
     1
 90
        0
176
     1
 90
        0
176
     1
290
     0
176
     1
 90
        1
176
     1
 40
0.0
176
     1
 90
        0
176
     1
290
     0
176
     1
290
     1
176
     1
290
     1
176
     1
290
     0
176
     1
290
     0
176
     1
290
     0
176
     1
290
     0
176
     1
290
     0
176
     1
290
     0
176
     1
 90
       50
176
     1
 40
0.0
176
     1
 40
1.0
176
     1
 90
        0
176
     1
 62
    18
176
     1
 90
       50
176
     1
 90
        3
176
     1
 62
     5
420
      255
176
     1
290
     0
176
     1
 90
       50
176
     1
 90
       50
176
     1
 90
       50
176
     1
290
     0
176
     1
 90
       50
176
     1
 62
   256
176
     0
 40
1.0
176
     0
 90
        2
176
     1
  1
strokes_ogs.tif
176
     1
290
     0
176
     1
 40
1.0
176
     1
 40
1.0
176
     1
  0
DICTIONARYVAR
  5
323
102
{ACAD_REACTORS
330
31E
102
}
330
31E
100
DictionaryVariables
280
     0
  1
1:1
  0
DICTIONARYVAR
  5
320
102
{ACAD_REACTORS
330
31E
102
}
330
31E
100
DictionaryVariables
280
     0
  1
STANDARD
  0
DICTIONARYVAR
  5
31F
102
{ACAD_REACTORS
330
31E
102
}
330
31E
100
DictionaryVariables
280
     0
  1
STANDARD
  0
DICTIONARYVAR
  5
321
102
{ACAD_REACTORS
330
31E
102
}
330
31E
100
DictionaryVariables
280
     0
  1
Metric50
  0
DICTIONARYVAR
  5
322
102
{ACAD_REACTORS
330
31E
102
}
330
31E
100
DictionaryVariables
280
     0
  1
Metric50
  0
DICTIONARYVAR
  5
2E
330
2D
100
DictionaryVariables
280
     0
  1
1.0.1 @ 2023-05-08T06:49:04.018916+00:00
  0
DICTIONARYVAR
  5
148
330
2D
100
DictionaryVariables
280
     0
  1
1.0.1 @ 2023-05-08T06:49:04.061785+00:00
  0
DICTIONARY
  5
324
330
14B
100
AcDbDictionary
280
     1
281
     1
  3
ACAD_ROUNDTRIP_2008_TABLESTYLE_CELLSTYLEMAP
360
338
  0
CELLSTYLEMAP
  5
338
102
{ACAD_REACTORS
330
324
102
}
330
324
100
AcDbCellStyleMap
 90
        3
300
CELLSTYLE
  1
TABLEFORMAT_BEGIN
 90
        5
170
     1
 91
        0
 92
    32768
 62
   257
 93
        1
300
CONTENTFORMAT
  1
CONTENTFORMAT_BEGIN
 90
        0
 91
        0
 92
      512
 93
        0
300

 40
0.0
140
1.0
 94
        5
 62
     0
340
29
144
6.0
309
CONTENTFORMAT_END
171
     1
301
MARGIN
  1
CELLMARGIN_BEGIN
 40
1.5
 40
1.5
 40
1.5
 40
1.5
 40
0.18
 40
0.18
309
CELLMARGIN_END
 94
        6
 95
        1
302
GRIDFORMAT
  1
GRIDFORMAT_BEGIN
 90
        0
 91
        1
 62
     0
 92
       -2
340
0
 93
        0
 40
1.125
309
GRIDFORMAT_END
 95
        2
302
GRIDFORMAT
  1
GRIDFORMAT_BEGIN
 90
        0
 91
        1
 62
     0
 92
       -2
340
0
 93
        0
 40
1.125
309
GRIDFORMAT_END
 95
        4
302
GRIDFORMAT
  1
GRIDFORMAT_BEGIN
 90
        0
 91
        1
 62
     0
 92
       -2
340
0
 93
        0
 40
1.125
309
GRIDFORMAT_END
 95
        8
302
GRIDFORMAT
  1
GRIDFORMAT_BEGIN
 90
        0
 91
        1
 62
     0
 92
       -2
340
0
 93
        0
 40
1.125
309
GRIDFORMAT_END
 95
       16
302
GRIDFORMAT
  1
GRIDFORMAT_BEGIN
 90
        0
 91
        1
 62
     0
 92
       -2
340
0
 93
        0
 40
1.125
309
GRIDFORMAT_END
 95
       32
302
GRIDFORMAT
  1
GRIDFORMAT_BEGIN
 90
        0
 91
        1
 62
     0
 92
       -2
340
0
 93
        0
 40
1.125
309
GRIDFORMAT_END
309
TABLEFORMAT_END
  1
CELLSTYLE_BEGIN
 90
        1
 91
        1
300
_TITLE
309
CELLSTYLE_END
300
CELLSTYLE
  1
TABLEFORMAT_BEGIN
 90
        5
170
     1
 91
        0
 92
        0
 62
   257
 93
        1
300
CONTENTFORMAT
  1
CONTENTFORMAT_BEGIN
 90
        0
 91
        0
 92
      512
 93
        0
300

 40
0.0
140
1.0
 94
        5
 62
     0
340
29
144
4.5
309
CONTENTFORMAT_END
171
     1
301
MARGIN
  1
CELLMARGIN_BEGIN
 40
1.5
 40
1.5
 40
1.5
 40
1.5
 40
0.18
 40
0.18
309
CELLMARGIN_END
 94
        6
 95
        1
302
GRIDFORMAT
  1
GRIDFORMAT_BEGIN
 90
        0
 91
        1
 62
     0
 92
       -2
340
0
 93
        0
 40
1.125
309
GRIDFORMAT_END
 95
        2
302
GRIDFORMAT
  1
GRIDFORMAT_BEGIN
 90
        0
 91
        1
 62
     0
 92
       -2
340
0
 93
        0
 40
1.125
309
GRIDFORMAT_END
 95
        4
302
GRIDFORMAT
  1
GRIDFORMAT_BEGIN
 90
        0
 91
        1
 62
     0
 92
       -2
340
0
 93
        0
 40
1.125
309
GRIDFORMAT_END
 95
        8
302
GRIDFORMAT
  1
GRIDFORMAT_BEGIN
 90
        0
 91
        1
 62
     0
 92
       -2
340
0
 93
        0
 40
1.125
309
GRIDFORMAT_END
 95
       16
302
GRIDFORMAT
  1
GRIDFORMAT_BEGIN
 90
        0
 91
        1
 62
     0
 92
       -2
340
0
 93
        0
 40
1.125
309
GRIDFORMAT_END
 95
       32
302
GRIDFORMAT
  1
GRIDFORMAT_BEGIN
 90
        0
 91
        1
 62
     0
 92
       -2
340
0
 93
        0
 40
1.125
309
GRIDFORMAT_END
309
TABLEFORMAT_END
  1
CELLSTYLE_BEGIN
 90
        2
 91
        1
300
_HEADER
309
CELLSTYLE_END
300
CELLSTYLE
  1
TABLEFORMAT_BEGIN
 90
        5
170
     1
 91
        0
 92
        0
 62
   257
 93
        1
300
CONTENTFORMAT
  1
CONTENTFORMAT_BEGIN
 90
        0
 91
        0
 92
      512
 93
        0
300

 40
0.0
140
1.0
 94
        2
 62
     0
340
29
144
4.5
309
CONTENTFORMAT_END
171
     1
301
MARGIN
  1
CELLMARGIN_BEGIN
 40
1.5
 40
1.5
 40
1.5
 40
1.5
 40
0.18
 40
0.18
309
CELLMARGIN_END
 94
        6
 95
        1
302
GRIDFORMAT
  1
GRIDFORMAT_BEGIN
 90
        0
 91
        1
 62
     0
 92
       -2
340
0
 93
        0
 40
1.125
309
GRIDFORMAT_END
 95
        2
302
GRIDFORMAT
  1
GRIDFORMAT_BEGIN
 90
        0
 91
        1
 62
     0
 92
       -2
340
0
 93
        0
 40
1.125
309
GRIDFORMAT_END
 95
        4
302
GRIDFORMAT
  1
GRIDFORMAT_BEGIN
 90
        0
 91
        1
 62
     0
 92
       -2
340
0
 93
        0
 40
1.125
309
GRIDFORMAT_END
 95
        8
302
GRIDFORMAT
  1
GRIDFORMAT_BEGIN
 90
        0
 91
        1
 62
     0
 92
       -2
340
0
 93
        0
 40
1.125
309
GRIDFORMAT_END
 95
       16
302
GRIDFORMAT
  1
GRIDFORMAT_BEGIN
 90
        0
 91
        1
 62
     0
 92
       -2
340
0
 93
        0
 40
1.125
309
GRIDFORMAT_END
 95
       32
302
GRIDFORMAT
  1
GRIDFORMAT_BEGIN
 90
        0
 91
        1
 62
     0
 92
       -2
340
0
 93
        0
 40
1.125
309
GRIDFORMAT_END
309
TABLEFORMAT_END
  1
CELLSTYLE_BEGIN
 90
        3
 91
        2
300
_DATA
309
CELLSTYLE_END
  0
ENDSEC
  0
SECTION
  2
ACDSDATA
 70
     2
 71
     8
  0
ACDSSCHEMA
 90
        0
  1
AcDb_Thumbnail_Schema
  2
AcDbDs::ID
280
    10
 91
        8
  2
Thumbnail_Data
280
    15
 91
        0
101
ACDSRECORD
 95
        0
 90
        1
  2
AcDbDs::TreatedAsObjectData
280
     1
291
     1
101
ACDSRECORD
 95
        0
 90
        2
  2
AcDbDs::Legacy
280
     1
291
     1
101
ACDSRECORD
  1
AcDbDs::ID
 90
        3
  2
AcDs:Indexable
280
     1
291
     1
101
ACDSRECORD
  1
AcDbDs::ID
 90
        4
  2
AcDbDs::HandleAttribute
280
     7
282
     1
  0
ACDSSCHEMA
 90
        1
  1
AcDbDs::TreatedAsObjectDataSchema
  2
AcDbDs::TreatedAsObjectData
280
     1
 91
        0
  0
ACDSSCHEMA
 90
        2
  1
AcDbDs::LegacySchema
  2
AcDbDs::Legacy
280
     1
 91
        0
  0
ACDSSCHEMA
 90
        3
  1
AcDbDs::IndexedPropertySchema
  2
AcDs:Indexable
280
     1
 91
        0
  0
ACDSSCHEMA
 90
        4
  1
AcDbDs::HandleAttributeSchema
  2
AcDbDs::HandleAttribute
280
     7
 91
        1
284
     1
  0
ACDSRECORD
 90
        0
  2
AcDbDs::ID
280
    10
320
1A
  2
Thumbnail_Data
280
    15
 94
     1797
310
89504E470D0A1A0A0000000D49484452000001000000006D080300000079B14F6400000300504C5445FFFFFFFFFFFFFFFFFF0000000000000000000000000000000000000000000000000000330000660000990000CC0000FF0033000033330033660033990033CC0033FF0066000066330066660066990066CC0066FF0099
310
000099330099660099990099CC0099FF00CC0000CC3300CC6600CC9900CCCC00CCFF00FF0000FF3300FF6600FF9900FFCC00FFFF3300003300333300663300993300CC3300FF3333003333333333663333993333CC3333FF3366003366333366663366993366CC3366FF3399003399333399663399993399CC3399FF33CC00
310
33CC3333CC6633CC9933CCCC33CCFF33FF0033FF3333FF6633FF9933FFCC33FFFF6600006600336600666600996600CC6600FF6633006633336633666633996633CC6633FF6666006666336666666666996666CC6666FF6699006699336699666699996699CC6699FF66CC0066CC3366CC6666CC9966CCCC66CCFF66FF0066
310
FF3366FF6666FF9966FFCC66FFFF9900009900339900669900999900CC9900FF9933009933339933669933999933CC9933FF9966009966339966669966999966CC9966FF9999009999339999669999999999CC9999FF99CC0099CC3399CC6699CC9999CCCC99CCFF99FF0099FF3399FF6699FF9999FFCC99FFFFCC0000CC00
310
33CC0066CC0099CC00CCCC00FFCC3300CC3333CC3366CC3399CC33CCCC33FFCC6600CC6633CC6666CC6699CC66CCCC66FFCC9900CC9933CC9966CC9999CC99CCCC99FFCCCC00CCCC33CCCC66CCCC99CCCCCCCCCCFFCCFF00CCFF33CCFF66CCFF99CCFFCCCCFFFFFF0000FF0033FF0066FF0099FF00CCFF00FFFF3300FF3333
310
FF3366FF3399FF33CCFF33FFFF6600FF6633FF6666FF6699FF66CCFF66FFFF9900FF9933FF9966FF9999FF99CCFF99FFFFCC00FFCC33FFCC66FFCC99FFCCCCFFCCFFFFFF00FFFF33FFFF66FFFF99FFFFCCFFFFFF0000000D0D0D1A1A1A2828283535354343435050505D5D5D6B6B6B787878868686939393A1A1A1AEAEAEBB
310
BBBBC9C9C9D6D6D6E4E4E4F1F1F1FFFFFF000000000000000000000000000000000000000000000000000000000000AD4AB4E4000003C04944415478DAED5C4B92EC200CCB0D7CFFCBE8303AC9EB7CC03626E9A97A8BA951F0622A099E85D4601440D9B6152B56AC58F17B413E3FE4974C010A509F10DE0827003FF85F0506
310
E0042034D30A0310190618F06F0D2962336D1B18804C2140C6DF8022357F08C80CE8E08FB876FCD73D32D49D809429351720E23F6FC71FFB20602314F17BA747BF2BC3FD24601C1E5A0C00FDA616FC8B80DA3D7418409FF1301307B6DDD2F397715B0B927E6935A6CD5C04E868813004CC6A1F37849942B004201641B302D1
310
7A23248B20D234F821608068630A24F1B78B9D802DCE047E3F64EABD0B1CB80E02624998757D68BE0B1D7727E23820AE3B4CBB8DDC7A40837C7587DBE20FCDF590CF130BA0CDE1E2B674FC652134D73CB8226A1ECE12350930562A204AC0740878FD0FE37E220F458B806B628B335F9587A2D3007CFE4BA2AFC8435121803B
310
D177CA4349FC65FD732AFA2E3D785F3A2418C05CF4457928F8FB07E4B76FFC411E4AE2CFBB60C0A33C94C21F57B7D69AE02301F68235C106672671D95BF7DDD34DAF041C35808D800291BDF1DC3D94C4DF19D87B3607FCADADED9E49E26F288FA1CD8CFF6AF2DD2349FC17CCB3B60D07858E9690A9C4407A176023A043646F
310
48F33F25F11F40DBEC9678F83C1FF40F25F11FFBC0F1B7EFB35FDD33A624FE1D2A1D22FD69CD54606086C15E755072C58A5707FF3316832B5608EA8020849E758084109AE83BFA3BAF37B36A466A32C02E7A77CCBDD90A0314D91D191860077D026CCD3602A6CCEE506280DD30D1005ECD3640A6D0EE586080F03F48CD9641
310
536A738819EB78229EFDB014C50D137C304C58CAD4344CF0C930613153D330C147C384854CA9E1FF63BF8069EE0DBE9E80D0C5BF182662A65E09403C213F374CA44C49FC5F0C1339530B7F3C1DBDDD192666996AF8E78609F40372183345F017D1970684777AA44C1906AC8ABE6898403F1E87215384019B54C4E812F1EB92
310
29C1801B0210AC017E35B30E84445502823CACAC6811F0D530E1D7B85787520C8C8689BE263832606F314CF435C1CC8009192690D9B8F4E06098D8F2296A21FCE17B51E687E16DF8B48CCD32D5183027C0C68F0B59CE94738C20BCF3EE86D1F279294B997AEFC3C7B267778C58FDC098C54CC51591B0EB313B1107864CCD45
310
517BF99A20BF1826C2894949C304B72F8609C64C4AE27F364C306552127F364C30E1DF9833A54EC879850F8609E44E7FBA46D25CA0883F1A26907F740EA0751800C7DB6B76C3162B2347C82A0C80E5419BDE11DC72C7F671D54E024288134AE81067DE0929069E0D132F3828B962C58A152B56AC58B162C58A15BF10FF0075
310
D871D93E6053A30000000049454E44AE426082
  0
ENDSEC
  0
EOF
