solid PyGamic generated __All_Units__ SLA File
 facet normal 0.0 0.0 -1.0
  outer loop
   vertex 38.2 20.861503194215295 0
   vertex 30.170767537446718 21.606352569412337 0
   vertex 38.2 27.55253024634304 0
  endloop
 endfacet
 facet normal -0.030742789789228394 -0.3313972112815765 -0.9429903335828896
  outer loop
   vertex 30.170767537446718 21.606352569412337 0
   vertex 38.2 20.861503194215295 0
   vertex 39.9 18.996499742915034 0.6
  endloop
 endfacet
 facet normal -0.0307427897892283 -0.3313972112815762 -0.9429903335828898
  outer loop
   vertex 28.122008474103854 20.08911098191633 0.6
   vertex 30.170767537446718 21.606352569412337 0
   vertex 39.9 18.996499742915034 0.6
  endloop
 endfacet
 facet normal -0.5951369449258773 0.8036243007676493 3.555815651457443e-15
  outer loop
   vertex 38.2 27.55253024634304 0
   vertex 30.170767537446718 21.606352569412337 0
   vertex 28.122008474103854 20.08911098191633 0.6
  endloop
 endfacet
 facet normal -0.5951369449258774 0.8036243007676492 1.414030657500367e-15
  outer loop
   vertex 39.9 28.81149268116183 0.6
   vertex 38.2 27.55253024634304 0
   vertex 28.122008474103854 20.08911098191633 0.6
  endloop
 endfacet
 facet normal 0.33282011773513825 0.0 -0.9429903335828893
  outer loop
   vertex 38.2 20.861503194215295 0
   vertex 38.2 27.55253024634304 0
   vertex 39.9 28.81149268116183 0.6
  endloop
 endfacet
 facet normal 0.33282011773513825 0.0 -0.9429903335828893
  outer loop
   vertex 39.9 18.996499742915034 0.6
   vertex 38.2 20.861503194215295 0
   vertex 39.9 28.81149268116183 0.6
  endloop
 endfacet
 facet normal 0.0 -0.0 1.0
  outer loop
   vertex 39.9 18.996499742915034 0.6
   vertex 39.9 28.81149268116183 0.6
   vertex 28.122008474103854 20.08911098191633 0.6
  endloop
 endfacet
 facet normal 0.0 0.0 -1.0
  outer loop
   vertex 39.9 18.996499742915034 0.99
   vertex 28.122008474103854 20.08911098191633 0.99
   vertex 39.9 28.81149268116183 0.99
  endloop
 endfacet
 facet normal -0.03074278978922832 -0.3313972112815764 0.9429903335828896
  outer loop
   vertex 28.122008474103854 20.08911098191633 0.99
   vertex 39.9 18.996499742915034 0.99
   vertex 38.2 20.861503194215295 1.5899999999999999
  endloop
 endfacet
 facet normal -0.030742789789228352 -0.331397211281576 0.9429903335828898
  outer loop
   vertex 30.170767537446718 21.606352569412337 1.5899999999999999
   vertex 28.122008474103854 20.08911098191633 0.99
   vertex 38.2 20.861503194215295 1.5899999999999999
  endloop
 endfacet
 facet normal -0.5951369449258774 0.8036243007676493 -3.2320700742865535e-15
  outer loop
   vertex 39.9 28.81149268116183 0.99
   vertex 28.122008474103854 20.08911098191633 0.99
   vertex 30.170767537446718 21.606352569412337 1.5899999999999999
  endloop
 endfacet
 facet normal -0.5951369449258774 0.8036243007676492 -1.1852718838191479e-15
  outer loop
   vertex 38.2 27.55253024634304 1.5899999999999999
   vertex 39.9 28.81149268116183 0.99
   vertex 30.170767537446718 21.606352569412337 1.5899999999999999
  endloop
 endfacet
 facet normal 0.3328201177351382 -0.0 0.9429903335828893
  outer loop
   vertex 39.9 18.996499742915034 0.99
   vertex 39.9 28.81149268116183 0.99
   vertex 38.2 27.55253024634304 1.5899999999999999
  endloop
 endfacet
 facet normal 0.33282011773513814 -0.0 0.9429903335828893
  outer loop
   vertex 38.2 20.861503194215295 1.5899999999999999
   vertex 39.9 18.996499742915034 0.99
   vertex 38.2 27.55253024634304 1.5899999999999999
  endloop
 endfacet
 facet normal 0.0 -0.0 1.0
  outer loop
   vertex 38.2 20.861503194215295 1.5899999999999999
   vertex 38.2 27.55253024634304 1.5899999999999999
   vertex 30.170767537446718 21.606352569412337 1.5899999999999999
  endloop
 endfacet
 facet normal -0.0 0.0 -1.0
  outer loop
   vertex 49.82923246255329 21.606352569412337 0
   vertex 41.8 20.8615031942153 0
   vertex 41.8 27.552530246343046 0
  endloop
 endfacet
 facet normal 0.030742789789228245 -0.33139721128157695 -0.9429903335828894
  outer loop
   vertex 41.8 20.8615031942153 0
   vertex 49.82923246255329 21.606352569412337 0
   vertex 51.87799152589616 20.089110981916335 0.6
  endloop
 endfacet
 facet normal 0.030742789789228297 -0.3313972112815764 -0.9429903335828898
  outer loop
   vertex 40.1 18.996499742915038 0.6
   vertex 41.8 20.8615031942153 0
   vertex 51.87799152589616 20.089110981916335 0.6
  endloop
 endfacet
 facet normal -0.3328201177351382 -0.0 -0.9429903335828892
  outer loop
   vertex 41.8 27.552530246343046 0
   vertex 41.8 20.8615031942153 0
   vertex 40.1 18.996499742915038 0.6
  endloop
 endfacet
 facet normal -0.3328201177351382 -0.0 -0.9429903335828893
  outer loop
   vertex 40.1 28.811492681161837 0.6
   vertex 41.8 27.552530246343046 0
   vertex 40.1 18.996499742915038 0.6
  endloop
 endfacet
 facet normal 0.5951369449258772 0.8036243007676493 0.0
  outer loop
   vertex 49.82923246255329 21.606352569412337 0
   vertex 41.8 27.552530246343046 0
   vertex 40.1 28.811492681161837 0.6
  endloop
 endfacet
 facet normal 0.5951369449258772 0.8036243007676493 -8.080175185716376e-16
  outer loop
   vertex 51.87799152589616 20.089110981916335 0.6
   vertex 49.82923246255329 21.606352569412337 0
   vertex 40.1 28.811492681161837 0.6
  endloop
 endfacet
 facet normal 0.0 0.0 1.0
  outer loop
   vertex 51.87799152589616 20.089110981916335 0.6
   vertex 40.1 28.811492681161837 0.6
   vertex 40.1 18.996499742915038 0.6
  endloop
 endfacet
 facet normal -0.0 0.0 -1.0
  outer loop
   vertex 51.87799152589616 20.089110981916335 0.99
   vertex 40.1 18.996499742915038 0.99
   vertex 40.1 28.811492681161837 0.99
  endloop
 endfacet
 facet normal 0.03074278978922833 -0.3313972112815768 0.9429903335828894
  outer loop
   vertex 40.1 18.996499742915038 0.99
   vertex 51.87799152589616 20.089110981916335 0.99
   vertex 49.82923246255329 21.606352569412337 1.5899999999999999
  endloop
 endfacet
 facet normal 0.030742789789228182 -0.3313972112815763 0.9429903335828896
  outer loop
   vertex 41.8 20.8615031942153 1.5899999999999999
   vertex 40.1 18.996499742915038 0.99
   vertex 49.82923246255329 21.606352569412337 1.5899999999999999
  endloop
 endfacet
 facet normal -0.33282011773513814 0.0 0.9429903335828893
  outer loop
   vertex 40.1 28.811492681161837 0.99
   vertex 40.1 18.996499742915038 0.99
   vertex 41.8 20.8615031942153 1.5899999999999999
  endloop
 endfacet
 facet normal -0.3328201177351382 0.0 0.9429903335828894
  outer loop
   vertex 41.8 27.552530246343046 1.5899999999999999
   vertex 40.1 28.811492681161837 0.99
   vertex 41.8 20.8615031942153 1.5899999999999999
  endloop
 endfacet
 facet normal 0.5951369449258772 0.8036243007676495 -1.6160350371432756e-15
  outer loop
   vertex 51.87799152589616 20.089110981916335 0.99
   vertex 40.1 28.811492681161837 0.99
   vertex 41.8 27.552530246343046 1.5899999999999999
  endloop
 endfacet
 facet normal 0.5951369449258772 0.8036243007676493 1.4815898547739329e-15
  outer loop
   vertex 49.82923246255329 21.606352569412337 1.5899999999999999
   vertex 51.87799152589616 20.089110981916335 0.99
   vertex 41.8 27.552530246343046 1.5899999999999999
  endloop
 endfacet
 facet normal 0.0 0.0 1.0
  outer loop
   vertex 49.82923246255329 21.606352569412337 1.5899999999999999
   vertex 41.8 27.552530246343046 1.5899999999999999
   vertex 41.8 20.8615031942153 1.5899999999999999
  endloop
 endfacet
 facet normal 0.0 0.0 -1.0
  outer loop
   vertex 75.2 20.861503194215288 0
   vertex 67.17076753744671 21.606352569412326 0
   vertex 75.2 27.552530246343043 0
  endloop
 endfacet
 facet normal -0.0307427897892282 -0.33139721128157645 -0.9429903335828896
  outer loop
   vertex 67.17076753744671 21.606352569412326 0
   vertex 75.2 20.861503194215288 0
   vertex 76.9 18.996499742915027 0.6
  endloop
 endfacet
 facet normal -0.03074278978922829 -0.33139721128157673 -0.9429903335828895
  outer loop
   vertex 65.12200847410384 20.089110981916324 0.6
   vertex 67.17076753744671 21.606352569412326 0
   vertex 76.9 18.996499742915027 0.6
  endloop
 endfacet
 facet normal -0.5951369449258777 0.8036243007676489 -1.0667446954372308e-14
  outer loop
   vertex 75.2 27.552530246343043 0
   vertex 67.17076753744671 21.606352569412326 0
   vertex 65.12200847410384 20.089110981916324 0.6
  endloop
 endfacet
 facet normal -0.5951369449258774 0.8036243007676493 -1.0100218982145457e-15
  outer loop
   vertex 76.9 28.81149268116184 0.6
   vertex 75.2 27.552530246343043 0
   vertex 65.12200847410384 20.089110981916324 0.6
  endloop
 endfacet
 facet normal 0.3328201177351369 0.0 -0.9429903335828896
  outer loop
   vertex 75.2 20.861503194215288 0
   vertex 75.2 27.552530246343043 0
   vertex 76.9 28.81149268116184 0.6
  endloop
 endfacet
 facet normal 0.332820117735137 0.0 -0.9429903335828896
  outer loop
   vertex 76.9 18.996499742915027 0.6
   vertex 75.2 20.861503194215288 0
   vertex 76.9 28.81149268116184 0.6
  endloop
 endfacet
 facet normal 0.0 -0.0 1.0
  outer loop
   vertex 76.9 18.996499742915027 0.6
   vertex 76.9 28.81149268116184 0.6
   vertex 65.12200847410384 20.089110981916324 0.6
  endloop
 endfacet
 facet normal 0.0 0.0 -1.0
  outer loop
   vertex 76.9 18.996499742915027 0.99
   vertex 65.12200847410384 20.089110981916324 0.99
   vertex 76.9 28.81149268116184 0.99
  endloop
 endfacet
 facet normal -0.03074278978922826 -0.3313972112815764 0.9429903335828896
  outer loop
   vertex 65.12200847410384 20.089110981916324 0.99
   vertex 76.9 18.996499742915027 0.99
   vertex 75.2 20.861503194215288 1.5899999999999999
  endloop
 endfacet
 facet normal -0.03074278978922823 -0.3313972112815768 0.9429903335828895
  outer loop
   vertex 67.17076753744671 21.606352569412326 1.5899999999999999
   vertex 65.12200847410384 20.089110981916324 0.99
   vertex 75.2 20.861503194215288 1.5899999999999999
  endloop
 endfacet
 facet normal -0.5951369449258774 0.8036243007676493 9.696210222859641e-15
  outer loop
   vertex 76.9 28.81149268116184 0.99
   vertex 65.12200847410384 20.089110981916324 0.99
   vertex 67.17076753744671 21.606352569412326 1.5899999999999999
  endloop
 endfacet
 facet normal -0.5951369449258778 0.803624300767649 -5.926359419095729e-16
  outer loop
   vertex 75.2 27.552530246343043 1.5899999999999999
   vertex 76.9 28.81149268116184 0.99
   vertex 67.17076753744671 21.606352569412326 1.5899999999999999
  endloop
 endfacet
 facet normal 0.3328201177351369 -0.0 0.9429903335828896
  outer loop
   vertex 76.9 18.996499742915027 0.99
   vertex 76.9 28.81149268116184 0.99
   vertex 75.2 27.552530246343043 1.5899999999999999
  endloop
 endfacet
 facet normal 0.3328201177351369 -0.0 0.9429903335828896
  outer loop
   vertex 75.2 20.861503194215288 1.5899999999999999
   vertex 76.9 18.996499742915027 0.99
   vertex 75.2 27.552530246343043 1.5899999999999999
  endloop
 endfacet
 facet normal 0.0 -0.0 1.0
  outer loop
   vertex 75.2 20.861503194215288 1.5899999999999999
   vertex 75.2 27.552530246343043 1.5899999999999999
   vertex 67.17076753744671 21.606352569412326 1.5899999999999999
  endloop
 endfacet
 facet normal -0.0 0.0 -1.0
  outer loop
   vertex 86.82923246255325 21.606352569412326 0
   vertex 78.8 20.861503194215295 0
   vertex 78.8 27.55253024634301 0
  endloop
 endfacet
 facet normal 0.03074278978922812 -0.331397211281577 -0.9429903335828895
  outer loop
   vertex 78.8 20.861503194215295 0
   vertex 86.82923246255325 21.606352569412326 0
   vertex 88.87799152589612 20.089110981916324 0.6
  endloop
 endfacet
 facet normal 0.030742789789228175 -0.33139721128157645 -0.9429903335828898
  outer loop
   vertex 77.1 18.996499742915034 0.6
   vertex 78.8 20.861503194215295 0
   vertex 88.87799152589612 20.089110981916324 0.6
  endloop
 endfacet
 facet normal -0.332820117735137 -0.0 -0.9429903335828898
  outer loop
   vertex 78.8 27.55253024634301 0
   vertex 78.8 20.861503194215295 0
   vertex 77.1 18.996499742915034 0.6
  endloop
 endfacet
 facet normal -0.33282011773513687 -0.0 -0.9429903335828896
  outer loop
   vertex 77.1 28.81149268116181 0.6
   vertex 78.8 27.55253024634301 0
   vertex 77.1 18.996499742915034 0.6
  endloop
 endfacet
 facet normal 0.5951369449258777 0.803624300767649 0.0
  outer loop
   vertex 86.82923246255325 21.606352569412326 0
   vertex 78.8 27.55253024634301 0
   vertex 77.1 28.81149268116181 0.6
  endloop
 endfacet
 facet normal 0.5951369449258773 0.8036243007676492 -8.484183945002213e-15
  outer loop
   vertex 88.87799152589612 20.089110981916324 0.6
   vertex 86.82923246255325 21.606352569412326 0
   vertex 77.1 28.81149268116181 0.6
  endloop
 endfacet
 facet normal 0.0 0.0 1.0
  outer loop
   vertex 88.87799152589612 20.089110981916324 0.6
   vertex 77.1 28.81149268116181 0.6
   vertex 77.1 18.996499742915034 0.6
  endloop
 endfacet
 facet normal -0.0 0.0 -1.0
  outer loop
   vertex 88.87799152589612 20.089110981916324 0.99
   vertex 77.1 18.996499742915034 0.99
   vertex 77.1 28.81149268116181 0.99
  endloop
 endfacet
 facet normal 0.0307427897892282 -0.3313972112815768 0.9429903335828895
  outer loop
   vertex 77.1 18.996499742915034 0.99
   vertex 88.87799152589612 20.089110981916324 0.99
   vertex 86.82923246255325 21.606352569412326 1.5899999999999999
  endloop
 endfacet
 facet normal 0.030742789789228057 -0.3313972112815763 0.9429903335828898
  outer loop
   vertex 78.8 20.861503194215295 1.5899999999999999
   vertex 77.1 18.996499742915034 0.99
   vertex 86.82923246255325 21.606352569412326 1.5899999999999999
  endloop
 endfacet
 facet normal -0.33282011773513687 0.0 0.9429903335828896
  outer loop
   vertex 77.1 28.81149268116181 0.99
   vertex 77.1 18.996499742915034 0.99
   vertex 78.8 20.861503194215295 1.5899999999999999
  endloop
 endfacet
 facet normal -0.3328201177351369 0.0 0.9429903335828898
  outer loop
   vertex 78.8 27.55253024634301 1.5899999999999999
   vertex 77.1 28.81149268116181 0.99
   vertex 78.8 20.861503194215295 1.5899999999999999
  endloop
 endfacet
 facet normal 0.5951369449258773 0.8036243007676492 1.6160350371432791e-15
  outer loop
   vertex 88.87799152589612 20.089110981916324 0.99
   vertex 77.1 28.81149268116181 0.99
   vertex 78.8 27.55253024634301 1.5899999999999999
  endloop
 endfacet
 facet normal 0.5951369449258777 0.8036243007676489 1.0667446954372366e-14
  outer loop
   vertex 86.82923246255325 21.606352569412326 1.5899999999999999
   vertex 88.87799152589612 20.089110981916324 0.99
   vertex 78.8 27.55253024634301 1.5899999999999999
  endloop
 endfacet
 facet normal 0.0 0.0 1.0
  outer loop
   vertex 86.82923246255325 21.606352569412326 1.5899999999999999
   vertex 78.8 27.55253024634301 1.5899999999999999
   vertex 78.8 20.861503194215295 1.5899999999999999
  endloop
 endfacet
 facet normal 0.0 0.0 -1.0
  outer loop
   vertex 30.170767537446736 -1.606352569412333 0
   vertex 38.2 -0.8615031942152958 0
   vertex 38.2 -7.552530246343036 0
  endloop
 endfacet
 facet normal -0.030742789789228314 0.33139721128157684 -0.9429903335828895
  outer loop
   vertex 38.2 -0.8615031942152958 0
   vertex 30.170767537446736 -1.606352569412333 0
   vertex 28.122008474103882 -0.08911098191633007 0.6
  endloop
 endfacet
 facet normal -0.030742789789228314 0.3313972112815768 -0.9429903335828894
  outer loop
   vertex 39.9 1.0035002570849625 0.6
   vertex 38.2 -0.8615031942152958 0
   vertex 28.122008474103882 -0.08911098191633007 0.6
  endloop
 endfacet
 facet normal 0.33282011773513825 0.0 -0.9429903335828893
  outer loop
   vertex 38.2 -7.552530246343036 0
   vertex 38.2 -0.8615031942152958 0
   vertex 39.9 1.0035002570849625 0.6
  endloop
 endfacet
 facet normal 0.33282011773513825 0.0 -0.9429903335828893
  outer loop
   vertex 39.9 -8.811492681161834 0.6
   vertex 38.2 -7.552530246343036 0
   vertex 39.9 1.0035002570849625 0.6
  endloop
 endfacet
 facet normal -0.5951369449258782 -0.8036243007676487 -4.741087535276598e-15
  outer loop
   vertex 30.170767537446736 -1.606352569412333 0
   vertex 38.2 -7.552530246343036 0
   vertex 39.9 -8.811492681161834 0.6
  endloop
 endfacet
 facet normal -0.5951369449258785 -0.8036243007676483 3.2320700742865566e-15
  outer loop
   vertex 28.122008474103882 -0.08911098191633007 0.6
   vertex 30.170767537446736 -1.606352569412333 0
   vertex 39.9 -8.811492681161834 0.6
  endloop
 endfacet
 facet normal -0.0 0.0 1.0
  outer loop
   vertex 28.122008474103882 -0.08911098191633007 0.6
   vertex 39.9 -8.811492681161834 0.6
   vertex 39.9 1.0035002570849625 0.6
  endloop
 endfacet
 facet normal 0.0 0.0 -1.0
  outer loop
   vertex 28.122008474103882 -0.08911098191633007 0.99
   vertex 39.9 1.0035002570849625 0.99
   vertex 39.9 -8.811492681161834 0.99
  endloop
 endfacet
 facet normal -0.030742789789228318 0.33139721128157684 0.9429903335828896
  outer loop
   vertex 39.9 1.0035002570849625 0.99
   vertex 28.122008474103882 -0.08911098191633007 0.99
   vertex 30.170767537446736 -1.606352569412333 1.5899999999999999
  endloop
 endfacet
 facet normal -0.03074278978922831 0.3313972112815768 0.9429903335828895
  outer loop
   vertex 38.2 -0.8615031942152958 1.5899999999999999
   vertex 39.9 1.0035002570849625 0.99
   vertex 30.170767537446736 -1.606352569412333 1.5899999999999999
  endloop
 endfacet
 facet normal 0.3328201177351382 -0.0 0.9429903335828893
  outer loop
   vertex 39.9 -8.811492681161834 0.99
   vertex 39.9 1.0035002570849625 0.99
   vertex 38.2 -0.8615031942152958 1.5899999999999999
  endloop
 endfacet
 facet normal 0.33282011773513814 -0.0 0.9429903335828893
  outer loop
   vertex 38.2 -7.552530246343036 1.5899999999999999
   vertex 39.9 -8.811492681161834 0.99
   vertex 38.2 -0.8615031942152958 1.5899999999999999
  endloop
 endfacet
 facet normal -0.5951369449258785 -0.8036243007676483 4.848105111429836e-15
  outer loop
   vertex 28.122008474103882 -0.08911098191633007 0.99
   vertex 39.9 -8.811492681161834 0.99
   vertex 38.2 -7.552530246343036 1.5899999999999999
  endloop
 endfacet
 facet normal -0.5951369449258782 -0.8036243007676486 -5.333723477186172e-15
  outer loop
   vertex 30.170767537446736 -1.606352569412333 1.5899999999999999
   vertex 28.122008474103882 -0.08911098191633007 0.99
   vertex 38.2 -7.552530246343036 1.5899999999999999
  endloop
 endfacet
 facet normal -0.0 0.0 1.0
  outer loop
   vertex 30.170767537446736 -1.606352569412333 1.5899999999999999
   vertex 38.2 -7.552530246343036 1.5899999999999999
   vertex 38.2 -0.8615031942152958 1.5899999999999999
  endloop
 endfacet
 facet normal 0.0 0.0 -1.0
  outer loop
   vertex 41.8 -0.8615031942152962 0
   vertex 49.82923246255329 -1.606352569412342 0
   vertex 41.8 -7.552530246343046 0
  endloop
 endfacet
 facet normal 0.030742789789228564 0.33139721128157695 -0.9429903335828894
  outer loop
   vertex 49.82923246255329 -1.606352569412342 0
   vertex 41.8 -0.8615031942152962 0
   vertex 40.1 1.0035002570849625 0.6
  endloop
 endfacet
 facet normal 0.030742789789228515 0.3313972112815768 -0.9429903335828895
  outer loop
   vertex 51.87799152589616 -0.0891109819163407 0.6
   vertex 49.82923246255329 -1.606352569412342 0
   vertex 40.1 1.0035002570849625 0.6
  endloop
 endfacet
 facet normal 0.5951369449258769 -0.8036243007676496 0.0
  outer loop
   vertex 41.8 -7.552530246343046 0
   vertex 49.82923246255329 -1.606352569412342 0
   vertex 51.87799152589616 -0.0891109819163407 0.6
  endloop
 endfacet
 facet normal 0.595136944925877 -0.8036243007676495 -4.040087592858189e-16
  outer loop
   vertex 40.1 -8.811492681161837 0.6
   vertex 41.8 -7.552530246343046 0
   vertex 51.87799152589616 -0.0891109819163407 0.6
  endloop
 endfacet
 facet normal -0.3328201177351382 -0.0 -0.9429903335828892
  outer loop
   vertex 41.8 -0.8615031942152962 0
   vertex 41.8 -7.552530246343046 0
   vertex 40.1 -8.811492681161837 0.6
  endloop
 endfacet
 facet normal -0.3328201177351382 -0.0 -0.9429903335828893
  outer loop
   vertex 40.1 1.0035002570849625 0.6
   vertex 41.8 -0.8615031942152962 0
   vertex 40.1 -8.811492681161837 0.6
  endloop
 endfacet
 facet normal 0.0 0.0 1.0
  outer loop
   vertex 40.1 1.0035002570849625 0.6
   vertex 40.1 -8.811492681161837 0.6
   vertex 51.87799152589616 -0.0891109819163407 0.6
  endloop
 endfacet
 facet normal 0.0 0.0 -1.0
  outer loop
   vertex 40.1 1.0035002570849625 0.99
   vertex 51.87799152589616 -0.0891109819163407 0.99
   vertex 40.1 -8.811492681161837 0.99
  endloop
 endfacet
 facet normal 0.030742789789228522 0.3313972112815769 0.9429903335828894
  outer loop
   vertex 51.87799152589616 -0.0891109819163407 0.99
   vertex 40.1 1.0035002570849625 0.99
   vertex 41.8 -0.8615031942152962 1.5899999999999999
  endloop
 endfacet
 facet normal 0.030742789789228536 0.33139721128157673 0.9429903335828894
  outer loop
   vertex 49.82923246255329 -1.606352569412342 1.5899999999999999
   vertex 51.87799152589616 -0.0891109819163407 0.99
   vertex 41.8 -0.8615031942152962 1.5899999999999999
  endloop
 endfacet
 facet normal 0.595136944925877 -0.8036243007676496 0.0
  outer loop
   vertex 40.1 -8.811492681161837 0.99
   vertex 51.87799152589616 -0.0891109819163407 0.99
   vertex 49.82923246255329 -1.606352569412342 1.5899999999999999
  endloop
 endfacet
 facet normal 0.5951369449258769 -0.8036243007676496 5.9263594190957335e-16
  outer loop
   vertex 41.8 -7.552530246343046 1.5899999999999999
   vertex 40.1 -8.811492681161837 0.99
   vertex 49.82923246255329 -1.606352569412342 1.5899999999999999
  endloop
 endfacet
 facet normal -0.33282011773513814 0.0 0.9429903335828893
  outer loop
   vertex 40.1 1.0035002570849625 0.99
   vertex 40.1 -8.811492681161837 0.99
   vertex 41.8 -7.552530246343046 1.5899999999999999
  endloop
 endfacet
 facet normal -0.3328201177351382 0.0 0.9429903335828892
  outer loop
   vertex 41.8 -0.8615031942152962 1.5899999999999999
   vertex 40.1 1.0035002570849625 0.99
   vertex 41.8 -7.552530246343046 1.5899999999999999
  endloop
 endfacet
 facet normal 0.0 0.0 1.0
  outer loop
   vertex 41.8 -0.8615031942152962 1.5899999999999999
   vertex 41.8 -7.552530246343046 1.5899999999999999
   vertex 49.82923246255329 -1.606352569412342 1.5899999999999999
  endloop
 endfacet
 facet normal 0.0 0.0 -1.0
  outer loop
   vertex 67.1707675374467 -1.6063525694123468 0
   vertex 75.2 -0.8615031942153069 0
   vertex 75.19999999999999 -7.552530246343051 0
  endloop
 endfacet
 facet normal -0.0307427897892283 0.3313972112815773 -0.9429903335828893
  outer loop
   vertex 75.2 -0.8615031942153069 0
   vertex 67.1707675374467 -1.6063525694123468 0
   vertex 65.12200847410385 -0.08911098191634492 0.6
  endloop
 endfacet
 facet normal -0.030742789789228335 0.3313972112815769 -0.9429903335828894
  outer loop
   vertex 76.9 1.0035002570849516 0.6
   vertex 75.2 -0.8615031942153069 0
   vertex 65.12200847410385 -0.08911098191634492 0.6
  endloop
 endfacet
 facet normal 0.3328201177351376 -7.068658223293892e-16 -0.9429903335828894
  outer loop
   vertex 75.19999999999999 -7.552530246343051 0
   vertex 75.2 -0.8615031942153069 0
   vertex 76.9 1.0035002570849516 0.6
  endloop
 endfacet
 facet normal 0.33282011773513664 -4.818809722215947e-16 -0.9429903335828898
  outer loop
   vertex 76.89999999999999 -8.811492681161845 0.6
   vertex 75.19999999999999 -7.552530246343051 0
   vertex 76.9 1.0035002570849516 0.6
  endloop
 endfacet
 facet normal -0.5951369449258769 -0.8036243007676496 3.555815651457439e-15
  outer loop
   vertex 67.1707675374467 -1.6063525694123468 0
   vertex 75.19999999999999 -7.552530246343051 0
   vertex 76.89999999999999 -8.811492681161845 0.6
  endloop
 endfacet
 facet normal -0.5951369449258775 -0.8036243007676492 1.7776385408576043e-14
  outer loop
   vertex 65.12200847410385 -0.08911098191634492 0.6
   vertex 67.1707675374467 -1.6063525694123468 0
   vertex 76.89999999999999 -8.811492681161845 0.6
  endloop
 endfacet
 facet normal -0.0 0.0 1.0
  outer loop
   vertex 65.12200847410385 -0.08911098191634492 0.6
   vertex 76.89999999999999 -8.811492681161845 0.6
   vertex 76.9 1.0035002570849516 0.6
  endloop
 endfacet
 facet normal 0.0 0.0 -1.0
  outer loop
   vertex 65.12200847410385 -0.08911098191634492 0.99
   vertex 76.9 1.0035002570849516 0.99
   vertex 76.89999999999999 -8.811492681161845 0.99
  endloop
 endfacet
 facet normal -0.030742789789228366 0.33139721128157723 0.9429903335828894
  outer loop
   vertex 76.9 1.0035002570849516 0.99
   vertex 65.12200847410385 -0.08911098191634492 0.99
   vertex 67.1707675374467 -1.6063525694123468 1.5899999999999999
  endloop
 endfacet
 facet normal -0.03074278978922826 0.3313972112815768 0.9429903335828895
  outer loop
   vertex 75.2 -0.8615031942153069 1.5899999999999999
   vertex 76.9 1.0035002570849516 0.99
   vertex 67.1707675374467 -1.6063525694123468 1.5899999999999999
  endloop
 endfacet
 facet normal 0.3328201177351373 -4.818809722215957e-16 0.9429903335828894
  outer loop
   vertex 76.89999999999999 -8.811492681161845 0.99
   vertex 76.9 1.0035002570849516 0.99
   vertex 75.2 -0.8615031942153069 1.5899999999999999
  endloop
 endfacet
 facet normal 0.3328201177351364 -7.068658223293867e-16 0.9429903335828898
  outer loop
   vertex 75.19999999999999 -7.552530246343051 1.5899999999999999
   vertex 76.89999999999999 -8.811492681161845 0.99
   vertex 75.2 -0.8615031942153069 1.5899999999999999
  endloop
 endfacet
 facet normal -0.5951369449258775 -0.8036243007676492 -6.4641401485731085e-15
  outer loop
   vertex 65.12200847410385 -0.08911098191634492 0.99
   vertex 76.89999999999999 -8.811492681161845 0.99
   vertex 75.19999999999999 -7.552530246343051 1.5899999999999999
  endloop
 endfacet
 facet normal -0.5951369449258769 -0.8036243007676496 -2.1038575937789853e-14
  outer loop
   vertex 67.1707675374467 -1.6063525694123468 1.5899999999999999
   vertex 65.12200847410385 -0.08911098191634492 0.99
   vertex 75.19999999999999 -7.552530246343051 1.5899999999999999
  endloop
 endfacet
 facet normal -0.0 0.0 1.0
  outer loop
   vertex 67.1707675374467 -1.6063525694123468 1.5899999999999999
   vertex 75.19999999999999 -7.552530246343051 1.5899999999999999
   vertex 75.2 -0.8615031942153069 1.5899999999999999
  endloop
 endfacet
 facet normal 0.0 0.0 -1.0
  outer loop
   vertex 78.8 -0.8615031942153065 0
   vertex 86.82923246255314 -1.606352569412334 0
   vertex 78.8 -7.552530246343028 0
  endloop
 endfacet
 facet normal 0.030742789789228394 0.3313972112815768 -0.9429903335828894
  outer loop
   vertex 86.82923246255314 -1.606352569412334 0
   vertex 78.8 -0.8615031942153065 0
   vertex 77.1 1.0035002570849527 0.6
  endloop
 endfacet
 facet normal 0.030742789789228387 0.33139721128157684 -0.9429903335828895
  outer loop
   vertex 88.87799152589596 -0.08911098191632881 0.6
   vertex 86.82923246255314 -1.606352569412334 0
   vertex 77.1 1.0035002570849527 0.6
  endloop
 endfacet
 facet normal 0.5951369449258836 -0.8036243007676446 4.741087535276648e-15
  outer loop
   vertex 78.8 -7.552530246343028 0
   vertex 86.82923246255314 -1.606352569412334 0
   vertex 88.87799152589596 -0.08911098191632881 0.6
  endloop
 endfacet
 facet normal 0.5951369449258838 -0.8036243007676445 0.0
  outer loop
   vertex 77.1 -8.811492681161846 0.6
   vertex 78.8 -7.552530246343028 0
   vertex 88.87799152589596 -0.08911098191632881 0.6
  endloop
 endfacet
 facet normal -0.33282011773513703 -0.0 -0.9429903335828898
  outer loop
   vertex 78.8 -0.8615031942153065 0
   vertex 78.8 -7.552530246343028 0
   vertex 77.1 -8.811492681161846 0.6
  endloop
 endfacet
 facet normal -0.3328201177351369 -0.0 -0.9429903335828898
  outer loop
   vertex 77.1 1.0035002570849527 0.6
   vertex 78.8 -0.8615031942153065 0
   vertex 77.1 -8.811492681161846 0.6
  endloop
 endfacet
 facet normal 0.0 0.0 1.0
  outer loop
   vertex 77.1 1.0035002570849527 0.6
   vertex 77.1 -8.811492681161846 0.6
   vertex 88.87799152589596 -0.08911098191632881 0.6
  endloop
 endfacet
 facet normal 0.0 0.0 -1.0
  outer loop
   vertex 77.1 1.0035002570849527 0.99
   vertex 88.87799152589596 -0.08911098191632881 0.99
   vertex 77.1 -8.811492681161846 0.99
  endloop
 endfacet
 facet normal 0.030742789789228387 0.33139721128157684 0.9429903335828895
  outer loop
   vertex 88.87799152589596 -0.08911098191632881 0.99
   vertex 77.1 1.0035002570849527 0.99
   vertex 78.8 -0.8615031942153065 1.5899999999999999
  endloop
 endfacet
 facet normal 0.030742789789228384 0.33139721128157673 0.9429903335828895
  outer loop
   vertex 86.82923246255314 -1.606352569412334 1.5899999999999999
   vertex 88.87799152589596 -0.08911098191632881 0.99
   vertex 78.8 -0.8615031942153065 1.5899999999999999
  endloop
 endfacet
 facet normal 0.5951369449258838 -0.8036243007676445 -1.6160350371432907e-15
  outer loop
   vertex 77.1 -8.811492681161846 0.99
   vertex 88.87799152589596 -0.08911098191632881 0.99
   vertex 86.82923246255314 -1.606352569412334 1.5899999999999999
  endloop
 endfacet
 facet normal 0.5951369449258838 -0.8036243007676445 5.926359419095811e-16
  outer loop
   vertex 78.8 -7.552530246343028 1.5899999999999999
   vertex 77.1 -8.811492681161846 0.99
   vertex 86.82923246255314 -1.606352569412334 1.5899999999999999
  endloop
 endfacet
 facet normal -0.33282011773513687 0.0 0.9429903335828898
  outer loop
   vertex 77.1 1.0035002570849527 0.99
   vertex 77.1 -8.811492681161846 0.99
   vertex 78.8 -7.552530246343028 1.5899999999999999
  endloop
 endfacet
 facet normal -0.332820117735137 0.0 0.9429903335828898
  outer loop
   vertex 78.8 -0.8615031942153065 1.5899999999999999
   vertex 77.1 1.0035002570849527 0.99
   vertex 78.8 -7.552530246343028 1.5899999999999999
  endloop
 endfacet
 facet normal 0.0 0.0 1.0
  outer loop
   vertex 78.8 -0.8615031942153065 1.5899999999999999
   vertex 78.8 -7.552530246343028 1.5899999999999999
   vertex 86.82923246255314 -1.606352569412334 1.5899999999999999
  endloop
 endfacet
 facet normal 0.0 0.0 -1.0
  outer loop
   vertex 8.524057223923336 0.001 0
   vertex 0.0010000000000000002 0.001 0
   vertex 0.0010000000000036998 19.99900000000001 0
  endloop
 endfacet
 facet normal 0.0 0.0 -1.0
  outer loop
   vertex 8.524057223923336 0.001 0
   vertex 0.0010000000000036998 19.99900000000001 0
   vertex 8.524057223923279 19.999000000000006 0
  endloop
 endfacet
 facet normal 0.0 0.0 -1.0
  outer loop
   vertex 8.524057223923336 0.001 0
   vertex 8.524057223923279 19.999000000000006 0
   vertex 38.2 17.24604602361024 0
  endloop
 endfacet
 facet normal 0.0 0.0 -1.0
  outer loop
   vertex 8.524057223923336 0.001 0
   vertex 38.2 17.24604602361024 0
   vertex 38.2 2.7539539763897576 0
  endloop
 endfacet
 facet normal 0.0 -1.0 0.0
  outer loop
   vertex 0.0010000000000000002 0.001 0
   vertex 8.524057223923336 0.001 0
   vertex 26.92818398108501 0.001 0.6
  endloop
 endfacet
 facet normal 0.0 -1.0 0.0
  outer loop
   vertex 0.0010000000000000002 0.001 0.6
   vertex 0.0010000000000000002 0.001 0
   vertex 26.92818398108501 0.001 0.6
  endloop
 endfacet
 facet normal -1.0 1.8499423207095894e-16 0.0
  outer loop
   vertex 0.0010000000000036998 19.99900000000001 0
   vertex 0.0010000000000000002 0.001 0
   vertex 0.0010000000000000002 0.001 0.6
  endloop
 endfacet
 facet normal -1.0 1.8499423207095894e-16 0.0
  outer loop
   vertex 0.0010000000000036998 19.99900000000001 0.6
   vertex 0.0010000000000036998 19.99900000000001 0
   vertex 0.0010000000000000002 0.001 0.6
  endloop
 endfacet
 facet normal 4.1683560082506867e-16 1.0 0.0
  outer loop
   vertex 8.524057223923279 19.999000000000006 0
   vertex 0.0010000000000036998 19.99900000000001 0
   vertex 0.0010000000000036998 19.99900000000001 0.6
  endloop
 endfacet
 facet normal 3.95813429428354e-16 1.0 -2.9862194964220593e-16
  outer loop
   vertex 26.92818398108503 19.999 0.6
   vertex 8.524057223923279 19.999000000000006 0
   vertex 0.0010000000000036998 19.99900000000001 0.6
  endloop
 endfacet
 facet normal 0.030742789789228325 0.3313972112815766 -0.9429903335828895
  outer loop
   vertex 38.2 17.24604602361024 0
   vertex 8.524057223923279 19.999000000000006 0
   vertex 26.92818398108503 19.999 0.6
  endloop
 endfacet
 facet normal 0.030742789789228363 0.3313972112815768 -0.9429903335828896
  outer loop
   vertex 39.9 18.795641011214755 0.6
   vertex 38.2 17.24604602361024 0
   vertex 26.92818398108503 19.999 0.6
  endloop
 endfacet
 facet normal 0.3328201177351382 0.0 -0.9429903335828893
  outer loop
   vertex 38.2 2.7539539763897576 0
   vertex 38.2 17.24604602361024 0
   vertex 39.9 18.795641011214755 0.6
  endloop
 endfacet
 facet normal 0.3328201177351382 0.0 -0.9429903335828893
  outer loop
   vertex 39.9 1.2043589887852435 0.6
   vertex 38.2 2.7539539763897576 0
   vertex 39.9 18.795641011214755 0.6
  endloop
 endfacet
 facet normal 0.030742789789228325 -0.3313972112815769 -0.9429903335828895
  outer loop
   vertex 8.524057223923336 0.001 0
   vertex 38.2 2.7539539763897576 0
   vertex 39.9 1.2043589887852435 0.6
  endloop
 endfacet
 facet normal 0.030742789789228325 -0.3313972112815769 -0.9429903335828895
  outer loop
   vertex 26.92818398108501 0.001 0.6
   vertex 8.524057223923336 0.001 0
   vertex 39.9 1.2043589887852435 0.6
  endloop
 endfacet
 facet normal 0.0 0.0 1.0
  outer loop
   vertex 26.92818398108501 0.001 0.6
   vertex 0.0010000000000036998 19.99900000000001 0.6
   vertex 0.0010000000000000002 0.001 0.6
  endloop
 endfacet
 facet normal 0.0 -0.0 1.0
  outer loop
   vertex 26.92818398108501 0.001 0.6
   vertex 26.92818398108503 19.999 0.6
   vertex 0.0010000000000036998 19.99900000000001 0.6
  endloop
 endfacet
 facet normal 0.0 0.0 1.0
  outer loop
   vertex 26.92818398108501 0.001 0.6
   vertex 39.9 18.795641011214755 0.6
   vertex 26.92818398108503 19.999 0.6
  endloop
 endfacet
 facet normal 0.0 0.0 1.0
  outer loop
   vertex 26.92818398108501 0.001 0.6
   vertex 39.9 1.2043589887852435 0.6
   vertex 39.9 18.795641011214755 0.6
  endloop
 endfacet
 facet normal 0.0 0.0 -1.0
  outer loop
   vertex 26.92818398108501 0.001 0.99
   vertex 0.0010000000000000002 0.001 0.99
   vertex 0.0010000000000036998 19.99900000000001 0.99
  endloop
 endfacet
 facet normal 0.0 0.0 -1.0
  outer loop
   vertex 26.92818398108501 0.001 0.99
   vertex 0.0010000000000036998 19.99900000000001 0.99
   vertex 26.92818398108503 19.999 0.99
  endloop
 endfacet
 facet normal 0.0 0.0 -1.0
  outer loop
   vertex 26.92818398108501 0.001 0.99
   vertex 26.92818398108503 19.999 0.99
   vertex 39.9 18.795641011214755 0.99
  endloop
 endfacet
 facet normal 0.0 0.0 -1.0
  outer loop
   vertex 26.92818398108501 0.001 0.99
   vertex 39.9 18.795641011214755 0.99
   vertex 39.9 1.2043589887852435 0.99
  endloop
 endfacet
 facet normal 0.0 -1.0 0.0
  outer loop
   vertex 0.0010000000000000002 0.001 0.99
   vertex 26.92818398108501 0.001 0.99
   vertex 8.524057223923336 0.001 1.5899999999999999
  endloop
 endfacet
 facet normal 0.0 -1.0 0.0
  outer loop
   vertex 0.0010000000000000002 0.001 1.5899999999999999
   vertex 0.0010000000000000002 0.001 0.99
   vertex 8.524057223923336 0.001 1.5899999999999999
  endloop
 endfacet
 facet normal -1.0 1.8499423207095894e-16 0.0
  outer loop
   vertex 0.0010000000000036998 19.99900000000001 0.99
   vertex 0.0010000000000000002 0.001 0.99
   vertex 0.0010000000000000002 0.001 1.5899999999999999
  endloop
 endfacet
 facet normal -1.0 1.8499423207095894e-16 0.0
  outer loop
   vertex 0.0010000000000036998 19.99900000000001 1.5899999999999999
   vertex 0.0010000000000036998 19.99900000000001 0.99
   vertex 0.0010000000000000002 0.001 1.5899999999999999
  endloop
 endfacet
 facet normal 3.9581342942835406e-16 1.0 0.0
  outer loop
   vertex 26.92818398108503 19.999 0.99
   vertex 0.0010000000000036998 19.99900000000001 0.99
   vertex 0.0010000000000036998 19.99900000000001 1.5899999999999999
  endloop
 endfacet
 facet normal 4.1683560082506867e-16 1.0 9.43446461468734e-16
  outer loop
   vertex 8.524057223923279 19.999000000000006 1.5899999999999999
   vertex 26.92818398108503 19.999 0.99
   vertex 0.0010000000000036998 19.99900000000001 1.5899999999999999
  endloop
 endfacet
 facet normal 0.030742789789228325 0.33139721128157634 0.9429903335828896
  outer loop
   vertex 39.9 18.795641011214755 0.99
   vertex 26.92818398108503 19.999 0.99
   vertex 8.524057223923279 19.999000000000006 1.5899999999999999
  endloop
 endfacet
 facet normal 0.030742789789228335 0.3313972112815767 0.9429903335828895
  outer loop
   vertex 38.2 17.24604602361024 1.5899999999999999
   vertex 39.9 18.795641011214755 0.99
   vertex 8.524057223923279 19.999000000000006 1.5899999999999999
  endloop
 endfacet
 facet normal 0.33282011773513814 -0.0 0.9429903335828893
  outer loop
   vertex 39.9 1.2043589887852435 0.99
   vertex 39.9 18.795641011214755 0.99
   vertex 38.2 17.24604602361024 1.5899999999999999
  endloop
 endfacet
 facet normal 0.33282011773513814 -0.0 0.9429903335828893
  outer loop
   vertex 38.2 2.7539539763897576 1.5899999999999999
   vertex 39.9 1.2043589887852435 0.99
   vertex 38.2 17.24604602361024 1.5899999999999999
  endloop
 endfacet
 facet normal 0.03074278978922832 -0.33139721128157684 0.9429903335828895
  outer loop
   vertex 26.92818398108501 0.001 0.99
   vertex 39.9 1.2043589887852435 0.99
   vertex 38.2 2.7539539763897576 1.5899999999999999
  endloop
 endfacet
 facet normal 0.03074278978922832 -0.3313972112815769 0.9429903335828895
  outer loop
   vertex 8.524057223923336 0.001 1.5899999999999999
   vertex 26.92818398108501 0.001 0.99
   vertex 38.2 2.7539539763897576 1.5899999999999999
  endloop
 endfacet
 facet normal 0.0 0.0 1.0
  outer loop
   vertex 8.524057223923336 0.001 1.5899999999999999
   vertex 0.0010000000000036998 19.99900000000001 1.5899999999999999
   vertex 0.0010000000000000002 0.001 1.5899999999999999
  endloop
 endfacet
 facet normal 0.0 0.0 1.0
  outer loop
   vertex 8.524057223923336 0.001 1.5899999999999999
   vertex 8.524057223923279 19.999000000000006 1.5899999999999999
   vertex 0.0010000000000036998 19.99900000000001 1.5899999999999999
  endloop
 endfacet
 facet normal 0.0 -0.0 1.0
  outer loop
   vertex 8.524057223923336 0.001 1.5899999999999999
   vertex 38.2 17.24604602361024 1.5899999999999999
   vertex 8.524057223923279 19.999000000000006 1.5899999999999999
  endloop
 endfacet
 facet normal 0.0 0.0 1.0
  outer loop
   vertex 8.524057223923336 0.001 1.5899999999999999
   vertex 38.2 2.7539539763897576 1.5899999999999999
   vertex 38.2 17.24604602361024 1.5899999999999999
  endloop
 endfacet
 facet normal 0.0 0.0 -1.0
  outer loop
   vertex 101.999 0.601847814837513 0
   vertex 78.8 2.753953976389747 0
   vertex 78.8 17.24604602361024 0
  endloop
 endfacet
 facet normal 0.0 0.0 -1.0
  outer loop
   vertex 101.999 0.601847814837513 0
   vertex 78.8 17.24604602361024 0
   vertex 101.999 19.39815218516247 0
  endloop
 endfacet
 facet normal 0.0 -0.7066073781065618 -0.7076058318056533
  outer loop
   vertex 90.07181601891484 0.001 0.6
   vertex 101.999 0.601847814837513 0
   vertex 101.999 0.001 0.6
  endloop
 endfacet
 facet normal -0.030742789789228363 -0.33139721128157673 -0.9429903335828896
  outer loop
   vertex 78.8 2.753953976389747 0
   vertex 101.999 0.601847814837513 0
   vertex 90.07181601891484 0.001 0.6
  endloop
 endfacet
 facet normal -0.030742789789228342 -0.3313972112815766 -0.9429903335828896
  outer loop
   vertex 77.1 1.2043589887852324 0.6
   vertex 78.8 2.753953976389747 0
   vertex 90.07181601891484 0.001 0.6
  endloop
 endfacet
 facet normal -0.332820117735137 -0.0 -0.9429903335828896
  outer loop
   vertex 78.8 17.24604602361024 0
   vertex 78.8 2.753953976389747 0
   vertex 77.1 1.2043589887852324 0.6
  endloop
 endfacet
 facet normal -0.332820117735137 -0.0 -0.9429903335828896
  outer loop
   vertex 77.1 18.795641011214755 0.6
   vertex 78.8 17.24604602361024 0
   vertex 77.1 1.2043589887852324 0.6
  endloop
 endfacet
 facet normal -0.0307427897892283 0.33139721128157673 -0.9429903335828896
  outer loop
   vertex 101.999 19.39815218516247 0
   vertex 78.8 17.24604602361024 0
   vertex 77.1 18.795641011214755 0.6
  endloop
 endfacet
 facet normal -0.0307427897892283 0.3313972112815771 -0.9429903335828894
  outer loop
   vertex 90.071816018915 19.999 0.6
   vertex 101.999 19.39815218516247 0
   vertex 77.1 18.795641011214755 0.6
  endloop
 endfacet
 facet normal 0.0 0.7066073781065524 -0.7076058318056626
  outer loop
   vertex 101.999 19.999 0.6
   vertex 101.999 19.39815218516247 0
   vertex 90.071816018915 19.999 0.6
  endloop
 endfacet
 facet normal 1.0 0.0 0.0
  outer loop
   vertex 101.999 0.601847814837513 0
   vertex 101.999 19.39815218516247 0
   vertex 101.999 19.999 0.6
  endloop
 endfacet
 facet normal 1.0 -0.0 0.0
  outer loop
   vertex 101.999 0.001 0.6
   vertex 101.999 0.601847814837513 0
   vertex 101.999 19.999 0.6
  endloop
 endfacet
 facet normal 0.0 0.0 1.0
  outer loop
   vertex 101.999 0.001 0.6
   vertex 77.1 1.2043589887852324 0.6
   vertex 90.07181601891484 0.001 0.6
  endloop
 endfacet
 facet normal 0.0 0.0 1.0
  outer loop
   vertex 101.999 0.001 0.6
   vertex 77.1 18.795641011214755 0.6
   vertex 77.1 1.2043589887852324 0.6
  endloop
 endfacet
 facet normal 0.0 0.0 1.0
  outer loop
   vertex 101.999 0.001 0.6
   vertex 90.071816018915 19.999 0.6
   vertex 77.1 18.795641011214755 0.6
  endloop
 endfacet
 facet normal 0.0 -0.0 1.0
  outer loop
   vertex 101.999 0.001 0.6
   vertex 101.999 19.999 0.6
   vertex 90.071816018915 19.999 0.6
  endloop
 endfacet
 facet normal 0.0 0.0 -1.0
  outer loop
   vertex 101.999 0.001 0.99
   vertex 90.07181601891484 0.001 0.99
   vertex 77.1 1.2043589887852324 0.99
  endloop
 endfacet
 facet normal 0.0 0.0 -1.0
  outer loop
   vertex 101.999 0.001 0.99
   vertex 77.1 1.2043589887852324 0.99
   vertex 77.1 18.795641011214755 0.99
  endloop
 endfacet
 facet normal 0.0 0.0 -1.0
  outer loop
   vertex 101.999 0.001 0.99
   vertex 77.1 18.795641011214755 0.99
   vertex 90.071816018915 19.999 0.99
  endloop
 endfacet
 facet normal 0.0 0.0 -1.0
  outer loop
   vertex 101.999 0.001 0.99
   vertex 90.071816018915 19.999 0.99
   vertex 101.999 19.999 0.99
  endloop
 endfacet
 facet normal 0.0 -0.7066073781065617 0.7076058318056534
  outer loop
   vertex 90.07181601891484 0.001 0.99
   vertex 101.999 0.001 0.99
   vertex 101.999 0.601847814837513 1.5899999999999999
  endloop
 endfacet
 facet normal -0.030742789789228356 -0.3313972112815768 0.9429903335828895
  outer loop
   vertex 77.1 1.2043589887852324 0.99
   vertex 90.07181601891484 0.001 0.99
   vertex 101.999 0.601847814837513 1.5899999999999999
  endloop
 endfacet
 facet normal -0.030742789789228352 -0.3313972112815766 0.9429903335828896
  outer loop
   vertex 78.8 2.753953976389747 1.5899999999999999
   vertex 77.1 1.2043589887852324 0.99
   vertex 101.999 0.601847814837513 1.5899999999999999
  endloop
 endfacet
 facet normal -0.3328201177351369 0.0 0.9429903335828896
  outer loop
   vertex 77.1 18.795641011214755 0.99
   vertex 77.1 1.2043589887852324 0.99
   vertex 78.8 2.753953976389747 1.5899999999999999
  endloop
 endfacet
 facet normal -0.3328201177351369 0.0 0.9429903335828896
  outer loop
   vertex 78.8 17.24604602361024 1.5899999999999999
   vertex 77.1 18.795641011214755 0.99
   vertex 78.8 2.753953976389747 1.5899999999999999
  endloop
 endfacet
 facet normal -0.03074278978922826 0.3313972112815766 0.9429903335828896
  outer loop
   vertex 90.071816018915 19.999 0.99
   vertex 77.1 18.795641011214755 0.99
   vertex 78.8 17.24604602361024 1.5899999999999999
  endloop
 endfacet
 facet normal -0.03074278978922831 0.33139721128157684 0.9429903335828894
  outer loop
   vertex 101.999 19.39815218516247 1.5899999999999999
   vertex 90.071816018915 19.999 0.99
   vertex 78.8 17.24604602361024 1.5899999999999999
  endloop
 endfacet
 facet normal 0.0 0.7066073781065523 0.7076058318056627
  outer loop
   vertex 101.999 19.999 0.99
   vertex 90.071816018915 19.999 0.99
   vertex 101.999 19.39815218516247 1.5899999999999999
  endloop
 endfacet
 facet normal 1.0 0.0 0.0
  outer loop
   vertex 101.999 0.001 0.99
   vertex 101.999 19.999 0.99
   vertex 101.999 19.39815218516247 1.5899999999999999
  endloop
 endfacet
 facet normal 1.0 -0.0 0.0
  outer loop
   vertex 101.999 0.601847814837513 1.5899999999999999
   vertex 101.999 0.001 0.99
   vertex 101.999 19.39815218516247 1.5899999999999999
  endloop
 endfacet
 facet normal 0.0 0.0 1.0
  outer loop
   vertex 101.999 0.601847814837513 1.5899999999999999
   vertex 78.8 17.24604602361024 1.5899999999999999
   vertex 78.8 2.753953976389747 1.5899999999999999
  endloop
 endfacet
 facet normal 0.0 -0.0 1.0
  outer loop
   vertex 101.999 0.601847814837513 1.5899999999999999
   vertex 101.999 19.39815218516247 1.5899999999999999
   vertex 78.8 17.24604602361024 1.5899999999999999
  endloop
 endfacet
 facet normal 0.0 0.0 -1.0
  outer loop
   vertex 58.499999999999936 18.795258183527572 0
   vertex 75.2 17.246046023610234 0
   vertex 75.2 2.753953976389747 0
  endloop
 endfacet
 facet normal 0.0 0.0 -1.0
  outer loop
   vertex 58.499999999999936 18.795258183527572 0
   vertex 75.2 2.753953976389747 0
   vertex 58.49999999999999 1.2047418164724117 0
  endloop
 endfacet
 facet normal 0.0 -0.0 -1.0
  outer loop
   vertex 58.499999999999936 18.795258183527572 0
   vertex 58.49999999999999 1.2047418164724117 0
   vertex 41.8 2.7539539763897567 0
  endloop
 endfacet
 facet normal 0.0 0.0 -1.0
  outer loop
   vertex 58.499999999999936 18.795258183527572 0
   vertex 41.8 2.7539539763897567 0
   vertex 41.8 17.246046023610244 0
  endloop
 endfacet
 facet normal 0.0 0.44610043207031136 -0.8949829073824156
  outer loop
   vertex 63.92818398108498 19.998999999999995 0.6
   vertex 58.499999999999936 18.795258183527572 0
   vertex 53.071816018914916 19.998999999999995 0.6
  endloop
 endfacet
 facet normal 0.030742789789228248 0.33139721128157656 -0.9429903335828895
  outer loop
   vertex 75.2 17.246046023610234 0
   vertex 58.499999999999936 18.795258183527572 0
   vertex 63.92818398108498 19.998999999999995 0.6
  endloop
 endfacet
 facet normal 0.030742789789228304 0.3313972112815767 -0.9429903335828896
  outer loop
   vertex 76.9 18.795641011214748 0.6
   vertex 75.2 17.246046023610234 0
   vertex 63.92818398108498 19.998999999999995 0.6
  endloop
 endfacet
 facet normal 0.3328201177351369 0.0 -0.9429903335828896
  outer loop
   vertex 75.2 2.753953976389747 0
   vertex 75.2 17.246046023610234 0
   vertex 76.9 18.795641011214748 0.6
  endloop
 endfacet
 facet normal 0.332820117735137 0.0 -0.9429903335828896
  outer loop
   vertex 76.9 1.2043589887852333 0.6
   vertex 75.2 2.753953976389747 0
   vertex 76.9 18.795641011214748 0.6
  endloop
 endfacet
 facet normal 0.030742789789228318 -0.33139721128157684 -0.9429903335828895
  outer loop
   vertex 58.49999999999999 1.2047418164724117 0
   vertex 75.2 2.753953976389747 0
   vertex 76.9 1.2043589887852333 0.6
  endloop
 endfacet
 facet normal 0.03074278978922831 -0.3313972112815768 -0.9429903335828894
  outer loop
   vertex 63.92818398108498 0.0009999999999860886 0.6
   vertex 58.49999999999999 1.2047418164724117 0
   vertex 76.9 1.2043589887852333 0.6
  endloop
 endfacet
 facet normal -1.2010083622942455e-16 -0.4461004320703111 -0.8949829073824158
  outer loop
   vertex 53.07181601891502 0.0009999999999890114 0.6
   vertex 58.49999999999999 1.2047418164724117 0
   vertex 63.92818398108498 0.0009999999999860886 0.6
  endloop
 endfacet
 facet normal -0.030742789789228543 -0.33139721128157695 -0.9429903335828895
  outer loop
   vertex 41.8 2.7539539763897567 0
   vertex 58.49999999999999 1.2047418164724117 0
   vertex 53.07181601891502 0.0009999999999890114 0.6
  endloop
 endfacet
 facet normal -0.030742789789228526 -0.3313972112815769 -0.9429903335828895
  outer loop
   vertex 40.1 1.2043589887852435 0.6
   vertex 41.8 2.7539539763897567 0
   vertex 53.07181601891502 0.0009999999999890114 0.6
  endloop
 endfacet
 facet normal -0.3328201177351382 -0.0 -0.9429903335828893
  outer loop
   vertex 41.8 17.246046023610244 0
   vertex 41.8 2.7539539763897567 0
   vertex 40.1 1.2043589887852435 0.6
  endloop
 endfacet
 facet normal -0.3328201177351382 -0.0 -0.9429903335828892
  outer loop
   vertex 40.1 18.79564101121476 0.6
   vertex 41.8 17.246046023610244 0
   vertex 40.1 1.2043589887852435 0.6
  endloop
 endfacet
 facet normal -0.030742789789228307 0.33139721128157684 -0.9429903335828895
  outer loop
   vertex 58.499999999999936 18.795258183527572 0
   vertex 41.8 17.246046023610244 0
   vertex 40.1 18.79564101121476 0.6
  endloop
 endfacet
 facet normal -0.030742789789228297 0.33139721128157673 -0.9429903335828895
  outer loop
   vertex 53.071816018914916 19.998999999999995 0.6
   vertex 58.499999999999936 18.795258183527572 0
   vertex 40.1 18.79564101121476 0.6
  endloop
 endfacet
 facet normal -0.0 0.0 1.0
  outer loop
   vertex 53.071816018914916 19.998999999999995 0.6
   vertex 76.9 18.795641011214748 0.6
   vertex 63.92818398108498 19.998999999999995 0.6
  endloop
 endfacet
 facet normal 0.0 0.0 1.0
  outer loop
   vertex 53.071816018914916 19.998999999999995 0.6
   vertex 76.9 1.2043589887852333 0.6
   vertex 76.9 18.795641011214748 0.6
  endloop
 endfacet
 facet normal 0.0 0.0 1.0
  outer loop
   vertex 53.071816018914916 19.998999999999995 0.6
   vertex 63.92818398108498 0.0009999999999860886 0.6
   vertex 76.9 1.2043589887852333 0.6
  endloop
 endfacet
 facet normal 0.0 0.0 1.0
  outer loop
   vertex 53.071816018914916 19.998999999999995 0.6
   vertex 53.07181601891502 0.0009999999999890114 0.6
   vertex 63.92818398108498 0.0009999999999860886 0.6
  endloop
 endfacet
 facet normal 0.0 0.0 1.0
  outer loop
   vertex 53.071816018914916 19.998999999999995 0.6
   vertex 40.1 1.2043589887852435 0.6
   vertex 53.07181601891502 0.0009999999999890114 0.6
  endloop
 endfacet
 facet normal 0.0 0.0 1.0
  outer loop
   vertex 53.071816018914916 19.998999999999995 0.6
   vertex 40.1 18.79564101121476 0.6
   vertex 40.1 1.2043589887852435 0.6
  endloop
 endfacet
 facet normal 0.0 0.0 -1.0
  outer loop
   vertex 53.071816018914916 19.998999999999995 0.99
   vertex 63.92818398108498 19.998999999999995 0.99
   vertex 76.9 18.795641011214748 0.99
  endloop
 endfacet
 facet normal 0.0 0.0 -1.0
  outer loop
   vertex 53.071816018914916 19.998999999999995 0.99
   vertex 76.9 18.795641011214748 0.99
   vertex 76.9 1.2043589887852333 0.99
  endloop
 endfacet
 facet normal 0.0 0.0 -1.0
  outer loop
   vertex 53.071816018914916 19.998999999999995 0.99
   vertex 76.9 1.2043589887852333 0.99
   vertex 63.92818398108498 0.0009999999999860886 0.99
  endloop
 endfacet
 facet normal 0.0 0.0 -1.0
  outer loop
   vertex 53.071816018914916 19.998999999999995 0.99
   vertex 63.92818398108498 0.0009999999999860886 0.99
   vertex 53.07181601891502 0.0009999999999890114 0.99
  endloop
 endfacet
 facet normal 0.0 -0.0 -1.0
  outer loop
   vertex 53.071816018914916 19.998999999999995 0.99
   vertex 53.07181601891502 0.0009999999999890114 0.99
   vertex 40.1 1.2043589887852435 0.99
  endloop
 endfacet
 facet normal 0.0 0.0 -1.0
  outer loop
   vertex 53.071816018914916 19.998999999999995 0.99
   vertex 40.1 1.2043589887852435 0.99
   vertex 40.1 18.79564101121476 0.99
  endloop
 endfacet
 facet normal 0.0 0.4461004320703113 0.8949829073824157
  outer loop
   vertex 63.92818398108498 19.998999999999995 0.99
   vertex 53.071816018914916 19.998999999999995 0.99
   vertex 58.499999999999936 18.795258183527572 1.5899999999999999
  endloop
 endfacet
 facet normal 0.030742789789228266 0.3313972112815763 0.9429903335828896
  outer loop
   vertex 76.9 18.795641011214748 0.99
   vertex 63.92818398108498 19.998999999999995 0.99
   vertex 58.499999999999936 18.795258183527572 1.5899999999999999
  endloop
 endfacet
 facet normal 0.030742789789228262 0.3313972112815767 0.9429903335828895
  outer loop
   vertex 75.2 17.246046023610234 1.5899999999999999
   vertex 76.9 18.795641011214748 0.99
   vertex 58.499999999999936 18.795258183527572 1.5899999999999999
  endloop
 endfacet
 facet normal 0.33282011773513687 -0.0 0.9429903335828896
  outer loop
   vertex 76.9 1.2043589887852333 0.99
   vertex 76.9 18.795641011214748 0.99
   vertex 75.2 17.246046023610234 1.5899999999999999
  endloop
 endfacet
 facet normal 0.3328201177351369 -0.0 0.9429903335828898
  outer loop
   vertex 75.2 2.753953976389747 1.5899999999999999
   vertex 76.9 1.2043589887852333 0.99
   vertex 75.2 17.246046023610234 1.5899999999999999
  endloop
 endfacet
 facet normal 0.030742789789228307 -0.3313972112815768 0.9429903335828894
  outer loop
   vertex 63.92818398108498 0.0009999999999860886 0.99
   vertex 76.9 1.2043589887852333 0.99
   vertex 75.2 2.753953976389747 1.5899999999999999
  endloop
 endfacet
 facet normal 0.030742789789228314 -0.3313972112815768 0.9429903335828895
  outer loop
   vertex 58.49999999999999 1.2047418164724117 1.5899999999999999
   vertex 63.92818398108498 0.0009999999999860886 0.99
   vertex 75.2 2.753953976389747 1.5899999999999999
  endloop
 endfacet
 facet normal -1.2010083622942453e-16 -0.4461004320703109 0.8949829073824158
  outer loop
   vertex 53.07181601891502 0.0009999999999890114 0.99
   vertex 63.92818398108498 0.0009999999999860886 0.99
   vertex 58.49999999999999 1.2047418164724117 1.5899999999999999
  endloop
 endfacet
 facet normal -0.030742789789228526 -0.3313972112815769 0.9429903335828894
  outer loop
   vertex 40.1 1.2043589887852435 0.99
   vertex 53.07181601891502 0.0009999999999890114 0.99
   vertex 58.49999999999999 1.2047418164724117 1.5899999999999999
  endloop
 endfacet
 facet normal -0.030742789789228526 -0.3313972112815768 0.9429903335828895
  outer loop
   vertex 41.8 2.7539539763897567 1.5899999999999999
   vertex 40.1 1.2043589887852435 0.99
   vertex 58.49999999999999 1.2047418164724117 1.5899999999999999
  endloop
 endfacet
 facet normal -0.33282011773513814 0.0 0.9429903335828893
  outer loop
   vertex 40.1 18.79564101121476 0.99
   vertex 40.1 1.2043589887852435 0.99
   vertex 41.8 2.7539539763897567 1.5899999999999999
  endloop
 endfacet
 facet normal -0.33282011773513814 0.0 0.9429903335828893
  outer loop
   vertex 41.8 17.246046023610244 1.5899999999999999
   vertex 40.1 18.79564101121476 0.99
   vertex 41.8 2.7539539763897567 1.5899999999999999
  endloop
 endfacet
 facet normal -0.030742789789228304 0.33139721128157673 0.9429903335828895
  outer loop
   vertex 53.071816018914916 19.998999999999995 0.99
   vertex 40.1 18.79564101121476 0.99
   vertex 41.8 17.246046023610244 1.5899999999999999
  endloop
 endfacet
 facet normal -0.03074278978922829 0.3313972112815767 0.9429903335828895
  outer loop
   vertex 58.499999999999936 18.795258183527572 1.5899999999999999
   vertex 53.071816018914916 19.998999999999995 0.99
   vertex 41.8 17.246046023610244 1.5899999999999999
  endloop
 endfacet
 facet normal 0.0 0.0 1.0
  outer loop
   vertex 58.499999999999936 18.795258183527572 1.5899999999999999
   vertex 75.2 2.753953976389747 1.5899999999999999
   vertex 75.2 17.246046023610234 1.5899999999999999
  endloop
 endfacet
 facet normal 0.0 0.0 1.0
  outer loop
   vertex 58.499999999999936 18.795258183527572 1.5899999999999999
   vertex 58.49999999999999 1.2047418164724117 1.5899999999999999
   vertex 75.2 2.753953976389747 1.5899999999999999
  endloop
 endfacet
 facet normal 0.0 0.0 1.0
  outer loop
   vertex 58.499999999999936 18.795258183527572 1.5899999999999999
   vertex 41.8 2.7539539763897567 1.5899999999999999
   vertex 58.49999999999999 1.2047418164724117 1.5899999999999999
  endloop
 endfacet
 facet normal 0.0 0.0 1.0
  outer loop
   vertex 58.499999999999936 18.795258183527572 1.5899999999999999
   vertex 41.8 17.246046023610244 1.5899999999999999
   vertex 41.8 2.7539539763897567 1.5899999999999999
  endloop
 endfacet
endsolid
