solid PyGamic generated __All_Units__ SLA File
 facet normal 0.0 0.0 -1.0
  outer loop
   vertex -0.0009111843946673962 12.6 0
   vertex 45.70859811596424 12.6 0
   vertex 33.099561197811504 0.001 0
  endloop
 endfacet
 facet normal 0.0 -0.0 -1.0
  outer loop
   vertex -0.0009111843946673962 12.6 0
   vertex 33.099561197811504 0.001 0
   vertex -0.0109441078043164 0.001 0
  endloop
 endfacet
 facet normal 0.0 0.2524218971470027 -0.9676172723968439
  outer loop
   vertex 45.70859811596424 12.6 0
   vertex -0.0009111843946673962 12.6 0
   vertex 0.0009203676207459473 14.9 0.6
  endloop
 endfacet
 facet normal 0.0 0.25242189714700264 -0.9676172723968439
  outer loop
   vertex 51.2644174671415 14.9 0.6
   vertex 45.70859811596424 12.6 0
   vertex 0.0009203676207459473 14.9 0.6
  endloop
 endfacet
 facet normal 0.1784181531658903 -0.17856028892271933 -0.9676172723968438
  outer loop
   vertex 33.099561197811504 0.001 0
   vertex 45.70859811596424 12.6 0
   vertex 51.2644174671415 14.9 0.6
  endloop
 endfacet
 facet normal 0.17841815316588985 -0.17856028892271877 -0.9676172723968441
  outer loop
   vertex 36.35354826771634 0.001 0.6
   vertex 33.099561197811504 0.001 0
   vertex 51.2644174671415 14.9 0.6
  endloop
 endfacet
 facet normal 0.0 -1.0 0.0
  outer loop
   vertex -0.0109441078043164 0.001 0
   vertex 33.099561197811504 0.001 0
   vertex 36.35354826771634 0.001 0.6
  endloop
 endfacet
 facet normal 0.0 -1.0 0.0
  outer loop
   vertex -0.0109441078043164 0.001 0.6
   vertex -0.0109441078043164 0.001 0
   vertex 36.35354826771634 0.001 0.6
  endloop
 endfacet
 facet normal -0.9999996829318347 0.0007963267107332632 0.0
  outer loop
   vertex -0.0009111843946673962 12.6 0
   vertex -0.0109441078043164 0.001 0
   vertex -0.0109441078043164 0.001 0.6
  endloop
 endfacet
 facet normal -0.9999996829318345 0.0007963267107332632 -3.881072389536696e-19
  outer loop
   vertex 0.0009203676207459473 14.9 0.6
   vertex -0.0009111843946673962 12.6 0
   vertex -0.0109441078043164 0.001 0.6
  endloop
 endfacet
 facet normal -0.0 0.0 1.0
  outer loop
   vertex 0.0009203676207459473 14.9 0.6
   vertex 36.35354826771634 0.001 0.6
   vertex 51.2644174671415 14.9 0.6
  endloop
 endfacet
 facet normal 0.0 0.0 1.0
  outer loop
   vertex 0.0009203676207459473 14.9 0.6
   vertex -0.0109441078043164 0.001 0.6
   vertex 36.35354826771634 0.001 0.6
  endloop
 endfacet
 facet normal 0.0 0.0 -1.0
  outer loop
   vertex 0.0009203676207459473 14.9 0.99
   vertex 51.2644174671415 14.9 0.99
   vertex 36.35354826771634 0.001 0.99
  endloop
 endfacet
 facet normal 0.0 -0.0 -1.0
  outer loop
   vertex 0.0009203676207459473 14.9 0.99
   vertex 36.35354826771634 0.001 0.99
   vertex -0.0109441078043164 0.001 0.99
  endloop
 endfacet
 facet normal 0.0 0.25242189714700264 0.9676172723968439
  outer loop
   vertex 51.2644174671415 14.9 0.99
   vertex 0.0009203676207459473 14.9 0.99
   vertex -0.0009111843946673962 12.6 1.5899999999999999
  endloop
 endfacet
 facet normal 0.0 0.25242189714700264 0.9676172723968439
  outer loop
   vertex 45.70859811596424 12.6 1.5899999999999999
   vertex 51.2644174671415 14.9 0.99
   vertex -0.0009111843946673962 12.6 1.5899999999999999
  endloop
 endfacet
 facet normal 0.17841815316589024 -0.17856028892271913 0.9676172723968439
  outer loop
   vertex 36.35354826771634 0.001 0.99
   vertex 51.2644174671415 14.9 0.99
   vertex 45.70859811596424 12.6 1.5899999999999999
  endloop
 endfacet
 facet normal 0.17841815316588977 -0.17856028892271883 0.967617272396844
  outer loop
   vertex 33.099561197811504 0.001 1.5899999999999999
   vertex 36.35354826771634 0.001 0.99
   vertex 45.70859811596424 12.6 1.5899999999999999
  endloop
 endfacet
 facet normal 0.0 -1.0 0.0
  outer loop
   vertex -0.0109441078043164 0.001 0.99
   vertex 36.35354826771634 0.001 0.99
   vertex 33.099561197811504 0.001 1.5899999999999999
  endloop
 endfacet
 facet normal 0.0 -1.0 0.0
  outer loop
   vertex -0.0109441078043164 0.001 1.5899999999999999
   vertex -0.0109441078043164 0.001 0.99
   vertex 33.099561197811504 0.001 1.5899999999999999
  endloop
 endfacet
 facet normal -0.9999996829318345 0.0007963267107332632 0.0
  outer loop
   vertex 0.0009203676207459473 14.9 0.99
   vertex -0.0109441078043164 0.001 0.99
   vertex -0.0109441078043164 0.001 1.5899999999999999
  endloop
 endfacet
 facet normal -0.9999996829318347 0.0007963267107332633 0.0
  outer loop
   vertex -0.0009111843946673962 12.6 1.5899999999999999
   vertex 0.0009203676207459473 14.9 0.99
   vertex -0.0109441078043164 0.001 1.5899999999999999
  endloop
 endfacet
 facet normal -0.0 0.0 1.0
  outer loop
   vertex -0.0009111843946673962 12.6 1.5899999999999999
   vertex 33.099561197811504 0.001 1.5899999999999999
   vertex 45.70859811596424 12.6 1.5899999999999999
  endloop
 endfacet
 facet normal 0.0 0.0 1.0
  outer loop
   vertex -0.0009111843946673962 12.6 1.5899999999999999
   vertex -0.0109441078043164 0.001 1.5899999999999999
   vertex 33.099561197811504 0.001 1.5899999999999999
  endloop
 endfacet
 facet normal 0.0 0.0 -1.0
  outer loop
   vertex 45.70859811596426 17.4 0
   vertex -0.0009111843946673948 17.4 0
   vertex -0.010944107804316398 29.999000000000002 0
  endloop
 endfacet
 facet normal 0.0 0.0 -1.0
  outer loop
   vertex 45.70859811596426 17.4 0
   vertex -0.010944107804316398 29.999000000000002 0
   vertex 33.099561197811525 29.999 0
  endloop
 endfacet
 facet normal 0.0 -0.2524218971470028 -0.9676172723968438
  outer loop
   vertex -0.0009111843946673948 17.4 0
   vertex 45.70859811596426 17.4 0
   vertex 51.264417467141506 15.1 0.6
  endloop
 endfacet
 facet normal 0.0 -0.25242189714700286 -0.9676172723968438
  outer loop
   vertex 0.0009203676207459473 15.1 0.6
   vertex -0.0009111843946673948 17.4 0
   vertex 51.264417467141506 15.1 0.6
  endloop
 endfacet
 facet normal -0.9999996829318346 -0.000796326710733263 0.0
  outer loop
   vertex -0.010944107804316398 29.999000000000002 0
   vertex -0.0009111843946673948 17.4 0
   vertex 0.0009203676207459473 15.1 0.6
  endloop
 endfacet
 facet normal -0.9999996829318345 -0.0007963267107332631 -0.0
  outer loop
   vertex -0.010944107804316398 29.999000000000002 0.6
   vertex -0.010944107804316398 29.999000000000002 0
   vertex 0.0009203676207459473 15.1 0.6
  endloop
 endfacet
 facet normal 1.072986849946361e-16 1.0 0.0
  outer loop
   vertex 33.099561197811525 29.999 0
   vertex -0.010944107804316398 29.999000000000002 0
   vertex -0.010944107804316398 29.999000000000002 0.6
  endloop
 endfacet
 facet normal 9.769732634002244e-17 1.0 -5.298430611245095e-16
  outer loop
   vertex 36.353548267716356 29.999 0.6
   vertex 33.099561197811525 29.999 0
   vertex -0.010944107804316398 29.999000000000002 0.6
  endloop
 endfacet
 facet normal 0.17841815316589021 0.17856028892271913 -0.9676172723968439
  outer loop
   vertex 45.70859811596426 17.4 0
   vertex 33.099561197811525 29.999 0
   vertex 36.353548267716356 29.999 0.6
  endloop
 endfacet
 facet normal 0.17841815316589044 0.17856028892271927 -0.9676172723968437
  outer loop
   vertex 51.264417467141506 15.1 0.6
   vertex 45.70859811596426 17.4 0
   vertex 36.353548267716356 29.999 0.6
  endloop
 endfacet
 facet normal 0.0 0.0 1.0
  outer loop
   vertex 51.264417467141506 15.1 0.6
   vertex -0.010944107804316398 29.999000000000002 0.6
   vertex 0.0009203676207459473 15.1 0.6
  endloop
 endfacet
 facet normal 0.0 0.0 1.0
  outer loop
   vertex 51.264417467141506 15.1 0.6
   vertex 36.353548267716356 29.999 0.6
   vertex -0.010944107804316398 29.999000000000002 0.6
  endloop
 endfacet
 facet normal 0.0 0.0 -1.0
  outer loop
   vertex 51.264417467141506 15.1 0.99
   vertex 0.0009203676207459473 15.1 0.99
   vertex -0.010944107804316398 29.999000000000002 0.99
  endloop
 endfacet
 facet normal 0.0 0.0 -1.0
  outer loop
   vertex 51.264417467141506 15.1 0.99
   vertex -0.010944107804316398 29.999000000000002 0.99
   vertex 36.353548267716356 29.999 0.99
  endloop
 endfacet
 facet normal 0.0 -0.2524218971470028 0.9676172723968438
  outer loop
   vertex 0.0009203676207459473 15.1 0.99
   vertex 51.264417467141506 15.1 0.99
   vertex 45.70859811596426 17.4 1.5899999999999999
  endloop
 endfacet
 facet normal 0.0 -0.25242189714700275 0.9676172723968438
  outer loop
   vertex -0.0009111843946673948 17.4 1.5899999999999999
   vertex 0.0009203676207459473 15.1 0.99
   vertex 45.70859811596426 17.4 1.5899999999999999
  endloop
 endfacet
 facet normal -0.9999996829318345 -0.0007963267107332631 0.0
  outer loop
   vertex -0.010944107804316398 29.999000000000002 0.99
   vertex 0.0009203676207459473 15.1 0.99
   vertex -0.0009111843946673948 17.4 1.5899999999999999
  endloop
 endfacet
 facet normal -0.9999996829318347 -0.000796326710733263 -0.0
  outer loop
   vertex -0.010944107804316398 29.999000000000002 1.5899999999999999
   vertex -0.010944107804316398 29.999000000000002 0.99
   vertex -0.0009111843946673948 17.4 1.5899999999999999
  endloop
 endfacet
 facet normal 9.769732634002246e-17 1.0 0.0
  outer loop
   vertex 36.353548267716356 29.999 0.99
   vertex -0.010944107804316398 29.999000000000002 0.99
   vertex -0.010944107804316398 29.999000000000002 1.5899999999999999
  endloop
 endfacet
 facet normal 1.072986849946361e-16 1.0 5.819142226505623e-16
  outer loop
   vertex 33.099561197811525 29.999 1.5899999999999999
   vertex 36.353548267716356 29.999 0.99
   vertex -0.010944107804316398 29.999000000000002 1.5899999999999999
  endloop
 endfacet
 facet normal 0.1784181531658902 0.17856028892271905 0.9676172723968439
  outer loop
   vertex 51.264417467141506 15.1 0.99
   vertex 36.353548267716356 29.999 0.99
   vertex 33.099561197811525 29.999 1.5899999999999999
  endloop
 endfacet
 facet normal 0.17841815316589046 0.1785602889227194 0.9676172723968439
  outer loop
   vertex 45.70859811596426 17.4 1.5899999999999999
   vertex 51.264417467141506 15.1 0.99
   vertex 33.099561197811525 29.999 1.5899999999999999
  endloop
 endfacet
 facet normal 0.0 0.0 1.0
  outer loop
   vertex 45.70859811596426 17.4 1.5899999999999999
   vertex -0.010944107804316398 29.999000000000002 1.5899999999999999
   vertex -0.0009111843946673948 17.4 1.5899999999999999
  endloop
 endfacet
 facet normal 0.0 0.0 1.0
  outer loop
   vertex 45.70859811596426 17.4 1.5899999999999999
   vertex 33.099561197811525 29.999 1.5899999999999999
   vertex -0.010944107804316398 29.999000000000002 1.5899999999999999
  endloop
 endfacet
 facet normal 0.0 -0.0 -1.0
  outer loop
   vertex 52.49952765315693 12.599999999999993 0
   vertex 64.70659309600855 12.599999999999993 0
   vertex 48.27710557865688 0.001 0
  endloop
 endfacet
 facet normal 0.0 0.0 -1.0
  outer loop
   vertex 52.49952765315693 12.599999999999993 0
   vertex 48.27710557865688 0.001 0
   vertex 39.8904907350042 0.001 0
  endloop
 endfacet
 facet normal 0.0 0.25242189714700264 -0.9676172723968439
  outer loop
   vertex 64.70659309600855 12.599999999999993 0
   vertex 52.49952765315693 12.599999999999993 0
   vertex 51.54737286452452 14.899999999999993 0.6
  endloop
 endfacet
 facet normal 0.0 0.2524218971470027 -0.9676172723968439
  outer loop
   vertex 71.48549806585105 14.899999999999993 0.6
   vertex 64.70659309600855 12.599999999999993 0
   vertex 51.54737286452452 14.899999999999993 0.6
  endloop
 endfacet
 facet normal 0.15360493654805413 -0.20030561057384327 -0.967617272396844
  outer loop
   vertex 48.27710557865688 0.001 0
   vertex 64.70659309600855 12.599999999999993 0
   vertex 71.48549806585105 14.899999999999993 0.6
  endloop
 endfacet
 facet normal 0.15360493654805432 -0.2003056105738436 -0.9676172723968438
  outer loop
   vertex 52.05673907537382 0.001 0.6
   vertex 48.27710557865688 0.001 0
   vertex 71.48549806585105 14.899999999999993 0.6
  endloop
 endfacet
 facet normal 0.0 -1.0 0.0
  outer loop
   vertex 39.8904907350042 0.001 0
   vertex 48.27710557865688 0.001 0
   vertex 52.05673907537382 0.001 0.6
  endloop
 endfacet
 facet normal 0.0 -1.0 0.0
  outer loop
   vertex 36.63650366509937 0.001 0.6
   vertex 39.8904907350042 0.001 0
   vertex 52.05673907537382 0.001 0.6
  endloop
 endfacet
 facet normal -0.17841815316589024 0.17856028892271925 -0.9676172723968439
  outer loop
   vertex 52.49952765315693 12.599999999999993 0
   vertex 39.8904907350042 0.001 0
   vertex 36.63650366509937 0.001 0.6
  endloop
 endfacet
 facet normal -0.17841815316588977 0.1785602889227187 -0.967617272396844
  outer loop
   vertex 51.54737286452452 14.899999999999993 0.6
   vertex 52.49952765315693 12.599999999999993 0
   vertex 36.63650366509937 0.001 0.6
  endloop
 endfacet
 facet normal -0.0 0.0 1.0
  outer loop
   vertex 51.54737286452452 14.899999999999993 0.6
   vertex 52.05673907537382 0.001 0.6
   vertex 71.48549806585105 14.899999999999993 0.6
  endloop
 endfacet
 facet normal 0.0 0.0 1.0
  outer loop
   vertex 51.54737286452452 14.899999999999993 0.6
   vertex 36.63650366509937 0.001 0.6
   vertex 52.05673907537382 0.001 0.6
  endloop
 endfacet
 facet normal 0.0 0.0 -1.0
  outer loop
   vertex 51.54737286452452 14.899999999999993 0.99
   vertex 71.48549806585105 14.899999999999993 0.99
   vertex 52.05673907537382 0.001 0.99
  endloop
 endfacet
 facet normal 0.0 -0.0 -1.0
  outer loop
   vertex 51.54737286452452 14.899999999999993 0.99
   vertex 52.05673907537382 0.001 0.99
   vertex 36.63650366509937 0.001 0.99
  endloop
 endfacet
 facet normal 0.0 0.25242189714700264 0.9676172723968439
  outer loop
   vertex 71.48549806585105 14.899999999999993 0.99
   vertex 51.54737286452452 14.899999999999993 0.99
   vertex 52.49952765315693 12.599999999999993 1.5899999999999999
  endloop
 endfacet
 facet normal 0.0 0.25242189714700264 0.9676172723968439
  outer loop
   vertex 64.70659309600855 12.599999999999993 1.5899999999999999
   vertex 71.48549806585105 14.899999999999993 0.99
   vertex 52.49952765315693 12.599999999999993 1.5899999999999999
  endloop
 endfacet
 facet normal 0.15360493654805407 -0.2003056105738433 0.9676172723968439
  outer loop
   vertex 52.05673907537382 0.001 0.99
   vertex 71.48549806585105 14.899999999999993 0.99
   vertex 64.70659309600855 12.599999999999993 1.5899999999999999
  endloop
 endfacet
 facet normal 0.1536049365480543 -0.20030561057384352 0.9676172723968439
  outer loop
   vertex 48.27710557865688 0.001 1.5899999999999999
   vertex 52.05673907537382 0.001 0.99
   vertex 64.70659309600855 12.599999999999993 1.5899999999999999
  endloop
 endfacet
 facet normal 0.0 -1.0 0.0
  outer loop
   vertex 36.63650366509937 0.001 0.99
   vertex 52.05673907537382 0.001 0.99
   vertex 48.27710557865688 0.001 1.5899999999999999
  endloop
 endfacet
 facet normal 0.0 -1.0 -0.0
  outer loop
   vertex 39.8904907350042 0.001 1.5899999999999999
   vertex 36.63650366509937 0.001 0.99
   vertex 48.27710557865688 0.001 1.5899999999999999
  endloop
 endfacet
 facet normal -0.17841815316589021 0.17856028892271913 0.9676172723968439
  outer loop
   vertex 51.54737286452452 14.899999999999993 0.99
   vertex 36.63650366509937 0.001 0.99
   vertex 39.8904907350042 0.001 1.5899999999999999
  endloop
 endfacet
 facet normal -0.1784181531658897 0.17856028892271872 0.967617272396844
  outer loop
   vertex 52.49952765315693 12.599999999999993 1.5899999999999999
   vertex 51.54737286452452 14.899999999999993 0.99
   vertex 39.8904907350042 0.001 1.5899999999999999
  endloop
 endfacet
 facet normal -0.0 0.0 1.0
  outer loop
   vertex 52.49952765315693 12.599999999999993 1.5899999999999999
   vertex 48.27710557865688 0.001 1.5899999999999999
   vertex 64.70659309600855 12.599999999999993 1.5899999999999999
  endloop
 endfacet
 facet normal 0.0 0.0 1.0
  outer loop
   vertex 52.49952765315693 12.599999999999993 1.5899999999999999
   vertex 39.8904907350042 0.001 1.5899999999999999
   vertex 48.27710557865688 0.001 1.5899999999999999
  endloop
 endfacet
 facet normal 0.0 0.0 -1.0
  outer loop
   vertex 64.70659309600855 17.39999999999999 0
   vertex 52.49952765315696 17.39999999999999 0
   vertex 39.89049073500421 29.999000000000006 0
  endloop
 endfacet
 facet normal 0.0 0.0 -1.0
  outer loop
   vertex 64.70659309600855 17.39999999999999 0
   vertex 39.89049073500421 29.999000000000006 0
   vertex 48.27710557865685 29.99900000000001 0
  endloop
 endfacet
 facet normal 0.0 -0.2524218971470028 -0.9676172723968438
  outer loop
   vertex 52.49952765315696 17.39999999999999 0
   vertex 64.70659309600855 17.39999999999999 0
   vertex 71.48549806585105 15.099999999999993 0.6
  endloop
 endfacet
 facet normal 0.0 -0.2524218971470028 -0.9676172723968439
  outer loop
   vertex 51.547372864524554 15.099999999999993 0.6
   vertex 52.49952765315696 17.39999999999999 0
   vertex 71.48549806585105 15.099999999999993 0.6
  endloop
 endfacet
 facet normal -0.17841815316589013 -0.17856028892271916 -0.9676172723968438
  outer loop
   vertex 39.89049073500421 29.999000000000006 0
   vertex 52.49952765315696 17.39999999999999 0
   vertex 51.547372864524554 15.099999999999993 0.6
  endloop
 endfacet
 facet normal -0.17841815316589058 -0.1785602889227195 -0.9676172723968439
  outer loop
   vertex 36.63650366509938 29.999000000000006 0.6
   vertex 39.89049073500421 29.999000000000006 0
   vertex 51.547372864524554 15.099999999999993 0.6
  endloop
 endfacet
 facet normal -4.236171262221907e-16 1.0 -2.297407752195414e-15
  outer loop
   vertex 48.27710557865685 29.99900000000001 0
   vertex 39.89049073500421 29.999000000000006 0
   vertex 36.63650366509938 29.999000000000006 0.6
  endloop
 endfacet
 facet normal -2.303929599176772e-16 1.0 1.451334914521032e-15
  outer loop
   vertex 52.056739075373805 29.99900000000001 0.6
   vertex 48.27710557865685 29.99900000000001 0
   vertex 36.63650366509938 29.999000000000006 0.6
  endloop
 endfacet
 facet normal 0.1536049365480538 0.2003056105738428 -0.9676172723968441
  outer loop
   vertex 64.70659309600855 17.39999999999999 0
   vertex 48.27710557865685 29.99900000000001 0
   vertex 52.056739075373805 29.99900000000001 0.6
  endloop
 endfacet
 facet normal 0.153604936548054 0.20030561057384302 -0.967617272396844
  outer loop
   vertex 71.48549806585105 15.099999999999993 0.6
   vertex 64.70659309600855 17.39999999999999 0
   vertex 52.056739075373805 29.99900000000001 0.6
  endloop
 endfacet
 facet normal 0.0 0.0 1.0
  outer loop
   vertex 71.48549806585105 15.099999999999993 0.6
   vertex 36.63650366509938 29.999000000000006 0.6
   vertex 51.547372864524554 15.099999999999993 0.6
  endloop
 endfacet
 facet normal 0.0 0.0 1.0
  outer loop
   vertex 71.48549806585105 15.099999999999993 0.6
   vertex 52.056739075373805 29.99900000000001 0.6
   vertex 36.63650366509938 29.999000000000006 0.6
  endloop
 endfacet
 facet normal 0.0 0.0 -1.0
  outer loop
   vertex 71.48549806585105 15.099999999999993 0.99
   vertex 51.547372864524554 15.099999999999993 0.99
   vertex 36.63650366509938 29.999000000000006 0.99
  endloop
 endfacet
 facet normal 0.0 0.0 -1.0
  outer loop
   vertex 71.48549806585105 15.099999999999993 0.99
   vertex 36.63650366509938 29.999000000000006 0.99
   vertex 52.056739075373805 29.99900000000001 0.99
  endloop
 endfacet
 facet normal 0.0 -0.2524218971470028 0.9676172723968439
  outer loop
   vertex 51.547372864524554 15.099999999999993 0.99
   vertex 71.48549806585105 15.099999999999993 0.99
   vertex 64.70659309600855 17.39999999999999 1.5899999999999999
  endloop
 endfacet
 facet normal 0.0 -0.2524218971470028 0.9676172723968438
  outer loop
   vertex 52.49952765315696 17.39999999999999 1.5899999999999999
   vertex 51.547372864524554 15.099999999999993 0.99
   vertex 64.70659309600855 17.39999999999999 1.5899999999999999
  endloop
 endfacet
 facet normal -0.17841815316589016 -0.17856028892271908 0.9676172723968439
  outer loop
   vertex 36.63650366509938 29.999000000000006 0.99
   vertex 51.547372864524554 15.099999999999993 0.99
   vertex 52.49952765315696 17.39999999999999 1.5899999999999999
  endloop
 endfacet
 facet normal -0.17841815316589052 -0.17856028892271955 0.9676172723968437
  outer loop
   vertex 39.89049073500421 29.999000000000006 1.5899999999999999
   vertex 36.63650366509938 29.999000000000006 0.99
   vertex 52.49952765315696 17.39999999999999 1.5899999999999999
  endloop
 endfacet
 facet normal -2.303929599176772e-16 1.0 1.2494928542820366e-15
  outer loop
   vertex 52.056739075373805 29.99900000000001 0.99
   vertex 36.63650366509938 29.999000000000006 0.99
   vertex 39.89049073500421 29.999000000000006 1.5899999999999999
  endloop
 endfacet
 facet normal -4.236171262221907e-16 1.0 -2.668529133420611e-15
  outer loop
   vertex 48.27710557865685 29.99900000000001 1.5899999999999999
   vertex 52.056739075373805 29.99900000000001 0.99
   vertex 39.89049073500421 29.999000000000006 1.5899999999999999
  endloop
 endfacet
 facet normal 0.15360493654805374 0.20030561057384266 0.9676172723968441
  outer loop
   vertex 71.48549806585105 15.099999999999993 0.99
   vertex 52.056739075373805 29.99900000000001 0.99
   vertex 48.27710557865685 29.99900000000001 1.5899999999999999
  endloop
 endfacet
 facet normal 0.153604936548054 0.20030561057384305 0.9676172723968439
  outer loop
   vertex 64.70659309600855 17.39999999999999 1.5899999999999999
   vertex 71.48549806585105 15.099999999999993 0.99
   vertex 48.27710557865685 29.99900000000001 1.5899999999999999
  endloop
 endfacet
 facet normal 0.0 0.0 1.0
  outer loop
   vertex 64.70659309600855 17.39999999999999 1.5899999999999999
   vertex 39.89049073500421 29.999000000000006 1.5899999999999999
   vertex 52.49952765315696 17.39999999999999 1.5899999999999999
  endloop
 endfacet
 facet normal 0.0 0.0 1.0
  outer loop
   vertex 64.70659309600855 17.39999999999999 1.5899999999999999
   vertex 48.27710557865685 29.99900000000001 1.5899999999999999
   vertex 39.89049073500421 29.999000000000006 1.5899999999999999
  endloop
 endfacet
 facet normal 0.0 0.0 -1.0
  outer loop
   vertex 72.59452387176569 12.600000000000021 0
   vertex 80.45736742072603 12.600000000000021 0
   vertex 96.88345302545903 0.001 0
  endloop
 endfacet
 facet normal 0.0 -0.0 -1.0
  outer loop
   vertex 72.59452387176569 12.600000000000021 0
   vertex 96.88345302545903 0.001 0
   vertex 56.16503635441398 0.001 0
  endloop
 endfacet
 facet normal 0.0 0.25242189714700264 -0.9676172723968439
  outer loop
   vertex 80.45736742072603 12.600000000000021 0
   vertex 72.59452387176569 12.600000000000021 0
   vertex 71.8141618481743 14.900000000000022 0.6
  endloop
 endfacet
 facet normal 0.0 0.25242189714700264 -0.9676172723968439
  outer loop
   vertex 81.23785768486017 14.900000000000022 0.6
   vertex 80.45736742072603 12.600000000000021 0
   vertex 71.8141618481743 14.900000000000022 0.6
  endloop
 endfacet
 facet normal 0.15362496634105352 0.2002902490786862 -0.9676172723968439
  outer loop
   vertex 96.88345302545903 0.001 0
   vertex 80.45736742072603 12.600000000000021 0
   vertex 81.23785768486017 14.900000000000022 0.6
  endloop
 endfacet
 facet normal 0.153624966341054 0.20029024907868664 -0.9676172723968437
  outer loop
   vertex 100.66259372938092 0.001 0.6
   vertex 96.88345302545903 0.001 0
   vertex 81.23785768486017 14.900000000000022 0.6
  endloop
 endfacet
 facet normal 0.0 -1.0 0.0
  outer loop
   vertex 56.16503635441398 0.001 0
   vertex 96.88345302545903 0.001 0
   vertex 100.66259372938092 0.001 0.6
  endloop
 endfacet
 facet normal 0.0 -1.0 0.0
  outer loop
   vertex 52.38540285769704 0.001 0.6
   vertex 56.16503635441398 0.001 0
   vertex 100.66259372938092 0.001 0.6
  endloop
 endfacet
 facet normal -0.15360493654805435 0.20030561057384363 -0.9676172723968439
  outer loop
   vertex 72.59452387176569 12.600000000000021 0
   vertex 56.16503635441398 0.001 0
   vertex 52.38540285769704 0.001 0.6
  endloop
 endfacet
 facet normal -0.15360493654805402 0.20030561057384313 -0.967617272396844
  outer loop
   vertex 71.8141618481743 14.900000000000022 0.6
   vertex 72.59452387176569 12.600000000000021 0
   vertex 52.38540285769704 0.001 0.6
  endloop
 endfacet
 facet normal -0.0 0.0 1.0
  outer loop
   vertex 71.8141618481743 14.900000000000022 0.6
   vertex 100.66259372938092 0.001 0.6
   vertex 81.23785768486017 14.900000000000022 0.6
  endloop
 endfacet
 facet normal 0.0 0.0 1.0
  outer loop
   vertex 71.8141618481743 14.900000000000022 0.6
   vertex 52.38540285769704 0.001 0.6
   vertex 100.66259372938092 0.001 0.6
  endloop
 endfacet
 facet normal 0.0 0.0 -1.0
  outer loop
   vertex 71.8141618481743 14.900000000000022 0.99
   vertex 81.23785768486017 14.900000000000022 0.99
   vertex 100.66259372938092 0.001 0.99
  endloop
 endfacet
 facet normal 0.0 -0.0 -1.0
  outer loop
   vertex 71.8141618481743 14.900000000000022 0.99
   vertex 100.66259372938092 0.001 0.99
   vertex 52.38540285769704 0.001 0.99
  endloop
 endfacet
 facet normal 0.0 0.25242189714700264 0.9676172723968439
  outer loop
   vertex 81.23785768486017 14.900000000000022 0.99
   vertex 71.8141618481743 14.900000000000022 0.99
   vertex 72.59452387176569 12.600000000000021 1.5899999999999999
  endloop
 endfacet
 facet normal 0.0 0.2524218971470026 0.9676172723968439
  outer loop
   vertex 80.45736742072603 12.600000000000021 1.5899999999999999
   vertex 81.23785768486017 14.900000000000022 0.99
   vertex 72.59452387176569 12.600000000000021 1.5899999999999999
  endloop
 endfacet
 facet normal 0.1536249663410537 0.20029024907868628 0.9676172723968439
  outer loop
   vertex 100.66259372938092 0.001 0.99
   vertex 81.23785768486017 14.900000000000022 0.99
   vertex 80.45736742072603 12.600000000000021 1.5899999999999999
  endloop
 endfacet
 facet normal 0.15362496634105394 0.20029024907868676 0.9676172723968437
  outer loop
   vertex 96.88345302545903 0.001 1.5899999999999999
   vertex 100.66259372938092 0.001 0.99
   vertex 80.45736742072603 12.600000000000021 1.5899999999999999
  endloop
 endfacet
 facet normal 0.0 -1.0 0.0
  outer loop
   vertex 52.38540285769704 0.001 0.99
   vertex 100.66259372938092 0.001 0.99
   vertex 96.88345302545903 0.001 1.5899999999999999
  endloop
 endfacet
 facet normal 0.0 -1.0 -0.0
  outer loop
   vertex 56.16503635441398 0.001 1.5899999999999999
   vertex 52.38540285769704 0.001 0.99
   vertex 96.88345302545903 0.001 1.5899999999999999
  endloop
 endfacet
 facet normal -0.15360493654805424 0.20030561057384338 0.967617272396844
  outer loop
   vertex 71.8141618481743 14.900000000000022 0.99
   vertex 52.38540285769704 0.001 0.99
   vertex 56.16503635441398 0.001 1.5899999999999999
  endloop
 endfacet
 facet normal -0.15360493654805393 0.20030561057384308 0.9676172723968441
  outer loop
   vertex 72.59452387176569 12.600000000000021 1.5899999999999999
   vertex 71.8141618481743 14.900000000000022 0.99
   vertex 56.16503635441398 0.001 1.5899999999999999
  endloop
 endfacet
 facet normal -0.0 0.0 1.0
  outer loop
   vertex 72.59452387176569 12.600000000000021 1.5899999999999999
   vertex 96.88345302545903 0.001 1.5899999999999999
   vertex 80.45736742072603 12.600000000000021 1.5899999999999999
  endloop
 endfacet
 facet normal 0.0 0.0 1.0
  outer loop
   vertex 72.59452387176569 12.600000000000021 1.5899999999999999
   vertex 56.16503635441398 0.001 1.5899999999999999
   vertex 96.88345302545903 0.001 1.5899999999999999
  endloop
 endfacet
 facet normal 0.0 0.0 -1.0
  outer loop
   vertex 80.4573674207261 17.40000000000002 0
   vertex 72.59452387176562 17.40000000000002 0
   vertex 56.16503635441397 29.999 0
  endloop
 endfacet
 facet normal 0.0 0.0 -1.0
  outer loop
   vertex 80.4573674207261 17.40000000000002 0
   vertex 56.16503635441397 29.999 0
   vertex 96.88345302545905 29.999 0
  endloop
 endfacet
 facet normal 0.0 -0.25242189714700264 -0.9676172723968439
  outer loop
   vertex 72.59452387176562 17.40000000000002 0
   vertex 80.4573674207261 17.40000000000002 0
   vertex 81.23785768486024 15.10000000000002 0.6
  endloop
 endfacet
 facet normal -4.758126441919929e-17 -0.25242189714700286 -0.9676172723968439
  outer loop
   vertex 71.81416184817422 15.100000000000021 0.6
   vertex 72.59452387176562 17.40000000000002 0
   vertex 81.23785768486024 15.10000000000002 0.6
  endloop
 endfacet
 facet normal -0.1536049365480541 -0.20030561057384322 -0.9676172723968439
  outer loop
   vertex 56.16503635441397 29.999 0
   vertex 72.59452387176562 17.40000000000002 0
   vertex 71.81416184817422 15.100000000000021 0.6
  endloop
 endfacet
 facet normal -0.15360493654805404 -0.20030561057384316 -0.9676172723968439
  outer loop
   vertex 52.385402857697024 29.999 0.6
   vertex 56.16503635441397 29.999 0
   vertex 71.81416184817422 15.100000000000021 0.6
  endloop
 endfacet
 facet normal 0.0 1.0 0.0
  outer loop
   vertex 96.88345302545905 29.999 0
   vertex 56.16503635441397 29.999 0
   vertex 52.385402857697024 29.999 0.6
  endloop
 endfacet
 facet normal 0.0 1.0 0.0
  outer loop
   vertex 100.66259372938093 29.999 0.6
   vertex 96.88345302545905 29.999 0
   vertex 52.385402857697024 29.999 0.6
  endloop
 endfacet
 facet normal 0.15362496634105388 -0.20029024907868664 -0.9676172723968437
  outer loop
   vertex 80.4573674207261 17.40000000000002 0
   vertex 96.88345302545905 29.999 0
   vertex 100.66259372938093 29.999 0.6
  endloop
 endfacet
 facet normal 0.1536249663410536 -0.2002902490786862 -0.9676172723968439
  outer loop
   vertex 81.23785768486024 15.10000000000002 0.6
   vertex 80.4573674207261 17.40000000000002 0
   vertex 100.66259372938093 29.999 0.6
  endloop
 endfacet
 facet normal 0.0 0.0 1.0
  outer loop
   vertex 81.23785768486024 15.10000000000002 0.6
   vertex 52.385402857697024 29.999 0.6
   vertex 71.81416184817422 15.100000000000021 0.6
  endloop
 endfacet
 facet normal 0.0 -0.0 1.0
  outer loop
   vertex 81.23785768486024 15.10000000000002 0.6
   vertex 100.66259372938093 29.999 0.6
   vertex 52.385402857697024 29.999 0.6
  endloop
 endfacet
 facet normal 0.0 0.0 -1.0
  outer loop
   vertex 81.23785768486024 15.10000000000002 0.99
   vertex 71.81416184817422 15.100000000000021 0.99
   vertex 52.385402857697024 29.999 0.99
  endloop
 endfacet
 facet normal 0.0 0.0 -1.0
  outer loop
   vertex 81.23785768486024 15.10000000000002 0.99
   vertex 52.385402857697024 29.999 0.99
   vertex 100.66259372938093 29.999 0.99
  endloop
 endfacet
 facet normal -4.7581264419199255e-17 -0.2524218971470027 0.9676172723968439
  outer loop
   vertex 71.81416184817422 15.100000000000021 0.99
   vertex 81.23785768486024 15.10000000000002 0.99
   vertex 80.4573674207261 17.40000000000002 1.5899999999999999
  endloop
 endfacet
 facet normal 0.0 -0.2524218971470028 0.9676172723968439
  outer loop
   vertex 72.59452387176562 17.40000000000002 1.5899999999999999
   vertex 71.81416184817422 15.100000000000021 0.99
   vertex 80.4573674207261 17.40000000000002 1.5899999999999999
  endloop
 endfacet
 facet normal -0.15360493654805402 -0.2003056105738431 0.967617272396844
  outer loop
   vertex 52.385402857697024 29.999 0.99
   vertex 71.81416184817422 15.100000000000021 0.99
   vertex 72.59452387176562 17.40000000000002 1.5899999999999999
  endloop
 endfacet
 facet normal -0.15360493654805402 -0.2003056105738431 0.9676172723968439
  outer loop
   vertex 56.16503635441397 29.999 1.5899999999999999
   vertex 52.385402857697024 29.999 0.99
   vertex 72.59452387176562 17.40000000000002 1.5899999999999999
  endloop
 endfacet
 facet normal 0.0 1.0 0.0
  outer loop
   vertex 100.66259372938093 29.999 0.99
   vertex 52.385402857697024 29.999 0.99
   vertex 56.16503635441397 29.999 1.5899999999999999
  endloop
 endfacet
 facet normal 0.0 1.0 0.0
  outer loop
   vertex 96.88345302545905 29.999 1.5899999999999999
   vertex 100.66259372938093 29.999 0.99
   vertex 56.16503635441397 29.999 1.5899999999999999
  endloop
 endfacet
 facet normal 0.1536249663410539 -0.2002902490786866 0.9676172723968437
  outer loop
   vertex 81.23785768486024 15.10000000000002 0.99
   vertex 100.66259372938093 29.999 0.99
   vertex 96.88345302545905 29.999 1.5899999999999999
  endloop
 endfacet
 facet normal 0.15362496634105355 -0.20029024907868617 0.9676172723968439
  outer loop
   vertex 80.4573674207261 17.40000000000002 1.5899999999999999
   vertex 81.23785768486024 15.10000000000002 0.99
   vertex 96.88345302545905 29.999 1.5899999999999999
  endloop
 endfacet
 facet normal 0.0 0.0 1.0
  outer loop
   vertex 80.4573674207261 17.40000000000002 1.5899999999999999
   vertex 56.16503635441397 29.999 1.5899999999999999
   vertex 72.59452387176562 17.40000000000002 1.5899999999999999
  endloop
 endfacet
 facet normal 0.0 -0.0 1.0
  outer loop
   vertex 80.4573674207261 17.40000000000002 1.5899999999999999
   vertex 96.88345302545905 29.999 1.5899999999999999
   vertex 56.16503635441397 29.999 1.5899999999999999
  endloop
 endfacet
 facet normal 0.0 0.0 -1.0
  outer loop
   vertex 88.34426975934566 12.599999999999994 0
   vertex 100.5538729646617 12.599999999999996 0
   vertex 113.15660693921627 0.001 0
  endloop
 endfacet
 facet normal 0.0 0.0 -1.0
  outer loop
   vertex 88.34426975934566 12.599999999999994 0
   vertex 113.15660693921627 0.001 0
   vertex 104.77035536407863 0.001 0
  endloop
 endfacet
 facet normal -3.672448284119793e-17 0.25242189714700236 -0.9676172723968439
  outer loop
   vertex 100.5538729646617 12.599999999999996 0
   vertex 88.34426975934566 12.599999999999994 0
   vertex 81.56647861563602 14.899999999999997 0.6
  endloop
 endfacet
 facet normal 0.0 0.2524218971470027 -0.9676172723968438
  outer loop
   vertex 101.50636454239462 14.899999999999997 0.6
   vertex 100.5538729646617 12.599999999999996 0
   vertex 81.56647861563602 14.899999999999997 0.6
  endloop
 endfacet
 facet normal 0.17846278766208803 0.17851567880488256 -0.9676172723968441
  outer loop
   vertex 113.15660693921627 0.001 0
   vertex 100.5538729646617 12.599999999999996 0
   vertex 101.50636454239462 14.899999999999997 0.6
  endloop
 endfacet
 facet normal 0.1784627876620886 0.178515678804883 -0.9676172723968439
  outer loop
   vertex 116.4097801695784 0.001 0.6
   vertex 113.15660693921627 0.001 0
   vertex 101.50636454239462 14.899999999999997 0.6
  endloop
 endfacet
 facet normal 0.0 -1.0 0.0
  outer loop
   vertex 104.77035536407863 0.001 0
   vertex 113.15660693921627 0.001 0
   vertex 116.4097801695784 0.001 0.6
  endloop
 endfacet
 facet normal 0.0 -1.0 0.0
  outer loop
   vertex 100.99121466015673 0.001 0.6
   vertex 104.77035536407863 0.001 0
   vertex 116.4097801695784 0.001 0.6
  endloop
 endfacet
 facet normal -0.1536249663410534 -0.20029024907868592 -0.967617272396844
  outer loop
   vertex 88.34426975934566 12.599999999999994 0
   vertex 104.77035536407863 0.001 0
   vertex 100.99121466015673 0.001 0.6
  endloop
 endfacet
 facet normal -0.15362496634105335 -0.2002902490786859 -0.9676172723968439
  outer loop
   vertex 81.56647861563602 14.899999999999997 0.6
   vertex 88.34426975934566 12.599999999999994 0
   vertex 100.99121466015673 0.001 0.6
  endloop
 endfacet
 facet normal -0.0 0.0 1.0
  outer loop
   vertex 81.56647861563602 14.899999999999997 0.6
   vertex 116.4097801695784 0.001 0.6
   vertex 101.50636454239462 14.899999999999997 0.6
  endloop
 endfacet
 facet normal 0.0 0.0 1.0
  outer loop
   vertex 81.56647861563602 14.899999999999997 0.6
   vertex 100.99121466015673 0.001 0.6
   vertex 116.4097801695784 0.001 0.6
  endloop
 endfacet
 facet normal 0.0 0.0 -1.0
  outer loop
   vertex 81.56647861563602 14.899999999999997 0.99
   vertex 101.50636454239462 14.899999999999997 0.99
   vertex 116.4097801695784 0.001 0.99
  endloop
 endfacet
 facet normal 0.0 0.0 -1.0
  outer loop
   vertex 81.56647861563602 14.899999999999997 0.99
   vertex 116.4097801695784 0.001 0.99
   vertex 100.99121466015673 0.001 0.99
  endloop
 endfacet
 facet normal 0.0 0.2524218971470024 0.9676172723968438
  outer loop
   vertex 101.50636454239462 14.899999999999997 0.99
   vertex 81.56647861563602 14.899999999999997 0.99
   vertex 88.34426975934566 12.599999999999994 1.5899999999999999
  endloop
 endfacet
 facet normal -3.672448284119796e-17 0.25242189714700264 0.9676172723968439
  outer loop
   vertex 100.5538729646617 12.599999999999996 1.5899999999999999
   vertex 101.50636454239462 14.899999999999997 0.99
   vertex 88.34426975934566 12.599999999999994 1.5899999999999999
  endloop
 endfacet
 facet normal 0.17846278766208806 0.17851567880488248 0.9676172723968441
  outer loop
   vertex 116.4097801695784 0.001 0.99
   vertex 101.50636454239462 14.899999999999997 0.99
   vertex 100.5538729646617 12.599999999999996 1.5899999999999999
  endloop
 endfacet
 facet normal 0.17846278766208856 0.17851567880488306 0.9676172723968439
  outer loop
   vertex 113.15660693921627 0.001 1.5899999999999999
   vertex 116.4097801695784 0.001 0.99
   vertex 100.5538729646617 12.599999999999996 1.5899999999999999
  endloop
 endfacet
 facet normal 0.0 -1.0 0.0
  outer loop
   vertex 100.99121466015673 0.001 0.99
   vertex 116.4097801695784 0.001 0.99
   vertex 113.15660693921627 0.001 1.5899999999999999
  endloop
 endfacet
 facet normal 0.0 -1.0 -0.0
  outer loop
   vertex 104.77035536407863 0.001 1.5899999999999999
   vertex 100.99121466015673 0.001 0.99
   vertex 113.15660693921627 0.001 1.5899999999999999
  endloop
 endfacet
 facet normal -0.15362496634105327 -0.2002902490786858 0.967617272396844
  outer loop
   vertex 81.56647861563602 14.899999999999997 0.99
   vertex 100.99121466015673 0.001 0.99
   vertex 104.77035536407863 0.001 1.5899999999999999
  endloop
 endfacet
 facet normal -0.15362496634105333 -0.2002902490786858 0.967617272396844
  outer loop
   vertex 88.34426975934566 12.599999999999994 1.5899999999999999
   vertex 81.56647861563602 14.899999999999997 0.99
   vertex 104.77035536407863 0.001 1.5899999999999999
  endloop
 endfacet
 facet normal -0.0 0.0 1.0
  outer loop
   vertex 88.34426975934566 12.599999999999994 1.5899999999999999
   vertex 113.15660693921627 0.001 1.5899999999999999
   vertex 100.5538729646617 12.599999999999996 1.5899999999999999
  endloop
 endfacet
 facet normal 0.0 0.0 1.0
  outer loop
   vertex 88.34426975934566 12.599999999999994 1.5899999999999999
   vertex 104.77035536407863 0.001 1.5899999999999999
   vertex 113.15660693921627 0.001 1.5899999999999999
  endloop
 endfacet
 facet normal 0.0 0.0 -1.0
  outer loop
   vertex 100.55387296466169 17.399999999999995 0
   vertex 88.34426975934566 17.399999999999995 0
   vertex 104.77035536407867 29.999000000000013 0
  endloop
 endfacet
 facet normal 0.0 0.0 -1.0
  outer loop
   vertex 100.55387296466169 17.399999999999995 0
   vertex 104.77035536407867 29.999000000000013 0
   vertex 113.15660693921629 29.99900000000001 0
  endloop
 endfacet
 facet normal 0.0 -0.25242189714700286 -0.9676172723968438
  outer loop
   vertex 88.34426975934566 17.399999999999995 0
   vertex 100.55387296466169 17.399999999999995 0
   vertex 101.5063645423946 15.099999999999996 0.6
  endloop
 endfacet
 facet normal 0.0 -0.2524218971470028 -0.9676172723968438
  outer loop
   vertex 81.56647861563603 15.099999999999996 0.6
   vertex 88.34426975934566 17.399999999999995 0
   vertex 101.5063645423946 15.099999999999996 0.6
  endloop
 endfacet
 facet normal -0.15362496634105383 0.20029024907868664 -0.9676172723968437
  outer loop
   vertex 104.77035536407867 29.999000000000013 0
   vertex 88.34426975934566 17.399999999999995 0
   vertex 81.56647861563603 15.099999999999996 0.6
  endloop
 endfacet
 facet normal -0.15362496634105344 0.20029024907868603 -0.9676172723968439
  outer loop
   vertex 100.99121466015677 29.999000000000013 0.6
   vertex 104.77035536407867 29.999000000000013 0
   vertex 81.56647861563603 15.099999999999996 0.6
  endloop
 endfacet
 facet normal 4.23635476108669e-16 1.0 2.6682967856460055e-15
  outer loop
   vertex 113.15660693921629 29.99900000000001 0
   vertex 104.77035536407867 29.999000000000013 0
   vertex 100.99121466015677 29.999000000000013 0.6
  endloop
 endfacet
 facet normal 2.304179125243257e-16 1.0 -1.2493156413667628e-15
  outer loop
   vertex 116.40978016957841 29.99900000000001 0.6
   vertex 113.15660693921629 29.99900000000001 0
   vertex 100.99121466015677 29.999000000000013 0.6
  endloop
 endfacet
 facet normal 0.17846278766208862 -0.1785156788048833 -0.9676172723968439
  outer loop
   vertex 100.55387296466169 17.399999999999995 0
   vertex 113.15660693921629 29.99900000000001 0
   vertex 116.40978016957841 29.99900000000001 0.6
  endloop
 endfacet
 facet normal 0.17846278766208815 -0.17851567880488267 -0.967617272396844
  outer loop
   vertex 101.5063645423946 15.099999999999996 0.6
   vertex 100.55387296466169 17.399999999999995 0
   vertex 116.40978016957841 29.99900000000001 0.6
  endloop
 endfacet
 facet normal 0.0 0.0 1.0
  outer loop
   vertex 101.5063645423946 15.099999999999996 0.6
   vertex 100.99121466015677 29.999000000000013 0.6
   vertex 81.56647861563603 15.099999999999996 0.6
  endloop
 endfacet
 facet normal 0.0 -0.0 1.0
  outer loop
   vertex 101.5063645423946 15.099999999999996 0.6
   vertex 116.40978016957841 29.99900000000001 0.6
   vertex 100.99121466015677 29.999000000000013 0.6
  endloop
 endfacet
 facet normal 0.0 0.0 -1.0
  outer loop
   vertex 101.5063645423946 15.099999999999996 0.99
   vertex 81.56647861563603 15.099999999999996 0.99
   vertex 100.99121466015677 29.999000000000013 0.99
  endloop
 endfacet
 facet normal 0.0 0.0 -1.0
  outer loop
   vertex 101.5063645423946 15.099999999999996 0.99
   vertex 100.99121466015677 29.999000000000013 0.99
   vertex 116.40978016957841 29.99900000000001 0.99
  endloop
 endfacet
 facet normal 0.0 -0.2524218971470028 0.9676172723968438
  outer loop
   vertex 81.56647861563603 15.099999999999996 0.99
   vertex 101.5063645423946 15.099999999999996 0.99
   vertex 100.55387296466169 17.399999999999995 1.5899999999999999
  endloop
 endfacet
 facet normal 0.0 -0.2524218971470028 0.9676172723968438
  outer loop
   vertex 88.34426975934566 17.399999999999995 1.5899999999999999
   vertex 81.56647861563603 15.099999999999996 0.99
   vertex 100.55387296466169 17.399999999999995 1.5899999999999999
  endloop
 endfacet
 facet normal -0.15362496634105371 0.2002902490786864 0.9676172723968439
  outer loop
   vertex 100.99121466015677 29.999000000000013 0.99
   vertex 81.56647861563603 15.099999999999996 0.99
   vertex 88.34426975934566 17.399999999999995 1.5899999999999999
  endloop
 endfacet
 facet normal -0.15362496634105338 0.2002902490786861 0.9676172723968439
  outer loop
   vertex 104.77035536407867 29.999000000000013 1.5899999999999999
   vertex 100.99121466015677 29.999000000000013 0.99
   vertex 88.34426975934566 17.399999999999995 1.5899999999999999
  endloop
 endfacet
 facet normal 2.304179125243257e-16 1.0 -1.4513028535556574e-15
  outer loop
   vertex 116.40978016957841 29.99900000000001 0.99
   vertex 100.99121466015677 29.999000000000013 0.99
   vertex 104.77035536407867 29.999000000000013 1.5899999999999999
  endloop
 endfacet
 facet normal 4.23635476108669e-16 1.0 2.296932650514058e-15
  outer loop
   vertex 113.15660693921629 29.99900000000001 1.5899999999999999
   vertex 116.40978016957841 29.99900000000001 0.99
   vertex 104.77035536407867 29.999000000000013 1.5899999999999999
  endloop
 endfacet
 facet normal 0.17846278766208865 -0.17851567880488317 0.9676172723968439
  outer loop
   vertex 101.5063645423946 15.099999999999996 0.99
   vertex 116.40978016957841 29.99900000000001 0.99
   vertex 113.15660693921629 29.99900000000001 1.5899999999999999
  endloop
 endfacet
 facet normal 0.17846278766208803 -0.17851567880488267 0.967617272396844
  outer loop
   vertex 100.55387296466169 17.399999999999995 1.5899999999999999
   vertex 101.5063645423946 15.099999999999996 0.99
   vertex 113.15660693921629 29.99900000000001 1.5899999999999999
  endloop
 endfacet
 facet normal 0.0 -0.0 1.0
  outer loop
   vertex 100.55387296466169 17.399999999999995 1.5899999999999999
   vertex 104.77035536407867 29.999000000000013 1.5899999999999999
   vertex 88.34426975934566 17.399999999999995 1.5899999999999999
  endloop
 endfacet
 facet normal 0.0 0.0 1.0
  outer loop
   vertex 100.55387296466169 17.399999999999995 1.5899999999999999
   vertex 113.15660693921629 29.99900000000001 1.5899999999999999
   vertex 104.77035536407867 29.999000000000013 1.5899999999999999
  endloop
 endfacet
 facet normal 0.0 0.0 -1.0
  outer loop
   vertex 107.34310405411308 12.6 0
   vertex 132.7568959458869 12.6 0
   vertex 120.15416197133234 0.001 0
  endloop
 endfacet
 facet normal 0.0 0.0 -1.0
  outer loop
   vertex 107.34310405411308 12.6 0
   vertex 120.15416197133234 0.001 0
   vertex 119.94583802866765 0.001 0
  endloop
 endfacet
 facet normal 0.0 0.2524218971470027 -0.9676172723968439
  outer loop
   vertex 132.7568959458869 12.6 0
   vertex 107.34310405411308 12.6 0
   vertex 101.78924917112174 14.9 0.6
  endloop
 endfacet
 facet normal 0.0 0.25242189714700264 -0.9676172723968439
  outer loop
   vertex 138.31075082887827 14.9 0.6
   vertex 132.7568959458869 12.6 0
   vertex 101.78924917112174 14.9 0.6
  endloop
 endfacet
 facet normal 0.1784627876620868 -0.17851567880488106 -0.9676172723968446
  outer loop
   vertex 120.15416197133234 0.001 0
   vertex 132.7568959458869 12.6 0
   vertex 138.31075082887827 14.9 0.6
  endloop
 endfacet
 facet normal 0.1784627876620886 -0.17851567880488325 -0.9676172723968438
  outer loop
   vertex 123.40733520169447 0.001 0.6
   vertex 120.15416197133234 0.001 0
   vertex 138.31075082887827 14.9 0.6
  endloop
 endfacet
 facet normal 0.0 -1.0 0.0
  outer loop
   vertex 119.94583802866765 0.001 0
   vertex 120.15416197133234 0.001 0
   vertex 123.40733520169447 0.001 0.6
  endloop
 endfacet
 facet normal 0.0 -1.0 0.0
  outer loop
   vertex 116.69266479830553 0.001 0.6
   vertex 119.94583802866765 0.001 0
   vertex 123.40733520169447 0.001 0.6
  endloop
 endfacet
 facet normal -0.17846278766208862 -0.1785156788048831 -0.9676172723968439
  outer loop
   vertex 107.34310405411308 12.6 0
   vertex 119.94583802866765 0.001 0
   vertex 116.69266479830553 0.001 0.6
  endloop
 endfacet
 facet normal -0.17846278766208842 -0.17851567880488295 -0.967617272396844
  outer loop
   vertex 101.78924917112174 14.9 0.6
   vertex 107.34310405411308 12.6 0
   vertex 116.69266479830553 0.001 0.6
  endloop
 endfacet
 facet normal -0.0 0.0 1.0
  outer loop
   vertex 101.78924917112174 14.9 0.6
   vertex 123.40733520169447 0.001 0.6
   vertex 138.31075082887827 14.9 0.6
  endloop
 endfacet
 facet normal 0.0 0.0 1.0
  outer loop
   vertex 101.78924917112174 14.9 0.6
   vertex 116.69266479830553 0.001 0.6
   vertex 123.40733520169447 0.001 0.6
  endloop
 endfacet
 facet normal 0.0 0.0 -1.0
  outer loop
   vertex 101.78924917112174 14.9 0.99
   vertex 138.31075082887827 14.9 0.99
   vertex 123.40733520169447 0.001 0.99
  endloop
 endfacet
 facet normal 0.0 0.0 -1.0
  outer loop
   vertex 101.78924917112174 14.9 0.99
   vertex 123.40733520169447 0.001 0.99
   vertex 116.69266479830553 0.001 0.99
  endloop
 endfacet
 facet normal 0.0 0.25242189714700264 0.9676172723968439
  outer loop
   vertex 138.31075082887827 14.9 0.99
   vertex 101.78924917112174 14.9 0.99
   vertex 107.34310405411308 12.6 1.5899999999999999
  endloop
 endfacet
 facet normal 0.0 0.25242189714700264 0.9676172723968439
  outer loop
   vertex 132.7568959458869 12.6 1.5899999999999999
   vertex 138.31075082887827 14.9 0.99
   vertex 107.34310405411308 12.6 1.5899999999999999
  endloop
 endfacet
 facet normal 0.17846278766208704 -0.1785156788048817 0.9676172723968445
  outer loop
   vertex 123.40733520169447 0.001 0.99
   vertex 138.31075082887827 14.9 0.99
   vertex 132.7568959458869 12.6 1.5899999999999999
  endloop
 endfacet
 facet normal 0.1784627876620886 -0.17851567880488284 0.967617272396844
  outer loop
   vertex 120.15416197133234 0.001 1.5899999999999999
   vertex 123.40733520169447 0.001 0.99
   vertex 132.7568959458869 12.6 1.5899999999999999
  endloop
 endfacet
 facet normal 0.0 -1.0 0.0
  outer loop
   vertex 116.69266479830553 0.001 0.99
   vertex 123.40733520169447 0.001 0.99
   vertex 120.15416197133234 0.001 1.5899999999999999
  endloop
 endfacet
 facet normal 0.0 -1.0 -0.0
  outer loop
   vertex 119.94583802866765 0.001 1.5899999999999999
   vertex 116.69266479830553 0.001 0.99
   vertex 120.15416197133234 0.001 1.5899999999999999
  endloop
 endfacet
 facet normal -0.17846278766208862 -0.17851567880488314 0.9676172723968439
  outer loop
   vertex 101.78924917112174 14.9 0.99
   vertex 116.69266479830553 0.001 0.99
   vertex 119.94583802866765 0.001 1.5899999999999999
  endloop
 endfacet
 facet normal -0.1784627876620883 -0.17851567880488275 0.9676172723968441
  outer loop
   vertex 107.34310405411308 12.6 1.5899999999999999
   vertex 101.78924917112174 14.9 0.99
   vertex 119.94583802866765 0.001 1.5899999999999999
  endloop
 endfacet
 facet normal -0.0 0.0 1.0
  outer loop
   vertex 107.34310405411308 12.6 1.5899999999999999
   vertex 120.15416197133234 0.001 1.5899999999999999
   vertex 132.7568959458869 12.6 1.5899999999999999
  endloop
 endfacet
 facet normal 0.0 0.0 1.0
  outer loop
   vertex 107.34310405411308 12.6 1.5899999999999999
   vertex 119.94583802866765 0.001 1.5899999999999999
   vertex 120.15416197133234 0.001 1.5899999999999999
  endloop
 endfacet
 facet normal 0.0 0.0 -1.0
  outer loop
   vertex 132.75689594588692 17.4 0
   vertex 107.34310405411307 17.4 0
   vertex 119.94583802866764 29.99899999999998 0
  endloop
 endfacet
 facet normal 0.0 0.0 -1.0
  outer loop
   vertex 132.75689594588692 17.4 0
   vertex 119.94583802866764 29.99899999999998 0
   vertex 120.15416197133239 29.99899999999998 0
  endloop
 endfacet
 facet normal 0.0 -0.2524218971470028 -0.9676172723968438
  outer loop
   vertex 107.34310405411307 17.4 0
   vertex 132.75689594588692 17.4 0
   vertex 138.31075082887827 15.1 0.6
  endloop
 endfacet
 facet normal 0.0 -0.2524218971470028 -0.9676172723968438
  outer loop
   vertex 101.78924917112174 15.1 0.6
   vertex 107.34310405411307 17.4 0
   vertex 138.31075082887827 15.1 0.6
  endloop
 endfacet
 facet normal -0.17846278766208915 0.17851567880488386 -0.9676172723968437
  outer loop
   vertex 119.94583802866764 29.99899999999998 0
   vertex 107.34310405411307 17.4 0
   vertex 101.78924917112174 15.1 0.6
  endloop
 endfacet
 facet normal -0.1784627876620886 0.1785156788048832 -0.9676172723968439
  outer loop
   vertex 116.69266479830551 29.99899999999998 0.6
   vertex 119.94583802866764 29.99899999999998 0
   vertex 101.78924917112174 15.1 0.6
  endloop
 endfacet
 facet normal 0.0 1.0 0.0
  outer loop
   vertex 120.15416197133239 29.99899999999998 0
   vertex 119.94583802866764 29.99899999999998 0
   vertex 116.69266479830551 29.99899999999998 0.6
  endloop
 endfacet
 facet normal 0.0 1.0 0.0
  outer loop
   vertex 123.40733520169448 29.99899999999998 0.6
   vertex 120.15416197133239 29.99899999999998 0
   vertex 116.69266479830551 29.99899999999998 0.6
  endloop
 endfacet
 facet normal 0.17846278766209006 0.17851567880488436 -0.9676172723968434
  outer loop
   vertex 132.75689594588692 17.4 0
   vertex 120.15416197133239 29.99899999999998 0
   vertex 123.40733520169448 29.99899999999998 0.6
  endloop
 endfacet
 facet normal 0.17846278766208842 0.1785156788048832 -0.9676172723968439
  outer loop
   vertex 138.31075082887827 15.1 0.6
   vertex 132.75689594588692 17.4 0
   vertex 123.40733520169448 29.99899999999998 0.6
  endloop
 endfacet
 facet normal 0.0 0.0 1.0
  outer loop
   vertex 138.31075082887827 15.1 0.6
   vertex 116.69266479830551 29.99899999999998 0.6
   vertex 101.78924917112174 15.1 0.6
  endloop
 endfacet
 facet normal 0.0 0.0 1.0
  outer loop
   vertex 138.31075082887827 15.1 0.6
   vertex 123.40733520169448 29.99899999999998 0.6
   vertex 116.69266479830551 29.99899999999998 0.6
  endloop
 endfacet
 facet normal 0.0 0.0 -1.0
  outer loop
   vertex 138.31075082887827 15.1 0.99
   vertex 101.78924917112174 15.1 0.99
   vertex 116.69266479830551 29.99899999999998 0.99
  endloop
 endfacet
 facet normal 0.0 0.0 -1.0
  outer loop
   vertex 138.31075082887827 15.1 0.99
   vertex 116.69266479830551 29.99899999999998 0.99
   vertex 123.40733520169448 29.99899999999998 0.99
  endloop
 endfacet
 facet normal 0.0 -0.2524218971470028 0.9676172723968438
  outer loop
   vertex 101.78924917112174 15.1 0.99
   vertex 138.31075082887827 15.1 0.99
   vertex 132.75689594588692 17.4 1.5899999999999999
  endloop
 endfacet
 facet normal 0.0 -0.2524218971470028 0.9676172723968438
  outer loop
   vertex 107.34310405411307 17.4 1.5899999999999999
   vertex 101.78924917112174 15.1 0.99
   vertex 132.75689594588692 17.4 1.5899999999999999
  endloop
 endfacet
 facet normal -0.17846278766208903 0.17851567880488364 0.9676172723968437
  outer loop
   vertex 116.69266479830551 29.99899999999998 0.99
   vertex 101.78924917112174 15.1 0.99
   vertex 107.34310405411307 17.4 1.5899999999999999
  endloop
 endfacet
 facet normal -0.1784627876620886 0.1785156788048833 0.967617272396844
  outer loop
   vertex 119.94583802866764 29.99899999999998 1.5899999999999999
   vertex 116.69266479830551 29.99899999999998 0.99
   vertex 107.34310405411307 17.4 1.5899999999999999
  endloop
 endfacet
 facet normal 0.0 1.0 0.0
  outer loop
   vertex 123.40733520169448 29.99899999999998 0.99
   vertex 116.69266479830551 29.99899999999998 0.99
   vertex 119.94583802866764 29.99899999999998 1.5899999999999999
  endloop
 endfacet
 facet normal 0.0 1.0 0.0
  outer loop
   vertex 120.15416197133239 29.99899999999998 1.5899999999999999
   vertex 123.40733520169448 29.99899999999998 0.99
   vertex 119.94583802866764 29.99899999999998 1.5899999999999999
  endloop
 endfacet
 facet normal 0.17846278766208992 0.1785156788048847 0.9676172723968434
  outer loop
   vertex 138.31075082887827 15.1 0.99
   vertex 123.40733520169448 29.99899999999998 0.99
   vertex 120.15416197133239 29.99899999999998 1.5899999999999999
  endloop
 endfacet
 facet normal 0.17846278766208815 0.17851567880488245 0.9676172723968443
  outer loop
   vertex 132.75689594588692 17.4 1.5899999999999999
   vertex 138.31075082887827 15.1 0.99
   vertex 120.15416197133239 29.99899999999998 1.5899999999999999
  endloop
 endfacet
 facet normal 0.0 0.0 1.0
  outer loop
   vertex 132.75689594588692 17.4 1.5899999999999999
   vertex 119.94583802866764 29.99899999999998 1.5899999999999999
   vertex 107.34310405411307 17.4 1.5899999999999999
  endloop
 endfacet
 facet normal 0.0 0.0 1.0
  outer loop
   vertex 132.75689594588692 17.4 1.5899999999999999
   vertex 120.15416197133239 29.99899999999998 1.5899999999999999
   vertex 119.94583802866764 29.99899999999998 1.5899999999999999
  endloop
 endfacet
 facet normal 0.0 -0.0 -1.0
  outer loop
   vertex 139.5461270353383 12.600000000000003 0
   vertex 151.39524587728837 12.600000000000003 0
   vertex 136.37632577273433 0.001 0
  endloop
 endfacet
 facet normal 0.0 0.0 -1.0
  outer loop
   vertex 139.5461270353383 12.600000000000003 0
   vertex 136.37632577273433 0.001 0
   vertex 126.94339306078372 0.001 0
  endloop
 endfacet
 facet normal 0.0 0.2524218971470027 -0.9676172723968439
  outer loop
   vertex 151.39524587728837 12.600000000000003 0
   vertex 139.5461270353383 12.600000000000003 0
   vertex 138.5936354576054 14.900000000000004 0.6
  endloop
 endfacet
 facet normal 0.0 0.2524218971470027 -0.9676172723968439
  outer loop
   vertex 157.71573891725382 14.900000000000004 0.6
   vertex 151.39524587728837 12.600000000000003 0
   vertex 138.5936354576054 14.900000000000004 0.6
  endloop
 endfacet
 facet normal 0.16222819998455182 -0.19338775889146742 -0.9676172723968438
  outer loop
   vertex 136.37632577273433 0.001 0
   vertex 151.39524587728837 12.600000000000003 0
   vertex 157.71573891725382 14.900000000000004 0.6
  endloop
 endfacet
 facet normal 0.16222819998455248 -0.1933877588914684 -0.9676172723968436
  outer loop
   vertex 139.95505230420906 0.001 0.6
   vertex 136.37632577273433 0.001 0
   vertex 157.71573891725382 14.900000000000004 0.6
  endloop
 endfacet
 facet normal 0.0 -1.0 0.0
  outer loop
   vertex 126.94339306078372 0.001 0
   vertex 136.37632577273433 0.001 0
   vertex 139.95505230420906 0.001 0.6
  endloop
 endfacet
 facet normal 0.0 -1.0 0.0
  outer loop
   vertex 123.6902198304216 0.001 0.6
   vertex 126.94339306078372 0.001 0
   vertex 139.95505230420906 0.001 0.6
  endloop
 endfacet
 facet normal -0.1784627876620886 0.178515678804883 -0.9676172723968439
  outer loop
   vertex 139.5461270353383 12.600000000000003 0
   vertex 126.94339306078372 0.001 0
   vertex 123.6902198304216 0.001 0.6
  endloop
 endfacet
 facet normal -0.17846278766208884 0.1785156788048833 -0.9676172723968438
  outer loop
   vertex 138.5936354576054 14.900000000000004 0.6
   vertex 139.5461270353383 12.600000000000003 0
   vertex 123.6902198304216 0.001 0.6
  endloop
 endfacet
 facet normal -0.0 0.0 1.0
  outer loop
   vertex 138.5936354576054 14.900000000000004 0.6
   vertex 139.95505230420906 0.001 0.6
   vertex 157.71573891725382 14.900000000000004 0.6
  endloop
 endfacet
 facet normal 0.0 0.0 1.0
  outer loop
   vertex 138.5936354576054 14.900000000000004 0.6
   vertex 123.6902198304216 0.001 0.6
   vertex 139.95505230420906 0.001 0.6
  endloop
 endfacet
 facet normal 0.0 0.0 -1.0
  outer loop
   vertex 138.5936354576054 14.900000000000004 0.99
   vertex 157.71573891725382 14.900000000000004 0.99
   vertex 139.95505230420906 0.001 0.99
  endloop
 endfacet
 facet normal 0.0 -0.0 -1.0
  outer loop
   vertex 138.5936354576054 14.900000000000004 0.99
   vertex 139.95505230420906 0.001 0.99
   vertex 123.6902198304216 0.001 0.99
  endloop
 endfacet
 facet normal 0.0 0.25242189714700264 0.9676172723968439
  outer loop
   vertex 157.71573891725382 14.900000000000004 0.99
   vertex 138.5936354576054 14.900000000000004 0.99
   vertex 139.5461270353383 12.600000000000003 1.5899999999999999
  endloop
 endfacet
 facet normal 0.0 0.25242189714700264 0.9676172723968439
  outer loop
   vertex 151.39524587728837 12.600000000000003 1.5899999999999999
   vertex 157.71573891725382 14.900000000000004 0.99
   vertex 139.5461270353383 12.600000000000003 1.5899999999999999
  endloop
 endfacet
 facet normal 0.16222819998455193 -0.19338775889146773 0.9676172723968437
  outer loop
   vertex 139.95505230420906 0.001 0.99
   vertex 157.71573891725382 14.900000000000004 0.99
   vertex 151.39524587728837 12.600000000000003 1.5899999999999999
  endloop
 endfacet
 facet normal 0.16222819998455246 -0.19338775889146817 0.9676172723968435
  outer loop
   vertex 136.37632577273433 0.001 1.5899999999999999
   vertex 139.95505230420906 0.001 0.99
   vertex 151.39524587728837 12.600000000000003 1.5899999999999999
  endloop
 endfacet
 facet normal 0.0 -1.0 0.0
  outer loop
   vertex 123.6902198304216 0.001 0.99
   vertex 139.95505230420906 0.001 0.99
   vertex 136.37632577273433 0.001 1.5899999999999999
  endloop
 endfacet
 facet normal 0.0 -1.0 -0.0
  outer loop
   vertex 126.94339306078372 0.001 1.5899999999999999
   vertex 123.6902198304216 0.001 0.99
   vertex 136.37632577273433 0.001 1.5899999999999999
  endloop
 endfacet
 facet normal -0.17846278766208865 0.17851567880488314 0.9676172723968439
  outer loop
   vertex 138.5936354576054 14.900000000000004 0.99
   vertex 123.6902198304216 0.001 0.99
   vertex 126.94339306078372 0.001 1.5899999999999999
  endloop
 endfacet
 facet normal -0.17846278766208887 0.17851567880488328 0.9676172723968438
  outer loop
   vertex 139.5461270353383 12.600000000000003 1.5899999999999999
   vertex 138.5936354576054 14.900000000000004 0.99
   vertex 126.94339306078372 0.001 1.5899999999999999
  endloop
 endfacet
 facet normal -0.0 0.0 1.0
  outer loop
   vertex 139.5461270353383 12.600000000000003 1.5899999999999999
   vertex 136.37632577273433 0.001 1.5899999999999999
   vertex 151.39524587728837 12.600000000000003 1.5899999999999999
  endloop
 endfacet
 facet normal 0.0 0.0 1.0
  outer loop
   vertex 139.5461270353383 12.600000000000003 1.5899999999999999
   vertex 126.94339306078372 0.001 1.5899999999999999
   vertex 136.37632577273433 0.001 1.5899999999999999
  endloop
 endfacet
 facet normal 0.0 0.0 -1.0
  outer loop
   vertex 151.39524587728837 17.400000000000002 0
   vertex 139.5461270353383 17.400000000000002 0
   vertex 126.94339306078372 29.999 0
  endloop
 endfacet
 facet normal 0.0 0.0 -1.0
  outer loop
   vertex 151.39524587728837 17.400000000000002 0
   vertex 126.94339306078372 29.999 0
   vertex 136.37632577273433 29.999 0
  endloop
 endfacet
 facet normal 0.0 -0.25242189714700286 -0.9676172723968439
  outer loop
   vertex 139.5461270353383 17.400000000000002 0
   vertex 151.39524587728837 17.400000000000002 0
   vertex 157.71573891725384 15.100000000000003 0.6
  endloop
 endfacet
 facet normal 0.0 -0.25242189714700286 -0.9676172723968438
  outer loop
   vertex 138.59363545760542 15.100000000000003 0.6
   vertex 139.5461270353383 17.400000000000002 0
   vertex 157.71573891725384 15.100000000000003 0.6
  endloop
 endfacet
 facet normal -0.17846278766209037 -0.17851567880488486 -0.9676172723968433
  outer loop
   vertex 126.94339306078372 29.999 0
   vertex 139.5461270353383 17.400000000000002 0
   vertex 138.59363545760542 15.100000000000003 0.6
  endloop
 endfacet
 facet normal -0.17846278766209006 -0.17851567880488467 -0.9676172723968434
  outer loop
   vertex 123.69021983042163 29.999 0.6
   vertex 126.94339306078372 29.999 0
   vertex 138.59363545760542 15.100000000000003 0.6
  endloop
 endfacet
 facet normal 0.0 1.0 0.0
  outer loop
   vertex 136.37632577273433 29.999 0
   vertex 126.94339306078372 29.999 0
   vertex 123.69021983042163 29.999 0.6
  endloop
 endfacet
 facet normal 0.0 1.0 0.0
  outer loop
   vertex 139.9550523042091 29.999 0.6
   vertex 136.37632577273433 29.999 0
   vertex 123.69021983042163 29.999 0.6
  endloop
 endfacet
 facet normal 0.16222819998455124 0.19338775889146687 -0.967617272396844
  outer loop
   vertex 151.39524587728837 17.400000000000002 0
   vertex 136.37632577273433 29.999 0
   vertex 139.9550523042091 29.999 0.6
  endloop
 endfacet
 facet normal 0.1622281999845507 0.1933877588914664 -0.9676172723968444
  outer loop
   vertex 157.71573891725384 15.100000000000003 0.6
   vertex 151.39524587728837 17.400000000000002 0
   vertex 139.9550523042091 29.999 0.6
  endloop
 endfacet
 facet normal 0.0 0.0 1.0
  outer loop
   vertex 157.71573891725384 15.100000000000003 0.6
   vertex 123.69021983042163 29.999 0.6
   vertex 138.59363545760542 15.100000000000003 0.6
  endloop
 endfacet
 facet normal 0.0 0.0 1.0
  outer loop
   vertex 157.71573891725384 15.100000000000003 0.6
   vertex 139.9550523042091 29.999 0.6
   vertex 123.69021983042163 29.999 0.6
  endloop
 endfacet
 facet normal 0.0 0.0 -1.0
  outer loop
   vertex 157.71573891725384 15.100000000000003 0.99
   vertex 138.59363545760542 15.100000000000003 0.99
   vertex 123.69021983042163 29.999 0.99
  endloop
 endfacet
 facet normal 0.0 0.0 -1.0
  outer loop
   vertex 157.71573891725384 15.100000000000003 0.99
   vertex 123.69021983042163 29.999 0.99
   vertex 139.9550523042091 29.999 0.99
  endloop
 endfacet
 facet normal 0.0 -0.2524218971470028 0.9676172723968438
  outer loop
   vertex 138.59363545760542 15.100000000000003 0.99
   vertex 157.71573891725384 15.100000000000003 0.99
   vertex 151.39524587728837 17.400000000000002 1.5899999999999999
  endloop
 endfacet
 facet normal 0.0 -0.25242189714700286 0.9676172723968439
  outer loop
   vertex 139.5461270353383 17.400000000000002 1.5899999999999999
   vertex 138.59363545760542 15.100000000000003 0.99
   vertex 151.39524587728837 17.400000000000002 1.5899999999999999
  endloop
 endfacet
 facet normal -0.1784627876620903 -0.1785156788048849 0.9676172723968434
  outer loop
   vertex 123.69021983042163 29.999 0.99
   vertex 138.59363545760542 15.100000000000003 0.99
   vertex 139.5461270353383 17.400000000000002 1.5899999999999999
  endloop
 endfacet
 facet normal -0.17846278766209003 -0.17851567880488453 0.9676172723968435
  outer loop
   vertex 126.94339306078372 29.999 1.5899999999999999
   vertex 123.69021983042163 29.999 0.99
   vertex 139.5461270353383 17.400000000000002 1.5899999999999999
  endloop
 endfacet
 facet normal 0.0 1.0 0.0
  outer loop
   vertex 139.9550523042091 29.999 0.99
   vertex 123.69021983042163 29.999 0.99
   vertex 126.94339306078372 29.999 1.5899999999999999
  endloop
 endfacet
 facet normal 0.0 1.0 0.0
  outer loop
   vertex 136.37632577273433 29.999 1.5899999999999999
   vertex 139.9550523042091 29.999 0.99
   vertex 126.94339306078372 29.999 1.5899999999999999
  endloop
 endfacet
 facet normal 0.1622281999845513 0.1933877588914671 0.967617272396844
  outer loop
   vertex 157.71573891725384 15.100000000000003 0.99
   vertex 139.9550523042091 29.999 0.99
   vertex 136.37632577273433 29.999 1.5899999999999999
  endloop
 endfacet
 facet normal 0.16222819998455057 0.19338775889146606 0.9676172723968444
  outer loop
   vertex 151.39524587728837 17.400000000000002 1.5899999999999999
   vertex 157.71573891725384 15.100000000000003 0.99
   vertex 136.37632577273433 29.999 1.5899999999999999
  endloop
 endfacet
 facet normal 0.0 0.0 1.0
  outer loop
   vertex 151.39524587728837 17.400000000000002 1.5899999999999999
   vertex 126.94339306078372 29.999 1.5899999999999999
   vertex 139.5461270353383 17.400000000000002 1.5899999999999999
  endloop
 endfacet
 facet normal 0.0 0.0 1.0
  outer loop
   vertex 151.39524587728837 17.400000000000002 1.5899999999999999
   vertex 136.37632577273433 29.999 1.5899999999999999
   vertex 126.94339306078372 29.999 1.5899999999999999
  endloop
 endfacet
 facet normal 0.0 0.0 -1.0
  outer loop
   vertex 158.86389255167043 12.59999999999998 0
   vertex 165.63610744832962 12.59999999999998 0
   vertex 180.6550275528837 0.001 0
  endloop
 endfacet
 facet normal 0.0 -0.0 -1.0
  outer loop
   vertex 158.86389255167043 12.59999999999998 0
   vertex 180.6550275528837 0.001 0
   vertex 143.8449724471164 0.001 0
  endloop
 endfacet
 facet normal 0.0 0.25242189714700286 -0.9676172723968439
  outer loop
   vertex 165.63610744832962 12.59999999999998 0
   vertex 158.86389255167043 12.59999999999998 0
   vertex 158.02693252868642 14.899999999999979 0.6
  endloop
 endfacet
 facet normal 0.0 0.25242189714700286 -0.9676172723968439
  outer loop
   vertex 166.4730674713137 14.899999999999979 0.6
   vertex 165.63610744832962 12.59999999999998 0
   vertex 158.02693252868642 14.899999999999979 0.6
  endloop
 endfacet
 facet normal 0.16222819998455038 0.19338775889146645 -0.9676172723968444
  outer loop
   vertex 180.6550275528837 0.001 0
   vertex 165.63610744832962 12.59999999999998 0
   vertex 166.4730674713137 14.899999999999979 0.6
  endloop
 endfacet
 facet normal 0.16222819998455246 0.1933877588914684 -0.9676172723968436
  outer loop
   vertex 184.23375408435842 0.001 0.6
   vertex 180.6550275528837 0.001 0
   vertex 166.4730674713137 14.899999999999979 0.6
  endloop
 endfacet
 facet normal 0.0 -1.0 0.0
  outer loop
   vertex 143.8449724471164 0.001 0
   vertex 180.6550275528837 0.001 0
   vertex 184.23375408435842 0.001 0.6
  endloop
 endfacet
 facet normal 0.0 -1.0 0.0
  outer loop
   vertex 140.26624591564166 0.001 0.6
   vertex 143.8449724471164 0.001 0
   vertex 184.23375408435842 0.001 0.6
  endloop
 endfacet
 facet normal -0.16222819998455248 0.1933877588914686 -0.9676172723968436
  outer loop
   vertex 158.86389255167043 12.59999999999998 0
   vertex 143.8449724471164 0.001 0
   vertex 140.26624591564166 0.001 0.6
  endloop
 endfacet
 facet normal -0.1622281999845529 0.19338775889146922 -0.9676172723968434
  outer loop
   vertex 158.02693252868642 14.899999999999979 0.6
   vertex 158.86389255167043 12.59999999999998 0
   vertex 140.26624591564166 0.001 0.6
  endloop
 endfacet
 facet normal -0.0 0.0 1.0
  outer loop
   vertex 158.02693252868642 14.899999999999979 0.6
   vertex 184.23375408435842 0.001 0.6
   vertex 166.4730674713137 14.899999999999979 0.6
  endloop
 endfacet
 facet normal 0.0 0.0 1.0
  outer loop
   vertex 158.02693252868642 14.899999999999979 0.6
   vertex 140.26624591564166 0.001 0.6
   vertex 184.23375408435842 0.001 0.6
  endloop
 endfacet
 facet normal 0.0 0.0 -1.0
  outer loop
   vertex 158.02693252868642 14.899999999999979 0.99
   vertex 166.4730674713137 14.899999999999979 0.99
   vertex 184.23375408435842 0.001 0.99
  endloop
 endfacet
 facet normal 0.0 -0.0 -1.0
  outer loop
   vertex 158.02693252868642 14.899999999999979 0.99
   vertex 184.23375408435842 0.001 0.99
   vertex 140.26624591564166 0.001 0.99
  endloop
 endfacet
 facet normal 0.0 0.25242189714700286 0.9676172723968439
  outer loop
   vertex 166.4730674713137 14.899999999999979 0.99
   vertex 158.02693252868642 14.899999999999979 0.99
   vertex 158.86389255167043 12.59999999999998 1.5899999999999999
  endloop
 endfacet
 facet normal 0.0 0.25242189714700286 0.9676172723968439
  outer loop
   vertex 165.63610744832962 12.59999999999998 1.5899999999999999
   vertex 166.4730674713137 14.899999999999979 0.99
   vertex 158.86389255167043 12.59999999999998 1.5899999999999999
  endloop
 endfacet
 facet normal 0.1622281999845507 0.19338775889146628 0.9676172723968443
  outer loop
   vertex 184.23375408435842 0.001 0.99
   vertex 166.4730674713137 14.899999999999979 0.99
   vertex 165.63610744832962 12.59999999999998 1.5899999999999999
  endloop
 endfacet
 facet normal 0.16222819998455243 0.1933877588914689 0.9676172723968435
  outer loop
   vertex 180.6550275528837 0.001 1.5899999999999999
   vertex 184.23375408435842 0.001 0.99
   vertex 165.63610744832962 12.59999999999998 1.5899999999999999
  endloop
 endfacet
 facet normal 0.0 -1.0 0.0
  outer loop
   vertex 140.26624591564166 0.001 0.99
   vertex 184.23375408435842 0.001 0.99
   vertex 180.6550275528837 0.001 1.5899999999999999
  endloop
 endfacet
 facet normal 0.0 -1.0 -0.0
  outer loop
   vertex 143.8449724471164 0.001 1.5899999999999999
   vertex 140.26624591564166 0.001 0.99
   vertex 180.6550275528837 0.001 1.5899999999999999
  endloop
 endfacet
 facet normal -0.16222819998455248 0.19338775889146873 0.9676172723968436
  outer loop
   vertex 158.02693252868642 14.899999999999979 0.99
   vertex 140.26624591564166 0.001 0.99
   vertex 143.8449724471164 0.001 1.5899999999999999
  endloop
 endfacet
 facet normal -0.16222819998455296 0.1933877588914691 0.9676172723968433
  outer loop
   vertex 158.86389255167043 12.59999999999998 1.5899999999999999
   vertex 158.02693252868642 14.899999999999979 0.99
   vertex 143.8449724471164 0.001 1.5899999999999999
  endloop
 endfacet
 facet normal -0.0 0.0 1.0
  outer loop
   vertex 158.86389255167043 12.59999999999998 1.5899999999999999
   vertex 180.6550275528837 0.001 1.5899999999999999
   vertex 165.63610744832962 12.59999999999998 1.5899999999999999
  endloop
 endfacet
 facet normal 0.0 0.0 1.0
  outer loop
   vertex 158.86389255167043 12.59999999999998 1.5899999999999999
   vertex 143.8449724471164 0.001 1.5899999999999999
   vertex 180.6550275528837 0.001 1.5899999999999999
  endloop
 endfacet
 facet normal 0.0 0.0 -1.0
  outer loop
   vertex 165.6361074483296 17.39999999999998 0
   vertex 158.86389255167052 17.39999999999998 0
   vertex 143.84497244711642 29.999 0
  endloop
 endfacet
 facet normal 0.0 0.0 -1.0
  outer loop
   vertex 165.6361074483296 17.39999999999998 0
   vertex 143.84497244711642 29.999 0
   vertex 180.6550275528837 29.999 0
  endloop
 endfacet
 facet normal 0.0 -0.2524218971470027 -0.9676172723968439
  outer loop
   vertex 158.86389255167052 17.39999999999998 0
   vertex 165.6361074483296 17.39999999999998 0
   vertex 166.4730674713136 15.09999999999998 0.6
  endloop
 endfacet
 facet normal 0.0 -0.25242189714700264 -0.9676172723968438
  outer loop
   vertex 158.02693252868644 15.09999999999998 0.6
   vertex 158.86389255167052 17.39999999999998 0
   vertex 166.4730674713136 15.09999999999998 0.6
  endloop
 endfacet
 facet normal -0.16222819998455035 -0.19338775889146617 -0.9676172723968443
  outer loop
   vertex 143.84497244711642 29.999 0
   vertex 158.86389255167052 17.39999999999998 0
   vertex 158.02693252868644 15.09999999999998 0.6
  endloop
 endfacet
 facet normal -0.1622281999845525 -0.19338775889146823 -0.9676172723968436
  outer loop
   vertex 140.2662459156417 29.999 0.6
   vertex 143.84497244711642 29.999 0
   vertex 158.02693252868644 15.09999999999998 0.6
  endloop
 endfacet
 facet normal 0.0 1.0 0.0
  outer loop
   vertex 180.6550275528837 29.999 0
   vertex 143.84497244711642 29.999 0
   vertex 140.2662459156417 29.999 0.6
  endloop
 endfacet
 facet normal 0.0 1.0 0.0
  outer loop
   vertex 184.23375408435842 29.999 0.6
   vertex 180.6550275528837 29.999 0
   vertex 140.2662459156417 29.999 0.6
  endloop
 endfacet
 facet normal 0.16222819998455246 -0.19338775889146867 -0.9676172723968435
  outer loop
   vertex 165.6361074483296 17.39999999999998 0
   vertex 180.6550275528837 29.999 0
   vertex 184.23375408435842 29.999 0.6
  endloop
 endfacet
 facet normal 0.16222819998455276 -0.1933877588914691 -0.9676172723968434
  outer loop
   vertex 166.4730674713136 15.09999999999998 0.6
   vertex 165.6361074483296 17.39999999999998 0
   vertex 184.23375408435842 29.999 0.6
  endloop
 endfacet
 facet normal 0.0 0.0 1.0
  outer loop
   vertex 166.4730674713136 15.09999999999998 0.6
   vertex 140.2662459156417 29.999 0.6
   vertex 158.02693252868644 15.09999999999998 0.6
  endloop
 endfacet
 facet normal 0.0 -0.0 1.0
  outer loop
   vertex 166.4730674713136 15.09999999999998 0.6
   vertex 184.23375408435842 29.999 0.6
   vertex 140.2662459156417 29.999 0.6
  endloop
 endfacet
 facet normal 0.0 0.0 -1.0
  outer loop
   vertex 166.4730674713136 15.09999999999998 0.99
   vertex 158.02693252868644 15.09999999999998 0.99
   vertex 140.2662459156417 29.999 0.99
  endloop
 endfacet
 facet normal 0.0 0.0 -1.0
  outer loop
   vertex 166.4730674713136 15.09999999999998 0.99
   vertex 140.2662459156417 29.999 0.99
   vertex 184.23375408435842 29.999 0.99
  endloop
 endfacet
 facet normal 0.0 -0.2524218971470026 0.9676172723968438
  outer loop
   vertex 158.02693252868644 15.09999999999998 0.99
   vertex 166.4730674713136 15.09999999999998 0.99
   vertex 165.6361074483296 17.39999999999998 1.5899999999999999
  endloop
 endfacet
 facet normal 0.0 -0.25242189714700264 0.9676172723968439
  outer loop
   vertex 158.86389255167052 17.39999999999998 1.5899999999999999
   vertex 158.02693252868644 15.09999999999998 0.99
   vertex 165.6361074483296 17.39999999999998 1.5899999999999999
  endloop
 endfacet
 facet normal -0.16222819998455065 -0.193387758891466 0.9676172723968444
  outer loop
   vertex 140.2662459156417 29.999 0.99
   vertex 158.02693252868644 15.09999999999998 0.99
   vertex 158.86389255167052 17.39999999999998 1.5899999999999999
  endloop
 endfacet
 facet normal -0.1622281999845524 -0.19338775889146864 0.9676172723968435
  outer loop
   vertex 143.84497244711642 29.999 1.5899999999999999
   vertex 140.2662459156417 29.999 0.99
   vertex 158.86389255167052 17.39999999999998 1.5899999999999999
  endloop
 endfacet
 facet normal 0.0 1.0 0.0
  outer loop
   vertex 184.23375408435842 29.999 0.99
   vertex 140.2662459156417 29.999 0.99
   vertex 143.84497244711642 29.999 1.5899999999999999
  endloop
 endfacet
 facet normal 0.0 1.0 0.0
  outer loop
   vertex 180.6550275528837 29.999 1.5899999999999999
   vertex 184.23375408435842 29.999 0.99
   vertex 143.84497244711642 29.999 1.5899999999999999
  endloop
 endfacet
 facet normal 0.16222819998455248 -0.1933877588914688 0.9676172723968434
  outer loop
   vertex 166.4730674713136 15.09999999999998 0.99
   vertex 184.23375408435842 29.999 0.99
   vertex 180.6550275528837 29.999 1.5899999999999999
  endloop
 endfacet
 facet normal 0.16222819998455276 -0.19338775889146909 0.9676172723968434
  outer loop
   vertex 165.6361074483296 17.39999999999998 1.5899999999999999
   vertex 166.4730674713136 15.09999999999998 0.99
   vertex 180.6550275528837 29.999 1.5899999999999999
  endloop
 endfacet
 facet normal 0.0 0.0 1.0
  outer loop
   vertex 165.6361074483296 17.39999999999998 1.5899999999999999
   vertex 143.84497244711642 29.999 1.5899999999999999
   vertex 158.86389255167052 17.39999999999998 1.5899999999999999
  endloop
 endfacet
 facet normal 0.0 -0.0 1.0
  outer loop
   vertex 165.6361074483296 17.39999999999998 1.5899999999999999
   vertex 180.6550275528837 29.999 1.5899999999999999
   vertex 143.84497244711642 29.999 1.5899999999999999
  endloop
 endfacet
 facet normal 0.0 0.0 -1.0
  outer loop
   vertex 173.1047541227117 12.600000000000005 0
   vertex 184.95047234684307 12.600000000000005 0
   vertex 197.5595092649958 0.001 0
  endloop
 endfacet
 facet normal 0.0 0.0 -1.0
  outer loop
   vertex 173.1047541227117 12.600000000000005 0
   vertex 197.5595092649958 0.001 0
   vertex 188.12367422726578 0.001 0
  endloop
 endfacet
 facet normal 0.0 0.2524218971470027 -0.9676172723968439
  outer loop
   vertex 184.95047234684307 12.600000000000005 0
   vertex 173.1047541227117 12.600000000000005 0
   vertex 166.78426108274627 14.900000000000006 0.6
  endloop
 endfacet
 facet normal 0.0 0.25242189714700264 -0.9676172723968439
  outer loop
   vertex 185.90262713547548 14.900000000000006 0.6
   vertex 184.95047234684307 12.600000000000005 0
   vertex 166.78426108274627 14.900000000000006 0.6
  endloop
 endfacet
 facet normal 0.1784181531658899 0.1785602889227187 -0.967617272396844
  outer loop
   vertex 197.5595092649958 0.001 0
   vertex 184.95047234684307 12.600000000000005 0
   vertex 185.90262713547548 14.900000000000006 0.6
  endloop
 endfacet
 facet normal 0.1784181531658898 0.17856028892271858 -0.967617272396844
  outer loop
   vertex 200.81349633490063 0.001 0.6
   vertex 197.5595092649958 0.001 0
   vertex 185.90262713547548 14.900000000000006 0.6
  endloop
 endfacet
 facet normal 0.0 -1.0 0.0
  outer loop
   vertex 188.12367422726578 0.001 0
   vertex 197.5595092649958 0.001 0
   vertex 200.81349633490063 0.001 0.6
  endloop
 endfacet
 facet normal 0.0 -1.0 0.0
  outer loop
   vertex 184.54494769579102 0.001 0.6
   vertex 188.12367422726578 0.001 0
   vertex 200.81349633490063 0.001 0.6
  endloop
 endfacet
 facet normal -0.16222819998455124 -0.1933877588914671 -0.9676172723968439
  outer loop
   vertex 173.1047541227117 12.600000000000005 0
   vertex 188.12367422726578 0.001 0
   vertex 184.54494769579102 0.001 0.6
  endloop
 endfacet
 facet normal -0.1622281999845519 -0.1933877588914677 -0.9676172723968437
  outer loop
   vertex 166.78426108274627 14.900000000000006 0.6
   vertex 173.1047541227117 12.600000000000005 0
   vertex 184.54494769579102 0.001 0.6
  endloop
 endfacet
 facet normal -0.0 0.0 1.0
  outer loop
   vertex 166.78426108274627 14.900000000000006 0.6
   vertex 200.81349633490063 0.001 0.6
   vertex 185.90262713547548 14.900000000000006 0.6
  endloop
 endfacet
 facet normal 0.0 0.0 1.0
  outer loop
   vertex 166.78426108274627 14.900000000000006 0.6
   vertex 184.54494769579102 0.001 0.6
   vertex 200.81349633490063 0.001 0.6
  endloop
 endfacet
 facet normal 0.0 0.0 -1.0
  outer loop
   vertex 166.78426108274627 14.900000000000006 0.99
   vertex 185.90262713547548 14.900000000000006 0.99
   vertex 200.81349633490063 0.001 0.99
  endloop
 endfacet
 facet normal 0.0 0.0 -1.0
  outer loop
   vertex 166.78426108274627 14.900000000000006 0.99
   vertex 200.81349633490063 0.001 0.99
   vertex 184.54494769579102 0.001 0.99
  endloop
 endfacet
 facet normal 0.0 0.25242189714700264 0.9676172723968439
  outer loop
   vertex 185.90262713547548 14.900000000000006 0.99
   vertex 166.78426108274627 14.900000000000006 0.99
   vertex 173.1047541227117 12.600000000000005 1.5899999999999999
  endloop
 endfacet
 facet normal 0.0 0.2524218971470026 0.9676172723968439
  outer loop
   vertex 184.95047234684307 12.600000000000005 1.5899999999999999
   vertex 185.90262713547548 14.900000000000006 0.99
   vertex 173.1047541227117 12.600000000000005 1.5899999999999999
  endloop
 endfacet
 facet normal 0.17841815316588985 0.17856028892271864 0.967617272396844
  outer loop
   vertex 200.81349633490063 0.001 0.99
   vertex 185.90262713547548 14.900000000000006 0.99
   vertex 184.95047234684307 12.600000000000005 1.5899999999999999
  endloop
 endfacet
 facet normal 0.1784181531658898 0.17856028892271855 0.967617272396844
  outer loop
   vertex 197.5595092649958 0.001 1.5899999999999999
   vertex 200.81349633490063 0.001 0.99
   vertex 184.95047234684307 12.600000000000005 1.5899999999999999
  endloop
 endfacet
 facet normal 0.0 -1.0 0.0
  outer loop
   vertex 184.54494769579102 0.001 0.99
   vertex 200.81349633490063 0.001 0.99
   vertex 197.5595092649958 0.001 1.5899999999999999
  endloop
 endfacet
 facet normal 0.0 -1.0 -0.0
  outer loop
   vertex 188.12367422726578 0.001 1.5899999999999999
   vertex 184.54494769579102 0.001 0.99
   vertex 197.5595092649958 0.001 1.5899999999999999
  endloop
 endfacet
 facet normal -0.1622281999845512 -0.19338775889146687 0.967617272396844
  outer loop
   vertex 166.78426108274627 14.900000000000006 0.99
   vertex 184.54494769579102 0.001 0.99
   vertex 188.12367422726578 0.001 1.5899999999999999
  endloop
 endfacet
 facet normal -0.162228199984552 -0.193387758891468 0.9676172723968438
  outer loop
   vertex 173.1047541227117 12.600000000000005 1.5899999999999999
   vertex 166.78426108274627 14.900000000000006 0.99
   vertex 188.12367422726578 0.001 1.5899999999999999
  endloop
 endfacet
 facet normal -0.0 0.0 1.0
  outer loop
   vertex 173.1047541227117 12.600000000000005 1.5899999999999999
   vertex 197.5595092649958 0.001 1.5899999999999999
   vertex 184.95047234684307 12.600000000000005 1.5899999999999999
  endloop
 endfacet
 facet normal 0.0 0.0 1.0
  outer loop
   vertex 173.1047541227117 12.600000000000005 1.5899999999999999
   vertex 188.12367422726578 0.001 1.5899999999999999
   vertex 197.5595092649958 0.001 1.5899999999999999
  endloop
 endfacet
 facet normal 0.0 0.0 -1.0
  outer loop
   vertex 184.9504723468431 17.400000000000006 0
   vertex 173.1047541227117 17.400000000000006 0
   vertex 188.12367422726572 29.99899999999998 0
  endloop
 endfacet
 facet normal 0.0 0.0 -1.0
  outer loop
   vertex 184.9504723468431 17.400000000000006 0
   vertex 188.12367422726572 29.99899999999998 0
   vertex 197.55950926499582 29.99899999999998 0
  endloop
 endfacet
 facet normal 0.0 -0.2524218971470027 -0.967617272396844
  outer loop
   vertex 173.1047541227117 17.400000000000006 0
   vertex 184.9504723468431 17.400000000000006 0
   vertex 185.9026271354755 15.100000000000005 0.6
  endloop
 endfacet
 facet normal 0.0 -0.2524218971470027 -0.967617272396844
  outer loop
   vertex 166.78426108274627 15.100000000000005 0.6
   vertex 173.1047541227117 17.400000000000006 0
   vertex 185.9026271354755 15.100000000000005 0.6
  endloop
 endfacet
 facet normal -0.16222819998455187 0.1933877588914676 -0.9676172723968439
  outer loop
   vertex 188.12367422726572 29.99899999999998 0
   vertex 173.1047541227117 17.400000000000006 0
   vertex 166.78426108274627 15.100000000000005 0.6
  endloop
 endfacet
 facet normal -0.16222819998455246 0.19338775889146845 -0.9676172723968436
  outer loop
   vertex 184.544947695791 29.99899999999998 0.6
   vertex 188.12367422726572 29.99899999999998 0
   vertex 166.78426108274627 15.100000000000005 0.6
  endloop
 endfacet
 facet normal 0.0 1.0 0.0
  outer loop
   vertex 197.55950926499582 29.99899999999998 0
   vertex 188.12367422726572 29.99899999999998 0
   vertex 184.544947695791 29.99899999999998 0.6
  endloop
 endfacet
 facet normal 0.0 1.0 0.0
  outer loop
   vertex 200.81349633490063 29.99899999999998 0.6
   vertex 197.55950926499582 29.99899999999998 0
   vertex 184.544947695791 29.99899999999998 0.6
  endloop
 endfacet
 facet normal 0.17841815316589127 -0.17856028892272044 -0.9676172723968435
  outer loop
   vertex 184.9504723468431 17.400000000000006 0
   vertex 197.55950926499582 29.99899999999998 0
   vertex 200.81349633490063 29.99899999999998 0.6
  endloop
 endfacet
 facet normal 0.17841815316588985 -0.17856028892271866 -0.9676172723968439
  outer loop
   vertex 185.9026271354755 15.100000000000005 0.6
   vertex 184.9504723468431 17.400000000000006 0
   vertex 200.81349633490063 29.99899999999998 0.6
  endloop
 endfacet
 facet normal 0.0 0.0 1.0
  outer loop
   vertex 185.9026271354755 15.100000000000005 0.6
   vertex 184.544947695791 29.99899999999998 0.6
   vertex 166.78426108274627 15.100000000000005 0.6
  endloop
 endfacet
 facet normal 0.0 -0.0 1.0
  outer loop
   vertex 185.9026271354755 15.100000000000005 0.6
   vertex 200.81349633490063 29.99899999999998 0.6
   vertex 184.544947695791 29.99899999999998 0.6
  endloop
 endfacet
 facet normal 0.0 0.0 -1.0
  outer loop
   vertex 185.9026271354755 15.100000000000005 0.99
   vertex 166.78426108274627 15.100000000000005 0.99
   vertex 184.544947695791 29.99899999999998 0.99
  endloop
 endfacet
 facet normal 0.0 0.0 -1.0
  outer loop
   vertex 185.9026271354755 15.100000000000005 0.99
   vertex 184.544947695791 29.99899999999998 0.99
   vertex 200.81349633490063 29.99899999999998 0.99
  endloop
 endfacet
 facet normal 0.0 -0.25242189714700264 0.967617272396844
  outer loop
   vertex 166.78426108274627 15.100000000000005 0.99
   vertex 185.9026271354755 15.100000000000005 0.99
   vertex 184.9504723468431 17.400000000000006 1.5899999999999999
  endloop
 endfacet
 facet normal 0.0 -0.25242189714700264 0.967617272396844
  outer loop
   vertex 173.1047541227117 17.400000000000006 1.5899999999999999
   vertex 166.78426108274627 15.100000000000005 0.99
   vertex 184.9504723468431 17.400000000000006 1.5899999999999999
  endloop
 endfacet
 facet normal -0.16222819998455187 0.19338775889146773 0.9676172723968438
  outer loop
   vertex 184.544947695791 29.99899999999998 0.99
   vertex 166.78426108274627 15.100000000000005 0.99
   vertex 173.1047541227117 17.400000000000006 1.5899999999999999
  endloop
 endfacet
 facet normal -0.16222819998455246 0.19338775889146828 0.9676172723968436
  outer loop
   vertex 188.12367422726572 29.99899999999998 1.5899999999999999
   vertex 184.544947695791 29.99899999999998 0.99
   vertex 173.1047541227117 17.400000000000006 1.5899999999999999
  endloop
 endfacet
 facet normal 0.0 1.0 0.0
  outer loop
   vertex 200.81349633490063 29.99899999999998 0.99
   vertex 184.544947695791 29.99899999999998 0.99
   vertex 188.12367422726572 29.99899999999998 1.5899999999999999
  endloop
 endfacet
 facet normal 0.0 1.0 0.0
  outer loop
   vertex 197.55950926499582 29.99899999999998 1.5899999999999999
   vertex 200.81349633490063 29.99899999999998 0.99
   vertex 188.12367422726572 29.99899999999998 1.5899999999999999
  endloop
 endfacet
 facet normal 0.1784181531658913 -0.1785602889227201 0.9676172723968435
  outer loop
   vertex 185.9026271354755 15.100000000000005 0.99
   vertex 200.81349633490063 29.99899999999998 0.99
   vertex 197.55950926499582 29.99899999999998 1.5899999999999999
  endloop
 endfacet
 facet normal 0.17841815316588958 -0.17856028892271875 0.9676172723968441
  outer loop
   vertex 184.9504723468431 17.400000000000006 1.5899999999999999
   vertex 185.9026271354755 15.100000000000005 0.99
   vertex 197.55950926499582 29.99899999999998 1.5899999999999999
  endloop
 endfacet
 facet normal 0.0 -0.0 1.0
  outer loop
   vertex 184.9504723468431 17.400000000000006 1.5899999999999999
   vertex 188.12367422726572 29.99899999999998 1.5899999999999999
   vertex 173.1047541227117 17.400000000000006 1.5899999999999999
  endloop
 endfacet
 facet normal 0.0 0.0 1.0
  outer loop
   vertex 184.9504723468431 17.400000000000006 1.5899999999999999
   vertex 197.55950926499582 29.99899999999998 1.5899999999999999
   vertex 188.12367422726572 29.99899999999998 1.5899999999999999
  endloop
 endfacet
 facet normal 0.0 0.0 -1.0
  outer loop
   vertex 191.74140188403575 12.600000000000003 0
   vertex 218.4470888149712 12.600000000000003 0
   vertex 218.43705589156156 0.001 0
  endloop
 endfacet
 facet normal 0.0 0.0 -1.0
  outer loop
   vertex 191.74140188403575 12.600000000000003 0
   vertex 218.43705589156156 0.001 0
   vertex 204.35043880218848 0.001 0
  endloop
 endfacet
 facet normal 0.0 0.2524218971470027 -0.9676172723968439
  outer loop
   vertex 218.4470888149712 12.600000000000003 0
   vertex 191.74140188403575 12.600000000000003 0
   vertex 186.1855825328585 14.900000000000004 0.6
  endloop
 endfacet
 facet normal 1.3897860342805474e-17 0.25242189714700286 -0.9676172723968438
  outer loop
   vertex 218.44892036698664 14.900000000000002 0.6
   vertex 218.4470888149712 12.600000000000003 0
   vertex 186.1855825328585 14.900000000000004 0.6
  endloop
 endfacet
 facet normal 0.9999996829318346 -0.0007963267107336159 -2.9288853147737345e-14
  outer loop
   vertex 218.43705589156156 0.001 0
   vertex 218.4470888149712 12.600000000000003 0
   vertex 218.44892036698664 14.900000000000002 0.6
  endloop
 endfacet
 facet normal 0.9999996829318345 -0.0007963267107347954 0.0
  outer loop
   vertex 218.43705589156156 0.001 0.6
   vertex 218.43705589156156 0.001 0
   vertex 218.44892036698664 14.900000000000002 0.6
  endloop
 endfacet
 facet normal 0.0 -1.0 0.0
  outer loop
   vertex 204.35043880218848 0.001 0
   vertex 218.43705589156156 0.001 0
   vertex 218.43705589156156 0.001 0.6
  endloop
 endfacet
 facet normal 0.0 -1.0 0.0
  outer loop
   vertex 201.09645173228364 0.001 0.6
   vertex 204.35043880218848 0.001 0
   vertex 218.43705589156156 0.001 0.6
  endloop
 endfacet
 facet normal -0.1784181531658898 -0.17856028892271858 -0.9676172723968441
  outer loop
   vertex 191.74140188403575 12.600000000000003 0
   vertex 204.35043880218848 0.001 0
   vertex 201.09645173228364 0.001 0.6
  endloop
 endfacet
 facet normal -0.17841815316588974 -0.17856028892271852 -0.967617272396844
  outer loop
   vertex 186.1855825328585 14.900000000000004 0.6
   vertex 191.74140188403575 12.600000000000003 0
   vertex 201.09645173228364 0.001 0.6
  endloop
 endfacet
 facet normal 0.0 0.0 1.0
  outer loop
   vertex 186.1855825328585 14.900000000000004 0.6
   vertex 218.43705589156156 0.001 0.6
   vertex 218.44892036698664 14.900000000000002 0.6
  endloop
 endfacet
 facet normal 0.0 0.0 1.0
  outer loop
   vertex 186.1855825328585 14.900000000000004 0.6
   vertex 201.09645173228364 0.001 0.6
   vertex 218.43705589156156 0.001 0.6
  endloop
 endfacet
 facet normal 0.0 0.0 -1.0
  outer loop
   vertex 186.1855825328585 14.900000000000004 0.99
   vertex 218.44892036698664 14.900000000000002 0.99
   vertex 218.43705589156156 0.001 0.99
  endloop
 endfacet
 facet normal 0.0 0.0 -1.0
  outer loop
   vertex 186.1855825328585 14.900000000000004 0.99
   vertex 218.43705589156156 0.001 0.99
   vertex 201.09645173228364 0.001 0.99
  endloop
 endfacet
 facet normal 1.3897860342805465e-17 0.2524218971470027 0.9676172723968439
  outer loop
   vertex 218.44892036698664 14.900000000000002 0.99
   vertex 186.1855825328585 14.900000000000004 0.99
   vertex 191.74140188403575 12.600000000000003 1.5899999999999999
  endloop
 endfacet
 facet normal 0.0 0.2524218971470028 0.9676172723968438
  outer loop
   vertex 218.4470888149712 12.600000000000003 1.5899999999999999
   vertex 218.44892036698664 14.900000000000002 0.99
   vertex 191.74140188403575 12.600000000000003 1.5899999999999999
  endloop
 endfacet
 facet normal 0.9999996829318345 -0.0007963267107347953 2.4767451561067382e-14
  outer loop
   vertex 218.43705589156156 0.001 0.99
   vertex 218.44892036698664 14.900000000000002 0.99
   vertex 218.4470888149712 12.600000000000003 1.5899999999999999
  endloop
 endfacet
 facet normal 0.9999996829318347 -0.000796326710733616 0.0
  outer loop
   vertex 218.43705589156156 0.001 1.5899999999999999
   vertex 218.43705589156156 0.001 0.99
   vertex 218.4470888149712 12.600000000000003 1.5899999999999999
  endloop
 endfacet
 facet normal 0.0 -1.0 0.0
  outer loop
   vertex 201.09645173228364 0.001 0.99
   vertex 218.43705589156156 0.001 0.99
   vertex 218.43705589156156 0.001 1.5899999999999999
  endloop
 endfacet
 facet normal 0.0 -1.0 -0.0
  outer loop
   vertex 204.35043880218848 0.001 1.5899999999999999
   vertex 201.09645173228364 0.001 0.99
   vertex 218.43705589156156 0.001 1.5899999999999999
  endloop
 endfacet
 facet normal -0.17841815316588977 -0.17856028892271852 0.967617272396844
  outer loop
   vertex 186.1855825328585 14.900000000000004 0.99
   vertex 201.09645173228364 0.001 0.99
   vertex 204.35043880218848 0.001 1.5899999999999999
  endloop
 endfacet
 facet normal -0.1784181531658898 -0.17856028892271855 0.9676172723968441
  outer loop
   vertex 191.74140188403575 12.600000000000003 1.5899999999999999
   vertex 186.1855825328585 14.900000000000004 0.99
   vertex 204.35043880218848 0.001 1.5899999999999999
  endloop
 endfacet
 facet normal -0.0 0.0 1.0
  outer loop
   vertex 191.74140188403575 12.600000000000003 1.5899999999999999
   vertex 218.43705589156156 0.001 1.5899999999999999
   vertex 218.4470888149712 12.600000000000003 1.5899999999999999
  endloop
 endfacet
 facet normal 0.0 0.0 1.0
  outer loop
   vertex 191.74140188403575 12.600000000000003 1.5899999999999999
   vertex 204.35043880218848 0.001 1.5899999999999999
   vertex 218.43705589156156 0.001 1.5899999999999999
  endloop
 endfacet
 facet normal 0.0 0.0 -1.0
  outer loop
   vertex 218.4470888149712 17.400000000000002 0
   vertex 191.74140188403578 17.400000000000002 0
   vertex 204.35043880218853 29.99900000000002 0
  endloop
 endfacet
 facet normal 0.0 0.0 -1.0
  outer loop
   vertex 218.4470888149712 17.400000000000002 0
   vertex 204.35043880218853 29.99900000000002 0
   vertex 218.43705589156156 29.99900000000002 0
  endloop
 endfacet
 facet normal 0.0 -0.25242189714700286 -0.9676172723968438
  outer loop
   vertex 191.74140188403578 17.400000000000002 0
   vertex 218.4470888149712 17.400000000000002 0
   vertex 218.44892036698664 15.100000000000003 0.6
  endloop
 endfacet
 facet normal 0.0 -0.25242189714700286 -0.9676172723968439
  outer loop
   vertex 186.18558253285852 15.100000000000003 0.6
   vertex 191.74140188403578 17.400000000000002 0
   vertex 218.44892036698664 15.100000000000003 0.6
  endloop
 endfacet
 facet normal -0.17841815316588985 0.17856028892271883 -0.967617272396844
  outer loop
   vertex 204.35043880218853 29.99900000000002 0
   vertex 191.74140188403578 17.400000000000002 0
   vertex 186.18558253285852 15.100000000000003 0.6
  endloop
 endfacet
 facet normal -0.17841815316588983 0.1785602889227188 -0.967617272396844
  outer loop
   vertex 201.0964517322837 29.99900000000002 0.6
   vertex 204.35043880218853 29.99900000000002 0
   vertex 186.18558253285852 15.100000000000003 0.6
  endloop
 endfacet
 facet normal 0.0 1.0 0.0
  outer loop
   vertex 218.43705589156156 29.99900000000002 0
   vertex 204.35043880218853 29.99900000000002 0
   vertex 201.0964517322837 29.99900000000002 0.6
  endloop
 endfacet
 facet normal 0.0 1.0 0.0
  outer loop
   vertex 218.43705589156156 29.99900000000002 0.6
   vertex 218.43705589156156 29.99900000000002 0
   vertex 201.0964517322837 29.99900000000002 0.6
  endloop
 endfacet
 facet normal 0.9999996829318346 0.000796326710733615 0.0
  outer loop
   vertex 218.4470888149712 17.400000000000002 0
   vertex 218.43705589156156 29.99900000000002 0
   vertex 218.43705589156156 29.99900000000002 0.6
  endloop
 endfacet
 facet normal 0.9999996829318345 0.0007963267107347946 -2.4769003990023167e-14
  outer loop
   vertex 218.44892036698664 15.100000000000003 0.6
   vertex 218.4470888149712 17.400000000000002 0
   vertex 218.43705589156156 29.99900000000002 0.6
  endloop
 endfacet
 facet normal 0.0 0.0 1.0
  outer loop
   vertex 218.44892036698664 15.100000000000003 0.6
   vertex 201.0964517322837 29.99900000000002 0.6
   vertex 186.18558253285852 15.100000000000003 0.6
  endloop
 endfacet
 facet normal 0.0 0.0 1.0
  outer loop
   vertex 218.44892036698664 15.100000000000003 0.6
   vertex 218.43705589156156 29.99900000000002 0.6
   vertex 201.0964517322837 29.99900000000002 0.6
  endloop
 endfacet
 facet normal 0.0 0.0 -1.0
  outer loop
   vertex 218.44892036698664 15.100000000000003 0.99
   vertex 186.18558253285852 15.100000000000003 0.99
   vertex 201.0964517322837 29.99900000000002 0.99
  endloop
 endfacet
 facet normal 0.0 0.0 -1.0
  outer loop
   vertex 218.44892036698664 15.100000000000003 0.99
   vertex 201.0964517322837 29.99900000000002 0.99
   vertex 218.43705589156156 29.99900000000002 0.99
  endloop
 endfacet
 facet normal 0.0 -0.2524218971470028 0.9676172723968439
  outer loop
   vertex 186.18558253285852 15.100000000000003 0.99
   vertex 218.44892036698664 15.100000000000003 0.99
   vertex 218.4470888149712 17.400000000000002 1.5899999999999999
  endloop
 endfacet
 facet normal 0.0 -0.2524218971470028 0.9676172723968439
  outer loop
   vertex 191.74140188403578 17.400000000000002 1.5899999999999999
   vertex 186.18558253285852 15.100000000000003 0.99
   vertex 218.4470888149712 17.400000000000002 1.5899999999999999
  endloop
 endfacet
 facet normal -0.1784181531658898 0.1785602889227188 0.967617272396844
  outer loop
   vertex 201.0964517322837 29.99900000000002 0.99
   vertex 186.18558253285852 15.100000000000003 0.99
   vertex 191.74140188403578 17.400000000000002 1.5899999999999999
  endloop
 endfacet
 facet normal -0.1784181531658898 0.17856028892271877 0.967617272396844
  outer loop
   vertex 204.35043880218853 29.99900000000002 1.5899999999999999
   vertex 201.0964517322837 29.99900000000002 0.99
   vertex 191.74140188403578 17.400000000000002 1.5899999999999999
  endloop
 endfacet
 facet normal 0.0 1.0 0.0
  outer loop
   vertex 218.43705589156156 29.99900000000002 0.99
   vertex 201.0964517322837 29.99900000000002 0.99
   vertex 204.35043880218853 29.99900000000002 1.5899999999999999
  endloop
 endfacet
 facet normal 0.0 1.0 0.0
  outer loop
   vertex 218.43705589156156 29.99900000000002 1.5899999999999999
   vertex 218.43705589156156 29.99900000000002 0.99
   vertex 204.35043880218853 29.99900000000002 1.5899999999999999
  endloop
 endfacet
 facet normal 0.9999996829318347 0.0007963267107347947 0.0
  outer loop
   vertex 218.44892036698664 15.100000000000003 0.99
   vertex 218.43705589156156 29.99900000000002 0.99
   vertex 218.43705589156156 29.99900000000002 1.5899999999999999
  endloop
 endfacet
 facet normal 0.9999996829318347 0.0007963267107336152 2.929068897907415e-14
  outer loop
   vertex 218.4470888149712 17.400000000000002 1.5899999999999999
   vertex 218.44892036698664 15.100000000000003 0.99
   vertex 218.43705589156156 29.99900000000002 1.5899999999999999
  endloop
 endfacet
 facet normal 0.0 0.0 1.0
  outer loop
   vertex 218.4470888149712 17.400000000000002 1.5899999999999999
   vertex 204.35043880218853 29.99900000000002 1.5899999999999999
   vertex 191.74140188403578 17.400000000000002 1.5899999999999999
  endloop
 endfacet
 facet normal 0.0 0.0 1.0
  outer loop
   vertex 218.4470888149712 17.400000000000002 1.5899999999999999
   vertex 218.43705589156156 29.99900000000002 1.5899999999999999
   vertex 204.35043880218853 29.99900000000002 1.5899999999999999
  endloop
 endfacet
endsolid
