solid PyGamic generated __All_Units__ SLA File
 facet normal 0.0 0.0 -1.0
  outer loop
   vertex -0.0004333882167334809 10.2 0
   vertex 43.81137944537986 10.2 0
   vertex 37.92029731056841 0.001 0
  endloop
 endfacet
 facet normal 0.0 -0.0 -1.0
  outer loop
   vertex -0.0004333882167334809 10.2 0
   vertex 37.92029731056841 0.001 0
   vertex -0.008555126914646822 0.001 0
  endloop
 endfacet
 facet normal 0.0 0.20952908873087325 -0.9778024140774094
  outer loop
   vertex 43.81137944537986 10.2 0
   vertex -0.0004333882167334809 10.2 0
   vertex 0.0009044410814814837 11.88 0.36
  endloop
 endfacet
 facet normal 0.0 0.20952908873087328 -0.9778024140774095
  outer loop
   vertex 46.721888687698744 11.88 0.36
   vertex 43.81137944537986 10.2 0
   vertex 0.0009044410814814837 11.88 0.36
  endloop
 endfacet
 facet normal 0.18143681377095092 -0.10480038946986586 -0.9778024140774094
  outer loop
   vertex 37.92029731056841 0.001 0
   vertex 43.81137944537986 10.2 0
   vertex 46.721888687698744 11.88 0.36
  endloop
 endfacet
 facet normal 0.18143681377095 -0.1048003894698652 -0.9778024140774096
  outer loop
   vertex 39.860415535485274 0.001 0.36
   vertex 37.92029731056841 0.001 0
   vertex 46.721888687698744 11.88 0.36
  endloop
 endfacet
 facet normal 0.0 -1.0 0.0
  outer loop
   vertex -0.008555126914646822 0.001 0
   vertex 37.92029731056841 0.001 0
   vertex 39.860415535485274 0.001 0.36
  endloop
 endfacet
 facet normal 0.0 -1.0 0.0
  outer loop
   vertex -0.008555126914646822 0.001 0.36
   vertex -0.008555126914646822 0.001 0
   vertex 39.860415535485274 0.001 0.36
  endloop
 endfacet
 facet normal -0.9999996829318346 0.0007963267107332631 0.0
  outer loop
   vertex -0.0004333882167334809 10.2 0
   vertex -0.008555126914646822 0.001 0
   vertex -0.008555126914646822 0.001 0.36
  endloop
 endfacet
 facet normal -0.9999996829318346 0.0007963267107332633 0.0
  outer loop
   vertex 0.0009044410814814837 11.88 0.36
   vertex -0.0004333882167334809 10.2 0
   vertex -0.008555126914646822 0.001 0.36
  endloop
 endfacet
 facet normal -0.0 0.0 1.0
  outer loop
   vertex 0.0009044410814814837 11.88 0.36
   vertex 39.860415535485274 0.001 0.36
   vertex 46.721888687698744 11.88 0.36
  endloop
 endfacet
 facet normal 0.0 0.0 1.0
  outer loop
   vertex 0.0009044410814814837 11.88 0.36
   vertex -0.008555126914646822 0.001 0.36
   vertex 39.860415535485274 0.001 0.36
  endloop
 endfacet
 facet normal 0.0 0.0 -1.0
  outer loop
   vertex 0.0009044410814814837 11.88 0.72
   vertex 46.721888687698744 11.88 0.72
   vertex 39.860415535485274 0.001 0.72
  endloop
 endfacet
 facet normal 0.0 -0.0 -1.0
  outer loop
   vertex 0.0009044410814814837 11.88 0.72
   vertex 39.860415535485274 0.001 0.72
   vertex -0.008555126914646822 0.001 0.72
  endloop
 endfacet
 facet normal 0.0 0.20952908873087334 0.9778024140774095
  outer loop
   vertex 46.721888687698744 11.88 0.72
   vertex 0.0009044410814814837 11.88 0.72
   vertex -0.0004333882167334809 10.2 1.08
  endloop
 endfacet
 facet normal 0.0 0.2095290887308733 0.9778024140774094
  outer loop
   vertex 43.81137944537986 10.2 1.08
   vertex 46.721888687698744 11.88 0.72
   vertex -0.0004333882167334809 10.2 1.08
  endloop
 endfacet
 facet normal 0.18143681377095083 -0.10480038946986565 0.9778024140774095
  outer loop
   vertex 39.860415535485274 0.001 0.72
   vertex 46.721888687698744 11.88 0.72
   vertex 43.81137944537986 10.2 1.08
  endloop
 endfacet
 facet normal 0.18143681377095008 -0.10480038946986539 0.9778024140774098
  outer loop
   vertex 37.92029731056841 0.001 1.08
   vertex 39.860415535485274 0.001 0.72
   vertex 43.81137944537986 10.2 1.08
  endloop
 endfacet
 facet normal 0.0 -1.0 0.0
  outer loop
   vertex -0.008555126914646822 0.001 0.72
   vertex 39.860415535485274 0.001 0.72
   vertex 37.92029731056841 0.001 1.08
  endloop
 endfacet
 facet normal 0.0 -1.0 0.0
  outer loop
   vertex -0.008555126914646822 0.001 1.08
   vertex -0.008555126914646822 0.001 0.72
   vertex 37.92029731056841 0.001 1.08
  endloop
 endfacet
 facet normal -0.9999996829318346 0.0007963267107332632 0.0
  outer loop
   vertex 0.0009044410814814837 11.88 0.72
   vertex -0.008555126914646822 0.001 0.72
   vertex -0.008555126914646822 0.001 1.08
  endloop
 endfacet
 facet normal -0.9999996829318346 0.0007963267107332631 0.0
  outer loop
   vertex -0.0004333882167334809 10.2 1.08
   vertex 0.0009044410814814837 11.88 0.72
   vertex -0.008555126914646822 0.001 1.08
  endloop
 endfacet
 facet normal -0.0 0.0 1.0
  outer loop
   vertex -0.0004333882167334809 10.2 1.08
   vertex 37.92029731056841 0.001 1.08
   vertex 43.81137944537986 10.2 1.08
  endloop
 endfacet
 facet normal 0.0 0.0 1.0
  outer loop
   vertex -0.0004333882167334809 10.2 1.08
   vertex -0.008555126914646822 0.001 1.08
   vertex 37.92029731056841 0.001 1.08
  endloop
 endfacet
 facet normal 0.0 0.0 -1.0
  outer loop
   vertex 43.81137944537986 13.8 0
   vertex -0.0004333882167334809 13.800000000000002 0
   vertex -0.00855512691464682 23.999 0
  endloop
 endfacet
 facet normal 0.0 0.0 -1.0
  outer loop
   vertex 43.81137944537986 13.8 0
   vertex -0.00855512691464682 23.999 0
   vertex 37.92029731056841 23.998999999999995 0
  endloop
 endfacet
 facet normal -8.495389844607674e-18 -0.2095290887308733 -0.9778024140774094
  outer loop
   vertex -0.0004333882167334809 13.800000000000002 0
   vertex 43.81137944537986 13.8 0
   vertex 46.721888687698744 12.12 0.36
  endloop
 endfacet
 facet normal 0.0 -0.20952908873087306 -0.9778024140774095
  outer loop
   vertex 0.0009044410814814837 12.12 0.36
   vertex -0.0004333882167334809 13.800000000000002 0
   vertex 46.721888687698744 12.12 0.36
  endloop
 endfacet
 facet normal -0.9999996829318346 -0.0007963267107332632 0.0
  outer loop
   vertex -0.00855512691464682 23.999 0
   vertex -0.0004333882167334809 13.800000000000002 0
   vertex 0.0009044410814814837 12.12 0.36
  endloop
 endfacet
 facet normal -0.9999996829318346 -0.0007963267107332631 -0.0
  outer loop
   vertex -0.00855512691464682 23.999 0.36
   vertex -0.00855512691464682 23.999 0
   vertex 0.0009044410814814837 12.12 0.36
  endloop
 endfacet
 facet normal 9.366783992888602e-17 1.0 0.0
  outer loop
   vertex 37.92029731056841 23.998999999999995 0
   vertex -0.00855512691464682 23.999 0
   vertex -0.00855512691464682 23.999 0.36
  endloop
 endfacet
 facet normal 8.910974173083015e-17 1.0 -4.802317609711626e-16
  outer loop
   vertex 39.860415535485274 23.998999999999995 0.36
   vertex 37.92029731056841 23.998999999999995 0
   vertex -0.00855512691464682 23.999 0.36
  endloop
 endfacet
 facet normal 0.18143681377095 0.1048003894698654 -0.9778024140774098
  outer loop
   vertex 43.81137944537986 13.8 0
   vertex 37.92029731056841 23.998999999999995 0
   vertex 39.860415535485274 23.998999999999995 0.36
  endloop
 endfacet
 facet normal 0.18143681377095083 0.10480038946986571 -0.9778024140774095
  outer loop
   vertex 46.721888687698744 12.12 0.36
   vertex 43.81137944537986 13.8 0
   vertex 39.860415535485274 23.998999999999995 0.36
  endloop
 endfacet
 facet normal 0.0 0.0 1.0
  outer loop
   vertex 46.721888687698744 12.12 0.36
   vertex -0.00855512691464682 23.999 0.36
   vertex 0.0009044410814814837 12.12 0.36
  endloop
 endfacet
 facet normal 0.0 0.0 1.0
  outer loop
   vertex 46.721888687698744 12.12 0.36
   vertex 39.860415535485274 23.998999999999995 0.36
   vertex -0.00855512691464682 23.999 0.36
  endloop
 endfacet
 facet normal 0.0 0.0 -1.0
  outer loop
   vertex 46.721888687698744 12.12 0.72
   vertex 0.0009044410814814837 12.12 0.72
   vertex -0.00855512691464682 23.999 0.72
  endloop
 endfacet
 facet normal 0.0 0.0 -1.0
  outer loop
   vertex 46.721888687698744 12.12 0.72
   vertex -0.00855512691464682 23.999 0.72
   vertex 39.860415535485274 23.998999999999995 0.72
  endloop
 endfacet
 facet normal 0.0 -0.20952908873087334 0.9778024140774095
  outer loop
   vertex 0.0009044410814814837 12.12 0.72
   vertex 46.721888687698744 12.12 0.72
   vertex 43.81137944537986 13.8 1.08
  endloop
 endfacet
 facet normal -8.49538984460767e-18 -0.20952908873087314 0.9778024140774096
  outer loop
   vertex -0.0004333882167334809 13.800000000000002 1.08
   vertex 0.0009044410814814837 12.12 0.72
   vertex 43.81137944537986 13.8 1.08
  endloop
 endfacet
 facet normal -0.9999996829318346 -0.0007963267107332632 0.0
  outer loop
   vertex -0.00855512691464682 23.999 0.72
   vertex 0.0009044410814814837 12.12 0.72
   vertex -0.0004333882167334809 13.800000000000002 1.08
  endloop
 endfacet
 facet normal -0.9999996829318346 -0.0007963267107332633 -0.0
  outer loop
   vertex -0.00855512691464682 23.999 1.08
   vertex -0.00855512691464682 23.999 0.72
   vertex -0.0004333882167334809 13.800000000000002 1.08
  endloop
 endfacet
 facet normal 8.910974173083015e-17 1.0 0.0
  outer loop
   vertex 39.860415535485274 23.998999999999995 0.72
   vertex -0.00855512691464682 23.999 0.72
   vertex -0.00855512691464682 23.999 1.08
  endloop
 endfacet
 facet normal 9.366783992888602e-17 1.0 5.047963425961872e-16
  outer loop
   vertex 37.92029731056841 23.998999999999995 1.08
   vertex 39.860415535485274 23.998999999999995 0.72
   vertex -0.00855512691464682 23.999 1.08
  endloop
 endfacet
 facet normal 0.1814368137709501 0.1048003894698653 0.9778024140774098
  outer loop
   vertex 46.721888687698744 12.12 0.72
   vertex 39.860415535485274 23.998999999999995 0.72
   vertex 37.92029731056841 23.998999999999995 1.08
  endloop
 endfacet
 facet normal 0.181436813770951 0.10480038946986596 0.9778024140774094
  outer loop
   vertex 43.81137944537986 13.8 1.08
   vertex 46.721888687698744 12.12 0.72
   vertex 37.92029731056841 23.998999999999995 1.08
  endloop
 endfacet
 facet normal 0.0 0.0 1.0
  outer loop
   vertex 43.81137944537986 13.8 1.08
   vertex -0.00855512691464682 23.999 1.08
   vertex -0.0004333882167334809 13.800000000000002 1.08
  endloop
 endfacet
 facet normal 0.0 0.0 1.0
  outer loop
   vertex 43.81137944537986 13.8 1.08
   vertex 37.92029731056841 23.998999999999995 1.08
   vertex -0.00855512691464682 23.999 1.08
  endloop
 endfacet
 facet normal 0.0 0.0 -1.0
  outer loop
   vertex 46.664675465377194 7.942262390298376 0
   vertex 46.662322256476756 0.001 0
   vertex 42.077693506818825 0.001 0
  endloop
 endfacet
 facet normal 0.0 0.091043367999461 -0.9958469285705082
  outer loop
   vertex 48.345842396336415 11.88 0.36
   vertex 46.664675465377194 7.942262390298376 0
   vertex 46.99904843411544 11.88 0.36
  endloop
 endfacet
 facet normal 0.2095290795315445 -6.208908239280781e-05 -0.9778024140774094
  outer loop
   vertex 46.662322256476756 0.001 0
   vertex 46.664675465377194 7.942262390298376 0
   vertex 48.345842396336415 11.88 0.36
  endloop
 endfacet
 facet normal 0.2095290795315431 -6.208908239260037e-05 -0.9778024140774098
  outer loop
   vertex 48.342322330236804 0.001 0.36
   vertex 46.662322256476756 0.001 0
   vertex 48.345842396336415 11.88 0.36
  endloop
 endfacet
 facet normal 0.0 -1.0 0.0
  outer loop
   vertex 42.077693506818825 0.001 0
   vertex 46.662322256476756 0.001 0
   vertex 48.342322330236804 0.001 0.36
  endloop
 endfacet
 facet normal 0.0 -1.0 0.0
  outer loop
   vertex 40.13757528190196 0.001 0.36
   vertex 42.077693506818825 0.001 0
   vertex 48.342322330236804 0.001 0.36
  endloop
 endfacet
 facet normal -0.18143681377095003 0.10480038946986517 -0.9778024140774098
  outer loop
   vertex 46.664675465377194 7.942262390298376 0
   vertex 42.077693506818825 0.001 0
   vertex 40.13757528190196 0.001 0.36
  endloop
 endfacet
 facet normal -0.18143681377095058 0.10480038946986564 -0.9778024140774095
  outer loop
   vertex 46.99904843411544 11.88 0.36
   vertex 46.664675465377194 7.942262390298376 0
   vertex 40.13757528190196 0.001 0.36
  endloop
 endfacet
 facet normal -0.0 0.0 1.0
  outer loop
   vertex 46.99904843411544 11.88 0.36
   vertex 48.342322330236804 0.001 0.36
   vertex 48.345842396336415 11.88 0.36
  endloop
 endfacet
 facet normal 0.0 0.0 1.0
  outer loop
   vertex 46.99904843411544 11.88 0.36
   vertex 40.13757528190196 0.001 0.36
   vertex 48.342322330236804 0.001 0.36
  endloop
 endfacet
 facet normal 0.0 0.0 -1.0
  outer loop
   vertex 46.99904843411544 11.88 0.72
   vertex 48.345842396336415 11.88 0.72
   vertex 48.342322330236804 0.001 0.72
  endloop
 endfacet
 facet normal 0.0 -0.0 -1.0
  outer loop
   vertex 46.99904843411544 11.88 0.72
   vertex 48.342322330236804 0.001 0.72
   vertex 40.13757528190196 0.001 0.72
  endloop
 endfacet
 facet normal 0.0 0.09104336799946101 0.9958469285705082
  outer loop
   vertex 48.345842396336415 11.88 0.72
   vertex 46.99904843411544 11.88 0.72
   vertex 46.664675465377194 7.942262390298376 1.08
  endloop
 endfacet
 facet normal 0.2095290795315441 -6.208908239260067e-05 0.9778024140774094
  outer loop
   vertex 48.342322330236804 0.001 0.72
   vertex 48.345842396336415 11.88 0.72
   vertex 46.664675465377194 7.942262390298376 1.08
  endloop
 endfacet
 facet normal 0.20952907953154318 -6.208908239280742e-05 0.9778024140774096
  outer loop
   vertex 46.662322256476756 0.001 1.08
   vertex 48.342322330236804 0.001 0.72
   vertex 46.664675465377194 7.942262390298376 1.08
  endloop
 endfacet
 facet normal 0.0 -1.0 0.0
  outer loop
   vertex 40.13757528190196 0.001 0.72
   vertex 48.342322330236804 0.001 0.72
   vertex 46.662322256476756 0.001 1.08
  endloop
 endfacet
 facet normal 0.0 -1.0 -0.0
  outer loop
   vertex 42.077693506818825 0.001 1.08
   vertex 40.13757528190196 0.001 0.72
   vertex 46.662322256476756 0.001 1.08
  endloop
 endfacet
 facet normal -0.18143681377095014 0.10480038946986538 0.9778024140774098
  outer loop
   vertex 46.99904843411544 11.88 0.72
   vertex 40.13757528190196 0.001 0.72
   vertex 42.077693506818825 0.001 1.08
  endloop
 endfacet
 facet normal -0.18143681377095092 0.10480038946986568 0.9778024140774095
  outer loop
   vertex 46.664675465377194 7.942262390298376 1.08
   vertex 46.99904843411544 11.88 0.72
   vertex 42.077693506818825 0.001 1.08
  endloop
 endfacet
 facet normal 0.0 0.0 1.0
  outer loop
   vertex 46.664675465377194 7.942262390298376 1.08
   vertex 42.077693506818825 0.001 1.08
   vertex 46.662322256476756 0.001 1.08
  endloop
 endfacet
 facet normal 0.0 0.0 -1.0
  outer loop
   vertex 46.664675465377194 16.05773760970163 0
   vertex 42.077693506818825 23.99899999999999 0
   vertex 46.66232225647677 23.99899999999999 0
  endloop
 endfacet
 facet normal 0.0 -0.09104336799946088 -0.9958469285705082
  outer loop
   vertex 46.99904843411544 12.12 0.36
   vertex 46.664675465377194 16.05773760970163 0
   vertex 48.34584239633642 12.12 0.36
  endloop
 endfacet
 facet normal -0.18143681377095028 -0.1048003894698655 -0.9778024140774096
  outer loop
   vertex 42.077693506818825 23.99899999999999 0
   vertex 46.664675465377194 16.05773760970163 0
   vertex 46.99904843411544 12.12 0.36
  endloop
 endfacet
 facet normal -0.18143681377095006 -0.1048003894698654 -0.9778024140774098
  outer loop
   vertex 40.13757528190196 23.99899999999999 0.36
   vertex 42.077693506818825 23.99899999999999 0
   vertex 46.99904843411544 12.12 0.36
  endloop
 endfacet
 facet normal 0.0 1.0 0.0
  outer loop
   vertex 46.66232225647677 23.99899999999999 0
   vertex 42.077693506818825 23.99899999999999 0
   vertex 40.13757528190196 23.99899999999999 0.36
  endloop
 endfacet
 facet normal 0.0 1.0 0.0
  outer loop
   vertex 48.34232233023681 23.99899999999999 0.36
   vertex 46.66232225647677 23.99899999999999 0
   vertex 40.13757528190196 23.99899999999999 0.36
  endloop
 endfacet
 facet normal 0.20952907953154393 6.20890823924328e-05 -0.9778024140774094
  outer loop
   vertex 46.664675465377194 16.05773760970163 0
   vertex 46.66232225647677 23.99899999999999 0
   vertex 48.34232233023681 23.99899999999999 0.36
  endloop
 endfacet
 facet normal 0.20952907953154318 6.208908239260044e-05 -0.9778024140774095
  outer loop
   vertex 48.34584239633642 12.12 0.36
   vertex 46.664675465377194 16.05773760970163 0
   vertex 48.34232233023681 23.99899999999999 0.36
  endloop
 endfacet
 facet normal 0.0 0.0 1.0
  outer loop
   vertex 48.34584239633642 12.12 0.36
   vertex 40.13757528190196 23.99899999999999 0.36
   vertex 46.99904843411544 12.12 0.36
  endloop
 endfacet
 facet normal 0.0 0.0 1.0
  outer loop
   vertex 48.34584239633642 12.12 0.36
   vertex 48.34232233023681 23.99899999999999 0.36
   vertex 40.13757528190196 23.99899999999999 0.36
  endloop
 endfacet
 facet normal 0.0 0.0 -1.0
  outer loop
   vertex 48.34584239633642 12.12 0.72
   vertex 46.99904843411544 12.12 0.72
   vertex 40.13757528190196 23.99899999999999 0.72
  endloop
 endfacet
 facet normal 0.0 0.0 -1.0
  outer loop
   vertex 48.34584239633642 12.12 0.72
   vertex 40.13757528190196 23.99899999999999 0.72
   vertex 48.34232233023681 23.99899999999999 0.72
  endloop
 endfacet
 facet normal 0.0 -0.09104336799946092 0.9958469285705082
  outer loop
   vertex 46.99904843411544 12.12 0.72
   vertex 48.34584239633642 12.12 0.72
   vertex 46.664675465377194 16.05773760970163 1.08
  endloop
 endfacet
 facet normal -0.18143681377095022 -0.10480038946986552 0.9778024140774096
  outer loop
   vertex 40.13757528190196 23.99899999999999 0.72
   vertex 46.99904843411544 12.12 0.72
   vertex 46.664675465377194 16.05773760970163 1.08
  endloop
 endfacet
 facet normal -0.18143681377095008 -0.10480038946986539 0.9778024140774096
  outer loop
   vertex 42.077693506818825 23.99899999999999 1.08
   vertex 40.13757528190196 23.99899999999999 0.72
   vertex 46.664675465377194 16.05773760970163 1.08
  endloop
 endfacet
 facet normal 0.0 1.0 0.0
  outer loop
   vertex 48.34232233023681 23.99899999999999 0.72
   vertex 40.13757528190196 23.99899999999999 0.72
   vertex 42.077693506818825 23.99899999999999 1.08
  endloop
 endfacet
 facet normal 0.0 1.0 0.0
  outer loop
   vertex 46.66232225647677 23.99899999999999 1.08
   vertex 48.34232233023681 23.99899999999999 0.72
   vertex 42.077693506818825 23.99899999999999 1.08
  endloop
 endfacet
 facet normal 0.20952907953154398 6.208908239260068e-05 0.9778024140774094
  outer loop
   vertex 48.34584239633642 12.12 0.72
   vertex 48.34232233023681 23.99899999999999 0.72
   vertex 46.66232225647677 23.99899999999999 1.08
  endloop
 endfacet
 facet normal 0.20952907953154287 6.208908239243248e-05 0.9778024140774098
  outer loop
   vertex 46.664675465377194 16.05773760970163 1.08
   vertex 48.34584239633642 12.12 0.72
   vertex 46.66232225647677 23.99899999999999 1.08
  endloop
 endfacet
 facet normal 0.0 0.0 1.0
  outer loop
   vertex 46.664675465377194 16.05773760970163 1.08
   vertex 46.66232225647677 23.99899999999999 1.08
   vertex 42.077693506818825 23.99899999999999 1.08
  endloop
 endfacet
 facet normal 0.0 0.0 -1.0
  outer loop
   vertex 50.265403916964324 10.4 0
   vertex 115.78039608303565 10.4 0
   vertex 115.78347758546599 0.001 0
  endloop
 endfacet
 facet normal 0.0 -0.0 -1.0
  outer loop
   vertex 50.265403916964324 10.4 0
   vertex 115.78347758546599 0.001 0
   vertex 50.262322414534 0.001 0
  endloop
 endfacet
 facet normal 0.0 1.0 0.0
  outer loop
   vertex 115.78039608303565 10.4 0
   vertex 50.265403916964324 10.4 0
   vertex 48.58540384320428 10.4 0.36
  endloop
 endfacet
 facet normal 0.0 1.0 0.0
  outer loop
   vertex 117.4603961567957 10.4 0.36
   vertex 115.78039608303565 10.4 0
   vertex 48.58540384320428 10.4 0.36
  endloop
 endfacet
 facet normal 0.20952907953154395 6.208908239273293e-05 -0.9778024140774094
  outer loop
   vertex 115.78347758546599 0.001 0
   vertex 115.78039608303565 10.4 0
   vertex 117.4603961567957 10.4 0.36
  endloop
 endfacet
 facet normal 0.20952907953154223 6.208908239301877e-05 -0.9778024140774099
  outer loop
   vertex 117.46347765922604 0.001 0.36
   vertex 115.78347758546599 0.001 0
   vertex 117.4603961567957 10.4 0.36
  endloop
 endfacet
 facet normal 0.0 -1.0 0.0
  outer loop
   vertex 50.262322414534 0.001 0
   vertex 115.78347758546599 0.001 0
   vertex 117.46347765922604 0.001 0.36
  endloop
 endfacet
 facet normal 0.0 -1.0 0.0
  outer loop
   vertex 48.582322340773956 0.001 0.36
   vertex 50.262322414534 0.001 0
   vertex 117.46347765922604 0.001 0.36
  endloop
 endfacet
 facet normal -0.20952907953154395 6.208908239258976e-05 -0.9778024140774094
  outer loop
   vertex 50.265403916964324 10.4 0
   vertex 50.262322414534 0.001 0
   vertex 48.582322340773956 0.001 0.36
  endloop
 endfacet
 facet normal -0.20952907953154395 6.208908239258976e-05 -0.9778024140774094
  outer loop
   vertex 48.58540384320428 10.4 0.36
   vertex 50.265403916964324 10.4 0
   vertex 48.582322340773956 0.001 0.36
  endloop
 endfacet
 facet normal -0.0 0.0 1.0
  outer loop
   vertex 48.58540384320428 10.4 0.36
   vertex 117.46347765922604 0.001 0.36
   vertex 117.4603961567957 10.4 0.36
  endloop
 endfacet
 facet normal 0.0 0.0 1.0
  outer loop
   vertex 48.58540384320428 10.4 0.36
   vertex 48.582322340773956 0.001 0.36
   vertex 117.46347765922604 0.001 0.36
  endloop
 endfacet
 facet normal 0.0 0.0 -1.0
  outer loop
   vertex 48.58540384320428 10.4 0.72
   vertex 117.4603961567957 10.4 0.72
   vertex 117.46347765922604 0.001 0.72
  endloop
 endfacet
 facet normal 0.0 -0.0 -1.0
  outer loop
   vertex 48.58540384320428 10.4 0.72
   vertex 117.46347765922604 0.001 0.72
   vertex 48.582322340773956 0.001 0.72
  endloop
 endfacet
 facet normal 0.0 1.0 0.0
  outer loop
   vertex 117.4603961567957 10.4 0.72
   vertex 48.58540384320428 10.4 0.72
   vertex 50.265403916964324 10.4 1.08
  endloop
 endfacet
 facet normal 0.0 1.0 0.0
  outer loop
   vertex 115.78039608303565 10.4 1.08
   vertex 117.4603961567957 10.4 0.72
   vertex 50.265403916964324 10.4 1.08
  endloop
 endfacet
 facet normal 0.209529079531544 6.208908239301928e-05 0.9778024140774094
  outer loop
   vertex 117.46347765922604 0.001 0.72
   vertex 117.4603961567957 10.4 0.72
   vertex 115.78039608303565 10.4 1.08
  endloop
 endfacet
 facet normal 0.20952907953154232 6.208908239273244e-05 0.9778024140774099
  outer loop
   vertex 115.78347758546599 0.001 1.08
   vertex 117.46347765922604 0.001 0.72
   vertex 115.78039608303565 10.4 1.08
  endloop
 endfacet
 facet normal 0.0 -1.0 0.0
  outer loop
   vertex 48.582322340773956 0.001 0.72
   vertex 117.46347765922604 0.001 0.72
   vertex 115.78347758546599 0.001 1.08
  endloop
 endfacet
 facet normal 0.0 -1.0 -0.0
  outer loop
   vertex 50.262322414534 0.001 1.08
   vertex 48.582322340773956 0.001 0.72
   vertex 115.78347758546599 0.001 1.08
  endloop
 endfacet
 facet normal -0.209529079531544 6.208908239258979e-05 0.9778024140774094
  outer loop
   vertex 48.58540384320428 10.4 0.72
   vertex 48.582322340773956 0.001 0.72
   vertex 50.262322414534 0.001 1.08
  endloop
 endfacet
 facet normal -0.209529079531544 6.208908239258979e-05 0.9778024140774094
  outer loop
   vertex 50.265403916964324 10.4 1.08
   vertex 48.58540384320428 10.4 0.72
   vertex 50.262322414534 0.001 1.08
  endloop
 endfacet
 facet normal -0.0 0.0 1.0
  outer loop
   vertex 50.265403916964324 10.4 1.08
   vertex 115.78347758546599 0.001 1.08
   vertex 115.78039608303565 10.4 1.08
  endloop
 endfacet
 facet normal 0.0 0.0 1.0
  outer loop
   vertex 50.265403916964324 10.4 1.08
   vertex 50.262322414534 0.001 1.08
   vertex 115.78347758546599 0.001 1.08
  endloop
 endfacet
 facet normal 0.0 0.0 -1.0
  outer loop
   vertex 115.78039608303567 13.6 0
   vertex 50.26540391696433 13.6 0
   vertex 50.262322414534005 23.99899999999999 0
  endloop
 endfacet
 facet normal 0.0 0.0 -1.0
  outer loop
   vertex 115.78039608303567 13.6 0
   vertex 50.262322414534005 23.99899999999999 0
   vertex 115.783477585466 23.99899999999999 0
  endloop
 endfacet
 facet normal 0.0 -1.0 0.0
  outer loop
   vertex 50.26540391696433 13.6 0
   vertex 115.78039608303567 13.6 0
   vertex 117.46039615679572 13.6 0.36
  endloop
 endfacet
 facet normal 0.0 -1.0 0.0
  outer loop
   vertex 48.58540384320429 13.6 0.36
   vertex 50.26540391696433 13.6 0
   vertex 117.46039615679572 13.6 0.36
  endloop
 endfacet
 facet normal -0.20952907953154393 -6.208908239258982e-05 -0.9778024140774094
  outer loop
   vertex 50.262322414534005 23.99899999999999 0
   vertex 50.26540391696433 13.6 0
   vertex 48.58540384320429 13.6 0.36
  endloop
 endfacet
 facet normal -0.20952907953154393 -6.208908239258982e-05 -0.9778024140774094
  outer loop
   vertex 48.58232234077396 23.99899999999999 0.36
   vertex 50.262322414534005 23.99899999999999 0
   vertex 48.58540384320429 13.6 0.36
  endloop
 endfacet
 facet normal 0.0 1.0 0.0
  outer loop
   vertex 115.783477585466 23.99899999999999 0
   vertex 50.262322414534005 23.99899999999999 0
   vertex 48.58232234077396 23.99899999999999 0.36
  endloop
 endfacet
 facet normal 0.0 1.0 0.0
  outer loop
   vertex 117.46347765922606 23.99899999999999 0.36
   vertex 115.783477585466 23.99899999999999 0
   vertex 48.58232234077396 23.99899999999999 0.36
  endloop
 endfacet
 facet normal 0.20952907953154226 -6.208908239273248e-05 -0.9778024140774099
  outer loop
   vertex 115.78039608303567 13.6 0
   vertex 115.783477585466 23.99899999999999 0
   vertex 117.46347765922606 23.99899999999999 0.36
  endloop
 endfacet
 facet normal 0.20952907953154223 -6.208908239273248e-05 -0.9778024140774099
  outer loop
   vertex 117.46039615679572 13.6 0.36
   vertex 115.78039608303567 13.6 0
   vertex 117.46347765922606 23.99899999999999 0.36
  endloop
 endfacet
 facet normal 0.0 0.0 1.0
  outer loop
   vertex 117.46039615679572 13.6 0.36
   vertex 48.58232234077396 23.99899999999999 0.36
   vertex 48.58540384320429 13.6 0.36
  endloop
 endfacet
 facet normal 0.0 -0.0 1.0
  outer loop
   vertex 117.46039615679572 13.6 0.36
   vertex 117.46347765922606 23.99899999999999 0.36
   vertex 48.58232234077396 23.99899999999999 0.36
  endloop
 endfacet
 facet normal 0.0 0.0 -1.0
  outer loop
   vertex 117.46039615679572 13.6 0.72
   vertex 48.58540384320429 13.6 0.72
   vertex 48.58232234077396 23.99899999999999 0.72
  endloop
 endfacet
 facet normal 0.0 0.0 -1.0
  outer loop
   vertex 117.46039615679572 13.6 0.72
   vertex 48.58232234077396 23.99899999999999 0.72
   vertex 117.46347765922606 23.99899999999999 0.72
  endloop
 endfacet
 facet normal 0.0 -1.0 0.0
  outer loop
   vertex 48.58540384320429 13.6 0.72
   vertex 117.46039615679572 13.6 0.72
   vertex 115.78039608303567 13.6 1.08
  endloop
 endfacet
 facet normal 0.0 -1.0 -0.0
  outer loop
   vertex 50.26540391696433 13.6 1.08
   vertex 48.58540384320429 13.6 0.72
   vertex 115.78039608303567 13.6 1.08
  endloop
 endfacet
 facet normal -0.209529079531544 -6.208908239258983e-05 0.9778024140774094
  outer loop
   vertex 48.58232234077396 23.99899999999999 0.72
   vertex 48.58540384320429 13.6 0.72
   vertex 50.26540391696433 13.6 1.08
  endloop
 endfacet
 facet normal -0.209529079531544 -6.208908239258983e-05 0.9778024140774094
  outer loop
   vertex 50.262322414534005 23.99899999999999 1.08
   vertex 48.58232234077396 23.99899999999999 0.72
   vertex 50.26540391696433 13.6 1.08
  endloop
 endfacet
 facet normal 0.0 1.0 0.0
  outer loop
   vertex 117.46347765922606 23.99899999999999 0.72
   vertex 48.58232234077396 23.99899999999999 0.72
   vertex 50.262322414534005 23.99899999999999 1.08
  endloop
 endfacet
 facet normal 0.0 1.0 0.0
  outer loop
   vertex 115.783477585466 23.99899999999999 1.08
   vertex 117.46347765922606 23.99899999999999 0.72
   vertex 50.262322414534005 23.99899999999999 1.08
  endloop
 endfacet
 facet normal 0.20952907953154232 -6.208908239273248e-05 0.9778024140774099
  outer loop
   vertex 117.46039615679572 13.6 0.72
   vertex 117.46347765922606 23.99899999999999 0.72
   vertex 115.783477585466 23.99899999999999 1.08
  endloop
 endfacet
 facet normal 0.20952907953154232 -6.208908239273248e-05 0.9778024140774099
  outer loop
   vertex 115.78039608303567 13.6 1.08
   vertex 117.46039615679572 13.6 0.72
   vertex 115.783477585466 23.99899999999999 1.08
  endloop
 endfacet
 facet normal 0.0 0.0 1.0
  outer loop
   vertex 115.78039608303567 13.6 1.08
   vertex 50.262322414534005 23.99899999999999 1.08
   vertex 50.26540391696433 13.6 1.08
  endloop
 endfacet
 facet normal 0.0 -0.0 1.0
  outer loop
   vertex 115.78039608303567 13.6 1.08
   vertex 115.783477585466 23.99899999999999 1.08
   vertex 50.262322414534005 23.99899999999999 1.08
  endloop
 endfacet
 facet normal 0.0 0.0 -1.0
  outer loop
   vertex 119.38097919890156 8.432719950884346 0
   vertex 129.43219979468745 0.001 0
   vertex 119.38347774352323 0.001 0
  endloop
 endfacet
 facet normal -9.938663679606504e-16 0.1038653338125733 -0.9945913695744614
  outer loop
   vertex 117.88559815056439 11.879999999999837 0.36
   vertex 119.38097919890156 8.432719950884346 0
   vertex 117.69995760366356 11.879999999999836 0.36
  endloop
 endfacet
 facet normal 0.13466156182725125 0.1605263305213075 -0.9778024140774093
  outer loop
   vertex 129.43219979468745 0.001 0
   vertex 119.38097919890156 8.432719950884346 0
   vertex 117.88559815056439 11.879999999999837 0.36
  endloop
 endfacet
 facet normal 0.1346615618272505 0.16052633052130674 -0.9778024140774095
  outer loop
   vertex 132.04622613072118 0.001 0.36
   vertex 129.43219979468745 0.001 0
   vertex 117.88559815056439 11.879999999999837 0.36
  endloop
 endfacet
 facet normal 0.0 -1.0 0.0
  outer loop
   vertex 119.38347774352323 0.001 0
   vertex 129.43219979468745 0.001 0
   vertex 132.04622613072118 0.001 0.36
  endloop
 endfacet
 facet normal 0.0 -1.0 0.0
  outer loop
   vertex 117.70347766976317 0.001 0.36
   vertex 119.38347774352323 0.001 0
   vertex 132.04622613072118 0.001 0.36
  endloop
 endfacet
 facet normal -0.20952907953154226 -6.208908239329792e-05 -0.9778024140774099
  outer loop
   vertex 119.38097919890156 8.432719950884346 0
   vertex 119.38347774352323 0.001 0
   vertex 117.70347766976317 0.001 0.36
  endloop
 endfacet
 facet normal -0.2095290795315456 -6.208908239260197e-05 -0.9778024140774092
  outer loop
   vertex 117.69995760366356 11.879999999999836 0.36
   vertex 119.38097919890156 8.432719950884346 0
   vertex 117.70347766976317 0.001 0.36
  endloop
 endfacet
 facet normal -0.0 0.0 1.0
  outer loop
   vertex 117.69995760366356 11.879999999999836 0.36
   vertex 132.04622613072118 0.001 0.36
   vertex 117.88559815056439 11.879999999999837 0.36
  endloop
 endfacet
 facet normal 0.0 0.0 1.0
  outer loop
   vertex 117.69995760366356 11.879999999999836 0.36
   vertex 117.70347766976317 0.001 0.36
   vertex 132.04622613072118 0.001 0.36
  endloop
 endfacet
 facet normal 0.0 0.0 -1.0
  outer loop
   vertex 117.69995760366356 11.879999999999836 0.72
   vertex 117.88559815056439 11.879999999999837 0.72
   vertex 132.04622613072118 0.001 0.72
  endloop
 endfacet
 facet normal 0.0 0.0 -1.0
  outer loop
   vertex 117.69995760366356 11.879999999999836 0.72
   vertex 132.04622613072118 0.001 0.72
   vertex 117.70347766976317 0.001 0.72
  endloop
 endfacet
 facet normal -9.938663679606508e-16 0.10386533381257335 0.9945913695744614
  outer loop
   vertex 117.88559815056439 11.879999999999837 0.72
   vertex 117.69995760366356 11.879999999999836 0.72
   vertex 119.38097919890156 8.432719950884346 1.08
  endloop
 endfacet
 facet normal 0.1346615618272511 0.16052633052130744 0.9778024140774093
  outer loop
   vertex 132.04622613072118 0.001 0.72
   vertex 117.88559815056439 11.879999999999837 0.72
   vertex 119.38097919890156 8.432719950884346 1.08
  endloop
 endfacet
 facet normal 0.13466156182725053 0.16052633052130663 0.9778024140774095
  outer loop
   vertex 129.43219979468745 0.001 1.08
   vertex 132.04622613072118 0.001 0.72
   vertex 119.38097919890156 8.432719950884346 1.08
  endloop
 endfacet
 facet normal 0.0 -1.0 0.0
  outer loop
   vertex 117.70347766976317 0.001 0.72
   vertex 132.04622613072118 0.001 0.72
   vertex 129.43219979468745 0.001 1.08
  endloop
 endfacet
 facet normal 0.0 -1.0 -0.0
  outer loop
   vertex 119.38347774352323 0.001 1.08
   vertex 117.70347766976317 0.001 0.72
   vertex 129.43219979468745 0.001 1.08
  endloop
 endfacet
 facet normal -0.20952907953154232 -6.2089082392601e-05 0.9778024140774099
  outer loop
   vertex 117.69995760366356 11.879999999999836 0.72
   vertex 117.70347766976317 0.001 0.72
   vertex 119.38347774352323 0.001 1.08
  endloop
 endfacet
 facet normal -0.209529079531547 -6.208908239329932e-05 0.9778024140774088
  outer loop
   vertex 119.38097919890156 8.432719950884346 1.08
   vertex 117.69995760366356 11.879999999999836 0.72
   vertex 119.38347774352323 0.001 1.08
  endloop
 endfacet
 facet normal 0.0 0.0 1.0
  outer loop
   vertex 119.38097919890156 8.432719950884346 1.08
   vertex 119.38347774352323 0.001 1.08
   vertex 129.43219979468745 0.001 1.08
  endloop
 endfacet
 facet normal 0.0 0.0 -1.0
  outer loop
   vertex 119.3809791989016 15.56728004911565 0
   vertex 119.38347774352324 23.99899999999999 0
   vertex 129.43219979468748 23.998999999999995 0
  endloop
 endfacet
 facet normal 9.938663679625444e-16 -0.1038653338125645 -0.9945913695744621
  outer loop
   vertex 117.69995760366358 12.119999999999834 0.36
   vertex 119.3809791989016 15.56728004911565 0
   vertex 117.88559815056404 12.119999999999836 0.36
  endloop
 endfacet
 facet normal -0.2095290795315422 6.208908239259166e-05 -0.9778024140774099
  outer loop
   vertex 119.38347774352324 23.99899999999999 0
   vertex 119.3809791989016 15.56728004911565 0
   vertex 117.69995760366358 12.119999999999834 0.36
  endloop
 endfacet
 facet normal -0.20952907953154223 6.208908239259929e-05 -0.9778024140774098
  outer loop
   vertex 117.70347766976319 23.99899999999999 0.36
   vertex 119.38347774352324 23.99899999999999 0
   vertex 117.69995760366358 12.119999999999834 0.36
  endloop
 endfacet
 facet normal -3.5354880558059493e-16 1.0 -1.649894498481053e-15
  outer loop
   vertex 129.43219979468748 23.998999999999995 0
   vertex 119.38347774352324 23.99899999999999 0
   vertex 117.70347766976319 23.99899999999999 0.36
  endloop
 endfacet
 facet normal -2.4770103780814674e-16 1.0 1.7986028785927297e-15
  outer loop
   vertex 132.0462261307212 23.998999999999995 0.36
   vertex 129.43219979468748 23.998999999999995 0
   vertex 117.70347766976319 23.99899999999999 0.36
  endloop
 endfacet
 facet normal 0.13466156182725048 -0.16052633052130635 -0.9778024140774095
  outer loop
   vertex 119.3809791989016 15.56728004911565 0
   vertex 129.43219979468748 23.998999999999995 0
   vertex 132.0462261307212 23.998999999999995 0.36
  endloop
 endfacet
 facet normal 0.13466156182725159 -0.16052633052130807 -0.9778024140774091
  outer loop
   vertex 117.88559815056404 12.119999999999836 0.36
   vertex 119.3809791989016 15.56728004911565 0
   vertex 132.0462261307212 23.998999999999995 0.36
  endloop
 endfacet
 facet normal 0.0 0.0 1.0
  outer loop
   vertex 117.88559815056404 12.119999999999836 0.36
   vertex 117.70347766976319 23.99899999999999 0.36
   vertex 117.69995760366358 12.119999999999834 0.36
  endloop
 endfacet
 facet normal 0.0 -0.0 1.0
  outer loop
   vertex 117.88559815056404 12.119999999999836 0.36
   vertex 132.0462261307212 23.998999999999995 0.36
   vertex 117.70347766976319 23.99899999999999 0.36
  endloop
 endfacet
 facet normal -0.0 0.0 -1.0
  outer loop
   vertex 117.88559815056404 12.119999999999836 0.72
   vertex 117.69995760366358 12.119999999999834 0.72
   vertex 117.70347766976319 23.99899999999999 0.72
  endloop
 endfacet
 facet normal 0.0 0.0 -1.0
  outer loop
   vertex 117.88559815056404 12.119999999999836 0.72
   vertex 117.70347766976319 23.99899999999999 0.72
   vertex 132.0462261307212 23.998999999999995 0.72
  endloop
 endfacet
 facet normal 9.938663679625446e-16 -0.10386533381256455 0.9945913695744621
  outer loop
   vertex 117.69995760366358 12.119999999999834 0.72
   vertex 117.88559815056404 12.119999999999836 0.72
   vertex 119.3809791989016 15.56728004911565 1.08
  endloop
 endfacet
 facet normal -0.2095290795315423 6.208908239259932e-05 0.9778024140774098
  outer loop
   vertex 117.70347766976319 23.99899999999999 0.72
   vertex 117.69995760366358 12.119999999999834 0.72
   vertex 119.3809791989016 15.56728004911565 1.08
  endloop
 endfacet
 facet normal -0.20952907953154234 6.208908239259169e-05 0.9778024140774099
  outer loop
   vertex 119.38347774352324 23.99899999999999 1.08
   vertex 117.70347766976319 23.99899999999999 0.72
   vertex 119.3809791989016 15.56728004911565 1.08
  endloop
 endfacet
 facet normal -2.4770103780814674e-16 1.0 1.1559382271892465e-15
  outer loop
   vertex 132.0462261307212 23.998999999999995 0.72
   vertex 117.70347766976319 23.99899999999999 0.72
   vertex 119.38347774352324 23.99899999999999 1.08
  endloop
 endfacet
 facet normal -3.53548805580595e-16 1.0 -2.5671830246137345e-15
  outer loop
   vertex 129.43219979468748 23.998999999999995 1.08
   vertex 132.0462261307212 23.998999999999995 0.72
   vertex 119.38347774352324 23.99899999999999 1.08
  endloop
 endfacet
 facet normal 0.13466156182725048 -0.16052633052130671 0.9778024140774094
  outer loop
   vertex 117.88559815056404 12.119999999999836 0.72
   vertex 132.0462261307212 23.998999999999995 0.72
   vertex 129.43219979468748 23.998999999999995 1.08
  endloop
 endfacet
 facet normal 0.13466156182725209 -0.1605263305213083 0.977802414077409
  outer loop
   vertex 119.3809791989016 15.56728004911565 1.08
   vertex 117.88559815056404 12.119999999999836 0.72
   vertex 129.43219979468748 23.998999999999995 1.08
  endloop
 endfacet
 facet normal 0.0 0.0 1.0
  outer loop
   vertex 119.3809791989016 15.56728004911565 1.08
   vertex 129.43219979468748 23.998999999999995 1.08
   vertex 119.38347774352324 23.99899999999999 1.08
  endloop
 endfacet
 facet normal 0.0 0.0 -1.0
  outer loop
   vertex 122.87573844391025 10.200000000000001 0
   vertex 163.94213908603774 10.200000000000001 0
   vertex 155.38130035325761 0.001 0
  endloop
 endfacet
 facet normal 0.0 0.0 -1.0
  outer loop
   vertex 122.87573844391025 10.200000000000001 0
   vertex 155.38130035325761 0.001 0
   vertex 135.03368480047402 0.001 0
  endloop
 endfacet
 facet normal 0.0 0.20952908873087328 -0.9778024140774095
  outer loop
   vertex 163.94213908603774 10.200000000000001 0
   vertex 122.87573844391025 10.200000000000001 0
   vertex 118.25903048428331 11.880000000000003 0.36
  endloop
 endfacet
 facet normal 0.0 0.20952908873087328 -0.9778024140774095
  outer loop
   vertex 167.54568509914063 11.880000000000003 0.36
   vertex 163.94213908603774 10.200000000000001 0
   vertex 118.25903048428331 11.880000000000003 0.36
  endloop
 endfacet
 facet normal 0.16048641964500326 -0.13470912416728592 -0.9778024140774099
  outer loop
   vertex 155.38130035325761 0.001 0
   vertex 163.94213908603774 10.200000000000001 0
   vertex 167.54568509914063 11.880000000000003 0.36
  endloop
 endfacet
 facet normal 0.16048641964500585 -0.1347091241672886 -0.9778024140774091
  outer loop
   vertex 157.57468761833903 0.001 0.36
   vertex 155.38130035325761 0.001 0
   vertex 167.54568509914063 11.880000000000003 0.36
  endloop
 endfacet
 facet normal 0.0 -1.0 0.0
  outer loop
   vertex 135.03368480047402 0.001 0
   vertex 155.38130035325761 0.001 0
   vertex 157.57468761833903 0.001 0.36
  endloop
 endfacet
 facet normal 0.0 -1.0 0.0
  outer loop
   vertex 132.4196584644403 0.001 0.36
   vertex 135.03368480047402 0.001 0
   vertex 157.57468761833903 0.001 0.36
  endloop
 endfacet
 facet normal -0.1346615618272505 -0.16052633052130666 -0.9778024140774095
  outer loop
   vertex 122.87573844391025 10.200000000000001 0
   vertex 135.03368480047402 0.001 0
   vertex 132.4196584644403 0.001 0.36
  endloop
 endfacet
 facet normal -0.13466156182725073 -0.16052633052130688 -0.9778024140774094
  outer loop
   vertex 118.25903048428331 11.880000000000003 0.36
   vertex 122.87573844391025 10.200000000000001 0
   vertex 132.4196584644403 0.001 0.36
  endloop
 endfacet
 facet normal -0.0 0.0 1.0
  outer loop
   vertex 118.25903048428331 11.880000000000003 0.36
   vertex 157.57468761833903 0.001 0.36
   vertex 167.54568509914063 11.880000000000003 0.36
  endloop
 endfacet
 facet normal 0.0 0.0 1.0
  outer loop
   vertex 118.25903048428331 11.880000000000003 0.36
   vertex 132.4196584644403 0.001 0.36
   vertex 157.57468761833903 0.001 0.36
  endloop
 endfacet
 facet normal 0.0 0.0 -1.0
  outer loop
   vertex 118.25903048428331 11.880000000000003 0.72
   vertex 167.54568509914063 11.880000000000003 0.72
   vertex 157.57468761833903 0.001 0.72
  endloop
 endfacet
 facet normal 0.0 0.0 -1.0
  outer loop
   vertex 118.25903048428331 11.880000000000003 0.72
   vertex 157.57468761833903 0.001 0.72
   vertex 132.4196584644403 0.001 0.72
  endloop
 endfacet
 facet normal 0.0 0.2095290887308733 0.9778024140774095
  outer loop
   vertex 167.54568509914063 11.880000000000003 0.72
   vertex 118.25903048428331 11.880000000000003 0.72
   vertex 122.87573844391025 10.200000000000001 1.08
  endloop
 endfacet
 facet normal 0.0 0.20952908873087334 0.9778024140774095
  outer loop
   vertex 163.94213908603774 10.200000000000001 1.08
   vertex 167.54568509914063 11.880000000000003 0.72
   vertex 122.87573844391025 10.200000000000001 1.08
  endloop
 endfacet
 facet normal 0.16048641964500368 -0.13470912416728675 0.9778024140774096
  outer loop
   vertex 157.57468761833903 0.001 0.72
   vertex 167.54568509914063 11.880000000000003 0.72
   vertex 163.94213908603774 10.200000000000001 1.08
  endloop
 endfacet
 facet normal 0.16048641964500593 -0.13470912416728817 0.9778024140774092
  outer loop
   vertex 155.38130035325761 0.001 1.08
   vertex 157.57468761833903 0.001 0.72
   vertex 163.94213908603774 10.200000000000001 1.08
  endloop
 endfacet
 facet normal 0.0 -1.0 0.0
  outer loop
   vertex 132.4196584644403 0.001 0.72
   vertex 157.57468761833903 0.001 0.72
   vertex 155.38130035325761 0.001 1.08
  endloop
 endfacet
 facet normal 0.0 -1.0 -0.0
  outer loop
   vertex 135.03368480047402 0.001 1.08
   vertex 132.4196584644403 0.001 0.72
   vertex 155.38130035325761 0.001 1.08
  endloop
 endfacet
 facet normal -0.13466156182725056 -0.1605263305213067 0.9778024140774094
  outer loop
   vertex 118.25903048428331 11.880000000000003 0.72
   vertex 132.4196584644403 0.001 0.72
   vertex 135.03368480047402 0.001 1.08
  endloop
 endfacet
 facet normal -0.13466156182725084 -0.16052633052130705 0.9778024140774094
  outer loop
   vertex 122.87573844391025 10.200000000000001 1.08
   vertex 118.25903048428331 11.880000000000003 0.72
   vertex 135.03368480047402 0.001 1.08
  endloop
 endfacet
 facet normal -0.0 0.0 1.0
  outer loop
   vertex 122.87573844391025 10.200000000000001 1.08
   vertex 155.38130035325761 0.001 1.08
   vertex 163.94213908603774 10.200000000000001 1.08
  endloop
 endfacet
 facet normal 0.0 0.0 1.0
  outer loop
   vertex 122.87573844391025 10.200000000000001 1.08
   vertex 135.03368480047402 0.001 1.08
   vertex 155.38130035325761 0.001 1.08
  endloop
 endfacet
 facet normal 0.0 0.0 -1.0
  outer loop
   vertex 163.9421390860378 13.800000000000002 0
   vertex 122.8757384439103 13.800000000000002 0
   vertex 135.03368480047405 23.999 0
  endloop
 endfacet
 facet normal 0.0 0.0 -1.0
  outer loop
   vertex 163.9421390860378 13.800000000000002 0
   vertex 135.03368480047405 23.999 0
   vertex 155.38130035325764 23.999 0
  endloop
 endfacet
 facet normal 0.0 -0.20952908873087328 -0.9778024140774096
  outer loop
   vertex 122.8757384439103 13.800000000000002 0
   vertex 163.9421390860378 13.800000000000002 0
   vertex 167.54568509914066 12.120000000000001 0.36
  endloop
 endfacet
 facet normal 0.0 -0.20952908873087325 -0.9778024140774095
  outer loop
   vertex 118.25903048428336 12.120000000000001 0.36
   vertex 122.8757384439103 13.800000000000002 0
   vertex 167.54568509914066 12.120000000000001 0.36
  endloop
 endfacet
 facet normal -0.13466156182725078 0.1605263305213069 -0.9778024140774094
  outer loop
   vertex 135.03368480047405 23.999 0
   vertex 122.8757384439103 13.800000000000002 0
   vertex 118.25903048428336 12.120000000000001 0.36
  endloop
 endfacet
 facet normal -0.1346615618272505 0.1605263305213065 -0.9778024140774094
  outer loop
   vertex 132.41965846444032 23.999 0.36
   vertex 135.03368480047405 23.999 0
   vertex 118.25903048428336 12.120000000000001 0.36
  endloop
 endfacet
 facet normal 0.0 1.0 0.0
  outer loop
   vertex 155.38130035325764 23.999 0
   vertex 135.03368480047405 23.999 0
   vertex 132.41965846444032 23.999 0.36
  endloop
 endfacet
 facet normal 0.0 1.0 0.0
  outer loop
   vertex 157.57468761833908 23.999 0.36
   vertex 155.38130035325764 23.999 0
   vertex 132.41965846444032 23.999 0.36
  endloop
 endfacet
 facet normal 0.16048641964500396 0.13470912416728703 -0.9778024140774096
  outer loop
   vertex 163.9421390860378 13.800000000000002 0
   vertex 155.38130035325764 23.999 0
   vertex 157.57468761833908 23.999 0.36
  endloop
 endfacet
 facet normal 0.16048641964500537 0.13470912416728786 -0.9778024140774093
  outer loop
   vertex 167.54568509914066 12.120000000000001 0.36
   vertex 163.9421390860378 13.800000000000002 0
   vertex 157.57468761833908 23.999 0.36
  endloop
 endfacet
 facet normal 0.0 0.0 1.0
  outer loop
   vertex 167.54568509914066 12.120000000000001 0.36
   vertex 132.41965846444032 23.999 0.36
   vertex 118.25903048428336 12.120000000000001 0.36
  endloop
 endfacet
 facet normal 0.0 0.0 1.0
  outer loop
   vertex 167.54568509914066 12.120000000000001 0.36
   vertex 157.57468761833908 23.999 0.36
   vertex 132.41965846444032 23.999 0.36
  endloop
 endfacet
 facet normal 0.0 0.0 -1.0
  outer loop
   vertex 167.54568509914066 12.120000000000001 0.72
   vertex 118.25903048428336 12.120000000000001 0.72
   vertex 132.41965846444032 23.999 0.72
  endloop
 endfacet
 facet normal 0.0 0.0 -1.0
  outer loop
   vertex 167.54568509914066 12.120000000000001 0.72
   vertex 132.41965846444032 23.999 0.72
   vertex 157.57468761833908 23.999 0.72
  endloop
 endfacet
 facet normal 0.0 -0.20952908873087334 0.9778024140774095
  outer loop
   vertex 118.25903048428336 12.120000000000001 0.72
   vertex 167.54568509914066 12.120000000000001 0.72
   vertex 163.9421390860378 13.800000000000002 1.08
  endloop
 endfacet
 facet normal 0.0 -0.20952908873087336 0.9778024140774096
  outer loop
   vertex 122.8757384439103 13.800000000000002 1.08
   vertex 118.25903048428336 12.120000000000001 0.72
   vertex 163.9421390860378 13.800000000000002 1.08
  endloop
 endfacet
 facet normal -0.13466156182725073 0.1605263305213068 0.9778024140774094
  outer loop
   vertex 132.41965846444032 23.999 0.72
   vertex 118.25903048428336 12.120000000000001 0.72
   vertex 122.8757384439103 13.800000000000002 1.08
  endloop
 endfacet
 facet normal -0.13466156182725056 0.16052633052130663 0.9778024140774096
  outer loop
   vertex 135.03368480047405 23.999 1.08
   vertex 132.41965846444032 23.999 0.72
   vertex 122.8757384439103 13.800000000000002 1.08
  endloop
 endfacet
 facet normal 0.0 1.0 0.0
  outer loop
   vertex 157.57468761833908 23.999 0.72
   vertex 132.41965846444032 23.999 0.72
   vertex 135.03368480047405 23.999 1.08
  endloop
 endfacet
 facet normal 0.0 1.0 0.0
  outer loop
   vertex 155.38130035325764 23.999 1.08
   vertex 157.57468761833908 23.999 0.72
   vertex 135.03368480047405 23.999 1.08
  endloop
 endfacet
 facet normal 0.16048641964500393 0.13470912416728667 0.9778024140774098
  outer loop
   vertex 167.54568509914066 12.120000000000001 0.72
   vertex 157.57468761833908 23.999 0.72
   vertex 155.38130035325764 23.999 1.08
  endloop
 endfacet
 facet normal 0.16048641964500565 0.13470912416728847 0.9778024140774092
  outer loop
   vertex 163.9421390860378 13.800000000000002 1.08
   vertex 167.54568509914066 12.120000000000001 0.72
   vertex 155.38130035325764 23.999 1.08
  endloop
 endfacet
 facet normal 0.0 0.0 1.0
  outer loop
   vertex 163.9421390860378 13.800000000000002 1.08
   vertex 135.03368480047405 23.999 1.08
   vertex 122.8757384439103 13.800000000000002 1.08
  endloop
 endfacet
 facet normal 0.0 0.0 1.0
  outer loop
   vertex 163.9421390860378 13.800000000000002 1.08
   vertex 155.38130035325764 23.999 1.08
   vertex 135.03368480047405 23.999 1.08
  endloop
 endfacet
 facet normal 0.0 0.0 -1.0
  outer loop
   vertex 167.46762981516704 8.800604554540598 0
   vertex 167.46502225647677 0.001 0
   vertex 160.08141592128925 0.001 0
  endloop
 endfacet
 facet normal 0.0 0.11611528102658647 -0.993235743170833
  outer loop
   vertex 169.14854239633638 11.879999999999923 0.36
   vertex 167.46762981516704 8.800604554540598 0
   vertex 167.85902613700932 11.879999999999923 0.36
  endloop
 endfacet
 facet normal 0.20952907953153982 -6.20890823912369e-05 -0.9778024140774103
  outer loop
   vertex 167.46502225647677 0.001 0
   vertex 167.46762981516704 8.800604554540598 0
   vertex 169.14854239633638 11.879999999999923 0.36
  endloop
 endfacet
 facet normal 0.20952907953154565 -6.208908239210022e-05 -0.9778024140774092
  outer loop
   vertex 169.1450223302368 0.001 0.36
   vertex 167.46502225647677 0.001 0
   vertex 169.14854239633638 11.879999999999923 0.36
  endloop
 endfacet
 facet normal 0.0 -1.0 0.0
  outer loop
   vertex 160.08141592128925 0.001 0
   vertex 167.46502225647677 0.001 0
   vertex 169.1450223302368 0.001 0.36
  endloop
 endfacet
 facet normal 0.0 -1.0 0.0
  outer loop
   vertex 157.8880286562078 0.001 0.36
   vertex 160.08141592128925 0.001 0
   vertex 169.1450223302368 0.001 0.36
  endloop
 endfacet
 facet normal -0.1604864196450039 0.1347091241672866 -0.9778024140774096
  outer loop
   vertex 167.46762981516704 8.800604554540598 0
   vertex 160.08141592128925 0.001 0
   vertex 157.8880286562078 0.001 0.36
  endloop
 endfacet
 facet normal -0.16048641964500446 0.13470912416728717 -0.9778024140774096
  outer loop
   vertex 167.85902613700932 11.879999999999923 0.36
   vertex 167.46762981516704 8.800604554540598 0
   vertex 157.8880286562078 0.001 0.36
  endloop
 endfacet
 facet normal -0.0 0.0 1.0
  outer loop
   vertex 167.85902613700932 11.879999999999923 0.36
   vertex 169.1450223302368 0.001 0.36
   vertex 169.14854239633638 11.879999999999923 0.36
  endloop
 endfacet
 facet normal 0.0 0.0 1.0
  outer loop
   vertex 167.85902613700932 11.879999999999923 0.36
   vertex 157.8880286562078 0.001 0.36
   vertex 169.1450223302368 0.001 0.36
  endloop
 endfacet
 facet normal 0.0 0.0 -1.0
  outer loop
   vertex 167.85902613700932 11.879999999999923 0.72
   vertex 169.14854239633638 11.879999999999923 0.72
   vertex 169.1450223302368 0.001 0.72
  endloop
 endfacet
 facet normal 0.0 -0.0 -1.0
  outer loop
   vertex 167.85902613700932 11.879999999999923 0.72
   vertex 169.1450223302368 0.001 0.72
   vertex 157.8880286562078 0.001 0.72
  endloop
 endfacet
 facet normal 0.0 0.1161152810265865 0.993235743170833
  outer loop
   vertex 169.14854239633638 11.879999999999923 0.72
   vertex 167.85902613700932 11.879999999999923 0.72
   vertex 167.46762981516704 8.800604554540598 1.08
  endloop
 endfacet
 facet normal 0.20952907953154143 -6.208908239209897e-05 0.9778024140774101
  outer loop
   vertex 169.1450223302368 0.001 0.72
   vertex 169.14854239633638 11.879999999999923 0.72
   vertex 167.46762981516704 8.800604554540598 1.08
  endloop
 endfacet
 facet normal 0.20952907953154573 -6.208908239123864e-05 0.9778024140774091
  outer loop
   vertex 167.46502225647677 0.001 1.08
   vertex 169.1450223302368 0.001 0.72
   vertex 167.46762981516704 8.800604554540598 1.08
  endloop
 endfacet
 facet normal 0.0 -1.0 0.0
  outer loop
   vertex 157.8880286562078 0.001 0.72
   vertex 169.1450223302368 0.001 0.72
   vertex 167.46502225647677 0.001 1.08
  endloop
 endfacet
 facet normal 0.0 -1.0 -0.0
  outer loop
   vertex 160.08141592128925 0.001 1.08
   vertex 157.8880286562078 0.001 0.72
   vertex 167.46502225647677 0.001 1.08
  endloop
 endfacet
 facet normal -0.1604864196450039 0.13470912416728673 0.9778024140774098
  outer loop
   vertex 167.85902613700932 11.879999999999923 0.72
   vertex 157.8880286562078 0.001 0.72
   vertex 160.08141592128925 0.001 1.08
  endloop
 endfacet
 facet normal -0.16048641964500465 0.13470912416728723 0.9778024140774095
  outer loop
   vertex 167.46762981516704 8.800604554540598 1.08
   vertex 167.85902613700932 11.879999999999923 0.72
   vertex 160.08141592128925 0.001 1.08
  endloop
 endfacet
 facet normal 0.0 0.0 1.0
  outer loop
   vertex 167.46762981516704 8.800604554540598 1.08
   vertex 160.08141592128925 0.001 1.08
   vertex 167.46502225647677 0.001 1.08
  endloop
 endfacet
 facet normal 0.0 0.0 -1.0
  outer loop
   vertex 167.46762981516707 15.199395445459402 0
   vertex 160.08141592128928 23.99900000000002 0
   vertex 167.46502225647677 23.99900000000002 0
  endloop
 endfacet
 facet normal 0.0 -0.11611528102658064 -0.9932357431708336
  outer loop
   vertex 167.85902613700952 12.119999999999921 0.36
   vertex 167.46762981516707 15.199395445459402 0
   vertex 169.14854239633638 12.119999999999921 0.36
  endloop
 endfacet
 facet normal -0.16048641964500776 -0.13470912416728953 -0.9778024140774086
  outer loop
   vertex 160.08141592128928 23.99900000000002 0
   vertex 167.46762981516707 15.199395445459402 0
   vertex 167.85902613700952 12.119999999999921 0.36
  endloop
 endfacet
 facet normal -0.16048641964500387 -0.134709124167287 -0.9778024140774096
  outer loop
   vertex 157.88802865620784 23.99900000000002 0.36
   vertex 160.08141592128928 23.99900000000002 0
   vertex 167.85902613700952 12.119999999999921 0.36
  endloop
 endfacet
 facet normal 0.0 1.0 0.0
  outer loop
   vertex 167.46502225647677 23.99900000000002 0
   vertex 160.08141592128928 23.99900000000002 0
   vertex 157.88802865620784 23.99900000000002 0.36
  endloop
 endfacet
 facet normal 0.0 1.0 0.0
  outer loop
   vertex 169.1450223302368 23.99900000000002 0.36
   vertex 167.46502225647677 23.99900000000002 0
   vertex 157.88802865620784 23.99900000000002 0.36
  endloop
 endfacet
 facet normal 0.20952907953154565 6.208908239191524e-05 -0.9778024140774091
  outer loop
   vertex 167.46762981516707 15.199395445459402 0
   vertex 167.46502225647677 23.99900000000002 0
   vertex 169.1450223302368 23.99900000000002 0.36
  endloop
 endfacet
 facet normal 0.20952907953154473 6.208908239209902e-05 -0.9778024140774094
  outer loop
   vertex 169.14854239633638 12.119999999999921 0.36
   vertex 167.46762981516707 15.199395445459402 0
   vertex 169.1450223302368 23.99900000000002 0.36
  endloop
 endfacet
 facet normal 0.0 0.0 1.0
  outer loop
   vertex 169.14854239633638 12.119999999999921 0.36
   vertex 157.88802865620784 23.99900000000002 0.36
   vertex 167.85902613700952 12.119999999999921 0.36
  endloop
 endfacet
 facet normal 0.0 0.0 1.0
  outer loop
   vertex 169.14854239633638 12.119999999999921 0.36
   vertex 169.1450223302368 23.99900000000002 0.36
   vertex 157.88802865620784 23.99900000000002 0.36
  endloop
 endfacet
 facet normal 0.0 0.0 -1.0
  outer loop
   vertex 169.14854239633638 12.119999999999921 0.72
   vertex 167.85902613700952 12.119999999999921 0.72
   vertex 157.88802865620784 23.99900000000002 0.72
  endloop
 endfacet
 facet normal 0.0 0.0 -1.0
  outer loop
   vertex 169.14854239633638 12.119999999999921 0.72
   vertex 157.88802865620784 23.99900000000002 0.72
   vertex 169.1450223302368 23.99900000000002 0.72
  endloop
 endfacet
 facet normal 0.0 -0.11611528102658068 0.9932357431708336
  outer loop
   vertex 167.85902613700952 12.119999999999921 0.72
   vertex 169.14854239633638 12.119999999999921 0.72
   vertex 167.46762981516707 15.199395445459402 1.08
  endloop
 endfacet
 facet normal -0.16048641964500682 -0.1347091241672895 0.9778024140774089
  outer loop
   vertex 157.88802865620784 23.99900000000002 0.72
   vertex 167.85902613700952 12.119999999999921 0.72
   vertex 167.46762981516707 15.199395445459402 1.08
  endloop
 endfacet
 facet normal -0.16048641964500396 -0.13470912416728634 0.9778024140774098
  outer loop
   vertex 160.08141592128928 23.99900000000002 1.08
   vertex 157.88802865620784 23.99900000000002 0.72
   vertex 167.46762981516707 15.199395445459402 1.08
  endloop
 endfacet
 facet normal 0.0 1.0 0.0
  outer loop
   vertex 169.1450223302368 23.99900000000002 0.72
   vertex 157.88802865620784 23.99900000000002 0.72
   vertex 160.08141592128928 23.99900000000002 1.08
  endloop
 endfacet
 facet normal 0.0 1.0 0.0
  outer loop
   vertex 167.46502225647677 23.99900000000002 1.08
   vertex 169.1450223302368 23.99900000000002 0.72
   vertex 160.08141592128928 23.99900000000002 1.08
  endloop
 endfacet
 facet normal 0.20952907953154568 6.208908239209931e-05 0.9778024140774091
  outer loop
   vertex 169.14854239633638 12.119999999999921 0.72
   vertex 169.1450223302368 23.99900000000002 0.72
   vertex 167.46502225647677 23.99900000000002 1.08
  endloop
 endfacet
 facet normal 0.20952907953154448 6.208908239191489e-05 0.9778024140774093
  outer loop
   vertex 167.46762981516707 15.199395445459402 1.08
   vertex 169.14854239633638 12.119999999999921 0.72
   vertex 167.46502225647677 23.99900000000002 1.08
  endloop
 endfacet
 facet normal 0.0 0.0 1.0
  outer loop
   vertex 167.46762981516707 15.199395445459402 1.08
   vertex 167.46502225647677 23.99900000000002 1.08
   vertex 160.08141592128928 23.99900000000002 1.08
  endloop
 endfacet
 facet normal 0.0 0.0 -1.0
  outer loop
   vertex 171.0681039169643 10.4 0
   vertex 193.79752587654175 10.4 0
   vertex 193.78924487245118 0.001 0
  endloop
 endfacet
 facet normal 0.0 -0.0 -1.0
  outer loop
   vertex 171.0681039169643 10.4 0
   vertex 193.78924487245118 0.001 0
   vertex 171.06502241453398 0.001 0
  endloop
 endfacet
 facet normal 0.0 1.0 0.0
  outer loop
   vertex 193.79752587654175 10.4 0
   vertex 171.0681039169643 10.4 0
   vertex 169.38810384320425 10.4 0.36
  endloop
 endfacet
 facet normal 0.0 1.0 0.0
  outer loop
   vertex 193.79752587654175 10.4 0.36
   vertex 193.79752587654175 10.4 0
   vertex 169.38810384320425 10.4 0.36
  endloop
 endfacet
 facet normal 0.9999996829318346 -0.0007963267107350895 0.0
  outer loop
   vertex 193.78924487245118 0.001 0
   vertex 193.79752587654175 10.4 0
   vertex 193.79752587654175 10.4 0.36
  endloop
 endfacet
 facet normal 0.9999996829318346 -0.0007963267107350895 0.0
  outer loop
   vertex 193.78924487245118 0.001 0.36
   vertex 193.78924487245118 0.001 0
   vertex 193.79752587654175 10.4 0.36
  endloop
 endfacet
 facet normal 0.0 -1.0 0.0
  outer loop
   vertex 171.06502241453398 0.001 0
   vertex 193.78924487245118 0.001 0
   vertex 193.78924487245118 0.001 0.36
  endloop
 endfacet
 facet normal 0.0 -1.0 0.0
  outer loop
   vertex 169.38502234077396 0.001 0.36
   vertex 171.06502241453398 0.001 0
   vertex 193.78924487245118 0.001 0.36
  endloop
 endfacet
 facet normal -0.20952907953154562 6.20890823924471e-05 -0.9778024140774091
  outer loop
   vertex 171.0681039169643 10.4 0
   vertex 171.06502241453398 0.001 0
   vertex 169.38502234077396 0.001 0.36
  endloop
 endfacet
 facet normal -0.20952907953154223 6.208908239187343e-05 -0.9778024140774099
  outer loop
   vertex 169.38810384320425 10.4 0.36
   vertex 171.0681039169643 10.4 0
   vertex 169.38502234077396 0.001 0.36
  endloop
 endfacet
 facet normal -0.0 0.0 1.0
  outer loop
   vertex 169.38810384320425 10.4 0.36
   vertex 193.78924487245118 0.001 0.36
   vertex 193.79752587654175 10.4 0.36
  endloop
 endfacet
 facet normal 0.0 0.0 1.0
  outer loop
   vertex 169.38810384320425 10.4 0.36
   vertex 169.38502234077396 0.001 0.36
   vertex 193.78924487245118 0.001 0.36
  endloop
 endfacet
 facet normal 0.0 0.0 -1.0
  outer loop
   vertex 169.38810384320425 10.4 0.72
   vertex 193.79752587654175 10.4 0.72
   vertex 193.78924487245118 0.001 0.72
  endloop
 endfacet
 facet normal 0.0 -0.0 -1.0
  outer loop
   vertex 169.38810384320425 10.4 0.72
   vertex 193.78924487245118 0.001 0.72
   vertex 169.38502234077396 0.001 0.72
  endloop
 endfacet
 facet normal 0.0 1.0 0.0
  outer loop
   vertex 193.79752587654175 10.4 0.72
   vertex 169.38810384320425 10.4 0.72
   vertex 171.0681039169643 10.4 1.08
  endloop
 endfacet
 facet normal 0.0 1.0 0.0
  outer loop
   vertex 193.79752587654175 10.4 1.08
   vertex 193.79752587654175 10.4 0.72
   vertex 171.0681039169643 10.4 1.08
  endloop
 endfacet
 facet normal 0.9999996829318347 -0.0007963267107350896 0.0
  outer loop
   vertex 193.78924487245118 0.001 0.72
   vertex 193.79752587654175 10.4 0.72
   vertex 193.79752587654175 10.4 1.08
  endloop
 endfacet
 facet normal 0.9999996829318347 -0.0007963267107350896 0.0
  outer loop
   vertex 193.78924487245118 0.001 1.08
   vertex 193.78924487245118 0.001 0.72
   vertex 193.79752587654175 10.4 1.08
  endloop
 endfacet
 facet normal 0.0 -1.0 0.0
  outer loop
   vertex 169.38502234077396 0.001 0.72
   vertex 193.78924487245118 0.001 0.72
   vertex 193.78924487245118 0.001 1.08
  endloop
 endfacet
 facet normal 0.0 -1.0 -0.0
  outer loop
   vertex 171.06502241453398 0.001 1.08
   vertex 169.38502234077396 0.001 0.72
   vertex 193.78924487245118 0.001 1.08
  endloop
 endfacet
 facet normal -0.20952907953154573 6.208908239187445e-05 0.9778024140774091
  outer loop
   vertex 169.38810384320425 10.4 0.72
   vertex 169.38502234077396 0.001 0.72
   vertex 171.06502241453398 0.001 1.08
  endloop
 endfacet
 facet normal -0.20952907953154232 6.20890823924461e-05 0.9778024140774099
  outer loop
   vertex 171.0681039169643 10.4 1.08
   vertex 169.38810384320425 10.4 0.72
   vertex 171.06502241453398 0.001 1.08
  endloop
 endfacet
 facet normal -0.0 0.0 1.0
  outer loop
   vertex 171.0681039169643 10.4 1.08
   vertex 193.78924487245118 0.001 1.08
   vertex 193.79752587654175 10.4 1.08
  endloop
 endfacet
 facet normal 0.0 0.0 1.0
  outer loop
   vertex 171.0681039169643 10.4 1.08
   vertex 171.06502241453398 0.001 1.08
   vertex 193.78924487245118 0.001 1.08
  endloop
 endfacet
 facet normal 0.0 0.0 -1.0
  outer loop
   vertex 193.79752587654178 13.6 0
   vertex 171.0681039169643 13.6 0
   vertex 171.06502241453398 23.998999999999988 0
  endloop
 endfacet
 facet normal 0.0 0.0 -1.0
  outer loop
   vertex 193.79752587654178 13.6 0
   vertex 171.06502241453398 23.998999999999988 0
   vertex 193.7892448724512 23.998999999999988 0
  endloop
 endfacet
 facet normal 0.0 -1.0 0.0
  outer loop
   vertex 171.0681039169643 13.6 0
   vertex 193.79752587654178 13.6 0
   vertex 193.79752587654178 13.6 0.36
  endloop
 endfacet
 facet normal 0.0 -1.0 0.0
  outer loop
   vertex 169.38810384320425 13.6 0.36
   vertex 171.0681039169643 13.6 0
   vertex 193.79752587654178 13.6 0.36
  endloop
 endfacet
 facet normal -0.2095290795315423 -6.208908239244619e-05 -0.9778024140774099
  outer loop
   vertex 171.06502241453398 23.998999999999988 0
   vertex 171.0681039169643 13.6 0
   vertex 169.38810384320425 13.6 0.36
  endloop
 endfacet
 facet normal -0.20952907953154562 -6.20890823918745e-05 -0.9778024140774091
  outer loop
   vertex 169.38502234077396 23.998999999999988 0.36
   vertex 171.06502241453398 23.998999999999988 0
   vertex 169.38810384320425 13.6 0.36
  endloop
 endfacet
 facet normal 0.0 1.0 0.0
  outer loop
   vertex 193.7892448724512 23.998999999999988 0
   vertex 171.06502241453398 23.998999999999988 0
   vertex 169.38502234077396 23.998999999999988 0.36
  endloop
 endfacet
 facet normal 0.0 1.0 0.0
  outer loop
   vertex 193.7892448724512 23.998999999999988 0.36
   vertex 193.7892448724512 23.998999999999988 0
   vertex 169.38502234077396 23.998999999999988 0.36
  endloop
 endfacet
 facet normal 0.9999996829318347 0.0007963267107350906 0.0
  outer loop
   vertex 193.79752587654178 13.6 0
   vertex 193.7892448724512 23.998999999999988 0
   vertex 193.7892448724512 23.998999999999988 0.36
  endloop
 endfacet
 facet normal 0.9999996829318347 0.0007963267107350906 0.0
  outer loop
   vertex 193.79752587654178 13.6 0.36
   vertex 193.79752587654178 13.6 0
   vertex 193.7892448724512 23.998999999999988 0.36
  endloop
 endfacet
 facet normal 0.0 0.0 1.0
  outer loop
   vertex 193.79752587654178 13.6 0.36
   vertex 169.38502234077396 23.998999999999988 0.36
   vertex 169.38810384320425 13.6 0.36
  endloop
 endfacet
 facet normal 0.0 0.0 1.0
  outer loop
   vertex 193.79752587654178 13.6 0.36
   vertex 193.7892448724512 23.998999999999988 0.36
   vertex 169.38502234077396 23.998999999999988 0.36
  endloop
 endfacet
 facet normal 0.0 0.0 -1.0
  outer loop
   vertex 193.79752587654178 13.6 0.72
   vertex 169.38810384320425 13.6 0.72
   vertex 169.38502234077396 23.998999999999988 0.72
  endloop
 endfacet
 facet normal 0.0 0.0 -1.0
  outer loop
   vertex 193.79752587654178 13.6 0.72
   vertex 169.38502234077396 23.998999999999988 0.72
   vertex 193.7892448724512 23.998999999999988 0.72
  endloop
 endfacet
 facet normal 0.0 -1.0 0.0
  outer loop
   vertex 169.38810384320425 13.6 0.72
   vertex 193.79752587654178 13.6 0.72
   vertex 193.79752587654178 13.6 1.08
  endloop
 endfacet
 facet normal 0.0 -1.0 -0.0
  outer loop
   vertex 171.0681039169643 13.6 1.08
   vertex 169.38810384320425 13.6 0.72
   vertex 193.79752587654178 13.6 1.08
  endloop
 endfacet
 facet normal -0.20952907953154232 -6.208908239187351e-05 0.9778024140774099
  outer loop
   vertex 169.38502234077396 23.998999999999988 0.72
   vertex 169.38810384320425 13.6 0.72
   vertex 171.0681039169643 13.6 1.08
  endloop
 endfacet
 facet normal -0.20952907953154568 -6.208908239244718e-05 0.9778024140774091
  outer loop
   vertex 171.06502241453398 23.998999999999988 1.08
   vertex 169.38502234077396 23.998999999999988 0.72
   vertex 171.0681039169643 13.6 1.08
  endloop
 endfacet
 facet normal 0.0 1.0 0.0
  outer loop
   vertex 193.7892448724512 23.998999999999988 0.72
   vertex 169.38502234077396 23.998999999999988 0.72
   vertex 171.06502241453398 23.998999999999988 1.08
  endloop
 endfacet
 facet normal 0.0 1.0 0.0
  outer loop
   vertex 193.7892448724512 23.998999999999988 1.08
   vertex 193.7892448724512 23.998999999999988 0.72
   vertex 171.06502241453398 23.998999999999988 1.08
  endloop
 endfacet
 facet normal 0.9999996829318346 0.0007963267107350903 0.0
  outer loop
   vertex 193.79752587654178 13.6 0.72
   vertex 193.7892448724512 23.998999999999988 0.72
   vertex 193.7892448724512 23.998999999999988 1.08
  endloop
 endfacet
 facet normal 0.9999996829318346 0.0007963267107350903 0.0
  outer loop
   vertex 193.79752587654178 13.6 1.08
   vertex 193.79752587654178 13.6 0.72
   vertex 193.7892448724512 23.998999999999988 1.08
  endloop
 endfacet
 facet normal 0.0 0.0 1.0
  outer loop
   vertex 193.79752587654178 13.6 1.08
   vertex 171.06502241453398 23.998999999999988 1.08
   vertex 171.0681039169643 13.6 1.08
  endloop
 endfacet
 facet normal 0.0 0.0 1.0
  outer loop
   vertex 193.79752587654178 13.6 1.08
   vertex 193.7892448724512 23.998999999999988 1.08
   vertex 171.06502241453398 23.998999999999988 1.08
  endloop
 endfacet
endsolid
