solid PyGamic generated __Board__ SLA File
 facet normal 0.0 0.0 -1.0
  outer loop
   vertex -0.00033782898114669983 20.819999999999997 0
   vertex 42.15314568161201 20.819999999999997 0
   vertex 19.35037434349997 12.722243186433547 0
  endloop
 endfacet
 facet normal 0.0 0.0 -1.0
  outer loop
   vertex 42.15314568161201 20.819999999999997 0
   vertex 26.37850099535747 0.001 0
   vertex 20.200374343499966 11.25 0
  endloop
 endfacet
 facet normal 0.0 0.0 -1.0
  outer loop
   vertex 26.37850099535747 0.001 0
   vertex -0.016916560028490343 0.001 0
   vertex 17.028131157066422 10.4 0
  endloop
 endfacet
 facet normal 0.0 0.0 -1.0
  outer loop
   vertex -0.016916560028490343 0.001 0
   vertex -0.00033782898114669983 20.819999999999997 0
   vertex 4.527756813566454 12.100000000000001 0
  endloop
 endfacet
 facet normal 0.0 0.0 -1.0
  outer loop
   vertex 20.200374343499966 11.25 0
   vertex 19.972617529933512 12.1 0
   vertex 42.15314568161201 20.819999999999997 0
  endloop
 endfacet
 facet normal 0.0 -0.0 -1.0
  outer loop
   vertex 20.200374343499966 11.25 0
   vertex 26.37850099535747 0.001 0
   vertex 19.972617529933512 10.399999999999999 0
  endloop
 endfacet
 facet normal 0.0 0.0 -1.0
  outer loop
   vertex 19.972617529933512 12.1 0
   vertex 19.35037434349997 12.722243186433547 0
   vertex 42.15314568161201 20.819999999999997 0
  endloop
 endfacet
 facet normal 0.0 0.0 -1.0
  outer loop
   vertex 19.35037434349997 12.722243186433547 0
   vertex 18.500374343499967 12.950000000000001 0
   vertex -0.00033782898114669983 20.819999999999997 0
  endloop
 endfacet
 facet normal -0.0 0.0 -1.0
  outer loop
   vertex 18.500374343499967 12.950000000000001 0
   vertex 6.0 12.95 0
   vertex -0.00033782898114669983 20.819999999999997 0
  endloop
 endfacet
 facet normal 0.0 0.0 -1.0
  outer loop
   vertex 18.500374343499967 12.950000000000001 0
   vertex 7.472243186433546 10.399999999999999 0
   vertex 7.7 11.25 0
  endloop
 endfacet
 facet normal 0.0 0.0 -1.0
  outer loop
   vertex 18.500374343499967 12.950000000000001 0
   vertex 7.7 11.25 0
   vertex 7.472243186433546 12.1 0
  endloop
 endfacet
 facet normal 0.0 0.0 -1.0
  outer loop
   vertex 18.500374343499967 12.950000000000001 0
   vertex 7.472243186433546 12.1 0
   vertex 6.8500000000000005 12.722243186433545 0
  endloop
 endfacet
 facet normal 0.0 0.0 -1.0
  outer loop
   vertex 18.500374343499967 12.950000000000001 0
   vertex 6.8500000000000005 12.722243186433545 0
   vertex 6.0 12.95 0
  endloop
 endfacet
 facet normal 0.0 0.0 -1.0
  outer loop
   vertex 18.500374343499967 12.950000000000001 0
   vertex 17.650374343499966 12.722243186433547 0
   vertex 7.472243186433546 10.399999999999999 0
  endloop
 endfacet
 facet normal 0.0 0.0 -1.0
  outer loop
   vertex 17.650374343499966 12.722243186433547 0
   vertex 17.028131157066422 12.100000000000001 0
   vertex -0.016916560028490343 0.001 0
  endloop
 endfacet
 facet normal 0.0 0.0 -1.0
  outer loop
   vertex 17.650374343499966 12.722243186433547 0
   vertex -0.016916560028490343 0.001 0
   vertex 6.849999999999999 9.777756813566453 0
  endloop
 endfacet
 facet normal 0.0 0.0 -1.0
  outer loop
   vertex 17.650374343499966 12.722243186433547 0
   vertex 6.849999999999999 9.777756813566453 0
   vertex 7.472243186433546 10.399999999999999 0
  endloop
 endfacet
 facet normal 0.0 0.0 -1.0
  outer loop
   vertex 17.028131157066422 12.100000000000001 0
   vertex 16.800374343499968 11.25 0
   vertex -0.016916560028490343 0.001 0
  endloop
 endfacet
 facet normal 0.0 -0.0 -1.0
  outer loop
   vertex 16.800374343499968 11.25 0
   vertex 17.028131157066422 10.4 0
   vertex -0.016916560028490343 0.001 0
  endloop
 endfacet
 facet normal 0.0 0.0 -1.0
  outer loop
   vertex 17.028131157066422 10.4 0
   vertex 17.650374343499966 9.777756813566455 0
   vertex 26.37850099535747 0.001 0
  endloop
 endfacet
 facet normal 0.0 0.0 -1.0
  outer loop
   vertex 17.650374343499966 9.777756813566455 0
   vertex 18.500374343499967 9.549999999999999 0
   vertex 26.37850099535747 0.001 0
  endloop
 endfacet
 facet normal 0.0 0.0 -1.0
  outer loop
   vertex 18.500374343499967 9.549999999999999 0
   vertex 19.350374343499965 9.777756813566453 0
   vertex 26.37850099535747 0.001 0
  endloop
 endfacet
 facet normal 0.0 0.0 -1.0
  outer loop
   vertex 19.350374343499965 9.777756813566453 0
   vertex 19.972617529933512 10.399999999999999 0
   vertex 26.37850099535747 0.001 0
  endloop
 endfacet
 facet normal -0.0 0.0 -1.0
  outer loop
   vertex 6.0 12.95 0
   vertex 5.15 12.722243186433547 0
   vertex -0.00033782898114669983 20.819999999999997 0
  endloop
 endfacet
 facet normal -0.0 0.0 -1.0
  outer loop
   vertex 5.15 12.722243186433547 0
   vertex 4.527756813566454 12.100000000000001 0
   vertex -0.00033782898114669983 20.819999999999997 0
  endloop
 endfacet
 facet normal 0.0 0.0 -1.0
  outer loop
   vertex 4.527756813566454 12.100000000000001 0
   vertex 4.3 11.25 0
   vertex -0.016916560028490343 0.001 0
  endloop
 endfacet
 facet normal 0.0 -0.0 -1.0
  outer loop
   vertex 4.3 11.25 0
   vertex 4.527756813566453 10.4 0
   vertex -0.016916560028490343 0.001 0
  endloop
 endfacet
 facet normal 0.0 -0.0 -1.0
  outer loop
   vertex 4.527756813566453 10.4 0
   vertex 5.1499999999999995 9.777756813566455 0
   vertex -0.016916560028490343 0.001 0
  endloop
 endfacet
 facet normal 0.0 -0.0 -1.0
  outer loop
   vertex 5.1499999999999995 9.777756813566455 0
   vertex 6.0 9.55 0
   vertex -0.016916560028490343 0.001 0
  endloop
 endfacet
 facet normal 0.0 -0.0 -1.0
  outer loop
   vertex 6.0 9.55 0
   vertex 6.849999999999999 9.777756813566453 0
   vertex -0.016916560028490343 0.001 0
  endloop
 endfacet
 facet normal 0.0 1.0 0.0
  outer loop
   vertex 42.15314568161201 20.819999999999997 0
   vertex -0.00033782898114669983 20.819999999999997 0
   vertex -0.00033782898114669983 20.819999999999997 0.36
  endloop
 endfacet
 facet normal 0.0 1.0 0.0
  outer loop
   vertex 42.15314568161201 20.819999999999997 0.36
   vertex 42.15314568161201 20.819999999999997 0
   vertex -0.00033782898114669983 20.819999999999997 0.36
  endloop
 endfacet
 facet normal 0.7970428523015174 -0.6039227530032805 0.0
  outer loop
   vertex 26.37850099535747 0.001 0
   vertex 42.15314568161201 20.819999999999997 0
   vertex 42.15314568161201 20.819999999999997 0.36
  endloop
 endfacet
 facet normal 0.7970428523015174 -0.6039227530032805 0.0
  outer loop
   vertex 26.37850099535747 0.001 0.36
   vertex 26.37850099535747 0.001 0
   vertex 42.15314568161201 20.819999999999997 0.36
  endloop
 endfacet
 facet normal 0.0 -1.0 0.0
  outer loop
   vertex -0.016916560028490343 0.001 0
   vertex 26.37850099535747 0.001 0
   vertex 26.37850099535747 0.001 0.36
  endloop
 endfacet
 facet normal 0.0 -1.0 0.0
  outer loop
   vertex -0.016916560028490343 0.001 0.36
   vertex -0.016916560028490343 0.001 0
   vertex 26.37850099535747 0.001 0.36
  endloop
 endfacet
 facet normal -0.9999996829318346 0.0007963267107332633 0.0
  outer loop
   vertex -0.00033782898114669983 20.819999999999997 0
   vertex -0.016916560028490343 0.001 0
   vertex -0.016916560028490343 0.001 0.36
  endloop
 endfacet
 facet normal -0.9999996829318346 0.0007963267107332633 0.0
  outer loop
   vertex -0.00033782898114669983 20.819999999999997 0.36
   vertex -0.00033782898114669983 20.819999999999997 0
   vertex -0.016916560028490343 0.001 0.36
  endloop
 endfacet
 facet normal -0.0 0.0 1.0
  outer loop
   vertex -0.00033782898114669983 20.819999999999997 0.36
   vertex 19.35037434349997 12.722243186433547 0.36
   vertex 42.15314568161201 20.819999999999997 0.36
  endloop
 endfacet
 facet normal 0.0 0.0 1.0
  outer loop
   vertex 42.15314568161201 20.819999999999997 0.36
   vertex 20.200374343499966 11.25 0.36
   vertex 26.37850099535747 0.001 0.36
  endloop
 endfacet
 facet normal 0.0 0.0 1.0
  outer loop
   vertex 26.37850099535747 0.001 0.36
   vertex 17.028131157066422 10.4 0.36
   vertex -0.016916560028490343 0.001 0.36
  endloop
 endfacet
 facet normal 0.0 0.0 1.0
  outer loop
   vertex -0.016916560028490343 0.001 0.36
   vertex 4.527756813566454 12.100000000000001 0.36
   vertex -0.00033782898114669983 20.819999999999997 0.36
  endloop
 endfacet
 facet normal 0.0 -0.0 1.0
  outer loop
   vertex 20.200374343499966 11.25 0.36
   vertex 42.15314568161201 20.819999999999997 0.36
   vertex 19.972617529933512 12.1 0.36
  endloop
 endfacet
 facet normal 0.0 0.0 1.0
  outer loop
   vertex 20.200374343499966 11.25 0.36
   vertex 19.972617529933512 10.399999999999999 0.36
   vertex 26.37850099535747 0.001 0.36
  endloop
 endfacet
 facet normal 0.0 -0.0 1.0
  outer loop
   vertex 19.972617529933512 12.1 0.36
   vertex 42.15314568161201 20.819999999999997 0.36
   vertex 19.35037434349997 12.722243186433547 0.36
  endloop
 endfacet
 facet normal 0.0 0.0 1.0
  outer loop
   vertex 19.35037434349997 12.722243186433547 0.36
   vertex -0.00033782898114669983 20.819999999999997 0.36
   vertex 18.500374343499967 12.950000000000001 0.36
  endloop
 endfacet
 facet normal 0.0 0.0 1.0
  outer loop
   vertex 18.500374343499967 12.950000000000001 0.36
   vertex -0.00033782898114669983 20.819999999999997 0.36
   vertex 6.0 12.95 0.36
  endloop
 endfacet
 facet normal 0.0 0.0 1.0
  outer loop
   vertex 18.500374343499967 12.950000000000001 0.36
   vertex 7.7 11.25 0.36
   vertex 7.472243186433546 10.399999999999999 0.36
  endloop
 endfacet
 facet normal 0.0 0.0 1.0
  outer loop
   vertex 18.500374343499967 12.950000000000001 0.36
   vertex 7.472243186433546 12.1 0.36
   vertex 7.7 11.25 0.36
  endloop
 endfacet
 facet normal 0.0 0.0 1.0
  outer loop
   vertex 18.500374343499967 12.950000000000001 0.36
   vertex 6.8500000000000005 12.722243186433545 0.36
   vertex 7.472243186433546 12.1 0.36
  endloop
 endfacet
 facet normal 0.0 0.0 1.0
  outer loop
   vertex 18.500374343499967 12.950000000000001 0.36
   vertex 6.0 12.95 0.36
   vertex 6.8500000000000005 12.722243186433545 0.36
  endloop
 endfacet
 facet normal 0.0 0.0 1.0
  outer loop
   vertex 18.500374343499967 12.950000000000001 0.36
   vertex 7.472243186433546 10.399999999999999 0.36
   vertex 17.650374343499966 12.722243186433547 0.36
  endloop
 endfacet
 facet normal 0.0 0.0 1.0
  outer loop
   vertex 17.650374343499966 12.722243186433547 0.36
   vertex -0.016916560028490343 0.001 0.36
   vertex 17.028131157066422 12.100000000000001 0.36
  endloop
 endfacet
 facet normal 0.0 0.0 1.0
  outer loop
   vertex 17.650374343499966 12.722243186433547 0.36
   vertex 6.849999999999999 9.777756813566453 0.36
   vertex -0.016916560028490343 0.001 0.36
  endloop
 endfacet
 facet normal 0.0 0.0 1.0
  outer loop
   vertex 17.650374343499966 12.722243186433547 0.36
   vertex 7.472243186433546 10.399999999999999 0.36
   vertex 6.849999999999999 9.777756813566453 0.36
  endloop
 endfacet
 facet normal 0.0 0.0 1.0
  outer loop
   vertex 17.028131157066422 12.100000000000001 0.36
   vertex -0.016916560028490343 0.001 0.36
   vertex 16.800374343499968 11.25 0.36
  endloop
 endfacet
 facet normal 0.0 0.0 1.0
  outer loop
   vertex 16.800374343499968 11.25 0.36
   vertex -0.016916560028490343 0.001 0.36
   vertex 17.028131157066422 10.4 0.36
  endloop
 endfacet
 facet normal 0.0 0.0 1.0
  outer loop
   vertex 17.028131157066422 10.4 0.36
   vertex 26.37850099535747 0.001 0.36
   vertex 17.650374343499966 9.777756813566455 0.36
  endloop
 endfacet
 facet normal 0.0 0.0 1.0
  outer loop
   vertex 17.650374343499966 9.777756813566455 0.36
   vertex 26.37850099535747 0.001 0.36
   vertex 18.500374343499967 9.549999999999999 0.36
  endloop
 endfacet
 facet normal -0.0 0.0 1.0
  outer loop
   vertex 18.500374343499967 9.549999999999999 0.36
   vertex 26.37850099535747 0.001 0.36
   vertex 19.350374343499965 9.777756813566453 0.36
  endloop
 endfacet
 facet normal -0.0 0.0 1.0
  outer loop
   vertex 19.350374343499965 9.777756813566453 0.36
   vertex 26.37850099535747 0.001 0.36
   vertex 19.972617529933512 10.399999999999999 0.36
  endloop
 endfacet
 facet normal 0.0 0.0 1.0
  outer loop
   vertex 6.0 12.95 0.36
   vertex -0.00033782898114669983 20.819999999999997 0.36
   vertex 5.15 12.722243186433547 0.36
  endloop
 endfacet
 facet normal 0.0 0.0 1.0
  outer loop
   vertex 5.15 12.722243186433547 0.36
   vertex -0.00033782898114669983 20.819999999999997 0.36
   vertex 4.527756813566454 12.100000000000001 0.36
  endloop
 endfacet
 facet normal 0.0 0.0 1.0
  outer loop
   vertex 4.527756813566454 12.100000000000001 0.36
   vertex -0.016916560028490343 0.001 0.36
   vertex 4.3 11.25 0.36
  endloop
 endfacet
 facet normal 0.0 0.0 1.0
  outer loop
   vertex 4.3 11.25 0.36
   vertex -0.016916560028490343 0.001 0.36
   vertex 4.527756813566453 10.4 0.36
  endloop
 endfacet
 facet normal 0.0 0.0 1.0
  outer loop
   vertex 4.527756813566453 10.4 0.36
   vertex -0.016916560028490343 0.001 0.36
   vertex 5.1499999999999995 9.777756813566455 0.36
  endloop
 endfacet
 facet normal 0.0 0.0 1.0
  outer loop
   vertex 5.1499999999999995 9.777756813566455 0.36
   vertex -0.016916560028490343 0.001 0.36
   vertex 6.0 9.55 0.36
  endloop
 endfacet
 facet normal -0.0 0.0 1.0
  outer loop
   vertex 6.0 9.55 0.36
   vertex -0.016916560028490343 0.001 0.36
   vertex 6.849999999999999 9.777756813566453 0.36
  endloop
 endfacet
 facet normal -0.9659258262890683 -0.2588190451025211 0.0
  outer loop
   vertex 20.200374343499966 11.25 0
   vertex 20.200374343499966 11.25 0.36
   vertex 19.972617529933512 12.1 0
  endloop
 endfacet
 facet normal -0.9659258262890683 -0.2588190451025211 0.0
  outer loop
   vertex 19.972617529933512 12.1 0
   vertex 20.200374343499966 11.25 0.36
   vertex 19.972617529933512 12.1 0.36
  endloop
 endfacet
 facet normal -0.7071067811865496 -0.7071067811865456 0.0
  outer loop
   vertex 19.972617529933512 12.1 0
   vertex 19.972617529933512 12.1 0.36
   vertex 19.35037434349997 12.722243186433547 0
  endloop
 endfacet
 facet normal -0.7071067811865496 -0.7071067811865456 0.0
  outer loop
   vertex 19.35037434349997 12.722243186433547 0
   vertex 19.972617529933512 12.1 0.36
   vertex 19.35037434349997 12.722243186433547 0.36
  endloop
 endfacet
 facet normal -0.2588190451025206 -0.9659258262890683 0.0
  outer loop
   vertex 19.35037434349997 12.722243186433547 0
   vertex 19.35037434349997 12.722243186433547 0.36
   vertex 18.500374343499967 12.950000000000001 0
  endloop
 endfacet
 facet normal -0.2588190451025206 -0.9659258262890683 0.0
  outer loop
   vertex 18.500374343499967 12.950000000000001 0
   vertex 19.35037434349997 12.722243186433547 0.36
   vertex 18.500374343499967 12.950000000000001 0.36
  endloop
 endfacet
 facet normal 0.2588190451025206 -0.9659258262890683 0.0
  outer loop
   vertex 18.500374343499967 12.950000000000001 0
   vertex 18.500374343499967 12.950000000000001 0.36
   vertex 17.650374343499966 12.722243186433547 0
  endloop
 endfacet
 facet normal 0.2588190451025206 -0.9659258262890683 0.0
  outer loop
   vertex 17.650374343499966 12.722243186433547 0
   vertex 18.500374343499967 12.950000000000001 0.36
   vertex 17.650374343499966 12.722243186433547 0.36
  endloop
 endfacet
 facet normal 0.7071067811865486 -0.7071067811865466 0.0
  outer loop
   vertex 17.650374343499966 12.722243186433547 0
   vertex 17.650374343499966 12.722243186433547 0.36
   vertex 17.028131157066422 12.100000000000001 0
  endloop
 endfacet
 facet normal 0.7071067811865486 -0.7071067811865466 0.0
  outer loop
   vertex 17.028131157066422 12.100000000000001 0
   vertex 17.650374343499966 12.722243186433547 0.36
   vertex 17.028131157066422 12.100000000000001 0.36
  endloop
 endfacet
 facet normal 0.9659258262890683 -0.2588190451025206 0.0
  outer loop
   vertex 17.028131157066422 12.100000000000001 0
   vertex 17.028131157066422 12.100000000000001 0.36
   vertex 16.800374343499968 11.25 0
  endloop
 endfacet
 facet normal 0.9659258262890683 -0.2588190451025206 0.0
  outer loop
   vertex 16.800374343499968 11.25 0
   vertex 17.028131157066422 12.100000000000001 0.36
   vertex 16.800374343499968 11.25 0.36
  endloop
 endfacet
 facet normal 0.9659258262890683 0.2588190451025211 -0.0
  outer loop
   vertex 16.800374343499968 11.25 0
   vertex 16.800374343499968 11.25 0.36
   vertex 17.028131157066422 10.4 0
  endloop
 endfacet
 facet normal 0.9659258262890683 0.2588190451025211 -0.0
  outer loop
   vertex 17.028131157066422 10.4 0
   vertex 16.800374343499968 11.25 0.36
   vertex 17.028131157066422 10.4 0.36
  endloop
 endfacet
 facet normal 0.7071067811865486 0.7071067811865466 -0.0
  outer loop
   vertex 17.028131157066422 10.4 0
   vertex 17.028131157066422 10.4 0.36
   vertex 17.650374343499966 9.777756813566455 0
  endloop
 endfacet
 facet normal 0.7071067811865486 0.7071067811865466 -0.0
  outer loop
   vertex 17.650374343499966 9.777756813566455 0
   vertex 17.028131157066422 10.4 0.36
   vertex 17.650374343499966 9.777756813566455 0.36
  endloop
 endfacet
 facet normal 0.25881904510252246 0.9659258262890679 -0.0
  outer loop
   vertex 17.650374343499966 9.777756813566455 0
   vertex 17.650374343499966 9.777756813566455 0.36
   vertex 18.500374343499967 9.549999999999999 0
  endloop
 endfacet
 facet normal 0.25881904510252246 0.9659258262890679 -0.0
  outer loop
   vertex 18.500374343499967 9.549999999999999 0
   vertex 17.650374343499966 9.777756813566455 0.36
   vertex 18.500374343499967 9.549999999999999 0.36
  endloop
 endfacet
 facet normal -0.25881904510252157 0.965925826289068 0.0
  outer loop
   vertex 18.500374343499967 9.549999999999999 0
   vertex 18.500374343499967 9.549999999999999 0.36
   vertex 19.350374343499965 9.777756813566453 0
  endloop
 endfacet
 facet normal -0.25881904510252157 0.965925826289068 0.0
  outer loop
   vertex 19.350374343499965 9.777756813566453 0
   vertex 18.500374343499967 9.549999999999999 0.36
   vertex 19.350374343499965 9.777756813566453 0.36
  endloop
 endfacet
 facet normal -0.7071067811865465 0.7071067811865485 0.0
  outer loop
   vertex 19.350374343499965 9.777756813566453 0
   vertex 19.350374343499965 9.777756813566453 0.36
   vertex 19.972617529933512 10.399999999999999 0
  endloop
 endfacet
 facet normal -0.7071067811865465 0.7071067811865485 0.0
  outer loop
   vertex 19.972617529933512 10.399999999999999 0
   vertex 19.350374343499965 9.777756813566453 0.36
   vertex 19.972617529933512 10.399999999999999 0.36
  endloop
 endfacet
 facet normal -0.9659258262890683 0.2588190451025206 0.0
  outer loop
   vertex 19.972617529933512 10.399999999999999 0
   vertex 19.972617529933512 10.399999999999999 0.36
   vertex 20.200374343499966 11.25 0
  endloop
 endfacet
 facet normal -0.9659258262890683 0.2588190451025206 0.0
  outer loop
   vertex 20.200374343499966 11.25 0
   vertex 19.972617529933512 10.399999999999999 0.36
   vertex 20.200374343499966 11.25 0.36
  endloop
 endfacet
 facet normal -0.9659258262890683 -0.2588190451025211 0.0
  outer loop
   vertex 7.7 11.25 0
   vertex 7.7 11.25 0.36
   vertex 7.472243186433546 12.1 0
  endloop
 endfacet
 facet normal -0.9659258262890683 -0.2588190451025211 0.0
  outer loop
   vertex 7.472243186433546 12.1 0
   vertex 7.7 11.25 0.36
   vertex 7.472243186433546 12.1 0.36
  endloop
 endfacet
 facet normal -0.7071067811865475 -0.7071067811865475 0.0
  outer loop
   vertex 7.472243186433546 12.1 0
   vertex 7.472243186433546 12.1 0.36
   vertex 6.8500000000000005 12.722243186433545 0
  endloop
 endfacet
 facet normal -0.7071067811865475 -0.7071067811865475 0.0
  outer loop
   vertex 6.8500000000000005 12.722243186433545 0
   vertex 7.472243186433546 12.1 0.36
   vertex 6.8500000000000005 12.722243186433545 0.36
  endloop
 endfacet
 facet normal -0.25881904510252085 -0.9659258262890683 0.0
  outer loop
   vertex 6.8500000000000005 12.722243186433545 0
   vertex 6.8500000000000005 12.722243186433545 0.36
   vertex 6.0 12.95 0
  endloop
 endfacet
 facet normal -0.25881904510252085 -0.9659258262890683 0.0
  outer loop
   vertex 6.0 12.95 0
   vertex 6.8500000000000005 12.722243186433545 0.36
   vertex 6.0 12.95 0.36
  endloop
 endfacet
 facet normal 0.2588190451025192 -0.9659258262890688 0.0
  outer loop
   vertex 6.0 12.95 0
   vertex 6.0 12.95 0.36
   vertex 5.15 12.722243186433547 0
  endloop
 endfacet
 facet normal 0.2588190451025192 -0.9659258262890688 0.0
  outer loop
   vertex 5.15 12.722243186433547 0
   vertex 6.0 12.95 0.36
   vertex 5.15 12.722243186433547 0.36
  endloop
 endfacet
 facet normal 0.707106781186547 -0.707106781186548 0.0
  outer loop
   vertex 5.15 12.722243186433547 0
   vertex 5.15 12.722243186433547 0.36
   vertex 4.527756813566454 12.100000000000001 0
  endloop
 endfacet
 facet normal 0.707106781186547 -0.707106781186548 0.0
  outer loop
   vertex 4.527756813566454 12.100000000000001 0
   vertex 5.15 12.722243186433547 0.36
   vertex 4.527756813566454 12.100000000000001 0.36
  endloop
 endfacet
 facet normal 0.9659258262890683 -0.2588190451025206 0.0
  outer loop
   vertex 4.527756813566454 12.100000000000001 0
   vertex 4.527756813566454 12.100000000000001 0.36
   vertex 4.3 11.25 0
  endloop
 endfacet
 facet normal 0.9659258262890683 -0.2588190451025206 0.0
  outer loop
   vertex 4.3 11.25 0
   vertex 4.527756813566454 12.100000000000001 0.36
   vertex 4.3 11.25 0.36
  endloop
 endfacet
 facet normal 0.9659258262890684 0.25881904510252013 -0.0
  outer loop
   vertex 4.3 11.25 0
   vertex 4.3 11.25 0.36
   vertex 4.527756813566453 10.4 0
  endloop
 endfacet
 facet normal 0.9659258262890684 0.25881904510252013 -0.0
  outer loop
   vertex 4.527756813566453 10.4 0
   vertex 4.3 11.25 0.36
   vertex 4.527756813566453 10.4 0.36
  endloop
 endfacet
 facet normal 0.707106781186547 0.707106781186548 -0.0
  outer loop
   vertex 4.527756813566453 10.4 0
   vertex 4.527756813566453 10.4 0.36
   vertex 5.1499999999999995 9.777756813566455 0
  endloop
 endfacet
 facet normal 0.707106781186547 0.707106781186548 -0.0
  outer loop
   vertex 5.1499999999999995 9.777756813566455 0
   vertex 4.527756813566453 10.4 0.36
   vertex 5.1499999999999995 9.777756813566455 0.36
  endloop
 endfacet
 facet normal 0.25881904510252085 0.9659258262890683 -0.0
  outer loop
   vertex 5.1499999999999995 9.777756813566455 0
   vertex 5.1499999999999995 9.777756813566455 0.36
   vertex 6.0 9.55 0
  endloop
 endfacet
 facet normal 0.25881904510252085 0.9659258262890683 -0.0
  outer loop
   vertex 6.0 9.55 0
   vertex 5.1499999999999995 9.777756813566455 0.36
   vertex 6.0 9.55 0.36
  endloop
 endfacet
 facet normal -0.2588190451025194 0.9659258262890685 0.0
  outer loop
   vertex 6.0 9.55 0
   vertex 6.0 9.55 0.36
   vertex 6.849999999999999 9.777756813566453 0
  endloop
 endfacet
 facet normal -0.2588190451025194 0.9659258262890685 0.0
  outer loop
   vertex 6.849999999999999 9.777756813566453 0
   vertex 6.0 9.55 0.36
   vertex 6.849999999999999 9.777756813566453 0.36
  endloop
 endfacet
 facet normal -0.7071067811865465 0.7071067811865485 0.0
  outer loop
   vertex 6.849999999999999 9.777756813566453 0
   vertex 6.849999999999999 9.777756813566453 0.36
   vertex 7.472243186433546 10.399999999999999 0
  endloop
 endfacet
 facet normal -0.7071067811865465 0.7071067811865485 0.0
  outer loop
   vertex 7.472243186433546 10.399999999999999 0
   vertex 6.849999999999999 9.777756813566453 0.36
   vertex 7.472243186433546 10.399999999999999 0.36
  endloop
 endfacet
 facet normal -0.9659258262890683 0.2588190451025206 0.0
  outer loop
   vertex 7.472243186433546 10.399999999999999 0
   vertex 7.472243186433546 10.399999999999999 0.36
   vertex 7.7 11.25 0
  endloop
 endfacet
 facet normal -0.9659258262890683 0.2588190451025206 0.0
  outer loop
   vertex 7.7 11.25 0
   vertex 7.472243186433546 10.399999999999999 0.36
   vertex 7.7 11.25 0.36
  endloop
 endfacet
 facet normal 0.0 0.0 -1.0
  outer loop
   vertex 42.153145681612024 24.179999999999996 0
   vertex -0.0003378289811466942 24.179999999999996 0
   vertex 17.65037434349997 32.277756813566455 0
  endloop
 endfacet
 facet normal 0.0 0.0 -1.0
  outer loop
   vertex -0.0003378289811466942 24.179999999999996 0
   vertex -0.016916560028490346 44.999 0
   vertex 4.527756813566454 34.6 0
  endloop
 endfacet
 facet normal 0.0 0.0 -1.0
  outer loop
   vertex -0.016916560028490346 44.999 0
   vertex 26.37850099535747 44.999 0
   vertex 19.350374343499972 35.222243186433545 0
  endloop
 endfacet
 facet normal 0.0 -0.0 -1.0
  outer loop
   vertex 26.37850099535747 44.999 0
   vertex 42.153145681612024 24.179999999999996 0
   vertex 20.20037434349997 33.75 0
  endloop
 endfacet
 facet normal 0.0 -0.0 -1.0
  outer loop
   vertex 20.20037434349997 33.75 0
   vertex 42.153145681612024 24.179999999999996 0
   vertex 19.972617529933515 32.9 0
  endloop
 endfacet
 facet normal 0.0 0.0 -1.0
  outer loop
   vertex 20.20037434349997 33.75 0
   vertex 19.972617529933515 34.6 0
   vertex 26.37850099535747 44.999 0
  endloop
 endfacet
 facet normal 0.0 0.0 -1.0
  outer loop
   vertex 19.972617529933515 34.6 0
   vertex 19.350374343499972 35.222243186433545 0
   vertex 26.37850099535747 44.999 0
  endloop
 endfacet
 facet normal 0.0 0.0 -1.0
  outer loop
   vertex 19.350374343499972 35.222243186433545 0
   vertex 18.50037434349997 35.45 0
   vertex -0.016916560028490346 44.999 0
  endloop
 endfacet
 facet normal 0.0 0.0 -1.0
  outer loop
   vertex 18.50037434349997 35.45 0
   vertex 6.0 35.45 0
   vertex -0.016916560028490346 44.999 0
  endloop
 endfacet
 facet normal 0.0 0.0 -1.0
  outer loop
   vertex 18.50037434349997 35.45 0
   vertex 7.472243186433546 32.9 0
   vertex 7.7 33.75 0
  endloop
 endfacet
 facet normal 0.0 0.0 -1.0
  outer loop
   vertex 18.50037434349997 35.45 0
   vertex 7.7 33.75 0
   vertex 7.472243186433546 34.6 0
  endloop
 endfacet
 facet normal 0.0 0.0 -1.0
  outer loop
   vertex 18.50037434349997 35.45 0
   vertex 7.472243186433546 34.6 0
   vertex 6.8500000000000005 35.222243186433545 0
  endloop
 endfacet
 facet normal -0.0 0.0 -1.0
  outer loop
   vertex 18.50037434349997 35.45 0
   vertex 6.8500000000000005 35.222243186433545 0
   vertex 6.0 35.45 0
  endloop
 endfacet
 facet normal 0.0 0.0 -1.0
  outer loop
   vertex 18.50037434349997 35.45 0
   vertex 17.65037434349997 35.222243186433545 0
   vertex 7.472243186433546 32.9 0
  endloop
 endfacet
 facet normal 0.0 0.0 -1.0
  outer loop
   vertex 17.65037434349997 35.222243186433545 0
   vertex 17.028131157066426 34.6 0
   vertex -0.0003378289811466942 24.179999999999996 0
  endloop
 endfacet
 facet normal 0.0 0.0 -1.0
  outer loop
   vertex 17.65037434349997 35.222243186433545 0
   vertex -0.0003378289811466942 24.179999999999996 0
   vertex 6.849999999999999 32.277756813566455 0
  endloop
 endfacet
 facet normal 0.0 0.0 -1.0
  outer loop
   vertex 17.65037434349997 35.222243186433545 0
   vertex 6.849999999999999 32.277756813566455 0
   vertex 7.472243186433546 32.9 0
  endloop
 endfacet
 facet normal 0.0 0.0 -1.0
  outer loop
   vertex 17.028131157066426 34.6 0
   vertex 16.80037434349997 33.75 0
   vertex -0.0003378289811466942 24.179999999999996 0
  endloop
 endfacet
 facet normal 0.0 -0.0 -1.0
  outer loop
   vertex 16.80037434349997 33.75 0
   vertex 17.028131157066426 32.9 0
   vertex -0.0003378289811466942 24.179999999999996 0
  endloop
 endfacet
 facet normal 0.0 -0.0 -1.0
  outer loop
   vertex 17.028131157066426 32.9 0
   vertex 17.65037434349997 32.277756813566455 0
   vertex -0.0003378289811466942 24.179999999999996 0
  endloop
 endfacet
 facet normal 0.0 0.0 -1.0
  outer loop
   vertex 17.65037434349997 32.277756813566455 0
   vertex 18.50037434349997 32.05 0
   vertex 42.153145681612024 24.179999999999996 0
  endloop
 endfacet
 facet normal 0.0 0.0 -1.0
  outer loop
   vertex 18.50037434349997 32.05 0
   vertex 19.35037434349997 32.277756813566455 0
   vertex 42.153145681612024 24.179999999999996 0
  endloop
 endfacet
 facet normal 0.0 0.0 -1.0
  outer loop
   vertex 19.35037434349997 32.277756813566455 0
   vertex 19.972617529933515 32.9 0
   vertex 42.153145681612024 24.179999999999996 0
  endloop
 endfacet
 facet normal -0.0 0.0 -1.0
  outer loop
   vertex 6.0 35.45 0
   vertex 5.15 35.222243186433545 0
   vertex -0.016916560028490346 44.999 0
  endloop
 endfacet
 facet normal -0.0 0.0 -1.0
  outer loop
   vertex 5.15 35.222243186433545 0
   vertex 4.527756813566454 34.6 0
   vertex -0.016916560028490346 44.999 0
  endloop
 endfacet
 facet normal 0.0 0.0 -1.0
  outer loop
   vertex 4.527756813566454 34.6 0
   vertex 4.3 33.75 0
   vertex -0.0003378289811466942 24.179999999999996 0
  endloop
 endfacet
 facet normal 0.0 -0.0 -1.0
  outer loop
   vertex 4.3 33.75 0
   vertex 4.527756813566453 32.9 0
   vertex -0.0003378289811466942 24.179999999999996 0
  endloop
 endfacet
 facet normal 0.0 -0.0 -1.0
  outer loop
   vertex 4.527756813566453 32.9 0
   vertex 5.1499999999999995 32.277756813566455 0
   vertex -0.0003378289811466942 24.179999999999996 0
  endloop
 endfacet
 facet normal 0.0 -0.0 -1.0
  outer loop
   vertex 5.1499999999999995 32.277756813566455 0
   vertex 6.0 32.05 0
   vertex -0.0003378289811466942 24.179999999999996 0
  endloop
 endfacet
 facet normal 0.0 -0.0 -1.0
  outer loop
   vertex 6.0 32.05 0
   vertex 6.849999999999999 32.277756813566455 0
   vertex -0.0003378289811466942 24.179999999999996 0
  endloop
 endfacet
 facet normal 0.0 -1.0 0.0
  outer loop
   vertex -0.0003378289811466942 24.179999999999996 0
   vertex 42.153145681612024 24.179999999999996 0
   vertex 42.153145681612024 24.179999999999996 0.36
  endloop
 endfacet
 facet normal 0.0 -1.0 0.0
  outer loop
   vertex -0.0003378289811466942 24.179999999999996 0.36
   vertex -0.0003378289811466942 24.179999999999996 0
   vertex 42.153145681612024 24.179999999999996 0.36
  endloop
 endfacet
 facet normal -0.9999996829318346 -0.0007963267107332635 0.0
  outer loop
   vertex -0.016916560028490346 44.999 0
   vertex -0.0003378289811466942 24.179999999999996 0
   vertex -0.0003378289811466942 24.179999999999996 0.36
  endloop
 endfacet
 facet normal -0.9999996829318346 -0.0007963267107332635 -0.0
  outer loop
   vertex -0.016916560028490346 44.999 0.36
   vertex -0.016916560028490346 44.999 0
   vertex -0.0003378289811466942 24.179999999999996 0.36
  endloop
 endfacet
 facet normal 0.0 1.0 0.0
  outer loop
   vertex 26.37850099535747 44.999 0
   vertex -0.016916560028490346 44.999 0
   vertex -0.016916560028490346 44.999 0.36
  endloop
 endfacet
 facet normal 0.0 1.0 0.0
  outer loop
   vertex 26.37850099535747 44.999 0.36
   vertex 26.37850099535747 44.999 0
   vertex -0.016916560028490346 44.999 0.36
  endloop
 endfacet
 facet normal 0.7970428523015174 0.6039227530032807 0.0
  outer loop
   vertex 42.153145681612024 24.179999999999996 0
   vertex 26.37850099535747 44.999 0
   vertex 26.37850099535747 44.999 0.36
  endloop
 endfacet
 facet normal 0.7970428523015174 0.6039227530032807 0.0
  outer loop
   vertex 42.153145681612024 24.179999999999996 0.36
   vertex 42.153145681612024 24.179999999999996 0
   vertex 26.37850099535747 44.999 0.36
  endloop
 endfacet
 facet normal 0.0 0.0 1.0
  outer loop
   vertex 42.153145681612024 24.179999999999996 0.36
   vertex 17.65037434349997 32.277756813566455 0.36
   vertex -0.0003378289811466942 24.179999999999996 0.36
  endloop
 endfacet
 facet normal 0.0 -0.0 1.0
  outer loop
   vertex -0.0003378289811466942 24.179999999999996 0.36
   vertex 4.527756813566454 34.6 0.36
   vertex -0.016916560028490346 44.999 0.36
  endloop
 endfacet
 facet normal -0.0 0.0 1.0
  outer loop
   vertex -0.016916560028490346 44.999 0.36
   vertex 19.350374343499972 35.222243186433545 0.36
   vertex 26.37850099535747 44.999 0.36
  endloop
 endfacet
 facet normal 0.0 0.0 1.0
  outer loop
   vertex 26.37850099535747 44.999 0.36
   vertex 20.20037434349997 33.75 0.36
   vertex 42.153145681612024 24.179999999999996 0.36
  endloop
 endfacet
 facet normal 0.0 0.0 1.0
  outer loop
   vertex 20.20037434349997 33.75 0.36
   vertex 19.972617529933515 32.9 0.36
   vertex 42.153145681612024 24.179999999999996 0.36
  endloop
 endfacet
 facet normal 0.0 -0.0 1.0
  outer loop
   vertex 20.20037434349997 33.75 0.36
   vertex 26.37850099535747 44.999 0.36
   vertex 19.972617529933515 34.6 0.36
  endloop
 endfacet
 facet normal 0.0 -0.0 1.0
  outer loop
   vertex 19.972617529933515 34.6 0.36
   vertex 26.37850099535747 44.999 0.36
   vertex 19.350374343499972 35.222243186433545 0.36
  endloop
 endfacet
 facet normal 0.0 0.0 1.0
  outer loop
   vertex 19.350374343499972 35.222243186433545 0.36
   vertex -0.016916560028490346 44.999 0.36
   vertex 18.50037434349997 35.45 0.36
  endloop
 endfacet
 facet normal 0.0 0.0 1.0
  outer loop
   vertex 18.50037434349997 35.45 0.36
   vertex -0.016916560028490346 44.999 0.36
   vertex 6.0 35.45 0.36
  endloop
 endfacet
 facet normal 0.0 0.0 1.0
  outer loop
   vertex 18.50037434349997 35.45 0.36
   vertex 7.7 33.75 0.36
   vertex 7.472243186433546 32.9 0.36
  endloop
 endfacet
 facet normal 0.0 0.0 1.0
  outer loop
   vertex 18.50037434349997 35.45 0.36
   vertex 7.472243186433546 34.6 0.36
   vertex 7.7 33.75 0.36
  endloop
 endfacet
 facet normal 0.0 0.0 1.0
  outer loop
   vertex 18.50037434349997 35.45 0.36
   vertex 6.8500000000000005 35.222243186433545 0.36
   vertex 7.472243186433546 34.6 0.36
  endloop
 endfacet
 facet normal 0.0 0.0 1.0
  outer loop
   vertex 18.50037434349997 35.45 0.36
   vertex 6.0 35.45 0.36
   vertex 6.8500000000000005 35.222243186433545 0.36
  endloop
 endfacet
 facet normal 0.0 0.0 1.0
  outer loop
   vertex 18.50037434349997 35.45 0.36
   vertex 7.472243186433546 32.9 0.36
   vertex 17.65037434349997 35.222243186433545 0.36
  endloop
 endfacet
 facet normal 0.0 0.0 1.0
  outer loop
   vertex 17.65037434349997 35.222243186433545 0.36
   vertex -0.0003378289811466942 24.179999999999996 0.36
   vertex 17.028131157066426 34.6 0.36
  endloop
 endfacet
 facet normal 0.0 0.0 1.0
  outer loop
   vertex 17.65037434349997 35.222243186433545 0.36
   vertex 6.849999999999999 32.277756813566455 0.36
   vertex -0.0003378289811466942 24.179999999999996 0.36
  endloop
 endfacet
 facet normal 0.0 0.0 1.0
  outer loop
   vertex 17.65037434349997 35.222243186433545 0.36
   vertex 7.472243186433546 32.9 0.36
   vertex 6.849999999999999 32.277756813566455 0.36
  endloop
 endfacet
 facet normal 0.0 0.0 1.0
  outer loop
   vertex 17.028131157066426 34.6 0.36
   vertex -0.0003378289811466942 24.179999999999996 0.36
   vertex 16.80037434349997 33.75 0.36
  endloop
 endfacet
 facet normal 0.0 0.0 1.0
  outer loop
   vertex 16.80037434349997 33.75 0.36
   vertex -0.0003378289811466942 24.179999999999996 0.36
   vertex 17.028131157066426 32.9 0.36
  endloop
 endfacet
 facet normal 0.0 0.0 1.0
  outer loop
   vertex 17.028131157066426 32.9 0.36
   vertex -0.0003378289811466942 24.179999999999996 0.36
   vertex 17.65037434349997 32.277756813566455 0.36
  endloop
 endfacet
 facet normal 0.0 0.0 1.0
  outer loop
   vertex 17.65037434349997 32.277756813566455 0.36
   vertex 42.153145681612024 24.179999999999996 0.36
   vertex 18.50037434349997 32.05 0.36
  endloop
 endfacet
 facet normal -0.0 0.0 1.0
  outer loop
   vertex 18.50037434349997 32.05 0.36
   vertex 42.153145681612024 24.179999999999996 0.36
   vertex 19.35037434349997 32.277756813566455 0.36
  endloop
 endfacet
 facet normal -0.0 0.0 1.0
  outer loop
   vertex 19.35037434349997 32.277756813566455 0.36
   vertex 42.153145681612024 24.179999999999996 0.36
   vertex 19.972617529933515 32.9 0.36
  endloop
 endfacet
 facet normal 0.0 0.0 1.0
  outer loop
   vertex 6.0 35.45 0.36
   vertex -0.016916560028490346 44.999 0.36
   vertex 5.15 35.222243186433545 0.36
  endloop
 endfacet
 facet normal 0.0 0.0 1.0
  outer loop
   vertex 5.15 35.222243186433545 0.36
   vertex -0.016916560028490346 44.999 0.36
   vertex 4.527756813566454 34.6 0.36
  endloop
 endfacet
 facet normal 0.0 0.0 1.0
  outer loop
   vertex 4.527756813566454 34.6 0.36
   vertex -0.0003378289811466942 24.179999999999996 0.36
   vertex 4.3 33.75 0.36
  endloop
 endfacet
 facet normal 0.0 0.0 1.0
  outer loop
   vertex 4.3 33.75 0.36
   vertex -0.0003378289811466942 24.179999999999996 0.36
   vertex 4.527756813566453 32.9 0.36
  endloop
 endfacet
 facet normal 0.0 0.0 1.0
  outer loop
   vertex 4.527756813566453 32.9 0.36
   vertex -0.0003378289811466942 24.179999999999996 0.36
   vertex 5.1499999999999995 32.277756813566455 0.36
  endloop
 endfacet
 facet normal 0.0 0.0 1.0
  outer loop
   vertex 5.1499999999999995 32.277756813566455 0.36
   vertex -0.0003378289811466942 24.179999999999996 0.36
   vertex 6.0 32.05 0.36
  endloop
 endfacet
 facet normal -0.0 0.0 1.0
  outer loop
   vertex 6.0 32.05 0.36
   vertex -0.0003378289811466942 24.179999999999996 0.36
   vertex 6.849999999999999 32.277756813566455 0.36
  endloop
 endfacet
 facet normal -0.9659258262890683 -0.2588190451025206 0.0
  outer loop
   vertex 20.20037434349997 33.75 0
   vertex 20.20037434349997 33.75 0.36
   vertex 19.972617529933515 34.6 0
  endloop
 endfacet
 facet normal -0.9659258262890683 -0.2588190451025206 0.0
  outer loop
   vertex 19.972617529933515 34.6 0
   vertex 20.20037434349997 33.75 0.36
   vertex 19.972617529933515 34.6 0.36
  endloop
 endfacet
 facet normal -0.7071067811865476 -0.7071067811865476 0.0
  outer loop
   vertex 19.972617529933515 34.6 0
   vertex 19.972617529933515 34.6 0.36
   vertex 19.350374343499972 35.222243186433545 0
  endloop
 endfacet
 facet normal -0.7071067811865476 -0.7071067811865476 0.0
  outer loop
   vertex 19.350374343499972 35.222243186433545 0
   vertex 19.972617529933515 34.6 0.36
   vertex 19.350374343499972 35.222243186433545 0.36
  endloop
 endfacet
 facet normal -0.25881904510252435 -0.9659258262890673 0.0
  outer loop
   vertex 19.350374343499972 35.222243186433545 0
   vertex 19.350374343499972 35.222243186433545 0.36
   vertex 18.50037434349997 35.45 0
  endloop
 endfacet
 facet normal -0.25881904510252435 -0.9659258262890673 0.0
  outer loop
   vertex 18.50037434349997 35.45 0
   vertex 19.350374343499972 35.222243186433545 0.36
   vertex 18.50037434349997 35.45 0.36
  endloop
 endfacet
 facet normal 0.25881904510252435 -0.9659258262890673 0.0
  outer loop
   vertex 18.50037434349997 35.45 0
   vertex 18.50037434349997 35.45 0.36
   vertex 17.65037434349997 35.222243186433545 0
  endloop
 endfacet
 facet normal 0.25881904510252435 -0.9659258262890673 0.0
  outer loop
   vertex 17.65037434349997 35.222243186433545 0
   vertex 18.50037434349997 35.45 0.36
   vertex 17.65037434349997 35.222243186433545 0.36
  endloop
 endfacet
 facet normal 0.7071067811865476 -0.7071067811865476 0.0
  outer loop
   vertex 17.65037434349997 35.222243186433545 0
   vertex 17.65037434349997 35.222243186433545 0.36
   vertex 17.028131157066426 34.6 0
  endloop
 endfacet
 facet normal 0.7071067811865476 -0.7071067811865476 0.0
  outer loop
   vertex 17.028131157066426 34.6 0
   vertex 17.65037434349997 35.222243186433545 0.36
   vertex 17.028131157066426 34.6 0.36
  endloop
 endfacet
 facet normal 0.9659258262890683 -0.2588190451025206 0.0
  outer loop
   vertex 17.028131157066426 34.6 0
   vertex 17.028131157066426 34.6 0.36
   vertex 16.80037434349997 33.75 0
  endloop
 endfacet
 facet normal 0.9659258262890683 -0.2588190451025206 0.0
  outer loop
   vertex 16.80037434349997 33.75 0
   vertex 17.028131157066426 34.6 0.36
   vertex 16.80037434349997 33.75 0.36
  endloop
 endfacet
 facet normal 0.9659258262890683 0.2588190451025206 -0.0
  outer loop
   vertex 16.80037434349997 33.75 0
   vertex 16.80037434349997 33.75 0.36
   vertex 17.028131157066426 32.9 0
  endloop
 endfacet
 facet normal 0.9659258262890683 0.2588190451025206 -0.0
  outer loop
   vertex 17.028131157066426 32.9 0
   vertex 16.80037434349997 33.75 0.36
   vertex 17.028131157066426 32.9 0.36
  endloop
 endfacet
 facet normal 0.7071067811865476 0.7071067811865476 -0.0
  outer loop
   vertex 17.028131157066426 32.9 0
   vertex 17.028131157066426 32.9 0.36
   vertex 17.65037434349997 32.277756813566455 0
  endloop
 endfacet
 facet normal 0.7071067811865476 0.7071067811865476 -0.0
  outer loop
   vertex 17.65037434349997 32.277756813566455 0
   vertex 17.028131157066426 32.9 0.36
   vertex 17.65037434349997 32.277756813566455 0.36
  endloop
 endfacet
 facet normal 0.25881904510252435 0.9659258262890673 -0.0
  outer loop
   vertex 17.65037434349997 32.277756813566455 0
   vertex 17.65037434349997 32.277756813566455 0.36
   vertex 18.50037434349997 32.05 0
  endloop
 endfacet
 facet normal 0.25881904510252435 0.9659258262890673 -0.0
  outer loop
   vertex 18.50037434349997 32.05 0
   vertex 17.65037434349997 32.277756813566455 0.36
   vertex 18.50037434349997 32.05 0.36
  endloop
 endfacet
 facet normal -0.25881904510252535 0.965925826289067 0.0
  outer loop
   vertex 18.50037434349997 32.05 0
   vertex 18.50037434349997 32.05 0.36
   vertex 19.35037434349997 32.277756813566455 0
  endloop
 endfacet
 facet normal -0.25881904510252535 0.965925826289067 0.0
  outer loop
   vertex 19.35037434349997 32.277756813566455 0
   vertex 18.50037434349997 32.05 0.36
   vertex 19.35037434349997 32.277756813566455 0.36
  endloop
 endfacet
 facet normal -0.7071067811865456 0.7071067811865496 0.0
  outer loop
   vertex 19.35037434349997 32.277756813566455 0
   vertex 19.35037434349997 32.277756813566455 0.36
   vertex 19.972617529933515 32.9 0
  endloop
 endfacet
 facet normal -0.7071067811865456 0.7071067811865496 0.0
  outer loop
   vertex 19.972617529933515 32.9 0
   vertex 19.35037434349997 32.277756813566455 0.36
   vertex 19.972617529933515 32.9 0.36
  endloop
 endfacet
 facet normal -0.9659258262890683 0.2588190451025206 0.0
  outer loop
   vertex 19.972617529933515 32.9 0
   vertex 19.972617529933515 32.9 0.36
   vertex 20.20037434349997 33.75 0
  endloop
 endfacet
 facet normal -0.9659258262890683 0.2588190451025206 0.0
  outer loop
   vertex 20.20037434349997 33.75 0
   vertex 19.972617529933515 32.9 0.36
   vertex 20.20037434349997 33.75 0.36
  endloop
 endfacet
 facet normal -0.9659258262890683 -0.2588190451025206 0.0
  outer loop
   vertex 7.7 33.75 0
   vertex 7.7 33.75 0.36
   vertex 7.472243186433546 34.6 0
  endloop
 endfacet
 facet normal -0.9659258262890683 -0.2588190451025206 0.0
  outer loop
   vertex 7.472243186433546 34.6 0
   vertex 7.7 33.75 0.36
   vertex 7.472243186433546 34.6 0.36
  endloop
 endfacet
 facet normal -0.7071067811865466 -0.7071067811865486 0.0
  outer loop
   vertex 7.472243186433546 34.6 0
   vertex 7.472243186433546 34.6 0.36
   vertex 6.8500000000000005 35.222243186433545 0
  endloop
 endfacet
 facet normal -0.7071067811865466 -0.7071067811865486 0.0
  outer loop
   vertex 6.8500000000000005 35.222243186433545 0
   vertex 7.472243186433546 34.6 0.36
   vertex 6.8500000000000005 35.222243186433545 0.36
  endloop
 endfacet
 facet normal -0.2588190451025246 -0.9659258262890673 0.0
  outer loop
   vertex 6.8500000000000005 35.222243186433545 0
   vertex 6.8500000000000005 35.222243186433545 0.36
   vertex 6.0 35.45 0
  endloop
 endfacet
 facet normal -0.2588190451025246 -0.9659258262890673 0.0
  outer loop
   vertex 6.0 35.45 0
   vertex 6.8500000000000005 35.222243186433545 0.36
   vertex 6.0 35.45 0.36
  endloop
 endfacet
 facet normal 0.25881904510252485 -0.9659258262890673 0.0
  outer loop
   vertex 6.0 35.45 0
   vertex 6.0 35.45 0.36
   vertex 5.15 35.222243186433545 0
  endloop
 endfacet
 facet normal 0.25881904510252485 -0.9659258262890673 0.0
  outer loop
   vertex 5.15 35.222243186433545 0
   vertex 6.0 35.45 0.36
   vertex 5.15 35.222243186433545 0.36
  endloop
 endfacet
 facet normal 0.707106781186546 -0.7071067811865491 0.0
  outer loop
   vertex 5.15 35.222243186433545 0
   vertex 5.15 35.222243186433545 0.36
   vertex 4.527756813566454 34.6 0
  endloop
 endfacet
 facet normal 0.707106781186546 -0.7071067811865491 0.0
  outer loop
   vertex 4.527756813566454 34.6 0
   vertex 5.15 35.222243186433545 0.36
   vertex 4.527756813566454 34.6 0.36
  endloop
 endfacet
 facet normal 0.9659258262890683 -0.2588190451025206 0.0
  outer loop
   vertex 4.527756813566454 34.6 0
   vertex 4.527756813566454 34.6 0.36
   vertex 4.3 33.75 0
  endloop
 endfacet
 facet normal 0.9659258262890683 -0.2588190451025206 0.0
  outer loop
   vertex 4.3 33.75 0
   vertex 4.527756813566454 34.6 0.36
   vertex 4.3 33.75 0.36
  endloop
 endfacet
 facet normal 0.9659258262890685 0.25881904510251963 -0.0
  outer loop
   vertex 4.3 33.75 0
   vertex 4.3 33.75 0.36
   vertex 4.527756813566453 32.9 0
  endloop
 endfacet
 facet normal 0.9659258262890685 0.25881904510251963 -0.0
  outer loop
   vertex 4.527756813566453 32.9 0
   vertex 4.3 33.75 0.36
   vertex 4.527756813566453 32.9 0.36
  endloop
 endfacet
 facet normal 0.707106781186546 0.7071067811865491 -0.0
  outer loop
   vertex 4.527756813566453 32.9 0
   vertex 4.527756813566453 32.9 0.36
   vertex 5.1499999999999995 32.277756813566455 0
  endloop
 endfacet
 facet normal 0.707106781186546 0.7071067811865491 -0.0
  outer loop
   vertex 5.1499999999999995 32.277756813566455 0
   vertex 4.527756813566453 32.9 0.36
   vertex 5.1499999999999995 32.277756813566455 0.36
  endloop
 endfacet
 facet normal 0.2588190451025246 0.9659258262890673 -0.0
  outer loop
   vertex 5.1499999999999995 32.277756813566455 0
   vertex 5.1499999999999995 32.277756813566455 0.36
   vertex 6.0 32.05 0
  endloop
 endfacet
 facet normal 0.2588190451025246 0.9659258262890673 -0.0
  outer loop
   vertex 6.0 32.05 0
   vertex 5.1499999999999995 32.277756813566455 0.36
   vertex 6.0 32.05 0.36
  endloop
 endfacet
 facet normal -0.2588190451025251 0.9659258262890672 0.0
  outer loop
   vertex 6.0 32.05 0
   vertex 6.0 32.05 0.36
   vertex 6.849999999999999 32.277756813566455 0
  endloop
 endfacet
 facet normal -0.2588190451025251 0.9659258262890672 0.0
  outer loop
   vertex 6.849999999999999 32.277756813566455 0
   vertex 6.0 32.05 0.36
   vertex 6.849999999999999 32.277756813566455 0.36
  endloop
 endfacet
 facet normal -0.7071067811865456 0.7071067811865496 0.0
  outer loop
   vertex 6.849999999999999 32.277756813566455 0
   vertex 6.849999999999999 32.277756813566455 0.36
   vertex 7.472243186433546 32.9 0
  endloop
 endfacet
 facet normal -0.7071067811865456 0.7071067811865496 0.0
  outer loop
   vertex 7.472243186433546 32.9 0
   vertex 6.849999999999999 32.277756813566455 0.36
   vertex 7.472243186433546 32.9 0.36
  endloop
 endfacet
 facet normal -0.9659258262890683 0.2588190451025206 0.0
  outer loop
   vertex 7.472243186433546 32.9 0
   vertex 7.472243186433546 32.9 0.36
   vertex 7.7 33.75 0
  endloop
 endfacet
 facet normal -0.9659258262890683 0.2588190451025206 0.0
  outer loop
   vertex 7.7 33.75 0
   vertex 7.472243186433546 32.9 0.36
   vertex 7.7 33.75 0.36
  endloop
 endfacet
 facet normal 0.0 0.0 -1.0
  outer loop
   vertex 46.36872830718574 20.82 0
   vertex 86.00551264886896 20.82 0
   vertex 68.35429958274207 12.722243186433547 0
  endloop
 endfacet
 facet normal 0.0 0.0 -1.0
  outer loop
   vertex 86.00551264886896 20.82 0
   vertex 85.9889339178216 0.001 0
   vertex 69.20429958274208 11.25 0
  endloop
 endfacet
 facet normal 0.0 0.0 -1.0
  outer loop
   vertex 85.9889339178216 0.001 0
   vertex 30.59408362093119 0.001 0
   vertex 66.65429958274208 9.777756813566455 0
  endloop
 endfacet
 facet normal 0.0 0.0 -1.0
  outer loop
   vertex 30.59408362093119 0.001 0
   vertex 46.36872830718574 20.82 0
   vertex 66.65429958274208 12.722243186433547 0
  endloop
 endfacet
 facet normal 0.0 0.0 -1.0
  outer loop
   vertex 69.20429958274208 11.25 0
   vertex 68.97654276917562 12.1 0
   vertex 86.00551264886896 20.82 0
  endloop
 endfacet
 facet normal 0.0 -0.0 -1.0
  outer loop
   vertex 69.20429958274208 11.25 0
   vertex 85.9889339178216 0.001 0
   vertex 68.97654276917562 10.399999999999999 0
  endloop
 endfacet
 facet normal 0.0 0.0 -1.0
  outer loop
   vertex 68.97654276917562 12.1 0
   vertex 68.35429958274207 12.722243186433547 0
   vertex 86.00551264886896 20.82 0
  endloop
 endfacet
 facet normal 0.0 0.0 -1.0
  outer loop
   vertex 68.35429958274207 12.722243186433547 0
   vertex 67.50429958274208 12.950000000000001 0
   vertex 46.36872830718574 20.82 0
  endloop
 endfacet
 facet normal -0.0 0.0 -1.0
  outer loop
   vertex 67.50429958274208 12.950000000000001 0
   vertex 66.65429958274208 12.722243186433547 0
   vertex 46.36872830718574 20.82 0
  endloop
 endfacet
 facet normal 0.0 0.0 -1.0
  outer loop
   vertex 66.65429958274208 12.722243186433547 0
   vertex 66.03205639630853 12.100000000000001 0
   vertex 30.59408362093119 0.001 0
  endloop
 endfacet
 facet normal 0.0 0.0 -1.0
  outer loop
   vertex 66.03205639630853 12.100000000000001 0
   vertex 65.80429958274208 11.25 0
   vertex 30.59408362093119 0.001 0
  endloop
 endfacet
 facet normal 0.0 -0.0 -1.0
  outer loop
   vertex 65.80429958274208 11.25 0
   vertex 66.03205639630853 10.4 0
   vertex 30.59408362093119 0.001 0
  endloop
 endfacet
 facet normal 0.0 -0.0 -1.0
  outer loop
   vertex 66.03205639630853 10.4 0
   vertex 66.65429958274208 9.777756813566455 0
   vertex 30.59408362093119 0.001 0
  endloop
 endfacet
 facet normal 0.0 0.0 -1.0
  outer loop
   vertex 66.65429958274208 9.777756813566455 0
   vertex 67.50429958274208 9.549999999999999 0
   vertex 85.9889339178216 0.001 0
  endloop
 endfacet
 facet normal 0.0 0.0 -1.0
  outer loop
   vertex 67.50429958274208 9.549999999999999 0
   vertex 68.35429958274207 9.777756813566453 0
   vertex 85.9889339178216 0.001 0
  endloop
 endfacet
 facet normal 0.0 0.0 -1.0
  outer loop
   vertex 68.35429958274207 9.777756813566453 0
   vertex 68.97654276917562 10.399999999999999 0
   vertex 85.9889339178216 0.001 0
  endloop
 endfacet
 facet normal 0.0 1.0 0.0
  outer loop
   vertex 86.00551264886896 20.82 0
   vertex 46.36872830718574 20.82 0
   vertex 46.36872830718574 20.82 0.36
  endloop
 endfacet
 facet normal 0.0 1.0 0.0
  outer loop
   vertex 86.00551264886896 20.82 0.36
   vertex 86.00551264886896 20.82 0
   vertex 46.36872830718574 20.82 0.36
  endloop
 endfacet
 facet normal 0.9999996829318346 -0.0007963267107340685 0.0
  outer loop
   vertex 85.9889339178216 0.001 0
   vertex 86.00551264886896 20.82 0
   vertex 86.00551264886896 20.82 0.36
  endloop
 endfacet
 facet normal 0.9999996829318346 -0.0007963267107340685 0.0
  outer loop
   vertex 85.9889339178216 0.001 0.36
   vertex 85.9889339178216 0.001 0
   vertex 86.00551264886896 20.82 0.36
  endloop
 endfacet
 facet normal 0.0 -1.0 0.0
  outer loop
   vertex 30.59408362093119 0.001 0
   vertex 85.9889339178216 0.001 0
   vertex 85.9889339178216 0.001 0.36
  endloop
 endfacet
 facet normal 0.0 -1.0 0.0
  outer loop
   vertex 30.59408362093119 0.001 0.36
   vertex 30.59408362093119 0.001 0
   vertex 85.9889339178216 0.001 0.36
  endloop
 endfacet
 facet normal -0.7970428523015173 0.6039227530032807 0.0
  outer loop
   vertex 46.36872830718574 20.82 0
   vertex 30.59408362093119 0.001 0
   vertex 30.59408362093119 0.001 0.36
  endloop
 endfacet
 facet normal -0.7970428523015173 0.6039227530032807 0.0
  outer loop
   vertex 46.36872830718574 20.82 0.36
   vertex 46.36872830718574 20.82 0
   vertex 30.59408362093119 0.001 0.36
  endloop
 endfacet
 facet normal -0.0 0.0 1.0
  outer loop
   vertex 46.36872830718574 20.82 0.36
   vertex 68.35429958274207 12.722243186433547 0.36
   vertex 86.00551264886896 20.82 0.36
  endloop
 endfacet
 facet normal 0.0 0.0 1.0
  outer loop
   vertex 86.00551264886896 20.82 0.36
   vertex 69.20429958274208 11.25 0.36
   vertex 85.9889339178216 0.001 0.36
  endloop
 endfacet
 facet normal 0.0 0.0 1.0
  outer loop
   vertex 85.9889339178216 0.001 0.36
   vertex 66.65429958274208 9.777756813566455 0.36
   vertex 30.59408362093119 0.001 0.36
  endloop
 endfacet
 facet normal 0.0 0.0 1.0
  outer loop
   vertex 30.59408362093119 0.001 0.36
   vertex 66.65429958274208 12.722243186433547 0.36
   vertex 46.36872830718574 20.82 0.36
  endloop
 endfacet
 facet normal 0.0 -0.0 1.0
  outer loop
   vertex 69.20429958274208 11.25 0.36
   vertex 86.00551264886896 20.82 0.36
   vertex 68.97654276917562 12.1 0.36
  endloop
 endfacet
 facet normal 0.0 0.0 1.0
  outer loop
   vertex 69.20429958274208 11.25 0.36
   vertex 68.97654276917562 10.399999999999999 0.36
   vertex 85.9889339178216 0.001 0.36
  endloop
 endfacet
 facet normal 0.0 -0.0 1.0
  outer loop
   vertex 68.97654276917562 12.1 0.36
   vertex 86.00551264886896 20.82 0.36
   vertex 68.35429958274207 12.722243186433547 0.36
  endloop
 endfacet
 facet normal 0.0 0.0 1.0
  outer loop
   vertex 68.35429958274207 12.722243186433547 0.36
   vertex 46.36872830718574 20.82 0.36
   vertex 67.50429958274208 12.950000000000001 0.36
  endloop
 endfacet
 facet normal 0.0 0.0 1.0
  outer loop
   vertex 67.50429958274208 12.950000000000001 0.36
   vertex 46.36872830718574 20.82 0.36
   vertex 66.65429958274208 12.722243186433547 0.36
  endloop
 endfacet
 facet normal 0.0 0.0 1.0
  outer loop
   vertex 66.65429958274208 12.722243186433547 0.36
   vertex 30.59408362093119 0.001 0.36
   vertex 66.03205639630853 12.100000000000001 0.36
  endloop
 endfacet
 facet normal 0.0 0.0 1.0
  outer loop
   vertex 66.03205639630853 12.100000000000001 0.36
   vertex 30.59408362093119 0.001 0.36
   vertex 65.80429958274208 11.25 0.36
  endloop
 endfacet
 facet normal 0.0 0.0 1.0
  outer loop
   vertex 65.80429958274208 11.25 0.36
   vertex 30.59408362093119 0.001 0.36
   vertex 66.03205639630853 10.4 0.36
  endloop
 endfacet
 facet normal 0.0 0.0 1.0
  outer loop
   vertex 66.03205639630853 10.4 0.36
   vertex 30.59408362093119 0.001 0.36
   vertex 66.65429958274208 9.777756813566455 0.36
  endloop
 endfacet
 facet normal 0.0 0.0 1.0
  outer loop
   vertex 66.65429958274208 9.777756813566455 0.36
   vertex 85.9889339178216 0.001 0.36
   vertex 67.50429958274208 9.549999999999999 0.36
  endloop
 endfacet
 facet normal -0.0 0.0 1.0
  outer loop
   vertex 67.50429958274208 9.549999999999999 0.36
   vertex 85.9889339178216 0.001 0.36
   vertex 68.35429958274207 9.777756813566453 0.36
  endloop
 endfacet
 facet normal -0.0 0.0 1.0
  outer loop
   vertex 68.35429958274207 9.777756813566453 0.36
   vertex 85.9889339178216 0.001 0.36
   vertex 68.97654276917562 10.399999999999999 0.36
  endloop
 endfacet
 facet normal -0.9659258262890673 -0.25881904510252485 0.0
  outer loop
   vertex 69.20429958274208 11.25 0
   vertex 69.20429958274208 11.25 0.36
   vertex 68.97654276917562 12.1 0
  endloop
 endfacet
 facet normal -0.9659258262890673 -0.25881904510252485 0.0
  outer loop
   vertex 68.97654276917562 12.1 0
   vertex 69.20429958274208 11.25 0.36
   vertex 68.97654276917562 12.1 0.36
  endloop
 endfacet
 facet normal -0.7071067811865455 -0.7071067811865497 0.0
  outer loop
   vertex 68.97654276917562 12.1 0
   vertex 68.97654276917562 12.1 0.36
   vertex 68.35429958274207 12.722243186433547 0
  endloop
 endfacet
 facet normal -0.7071067811865455 -0.7071067811865497 0.0
  outer loop
   vertex 68.35429958274207 12.722243186433547 0
   vertex 68.97654276917562 12.1 0.36
   vertex 68.35429958274207 12.722243186433547 0.36
  endloop
 endfacet
 facet normal -0.2588190451025226 -0.9659258262890679 0.0
  outer loop
   vertex 68.35429958274207 12.722243186433547 0
   vertex 68.35429958274207 12.722243186433547 0.36
   vertex 67.50429958274208 12.950000000000001 0
  endloop
 endfacet
 facet normal -0.2588190451025226 -0.9659258262890679 0.0
  outer loop
   vertex 67.50429958274208 12.950000000000001 0
   vertex 68.35429958274207 12.722243186433547 0.36
   vertex 67.50429958274208 12.950000000000001 0.36
  endloop
 endfacet
 facet normal 0.2588190451025226 -0.9659258262890679 0.0
  outer loop
   vertex 67.50429958274208 12.950000000000001 0
   vertex 67.50429958274208 12.950000000000001 0.36
   vertex 66.65429958274208 12.722243186433547 0
  endloop
 endfacet
 facet normal 0.2588190451025226 -0.9659258262890679 0.0
  outer loop
   vertex 66.65429958274208 12.722243186433547 0
   vertex 67.50429958274208 12.950000000000001 0.36
   vertex 66.65429958274208 12.722243186433547 0.36
  endloop
 endfacet
 facet normal 0.7071067811865444 -0.7071067811865505 0.0
  outer loop
   vertex 66.65429958274208 12.722243186433547 0
   vertex 66.65429958274208 12.722243186433547 0.36
   vertex 66.03205639630853 12.100000000000001 0
  endloop
 endfacet
 facet normal 0.7071067811865444 -0.7071067811865505 0.0
  outer loop
   vertex 66.03205639630853 12.100000000000001 0
   vertex 66.65429958274208 12.722243186433547 0.36
   vertex 66.03205639630853 12.100000000000001 0.36
  endloop
 endfacet
 facet normal 0.9659258262890673 -0.25881904510252435 0.0
  outer loop
   vertex 66.03205639630853 12.100000000000001 0
   vertex 66.03205639630853 12.100000000000001 0.36
   vertex 65.80429958274208 11.25 0
  endloop
 endfacet
 facet normal 0.9659258262890673 -0.25881904510252435 0.0
  outer loop
   vertex 65.80429958274208 11.25 0
   vertex 66.03205639630853 12.100000000000001 0.36
   vertex 65.80429958274208 11.25 0.36
  endloop
 endfacet
 facet normal 0.9659258262890673 0.25881904510252485 -0.0
  outer loop
   vertex 65.80429958274208 11.25 0
   vertex 65.80429958274208 11.25 0.36
   vertex 66.03205639630853 10.4 0
  endloop
 endfacet
 facet normal 0.9659258262890673 0.25881904510252485 -0.0
  outer loop
   vertex 66.03205639630853 10.4 0
   vertex 65.80429958274208 11.25 0.36
   vertex 66.03205639630853 10.4 0.36
  endloop
 endfacet
 facet normal 0.7071067811865444 0.7071067811865505 -0.0
  outer loop
   vertex 66.03205639630853 10.4 0
   vertex 66.03205639630853 10.4 0.36
   vertex 66.65429958274208 9.777756813566455 0
  endloop
 endfacet
 facet normal 0.7071067811865444 0.7071067811865505 -0.0
  outer loop
   vertex 66.65429958274208 9.777756813566455 0
   vertex 66.03205639630853 10.4 0.36
   vertex 66.65429958274208 9.777756813566455 0.36
  endloop
 endfacet
 facet normal 0.2588190451025245 0.9659258262890674 -0.0
  outer loop
   vertex 66.65429958274208 9.777756813566455 0
   vertex 66.65429958274208 9.777756813566455 0.36
   vertex 67.50429958274208 9.549999999999999 0
  endloop
 endfacet
 facet normal 0.2588190451025245 0.9659258262890674 -0.0
  outer loop
   vertex 67.50429958274208 9.549999999999999 0
   vertex 66.65429958274208 9.777756813566455 0.36
   vertex 67.50429958274208 9.549999999999999 0.36
  endloop
 endfacet
 facet normal -0.2588190451025226 0.9659258262890679 0.0
  outer loop
   vertex 67.50429958274208 9.549999999999999 0
   vertex 67.50429958274208 9.549999999999999 0.36
   vertex 68.35429958274207 9.777756813566453 0
  endloop
 endfacet
 facet normal -0.2588190451025226 0.9659258262890679 0.0
  outer loop
   vertex 68.35429958274207 9.777756813566453 0
   vertex 67.50429958274208 9.549999999999999 0.36
   vertex 68.35429958274207 9.777756813566453 0.36
  endloop
 endfacet
 facet normal -0.7071067811865444 0.7071067811865505 0.0
  outer loop
   vertex 68.35429958274207 9.777756813566453 0
   vertex 68.35429958274207 9.777756813566453 0.36
   vertex 68.97654276917562 10.399999999999999 0
  endloop
 endfacet
 facet normal -0.7071067811865444 0.7071067811865505 0.0
  outer loop
   vertex 68.97654276917562 10.399999999999999 0
   vertex 68.35429958274207 9.777756813566453 0.36
   vertex 68.97654276917562 10.399999999999999 0.36
  endloop
 endfacet
 facet normal -0.9659258262890673 0.25881904510252435 0.0
  outer loop
   vertex 68.97654276917562 10.399999999999999 0
   vertex 68.97654276917562 10.399999999999999 0.36
   vertex 69.20429958274208 11.25 0
  endloop
 endfacet
 facet normal -0.9659258262890673 0.25881904510252435 0.0
  outer loop
   vertex 69.20429958274208 11.25 0
   vertex 68.97654276917562 10.399999999999999 0.36
   vertex 69.20429958274208 11.25 0.36
  endloop
 endfacet
 facet normal 0.0 0.0 -1.0
  outer loop
   vertex 86.00551264886894 24.18 0
   vertex 46.36872830718574 24.18 0
   vertex 66.65429958274208 32.277756813566455 0
  endloop
 endfacet
 facet normal 0.0 0.0 -1.0
  outer loop
   vertex 46.36872830718574 24.18 0
   vertex 30.59408362093119 44.999 0
   vertex 66.65429958274208 35.222243186433545 0
  endloop
 endfacet
 facet normal 0.0 0.0 -1.0
  outer loop
   vertex 30.59408362093119 44.999 0
   vertex 85.9889339178216 44.999 0
   vertex 67.50429958274208 35.45 0
  endloop
 endfacet
 facet normal 0.0 -0.0 -1.0
  outer loop
   vertex 85.9889339178216 44.999 0
   vertex 86.00551264886894 24.18 0
   vertex 69.20429958274208 33.75 0
  endloop
 endfacet
 facet normal 0.0 -0.0 -1.0
  outer loop
   vertex 69.20429958274208 33.75 0
   vertex 86.00551264886894 24.18 0
   vertex 68.97654276917562 32.9 0
  endloop
 endfacet
 facet normal 0.0 0.0 -1.0
  outer loop
   vertex 69.20429958274208 33.75 0
   vertex 68.97654276917562 34.6 0
   vertex 85.9889339178216 44.999 0
  endloop
 endfacet
 facet normal 0.0 0.0 -1.0
  outer loop
   vertex 68.97654276917562 34.6 0
   vertex 68.35429958274207 35.222243186433545 0
   vertex 85.9889339178216 44.999 0
  endloop
 endfacet
 facet normal 0.0 0.0 -1.0
  outer loop
   vertex 68.35429958274207 35.222243186433545 0
   vertex 67.50429958274208 35.45 0
   vertex 85.9889339178216 44.999 0
  endloop
 endfacet
 facet normal -0.0 0.0 -1.0
  outer loop
   vertex 67.50429958274208 35.45 0
   vertex 66.65429958274208 35.222243186433545 0
   vertex 30.59408362093119 44.999 0
  endloop
 endfacet
 facet normal 0.0 0.0 -1.0
  outer loop
   vertex 66.65429958274208 35.222243186433545 0
   vertex 66.03205639630853 34.6 0
   vertex 46.36872830718574 24.18 0
  endloop
 endfacet
 facet normal 0.0 0.0 -1.0
  outer loop
   vertex 66.03205639630853 34.6 0
   vertex 65.80429958274208 33.75 0
   vertex 46.36872830718574 24.18 0
  endloop
 endfacet
 facet normal 0.0 -0.0 -1.0
  outer loop
   vertex 65.80429958274208 33.75 0
   vertex 66.03205639630853 32.9 0
   vertex 46.36872830718574 24.18 0
  endloop
 endfacet
 facet normal 0.0 -0.0 -1.0
  outer loop
   vertex 66.03205639630853 32.9 0
   vertex 66.65429958274208 32.277756813566455 0
   vertex 46.36872830718574 24.18 0
  endloop
 endfacet
 facet normal 0.0 0.0 -1.0
  outer loop
   vertex 66.65429958274208 32.277756813566455 0
   vertex 67.50429958274208 32.05 0
   vertex 86.00551264886894 24.18 0
  endloop
 endfacet
 facet normal 0.0 0.0 -1.0
  outer loop
   vertex 67.50429958274208 32.05 0
   vertex 68.35429958274207 32.277756813566455 0
   vertex 86.00551264886894 24.18 0
  endloop
 endfacet
 facet normal 0.0 0.0 -1.0
  outer loop
   vertex 68.35429958274207 32.277756813566455 0
   vertex 68.97654276917562 32.9 0
   vertex 86.00551264886894 24.18 0
  endloop
 endfacet
 facet normal 0.0 -1.0 0.0
  outer loop
   vertex 46.36872830718574 24.18 0
   vertex 86.00551264886894 24.18 0
   vertex 86.00551264886894 24.18 0.36
  endloop
 endfacet
 facet normal 0.0 -1.0 0.0
  outer loop
   vertex 46.36872830718574 24.18 0.36
   vertex 46.36872830718574 24.18 0
   vertex 86.00551264886894 24.18 0.36
  endloop
 endfacet
 facet normal -0.7970428523015175 -0.6039227530032807 0.0
  outer loop
   vertex 30.59408362093119 44.999 0
   vertex 46.36872830718574 24.18 0
   vertex 46.36872830718574 24.18 0.36
  endloop
 endfacet
 facet normal -0.7970428523015175 -0.6039227530032807 -0.0
  outer loop
   vertex 30.59408362093119 44.999 0.36
   vertex 30.59408362093119 44.999 0
   vertex 46.36872830718574 24.18 0.36
  endloop
 endfacet
 facet normal 0.0 1.0 0.0
  outer loop
   vertex 85.9889339178216 44.999 0
   vertex 30.59408362093119 44.999 0
   vertex 30.59408362093119 44.999 0.36
  endloop
 endfacet
 facet normal 0.0 1.0 0.0
  outer loop
   vertex 85.9889339178216 44.999 0.36
   vertex 85.9889339178216 44.999 0
   vertex 30.59408362093119 44.999 0.36
  endloop
 endfacet
 facet normal 0.9999996829318346 0.0007963267107333856 0.0
  outer loop
   vertex 86.00551264886894 24.18 0
   vertex 85.9889339178216 44.999 0
   vertex 85.9889339178216 44.999 0.36
  endloop
 endfacet
 facet normal 0.9999996829318346 0.0007963267107333856 0.0
  outer loop
   vertex 86.00551264886894 24.18 0.36
   vertex 86.00551264886894 24.18 0
   vertex 85.9889339178216 44.999 0.36
  endloop
 endfacet
 facet normal 0.0 0.0 1.0
  outer loop
   vertex 86.00551264886894 24.18 0.36
   vertex 66.65429958274208 32.277756813566455 0.36
   vertex 46.36872830718574 24.18 0.36
  endloop
 endfacet
 facet normal 0.0 -0.0 1.0
  outer loop
   vertex 46.36872830718574 24.18 0.36
   vertex 66.65429958274208 35.222243186433545 0.36
   vertex 30.59408362093119 44.999 0.36
  endloop
 endfacet
 facet normal -0.0 0.0 1.0
  outer loop
   vertex 30.59408362093119 44.999 0.36
   vertex 67.50429958274208 35.45 0.36
   vertex 85.9889339178216 44.999 0.36
  endloop
 endfacet
 facet normal 0.0 0.0 1.0
  outer loop
   vertex 85.9889339178216 44.999 0.36
   vertex 69.20429958274208 33.75 0.36
   vertex 86.00551264886894 24.18 0.36
  endloop
 endfacet
 facet normal 0.0 0.0 1.0
  outer loop
   vertex 69.20429958274208 33.75 0.36
   vertex 68.97654276917562 32.9 0.36
   vertex 86.00551264886894 24.18 0.36
  endloop
 endfacet
 facet normal 0.0 -0.0 1.0
  outer loop
   vertex 69.20429958274208 33.75 0.36
   vertex 85.9889339178216 44.999 0.36
   vertex 68.97654276917562 34.6 0.36
  endloop
 endfacet
 facet normal 0.0 -0.0 1.0
  outer loop
   vertex 68.97654276917562 34.6 0.36
   vertex 85.9889339178216 44.999 0.36
   vertex 68.35429958274207 35.222243186433545 0.36
  endloop
 endfacet
 facet normal 0.0 -0.0 1.0
  outer loop
   vertex 68.35429958274207 35.222243186433545 0.36
   vertex 85.9889339178216 44.999 0.36
   vertex 67.50429958274208 35.45 0.36
  endloop
 endfacet
 facet normal 0.0 0.0 1.0
  outer loop
   vertex 67.50429958274208 35.45 0.36
   vertex 30.59408362093119 44.999 0.36
   vertex 66.65429958274208 35.222243186433545 0.36
  endloop
 endfacet
 facet normal 0.0 0.0 1.0
  outer loop
   vertex 66.65429958274208 35.222243186433545 0.36
   vertex 46.36872830718574 24.18 0.36
   vertex 66.03205639630853 34.6 0.36
  endloop
 endfacet
 facet normal 0.0 0.0 1.0
  outer loop
   vertex 66.03205639630853 34.6 0.36
   vertex 46.36872830718574 24.18 0.36
   vertex 65.80429958274208 33.75 0.36
  endloop
 endfacet
 facet normal 0.0 0.0 1.0
  outer loop
   vertex 65.80429958274208 33.75 0.36
   vertex 46.36872830718574 24.18 0.36
   vertex 66.03205639630853 32.9 0.36
  endloop
 endfacet
 facet normal 0.0 0.0 1.0
  outer loop
   vertex 66.03205639630853 32.9 0.36
   vertex 46.36872830718574 24.18 0.36
   vertex 66.65429958274208 32.277756813566455 0.36
  endloop
 endfacet
 facet normal 0.0 0.0 1.0
  outer loop
   vertex 66.65429958274208 32.277756813566455 0.36
   vertex 86.00551264886894 24.18 0.36
   vertex 67.50429958274208 32.05 0.36
  endloop
 endfacet
 facet normal -0.0 0.0 1.0
  outer loop
   vertex 67.50429958274208 32.05 0.36
   vertex 86.00551264886894 24.18 0.36
   vertex 68.35429958274207 32.277756813566455 0.36
  endloop
 endfacet
 facet normal -0.0 0.0 1.0
  outer loop
   vertex 68.35429958274207 32.277756813566455 0.36
   vertex 86.00551264886894 24.18 0.36
   vertex 68.97654276917562 32.9 0.36
  endloop
 endfacet
 facet normal -0.9659258262890673 -0.25881904510252435 0.0
  outer loop
   vertex 69.20429958274208 33.75 0
   vertex 69.20429958274208 33.75 0.36
   vertex 68.97654276917562 34.6 0
  endloop
 endfacet
 facet normal -0.9659258262890673 -0.25881904510252435 0.0
  outer loop
   vertex 68.97654276917562 34.6 0
   vertex 69.20429958274208 33.75 0.36
   vertex 68.97654276917562 34.6 0.36
  endloop
 endfacet
 facet normal -0.7071067811865435 -0.7071067811865516 0.0
  outer loop
   vertex 68.97654276917562 34.6 0
   vertex 68.97654276917562 34.6 0.36
   vertex 68.35429958274207 35.222243186433545 0
  endloop
 endfacet
 facet normal -0.7071067811865435 -0.7071067811865516 0.0
  outer loop
   vertex 68.35429958274207 35.222243186433545 0
   vertex 68.97654276917562 34.6 0.36
   vertex 68.35429958274207 35.222243186433545 0.36
  endloop
 endfacet
 facet normal -0.2588190451025264 -0.9659258262890669 0.0
  outer loop
   vertex 68.35429958274207 35.222243186433545 0
   vertex 68.35429958274207 35.222243186433545 0.36
   vertex 67.50429958274208 35.45 0
  endloop
 endfacet
 facet normal -0.2588190451025264 -0.9659258262890669 0.0
  outer loop
   vertex 67.50429958274208 35.45 0
   vertex 68.35429958274207 35.222243186433545 0.36
   vertex 67.50429958274208 35.45 0.36
  endloop
 endfacet
 facet normal 0.2588190451025264 -0.9659258262890669 0.0
  outer loop
   vertex 67.50429958274208 35.45 0
   vertex 67.50429958274208 35.45 0.36
   vertex 66.65429958274208 35.222243186433545 0
  endloop
 endfacet
 facet normal 0.2588190451025264 -0.9659258262890669 0.0
  outer loop
   vertex 66.65429958274208 35.222243186433545 0
   vertex 67.50429958274208 35.45 0.36
   vertex 66.65429958274208 35.222243186433545 0.36
  endloop
 endfacet
 facet normal 0.7071067811865435 -0.7071067811865516 0.0
  outer loop
   vertex 66.65429958274208 35.222243186433545 0
   vertex 66.65429958274208 35.222243186433545 0.36
   vertex 66.03205639630853 34.6 0
  endloop
 endfacet
 facet normal 0.7071067811865435 -0.7071067811865516 0.0
  outer loop
   vertex 66.03205639630853 34.6 0
   vertex 66.65429958274208 35.222243186433545 0.36
   vertex 66.03205639630853 34.6 0.36
  endloop
 endfacet
 facet normal 0.9659258262890673 -0.25881904510252435 0.0
  outer loop
   vertex 66.03205639630853 34.6 0
   vertex 66.03205639630853 34.6 0.36
   vertex 65.80429958274208 33.75 0
  endloop
 endfacet
 facet normal 0.9659258262890673 -0.25881904510252435 0.0
  outer loop
   vertex 65.80429958274208 33.75 0
   vertex 66.03205639630853 34.6 0.36
   vertex 65.80429958274208 33.75 0.36
  endloop
 endfacet
 facet normal 0.9659258262890673 0.25881904510252435 -0.0
  outer loop
   vertex 65.80429958274208 33.75 0
   vertex 65.80429958274208 33.75 0.36
   vertex 66.03205639630853 32.9 0
  endloop
 endfacet
 facet normal 0.9659258262890673 0.25881904510252435 -0.0
  outer loop
   vertex 66.03205639630853 32.9 0
   vertex 65.80429958274208 33.75 0.36
   vertex 66.03205639630853 32.9 0.36
  endloop
 endfacet
 facet normal 0.7071067811865435 0.7071067811865516 -0.0
  outer loop
   vertex 66.03205639630853 32.9 0
   vertex 66.03205639630853 32.9 0.36
   vertex 66.65429958274208 32.277756813566455 0
  endloop
 endfacet
 facet normal 0.7071067811865435 0.7071067811865516 -0.0
  outer loop
   vertex 66.65429958274208 32.277756813566455 0
   vertex 66.03205639630853 32.9 0.36
   vertex 66.65429958274208 32.277756813566455 0.36
  endloop
 endfacet
 facet normal 0.2588190451025264 0.9659258262890669 -0.0
  outer loop
   vertex 66.65429958274208 32.277756813566455 0
   vertex 66.65429958274208 32.277756813566455 0.36
   vertex 67.50429958274208 32.05 0
  endloop
 endfacet
 facet normal 0.2588190451025264 0.9659258262890669 -0.0
  outer loop
   vertex 67.50429958274208 32.05 0
   vertex 66.65429958274208 32.277756813566455 0.36
   vertex 67.50429958274208 32.05 0.36
  endloop
 endfacet
 facet normal -0.2588190451025264 0.9659258262890669 0.0
  outer loop
   vertex 67.50429958274208 32.05 0
   vertex 67.50429958274208 32.05 0.36
   vertex 68.35429958274207 32.277756813566455 0
  endloop
 endfacet
 facet normal -0.2588190451025264 0.9659258262890669 0.0
  outer loop
   vertex 68.35429958274207 32.277756813566455 0
   vertex 67.50429958274208 32.05 0.36
   vertex 68.35429958274207 32.277756813566455 0.36
  endloop
 endfacet
 facet normal -0.7071067811865435 0.7071067811865516 0.0
  outer loop
   vertex 68.35429958274207 32.277756813566455 0
   vertex 68.35429958274207 32.277756813566455 0.36
   vertex 68.97654276917562 32.9 0
  endloop
 endfacet
 facet normal -0.7071067811865435 0.7071067811865516 0.0
  outer loop
   vertex 68.97654276917562 32.9 0
   vertex 68.35429958274207 32.277756813566455 0.36
   vertex 68.97654276917562 32.9 0.36
  endloop
 endfacet
 facet normal -0.9659258262890673 0.25881904510252435 0.0
  outer loop
   vertex 68.97654276917562 32.9 0
   vertex 68.97654276917562 32.9 0.36
   vertex 69.20429958274208 33.75 0
  endloop
 endfacet
 facet normal -0.9659258262890673 0.25881904510252435 0.0
  outer loop
   vertex 69.20429958274208 33.75 0
   vertex 68.97654276917562 32.9 0.36
   vertex 69.20429958274208 33.75 0.36
  endloop
 endfacet
endsolid
