solid PyGamic generated __All_Crease__ SLA File
 facet normal 0.0 0.0 -1.0
  outer loop
   vertex 55.26348938881383 20.82 0
   vertex -0.000337828981146697 20.82 0
   vertex 27.65920769352524 22.49832 0
  endloop
 endfacet
 facet normal 0.0 0.0 -1.0
  outer loop
   vertex -0.000337828981146697 20.82 0
   vertex 27.603943866307446 22.49832 0
   vertex 27.65920769352524 22.49832 0
  endloop
 endfacet
 facet normal 0.0 0.0 -1.0
  outer loop
   vertex -0.000337828981146697 20.82 0
   vertex -0.000337828981146697 24.18 0
   vertex 27.603943866307446 22.49832 0
  endloop
 endfacet
 facet normal 0.0 0.0 -1.0
  outer loop
   vertex -0.000337828981146697 24.18 0
   vertex 27.603943866307446 22.50168 0
   vertex 27.603943866307446 22.49832 0
  endloop
 endfacet
 facet normal 0.0 0.0 -1.0
  outer loop
   vertex -0.000337828981146697 24.18 0
   vertex 55.26348938881383 24.18 0
   vertex 27.603943866307446 22.50168 0
  endloop
 endfacet
 facet normal 0.0 0.0 -1.0
  outer loop
   vertex 55.26348938881383 24.18 0
   vertex 27.65920769352524 22.50168 0
   vertex 27.603943866307446 22.50168 0
  endloop
 endfacet
 facet normal 0.0 -0.0 -1.0
  outer loop
   vertex 55.26348938881383 24.18 0
   vertex 55.26348938881383 20.82 0
   vertex 27.65920769352524 22.50168 0
  endloop
 endfacet
 facet normal 0.0 0.0 -1.0
  outer loop
   vertex 55.26348938881383 20.82 0
   vertex 27.65920769352524 22.49832 0
   vertex 27.65920769352524 22.50168 0
  endloop
 endfacet
 facet normal 0.0 -1.0 0.0
  outer loop
   vertex -0.000337828981146697 20.82 0
   vertex 55.26348938881383 20.82 0
   vertex 55.26348938881383 20.82 0.36
  endloop
 endfacet
 facet normal 0.0 -1.0 0.0
  outer loop
   vertex -0.000337828981146697 20.82 0.36
   vertex -0.000337828981146697 20.82 0
   vertex 55.26348938881383 20.82 0.36
  endloop
 endfacet
 facet normal -1.0 0.0 0.0
  outer loop
   vertex -0.000337828981146697 24.18 0
   vertex -0.000337828981146697 20.82 0
   vertex -0.000337828981146697 20.82 0.36
  endloop
 endfacet
 facet normal -1.0 -0.0 -0.0
  outer loop
   vertex -0.000337828981146697 24.18 0.36
   vertex -0.000337828981146697 24.18 0
   vertex -0.000337828981146697 20.82 0.36
  endloop
 endfacet
 facet normal 0.0 1.0 0.0
  outer loop
   vertex 55.26348938881383 24.18 0
   vertex -0.000337828981146697 24.18 0
   vertex -0.000337828981146697 24.18 0.36
  endloop
 endfacet
 facet normal 0.0 1.0 0.0
  outer loop
   vertex 55.26348938881383 24.18 0.36
   vertex 55.26348938881383 24.18 0
   vertex -0.000337828981146697 24.18 0.36
  endloop
 endfacet
 facet normal 1.0 0.0 0.0
  outer loop
   vertex 55.26348938881383 20.82 0
   vertex 55.26348938881383 24.18 0
   vertex 55.26348938881383 24.18 0.36
  endloop
 endfacet
 facet normal 1.0 -0.0 0.0
  outer loop
   vertex 55.26348938881383 20.82 0.36
   vertex 55.26348938881383 20.82 0
   vertex 55.26348938881383 24.18 0.36
  endloop
 endfacet
 facet normal 0.0 1.0 -0.0
  outer loop
   vertex 27.65920769352524 22.49832 0
   vertex 27.603943866307446 22.49832 0
   vertex 27.65920769352524 22.49832 0.36
  endloop
 endfacet
 facet normal 0.0 1.0 0.0
  outer loop
   vertex 27.603943866307446 22.49832 0
   vertex 27.603943866307446 22.49832 0.36
   vertex 27.65920769352524 22.49832 0.36
  endloop
 endfacet
 facet normal 1.0 0.0 0.0
  outer loop
   vertex 27.603943866307446 22.49832 0
   vertex 27.603943866307446 22.50168 0
   vertex 27.603943866307446 22.49832 0.36
  endloop
 endfacet
 facet normal 1.0 0.0 -0.0
  outer loop
   vertex 27.603943866307446 22.50168 0
   vertex 27.603943866307446 22.50168 0.36
   vertex 27.603943866307446 22.49832 0.36
  endloop
 endfacet
 facet normal 0.0 -1.0 0.0
  outer loop
   vertex 27.603943866307446 22.50168 0
   vertex 27.65920769352524 22.50168 0
   vertex 27.603943866307446 22.50168 0.36
  endloop
 endfacet
 facet normal 0.0 -1.0 0.0
  outer loop
   vertex 27.65920769352524 22.50168 0
   vertex 27.65920769352524 22.50168 0.36
   vertex 27.603943866307446 22.50168 0.36
  endloop
 endfacet
 facet normal -1.0 0.0 0.0
  outer loop
   vertex 27.65920769352524 22.50168 0
   vertex 27.65920769352524 22.49832 0
   vertex 27.65920769352524 22.50168 0.36
  endloop
 endfacet
 facet normal -1.0 0.0 0.0
  outer loop
   vertex 27.65920769352524 22.49832 0
   vertex 27.65920769352524 22.49832 0.36
   vertex 27.65920769352524 22.50168 0.36
  endloop
 endfacet
 facet normal 0.0 0.0 1.0
  outer loop
   vertex -0.000337828981146697 20.82 0.36
   vertex 55.26348938881383 20.82 0.36
   vertex 27.65920769352524 22.49832 0.36
  endloop
 endfacet
 facet normal -0.0 0.0 1.0
  outer loop
   vertex 27.603943866307446 22.49832 0.36
   vertex -0.000337828981146697 20.82 0.36
   vertex 27.65920769352524 22.49832 0.36
  endloop
 endfacet
 facet normal 0.0 0.0 1.0
  outer loop
   vertex -0.000337828981146697 24.18 0.36
   vertex -0.000337828981146697 20.82 0.36
   vertex 27.603943866307446 22.49832 0.36
  endloop
 endfacet
 facet normal 0.0 0.0 1.0
  outer loop
   vertex 27.603943866307446 22.50168 0.36
   vertex -0.000337828981146697 24.18 0.36
   vertex 27.603943866307446 22.49832 0.36
  endloop
 endfacet
 facet normal 0.0 0.0 1.0
  outer loop
   vertex 55.26348938881383 24.18 0.36
   vertex -0.000337828981146697 24.18 0.36
   vertex 27.603943866307446 22.50168 0.36
  endloop
 endfacet
 facet normal 0.0 -0.0 1.0
  outer loop
   vertex 27.65920769352524 22.50168 0.36
   vertex 55.26348938881383 24.18 0.36
   vertex 27.603943866307446 22.50168 0.36
  endloop
 endfacet
 facet normal 0.0 -0.0 1.0
  outer loop
   vertex 55.26348938881383 20.82 0.36
   vertex 55.26348938881383 24.18 0.36
   vertex 27.65920769352524 22.50168 0.36
  endloop
 endfacet
 facet normal -0.0 0.0 1.0
  outer loop
   vertex 27.65920769352524 22.49832 0.36
   vertex 55.26348938881383 20.82 0.36
   vertex 27.65920769352524 22.50168 0.36
  endloop
 endfacet
 facet normal 0.0 0.0 -1.0
  outer loop
   vertex 16.511652131691818 0.001 0
   vertex 55.26348938881383 20.82 0
   vertex 39.41445515518292 10.4000905 0
  endloop
 endfacet
 facet normal 0.0 0.0 -1.0
  outer loop
   vertex 55.26348938881383 20.82 0
   vertex 39.45320699244003 10.420909499999995 0
   vertex 39.41445515518292 10.4000905 0
  endloop
 endfacet
 facet normal 0.0 -0.0 -1.0
  outer loop
   vertex 55.26348938881383 20.82 0
   vertex 62.363109636178486 20.81999999999999 0
   vertex 39.45320699244003 10.420909499999995 0
  endloop
 endfacet
 facet normal 0.0 0.0 -1.0
  outer loop
   vertex 62.363109636178486 20.81999999999999 0
   vertex 39.46030661268742 10.4209095 0
   vertex 39.45320699244003 10.420909499999995 0
  endloop
 endfacet
 facet normal 0.0 0.0 -1.0
  outer loop
   vertex 62.363109636178486 20.81999999999999 0
   vertex 23.611272379056505 0.001 0
   vertex 39.46030661268742 10.4209095 0
  endloop
 endfacet
 facet normal 0.0 0.0 -1.0
  outer loop
   vertex 23.611272379056505 0.001 0
   vertex 39.421554775430266 10.400090499999994 0
   vertex 39.46030661268742 10.4209095 0
  endloop
 endfacet
 facet normal 0.0 0.0 -1.0
  outer loop
   vertex 23.611272379056505 0.001 0
   vertex 16.511652131691818 0.001 0
   vertex 39.421554775430266 10.400090499999994 0
  endloop
 endfacet
 facet normal 0.0 0.0 -1.0
  outer loop
   vertex 16.511652131691818 0.001 0
   vertex 39.41445515518292 10.4000905 0
   vertex 39.421554775430266 10.400090499999994 0
  endloop
 endfacet
 facet normal -0.47326474979379385 0.8809202441779946 0.0
  outer loop
   vertex 55.26348938881383 20.82 0
   vertex 16.511652131691818 0.001 0
   vertex 16.511652131691818 0.001 0.36
  endloop
 endfacet
 facet normal -0.47326474979379385 0.8809202441779946 0.0
  outer loop
   vertex 55.26348938881383 20.82 0.36
   vertex 55.26348938881383 20.82 0
   vertex 16.511652131691818 0.001 0.36
  endloop
 endfacet
 facet normal 1.501226919898674e-15 1.0 0.0
  outer loop
   vertex 62.363109636178486 20.81999999999999 0
   vertex 55.26348938881383 20.82 0
   vertex 55.26348938881383 20.82 0.36
  endloop
 endfacet
 facet normal 1.501226919898674e-15 1.0 0.0
  outer loop
   vertex 62.363109636178486 20.81999999999999 0.36
   vertex 62.363109636178486 20.81999999999999 0
   vertex 55.26348938881383 20.82 0.36
  endloop
 endfacet
 facet normal 0.473264749793794 -0.8809202441779945 0.0
  outer loop
   vertex 23.611272379056505 0.001 0
   vertex 62.363109636178486 20.81999999999999 0
   vertex 62.363109636178486 20.81999999999999 0.36
  endloop
 endfacet
 facet normal 0.473264749793794 -0.8809202441779945 0.0
  outer loop
   vertex 23.611272379056505 0.001 0.36
   vertex 23.611272379056505 0.001 0
   vertex 62.363109636178486 20.81999999999999 0.36
  endloop
 endfacet
 facet normal 0.0 -1.0 0.0
  outer loop
   vertex 16.511652131691818 0.001 0
   vertex 23.611272379056505 0.001 0
   vertex 23.611272379056505 0.001 0.36
  endloop
 endfacet
 facet normal 0.0 -1.0 0.0
  outer loop
   vertex 16.511652131691818 0.001 0.36
   vertex 16.511652131691818 0.001 0
   vertex 23.611272379056505 0.001 0.36
  endloop
 endfacet
 facet normal 0.4732647497938415 -0.880920244177969 0.0
  outer loop
   vertex 39.41445515518292 10.4000905 0
   vertex 39.45320699244003 10.420909499999995 0
   vertex 39.41445515518292 10.4000905 0.36
  endloop
 endfacet
 facet normal 0.4732647497938415 -0.880920244177969 0.0
  outer loop
   vertex 39.45320699244003 10.420909499999995 0
   vertex 39.45320699244003 10.420909499999995 0.36
   vertex 39.41445515518292 10.4000905 0.36
  endloop
 endfacet
 facet normal 7.506134599468837e-13 -1.0 0.0
  outer loop
   vertex 39.45320699244003 10.420909499999995 0
   vertex 39.46030661268742 10.4209095 0
   vertex 39.45320699244003 10.420909499999995 0.36
  endloop
 endfacet
 facet normal 7.506134599468837e-13 -1.0 0.0
  outer loop
   vertex 39.46030661268742 10.4209095 0
   vertex 39.46030661268742 10.4209095 0.36
   vertex 39.45320699244003 10.420909499999995 0.36
  endloop
 endfacet
 facet normal -0.47326474979362554 0.880920244178085 0.0
  outer loop
   vertex 39.46030661268742 10.4209095 0
   vertex 39.421554775430266 10.400090499999994 0
   vertex 39.46030661268742 10.4209095 0.36
  endloop
 endfacet
 facet normal -0.47326474979362554 0.880920244178085 0.0
  outer loop
   vertex 39.421554775430266 10.400090499999994 0
   vertex 39.421554775430266 10.400090499999994 0.36
   vertex 39.46030661268742 10.4209095 0.36
  endloop
 endfacet
 facet normal 7.506134599513909e-13 1.0 -0.0
  outer loop
   vertex 39.421554775430266 10.400090499999994 0
   vertex 39.41445515518292 10.4000905 0
   vertex 39.421554775430266 10.400090499999994 0.36
  endloop
 endfacet
 facet normal 7.506134599513909e-13 1.0 -0.0
  outer loop
   vertex 39.41445515518292 10.4000905 0
   vertex 39.41445515518292 10.4000905 0.36
   vertex 39.421554775430266 10.400090499999994 0.36
  endloop
 endfacet
 facet normal 0.0 0.0 1.0
  outer loop
   vertex 55.26348938881383 20.82 0.36
   vertex 16.511652131691818 0.001 0.36
   vertex 39.41445515518292 10.4000905 0.36
  endloop
 endfacet
 facet normal 0.0 -0.0 1.0
  outer loop
   vertex 39.45320699244003 10.420909499999995 0.36
   vertex 55.26348938881383 20.82 0.36
   vertex 39.41445515518292 10.4000905 0.36
  endloop
 endfacet
 facet normal 0.0 0.0 1.0
  outer loop
   vertex 62.363109636178486 20.81999999999999 0.36
   vertex 55.26348938881383 20.82 0.36
   vertex 39.45320699244003 10.420909499999995 0.36
  endloop
 endfacet
 facet normal 0.0 -0.0 1.0
  outer loop
   vertex 39.46030661268742 10.4209095 0.36
   vertex 62.363109636178486 20.81999999999999 0.36
   vertex 39.45320699244003 10.420909499999995 0.36
  endloop
 endfacet
 facet normal 0.0 0.0 1.0
  outer loop
   vertex 23.611272379056505 0.001 0.36
   vertex 62.363109636178486 20.81999999999999 0.36
   vertex 39.46030661268742 10.4209095 0.36
  endloop
 endfacet
 facet normal -0.0 0.0 1.0
  outer loop
   vertex 39.421554775430266 10.400090499999994 0.36
   vertex 23.611272379056505 0.001 0.36
   vertex 39.46030661268742 10.4209095 0.36
  endloop
 endfacet
 facet normal 0.0 0.0 1.0
  outer loop
   vertex 16.511652131691818 0.001 0.36
   vertex 23.611272379056505 0.001 0.36
   vertex 39.421554775430266 10.400090499999994 0.36
  endloop
 endfacet
 facet normal 0.0 0.0 1.0
  outer loop
   vertex 39.41445515518292 10.4000905 0.36
   vertex 16.511652131691818 0.001 0.36
   vertex 39.421554775430266 10.400090499999994 0.36
  endloop
 endfacet
 facet normal 0.0 0.0 -1.0
  outer loop
   vertex 55.26348938881383 24.18 0
   vertex 16.51165213169183 44.998999999999995 0
   vertex 39.453206992440045 34.57909049999999 0
  endloop
 endfacet
 facet normal 0.0 0.0 -1.0
  outer loop
   vertex 16.51165213169183 44.998999999999995 0
   vertex 39.41445515518291 34.5999095 0
   vertex 39.453206992440045 34.57909049999999 0
  endloop
 endfacet
 facet normal 0.0 0.0 -1.0
  outer loop
   vertex 16.51165213169183 44.998999999999995 0
   vertex 23.611272379056473 44.99900000000001 0
   vertex 39.41445515518291 34.5999095 0
  endloop
 endfacet
 facet normal 0.0 0.0 -1.0
  outer loop
   vertex 23.611272379056473 44.99900000000001 0
   vertex 39.421554775430295 34.599909499999995 0
   vertex 39.41445515518291 34.5999095 0
  endloop
 endfacet
 facet normal 0.0 0.0 -1.0
  outer loop
   vertex 23.611272379056473 44.99900000000001 0
   vertex 62.363109636178514 24.17999999999999 0
   vertex 39.421554775430295 34.599909499999995 0
  endloop
 endfacet
 facet normal 0.0 0.0 -1.0
  outer loop
   vertex 62.363109636178514 24.17999999999999 0
   vertex 39.4603066126874 34.57909050000001 0
   vertex 39.421554775430295 34.599909499999995 0
  endloop
 endfacet
 facet normal 0.0 0.0 -1.0
  outer loop
   vertex 62.363109636178514 24.17999999999999 0
   vertex 55.26348938881383 24.18 0
   vertex 39.4603066126874 34.57909050000001 0
  endloop
 endfacet
 facet normal 0.0 0.0 -1.0
  outer loop
   vertex 55.26348938881383 24.18 0
   vertex 39.453206992440045 34.57909049999999 0
   vertex 39.4603066126874 34.57909050000001 0
  endloop
 endfacet
 facet normal -0.4732647497937939 -0.8809202441779946 0.0
  outer loop
   vertex 16.51165213169183 44.998999999999995 0
   vertex 55.26348938881383 24.18 0
   vertex 55.26348938881383 24.18 0.36
  endloop
 endfacet
 facet normal -0.4732647497937939 -0.8809202441779946 -0.0
  outer loop
   vertex 16.51165213169183 44.998999999999995 0.36
   vertex 16.51165213169183 44.998999999999995 0
   vertex 55.26348938881383 24.18 0.36
  endloop
 endfacet
 facet normal -2.001635893198235e-15 1.0 0.0
  outer loop
   vertex 23.611272379056473 44.99900000000001 0
   vertex 16.51165213169183 44.998999999999995 0
   vertex 16.51165213169183 44.998999999999995 0.36
  endloop
 endfacet
 facet normal -2.001635893198235e-15 1.0 0.0
  outer loop
   vertex 23.611272379056473 44.99900000000001 0.36
   vertex 23.611272379056473 44.99900000000001 0
   vertex 16.51165213169183 44.998999999999995 0.36
  endloop
 endfacet
 facet normal 0.473264749793794 0.8809202441779946 0.0
  outer loop
   vertex 62.363109636178514 24.17999999999999 0
   vertex 23.611272379056473 44.99900000000001 0
   vertex 23.611272379056473 44.99900000000001 0.36
  endloop
 endfacet
 facet normal 0.473264749793794 0.8809202441779946 0.0
  outer loop
   vertex 62.363109636178514 24.17999999999999 0.36
   vertex 62.363109636178514 24.17999999999999 0
   vertex 23.611272379056473 44.99900000000001 0.36
  endloop
 endfacet
 facet normal -1.5012269198986682e-15 -1.0 0.0
  outer loop
   vertex 55.26348938881383 24.18 0
   vertex 62.363109636178514 24.17999999999999 0
   vertex 62.363109636178514 24.17999999999999 0.36
  endloop
 endfacet
 facet normal -1.5012269198986682e-15 -1.0 -0.0
  outer loop
   vertex 55.26348938881383 24.18 0.36
   vertex 55.26348938881383 24.18 0
   vertex 62.363109636178514 24.17999999999999 0.36
  endloop
 endfacet
 facet normal 0.4732647497938229 0.8809202441779791 -0.0
  outer loop
   vertex 39.453206992440045 34.57909049999999 0
   vertex 39.41445515518291 34.5999095 0
   vertex 39.453206992440045 34.57909049999999 0.36
  endloop
 endfacet
 facet normal 0.4732647497938229 0.8809202441779791 -0.0
  outer loop
   vertex 39.41445515518291 34.5999095 0
   vertex 39.41445515518291 34.5999095 0.36
   vertex 39.453206992440045 34.57909049999999 0.36
  endloop
 endfacet
 facet normal -1.0008179465958448e-12 -1.0 0.0
  outer loop
   vertex 39.41445515518291 34.5999095 0
   vertex 39.421554775430295 34.599909499999995 0
   vertex 39.41445515518291 34.5999095 0.36
  endloop
 endfacet
 facet normal -1.0008179465958448e-12 -1.0 0.0
  outer loop
   vertex 39.421554775430295 34.599909499999995 0
   vertex 39.421554775430295 34.599909499999995 0.36
   vertex 39.41445515518291 34.5999095 0.36
  endloop
 endfacet
 facet normal -0.4732647497937836 -0.8809202441780002 0.0
  outer loop
   vertex 39.421554775430295 34.599909499999995 0
   vertex 39.4603066126874 34.57909050000001 0
   vertex 39.421554775430295 34.599909499999995 0.36
  endloop
 endfacet
 facet normal -0.4732647497937836 -0.8809202441780002 0.0
  outer loop
   vertex 39.4603066126874 34.57909050000001 0
   vertex 39.4603066126874 34.57909050000001 0.36
   vertex 39.421554775430295 34.599909499999995 0.36
  endloop
 endfacet
 facet normal -2.001635893201706e-12 1.0 0.0
  outer loop
   vertex 39.4603066126874 34.57909050000001 0
   vertex 39.453206992440045 34.57909049999999 0
   vertex 39.4603066126874 34.57909050000001 0.36
  endloop
 endfacet
 facet normal -2.001635893201706e-12 1.0 0.0
  outer loop
   vertex 39.453206992440045 34.57909049999999 0
   vertex 39.453206992440045 34.57909049999999 0.36
   vertex 39.4603066126874 34.57909050000001 0.36
  endloop
 endfacet
 facet normal 0.0 0.0 1.0
  outer loop
   vertex 16.51165213169183 44.998999999999995 0.36
   vertex 55.26348938881383 24.18 0.36
   vertex 39.453206992440045 34.57909049999999 0.36
  endloop
 endfacet
 facet normal 0.0 0.0 1.0
  outer loop
   vertex 39.41445515518291 34.5999095 0.36
   vertex 16.51165213169183 44.998999999999995 0.36
   vertex 39.453206992440045 34.57909049999999 0.36
  endloop
 endfacet
 facet normal 0.0 0.0 1.0
  outer loop
   vertex 23.611272379056473 44.99900000000001 0.36
   vertex 16.51165213169183 44.998999999999995 0.36
   vertex 39.41445515518291 34.5999095 0.36
  endloop
 endfacet
 facet normal 0.0 0.0 1.0
  outer loop
   vertex 39.421554775430295 34.599909499999995 0.36
   vertex 23.611272379056473 44.99900000000001 0.36
   vertex 39.41445515518291 34.5999095 0.36
  endloop
 endfacet
 facet normal 0.0 0.0 1.0
  outer loop
   vertex 62.363109636178514 24.17999999999999 0.36
   vertex 23.611272379056473 44.99900000000001 0.36
   vertex 39.421554775430295 34.599909499999995 0.36
  endloop
 endfacet
 facet normal -0.0 -0.0 1.0
  outer loop
   vertex 39.4603066126874 34.57909050000001 0.36
   vertex 62.363109636178514 24.17999999999999 0.36
   vertex 39.421554775430295 34.599909499999995 0.36
  endloop
 endfacet
 facet normal -0.0 -0.0 1.0
  outer loop
   vertex 55.26348938881383 24.18 0.36
   vertex 62.363109636178514 24.17999999999999 0.36
   vertex 39.4603066126874 34.57909050000001 0.36
  endloop
 endfacet
 facet normal -0.0 0.0 1.0
  outer loop
   vertex 39.453206992440045 34.57909049999999 0.36
   vertex 55.26348938881383 24.18 0.36
   vertex 39.4603066126874 34.57909050000001 0.36
  endloop
 endfacet
 facet normal 0.0 0.0 -1.0
  outer loop
   vertex 65.6321365767788 20.81999999999999 0
   vertex 62.363109636178486 20.81999999999999 0
   vertex 63.999257619948935 22.49831999999999 0
  endloop
 endfacet
 facet normal 0.0 0.0 -1.0
  outer loop
   vertex 62.363109636178486 20.81999999999999 0
   vertex 63.99598859300836 22.49831999999999 0
   vertex 63.999257619948935 22.49831999999999 0
  endloop
 endfacet
 facet normal 0.0 0.0 -1.0
  outer loop
   vertex 62.363109636178486 20.81999999999999 0
   vertex 62.363109636178514 24.17999999999999 0
   vertex 63.99598859300836 22.49831999999999 0
  endloop
 endfacet
 facet normal 0.0 0.0 -1.0
  outer loop
   vertex 62.363109636178514 24.17999999999999 0
   vertex 63.995988593008335 22.50167999999999 0
   vertex 63.99598859300836 22.49831999999999 0
  endloop
 endfacet
 facet normal 0.0 0.0 -1.0
  outer loop
   vertex 62.363109636178514 24.17999999999999 0
   vertex 65.63213657677878 24.17999999999999 0
   vertex 63.995988593008335 22.50167999999999 0
  endloop
 endfacet
 facet normal 0.0 0.0 -1.0
  outer loop
   vertex 65.63213657677878 24.17999999999999 0
   vertex 63.99925761994896 22.50167999999999 0
   vertex 63.995988593008335 22.50167999999999 0
  endloop
 endfacet
 facet normal 0.0 -0.0 -1.0
  outer loop
   vertex 65.63213657677878 24.17999999999999 0
   vertex 65.6321365767788 20.81999999999999 0
   vertex 63.99925761994896 22.50167999999999 0
  endloop
 endfacet
 facet normal 0.0 0.0 -1.0
  outer loop
   vertex 65.6321365767788 20.81999999999999 0
   vertex 63.999257619948935 22.49831999999999 0
   vertex 63.99925761994896 22.50167999999999 0
  endloop
 endfacet
 facet normal 0.0 -1.0 0.0
  outer loop
   vertex 62.363109636178486 20.81999999999999 0
   vertex 65.6321365767788 20.81999999999999 0
   vertex 65.6321365767788 20.81999999999999 0.36
  endloop
 endfacet
 facet normal 0.0 -1.0 0.0
  outer loop
   vertex 62.363109636178486 20.81999999999999 0.36
   vertex 62.363109636178486 20.81999999999999 0
   vertex 65.6321365767788 20.81999999999999 0.36
  endloop
 endfacet
 facet normal -1.0 8.458842092382147e-15 0.0
  outer loop
   vertex 62.363109636178514 24.17999999999999 0
   vertex 62.363109636178486 20.81999999999999 0
   vertex 62.363109636178486 20.81999999999999 0.36
  endloop
 endfacet
 facet normal -1.0 8.458842092382147e-15 0.0
  outer loop
   vertex 62.363109636178514 24.17999999999999 0.36
   vertex 62.363109636178514 24.17999999999999 0
   vertex 62.363109636178486 20.81999999999999 0.36
  endloop
 endfacet
 facet normal 0.0 1.0 0.0
  outer loop
   vertex 65.63213657677878 24.17999999999999 0
   vertex 62.363109636178514 24.17999999999999 0
   vertex 62.363109636178514 24.17999999999999 0.36
  endloop
 endfacet
 facet normal 0.0 1.0 0.0
  outer loop
   vertex 65.63213657677878 24.17999999999999 0.36
   vertex 65.63213657677878 24.17999999999999 0
   vertex 62.363109636178514 24.17999999999999 0.36
  endloop
 endfacet
 facet normal 1.0 8.458842092382147e-15 0.0
  outer loop
   vertex 65.6321365767788 20.81999999999999 0
   vertex 65.63213657677878 24.17999999999999 0
   vertex 65.63213657677878 24.17999999999999 0.36
  endloop
 endfacet
 facet normal 1.0 8.458842092382147e-15 0.0
  outer loop
   vertex 65.6321365767788 20.81999999999999 0.36
   vertex 65.6321365767788 20.81999999999999 0
   vertex 65.63213657677878 24.17999999999999 0.36
  endloop
 endfacet
 facet normal 0.0 1.0 -0.0
  outer loop
   vertex 63.999257619948935 22.49831999999999 0
   vertex 63.99598859300836 22.49831999999999 0
   vertex 63.999257619948935 22.49831999999999 0.36
  endloop
 endfacet
 facet normal 0.0 1.0 0.0
  outer loop
   vertex 63.99598859300836 22.49831999999999 0
   vertex 63.99598859300836 22.49831999999999 0.36
   vertex 63.999257619948935 22.49831999999999 0.36
  endloop
 endfacet
 facet normal 1.0 8.458842092380395e-12 -0.0
  outer loop
   vertex 63.99598859300836 22.49831999999999 0
   vertex 63.995988593008335 22.50167999999999 0
   vertex 63.99598859300836 22.49831999999999 0.36
  endloop
 endfacet
 facet normal 1.0 8.458842092380395e-12 -0.0
  outer loop
   vertex 63.995988593008335 22.50167999999999 0
   vertex 63.995988593008335 22.50167999999999 0.36
   vertex 63.99598859300836 22.49831999999999 0.36
  endloop
 endfacet
 facet normal 0.0 -1.0 0.0
  outer loop
   vertex 63.995988593008335 22.50167999999999 0
   vertex 63.99925761994896 22.50167999999999 0
   vertex 63.995988593008335 22.50167999999999 0.36
  endloop
 endfacet
 facet normal 0.0 -1.0 0.0
  outer loop
   vertex 63.99925761994896 22.50167999999999 0
   vertex 63.99925761994896 22.50167999999999 0.36
   vertex 63.995988593008335 22.50167999999999 0.36
  endloop
 endfacet
 facet normal -1.0 8.458842092380395e-12 0.0
  outer loop
   vertex 63.99925761994896 22.50167999999999 0
   vertex 63.999257619948935 22.49831999999999 0
   vertex 63.99925761994896 22.50167999999999 0.36
  endloop
 endfacet
 facet normal -1.0 8.458842092380395e-12 0.0
  outer loop
   vertex 63.999257619948935 22.49831999999999 0
   vertex 63.999257619948935 22.49831999999999 0.36
   vertex 63.99925761994896 22.50167999999999 0.36
  endloop
 endfacet
 facet normal 0.0 0.0 1.0
  outer loop
   vertex 62.363109636178486 20.81999999999999 0.36
   vertex 65.6321365767788 20.81999999999999 0.36
   vertex 63.999257619948935 22.49831999999999 0.36
  endloop
 endfacet
 facet normal -0.0 0.0 1.0
  outer loop
   vertex 63.99598859300836 22.49831999999999 0.36
   vertex 62.363109636178486 20.81999999999999 0.36
   vertex 63.999257619948935 22.49831999999999 0.36
  endloop
 endfacet
 facet normal 0.0 0.0 1.0
  outer loop
   vertex 62.363109636178514 24.17999999999999 0.36
   vertex 62.363109636178486 20.81999999999999 0.36
   vertex 63.99598859300836 22.49831999999999 0.36
  endloop
 endfacet
 facet normal 0.0 0.0 1.0
  outer loop
   vertex 63.995988593008335 22.50167999999999 0.36
   vertex 62.363109636178514 24.17999999999999 0.36
   vertex 63.99598859300836 22.49831999999999 0.36
  endloop
 endfacet
 facet normal 0.0 0.0 1.0
  outer loop
   vertex 65.63213657677878 24.17999999999999 0.36
   vertex 62.363109636178514 24.17999999999999 0.36
   vertex 63.995988593008335 22.50167999999999 0.36
  endloop
 endfacet
 facet normal 0.0 -0.0 1.0
  outer loop
   vertex 63.99925761994896 22.50167999999999 0.36
   vertex 65.63213657677878 24.17999999999999 0.36
   vertex 63.995988593008335 22.50167999999999 0.36
  endloop
 endfacet
 facet normal 0.0 0.0 1.0
  outer loop
   vertex 65.6321365767788 20.81999999999999 0.36
   vertex 65.63213657677878 24.17999999999999 0.36
   vertex 63.99925761994896 22.50167999999999 0.36
  endloop
 endfacet
 facet normal -0.0 0.0 1.0
  outer loop
   vertex 63.999257619948935 22.49831999999999 0.36
   vertex 65.6321365767788 20.81999999999999 0.36
   vertex 63.99925761994896 22.50167999999999 0.36
  endloop
 endfacet
 facet normal 0.0 0.0 -1.0
  outer loop
   vertex 77.94873248192083 0.001 0
   vertex 65.6321365767788 20.81999999999999 0
   vertex 73.74662073152426 10.400090499999994 0
  endloop
 endfacet
 facet normal 0.0 0.0 -1.0
  outer loop
   vertex 65.6321365767788 20.81999999999999 0
   vertex 73.73430413561911 10.4209095 0
   vertex 73.74662073152426 10.400090499999994 0
  endloop
 endfacet
 facet normal 0.0 0.0 -1.0
  outer loop
   vertex 65.6321365767788 20.81999999999999 0
   vertex 69.53609634499075 20.82 0
   vertex 73.73430413561911 10.4209095 0
  endloop
 endfacet
 facet normal 0.0 0.0 -1.0
  outer loop
   vertex 69.53609634499075 20.82 0
   vertex 73.73820809538732 10.420909499999995 0
   vertex 73.73430413561911 10.4209095 0
  endloop
 endfacet
 facet normal 0.0 0.0 -1.0
  outer loop
   vertex 69.53609634499075 20.82 0
   vertex 81.85269225013278 0.001 0
   vertex 73.73820809538732 10.420909499999995 0
  endloop
 endfacet
 facet normal 0.0 0.0 -1.0
  outer loop
   vertex 81.85269225013278 0.001 0
   vertex 73.75052469129247 10.4000905 0
   vertex 73.73820809538732 10.420909499999995 0
  endloop
 endfacet
 facet normal 0.0 0.0 -1.0
  outer loop
   vertex 81.85269225013278 0.001 0
   vertex 77.94873248192083 0.001 0
   vertex 73.75052469129247 10.4000905 0
  endloop
 endfacet
 facet normal 0.0 0.0 -1.0
  outer loop
   vertex 77.94873248192083 0.001 0
   vertex 73.74662073152426 10.400090499999994 0
   vertex 73.75052469129247 10.4000905 0
  endloop
 endfacet
 facet normal -0.8606646070891548 -0.5091723029624361 0.0
  outer loop
   vertex 65.6321365767788 20.81999999999999 0
   vertex 77.94873248192083 0.001 0
   vertex 77.94873248192083 0.001 0.36
  endloop
 endfacet
 facet normal -0.8606646070891548 -0.5091723029624361 -0.0
  outer loop
   vertex 65.6321365767788 20.81999999999999 0.36
   vertex 65.6321365767788 20.81999999999999 0
   vertex 77.94873248192083 0.001 0.36
  endloop
 endfacet
 facet normal -2.7300847522009782e-15 1.0 0.0
  outer loop
   vertex 69.53609634499075 20.82 0
   vertex 65.6321365767788 20.81999999999999 0
   vertex 65.6321365767788 20.81999999999999 0.36
  endloop
 endfacet
 facet normal -2.7300847522009782e-15 1.0 0.0
  outer loop
   vertex 69.53609634499075 20.82 0.36
   vertex 69.53609634499075 20.82 0
   vertex 65.6321365767788 20.81999999999999 0.36
  endloop
 endfacet
 facet normal 0.8606646070891548 0.509172302962436 0.0
  outer loop
   vertex 81.85269225013278 0.001 0
   vertex 69.53609634499075 20.82 0
   vertex 69.53609634499075 20.82 0.36
  endloop
 endfacet
 facet normal 0.8606646070891548 0.509172302962436 0.0
  outer loop
   vertex 81.85269225013278 0.001 0.36
   vertex 81.85269225013278 0.001 0
   vertex 69.53609634499075 20.82 0.36
  endloop
 endfacet
 facet normal 0.0 -1.0 0.0
  outer loop
   vertex 77.94873248192083 0.001 0
   vertex 81.85269225013278 0.001 0
   vertex 81.85269225013278 0.001 0.36
  endloop
 endfacet
 facet normal 0.0 -1.0 0.0
  outer loop
   vertex 77.94873248192083 0.001 0.36
   vertex 77.94873248192083 0.001 0
   vertex 81.85269225013278 0.001 0.36
  endloop
 endfacet
 facet normal 0.8606646070891232 0.5091723029624894 -0.0
  outer loop
   vertex 73.74662073152426 10.400090499999994 0
   vertex 73.73430413561911 10.4209095 0
   vertex 73.74662073152426 10.400090499999994 0.36
  endloop
 endfacet
 facet normal 0.8606646070891232 0.5091723029624894 -0.0
  outer loop
   vertex 73.73430413561911 10.4209095 0
   vertex 73.73430413561911 10.4209095 0.36
   vertex 73.74662073152426 10.400090499999994 0.36
  endloop
 endfacet
 facet normal -1.365042376101478e-12 -1.0 0.0
  outer loop
   vertex 73.73430413561911 10.4209095 0
   vertex 73.73820809538732 10.420909499999995 0
   vertex 73.73430413561911 10.4209095 0.36
  endloop
 endfacet
 facet normal -1.365042376101478e-12 -1.0 0.0
  outer loop
   vertex 73.73820809538732 10.420909499999995 0
   vertex 73.73820809538732 10.420909499999995 0.36
   vertex 73.73430413561911 10.4209095 0.36
  endloop
 endfacet
 facet normal -0.860664607089009 -0.5091723029626825 0.0
  outer loop
   vertex 73.73820809538732 10.420909499999995 0
   vertex 73.75052469129247 10.4000905 0
   vertex 73.73820809538732 10.420909499999995 0.36
  endloop
 endfacet
 facet normal -0.860664607089009 -0.5091723029626825 0.0
  outer loop
   vertex 73.75052469129247 10.4000905 0
   vertex 73.75052469129247 10.4000905 0.36
   vertex 73.73820809538732 10.420909499999995 0.36
  endloop
 endfacet
 facet normal -1.365042376101478e-12 1.0 0.0
  outer loop
   vertex 73.75052469129247 10.4000905 0
   vertex 73.74662073152426 10.400090499999994 0
   vertex 73.75052469129247 10.4000905 0.36
  endloop
 endfacet
 facet normal -1.365042376101478e-12 1.0 0.0
  outer loop
   vertex 73.74662073152426 10.400090499999994 0
   vertex 73.74662073152426 10.400090499999994 0.36
   vertex 73.75052469129247 10.4000905 0.36
  endloop
 endfacet
 facet normal 0.0 0.0 1.0
  outer loop
   vertex 65.6321365767788 20.81999999999999 0.36
   vertex 77.94873248192083 0.001 0.36
   vertex 73.74662073152426 10.400090499999994 0.36
  endloop
 endfacet
 facet normal 0.0 0.0 1.0
  outer loop
   vertex 73.73430413561911 10.4209095 0.36
   vertex 65.6321365767788 20.81999999999999 0.36
   vertex 73.74662073152426 10.400090499999994 0.36
  endloop
 endfacet
 facet normal 0.0 0.0 1.0
  outer loop
   vertex 69.53609634499075 20.82 0.36
   vertex 65.6321365767788 20.81999999999999 0.36
   vertex 73.73430413561911 10.4209095 0.36
  endloop
 endfacet
 facet normal 0.0 0.0 1.0
  outer loop
   vertex 73.73820809538732 10.420909499999995 0.36
   vertex 69.53609634499075 20.82 0.36
   vertex 73.73430413561911 10.4209095 0.36
  endloop
 endfacet
 facet normal 0.0 0.0 1.0
  outer loop
   vertex 81.85269225013278 0.001 0.36
   vertex 69.53609634499075 20.82 0.36
   vertex 73.73820809538732 10.420909499999995 0.36
  endloop
 endfacet
 facet normal -0.0 -0.0 1.0
  outer loop
   vertex 73.75052469129247 10.4000905 0.36
   vertex 81.85269225013278 0.001 0.36
   vertex 73.73820809538732 10.420909499999995 0.36
  endloop
 endfacet
 facet normal 0.0 -0.0 1.0
  outer loop
   vertex 77.94873248192083 0.001 0.36
   vertex 81.85269225013278 0.001 0.36
   vertex 73.75052469129247 10.4000905 0.36
  endloop
 endfacet
 facet normal -0.0 0.0 1.0
  outer loop
   vertex 73.74662073152426 10.400090499999994 0.36
   vertex 77.94873248192083 0.001 0.36
   vertex 73.75052469129247 10.4000905 0.36
  endloop
 endfacet
 facet normal 0.0 0.0 -1.0
  outer loop
   vertex 65.63213657677878 24.17999999999999 0
   vertex 77.94873248192083 44.99900000000001 0
   vertex 73.73430413561911 34.57909050000001 0
  endloop
 endfacet
 facet normal 0.0 0.0 -1.0
  outer loop
   vertex 77.94873248192083 44.99900000000001 0
   vertex 73.74662073152425 34.599909499999995 0
   vertex 73.73430413561911 34.57909050000001 0
  endloop
 endfacet
 facet normal 0.0 -0.0 -1.0
  outer loop
   vertex 77.94873248192083 44.99900000000001 0
   vertex 81.85269225013278 44.998999999999995 0
   vertex 73.74662073152425 34.599909499999995 0
  endloop
 endfacet
 facet normal 0.0 0.0 -1.0
  outer loop
   vertex 81.85269225013278 44.998999999999995 0
   vertex 73.75052469129245 34.5999095 0
   vertex 73.74662073152425 34.599909499999995 0
  endloop
 endfacet
 facet normal 0.0 0.0 -1.0
  outer loop
   vertex 81.85269225013278 44.998999999999995 0
   vertex 69.53609634499074 24.18 0
   vertex 73.75052469129245 34.5999095 0
  endloop
 endfacet
 facet normal 0.0 0.0 -1.0
  outer loop
   vertex 69.53609634499074 24.18 0
   vertex 73.73820809538731 34.57909049999999 0
   vertex 73.75052469129245 34.5999095 0
  endloop
 endfacet
 facet normal -0.0 0.0 -1.0
  outer loop
   vertex 69.53609634499074 24.18 0
   vertex 65.63213657677878 24.17999999999999 0
   vertex 73.73820809538731 34.57909049999999 0
  endloop
 endfacet
 facet normal 0.0 0.0 -1.0
  outer loop
   vertex 65.63213657677878 24.17999999999999 0
   vertex 73.73430413561911 34.57909050000001 0
   vertex 73.73820809538731 34.57909049999999 0
  endloop
 endfacet
 facet normal -0.8606646070891546 0.5091723029624364 0.0
  outer loop
   vertex 77.94873248192083 44.99900000000001 0
   vertex 65.63213657677878 24.17999999999999 0
   vertex 65.63213657677878 24.17999999999999 0.36
  endloop
 endfacet
 facet normal -0.8606646070891546 0.5091723029624364 0.0
  outer loop
   vertex 77.94873248192083 44.99900000000001 0.36
   vertex 77.94873248192083 44.99900000000001 0
   vertex 65.63213657677878 24.17999999999999 0.36
  endloop
 endfacet
 facet normal 3.640113002934637e-15 1.0 0.0
  outer loop
   vertex 81.85269225013278 44.998999999999995 0
   vertex 77.94873248192083 44.99900000000001 0
   vertex 77.94873248192083 44.99900000000001 0.36
  endloop
 endfacet
 facet normal 3.640113002934637e-15 1.0 0.0
  outer loop
   vertex 81.85269225013278 44.998999999999995 0.36
   vertex 81.85269225013278 44.998999999999995 0
   vertex 77.94873248192083 44.99900000000001 0.36
  endloop
 endfacet
 facet normal 0.8606646070891546 -0.5091723029624364 0.0
  outer loop
   vertex 69.53609634499074 24.18 0
   vertex 81.85269225013278 44.998999999999995 0
   vertex 81.85269225013278 44.998999999999995 0.36
  endloop
 endfacet
 facet normal 0.8606646070891546 -0.5091723029624364 0.0
  outer loop
   vertex 69.53609634499074 24.18 0.36
   vertex 69.53609634499074 24.18 0
   vertex 81.85269225013278 44.998999999999995 0.36
  endloop
 endfacet
 facet normal 2.7300847522009684e-15 -1.0 0.0
  outer loop
   vertex 65.63213657677878 24.17999999999999 0
   vertex 69.53609634499074 24.18 0
   vertex 69.53609634499074 24.18 0.36
  endloop
 endfacet
 facet normal 2.7300847522009684e-15 -1.0 0.0
  outer loop
   vertex 65.63213657677878 24.17999999999999 0.36
   vertex 65.63213657677878 24.17999999999999 0
   vertex 69.53609634499074 24.18 0.36
  endloop
 endfacet
 facet normal 0.8606646070891902 -0.509172302962376 0.0
  outer loop
   vertex 73.73430413561911 34.57909050000001 0
   vertex 73.74662073152425 34.599909499999995 0
   vertex 73.73430413561911 34.57909050000001 0.36
  endloop
 endfacet
 facet normal 0.8606646070891902 -0.509172302962376 0.0
  outer loop
   vertex 73.74662073152425 34.599909499999995 0
   vertex 73.74662073152425 34.599909499999995 0.36
   vertex 73.73430413561911 34.57909050000001 0.36
  endloop
 endfacet
 facet normal 1.820056501468637e-12 -1.0 0.0
  outer loop
   vertex 73.74662073152425 34.599909499999995 0
   vertex 73.75052469129245 34.5999095 0
   vertex 73.74662073152425 34.599909499999995 0.36
  endloop
 endfacet
 facet normal 1.820056501468637e-12 -1.0 0.0
  outer loop
   vertex 73.75052469129245 34.5999095 0
   vertex 73.75052469129245 34.5999095 0.36
   vertex 73.74662073152425 34.599909499999995 0.36
  endloop
 endfacet
 facet normal -0.8606646070891614 0.5091723029624251 0.0
  outer loop
   vertex 73.75052469129245 34.5999095 0
   vertex 73.73820809538731 34.57909049999999 0
   vertex 73.75052469129245 34.5999095 0.36
  endloop
 endfacet
 facet normal -0.8606646070891614 0.5091723029624251 0.0
  outer loop
   vertex 73.73820809538731 34.57909049999999 0
   vertex 73.73820809538731 34.57909049999999 0.36
   vertex 73.75052469129245 34.5999095 0.36
  endloop
 endfacet
 facet normal 3.640113002950525e-12 1.0 -0.0
  outer loop
   vertex 73.73820809538731 34.57909049999999 0
   vertex 73.73430413561911 34.57909050000001 0
   vertex 73.73820809538731 34.57909049999999 0.36
  endloop
 endfacet
 facet normal 3.640113002950525e-12 1.0 -0.0
  outer loop
   vertex 73.73430413561911 34.57909050000001 0
   vertex 73.73430413561911 34.57909050000001 0.36
   vertex 73.73820809538731 34.57909049999999 0.36
  endloop
 endfacet
 facet normal 0.0 0.0 1.0
  outer loop
   vertex 77.94873248192083 44.99900000000001 0.36
   vertex 65.63213657677878 24.17999999999999 0.36
   vertex 73.73430413561911 34.57909050000001 0.36
  endloop
 endfacet
 facet normal 0.0 -0.0 1.0
  outer loop
   vertex 73.74662073152425 34.599909499999995 0.36
   vertex 77.94873248192083 44.99900000000001 0.36
   vertex 73.73430413561911 34.57909050000001 0.36
  endloop
 endfacet
 facet normal 0.0 0.0 1.0
  outer loop
   vertex 81.85269225013278 44.998999999999995 0.36
   vertex 77.94873248192083 44.99900000000001 0.36
   vertex 73.74662073152425 34.599909499999995 0.36
  endloop
 endfacet
 facet normal 0.0 -0.0 1.0
  outer loop
   vertex 73.75052469129245 34.5999095 0.36
   vertex 81.85269225013278 44.998999999999995 0.36
   vertex 73.74662073152425 34.599909499999995 0.36
  endloop
 endfacet
 facet normal 0.0 0.0 1.0
  outer loop
   vertex 69.53609634499074 24.18 0.36
   vertex 81.85269225013278 44.998999999999995 0.36
   vertex 73.75052469129245 34.5999095 0.36
  endloop
 endfacet
 facet normal -0.0 0.0 1.0
  outer loop
   vertex 73.73820809538731 34.57909049999999 0.36
   vertex 69.53609634499074 24.18 0.36
   vertex 73.75052469129245 34.5999095 0.36
  endloop
 endfacet
 facet normal 0.0 0.0 1.0
  outer loop
   vertex 65.63213657677878 24.17999999999999 0.36
   vertex 69.53609634499074 24.18 0.36
   vertex 73.73820809538731 34.57909049999999 0.36
  endloop
 endfacet
 facet normal 0.0 0.0 1.0
  outer loop
   vertex 73.73430413561911 34.57909050000001 0.36
   vertex 65.63213657677878 24.17999999999999 0.36
   vertex 73.73820809538731 34.57909049999999 0.36
  endloop
 endfacet
 facet normal 0.0 0.0 -1.0
  outer loop
   vertex 85.2423206778577 20.82 0
   vertex 69.53609634499075 20.82 0
   vertex 77.39706162359066 22.49832 0
  endloop
 endfacet
 facet normal 0.0 0.0 -1.0
  outer loop
   vertex 69.53609634499075 20.82 0
   vertex 77.38135539925779 22.49832 0
   vertex 77.39706162359066 22.49832 0
  endloop
 endfacet
 facet normal 0.0 0.0 -1.0
  outer loop
   vertex 69.53609634499075 20.82 0
   vertex 69.53609634499074 24.18 0
   vertex 77.38135539925779 22.49832 0
  endloop
 endfacet
 facet normal 0.0 0.0 -1.0
  outer loop
   vertex 69.53609634499074 24.18 0
   vertex 77.38135539925779 22.50168 0
   vertex 77.38135539925779 22.49832 0
  endloop
 endfacet
 facet normal 0.0 0.0 -1.0
  outer loop
   vertex 69.53609634499074 24.18 0
   vertex 85.24232067785769 24.18 0
   vertex 77.38135539925779 22.50168 0
  endloop
 endfacet
 facet normal 0.0 0.0 -1.0
  outer loop
   vertex 85.24232067785769 24.18 0
   vertex 77.39706162359066 22.50168 0
   vertex 77.38135539925779 22.50168 0
  endloop
 endfacet
 facet normal 0.0 -0.0 -1.0
  outer loop
   vertex 85.24232067785769 24.18 0
   vertex 85.2423206778577 20.82 0
   vertex 77.39706162359066 22.50168 0
  endloop
 endfacet
 facet normal 0.0 0.0 -1.0
  outer loop
   vertex 85.2423206778577 20.82 0
   vertex 77.39706162359066 22.49832 0
   vertex 77.39706162359066 22.50168 0
  endloop
 endfacet
 facet normal 0.0 -1.0 0.0
  outer loop
   vertex 69.53609634499075 20.82 0
   vertex 85.2423206778577 20.82 0
   vertex 85.2423206778577 20.82 0.36
  endloop
 endfacet
 facet normal 0.0 -1.0 0.0
  outer loop
   vertex 69.53609634499075 20.82 0.36
   vertex 69.53609634499075 20.82 0
   vertex 85.2423206778577 20.82 0.36
  endloop
 endfacet
 facet normal -1.0 -4.229421046191073e-15 0.0
  outer loop
   vertex 69.53609634499074 24.18 0
   vertex 69.53609634499075 20.82 0
   vertex 69.53609634499075 20.82 0.36
  endloop
 endfacet
 facet normal -1.0 -4.229421046191073e-15 -0.0
  outer loop
   vertex 69.53609634499074 24.18 0.36
   vertex 69.53609634499074 24.18 0
   vertex 69.53609634499075 20.82 0.36
  endloop
 endfacet
 facet normal 0.0 1.0 0.0
  outer loop
   vertex 85.24232067785769 24.18 0
   vertex 69.53609634499074 24.18 0
   vertex 69.53609634499074 24.18 0.36
  endloop
 endfacet
 facet normal 0.0 1.0 0.0
  outer loop
   vertex 85.24232067785769 24.18 0.36
   vertex 85.24232067785769 24.18 0
   vertex 69.53609634499074 24.18 0.36
  endloop
 endfacet
 facet normal 1.0 4.229421046191073e-15 0.0
  outer loop
   vertex 85.2423206778577 20.82 0
   vertex 85.24232067785769 24.18 0
   vertex 85.24232067785769 24.18 0.36
  endloop
 endfacet
 facet normal 1.0 4.229421046191073e-15 0.0
  outer loop
   vertex 85.2423206778577 20.82 0.36
   vertex 85.2423206778577 20.82 0
   vertex 85.24232067785769 24.18 0.36
  endloop
 endfacet
 facet normal 0.0 1.0 -0.0
  outer loop
   vertex 77.39706162359066 22.49832 0
   vertex 77.38135539925779 22.49832 0
   vertex 77.39706162359066 22.49832 0.36
  endloop
 endfacet
 facet normal 0.0 1.0 0.0
  outer loop
   vertex 77.38135539925779 22.49832 0
   vertex 77.38135539925779 22.49832 0.36
   vertex 77.39706162359066 22.49832 0.36
  endloop
 endfacet
 facet normal 1.0 0.0 0.0
  outer loop
   vertex 77.38135539925779 22.49832 0
   vertex 77.38135539925779 22.50168 0
   vertex 77.38135539925779 22.49832 0.36
  endloop
 endfacet
 facet normal 1.0 0.0 -0.0
  outer loop
   vertex 77.38135539925779 22.50168 0
   vertex 77.38135539925779 22.50168 0.36
   vertex 77.38135539925779 22.49832 0.36
  endloop
 endfacet
 facet normal 0.0 -1.0 0.0
  outer loop
   vertex 77.38135539925779 22.50168 0
   vertex 77.39706162359066 22.50168 0
   vertex 77.38135539925779 22.50168 0.36
  endloop
 endfacet
 facet normal 0.0 -1.0 0.0
  outer loop
   vertex 77.39706162359066 22.50168 0
   vertex 77.39706162359066 22.50168 0.36
   vertex 77.38135539925779 22.50168 0.36
  endloop
 endfacet
 facet normal -1.0 0.0 0.0
  outer loop
   vertex 77.39706162359066 22.50168 0
   vertex 77.39706162359066 22.49832 0
   vertex 77.39706162359066 22.50168 0.36
  endloop
 endfacet
 facet normal -1.0 0.0 0.0
  outer loop
   vertex 77.39706162359066 22.49832 0
   vertex 77.39706162359066 22.49832 0.36
   vertex 77.39706162359066 22.50168 0.36
  endloop
 endfacet
 facet normal 0.0 0.0 1.0
  outer loop
   vertex 69.53609634499075 20.82 0.36
   vertex 85.2423206778577 20.82 0.36
   vertex 77.39706162359066 22.49832 0.36
  endloop
 endfacet
 facet normal -0.0 0.0 1.0
  outer loop
   vertex 77.38135539925779 22.49832 0.36
   vertex 69.53609634499075 20.82 0.36
   vertex 77.39706162359066 22.49832 0.36
  endloop
 endfacet
 facet normal 0.0 0.0 1.0
  outer loop
   vertex 69.53609634499074 24.18 0.36
   vertex 69.53609634499075 20.82 0.36
   vertex 77.38135539925779 22.49832 0.36
  endloop
 endfacet
 facet normal 0.0 0.0 1.0
  outer loop
   vertex 77.38135539925779 22.50168 0.36
   vertex 69.53609634499074 24.18 0.36
   vertex 77.38135539925779 22.49832 0.36
  endloop
 endfacet
 facet normal 0.0 0.0 1.0
  outer loop
   vertex 85.24232067785769 24.18 0.36
   vertex 69.53609634499074 24.18 0.36
   vertex 77.38135539925779 22.50168 0.36
  endloop
 endfacet
 facet normal 0.0 -0.0 1.0
  outer loop
   vertex 77.39706162359066 22.50168 0.36
   vertex 85.24232067785769 24.18 0.36
   vertex 77.38135539925779 22.50168 0.36
  endloop
 endfacet
 facet normal 0.0 0.0 1.0
  outer loop
   vertex 85.2423206778577 20.82 0.36
   vertex 85.24232067785769 24.18 0.36
   vertex 77.39706162359066 22.50168 0.36
  endloop
 endfacet
 facet normal -0.0 0.0 1.0
  outer loop
   vertex 77.39706162359066 22.49832 0.36
   vertex 85.2423206778577 20.82 0.36
   vertex 77.39706162359066 22.50168 0.36
  endloop
 endfacet
 facet normal 0.0 0.0 -1.0
  outer loop
   vertex 55.26348938881383 20.82 0
   vertex -0.000337828981146697 20.82 0
   vertex 27.65920769352524 22.49832 0
  endloop
 endfacet
 facet normal 0.0 0.0 -1.0
  outer loop
   vertex -0.000337828981146697 20.82 0
   vertex 27.603943866307446 22.49832 0
   vertex 27.65920769352524 22.49832 0
  endloop
 endfacet
 facet normal 0.0 0.0 -1.0
  outer loop
   vertex -0.000337828981146697 20.82 0
   vertex -0.000337828981146697 24.18 0
   vertex 27.603943866307446 22.49832 0
  endloop
 endfacet
 facet normal 0.0 0.0 -1.0
  outer loop
   vertex -0.000337828981146697 24.18 0
   vertex 27.603943866307446 22.50168 0
   vertex 27.603943866307446 22.49832 0
  endloop
 endfacet
 facet normal 0.0 0.0 -1.0
  outer loop
   vertex -0.000337828981146697 24.18 0
   vertex 55.26348938881383 24.18 0
   vertex 27.603943866307446 22.50168 0
  endloop
 endfacet
 facet normal 0.0 0.0 -1.0
  outer loop
   vertex 55.26348938881383 24.18 0
   vertex 27.65920769352524 22.50168 0
   vertex 27.603943866307446 22.50168 0
  endloop
 endfacet
 facet normal 0.0 -0.0 -1.0
  outer loop
   vertex 55.26348938881383 24.18 0
   vertex 55.26348938881383 20.82 0
   vertex 27.65920769352524 22.50168 0
  endloop
 endfacet
 facet normal 0.0 0.0 -1.0
  outer loop
   vertex 55.26348938881383 20.82 0
   vertex 27.65920769352524 22.49832 0
   vertex 27.65920769352524 22.50168 0
  endloop
 endfacet
 facet normal 0.0 -1.0 0.0
  outer loop
   vertex -0.000337828981146697 20.82 0
   vertex 55.26348938881383 20.82 0
   vertex 55.26348938881383 20.82 0.36
  endloop
 endfacet
 facet normal 0.0 -1.0 0.0
  outer loop
   vertex -0.000337828981146697 20.82 0.36
   vertex -0.000337828981146697 20.82 0
   vertex 55.26348938881383 20.82 0.36
  endloop
 endfacet
 facet normal -1.0 0.0 0.0
  outer loop
   vertex -0.000337828981146697 24.18 0
   vertex -0.000337828981146697 20.82 0
   vertex -0.000337828981146697 20.82 0.36
  endloop
 endfacet
 facet normal -1.0 -0.0 -0.0
  outer loop
   vertex -0.000337828981146697 24.18 0.36
   vertex -0.000337828981146697 24.18 0
   vertex -0.000337828981146697 20.82 0.36
  endloop
 endfacet
 facet normal 0.0 1.0 0.0
  outer loop
   vertex 55.26348938881383 24.18 0
   vertex -0.000337828981146697 24.18 0
   vertex -0.000337828981146697 24.18 0.36
  endloop
 endfacet
 facet normal 0.0 1.0 0.0
  outer loop
   vertex 55.26348938881383 24.18 0.36
   vertex 55.26348938881383 24.18 0
   vertex -0.000337828981146697 24.18 0.36
  endloop
 endfacet
 facet normal 1.0 0.0 0.0
  outer loop
   vertex 55.26348938881383 20.82 0
   vertex 55.26348938881383 24.18 0
   vertex 55.26348938881383 24.18 0.36
  endloop
 endfacet
 facet normal 1.0 -0.0 0.0
  outer loop
   vertex 55.26348938881383 20.82 0.36
   vertex 55.26348938881383 20.82 0
   vertex 55.26348938881383 24.18 0.36
  endloop
 endfacet
 facet normal 0.0 1.0 -0.0
  outer loop
   vertex 27.65920769352524 22.49832 0
   vertex 27.603943866307446 22.49832 0
   vertex 27.65920769352524 22.49832 0.36
  endloop
 endfacet
 facet normal 0.0 1.0 0.0
  outer loop
   vertex 27.603943866307446 22.49832 0
   vertex 27.603943866307446 22.49832 0.36
   vertex 27.65920769352524 22.49832 0.36
  endloop
 endfacet
 facet normal 1.0 0.0 0.0
  outer loop
   vertex 27.603943866307446 22.49832 0
   vertex 27.603943866307446 22.50168 0
   vertex 27.603943866307446 22.49832 0.36
  endloop
 endfacet
 facet normal 1.0 0.0 -0.0
  outer loop
   vertex 27.603943866307446 22.50168 0
   vertex 27.603943866307446 22.50168 0.36
   vertex 27.603943866307446 22.49832 0.36
  endloop
 endfacet
 facet normal 0.0 -1.0 0.0
  outer loop
   vertex 27.603943866307446 22.50168 0
   vertex 27.65920769352524 22.50168 0
   vertex 27.603943866307446 22.50168 0.36
  endloop
 endfacet
 facet normal 0.0 -1.0 0.0
  outer loop
   vertex 27.65920769352524 22.50168 0
   vertex 27.65920769352524 22.50168 0.36
   vertex 27.603943866307446 22.50168 0.36
  endloop
 endfacet
 facet normal -1.0 0.0 0.0
  outer loop
   vertex 27.65920769352524 22.50168 0
   vertex 27.65920769352524 22.49832 0
   vertex 27.65920769352524 22.50168 0.36
  endloop
 endfacet
 facet normal -1.0 0.0 0.0
  outer loop
   vertex 27.65920769352524 22.49832 0
   vertex 27.65920769352524 22.49832 0.36
   vertex 27.65920769352524 22.50168 0.36
  endloop
 endfacet
 facet normal 0.0 0.0 1.0
  outer loop
   vertex -0.000337828981146697 20.82 0.36
   vertex 55.26348938881383 20.82 0.36
   vertex 27.65920769352524 22.49832 0.36
  endloop
 endfacet
 facet normal -0.0 0.0 1.0
  outer loop
   vertex 27.603943866307446 22.49832 0.36
   vertex -0.000337828981146697 20.82 0.36
   vertex 27.65920769352524 22.49832 0.36
  endloop
 endfacet
 facet normal 0.0 0.0 1.0
  outer loop
   vertex -0.000337828981146697 24.18 0.36
   vertex -0.000337828981146697 20.82 0.36
   vertex 27.603943866307446 22.49832 0.36
  endloop
 endfacet
 facet normal 0.0 0.0 1.0
  outer loop
   vertex 27.603943866307446 22.50168 0.36
   vertex -0.000337828981146697 24.18 0.36
   vertex 27.603943866307446 22.49832 0.36
  endloop
 endfacet
 facet normal 0.0 0.0 1.0
  outer loop
   vertex 55.26348938881383 24.18 0.36
   vertex -0.000337828981146697 24.18 0.36
   vertex 27.603943866307446 22.50168 0.36
  endloop
 endfacet
 facet normal 0.0 -0.0 1.0
  outer loop
   vertex 27.65920769352524 22.50168 0.36
   vertex 55.26348938881383 24.18 0.36
   vertex 27.603943866307446 22.50168 0.36
  endloop
 endfacet
 facet normal 0.0 -0.0 1.0
  outer loop
   vertex 55.26348938881383 20.82 0.36
   vertex 55.26348938881383 24.18 0.36
   vertex 27.65920769352524 22.50168 0.36
  endloop
 endfacet
 facet normal -0.0 0.0 1.0
  outer loop
   vertex 27.65920769352524 22.49832 0.36
   vertex 55.26348938881383 20.82 0.36
   vertex 27.65920769352524 22.50168 0.36
  endloop
 endfacet
 facet normal 0.0 0.0 -1.0
  outer loop
   vertex 85.2423206778577 20.82 0
   vertex 69.53609634499075 20.82 0
   vertex 77.39706162359066 22.49832 0
  endloop
 endfacet
 facet normal 0.0 0.0 -1.0
  outer loop
   vertex 69.53609634499075 20.82 0
   vertex 77.38135539925779 22.49832 0
   vertex 77.39706162359066 22.49832 0
  endloop
 endfacet
 facet normal 0.0 0.0 -1.0
  outer loop
   vertex 69.53609634499075 20.82 0
   vertex 69.53609634499074 24.18 0
   vertex 77.38135539925779 22.49832 0
  endloop
 endfacet
 facet normal 0.0 0.0 -1.0
  outer loop
   vertex 69.53609634499074 24.18 0
   vertex 77.38135539925779 22.50168 0
   vertex 77.38135539925779 22.49832 0
  endloop
 endfacet
 facet normal 0.0 0.0 -1.0
  outer loop
   vertex 69.53609634499074 24.18 0
   vertex 85.24232067785769 24.18 0
   vertex 77.38135539925779 22.50168 0
  endloop
 endfacet
 facet normal 0.0 0.0 -1.0
  outer loop
   vertex 85.24232067785769 24.18 0
   vertex 77.39706162359066 22.50168 0
   vertex 77.38135539925779 22.50168 0
  endloop
 endfacet
 facet normal 0.0 -0.0 -1.0
  outer loop
   vertex 85.24232067785769 24.18 0
   vertex 85.2423206778577 20.82 0
   vertex 77.39706162359066 22.50168 0
  endloop
 endfacet
 facet normal 0.0 0.0 -1.0
  outer loop
   vertex 85.2423206778577 20.82 0
   vertex 77.39706162359066 22.49832 0
   vertex 77.39706162359066 22.50168 0
  endloop
 endfacet
 facet normal 0.0 -1.0 0.0
  outer loop
   vertex 69.53609634499075 20.82 0
   vertex 85.2423206778577 20.82 0
   vertex 85.2423206778577 20.82 0.36
  endloop
 endfacet
 facet normal 0.0 -1.0 0.0
  outer loop
   vertex 69.53609634499075 20.82 0.36
   vertex 69.53609634499075 20.82 0
   vertex 85.2423206778577 20.82 0.36
  endloop
 endfacet
 facet normal -1.0 -4.229421046191073e-15 0.0
  outer loop
   vertex 69.53609634499074 24.18 0
   vertex 69.53609634499075 20.82 0
   vertex 69.53609634499075 20.82 0.36
  endloop
 endfacet
 facet normal -1.0 -4.229421046191073e-15 -0.0
  outer loop
   vertex 69.53609634499074 24.18 0.36
   vertex 69.53609634499074 24.18 0
   vertex 69.53609634499075 20.82 0.36
  endloop
 endfacet
 facet normal 0.0 1.0 0.0
  outer loop
   vertex 85.24232067785769 24.18 0
   vertex 69.53609634499074 24.18 0
   vertex 69.53609634499074 24.18 0.36
  endloop
 endfacet
 facet normal 0.0 1.0 0.0
  outer loop
   vertex 85.24232067785769 24.18 0.36
   vertex 85.24232067785769 24.18 0
   vertex 69.53609634499074 24.18 0.36
  endloop
 endfacet
 facet normal 1.0 4.229421046191073e-15 0.0
  outer loop
   vertex 85.2423206778577 20.82 0
   vertex 85.24232067785769 24.18 0
   vertex 85.24232067785769 24.18 0.36
  endloop
 endfacet
 facet normal 1.0 4.229421046191073e-15 0.0
  outer loop
   vertex 85.2423206778577 20.82 0.36
   vertex 85.2423206778577 20.82 0
   vertex 85.24232067785769 24.18 0.36
  endloop
 endfacet
 facet normal 0.0 1.0 -0.0
  outer loop
   vertex 77.39706162359066 22.49832 0
   vertex 77.38135539925779 22.49832 0
   vertex 77.39706162359066 22.49832 0.36
  endloop
 endfacet
 facet normal 0.0 1.0 0.0
  outer loop
   vertex 77.38135539925779 22.49832 0
   vertex 77.38135539925779 22.49832 0.36
   vertex 77.39706162359066 22.49832 0.36
  endloop
 endfacet
 facet normal 1.0 0.0 0.0
  outer loop
   vertex 77.38135539925779 22.49832 0
   vertex 77.38135539925779 22.50168 0
   vertex 77.38135539925779 22.49832 0.36
  endloop
 endfacet
 facet normal 1.0 0.0 -0.0
  outer loop
   vertex 77.38135539925779 22.50168 0
   vertex 77.38135539925779 22.50168 0.36
   vertex 77.38135539925779 22.49832 0.36
  endloop
 endfacet
 facet normal 0.0 -1.0 0.0
  outer loop
   vertex 77.38135539925779 22.50168 0
   vertex 77.39706162359066 22.50168 0
   vertex 77.38135539925779 22.50168 0.36
  endloop
 endfacet
 facet normal 0.0 -1.0 0.0
  outer loop
   vertex 77.39706162359066 22.50168 0
   vertex 77.39706162359066 22.50168 0.36
   vertex 77.38135539925779 22.50168 0.36
  endloop
 endfacet
 facet normal -1.0 0.0 0.0
  outer loop
   vertex 77.39706162359066 22.50168 0
   vertex 77.39706162359066 22.49832 0
   vertex 77.39706162359066 22.50168 0.36
  endloop
 endfacet
 facet normal -1.0 0.0 0.0
  outer loop
   vertex 77.39706162359066 22.49832 0
   vertex 77.39706162359066 22.49832 0.36
   vertex 77.39706162359066 22.50168 0.36
  endloop
 endfacet
 facet normal 0.0 0.0 1.0
  outer loop
   vertex 69.53609634499075 20.82 0.36
   vertex 85.2423206778577 20.82 0.36
   vertex 77.39706162359066 22.49832 0.36
  endloop
 endfacet
 facet normal -0.0 0.0 1.0
  outer loop
   vertex 77.38135539925779 22.49832 0.36
   vertex 69.53609634499075 20.82 0.36
   vertex 77.39706162359066 22.49832 0.36
  endloop
 endfacet
 facet normal 0.0 0.0 1.0
  outer loop
   vertex 69.53609634499074 24.18 0.36
   vertex 69.53609634499075 20.82 0.36
   vertex 77.38135539925779 22.49832 0.36
  endloop
 endfacet
 facet normal 0.0 0.0 1.0
  outer loop
   vertex 77.38135539925779 22.50168 0.36
   vertex 69.53609634499074 24.18 0.36
   vertex 77.38135539925779 22.49832 0.36
  endloop
 endfacet
 facet normal 0.0 0.0 1.0
  outer loop
   vertex 85.24232067785769 24.18 0.36
   vertex 69.53609634499074 24.18 0.36
   vertex 77.38135539925779 22.50168 0.36
  endloop
 endfacet
 facet normal 0.0 -0.0 1.0
  outer loop
   vertex 77.39706162359066 22.50168 0.36
   vertex 85.24232067785769 24.18 0.36
   vertex 77.38135539925779 22.50168 0.36
  endloop
 endfacet
 facet normal 0.0 0.0 1.0
  outer loop
   vertex 85.2423206778577 20.82 0.36
   vertex 85.24232067785769 24.18 0.36
   vertex 77.39706162359066 22.50168 0.36
  endloop
 endfacet
 facet normal -0.0 0.0 1.0
  outer loop
   vertex 77.39706162359066 22.49832 0.36
   vertex 85.2423206778577 20.82 0.36
   vertex 77.39706162359066 22.50168 0.36
  endloop
 endfacet
endsolid
