solid PyGamic generated __All_Crease__ SLA File
 facet normal 0.0 0.0 -1.0
  outer loop
   vertex 65.99766217038471 20.82 0
   vertex -0.000337828981146697 20.82 0
   vertex 33.03166117070147 22.49832 0
  endloop
 endfacet
 facet normal 0.0 0.0 -1.0
  outer loop
   vertex -0.000337828981146697 20.82 0
   vertex 32.9656631707021 22.49832 0
   vertex 33.03166117070147 22.49832 0
  endloop
 endfacet
 facet normal 0.0 0.0 -1.0
  outer loop
   vertex -0.000337828981146697 20.82 0
   vertex -0.000337828981146697 24.18 0
   vertex 32.9656631707021 22.49832 0
  endloop
 endfacet
 facet normal 0.0 0.0 -1.0
  outer loop
   vertex -0.000337828981146697 24.18 0
   vertex 32.9656631707021 22.50168 0
   vertex 32.9656631707021 22.49832 0
  endloop
 endfacet
 facet normal 0.0 0.0 -1.0
  outer loop
   vertex -0.000337828981146697 24.18 0
   vertex 65.99766217038471 24.18 0
   vertex 32.9656631707021 22.50168 0
  endloop
 endfacet
 facet normal 0.0 0.0 -1.0
  outer loop
   vertex 65.99766217038471 24.18 0
   vertex 33.03166117070147 22.50168 0
   vertex 32.9656631707021 22.50168 0
  endloop
 endfacet
 facet normal 0.0 -0.0 -1.0
  outer loop
   vertex 65.99766217038471 24.18 0
   vertex 65.99766217038471 20.82 0
   vertex 33.03166117070147 22.50168 0
  endloop
 endfacet
 facet normal 0.0 0.0 -1.0
  outer loop
   vertex 65.99766217038471 20.82 0
   vertex 33.03166117070147 22.49832 0
   vertex 33.03166117070147 22.50168 0
  endloop
 endfacet
 facet normal 0.0 -1.0 0.0
  outer loop
   vertex -0.000337828981146697 20.82 0
   vertex 65.99766217038471 20.82 0
   vertex 65.99766217038471 20.82 0.36
  endloop
 endfacet
 facet normal 0.0 -1.0 0.0
  outer loop
   vertex -0.000337828981146697 20.82 0.36
   vertex -0.000337828981146697 20.82 0
   vertex 65.99766217038471 20.82 0.36
  endloop
 endfacet
 facet normal -1.0 0.0 0.0
  outer loop
   vertex -0.000337828981146697 24.18 0
   vertex -0.000337828981146697 20.82 0
   vertex -0.000337828981146697 20.82 0.36
  endloop
 endfacet
 facet normal -1.0 -0.0 -0.0
  outer loop
   vertex -0.000337828981146697 24.18 0.36
   vertex -0.000337828981146697 24.18 0
   vertex -0.000337828981146697 20.82 0.36
  endloop
 endfacet
 facet normal 0.0 1.0 0.0
  outer loop
   vertex 65.99766217038471 24.18 0
   vertex -0.000337828981146697 24.18 0
   vertex -0.000337828981146697 24.18 0.36
  endloop
 endfacet
 facet normal 0.0 1.0 0.0
  outer loop
   vertex 65.99766217038471 24.18 0.36
   vertex 65.99766217038471 24.18 0
   vertex -0.000337828981146697 24.18 0.36
  endloop
 endfacet
 facet normal 1.0 0.0 0.0
  outer loop
   vertex 65.99766217038471 20.82 0
   vertex 65.99766217038471 24.18 0
   vertex 65.99766217038471 24.18 0.36
  endloop
 endfacet
 facet normal 1.0 -0.0 0.0
  outer loop
   vertex 65.99766217038471 20.82 0.36
   vertex 65.99766217038471 20.82 0
   vertex 65.99766217038471 24.18 0.36
  endloop
 endfacet
 facet normal 0.0 1.0 -0.0
  outer loop
   vertex 33.03166117070147 22.49832 0
   vertex 32.9656631707021 22.49832 0
   vertex 33.03166117070147 22.49832 0.36
  endloop
 endfacet
 facet normal 0.0 1.0 0.0
  outer loop
   vertex 32.9656631707021 22.49832 0
   vertex 32.9656631707021 22.49832 0.36
   vertex 33.03166117070147 22.49832 0.36
  endloop
 endfacet
 facet normal 1.0 0.0 0.0
  outer loop
   vertex 32.9656631707021 22.49832 0
   vertex 32.9656631707021 22.50168 0
   vertex 32.9656631707021 22.49832 0.36
  endloop
 endfacet
 facet normal 1.0 0.0 -0.0
  outer loop
   vertex 32.9656631707021 22.50168 0
   vertex 32.9656631707021 22.50168 0.36
   vertex 32.9656631707021 22.49832 0.36
  endloop
 endfacet
 facet normal 0.0 -1.0 0.0
  outer loop
   vertex 32.9656631707021 22.50168 0
   vertex 33.03166117070147 22.50168 0
   vertex 32.9656631707021 22.50168 0.36
  endloop
 endfacet
 facet normal 0.0 -1.0 0.0
  outer loop
   vertex 33.03166117070147 22.50168 0
   vertex 33.03166117070147 22.50168 0.36
   vertex 32.9656631707021 22.50168 0.36
  endloop
 endfacet
 facet normal -1.0 0.0 0.0
  outer loop
   vertex 33.03166117070147 22.50168 0
   vertex 33.03166117070147 22.49832 0
   vertex 33.03166117070147 22.50168 0.36
  endloop
 endfacet
 facet normal -1.0 0.0 0.0
  outer loop
   vertex 33.03166117070147 22.49832 0
   vertex 33.03166117070147 22.49832 0.36
   vertex 33.03166117070147 22.50168 0.36
  endloop
 endfacet
 facet normal 0.0 0.0 1.0
  outer loop
   vertex -0.000337828981146697 20.82 0.36
   vertex 65.99766217038471 20.82 0.36
   vertex 33.03166117070147 22.49832 0.36
  endloop
 endfacet
 facet normal -0.0 0.0 1.0
  outer loop
   vertex 32.9656631707021 22.49832 0.36
   vertex -0.000337828981146697 20.82 0.36
   vertex 33.03166117070147 22.49832 0.36
  endloop
 endfacet
 facet normal 0.0 0.0 1.0
  outer loop
   vertex -0.000337828981146697 24.18 0.36
   vertex -0.000337828981146697 20.82 0.36
   vertex 32.9656631707021 22.49832 0.36
  endloop
 endfacet
 facet normal 0.0 0.0 1.0
  outer loop
   vertex 32.9656631707021 22.50168 0.36
   vertex -0.000337828981146697 24.18 0.36
   vertex 32.9656631707021 22.49832 0.36
  endloop
 endfacet
 facet normal 0.0 0.0 1.0
  outer loop
   vertex 65.99766217038471 24.18 0.36
   vertex -0.000337828981146697 24.18 0.36
   vertex 32.9656631707021 22.50168 0.36
  endloop
 endfacet
 facet normal 0.0 -0.0 1.0
  outer loop
   vertex 33.03166117070147 22.50168 0.36
   vertex 65.99766217038471 24.18 0.36
   vertex 32.9656631707021 22.50168 0.36
  endloop
 endfacet
 facet normal 0.0 -0.0 1.0
  outer loop
   vertex 65.99766217038471 20.82 0.36
   vertex 65.99766217038471 24.18 0.36
   vertex 33.03166117070147 22.50168 0.36
  endloop
 endfacet
 facet normal -0.0 0.0 1.0
  outer loop
   vertex 33.03166117070147 22.49832 0.36
   vertex 65.99766217038471 20.82 0.36
   vertex 33.03166117070147 22.50168 0.36
  endloop
 endfacet
 facet normal 0.0 0.0 -1.0
  outer loop
   vertex 65.99766217038471 20.82 0
   vertex -0.000337828981146697 20.82 0
   vertex 33.03166117070147 22.49832 0
  endloop
 endfacet
 facet normal 0.0 0.0 -1.0
  outer loop
   vertex -0.000337828981146697 20.82 0
   vertex 32.9656631707021 22.49832 0
   vertex 33.03166117070147 22.49832 0
  endloop
 endfacet
 facet normal 0.0 0.0 -1.0
  outer loop
   vertex -0.000337828981146697 20.82 0
   vertex -0.000337828981146697 24.18 0
   vertex 32.9656631707021 22.49832 0
  endloop
 endfacet
 facet normal 0.0 0.0 -1.0
  outer loop
   vertex -0.000337828981146697 24.18 0
   vertex 32.9656631707021 22.50168 0
   vertex 32.9656631707021 22.49832 0
  endloop
 endfacet
 facet normal 0.0 0.0 -1.0
  outer loop
   vertex -0.000337828981146697 24.18 0
   vertex 65.99766217038471 24.18 0
   vertex 32.9656631707021 22.50168 0
  endloop
 endfacet
 facet normal 0.0 0.0 -1.0
  outer loop
   vertex 65.99766217038471 24.18 0
   vertex 33.03166117070147 22.50168 0
   vertex 32.9656631707021 22.50168 0
  endloop
 endfacet
 facet normal 0.0 -0.0 -1.0
  outer loop
   vertex 65.99766217038471 24.18 0
   vertex 65.99766217038471 20.82 0
   vertex 33.03166117070147 22.50168 0
  endloop
 endfacet
 facet normal 0.0 0.0 -1.0
  outer loop
   vertex 65.99766217038471 20.82 0
   vertex 33.03166117070147 22.49832 0
   vertex 33.03166117070147 22.50168 0
  endloop
 endfacet
 facet normal 0.0 -1.0 0.0
  outer loop
   vertex -0.000337828981146697 20.82 0
   vertex 65.99766217038471 20.82 0
   vertex 65.99766217038471 20.82 0.36
  endloop
 endfacet
 facet normal 0.0 -1.0 0.0
  outer loop
   vertex -0.000337828981146697 20.82 0.36
   vertex -0.000337828981146697 20.82 0
   vertex 65.99766217038471 20.82 0.36
  endloop
 endfacet
 facet normal -1.0 0.0 0.0
  outer loop
   vertex -0.000337828981146697 24.18 0
   vertex -0.000337828981146697 20.82 0
   vertex -0.000337828981146697 20.82 0.36
  endloop
 endfacet
 facet normal -1.0 -0.0 -0.0
  outer loop
   vertex -0.000337828981146697 24.18 0.36
   vertex -0.000337828981146697 24.18 0
   vertex -0.000337828981146697 20.82 0.36
  endloop
 endfacet
 facet normal 0.0 1.0 0.0
  outer loop
   vertex 65.99766217038471 24.18 0
   vertex -0.000337828981146697 24.18 0
   vertex -0.000337828981146697 24.18 0.36
  endloop
 endfacet
 facet normal 0.0 1.0 0.0
  outer loop
   vertex 65.99766217038471 24.18 0.36
   vertex 65.99766217038471 24.18 0
   vertex -0.000337828981146697 24.18 0.36
  endloop
 endfacet
 facet normal 1.0 0.0 0.0
  outer loop
   vertex 65.99766217038471 20.82 0
   vertex 65.99766217038471 24.18 0
   vertex 65.99766217038471 24.18 0.36
  endloop
 endfacet
 facet normal 1.0 -0.0 0.0
  outer loop
   vertex 65.99766217038471 20.82 0.36
   vertex 65.99766217038471 20.82 0
   vertex 65.99766217038471 24.18 0.36
  endloop
 endfacet
 facet normal 0.0 1.0 -0.0
  outer loop
   vertex 33.03166117070147 22.49832 0
   vertex 32.9656631707021 22.49832 0
   vertex 33.03166117070147 22.49832 0.36
  endloop
 endfacet
 facet normal 0.0 1.0 0.0
  outer loop
   vertex 32.9656631707021 22.49832 0
   vertex 32.9656631707021 22.49832 0.36
   vertex 33.03166117070147 22.49832 0.36
  endloop
 endfacet
 facet normal 1.0 0.0 0.0
  outer loop
   vertex 32.9656631707021 22.49832 0
   vertex 32.9656631707021 22.50168 0
   vertex 32.9656631707021 22.49832 0.36
  endloop
 endfacet
 facet normal 1.0 0.0 -0.0
  outer loop
   vertex 32.9656631707021 22.50168 0
   vertex 32.9656631707021 22.50168 0.36
   vertex 32.9656631707021 22.49832 0.36
  endloop
 endfacet
 facet normal 0.0 -1.0 0.0
  outer loop
   vertex 32.9656631707021 22.50168 0
   vertex 33.03166117070147 22.50168 0
   vertex 32.9656631707021 22.50168 0.36
  endloop
 endfacet
 facet normal 0.0 -1.0 0.0
  outer loop
   vertex 33.03166117070147 22.50168 0
   vertex 33.03166117070147 22.50168 0.36
   vertex 32.9656631707021 22.50168 0.36
  endloop
 endfacet
 facet normal -1.0 0.0 0.0
  outer loop
   vertex 33.03166117070147 22.50168 0
   vertex 33.03166117070147 22.49832 0
   vertex 33.03166117070147 22.50168 0.36
  endloop
 endfacet
 facet normal -1.0 0.0 0.0
  outer loop
   vertex 33.03166117070147 22.49832 0
   vertex 33.03166117070147 22.49832 0.36
   vertex 33.03166117070147 22.50168 0.36
  endloop
 endfacet
 facet normal 0.0 0.0 1.0
  outer loop
   vertex -0.000337828981146697 20.82 0.36
   vertex 65.99766217038471 20.82 0.36
   vertex 33.03166117070147 22.49832 0.36
  endloop
 endfacet
 facet normal -0.0 0.0 1.0
  outer loop
   vertex 32.9656631707021 22.49832 0.36
   vertex -0.000337828981146697 20.82 0.36
   vertex 33.03166117070147 22.49832 0.36
  endloop
 endfacet
 facet normal 0.0 0.0 1.0
  outer loop
   vertex -0.000337828981146697 24.18 0.36
   vertex -0.000337828981146697 20.82 0.36
   vertex 32.9656631707021 22.49832 0.36
  endloop
 endfacet
 facet normal 0.0 0.0 1.0
  outer loop
   vertex 32.9656631707021 22.50168 0.36
   vertex -0.000337828981146697 24.18 0.36
   vertex 32.9656631707021 22.49832 0.36
  endloop
 endfacet
 facet normal 0.0 0.0 1.0
  outer loop
   vertex 65.99766217038471 24.18 0.36
   vertex -0.000337828981146697 24.18 0.36
   vertex 32.9656631707021 22.50168 0.36
  endloop
 endfacet
 facet normal 0.0 -0.0 1.0
  outer loop
   vertex 33.03166117070147 22.50168 0.36
   vertex 65.99766217038471 24.18 0.36
   vertex 32.9656631707021 22.50168 0.36
  endloop
 endfacet
 facet normal 0.0 -0.0 1.0
  outer loop
   vertex 65.99766217038471 20.82 0.36
   vertex 65.99766217038471 24.18 0.36
   vertex 33.03166117070147 22.50168 0.36
  endloop
 endfacet
 facet normal -0.0 0.0 1.0
  outer loop
   vertex 33.03166117070147 22.49832 0.36
   vertex 65.99766217038471 20.82 0.36
   vertex 33.03166117070147 22.50168 0.36
  endloop
 endfacet
endsolid
