solid PyGamic generated __All_Units__ SLA File
 facet normal 0.0 0.0 -1.0
  outer loop
   vertex 0.0009203676207459473 12.4 0
   vertex 18.009164270260502 12.4 0
   vertex 5.608969856802644 0.001 0
  endloop
 endfacet
 facet normal 0.0 -0.0 -1.0
  outer loop
   vertex 0.0009203676207459473 12.4 0
   vertex 5.608969856802644 0.001 0
   vertex -0.008953290396258418 0.001 0
  endloop
 endfacet
 facet normal 0.0 0.03446227583977888 0.9994059993535875
  outer loop
   vertex 18.009164270260502 12.4 0
   vertex 0.0009203676207459473 12.4 0
   vertex -0.0013889805726013114 9.5 0.1
  endloop
 endfacet
 facet normal 0.0 0.03446227583977888 0.9994059993535875
  outer loop
   vertex 11.007468035290154 9.5 0.1
   vertex 18.009164270260502 12.4 0
   vertex -0.0013889805726013114 9.5 0.1
  endloop
 endfacet
 facet normal 0.024367335242984088 -0.024369682583345917 0.9994059993535875
  outer loop
   vertex 5.608969856802644 0.001 0
   vertex 18.009164270260502 12.4 0
   vertex 11.007468035290154 9.5 0.1
  endloop
 endfacet
 facet normal 0.02436733524298408 -0.02436968258334591 0.9994059993535874
  outer loop
   vertex 1.5075529829926955 0.001 0.1
   vertex 5.608969856802644 0.001 0
   vertex 11.007468035290154 9.5 0.1
  endloop
 endfacet
 facet normal 0.0 -1.0 0.0
  outer loop
   vertex -0.008953290396258418 0.001 0
   vertex 5.608969856802644 0.001 0
   vertex 1.5075529829926955 0.001 0.1
  endloop
 endfacet
 facet normal 0.0 -1.0 0.0
  outer loop
   vertex -0.008953290396258418 0.001 0.1
   vertex -0.008953290396258418 0.001 0
   vertex 1.5075529829926955 0.001 0.1
  endloop
 endfacet
 facet normal -0.9999996829318346 0.0007963267107332632 0.0
  outer loop
   vertex 0.0009203676207459473 12.4 0
   vertex -0.008953290396258418 0.001 0
   vertex -0.008953290396258418 0.001 0.1
  endloop
 endfacet
 facet normal -0.9999996829318346 0.0007963267107332633 0.0
  outer loop
   vertex -0.0013889805726013114 9.5 0.1
   vertex 0.0009203676207459473 12.4 0
   vertex -0.008953290396258418 0.001 0.1
  endloop
 endfacet
 facet normal -0.0 0.0 1.0
  outer loop
   vertex -0.0013889805726013114 9.5 0.1
   vertex 1.5075529829926955 0.001 0.1
   vertex 11.007468035290154 9.5 0.1
  endloop
 endfacet
 facet normal 0.0 0.0 1.0
  outer loop
   vertex -0.0013889805726013114 9.5 0.1
   vertex -0.008953290396258418 0.001 0.1
   vertex 1.5075529829926955 0.001 0.1
  endloop
 endfacet
 facet normal 0.0 0.0 -1.0
  outer loop
   vertex 18.009164270260502 12.6 0
   vertex 0.0009203676207459473 12.6 0
   vertex -0.00895329039625842 24.999000000000002 0
  endloop
 endfacet
 facet normal 0.0 0.0 -1.0
  outer loop
   vertex 18.009164270260502 12.6 0
   vertex -0.00895329039625842 24.999000000000002 0
   vertex 5.608969856802641 24.999000000000002 0
  endloop
 endfacet
 facet normal 0.0 -0.03446227583977888 0.9994059993535875
  outer loop
   vertex 0.0009203676207459473 12.6 0
   vertex 18.009164270260502 12.6 0
   vertex 11.00746803529015 15.5 0.1
  endloop
 endfacet
 facet normal 5.5607316273688316e-18 -0.0344622758397789 0.9994059993535875
  outer loop
   vertex -0.0013889805726013114 15.499999999999998 0.1
   vertex 0.0009203676207459473 12.6 0
   vertex 11.00746803529015 15.5 0.1
  endloop
 endfacet
 facet normal -0.9999996829318346 -0.0007963267107332632 -2.238532689347485e-17
  outer loop
   vertex -0.00895329039625842 24.999000000000002 0
   vertex 0.0009203676207459473 12.6 0
   vertex -0.0013889805726013114 15.499999999999998 0.1
  endloop
 endfacet
 facet normal -0.9999996829318346 -0.0007963267107332631 -0.0
  outer loop
   vertex -0.00895329039625842 24.999000000000002 0.1
   vertex -0.00895329039625842 24.999000000000002 0
   vertex -0.0013889805726013114 15.499999999999998 0.1
  endloop
 endfacet
 facet normal 0.0 1.0 0.0
  outer loop
   vertex 5.608969856802641 24.999000000000002 0
   vertex -0.00895329039625842 24.999000000000002 0
   vertex -0.00895329039625842 24.999000000000002 0.1
  endloop
 endfacet
 facet normal 0.0 1.0 0.0
  outer loop
   vertex 1.5075529829926897 24.999000000000002 0.1
   vertex 5.608969856802641 24.999000000000002 0
   vertex -0.00895329039625842 24.999000000000002 0.1
  endloop
 endfacet
 facet normal 0.024367335242984064 0.024369682583345893 0.9994059993535875
  outer loop
   vertex 18.009164270260502 12.6 0
   vertex 5.608969856802641 24.999000000000002 0
   vertex 1.5075529829926897 24.999000000000002 0.1
  endloop
 endfacet
 facet normal 0.024367335242984057 0.024369682583345886 0.9994059993535874
  outer loop
   vertex 11.00746803529015 15.5 0.1
   vertex 18.009164270260502 12.6 0
   vertex 1.5075529829926897 24.999000000000002 0.1
  endloop
 endfacet
 facet normal 0.0 0.0 1.0
  outer loop
   vertex 11.00746803529015 15.5 0.1
   vertex -0.00895329039625842 24.999000000000002 0.1
   vertex -0.0013889805726013114 15.499999999999998 0.1
  endloop
 endfacet
 facet normal 0.0 0.0 1.0
  outer loop
   vertex 11.00746803529015 15.5 0.1
   vertex 1.5075529829926897 24.999000000000002 0.1
   vertex -0.00895329039625842 24.999000000000002 0.1
  endloop
 endfacet
 facet normal 0.0 0.0 -1.0
  outer loop
   vertex 18.29202060638533 12.400000000000002 0
   vertex 29.70797939361467 12.400000000000002 0
   vertex 42.108173807072525 0.001 0
  endloop
 endfacet
 facet normal 0.0 -0.0 -1.0
  outer loop
   vertex 18.29202060638533 12.400000000000002 0
   vertex 42.108173807072525 0.001 0
   vertex 5.891826192927469 0.001 0
  endloop
 endfacet
 facet normal 0.0 0.03446227583977887 0.9994059993535874
  outer loop
   vertex 29.70797939361467 12.400000000000002 0
   vertex 18.29202060638533 12.400000000000002 0
   vertex 19.493158119034874 9.500000000000002 0.1
  endloop
 endfacet
 facet normal 0.0 0.03446227583977888 0.9994059993535875
  outer loop
   vertex 28.506841880965123 9.500000000000002 0.1
   vertex 29.70797939361467 12.400000000000002 0
   vertex 19.493158119034874 9.500000000000002 0.1
  endloop
 endfacet
 facet normal 0.0243673352429841 0.024369682583345913 0.9994059993535875
  outer loop
   vertex 42.108173807072525 0.001 0
   vertex 29.70797939361467 12.400000000000002 0
   vertex 28.506841880965123 9.500000000000002 0.1
  endloop
 endfacet
 facet normal 0.024367335242984095 0.024369682583345917 0.9994059993535874
  outer loop
   vertex 38.00675693326258 0.001 0.1
   vertex 42.108173807072525 0.001 0
   vertex 28.506841880965123 9.500000000000002 0.1
  endloop
 endfacet
 facet normal 0.0 -1.0 0.0
  outer loop
   vertex 5.891826192927469 0.001 0
   vertex 42.108173807072525 0.001 0
   vertex 38.00675693326258 0.001 0.1
  endloop
 endfacet
 facet normal 0.0 -1.0 -0.0
  outer loop
   vertex 9.993243066737415 0.001 0.1
   vertex 5.891826192927469 0.001 0
   vertex 38.00675693326258 0.001 0.1
  endloop
 endfacet
 facet normal -0.02436733524298409 0.02436968258334592 0.9994059993535875
  outer loop
   vertex 18.29202060638533 12.400000000000002 0
   vertex 5.891826192927469 0.001 0
   vertex 9.993243066737415 0.001 0.1
  endloop
 endfacet
 facet normal -0.02436733524298411 0.024369682583345934 0.9994059993535874
  outer loop
   vertex 19.493158119034874 9.500000000000002 0.1
   vertex 18.29202060638533 12.400000000000002 0
   vertex 9.993243066737415 0.001 0.1
  endloop
 endfacet
 facet normal -0.0 0.0 1.0
  outer loop
   vertex 19.493158119034874 9.500000000000002 0.1
   vertex 38.00675693326258 0.001 0.1
   vertex 28.506841880965123 9.500000000000002 0.1
  endloop
 endfacet
 facet normal 0.0 0.0 1.0
  outer loop
   vertex 19.493158119034874 9.500000000000002 0.1
   vertex 9.993243066737415 0.001 0.1
   vertex 38.00675693326258 0.001 0.1
  endloop
 endfacet
 facet normal 0.0 0.0 -1.0
  outer loop
   vertex 29.707979393614682 12.600000000000001 0
   vertex 18.29202060638532 12.600000000000001 0
   vertex 5.891826192927466 24.999 0
  endloop
 endfacet
 facet normal 0.0 0.0 -1.0
  outer loop
   vertex 29.707979393614682 12.600000000000001 0
   vertex 5.891826192927466 24.999 0
   vertex 42.108173807072525 24.999 0
  endloop
 endfacet
 facet normal 0.0 -0.03446227583977888 0.9994059993535874
  outer loop
   vertex 18.29202060638532 12.600000000000001 0
   vertex 29.707979393614682 12.600000000000001 0
   vertex 28.50684188096513 15.500000000000002 0.1
  endloop
 endfacet
 facet normal 0.0 -0.03446227583977888 0.9994059993535874
  outer loop
   vertex 19.493158119034874 15.500000000000002 0.1
   vertex 18.29202060638532 12.600000000000001 0
   vertex 28.50684188096513 15.500000000000002 0.1
  endloop
 endfacet
 facet normal -0.02436733524298406 -0.024369682583345896 0.9994059993535874
  outer loop
   vertex 5.891826192927466 24.999 0
   vertex 18.29202060638532 12.600000000000001 0
   vertex 19.493158119034874 15.500000000000002 0.1
  endloop
 endfacet
 facet normal -0.024367335242984064 -0.0243696825833459 0.9994059993535874
  outer loop
   vertex 9.993243066737417 24.999 0.1
   vertex 5.891826192927466 24.999 0
   vertex 19.493158119034874 15.500000000000002 0.1
  endloop
 endfacet
 facet normal 0.0 1.0 0.0
  outer loop
   vertex 42.108173807072525 24.999 0
   vertex 5.891826192927466 24.999 0
   vertex 9.993243066737417 24.999 0.1
  endloop
 endfacet
 facet normal 0.0 1.0 0.0
  outer loop
   vertex 38.00675693326258 24.999 0.1
   vertex 42.108173807072525 24.999 0
   vertex 9.993243066737417 24.999 0.1
  endloop
 endfacet
 facet normal 0.024367335242984095 -0.024369682583345903 0.9994059993535874
  outer loop
   vertex 29.707979393614682 12.600000000000001 0
   vertex 42.108173807072525 24.999 0
   vertex 38.00675693326258 24.999 0.1
  endloop
 endfacet
 facet normal 0.024367335242984074 -0.02436968258334589 0.9994059993535874
  outer loop
   vertex 28.50684188096513 15.500000000000002 0.1
   vertex 29.707979393614682 12.600000000000001 0
   vertex 38.00675693326258 24.999 0.1
  endloop
 endfacet
 facet normal 0.0 0.0 1.0
  outer loop
   vertex 28.50684188096513 15.500000000000002 0.1
   vertex 9.993243066737417 24.999 0.1
   vertex 19.493158119034874 15.500000000000002 0.1
  endloop
 endfacet
 facet normal 0.0 -0.0 1.0
  outer loop
   vertex 28.50684188096513 15.500000000000002 0.1
   vertex 38.00675693326258 24.999 0.1
   vertex 9.993243066737417 24.999 0.1
  endloop
 endfacet
 facet normal 0.0 0.0 -1.0
  outer loop
   vertex 29.9908357297395 12.4 0
   vertex 47.899407589745614 12.4 0
   vertex 47.900601945679234 0.001 0
  endloop
 endfacet
 facet normal 0.0 0.0 -1.0
  outer loop
   vertex 29.9908357297395 12.4 0
   vertex 47.900601945679234 0.001 0
   vertex 42.391030143197355 0.001 0
  endloop
 endfacet
 facet normal 0.0 0.03446227583977888 0.9994059993535874
  outer loop
   vertex 47.899407589745614 12.4 0
   vertex 29.9908357297395 12.4 0
   vertex 36.99253196470985 9.5 0.1
  endloop
 endfacet
 facet normal 0.0 0.03446227583977888 0.9994059993535875
  outer loop
   vertex 44.999686923997345 9.5 0.1
   vertex 47.899407589745614 12.4 0
   vertex 36.99253196470985 9.5 0.1
  endloop
 endfacet
 facet normal 0.034462275679893725 3.3196405713637124e-06 0.9994059993535875
  outer loop
   vertex 47.900601945679234 0.001 0
   vertex 47.899407589745614 12.4 0
   vertex 44.999686923997345 9.5 0.1
  endloop
 endfacet
 facet normal 0.03446227567989373 3.319640571367373e-06 0.9994059993535875
  outer loop
   vertex 45.000458227569624 1.4928450778610933 0.1
   vertex 47.900601945679234 0.001 0
   vertex 44.999686923997345 9.5 0.1
  endloop
 endfacet
 facet normal 0.0 -0.06688100351964137 0.9977609590318743
  outer loop
   vertex 42.391030143197355 0.001 0
   vertex 47.900601945679234 0.001 0
   vertex 45.000458227569624 1.4928450778610933 0.1
  endloop
 endfacet
 facet normal -0.024367335242984112 -0.024369682583345934 0.9994059993535875
  outer loop
   vertex 29.9908357297395 12.4 0
   vertex 42.391030143197355 0.001 0
   vertex 45.000458227569624 1.4928450778610933 0.1
  endloop
 endfacet
 facet normal -0.024367335242984078 -0.024369682583345886 0.9994059993535876
  outer loop
   vertex 36.99253196470985 9.5 0.1
   vertex 29.9908357297395 12.4 0
   vertex 45.000458227569624 1.4928450778610933 0.1
  endloop
 endfacet
 facet normal -0.0 0.0 1.0
  outer loop
   vertex 36.99253196470985 9.5 0.1
   vertex 45.000458227569624 1.4928450778610933 0.1
   vertex 44.999686923997345 9.5 0.1
  endloop
 endfacet
 facet normal 0.0 0.0 -1.0
  outer loop
   vertex 47.899407589745614 12.6 0
   vertex 29.9908357297395 12.6 0
   vertex 42.39103014319736 24.99900000000001 0
  endloop
 endfacet
 facet normal 0.0 0.0 -1.0
  outer loop
   vertex 47.899407589745614 12.6 0
   vertex 42.39103014319736 24.99900000000001 0
   vertex 47.900601945679234 24.99900000000001 0
  endloop
 endfacet
 facet normal 0.0 -0.03446227583977888 0.9994059993535874
  outer loop
   vertex 29.9908357297395 12.6 0
   vertex 47.899407589745614 12.6 0
   vertex 44.999686923997345 15.5 0.1
  endloop
 endfacet
 facet normal 0.0 -0.03446227583977888 0.9994059993535875
  outer loop
   vertex 36.99253196470985 15.5 0.1
   vertex 29.9908357297395 12.6 0
   vertex 44.999686923997345 15.5 0.1
  endloop
 endfacet
 facet normal -0.02436733524298408 0.024369682583345896 0.9994059993535874
  outer loop
   vertex 42.39103014319736 24.99900000000001 0
   vertex 29.9908357297395 12.6 0
   vertex 36.99253196470985 15.5 0.1
  endloop
 endfacet
 facet normal -0.024367335242984022 0.02436968258334587 0.9994059993535876
  outer loop
   vertex 45.000458227569624 23.507154922138895 0.1
   vertex 42.39103014319736 24.99900000000001 0
   vertex 36.99253196470985 15.5 0.1
  endloop
 endfacet
 facet normal 0.0 0.06688100351964042 0.9977609590318743
  outer loop
   vertex 47.900601945679234 24.99900000000001 0
   vertex 42.39103014319736 24.99900000000001 0
   vertex 45.000458227569624 23.507154922138895 0.1
  endloop
 endfacet
 facet normal 0.034462275679893725 -3.3196405713637103e-06 0.9994059993535875
  outer loop
   vertex 47.899407589745614 12.6 0
   vertex 47.900601945679234 24.99900000000001 0
   vertex 45.000458227569624 23.507154922138895 0.1
  endloop
 endfacet
 facet normal 0.03446227567989371 -3.3196405713673767e-06 0.9994059993535875
  outer loop
   vertex 44.999686923997345 15.5 0.1
   vertex 47.899407589745614 12.6 0
   vertex 45.000458227569624 23.507154922138895 0.1
  endloop
 endfacet
 facet normal 0.0 -0.0 1.0
  outer loop
   vertex 44.999686923997345 15.5 0.1
   vertex 45.000458227569624 23.507154922138895 0.1
   vertex 36.99253196470985 15.5 0.1
  endloop
 endfacet
 facet normal 0.0 0.0 -1.0
  outer loop
   vertex 48.0994075906735 12.400000000000002 0
   vertex 53.70797939361467 12.400000000000002 0
   vertex 66.10817380707253 0.001 0
  endloop
 endfacet
 facet normal 0.0 0.0 -1.0
  outer loop
   vertex 48.0994075906735 12.400000000000002 0
   vertex 66.10817380707253 0.001 0
   vertex 48.10060194660712 0.001 0
  endloop
 endfacet
 facet normal 0.0 0.03446227583977888 0.9994059993535876
  outer loop
   vertex 53.70797939361467 12.400000000000002 0
   vertex 48.0994075906735 12.400000000000002 0
   vertex 50.9996869518339 9.500000000000002 0.1
  endloop
 endfacet
 facet normal 0.0 0.03446227583977887 0.9994059993535875
  outer loop
   vertex 52.50684188096512 9.500000000000002 0.1
   vertex 53.70797939361467 12.400000000000002 0
   vertex 50.9996869518339 9.500000000000002 0.1
  endloop
 endfacet
 facet normal 0.024367335242984064 0.024369682583345893 0.9994059993535875
  outer loop
   vertex 66.10817380707253 0.001 0
   vertex 53.70797939361467 12.400000000000002 0
   vertex 52.50684188096512 9.500000000000002 0.1
  endloop
 endfacet
 facet normal 0.024367335242984057 0.024369682583345886 0.9994059993535874
  outer loop
   vertex 62.00675693326258 0.001 0.1
   vertex 66.10817380707253 0.001 0
   vertex 52.50684188096512 9.500000000000002 0.1
  endloop
 endfacet
 facet normal 0.0 -1.0 0.0
  outer loop
   vertex 48.10060194660712 0.001 0
   vertex 66.10817380707253 0.001 0
   vertex 62.00675693326258 0.001 0.1
  endloop
 endfacet
 facet normal 0.0 -1.0 -0.0
  outer loop
   vertex 51.00060196006145 0.001 0.1
   vertex 48.10060194660712 0.001 0
   vertex 62.00675693326258 0.001 0.1
  endloop
 endfacet
 facet normal -0.03446227567989375 -3.319640571363715e-06 0.9994059993535875
  outer loop
   vertex 48.0994075906735 12.400000000000002 0
   vertex 48.10060194660712 0.001 0
   vertex 51.00060196006145 0.001 0.1
  endloop
 endfacet
 facet normal -0.034462275679893684 -3.3196405713481774e-06 0.9994059993535874
  outer loop
   vertex 50.9996869518339 9.500000000000002 0.1
   vertex 48.0994075906735 12.400000000000002 0
   vertex 51.00060196006145 0.001 0.1
  endloop
 endfacet
 facet normal -0.0 0.0 1.0
  outer loop
   vertex 50.9996869518339 9.500000000000002 0.1
   vertex 62.00675693326258 0.001 0.1
   vertex 52.50684188096512 9.500000000000002 0.1
  endloop
 endfacet
 facet normal 0.0 0.0 1.0
  outer loop
   vertex 50.9996869518339 9.500000000000002 0.1
   vertex 51.00060196006145 0.001 0.1
   vertex 62.00675693326258 0.001 0.1
  endloop
 endfacet
 facet normal 0.0 0.0 -1.0
  outer loop
   vertex 53.70797939361468 12.600000000000001 0
   vertex 48.0994075906735 12.600000000000001 0
   vertex 48.10060194660712 24.998999999999995 0
  endloop
 endfacet
 facet normal 0.0 0.0 -1.0
  outer loop
   vertex 53.70797939361468 12.600000000000001 0
   vertex 48.10060194660712 24.998999999999995 0
   vertex 66.10817380707253 24.998999999999995 0
  endloop
 endfacet
 facet normal 0.0 -0.03446227583977888 0.9994059993535876
  outer loop
   vertex 48.0994075906735 12.600000000000001 0
   vertex 53.70797939361468 12.600000000000001 0
   vertex 52.506841880965126 15.500000000000002 0.1
  endloop
 endfacet
 facet normal 4.061778799647163e-17 -0.03446227583977894 0.9994059993535875
  outer loop
   vertex 50.9996869518339 15.5 0.1
   vertex 48.0994075906735 12.600000000000001 0
   vertex 52.506841880965126 15.500000000000002 0.1
  endloop
 endfacet
 facet normal -0.034462275679893704 3.3196405713637124e-06 0.9994059993535875
  outer loop
   vertex 48.10060194660712 24.998999999999995 0
   vertex 48.0994075906735 12.600000000000001 0
   vertex 50.9996869518339 15.5 0.1
  endloop
 endfacet
 facet normal -0.034462275679893746 3.3196405713481867e-06 0.9994059993535874
  outer loop
   vertex 51.00060196006145 24.998999999999995 0.1
   vertex 48.10060194660712 24.998999999999995 0
   vertex 50.9996869518339 15.5 0.1
  endloop
 endfacet
 facet normal 0.0 1.0 0.0
  outer loop
   vertex 66.10817380707253 24.998999999999995 0
   vertex 48.10060194660712 24.998999999999995 0
   vertex 51.00060196006145 24.998999999999995 0.1
  endloop
 endfacet
 facet normal 0.0 1.0 0.0
  outer loop
   vertex 62.00675693326258 24.998999999999995 0.1
   vertex 66.10817380707253 24.998999999999995 0
   vertex 51.00060196006145 24.998999999999995 0.1
  endloop
 endfacet
 facet normal 0.024367335242984057 -0.02436968258334589 0.9994059993535874
  outer loop
   vertex 53.70797939361468 12.600000000000001 0
   vertex 66.10817380707253 24.998999999999995 0
   vertex 62.00675693326258 24.998999999999995 0.1
  endloop
 endfacet
 facet normal 0.02436733524298406 -0.024369682583345896 0.9994059993535874
  outer loop
   vertex 52.506841880965126 15.500000000000002 0.1
   vertex 53.70797939361468 12.600000000000001 0
   vertex 62.00675693326258 24.998999999999995 0.1
  endloop
 endfacet
 facet normal 0.0 0.0 1.0
  outer loop
   vertex 52.506841880965126 15.500000000000002 0.1
   vertex 51.00060196006145 24.998999999999995 0.1
   vertex 50.9996869518339 15.5 0.1
  endloop
 endfacet
 facet normal 0.0 -0.0 1.0
  outer loop
   vertex 52.506841880965126 15.500000000000002 0.1
   vertex 62.00675693326258 24.998999999999995 0.1
   vertex 51.00060196006145 24.998999999999995 0.1
  endloop
 endfacet
 facet normal 0.0 0.0 -1.0
  outer loop
   vertex 53.99083572973949 12.400000000000002 0
   vertex 90.00916427026051 12.400000000000002 0
   vertex 77.60896985680266 0.001 0
  endloop
 endfacet
 facet normal 0.0 0.0 -1.0
  outer loop
   vertex 53.99083572973949 12.400000000000002 0
   vertex 77.60896985680266 0.001 0
   vertex 66.39103014319734 0.001 0
  endloop
 endfacet
 facet normal 0.0 0.03446227583977888 0.9994059993535875
  outer loop
   vertex 90.00916427026051 12.400000000000002 0
   vertex 53.99083572973949 12.400000000000002 0
   vertex 60.99253196470984 9.500000000000002 0.1
  endloop
 endfacet
 facet normal 0.0 0.03446227583977888 0.9994059993535875
  outer loop
   vertex 83.00746803529015 9.500000000000002 0.1
   vertex 90.00916427026051 12.400000000000002 0
   vertex 60.99253196470984 9.500000000000002 0.1
  endloop
 endfacet
 facet normal 0.02436733524298396 -0.024369682583345775 0.9994059993535874
  outer loop
   vertex 77.60896985680266 0.001 0
   vertex 90.00916427026051 12.400000000000002 0
   vertex 83.00746803529015 9.500000000000002 0.1
  endloop
 endfacet
 facet normal 0.024367335242984057 -0.02436968258334583 0.9994059993535874
  outer loop
   vertex 73.5075529829927 0.001 0.1
   vertex 77.60896985680266 0.001 0
   vertex 83.00746803529015 9.500000000000002 0.1
  endloop
 endfacet
 facet normal 0.0 -1.0 0.0
  outer loop
   vertex 66.39103014319734 0.001 0
   vertex 77.60896985680266 0.001 0
   vertex 73.5075529829927 0.001 0.1
  endloop
 endfacet
 facet normal 0.0 -1.0 -0.0
  outer loop
   vertex 70.4924470170073 0.001 0.1
   vertex 66.39103014319734 0.001 0
   vertex 73.5075529829927 0.001 0.1
  endloop
 endfacet
 facet normal -0.024367335242984064 -0.024369682583345882 0.9994059993535875
  outer loop
   vertex 53.99083572973949 12.400000000000002 0
   vertex 66.39103014319734 0.001 0
   vertex 70.4924470170073 0.001 0.1
  endloop
 endfacet
 facet normal -0.02436733524298403 -0.02436968258334584 0.9994059993535874
  outer loop
   vertex 60.99253196470984 9.500000000000002 0.1
   vertex 53.99083572973949 12.400000000000002 0
   vertex 70.4924470170073 0.001 0.1
  endloop
 endfacet
 facet normal -0.0 0.0 1.0
  outer loop
   vertex 60.99253196470984 9.500000000000002 0.1
   vertex 73.5075529829927 0.001 0.1
   vertex 83.00746803529015 9.500000000000002 0.1
  endloop
 endfacet
 facet normal 0.0 0.0 1.0
  outer loop
   vertex 60.99253196470984 9.500000000000002 0.1
   vertex 70.4924470170073 0.001 0.1
   vertex 73.5075529829927 0.001 0.1
  endloop
 endfacet
 facet normal 0.0 0.0 -1.0
  outer loop
   vertex 90.00916427026053 12.600000000000001 0
   vertex 53.99083572973951 12.600000000000001 0
   vertex 66.39103014319736 24.999000000000002 0
  endloop
 endfacet
 facet normal 0.0 0.0 -1.0
  outer loop
   vertex 90.00916427026053 12.600000000000001 0
   vertex 66.39103014319736 24.999000000000002 0
   vertex 77.60896985680267 24.999000000000002 0
  endloop
 endfacet
 facet normal 0.0 -0.03446227583977888 0.9994059993535876
  outer loop
   vertex 53.99083572973951 12.600000000000001 0
   vertex 90.00916427026053 12.600000000000001 0
   vertex 83.00746803529017 15.500000000000002 0.1
  endloop
 endfacet
 facet normal 0.0 -0.03446227583977888 0.9994059993535875
  outer loop
   vertex 60.99253196470985 15.500000000000002 0.1
   vertex 53.99083572973951 12.600000000000001 0
   vertex 83.00746803529017 15.500000000000002 0.1
  endloop
 endfacet
 facet normal -0.02436733524298412 0.024369682583345927 0.9994059993535875
  outer loop
   vertex 66.39103014319736 24.999000000000002 0
   vertex 53.99083572973951 12.600000000000001 0
   vertex 60.99253196470985 15.500000000000002 0.1
  endloop
 endfacet
 facet normal -0.024367335242984053 0.02436968258334589 0.9994059993535874
  outer loop
   vertex 70.49244701700731 24.999000000000002 0.1
   vertex 66.39103014319736 24.999000000000002 0
   vertex 60.99253196470985 15.500000000000002 0.1
  endloop
 endfacet
 facet normal 0.0 1.0 0.0
  outer loop
   vertex 77.60896985680267 24.999000000000002 0
   vertex 66.39103014319736 24.999000000000002 0
   vertex 70.49244701700731 24.999000000000002 0.1
  endloop
 endfacet
 facet normal 0.0 1.0 0.0
  outer loop
   vertex 73.50755298299273 24.999000000000002 0.1
   vertex 77.60896985680267 24.999000000000002 0
   vertex 70.49244701700731 24.999000000000002 0.1
  endloop
 endfacet
 facet normal 0.024367335242984137 0.02436968258334596 0.9994059993535874
  outer loop
   vertex 90.00916427026053 12.600000000000001 0
   vertex 77.60896985680267 24.999000000000002 0
   vertex 73.50755298299273 24.999000000000002 0.1
  endloop
 endfacet
 facet normal 0.024367335242984012 0.024369682583345792 0.9994059993535874
  outer loop
   vertex 83.00746803529017 15.500000000000002 0.1
   vertex 90.00916427026053 12.600000000000001 0
   vertex 73.50755298299273 24.999000000000002 0.1
  endloop
 endfacet
 facet normal 0.0 0.0 1.0
  outer loop
   vertex 83.00746803529017 15.500000000000002 0.1
   vertex 70.49244701700731 24.999000000000002 0.1
   vertex 60.99253196470985 15.500000000000002 0.1
  endloop
 endfacet
 facet normal 0.0 0.0 1.0
  outer loop
   vertex 83.00746803529017 15.500000000000002 0.1
   vertex 73.50755298299273 24.999000000000002 0.1
   vertex 70.49244701700731 24.999000000000002 0.1
  endloop
 endfacet
 facet normal 0.0 0.0 -1.0
  outer loop
   vertex 90.2920206063853 12.399999999999983 0
   vertex 95.9005924093265 12.399999999999983 0
   vertex 95.89939805339289 0.001 0
  endloop
 endfacet
 facet normal 0.0 -0.0 -1.0
  outer loop
   vertex 90.2920206063853 12.399999999999983 0
   vertex 95.89939805339289 0.001 0
   vertex 77.89182619292747 0.001 0
  endloop
 endfacet
 facet normal 0.0 0.03446227583977888 0.9994059993535876
  outer loop
   vertex 95.9005924093265 12.399999999999983 0
   vertex 90.2920206063853 12.399999999999983 0
   vertex 91.49315811903486 9.499999999999982 0.1
  endloop
 endfacet
 facet normal 0.0 0.03446227583977888 0.9994059993535875
  outer loop
   vertex 93.00031304816609 9.499999999999982 0.1
   vertex 95.9005924093265 12.399999999999983 0
   vertex 91.49315811903486 9.499999999999982 0.1
  endloop
 endfacet
 facet normal 0.03446227567989353 -3.3196405713636984e-06 0.9994059993535875
  outer loop
   vertex 95.89939805339289 0.001 0
   vertex 95.9005924093265 12.399999999999983 0
   vertex 93.00031304816609 9.499999999999982 0.1
  endloop
 endfacet
 facet normal 0.03446227567989358 -3.3196405713481744e-06 0.9994059993535874
  outer loop
   vertex 92.99939803993854 0.001 0.1
   vertex 95.89939805339289 0.001 0
   vertex 93.00031304816609 9.499999999999982 0.1
  endloop
 endfacet
 facet normal 0.0 -1.0 0.0
  outer loop
   vertex 77.89182619292747 0.001 0
   vertex 95.89939805339289 0.001 0
   vertex 92.99939803993854 0.001 0.1
  endloop
 endfacet
 facet normal 0.0 -1.0 -0.0
  outer loop
   vertex 81.99324306673742 0.001 0.1
   vertex 77.89182619292747 0.001 0
   vertex 92.99939803993854 0.001 0.1
  endloop
 endfacet
 facet normal -0.024367335242984057 0.024369682583345858 0.9994059993535875
  outer loop
   vertex 90.2920206063853 12.399999999999983 0
   vertex 77.89182619292747 0.001 0
   vertex 81.99324306673742 0.001 0.1
  endloop
 endfacet
 facet normal -0.024367335242983977 0.024369682583345806 0.9994059993535874
  outer loop
   vertex 91.49315811903486 9.499999999999982 0.1
   vertex 90.2920206063853 12.399999999999983 0
   vertex 81.99324306673742 0.001 0.1
  endloop
 endfacet
 facet normal -0.0 0.0 1.0
  outer loop
   vertex 91.49315811903486 9.499999999999982 0.1
   vertex 92.99939803993854 0.001 0.1
   vertex 93.00031304816609 9.499999999999982 0.1
  endloop
 endfacet
 facet normal 0.0 0.0 1.0
  outer loop
   vertex 91.49315811903486 9.499999999999982 0.1
   vertex 81.99324306673742 0.001 0.1
   vertex 92.99939803993854 0.001 0.1
  endloop
 endfacet
 facet normal 0.0 0.0 -1.0
  outer loop
   vertex 95.9005924093265 12.599999999999982 0
   vertex 90.29202060638536 12.599999999999982 0
   vertex 77.8918261929275 24.999 0
  endloop
 endfacet
 facet normal 0.0 0.0 -1.0
  outer loop
   vertex 95.9005924093265 12.599999999999982 0
   vertex 77.8918261929275 24.999 0
   vertex 95.89939805339289 24.999 0
  endloop
 endfacet
 facet normal 0.0 -0.03446227583977888 0.9994059993535876
  outer loop
   vertex 90.29202060638536 12.599999999999982 0
   vertex 95.9005924093265 12.599999999999982 0
   vertex 93.00031304816609 15.499999999999982 0.1
  endloop
 endfacet
 facet normal 0.0 -0.03446227583977888 0.9994059993535875
  outer loop
   vertex 91.49315811903492 15.499999999999982 0.1
   vertex 90.29202060638536 12.599999999999982 0
   vertex 93.00031304816609 15.499999999999982 0.1
  endloop
 endfacet
 facet normal -0.02436733524298407 -0.024369682583345886 0.9994059993535875
  outer loop
   vertex 77.8918261929275 24.999 0
   vertex 90.29202060638536 12.599999999999982 0
   vertex 91.49315811903492 15.499999999999982 0.1
  endloop
 endfacet
 facet normal -0.024367335242984057 -0.02436968258334587 0.9994059993535874
  outer loop
   vertex 81.99324306673745 24.999 0.1
   vertex 77.8918261929275 24.999 0
   vertex 91.49315811903492 15.499999999999982 0.1
  endloop
 endfacet
 facet normal 0.0 1.0 0.0
  outer loop
   vertex 95.89939805339289 24.999 0
   vertex 77.8918261929275 24.999 0
   vertex 81.99324306673745 24.999 0.1
  endloop
 endfacet
 facet normal 0.0 1.0 0.0
  outer loop
   vertex 92.99939803993854 24.999 0.1
   vertex 95.89939805339289 24.999 0
   vertex 81.99324306673745 24.999 0.1
  endloop
 endfacet
 facet normal 0.034462275679893586 3.3196405713636955e-06 0.9994059993535875
  outer loop
   vertex 95.9005924093265 12.599999999999982 0
   vertex 95.89939805339289 24.999 0
   vertex 92.99939803993854 24.999 0.1
  endloop
 endfacet
 facet normal 0.034462275679893524 3.319640571348157e-06 0.9994059993535875
  outer loop
   vertex 93.00031304816609 15.499999999999982 0.1
   vertex 95.9005924093265 12.599999999999982 0
   vertex 92.99939803993854 24.999 0.1
  endloop
 endfacet
 facet normal 0.0 0.0 1.0
  outer loop
   vertex 93.00031304816609 15.499999999999982 0.1
   vertex 81.99324306673745 24.999 0.1
   vertex 91.49315811903492 15.499999999999982 0.1
  endloop
 endfacet
 facet normal 0.0 0.0 1.0
  outer loop
   vertex 93.00031304816609 15.499999999999982 0.1
   vertex 92.99939803993854 24.999 0.1
   vertex 81.99324306673745 24.999 0.1
  endloop
 endfacet
 facet normal 0.0 0.0 -1.0
  outer loop
   vertex 96.10059241025438 12.400000000000006 0
   vertex 114.00916427026051 12.400000000000006 0
   vertex 101.60896985680266 0.001 0
  endloop
 endfacet
 facet normal 0.0 -0.0 -1.0
  outer loop
   vertex 96.10059241025438 12.400000000000006 0
   vertex 101.60896985680266 0.001 0
   vertex 96.09939805432077 0.001 0
  endloop
 endfacet
 facet normal 0.0 0.03446227583977888 0.9994059993535874
  outer loop
   vertex 114.00916427026051 12.400000000000006 0
   vertex 96.10059241025438 12.400000000000006 0
   vertex 99.00031307600266 9.500000000000005 0.1
  endloop
 endfacet
 facet normal 0.0 0.03446227583977888 0.9994059993535875
  outer loop
   vertex 107.00746803529015 9.500000000000005 0.1
   vertex 114.00916427026051 12.400000000000006 0
   vertex 99.00031307600266 9.500000000000005 0.1
  endloop
 endfacet
 facet normal 0.024367335242983953 -0.024369682583345764 0.9994059993535875
  outer loop
   vertex 101.60896985680266 0.001 0
   vertex 114.00916427026051 12.400000000000006 0
   vertex 107.00746803529015 9.500000000000005 0.1
  endloop
 endfacet
 facet normal 0.02436733524298404 -0.024369682583345813 0.9994059993535876
  outer loop
   vertex 98.99954177243039 1.4928450778611089 0.1
   vertex 101.60896985680266 0.001 0
   vertex 107.00746803529015 9.500000000000005 0.1
  endloop
 endfacet
 facet normal 0.0 -0.06688100351964067 0.9977609590318743
  outer loop
   vertex 96.09939805432077 0.001 0
   vertex 101.60896985680266 0.001 0
   vertex 98.99954177243039 1.4928450778611089 0.1
  endloop
 endfacet
 facet normal -0.03446227567989363 3.319640571324204e-06 0.9994059993535875
  outer loop
   vertex 96.10059241025438 12.400000000000006 0
   vertex 96.09939805432077 0.001 0
   vertex 98.99954177243039 1.4928450778611089 0.1
  endloop
 endfacet
 facet normal -0.03446227567989369 3.3196405713062103e-06 0.9994059993535874
  outer loop
   vertex 99.00031307600266 9.500000000000005 0.1
   vertex 96.10059241025438 12.400000000000006 0
   vertex 98.99954177243039 1.4928450778611089 0.1
  endloop
 endfacet
 facet normal -0.0 0.0 1.0
  outer loop
   vertex 99.00031307600266 9.500000000000005 0.1
   vertex 98.99954177243039 1.4928450778611089 0.1
   vertex 107.00746803529015 9.500000000000005 0.1
  endloop
 endfacet
 facet normal 0.0 0.0 -1.0
  outer loop
   vertex 114.00916427026053 12.600000000000005 0
   vertex 96.10059241025438 12.600000000000005 0
   vertex 96.09939805432077 24.998999999999963 0
  endloop
 endfacet
 facet normal 0.0 0.0 -1.0
  outer loop
   vertex 114.00916427026053 12.600000000000005 0
   vertex 96.09939805432077 24.998999999999963 0
   vertex 101.60896985680272 24.998999999999963 0
  endloop
 endfacet
 facet normal 0.0 -0.03446227583977887 0.9994059993535874
  outer loop
   vertex 96.10059241025438 12.600000000000005 0
   vertex 114.00916427026053 12.600000000000005 0
   vertex 107.00746803529017 15.500000000000005 0.1
  endloop
 endfacet
 facet normal 0.0 -0.03446227583977888 0.9994059993535875
  outer loop
   vertex 99.00031307600266 15.500000000000005 0.1
   vertex 96.10059241025438 12.600000000000005 0
   vertex 107.00746803529017 15.500000000000005 0.1
  endloop
 endfacet
 facet normal -0.03446227567989368 -3.3196405713242216e-06 0.9994059993535875
  outer loop
   vertex 96.09939805432077 24.998999999999963 0
   vertex 96.10059241025438 12.600000000000005 0
   vertex 99.00031307600266 15.500000000000005 0.1
  endloop
 endfacet
 facet normal -0.03446227567989341 -3.319640571245028e-06 0.9994059993535875
  outer loop
   vertex 98.9995417724304 23.507154922138888 0.1
   vertex 96.09939805432077 24.998999999999963 0
   vertex 99.00031307600266 15.500000000000005 0.1
  endloop
 endfacet
 facet normal 0.0 0.06688100351964218 0.9977609590318743
  outer loop
   vertex 101.60896985680272 24.998999999999963 0
   vertex 96.09939805432077 24.998999999999963 0
   vertex 98.9995417724304 23.507154922138888 0.1
  endloop
 endfacet
 facet normal 0.024367335242983977 0.0243696825833458 0.9994059993535875
  outer loop
   vertex 114.00916427026053 12.600000000000005 0
   vertex 101.60896985680272 24.998999999999963 0
   vertex 98.9995417724304 23.507154922138888 0.1
  endloop
 endfacet
 facet normal 0.02436733524298407 0.02436968258334593 0.9994059993535876
  outer loop
   vertex 107.00746803529017 15.500000000000005 0.1
   vertex 114.00916427026053 12.600000000000005 0
   vertex 98.9995417724304 23.507154922138888 0.1
  endloop
 endfacet
 facet normal 0.0 0.0 1.0
  outer loop
   vertex 107.00746803529017 15.500000000000005 0.1
   vertex 98.9995417724304 23.507154922138888 0.1
   vertex 99.00031307600266 15.500000000000005 0.1
  endloop
 endfacet
 facet normal 0.0 0.0 -1.0
  outer loop
   vertex 114.2920206063853 12.399999999999983 0
   vertex 125.7079793936147 12.399999999999983 0
   vertex 138.10817380707255 0.001 0
  endloop
 endfacet
 facet normal 0.0 -0.0 -1.0
  outer loop
   vertex 114.2920206063853 12.399999999999983 0
   vertex 138.10817380707255 0.001 0
   vertex 101.89182619292747 0.001 0
  endloop
 endfacet
 facet normal 0.0 0.03446227583977887 0.9994059993535874
  outer loop
   vertex 125.7079793936147 12.399999999999983 0
   vertex 114.2920206063853 12.399999999999983 0
   vertex 115.49315811903486 9.499999999999982 0.1
  endloop
 endfacet
 facet normal 0.0 0.03446227583977887 0.9994059993535874
  outer loop
   vertex 124.50684188096517 9.499999999999982 0.1
   vertex 125.7079793936147 12.399999999999983 0
   vertex 115.49315811903486 9.499999999999982 0.1
  endloop
 endfacet
 facet normal 0.02436733524298415 0.02436968258334598 0.9994059993535874
  outer loop
   vertex 138.10817380707255 0.001 0
   vertex 125.7079793936147 12.399999999999983 0
   vertex 124.50684188096517 9.499999999999982 0.1
  endloop
 endfacet
 facet normal 0.024367335242984137 0.024369682583345965 0.9994059993535874
  outer loop
   vertex 134.0067569332626 0.001 0.1
   vertex 138.10817380707255 0.001 0
   vertex 124.50684188096517 9.499999999999982 0.1
  endloop
 endfacet
 facet normal 0.0 -1.0 0.0
  outer loop
   vertex 101.89182619292747 0.001 0
   vertex 138.10817380707255 0.001 0
   vertex 134.0067569332626 0.001 0.1
  endloop
 endfacet
 facet normal 0.0 -1.0 -0.0
  outer loop
   vertex 105.99324306673742 0.001 0.1
   vertex 101.89182619292747 0.001 0
   vertex 134.0067569332626 0.001 0.1
  endloop
 endfacet
 facet normal -0.024367335242984057 0.024369682583345858 0.9994059993535875
  outer loop
   vertex 114.2920206063853 12.399999999999983 0
   vertex 101.89182619292747 0.001 0
   vertex 105.99324306673742 0.001 0.1
  endloop
 endfacet
 facet normal -0.024367335242983977 0.024369682583345806 0.9994059993535874
  outer loop
   vertex 115.49315811903486 9.499999999999982 0.1
   vertex 114.2920206063853 12.399999999999983 0
   vertex 105.99324306673742 0.001 0.1
  endloop
 endfacet
 facet normal -0.0 0.0 1.0
  outer loop
   vertex 115.49315811903486 9.499999999999982 0.1
   vertex 134.0067569332626 0.001 0.1
   vertex 124.50684188096517 9.499999999999982 0.1
  endloop
 endfacet
 facet normal 0.0 0.0 1.0
  outer loop
   vertex 115.49315811903486 9.499999999999982 0.1
   vertex 105.99324306673742 0.001 0.1
   vertex 134.0067569332626 0.001 0.1
  endloop
 endfacet
 facet normal 0.0 0.0 -1.0
  outer loop
   vertex 125.70797939361462 12.599999999999982 0
   vertex 114.29202060638536 12.599999999999982 0
   vertex 101.89182619292748 24.99900000000001 0
  endloop
 endfacet
 facet normal 0.0 0.0 -1.0
  outer loop
   vertex 125.70797939361462 12.599999999999982 0
   vertex 101.89182619292748 24.99900000000001 0
   vertex 138.10817380707252 24.99900000000001 0
  endloop
 endfacet
 facet normal 0.0 -0.03446227583977888 0.9994059993535874
  outer loop
   vertex 114.29202060638536 12.599999999999982 0
   vertex 125.70797939361462 12.599999999999982 0
   vertex 124.50684188096508 15.499999999999982 0.1
  endloop
 endfacet
 facet normal 0.0 -0.03446227583977888 0.9994059993535875
  outer loop
   vertex 115.49315811903492 15.499999999999982 0.1
   vertex 114.29202060638536 12.599999999999982 0
   vertex 124.50684188096508 15.499999999999982 0.1
  endloop
 endfacet
 facet normal -0.02436733524298407 -0.024369682583345896 0.9994059993535875
  outer loop
   vertex 101.89182619292748 24.99900000000001 0
   vertex 114.29202060638536 12.599999999999982 0
   vertex 115.49315811903492 15.499999999999982 0.1
  endloop
 endfacet
 facet normal -0.024367335242984053 -0.024369682583345872 0.9994059993535874
  outer loop
   vertex 105.99324306673743 24.99900000000001 0.1
   vertex 101.89182619292748 24.99900000000001 0
   vertex 115.49315811903492 15.499999999999982 0.1
  endloop
 endfacet
 facet normal 0.0 1.0 0.0
  outer loop
   vertex 138.10817380707252 24.99900000000001 0
   vertex 101.89182619292748 24.99900000000001 0
   vertex 105.99324306673743 24.99900000000001 0.1
  endloop
 endfacet
 facet normal 0.0 1.0 0.0
  outer loop
   vertex 134.00675693326255 24.99900000000001 0.1
   vertex 138.10817380707252 24.99900000000001 0
   vertex 105.99324306673743 24.99900000000001 0.1
  endloop
 endfacet
 facet normal 0.024367335242983984 -0.024369682583345834 0.9994059993535875
  outer loop
   vertex 125.70797939361462 12.599999999999982 0
   vertex 138.10817380707252 24.99900000000001 0
   vertex 134.00675693326255 24.99900000000001 0.1
  endloop
 endfacet
 facet normal 0.024367335242984182 -0.024369682583345965 0.9994059993535874
  outer loop
   vertex 124.50684188096508 15.499999999999982 0.1
   vertex 125.70797939361462 12.599999999999982 0
   vertex 134.00675693326255 24.99900000000001 0.1
  endloop
 endfacet
 facet normal 0.0 0.0 1.0
  outer loop
   vertex 124.50684188096508 15.499999999999982 0.1
   vertex 105.99324306673743 24.99900000000001 0.1
   vertex 115.49315811903492 15.499999999999982 0.1
  endloop
 endfacet
 facet normal 0.0 -0.0 1.0
  outer loop
   vertex 124.50684188096508 15.499999999999982 0.1
   vertex 134.00675693326255 24.99900000000001 0.1
   vertex 105.99324306673743 24.99900000000001 0.1
  endloop
 endfacet
 facet normal 0.0 0.0 -1.0
  outer loop
   vertex 125.9908357297395 12.400000000000006 0
   vertex 143.9989203669866 12.400000000000006 0
   vertex 143.9890467089696 0.001 0
  endloop
 endfacet
 facet normal 0.0 0.0 -1.0
  outer loop
   vertex 125.9908357297395 12.400000000000006 0
   vertex 143.9890467089696 0.001 0
   vertex 138.39103014319736 0.001 0
  endloop
 endfacet
 facet normal 0.0 0.03446227583977887 0.9994059993535874
  outer loop
   vertex 143.9989203669866 12.400000000000006 0
   vertex 125.9908357297395 12.400000000000006 0
   vertex 132.99253196470985 9.500000000000005 0.1
  endloop
 endfacet
 facet normal 0.0 0.03446227583977888 0.9994059993535875
  outer loop
   vertex 143.99661101879326 9.500000000000005 0.1
   vertex 143.9989203669866 12.400000000000006 0
   vertex 132.99253196470985 9.500000000000005 0.1
  endloop
 endfacet
 facet normal 0.9999996829318346 -0.0007963267107328946 -1.0353213688232115e-13
  outer loop
   vertex 143.9890467089696 0.001 0
   vertex 143.9989203669866 12.400000000000006 0
   vertex 143.99661101879326 9.500000000000005 0.1
  endloop
 endfacet
 facet normal 0.9999996829318345 -0.0007963267107339844 0.0
  outer loop
   vertex 143.9890467089696 0.001 0.1
   vertex 143.9890467089696 0.001 0
   vertex 143.99661101879326 9.500000000000005 0.1
  endloop
 endfacet
 facet normal 0.0 -1.0 0.0
  outer loop
   vertex 138.39103014319736 0.001 0
   vertex 143.9890467089696 0.001 0
   vertex 143.9890467089696 0.001 0.1
  endloop
 endfacet
 facet normal 0.0 -1.0 -0.0
  outer loop
   vertex 142.4924470170073 0.001 0.1
   vertex 138.39103014319736 0.001 0
   vertex 143.9890467089696 0.001 0.1
  endloop
 endfacet
 facet normal -0.024367335242984147 -0.02436968258334596 0.9994059993535874
  outer loop
   vertex 125.9908357297395 12.400000000000006 0
   vertex 138.39103014319736 0.001 0
   vertex 142.4924470170073 0.001 0.1
  endloop
 endfacet
 facet normal -0.024367335242983998 -0.024369682583345764 0.9994059993535874
  outer loop
   vertex 132.99253196470985 9.500000000000005 0.1
   vertex 125.9908357297395 12.400000000000006 0
   vertex 142.4924470170073 0.001 0.1
  endloop
 endfacet
 facet normal -0.0 0.0 1.0
  outer loop
   vertex 132.99253196470985 9.500000000000005 0.1
   vertex 143.9890467089696 0.001 0.1
   vertex 143.99661101879326 9.500000000000005 0.1
  endloop
 endfacet
 facet normal 0.0 0.0 1.0
  outer loop
   vertex 132.99253196470985 9.500000000000005 0.1
   vertex 142.4924470170073 0.001 0.1
   vertex 143.9890467089696 0.001 0.1
  endloop
 endfacet
 facet normal 0.0 0.0 -1.0
  outer loop
   vertex 143.9989203669866 12.600000000000005 0
   vertex 125.99083572973947 12.600000000000005 0
   vertex 138.3910301431973 24.998999999999995 0
  endloop
 endfacet
 facet normal 0.0 0.0 -1.0
  outer loop
   vertex 143.9989203669866 12.600000000000005 0
   vertex 138.3910301431973 24.998999999999995 0
   vertex 143.9890467089696 24.998999999999995 0
  endloop
 endfacet
 facet normal 0.0 -0.03446227583977888 0.9994059993535874
  outer loop
   vertex 125.99083572973947 12.600000000000005 0
   vertex 143.9989203669866 12.600000000000005 0
   vertex 143.99661101879326 15.500000000000005 0.1
  endloop
 endfacet
 facet normal 0.0 -0.03446227583977887 0.9994059993535875
  outer loop
   vertex 132.99253196470983 15.500000000000005 0.1
   vertex 125.99083572973947 12.600000000000005 0
   vertex 143.99661101879326 15.500000000000005 0.1
  endloop
 endfacet
 facet normal -0.024367335242984026 0.02436968258334581 0.9994059993535875
  outer loop
   vertex 138.3910301431973 24.998999999999995 0
   vertex 125.99083572973947 12.600000000000005 0
   vertex 132.99253196470983 15.500000000000005 0.1
  endloop
 endfacet
 facet normal -0.02436733524298397 0.024369682583345778 0.9994059993535874
  outer loop
   vertex 142.49244701700727 24.998999999999995 0.1
   vertex 138.3910301431973 24.998999999999995 0
   vertex 132.99253196470983 15.500000000000005 0.1
  endloop
 endfacet
 facet normal 0.0 1.0 0.0
  outer loop
   vertex 143.9890467089696 24.998999999999995 0
   vertex 138.3910301431973 24.998999999999995 0
   vertex 142.49244701700727 24.998999999999995 0.1
  endloop
 endfacet
 facet normal 0.0 1.0 0.0
  outer loop
   vertex 143.9890467089696 24.998999999999995 0.1
   vertex 143.9890467089696 24.998999999999995 0
   vertex 142.49244701700727 24.998999999999995 0.1
  endloop
 endfacet
 facet normal 0.9999996829318346 0.0007963267107328957 0.0
  outer loop
   vertex 143.9989203669866 12.600000000000005 0
   vertex 143.9890467089696 24.998999999999995 0
   vertex 143.9890467089696 24.998999999999995 0.1
  endloop
 endfacet
 facet normal 0.9999996829318346 0.0007963267107339859 -1.3518018783531015e-13
  outer loop
   vertex 143.99661101879326 15.500000000000005 0.1
   vertex 143.9989203669866 12.600000000000005 0
   vertex 143.9890467089696 24.998999999999995 0.1
  endloop
 endfacet
 facet normal 0.0 0.0 1.0
  outer loop
   vertex 143.99661101879326 15.500000000000005 0.1
   vertex 142.49244701700727 24.998999999999995 0.1
   vertex 132.99253196470983 15.500000000000005 0.1
  endloop
 endfacet
 facet normal 0.0 0.0 1.0
  outer loop
   vertex 143.99661101879326 15.500000000000005 0.1
   vertex 143.9890467089696 24.998999999999995 0.1
   vertex 142.49244701700727 24.998999999999995 0.1
  endloop
 endfacet
endsolid
