solid PyGamic generated __All_Crease__ SLA File
 facet normal 0.0 0.0 -1.0
  outer loop
   vertex 6.500000000000002 43.66025403784438 0
   vertex 2.1e-15 35.0 0
   vertex 3.618720360059962 42.22025403784438 0
  endloop
 endfacet
 facet normal 0.0 0.0 -1.0
  outer loop
   vertex 2.1e-15 35.0 0
   vertex 2.7e-15 43.66025403784438 0
   vertex 1.4410000000000025 42.22025403784437 0
  endloop
 endfacet
 facet normal 0.0 0.0 -1.0
  outer loop
   vertex 2.7e-15 43.66025403784438 0
   vertex 6.500000000000002 43.66025403784438 0
   vertex 3.618720360059962 42.22025403784438 0
  endloop
 endfacet
 facet normal 0.0 0.0 -1.0
  outer loop
   vertex 3.618720360059962 42.22025403784438 0
   vertex 2.1e-15 35.0 0
   vertex 1.441000000000002 39.31877533915127 0
  endloop
 endfacet
 facet normal -0.0 0.0 -1.0
  outer loop
   vertex 3.618720360059962 42.22025403784438 0
   vertex 1.4410000000000025 42.22025403784437 0
   vertex 2.7e-15 43.66025403784438 0
  endloop
 endfacet
 facet normal 0.0 0.0 -1.0
  outer loop
   vertex 1.4410000000000025 42.22025403784437 0
   vertex 1.441000000000002 39.31877533915127 0
   vertex 2.1e-15 35.0 0
  endloop
 endfacet
 facet normal -1.0 6.928203230275516e-17 0.0
  outer loop
   vertex 2.7e-15 43.66025403784438 0
   vertex 2.1e-15 35.0 0
   vertex 2.1e-15 35.0 0.36
  endloop
 endfacet
 facet normal -1.0 6.928203230275516e-17 0.0
  outer loop
   vertex 2.7e-15 43.66025403784438 0.36
   vertex 2.7e-15 43.66025403784438 0
   vertex 2.1e-15 35.0 0.36
  endloop
 endfacet
 facet normal 0.0 0.0 1.0
  outer loop
   vertex 6.500000000000002 43.66025403784438 0.36
   vertex 3.618720360059962 42.22025403784438 0.36
   vertex 2.1e-15 35.0 0.36
  endloop
 endfacet
 facet normal 0.0 0.0 1.0
  outer loop
   vertex 2.1e-15 35.0 0.36
   vertex 1.4410000000000025 42.22025403784437 0.36
   vertex 2.7e-15 43.66025403784438 0.36
  endloop
 endfacet
 facet normal -0.0 0.0 1.0
  outer loop
   vertex 2.7e-15 43.66025403784438 0.36
   vertex 3.618720360059962 42.22025403784438 0.36
   vertex 6.500000000000002 43.66025403784438 0.36
  endloop
 endfacet
 facet normal 0.0 0.0 1.0
  outer loop
   vertex 3.618720360059962 42.22025403784438 0.36
   vertex 1.441000000000002 39.31877533915127 0.36
   vertex 2.1e-15 35.0 0.36
  endloop
 endfacet
 facet normal 0.0 0.0 1.0
  outer loop
   vertex 3.618720360059962 42.22025403784438 0.36
   vertex 2.7e-15 43.66025403784438 0.36
   vertex 1.4410000000000025 42.22025403784437 0.36
  endloop
 endfacet
 facet normal 0.0 0.0 1.0
  outer loop
   vertex 1.4410000000000025 42.22025403784437 0.36
   vertex 2.1e-15 35.0 0.36
   vertex 1.441000000000002 39.31877533915127 0.36
  endloop
 endfacet
 facet normal 3.2627822597963715e-15 -1.0 0.0
  outer loop
   vertex 3.618720360059962 42.22025403784438 0
   vertex 3.618720360059962 42.22025403784438 0.36
   vertex 1.4410000000000025 42.22025403784437 0
  endloop
 endfacet
 facet normal 3.2627822597963715e-15 -1.0 0.0
  outer loop
   vertex 1.4410000000000025 42.22025403784437 0
   vertex 3.618720360059962 42.22025403784438 0.36
   vertex 1.4410000000000025 42.22025403784437 0.36
  endloop
 endfacet
 facet normal 1.0 -1.5305616755004686e-16 0.0
  outer loop
   vertex 1.4410000000000025 42.22025403784437 0
   vertex 1.4410000000000025 42.22025403784437 0.36
   vertex 1.441000000000002 39.31877533915127 0
  endloop
 endfacet
 facet normal 1.0 -1.5305616755004686e-16 0.0
  outer loop
   vertex 1.441000000000002 39.31877533915127 0
   vertex 1.4410000000000025 42.22025403784437 0.36
   vertex 1.441000000000002 39.31877533915127 0.36
  endloop
 endfacet
 facet normal -0.7997867519620915 0.6002842255014936 0.0
  outer loop
   vertex 1.441000000000002 39.31877533915127 0
   vertex 1.441000000000002 39.31877533915127 0.36
   vertex 3.618720360059962 42.22025403784438 0
  endloop
 endfacet
 facet normal -0.7997867519620915 0.6002842255014936 0.0
  outer loop
   vertex 3.618720360059962 42.22025403784438 0
   vertex 1.441000000000002 39.31877533915127 0.36
   vertex 3.618720360059962 42.22025403784438 0.36
  endloop
 endfacet
 facet normal 0.0 0.0 -1.0
  outer loop
   vertex 20.0 35.0 0
   vertex 13.50000000000001 43.66025403784439 0
   vertex 18.559 39.31877533915129 0
  endloop
 endfacet
 facet normal 0.0 0.0 -1.0
  outer loop
   vertex 13.50000000000001 43.66025403784439 0
   vertex 20.0 43.66025403784438 0
   vertex 18.559 42.22025403784439 0
  endloop
 endfacet
 facet normal 0.0 -0.0 -1.0
  outer loop
   vertex 20.0 43.66025403784438 0
   vertex 20.0 35.0 0
   vertex 18.559 39.31877533915129 0
  endloop
 endfacet
 facet normal 0.0 0.0 -1.0
  outer loop
   vertex 18.559 39.31877533915129 0
   vertex 13.50000000000001 43.66025403784439 0
   vertex 16.381279639940043 42.22025403784439 0
  endloop
 endfacet
 facet normal 0.0 0.0 -1.0
  outer loop
   vertex 18.559 39.31877533915129 0
   vertex 18.559 42.22025403784439 0
   vertex 20.0 43.66025403784438 0
  endloop
 endfacet
 facet normal 0.0 0.0 -1.0
  outer loop
   vertex 18.559 42.22025403784439 0
   vertex 16.381279639940043 42.22025403784439 0
   vertex 13.50000000000001 43.66025403784439 0
  endloop
 endfacet
 facet normal 1.0 0.0 0.0
  outer loop
   vertex 20.0 35.0 0
   vertex 20.0 43.66025403784438 0
   vertex 20.0 43.66025403784438 0.36
  endloop
 endfacet
 facet normal 1.0 -0.0 0.0
  outer loop
   vertex 20.0 35.0 0.36
   vertex 20.0 35.0 0
   vertex 20.0 43.66025403784438 0.36
  endloop
 endfacet
 facet normal 0.0 0.0 1.0
  outer loop
   vertex 20.0 35.0 0.36
   vertex 18.559 39.31877533915129 0.36
   vertex 13.50000000000001 43.66025403784439 0.36
  endloop
 endfacet
 facet normal 0.0 0.0 1.0
  outer loop
   vertex 13.50000000000001 43.66025403784439 0.36
   vertex 18.559 42.22025403784439 0.36
   vertex 20.0 43.66025403784438 0.36
  endloop
 endfacet
 facet normal 0.0 0.0 1.0
  outer loop
   vertex 20.0 43.66025403784438 0.36
   vertex 18.559 39.31877533915129 0.36
   vertex 20.0 35.0 0.36
  endloop
 endfacet
 facet normal 0.0 0.0 1.0
  outer loop
   vertex 18.559 39.31877533915129 0.36
   vertex 16.381279639940043 42.22025403784439 0.36
   vertex 13.50000000000001 43.66025403784439 0.36
  endloop
 endfacet
 facet normal 0.0 0.0 1.0
  outer loop
   vertex 18.559 39.31877533915129 0.36
   vertex 20.0 43.66025403784438 0.36
   vertex 18.559 42.22025403784439 0.36
  endloop
 endfacet
 facet normal 0.0 0.0 1.0
  outer loop
   vertex 18.559 42.22025403784439 0.36
   vertex 13.50000000000001 43.66025403784439 0.36
   vertex 16.381279639940043 42.22025403784439 0.36
  endloop
 endfacet
 facet normal -1.0 0.0 0.0
  outer loop
   vertex 18.559 39.31877533915129 0
   vertex 18.559 39.31877533915129 0.36
   vertex 18.559 42.22025403784439 0
  endloop
 endfacet
 facet normal -1.0 0.0 0.0
  outer loop
   vertex 18.559 42.22025403784439 0
   vertex 18.559 39.31877533915129 0.36
   vertex 18.559 42.22025403784439 0.36
  endloop
 endfacet
 facet normal 0.0 -1.0 0.0
  outer loop
   vertex 18.559 42.22025403784439 0
   vertex 18.559 42.22025403784439 0.36
   vertex 16.381279639940043 42.22025403784439 0
  endloop
 endfacet
 facet normal 0.0 -1.0 0.0
  outer loop
   vertex 16.381279639940043 42.22025403784439 0
   vertex 18.559 42.22025403784439 0.36
   vertex 16.381279639940043 42.22025403784439 0.36
  endloop
 endfacet
 facet normal 0.7997867519620917 0.6002842255014933 -0.0
  outer loop
   vertex 16.381279639940043 42.22025403784439 0
   vertex 16.381279639940043 42.22025403784439 0.36
   vertex 18.559 39.31877533915129 0
  endloop
 endfacet
 facet normal 0.7997867519620917 0.6002842255014933 -0.0
  outer loop
   vertex 18.559 39.31877533915129 0
   vertex 16.381279639940043 42.22025403784439 0.36
   vertex 18.559 39.31877533915129 0.36
  endloop
 endfacet
 facet normal 0.0 0.0 -1.0
  outer loop
   vertex 2.1e-15 52.32050807568876 0
   vertex 6.500000000000002 43.66025403784438 0
   vertex 1.4410000000000025 48.001732736537484 0
  endloop
 endfacet
 facet normal 0.0 0.0 -1.0
  outer loop
   vertex 6.500000000000002 43.66025403784438 0
   vertex 2.7e-15 43.66025403784438 0
   vertex 1.4410000000000025 45.10025403784437 0
  endloop
 endfacet
 facet normal 0.0 0.0 -1.0
  outer loop
   vertex 2.7e-15 43.66025403784438 0
   vertex 2.1e-15 52.32050807568876 0
   vertex 1.4410000000000025 48.001732736537484 0
  endloop
 endfacet
 facet normal 0.0 0.0 -1.0
  outer loop
   vertex 1.4410000000000025 48.001732736537484 0
   vertex 6.500000000000002 43.66025403784438 0
   vertex 3.61872036005996 45.10025403784437 0
  endloop
 endfacet
 facet normal 0.0 -0.0 -1.0
  outer loop
   vertex 1.4410000000000025 48.001732736537484 0
   vertex 1.4410000000000025 45.10025403784437 0
   vertex 2.7e-15 43.66025403784438 0
  endloop
 endfacet
 facet normal 0.0 0.0 -1.0
  outer loop
   vertex 1.4410000000000025 45.10025403784437 0
   vertex 3.61872036005996 45.10025403784437 0
   vertex 6.500000000000002 43.66025403784438 0
  endloop
 endfacet
 facet normal -1.0 -6.928203230275521e-17 0.0
  outer loop
   vertex 2.1e-15 52.32050807568876 0
   vertex 2.7e-15 43.66025403784438 0
   vertex 2.7e-15 43.66025403784438 0.36
  endloop
 endfacet
 facet normal -1.0 -6.928203230275521e-17 -0.0
  outer loop
   vertex 2.1e-15 52.32050807568876 0.36
   vertex 2.1e-15 52.32050807568876 0
   vertex 2.7e-15 43.66025403784438 0.36
  endloop
 endfacet
 facet normal 0.0 0.0 1.0
  outer loop
   vertex 2.1e-15 52.32050807568876 0.36
   vertex 1.4410000000000025 48.001732736537484 0.36
   vertex 6.500000000000002 43.66025403784438 0.36
  endloop
 endfacet
 facet normal 0.0 0.0 1.0
  outer loop
   vertex 6.500000000000002 43.66025403784438 0.36
   vertex 1.4410000000000025 45.10025403784437 0.36
   vertex 2.7e-15 43.66025403784438 0.36
  endloop
 endfacet
 facet normal 0.0 -0.0 1.0
  outer loop
   vertex 2.7e-15 43.66025403784438 0.36
   vertex 1.4410000000000025 48.001732736537484 0.36
   vertex 2.1e-15 52.32050807568876 0.36
  endloop
 endfacet
 facet normal 0.0 0.0 1.0
  outer loop
   vertex 1.4410000000000025 48.001732736537484 0.36
   vertex 3.61872036005996 45.10025403784437 0.36
   vertex 6.500000000000002 43.66025403784438 0.36
  endloop
 endfacet
 facet normal 0.0 0.0 1.0
  outer loop
   vertex 1.4410000000000025 48.001732736537484 0.36
   vertex 2.7e-15 43.66025403784438 0.36
   vertex 1.4410000000000025 45.10025403784437 0.36
  endloop
 endfacet
 facet normal -0.0 0.0 1.0
  outer loop
   vertex 1.4410000000000025 45.10025403784437 0.36
   vertex 6.500000000000002 43.66025403784438 0.36
   vertex 3.61872036005996 45.10025403784437 0.36
  endloop
 endfacet
 facet normal 1.0 0.0 -0.0
  outer loop
   vertex 1.4410000000000025 48.001732736537484 0
   vertex 1.4410000000000025 48.001732736537484 0.36
   vertex 1.4410000000000025 45.10025403784437 0
  endloop
 endfacet
 facet normal 1.0 0.0 0.0
  outer loop
   vertex 1.4410000000000025 45.10025403784437 0
   vertex 1.4410000000000025 48.001732736537484 0.36
   vertex 1.4410000000000025 45.10025403784437 0.36
  endloop
 endfacet
 facet normal 0.0 1.0 0.0
  outer loop
   vertex 1.4410000000000025 45.10025403784437 0
   vertex 1.4410000000000025 45.10025403784437 0.36
   vertex 3.61872036005996 45.10025403784437 0
  endloop
 endfacet
 facet normal 0.0 1.0 -0.0
  outer loop
   vertex 3.61872036005996 45.10025403784437 0
   vertex 1.4410000000000025 45.10025403784437 0.36
   vertex 3.61872036005996 45.10025403784437 0.36
  endloop
 endfacet
 facet normal -0.7997867519620925 -0.6002842255014922 0.0
  outer loop
   vertex 3.61872036005996 45.10025403784437 0
   vertex 3.61872036005996 45.10025403784437 0.36
   vertex 1.4410000000000025 48.001732736537484 0
  endloop
 endfacet
 facet normal -0.7997867519620925 -0.6002842255014922 0.0
  outer loop
   vertex 1.4410000000000025 48.001732736537484 0
   vertex 3.61872036005996 45.10025403784437 0.36
   vertex 1.4410000000000025 48.001732736537484 0.36
  endloop
 endfacet
 facet normal 0.0 0.0 -1.0
  outer loop
   vertex 13.50000000000001 43.66025403784439 0
   vertex 20.0 52.32050807568876 0
   vertex 16.38127963994005 45.100254037844394 0
  endloop
 endfacet
 facet normal 0.0 -0.0 -1.0
  outer loop
   vertex 20.0 52.32050807568876 0
   vertex 20.0 43.66025403784438 0
   vertex 18.559 45.10025403784439 0
  endloop
 endfacet
 facet normal 0.0 0.0 -1.0
  outer loop
   vertex 20.0 43.66025403784438 0
   vertex 13.50000000000001 43.66025403784439 0
   vertex 16.38127963994005 45.100254037844394 0
  endloop
 endfacet
 facet normal 0.0 0.0 -1.0
  outer loop
   vertex 16.38127963994005 45.100254037844394 0
   vertex 20.0 52.32050807568876 0
   vertex 18.559 48.00173273653748 0
  endloop
 endfacet
 facet normal 0.0 0.0 -1.0
  outer loop
   vertex 16.38127963994005 45.100254037844394 0
   vertex 18.559 45.10025403784439 0
   vertex 20.0 43.66025403784438 0
  endloop
 endfacet
 facet normal 0.0 0.0 -1.0
  outer loop
   vertex 18.559 45.10025403784439 0
   vertex 18.559 48.00173273653748 0
   vertex 20.0 52.32050807568876 0
  endloop
 endfacet
 facet normal 1.0 0.0 0.0
  outer loop
   vertex 20.0 43.66025403784438 0
   vertex 20.0 52.32050807568876 0
   vertex 20.0 52.32050807568876 0.36
  endloop
 endfacet
 facet normal 1.0 -0.0 0.0
  outer loop
   vertex 20.0 43.66025403784438 0.36
   vertex 20.0 43.66025403784438 0
   vertex 20.0 52.32050807568876 0.36
  endloop
 endfacet
 facet normal 0.0 0.0 1.0
  outer loop
   vertex 13.50000000000001 43.66025403784439 0.36
   vertex 16.38127963994005 45.100254037844394 0.36
   vertex 20.0 52.32050807568876 0.36
  endloop
 endfacet
 facet normal 0.0 0.0 1.0
  outer loop
   vertex 20.0 52.32050807568876 0.36
   vertex 18.559 45.10025403784439 0.36
   vertex 20.0 43.66025403784438 0.36
  endloop
 endfacet
 facet normal 0.0 0.0 1.0
  outer loop
   vertex 20.0 43.66025403784438 0.36
   vertex 16.38127963994005 45.100254037844394 0.36
   vertex 13.50000000000001 43.66025403784439 0.36
  endloop
 endfacet
 facet normal 0.0 0.0 1.0
  outer loop
   vertex 16.38127963994005 45.100254037844394 0.36
   vertex 18.559 48.00173273653748 0.36
   vertex 20.0 52.32050807568876 0.36
  endloop
 endfacet
 facet normal 0.0 0.0 1.0
  outer loop
   vertex 16.38127963994005 45.100254037844394 0.36
   vertex 20.0 43.66025403784438 0.36
   vertex 18.559 45.10025403784439 0.36
  endloop
 endfacet
 facet normal 0.0 0.0 1.0
  outer loop
   vertex 18.559 45.10025403784439 0.36
   vertex 20.0 52.32050807568876 0.36
   vertex 18.559 48.00173273653748 0.36
  endloop
 endfacet
 facet normal 3.2627822597963845e-15 1.0 -0.0
  outer loop
   vertex 16.38127963994005 45.100254037844394 0
   vertex 16.38127963994005 45.100254037844394 0.36
   vertex 18.559 45.10025403784439 0
  endloop
 endfacet
 facet normal 3.2627822597963845e-15 1.0 -0.0
  outer loop
   vertex 18.559 45.10025403784439 0
   vertex 16.38127963994005 45.100254037844394 0.36
   vertex 18.559 45.10025403784439 0.36
  endloop
 endfacet
 facet normal -1.0 0.0 0.0
  outer loop
   vertex 18.559 45.10025403784439 0
   vertex 18.559 45.10025403784439 0.36
   vertex 18.559 48.00173273653748 0
  endloop
 endfacet
 facet normal -1.0 0.0 0.0
  outer loop
   vertex 18.559 48.00173273653748 0
   vertex 18.559 45.10025403784439 0.36
   vertex 18.559 48.00173273653748 0.36
  endloop
 endfacet
 facet normal 0.7997867519620906 -0.6002842255014949 0.0
  outer loop
   vertex 18.559 48.00173273653748 0
   vertex 18.559 48.00173273653748 0.36
   vertex 16.38127963994005 45.100254037844394 0
  endloop
 endfacet
 facet normal 0.7997867519620906 -0.6002842255014949 0.0
  outer loop
   vertex 16.38127963994005 45.100254037844394 0
   vertex 18.559 48.00173273653748 0.36
   vertex 16.38127963994005 45.100254037844394 0.36
  endloop
 endfacet
 facet normal 0.0 0.0 -1.0
  outer loop
   vertex 2.1e-15 35.0 0
   vertex 6.500000000000002 43.66025403784438 0
   vertex 1.4410000000000018 34.521048066551415 0
  endloop
 endfacet
 facet normal 0.0 0.0 -1.0
  outer loop
   vertex 6.500000000000002 43.66025403784438 0
   vertex 13.50000000000001 43.66025403784439 0
   vertex 12.780319767905924 42.220254037844384 0
  endloop
 endfacet
 facet normal 0.0 0.0 -1.0
  outer loop
   vertex 13.50000000000001 43.66025403784439 0
   vertex 20.0 35.0 0
   vertex 18.559 34.521048066551415 0
  endloop
 endfacet
 facet normal 0.0 -0.0 -1.0
  outer loop
   vertex 20.0 35.0 0
   vertex 20.0 15.0 0
   vertex 18.559 16.441 0
  endloop
 endfacet
 facet normal 0.0 0.0 -1.0
  outer loop
   vertex 20.0 15.0 0
   vertex -1.5e-15 15.0 0
   vertex 1.4409999999999985 16.441 0
  endloop
 endfacet
 facet normal 0.0 0.0 -1.0
  outer loop
   vertex -1.5e-15 15.0 0
   vertex 2.1e-15 35.0 0
   vertex 1.4410000000000018 34.521048066551415 0
  endloop
 endfacet
 facet normal 0.0 0.0 -1.0
  outer loop
   vertex 1.4410000000000018 34.521048066551415 0
   vertex 6.500000000000002 43.66025403784438 0
   vertex 7.219680232094087 42.22025403784439 0
  endloop
 endfacet
 facet normal 0.0 0.0 -1.0
  outer loop
   vertex 1.4410000000000018 34.521048066551415 0
   vertex 1.4409999999999985 16.441 0
   vertex -1.5e-15 15.0 0
  endloop
 endfacet
 facet normal 0.0 0.0 -1.0
  outer loop
   vertex 1.4409999999999985 16.441 0
   vertex 18.559 16.441 0
   vertex 20.0 15.0 0
  endloop
 endfacet
 facet normal 0.0 0.0 -1.0
  outer loop
   vertex 18.559 16.441 0
   vertex 18.559 34.521048066551415 0
   vertex 20.0 35.0 0
  endloop
 endfacet
 facet normal 0.0 0.0 -1.0
  outer loop
   vertex 18.559 34.521048066551415 0
   vertex 12.780319767905924 42.220254037844384 0
   vertex 13.50000000000001 43.66025403784439 0
  endloop
 endfacet
 facet normal 0.0 0.0 -1.0
  outer loop
   vertex 12.780319767905924 42.220254037844384 0
   vertex 7.219680232094087 42.22025403784439 0
   vertex 6.500000000000002 43.66025403784438 0
  endloop
 endfacet
 facet normal 1.0 0.0 0.0
  outer loop
   vertex 20.0 15.0 0
   vertex 20.0 35.0 0
   vertex 20.0 35.0 0.36
  endloop
 endfacet
 facet normal 1.0 -0.0 0.0
  outer loop
   vertex 20.0 15.0 0.36
   vertex 20.0 15.0 0
   vertex 20.0 35.0 0.36
  endloop
 endfacet
 facet normal 0.0 -1.0 0.0
  outer loop
   vertex -1.5e-15 15.0 0
   vertex 20.0 15.0 0
   vertex 20.0 15.0 0.36
  endloop
 endfacet
 facet normal 0.0 -1.0 0.0
  outer loop
   vertex -1.5e-15 15.0 0.36
   vertex -1.5e-15 15.0 0
   vertex 20.0 15.0 0.36
  endloop
 endfacet
 facet normal -1.0 1.8000000000000002e-16 0.0
  outer loop
   vertex 2.1e-15 35.0 0
   vertex -1.5e-15 15.0 0
   vertex -1.5e-15 15.0 0.36
  endloop
 endfacet
 facet normal -1.0 1.8000000000000002e-16 0.0
  outer loop
   vertex 2.1e-15 35.0 0.36
   vertex 2.1e-15 35.0 0
   vertex -1.5e-15 15.0 0.36
  endloop
 endfacet
 facet normal -0.0 0.0 1.0
  outer loop
   vertex 2.1e-15 35.0 0.36
   vertex 1.4410000000000018 34.521048066551415 0.36
   vertex 6.500000000000002 43.66025403784438 0.36
  endloop
 endfacet
 facet normal -0.0 0.0 1.0
  outer loop
   vertex 6.500000000000002 43.66025403784438 0.36
   vertex 12.780319767905924 42.220254037844384 0.36
   vertex 13.50000000000001 43.66025403784439 0.36
  endloop
 endfacet
 facet normal 0.0 0.0 1.0
  outer loop
   vertex 13.50000000000001 43.66025403784439 0.36
   vertex 18.559 34.521048066551415 0.36
   vertex 20.0 35.0 0.36
  endloop
 endfacet
 facet normal 0.0 0.0 1.0
  outer loop
   vertex 20.0 35.0 0.36
   vertex 18.559 16.441 0.36
   vertex 20.0 15.0 0.36
  endloop
 endfacet
 facet normal 0.0 0.0 1.0
  outer loop
   vertex 20.0 15.0 0.36
   vertex 1.4409999999999985 16.441 0.36
   vertex -1.5e-15 15.0 0.36
  endloop
 endfacet
 facet normal 0.0 0.0 1.0
  outer loop
   vertex -1.5e-15 15.0 0.36
   vertex 1.4410000000000018 34.521048066551415 0.36
   vertex 2.1e-15 35.0 0.36
  endloop
 endfacet
 facet normal 0.0 0.0 1.0
  outer loop
   vertex 1.4410000000000018 34.521048066551415 0.36
   vertex 7.219680232094087 42.22025403784439 0.36
   vertex 6.500000000000002 43.66025403784438 0.36
  endloop
 endfacet
 facet normal 0.0 0.0 1.0
  outer loop
   vertex 1.4410000000000018 34.521048066551415 0.36
   vertex -1.5e-15 15.0 0.36
   vertex 1.4409999999999985 16.441 0.36
  endloop
 endfacet
 facet normal -0.0 0.0 1.0
  outer loop
   vertex 1.4409999999999985 16.441 0.36
   vertex 20.0 15.0 0.36
   vertex 18.559 16.441 0.36
  endloop
 endfacet
 facet normal 0.0 0.0 1.0
  outer loop
   vertex 18.559 16.441 0.36
   vertex 20.0 35.0 0.36
   vertex 18.559 34.521048066551415 0.36
  endloop
 endfacet
 facet normal 0.0 0.0 1.0
  outer loop
   vertex 18.559 34.521048066551415 0.36
   vertex 13.50000000000001 43.66025403784439 0.36
   vertex 12.780319767905924 42.220254037844384 0.36
  endloop
 endfacet
 facet normal 0.0 0.0 1.0
  outer loop
   vertex 12.780319767905924 42.220254037844384 0.36
   vertex 6.500000000000002 43.66025403784438 0.36
   vertex 7.219680232094087 42.22025403784439 0.36
  endloop
 endfacet
 facet normal 1.0 -1.8421793247537313e-16 0.0
  outer loop
   vertex 1.4410000000000018 34.521048066551415 0
   vertex 1.4410000000000018 34.521048066551415 0.36
   vertex 1.4409999999999985 16.441 0
  endloop
 endfacet
 facet normal 1.0 -1.8421793247537313e-16 0.0
  outer loop
   vertex 1.4409999999999985 16.441 0
   vertex 1.4410000000000018 34.521048066551415 0.36
   vertex 1.4409999999999985 16.441 0.36
  endloop
 endfacet
 facet normal 0.0 1.0 0.0
  outer loop
   vertex 1.4409999999999985 16.441 0
   vertex 1.4409999999999985 16.441 0.36
   vertex 18.559 16.441 0
  endloop
 endfacet
 facet normal 0.0 1.0 -0.0
  outer loop
   vertex 18.559 16.441 0
   vertex 1.4409999999999985 16.441 0.36
   vertex 18.559 16.441 0.36
  endloop
 endfacet
 facet normal -1.0 0.0 0.0
  outer loop
   vertex 18.559 16.441 0
   vertex 18.559 16.441 0.36
   vertex 18.559 34.521048066551415 0
  endloop
 endfacet
 facet normal -1.0 0.0 0.0
  outer loop
   vertex 18.559 34.521048066551415 0
   vertex 18.559 16.441 0.36
   vertex 18.559 34.521048066551415 0.36
  endloop
 endfacet
 facet normal -0.7997867519620919 -0.6002842255014929 0.0
  outer loop
   vertex 18.559 34.521048066551415 0
   vertex 18.559 34.521048066551415 0.36
   vertex 12.780319767905924 42.220254037844384 0
  endloop
 endfacet
 facet normal -0.7997867519620919 -0.6002842255014929 0.0
  outer loop
   vertex 12.780319767905924 42.220254037844384 0
   vertex 18.559 34.521048066551415 0.36
   vertex 12.780319767905924 42.220254037844384 0.36
  endloop
 endfacet
 facet normal -1.2778075816352357e-15 -1.0 0.0
  outer loop
   vertex 12.780319767905924 42.220254037844384 0
   vertex 12.780319767905924 42.220254037844384 0.36
   vertex 7.219680232094087 42.22025403784439 0
  endloop
 endfacet
 facet normal -1.2778075816352357e-15 -1.0 0.0
  outer loop
   vertex 7.219680232094087 42.22025403784439 0
   vertex 12.780319767905924 42.220254037844384 0.36
   vertex 7.219680232094087 42.22025403784439 0.36
  endloop
 endfacet
 facet normal 0.7997867519620918 -0.6002842255014932 0.0
  outer loop
   vertex 7.219680232094087 42.22025403784439 0
   vertex 7.219680232094087 42.22025403784439 0.36
   vertex 1.4410000000000018 34.521048066551415 0
  endloop
 endfacet
 facet normal 0.7997867519620918 -0.6002842255014932 0.0
  outer loop
   vertex 1.4410000000000018 34.521048066551415 0
   vertex 7.219680232094087 42.22025403784439 0.36
   vertex 1.4410000000000018 34.521048066551415 0.36
  endloop
 endfacet
 facet normal 0.0 0.0 -1.0
  outer loop
   vertex 6.500000000000002 43.66025403784438 0
   vertex 2.1e-15 52.32050807568876 0
   vertex 7.219680232094076 45.10025403784438 0
  endloop
 endfacet
 facet normal 0.0 0.0 -1.0
  outer loop
   vertex 2.1e-15 52.32050807568876 0
   vertex 3.4e-15 72.32050807568876 0
   vertex 1.4410000000000032 70.87950807568876 0
  endloop
 endfacet
 facet normal 0.0 0.0 -1.0
  outer loop
   vertex 3.4e-15 72.32050807568876 0
   vertex 20.0 72.32050807568876 0
   vertex 18.559 70.87950807568876 0
  endloop
 endfacet
 facet normal 0.0 -0.0 -1.0
  outer loop
   vertex 20.0 72.32050807568876 0
   vertex 20.0 52.32050807568876 0
   vertex 18.559 52.79946000913735 0
  endloop
 endfacet
 facet normal 0.0 0.0 -1.0
  outer loop
   vertex 20.0 52.32050807568876 0
   vertex 13.50000000000001 43.66025403784439 0
   vertex 12.780319767905924 45.10025403784439 0
  endloop
 endfacet
 facet normal -0.0 0.0 -1.0
  outer loop
   vertex 13.50000000000001 43.66025403784439 0
   vertex 6.500000000000002 43.66025403784438 0
   vertex 7.219680232094076 45.10025403784438 0
  endloop
 endfacet
 facet normal 0.0 0.0 -1.0
  outer loop
   vertex 7.219680232094076 45.10025403784438 0
   vertex 2.1e-15 52.32050807568876 0
   vertex 1.441000000000002 52.79946000913733 0
  endloop
 endfacet
 facet normal 0.0 0.0 -1.0
  outer loop
   vertex 7.219680232094076 45.10025403784438 0
   vertex 12.780319767905924 45.10025403784439 0
   vertex 13.50000000000001 43.66025403784439 0
  endloop
 endfacet
 facet normal 0.0 0.0 -1.0
  outer loop
   vertex 12.780319767905924 45.10025403784439 0
   vertex 18.559 52.79946000913735 0
   vertex 20.0 52.32050807568876 0
  endloop
 endfacet
 facet normal 0.0 0.0 -1.0
  outer loop
   vertex 18.559 52.79946000913735 0
   vertex 18.559 70.87950807568876 0
   vertex 20.0 72.32050807568876 0
  endloop
 endfacet
 facet normal 0.0 0.0 -1.0
  outer loop
   vertex 18.559 70.87950807568876 0
   vertex 1.4410000000000032 70.87950807568876 0
   vertex 3.4e-15 72.32050807568876 0
  endloop
 endfacet
 facet normal 0.0 0.0 -1.0
  outer loop
   vertex 1.4410000000000032 70.87950807568876 0
   vertex 1.441000000000002 52.79946000913733 0
   vertex 2.1e-15 52.32050807568876 0
  endloop
 endfacet
 facet normal -1.0 6.5e-17 0.0
  outer loop
   vertex 3.4e-15 72.32050807568876 0
   vertex 2.1e-15 52.32050807568876 0
   vertex 2.1e-15 52.32050807568876 0.36
  endloop
 endfacet
 facet normal -1.0 6.5e-17 0.0
  outer loop
   vertex 3.4e-15 72.32050807568876 0.36
   vertex 3.4e-15 72.32050807568876 0
   vertex 2.1e-15 52.32050807568876 0.36
  endloop
 endfacet
 facet normal 0.0 1.0 0.0
  outer loop
   vertex 20.0 72.32050807568876 0
   vertex 3.4e-15 72.32050807568876 0
   vertex 3.4e-15 72.32050807568876 0.36
  endloop
 endfacet
 facet normal 0.0 1.0 0.0
  outer loop
   vertex 20.0 72.32050807568876 0.36
   vertex 20.0 72.32050807568876 0
   vertex 3.4e-15 72.32050807568876 0.36
  endloop
 endfacet
 facet normal 1.0 0.0 0.0
  outer loop
   vertex 20.0 52.32050807568876 0
   vertex 20.0 72.32050807568876 0
   vertex 20.0 72.32050807568876 0.36
  endloop
 endfacet
 facet normal 1.0 -0.0 0.0
  outer loop
   vertex 20.0 52.32050807568876 0.36
   vertex 20.0 52.32050807568876 0
   vertex 20.0 72.32050807568876 0.36
  endloop
 endfacet
 facet normal 0.0 -0.0 1.0
  outer loop
   vertex 6.500000000000002 43.66025403784438 0.36
   vertex 7.219680232094076 45.10025403784438 0.36
   vertex 2.1e-15 52.32050807568876 0.36
  endloop
 endfacet
 facet normal 0.0 0.0 1.0
  outer loop
   vertex 2.1e-15 52.32050807568876 0.36
   vertex 1.4410000000000032 70.87950807568876 0.36
   vertex 3.4e-15 72.32050807568876 0.36
  endloop
 endfacet
 facet normal -0.0 0.0 1.0
  outer loop
   vertex 3.4e-15 72.32050807568876 0.36
   vertex 18.559 70.87950807568876 0.36
   vertex 20.0 72.32050807568876 0.36
  endloop
 endfacet
 facet normal 0.0 0.0 1.0
  outer loop
   vertex 20.0 72.32050807568876 0.36
   vertex 18.559 52.79946000913735 0.36
   vertex 20.0 52.32050807568876 0.36
  endloop
 endfacet
 facet normal 0.0 0.0 1.0
  outer loop
   vertex 20.0 52.32050807568876 0.36
   vertex 12.780319767905924 45.10025403784439 0.36
   vertex 13.50000000000001 43.66025403784439 0.36
  endloop
 endfacet
 facet normal 0.0 0.0 1.0
  outer loop
   vertex 13.50000000000001 43.66025403784439 0.36
   vertex 7.219680232094076 45.10025403784438 0.36
   vertex 6.500000000000002 43.66025403784438 0.36
  endloop
 endfacet
 facet normal 0.0 0.0 1.0
  outer loop
   vertex 7.219680232094076 45.10025403784438 0.36
   vertex 1.441000000000002 52.79946000913733 0.36
   vertex 2.1e-15 52.32050807568876 0.36
  endloop
 endfacet
 facet normal -0.0 0.0 1.0
  outer loop
   vertex 7.219680232094076 45.10025403784438 0.36
   vertex 13.50000000000001 43.66025403784439 0.36
   vertex 12.780319767905924 45.10025403784439 0.36
  endloop
 endfacet
 facet normal 0.0 0.0 1.0
  outer loop
   vertex 12.780319767905924 45.10025403784439 0.36
   vertex 20.0 52.32050807568876 0.36
   vertex 18.559 52.79946000913735 0.36
  endloop
 endfacet
 facet normal 0.0 0.0 1.0
  outer loop
   vertex 18.559 52.79946000913735 0.36
   vertex 20.0 72.32050807568876 0.36
   vertex 18.559 70.87950807568876 0.36
  endloop
 endfacet
 facet normal 0.0 0.0 1.0
  outer loop
   vertex 18.559 70.87950807568876 0.36
   vertex 3.4e-15 72.32050807568876 0.36
   vertex 1.4410000000000032 70.87950807568876 0.36
  endloop
 endfacet
 facet normal 0.0 0.0 1.0
  outer loop
   vertex 1.4410000000000032 70.87950807568876 0.36
   vertex 2.1e-15 52.32050807568876 0.36
   vertex 1.441000000000002 52.79946000913733 0.36
  endloop
 endfacet
 facet normal -1.2778075816352327e-15 1.0 0.0
  outer loop
   vertex 7.219680232094076 45.10025403784438 0
   vertex 7.219680232094076 45.10025403784438 0.36
   vertex 12.780319767905924 45.10025403784439 0
  endloop
 endfacet
 facet normal -1.2778075816352327e-15 1.0 0.0
  outer loop
   vertex 12.780319767905924 45.10025403784439 0
   vertex 7.219680232094076 45.10025403784438 0.36
   vertex 12.780319767905924 45.10025403784439 0.36
  endloop
 endfacet
 facet normal -0.7997867519620917 0.6002842255014933 0.0
  outer loop
   vertex 12.780319767905924 45.10025403784439 0
   vertex 12.780319767905924 45.10025403784439 0.36
   vertex 18.559 52.79946000913735 0
  endloop
 endfacet
 facet normal -0.7997867519620917 0.6002842255014933 0.0
  outer loop
   vertex 18.559 52.79946000913735 0
   vertex 12.780319767905924 45.10025403784439 0.36
   vertex 18.559 52.79946000913735 0.36
  endloop
 endfacet
 facet normal -1.0 0.0 0.0
  outer loop
   vertex 18.559 52.79946000913735 0
   vertex 18.559 52.79946000913735 0.36
   vertex 18.559 70.87950807568876 0
  endloop
 endfacet
 facet normal -1.0 0.0 0.0
  outer loop
   vertex 18.559 70.87950807568876 0
   vertex 18.559 52.79946000913735 0.36
   vertex 18.559 70.87950807568876 0.36
  endloop
 endfacet
 facet normal 0.0 -1.0 0.0
  outer loop
   vertex 18.559 70.87950807568876 0
   vertex 18.559 70.87950807568876 0.36
   vertex 1.4410000000000032 70.87950807568876 0
  endloop
 endfacet
 facet normal 0.0 -1.0 0.0
  outer loop
   vertex 1.4410000000000032 70.87950807568876 0
   vertex 18.559 70.87950807568876 0.36
   vertex 1.4410000000000032 70.87950807568876 0.36
  endloop
 endfacet
 facet normal 1.0 -6.140597749179098e-17 0.0
  outer loop
   vertex 1.4410000000000032 70.87950807568876 0
   vertex 1.4410000000000032 70.87950807568876 0.36
   vertex 1.441000000000002 52.79946000913733 0
  endloop
 endfacet
 facet normal 1.0 -6.140597749179098e-17 0.0
  outer loop
   vertex 1.441000000000002 52.79946000913733 0
   vertex 1.4410000000000032 70.87950807568876 0.36
   vertex 1.441000000000002 52.79946000913733 0.36
  endloop
 endfacet
 facet normal 0.7997867519620914 0.6002842255014937 -0.0
  outer loop
   vertex 1.441000000000002 52.79946000913733 0
   vertex 1.441000000000002 52.79946000913733 0.36
   vertex 7.219680232094076 45.10025403784438 0
  endloop
 endfacet
 facet normal 0.7997867519620914 0.6002842255014937 -0.0
  outer loop
   vertex 7.219680232094076 45.10025403784438 0
   vertex 1.441000000000002 52.79946000913733 0.36
   vertex 7.219680232094076 45.10025403784438 0.36
  endloop
 endfacet
endsolid
