solid PyGamic generated __All_Crease__ SLA File
 facet normal 0.0 0.0 -1.0
  outer loop
   vertex 44.38932871138358 28.4 0
   vertex 1.5987263841680686 28.400000000000002 0
   vertex 23.01542284893943 29.9984 0
  endloop
 endfacet
 facet normal 0.0 0.0 -1.0
  outer loop
   vertex 1.5987263841680686 28.400000000000002 0
   vertex 22.972632246612214 29.9984 0
   vertex 23.01542284893943 29.9984 0
  endloop
 endfacet
 facet normal 0.0 0.0 -1.0
  outer loop
   vertex 1.5987263841680686 28.400000000000002 0
   vertex 1.5987263841680686 31.6 0
   vertex 22.972632246612214 29.9984 0
  endloop
 endfacet
 facet normal 0.0 0.0 -1.0
  outer loop
   vertex 1.5987263841680686 31.6 0
   vertex 22.972632246612214 30.0016 0
   vertex 22.972632246612214 29.9984 0
  endloop
 endfacet
 facet normal 0.0 0.0 -1.0
  outer loop
   vertex 1.5987263841680686 31.6 0
   vertex 44.38932871138358 31.599999999999998 0
   vertex 22.972632246612214 30.0016 0
  endloop
 endfacet
 facet normal 0.0 0.0 -1.0
  outer loop
   vertex 44.38932871138358 31.599999999999998 0
   vertex 23.01542284893943 30.0016 0
   vertex 22.972632246612214 30.0016 0
  endloop
 endfacet
 facet normal 0.0 -0.0 -1.0
  outer loop
   vertex 44.38932871138358 31.599999999999998 0
   vertex 44.38932871138358 28.4 0
   vertex 23.01542284893943 30.0016 0
  endloop
 endfacet
 facet normal 0.0 0.0 -1.0
  outer loop
   vertex 44.38932871138358 28.4 0
   vertex 23.01542284893943 29.9984 0
   vertex 23.01542284893943 30.0016 0
  endloop
 endfacet
 facet normal -8.30255590148802e-17 -1.0 0.0
  outer loop
   vertex 1.5987263841680686 28.400000000000002 0
   vertex 44.38932871138358 28.4 0
   vertex 44.38932871138358 28.4 0.4
  endloop
 endfacet
 facet normal -8.30255590148802e-17 -1.0 -0.0
  outer loop
   vertex 1.5987263841680686 28.400000000000002 0.4
   vertex 1.5987263841680686 28.400000000000002 0
   vertex 44.38932871138358 28.4 0.4
  endloop
 endfacet
 facet normal -1.0 0.0 0.0
  outer loop
   vertex 1.5987263841680686 31.6 0
   vertex 1.5987263841680686 28.400000000000002 0
   vertex 1.5987263841680686 28.400000000000002 0.4
  endloop
 endfacet
 facet normal -1.0 -0.0 -0.0
  outer loop
   vertex 1.5987263841680686 31.6 0.4
   vertex 1.5987263841680686 31.6 0
   vertex 1.5987263841680686 28.400000000000002 0.4
  endloop
 endfacet
 facet normal 8.30255590148802e-17 1.0 0.0
  outer loop
   vertex 44.38932871138358 31.599999999999998 0
   vertex 1.5987263841680686 31.6 0
   vertex 1.5987263841680686 31.6 0.4
  endloop
 endfacet
 facet normal 8.30255590148802e-17 1.0 0.0
  outer loop
   vertex 44.38932871138358 31.599999999999998 0.4
   vertex 44.38932871138358 31.599999999999998 0
   vertex 1.5987263841680686 31.6 0.4
  endloop
 endfacet
 facet normal 1.0 0.0 0.0
  outer loop
   vertex 44.38932871138358 28.4 0
   vertex 44.38932871138358 31.599999999999998 0
   vertex 44.38932871138358 31.599999999999998 0.4
  endloop
 endfacet
 facet normal 1.0 -0.0 0.0
  outer loop
   vertex 44.38932871138358 28.4 0.4
   vertex 44.38932871138358 28.4 0
   vertex 44.38932871138358 31.599999999999998 0.4
  endloop
 endfacet
 facet normal 0.0 1.0 -0.0
  outer loop
   vertex 23.01542284893943 29.9984 0
   vertex 22.972632246612214 29.9984 0
   vertex 23.01542284893943 29.9984 0.4
  endloop
 endfacet
 facet normal 0.0 1.0 0.0
  outer loop
   vertex 22.972632246612214 29.9984 0
   vertex 22.972632246612214 29.9984 0.4
   vertex 23.01542284893943 29.9984 0.4
  endloop
 endfacet
 facet normal 1.0 0.0 0.0
  outer loop
   vertex 22.972632246612214 29.9984 0
   vertex 22.972632246612214 30.0016 0
   vertex 22.972632246612214 29.9984 0.4
  endloop
 endfacet
 facet normal 1.0 0.0 -0.0
  outer loop
   vertex 22.972632246612214 30.0016 0
   vertex 22.972632246612214 30.0016 0.4
   vertex 22.972632246612214 29.9984 0.4
  endloop
 endfacet
 facet normal 0.0 -1.0 0.0
  outer loop
   vertex 22.972632246612214 30.0016 0
   vertex 23.01542284893943 30.0016 0
   vertex 22.972632246612214 30.0016 0.4
  endloop
 endfacet
 facet normal 0.0 -1.0 0.0
  outer loop
   vertex 23.01542284893943 30.0016 0
   vertex 23.01542284893943 30.0016 0.4
   vertex 22.972632246612214 30.0016 0.4
  endloop
 endfacet
 facet normal -1.0 0.0 0.0
  outer loop
   vertex 23.01542284893943 30.0016 0
   vertex 23.01542284893943 29.9984 0
   vertex 23.01542284893943 30.0016 0.4
  endloop
 endfacet
 facet normal -1.0 0.0 0.0
  outer loop
   vertex 23.01542284893943 29.9984 0
   vertex 23.01542284893943 29.9984 0.4
   vertex 23.01542284893943 30.0016 0.4
  endloop
 endfacet
 facet normal -0.0 0.0 1.0
  outer loop
   vertex 1.5987263841680686 28.400000000000002 0.4
   vertex 44.38932871138358 28.4 0.4
   vertex 23.01542284893943 29.9984 0.4
  endloop
 endfacet
 facet normal -0.0 0.0 1.0
  outer loop
   vertex 22.972632246612214 29.9984 0.4
   vertex 1.5987263841680686 28.400000000000002 0.4
   vertex 23.01542284893943 29.9984 0.4
  endloop
 endfacet
 facet normal 0.0 0.0 1.0
  outer loop
   vertex 1.5987263841680686 31.6 0.4
   vertex 1.5987263841680686 28.400000000000002 0.4
   vertex 22.972632246612214 29.9984 0.4
  endloop
 endfacet
 facet normal 0.0 0.0 1.0
  outer loop
   vertex 22.972632246612214 30.0016 0.4
   vertex 1.5987263841680686 31.6 0.4
   vertex 22.972632246612214 29.9984 0.4
  endloop
 endfacet
 facet normal 0.0 0.0 1.0
  outer loop
   vertex 44.38932871138358 31.599999999999998 0.4
   vertex 1.5987263841680686 31.6 0.4
   vertex 22.972632246612214 30.0016 0.4
  endloop
 endfacet
 facet normal 0.0 -0.0 1.0
  outer loop
   vertex 23.01542284893943 30.0016 0.4
   vertex 44.38932871138358 31.599999999999998 0.4
   vertex 22.972632246612214 30.0016 0.4
  endloop
 endfacet
 facet normal 0.0 -0.0 1.0
  outer loop
   vertex 44.38932871138358 28.4 0.4
   vertex 44.38932871138358 31.599999999999998 0.4
   vertex 23.01542284893943 30.0016 0.4
  endloop
 endfacet
 facet normal -0.0 0.0 1.0
  outer loop
   vertex 23.01542284893943 29.9984 0.4
   vertex 44.38932871138358 28.4 0.4
   vertex 23.01542284893943 30.0016 0.4
  endloop
 endfacet
 facet normal 0.0 0.0 -1.0
  outer loop
   vertex 44.410670273997965 1.6 0
   vertex 44.38932871138358 28.4 0
   vertex 45.998410670274 14.986599999999997 0
  endloop
 endfacet
 facet normal 0.0 0.0 -1.0
  outer loop
   vertex 44.38932871138358 28.4 0
   vertex 45.99838932871138 15.0134 0
   vertex 45.998410670274 14.986599999999997 0
  endloop
 endfacet
 facet normal 0.0 0.0 -1.0
  outer loop
   vertex 44.38932871138358 28.4 0
   vertex 47.58932972600203 28.4 0
   vertex 45.99838932871138 15.0134 0
  endloop
 endfacet
 facet normal 0.0 0.0 -1.0
  outer loop
   vertex 47.58932972600203 28.4 0
   vertex 46.001589329725995 15.0134 0
   vertex 45.99838932871138 15.0134 0
  endloop
 endfacet
 facet normal 0.0 -0.0 -1.0
  outer loop
   vertex 47.58932972600203 28.4 0
   vertex 47.610671288616416 1.6 0
   vertex 46.001589329725995 15.0134 0
  endloop
 endfacet
 facet normal 0.0 0.0 -1.0
  outer loop
   vertex 47.610671288616416 1.6 0
   vertex 46.00161067128861 14.986599999999997 0
   vertex 46.001589329725995 15.0134 0
  endloop
 endfacet
 facet normal 0.0 0.0 -1.0
  outer loop
   vertex 47.610671288616416 1.6 0
   vertex 44.410670273997965 1.6 0
   vertex 46.00161067128861 14.986599999999997 0
  endloop
 endfacet
 facet normal 0.0 0.0 -1.0
  outer loop
   vertex 44.410670273997965 1.6 0
   vertex 45.998410670274 14.986599999999997 0
   vertex 46.00161067128861 14.986599999999997 0
  endloop
 endfacet
 facet normal -0.9999996829318347 -0.0007963267107335211 0.0
  outer loop
   vertex 44.38932871138358 28.4 0
   vertex 44.410670273997965 1.6 0
   vertex 44.410670273997965 1.6 0.4
  endloop
 endfacet
 facet normal -0.9999996829318347 -0.0007963267107335211 -0.0
  outer loop
   vertex 44.38932871138358 28.4 0.4
   vertex 44.38932871138358 28.4 0
   vertex 44.410670273997965 1.6 0.4
  endloop
 endfacet
 facet normal 0.0 1.0 0.0
  outer loop
   vertex 47.58932972600203 28.4 0
   vertex 44.38932871138358 28.4 0
   vertex 44.38932871138358 28.4 0.4
  endloop
 endfacet
 facet normal 0.0 1.0 0.0
  outer loop
   vertex 47.58932972600203 28.4 0.4
   vertex 47.58932972600203 28.4 0
   vertex 44.38932871138358 28.4 0.4
  endloop
 endfacet
 facet normal 0.9999996829318347 0.0007963267107335211 0.0
  outer loop
   vertex 47.610671288616416 1.6 0
   vertex 47.58932972600203 28.4 0
   vertex 47.58932972600203 28.4 0.4
  endloop
 endfacet
 facet normal 0.9999996829318347 0.0007963267107335211 0.0
  outer loop
   vertex 47.610671288616416 1.6 0.4
   vertex 47.610671288616416 1.6 0
   vertex 47.58932972600203 28.4 0.4
  endloop
 endfacet
 facet normal 0.0 -1.0 0.0
  outer loop
   vertex 44.410670273997965 1.6 0
   vertex 47.610671288616416 1.6 0
   vertex 47.610671288616416 1.6 0.4
  endloop
 endfacet
 facet normal 0.0 -1.0 0.0
  outer loop
   vertex 44.410670273997965 1.6 0.4
   vertex 44.410670273997965 1.6 0
   vertex 47.610671288616416 1.6 0.4
  endloop
 endfacet
 facet normal 0.9999996829318346 0.0007963267107527782 -0.0
  outer loop
   vertex 45.998410670274 14.986599999999997 0
   vertex 45.99838932871138 15.0134 0
   vertex 45.998410670274 14.986599999999997 0.4
  endloop
 endfacet
 facet normal 0.9999996829318346 0.0007963267107527782 -0.0
  outer loop
   vertex 45.99838932871138 15.0134 0
   vertex 45.99838932871138 15.0134 0.4
   vertex 45.998410670274 14.986599999999997 0.4
  endloop
 endfacet
 facet normal 0.0 -1.0 0.0
  outer loop
   vertex 45.99838932871138 15.0134 0
   vertex 46.001589329725995 15.0134 0
   vertex 45.99838932871138 15.0134 0.4
  endloop
 endfacet
 facet normal 0.0 -1.0 0.0
  outer loop
   vertex 46.001589329725995 15.0134 0
   vertex 46.001589329725995 15.0134 0.4
   vertex 45.99838932871138 15.0134 0.4
  endloop
 endfacet
 facet normal -0.9999996829318346 -0.0007963267107527782 0.0
  outer loop
   vertex 46.001589329725995 15.0134 0
   vertex 46.00161067128861 14.986599999999997 0
   vertex 46.001589329725995 15.0134 0.4
  endloop
 endfacet
 facet normal -0.9999996829318346 -0.0007963267107527782 0.0
  outer loop
   vertex 46.00161067128861 14.986599999999997 0
   vertex 46.00161067128861 14.986599999999997 0.4
   vertex 46.001589329725995 15.0134 0.4
  endloop
 endfacet
 facet normal 0.0 1.0 -0.0
  outer loop
   vertex 46.00161067128861 14.986599999999997 0
   vertex 45.998410670274 14.986599999999997 0
   vertex 46.00161067128861 14.986599999999997 0.4
  endloop
 endfacet
 facet normal 0.0 1.0 0.0
  outer loop
   vertex 45.998410670274 14.986599999999997 0
   vertex 45.998410670274 14.986599999999997 0.4
   vertex 46.00161067128861 14.986599999999997 0.4
  endloop
 endfacet
 facet normal 0.0 0.0 1.0
  outer loop
   vertex 44.38932871138358 28.4 0.4
   vertex 44.410670273997965 1.6 0.4
   vertex 45.998410670274 14.986599999999997 0.4
  endloop
 endfacet
 facet normal 0.0 0.0 1.0
  outer loop
   vertex 45.99838932871138 15.0134 0.4
   vertex 44.38932871138358 28.4 0.4
   vertex 45.998410670274 14.986599999999997 0.4
  endloop
 endfacet
 facet normal 0.0 0.0 1.0
  outer loop
   vertex 47.58932972600203 28.4 0.4
   vertex 44.38932871138358 28.4 0.4
   vertex 45.99838932871138 15.0134 0.4
  endloop
 endfacet
 facet normal 0.0 -0.0 1.0
  outer loop
   vertex 46.001589329725995 15.0134 0.4
   vertex 47.58932972600203 28.4 0.4
   vertex 45.99838932871138 15.0134 0.4
  endloop
 endfacet
 facet normal 0.0 0.0 1.0
  outer loop
   vertex 47.610671288616416 1.6 0.4
   vertex 47.58932972600203 28.4 0.4
   vertex 46.001589329725995 15.0134 0.4
  endloop
 endfacet
 facet normal -0.0 -0.0 1.0
  outer loop
   vertex 46.00161067128861 14.986599999999997 0.4
   vertex 47.610671288616416 1.6 0.4
   vertex 46.001589329725995 15.0134 0.4
  endloop
 endfacet
 facet normal 0.0 0.0 1.0
  outer loop
   vertex 44.410670273997965 1.6 0.4
   vertex 47.610671288616416 1.6 0.4
   vertex 46.00161067128861 14.986599999999997 0.4
  endloop
 endfacet
 facet normal -0.0 0.0 1.0
  outer loop
   vertex 45.998410670274 14.986599999999997 0.4
   vertex 44.410670273997965 1.6 0.4
   vertex 46.00161067128861 14.986599999999997 0.4
  endloop
 endfacet
 facet normal 0.0 0.0 -1.0
  outer loop
   vertex 44.38932871138358 31.599999999999998 0
   vertex 44.410670273997965 58.400000000000006 0
   vertex 45.99838932871138 44.9866 0
  endloop
 endfacet
 facet normal 0.0 0.0 -1.0
  outer loop
   vertex 44.410670273997965 58.400000000000006 0
   vertex 45.998410670274 45.013400000000004 0
   vertex 45.99838932871138 44.9866 0
  endloop
 endfacet
 facet normal 0.0 0.0 -1.0
  outer loop
   vertex 44.410670273997965 58.400000000000006 0
   vertex 47.610671288616416 58.400000000000006 0
   vertex 45.998410670274 45.013400000000004 0
  endloop
 endfacet
 facet normal 0.0 0.0 -1.0
  outer loop
   vertex 47.610671288616416 58.400000000000006 0
   vertex 46.00161067128861 45.013400000000004 0
   vertex 45.998410670274 45.013400000000004 0
  endloop
 endfacet
 facet normal 0.0 0.0 -1.0
  outer loop
   vertex 47.610671288616416 58.400000000000006 0
   vertex 47.58932972600203 31.599999999999998 0
   vertex 46.00161067128861 45.013400000000004 0
  endloop
 endfacet
 facet normal 0.0 0.0 -1.0
  outer loop
   vertex 47.58932972600203 31.599999999999998 0
   vertex 46.001589329725995 44.9866 0
   vertex 46.00161067128861 45.013400000000004 0
  endloop
 endfacet
 facet normal 0.0 0.0 -1.0
  outer loop
   vertex 47.58932972600203 31.599999999999998 0
   vertex 44.38932871138358 31.599999999999998 0
   vertex 46.001589329725995 44.9866 0
  endloop
 endfacet
 facet normal 0.0 0.0 -1.0
  outer loop
   vertex 44.38932871138358 31.599999999999998 0
   vertex 45.99838932871138 44.9866 0
   vertex 46.001589329725995 44.9866 0
  endloop
 endfacet
 facet normal -0.9999996829318347 0.0007963267107335207 0.0
  outer loop
   vertex 44.410670273997965 58.400000000000006 0
   vertex 44.38932871138358 31.599999999999998 0
   vertex 44.38932871138358 31.599999999999998 0.4
  endloop
 endfacet
 facet normal -0.9999996829318347 0.0007963267107335207 0.0
  outer loop
   vertex 44.410670273997965 58.400000000000006 0.4
   vertex 44.410670273997965 58.400000000000006 0
   vertex 44.38932871138358 31.599999999999998 0.4
  endloop
 endfacet
 facet normal 0.0 1.0 0.0
  outer loop
   vertex 47.610671288616416 58.400000000000006 0
   vertex 44.410670273997965 58.400000000000006 0
   vertex 44.410670273997965 58.400000000000006 0.4
  endloop
 endfacet
 facet normal 0.0 1.0 0.0
  outer loop
   vertex 47.610671288616416 58.400000000000006 0.4
   vertex 47.610671288616416 58.400000000000006 0
   vertex 44.410670273997965 58.400000000000006 0.4
  endloop
 endfacet
 facet normal 0.9999996829318347 -0.0007963267107335207 0.0
  outer loop
   vertex 47.58932972600203 31.599999999999998 0
   vertex 47.610671288616416 58.400000000000006 0
   vertex 47.610671288616416 58.400000000000006 0.4
  endloop
 endfacet
 facet normal 0.9999996829318347 -0.0007963267107335207 0.0
  outer loop
   vertex 47.58932972600203 31.599999999999998 0.4
   vertex 47.58932972600203 31.599999999999998 0
   vertex 47.610671288616416 58.400000000000006 0.4
  endloop
 endfacet
 facet normal 0.0 -1.0 0.0
  outer loop
   vertex 44.38932871138358 31.599999999999998 0
   vertex 47.58932972600203 31.599999999999998 0
   vertex 47.58932972600203 31.599999999999998 0.4
  endloop
 endfacet
 facet normal 0.0 -1.0 0.0
  outer loop
   vertex 44.38932871138358 31.599999999999998 0.4
   vertex 44.38932871138358 31.599999999999998 0
   vertex 47.58932972600203 31.599999999999998 0.4
  endloop
 endfacet
 facet normal 0.9999996829318346 -0.0007963267107528309 0.0
  outer loop
   vertex 45.99838932871138 44.9866 0
   vertex 45.998410670274 45.013400000000004 0
   vertex 45.99838932871138 44.9866 0.4
  endloop
 endfacet
 facet normal 0.9999996829318346 -0.0007963267107528309 0.0
  outer loop
   vertex 45.998410670274 45.013400000000004 0
   vertex 45.998410670274 45.013400000000004 0.4
   vertex 45.99838932871138 44.9866 0.4
  endloop
 endfacet
 facet normal 0.0 -1.0 0.0
  outer loop
   vertex 45.998410670274 45.013400000000004 0
   vertex 46.00161067128861 45.013400000000004 0
   vertex 45.998410670274 45.013400000000004 0.4
  endloop
 endfacet
 facet normal 0.0 -1.0 0.0
  outer loop
   vertex 46.00161067128861 45.013400000000004 0
   vertex 46.00161067128861 45.013400000000004 0.4
   vertex 45.998410670274 45.013400000000004 0.4
  endloop
 endfacet
 facet normal -0.9999996829318346 0.0007963267107528309 0.0
  outer loop
   vertex 46.00161067128861 45.013400000000004 0
   vertex 46.001589329725995 44.9866 0
   vertex 46.00161067128861 45.013400000000004 0.4
  endloop
 endfacet
 facet normal -0.9999996829318346 0.0007963267107528309 0.0
  outer loop
   vertex 46.001589329725995 44.9866 0
   vertex 46.001589329725995 44.9866 0.4
   vertex 46.00161067128861 45.013400000000004 0.4
  endloop
 endfacet
 facet normal 0.0 1.0 -0.0
  outer loop
   vertex 46.001589329725995 44.9866 0
   vertex 45.99838932871138 44.9866 0
   vertex 46.001589329725995 44.9866 0.4
  endloop
 endfacet
 facet normal 0.0 1.0 0.0
  outer loop
   vertex 45.99838932871138 44.9866 0
   vertex 45.99838932871138 44.9866 0.4
   vertex 46.001589329725995 44.9866 0.4
  endloop
 endfacet
 facet normal 0.0 0.0 1.0
  outer loop
   vertex 44.410670273997965 58.400000000000006 0.4
   vertex 44.38932871138358 31.599999999999998 0.4
   vertex 45.99838932871138 44.9866 0.4
  endloop
 endfacet
 facet normal 0.0 0.0 1.0
  outer loop
   vertex 45.998410670274 45.013400000000004 0.4
   vertex 44.410670273997965 58.400000000000006 0.4
   vertex 45.99838932871138 44.9866 0.4
  endloop
 endfacet
 facet normal 0.0 0.0 1.0
  outer loop
   vertex 47.610671288616416 58.400000000000006 0.4
   vertex 44.410670273997965 58.400000000000006 0.4
   vertex 45.998410670274 45.013400000000004 0.4
  endloop
 endfacet
 facet normal 0.0 -0.0 1.0
  outer loop
   vertex 46.00161067128861 45.013400000000004 0.4
   vertex 47.610671288616416 58.400000000000006 0.4
   vertex 45.998410670274 45.013400000000004 0.4
  endloop
 endfacet
 facet normal 0.0 -0.0 1.0
  outer loop
   vertex 47.58932972600203 31.599999999999998 0.4
   vertex 47.610671288616416 58.400000000000006 0.4
   vertex 46.00161067128861 45.013400000000004 0.4
  endloop
 endfacet
 facet normal -0.0 0.0 1.0
  outer loop
   vertex 46.001589329725995 44.9866 0.4
   vertex 47.58932972600203 31.599999999999998 0.4
   vertex 46.00161067128861 45.013400000000004 0.4
  endloop
 endfacet
 facet normal 0.0 0.0 1.0
  outer loop
   vertex 44.38932871138358 31.599999999999998 0.4
   vertex 47.58932972600203 31.599999999999998 0.4
   vertex 46.001589329725995 44.9866 0.4
  endloop
 endfacet
 facet normal -0.0 0.0 1.0
  outer loop
   vertex 45.99838932871138 44.9866 0.4
   vertex 44.38932871138358 31.599999999999998 0.4
   vertex 46.001589329725995 44.9866 0.4
  endloop
 endfacet
 facet normal 0.0 0.0 -1.0
  outer loop
   vertex 74.39872536954961 28.4 0
   vertex 47.58932972600203 28.4 0
   vertex 61.00743224559759 29.998399999999997 0
  endloop
 endfacet
 facet normal 0.0 0.0 -1.0
  outer loop
   vertex 47.58932972600203 28.4 0
   vertex 60.980622849954045 29.998399999999997 0
   vertex 61.00743224559759 29.998399999999997 0
  endloop
 endfacet
 facet normal 0.0 0.0 -1.0
  outer loop
   vertex 47.58932972600203 28.4 0
   vertex 47.58932972600203 31.599999999999998 0
   vertex 60.980622849954045 29.998399999999997 0
  endloop
 endfacet
 facet normal 0.0 0.0 -1.0
  outer loop
   vertex 47.58932972600203 31.599999999999998 0
   vertex 60.980622849954045 30.0016 0
   vertex 60.980622849954045 29.998399999999997 0
  endloop
 endfacet
 facet normal 0.0 0.0 -1.0
  outer loop
   vertex 47.58932972600203 31.599999999999998 0
   vertex 74.39872536954961 31.599999999999998 0
   vertex 60.980622849954045 30.0016 0
  endloop
 endfacet
 facet normal 0.0 0.0 -1.0
  outer loop
   vertex 74.39872536954961 31.599999999999998 0
   vertex 61.00743224559759 30.0016 0
   vertex 60.980622849954045 30.0016 0
  endloop
 endfacet
 facet normal 0.0 -0.0 -1.0
  outer loop
   vertex 74.39872536954961 31.599999999999998 0
   vertex 74.39872536954961 28.4 0
   vertex 61.00743224559759 30.0016 0
  endloop
 endfacet
 facet normal 0.0 0.0 -1.0
  outer loop
   vertex 74.39872536954961 28.4 0
   vertex 61.00743224559759 29.998399999999997 0
   vertex 61.00743224559759 30.0016 0
  endloop
 endfacet
 facet normal 0.0 -1.0 0.0
  outer loop
   vertex 47.58932972600203 28.4 0
   vertex 74.39872536954961 28.4 0
   vertex 74.39872536954961 28.4 0.4
  endloop
 endfacet
 facet normal 0.0 -1.0 0.0
  outer loop
   vertex 47.58932972600203 28.4 0.4
   vertex 47.58932972600203 28.4 0
   vertex 74.39872536954961 28.4 0.4
  endloop
 endfacet
 facet normal -1.0 0.0 0.0
  outer loop
   vertex 47.58932972600203 31.599999999999998 0
   vertex 47.58932972600203 28.4 0
   vertex 47.58932972600203 28.4 0.4
  endloop
 endfacet
 facet normal -1.0 -0.0 -0.0
  outer loop
   vertex 47.58932972600203 31.599999999999998 0.4
   vertex 47.58932972600203 31.599999999999998 0
   vertex 47.58932972600203 28.4 0.4
  endloop
 endfacet
 facet normal 0.0 1.0 0.0
  outer loop
   vertex 74.39872536954961 31.599999999999998 0
   vertex 47.58932972600203 31.599999999999998 0
   vertex 47.58932972600203 31.599999999999998 0.4
  endloop
 endfacet
 facet normal 0.0 1.0 0.0
  outer loop
   vertex 74.39872536954961 31.599999999999998 0.4
   vertex 74.39872536954961 31.599999999999998 0
   vertex 47.58932972600203 31.599999999999998 0.4
  endloop
 endfacet
 facet normal 1.0 0.0 0.0
  outer loop
   vertex 74.39872536954961 28.4 0
   vertex 74.39872536954961 31.599999999999998 0
   vertex 74.39872536954961 31.599999999999998 0.4
  endloop
 endfacet
 facet normal 1.0 -0.0 0.0
  outer loop
   vertex 74.39872536954961 28.4 0.4
   vertex 74.39872536954961 28.4 0
   vertex 74.39872536954961 31.599999999999998 0.4
  endloop
 endfacet
 facet normal 0.0 1.0 -0.0
  outer loop
   vertex 61.00743224559759 29.998399999999997 0
   vertex 60.980622849954045 29.998399999999997 0
   vertex 61.00743224559759 29.998399999999997 0.4
  endloop
 endfacet
 facet normal 0.0 1.0 0.0
  outer loop
   vertex 60.980622849954045 29.998399999999997 0
   vertex 60.980622849954045 29.998399999999997 0.4
   vertex 61.00743224559759 29.998399999999997 0.4
  endloop
 endfacet
 facet normal 1.0 0.0 0.0
  outer loop
   vertex 60.980622849954045 29.998399999999997 0
   vertex 60.980622849954045 30.0016 0
   vertex 60.980622849954045 29.998399999999997 0.4
  endloop
 endfacet
 facet normal 1.0 0.0 -0.0
  outer loop
   vertex 60.980622849954045 30.0016 0
   vertex 60.980622849954045 30.0016 0.4
   vertex 60.980622849954045 29.998399999999997 0.4
  endloop
 endfacet
 facet normal 0.0 -1.0 0.0
  outer loop
   vertex 60.980622849954045 30.0016 0
   vertex 61.00743224559759 30.0016 0
   vertex 60.980622849954045 30.0016 0.4
  endloop
 endfacet
 facet normal 0.0 -1.0 0.0
  outer loop
   vertex 61.00743224559759 30.0016 0
   vertex 61.00743224559759 30.0016 0.4
   vertex 60.980622849954045 30.0016 0.4
  endloop
 endfacet
 facet normal -1.0 0.0 0.0
  outer loop
   vertex 61.00743224559759 30.0016 0
   vertex 61.00743224559759 29.998399999999997 0
   vertex 61.00743224559759 30.0016 0.4
  endloop
 endfacet
 facet normal -1.0 0.0 0.0
  outer loop
   vertex 61.00743224559759 29.998399999999997 0
   vertex 61.00743224559759 29.998399999999997 0.4
   vertex 61.00743224559759 30.0016 0.4
  endloop
 endfacet
 facet normal 0.0 0.0 1.0
  outer loop
   vertex 47.58932972600203 28.4 0.4
   vertex 74.39872536954961 28.4 0.4
   vertex 61.00743224559759 29.998399999999997 0.4
  endloop
 endfacet
 facet normal -0.0 0.0 1.0
  outer loop
   vertex 60.980622849954045 29.998399999999997 0.4
   vertex 47.58932972600203 28.4 0.4
   vertex 61.00743224559759 29.998399999999997 0.4
  endloop
 endfacet
 facet normal 0.0 0.0 1.0
  outer loop
   vertex 47.58932972600203 31.599999999999998 0.4
   vertex 47.58932972600203 28.4 0.4
   vertex 60.980622849954045 29.998399999999997 0.4
  endloop
 endfacet
 facet normal 0.0 0.0 1.0
  outer loop
   vertex 60.980622849954045 30.0016 0.4
   vertex 47.58932972600203 31.599999999999998 0.4
   vertex 60.980622849954045 29.998399999999997 0.4
  endloop
 endfacet
 facet normal 0.0 0.0 1.0
  outer loop
   vertex 74.39872536954961 31.599999999999998 0.4
   vertex 47.58932972600203 31.599999999999998 0.4
   vertex 60.980622849954045 30.0016 0.4
  endloop
 endfacet
 facet normal 0.0 -0.0 1.0
  outer loop
   vertex 61.00743224559759 30.0016 0.4
   vertex 74.39872536954961 31.599999999999998 0.4
   vertex 60.980622849954045 30.0016 0.4
  endloop
 endfacet
 facet normal 0.0 -0.0 1.0
  outer loop
   vertex 74.39872536954961 28.4 0.4
   vertex 74.39872536954961 31.599999999999998 0.4
   vertex 61.00743224559759 30.0016 0.4
  endloop
 endfacet
 facet normal -0.0 0.0 1.0
  outer loop
   vertex 61.00743224559759 29.998399999999997 0.4
   vertex 74.39872536954961 28.4 0.4
   vertex 61.00743224559759 30.0016 0.4
  endloop
 endfacet
 facet normal 0.0 0.0 -1.0
  outer loop
   vertex 44.38932871138358 28.4 0
   vertex 1.5987263841680686 28.400000000000002 0
   vertex 23.01542284893943 29.9984 0
  endloop
 endfacet
 facet normal 0.0 0.0 -1.0
  outer loop
   vertex 1.5987263841680686 28.400000000000002 0
   vertex 22.972632246612214 29.9984 0
   vertex 23.01542284893943 29.9984 0
  endloop
 endfacet
 facet normal 0.0 0.0 -1.0
  outer loop
   vertex 1.5987263841680686 28.400000000000002 0
   vertex 1.5987263841680686 31.6 0
   vertex 22.972632246612214 29.9984 0
  endloop
 endfacet
 facet normal 0.0 0.0 -1.0
  outer loop
   vertex 1.5987263841680686 31.6 0
   vertex 22.972632246612214 30.0016 0
   vertex 22.972632246612214 29.9984 0
  endloop
 endfacet
 facet normal 0.0 0.0 -1.0
  outer loop
   vertex 1.5987263841680686 31.6 0
   vertex 44.38932871138358 31.599999999999998 0
   vertex 22.972632246612214 30.0016 0
  endloop
 endfacet
 facet normal 0.0 0.0 -1.0
  outer loop
   vertex 44.38932871138358 31.599999999999998 0
   vertex 23.01542284893943 30.0016 0
   vertex 22.972632246612214 30.0016 0
  endloop
 endfacet
 facet normal 0.0 -0.0 -1.0
  outer loop
   vertex 44.38932871138358 31.599999999999998 0
   vertex 44.38932871138358 28.4 0
   vertex 23.01542284893943 30.0016 0
  endloop
 endfacet
 facet normal 0.0 0.0 -1.0
  outer loop
   vertex 44.38932871138358 28.4 0
   vertex 23.01542284893943 29.9984 0
   vertex 23.01542284893943 30.0016 0
  endloop
 endfacet
 facet normal -8.30255590148802e-17 -1.0 0.0
  outer loop
   vertex 1.5987263841680686 28.400000000000002 0
   vertex 44.38932871138358 28.4 0
   vertex 44.38932871138358 28.4 0.4
  endloop
 endfacet
 facet normal -8.30255590148802e-17 -1.0 -0.0
  outer loop
   vertex 1.5987263841680686 28.400000000000002 0.4
   vertex 1.5987263841680686 28.400000000000002 0
   vertex 44.38932871138358 28.4 0.4
  endloop
 endfacet
 facet normal -1.0 0.0 0.0
  outer loop
   vertex 1.5987263841680686 31.6 0
   vertex 1.5987263841680686 28.400000000000002 0
   vertex 1.5987263841680686 28.400000000000002 0.4
  endloop
 endfacet
 facet normal -1.0 -0.0 -0.0
  outer loop
   vertex 1.5987263841680686 31.6 0.4
   vertex 1.5987263841680686 31.6 0
   vertex 1.5987263841680686 28.400000000000002 0.4
  endloop
 endfacet
 facet normal 8.30255590148802e-17 1.0 0.0
  outer loop
   vertex 44.38932871138358 31.599999999999998 0
   vertex 1.5987263841680686 31.6 0
   vertex 1.5987263841680686 31.6 0.4
  endloop
 endfacet
 facet normal 8.30255590148802e-17 1.0 0.0
  outer loop
   vertex 44.38932871138358 31.599999999999998 0.4
   vertex 44.38932871138358 31.599999999999998 0
   vertex 1.5987263841680686 31.6 0.4
  endloop
 endfacet
 facet normal 1.0 0.0 0.0
  outer loop
   vertex 44.38932871138358 28.4 0
   vertex 44.38932871138358 31.599999999999998 0
   vertex 44.38932871138358 31.599999999999998 0.4
  endloop
 endfacet
 facet normal 1.0 -0.0 0.0
  outer loop
   vertex 44.38932871138358 28.4 0.4
   vertex 44.38932871138358 28.4 0
   vertex 44.38932871138358 31.599999999999998 0.4
  endloop
 endfacet
 facet normal 0.0 1.0 -0.0
  outer loop
   vertex 23.01542284893943 29.9984 0
   vertex 22.972632246612214 29.9984 0
   vertex 23.01542284893943 29.9984 0.4
  endloop
 endfacet
 facet normal 0.0 1.0 0.0
  outer loop
   vertex 22.972632246612214 29.9984 0
   vertex 22.972632246612214 29.9984 0.4
   vertex 23.01542284893943 29.9984 0.4
  endloop
 endfacet
 facet normal 1.0 0.0 0.0
  outer loop
   vertex 22.972632246612214 29.9984 0
   vertex 22.972632246612214 30.0016 0
   vertex 22.972632246612214 29.9984 0.4
  endloop
 endfacet
 facet normal 1.0 0.0 -0.0
  outer loop
   vertex 22.972632246612214 30.0016 0
   vertex 22.972632246612214 30.0016 0.4
   vertex 22.972632246612214 29.9984 0.4
  endloop
 endfacet
 facet normal 0.0 -1.0 0.0
  outer loop
   vertex 22.972632246612214 30.0016 0
   vertex 23.01542284893943 30.0016 0
   vertex 22.972632246612214 30.0016 0.4
  endloop
 endfacet
 facet normal 0.0 -1.0 0.0
  outer loop
   vertex 23.01542284893943 30.0016 0
   vertex 23.01542284893943 30.0016 0.4
   vertex 22.972632246612214 30.0016 0.4
  endloop
 endfacet
 facet normal -1.0 0.0 0.0
  outer loop
   vertex 23.01542284893943 30.0016 0
   vertex 23.01542284893943 29.9984 0
   vertex 23.01542284893943 30.0016 0.4
  endloop
 endfacet
 facet normal -1.0 0.0 0.0
  outer loop
   vertex 23.01542284893943 29.9984 0
   vertex 23.01542284893943 29.9984 0.4
   vertex 23.01542284893943 30.0016 0.4
  endloop
 endfacet
 facet normal -0.0 0.0 1.0
  outer loop
   vertex 1.5987263841680686 28.400000000000002 0.4
   vertex 44.38932871138358 28.4 0.4
   vertex 23.01542284893943 29.9984 0.4
  endloop
 endfacet
 facet normal -0.0 0.0 1.0
  outer loop
   vertex 22.972632246612214 29.9984 0.4
   vertex 1.5987263841680686 28.400000000000002 0.4
   vertex 23.01542284893943 29.9984 0.4
  endloop
 endfacet
 facet normal 0.0 0.0 1.0
  outer loop
   vertex 1.5987263841680686 31.6 0.4
   vertex 1.5987263841680686 28.400000000000002 0.4
   vertex 22.972632246612214 29.9984 0.4
  endloop
 endfacet
 facet normal 0.0 0.0 1.0
  outer loop
   vertex 22.972632246612214 30.0016 0.4
   vertex 1.5987263841680686 31.6 0.4
   vertex 22.972632246612214 29.9984 0.4
  endloop
 endfacet
 facet normal 0.0 0.0 1.0
  outer loop
   vertex 44.38932871138358 31.599999999999998 0.4
   vertex 1.5987263841680686 31.6 0.4
   vertex 22.972632246612214 30.0016 0.4
  endloop
 endfacet
 facet normal 0.0 -0.0 1.0
  outer loop
   vertex 23.01542284893943 30.0016 0.4
   vertex 44.38932871138358 31.599999999999998 0.4
   vertex 22.972632246612214 30.0016 0.4
  endloop
 endfacet
 facet normal 0.0 -0.0 1.0
  outer loop
   vertex 44.38932871138358 28.4 0.4
   vertex 44.38932871138358 31.599999999999998 0.4
   vertex 23.01542284893943 30.0016 0.4
  endloop
 endfacet
 facet normal -0.0 0.0 1.0
  outer loop
   vertex 23.01542284893943 29.9984 0.4
   vertex 44.38932871138358 28.4 0.4
   vertex 23.01542284893943 30.0016 0.4
  endloop
 endfacet
 facet normal 0.0 0.0 -1.0
  outer loop
   vertex 74.39872536954961 28.4 0
   vertex 47.58932972600203 28.4 0
   vertex 61.00743224559759 29.998399999999997 0
  endloop
 endfacet
 facet normal 0.0 0.0 -1.0
  outer loop
   vertex 47.58932972600203 28.4 0
   vertex 60.980622849954045 29.998399999999997 0
   vertex 61.00743224559759 29.998399999999997 0
  endloop
 endfacet
 facet normal 0.0 0.0 -1.0
  outer loop
   vertex 47.58932972600203 28.4 0
   vertex 47.58932972600203 31.599999999999998 0
   vertex 60.980622849954045 29.998399999999997 0
  endloop
 endfacet
 facet normal 0.0 0.0 -1.0
  outer loop
   vertex 47.58932972600203 31.599999999999998 0
   vertex 60.980622849954045 30.0016 0
   vertex 60.980622849954045 29.998399999999997 0
  endloop
 endfacet
 facet normal 0.0 0.0 -1.0
  outer loop
   vertex 47.58932972600203 31.599999999999998 0
   vertex 74.39872536954961 31.599999999999998 0
   vertex 60.980622849954045 30.0016 0
  endloop
 endfacet
 facet normal 0.0 0.0 -1.0
  outer loop
   vertex 74.39872536954961 31.599999999999998 0
   vertex 61.00743224559759 30.0016 0
   vertex 60.980622849954045 30.0016 0
  endloop
 endfacet
 facet normal 0.0 -0.0 -1.0
  outer loop
   vertex 74.39872536954961 31.599999999999998 0
   vertex 74.39872536954961 28.4 0
   vertex 61.00743224559759 30.0016 0
  endloop
 endfacet
 facet normal 0.0 0.0 -1.0
  outer loop
   vertex 74.39872536954961 28.4 0
   vertex 61.00743224559759 29.998399999999997 0
   vertex 61.00743224559759 30.0016 0
  endloop
 endfacet
 facet normal 0.0 -1.0 0.0
  outer loop
   vertex 47.58932972600203 28.4 0
   vertex 74.39872536954961 28.4 0
   vertex 74.39872536954961 28.4 0.4
  endloop
 endfacet
 facet normal 0.0 -1.0 0.0
  outer loop
   vertex 47.58932972600203 28.4 0.4
   vertex 47.58932972600203 28.4 0
   vertex 74.39872536954961 28.4 0.4
  endloop
 endfacet
 facet normal -1.0 0.0 0.0
  outer loop
   vertex 47.58932972600203 31.599999999999998 0
   vertex 47.58932972600203 28.4 0
   vertex 47.58932972600203 28.4 0.4
  endloop
 endfacet
 facet normal -1.0 -0.0 -0.0
  outer loop
   vertex 47.58932972600203 31.599999999999998 0.4
   vertex 47.58932972600203 31.599999999999998 0
   vertex 47.58932972600203 28.4 0.4
  endloop
 endfacet
 facet normal 0.0 1.0 0.0
  outer loop
   vertex 74.39872536954961 31.599999999999998 0
   vertex 47.58932972600203 31.599999999999998 0
   vertex 47.58932972600203 31.599999999999998 0.4
  endloop
 endfacet
 facet normal 0.0 1.0 0.0
  outer loop
   vertex 74.39872536954961 31.599999999999998 0.4
   vertex 74.39872536954961 31.599999999999998 0
   vertex 47.58932972600203 31.599999999999998 0.4
  endloop
 endfacet
 facet normal 1.0 0.0 0.0
  outer loop
   vertex 74.39872536954961 28.4 0
   vertex 74.39872536954961 31.599999999999998 0
   vertex 74.39872536954961 31.599999999999998 0.4
  endloop
 endfacet
 facet normal 1.0 -0.0 0.0
  outer loop
   vertex 74.39872536954961 28.4 0.4
   vertex 74.39872536954961 28.4 0
   vertex 74.39872536954961 31.599999999999998 0.4
  endloop
 endfacet
 facet normal 0.0 1.0 -0.0
  outer loop
   vertex 61.00743224559759 29.998399999999997 0
   vertex 60.980622849954045 29.998399999999997 0
   vertex 61.00743224559759 29.998399999999997 0.4
  endloop
 endfacet
 facet normal 0.0 1.0 0.0
  outer loop
   vertex 60.980622849954045 29.998399999999997 0
   vertex 60.980622849954045 29.998399999999997 0.4
   vertex 61.00743224559759 29.998399999999997 0.4
  endloop
 endfacet
 facet normal 1.0 0.0 0.0
  outer loop
   vertex 60.980622849954045 29.998399999999997 0
   vertex 60.980622849954045 30.0016 0
   vertex 60.980622849954045 29.998399999999997 0.4
  endloop
 endfacet
 facet normal 1.0 0.0 -0.0
  outer loop
   vertex 60.980622849954045 30.0016 0
   vertex 60.980622849954045 30.0016 0.4
   vertex 60.980622849954045 29.998399999999997 0.4
  endloop
 endfacet
 facet normal 0.0 -1.0 0.0
  outer loop
   vertex 60.980622849954045 30.0016 0
   vertex 61.00743224559759 30.0016 0
   vertex 60.980622849954045 30.0016 0.4
  endloop
 endfacet
 facet normal 0.0 -1.0 0.0
  outer loop
   vertex 61.00743224559759 30.0016 0
   vertex 61.00743224559759 30.0016 0.4
   vertex 60.980622849954045 30.0016 0.4
  endloop
 endfacet
 facet normal -1.0 0.0 0.0
  outer loop
   vertex 61.00743224559759 30.0016 0
   vertex 61.00743224559759 29.998399999999997 0
   vertex 61.00743224559759 30.0016 0.4
  endloop
 endfacet
 facet normal -1.0 0.0 0.0
  outer loop
   vertex 61.00743224559759 29.998399999999997 0
   vertex 61.00743224559759 29.998399999999997 0.4
   vertex 61.00743224559759 30.0016 0.4
  endloop
 endfacet
 facet normal 0.0 0.0 1.0
  outer loop
   vertex 47.58932972600203 28.4 0.4
   vertex 74.39872536954961 28.4 0.4
   vertex 61.00743224559759 29.998399999999997 0.4
  endloop
 endfacet
 facet normal -0.0 0.0 1.0
  outer loop
   vertex 60.980622849954045 29.998399999999997 0.4
   vertex 47.58932972600203 28.4 0.4
   vertex 61.00743224559759 29.998399999999997 0.4
  endloop
 endfacet
 facet normal 0.0 0.0 1.0
  outer loop
   vertex 47.58932972600203 31.599999999999998 0.4
   vertex 47.58932972600203 28.4 0.4
   vertex 60.980622849954045 29.998399999999997 0.4
  endloop
 endfacet
 facet normal 0.0 0.0 1.0
  outer loop
   vertex 60.980622849954045 30.0016 0.4
   vertex 47.58932972600203 31.599999999999998 0.4
   vertex 60.980622849954045 29.998399999999997 0.4
  endloop
 endfacet
 facet normal 0.0 0.0 1.0
  outer loop
   vertex 74.39872536954961 31.599999999999998 0.4
   vertex 47.58932972600203 31.599999999999998 0.4
   vertex 60.980622849954045 30.0016 0.4
  endloop
 endfacet
 facet normal 0.0 -0.0 1.0
  outer loop
   vertex 61.00743224559759 30.0016 0.4
   vertex 74.39872536954961 31.599999999999998 0.4
   vertex 60.980622849954045 30.0016 0.4
  endloop
 endfacet
 facet normal 0.0 -0.0 1.0
  outer loop
   vertex 74.39872536954961 28.4 0.4
   vertex 74.39872536954961 31.599999999999998 0.4
   vertex 61.00743224559759 30.0016 0.4
  endloop
 endfacet
 facet normal -0.0 0.0 1.0
  outer loop
   vertex 61.00743224559759 29.998399999999997 0.4
   vertex 74.39872536954961 28.4 0.4
   vertex 61.00743224559759 30.0016 0.4
  endloop
 endfacet
endsolid
