solid PyGamic generated __All_Units__ SLA File
 facet normal 0.0 0.0 -1.0
  outer loop
   vertex 0.11840738412174552 18.0 0
   vertex 25.176819178421624 18.0 0
   vertex 9.1640728739178 2.0 0
  endloop
 endfacet
 facet normal 0.0 -0.0 -1.0
  outer loop
   vertex 0.11840738412174552 18.0 0
   vertex 9.1640728739178 2.0 0
   vertex 0.10566615271017443 2.0 0
  endloop
 endfacet
 facet normal 0.0 0.15759057032123278 -0.9875045377849301
  outer loop
   vertex 25.176819178421624 18.0 0
   vertex 0.11840738412174552 18.0 0
   vertex 0.12002438329141772 19.87988 0.3
  endloop
 endfacet
 facet normal 0.0 0.15759057032123275 -0.9875045377849301
  outer loop
   vertex 29.71780773576558 19.87988 0.3
   vertex 25.176819178421624 18.0 0
   vertex 0.12002438329141772 19.87988 0.3
  endloop
 endfacet
 facet normal 0.11138898340780332 -0.11147772077660877 -0.9875045377849302
  outer loop
   vertex 9.1640728739178 2.0 0
   vertex 25.176819178421624 18.0 0
   vertex 29.71780773576558 19.87988 0.3
  endloop
 endfacet
 facet normal 0.11138898340780322 -0.11147772077660868 -0.9875045377849302
  outer loop
   vertex 9.942306240897924 0.12011999999999998 0.3
   vertex 9.1640728739178 2.0 0
   vertex 29.71780773576558 19.87988 0.3
  endloop
 endfacet
 facet normal 0.0 -0.15759057032123275 -0.9875045377849302
  outer loop
   vertex 0.10566615271017443 2.0 0
   vertex 9.1640728739178 2.0 0
   vertex 9.942306240897924 0.12011999999999998 0.3
  endloop
 endfacet
 facet normal 0.0 -0.15759057032123275 -0.9875045377849302
  outer loop
   vertex 0.10428915361659859 0.12011999999999998 0.3
   vertex 0.10566615271017443 2.0 0
   vertex 9.942306240897924 0.12011999999999998 0.3
  endloop
 endfacet
 facet normal -0.9999996029318696 0.0007963266470271345 0.0003999999679999336
  outer loop
   vertex 0.11840738412174552 18.0 0
   vertex 0.10566615271017443 2.0 0
   vertex 0.10428915361659859 0.12011999999999998 0.3
  endloop
 endfacet
 facet normal -0.9999996029318696 0.0007963266470271353 0.0003999999679999756
  outer loop
   vertex 0.12002438329141772 19.87988 0.3
   vertex 0.11840738412174552 18.0 0
   vertex 0.10428915361659859 0.12011999999999998 0.3
  endloop
 endfacet
 facet normal 0.0 0.9999980000059999 -0.0019999959999954966
  outer loop
   vertex 29.71780773576558 19.87988 0.3
   vertex 0.12002438329141772 19.87988 0.3
   vertex 0.0009044410814814823 19.88 0.36
  endloop
 endfacet
 facet normal 0.0 0.999998000006 -0.0019999959999954966
  outer loop
   vertex 29.718097604601294 19.88 0.36
   vertex 29.71780773576558 19.87988 0.3
   vertex 0.0009044410814814823 19.88 0.36
  endloop
 endfacet
 facet normal 0.7068237674592447 -0.7073868543949056 -0.001999996000058261
  outer loop
   vertex 9.942306240897924 0.12011999999999998 0.3
   vertex 29.71780773576558 19.87988 0.3
   vertex 29.718097604601294 19.88 0.36
  endloop
 endfacet
 facet normal 0.7068237674592447 -0.7073868543949057 -0.0019999960000094724
  outer loop
   vertex 9.823261117899323 0.001 0.36
   vertex 9.942306240897924 0.12011999999999998 0.3
   vertex 29.718097604601294 19.88 0.36
  endloop
 endfacet
 facet normal 0.0 -0.4498507732615657 -0.8931037351819616
  outer loop
   vertex 0.10428915361659859 0.12011999999999998 0.3
   vertex 9.942306240897924 0.12011999999999998 0.3
   vertex 9.823261117899323 0.001 0.36
  endloop
 endfacet
 facet normal 0.0 -0.4498507732615657 -0.8931037351819616
  outer loop
   vertex -0.01492574262043236 0.001 0.36
   vertex 0.10428915361659859 0.12011999999999998 0.3
   vertex 9.823261117899323 0.001 0.36
  endloop
 endfacet
 facet normal -0.4498506306282064 0.0003582281865921982 -0.8931037351819615
  outer loop
   vertex 0.12002438329141772 19.87988 0.3
   vertex 0.10428915361659859 0.12011999999999998 0.3
   vertex -0.01492574262043236 0.001 0.36
  endloop
 endfacet
 facet normal -0.4498506306282063 0.0003582281865921976 -0.8931037351819616
  outer loop
   vertex 0.0009044410814814823 19.88 0.36
   vertex 0.12002438329141772 19.87988 0.3
   vertex -0.01492574262043236 0.001 0.36
  endloop
 endfacet
 facet normal -0.0 0.0 1.0
  outer loop
   vertex 0.0009044410814814823 19.88 0.36
   vertex 9.823261117899323 0.001 0.36
   vertex 29.718097604601294 19.88 0.36
  endloop
 endfacet
 facet normal 0.0 0.0 1.0
  outer loop
   vertex 0.0009044410814814823 19.88 0.36
   vertex -0.01492574262043236 0.001 0.36
   vertex 9.823261117899323 0.001 0.36
  endloop
 endfacet
 facet normal 0.0 0.0 -1.0
  outer loop
   vertex 0.0009044410814814823 19.88 0.6
   vertex 29.718097604601294 19.88 0.6
   vertex 9.823261117899323 0.001 0.6
  endloop
 endfacet
 facet normal 0.0 -0.0 -1.0
  outer loop
   vertex 0.0009044410814814823 19.88 0.6
   vertex 9.823261117899323 0.001 0.6
   vertex -0.01492574262043236 0.001 0.6
  endloop
 endfacet
 facet normal 0.0 0.999998000006 0.0019999959999954984
  outer loop
   vertex 29.718097604601294 19.88 0.6
   vertex 0.0009044410814814823 19.88 0.6
   vertex 0.12002438329141772 19.87988 0.6599999999999999
  endloop
 endfacet
 facet normal 0.0 0.999998000006 0.0019999959999954984
  outer loop
   vertex 29.71780773576558 19.87988 0.6599999999999999
   vertex 29.718097604601294 19.88 0.6
   vertex 0.12002438329141772 19.87988 0.6599999999999999
  endloop
 endfacet
 facet normal 0.7068237674592446 -0.7073868543949056 0.0019999960000621083
  outer loop
   vertex 9.823261117899323 0.001 0.6
   vertex 29.718097604601294 19.88 0.6
   vertex 29.71780773576558 19.87988 0.6599999999999999
  endloop
 endfacet
 facet normal 0.7068237674592447 -0.7073868543949056 0.001999996000009018
  outer loop
   vertex 9.942306240897924 0.12011999999999998 0.6599999999999999
   vertex 9.823261117899323 0.001 0.6
   vertex 29.71780773576558 19.87988 0.6599999999999999
  endloop
 endfacet
 facet normal 0.0 -0.44985077326156536 0.8931037351819618
  outer loop
   vertex -0.01492574262043236 0.001 0.6
   vertex 9.823261117899323 0.001 0.6
   vertex 9.942306240897924 0.12011999999999998 0.6599999999999999
  endloop
 endfacet
 facet normal 0.0 -0.44985077326156536 0.8931037351819618
  outer loop
   vertex 0.10428915361659859 0.12011999999999998 0.6599999999999999
   vertex -0.01492574262043236 0.001 0.6
   vertex 9.942306240897924 0.12011999999999998 0.6599999999999999
  endloop
 endfacet
 facet normal -0.449850630628206 0.0003582281865921974 0.8931037351819617
  outer loop
   vertex 0.0009044410814814823 19.88 0.6
   vertex -0.01492574262043236 0.001 0.6
   vertex 0.10428915361659859 0.12011999999999998 0.6599999999999999
  endloop
 endfacet
 facet normal -0.449850630628206 0.0003582281865921979 0.8931037351819618
  outer loop
   vertex 0.12002438329141772 19.87988 0.6599999999999999
   vertex 0.0009044410814814823 19.88 0.6
   vertex 0.10428915361659859 0.12011999999999998 0.6599999999999999
  endloop
 endfacet
 facet normal 0.0 0.15759057032123278 0.9875045377849301
  outer loop
   vertex 29.71780773576558 19.87988 0.6599999999999999
   vertex 0.12002438329141772 19.87988 0.6599999999999999
   vertex 0.11840738412174552 18.0 0.96
  endloop
 endfacet
 facet normal 0.0 0.15759057032123278 0.9875045377849301
  outer loop
   vertex 25.176819178421624 18.0 0.96
   vertex 29.71780773576558 19.87988 0.6599999999999999
   vertex 0.11840738412174552 18.0 0.96
  endloop
 endfacet
 facet normal 0.11138898340780323 -0.1114777207766087 0.9875045377849302
  outer loop
   vertex 9.942306240897924 0.12011999999999998 0.6599999999999999
   vertex 29.71780773576558 19.87988 0.6599999999999999
   vertex 25.176819178421624 18.0 0.96
  endloop
 endfacet
 facet normal 0.11138898340780323 -0.11147772077660868 0.9875045377849302
  outer loop
   vertex 9.1640728739178 2.0 0.96
   vertex 9.942306240897924 0.12011999999999998 0.6599999999999999
   vertex 25.176819178421624 18.0 0.96
  endloop
 endfacet
 facet normal 0.0 -0.15759057032123278 0.9875045377849302
  outer loop
   vertex 0.10428915361659859 0.12011999999999998 0.6599999999999999
   vertex 9.942306240897924 0.12011999999999998 0.6599999999999999
   vertex 9.1640728739178 2.0 0.96
  endloop
 endfacet
 facet normal 0.0 -0.15759057032123278 0.9875045377849302
  outer loop
   vertex 0.10566615271017443 2.0 0.96
   vertex 0.10428915361659859 0.12011999999999998 0.6599999999999999
   vertex 9.1640728739178 2.0 0.96
  endloop
 endfacet
 facet normal -0.9999996029318695 0.0007963266470271352 -0.0003999999679999357
  outer loop
   vertex 0.12002438329141772 19.87988 0.6599999999999999
   vertex 0.10428915361659859 0.12011999999999998 0.6599999999999999
   vertex 0.10566615271017443 2.0 0.96
  endloop
 endfacet
 facet normal -0.9999996029318696 0.0007963266470271345 -0.00039999996799997976
  outer loop
   vertex 0.11840738412174552 18.0 0.96
   vertex 0.12002438329141772 19.87988 0.6599999999999999
   vertex 0.10566615271017443 2.0 0.96
  endloop
 endfacet
 facet normal -0.0 0.0 1.0
  outer loop
   vertex 0.11840738412174552 18.0 0.96
   vertex 9.1640728739178 2.0 0.96
   vertex 25.176819178421624 18.0 0.96
  endloop
 endfacet
 facet normal 0.0 0.0 1.0
  outer loop
   vertex 0.11840738412174552 18.0 0.96
   vertex 0.10566615271017443 2.0 0.96
   vertex 9.1640728739178 2.0 0.96
  endloop
 endfacet
 facet normal 0.0 0.0 -1.0
  outer loop
   vertex 25.176819178421624 22.0 0
   vertex 0.11840738412174552 22.0 0
   vertex 0.10566615271017443 38.0 0
  endloop
 endfacet
 facet normal 0.0 0.0 -1.0
  outer loop
   vertex 25.176819178421624 22.0 0
   vertex 0.10566615271017443 38.0 0
   vertex 9.164072873917798 38.0 0
  endloop
 endfacet
 facet normal 0.0 -0.15759057032123278 -0.9875045377849301
  outer loop
   vertex 0.11840738412174552 22.0 0
   vertex 25.176819178421624 22.0 0
   vertex 29.71780773576558 20.12012 0.3
  endloop
 endfacet
 facet normal 0.0 -0.15759057032123275 -0.9875045377849301
  outer loop
   vertex 0.12002438329141772 20.12012 0.3
   vertex 0.11840738412174552 22.0 0
   vertex 29.71780773576558 20.12012 0.3
  endloop
 endfacet
 facet normal -0.9999996029318696 -0.0007963266470271345 0.00039999996799997987
  outer loop
   vertex 0.10566615271017443 38.0 0
   vertex 0.11840738412174552 22.0 0
   vertex 0.12002438329141772 20.12012 0.3
  endloop
 endfacet
 facet normal -0.9999996029318696 -0.0007963266470271353 0.00039999996799993813
  outer loop
   vertex 0.10428915361659859 39.87988 0.3
   vertex 0.10566615271017443 38.0 0
   vertex 0.12002438329141772 20.12012 0.3
  endloop
 endfacet
 facet normal 0.0 0.15759057032123275 -0.9875045377849302
  outer loop
   vertex 9.164072873917798 38.0 0
   vertex 0.10566615271017443 38.0 0
   vertex 0.10428915361659859 39.87988 0.3
  endloop
 endfacet
 facet normal 0.0 0.15759057032123275 -0.9875045377849302
  outer loop
   vertex 9.942306240897922 39.87988 0.3
   vertex 9.164072873917798 38.0 0
   vertex 0.10428915361659859 39.87988 0.3
  endloop
 endfacet
 facet normal 0.1113889834078031 0.11147772077660857 -0.9875045377849302
  outer loop
   vertex 25.176819178421624 22.0 0
   vertex 9.164072873917798 38.0 0
   vertex 9.942306240897922 39.87988 0.3
  endloop
 endfacet
 facet normal 0.11138898340780325 0.11147772077660871 -0.9875045377849302
  outer loop
   vertex 29.71780773576558 20.12012 0.3
   vertex 25.176819178421624 22.0 0
   vertex 9.942306240897922 39.87988 0.3
  endloop
 endfacet
 facet normal 0.0 -0.9999980000059999 -0.0019999959999954966
  outer loop
   vertex 0.12002438329141772 20.12012 0.3
   vertex 29.71780773576558 20.12012 0.3
   vertex 29.718097604601294 20.12 0.36
  endloop
 endfacet
 facet normal 0.0 -0.999998000006 -0.0019999959999954966
  outer loop
   vertex 0.0009044410814814823 20.12 0.36
   vertex 0.12002438329141772 20.12012 0.3
   vertex 29.718097604601294 20.12 0.36
  endloop
 endfacet
 facet normal -0.4498506306282062 -0.00035822818659219806 -0.8931037351819616
  outer loop
   vertex 0.10428915361659859 39.87988 0.3
   vertex 0.12002438329141772 20.12012 0.3
   vertex 0.0009044410814814823 20.12 0.36
  endloop
 endfacet
 facet normal -0.44985063062820646 -0.00035822818659219773 -0.8931037351819616
  outer loop
   vertex -0.014925742620432364 39.999 0.36
   vertex 0.10428915361659859 39.87988 0.3
   vertex 0.0009044410814814823 20.12 0.36
  endloop
 endfacet
 facet normal 0.0 0.4498507732615586 -0.8931037351819652
  outer loop
   vertex 9.942306240897922 39.87988 0.3
   vertex 0.10428915361659859 39.87988 0.3
   vertex -0.014925742620432364 39.999 0.36
  endloop
 endfacet
 facet normal 0.0 0.44985077326155853 -0.8931037351819652
  outer loop
   vertex 9.823261117899321 39.999 0.36
   vertex 9.942306240897922 39.87988 0.3
   vertex -0.014925742620432364 39.999 0.36
  endloop
 endfacet
 facet normal 0.7068237674592447 0.7073868543949056 -0.001999996000024372
  outer loop
   vertex 29.71780773576558 20.12012 0.3
   vertex 9.942306240897922 39.87988 0.3
   vertex 9.823261117899321 39.999 0.36
  endloop
 endfacet
 facet normal 0.7068237674592447 0.7073868543949057 -0.0019999960000391865
  outer loop
   vertex 29.718097604601294 20.12 0.36
   vertex 29.71780773576558 20.12012 0.3
   vertex 9.823261117899321 39.999 0.36
  endloop
 endfacet
 facet normal 0.0 0.0 1.0
  outer loop
   vertex 29.718097604601294 20.12 0.36
   vertex -0.014925742620432364 39.999 0.36
   vertex 0.0009044410814814823 20.12 0.36
  endloop
 endfacet
 facet normal 0.0 0.0 1.0
  outer loop
   vertex 29.718097604601294 20.12 0.36
   vertex 9.823261117899321 39.999 0.36
   vertex -0.014925742620432364 39.999 0.36
  endloop
 endfacet
 facet normal 0.0 0.0 -1.0
  outer loop
   vertex 29.718097604601294 20.12 0.6
   vertex 0.0009044410814814823 20.12 0.6
   vertex -0.014925742620432364 39.999 0.6
  endloop
 endfacet
 facet normal 0.0 0.0 -1.0
  outer loop
   vertex 29.718097604601294 20.12 0.6
   vertex -0.014925742620432364 39.999 0.6
   vertex 9.823261117899321 39.999 0.6
  endloop
 endfacet
 facet normal 0.0 -0.999998000006 0.0019999959999954984
  outer loop
   vertex 0.0009044410814814823 20.12 0.6
   vertex 29.718097604601294 20.12 0.6
   vertex 29.71780773576558 20.12012 0.6599999999999999
  endloop
 endfacet
 facet normal 0.0 -0.999998000006 0.0019999959999954984
  outer loop
   vertex 0.12002438329141772 20.12012 0.6599999999999999
   vertex 0.0009044410814814823 20.12 0.6
   vertex 29.71780773576558 20.12012 0.6599999999999999
  endloop
 endfacet
 facet normal -0.44985063062820596 -0.00035822818659219735 0.8931037351819617
  outer loop
   vertex -0.014925742620432364 39.999 0.6
   vertex 0.0009044410814814823 20.12 0.6
   vertex 0.12002438329141772 20.12012 0.6599999999999999
  endloop
 endfacet
 facet normal -0.449850630628206 -0.0003582281865921979 0.8931037351819617
  outer loop
   vertex 0.10428915361659859 39.87988 0.6599999999999999
   vertex -0.014925742620432364 39.999 0.6
   vertex 0.12002438329141772 20.12012 0.6599999999999999
  endloop
 endfacet
 facet normal 0.0 0.44985077326155826 0.8931037351819654
  outer loop
   vertex 9.823261117899321 39.999 0.6
   vertex -0.014925742620432364 39.999 0.6
   vertex 0.10428915361659859 39.87988 0.6599999999999999
  endloop
 endfacet
 facet normal 0.0 0.44985077326155826 0.8931037351819653
  outer loop
   vertex 9.942306240897922 39.87988 0.6599999999999999
   vertex 9.823261117899321 39.999 0.6
   vertex 0.10428915361659859 39.87988 0.6599999999999999
  endloop
 endfacet
 facet normal 0.7068237674592448 0.7073868543949058 0.001999995999994737
  outer loop
   vertex 29.718097604601294 20.12 0.6
   vertex 9.823261117899321 39.999 0.6
   vertex 9.942306240897922 39.87988 0.6599999999999999
  endloop
 endfacet
 facet normal 0.7068237674592447 0.7073868543949056 0.0019999960000391882
  outer loop
   vertex 29.71780773576558 20.12012 0.6599999999999999
   vertex 29.718097604601294 20.12 0.6
   vertex 9.942306240897922 39.87988 0.6599999999999999
  endloop
 endfacet
 facet normal 0.0 -0.15759057032123278 0.9875045377849301
  outer loop
   vertex 0.12002438329141772 20.12012 0.6599999999999999
   vertex 29.71780773576558 20.12012 0.6599999999999999
   vertex 25.176819178421624 22.0 0.96
  endloop
 endfacet
 facet normal 0.0 -0.15759057032123278 0.9875045377849301
  outer loop
   vertex 0.11840738412174552 22.0 0.96
   vertex 0.12002438329141772 20.12012 0.6599999999999999
   vertex 25.176819178421624 22.0 0.96
  endloop
 endfacet
 facet normal -0.9999996029318695 -0.0007963266470271352 -0.00039999996799998253
  outer loop
   vertex 0.10428915361659859 39.87988 0.6599999999999999
   vertex 0.12002438329141772 20.12012 0.6599999999999999
   vertex 0.11840738412174552 22.0 0.96
  endloop
 endfacet
 facet normal -0.9999996029318696 -0.0007963266470271345 -0.0003999999679999335
  outer loop
   vertex 0.10566615271017443 38.0 0.96
   vertex 0.10428915361659859 39.87988 0.6599999999999999
   vertex 0.11840738412174552 22.0 0.96
  endloop
 endfacet
 facet normal 0.0 0.15759057032123278 0.9875045377849302
  outer loop
   vertex 9.942306240897922 39.87988 0.6599999999999999
   vertex 0.10428915361659859 39.87988 0.6599999999999999
   vertex 0.10566615271017443 38.0 0.96
  endloop
 endfacet
 facet normal 0.0 0.15759057032123278 0.9875045377849302
  outer loop
   vertex 9.164072873917798 38.0 0.96
   vertex 9.942306240897922 39.87988 0.6599999999999999
   vertex 0.10566615271017443 38.0 0.96
  endloop
 endfacet
 facet normal 0.11138898340780323 0.1114777207766087 0.9875045377849302
  outer loop
   vertex 29.71780773576558 20.12012 0.6599999999999999
   vertex 9.942306240897922 39.87988 0.6599999999999999
   vertex 9.164072873917798 38.0 0.96
  endloop
 endfacet
 facet normal 0.1113889834078033 0.11147772077660878 0.9875045377849302
  outer loop
   vertex 25.176819178421624 22.0 0.96
   vertex 29.71780773576558 20.12012 0.6599999999999999
   vertex 9.164072873917798 38.0 0.96
  endloop
 endfacet
 facet normal 0.0 0.0 1.0
  outer loop
   vertex 25.176819178421624 22.0 0.96
   vertex 0.10566615271017443 38.0 0.96
   vertex 0.11840738412174552 22.0 0.96
  endloop
 endfacet
 facet normal 0.0 0.0 1.0
  outer loop
   vertex 25.176819178421624 22.0 0.96
   vertex 9.164072873917798 38.0 0.96
   vertex 0.10566615271017443 38.0 0.96
  endloop
 endfacet
 facet normal 0.0 0.0 -1.0
  outer loop
   vertex 30.835927126082197 18.0 0
   vertex 39.878407308025366 18.0 0
   vertex 39.86566607661379 2.0 0
  endloop
 endfacet
 facet normal 0.0 -0.0 -1.0
  outer loop
   vertex 30.835927126082197 18.0 0
   vertex 39.86566607661379 2.0 0
   vertex 14.823180821578372 2.0 0
  endloop
 endfacet
 facet normal 0.0 0.15759057032123278 -0.9875045377849302
  outer loop
   vertex 39.878407308025366 18.0 0
   vertex 30.835927126082197 18.0 0
   vertex 30.057693759102072 19.87988 0.3
  endloop
 endfacet
 facet normal 0.0 0.15759057032123278 -0.9875045377849302
  outer loop
   vertex 39.87978430711894 19.87988 0.3
   vertex 39.878407308025366 18.0 0
   vertex 30.057693759102072 19.87988 0.3
  endloop
 endfacet
 facet normal 0.9999996029318696 -0.0007963266470273453 0.00039999996801138275
  outer loop
   vertex 39.86566607661379 2.0 0
   vertex 39.878407308025366 18.0 0
   vertex 39.87978430711894 19.87988 0.3
  endloop
 endfacet
 facet normal 0.9999996029318696 -0.0007963266470270385 0.0003999999679930893
  outer loop
   vertex 39.86404907744412 0.12011999999999998 0.3
   vertex 39.86566607661379 2.0 0
   vertex 39.87978430711894 19.87988 0.3
  endloop
 endfacet
 facet normal 0.0 -0.15759057032123275 -0.9875045377849301
  outer loop
   vertex 14.823180821578372 2.0 0
   vertex 39.86566607661379 2.0 0
   vertex 39.86404907744412 0.12011999999999998 0.3
  endloop
 endfacet
 facet normal 0.0 -0.15759057032123275 -0.9875045377849301
  outer loop
   vertex 10.282192264234418 0.12011999999999998 0.3
   vertex 14.823180821578372 2.0 0
   vertex 39.86404907744412 0.12011999999999998 0.3
  endloop
 endfacet
 facet normal -0.11138898340780332 0.11147772077660877 -0.9875045377849302
  outer loop
   vertex 30.835927126082197 18.0 0
   vertex 14.823180821578372 2.0 0
   vertex 10.282192264234418 0.12011999999999998 0.3
  endloop
 endfacet
 facet normal -0.11138898340780322 0.11147772077660868 -0.9875045377849302
  outer loop
   vertex 30.057693759102072 19.87988 0.3
   vertex 30.835927126082197 18.0 0
   vertex 10.282192264234418 0.12011999999999998 0.3
  endloop
 endfacet
 facet normal 0.0 0.999998000006 -0.0019999959999954966
  outer loop
   vertex 39.87978430711894 19.87988 0.3
   vertex 30.057693759102072 19.87988 0.3
   vertex 30.05764408146093 19.88 0.36
  endloop
 endfacet
 facet normal 0.0 0.999998000006 -0.0019999959999954966
  outer loop
   vertex 39.99890444044735 19.88 0.36
   vertex 39.87978430711894 19.87988 0.3
   vertex 30.05764408146093 19.88 0.36
  endloop
 endfacet
 facet normal 0.44985063062820324 -0.0003582281865921521 -0.8931037351819632
  outer loop
   vertex 39.86404907744412 0.12011999999999998 0.3
   vertex 39.87978430711894 19.87988 0.3
   vertex 39.99890444044735 19.88 0.36
  endloop
 endfacet
 facet normal 0.4498506306282131 -0.00035822818659223476 -0.8931037351819583
  outer loop
   vertex 39.98307425674543 0.001 0.36
   vertex 39.86404907744412 0.12011999999999998 0.3
   vertex 39.99890444044735 19.88 0.36
  endloop
 endfacet
 facet normal 0.0 -0.4498507732615657 -0.8931037351819616
  outer loop
   vertex 10.282192264234418 0.12011999999999998 0.3
   vertex 39.86404907744412 0.12011999999999998 0.3
   vertex 39.98307425674543 0.001 0.36
  endloop
 endfacet
 facet normal 0.0 -0.44985077326156564 -0.8931037351819615
  outer loop
   vertex 10.162807594758956 0.001 0.36
   vertex 10.282192264234418 0.12011999999999998 0.3
   vertex 39.98307425674543 0.001 0.36
  endloop
 endfacet
 facet normal -0.7068237674592447 0.7073868543949056 -0.001999996000058261
  outer loop
   vertex 30.057693759102072 19.87988 0.3
   vertex 10.282192264234418 0.12011999999999998 0.3
   vertex 10.162807594758956 0.001 0.36
  endloop
 endfacet
 facet normal -0.7068237674592447 0.7073868543949058 -0.0019999959999743144
  outer loop
   vertex 30.05764408146093 19.88 0.36
   vertex 30.057693759102072 19.87988 0.3
   vertex 10.162807594758956 0.001 0.36
  endloop
 endfacet
 facet normal -0.0 0.0 1.0
  outer loop
   vertex 30.05764408146093 19.88 0.36
   vertex 39.98307425674543 0.001 0.36
   vertex 39.99890444044735 19.88 0.36
  endloop
 endfacet
 facet normal 0.0 0.0 1.0
  outer loop
   vertex 30.05764408146093 19.88 0.36
   vertex 10.162807594758956 0.001 0.36
   vertex 39.98307425674543 0.001 0.36
  endloop
 endfacet
 facet normal 0.0 0.0 -1.0
  outer loop
   vertex 30.05764408146093 19.88 0.6
   vertex 39.99890444044735 19.88 0.6
   vertex 39.98307425674543 0.001 0.6
  endloop
 endfacet
 facet normal 0.0 -0.0 -1.0
  outer loop
   vertex 30.05764408146093 19.88 0.6
   vertex 39.98307425674543 0.001 0.6
   vertex 10.162807594758956 0.001 0.6
  endloop
 endfacet
 facet normal 0.0 0.999998000006 0.0019999959999954984
  outer loop
   vertex 39.99890444044735 19.88 0.6
   vertex 30.05764408146093 19.88 0.6
   vertex 30.057693759102072 19.87988 0.6599999999999999
  endloop
 endfacet
 facet normal 0.0 0.999998000006 0.0019999959999954984
  outer loop
   vertex 39.87978430711894 19.87988 0.6599999999999999
   vertex 39.99890444044735 19.88 0.6
   vertex 30.057693759102072 19.87988 0.6599999999999999
  endloop
 endfacet
 facet normal 0.4498506306282029 -0.00035822818659222663 0.8931037351819633
  outer loop
   vertex 39.98307425674543 0.001 0.6
   vertex 39.99890444044735 19.88 0.6
   vertex 39.87978430711894 19.87988 0.6599999999999999
  endloop
 endfacet
 facet normal 0.44985063062821284 -0.00035822818659215973 0.8931037351819584
  outer loop
   vertex 39.86404907744412 0.12011999999999998 0.6599999999999999
   vertex 39.98307425674543 0.001 0.6
   vertex 39.87978430711894 19.87988 0.6599999999999999
  endloop
 endfacet
 facet normal 0.0 -0.4498507732615653 0.8931037351819617
  outer loop
   vertex 10.162807594758956 0.001 0.6
   vertex 39.98307425674543 0.001 0.6
   vertex 39.86404907744412 0.12011999999999998 0.6599999999999999
  endloop
 endfacet
 facet normal 0.0 -0.44985077326156536 0.8931037351819617
  outer loop
   vertex 10.282192264234418 0.12011999999999998 0.6599999999999999
   vertex 10.162807594758956 0.001 0.6
   vertex 39.86404907744412 0.12011999999999998 0.6599999999999999
  endloop
 endfacet
 facet normal -0.7068237674592446 0.7073868543949058 0.0019999960000621083
  outer loop
   vertex 30.05764408146093 19.88 0.6
   vertex 10.162807594758956 0.001 0.6
   vertex 10.282192264234418 0.12011999999999998 0.6599999999999999
  endloop
 endfacet
 facet normal -0.7068237674592448 0.7073868543949057 0.001999995999974316
  outer loop
   vertex 30.057693759102072 19.87988 0.6599999999999999
   vertex 30.05764408146093 19.88 0.6
   vertex 10.282192264234418 0.12011999999999998 0.6599999999999999
  endloop
 endfacet
 facet normal 0.0 0.1575905703212328 0.9875045377849302
  outer loop
   vertex 39.87978430711894 19.87988 0.6599999999999999
   vertex 30.057693759102072 19.87988 0.6599999999999999
   vertex 30.835927126082197 18.0 0.96
  endloop
 endfacet
 facet normal 0.0 0.1575905703212328 0.9875045377849302
  outer loop
   vertex 39.878407308025366 18.0 0.96
   vertex 39.87978430711894 19.87988 0.6599999999999999
   vertex 30.835927126082197 18.0 0.96
  endloop
 endfacet
 facet normal 0.9999996029318695 -0.0007963266470270384 -0.0003999999680094592
  outer loop
   vertex 39.86404907744412 0.12011999999999998 0.6599999999999999
   vertex 39.87978430711894 19.87988 0.6599999999999999
   vertex 39.878407308025366 18.0 0.96
  endloop
 endfacet
 facet normal 0.9999996029318696 -0.0007963266470273453 -0.0003999999679911652
  outer loop
   vertex 39.86566607661379 2.0 0.96
   vertex 39.86404907744412 0.12011999999999998 0.6599999999999999
   vertex 39.878407308025366 18.0 0.96
  endloop
 endfacet
 facet normal 0.0 -0.15759057032123278 0.9875045377849301
  outer loop
   vertex 10.282192264234418 0.12011999999999998 0.6599999999999999
   vertex 39.86404907744412 0.12011999999999998 0.6599999999999999
   vertex 39.86566607661379 2.0 0.96
  endloop
 endfacet
 facet normal 0.0 -0.15759057032123278 0.9875045377849301
  outer loop
   vertex 14.823180821578372 2.0 0.96
   vertex 10.282192264234418 0.12011999999999998 0.6599999999999999
   vertex 39.86566607661379 2.0 0.96
  endloop
 endfacet
 facet normal -0.11138898340780323 0.1114777207766087 0.9875045377849302
  outer loop
   vertex 30.057693759102072 19.87988 0.6599999999999999
   vertex 10.282192264234418 0.12011999999999998 0.6599999999999999
   vertex 14.823180821578372 2.0 0.96
  endloop
 endfacet
 facet normal -0.11138898340780323 0.11147772077660868 0.9875045377849302
  outer loop
   vertex 30.835927126082197 18.0 0.96
   vertex 30.057693759102072 19.87988 0.6599999999999999
   vertex 14.823180821578372 2.0 0.96
  endloop
 endfacet
 facet normal -0.0 0.0 1.0
  outer loop
   vertex 30.835927126082197 18.0 0.96
   vertex 39.86566607661379 2.0 0.96
   vertex 39.878407308025366 18.0 0.96
  endloop
 endfacet
 facet normal 0.0 0.0 1.0
  outer loop
   vertex 30.835927126082197 18.0 0.96
   vertex 14.823180821578372 2.0 0.96
   vertex 39.86566607661379 2.0 0.96
  endloop
 endfacet
 facet normal 0.0 0.0 -1.0
  outer loop
   vertex 39.87840730802536 22.0 0
   vertex 30.835927126082197 22.0 0
   vertex 14.82318082157837 38.0 0
  endloop
 endfacet
 facet normal 0.0 0.0 -1.0
  outer loop
   vertex 39.87840730802536 22.0 0
   vertex 14.82318082157837 38.0 0
   vertex 39.86566607661379 38.0 0
  endloop
 endfacet
 facet normal 0.0 -0.15759057032123278 -0.9875045377849302
  outer loop
   vertex 30.835927126082197 22.0 0
   vertex 39.87840730802536 22.0 0
   vertex 39.87978430711893 20.12012 0.3
  endloop
 endfacet
 facet normal 0.0 -0.15759057032123275 -0.9875045377849301
  outer loop
   vertex 30.057693759102072 20.12012 0.3
   vertex 30.835927126082197 22.0 0
   vertex 39.87978430711893 20.12012 0.3
  endloop
 endfacet
 facet normal -0.1113889834078031 -0.11147772077660857 -0.9875045377849302
  outer loop
   vertex 14.82318082157837 38.0 0
   vertex 30.835927126082197 22.0 0
   vertex 30.057693759102072 20.12012 0.3
  endloop
 endfacet
 facet normal -0.11138898340780325 -0.11147772077660871 -0.9875045377849302
  outer loop
   vertex 10.282192264234416 39.87988 0.3
   vertex 14.82318082157837 38.0 0
   vertex 30.057693759102072 20.12012 0.3
  endloop
 endfacet
 facet normal 0.0 0.15759057032123278 -0.9875045377849302
  outer loop
   vertex 39.86566607661379 38.0 0
   vertex 14.82318082157837 38.0 0
   vertex 10.282192264234416 39.87988 0.3
  endloop
 endfacet
 facet normal 0.0 0.15759057032123278 -0.9875045377849302
  outer loop
   vertex 39.864049077444115 39.87988 0.3
   vertex 39.86566607661379 38.0 0
   vertex 10.282192264234416 39.87988 0.3
  endloop
 endfacet
 facet normal 0.9999996029318696 0.0007963266470269012 0.00039999996801763356
  outer loop
   vertex 39.87840730802536 22.0 0
   vertex 39.86566607661379 38.0 0
   vertex 39.864049077444115 39.87988 0.3
  endloop
 endfacet
 facet normal 0.9999996029318696 0.0007963266470270385 0.00039999996800946165
  outer loop
   vertex 39.87978430711893 20.12012 0.3
   vertex 39.87840730802536 22.0 0
   vertex 39.864049077444115 39.87988 0.3
  endloop
 endfacet
 facet normal 0.0 -0.9999980000059998 -0.001999995999995496
  outer loop
   vertex 30.057693759102072 20.12012 0.3
   vertex 39.87978430711893 20.12012 0.3
   vertex 39.99890444044734 20.12 0.36
  endloop
 endfacet
 facet normal 0.0 -0.999998000006 -0.0019999959999954966
  outer loop
   vertex 30.057644081460925 20.12 0.36
   vertex 30.057693759102072 20.12012 0.3
   vertex 39.99890444044734 20.12 0.36
  endloop
 endfacet
 facet normal -0.7068237674592448 -0.7073868543949057 -0.0019999959999565946
  outer loop
   vertex 10.282192264234416 39.87988 0.3
   vertex 30.057693759102072 20.12012 0.3
   vertex 30.057644081460925 20.12 0.36
  endloop
 endfacet
 facet normal -0.7068237674592446 -0.7073868543949057 -0.0019999960000389467
  outer loop
   vertex 10.16280759475895 39.999 0.36
   vertex 10.282192264234416 39.87988 0.3
   vertex 30.057644081460925 20.12 0.36
  endloop
 endfacet
 facet normal 0.0 0.4498507732615586 -0.8931037351819652
  outer loop
   vertex 39.864049077444115 39.87988 0.3
   vertex 10.282192264234416 39.87988 0.3
   vertex 10.16280759475895 39.999 0.36
  endloop
 endfacet
 facet normal 0.0 0.4498507732615586 -0.8931037351819652
  outer loop
   vertex 39.983074256745425 39.999 0.36
   vertex 39.864049077444115 39.87988 0.3
   vertex 10.16280759475895 39.999 0.36
  endloop
 endfacet
 facet normal 0.44985063062821323 0.00035822818659216006 -0.8931037351819582
  outer loop
   vertex 39.87978430711893 20.12012 0.3
   vertex 39.864049077444115 39.87988 0.3
   vertex 39.983074256745425 39.999 0.36
  endloop
 endfacet
 facet normal 0.4498506306282032 0.0003582281865922268 -0.8931037351819632
  outer loop
   vertex 39.99890444044734 20.12 0.36
   vertex 39.87978430711893 20.12012 0.3
   vertex 39.983074256745425 39.999 0.36
  endloop
 endfacet
 facet normal 0.0 0.0 1.0
  outer loop
   vertex 39.99890444044734 20.12 0.36
   vertex 10.16280759475895 39.999 0.36
   vertex 30.057644081460925 20.12 0.36
  endloop
 endfacet
 facet normal 0.0 0.0 1.0
  outer loop
   vertex 39.99890444044734 20.12 0.36
   vertex 39.983074256745425 39.999 0.36
   vertex 10.16280759475895 39.999 0.36
  endloop
 endfacet
 facet normal 0.0 0.0 -1.0
  outer loop
   vertex 39.99890444044734 20.12 0.6
   vertex 30.057644081460925 20.12 0.6
   vertex 10.16280759475895 39.999 0.6
  endloop
 endfacet
 facet normal 0.0 0.0 -1.0
  outer loop
   vertex 39.99890444044734 20.12 0.6
   vertex 10.16280759475895 39.999 0.6
   vertex 39.983074256745425 39.999 0.6
  endloop
 endfacet
 facet normal 0.0 -0.999998000006 0.0019999959999954984
  outer loop
   vertex 30.057644081460925 20.12 0.6
   vertex 39.99890444044734 20.12 0.6
   vertex 39.87978430711893 20.12012 0.6599999999999999
  endloop
 endfacet
 facet normal 0.0 -0.999998000006 0.0019999959999954984
  outer loop
   vertex 30.057693759102072 20.12012 0.6599999999999999
   vertex 30.057644081460925 20.12 0.6
   vertex 39.87978430711893 20.12012 0.6599999999999999
  endloop
 endfacet
 facet normal -0.7068237674592447 -0.7073868543949058 0.0019999959999947364
  outer loop
   vertex 10.16280759475895 39.999 0.6
   vertex 30.057644081460925 20.12 0.6
   vertex 30.057693759102072 20.12012 0.6599999999999999
  endloop
 endfacet
 facet normal -0.7068237674592447 -0.7073868543949056 0.0019999960000394654
  outer loop
   vertex 10.282192264234416 39.87988 0.6599999999999999
   vertex 10.16280759475895 39.999 0.6
   vertex 30.057693759102072 20.12012 0.6599999999999999
  endloop
 endfacet
 facet normal 0.0 0.4498507732615582 0.8931037351819653
  outer loop
   vertex 39.983074256745425 39.999 0.6
   vertex 10.16280759475895 39.999 0.6
   vertex 10.282192264234416 39.87988 0.6599999999999999
  endloop
 endfacet
 facet normal 0.0 0.4498507732615583 0.8931037351819654
  outer loop
   vertex 39.864049077444115 39.87988 0.6599999999999999
   vertex 39.983074256745425 39.999 0.6
   vertex 10.282192264234416 39.87988 0.6599999999999999
  endloop
 endfacet
 facet normal 0.4498506306282128 0.00035822818659223443 0.8931037351819583
  outer loop
   vertex 39.99890444044734 20.12 0.6
   vertex 39.983074256745425 39.999 0.6
   vertex 39.864049077444115 39.87988 0.6599999999999999
  endloop
 endfacet
 facet normal 0.4498506306282029 0.0003582281865921518 0.8931037351819633
  outer loop
   vertex 39.87978430711893 20.12012 0.6599999999999999
   vertex 39.99890444044734 20.12 0.6
   vertex 39.864049077444115 39.87988 0.6599999999999999
  endloop
 endfacet
 facet normal 0.0 -0.15759057032123278 0.9875045377849301
  outer loop
   vertex 30.057693759102072 20.12012 0.6599999999999999
   vertex 39.87978430711893 20.12012 0.6599999999999999
   vertex 39.87840730802536 22.0 0.96
  endloop
 endfacet
 facet normal 0.0 -0.1575905703212328 0.9875045377849302
  outer loop
   vertex 30.835927126082197 22.0 0.96
   vertex 30.057693759102072 20.12012 0.6599999999999999
   vertex 39.87840730802536 22.0 0.96
  endloop
 endfacet
 facet normal -0.11138898340780323 -0.1114777207766087 0.9875045377849302
  outer loop
   vertex 10.282192264234416 39.87988 0.6599999999999999
   vertex 30.057693759102072 20.12012 0.6599999999999999
   vertex 30.835927126082197 22.0 0.96
  endloop
 endfacet
 facet normal -0.1113889834078033 -0.11147772077660878 0.9875045377849302
  outer loop
   vertex 14.82318082157837 38.0 0.96
   vertex 10.282192264234416 39.87988 0.6599999999999999
   vertex 30.835927126082197 22.0 0.96
  endloop
 endfacet
 facet normal 0.0 0.1575905703212328 0.9875045377849302
  outer loop
   vertex 39.864049077444115 39.87988 0.6599999999999999
   vertex 10.282192264234416 39.87988 0.6599999999999999
   vertex 14.82318082157837 38.0 0.96
  endloop
 endfacet
 facet normal 0.0 0.1575905703212328 0.9875045377849302
  outer loop
   vertex 39.86566607661379 38.0 0.96
   vertex 39.864049077444115 39.87988 0.6599999999999999
   vertex 14.82318082157837 38.0 0.96
  endloop
 endfacet
 facet normal 0.9999996029318695 0.0007963266470270384 -0.00039999996801677275
  outer loop
   vertex 39.87978430711893 20.12012 0.6599999999999999
   vertex 39.864049077444115 39.87988 0.6599999999999999
   vertex 39.86566607661379 38.0 0.96
  endloop
 endfacet
 facet normal 0.9999996029318696 0.0007963266470269012 -0.0003999999680086021
  outer loop
   vertex 39.87840730802536 22.0 0.96
   vertex 39.87978430711893 20.12012 0.6599999999999999
   vertex 39.86566607661379 38.0 0.96
  endloop
 endfacet
 facet normal 0.0 0.0 1.0
  outer loop
   vertex 39.87840730802536 22.0 0.96
   vertex 14.82318082157837 38.0 0.96
   vertex 30.835927126082197 22.0 0.96
  endloop
 endfacet
 facet normal 0.0 0.0 1.0
  outer loop
   vertex 39.87840730802536 22.0 0.96
   vertex 39.86566607661379 38.0 0.96
   vertex 14.82318082157837 38.0 0.96
  endloop
 endfacet
endsolid
