solid PyGamic generated __All_Crease__ SLA File
 facet normal 0.0 0.0 -1.0
  outer loop
   vertex 56.51227408818239 29.9 0
   vertex -0.00027412282408884297 29.9 0
   vertex 28.284256256784655 31.4984 0
  endloop
 endfacet
 facet normal 0.0 0.0 -1.0
  outer loop
   vertex -0.00027412282408884297 29.9 0
   vertex 28.227743708573648 31.4984 0
   vertex 28.284256256784655 31.4984 0
  endloop
 endfacet
 facet normal 0.0 0.0 -1.0
  outer loop
   vertex -0.00027412282408884297 29.9 0
   vertex -0.0002741228240888458 33.1 0
   vertex 28.227743708573648 31.4984 0
  endloop
 endfacet
 facet normal 0.0 0.0 -1.0
  outer loop
   vertex -0.0002741228240888458 33.1 0
   vertex 28.22774370857365 31.5016 0
   vertex 28.227743708573648 31.4984 0
  endloop
 endfacet
 facet normal 0.0 0.0 -1.0
  outer loop
   vertex -0.0002741228240888458 33.1 0
   vertex 56.512274088182394 33.1 0
   vertex 28.22774370857365 31.5016 0
  endloop
 endfacet
 facet normal 0.0 0.0 -1.0
  outer loop
   vertex 56.512274088182394 33.1 0
   vertex 28.28425625678465 31.5016 0
   vertex 28.22774370857365 31.5016 0
  endloop
 endfacet
 facet normal 0.0 0.0 -1.0
  outer loop
   vertex 56.512274088182394 33.1 0
   vertex 56.51227408818239 29.9 0
   vertex 28.28425625678465 31.5016 0
  endloop
 endfacet
 facet normal 0.0 0.0 -1.0
  outer loop
   vertex 56.51227408818239 29.9 0
   vertex 28.284256256784655 31.4984 0
   vertex 28.28425625678465 31.5016 0
  endloop
 endfacet
 facet normal 0.0 -1.0 0.0
  outer loop
   vertex -0.00027412282408884297 29.9 0
   vertex 56.51227408818239 29.9 0
   vertex 56.51227408818239 29.9 0.4
  endloop
 endfacet
 facet normal 0.0 -1.0 0.0
  outer loop
   vertex -0.00027412282408884297 29.9 0.4
   vertex -0.00027412282408884297 29.9 0
   vertex 56.51227408818239 29.9 0.4
  endloop
 endfacet
 facet normal -1.0 -8.809142651444716e-19 0.0
  outer loop
   vertex -0.0002741228240888458 33.1 0
   vertex -0.00027412282408884297 29.9 0
   vertex -0.00027412282408884297 29.9 0.4
  endloop
 endfacet
 facet normal -1.0 -8.809142651444716e-19 -0.0
  outer loop
   vertex -0.0002741228240888458 33.1 0.4
   vertex -0.0002741228240888458 33.1 0
   vertex -0.00027412282408884297 29.9 0.4
  endloop
 endfacet
 facet normal 0.0 1.0 0.0
  outer loop
   vertex 56.512274088182394 33.1 0
   vertex -0.0002741228240888458 33.1 0
   vertex -0.0002741228240888458 33.1 0.4
  endloop
 endfacet
 facet normal 0.0 1.0 0.0
  outer loop
   vertex 56.512274088182394 33.1 0.4
   vertex 56.512274088182394 33.1 0
   vertex -0.0002741228240888458 33.1 0.4
  endloop
 endfacet
 facet normal 1.0 -2.220446049250311e-15 0.0
  outer loop
   vertex 56.51227408818239 29.9 0
   vertex 56.512274088182394 33.1 0
   vertex 56.512274088182394 33.1 0.4
  endloop
 endfacet
 facet normal 1.0 -2.220446049250311e-15 0.0
  outer loop
   vertex 56.51227408818239 29.9 0.4
   vertex 56.51227408818239 29.9 0
   vertex 56.512274088182394 33.1 0.4
  endloop
 endfacet
 facet normal 0.0 1.0 -0.0
  outer loop
   vertex 28.284256256784655 31.4984 0
   vertex 28.227743708573648 31.4984 0
   vertex 28.284256256784655 31.4984 0.4
  endloop
 endfacet
 facet normal 0.0 1.0 0.0
  outer loop
   vertex 28.227743708573648 31.4984 0
   vertex 28.227743708573648 31.4984 0.4
   vertex 28.284256256784655 31.4984 0.4
  endloop
 endfacet
 facet normal 1.0 -1.1102230246252787e-12 0.0
  outer loop
   vertex 28.227743708573648 31.4984 0
   vertex 28.22774370857365 31.5016 0
   vertex 28.227743708573648 31.4984 0.4
  endloop
 endfacet
 facet normal 1.0 -1.1102230246252787e-12 0.0
  outer loop
   vertex 28.22774370857365 31.5016 0
   vertex 28.22774370857365 31.5016 0.4
   vertex 28.227743708573648 31.4984 0.4
  endloop
 endfacet
 facet normal 0.0 -1.0 0.0
  outer loop
   vertex 28.22774370857365 31.5016 0
   vertex 28.28425625678465 31.5016 0
   vertex 28.22774370857365 31.5016 0.4
  endloop
 endfacet
 facet normal 0.0 -1.0 0.0
  outer loop
   vertex 28.28425625678465 31.5016 0
   vertex 28.28425625678465 31.5016 0.4
   vertex 28.22774370857365 31.5016 0.4
  endloop
 endfacet
 facet normal -1.0 -1.1102230246252787e-12 0.0
  outer loop
   vertex 28.28425625678465 31.5016 0
   vertex 28.284256256784655 31.4984 0
   vertex 28.28425625678465 31.5016 0.4
  endloop
 endfacet
 facet normal -1.0 -1.1102230246252787e-12 0.0
  outer loop
   vertex 28.284256256784655 31.4984 0
   vertex 28.284256256784655 31.4984 0.4
   vertex 28.28425625678465 31.5016 0.4
  endloop
 endfacet
 facet normal 0.0 0.0 1.0
  outer loop
   vertex -0.00027412282408884297 29.9 0.4
   vertex 56.51227408818239 29.9 0.4
   vertex 28.284256256784655 31.4984 0.4
  endloop
 endfacet
 facet normal -0.0 0.0 1.0
  outer loop
   vertex 28.227743708573648 31.4984 0.4
   vertex -0.00027412282408884297 29.9 0.4
   vertex 28.284256256784655 31.4984 0.4
  endloop
 endfacet
 facet normal 0.0 0.0 1.0
  outer loop
   vertex -0.0002741228240888458 33.1 0.4
   vertex -0.00027412282408884297 29.9 0.4
   vertex 28.227743708573648 31.4984 0.4
  endloop
 endfacet
 facet normal 0.0 0.0 1.0
  outer loop
   vertex 28.22774370857365 31.5016 0.4
   vertex -0.0002741228240888458 33.1 0.4
   vertex 28.227743708573648 31.4984 0.4
  endloop
 endfacet
 facet normal 0.0 0.0 1.0
  outer loop
   vertex 56.512274088182394 33.1 0.4
   vertex -0.0002741228240888458 33.1 0.4
   vertex 28.22774370857365 31.5016 0.4
  endloop
 endfacet
 facet normal 0.0 -0.0 1.0
  outer loop
   vertex 28.28425625678465 31.5016 0.4
   vertex 56.512274088182394 33.1 0.4
   vertex 28.22774370857365 31.5016 0.4
  endloop
 endfacet
 facet normal 0.0 -0.0 1.0
  outer loop
   vertex 56.51227408818239 29.9 0.4
   vertex 56.512274088182394 33.1 0.4
   vertex 28.28425625678465 31.5016 0.4
  endloop
 endfacet
 facet normal -0.0 -0.0 1.0
  outer loop
   vertex 28.284256256784655 31.4984 0.4
   vertex 56.51227408818239 29.9 0.4
   vertex 28.28425625678465 31.5016 0.4
  endloop
 endfacet
 facet normal 0.0 0.0 -1.0
  outer loop
   vertex 27.473928743333857 0.001 0
   vertex 56.51227408818239 29.9 0
   vertex 44.2067643415965 14.935550499999998 0
  endloop
 endfacet
 facet normal 0.0 0.0 -1.0
  outer loop
   vertex 56.51227408818239 29.9 0
   vertex 44.23580268694134 14.965449499999998 0
   vertex 44.2067643415965 14.935550499999998 0
  endloop
 endfacet
 facet normal 0.0 -0.0 -1.0
  outer loop
   vertex 56.51227408818239 29.9 0
   vertex 60.97309911022602 29.899999999999995 0
   vertex 44.23580268694134 14.965449499999998 0
  endloop
 endfacet
 facet normal 0.0 0.0 -1.0
  outer loop
   vertex 60.97309911022602 29.899999999999995 0
   vertex 44.240263511963384 14.9654495 0
   vertex 44.23580268694134 14.965449499999998 0
  endloop
 endfacet
 facet normal 0.0 0.0 -1.0
  outer loop
   vertex 60.97309911022602 29.899999999999995 0
   vertex 31.934753765377494 0.001 0
   vertex 44.240263511963384 14.9654495 0
  endloop
 endfacet
 facet normal 0.0 0.0 -1.0
  outer loop
   vertex 31.934753765377494 0.001 0
   vertex 44.21122516661854 14.935550499999996 0
   vertex 44.240263511963384 14.9654495 0
  endloop
 endfacet
 facet normal 0.0 0.0 -1.0
  outer loop
   vertex 31.934753765377494 0.001 0
   vertex 27.473928743333857 0.001 0
   vertex 44.21122516661854 14.935550499999996 0
  endloop
 endfacet
 facet normal 0.0 0.0 -1.0
  outer loop
   vertex 27.473928743333857 0.001 0
   vertex 44.2067643415965 14.935550499999998 0
   vertex 44.21122516661854 14.935550499999996 0
  endloop
 endfacet
 facet normal -0.7173560908995228 0.6967067093471654 0.0
  outer loop
   vertex 56.51227408818239 29.9 0
   vertex 27.473928743333857 0.001 0
   vertex 27.473928743333857 0.001 0.4
  endloop
 endfacet
 facet normal -0.7173560908995228 0.6967067093471654 0.0
  outer loop
   vertex 56.51227408818239 29.9 0.4
   vertex 56.51227408818239 29.9 0
   vertex 27.473928743333857 0.001 0.4
  endloop
 endfacet
 facet normal 7.964252489717468e-16 1.0 0.0
  outer loop
   vertex 60.97309911022602 29.899999999999995 0
   vertex 56.51227408818239 29.9 0
   vertex 56.51227408818239 29.9 0.4
  endloop
 endfacet
 facet normal 7.964252489717468e-16 1.0 0.0
  outer loop
   vertex 60.97309911022602 29.899999999999995 0.4
   vertex 60.97309911022602 29.899999999999995 0
   vertex 56.51227408818239 29.9 0.4
  endloop
 endfacet
 facet normal 0.7173560908995227 -0.6967067093471654 0.0
  outer loop
   vertex 31.934753765377494 0.001 0
   vertex 60.97309911022602 29.899999999999995 0
   vertex 60.97309911022602 29.899999999999995 0.4
  endloop
 endfacet
 facet normal 0.7173560908995227 -0.6967067093471654 0.0
  outer loop
   vertex 31.934753765377494 0.001 0.4
   vertex 31.934753765377494 0.001 0
   vertex 60.97309911022602 29.899999999999995 0.4
  endloop
 endfacet
 facet normal 0.0 -1.0 0.0
  outer loop
   vertex 27.473928743333857 0.001 0
   vertex 31.934753765377494 0.001 0
   vertex 31.934753765377494 0.001 0.4
  endloop
 endfacet
 facet normal 0.0 -1.0 0.0
  outer loop
   vertex 27.473928743333857 0.001 0.4
   vertex 27.473928743333857 0.001 0
   vertex 31.934753765377494 0.001 0.4
  endloop
 endfacet
 facet normal 0.7173560908995789 -0.6967067093471074 0.0
  outer loop
   vertex 44.2067643415965 14.935550499999998 0
   vertex 44.23580268694134 14.965449499999998 0
   vertex 44.2067643415965 14.935550499999998 0.4
  endloop
 endfacet
 facet normal 0.7173560908995789 -0.6967067093471074 0.0
  outer loop
   vertex 44.23580268694134 14.965449499999998 0
   vertex 44.23580268694134 14.965449499999998 0.4
   vertex 44.2067643415965 14.935550499999998 0.4
  endloop
 endfacet
 facet normal 3.982126244858874e-13 -1.0 0.0
  outer loop
   vertex 44.23580268694134 14.965449499999998 0
   vertex 44.240263511963384 14.9654495 0
   vertex 44.23580268694134 14.965449499999998 0.4
  endloop
 endfacet
 facet normal 3.982126244858874e-13 -1.0 0.0
  outer loop
   vertex 44.240263511963384 14.9654495 0
   vertex 44.240263511963384 14.9654495 0.4
   vertex 44.23580268694134 14.965449499999998 0.4
  endloop
 endfacet
 facet normal -0.7173560908996204 0.6967067093470649 0.0
  outer loop
   vertex 44.240263511963384 14.9654495 0
   vertex 44.21122516661854 14.935550499999996 0
   vertex 44.240263511963384 14.9654495 0.4
  endloop
 endfacet
 facet normal -0.7173560908996204 0.6967067093470649 0.0
  outer loop
   vertex 44.21122516661854 14.935550499999996 0
   vertex 44.21122516661854 14.935550499999996 0.4
   vertex 44.240263511963384 14.9654495 0.4
  endloop
 endfacet
 facet normal 3.982126244858874e-13 1.0 -0.0
  outer loop
   vertex 44.21122516661854 14.935550499999996 0
   vertex 44.2067643415965 14.935550499999998 0
   vertex 44.21122516661854 14.935550499999996 0.4
  endloop
 endfacet
 facet normal 3.982126244858874e-13 1.0 -0.0
  outer loop
   vertex 44.2067643415965 14.935550499999998 0
   vertex 44.2067643415965 14.935550499999998 0.4
   vertex 44.21122516661854 14.935550499999996 0.4
  endloop
 endfacet
 facet normal 0.0 0.0 1.0
  outer loop
   vertex 56.51227408818239 29.9 0.4
   vertex 27.473928743333857 0.001 0.4
   vertex 44.2067643415965 14.935550499999998 0.4
  endloop
 endfacet
 facet normal 0.0 -0.0 1.0
  outer loop
   vertex 44.23580268694134 14.965449499999998 0.4
   vertex 56.51227408818239 29.9 0.4
   vertex 44.2067643415965 14.935550499999998 0.4
  endloop
 endfacet
 facet normal 0.0 0.0 1.0
  outer loop
   vertex 60.97309911022602 29.899999999999995 0.4
   vertex 56.51227408818239 29.9 0.4
   vertex 44.23580268694134 14.965449499999998 0.4
  endloop
 endfacet
 facet normal 0.0 -0.0 1.0
  outer loop
   vertex 44.240263511963384 14.9654495 0.4
   vertex 60.97309911022602 29.899999999999995 0.4
   vertex 44.23580268694134 14.965449499999998 0.4
  endloop
 endfacet
 facet normal 0.0 0.0 1.0
  outer loop
   vertex 31.934753765377494 0.001 0.4
   vertex 60.97309911022602 29.899999999999995 0.4
   vertex 44.240263511963384 14.9654495 0.4
  endloop
 endfacet
 facet normal -0.0 0.0 1.0
  outer loop
   vertex 44.21122516661854 14.935550499999996 0.4
   vertex 31.934753765377494 0.001 0.4
   vertex 44.240263511963384 14.9654495 0.4
  endloop
 endfacet
 facet normal 0.0 0.0 1.0
  outer loop
   vertex 27.473928743333857 0.001 0.4
   vertex 31.934753765377494 0.001 0.4
   vertex 44.21122516661854 14.935550499999996 0.4
  endloop
 endfacet
 facet normal 0.0 0.0 1.0
  outer loop
   vertex 44.2067643415965 14.935550499999998 0.4
   vertex 27.473928743333857 0.001 0.4
   vertex 44.21122516661854 14.935550499999996 0.4
  endloop
 endfacet
 facet normal 0.0 0.0 -1.0
  outer loop
   vertex 56.512274088182394 33.1 0
   vertex 27.47392874333386 62.998999999999995 0
   vertex 44.235802686941355 48.034550499999995 0
  endloop
 endfacet
 facet normal 0.0 0.0 -1.0
  outer loop
   vertex 27.47392874333386 62.998999999999995 0
   vertex 44.2067643415965 48.064449499999995 0
   vertex 44.235802686941355 48.034550499999995 0
  endloop
 endfacet
 facet normal 0.0 0.0 -1.0
  outer loop
   vertex 27.47392874333386 62.998999999999995 0
   vertex 31.9347537653775 62.998999999999995 0
   vertex 44.2067643415965 48.064449499999995 0
  endloop
 endfacet
 facet normal 0.0 0.0 -1.0
  outer loop
   vertex 31.9347537653775 62.998999999999995 0
   vertex 44.21122516661855 48.064449499999995 0
   vertex 44.2067643415965 48.064449499999995 0
  endloop
 endfacet
 facet normal 0.0 0.0 -1.0
  outer loop
   vertex 31.9347537653775 62.998999999999995 0
   vertex 60.97309911022604 33.099999999999994 0
   vertex 44.21122516661855 48.064449499999995 0
  endloop
 endfacet
 facet normal 0.0 0.0 -1.0
  outer loop
   vertex 60.97309911022604 33.099999999999994 0
   vertex 44.24026351196339 48.034550499999995 0
   vertex 44.21122516661855 48.064449499999995 0
  endloop
 endfacet
 facet normal 0.0 0.0 -1.0
  outer loop
   vertex 60.97309911022604 33.099999999999994 0
   vertex 56.512274088182394 33.1 0
   vertex 44.24026351196339 48.034550499999995 0
  endloop
 endfacet
 facet normal 0.0 0.0 -1.0
  outer loop
   vertex 56.512274088182394 33.1 0
   vertex 44.235802686941355 48.034550499999995 0
   vertex 44.24026351196339 48.034550499999995 0
  endloop
 endfacet
 facet normal -0.7173560908995227 -0.6967067093471655 0.0
  outer loop
   vertex 27.47392874333386 62.998999999999995 0
   vertex 56.512274088182394 33.1 0
   vertex 56.512274088182394 33.1 0.4
  endloop
 endfacet
 facet normal -0.7173560908995227 -0.6967067093471655 -0.0
  outer loop
   vertex 27.47392874333386 62.998999999999995 0.4
   vertex 27.47392874333386 62.998999999999995 0
   vertex 56.512274088182394 33.1 0.4
  endloop
 endfacet
 facet normal 0.0 1.0 0.0
  outer loop
   vertex 31.9347537653775 62.998999999999995 0
   vertex 27.47392874333386 62.998999999999995 0
   vertex 27.47392874333386 62.998999999999995 0.4
  endloop
 endfacet
 facet normal 0.0 1.0 0.0
  outer loop
   vertex 31.9347537653775 62.998999999999995 0.4
   vertex 31.9347537653775 62.998999999999995 0
   vertex 27.47392874333386 62.998999999999995 0.4
  endloop
 endfacet
 facet normal 0.7173560908995228 0.6967067093471655 0.0
  outer loop
   vertex 60.97309911022604 33.099999999999994 0
   vertex 31.9347537653775 62.998999999999995 0
   vertex 31.9347537653775 62.998999999999995 0.4
  endloop
 endfacet
 facet normal 0.7173560908995228 0.6967067093471655 0.0
  outer loop
   vertex 60.97309911022604 33.099999999999994 0.4
   vertex 60.97309911022604 33.099999999999994 0
   vertex 31.9347537653775 62.998999999999995 0.4
  endloop
 endfacet
 facet normal -1.592850497943491e-15 -1.0 0.0
  outer loop
   vertex 56.512274088182394 33.1 0
   vertex 60.97309911022604 33.099999999999994 0
   vertex 60.97309911022604 33.099999999999994 0.4
  endloop
 endfacet
 facet normal -1.592850497943491e-15 -1.0 -0.0
  outer loop
   vertex 56.512274088182394 33.1 0.4
   vertex 56.512274088182394 33.1 0
   vertex 60.97309911022604 33.099999999999994 0.4
  endloop
 endfacet
 facet normal 0.7173560908994085 0.6967067093472828 -0.0
  outer loop
   vertex 44.235802686941355 48.034550499999995 0
   vertex 44.2067643415965 48.064449499999995 0
   vertex 44.235802686941355 48.034550499999995 0.4
  endloop
 endfacet
 facet normal 0.7173560908994085 0.6967067093472828 -0.0
  outer loop
   vertex 44.2067643415965 48.064449499999995 0
   vertex 44.2067643415965 48.064449499999995 0.4
   vertex 44.235802686941355 48.034550499999995 0.4
  endloop
 endfacet
 facet normal 0.0 -1.0 0.0
  outer loop
   vertex 44.2067643415965 48.064449499999995 0
   vertex 44.21122516661855 48.064449499999995 0
   vertex 44.2067643415965 48.064449499999995 0.4
  endloop
 endfacet
 facet normal 0.0 -1.0 0.0
  outer loop
   vertex 44.21122516661855 48.064449499999995 0
   vertex 44.21122516661855 48.064449499999995 0.4
   vertex 44.2067643415965 48.064449499999995 0.4
  endloop
 endfacet
 facet normal -0.7173560908995789 -0.6967067093471074 0.0
  outer loop
   vertex 44.21122516661855 48.064449499999995 0
   vertex 44.24026351196339 48.034550499999995 0
   vertex 44.21122516661855 48.064449499999995 0.4
  endloop
 endfacet
 facet normal -0.7173560908995789 -0.6967067093471074 0.0
  outer loop
   vertex 44.24026351196339 48.034550499999995 0
   vertex 44.24026351196339 48.034550499999995 0.4
   vertex 44.21122516661855 48.064449499999995 0.4
  endloop
 endfacet
 facet normal 0.0 1.0 -0.0
  outer loop
   vertex 44.24026351196339 48.034550499999995 0
   vertex 44.235802686941355 48.034550499999995 0
   vertex 44.24026351196339 48.034550499999995 0.4
  endloop
 endfacet
 facet normal 0.0 1.0 0.0
  outer loop
   vertex 44.235802686941355 48.034550499999995 0
   vertex 44.235802686941355 48.034550499999995 0.4
   vertex 44.24026351196339 48.034550499999995 0.4
  endloop
 endfacet
 facet normal 0.0 0.0 1.0
  outer loop
   vertex 27.47392874333386 62.998999999999995 0.4
   vertex 56.512274088182394 33.1 0.4
   vertex 44.235802686941355 48.034550499999995 0.4
  endloop
 endfacet
 facet normal 0.0 0.0 1.0
  outer loop
   vertex 44.2067643415965 48.064449499999995 0.4
   vertex 27.47392874333386 62.998999999999995 0.4
   vertex 44.235802686941355 48.034550499999995 0.4
  endloop
 endfacet
 facet normal 0.0 0.0 1.0
  outer loop
   vertex 31.9347537653775 62.998999999999995 0.4
   vertex 27.47392874333386 62.998999999999995 0.4
   vertex 44.2067643415965 48.064449499999995 0.4
  endloop
 endfacet
 facet normal 0.0 0.0 1.0
  outer loop
   vertex 44.21122516661855 48.064449499999995 0.4
   vertex 31.9347537653775 62.998999999999995 0.4
   vertex 44.2067643415965 48.064449499999995 0.4
  endloop
 endfacet
 facet normal 0.0 0.0 1.0
  outer loop
   vertex 60.97309911022604 33.099999999999994 0.4
   vertex 31.9347537653775 62.998999999999995 0.4
   vertex 44.21122516661855 48.064449499999995 0.4
  endloop
 endfacet
 facet normal -0.0 -0.0 1.0
  outer loop
   vertex 44.24026351196339 48.034550499999995 0.4
   vertex 60.97309911022604 33.099999999999994 0.4
   vertex 44.21122516661855 48.064449499999995 0.4
  endloop
 endfacet
 facet normal -0.0 -0.0 1.0
  outer loop
   vertex 56.512274088182394 33.1 0.4
   vertex 60.97309911022604 33.099999999999994 0.4
   vertex 44.24026351196339 48.034550499999995 0.4
  endloop
 endfacet
 facet normal -0.0 0.0 1.0
  outer loop
   vertex 44.235802686941355 48.034550499999995 0.4
   vertex 56.512274088182394 33.1 0.4
   vertex 44.24026351196339 48.034550499999995 0.4
  endloop
 endfacet
 facet normal 0.0 0.0 -1.0
  outer loop
   vertex 79.02690088977397 29.899999999999995 0
   vertex 60.97309911022602 29.899999999999995 0
   vertex 70.00902690088976 31.498399999999993 0
  endloop
 endfacet
 facet normal 0.0 0.0 -1.0
  outer loop
   vertex 60.97309911022602 29.899999999999995 0
   vertex 69.99097309911024 31.498399999999993 0
   vertex 70.00902690088976 31.498399999999993 0
  endloop
 endfacet
 facet normal 0.0 0.0 -1.0
  outer loop
   vertex 60.97309911022602 29.899999999999995 0
   vertex 60.97309911022604 33.099999999999994 0
   vertex 69.99097309911024 31.498399999999993 0
  endloop
 endfacet
 facet normal 0.0 0.0 -1.0
  outer loop
   vertex 60.97309911022604 33.099999999999994 0
   vertex 69.99097309911022 31.501599999999996 0
   vertex 69.99097309911024 31.498399999999993 0
  endloop
 endfacet
 facet normal 0.0 0.0 -1.0
  outer loop
   vertex 60.97309911022604 33.099999999999994 0
   vertex 79.02690088977396 33.099999999999994 0
   vertex 69.99097309911022 31.501599999999996 0
  endloop
 endfacet
 facet normal 0.0 0.0 -1.0
  outer loop
   vertex 79.02690088977396 33.099999999999994 0
   vertex 70.00902690088978 31.501599999999996 0
   vertex 69.99097309911022 31.501599999999996 0
  endloop
 endfacet
 facet normal 0.0 -0.0 -1.0
  outer loop
   vertex 79.02690088977396 33.099999999999994 0
   vertex 79.02690088977397 29.899999999999995 0
   vertex 70.00902690088978 31.501599999999996 0
  endloop
 endfacet
 facet normal 0.0 0.0 -1.0
  outer loop
   vertex 79.02690088977397 29.899999999999995 0
   vertex 70.00902690088976 31.498399999999993 0
   vertex 70.00902690088978 31.501599999999996 0
  endloop
 endfacet
 facet normal 0.0 -1.0 0.0
  outer loop
   vertex 60.97309911022602 29.899999999999995 0
   vertex 79.02690088977397 29.899999999999995 0
   vertex 79.02690088977397 29.899999999999995 0.4
  endloop
 endfacet
 facet normal 0.0 -1.0 0.0
  outer loop
   vertex 60.97309911022602 29.899999999999995 0.4
   vertex 60.97309911022602 29.899999999999995 0
   vertex 79.02690088977397 29.899999999999995 0.4
  endloop
 endfacet
 facet normal -1.0 4.440892098500627e-15 0.0
  outer loop
   vertex 60.97309911022604 33.099999999999994 0
   vertex 60.97309911022602 29.899999999999995 0
   vertex 60.97309911022602 29.899999999999995 0.4
  endloop
 endfacet
 facet normal -1.0 4.440892098500627e-15 0.0
  outer loop
   vertex 60.97309911022604 33.099999999999994 0.4
   vertex 60.97309911022604 33.099999999999994 0
   vertex 60.97309911022602 29.899999999999995 0.4
  endloop
 endfacet
 facet normal 0.0 1.0 0.0
  outer loop
   vertex 79.02690088977396 33.099999999999994 0
   vertex 60.97309911022604 33.099999999999994 0
   vertex 60.97309911022604 33.099999999999994 0.4
  endloop
 endfacet
 facet normal 0.0 1.0 0.0
  outer loop
   vertex 79.02690088977396 33.099999999999994 0.4
   vertex 79.02690088977396 33.099999999999994 0
   vertex 60.97309911022604 33.099999999999994 0.4
  endloop
 endfacet
 facet normal 1.0 4.440892098500627e-15 0.0
  outer loop
   vertex 79.02690088977397 29.899999999999995 0
   vertex 79.02690088977396 33.099999999999994 0
   vertex 79.02690088977396 33.099999999999994 0.4
  endloop
 endfacet
 facet normal 1.0 4.440892098500627e-15 0.0
  outer loop
   vertex 79.02690088977397 29.899999999999995 0.4
   vertex 79.02690088977397 29.899999999999995 0
   vertex 79.02690088977396 33.099999999999994 0.4
  endloop
 endfacet
 facet normal 0.0 1.0 -0.0
  outer loop
   vertex 70.00902690088976 31.498399999999993 0
   vertex 69.99097309911024 31.498399999999993 0
   vertex 70.00902690088976 31.498399999999993 0.4
  endloop
 endfacet
 facet normal 0.0 1.0 0.0
  outer loop
   vertex 69.99097309911024 31.498399999999993 0
   vertex 69.99097309911024 31.498399999999993 0.4
   vertex 70.00902690088976 31.498399999999993 0.4
  endloop
 endfacet
 facet normal 1.0 4.440892098496185e-12 -0.0
  outer loop
   vertex 69.99097309911024 31.498399999999993 0
   vertex 69.99097309911022 31.501599999999996 0
   vertex 69.99097309911024 31.498399999999993 0.4
  endloop
 endfacet
 facet normal 1.0 4.440892098496185e-12 -0.0
  outer loop
   vertex 69.99097309911022 31.501599999999996 0
   vertex 69.99097309911022 31.501599999999996 0.4
   vertex 69.99097309911024 31.498399999999993 0.4
  endloop
 endfacet
 facet normal 0.0 -1.0 0.0
  outer loop
   vertex 69.99097309911022 31.501599999999996 0
   vertex 70.00902690088978 31.501599999999996 0
   vertex 69.99097309911022 31.501599999999996 0.4
  endloop
 endfacet
 facet normal 0.0 -1.0 0.0
  outer loop
   vertex 70.00902690088978 31.501599999999996 0
   vertex 70.00902690088978 31.501599999999996 0.4
   vertex 69.99097309911022 31.501599999999996 0.4
  endloop
 endfacet
 facet normal -1.0 4.440892098496185e-12 0.0
  outer loop
   vertex 70.00902690088978 31.501599999999996 0
   vertex 70.00902690088976 31.498399999999993 0
   vertex 70.00902690088978 31.501599999999996 0.4
  endloop
 endfacet
 facet normal -1.0 4.440892098496185e-12 0.0
  outer loop
   vertex 70.00902690088976 31.498399999999993 0
   vertex 70.00902690088976 31.498399999999993 0.4
   vertex 70.00902690088978 31.501599999999996 0.4
  endloop
 endfacet
 facet normal 0.0 0.0 1.0
  outer loop
   vertex 60.97309911022602 29.899999999999995 0.4
   vertex 79.02690088977397 29.899999999999995 0.4
   vertex 70.00902690088976 31.498399999999993 0.4
  endloop
 endfacet
 facet normal -0.0 0.0 1.0
  outer loop
   vertex 69.99097309911024 31.498399999999993 0.4
   vertex 60.97309911022602 29.899999999999995 0.4
   vertex 70.00902690088976 31.498399999999993 0.4
  endloop
 endfacet
 facet normal 0.0 0.0 1.0
  outer loop
   vertex 60.97309911022604 33.099999999999994 0.4
   vertex 60.97309911022602 29.899999999999995 0.4
   vertex 69.99097309911024 31.498399999999993 0.4
  endloop
 endfacet
 facet normal 0.0 0.0 1.0
  outer loop
   vertex 69.99097309911022 31.501599999999996 0.4
   vertex 60.97309911022604 33.099999999999994 0.4
   vertex 69.99097309911024 31.498399999999993 0.4
  endloop
 endfacet
 facet normal 0.0 0.0 1.0
  outer loop
   vertex 79.02690088977396 33.099999999999994 0.4
   vertex 60.97309911022604 33.099999999999994 0.4
   vertex 69.99097309911022 31.501599999999996 0.4
  endloop
 endfacet
 facet normal 0.0 -0.0 1.0
  outer loop
   vertex 70.00902690088978 31.501599999999996 0.4
   vertex 79.02690088977396 33.099999999999994 0.4
   vertex 69.99097309911022 31.501599999999996 0.4
  endloop
 endfacet
 facet normal 0.0 0.0 1.0
  outer loop
   vertex 79.02690088977397 29.899999999999995 0.4
   vertex 79.02690088977396 33.099999999999994 0.4
   vertex 70.00902690088978 31.501599999999996 0.4
  endloop
 endfacet
 facet normal -0.0 0.0 1.0
  outer loop
   vertex 70.00902690088976 31.498399999999993 0.4
   vertex 79.02690088977397 29.899999999999995 0.4
   vertex 70.00902690088978 31.501599999999996 0.4
  endloop
 endfacet
 facet normal 0.0 0.0 -1.0
  outer loop
   vertex 108.06524623462249 0.001 0
   vertex 79.02690088977397 29.899999999999995 0
   vertex 95.78877483338145 14.935550499999996 0
  endloop
 endfacet
 facet normal 0.0 0.0 -1.0
  outer loop
   vertex 79.02690088977397 29.899999999999995 0
   vertex 95.7597364880366 14.9654495 0
   vertex 95.78877483338145 14.935550499999996 0
  endloop
 endfacet
 facet normal 0.0 0.0 -1.0
  outer loop
   vertex 79.02690088977397 29.899999999999995 0
   vertex 83.48772591181759 29.9 0
   vertex 95.7597364880366 14.9654495 0
  endloop
 endfacet
 facet normal 0.0 0.0 -1.0
  outer loop
   vertex 83.48772591181759 29.9 0
   vertex 95.76419731305865 14.965449499999998 0
   vertex 95.7597364880366 14.9654495 0
  endloop
 endfacet
 facet normal 0.0 0.0 -1.0
  outer loop
   vertex 83.48772591181759 29.9 0
   vertex 112.52607125666613 0.001 0
   vertex 95.76419731305865 14.965449499999998 0
  endloop
 endfacet
 facet normal 0.0 0.0 -1.0
  outer loop
   vertex 112.52607125666613 0.001 0
   vertex 95.79323565840349 14.935550499999998 0
   vertex 95.76419731305865 14.965449499999998 0
  endloop
 endfacet
 facet normal 0.0 0.0 -1.0
  outer loop
   vertex 112.52607125666613 0.001 0
   vertex 108.06524623462249 0.001 0
   vertex 95.79323565840349 14.935550499999998 0
  endloop
 endfacet
 facet normal 0.0 0.0 -1.0
  outer loop
   vertex 108.06524623462249 0.001 0
   vertex 95.78877483338145 14.935550499999996 0
   vertex 95.79323565840349 14.935550499999998 0
  endloop
 endfacet
 facet normal -0.7173560908995229 -0.6967067093471654 0.0
  outer loop
   vertex 79.02690088977397 29.899999999999995 0
   vertex 108.06524623462249 0.001 0
   vertex 108.06524623462249 0.001 0.4
  endloop
 endfacet
 facet normal -0.7173560908995229 -0.6967067093471654 -0.0
  outer loop
   vertex 79.02690088977397 29.899999999999995 0.4
   vertex 79.02690088977397 29.899999999999995 0
   vertex 108.06524623462249 0.001 0.4
  endloop
 endfacet
 facet normal -7.964252489717495e-16 1.0 0.0
  outer loop
   vertex 83.48772591181759 29.9 0
   vertex 79.02690088977397 29.899999999999995 0
   vertex 79.02690088977397 29.899999999999995 0.4
  endloop
 endfacet
 facet normal -7.964252489717495e-16 1.0 0.0
  outer loop
   vertex 83.48772591181759 29.9 0.4
   vertex 83.48772591181759 29.9 0
   vertex 79.02690088977397 29.899999999999995 0.4
  endloop
 endfacet
 facet normal 0.7173560908995227 0.6967067093471655 0.0
  outer loop
   vertex 112.52607125666613 0.001 0
   vertex 83.48772591181759 29.9 0
   vertex 83.48772591181759 29.9 0.4
  endloop
 endfacet
 facet normal 0.7173560908995227 0.6967067093471655 0.0
  outer loop
   vertex 112.52607125666613 0.001 0.4
   vertex 112.52607125666613 0.001 0
   vertex 83.48772591181759 29.9 0.4
  endloop
 endfacet
 facet normal 0.0 -1.0 0.0
  outer loop
   vertex 108.06524623462249 0.001 0
   vertex 112.52607125666613 0.001 0
   vertex 112.52607125666613 0.001 0.4
  endloop
 endfacet
 facet normal 0.0 -1.0 0.0
  outer loop
   vertex 108.06524623462249 0.001 0.4
   vertex 108.06524623462249 0.001 0
   vertex 112.52607125666613 0.001 0.4
  endloop
 endfacet
 facet normal 0.7173560908994501 0.6967067093472403 -0.0
  outer loop
   vertex 95.78877483338145 14.935550499999996 0
   vertex 95.7597364880366 14.9654495 0
   vertex 95.78877483338145 14.935550499999996 0.4
  endloop
 endfacet
 facet normal 0.7173560908994501 0.6967067093472403 -0.0
  outer loop
   vertex 95.7597364880366 14.9654495 0
   vertex 95.7597364880366 14.9654495 0.4
   vertex 95.78877483338145 14.935550499999996 0.4
  endloop
 endfacet
 facet normal -3.9821262448525307e-13 -1.0 0.0
  outer loop
   vertex 95.7597364880366 14.9654495 0
   vertex 95.76419731305865 14.965449499999998 0
   vertex 95.7597364880366 14.9654495 0.4
  endloop
 endfacet
 facet normal -3.9821262448525307e-13 -1.0 0.0
  outer loop
   vertex 95.76419731305865 14.965449499999998 0
   vertex 95.76419731305865 14.965449499999998 0.4
   vertex 95.7597364880366 14.9654495 0.4
  endloop
 endfacet
 facet normal -0.7173560908995789 -0.6967067093471074 0.0
  outer loop
   vertex 95.76419731305865 14.965449499999998 0
   vertex 95.79323565840349 14.935550499999998 0
   vertex 95.76419731305865 14.965449499999998 0.4
  endloop
 endfacet
 facet normal -0.7173560908995789 -0.6967067093471074 0.0
  outer loop
   vertex 95.79323565840349 14.935550499999998 0
   vertex 95.79323565840349 14.935550499999998 0.4
   vertex 95.76419731305865 14.965449499999998 0.4
  endloop
 endfacet
 facet normal -3.9821262448652165e-13 1.0 0.0
  outer loop
   vertex 95.79323565840349 14.935550499999998 0
   vertex 95.78877483338145 14.935550499999996 0
   vertex 95.79323565840349 14.935550499999998 0.4
  endloop
 endfacet
 facet normal -3.9821262448652165e-13 1.0 0.0
  outer loop
   vertex 95.78877483338145 14.935550499999996 0
   vertex 95.78877483338145 14.935550499999996 0.4
   vertex 95.79323565840349 14.935550499999998 0.4
  endloop
 endfacet
 facet normal 0.0 0.0 1.0
  outer loop
   vertex 79.02690088977397 29.899999999999995 0.4
   vertex 108.06524623462249 0.001 0.4
   vertex 95.78877483338145 14.935550499999996 0.4
  endloop
 endfacet
 facet normal 0.0 0.0 1.0
  outer loop
   vertex 95.7597364880366 14.9654495 0.4
   vertex 79.02690088977397 29.899999999999995 0.4
   vertex 95.78877483338145 14.935550499999996 0.4
  endloop
 endfacet
 facet normal 0.0 0.0 1.0
  outer loop
   vertex 83.48772591181759 29.9 0.4
   vertex 79.02690088977397 29.899999999999995 0.4
   vertex 95.7597364880366 14.9654495 0.4
  endloop
 endfacet
 facet normal 0.0 0.0 1.0
  outer loop
   vertex 95.76419731305865 14.965449499999998 0.4
   vertex 83.48772591181759 29.9 0.4
   vertex 95.7597364880366 14.9654495 0.4
  endloop
 endfacet
 facet normal 0.0 0.0 1.0
  outer loop
   vertex 112.52607125666613 0.001 0.4
   vertex 83.48772591181759 29.9 0.4
   vertex 95.76419731305865 14.965449499999998 0.4
  endloop
 endfacet
 facet normal -0.0 -0.0 1.0
  outer loop
   vertex 95.79323565840349 14.935550499999998 0.4
   vertex 112.52607125666613 0.001 0.4
   vertex 95.76419731305865 14.965449499999998 0.4
  endloop
 endfacet
 facet normal 0.0 -0.0 1.0
  outer loop
   vertex 108.06524623462249 0.001 0.4
   vertex 112.52607125666613 0.001 0.4
   vertex 95.79323565840349 14.935550499999998 0.4
  endloop
 endfacet
 facet normal -0.0 0.0 1.0
  outer loop
   vertex 95.78877483338145 14.935550499999996 0.4
   vertex 108.06524623462249 0.001 0.4
   vertex 95.79323565840349 14.935550499999998 0.4
  endloop
 endfacet
 facet normal 0.0 0.0 -1.0
  outer loop
   vertex 79.02690088977396 33.099999999999994 0
   vertex 108.06524623462249 62.998999999999995 0
   vertex 95.7597364880366 48.034550499999995 0
  endloop
 endfacet
 facet normal 0.0 0.0 -1.0
  outer loop
   vertex 108.06524623462249 62.998999999999995 0
   vertex 95.78877483338145 48.06444950000001 0
   vertex 95.7597364880366 48.034550499999995 0
  endloop
 endfacet
 facet normal 0.0 -0.0 -1.0
  outer loop
   vertex 108.06524623462249 62.998999999999995 0
   vertex 112.52607125666616 62.999000000000024 0
   vertex 95.78877483338145 48.06444950000001 0
  endloop
 endfacet
 facet normal 0.0 0.0 -1.0
  outer loop
   vertex 112.52607125666616 62.999000000000024 0
   vertex 95.79323565840349 48.064449499999995 0
   vertex 95.78877483338145 48.06444950000001 0
  endloop
 endfacet
 facet normal 0.0 0.0 -1.0
  outer loop
   vertex 112.52607125666616 62.999000000000024 0
   vertex 83.48772591181759 33.1 0
   vertex 95.79323565840349 48.064449499999995 0
  endloop
 endfacet
 facet normal 0.0 0.0 -1.0
  outer loop
   vertex 83.48772591181759 33.1 0
   vertex 95.76419731305866 48.03455050000001 0
   vertex 95.79323565840349 48.064449499999995 0
  endloop
 endfacet
 facet normal -0.0 0.0 -1.0
  outer loop
   vertex 83.48772591181759 33.1 0
   vertex 79.02690088977396 33.099999999999994 0
   vertex 95.76419731305866 48.03455050000001 0
  endloop
 endfacet
 facet normal 0.0 0.0 -1.0
  outer loop
   vertex 79.02690088977396 33.099999999999994 0
   vertex 95.7597364880366 48.034550499999995 0
   vertex 95.76419731305866 48.03455050000001 0
  endloop
 endfacet
 facet normal -0.7173560908995228 0.6967067093471655 0.0
  outer loop
   vertex 108.06524623462249 62.998999999999995 0
   vertex 79.02690088977396 33.099999999999994 0
   vertex 79.02690088977396 33.099999999999994 0.4
  endloop
 endfacet
 facet normal -0.7173560908995228 0.6967067093471655 0.0
  outer loop
   vertex 108.06524623462249 62.998999999999995 0.4
   vertex 108.06524623462249 62.998999999999995 0
   vertex 79.02690088977396 33.099999999999994 0.4
  endloop
 endfacet
 facet normal -6.371401991773934e-15 1.0 0.0
  outer loop
   vertex 112.52607125666616 62.999000000000024 0
   vertex 108.06524623462249 62.998999999999995 0
   vertex 108.06524623462249 62.998999999999995 0.4
  endloop
 endfacet
 facet normal -6.371401991773934e-15 1.0 0.0
  outer loop
   vertex 112.52607125666616 62.999000000000024 0.4
   vertex 112.52607125666616 62.999000000000024 0
   vertex 108.06524623462249 62.998999999999995 0.4
  endloop
 endfacet
 facet normal 0.7173560908995228 -0.6967067093471656 0.0
  outer loop
   vertex 83.48772591181759 33.1 0
   vertex 112.52607125666616 62.999000000000024 0
   vertex 112.52607125666616 62.999000000000024 0.4
  endloop
 endfacet
 facet normal 0.7173560908995228 -0.6967067093471656 0.0
  outer loop
   vertex 83.48772591181759 33.1 0.4
   vertex 83.48772591181759 33.1 0
   vertex 112.52607125666616 62.999000000000024 0.4
  endloop
 endfacet
 facet normal 1.5928504979434936e-15 -1.0 0.0
  outer loop
   vertex 79.02690088977396 33.099999999999994 0
   vertex 83.48772591181759 33.1 0
   vertex 83.48772591181759 33.1 0.4
  endloop
 endfacet
 facet normal 1.5928504979434936e-15 -1.0 0.0
  outer loop
   vertex 79.02690088977396 33.099999999999994 0.4
   vertex 79.02690088977396 33.099999999999994 0
   vertex 83.48772591181759 33.1 0.4
  endloop
 endfacet
 facet normal 0.7173560908995742 -0.6967067093471124 0.0
  outer loop
   vertex 95.7597364880366 48.034550499999995 0
   vertex 95.78877483338145 48.06444950000001 0
   vertex 95.7597364880366 48.034550499999995 0.4
  endloop
 endfacet
 facet normal 0.7173560908995742 -0.6967067093471124 0.0
  outer loop
   vertex 95.78877483338145 48.06444950000001 0
   vertex 95.78877483338145 48.06444950000001 0.4
   vertex 95.7597364880366 48.034550499999995 0.4
  endloop
 endfacet
 facet normal -3.1857009958921732e-12 -1.0 0.0
  outer loop
   vertex 95.78877483338145 48.06444950000001 0
   vertex 95.79323565840349 48.064449499999995 0
   vertex 95.78877483338145 48.06444950000001 0.4
  endloop
 endfacet
 facet normal -3.1857009958921732e-12 -1.0 0.0
  outer loop
   vertex 95.79323565840349 48.064449499999995 0
   vertex 95.79323565840349 48.064449499999995 0.4
   vertex 95.78877483338145 48.06444950000001 0.4
  endloop
 endfacet
 facet normal -0.717356090899584 0.6967067093471025 0.0
  outer loop
   vertex 95.79323565840349 48.064449499999995 0
   vertex 95.76419731305866 48.03455050000001 0
   vertex 95.79323565840349 48.064449499999995 0.4
  endloop
 endfacet
 facet normal -0.717356090899584 0.6967067093471025 0.0
  outer loop
   vertex 95.76419731305866 48.03455050000001 0
   vertex 95.76419731305866 48.03455050000001 0.4
   vertex 95.79323565840349 48.064449499999995 0.4
  endloop
 endfacet
 facet normal -3.185700995871876e-12 1.0 0.0
  outer loop
   vertex 95.76419731305866 48.03455050000001 0
   vertex 95.7597364880366 48.034550499999995 0
   vertex 95.76419731305866 48.03455050000001 0.4
  endloop
 endfacet
 facet normal -3.185700995871876e-12 1.0 0.0
  outer loop
   vertex 95.7597364880366 48.034550499999995 0
   vertex 95.7597364880366 48.034550499999995 0.4
   vertex 95.76419731305866 48.03455050000001 0.4
  endloop
 endfacet
 facet normal 0.0 0.0 1.0
  outer loop
   vertex 108.06524623462249 62.998999999999995 0.4
   vertex 79.02690088977396 33.099999999999994 0.4
   vertex 95.7597364880366 48.034550499999995 0.4
  endloop
 endfacet
 facet normal 0.0 -0.0 1.0
  outer loop
   vertex 95.78877483338145 48.06444950000001 0.4
   vertex 108.06524623462249 62.998999999999995 0.4
   vertex 95.7597364880366 48.034550499999995 0.4
  endloop
 endfacet
 facet normal 0.0 0.0 1.0
  outer loop
   vertex 112.52607125666616 62.999000000000024 0.4
   vertex 108.06524623462249 62.998999999999995 0.4
   vertex 95.78877483338145 48.06444950000001 0.4
  endloop
 endfacet
 facet normal 0.0 -0.0 1.0
  outer loop
   vertex 95.79323565840349 48.064449499999995 0.4
   vertex 112.52607125666616 62.999000000000024 0.4
   vertex 95.78877483338145 48.06444950000001 0.4
  endloop
 endfacet
 facet normal 0.0 0.0 1.0
  outer loop
   vertex 83.48772591181759 33.1 0.4
   vertex 112.52607125666616 62.999000000000024 0.4
   vertex 95.79323565840349 48.064449499999995 0.4
  endloop
 endfacet
 facet normal -0.0 0.0 1.0
  outer loop
   vertex 95.76419731305866 48.03455050000001 0.4
   vertex 83.48772591181759 33.1 0.4
   vertex 95.79323565840349 48.064449499999995 0.4
  endloop
 endfacet
 facet normal 0.0 0.0 1.0
  outer loop
   vertex 79.02690088977396 33.099999999999994 0.4
   vertex 83.48772591181759 33.1 0.4
   vertex 95.76419731305866 48.03455050000001 0.4
  endloop
 endfacet
 facet normal -0.0 0.0 1.0
  outer loop
   vertex 95.7597364880366 48.034550499999995 0.4
   vertex 79.02690088977396 33.099999999999994 0.4
   vertex 95.76419731305866 48.03455050000001 0.4
  endloop
 endfacet
 facet normal 0.0 0.0 -1.0
  outer loop
   vertex 124.99772587654176 29.899999999999995 0
   vertex 83.48772591181759 29.9 0
   vertex 104.26348089416204 31.4984 0
  endloop
 endfacet
 facet normal 0.0 0.0 -1.0
  outer loop
   vertex 83.48772591181759 29.9 0
   vertex 104.22197089419731 31.498399999999997 0
   vertex 104.26348089416204 31.4984 0
  endloop
 endfacet
 facet normal 0.0 0.0 -1.0
  outer loop
   vertex 83.48772591181759 29.9 0
   vertex 83.48772591181759 33.1 0
   vertex 104.22197089419731 31.498399999999997 0
  endloop
 endfacet
 facet normal 0.0 0.0 -1.0
  outer loop
   vertex 83.48772591181759 33.1 0
   vertex 104.22197089419731 31.5016 0
   vertex 104.22197089419731 31.498399999999997 0
  endloop
 endfacet
 facet normal 0.0 0.0 -1.0
  outer loop
   vertex 83.48772591181759 33.1 0
   vertex 124.99772587654176 33.1 0
   vertex 104.22197089419731 31.5016 0
  endloop
 endfacet
 facet normal 0.0 0.0 -1.0
  outer loop
   vertex 124.99772587654176 33.1 0
   vertex 104.26348089416204 31.5016 0
   vertex 104.22197089419731 31.5016 0
  endloop
 endfacet
 facet normal 0.0 -0.0 -1.0
  outer loop
   vertex 124.99772587654176 33.1 0
   vertex 124.99772587654176 29.899999999999995 0
   vertex 104.26348089416204 31.5016 0
  endloop
 endfacet
 facet normal 0.0 0.0 -1.0
  outer loop
   vertex 124.99772587654176 29.899999999999995 0
   vertex 104.26348089416204 31.4984 0
   vertex 104.26348089416204 31.5016 0
  endloop
 endfacet
 facet normal -8.558693524017469e-17 -1.0 0.0
  outer loop
   vertex 83.48772591181759 29.9 0
   vertex 124.99772587654176 29.899999999999995 0
   vertex 124.99772587654176 29.899999999999995 0.4
  endloop
 endfacet
 facet normal -8.558693524017469e-17 -1.0 -0.0
  outer loop
   vertex 83.48772591181759 29.9 0.4
   vertex 83.48772591181759 29.9 0
   vertex 124.99772587654176 29.899999999999995 0.4
  endloop
 endfacet
 facet normal -1.0 0.0 0.0
  outer loop
   vertex 83.48772591181759 33.1 0
   vertex 83.48772591181759 29.9 0
   vertex 83.48772591181759 29.9 0.4
  endloop
 endfacet
 facet normal -1.0 -0.0 -0.0
  outer loop
   vertex 83.48772591181759 33.1 0.4
   vertex 83.48772591181759 33.1 0
   vertex 83.48772591181759 29.9 0.4
  endloop
 endfacet
 facet normal 0.0 1.0 0.0
  outer loop
   vertex 124.99772587654176 33.1 0
   vertex 83.48772591181759 33.1 0
   vertex 83.48772591181759 33.1 0.4
  endloop
 endfacet
 facet normal 0.0 1.0 0.0
  outer loop
   vertex 124.99772587654176 33.1 0.4
   vertex 124.99772587654176 33.1 0
   vertex 83.48772591181759 33.1 0.4
  endloop
 endfacet
 facet normal 1.0 0.0 0.0
  outer loop
   vertex 124.99772587654176 29.899999999999995 0
   vertex 124.99772587654176 33.1 0
   vertex 124.99772587654176 33.1 0.4
  endloop
 endfacet
 facet normal 1.0 -0.0 0.0
  outer loop
   vertex 124.99772587654176 29.899999999999995 0.4
   vertex 124.99772587654176 29.899999999999995 0
   vertex 124.99772587654176 33.1 0.4
  endloop
 endfacet
 facet normal -8.558693524016053e-14 1.0 0.0
  outer loop
   vertex 104.26348089416204 31.4984 0
   vertex 104.22197089419731 31.498399999999997 0
   vertex 104.26348089416204 31.4984 0.4
  endloop
 endfacet
 facet normal -8.558693524016053e-14 1.0 0.0
  outer loop
   vertex 104.22197089419731 31.498399999999997 0
   vertex 104.22197089419731 31.498399999999997 0.4
   vertex 104.26348089416204 31.4984 0.4
  endloop
 endfacet
 facet normal 1.0 0.0 0.0
  outer loop
   vertex 104.22197089419731 31.498399999999997 0
   vertex 104.22197089419731 31.5016 0
   vertex 104.22197089419731 31.498399999999997 0.4
  endloop
 endfacet
 facet normal 1.0 0.0 -0.0
  outer loop
   vertex 104.22197089419731 31.5016 0
   vertex 104.22197089419731 31.5016 0.4
   vertex 104.22197089419731 31.498399999999997 0.4
  endloop
 endfacet
 facet normal 0.0 -1.0 0.0
  outer loop
   vertex 104.22197089419731 31.5016 0
   vertex 104.26348089416204 31.5016 0
   vertex 104.22197089419731 31.5016 0.4
  endloop
 endfacet
 facet normal 0.0 -1.0 0.0
  outer loop
   vertex 104.26348089416204 31.5016 0
   vertex 104.26348089416204 31.5016 0.4
   vertex 104.22197089419731 31.5016 0.4
  endloop
 endfacet
 facet normal -1.0 0.0 0.0
  outer loop
   vertex 104.26348089416204 31.5016 0
   vertex 104.26348089416204 31.4984 0
   vertex 104.26348089416204 31.5016 0.4
  endloop
 endfacet
 facet normal -1.0 0.0 0.0
  outer loop
   vertex 104.26348089416204 31.4984 0
   vertex 104.26348089416204 31.4984 0.4
   vertex 104.26348089416204 31.5016 0.4
  endloop
 endfacet
 facet normal -0.0 0.0 1.0
  outer loop
   vertex 83.48772591181759 29.9 0.4
   vertex 124.99772587654176 29.899999999999995 0.4
   vertex 104.26348089416204 31.4984 0.4
  endloop
 endfacet
 facet normal -0.0 0.0 1.0
  outer loop
   vertex 104.22197089419731 31.498399999999997 0.4
   vertex 83.48772591181759 29.9 0.4
   vertex 104.26348089416204 31.4984 0.4
  endloop
 endfacet
 facet normal 0.0 0.0 1.0
  outer loop
   vertex 83.48772591181759 33.1 0.4
   vertex 83.48772591181759 29.9 0.4
   vertex 104.22197089419731 31.498399999999997 0.4
  endloop
 endfacet
 facet normal 0.0 0.0 1.0
  outer loop
   vertex 104.22197089419731 31.5016 0.4
   vertex 83.48772591181759 33.1 0.4
   vertex 104.22197089419731 31.498399999999997 0.4
  endloop
 endfacet
 facet normal 0.0 0.0 1.0
  outer loop
   vertex 124.99772587654176 33.1 0.4
   vertex 83.48772591181759 33.1 0.4
   vertex 104.22197089419731 31.5016 0.4
  endloop
 endfacet
 facet normal 0.0 -0.0 1.0
  outer loop
   vertex 104.26348089416204 31.5016 0.4
   vertex 124.99772587654176 33.1 0.4
   vertex 104.22197089419731 31.5016 0.4
  endloop
 endfacet
 facet normal 0.0 -0.0 1.0
  outer loop
   vertex 124.99772587654176 29.899999999999995 0.4
   vertex 124.99772587654176 33.1 0.4
   vertex 104.26348089416204 31.5016 0.4
  endloop
 endfacet
 facet normal -0.0 0.0 1.0
  outer loop
   vertex 104.26348089416204 31.4984 0.4
   vertex 124.99772587654176 29.899999999999995 0.4
   vertex 104.26348089416204 31.5016 0.4
  endloop
 endfacet
 facet normal 0.0 0.0 -1.0
  outer loop
   vertex 56.51227408818239 29.9 0
   vertex -0.00027412282408884297 29.9 0
   vertex 28.284256256784655 31.4984 0
  endloop
 endfacet
 facet normal 0.0 0.0 -1.0
  outer loop
   vertex -0.00027412282408884297 29.9 0
   vertex 28.227743708573648 31.4984 0
   vertex 28.284256256784655 31.4984 0
  endloop
 endfacet
 facet normal 0.0 0.0 -1.0
  outer loop
   vertex -0.00027412282408884297 29.9 0
   vertex -0.0002741228240888458 33.1 0
   vertex 28.227743708573648 31.4984 0
  endloop
 endfacet
 facet normal 0.0 0.0 -1.0
  outer loop
   vertex -0.0002741228240888458 33.1 0
   vertex 28.22774370857365 31.5016 0
   vertex 28.227743708573648 31.4984 0
  endloop
 endfacet
 facet normal 0.0 0.0 -1.0
  outer loop
   vertex -0.0002741228240888458 33.1 0
   vertex 56.512274088182394 33.1 0
   vertex 28.22774370857365 31.5016 0
  endloop
 endfacet
 facet normal 0.0 0.0 -1.0
  outer loop
   vertex 56.512274088182394 33.1 0
   vertex 28.28425625678465 31.5016 0
   vertex 28.22774370857365 31.5016 0
  endloop
 endfacet
 facet normal 0.0 0.0 -1.0
  outer loop
   vertex 56.512274088182394 33.1 0
   vertex 56.51227408818239 29.9 0
   vertex 28.28425625678465 31.5016 0
  endloop
 endfacet
 facet normal 0.0 0.0 -1.0
  outer loop
   vertex 56.51227408818239 29.9 0
   vertex 28.284256256784655 31.4984 0
   vertex 28.28425625678465 31.5016 0
  endloop
 endfacet
 facet normal 0.0 -1.0 0.0
  outer loop
   vertex -0.00027412282408884297 29.9 0
   vertex 56.51227408818239 29.9 0
   vertex 56.51227408818239 29.9 0.4
  endloop
 endfacet
 facet normal 0.0 -1.0 0.0
  outer loop
   vertex -0.00027412282408884297 29.9 0.4
   vertex -0.00027412282408884297 29.9 0
   vertex 56.51227408818239 29.9 0.4
  endloop
 endfacet
 facet normal -1.0 -8.809142651444716e-19 0.0
  outer loop
   vertex -0.0002741228240888458 33.1 0
   vertex -0.00027412282408884297 29.9 0
   vertex -0.00027412282408884297 29.9 0.4
  endloop
 endfacet
 facet normal -1.0 -8.809142651444716e-19 -0.0
  outer loop
   vertex -0.0002741228240888458 33.1 0.4
   vertex -0.0002741228240888458 33.1 0
   vertex -0.00027412282408884297 29.9 0.4
  endloop
 endfacet
 facet normal 0.0 1.0 0.0
  outer loop
   vertex 56.512274088182394 33.1 0
   vertex -0.0002741228240888458 33.1 0
   vertex -0.0002741228240888458 33.1 0.4
  endloop
 endfacet
 facet normal 0.0 1.0 0.0
  outer loop
   vertex 56.512274088182394 33.1 0.4
   vertex 56.512274088182394 33.1 0
   vertex -0.0002741228240888458 33.1 0.4
  endloop
 endfacet
 facet normal 1.0 -2.220446049250311e-15 0.0
  outer loop
   vertex 56.51227408818239 29.9 0
   vertex 56.512274088182394 33.1 0
   vertex 56.512274088182394 33.1 0.4
  endloop
 endfacet
 facet normal 1.0 -2.220446049250311e-15 0.0
  outer loop
   vertex 56.51227408818239 29.9 0.4
   vertex 56.51227408818239 29.9 0
   vertex 56.512274088182394 33.1 0.4
  endloop
 endfacet
 facet normal 0.0 1.0 -0.0
  outer loop
   vertex 28.284256256784655 31.4984 0
   vertex 28.227743708573648 31.4984 0
   vertex 28.284256256784655 31.4984 0.4
  endloop
 endfacet
 facet normal 0.0 1.0 0.0
  outer loop
   vertex 28.227743708573648 31.4984 0
   vertex 28.227743708573648 31.4984 0.4
   vertex 28.284256256784655 31.4984 0.4
  endloop
 endfacet
 facet normal 1.0 -1.1102230246252787e-12 0.0
  outer loop
   vertex 28.227743708573648 31.4984 0
   vertex 28.22774370857365 31.5016 0
   vertex 28.227743708573648 31.4984 0.4
  endloop
 endfacet
 facet normal 1.0 -1.1102230246252787e-12 0.0
  outer loop
   vertex 28.22774370857365 31.5016 0
   vertex 28.22774370857365 31.5016 0.4
   vertex 28.227743708573648 31.4984 0.4
  endloop
 endfacet
 facet normal 0.0 -1.0 0.0
  outer loop
   vertex 28.22774370857365 31.5016 0
   vertex 28.28425625678465 31.5016 0
   vertex 28.22774370857365 31.5016 0.4
  endloop
 endfacet
 facet normal 0.0 -1.0 0.0
  outer loop
   vertex 28.28425625678465 31.5016 0
   vertex 28.28425625678465 31.5016 0.4
   vertex 28.22774370857365 31.5016 0.4
  endloop
 endfacet
 facet normal -1.0 -1.1102230246252787e-12 0.0
  outer loop
   vertex 28.28425625678465 31.5016 0
   vertex 28.284256256784655 31.4984 0
   vertex 28.28425625678465 31.5016 0.4
  endloop
 endfacet
 facet normal -1.0 -1.1102230246252787e-12 0.0
  outer loop
   vertex 28.284256256784655 31.4984 0
   vertex 28.284256256784655 31.4984 0.4
   vertex 28.28425625678465 31.5016 0.4
  endloop
 endfacet
 facet normal 0.0 0.0 1.0
  outer loop
   vertex -0.00027412282408884297 29.9 0.4
   vertex 56.51227408818239 29.9 0.4
   vertex 28.284256256784655 31.4984 0.4
  endloop
 endfacet
 facet normal -0.0 0.0 1.0
  outer loop
   vertex 28.227743708573648 31.4984 0.4
   vertex -0.00027412282408884297 29.9 0.4
   vertex 28.284256256784655 31.4984 0.4
  endloop
 endfacet
 facet normal 0.0 0.0 1.0
  outer loop
   vertex -0.0002741228240888458 33.1 0.4
   vertex -0.00027412282408884297 29.9 0.4
   vertex 28.227743708573648 31.4984 0.4
  endloop
 endfacet
 facet normal 0.0 0.0 1.0
  outer loop
   vertex 28.22774370857365 31.5016 0.4
   vertex -0.0002741228240888458 33.1 0.4
   vertex 28.227743708573648 31.4984 0.4
  endloop
 endfacet
 facet normal 0.0 0.0 1.0
  outer loop
   vertex 56.512274088182394 33.1 0.4
   vertex -0.0002741228240888458 33.1 0.4
   vertex 28.22774370857365 31.5016 0.4
  endloop
 endfacet
 facet normal 0.0 -0.0 1.0
  outer loop
   vertex 28.28425625678465 31.5016 0.4
   vertex 56.512274088182394 33.1 0.4
   vertex 28.22774370857365 31.5016 0.4
  endloop
 endfacet
 facet normal 0.0 -0.0 1.0
  outer loop
   vertex 56.51227408818239 29.9 0.4
   vertex 56.512274088182394 33.1 0.4
   vertex 28.28425625678465 31.5016 0.4
  endloop
 endfacet
 facet normal -0.0 -0.0 1.0
  outer loop
   vertex 28.284256256784655 31.4984 0.4
   vertex 56.51227408818239 29.9 0.4
   vertex 28.28425625678465 31.5016 0.4
  endloop
 endfacet
 facet normal 0.0 0.0 -1.0
  outer loop
   vertex 124.99772587654176 29.899999999999995 0
   vertex 83.48772591181759 29.9 0
   vertex 104.26348089416204 31.4984 0
  endloop
 endfacet
 facet normal 0.0 0.0 -1.0
  outer loop
   vertex 83.48772591181759 29.9 0
   vertex 104.22197089419731 31.498399999999997 0
   vertex 104.26348089416204 31.4984 0
  endloop
 endfacet
 facet normal 0.0 0.0 -1.0
  outer loop
   vertex 83.48772591181759 29.9 0
   vertex 83.48772591181759 33.1 0
   vertex 104.22197089419731 31.498399999999997 0
  endloop
 endfacet
 facet normal 0.0 0.0 -1.0
  outer loop
   vertex 83.48772591181759 33.1 0
   vertex 104.22197089419731 31.5016 0
   vertex 104.22197089419731 31.498399999999997 0
  endloop
 endfacet
 facet normal 0.0 0.0 -1.0
  outer loop
   vertex 83.48772591181759 33.1 0
   vertex 124.99772587654176 33.1 0
   vertex 104.22197089419731 31.5016 0
  endloop
 endfacet
 facet normal 0.0 0.0 -1.0
  outer loop
   vertex 124.99772587654176 33.1 0
   vertex 104.26348089416204 31.5016 0
   vertex 104.22197089419731 31.5016 0
  endloop
 endfacet
 facet normal 0.0 -0.0 -1.0
  outer loop
   vertex 124.99772587654176 33.1 0
   vertex 124.99772587654176 29.899999999999995 0
   vertex 104.26348089416204 31.5016 0
  endloop
 endfacet
 facet normal 0.0 0.0 -1.0
  outer loop
   vertex 124.99772587654176 29.899999999999995 0
   vertex 104.26348089416204 31.4984 0
   vertex 104.26348089416204 31.5016 0
  endloop
 endfacet
 facet normal -8.558693524017469e-17 -1.0 0.0
  outer loop
   vertex 83.48772591181759 29.9 0
   vertex 124.99772587654176 29.899999999999995 0
   vertex 124.99772587654176 29.899999999999995 0.4
  endloop
 endfacet
 facet normal -8.558693524017469e-17 -1.0 -0.0
  outer loop
   vertex 83.48772591181759 29.9 0.4
   vertex 83.48772591181759 29.9 0
   vertex 124.99772587654176 29.899999999999995 0.4
  endloop
 endfacet
 facet normal -1.0 0.0 0.0
  outer loop
   vertex 83.48772591181759 33.1 0
   vertex 83.48772591181759 29.9 0
   vertex 83.48772591181759 29.9 0.4
  endloop
 endfacet
 facet normal -1.0 -0.0 -0.0
  outer loop
   vertex 83.48772591181759 33.1 0.4
   vertex 83.48772591181759 33.1 0
   vertex 83.48772591181759 29.9 0.4
  endloop
 endfacet
 facet normal 0.0 1.0 0.0
  outer loop
   vertex 124.99772587654176 33.1 0
   vertex 83.48772591181759 33.1 0
   vertex 83.48772591181759 33.1 0.4
  endloop
 endfacet
 facet normal 0.0 1.0 0.0
  outer loop
   vertex 124.99772587654176 33.1 0.4
   vertex 124.99772587654176 33.1 0
   vertex 83.48772591181759 33.1 0.4
  endloop
 endfacet
 facet normal 1.0 0.0 0.0
  outer loop
   vertex 124.99772587654176 29.899999999999995 0
   vertex 124.99772587654176 33.1 0
   vertex 124.99772587654176 33.1 0.4
  endloop
 endfacet
 facet normal 1.0 -0.0 0.0
  outer loop
   vertex 124.99772587654176 29.899999999999995 0.4
   vertex 124.99772587654176 29.899999999999995 0
   vertex 124.99772587654176 33.1 0.4
  endloop
 endfacet
 facet normal -8.558693524016053e-14 1.0 0.0
  outer loop
   vertex 104.26348089416204 31.4984 0
   vertex 104.22197089419731 31.498399999999997 0
   vertex 104.26348089416204 31.4984 0.4
  endloop
 endfacet
 facet normal -8.558693524016053e-14 1.0 0.0
  outer loop
   vertex 104.22197089419731 31.498399999999997 0
   vertex 104.22197089419731 31.498399999999997 0.4
   vertex 104.26348089416204 31.4984 0.4
  endloop
 endfacet
 facet normal 1.0 0.0 0.0
  outer loop
   vertex 104.22197089419731 31.498399999999997 0
   vertex 104.22197089419731 31.5016 0
   vertex 104.22197089419731 31.498399999999997 0.4
  endloop
 endfacet
 facet normal 1.0 0.0 -0.0
  outer loop
   vertex 104.22197089419731 31.5016 0
   vertex 104.22197089419731 31.5016 0.4
   vertex 104.22197089419731 31.498399999999997 0.4
  endloop
 endfacet
 facet normal 0.0 -1.0 0.0
  outer loop
   vertex 104.22197089419731 31.5016 0
   vertex 104.26348089416204 31.5016 0
   vertex 104.22197089419731 31.5016 0.4
  endloop
 endfacet
 facet normal 0.0 -1.0 0.0
  outer loop
   vertex 104.26348089416204 31.5016 0
   vertex 104.26348089416204 31.5016 0.4
   vertex 104.22197089419731 31.5016 0.4
  endloop
 endfacet
 facet normal -1.0 0.0 0.0
  outer loop
   vertex 104.26348089416204 31.5016 0
   vertex 104.26348089416204 31.4984 0
   vertex 104.26348089416204 31.5016 0.4
  endloop
 endfacet
 facet normal -1.0 0.0 0.0
  outer loop
   vertex 104.26348089416204 31.4984 0
   vertex 104.26348089416204 31.4984 0.4
   vertex 104.26348089416204 31.5016 0.4
  endloop
 endfacet
 facet normal -0.0 0.0 1.0
  outer loop
   vertex 83.48772591181759 29.9 0.4
   vertex 124.99772587654176 29.899999999999995 0.4
   vertex 104.26348089416204 31.4984 0.4
  endloop
 endfacet
 facet normal -0.0 0.0 1.0
  outer loop
   vertex 104.22197089419731 31.498399999999997 0.4
   vertex 83.48772591181759 29.9 0.4
   vertex 104.26348089416204 31.4984 0.4
  endloop
 endfacet
 facet normal 0.0 0.0 1.0
  outer loop
   vertex 83.48772591181759 33.1 0.4
   vertex 83.48772591181759 29.9 0.4
   vertex 104.22197089419731 31.498399999999997 0.4
  endloop
 endfacet
 facet normal 0.0 0.0 1.0
  outer loop
   vertex 104.22197089419731 31.5016 0.4
   vertex 83.48772591181759 33.1 0.4
   vertex 104.22197089419731 31.498399999999997 0.4
  endloop
 endfacet
 facet normal 0.0 0.0 1.0
  outer loop
   vertex 124.99772587654176 33.1 0.4
   vertex 83.48772591181759 33.1 0.4
   vertex 104.22197089419731 31.5016 0.4
  endloop
 endfacet
 facet normal 0.0 -0.0 1.0
  outer loop
   vertex 104.26348089416204 31.5016 0.4
   vertex 124.99772587654176 33.1 0.4
   vertex 104.22197089419731 31.5016 0.4
  endloop
 endfacet
 facet normal 0.0 -0.0 1.0
  outer loop
   vertex 124.99772587654176 29.899999999999995 0.4
   vertex 124.99772587654176 33.1 0.4
   vertex 104.26348089416204 31.5016 0.4
  endloop
 endfacet
 facet normal -0.0 0.0 1.0
  outer loop
   vertex 104.26348089416204 31.4984 0.4
   vertex 124.99772587654176 29.899999999999995 0.4
   vertex 104.26348089416204 31.5016 0.4
  endloop
 endfacet
endsolid
