solid PyGamic generated __Board__ SLA File
 facet normal 0.0 0.0 -1.0
  outer loop
   vertex 2.878707491819591 17.12 0
   vertex 23.051114383188594 17.12 0
   vertex 6.000000000000001 14.0 0
  endloop
 endfacet
 facet normal 0.0 0.0 -1.0
  outer loop
   vertex 23.051114383188594 17.12 0
   vertex 8.800770968824216 2.881 0
   vertex 10.100000000000003 9.899999999999999 0
  endloop
 endfacet
 facet normal 0.0 0.0 -1.0
  outer loop
   vertex 8.800770968824216 2.881 0
   vertex 2.8673685921902563 2.881 0
   vertex 4.0 12.0 0
  endloop
 endfacet
 facet normal 0.0 0.0 -1.0
  outer loop
   vertex 2.8673685921902563 2.881 0
   vertex 2.878707491819591 17.12 0
   vertex 4.0 12.0 0
  endloop
 endfacet
 facet normal 0.0 0.0 -1.0
  outer loop
   vertex 8.000000000000002 12.0 0
   vertex 6.000000000000001 14.0 0
   vertex 23.051114383188594 17.12 0
  endloop
 endfacet
 facet normal 0.0 0.0 -1.0
  outer loop
   vertex 8.000000000000002 12.0 0
   vertex 23.051114383188594 17.12 0
   vertex 8.100000000000003 11.899999999999999 0
  endloop
 endfacet
 facet normal 0.0 -0.0 -1.0
  outer loop
   vertex 8.000000000000002 12.0 0
   vertex 8.100000000000003 11.899999999999999 0
   vertex 6.100000000000003 9.899999999999999 0
  endloop
 endfacet
 facet normal 0.0 0.0 -1.0
  outer loop
   vertex 8.000000000000002 12.0 0
   vertex 6.100000000000003 9.899999999999999 0
   vertex 6.000000000000001 10.0 0
  endloop
 endfacet
 facet normal -0.0 0.0 -1.0
  outer loop
   vertex 6.000000000000001 14.0 0
   vertex 4.0 12.0 0
   vertex 2.878707491819591 17.12 0
  endloop
 endfacet
 facet normal 0.0 0.0 -1.0
  outer loop
   vertex 4.0 12.0 0
   vertex 6.000000000000001 10.0 0
   vertex 8.800770968824216 2.881 0
  endloop
 endfacet
 facet normal 0.0 0.0 -1.0
  outer loop
   vertex 6.000000000000001 10.0 0
   vertex 6.100000000000003 9.899999999999999 0
   vertex 8.800770968824216 2.881 0
  endloop
 endfacet
 facet normal 0.0 0.0 -1.0
  outer loop
   vertex 10.100000000000003 9.899999999999999 0
   vertex 8.100000000000003 11.899999999999999 0
   vertex 23.051114383188594 17.12 0
  endloop
 endfacet
 facet normal 0.0 0.0 -1.0
  outer loop
   vertex 10.100000000000003 9.899999999999999 0
   vertex 8.800770968824216 2.881 0
   vertex 8.100000000000003 7.899999999999999 0
  endloop
 endfacet
 facet normal 0.0 0.0 -1.0
  outer loop
   vertex 6.100000000000003 9.899999999999999 0
   vertex 8.100000000000003 7.899999999999999 0
   vertex 8.800770968824216 2.881 0
  endloop
 endfacet
 facet normal 0.0 1.0 0.0
  outer loop
   vertex 23.051114383188594 17.12 0
   vertex 2.878707491819591 17.12 0
   vertex 2.878707491819591 17.12 0.36
  endloop
 endfacet
 facet normal 0.0 1.0 0.0
  outer loop
   vertex 23.051114383188594 17.12 0.36
   vertex 23.051114383188594 17.12 0
   vertex 2.878707491819591 17.12 0.36
  endloop
 endfacet
 facet normal 0.7068251811053659 -0.7073882691671999 0.0
  outer loop
   vertex 8.800770968824216 2.881 0
   vertex 23.051114383188594 17.12 0
   vertex 23.051114383188594 17.12 0.36
  endloop
 endfacet
 facet normal 0.7068251811053659 -0.7073882691671999 0.0
  outer loop
   vertex 8.800770968824216 2.881 0.36
   vertex 8.800770968824216 2.881 0
   vertex 23.051114383188594 17.12 0.36
  endloop
 endfacet
 facet normal 0.0 -1.0 0.0
  outer loop
   vertex 2.8673685921902563 2.881 0
   vertex 8.800770968824216 2.881 0
   vertex 8.800770968824216 2.881 0.36
  endloop
 endfacet
 facet normal 0.0 -1.0 0.0
  outer loop
   vertex 2.8673685921902563 2.881 0.36
   vertex 2.8673685921902563 2.881 0
   vertex 8.800770968824216 2.881 0.36
  endloop
 endfacet
 facet normal -0.9999996829318347 0.0007963267107332519 0.0
  outer loop
   vertex 2.878707491819591 17.12 0
   vertex 2.8673685921902563 2.881 0
   vertex 2.8673685921902563 2.881 0.36
  endloop
 endfacet
 facet normal -0.9999996829318347 0.0007963267107332519 0.0
  outer loop
   vertex 2.878707491819591 17.12 0.36
   vertex 2.878707491819591 17.12 0
   vertex 2.8673685921902563 2.881 0.36
  endloop
 endfacet
 facet normal -0.0 0.0 1.0
  outer loop
   vertex 2.878707491819591 17.12 0.36
   vertex 6.000000000000001 14.0 0.36
   vertex 23.051114383188594 17.12 0.36
  endloop
 endfacet
 facet normal 0.0 0.0 1.0
  outer loop
   vertex 23.051114383188594 17.12 0.36
   vertex 10.100000000000003 9.899999999999999 0.36
   vertex 8.800770968824216 2.881 0.36
  endloop
 endfacet
 facet normal 0.0 0.0 1.0
  outer loop
   vertex 8.800770968824216 2.881 0.36
   vertex 4.0 12.0 0.36
   vertex 2.8673685921902563 2.881 0.36
  endloop
 endfacet
 facet normal 0.0 0.0 1.0
  outer loop
   vertex 2.8673685921902563 2.881 0.36
   vertex 4.0 12.0 0.36
   vertex 2.878707491819591 17.12 0.36
  endloop
 endfacet
 facet normal 0.0 -0.0 1.0
  outer loop
   vertex 8.000000000000002 12.0 0.36
   vertex 23.051114383188594 17.12 0.36
   vertex 6.000000000000001 14.0 0.36
  endloop
 endfacet
 facet normal -0.0 0.0 1.0
  outer loop
   vertex 8.000000000000002 12.0 0.36
   vertex 8.100000000000003 11.899999999999999 0.36
   vertex 23.051114383188594 17.12 0.36
  endloop
 endfacet
 facet normal 0.0 0.0 1.0
  outer loop
   vertex 8.000000000000002 12.0 0.36
   vertex 6.100000000000003 9.899999999999999 0.36
   vertex 8.100000000000003 11.899999999999999 0.36
  endloop
 endfacet
 facet normal 0.0 0.0 1.0
  outer loop
   vertex 8.000000000000002 12.0 0.36
   vertex 6.000000000000001 10.0 0.36
   vertex 6.100000000000003 9.899999999999999 0.36
  endloop
 endfacet
 facet normal 0.0 0.0 1.0
  outer loop
   vertex 6.000000000000001 14.0 0.36
   vertex 2.878707491819591 17.12 0.36
   vertex 4.0 12.0 0.36
  endloop
 endfacet
 facet normal 0.0 0.0 1.0
  outer loop
   vertex 4.0 12.0 0.36
   vertex 8.800770968824216 2.881 0.36
   vertex 6.000000000000001 10.0 0.36
  endloop
 endfacet
 facet normal 0.0 0.0 1.0
  outer loop
   vertex 6.000000000000001 10.0 0.36
   vertex 8.800770968824216 2.881 0.36
   vertex 6.100000000000003 9.899999999999999 0.36
  endloop
 endfacet
 facet normal 0.0 -0.0 1.0
  outer loop
   vertex 10.100000000000003 9.899999999999999 0.36
   vertex 23.051114383188594 17.12 0.36
   vertex 8.100000000000003 11.899999999999999 0.36
  endloop
 endfacet
 facet normal 0.0 0.0 1.0
  outer loop
   vertex 10.100000000000003 9.899999999999999 0.36
   vertex 8.100000000000003 7.899999999999999 0.36
   vertex 8.800770968824216 2.881 0.36
  endloop
 endfacet
 facet normal 0.0 0.0 1.0
  outer loop
   vertex 6.100000000000003 9.899999999999999 0.36
   vertex 8.800770968824216 2.881 0.36
   vertex 8.100000000000003 7.899999999999999 0.36
  endloop
 endfacet
 facet normal -0.7071067811865474 -0.7071067811865477 0.0
  outer loop
   vertex 8.000000000000002 12.0 0
   vertex 8.000000000000002 12.0 0.36
   vertex 6.000000000000001 14.0 0
  endloop
 endfacet
 facet normal -0.7071067811865474 -0.7071067811865477 0.0
  outer loop
   vertex 6.000000000000001 14.0 0
   vertex 8.000000000000002 12.0 0.36
   vertex 6.000000000000001 14.0 0.36
  endloop
 endfacet
 facet normal 0.7071067811865474 -0.7071067811865477 0.0
  outer loop
   vertex 6.000000000000001 14.0 0
   vertex 6.000000000000001 14.0 0.36
   vertex 4.0 12.0 0
  endloop
 endfacet
 facet normal 0.7071067811865474 -0.7071067811865477 0.0
  outer loop
   vertex 4.0 12.0 0
   vertex 6.000000000000001 14.0 0.36
   vertex 4.0 12.0 0.36
  endloop
 endfacet
 facet normal 0.7071067811865474 0.7071067811865477 -0.0
  outer loop
   vertex 4.0 12.0 0
   vertex 4.0 12.0 0.36
   vertex 6.000000000000001 10.0 0
  endloop
 endfacet
 facet normal 0.7071067811865474 0.7071067811865477 -0.0
  outer loop
   vertex 6.000000000000001 10.0 0
   vertex 4.0 12.0 0.36
   vertex 6.000000000000001 10.0 0.36
  endloop
 endfacet
 facet normal -0.7071067811865474 0.7071067811865477 0.0
  outer loop
   vertex 6.000000000000001 10.0 0
   vertex 6.000000000000001 10.0 0.36
   vertex 8.000000000000002 12.0 0
  endloop
 endfacet
 facet normal -0.7071067811865474 0.7071067811865477 0.0
  outer loop
   vertex 8.000000000000002 12.0 0
   vertex 6.000000000000001 10.0 0.36
   vertex 8.000000000000002 12.0 0.36
  endloop
 endfacet
 facet normal -0.7071067811865476 -0.7071067811865476 0.0
  outer loop
   vertex 10.100000000000003 9.899999999999999 0
   vertex 10.100000000000003 9.899999999999999 0.36
   vertex 8.100000000000003 11.899999999999999 0
  endloop
 endfacet
 facet normal -0.7071067811865476 -0.7071067811865476 0.0
  outer loop
   vertex 8.100000000000003 11.899999999999999 0
   vertex 10.100000000000003 9.899999999999999 0.36
   vertex 8.100000000000003 11.899999999999999 0.36
  endloop
 endfacet
 facet normal 0.7071067811865476 -0.7071067811865476 0.0
  outer loop
   vertex 8.100000000000003 11.899999999999999 0
   vertex 8.100000000000003 11.899999999999999 0.36
   vertex 6.100000000000003 9.899999999999999 0
  endloop
 endfacet
 facet normal 0.7071067811865476 -0.7071067811865476 0.0
  outer loop
   vertex 6.100000000000003 9.899999999999999 0
   vertex 8.100000000000003 11.899999999999999 0.36
   vertex 6.100000000000003 9.899999999999999 0.36
  endloop
 endfacet
 facet normal 0.7071067811865476 0.7071067811865476 -0.0
  outer loop
   vertex 6.100000000000003 9.899999999999999 0
   vertex 6.100000000000003 9.899999999999999 0.36
   vertex 8.100000000000003 7.899999999999999 0
  endloop
 endfacet
 facet normal 0.7071067811865476 0.7071067811865476 -0.0
  outer loop
   vertex 8.100000000000003 7.899999999999999 0
   vertex 6.100000000000003 9.899999999999999 0.36
   vertex 8.100000000000003 7.899999999999999 0.36
  endloop
 endfacet
 facet normal -0.7071067811865476 0.7071067811865476 0.0
  outer loop
   vertex 8.100000000000003 7.899999999999999 0
   vertex 8.100000000000003 7.899999999999999 0.36
   vertex 10.100000000000003 9.899999999999999 0
  endloop
 endfacet
 facet normal -0.7071067811865476 0.7071067811865476 0.0
  outer loop
   vertex 10.100000000000003 9.899999999999999 0
   vertex 8.100000000000003 7.899999999999999 0.36
   vertex 10.100000000000003 9.899999999999999 0.36
  endloop
 endfacet
 facet normal 0.0 0.0 -1.0
  outer loop
   vertex 23.05111438318859 22.88 0
   vertex 2.878707491819591 22.88 0
   vertex 2.8673685921902563 37.119 0
  endloop
 endfacet
 facet normal 0.0 0.0 -1.0
  outer loop
   vertex 23.05111438318859 22.88 0
   vertex 2.8673685921902563 37.119 0
   vertex 8.800770968824214 37.119 0
  endloop
 endfacet
 facet normal 0.0 -1.0 0.0
  outer loop
   vertex 2.878707491819591 22.88 0
   vertex 23.05111438318859 22.88 0
   vertex 23.05111438318859 22.88 0.36
  endloop
 endfacet
 facet normal 0.0 -1.0 0.0
  outer loop
   vertex 2.878707491819591 22.88 0.36
   vertex 2.878707491819591 22.88 0
   vertex 23.05111438318859 22.88 0.36
  endloop
 endfacet
 facet normal -0.9999996829318347 -0.0007963267107332519 0.0
  outer loop
   vertex 2.8673685921902563 37.119 0
   vertex 2.878707491819591 22.88 0
   vertex 2.878707491819591 22.88 0.36
  endloop
 endfacet
 facet normal -0.9999996829318347 -0.0007963267107332519 -0.0
  outer loop
   vertex 2.8673685921902563 37.119 0.36
   vertex 2.8673685921902563 37.119 0
   vertex 2.878707491819591 22.88 0.36
  endloop
 endfacet
 facet normal 0.0 1.0 0.0
  outer loop
   vertex 8.800770968824214 37.119 0
   vertex 2.8673685921902563 37.119 0
   vertex 2.8673685921902563 37.119 0.36
  endloop
 endfacet
 facet normal 0.0 1.0 0.0
  outer loop
   vertex 8.800770968824214 37.119 0.36
   vertex 8.800770968824214 37.119 0
   vertex 2.8673685921902563 37.119 0.36
  endloop
 endfacet
 facet normal 0.7068251811053659 0.7073882691671999 0.0
  outer loop
   vertex 23.05111438318859 22.88 0
   vertex 8.800770968824214 37.119 0
   vertex 8.800770968824214 37.119 0.36
  endloop
 endfacet
 facet normal 0.7068251811053659 0.7073882691671999 0.0
  outer loop
   vertex 23.05111438318859 22.88 0.36
   vertex 23.05111438318859 22.88 0
   vertex 8.800770968824214 37.119 0.36
  endloop
 endfacet
 facet normal 0.0 0.0 1.0
  outer loop
   vertex 23.05111438318859 22.88 0.36
   vertex 2.8673685921902563 37.119 0.36
   vertex 2.878707491819591 22.88 0.36
  endloop
 endfacet
 facet normal 0.0 0.0 1.0
  outer loop
   vertex 23.05111438318859 22.88 0.36
   vertex 8.800770968824214 37.119 0.36
   vertex 2.8673685921902563 37.119 0.36
  endloop
 endfacet
 facet normal 0.0 0.0 -1.0
  outer loop
   vertex 31.20022982781982 17.12 0
   vertex 37.11670566487225 17.12 0
   vertex 34.46153846153846 6.6923076923076925 0
  endloop
 endfacet
 facet normal 0.0 0.0 -1.0
  outer loop
   vertex 37.11670566487225 17.12 0
   vertex 37.10536676524292 2.881 0
   vertex 34.46153846153846 6.6923076923076925 0
  endloop
 endfacet
 facet normal 0.0 0.0 -1.0
  outer loop
   vertex 37.10536676524292 2.881 0
   vertex 16.949886413455438 2.881 0
   vertex 32.46153846153846 4.692307692307692 0
  endloop
 endfacet
 facet normal 0.0 0.0 -1.0
  outer loop
   vertex 16.949886413455438 2.881 0
   vertex 31.20022982781982 17.12 0
   vertex 32.46153846153846 8.692307692307693 0
  endloop
 endfacet
 facet normal 0.0 0.0 -1.0
  outer loop
   vertex 34.46153846153846 6.6923076923076925 0
   vertex 32.46153846153846 8.692307692307693 0
   vertex 31.20022982781982 17.12 0
  endloop
 endfacet
 facet normal 0.0 -0.0 -1.0
  outer loop
   vertex 34.46153846153846 6.6923076923076925 0
   vertex 37.10536676524292 2.881 0
   vertex 32.46153846153846 4.692307692307692 0
  endloop
 endfacet
 facet normal 0.0 0.0 -1.0
  outer loop
   vertex 32.46153846153846 8.692307692307693 0
   vertex 30.46153846153846 6.6923076923076925 0
   vertex 16.949886413455438 2.881 0
  endloop
 endfacet
 facet normal 0.0 -0.0 -1.0
  outer loop
   vertex 30.46153846153846 6.6923076923076925 0
   vertex 32.46153846153846 4.692307692307692 0
   vertex 16.949886413455438 2.881 0
  endloop
 endfacet
 facet normal 0.0 1.0 0.0
  outer loop
   vertex 37.11670566487225 17.12 0
   vertex 31.20022982781982 17.12 0
   vertex 31.20022982781982 17.12 0.36
  endloop
 endfacet
 facet normal 0.0 1.0 0.0
  outer loop
   vertex 37.11670566487225 17.12 0.36
   vertex 37.11670566487225 17.12 0
   vertex 31.20022982781982 17.12 0.36
  endloop
 endfacet
 facet normal 0.9999996829318347 -0.0007963267107328776 0.0
  outer loop
   vertex 37.10536676524292 2.881 0
   vertex 37.11670566487225 17.12 0
   vertex 37.11670566487225 17.12 0.36
  endloop
 endfacet
 facet normal 0.9999996829318347 -0.0007963267107328776 0.0
  outer loop
   vertex 37.10536676524292 2.881 0.36
   vertex 37.10536676524292 2.881 0
   vertex 37.11670566487225 17.12 0.36
  endloop
 endfacet
 facet normal 0.0 -1.0 0.0
  outer loop
   vertex 16.949886413455438 2.881 0
   vertex 37.10536676524292 2.881 0
   vertex 37.10536676524292 2.881 0.36
  endloop
 endfacet
 facet normal 0.0 -1.0 0.0
  outer loop
   vertex 16.949886413455438 2.881 0.36
   vertex 16.949886413455438 2.881 0
   vertex 37.10536676524292 2.881 0.36
  endloop
 endfacet
 facet normal -0.7068251811053657 0.7073882691671999 0.0
  outer loop
   vertex 31.20022982781982 17.12 0
   vertex 16.949886413455438 2.881 0
   vertex 16.949886413455438 2.881 0.36
  endloop
 endfacet
 facet normal -0.7068251811053657 0.7073882691671999 0.0
  outer loop
   vertex 31.20022982781982 17.12 0.36
   vertex 31.20022982781982 17.12 0
   vertex 16.949886413455438 2.881 0.36
  endloop
 endfacet
 facet normal -0.0 0.0 1.0
  outer loop
   vertex 31.20022982781982 17.12 0.36
   vertex 34.46153846153846 6.6923076923076925 0.36
   vertex 37.11670566487225 17.12 0.36
  endloop
 endfacet
 facet normal 0.0 0.0 1.0
  outer loop
   vertex 37.11670566487225 17.12 0.36
   vertex 34.46153846153846 6.6923076923076925 0.36
   vertex 37.10536676524292 2.881 0.36
  endloop
 endfacet
 facet normal 0.0 0.0 1.0
  outer loop
   vertex 37.10536676524292 2.881 0.36
   vertex 32.46153846153846 4.692307692307692 0.36
   vertex 16.949886413455438 2.881 0.36
  endloop
 endfacet
 facet normal 0.0 0.0 1.0
  outer loop
   vertex 16.949886413455438 2.881 0.36
   vertex 32.46153846153846 8.692307692307693 0.36
   vertex 31.20022982781982 17.12 0.36
  endloop
 endfacet
 facet normal 0.0 0.0 1.0
  outer loop
   vertex 34.46153846153846 6.6923076923076925 0.36
   vertex 31.20022982781982 17.12 0.36
   vertex 32.46153846153846 8.692307692307693 0.36
  endloop
 endfacet
 facet normal 0.0 0.0 1.0
  outer loop
   vertex 34.46153846153846 6.6923076923076925 0.36
   vertex 32.46153846153846 4.692307692307692 0.36
   vertex 37.10536676524292 2.881 0.36
  endloop
 endfacet
 facet normal 0.0 0.0 1.0
  outer loop
   vertex 32.46153846153846 8.692307692307693 0.36
   vertex 16.949886413455438 2.881 0.36
   vertex 30.46153846153846 6.6923076923076925 0.36
  endloop
 endfacet
 facet normal 0.0 0.0 1.0
  outer loop
   vertex 30.46153846153846 6.6923076923076925 0.36
   vertex 16.949886413455438 2.881 0.36
   vertex 32.46153846153846 4.692307692307692 0.36
  endloop
 endfacet
 facet normal -0.7071067811865477 -0.7071067811865474 0.0
  outer loop
   vertex 34.46153846153846 6.6923076923076925 0
   vertex 34.46153846153846 6.6923076923076925 0.36
   vertex 32.46153846153846 8.692307692307693 0
  endloop
 endfacet
 facet normal -0.7071067811865477 -0.7071067811865474 0.0
  outer loop
   vertex 32.46153846153846 8.692307692307693 0
   vertex 34.46153846153846 6.6923076923076925 0.36
   vertex 32.46153846153846 8.692307692307693 0.36
  endloop
 endfacet
 facet normal 0.7071067811865477 -0.7071067811865474 0.0
  outer loop
   vertex 32.46153846153846 8.692307692307693 0
   vertex 32.46153846153846 8.692307692307693 0.36
   vertex 30.46153846153846 6.6923076923076925 0
  endloop
 endfacet
 facet normal 0.7071067811865477 -0.7071067811865474 0.0
  outer loop
   vertex 30.46153846153846 6.6923076923076925 0
   vertex 32.46153846153846 8.692307692307693 0.36
   vertex 30.46153846153846 6.6923076923076925 0.36
  endloop
 endfacet
 facet normal 0.7071067811865477 0.7071067811865474 -0.0
  outer loop
   vertex 30.46153846153846 6.6923076923076925 0
   vertex 30.46153846153846 6.6923076923076925 0.36
   vertex 32.46153846153846 4.692307692307692 0
  endloop
 endfacet
 facet normal 0.7071067811865477 0.7071067811865474 -0.0
  outer loop
   vertex 32.46153846153846 4.692307692307692 0
   vertex 30.46153846153846 6.6923076923076925 0.36
   vertex 32.46153846153846 4.692307692307692 0.36
  endloop
 endfacet
 facet normal -0.7071067811865477 0.7071067811865474 0.0
  outer loop
   vertex 32.46153846153846 4.692307692307692 0
   vertex 32.46153846153846 4.692307692307692 0.36
   vertex 34.46153846153846 6.6923076923076925 0
  endloop
 endfacet
 facet normal -0.7071067811865477 0.7071067811865474 0.0
  outer loop
   vertex 34.46153846153846 6.6923076923076925 0
   vertex 32.46153846153846 4.692307692307692 0.36
   vertex 34.46153846153846 6.6923076923076925 0.36
  endloop
 endfacet
 facet normal 0.0 0.0 -1.0
  outer loop
   vertex 37.11670566487224 22.88 0
   vertex 31.200229827819815 22.88 0
   vertex 16.949886413455438 37.119 0
  endloop
 endfacet
 facet normal 0.0 0.0 -1.0
  outer loop
   vertex 37.11670566487224 22.88 0
   vertex 16.949886413455438 37.119 0
   vertex 37.105366765242906 37.119 0
  endloop
 endfacet
 facet normal 0.0 -1.0 0.0
  outer loop
   vertex 31.200229827819815 22.88 0
   vertex 37.11670566487224 22.88 0
   vertex 37.11670566487224 22.88 0.36
  endloop
 endfacet
 facet normal 0.0 -1.0 0.0
  outer loop
   vertex 31.200229827819815 22.88 0.36
   vertex 31.200229827819815 22.88 0
   vertex 37.11670566487224 22.88 0.36
  endloop
 endfacet
 facet normal -0.7068251811053659 -0.7073882691671999 0.0
  outer loop
   vertex 16.949886413455438 37.119 0
   vertex 31.200229827819815 22.88 0
   vertex 31.200229827819815 22.88 0.36
  endloop
 endfacet
 facet normal -0.7068251811053659 -0.7073882691671999 -0.0
  outer loop
   vertex 16.949886413455438 37.119 0.36
   vertex 16.949886413455438 37.119 0
   vertex 31.200229827819815 22.88 0.36
  endloop
 endfacet
 facet normal 0.0 1.0 0.0
  outer loop
   vertex 37.105366765242906 37.119 0
   vertex 16.949886413455438 37.119 0
   vertex 16.949886413455438 37.119 0.36
  endloop
 endfacet
 facet normal 0.0 1.0 0.0
  outer loop
   vertex 37.105366765242906 37.119 0.36
   vertex 37.105366765242906 37.119 0
   vertex 16.949886413455438 37.119 0.36
  endloop
 endfacet
 facet normal 0.9999996829318347 0.0007963267107333765 0.0
  outer loop
   vertex 37.11670566487224 22.88 0
   vertex 37.105366765242906 37.119 0
   vertex 37.105366765242906 37.119 0.36
  endloop
 endfacet
 facet normal 0.9999996829318347 0.0007963267107333765 0.0
  outer loop
   vertex 37.11670566487224 22.88 0.36
   vertex 37.11670566487224 22.88 0
   vertex 37.105366765242906 37.119 0.36
  endloop
 endfacet
 facet normal 0.0 0.0 1.0
  outer loop
   vertex 37.11670566487224 22.88 0.36
   vertex 16.949886413455438 37.119 0.36
   vertex 31.200229827819815 22.88 0.36
  endloop
 endfacet
 facet normal 0.0 0.0 1.0
  outer loop
   vertex 37.11670566487224 22.88 0.36
   vertex 37.105366765242906 37.119 0.36
   vertex 16.949886413455438 37.119 0.36
  endloop
 endfacet
endsolid
