solid PyGamic generated __All_Units__ SLA File
 facet normal 0.0 0.0 -1.0
  outer loop
   vertex -0.0013889805726013114 17.0 0
   vertex 22.761245547474996 17.0 0
   vertex 6.000000000000001 14.0 0
  endloop
 endfacet
 facet normal 0.0 0.0 -1.0
  outer loop
   vertex 22.761245547474996 17.0 0
   vertex 5.748703395583711 0.001 0
   vertex 10.000000000000004 9.999999999999998 0
  endloop
 endfacet
 facet normal 0.0 0.0 -1.0
  outer loop
   vertex 5.748703395583711 0.001 0
   vertex -0.01492574262043236 0.001 0
   vertex 4.0 12.0 0
  endloop
 endfacet
 facet normal 0.0 0.0 -1.0
  outer loop
   vertex -0.01492574262043236 0.001 0
   vertex -0.0013889805726013114 17.0 0
   vertex 4.0 12.0 0
  endloop
 endfacet
 facet normal -0.0 0.0 -1.0
  outer loop
   vertex 8.000000000000002 12.0 0
   vertex 6.0000000000000036 9.999999999999998 0
   vertex 6.000000000000001 14.0 0
  endloop
 endfacet
 facet normal -0.0 0.0 -1.0
  outer loop
   vertex 8.000000000000002 12.0 0
   vertex 6.0000000000000036 9.999999999999998 0
   vertex 6.000000000000001 14.0 0
  endloop
 endfacet
 facet normal 0.0 0.0 -1.0
  outer loop
   vertex 8.000000000000002 12.0 0
   vertex 6.000000000000001 14.0 0
   vertex 22.761245547474996 17.0 0
  endloop
 endfacet
 facet normal 0.0 0.0 -1.0
  outer loop
   vertex 8.000000000000002 12.0 0
   vertex 6.000000000000001 14.0 0
   vertex 22.761245547474996 17.0 0
  endloop
 endfacet
 facet normal 0.0 0.0 -1.0
  outer loop
   vertex 8.000000000000002 12.0 0
   vertex 22.761245547474996 17.0 0
   vertex 10.000000000000004 9.999999999999998 0
  endloop
 endfacet
 facet normal 0.0 0.0 -1.0
  outer loop
   vertex 8.000000000000002 12.0 0
   vertex 22.761245547474996 17.0 0
   vertex 10.000000000000004 9.999999999999998 0
  endloop
 endfacet
 facet normal 0.0 0.0 -1.0
  outer loop
   vertex 8.000000000000002 12.0 0
   vertex 10.000000000000004 9.999999999999998 0
   vertex 8.000000000000004 7.999999999999998 0
  endloop
 endfacet
 facet normal 0.0 -0.0 -1.0
  outer loop
   vertex 8.000000000000002 12.0 0
   vertex 8.000000000000004 7.999999999999998 0
   vertex 6.0000000000000036 9.999999999999998 0
  endloop
 endfacet
 facet normal 0.0 -0.0 -1.0
  outer loop
   vertex 8.000000000000002 12.0 0
   vertex 8.000000000000004 7.999999999999998 0
   vertex 6.0000000000000036 9.999999999999998 0
  endloop
 endfacet
 facet normal 0.0 -0.0 -1.0
  outer loop
   vertex 8.000000000000002 12.0 0
   vertex 8.000000000000004 7.999999999999998 0
   vertex 6.000000000000001 10.0 0
  endloop
 endfacet
 facet normal 0.0 -0.0 -1.0
  outer loop
   vertex 8.000000000000002 12.0 0
   vertex 8.000000000000004 7.999999999999998 0
   vertex 6.000000000000001 10.0 0
  endloop
 endfacet
 facet normal 0.0 0.0 -1.0
  outer loop
   vertex 8.000000000000002 12.0 0
   vertex 6.000000000000001 14.0 0
   vertex 22.761245547474996 17.0 0
  endloop
 endfacet
 facet normal 0.0 0.0 -1.0
  outer loop
   vertex 8.000000000000002 12.0 0
   vertex 6.000000000000001 14.0 0
   vertex 22.761245547474996 17.0 0
  endloop
 endfacet
 facet normal 0.0 0.0 -1.0
  outer loop
   vertex 8.000000000000002 12.0 0
   vertex 22.761245547474996 17.0 0
   vertex 10.000000000000004 9.999999999999998 0
  endloop
 endfacet
 facet normal 0.0 0.0 -1.0
  outer loop
   vertex 8.000000000000002 12.0 0
   vertex 22.761245547474996 17.0 0
   vertex 10.000000000000004 9.999999999999998 0
  endloop
 endfacet
 facet normal -0.0 0.0 -1.0
  outer loop
   vertex 6.000000000000001 14.0 0
   vertex 4.0 12.0 0
   vertex -0.0013889805726013114 17.0 0
  endloop
 endfacet
 facet normal 0.0 0.0 -1.0
  outer loop
   vertex 6.000000000000001 14.0 0
   vertex 22.761245547474996 17.0 0
   vertex 8.000000000000004 11.999999999999998 0
  endloop
 endfacet
 facet normal 0.0 0.0 -1.0
  outer loop
   vertex 6.000000000000001 14.0 0
   vertex 22.761245547474996 17.0 0
   vertex 8.000000000000004 11.999999999999998 0
  endloop
 endfacet
 facet normal 0.0 0.0 -1.0
  outer loop
   vertex 6.000000000000001 14.0 0
   vertex 8.000000000000004 11.999999999999998 0
   vertex 6.000000000000001 10.0 0
  endloop
 endfacet
 facet normal 0.0 -0.0 -1.0
  outer loop
   vertex 6.000000000000001 14.0 0
   vertex 6.0000000000000036 9.999999999999998 0
   vertex 4.0 12.0 0
  endloop
 endfacet
 facet normal 0.0 0.0 -1.0
  outer loop
   vertex 6.000000000000001 14.0 0
   vertex 8.000000000000004 11.999999999999998 0
   vertex 6.0000000000000036 9.999999999999998 0
  endloop
 endfacet
 facet normal 0.0 0.0 -1.0
  outer loop
   vertex 6.000000000000001 14.0 0
   vertex 8.000000000000004 11.999999999999998 0
   vertex 6.0000000000000036 9.999999999999998 0
  endloop
 endfacet
 facet normal 0.0 -0.0 -1.0
  outer loop
   vertex 6.000000000000001 14.0 0
   vertex 6.0000000000000036 9.999999999999998 0
   vertex 4.0 12.0 0
  endloop
 endfacet
 facet normal 0.0 0.0 -1.0
  outer loop
   vertex 4.0 12.0 0
   vertex 6.000000000000001 10.0 0
   vertex 5.748703395583711 0.001 0
  endloop
 endfacet
 facet normal 0.0 0.0 -1.0
  outer loop
   vertex 4.0 12.0 0
   vertex 6.000000000000001 10.0 0
   vertex 5.748703395583711 0.001 0
  endloop
 endfacet
 facet normal 0.0 0.0 -1.0
  outer loop
   vertex 4.0 12.0 0
   vertex 6.0000000000000036 9.999999999999998 0
   vertex 5.748703395583711 0.001 0
  endloop
 endfacet
 facet normal 0.0 0.0 -1.0
  outer loop
   vertex 4.0 12.0 0
   vertex 6.0000000000000036 9.999999999999998 0
   vertex 5.748703395583711 0.001 0
  endloop
 endfacet
 facet normal 0.0 -0.0 -1.0
  outer loop
   vertex 6.000000000000001 10.0 0
   vertex 8.000000000000004 7.999999999999998 0
   vertex 5.748703395583711 0.001 0
  endloop
 endfacet
 facet normal 0.0 -0.0 -1.0
  outer loop
   vertex 6.000000000000001 10.0 0
   vertex 8.000000000000004 7.999999999999998 0
   vertex 5.748703395583711 0.001 0
  endloop
 endfacet
 facet normal 0.0 -0.0 -1.0
  outer loop
   vertex 6.000000000000001 10.0 0
   vertex 8.000000000000004 7.999999999999998 0
   vertex 5.748703395583711 0.001 0
  endloop
 endfacet
 facet normal 0.0 -0.0 -1.0
  outer loop
   vertex 6.000000000000001 10.0 0
   vertex 8.000000000000004 7.999999999999998 0
   vertex 5.748703395583711 0.001 0
  endloop
 endfacet
 facet normal 0.0 0.0 -1.0
  outer loop
   vertex 10.000000000000004 9.999999999999998 0
   vertex 8.000000000000004 11.999999999999998 0
   vertex 22.761245547474996 17.0 0
  endloop
 endfacet
 facet normal 0.0 0.0 -1.0
  outer loop
   vertex 10.000000000000004 9.999999999999998 0
   vertex 8.000000000000004 11.999999999999998 0
   vertex 22.761245547474996 17.0 0
  endloop
 endfacet
 facet normal 0.0 0.0 -1.0
  outer loop
   vertex 10.000000000000004 9.999999999999998 0
   vertex 5.748703395583711 0.001 0
   vertex 8.000000000000004 7.999999999999998 0
  endloop
 endfacet
 facet normal 0.0 0.0 -1.0
  outer loop
   vertex 8.000000000000004 11.999999999999998 0
   vertex 10.000000000000004 9.999999999999998 0
   vertex 8.000000000000004 7.999999999999998 0
  endloop
 endfacet
 facet normal 0.0 -0.0 -1.0
  outer loop
   vertex 8.000000000000004 11.999999999999998 0
   vertex 8.000000000000004 7.999999999999998 0
   vertex 6.0000000000000036 9.999999999999998 0
  endloop
 endfacet
 facet normal 0.0 -0.0 -1.0
  outer loop
   vertex 8.000000000000004 11.999999999999998 0
   vertex 8.000000000000004 7.999999999999998 0
   vertex 6.0000000000000036 9.999999999999998 0
  endloop
 endfacet
 facet normal 0.0 -0.0 -1.0
  outer loop
   vertex 6.0000000000000036 9.999999999999998 0
   vertex 8.000000000000004 7.999999999999998 0
   vertex 5.748703395583711 0.001 0
  endloop
 endfacet
 facet normal 0.0 -0.0 -1.0
  outer loop
   vertex 6.0000000000000036 9.999999999999998 0
   vertex 8.000000000000004 7.999999999999998 0
   vertex 5.748703395583711 0.001 0
  endloop
 endfacet
 facet normal 0.0 -0.0 -1.0
  outer loop
   vertex 6.0000000000000036 9.999999999999998 0
   vertex 8.000000000000004 7.999999999999998 0
   vertex 5.748703395583711 0.001 0
  endloop
 endfacet
 facet normal 0.0 -0.0 -1.0
  outer loop
   vertex 6.0000000000000036 9.999999999999998 0
   vertex 8.000000000000004 7.999999999999998 0
   vertex 5.748703395583711 0.001 0
  endloop
 endfacet
 facet normal 0.0 0.2927142720941117 -0.9561999555074318
  outer loop
   vertex 22.761245547474996 17.0 0
   vertex -0.0013889805726013114 17.0 0
   vertex 0.0009522206992748757 19.94 0.9000000000000002
  endloop
 endfacet
 facet normal 0.0 0.2927142720941117 -0.9561999555074318
  outer loop
   vertex 29.863032022458093 19.94 0.9000000000000002
   vertex 22.761245547474996 17.0 0
   vertex 0.0009522206992748757 19.94 0.9000000000000002
  endloop
 endfacet
 facet normal 0.20689781838504606 -0.20706264229719068 -0.9561999555074315
  outer loop
   vertex 5.748703395583711 0.001 0
   vertex 22.761245547474996 17.0 0
   vertex 29.863032022458093 19.94 0.9000000000000002
  endloop
 endfacet
 facet normal 0.20689781838504603 -0.20706264229719065 -0.9561999555074316
  outer loop
   vertex 9.908147737114229 0.001 0.9000000000000002
   vertex 5.748703395583711 0.001 0
   vertex 29.863032022458093 19.94 0.9000000000000002
  endloop
 endfacet
 facet normal 0.0 -1.0 0.0
  outer loop
   vertex -0.01492574262043236 0.001 0
   vertex 5.748703395583711 0.001 0
   vertex 9.908147737114229 0.001 0.9000000000000002
  endloop
 endfacet
 facet normal 0.0 -1.0 0.0
  outer loop
   vertex -0.01492574262043236 0.001 0.9000000000000002
   vertex -0.01492574262043236 0.001 0
   vertex 9.908147737114229 0.001 0.9000000000000002
  endloop
 endfacet
 facet normal -0.9999996829318346 0.0007963267107332633 0.0
  outer loop
   vertex -0.0013889805726013114 17.0 0
   vertex -0.01492574262043236 0.001 0
   vertex -0.01492574262043236 0.001 0.9000000000000002
  endloop
 endfacet
 facet normal -0.9999996829318347 0.0007963267107332633 3.8667333722324576e-19
  outer loop
   vertex 0.0009522206992748757 19.94 0.9000000000000002
   vertex -0.0013889805726013114 17.0 0
   vertex -0.01492574262043236 0.001 0.9000000000000002
  endloop
 endfacet
 facet normal -0.0 0.0 1.0
  outer loop
   vertex 0.0009522206992748757 19.94 0.9000000000000002
   vertex 6.000000000000001 14.0 0.9000000000000002
   vertex 29.863032022458093 19.94 0.9000000000000002
  endloop
 endfacet
 facet normal 0.0 0.0 1.0
  outer loop
   vertex 29.863032022458093 19.94 0.9000000000000002
   vertex 10.000000000000004 9.999999999999998 0.9000000000000002
   vertex 9.908147737114229 0.001 0.9000000000000002
  endloop
 endfacet
 facet normal 0.0 0.0 1.0
  outer loop
   vertex 9.908147737114229 0.001 0.9000000000000002
   vertex 4.0 12.0 0.9000000000000002
   vertex -0.01492574262043236 0.001 0.9000000000000002
  endloop
 endfacet
 facet normal 0.0 0.0 1.0
  outer loop
   vertex -0.01492574262043236 0.001 0.9000000000000002
   vertex 4.0 12.0 0.9000000000000002
   vertex 0.0009522206992748757 19.94 0.9000000000000002
  endloop
 endfacet
 facet normal 0.0 0.0 1.0
  outer loop
   vertex 8.000000000000002 12.0 0.9000000000000002
   vertex 6.000000000000001 14.0 0.9000000000000002
   vertex 6.0000000000000036 9.999999999999998 0.9000000000000002
  endloop
 endfacet
 facet normal 0.0 0.0 1.0
  outer loop
   vertex 8.000000000000002 12.0 0.9000000000000002
   vertex 6.000000000000001 14.0 0.9000000000000002
   vertex 6.0000000000000036 9.999999999999998 0.9000000000000002
  endloop
 endfacet
 facet normal 0.0 -0.0 1.0
  outer loop
   vertex 8.000000000000002 12.0 0.9000000000000002
   vertex 29.863032022458093 19.94 0.9000000000000002
   vertex 6.000000000000001 14.0 0.9000000000000002
  endloop
 endfacet
 facet normal 0.0 -0.0 1.0
  outer loop
   vertex 8.000000000000002 12.0 0.9000000000000002
   vertex 29.863032022458093 19.94 0.9000000000000002
   vertex 6.000000000000001 14.0 0.9000000000000002
  endloop
 endfacet
 facet normal -0.0 0.0 1.0
  outer loop
   vertex 8.000000000000002 12.0 0.9000000000000002
   vertex 10.000000000000004 9.999999999999998 0.9000000000000002
   vertex 29.863032022458093 19.94 0.9000000000000002
  endloop
 endfacet
 facet normal -0.0 0.0 1.0
  outer loop
   vertex 8.000000000000002 12.0 0.9000000000000002
   vertex 10.000000000000004 9.999999999999998 0.9000000000000002
   vertex 29.863032022458093 19.94 0.9000000000000002
  endloop
 endfacet
 facet normal 0.0 0.0 1.0
  outer loop
   vertex 8.000000000000002 12.0 0.9000000000000002
   vertex 8.000000000000004 7.999999999999998 0.9000000000000002
   vertex 10.000000000000004 9.999999999999998 0.9000000000000002
  endloop
 endfacet
 facet normal 0.0 0.0 1.0
  outer loop
   vertex 8.000000000000002 12.0 0.9000000000000002
   vertex 6.0000000000000036 9.999999999999998 0.9000000000000002
   vertex 8.000000000000004 7.999999999999998 0.9000000000000002
  endloop
 endfacet
 facet normal 0.0 0.0 1.0
  outer loop
   vertex 8.000000000000002 12.0 0.9000000000000002
   vertex 6.0000000000000036 9.999999999999998 0.9000000000000002
   vertex 8.000000000000004 7.999999999999998 0.9000000000000002
  endloop
 endfacet
 facet normal 0.0 0.0 1.0
  outer loop
   vertex 8.000000000000002 12.0 0.9000000000000002
   vertex 6.000000000000001 10.0 0.9000000000000002
   vertex 8.000000000000004 7.999999999999998 0.9000000000000002
  endloop
 endfacet
 facet normal 0.0 0.0 1.0
  outer loop
   vertex 8.000000000000002 12.0 0.9000000000000002
   vertex 6.000000000000001 10.0 0.9000000000000002
   vertex 8.000000000000004 7.999999999999998 0.9000000000000002
  endloop
 endfacet
 facet normal 0.0 -0.0 1.0
  outer loop
   vertex 8.000000000000002 12.0 0.9000000000000002
   vertex 29.863032022458093 19.94 0.9000000000000002
   vertex 6.000000000000001 14.0 0.9000000000000002
  endloop
 endfacet
 facet normal 0.0 -0.0 1.0
  outer loop
   vertex 8.000000000000002 12.0 0.9000000000000002
   vertex 29.863032022458093 19.94 0.9000000000000002
   vertex 6.000000000000001 14.0 0.9000000000000002
  endloop
 endfacet
 facet normal -0.0 0.0 1.0
  outer loop
   vertex 8.000000000000002 12.0 0.9000000000000002
   vertex 10.000000000000004 9.999999999999998 0.9000000000000002
   vertex 29.863032022458093 19.94 0.9000000000000002
  endloop
 endfacet
 facet normal -0.0 0.0 1.0
  outer loop
   vertex 8.000000000000002 12.0 0.9000000000000002
   vertex 10.000000000000004 9.999999999999998 0.9000000000000002
   vertex 29.863032022458093 19.94 0.9000000000000002
  endloop
 endfacet
 facet normal 0.0 0.0 1.0
  outer loop
   vertex 6.000000000000001 14.0 0.9000000000000002
   vertex 0.0009522206992748757 19.94 0.9000000000000002
   vertex 4.0 12.0 0.9000000000000002
  endloop
 endfacet
 facet normal -0.0 0.0 1.0
  outer loop
   vertex 6.000000000000001 14.0 0.9000000000000002
   vertex 8.000000000000004 11.999999999999998 0.9000000000000002
   vertex 29.863032022458093 19.94 0.9000000000000002
  endloop
 endfacet
 facet normal -0.0 0.0 1.0
  outer loop
   vertex 6.000000000000001 14.0 0.9000000000000002
   vertex 8.000000000000004 11.999999999999998 0.9000000000000002
   vertex 29.863032022458093 19.94 0.9000000000000002
  endloop
 endfacet
 facet normal 0.0 0.0 1.0
  outer loop
   vertex 6.000000000000001 14.0 0.9000000000000002
   vertex 6.000000000000001 10.0 0.9000000000000002
   vertex 8.000000000000004 11.999999999999998 0.9000000000000002
  endloop
 endfacet
 facet normal 0.0 0.0 1.0
  outer loop
   vertex 6.000000000000001 14.0 0.9000000000000002
   vertex 4.0 12.0 0.9000000000000002
   vertex 6.0000000000000036 9.999999999999998 0.9000000000000002
  endloop
 endfacet
 facet normal 0.0 0.0 1.0
  outer loop
   vertex 6.000000000000001 14.0 0.9000000000000002
   vertex 6.0000000000000036 9.999999999999998 0.9000000000000002
   vertex 8.000000000000004 11.999999999999998 0.9000000000000002
  endloop
 endfacet
 facet normal 0.0 0.0 1.0
  outer loop
   vertex 6.000000000000001 14.0 0.9000000000000002
   vertex 6.0000000000000036 9.999999999999998 0.9000000000000002
   vertex 8.000000000000004 11.999999999999998 0.9000000000000002
  endloop
 endfacet
 facet normal 0.0 0.0 1.0
  outer loop
   vertex 6.000000000000001 14.0 0.9000000000000002
   vertex 4.0 12.0 0.9000000000000002
   vertex 6.0000000000000036 9.999999999999998 0.9000000000000002
  endloop
 endfacet
 facet normal 0.0 0.0 1.0
  outer loop
   vertex 4.0 12.0 0.9000000000000002
   vertex 9.908147737114229 0.001 0.9000000000000002
   vertex 6.000000000000001 10.0 0.9000000000000002
  endloop
 endfacet
 facet normal 0.0 0.0 1.0
  outer loop
   vertex 4.0 12.0 0.9000000000000002
   vertex 9.908147737114229 0.001 0.9000000000000002
   vertex 6.000000000000001 10.0 0.9000000000000002
  endloop
 endfacet
 facet normal 0.0 0.0 1.0
  outer loop
   vertex 4.0 12.0 0.9000000000000002
   vertex 9.908147737114229 0.001 0.9000000000000002
   vertex 6.0000000000000036 9.999999999999998 0.9000000000000002
  endloop
 endfacet
 facet normal 0.0 0.0 1.0
  outer loop
   vertex 4.0 12.0 0.9000000000000002
   vertex 9.908147737114229 0.001 0.9000000000000002
   vertex 6.0000000000000036 9.999999999999998 0.9000000000000002
  endloop
 endfacet
 facet normal 0.0 0.0 1.0
  outer loop
   vertex 6.000000000000001 10.0 0.9000000000000002
   vertex 9.908147737114229 0.001 0.9000000000000002
   vertex 8.000000000000004 7.999999999999998 0.9000000000000002
  endloop
 endfacet
 facet normal 0.0 0.0 1.0
  outer loop
   vertex 6.000000000000001 10.0 0.9000000000000002
   vertex 9.908147737114229 0.001 0.9000000000000002
   vertex 8.000000000000004 7.999999999999998 0.9000000000000002
  endloop
 endfacet
 facet normal 0.0 0.0 1.0
  outer loop
   vertex 6.000000000000001 10.0 0.9000000000000002
   vertex 9.908147737114229 0.001 0.9000000000000002
   vertex 8.000000000000004 7.999999999999998 0.9000000000000002
  endloop
 endfacet
 facet normal 0.0 0.0 1.0
  outer loop
   vertex 6.000000000000001 10.0 0.9000000000000002
   vertex 9.908147737114229 0.001 0.9000000000000002
   vertex 8.000000000000004 7.999999999999998 0.9000000000000002
  endloop
 endfacet
 facet normal 0.0 -0.0 1.0
  outer loop
   vertex 10.000000000000004 9.999999999999998 0.9000000000000002
   vertex 29.863032022458093 19.94 0.9000000000000002
   vertex 8.000000000000004 11.999999999999998 0.9000000000000002
  endloop
 endfacet
 facet normal 0.0 -0.0 1.0
  outer loop
   vertex 10.000000000000004 9.999999999999998 0.9000000000000002
   vertex 29.863032022458093 19.94 0.9000000000000002
   vertex 8.000000000000004 11.999999999999998 0.9000000000000002
  endloop
 endfacet
 facet normal 0.0 0.0 1.0
  outer loop
   vertex 10.000000000000004 9.999999999999998 0.9000000000000002
   vertex 8.000000000000004 7.999999999999998 0.9000000000000002
   vertex 9.908147737114229 0.001 0.9000000000000002
  endloop
 endfacet
 facet normal 0.0 0.0 1.0
  outer loop
   vertex 8.000000000000004 11.999999999999998 0.9000000000000002
   vertex 8.000000000000004 7.999999999999998 0.9000000000000002
   vertex 10.000000000000004 9.999999999999998 0.9000000000000002
  endloop
 endfacet
 facet normal 0.0 0.0 1.0
  outer loop
   vertex 8.000000000000004 11.999999999999998 0.9000000000000002
   vertex 6.0000000000000036 9.999999999999998 0.9000000000000002
   vertex 8.000000000000004 7.999999999999998 0.9000000000000002
  endloop
 endfacet
 facet normal 0.0 0.0 1.0
  outer loop
   vertex 8.000000000000004 11.999999999999998 0.9000000000000002
   vertex 6.0000000000000036 9.999999999999998 0.9000000000000002
   vertex 8.000000000000004 7.999999999999998 0.9000000000000002
  endloop
 endfacet
 facet normal 0.0 0.0 1.0
  outer loop
   vertex 6.0000000000000036 9.999999999999998 0.9000000000000002
   vertex 9.908147737114229 0.001 0.9000000000000002
   vertex 8.000000000000004 7.999999999999998 0.9000000000000002
  endloop
 endfacet
 facet normal 0.0 0.0 1.0
  outer loop
   vertex 6.0000000000000036 9.999999999999998 0.9000000000000002
   vertex 9.908147737114229 0.001 0.9000000000000002
   vertex 8.000000000000004 7.999999999999998 0.9000000000000002
  endloop
 endfacet
 facet normal 0.0 0.0 1.0
  outer loop
   vertex 6.0000000000000036 9.999999999999998 0.9000000000000002
   vertex 9.908147737114229 0.001 0.9000000000000002
   vertex 8.000000000000004 7.999999999999998 0.9000000000000002
  endloop
 endfacet
 facet normal 0.0 0.0 1.0
  outer loop
   vertex 6.0000000000000036 9.999999999999998 0.9000000000000002
   vertex 9.908147737114229 0.001 0.9000000000000002
   vertex 8.000000000000004 7.999999999999998 0.9000000000000002
  endloop
 endfacet
 facet normal -0.7071067811865474 -0.7071067811865477 0.0
  outer loop
   vertex 8.000000000000002 12.0 0
   vertex 8.000000000000002 12.0 0.9000000000000002
   vertex 6.000000000000001 14.0 0
  endloop
 endfacet
 facet normal -0.7071067811865474 -0.7071067811865477 0.0
  outer loop
   vertex 6.000000000000001 14.0 0
   vertex 8.000000000000002 12.0 0.9000000000000002
   vertex 6.000000000000001 14.0 0.9000000000000002
  endloop
 endfacet
 facet normal 0.7071067811865474 -0.7071067811865477 0.0
  outer loop
   vertex 6.000000000000001 14.0 0
   vertex 6.000000000000001 14.0 0.9000000000000002
   vertex 4.0 12.0 0
  endloop
 endfacet
 facet normal 0.7071067811865474 -0.7071067811865477 0.0
  outer loop
   vertex 4.0 12.0 0
   vertex 6.000000000000001 14.0 0.9000000000000002
   vertex 4.0 12.0 0.9000000000000002
  endloop
 endfacet
 facet normal 0.7071067811865474 0.7071067811865477 -0.0
  outer loop
   vertex 4.0 12.0 0
   vertex 4.0 12.0 0.9000000000000002
   vertex 6.000000000000001 10.0 0
  endloop
 endfacet
 facet normal 0.7071067811865474 0.7071067811865477 -0.0
  outer loop
   vertex 6.000000000000001 10.0 0
   vertex 4.0 12.0 0.9000000000000002
   vertex 6.000000000000001 10.0 0.9000000000000002
  endloop
 endfacet
 facet normal -0.7071067811865474 0.7071067811865477 0.0
  outer loop
   vertex 6.000000000000001 10.0 0
   vertex 6.000000000000001 10.0 0.9000000000000002
   vertex 8.000000000000002 12.0 0
  endloop
 endfacet
 facet normal -0.7071067811865474 0.7071067811865477 0.0
  outer loop
   vertex 8.000000000000002 12.0 0
   vertex 6.000000000000001 10.0 0.9000000000000002
   vertex 8.000000000000002 12.0 0.9000000000000002
  endloop
 endfacet
 facet normal -0.7071067811865475 -0.7071067811865475 0.0
  outer loop
   vertex 10.000000000000004 9.999999999999998 0
   vertex 10.000000000000004 9.999999999999998 0.9000000000000002
   vertex 8.000000000000004 11.999999999999998 0
  endloop
 endfacet
 facet normal -0.7071067811865475 -0.7071067811865475 0.0
  outer loop
   vertex 8.000000000000004 11.999999999999998 0
   vertex 10.000000000000004 9.999999999999998 0.9000000000000002
   vertex 8.000000000000004 11.999999999999998 0.9000000000000002
  endloop
 endfacet
 facet normal 0.7071067811865475 -0.7071067811865475 0.0
  outer loop
   vertex 8.000000000000004 11.999999999999998 0
   vertex 8.000000000000004 11.999999999999998 0.9000000000000002
   vertex 6.0000000000000036 9.999999999999998 0
  endloop
 endfacet
 facet normal 0.7071067811865475 -0.7071067811865475 0.0
  outer loop
   vertex 6.0000000000000036 9.999999999999998 0
   vertex 8.000000000000004 11.999999999999998 0.9000000000000002
   vertex 6.0000000000000036 9.999999999999998 0.9000000000000002
  endloop
 endfacet
 facet normal 0.7071067811865475 0.7071067811865475 -0.0
  outer loop
   vertex 6.0000000000000036 9.999999999999998 0
   vertex 6.0000000000000036 9.999999999999998 0.9000000000000002
   vertex 8.000000000000004 7.999999999999998 0
  endloop
 endfacet
 facet normal 0.7071067811865475 0.7071067811865475 -0.0
  outer loop
   vertex 8.000000000000004 7.999999999999998 0
   vertex 6.0000000000000036 9.999999999999998 0.9000000000000002
   vertex 8.000000000000004 7.999999999999998 0.9000000000000002
  endloop
 endfacet
 facet normal -0.7071067811865475 0.7071067811865475 0.0
  outer loop
   vertex 8.000000000000004 7.999999999999998 0
   vertex 8.000000000000004 7.999999999999998 0.9000000000000002
   vertex 10.000000000000004 9.999999999999998 0
  endloop
 endfacet
 facet normal -0.7071067811865475 0.7071067811865475 0.0
  outer loop
   vertex 10.000000000000004 9.999999999999998 0
   vertex 8.000000000000004 7.999999999999998 0.9000000000000002
   vertex 10.000000000000004 9.999999999999998 0.9000000000000002
  endloop
 endfacet
 facet normal 0.0 0.0 -1.0
  outer loop
   vertex 0.0009522206992748757 19.94 1.2600000000000002
   vertex 29.863032022458093 19.94 1.2600000000000002
   vertex 6.000000000000001 14.0 1.2600000000000002
  endloop
 endfacet
 facet normal 0.0 0.0 -1.0
  outer loop
   vertex 29.863032022458093 19.94 1.2600000000000002
   vertex 9.908147737114229 0.001 1.2600000000000002
   vertex 10.000000000000004 9.999999999999998 1.2600000000000002
  endloop
 endfacet
 facet normal 0.0 0.0 -1.0
  outer loop
   vertex 9.908147737114229 0.001 1.2600000000000002
   vertex -0.01492574262043236 0.001 1.2600000000000002
   vertex 4.0 12.0 1.2600000000000002
  endloop
 endfacet
 facet normal 0.0 0.0 -1.0
  outer loop
   vertex -0.01492574262043236 0.001 1.2600000000000002
   vertex 0.0009522206992748757 19.94 1.2600000000000002
   vertex 4.0 12.0 1.2600000000000002
  endloop
 endfacet
 facet normal -0.0 0.0 -1.0
  outer loop
   vertex 8.000000000000002 12.0 1.2600000000000002
   vertex 6.0000000000000036 9.999999999999998 1.2600000000000002
   vertex 6.000000000000001 14.0 1.2600000000000002
  endloop
 endfacet
 facet normal -0.0 0.0 -1.0
  outer loop
   vertex 8.000000000000002 12.0 1.2600000000000002
   vertex 6.0000000000000036 9.999999999999998 1.2600000000000002
   vertex 6.000000000000001 14.0 1.2600000000000002
  endloop
 endfacet
 facet normal 0.0 0.0 -1.0
  outer loop
   vertex 8.000000000000002 12.0 1.2600000000000002
   vertex 6.000000000000001 14.0 1.2600000000000002
   vertex 29.863032022458093 19.94 1.2600000000000002
  endloop
 endfacet
 facet normal 0.0 0.0 -1.0
  outer loop
   vertex 8.000000000000002 12.0 1.2600000000000002
   vertex 6.000000000000001 14.0 1.2600000000000002
   vertex 29.863032022458093 19.94 1.2600000000000002
  endloop
 endfacet
 facet normal 0.0 0.0 -1.0
  outer loop
   vertex 8.000000000000002 12.0 1.2600000000000002
   vertex 29.863032022458093 19.94 1.2600000000000002
   vertex 10.000000000000004 9.999999999999998 1.2600000000000002
  endloop
 endfacet
 facet normal 0.0 0.0 -1.0
  outer loop
   vertex 8.000000000000002 12.0 1.2600000000000002
   vertex 29.863032022458093 19.94 1.2600000000000002
   vertex 10.000000000000004 9.999999999999998 1.2600000000000002
  endloop
 endfacet
 facet normal 0.0 0.0 -1.0
  outer loop
   vertex 8.000000000000002 12.0 1.2600000000000002
   vertex 10.000000000000004 9.999999999999998 1.2600000000000002
   vertex 8.000000000000004 7.999999999999998 1.2600000000000002
  endloop
 endfacet
 facet normal 0.0 -0.0 -1.0
  outer loop
   vertex 8.000000000000002 12.0 1.2600000000000002
   vertex 8.000000000000004 7.999999999999998 1.2600000000000002
   vertex 6.0000000000000036 9.999999999999998 1.2600000000000002
  endloop
 endfacet
 facet normal 0.0 -0.0 -1.0
  outer loop
   vertex 8.000000000000002 12.0 1.2600000000000002
   vertex 8.000000000000004 7.999999999999998 1.2600000000000002
   vertex 6.0000000000000036 9.999999999999998 1.2600000000000002
  endloop
 endfacet
 facet normal 0.0 -0.0 -1.0
  outer loop
   vertex 8.000000000000002 12.0 1.2600000000000002
   vertex 8.000000000000004 7.999999999999998 1.2600000000000002
   vertex 6.000000000000001 10.0 1.2600000000000002
  endloop
 endfacet
 facet normal 0.0 -0.0 -1.0
  outer loop
   vertex 8.000000000000002 12.0 1.2600000000000002
   vertex 8.000000000000004 7.999999999999998 1.2600000000000002
   vertex 6.000000000000001 10.0 1.2600000000000002
  endloop
 endfacet
 facet normal 0.0 0.0 -1.0
  outer loop
   vertex 8.000000000000002 12.0 1.2600000000000002
   vertex 6.000000000000001 14.0 1.2600000000000002
   vertex 29.863032022458093 19.94 1.2600000000000002
  endloop
 endfacet
 facet normal 0.0 0.0 -1.0
  outer loop
   vertex 8.000000000000002 12.0 1.2600000000000002
   vertex 6.000000000000001 14.0 1.2600000000000002
   vertex 29.863032022458093 19.94 1.2600000000000002
  endloop
 endfacet
 facet normal 0.0 0.0 -1.0
  outer loop
   vertex 8.000000000000002 12.0 1.2600000000000002
   vertex 29.863032022458093 19.94 1.2600000000000002
   vertex 10.000000000000004 9.999999999999998 1.2600000000000002
  endloop
 endfacet
 facet normal 0.0 0.0 -1.0
  outer loop
   vertex 8.000000000000002 12.0 1.2600000000000002
   vertex 29.863032022458093 19.94 1.2600000000000002
   vertex 10.000000000000004 9.999999999999998 1.2600000000000002
  endloop
 endfacet
 facet normal -0.0 0.0 -1.0
  outer loop
   vertex 6.000000000000001 14.0 1.2600000000000002
   vertex 4.0 12.0 1.2600000000000002
   vertex 0.0009522206992748757 19.94 1.2600000000000002
  endloop
 endfacet
 facet normal 0.0 0.0 -1.0
  outer loop
   vertex 6.000000000000001 14.0 1.2600000000000002
   vertex 29.863032022458093 19.94 1.2600000000000002
   vertex 8.000000000000004 11.999999999999998 1.2600000000000002
  endloop
 endfacet
 facet normal 0.0 0.0 -1.0
  outer loop
   vertex 6.000000000000001 14.0 1.2600000000000002
   vertex 29.863032022458093 19.94 1.2600000000000002
   vertex 8.000000000000004 11.999999999999998 1.2600000000000002
  endloop
 endfacet
 facet normal 0.0 0.0 -1.0
  outer loop
   vertex 6.000000000000001 14.0 1.2600000000000002
   vertex 8.000000000000004 11.999999999999998 1.2600000000000002
   vertex 6.000000000000001 10.0 1.2600000000000002
  endloop
 endfacet
 facet normal 0.0 -0.0 -1.0
  outer loop
   vertex 6.000000000000001 14.0 1.2600000000000002
   vertex 6.0000000000000036 9.999999999999998 1.2600000000000002
   vertex 4.0 12.0 1.2600000000000002
  endloop
 endfacet
 facet normal 0.0 0.0 -1.0
  outer loop
   vertex 6.000000000000001 14.0 1.2600000000000002
   vertex 8.000000000000004 11.999999999999998 1.2600000000000002
   vertex 6.0000000000000036 9.999999999999998 1.2600000000000002
  endloop
 endfacet
 facet normal 0.0 0.0 -1.0
  outer loop
   vertex 6.000000000000001 14.0 1.2600000000000002
   vertex 8.000000000000004 11.999999999999998 1.2600000000000002
   vertex 6.0000000000000036 9.999999999999998 1.2600000000000002
  endloop
 endfacet
 facet normal 0.0 -0.0 -1.0
  outer loop
   vertex 6.000000000000001 14.0 1.2600000000000002
   vertex 6.0000000000000036 9.999999999999998 1.2600000000000002
   vertex 4.0 12.0 1.2600000000000002
  endloop
 endfacet
 facet normal 0.0 0.0 -1.0
  outer loop
   vertex 4.0 12.0 1.2600000000000002
   vertex 6.000000000000001 10.0 1.2600000000000002
   vertex 9.908147737114229 0.001 1.2600000000000002
  endloop
 endfacet
 facet normal 0.0 0.0 -1.0
  outer loop
   vertex 4.0 12.0 1.2600000000000002
   vertex 6.000000000000001 10.0 1.2600000000000002
   vertex 9.908147737114229 0.001 1.2600000000000002
  endloop
 endfacet
 facet normal 0.0 0.0 -1.0
  outer loop
   vertex 4.0 12.0 1.2600000000000002
   vertex 6.0000000000000036 9.999999999999998 1.2600000000000002
   vertex 9.908147737114229 0.001 1.2600000000000002
  endloop
 endfacet
 facet normal 0.0 0.0 -1.0
  outer loop
   vertex 4.0 12.0 1.2600000000000002
   vertex 6.0000000000000036 9.999999999999998 1.2600000000000002
   vertex 9.908147737114229 0.001 1.2600000000000002
  endloop
 endfacet
 facet normal 0.0 0.0 -1.0
  outer loop
   vertex 6.000000000000001 10.0 1.2600000000000002
   vertex 8.000000000000004 7.999999999999998 1.2600000000000002
   vertex 9.908147737114229 0.001 1.2600000000000002
  endloop
 endfacet
 facet normal 0.0 0.0 -1.0
  outer loop
   vertex 6.000000000000001 10.0 1.2600000000000002
   vertex 8.000000000000004 7.999999999999998 1.2600000000000002
   vertex 9.908147737114229 0.001 1.2600000000000002
  endloop
 endfacet
 facet normal 0.0 0.0 -1.0
  outer loop
   vertex 6.000000000000001 10.0 1.2600000000000002
   vertex 8.000000000000004 7.999999999999998 1.2600000000000002
   vertex 9.908147737114229 0.001 1.2600000000000002
  endloop
 endfacet
 facet normal 0.0 0.0 -1.0
  outer loop
   vertex 6.000000000000001 10.0 1.2600000000000002
   vertex 8.000000000000004 7.999999999999998 1.2600000000000002
   vertex 9.908147737114229 0.001 1.2600000000000002
  endloop
 endfacet
 facet normal 0.0 0.0 -1.0
  outer loop
   vertex 10.000000000000004 9.999999999999998 1.2600000000000002
   vertex 8.000000000000004 11.999999999999998 1.2600000000000002
   vertex 29.863032022458093 19.94 1.2600000000000002
  endloop
 endfacet
 facet normal 0.0 0.0 -1.0
  outer loop
   vertex 10.000000000000004 9.999999999999998 1.2600000000000002
   vertex 8.000000000000004 11.999999999999998 1.2600000000000002
   vertex 29.863032022458093 19.94 1.2600000000000002
  endloop
 endfacet
 facet normal 0.0 0.0 -1.0
  outer loop
   vertex 10.000000000000004 9.999999999999998 1.2600000000000002
   vertex 9.908147737114229 0.001 1.2600000000000002
   vertex 8.000000000000004 7.999999999999998 1.2600000000000002
  endloop
 endfacet
 facet normal 0.0 0.0 -1.0
  outer loop
   vertex 8.000000000000004 11.999999999999998 1.2600000000000002
   vertex 10.000000000000004 9.999999999999998 1.2600000000000002
   vertex 8.000000000000004 7.999999999999998 1.2600000000000002
  endloop
 endfacet
 facet normal 0.0 -0.0 -1.0
  outer loop
   vertex 8.000000000000004 11.999999999999998 1.2600000000000002
   vertex 8.000000000000004 7.999999999999998 1.2600000000000002
   vertex 6.0000000000000036 9.999999999999998 1.2600000000000002
  endloop
 endfacet
 facet normal 0.0 -0.0 -1.0
  outer loop
   vertex 8.000000000000004 11.999999999999998 1.2600000000000002
   vertex 8.000000000000004 7.999999999999998 1.2600000000000002
   vertex 6.0000000000000036 9.999999999999998 1.2600000000000002
  endloop
 endfacet
 facet normal 0.0 0.0 -1.0
  outer loop
   vertex 6.0000000000000036 9.999999999999998 1.2600000000000002
   vertex 8.000000000000004 7.999999999999998 1.2600000000000002
   vertex 9.908147737114229 0.001 1.2600000000000002
  endloop
 endfacet
 facet normal 0.0 0.0 -1.0
  outer loop
   vertex 6.0000000000000036 9.999999999999998 1.2600000000000002
   vertex 8.000000000000004 7.999999999999998 1.2600000000000002
   vertex 9.908147737114229 0.001 1.2600000000000002
  endloop
 endfacet
 facet normal 0.0 0.0 -1.0
  outer loop
   vertex 6.0000000000000036 9.999999999999998 1.2600000000000002
   vertex 8.000000000000004 7.999999999999998 1.2600000000000002
   vertex 9.908147737114229 0.001 1.2600000000000002
  endloop
 endfacet
 facet normal 0.0 0.0 -1.0
  outer loop
   vertex 6.0000000000000036 9.999999999999998 1.2600000000000002
   vertex 8.000000000000004 7.999999999999998 1.2600000000000002
   vertex 9.908147737114229 0.001 1.2600000000000002
  endloop
 endfacet
 facet normal 0.0 0.29271427209411177 0.9561999555074318
  outer loop
   vertex 29.863032022458093 19.94 1.2600000000000002
   vertex 0.0009522206992748757 19.94 1.2600000000000002
   vertex -0.0013889805726013114 17.0 2.1600000000000006
  endloop
 endfacet
 facet normal 0.0 0.29271427209411177 0.9561999555074318
  outer loop
   vertex 22.761245547474996 17.0 2.1600000000000006
   vertex 29.863032022458093 19.94 1.2600000000000002
   vertex -0.0013889805726013114 17.0 2.1600000000000006
  endloop
 endfacet
 facet normal 0.20689781838504598 -0.2070626422971906 0.9561999555074316
  outer loop
   vertex 9.908147737114229 0.001 1.2600000000000002
   vertex 29.863032022458093 19.94 1.2600000000000002
   vertex 22.761245547474996 17.0 2.1600000000000006
  endloop
 endfacet
 facet normal 0.2068978183850461 -0.20706264229719068 0.9561999555074315
  outer loop
   vertex 5.748703395583711 0.001 2.1600000000000006
   vertex 9.908147737114229 0.001 1.2600000000000002
   vertex 22.761245547474996 17.0 2.1600000000000006
  endloop
 endfacet
 facet normal 0.0 -1.0 0.0
  outer loop
   vertex -0.01492574262043236 0.001 1.2600000000000002
   vertex 9.908147737114229 0.001 1.2600000000000002
   vertex 5.748703395583711 0.001 2.1600000000000006
  endloop
 endfacet
 facet normal 0.0 -1.0 0.0
  outer loop
   vertex -0.01492574262043236 0.001 2.1600000000000006
   vertex -0.01492574262043236 0.001 1.2600000000000002
   vertex 5.748703395583711 0.001 2.1600000000000006
  endloop
 endfacet
 facet normal -0.9999996829318347 0.0007963267107332633 0.0
  outer loop
   vertex 0.0009522206992748757 19.94 1.2600000000000002
   vertex -0.01492574262043236 0.001 1.2600000000000002
   vertex -0.01492574262043236 0.001 2.1600000000000006
  endloop
 endfacet
 facet normal -0.9999996829318346 0.0007963267107332633 0.0
  outer loop
   vertex -0.0013889805726013114 17.0 2.1600000000000006
   vertex 0.0009522206992748757 19.94 1.2600000000000002
   vertex -0.01492574262043236 0.001 2.1600000000000006
  endloop
 endfacet
 facet normal -0.0 0.0 1.0
  outer loop
   vertex -0.0013889805726013114 17.0 2.1600000000000006
   vertex 6.000000000000001 14.0 2.1600000000000006
   vertex 22.761245547474996 17.0 2.1600000000000006
  endloop
 endfacet
 facet normal 0.0 0.0 1.0
  outer loop
   vertex 22.761245547474996 17.0 2.1600000000000006
   vertex 10.000000000000004 9.999999999999998 2.1600000000000006
   vertex 5.748703395583711 0.001 2.1600000000000006
  endloop
 endfacet
 facet normal 0.0 0.0 1.0
  outer loop
   vertex 5.748703395583711 0.001 2.1600000000000006
   vertex 4.0 12.0 2.1600000000000006
   vertex -0.01492574262043236 0.001 2.1600000000000006
  endloop
 endfacet
 facet normal 0.0 0.0 1.0
  outer loop
   vertex -0.01492574262043236 0.001 2.1600000000000006
   vertex 4.0 12.0 2.1600000000000006
   vertex -0.0013889805726013114 17.0 2.1600000000000006
  endloop
 endfacet
 facet normal 0.0 0.0 1.0
  outer loop
   vertex 8.000000000000002 12.0 2.1600000000000006
   vertex 6.000000000000001 14.0 2.1600000000000006
   vertex 6.0000000000000036 9.999999999999998 2.1600000000000006
  endloop
 endfacet
 facet normal 0.0 0.0 1.0
  outer loop
   vertex 8.000000000000002 12.0 2.1600000000000006
   vertex 6.000000000000001 14.0 2.1600000000000006
   vertex 6.0000000000000036 9.999999999999998 2.1600000000000006
  endloop
 endfacet
 facet normal 0.0 -0.0 1.0
  outer loop
   vertex 8.000000000000002 12.0 2.1600000000000006
   vertex 22.761245547474996 17.0 2.1600000000000006
   vertex 6.000000000000001 14.0 2.1600000000000006
  endloop
 endfacet
 facet normal 0.0 -0.0 1.0
  outer loop
   vertex 8.000000000000002 12.0 2.1600000000000006
   vertex 22.761245547474996 17.0 2.1600000000000006
   vertex 6.000000000000001 14.0 2.1600000000000006
  endloop
 endfacet
 facet normal -0.0 0.0 1.0
  outer loop
   vertex 8.000000000000002 12.0 2.1600000000000006
   vertex 10.000000000000004 9.999999999999998 2.1600000000000006
   vertex 22.761245547474996 17.0 2.1600000000000006
  endloop
 endfacet
 facet normal -0.0 0.0 1.0
  outer loop
   vertex 8.000000000000002 12.0 2.1600000000000006
   vertex 10.000000000000004 9.999999999999998 2.1600000000000006
   vertex 22.761245547474996 17.0 2.1600000000000006
  endloop
 endfacet
 facet normal 0.0 0.0 1.0
  outer loop
   vertex 8.000000000000002 12.0 2.1600000000000006
   vertex 8.000000000000004 7.999999999999998 2.1600000000000006
   vertex 10.000000000000004 9.999999999999998 2.1600000000000006
  endloop
 endfacet
 facet normal 0.0 0.0 1.0
  outer loop
   vertex 8.000000000000002 12.0 2.1600000000000006
   vertex 6.0000000000000036 9.999999999999998 2.1600000000000006
   vertex 8.000000000000004 7.999999999999998 2.1600000000000006
  endloop
 endfacet
 facet normal 0.0 0.0 1.0
  outer loop
   vertex 8.000000000000002 12.0 2.1600000000000006
   vertex 6.0000000000000036 9.999999999999998 2.1600000000000006
   vertex 8.000000000000004 7.999999999999998 2.1600000000000006
  endloop
 endfacet
 facet normal 0.0 0.0 1.0
  outer loop
   vertex 8.000000000000002 12.0 2.1600000000000006
   vertex 6.000000000000001 10.0 2.1600000000000006
   vertex 8.000000000000004 7.999999999999998 2.1600000000000006
  endloop
 endfacet
 facet normal 0.0 0.0 1.0
  outer loop
   vertex 8.000000000000002 12.0 2.1600000000000006
   vertex 6.000000000000001 10.0 2.1600000000000006
   vertex 8.000000000000004 7.999999999999998 2.1600000000000006
  endloop
 endfacet
 facet normal 0.0 -0.0 1.0
  outer loop
   vertex 8.000000000000002 12.0 2.1600000000000006
   vertex 22.761245547474996 17.0 2.1600000000000006
   vertex 6.000000000000001 14.0 2.1600000000000006
  endloop
 endfacet
 facet normal 0.0 -0.0 1.0
  outer loop
   vertex 8.000000000000002 12.0 2.1600000000000006
   vertex 22.761245547474996 17.0 2.1600000000000006
   vertex 6.000000000000001 14.0 2.1600000000000006
  endloop
 endfacet
 facet normal -0.0 0.0 1.0
  outer loop
   vertex 8.000000000000002 12.0 2.1600000000000006
   vertex 10.000000000000004 9.999999999999998 2.1600000000000006
   vertex 22.761245547474996 17.0 2.1600000000000006
  endloop
 endfacet
 facet normal -0.0 0.0 1.0
  outer loop
   vertex 8.000000000000002 12.0 2.1600000000000006
   vertex 10.000000000000004 9.999999999999998 2.1600000000000006
   vertex 22.761245547474996 17.0 2.1600000000000006
  endloop
 endfacet
 facet normal 0.0 0.0 1.0
  outer loop
   vertex 6.000000000000001 14.0 2.1600000000000006
   vertex -0.0013889805726013114 17.0 2.1600000000000006
   vertex 4.0 12.0 2.1600000000000006
  endloop
 endfacet
 facet normal -0.0 0.0 1.0
  outer loop
   vertex 6.000000000000001 14.0 2.1600000000000006
   vertex 8.000000000000004 11.999999999999998 2.1600000000000006
   vertex 22.761245547474996 17.0 2.1600000000000006
  endloop
 endfacet
 facet normal -0.0 0.0 1.0
  outer loop
   vertex 6.000000000000001 14.0 2.1600000000000006
   vertex 8.000000000000004 11.999999999999998 2.1600000000000006
   vertex 22.761245547474996 17.0 2.1600000000000006
  endloop
 endfacet
 facet normal 0.0 0.0 1.0
  outer loop
   vertex 6.000000000000001 14.0 2.1600000000000006
   vertex 6.000000000000001 10.0 2.1600000000000006
   vertex 8.000000000000004 11.999999999999998 2.1600000000000006
  endloop
 endfacet
 facet normal 0.0 0.0 1.0
  outer loop
   vertex 6.000000000000001 14.0 2.1600000000000006
   vertex 4.0 12.0 2.1600000000000006
   vertex 6.0000000000000036 9.999999999999998 2.1600000000000006
  endloop
 endfacet
 facet normal 0.0 0.0 1.0
  outer loop
   vertex 6.000000000000001 14.0 2.1600000000000006
   vertex 6.0000000000000036 9.999999999999998 2.1600000000000006
   vertex 8.000000000000004 11.999999999999998 2.1600000000000006
  endloop
 endfacet
 facet normal 0.0 0.0 1.0
  outer loop
   vertex 6.000000000000001 14.0 2.1600000000000006
   vertex 6.0000000000000036 9.999999999999998 2.1600000000000006
   vertex 8.000000000000004 11.999999999999998 2.1600000000000006
  endloop
 endfacet
 facet normal 0.0 0.0 1.0
  outer loop
   vertex 6.000000000000001 14.0 2.1600000000000006
   vertex 4.0 12.0 2.1600000000000006
   vertex 6.0000000000000036 9.999999999999998 2.1600000000000006
  endloop
 endfacet
 facet normal 0.0 0.0 1.0
  outer loop
   vertex 4.0 12.0 2.1600000000000006
   vertex 5.748703395583711 0.001 2.1600000000000006
   vertex 6.000000000000001 10.0 2.1600000000000006
  endloop
 endfacet
 facet normal 0.0 0.0 1.0
  outer loop
   vertex 4.0 12.0 2.1600000000000006
   vertex 5.748703395583711 0.001 2.1600000000000006
   vertex 6.000000000000001 10.0 2.1600000000000006
  endloop
 endfacet
 facet normal 0.0 0.0 1.0
  outer loop
   vertex 4.0 12.0 2.1600000000000006
   vertex 5.748703395583711 0.001 2.1600000000000006
   vertex 6.0000000000000036 9.999999999999998 2.1600000000000006
  endloop
 endfacet
 facet normal 0.0 0.0 1.0
  outer loop
   vertex 4.0 12.0 2.1600000000000006
   vertex 5.748703395583711 0.001 2.1600000000000006
   vertex 6.0000000000000036 9.999999999999998 2.1600000000000006
  endloop
 endfacet
 facet normal 0.0 0.0 1.0
  outer loop
   vertex 6.000000000000001 10.0 2.1600000000000006
   vertex 5.748703395583711 0.001 2.1600000000000006
   vertex 8.000000000000004 7.999999999999998 2.1600000000000006
  endloop
 endfacet
 facet normal 0.0 0.0 1.0
  outer loop
   vertex 6.000000000000001 10.0 2.1600000000000006
   vertex 5.748703395583711 0.001 2.1600000000000006
   vertex 8.000000000000004 7.999999999999998 2.1600000000000006
  endloop
 endfacet
 facet normal 0.0 0.0 1.0
  outer loop
   vertex 6.000000000000001 10.0 2.1600000000000006
   vertex 5.748703395583711 0.001 2.1600000000000006
   vertex 8.000000000000004 7.999999999999998 2.1600000000000006
  endloop
 endfacet
 facet normal 0.0 0.0 1.0
  outer loop
   vertex 6.000000000000001 10.0 2.1600000000000006
   vertex 5.748703395583711 0.001 2.1600000000000006
   vertex 8.000000000000004 7.999999999999998 2.1600000000000006
  endloop
 endfacet
 facet normal 0.0 -0.0 1.0
  outer loop
   vertex 10.000000000000004 9.999999999999998 2.1600000000000006
   vertex 22.761245547474996 17.0 2.1600000000000006
   vertex 8.000000000000004 11.999999999999998 2.1600000000000006
  endloop
 endfacet
 facet normal 0.0 -0.0 1.0
  outer loop
   vertex 10.000000000000004 9.999999999999998 2.1600000000000006
   vertex 22.761245547474996 17.0 2.1600000000000006
   vertex 8.000000000000004 11.999999999999998 2.1600000000000006
  endloop
 endfacet
 facet normal 0.0 0.0 1.0
  outer loop
   vertex 10.000000000000004 9.999999999999998 2.1600000000000006
   vertex 8.000000000000004 7.999999999999998 2.1600000000000006
   vertex 5.748703395583711 0.001 2.1600000000000006
  endloop
 endfacet
 facet normal 0.0 0.0 1.0
  outer loop
   vertex 8.000000000000004 11.999999999999998 2.1600000000000006
   vertex 8.000000000000004 7.999999999999998 2.1600000000000006
   vertex 10.000000000000004 9.999999999999998 2.1600000000000006
  endloop
 endfacet
 facet normal 0.0 0.0 1.0
  outer loop
   vertex 8.000000000000004 11.999999999999998 2.1600000000000006
   vertex 6.0000000000000036 9.999999999999998 2.1600000000000006
   vertex 8.000000000000004 7.999999999999998 2.1600000000000006
  endloop
 endfacet
 facet normal 0.0 0.0 1.0
  outer loop
   vertex 8.000000000000004 11.999999999999998 2.1600000000000006
   vertex 6.0000000000000036 9.999999999999998 2.1600000000000006
   vertex 8.000000000000004 7.999999999999998 2.1600000000000006
  endloop
 endfacet
 facet normal 0.0 0.0 1.0
  outer loop
   vertex 6.0000000000000036 9.999999999999998 2.1600000000000006
   vertex 5.748703395583711 0.001 2.1600000000000006
   vertex 8.000000000000004 7.999999999999998 2.1600000000000006
  endloop
 endfacet
 facet normal 0.0 0.0 1.0
  outer loop
   vertex 6.0000000000000036 9.999999999999998 2.1600000000000006
   vertex 5.748703395583711 0.001 2.1600000000000006
   vertex 8.000000000000004 7.999999999999998 2.1600000000000006
  endloop
 endfacet
 facet normal 0.0 0.0 1.0
  outer loop
   vertex 6.0000000000000036 9.999999999999998 2.1600000000000006
   vertex 5.748703395583711 0.001 2.1600000000000006
   vertex 8.000000000000004 7.999999999999998 2.1600000000000006
  endloop
 endfacet
 facet normal 0.0 0.0 1.0
  outer loop
   vertex 6.0000000000000036 9.999999999999998 2.1600000000000006
   vertex 5.748703395583711 0.001 2.1600000000000006
   vertex 8.000000000000004 7.999999999999998 2.1600000000000006
  endloop
 endfacet
 facet normal -0.7071067811865474 -0.7071067811865477 0.0
  outer loop
   vertex 8.000000000000002 12.0 1.2600000000000002
   vertex 8.000000000000002 12.0 2.1600000000000006
   vertex 6.000000000000001 14.0 1.2600000000000002
  endloop
 endfacet
 facet normal -0.7071067811865474 -0.7071067811865477 0.0
  outer loop
   vertex 6.000000000000001 14.0 1.2600000000000002
   vertex 8.000000000000002 12.0 2.1600000000000006
   vertex 6.000000000000001 14.0 2.1600000000000006
  endloop
 endfacet
 facet normal 0.7071067811865474 -0.7071067811865477 0.0
  outer loop
   vertex 6.000000000000001 14.0 1.2600000000000002
   vertex 6.000000000000001 14.0 2.1600000000000006
   vertex 4.0 12.0 1.2600000000000002
  endloop
 endfacet
 facet normal 0.7071067811865474 -0.7071067811865477 0.0
  outer loop
   vertex 4.0 12.0 1.2600000000000002
   vertex 6.000000000000001 14.0 2.1600000000000006
   vertex 4.0 12.0 2.1600000000000006
  endloop
 endfacet
 facet normal 0.7071067811865474 0.7071067811865477 -0.0
  outer loop
   vertex 4.0 12.0 1.2600000000000002
   vertex 4.0 12.0 2.1600000000000006
   vertex 6.000000000000001 10.0 1.2600000000000002
  endloop
 endfacet
 facet normal 0.7071067811865474 0.7071067811865477 -0.0
  outer loop
   vertex 6.000000000000001 10.0 1.2600000000000002
   vertex 4.0 12.0 2.1600000000000006
   vertex 6.000000000000001 10.0 2.1600000000000006
  endloop
 endfacet
 facet normal -0.7071067811865474 0.7071067811865477 0.0
  outer loop
   vertex 6.000000000000001 10.0 1.2600000000000002
   vertex 6.000000000000001 10.0 2.1600000000000006
   vertex 8.000000000000002 12.0 1.2600000000000002
  endloop
 endfacet
 facet normal -0.7071067811865474 0.7071067811865477 0.0
  outer loop
   vertex 8.000000000000002 12.0 1.2600000000000002
   vertex 6.000000000000001 10.0 2.1600000000000006
   vertex 8.000000000000002 12.0 2.1600000000000006
  endloop
 endfacet
 facet normal -0.7071067811865476 -0.7071067811865476 0.0
  outer loop
   vertex 10.000000000000004 9.999999999999998 1.2600000000000002
   vertex 10.000000000000004 9.999999999999998 2.1600000000000006
   vertex 8.000000000000004 11.999999999999998 1.2600000000000002
  endloop
 endfacet
 facet normal -0.7071067811865476 -0.7071067811865476 0.0
  outer loop
   vertex 8.000000000000004 11.999999999999998 1.2600000000000002
   vertex 10.000000000000004 9.999999999999998 2.1600000000000006
   vertex 8.000000000000004 11.999999999999998 2.1600000000000006
  endloop
 endfacet
 facet normal 0.7071067811865476 -0.7071067811865476 0.0
  outer loop
   vertex 8.000000000000004 11.999999999999998 1.2600000000000002
   vertex 8.000000000000004 11.999999999999998 2.1600000000000006
   vertex 6.0000000000000036 9.999999999999998 1.2600000000000002
  endloop
 endfacet
 facet normal 0.7071067811865476 -0.7071067811865476 0.0
  outer loop
   vertex 6.0000000000000036 9.999999999999998 1.2600000000000002
   vertex 8.000000000000004 11.999999999999998 2.1600000000000006
   vertex 6.0000000000000036 9.999999999999998 2.1600000000000006
  endloop
 endfacet
 facet normal 0.7071067811865476 0.7071067811865476 -0.0
  outer loop
   vertex 6.0000000000000036 9.999999999999998 1.2600000000000002
   vertex 6.0000000000000036 9.999999999999998 2.1600000000000006
   vertex 8.000000000000004 7.999999999999998 1.2600000000000002
  endloop
 endfacet
 facet normal 0.7071067811865476 0.7071067811865476 -0.0
  outer loop
   vertex 8.000000000000004 7.999999999999998 1.2600000000000002
   vertex 6.0000000000000036 9.999999999999998 2.1600000000000006
   vertex 8.000000000000004 7.999999999999998 2.1600000000000006
  endloop
 endfacet
 facet normal -0.7071067811865476 0.7071067811865476 0.0
  outer loop
   vertex 8.000000000000004 7.999999999999998 1.2600000000000002
   vertex 8.000000000000004 7.999999999999998 2.1600000000000006
   vertex 10.000000000000004 9.999999999999998 1.2600000000000002
  endloop
 endfacet
 facet normal -0.7071067811865476 0.7071067811865476 0.0
  outer loop
   vertex 10.000000000000004 9.999999999999998 1.2600000000000002
   vertex 8.000000000000004 7.999999999999998 2.1600000000000006
   vertex 10.000000000000004 9.999999999999998 2.1600000000000006
  endloop
 endfacet
 facet normal 0.0 0.0 -1.0
  outer loop
   vertex 22.761245547474996 23.0 0
   vertex -0.0013889805726013114 23.0 0
   vertex -0.014925742620432364 39.999 0
  endloop
 endfacet
 facet normal 0.0 0.0 -1.0
  outer loop
   vertex 22.761245547474996 23.0 0
   vertex -0.014925742620432364 39.999 0
   vertex 5.748703395583709 39.999 0
  endloop
 endfacet
 facet normal 0.0 -0.2927142720941117 -0.9561999555074318
  outer loop
   vertex -0.0013889805726013114 23.0 0
   vertex 22.761245547474996 23.0 0
   vertex 29.86303202245809 20.06 0.9000000000000002
  endloop
 endfacet
 facet normal 0.0 -0.2927142720941117 -0.9561999555074318
  outer loop
   vertex 0.0009522206992748757 20.06 0.9000000000000002
   vertex -0.0013889805726013114 23.0 0
   vertex 29.86303202245809 20.06 0.9000000000000002
  endloop
 endfacet
 facet normal -0.9999996829318346 -0.0007963267107332633 -3.6283921034857556e-18
  outer loop
   vertex -0.014925742620432364 39.999 0
   vertex -0.0013889805726013114 23.0 0
   vertex 0.0009522206992748757 20.06 0.9000000000000002
  endloop
 endfacet
 facet normal -0.9999996829318347 -0.0007963267107332633 -0.0
  outer loop
   vertex -0.014925742620432364 39.999 0.9000000000000002
   vertex -0.014925742620432364 39.999 0
   vertex 0.0009522206992748757 20.06 0.9000000000000002
  endloop
 endfacet
 facet normal 0.0 1.0 0.0
  outer loop
   vertex 5.748703395583709 39.999 0
   vertex -0.014925742620432364 39.999 0
   vertex -0.014925742620432364 39.999 0.9000000000000002
  endloop
 endfacet
 facet normal 0.0 1.0 0.0
  outer loop
   vertex 9.908147737114223 39.999 0.9000000000000002
   vertex 5.748703395583709 39.999 0
   vertex -0.014925742620432364 39.999 0.9000000000000002
  endloop
 endfacet
 facet normal 0.2068978183850461 0.2070626422971907 -0.9561999555074315
  outer loop
   vertex 22.761245547474996 23.0 0
   vertex 5.748703395583709 39.999 0
   vertex 9.908147737114223 39.999 0.9000000000000002
  endloop
 endfacet
 facet normal 0.20689781838504628 0.20706264229719085 -0.9561999555074315
  outer loop
   vertex 29.86303202245809 20.06 0.9000000000000002
   vertex 22.761245547474996 23.0 0
   vertex 9.908147737114223 39.999 0.9000000000000002
  endloop
 endfacet
 facet normal 0.0 0.0 1.0
  outer loop
   vertex 29.86303202245809 20.06 0.9000000000000002
   vertex -0.014925742620432364 39.999 0.9000000000000002
   vertex 0.0009522206992748757 20.06 0.9000000000000002
  endloop
 endfacet
 facet normal 0.0 0.0 1.0
  outer loop
   vertex 29.86303202245809 20.06 0.9000000000000002
   vertex 9.908147737114223 39.999 0.9000000000000002
   vertex -0.014925742620432364 39.999 0.9000000000000002
  endloop
 endfacet
 facet normal 0.0 0.0 -1.0
  outer loop
   vertex 29.86303202245809 20.06 1.2600000000000002
   vertex 0.0009522206992748757 20.06 1.2600000000000002
   vertex -0.014925742620432364 39.999 1.2600000000000002
  endloop
 endfacet
 facet normal 0.0 0.0 -1.0
  outer loop
   vertex 29.86303202245809 20.06 1.2600000000000002
   vertex -0.014925742620432364 39.999 1.2600000000000002
   vertex 9.908147737114223 39.999 1.2600000000000002
  endloop
 endfacet
 facet normal 0.0 -0.29271427209411177 0.9561999555074318
  outer loop
   vertex 0.0009522206992748757 20.06 1.2600000000000002
   vertex 29.86303202245809 20.06 1.2600000000000002
   vertex 22.761245547474996 23.0 2.1600000000000006
  endloop
 endfacet
 facet normal 0.0 -0.29271427209411177 0.9561999555074318
  outer loop
   vertex -0.0013889805726013114 23.0 2.1600000000000006
   vertex 0.0009522206992748757 20.06 1.2600000000000002
   vertex 22.761245547474996 23.0 2.1600000000000006
  endloop
 endfacet
 facet normal -0.9999996829318345 -0.0007963267107332631 3.093386697785964e-18
  outer loop
   vertex -0.014925742620432364 39.999 1.2600000000000002
   vertex 0.0009522206992748757 20.06 1.2600000000000002
   vertex -0.0013889805726013114 23.0 2.1600000000000006
  endloop
 endfacet
 facet normal -0.9999996829318346 -0.0007963267107332633 -0.0
  outer loop
   vertex -0.014925742620432364 39.999 2.1600000000000006
   vertex -0.014925742620432364 39.999 1.2600000000000002
   vertex -0.0013889805726013114 23.0 2.1600000000000006
  endloop
 endfacet
 facet normal 0.0 1.0 0.0
  outer loop
   vertex 9.908147737114223 39.999 1.2600000000000002
   vertex -0.014925742620432364 39.999 1.2600000000000002
   vertex -0.014925742620432364 39.999 2.1600000000000006
  endloop
 endfacet
 facet normal 0.0 1.0 0.0
  outer loop
   vertex 5.748703395583709 39.999 2.1600000000000006
   vertex 9.908147737114223 39.999 1.2600000000000002
   vertex -0.014925742620432364 39.999 2.1600000000000006
  endloop
 endfacet
 facet normal 0.20689781838504614 0.2070626422971907 0.9561999555074316
  outer loop
   vertex 29.86303202245809 20.06 1.2600000000000002
   vertex 9.908147737114223 39.999 1.2600000000000002
   vertex 5.748703395583709 39.999 2.1600000000000006
  endloop
 endfacet
 facet normal 0.20689781838504628 0.2070626422971909 0.9561999555074314
  outer loop
   vertex 22.761245547474996 23.0 2.1600000000000006
   vertex 29.86303202245809 20.06 1.2600000000000002
   vertex 5.748703395583709 39.999 2.1600000000000006
  endloop
 endfacet
 facet normal 0.0 0.0 1.0
  outer loop
   vertex 22.761245547474996 23.0 2.1600000000000006
   vertex -0.014925742620432364 39.999 2.1600000000000006
   vertex -0.0013889805726013114 23.0 2.1600000000000006
  endloop
 endfacet
 facet normal 0.0 0.0 1.0
  outer loop
   vertex 22.761245547474996 23.0 2.1600000000000006
   vertex 5.748703395583709 39.999 2.1600000000000006
   vertex -0.014925742620432364 39.999 2.1600000000000006
  endloop
 endfacet
 facet normal 0.0 0.0 -1.0
  outer loop
   vertex 31.24990746896585 17.0 0
   vertex 39.99661101879327 17.0 0
   vertex 34.46153846153846 6.6923076923076925 0
  endloop
 endfacet
 facet normal 0.0 0.0 -1.0
  outer loop
   vertex 39.99661101879327 17.0 0
   vertex 39.98307425674543 0.001 0
   vertex 34.46153846153846 6.6923076923076925 0
  endloop
 endfacet
 facet normal 0.0 0.0 -1.0
  outer loop
   vertex 39.98307425674543 0.001 0
   vertex 14.237365317074566 0.001 0
   vertex 32.46153846153846 4.692307692307692 0
  endloop
 endfacet
 facet normal 0.0 0.0 -1.0
  outer loop
   vertex 14.237365317074566 0.001 0
   vertex 31.24990746896585 17.0 0
   vertex 32.46153846153846 8.692307692307693 0
  endloop
 endfacet
 facet normal 0.0 0.0 -1.0
  outer loop
   vertex 34.46153846153846 6.6923076923076925 0
   vertex 32.46153846153846 8.692307692307693 0
   vertex 31.24990746896585 17.0 0
  endloop
 endfacet
 facet normal 0.0 -0.0 -1.0
  outer loop
   vertex 34.46153846153846 6.6923076923076925 0
   vertex 39.98307425674543 0.001 0
   vertex 32.46153846153846 4.692307692307692 0
  endloop
 endfacet
 facet normal 0.0 0.0 -1.0
  outer loop
   vertex 32.46153846153846 8.692307692307693 0
   vertex 30.46153846153846 6.6923076923076925 0
   vertex 14.237365317074566 0.001 0
  endloop
 endfacet
 facet normal 0.0 -0.0 -1.0
  outer loop
   vertex 30.46153846153846 6.6923076923076925 0
   vertex 32.46153846153846 4.692307692307692 0
   vertex 14.237365317074566 0.001 0
  endloop
 endfacet
 facet normal 0.0 0.2927142720941117 -0.9561999555074316
  outer loop
   vertex 39.99661101879327 17.0 0
   vertex 31.24990746896585 17.0 0
   vertex 30.032805260887912 19.94 0.9000000000000002
  endloop
 endfacet
 facet normal 0.0 0.2927142720941117 -0.9561999555074318
  outer loop
   vertex 39.99895222006514 19.94 0.9000000000000002
   vertex 39.99661101879327 17.0 0
   vertex 30.032805260887912 19.94 0.9000000000000002
  endloop
 endfacet
 facet normal 0.9999996829318346 -0.0007963267107334855 1.9448181674683657e-15
  outer loop
   vertex 39.98307425674543 0.001 0
   vertex 39.99661101879327 17.0 0
   vertex 39.99895222006514 19.94 0.9000000000000002
  endloop
 endfacet
 facet normal 0.9999996829318347 -0.000796326710733398 0.0
  outer loop
   vertex 39.98307425674543 0.001 0.9000000000000002
   vertex 39.98307425674543 0.001 0
   vertex 39.99895222006514 19.94 0.9000000000000002
  endloop
 endfacet
 facet normal 0.0 -1.0 0.0
  outer loop
   vertex 14.237365317074566 0.001 0
   vertex 39.98307425674543 0.001 0
   vertex 39.98307425674543 0.001 0.9000000000000002
  endloop
 endfacet
 facet normal 0.0 -1.0 0.0
  outer loop
   vertex 10.077920975544048 0.001 0.9000000000000002
   vertex 14.237365317074566 0.001 0
   vertex 39.98307425674543 0.001 0.9000000000000002
  endloop
 endfacet
 facet normal -0.2068978183850459 0.2070626422971905 -0.9561999555074315
  outer loop
   vertex 31.24990746896585 17.0 0
   vertex 14.237365317074566 0.001 0
   vertex 10.077920975544048 0.001 0.9000000000000002
  endloop
 endfacet
 facet normal -0.206897818385046 0.20706264229719062 -0.9561999555074316
  outer loop
   vertex 30.032805260887912 19.94 0.9000000000000002
   vertex 31.24990746896585 17.0 0
   vertex 10.077920975544048 0.001 0.9000000000000002
  endloop
 endfacet
 facet normal -0.0 0.0 1.0
  outer loop
   vertex 30.032805260887912 19.94 0.9000000000000002
   vertex 34.46153846153846 6.6923076923076925 0.9000000000000002
   vertex 39.99895222006514 19.94 0.9000000000000002
  endloop
 endfacet
 facet normal 0.0 0.0 1.0
  outer loop
   vertex 39.99895222006514 19.94 0.9000000000000002
   vertex 34.46153846153846 6.6923076923076925 0.9000000000000002
   vertex 39.98307425674543 0.001 0.9000000000000002
  endloop
 endfacet
 facet normal 0.0 0.0 1.0
  outer loop
   vertex 39.98307425674543 0.001 0.9000000000000002
   vertex 32.46153846153846 4.692307692307692 0.9000000000000002
   vertex 10.077920975544048 0.001 0.9000000000000002
  endloop
 endfacet
 facet normal 0.0 0.0 1.0
  outer loop
   vertex 10.077920975544048 0.001 0.9000000000000002
   vertex 32.46153846153846 8.692307692307693 0.9000000000000002
   vertex 30.032805260887912 19.94 0.9000000000000002
  endloop
 endfacet
 facet normal 0.0 0.0 1.0
  outer loop
   vertex 34.46153846153846 6.6923076923076925 0.9000000000000002
   vertex 30.032805260887912 19.94 0.9000000000000002
   vertex 32.46153846153846 8.692307692307693 0.9000000000000002
  endloop
 endfacet
 facet normal 0.0 0.0 1.0
  outer loop
   vertex 34.46153846153846 6.6923076923076925 0.9000000000000002
   vertex 32.46153846153846 4.692307692307692 0.9000000000000002
   vertex 39.98307425674543 0.001 0.9000000000000002
  endloop
 endfacet
 facet normal 0.0 0.0 1.0
  outer loop
   vertex 32.46153846153846 8.692307692307693 0.9000000000000002
   vertex 10.077920975544048 0.001 0.9000000000000002
   vertex 30.46153846153846 6.6923076923076925 0.9000000000000002
  endloop
 endfacet
 facet normal 0.0 0.0 1.0
  outer loop
   vertex 30.46153846153846 6.6923076923076925 0.9000000000000002
   vertex 10.077920975544048 0.001 0.9000000000000002
   vertex 32.46153846153846 4.692307692307692 0.9000000000000002
  endloop
 endfacet
 facet normal -0.7071067811865477 -0.7071067811865474 0.0
  outer loop
   vertex 34.46153846153846 6.6923076923076925 0
   vertex 34.46153846153846 6.6923076923076925 0.9000000000000002
   vertex 32.46153846153846 8.692307692307693 0
  endloop
 endfacet
 facet normal -0.7071067811865477 -0.7071067811865474 0.0
  outer loop
   vertex 32.46153846153846 8.692307692307693 0
   vertex 34.46153846153846 6.6923076923076925 0.9000000000000002
   vertex 32.46153846153846 8.692307692307693 0.9000000000000002
  endloop
 endfacet
 facet normal 0.7071067811865477 -0.7071067811865474 0.0
  outer loop
   vertex 32.46153846153846 8.692307692307693 0
   vertex 32.46153846153846 8.692307692307693 0.9000000000000002
   vertex 30.46153846153846 6.6923076923076925 0
  endloop
 endfacet
 facet normal 0.7071067811865477 -0.7071067811865474 0.0
  outer loop
   vertex 30.46153846153846 6.6923076923076925 0
   vertex 32.46153846153846 8.692307692307693 0.9000000000000002
   vertex 30.46153846153846 6.6923076923076925 0.9000000000000002
  endloop
 endfacet
 facet normal 0.7071067811865477 0.7071067811865474 -0.0
  outer loop
   vertex 30.46153846153846 6.6923076923076925 0
   vertex 30.46153846153846 6.6923076923076925 0.9000000000000002
   vertex 32.46153846153846 4.692307692307692 0
  endloop
 endfacet
 facet normal 0.7071067811865477 0.7071067811865474 -0.0
  outer loop
   vertex 32.46153846153846 4.692307692307692 0
   vertex 30.46153846153846 6.6923076923076925 0.9000000000000002
   vertex 32.46153846153846 4.692307692307692 0.9000000000000002
  endloop
 endfacet
 facet normal -0.7071067811865477 0.7071067811865474 0.0
  outer loop
   vertex 32.46153846153846 4.692307692307692 0
   vertex 32.46153846153846 4.692307692307692 0.9000000000000002
   vertex 34.46153846153846 6.6923076923076925 0
  endloop
 endfacet
 facet normal -0.7071067811865477 0.7071067811865474 0.0
  outer loop
   vertex 34.46153846153846 6.6923076923076925 0
   vertex 32.46153846153846 4.692307692307692 0.9000000000000002
   vertex 34.46153846153846 6.6923076923076925 0.9000000000000002
  endloop
 endfacet
 facet normal 0.0 0.0 -1.0
  outer loop
   vertex 30.032805260887912 19.94 1.2600000000000002
   vertex 39.99895222006514 19.94 1.2600000000000002
   vertex 34.46153846153846 6.6923076923076925 1.2600000000000002
  endloop
 endfacet
 facet normal 0.0 0.0 -1.0
  outer loop
   vertex 39.99895222006514 19.94 1.2600000000000002
   vertex 39.98307425674543 0.001 1.2600000000000002
   vertex 34.46153846153846 6.6923076923076925 1.2600000000000002
  endloop
 endfacet
 facet normal 0.0 0.0 -1.0
  outer loop
   vertex 39.98307425674543 0.001 1.2600000000000002
   vertex 10.077920975544048 0.001 1.2600000000000002
   vertex 32.46153846153846 4.692307692307692 1.2600000000000002
  endloop
 endfacet
 facet normal 0.0 0.0 -1.0
  outer loop
   vertex 10.077920975544048 0.001 1.2600000000000002
   vertex 30.032805260887912 19.94 1.2600000000000002
   vertex 32.46153846153846 8.692307692307693 1.2600000000000002
  endloop
 endfacet
 facet normal 0.0 0.0 -1.0
  outer loop
   vertex 34.46153846153846 6.6923076923076925 1.2600000000000002
   vertex 32.46153846153846 8.692307692307693 1.2600000000000002
   vertex 30.032805260887912 19.94 1.2600000000000002
  endloop
 endfacet
 facet normal 0.0 -0.0 -1.0
  outer loop
   vertex 34.46153846153846 6.6923076923076925 1.2600000000000002
   vertex 39.98307425674543 0.001 1.2600000000000002
   vertex 32.46153846153846 4.692307692307692 1.2600000000000002
  endloop
 endfacet
 facet normal 0.0 0.0 -1.0
  outer loop
   vertex 32.46153846153846 8.692307692307693 1.2600000000000002
   vertex 30.46153846153846 6.6923076923076925 1.2600000000000002
   vertex 10.077920975544048 0.001 1.2600000000000002
  endloop
 endfacet
 facet normal 0.0 -0.0 -1.0
  outer loop
   vertex 30.46153846153846 6.6923076923076925 1.2600000000000002
   vertex 32.46153846153846 4.692307692307692 1.2600000000000002
   vertex 10.077920975544048 0.001 1.2600000000000002
  endloop
 endfacet
 facet normal 0.0 0.29271427209411177 0.9561999555074318
  outer loop
   vertex 39.99895222006514 19.94 1.2600000000000002
   vertex 30.032805260887912 19.94 1.2600000000000002
   vertex 31.24990746896585 17.0 2.1600000000000006
  endloop
 endfacet
 facet normal 0.0 0.2927142720941117 0.9561999555074316
  outer loop
   vertex 39.99661101879327 17.0 2.1600000000000006
   vertex 39.99895222006514 19.94 1.2600000000000002
   vertex 31.24990746896585 17.0 2.1600000000000006
  endloop
 endfacet
 facet normal 0.9999996829318347 -0.000796326710733398 -1.6580552700132775e-15
  outer loop
   vertex 39.98307425674543 0.001 1.2600000000000002
   vertex 39.99895222006514 19.94 1.2600000000000002
   vertex 39.99661101879327 17.0 2.1600000000000006
  endloop
 endfacet
 facet normal 0.9999996829318346 -0.0007963267107334856 0.0
  outer loop
   vertex 39.98307425674543 0.001 2.1600000000000006
   vertex 39.98307425674543 0.001 1.2600000000000002
   vertex 39.99661101879327 17.0 2.1600000000000006
  endloop
 endfacet
 facet normal 0.0 -1.0 0.0
  outer loop
   vertex 10.077920975544048 0.001 1.2600000000000002
   vertex 39.98307425674543 0.001 1.2600000000000002
   vertex 39.98307425674543 0.001 2.1600000000000006
  endloop
 endfacet
 facet normal 0.0 -1.0 -0.0
  outer loop
   vertex 14.237365317074566 0.001 2.1600000000000006
   vertex 10.077920975544048 0.001 1.2600000000000002
   vertex 39.98307425674543 0.001 2.1600000000000006
  endloop
 endfacet
 facet normal -0.20689781838504598 0.2070626422971906 0.9561999555074316
  outer loop
   vertex 30.032805260887912 19.94 1.2600000000000002
   vertex 10.077920975544048 0.001 1.2600000000000002
   vertex 14.237365317074566 0.001 2.1600000000000006
  endloop
 endfacet
 facet normal -0.20689781838504603 0.20706264229719065 0.9561999555074318
  outer loop
   vertex 31.24990746896585 17.0 2.1600000000000006
   vertex 30.032805260887912 19.94 1.2600000000000002
   vertex 14.237365317074566 0.001 2.1600000000000006
  endloop
 endfacet
 facet normal -0.0 0.0 1.0
  outer loop
   vertex 31.24990746896585 17.0 2.1600000000000006
   vertex 34.46153846153846 6.6923076923076925 2.1600000000000006
   vertex 39.99661101879327 17.0 2.1600000000000006
  endloop
 endfacet
 facet normal 0.0 0.0 1.0
  outer loop
   vertex 39.99661101879327 17.0 2.1600000000000006
   vertex 34.46153846153846 6.6923076923076925 2.1600000000000006
   vertex 39.98307425674543 0.001 2.1600000000000006
  endloop
 endfacet
 facet normal 0.0 0.0 1.0
  outer loop
   vertex 39.98307425674543 0.001 2.1600000000000006
   vertex 32.46153846153846 4.692307692307692 2.1600000000000006
   vertex 14.237365317074566 0.001 2.1600000000000006
  endloop
 endfacet
 facet normal 0.0 0.0 1.0
  outer loop
   vertex 14.237365317074566 0.001 2.1600000000000006
   vertex 32.46153846153846 8.692307692307693 2.1600000000000006
   vertex 31.24990746896585 17.0 2.1600000000000006
  endloop
 endfacet
 facet normal 0.0 0.0 1.0
  outer loop
   vertex 34.46153846153846 6.6923076923076925 2.1600000000000006
   vertex 31.24990746896585 17.0 2.1600000000000006
   vertex 32.46153846153846 8.692307692307693 2.1600000000000006
  endloop
 endfacet
 facet normal 0.0 0.0 1.0
  outer loop
   vertex 34.46153846153846 6.6923076923076925 2.1600000000000006
   vertex 32.46153846153846 4.692307692307692 2.1600000000000006
   vertex 39.98307425674543 0.001 2.1600000000000006
  endloop
 endfacet
 facet normal 0.0 0.0 1.0
  outer loop
   vertex 32.46153846153846 8.692307692307693 2.1600000000000006
   vertex 14.237365317074566 0.001 2.1600000000000006
   vertex 30.46153846153846 6.6923076923076925 2.1600000000000006
  endloop
 endfacet
 facet normal 0.0 0.0 1.0
  outer loop
   vertex 30.46153846153846 6.6923076923076925 2.1600000000000006
   vertex 14.237365317074566 0.001 2.1600000000000006
   vertex 32.46153846153846 4.692307692307692 2.1600000000000006
  endloop
 endfacet
 facet normal -0.7071067811865477 -0.7071067811865474 0.0
  outer loop
   vertex 34.46153846153846 6.6923076923076925 1.2600000000000002
   vertex 34.46153846153846 6.6923076923076925 2.1600000000000006
   vertex 32.46153846153846 8.692307692307693 1.2600000000000002
  endloop
 endfacet
 facet normal -0.7071067811865477 -0.7071067811865474 0.0
  outer loop
   vertex 32.46153846153846 8.692307692307693 1.2600000000000002
   vertex 34.46153846153846 6.6923076923076925 2.1600000000000006
   vertex 32.46153846153846 8.692307692307693 2.1600000000000006
  endloop
 endfacet
 facet normal 0.7071067811865477 -0.7071067811865474 0.0
  outer loop
   vertex 32.46153846153846 8.692307692307693 1.2600000000000002
   vertex 32.46153846153846 8.692307692307693 2.1600000000000006
   vertex 30.46153846153846 6.6923076923076925 1.2600000000000002
  endloop
 endfacet
 facet normal 0.7071067811865477 -0.7071067811865474 0.0
  outer loop
   vertex 30.46153846153846 6.6923076923076925 1.2600000000000002
   vertex 32.46153846153846 8.692307692307693 2.1600000000000006
   vertex 30.46153846153846 6.6923076923076925 2.1600000000000006
  endloop
 endfacet
 facet normal 0.7071067811865477 0.7071067811865474 -0.0
  outer loop
   vertex 30.46153846153846 6.6923076923076925 1.2600000000000002
   vertex 30.46153846153846 6.6923076923076925 2.1600000000000006
   vertex 32.46153846153846 4.692307692307692 1.2600000000000002
  endloop
 endfacet
 facet normal 0.7071067811865477 0.7071067811865474 -0.0
  outer loop
   vertex 32.46153846153846 4.692307692307692 1.2600000000000002
   vertex 30.46153846153846 6.6923076923076925 2.1600000000000006
   vertex 32.46153846153846 4.692307692307692 2.1600000000000006
  endloop
 endfacet
 facet normal -0.7071067811865477 0.7071067811865474 0.0
  outer loop
   vertex 32.46153846153846 4.692307692307692 1.2600000000000002
   vertex 32.46153846153846 4.692307692307692 2.1600000000000006
   vertex 34.46153846153846 6.6923076923076925 1.2600000000000002
  endloop
 endfacet
 facet normal -0.7071067811865477 0.7071067811865474 0.0
  outer loop
   vertex 34.46153846153846 6.6923076923076925 1.2600000000000002
   vertex 32.46153846153846 4.692307692307692 2.1600000000000006
   vertex 34.46153846153846 6.6923076923076925 2.1600000000000006
  endloop
 endfacet
 facet normal 0.0 0.0 -1.0
  outer loop
   vertex 39.99661101879326 23.0 0
   vertex 31.249907468965848 23.0 0
   vertex 14.23736531707456 39.999 0
  endloop
 endfacet
 facet normal 0.0 0.0 -1.0
  outer loop
   vertex 39.99661101879326 23.0 0
   vertex 14.23736531707456 39.999 0
   vertex 39.983074256745425 39.999 0
  endloop
 endfacet
 facet normal 0.0 -0.29271427209411166 -0.9561999555074316
  outer loop
   vertex 31.249907468965848 23.0 0
   vertex 39.99661101879326 23.0 0
   vertex 39.998952220065135 20.06 0.9000000000000002
  endloop
 endfacet
 facet normal 0.0 -0.2927142720941117 -0.9561999555074316
  outer loop
   vertex 30.032805260887912 20.06 0.9000000000000002
   vertex 31.249907468965848 23.0 0
   vertex 39.998952220065135 20.06 0.9000000000000002
  endloop
 endfacet
 facet normal -0.20689781838504595 -0.20706264229719054 -0.9561999555074315
  outer loop
   vertex 14.23736531707456 39.999 0
   vertex 31.249907468965848 23.0 0
   vertex 30.032805260887912 20.06 0.9000000000000002
  endloop
 endfacet
 facet normal -0.2068978183850462 -0.2070626422971908 -0.9561999555074316
  outer loop
   vertex 10.077920975544046 39.999 0.9000000000000002
   vertex 14.23736531707456 39.999 0
   vertex 30.032805260887912 20.06 0.9000000000000002
  endloop
 endfacet
 facet normal 0.0 1.0 0.0
  outer loop
   vertex 39.983074256745425 39.999 0
   vertex 14.23736531707456 39.999 0
   vertex 10.077920975544046 39.999 0.9000000000000002
  endloop
 endfacet
 facet normal 0.0 1.0 0.0
  outer loop
   vertex 39.983074256745425 39.999 0.9000000000000002
   vertex 39.983074256745425 39.999 0
   vertex 10.077920975544046 39.999 0.9000000000000002
  endloop
 endfacet
 facet normal 0.9999996829318346 0.0007963267107334854 0.0
  outer loop
   vertex 39.99661101879326 23.0 0
   vertex 39.983074256745425 39.999 0
   vertex 39.983074256745425 39.999 0.9000000000000002
  endloop
 endfacet
 facet normal 0.9999996829318347 0.0007963267107333979 1.6549618833154915e-15
  outer loop
   vertex 39.998952220065135 20.06 0.9000000000000002
   vertex 39.99661101879326 23.0 0
   vertex 39.983074256745425 39.999 0.9000000000000002
  endloop
 endfacet
 facet normal 0.0 0.0 1.0
  outer loop
   vertex 39.998952220065135 20.06 0.9000000000000002
   vertex 10.077920975544046 39.999 0.9000000000000002
   vertex 30.032805260887912 20.06 0.9000000000000002
  endloop
 endfacet
 facet normal 0.0 0.0 1.0
  outer loop
   vertex 39.998952220065135 20.06 0.9000000000000002
   vertex 39.983074256745425 39.999 0.9000000000000002
   vertex 10.077920975544046 39.999 0.9000000000000002
  endloop
 endfacet
 facet normal 0.0 0.0 -1.0
  outer loop
   vertex 39.998952220065135 20.06 1.2600000000000002
   vertex 30.032805260887912 20.06 1.2600000000000002
   vertex 10.077920975544046 39.999 1.2600000000000002
  endloop
 endfacet
 facet normal 0.0 0.0 -1.0
  outer loop
   vertex 39.998952220065135 20.06 1.2600000000000002
   vertex 10.077920975544046 39.999 1.2600000000000002
   vertex 39.983074256745425 39.999 1.2600000000000002
  endloop
 endfacet
 facet normal 0.0 -0.2927142720941117 0.9561999555074316
  outer loop
   vertex 30.032805260887912 20.06 1.2600000000000002
   vertex 39.998952220065135 20.06 1.2600000000000002
   vertex 39.99661101879326 23.0 2.1600000000000006
  endloop
 endfacet
 facet normal 0.0 -0.2927142720941117 0.9561999555074316
  outer loop
   vertex 31.249907468965848 23.0 2.1600000000000006
   vertex 30.032805260887912 20.06 1.2600000000000002
   vertex 39.99661101879326 23.0 2.1600000000000006
  endloop
 endfacet
 facet normal -0.20689781838504626 -0.20706264229719082 0.9561999555074314
  outer loop
   vertex 10.077920975544046 39.999 1.2600000000000002
   vertex 30.032805260887912 20.06 1.2600000000000002
   vertex 31.249907468965848 23.0 2.1600000000000006
  endloop
 endfacet
 facet normal -0.20689781838504626 -0.20706264229719085 0.9561999555074315
  outer loop
   vertex 14.23736531707456 39.999 2.1600000000000006
   vertex 10.077920975544046 39.999 1.2600000000000002
   vertex 31.249907468965848 23.0 2.1600000000000006
  endloop
 endfacet
 facet normal 0.0 1.0 0.0
  outer loop
   vertex 39.983074256745425 39.999 1.2600000000000002
   vertex 10.077920975544046 39.999 1.2600000000000002
   vertex 14.23736531707456 39.999 2.1600000000000006
  endloop
 endfacet
 facet normal 0.0 1.0 0.0
  outer loop
   vertex 39.983074256745425 39.999 2.1600000000000006
   vertex 39.983074256745425 39.999 1.2600000000000002
   vertex 14.23736531707456 39.999 2.1600000000000006
  endloop
 endfacet
 facet normal 0.9999996829318345 0.0007963267107333977 0.0
  outer loop
   vertex 39.998952220065135 20.06 1.2600000000000002
   vertex 39.983074256745425 39.999 1.2600000000000002
   vertex 39.983074256745425 39.999 2.1600000000000006
  endloop
 endfacet
 facet normal 0.9999996829318346 0.0007963267107334854 -1.9411897753648793e-15
  outer loop
   vertex 39.99661101879326 23.0 2.1600000000000006
   vertex 39.998952220065135 20.06 1.2600000000000002
   vertex 39.983074256745425 39.999 2.1600000000000006
  endloop
 endfacet
 facet normal 0.0 0.0 1.0
  outer loop
   vertex 39.99661101879326 23.0 2.1600000000000006
   vertex 14.23736531707456 39.999 2.1600000000000006
   vertex 31.249907468965848 23.0 2.1600000000000006
  endloop
 endfacet
 facet normal 0.0 0.0 1.0
  outer loop
   vertex 39.99661101879326 23.0 2.1600000000000006
   vertex 39.983074256745425 39.999 2.1600000000000006
   vertex 14.23736531707456 39.999 2.1600000000000006
  endloop
 endfacet
endsolid
