solid PyGamic generated __All_Units__ SLA File
 facet normal 0.0 -0.0 -1.0
  outer loop
   vertex 0.811000000000003 23.800846318194303 0.36
   vertex 9.61184627669333 15.000000018490727 0.36
   vertex 0.8110000000000008 6.199153692339062 0.36
  endloop
 endfacet
 facet normal 0.1518849505780238 0.15188495018091305 -0.9766585502090549
  outer loop
   vertex 9.61184627669333 15.000000018490727 0.36
   vertex 0.811000000000003 23.800846318194303 0.36
   vertex 0.8110000000000035 27.916207790079916 1.0000000000000002
  endloop
 endfacet
 facet normal 0.15188495057802365 0.15188495018091294 -0.9766585502090549
  outer loop
   vertex 13.727207734727282 15.000000021582576 1.0000000000000002
   vertex 9.61184627669333 15.000000018490727 0.36
   vertex 0.8110000000000035 27.916207790079916 1.0000000000000002
  endloop
 endfacet
 facet normal 0.15188495080624434 -0.15188494995269267 -0.9766585502090549
  outer loop
   vertex 0.8110000000000008 6.199153692339062 0.36
   vertex 9.61184627669333 15.000000018490727 0.36
   vertex 13.727207734727282 15.000000021582576 1.0000000000000002
  endloop
 endfacet
 facet normal 0.1518849508062442 -0.1518849499526925 -0.9766585502090548
  outer loop
   vertex 0.8110000000000003 2.0837922142697547 1.0000000000000002
   vertex 0.8110000000000008 6.199153692339062 0.36
   vertex 13.727207734727282 15.000000021582576 1.0000000000000002
  endloop
 endfacet
 facet normal -1.0 1.2614957529645108e-16 -5.618814009806285e-17
  outer loop
   vertex 0.811000000000003 23.800846318194303 0.36
   vertex 0.8110000000000008 6.199153692339062 0.36
   vertex 0.8110000000000003 2.0837922142697547 1.0000000000000002
  endloop
 endfacet
 facet normal -1.0 1.2463591575337914e-16 -1.075509935227735e-16
  outer loop
   vertex 0.8110000000000035 27.916207790079916 1.0000000000000002
   vertex 0.811000000000003 23.800846318194303 0.36
   vertex 0.8110000000000003 2.0837922142697547 1.0000000000000002
  endloop
 endfacet
 facet normal 0.0 0.0 1.0
  outer loop
   vertex 0.8110000000000035 27.916207790079916 1.0000000000000002
   vertex 0.8110000000000003 2.0837922142697547 1.0000000000000002
   vertex 13.727207734727282 15.000000021582576 1.0000000000000002
  endloop
 endfacet
 facet normal 0.0 -0.0 -1.0
  outer loop
   vertex 0.8110000000000035 27.916207790079916 1.5400000000000003
   vertex 13.727207734727282 15.000000021582576 1.5400000000000003
   vertex 0.8110000000000003 2.0837922142697547 1.5400000000000003
  endloop
 endfacet
 facet normal 0.15188495057802376 0.15188495018091308 0.9766585502090548
  outer loop
   vertex 13.727207734727282 15.000000021582576 1.5400000000000003
   vertex 0.8110000000000035 27.916207790079916 1.5400000000000003
   vertex 0.811000000000003 23.800846318194303 2.1800000000000006
  endloop
 endfacet
 facet normal 0.1518849505780237 0.15188495018091294 0.9766585502090549
  outer loop
   vertex 9.61184627669333 15.000000018490727 2.1800000000000006
   vertex 13.727207734727282 15.000000021582576 1.5400000000000003
   vertex 0.811000000000003 23.800846318194303 2.1800000000000006
  endloop
 endfacet
 facet normal 0.1518849508062443 -0.15188494995269264 0.9766585502090548
  outer loop
   vertex 0.8110000000000003 2.0837922142697547 1.5400000000000003
   vertex 13.727207734727282 15.000000021582576 1.5400000000000003
   vertex 9.61184627669333 15.000000018490727 2.1800000000000006
  endloop
 endfacet
 facet normal 0.1518849508062442 -0.15188494995269256 0.9766585502090549
  outer loop
   vertex 0.8110000000000008 6.199153692339062 2.1800000000000006
   vertex 0.8110000000000003 2.0837922142697547 1.5400000000000003
   vertex 9.61184627669333 15.000000018490727 2.1800000000000006
  endloop
 endfacet
 facet normal -1.0 1.246359157533791e-16 6.592135287067225e-17
  outer loop
   vertex 0.8110000000000035 27.916207790079916 1.5400000000000003
   vertex 0.8110000000000003 2.0837922142697547 1.5400000000000003
   vertex 0.8110000000000008 6.199153692339062 2.1800000000000006
  endloop
 endfacet
 facet normal -1.0 1.2614957529645106e-16 1.1728420628075814e-16
  outer loop
   vertex 0.811000000000003 23.800846318194303 2.1800000000000006
   vertex 0.8110000000000035 27.916207790079916 1.5400000000000003
   vertex 0.8110000000000008 6.199153692339062 2.1800000000000006
  endloop
 endfacet
 facet normal 0.0 0.0 1.0
  outer loop
   vertex 0.811000000000003 23.800846318194303 2.1800000000000006
   vertex 0.8110000000000008 6.199153692339062 2.1800000000000006
   vertex 9.61184627669333 15.000000018490727 2.1800000000000006
  endloop
 endfacet
 facet normal 0.0 0.0 -1.0
  outer loop
   vertex 36.1991536622587 0.8110000093147715 0.36
   vertex 44.99999995338292 9.611846349897316 0.36
   vertex 53.8008463169757 0.8110000357628557 0.36
  endloop
 endfacet
 facet normal -0.15188495080624398 0.15188494995269244 -0.9766585502090548
  outer loop
   vertex 44.99999995338292 9.611846349897316 0.36
   vertex 36.1991536622587 0.8110000093147715 0.36
   vertex 32.0837922011329 0.8110000031310804 1.0000000000000002
  endloop
 endfacet
 facet normal -0.15188495080624412 0.1518849499526926 -0.9766585502090547
  outer loop
   vertex 44.999999941819325 13.727207816403027 1.0000000000000002
   vertex 44.99999995338292 9.611846349897316 0.36
   vertex 32.0837922011329 0.8110000031310804 1.0000000000000002
  endloop
 endfacet
 facet normal 0.15188494995269233 0.15188495080624376 -0.9766585502090549
  outer loop
   vertex 53.8008463169757 0.8110000357628557 0.36
   vertex 44.99999995338292 9.611846349897316 0.36
   vertex 44.999999941819325 13.727207816403027 1.0000000000000002
  endloop
 endfacet
 facet normal 0.1518849499526926 0.15188495080624395 -0.9766585502090549
  outer loop
   vertex 57.916207788861314 0.8110000419465468 1.0000000000000002
   vertex 53.8008463169757 0.8110000357628557 0.36
   vertex 44.999999941819325 13.727207816403027 1.0000000000000002
  endloop
 endfacet
 facet normal 1.502587552062504e-09 -1.0 3.0440781822325967e-16
  outer loop
   vertex 36.1991536622587 0.8110000093147715 0.36
   vertex 53.8008463169757 0.8110000357628557 0.36
   vertex 57.916207788861314 0.8110000419465468 1.0000000000000002
  endloop
 endfacet
 facet normal 1.5025875634740293e-09 -1.0 -8.281829801268176e-17
  outer loop
   vertex 32.0837922011329 0.8110000031310804 1.0000000000000002
   vertex 36.1991536622587 0.8110000093147715 0.36
   vertex 57.916207788861314 0.8110000419465468 1.0000000000000002
  endloop
 endfacet
 facet normal 0.0 0.0 1.0
  outer loop
   vertex 32.0837922011329 0.8110000031310804 1.0000000000000002
   vertex 57.916207788861314 0.8110000419465468 1.0000000000000002
   vertex 44.999999941819325 13.727207816403027 1.0000000000000002
  endloop
 endfacet
 facet normal 0.0 0.0 -1.0
  outer loop
   vertex 32.0837922011329 0.8110000031310804 1.5400000000000003
   vertex 44.999999941819325 13.727207816403027 1.5400000000000003
   vertex 57.916207788861314 0.8110000419465468 1.5400000000000003
  endloop
 endfacet
 facet normal -0.15188495080624403 0.15188494995269256 0.9766585502090549
  outer loop
   vertex 44.999999941819325 13.727207816403027 1.5400000000000003
   vertex 32.0837922011329 0.8110000031310804 1.5400000000000003
   vertex 36.1991536622587 0.8110000093147715 2.1800000000000006
  endloop
 endfacet
 facet normal -0.15188495080624417 0.15188494995269267 0.9766585502090549
  outer loop
   vertex 44.99999995338292 9.611846349897316 2.1800000000000006
   vertex 44.999999941819325 13.727207816403027 1.5400000000000003
   vertex 36.1991536622587 0.8110000093147715 2.1800000000000006
  endloop
 endfacet
 facet normal 0.15188494995269247 0.1518849508062438 0.9766585502090549
  outer loop
   vertex 57.916207788861314 0.8110000419465468 1.5400000000000003
   vertex 44.999999941819325 13.727207816403027 1.5400000000000003
   vertex 44.99999995338292 9.611846349897316 2.1800000000000006
  endloop
 endfacet
 facet normal 0.1518849499526926 0.151884950806244 0.9766585502090549
  outer loop
   vertex 53.8008463169757 0.8110000357628557 2.1800000000000006
   vertex 57.916207788861314 0.8110000419465468 1.5400000000000003
   vertex 44.99999995338292 9.611846349897316 2.1800000000000006
  endloop
 endfacet
 facet normal 1.5025875634740295e-09 -1.0 -2.3102883374830187e-16
  outer loop
   vertex 32.0837922011329 0.8110000031310804 1.5400000000000003
   vertex 57.916207788861314 0.8110000419465468 1.5400000000000003
   vertex 53.8008463169757 0.8110000357628557 2.1800000000000006
  endloop
 endfacet
 facet normal 1.502587552062504e-09 -1.0 1.561972846487958e-16
  outer loop
   vertex 36.1991536622587 0.8110000093147715 2.1800000000000006
   vertex 32.0837922011329 0.8110000031310804 1.5400000000000003
   vertex 53.8008463169757 0.8110000357628557 2.1800000000000006
  endloop
 endfacet
 facet normal 0.0 0.0 1.0
  outer loop
   vertex 36.1991536622587 0.8110000093147715 2.1800000000000006
   vertex 53.8008463169757 0.8110000357628557 2.1800000000000006
   vertex 44.99999995338292 9.611846349897316 2.1800000000000006
  endloop
 endfacet
 facet normal 0.0 0.0 -1.0
  outer loop
   vertex 59.189 36.19915366347728 0.36
   vertex 50.38815362197633 45.00000001849071 0.36
   vertex 59.189 53.80084634705605 0.36
  endloop
 endfacet
 facet normal -0.15188495018091303 -0.15188495057802368 -0.9766585502090549
  outer loop
   vertex 50.38815362197633 45.00000001849071 0.36
   vertex 59.189 36.19915366347728 0.36
   vertex 59.189 32.08379220235148 1.0000000000000002
  endloop
 endfacet
 facet normal -0.15188495018091333 -0.15188495057802384 -0.9766585502090548
  outer loop
   vertex 46.272792146998874 45.00000002158256 1.0000000000000002
   vertex 50.38815362197633 45.00000001849071 0.36
   vertex 59.189 32.08379220235148 1.0000000000000002
  endloop
 endfacet
 facet normal -0.15188494995269267 0.1518849508062442 -0.9766585502090549
  outer loop
   vertex 59.189 53.80084634705605 0.36
   vertex 50.38815362197633 45.00000001849071 0.36
   vertex 46.272792146998874 45.00000002158256 1.0000000000000002
  endloop
 endfacet
 facet normal -0.15188494995269253 0.151884950806244 -0.9766585502090548
  outer loop
   vertex 59.189 57.91620780199816 1.0000000000000002
   vertex 59.189 53.80084634705605 0.36
   vertex 46.272792146998874 45.00000002158256 1.0000000000000002
  endloop
 endfacet
 facet normal 1.0 0.0 0.0
  outer loop
   vertex 59.189 36.19915366347728 0.36
   vertex 59.189 53.80084634705605 0.36
   vertex 59.189 57.91620780199816 1.0000000000000002
  endloop
 endfacet
 facet normal 1.0 -0.0 0.0
  outer loop
   vertex 59.189 32.08379220235148 1.0000000000000002
   vertex 59.189 36.19915366347728 0.36
   vertex 59.189 57.91620780199816 1.0000000000000002
  endloop
 endfacet
 facet normal 0.0 -0.0 1.0
  outer loop
   vertex 59.189 32.08379220235148 1.0000000000000002
   vertex 59.189 57.91620780199816 1.0000000000000002
   vertex 46.272792146998874 45.00000002158256 1.0000000000000002
  endloop
 endfacet
 facet normal 0.0 0.0 -1.0
  outer loop
   vertex 59.189 32.08379220235148 1.5400000000000003
   vertex 46.272792146998874 45.00000002158256 1.5400000000000003
   vertex 59.189 57.91620780199816 1.5400000000000003
  endloop
 endfacet
 facet normal -0.1518849501809131 -0.15188495057802365 0.9766585502090548
  outer loop
   vertex 46.272792146998874 45.00000002158256 1.5400000000000003
   vertex 59.189 32.08379220235148 1.5400000000000003
   vertex 59.189 36.19915366347728 2.1800000000000006
  endloop
 endfacet
 facet normal -0.15188495018091328 -0.15188495057802395 0.9766585502090547
  outer loop
   vertex 50.38815362197633 45.00000001849071 2.1800000000000006
   vertex 46.272792146998874 45.00000002158256 1.5400000000000003
   vertex 59.189 36.19915366347728 2.1800000000000006
  endloop
 endfacet
 facet normal -0.1518849499526927 0.15188495080624417 0.9766585502090548
  outer loop
   vertex 59.189 57.91620780199816 1.5400000000000003
   vertex 46.272792146998874 45.00000002158256 1.5400000000000003
   vertex 50.38815362197633 45.00000001849071 2.1800000000000006
  endloop
 endfacet
 facet normal -0.15188494995269253 0.15188495080624406 0.9766585502090549
  outer loop
   vertex 59.189 53.80084634705605 2.1800000000000006
   vertex 59.189 57.91620780199816 1.5400000000000003
   vertex 50.38815362197633 45.00000001849071 2.1800000000000006
  endloop
 endfacet
 facet normal 1.0 0.0 0.0
  outer loop
   vertex 59.189 32.08379220235148 1.5400000000000003
   vertex 59.189 57.91620780199816 1.5400000000000003
   vertex 59.189 53.80084634705605 2.1800000000000006
  endloop
 endfacet
 facet normal 1.0 -0.0 0.0
  outer loop
   vertex 59.189 36.19915366347728 2.1800000000000006
   vertex 59.189 32.08379220235148 1.5400000000000003
   vertex 59.189 53.80084634705605 2.1800000000000006
  endloop
 endfacet
 facet normal 0.0 -0.0 1.0
  outer loop
   vertex 59.189 36.19915366347728 2.1800000000000006
   vertex 59.189 53.80084634705605 2.1800000000000006
   vertex 50.38815362197633 45.00000001849071 2.1800000000000006
  endloop
 endfacet
 facet normal 0.0 0.0 -1.0
  outer loop
   vertex 14.999999953382922 50.38815369518031 0.36
   vertex 6.199153698021549 59.189 0.36
   vertex 23.800846307660947 59.189 0.36
  endloop
 endfacet
 facet normal -0.1518849508062439 -0.15188494995269253 -0.9766585502090549
  outer loop
   vertex 6.199153698021549 59.189 0.36
   vertex 14.999999953382922 50.38815369518031 0.36
   vertex 14.999999941819325 46.2727922286746 1.0000000000000002
  endloop
 endfacet
 facet normal -0.15188495080624412 -0.15188494995269267 -0.9766585502090548
  outer loop
   vertex 2.083792243079441 59.189 1.0000000000000002
   vertex 6.199153698021549 59.189 0.36
   vertex 14.999999941819325 46.2727922286746 1.0000000000000002
  endloop
 endfacet
 facet normal 0.0 1.0 0.0
  outer loop
   vertex 23.800846307660947 59.189 0.36
   vertex 6.199153698021549 59.189 0.36
   vertex 2.083792243079441 59.189 1.0000000000000002
  endloop
 endfacet
 facet normal 0.0 1.0 0.0
  outer loop
   vertex 27.916207785730254 59.189 1.0000000000000002
   vertex 23.800846307660947 59.189 0.36
   vertex 2.083792243079441 59.189 1.0000000000000002
  endloop
 endfacet
 facet normal 0.1518849499526925 -0.15188495080624412 -0.9766585502090548
  outer loop
   vertex 14.999999953382922 50.38815369518031 0.36
   vertex 23.800846307660947 59.189 0.36
   vertex 27.916207785730254 59.189 1.0000000000000002
  endloop
 endfacet
 facet normal 0.15188494995269236 -0.1518849508062439 -0.9766585502090548
  outer loop
   vertex 14.999999941819325 46.2727922286746 1.0000000000000002
   vertex 14.999999953382922 50.38815369518031 0.36
   vertex 27.916207785730254 59.189 1.0000000000000002
  endloop
 endfacet
 facet normal 0.0 -0.0 1.0
  outer loop
   vertex 14.999999941819325 46.2727922286746 1.0000000000000002
   vertex 27.916207785730254 59.189 1.0000000000000002
   vertex 2.083792243079441 59.189 1.0000000000000002
  endloop
 endfacet
 facet normal 0.0 0.0 -1.0
  outer loop
   vertex 14.999999941819325 46.2727922286746 1.5400000000000003
   vertex 2.083792243079441 59.189 1.5400000000000003
   vertex 27.916207785730254 59.189 1.5400000000000003
  endloop
 endfacet
 facet normal -0.15188495080624398 -0.15188494995269256 0.9766585502090548
  outer loop
   vertex 2.083792243079441 59.189 1.5400000000000003
   vertex 14.999999941819325 46.2727922286746 1.5400000000000003
   vertex 14.999999953382922 50.38815369518031 2.1800000000000006
  endloop
 endfacet
 facet normal -0.15188495080624415 -0.15188494995269275 0.9766585502090547
  outer loop
   vertex 6.199153698021549 59.189 2.1800000000000006
   vertex 2.083792243079441 59.189 1.5400000000000003
   vertex 14.999999953382922 50.38815369518031 2.1800000000000006
  endloop
 endfacet
 facet normal 0.0 1.0 0.0
  outer loop
   vertex 27.916207785730254 59.189 1.5400000000000003
   vertex 2.083792243079441 59.189 1.5400000000000003
   vertex 6.199153698021549 59.189 2.1800000000000006
  endloop
 endfacet
 facet normal 0.0 1.0 0.0
  outer loop
   vertex 23.800846307660947 59.189 2.1800000000000006
   vertex 27.916207785730254 59.189 1.5400000000000003
   vertex 6.199153698021549 59.189 2.1800000000000006
  endloop
 endfacet
 facet normal 0.15188494995269258 -0.1518849508062441 0.9766585502090548
  outer loop
   vertex 14.999999941819325 46.2727922286746 1.5400000000000003
   vertex 27.916207785730254 59.189 1.5400000000000003
   vertex 23.800846307660947 59.189 2.1800000000000006
  endloop
 endfacet
 facet normal 0.15188494995269236 -0.15188495080624392 0.9766585502090549
  outer loop
   vertex 14.999999953382922 50.38815369518031 2.1800000000000006
   vertex 14.999999941819325 46.2727922286746 1.5400000000000003
   vertex 23.800846307660947 59.189 2.1800000000000006
  endloop
 endfacet
 facet normal 0.0 -0.0 1.0
  outer loop
   vertex 14.999999953382922 50.38815369518031 2.1800000000000006
   vertex 23.800846307660947 59.189 2.1800000000000006
   vertex 6.199153698021549 59.189 2.1800000000000006
  endloop
 endfacet
 facet normal 0.0 0.0 -1.0
  outer loop
   vertex 41.18999993824295 18.81000002253881 0.36
   vertex 18.80999993824294 18.81000002253881 0.36
   vertex 18.809999938242946 41.190000022538804 0.36
  endloop
 endfacet
 facet normal 0.0 0.0 -1.0
  outer loop
   vertex 41.18999993824295 18.81000002253881 0.36
   vertex 18.809999938242946 41.190000022538804 0.36
   vertex 41.18999993824295 41.190000022538804 0.36
  endloop
 endfacet
 facet normal 0.0 -0.2147977567470088 -0.9766585502090549
  outer loop
   vertex 18.80999993824294 18.81000002253881 0.36
   vertex 41.18999993824295 18.81000002253881 0.36
   vertex 44.09999993824295 15.90000002253881 1.0000000000000002
  endloop
 endfacet
 facet normal 0.0 -0.21479775674700882 -0.9766585502090548
  outer loop
   vertex 15.899999938242939 15.90000002253881 1.0000000000000002
   vertex 18.80999993824294 18.81000002253881 0.36
   vertex 44.09999993824295 15.90000002253881 1.0000000000000002
  endloop
 endfacet
 facet normal -0.21479775674700877 6.819615089997863e-17 -0.9766585502090549
  outer loop
   vertex 18.809999938242946 41.190000022538804 0.36
   vertex 18.80999993824294 18.81000002253881 0.36
   vertex 15.899999938242939 15.90000002253881 1.0000000000000002
  endloop
 endfacet
 facet normal -0.214797756747009 9.471284574459805e-17 -0.9766585502090548
  outer loop
   vertex 15.899999938242951 44.10000002253881 1.0000000000000002
   vertex 18.809999938242946 41.190000022538804 0.36
   vertex 15.899999938242939 15.90000002253881 1.0000000000000002
  endloop
 endfacet
 facet normal 0.0 0.2147977567470085 -0.9766585502090549
  outer loop
   vertex 41.18999993824295 41.190000022538804 0.36
   vertex 18.809999938242946 41.190000022538804 0.36
   vertex 15.899999938242951 44.10000002253881 1.0000000000000002
  endloop
 endfacet
 facet normal 0.0 0.21479775674700843 -0.9766585502090549
  outer loop
   vertex 44.09999993824295 44.10000002253881 1.0000000000000002
   vertex 41.18999993824295 41.190000022538804 0.36
   vertex 15.899999938242951 44.10000002253881 1.0000000000000002
  endloop
 endfacet
 facet normal 0.2147977567470084 0.0 -0.9766585502090547
  outer loop
   vertex 41.18999993824295 18.81000002253881 0.36
   vertex 41.18999993824295 41.190000022538804 0.36
   vertex 44.09999993824295 44.10000002253881 1.0000000000000002
  endloop
 endfacet
 facet normal 0.21479775674700843 0.0 -0.9766585502090548
  outer loop
   vertex 44.09999993824295 15.90000002253881 1.0000000000000002
   vertex 41.18999993824295 18.81000002253881 0.36
   vertex 44.09999993824295 44.10000002253881 1.0000000000000002
  endloop
 endfacet
 facet normal 0.0 0.0 1.0
  outer loop
   vertex 44.09999993824295 15.90000002253881 1.0000000000000002
   vertex 15.899999938242951 44.10000002253881 1.0000000000000002
   vertex 15.899999938242939 15.90000002253881 1.0000000000000002
  endloop
 endfacet
 facet normal 0.0 -0.0 1.0
  outer loop
   vertex 44.09999993824295 15.90000002253881 1.0000000000000002
   vertex 44.09999993824295 44.10000002253881 1.0000000000000002
   vertex 15.899999938242951 44.10000002253881 1.0000000000000002
  endloop
 endfacet
 facet normal 0.0 0.0 -1.0
  outer loop
   vertex 44.09999993824295 15.90000002253881 1.5400000000000003
   vertex 15.899999938242939 15.90000002253881 1.5400000000000003
   vertex 15.899999938242951 44.10000002253881 1.5400000000000003
  endloop
 endfacet
 facet normal 0.0 0.0 -1.0
  outer loop
   vertex 44.09999993824295 15.90000002253881 1.5400000000000003
   vertex 15.899999938242951 44.10000002253881 1.5400000000000003
   vertex 44.09999993824295 44.10000002253881 1.5400000000000003
  endloop
 endfacet
 facet normal 0.0 -0.21479775674700885 0.9766585502090548
  outer loop
   vertex 15.899999938242939 15.90000002253881 1.5400000000000003
   vertex 44.09999993824295 15.90000002253881 1.5400000000000003
   vertex 41.18999993824295 18.81000002253881 2.1800000000000006
  endloop
 endfacet
 facet normal 0.0 -0.21479775674700885 0.9766585502090549
  outer loop
   vertex 18.80999993824294 18.81000002253881 2.1800000000000006
   vertex 15.899999938242939 15.90000002253881 1.5400000000000003
   vertex 41.18999993824295 18.81000002253881 2.1800000000000006
  endloop
 endfacet
 facet normal -0.2147977567470088 9.471284574459799e-17 0.9766585502090548
  outer loop
   vertex 15.899999938242951 44.10000002253881 1.5400000000000003
   vertex 15.899999938242939 15.90000002253881 1.5400000000000003
   vertex 18.80999993824294 18.81000002253881 2.1800000000000006
  endloop
 endfacet
 facet normal -0.21479775674700904 6.819615089997871e-17 0.9766585502090547
  outer loop
   vertex 18.809999938242946 41.190000022538804 2.1800000000000006
   vertex 15.899999938242951 44.10000002253881 1.5400000000000003
   vertex 18.80999993824294 18.81000002253881 2.1800000000000006
  endloop
 endfacet
 facet normal 0.0 0.2147977567470085 0.9766585502090549
  outer loop
   vertex 44.09999993824295 44.10000002253881 1.5400000000000003
   vertex 15.899999938242951 44.10000002253881 1.5400000000000003
   vertex 18.809999938242946 41.190000022538804 2.1800000000000006
  endloop
 endfacet
 facet normal 0.0 0.21479775674700852 0.9766585502090549
  outer loop
   vertex 41.18999993824295 41.190000022538804 2.1800000000000006
   vertex 44.09999993824295 44.10000002253881 1.5400000000000003
   vertex 18.809999938242946 41.190000022538804 2.1800000000000006
  endloop
 endfacet
 facet normal 0.21479775674700843 -0.0 0.9766585502090548
  outer loop
   vertex 44.09999993824295 15.90000002253881 1.5400000000000003
   vertex 44.09999993824295 44.10000002253881 1.5400000000000003
   vertex 41.18999993824295 41.190000022538804 2.1800000000000006
  endloop
 endfacet
 facet normal 0.21479775674700846 -0.0 0.9766585502090547
  outer loop
   vertex 41.18999993824295 18.81000002253881 2.1800000000000006
   vertex 44.09999993824295 15.90000002253881 1.5400000000000003
   vertex 41.18999993824295 41.190000022538804 2.1800000000000006
  endloop
 endfacet
 facet normal 0.0 0.0 1.0
  outer loop
   vertex 41.18999993824295 18.81000002253881 2.1800000000000006
   vertex 18.809999938242946 41.190000022538804 2.1800000000000006
   vertex 18.80999993824294 18.81000002253881 2.1800000000000006
  endloop
 endfacet
 facet normal 0.0 -0.0 1.0
  outer loop
   vertex 41.18999993824295 18.81000002253881 2.1800000000000006
   vertex 41.18999993824295 41.190000022538804 2.1800000000000006
   vertex 18.809999938242946 41.190000022538804 2.1800000000000006
  endloop
 endfacet
 facet normal 0.0 0.0 -1.0
  outer loop
   vertex 16.578153617155603 11.19000002253881 0.36
   vertex 35.801846302152576 11.19000002253881 0.36
   vertex 25.42284633794088 0.811 0.36
  endloop
 endfacet
 facet normal 0.0 -0.0 -1.0
  outer loop
   vertex 16.578153617155603 11.19000002253881 0.36
   vertex 25.42284633794088 0.811 0.36
   vertex 6.199153652943923 0.811 0.36
  endloop
 endfacet
 facet normal 0.0 0.21479775674700868 -0.9766585502090549
  outer loop
   vertex 35.801846302152576 11.19000002253881 0.36
   vertex 16.578153617155603 11.19000002253881 0.36
   vertex 15.372792145860096 14.10000002253881 1.0000000000000002
  endloop
 endfacet
 facet normal 0.0 0.21479775674700868 -0.9766585502090549
  outer loop
   vertex 42.82720774074128 14.10000002253881 1.0000000000000002
   vertex 35.801846302152576 11.19000002253881 0.36
   vertex 15.372792145860096 14.10000002253881 1.0000000000000002
  endloop
 endfacet
 facet normal 0.15188495080624442 -0.15188494995269297 -0.9766585502090548
  outer loop
   vertex 25.42284633794088 0.811 0.36
   vertex 35.801846302152576 11.19000002253881 0.36
   vertex 42.82720774074128 14.10000002253881 1.0000000000000002
  endloop
 endfacet
 facet normal 0.15188495080624415 -0.1518849499526926 -0.9766585502090548
  outer loop
   vertex 29.538207792882986 0.811 1.0000000000000002
   vertex 25.42284633794088 0.811 0.36
   vertex 42.82720774074128 14.10000002253881 1.0000000000000002
  endloop
 endfacet
 facet normal 0.0 -1.0 0.0
  outer loop
   vertex 6.199153652943923 0.811 0.36
   vertex 25.42284633794088 0.811 0.36
   vertex 29.538207792882986 0.811 1.0000000000000002
  endloop
 endfacet
 facet normal 0.0 -1.0 0.0
  outer loop
   vertex 2.083792198001817 0.811 1.0000000000000002
   vertex 6.199153652943923 0.811 0.36
   vertex 29.538207792882986 0.811 1.0000000000000002
  endloop
 endfacet
 facet normal -0.1518849508062441 0.1518849499526924 -0.9766585502090548
  outer loop
   vertex 16.578153617155603 11.19000002253881 0.36
   vertex 6.199153652943923 0.811 0.36
   vertex 2.083792198001817 0.811 1.0000000000000002
  endloop
 endfacet
 facet normal -0.15188495080624415 0.15188494995269247 -0.9766585502090548
  outer loop
   vertex 15.372792145860096 14.10000002253881 1.0000000000000002
   vertex 16.578153617155603 11.19000002253881 0.36
   vertex 2.083792198001817 0.811 1.0000000000000002
  endloop
 endfacet
 facet normal -0.0 0.0 1.0
  outer loop
   vertex 15.372792145860096 14.10000002253881 1.0000000000000002
   vertex 29.538207792882986 0.811 1.0000000000000002
   vertex 42.82720774074128 14.10000002253881 1.0000000000000002
  endloop
 endfacet
 facet normal 0.0 0.0 1.0
  outer loop
   vertex 15.372792145860096 14.10000002253881 1.0000000000000002
   vertex 2.083792198001817 0.811 1.0000000000000002
   vertex 29.538207792882986 0.811 1.0000000000000002
  endloop
 endfacet
 facet normal 0.0 0.0 -1.0
  outer loop
   vertex 15.372792145860096 14.10000002253881 1.5400000000000003
   vertex 42.82720774074128 14.10000002253881 1.5400000000000003
   vertex 29.538207792882986 0.811 1.5400000000000003
  endloop
 endfacet
 facet normal 0.0 -0.0 -1.0
  outer loop
   vertex 15.372792145860096 14.10000002253881 1.5400000000000003
   vertex 29.538207792882986 0.811 1.5400000000000003
   vertex 2.083792198001817 0.811 1.5400000000000003
  endloop
 endfacet
 facet normal 0.0 0.2147977567470087 0.9766585502090549
  outer loop
   vertex 42.82720774074128 14.10000002253881 1.5400000000000003
   vertex 15.372792145860096 14.10000002253881 1.5400000000000003
   vertex 16.578153617155603 11.19000002253881 2.1800000000000006
  endloop
 endfacet
 facet normal 0.0 0.21479775674700874 0.9766585502090549
  outer loop
   vertex 35.801846302152576 11.19000002253881 2.1800000000000006
   vertex 42.82720774074128 14.10000002253881 1.5400000000000003
   vertex 16.578153617155603 11.19000002253881 2.1800000000000006
  endloop
 endfacet
 facet normal 0.15188495080624437 -0.15188494995269283 0.9766585502090548
  outer loop
   vertex 29.538207792882986 0.811 1.5400000000000003
   vertex 42.82720774074128 14.10000002253881 1.5400000000000003
   vertex 35.801846302152576 11.19000002253881 2.1800000000000006
  endloop
 endfacet
 facet normal 0.15188495080624417 -0.15188494995269275 0.9766585502090548
  outer loop
   vertex 25.42284633794088 0.811 2.1800000000000006
   vertex 29.538207792882986 0.811 1.5400000000000003
   vertex 35.801846302152576 11.19000002253881 2.1800000000000006
  endloop
 endfacet
 facet normal 0.0 -1.0 0.0
  outer loop
   vertex 2.083792198001817 0.811 1.5400000000000003
   vertex 29.538207792882986 0.811 1.5400000000000003
   vertex 25.42284633794088 0.811 2.1800000000000006
  endloop
 endfacet
 facet normal 0.0 -1.0 -0.0
  outer loop
   vertex 6.199153652943923 0.811 2.1800000000000006
   vertex 2.083792198001817 0.811 1.5400000000000003
   vertex 25.42284633794088 0.811 2.1800000000000006
  endloop
 endfacet
 facet normal -0.1518849508062442 0.15188494995269253 0.9766585502090548
  outer loop
   vertex 15.372792145860096 14.10000002253881 1.5400000000000003
   vertex 2.083792198001817 0.811 1.5400000000000003
   vertex 6.199153652943923 0.811 2.1800000000000006
  endloop
 endfacet
 facet normal -0.15188495080624417 0.15188494995269247 0.9766585502090548
  outer loop
   vertex 16.578153617155603 11.19000002253881 2.1800000000000006
   vertex 15.372792145860096 14.10000002253881 1.5400000000000003
   vertex 6.199153652943923 0.811 2.1800000000000006
  endloop
 endfacet
 facet normal -0.0 0.0 1.0
  outer loop
   vertex 16.578153617155603 11.19000002253881 2.1800000000000006
   vertex 25.42284633794088 0.811 2.1800000000000006
   vertex 35.801846302152576 11.19000002253881 2.1800000000000006
  endloop
 endfacet
 facet normal 0.0 0.0 1.0
  outer loop
   vertex 16.578153617155603 11.19000002253881 2.1800000000000006
   vertex 6.199153652943923 0.811 2.1800000000000006
   vertex 25.42284633794088 0.811 2.1800000000000006
  endloop
 endfacet
 facet normal 0.0 0.0 -1.0
  outer loop
   vertex 48.80999993824295 16.578153701451477 0.36
   vertex 48.80999993824295 35.80184636690253 0.36
   vertex 59.189 25.422846332281885 0.36
  endloop
 endfacet
 facet normal 0.0 0.0 -1.0
  outer loop
   vertex 48.80999993824295 16.578153701451477 0.36
   vertex 59.189 25.422846332281885 0.36
   vertex 59.189 6.199153698021547 0.36
  endloop
 endfacet
 facet normal -0.21479775674700843 -0.0 -0.9766585502090548
  outer loop
   vertex 48.80999993824295 35.80184636690253 0.36
   vertex 48.80999993824295 16.578153701451477 0.36
   vertex 45.89999993824295 15.372792230155973 1.0000000000000002
  endloop
 endfacet
 facet normal -0.21479775674700843 -0.0 -0.9766585502090549
  outer loop
   vertex 45.89999993824295 42.82720782041999 1.0000000000000002
   vertex 48.80999993824295 35.80184636690253 0.36
   vertex 45.89999993824295 15.372792230155973 1.0000000000000002
  endloop
 endfacet
 facet normal 0.15188495018091325 0.15188495057802384 -0.9766585502090548
  outer loop
   vertex 59.189 25.422846332281885 0.36
   vertex 48.80999993824295 35.80184636690253 0.36
   vertex 45.89999993824295 42.82720782041999 1.0000000000000002
  endloop
 endfacet
 facet normal 0.15188495018091297 0.15188495057802362 -0.9766585502090548
  outer loop
   vertex 59.189 29.538207793407686 1.0000000000000002
   vertex 59.189 25.422846332281885 0.36
   vertex 45.89999993824295 42.82720782041999 1.0000000000000002
  endloop
 endfacet
 facet normal 1.0 0.0 0.0
  outer loop
   vertex 59.189 6.199153698021547 0.36
   vertex 59.189 25.422846332281885 0.36
   vertex 59.189 29.538207793407686 1.0000000000000002
  endloop
 endfacet
 facet normal 1.0 -0.0 0.0
  outer loop
   vertex 59.189 2.0837922430794364 1.0000000000000002
   vertex 59.189 6.199153698021547 0.36
   vertex 59.189 29.538207793407686 1.0000000000000002
  endloop
 endfacet
 facet normal -0.1518849499526925 -0.15188495080624403 -0.9766585502090548
  outer loop
   vertex 48.80999993824295 16.578153701451477 0.36
   vertex 59.189 6.199153698021547 0.36
   vertex 59.189 2.0837922430794364 1.0000000000000002
  endloop
 endfacet
 facet normal -0.15188494995269253 -0.15188495080624406 -0.9766585502090548
  outer loop
   vertex 45.89999993824295 15.372792230155973 1.0000000000000002
   vertex 48.80999993824295 16.578153701451477 0.36
   vertex 59.189 2.0837922430794364 1.0000000000000002
  endloop
 endfacet
 facet normal 0.0 0.0 1.0
  outer loop
   vertex 45.89999993824295 15.372792230155973 1.0000000000000002
   vertex 59.189 29.538207793407686 1.0000000000000002
   vertex 45.89999993824295 42.82720782041999 1.0000000000000002
  endloop
 endfacet
 facet normal -0.0 0.0 1.0
  outer loop
   vertex 45.89999993824295 15.372792230155973 1.0000000000000002
   vertex 59.189 2.0837922430794364 1.0000000000000002
   vertex 59.189 29.538207793407686 1.0000000000000002
  endloop
 endfacet
 facet normal 0.0 0.0 -1.0
  outer loop
   vertex 45.89999993824295 15.372792230155973 1.5400000000000003
   vertex 45.89999993824295 42.82720782041999 1.5400000000000003
   vertex 59.189 29.538207793407686 1.5400000000000003
  endloop
 endfacet
 facet normal 0.0 0.0 -1.0
  outer loop
   vertex 45.89999993824295 15.372792230155973 1.5400000000000003
   vertex 59.189 29.538207793407686 1.5400000000000003
   vertex 59.189 2.0837922430794364 1.5400000000000003
  endloop
 endfacet
 facet normal -0.2147977567470085 0.0 0.9766585502090549
  outer loop
   vertex 45.89999993824295 42.82720782041999 1.5400000000000003
   vertex 45.89999993824295 15.372792230155973 1.5400000000000003
   vertex 48.80999993824295 16.578153701451477 2.1800000000000006
  endloop
 endfacet
 facet normal -0.21479775674700846 0.0 0.9766585502090548
  outer loop
   vertex 48.80999993824295 35.80184636690253 2.1800000000000006
   vertex 45.89999993824295 42.82720782041999 1.5400000000000003
   vertex 48.80999993824295 16.578153701451477 2.1800000000000006
  endloop
 endfacet
 facet normal 0.15188495018091314 0.15188495057802384 0.9766585502090548
  outer loop
   vertex 59.189 29.538207793407686 1.5400000000000003
   vertex 45.89999993824295 42.82720782041999 1.5400000000000003
   vertex 48.80999993824295 35.80184636690253 2.1800000000000006
  endloop
 endfacet
 facet normal 0.15188495018091305 0.15188495057802365 0.9766585502090548
  outer loop
   vertex 59.189 25.422846332281885 2.1800000000000006
   vertex 59.189 29.538207793407686 1.5400000000000003
   vertex 48.80999993824295 35.80184636690253 2.1800000000000006
  endloop
 endfacet
 facet normal 1.0 0.0 0.0
  outer loop
   vertex 59.189 2.0837922430794364 1.5400000000000003
   vertex 59.189 29.538207793407686 1.5400000000000003
   vertex 59.189 25.422846332281885 2.1800000000000006
  endloop
 endfacet
 facet normal 1.0 -0.0 0.0
  outer loop
   vertex 59.189 6.199153698021547 2.1800000000000006
   vertex 59.189 2.0837922430794364 1.5400000000000003
   vertex 59.189 25.422846332281885 2.1800000000000006
  endloop
 endfacet
 facet normal -0.15188494995269256 -0.1518849508062441 0.9766585502090549
  outer loop
   vertex 45.89999993824295 15.372792230155973 1.5400000000000003
   vertex 59.189 2.0837922430794364 1.5400000000000003
   vertex 59.189 6.199153698021547 2.1800000000000006
  endloop
 endfacet
 facet normal -0.15188494995269253 -0.15188495080624406 0.9766585502090548
  outer loop
   vertex 48.80999993824295 16.578153701451477 2.1800000000000006
   vertex 45.89999993824295 15.372792230155973 1.5400000000000003
   vertex 59.189 6.199153698021547 2.1800000000000006
  endloop
 endfacet
 facet normal 0.0 0.0 1.0
  outer loop
   vertex 48.80999993824295 16.578153701451477 2.1800000000000006
   vertex 59.189 25.422846332281885 2.1800000000000006
   vertex 48.80999993824295 35.80184636690253 2.1800000000000006
  endloop
 endfacet
 facet normal -0.0 0.0 1.0
  outer loop
   vertex 48.80999993824295 16.578153701451477 2.1800000000000006
   vertex 59.189 6.199153698021547 2.1800000000000006
   vertex 59.189 25.422846332281885 2.1800000000000006
  endloop
 endfacet
 facet normal 0.0 0.0 -1.0
  outer loop
   vertex 11.18999993824295 43.4218463561685 0.36
   vertex 11.189999938242943 24.198153712185533 0.36
   vertex 0.8110000068775767 34.57715367068731 0.36
  endloop
 endfacet
 facet normal -0.0 0.0 -1.0
  outer loop
   vertex 11.18999993824295 43.4218463561685 0.36
   vertex 0.8110000068775767 34.57715367068731 0.36
   vertex 0.8110000357628536 53.8008463169757 0.36
  endloop
 endfacet
 facet normal 0.21479775674700885 -7.939316786877744e-17 -0.9766585502090548
  outer loop
   vertex 11.189999938242943 24.198153712185533 0.36
   vertex 11.18999993824295 43.4218463561685 0.36
   vertex 14.099999938242949 44.627207817884404 1.0000000000000002
  endloop
 endfacet
 facet normal 0.21479775674700882 -6.948927087910194e-17 -0.9766585502090548
  outer loop
   vertex 14.09999993824294 17.172792232691585 1.0000000000000002
   vertex 11.189999938242943 24.198153712185533 0.36
   vertex 14.099999938242949 44.627207817884404 1.0000000000000002
  endloop
 endfacet
 facet normal -0.1518849505780237 -0.151884950180913 -0.9766585502090548
  outer loop
   vertex 0.8110000068775767 34.57715367068731 0.36
   vertex 11.189999938242943 24.198153712185533 0.36
   vertex 14.09999993824294 17.172792232691585 1.0000000000000002
  endloop
 endfacet
 facet normal -0.15188495057802373 -0.15188495018091305 -0.9766585502090548
  outer loop
   vertex 0.8110000006938867 30.461792204985386 1.0000000000000002
   vertex 0.8110000068775767 34.57715367068731 0.36
   vertex 14.09999993824294 17.172792232691585 1.0000000000000002
  endloop
 endfacet
 facet normal -1.0 1.5025873269819794e-09 -3.15269285830102e-17
  outer loop
   vertex 0.8110000357628536 53.8008463169757 0.36
   vertex 0.8110000068775767 34.57715367068731 0.36
   vertex 0.8110000006938867 30.461792204985386 1.0000000000000002
  endloop
 endfacet
 facet normal -1.0 1.502587324069538e-09 -1.3773571063778182e-16
  outer loop
   vertex 0.8110000419465435 57.916207788861314 1.0000000000000002
   vertex 0.8110000357628536 53.8008463169757 0.36
   vertex 0.8110000006938867 30.461792204985386 1.0000000000000002
  endloop
 endfacet
 facet normal 0.15188495080624395 0.15188494995269264 -0.9766585502090549
  outer loop
   vertex 11.18999993824295 43.4218463561685 0.36
   vertex 0.8110000357628536 53.8008463169757 0.36
   vertex 0.8110000419465435 57.916207788861314 1.0000000000000002
  endloop
 endfacet
 facet normal 0.15188495080624428 0.1518849499526929 -0.9766585502090548
  outer loop
   vertex 14.099999938242949 44.627207817884404 1.0000000000000002
   vertex 11.18999993824295 43.4218463561685 0.36
   vertex 0.8110000419465435 57.916207788861314 1.0000000000000002
  endloop
 endfacet
 facet normal 0.0 0.0 1.0
  outer loop
   vertex 14.099999938242949 44.627207817884404 1.0000000000000002
   vertex 0.8110000006938867 30.461792204985386 1.0000000000000002
   vertex 14.09999993824294 17.172792232691585 1.0000000000000002
  endloop
 endfacet
 facet normal 0.0 0.0 1.0
  outer loop
   vertex 14.099999938242949 44.627207817884404 1.0000000000000002
   vertex 0.8110000419465435 57.916207788861314 1.0000000000000002
   vertex 0.8110000006938867 30.461792204985386 1.0000000000000002
  endloop
 endfacet
 facet normal 0.0 0.0 -1.0
  outer loop
   vertex 14.099999938242949 44.627207817884404 1.5400000000000003
   vertex 14.09999993824294 17.172792232691585 1.5400000000000003
   vertex 0.8110000006938867 30.461792204985386 1.5400000000000003
  endloop
 endfacet
 facet normal -0.0 0.0 -1.0
  outer loop
   vertex 14.099999938242949 44.627207817884404 1.5400000000000003
   vertex 0.8110000006938867 30.461792204985386 1.5400000000000003
   vertex 0.8110000419465435 57.916207788861314 1.5400000000000003
  endloop
 endfacet
 facet normal 0.21479775674700888 -6.948927087910199e-17 0.9766585502090548
  outer loop
   vertex 14.09999993824294 17.172792232691585 1.5400000000000003
   vertex 14.099999938242949 44.627207817884404 1.5400000000000003
   vertex 11.18999993824295 43.4218463561685 2.1800000000000006
  endloop
 endfacet
 facet normal 0.2147977567470088 -7.939316786877743e-17 0.9766585502090548
  outer loop
   vertex 11.189999938242943 24.198153712185533 2.1800000000000006
   vertex 14.09999993824294 17.172792232691585 1.5400000000000003
   vertex 11.18999993824295 43.4218463561685 2.1800000000000006
  endloop
 endfacet
 facet normal -0.15188495057802381 -0.1518849501809131 0.9766585502090548
  outer loop
   vertex 0.8110000006938867 30.461792204985386 1.5400000000000003
   vertex 14.09999993824294 17.172792232691585 1.5400000000000003
   vertex 11.189999938242943 24.198153712185533 2.1800000000000006
  endloop
 endfacet
 facet normal -0.15188495057802376 -0.15188495018091305 0.9766585502090548
  outer loop
   vertex 0.8110000068775767 34.57715367068731 2.1800000000000006
   vertex 0.8110000006938867 30.461792204985386 1.5400000000000003
   vertex 11.189999938242943 24.198153712185533 2.1800000000000006
  endloop
 endfacet
 facet normal -1.0 1.5025873240695383e-09 5.025465252511649e-17
  outer loop
   vertex 0.8110000419465435 57.916207788861314 1.5400000000000003
   vertex 0.8110000006938867 30.461792204985386 1.5400000000000003
   vertex 0.8110000068775767 34.57715367068731 2.1800000000000006
  endloop
 endfacet
 facet normal -1.0 1.5025873269819794e-09 1.5646344224966998e-16
  outer loop
   vertex 0.8110000357628536 53.8008463169757 2.1800000000000006
   vertex 0.8110000419465435 57.916207788861314 1.5400000000000003
   vertex 0.8110000068775767 34.57715367068731 2.1800000000000006
  endloop
 endfacet
 facet normal 0.1518849508062441 0.15188494995269267 0.9766585502090548
  outer loop
   vertex 14.099999938242949 44.627207817884404 1.5400000000000003
   vertex 0.8110000419465435 57.916207788861314 1.5400000000000003
   vertex 0.8110000357628536 53.8008463169757 2.1800000000000006
  endloop
 endfacet
 facet normal 0.15188495080624428 0.15188494995269297 0.9766585502090548
  outer loop
   vertex 11.18999993824295 43.4218463561685 2.1800000000000006
   vertex 14.099999938242949 44.627207817884404 1.5400000000000003
   vertex 0.8110000357628536 53.8008463169757 2.1800000000000006
  endloop
 endfacet
 facet normal 0.0 0.0 1.0
  outer loop
   vertex 11.18999993824295 43.4218463561685 2.1800000000000006
   vertex 0.8110000068775767 34.57715367068731 2.1800000000000006
   vertex 11.189999938242943 24.198153712185533 2.1800000000000006
  endloop
 endfacet
 facet normal 0.0 0.0 1.0
  outer loop
   vertex 11.18999993824295 43.4218463561685 2.1800000000000006
   vertex 0.8110000357628536 53.8008463169757 2.1800000000000006
   vertex 0.8110000068775767 34.57715367068731 2.1800000000000006
  endloop
 endfacet
 facet normal 0.0 0.0 -1.0
  outer loop
   vertex 53.80084630766097 59.189 0.36
   vertex 43.42184627187266 48.81000002253881 0.36
   vertex 24.19815364743556 48.81000002253881 0.36
  endloop
 endfacet
 facet normal -0.0 0.0 -1.0
  outer loop
   vertex 53.80084630766097 59.189 0.36
   vertex 24.19815364743556 48.81000002253881 0.36
   vertex 34.57715368322386 59.189 0.36
  endloop
 endfacet
 facet normal 0.15188494995269294 -0.15188495080624448 -0.9766585502090548
  outer loop
   vertex 43.42184627187266 48.81000002253881 0.36
   vertex 53.80084630766097 59.189 0.36
   vertex 57.916207785730265 59.189 1.0000000000000002
  endloop
 endfacet
 facet normal 0.15188494995269286 -0.1518849508062444 -0.9766585502090548
  outer loop
   vertex 44.627207733588556 45.900000022538805 1.0000000000000002
   vertex 43.42184627187266 48.81000002253881 0.36
   vertex 57.916207785730265 59.189 1.0000000000000002
  endloop
 endfacet
 facet normal 0.0 -0.21479775674700843 -0.9766585502090549
  outer loop
   vertex 24.19815364743556 48.81000002253881 0.36
   vertex 43.42184627187266 48.81000002253881 0.36
   vertex 44.627207733588556 45.900000022538805 1.0000000000000002
  endloop
 endfacet
 facet normal 0.0 -0.21479775674700843 -0.9766585502090549
  outer loop
   vertex 17.172792153012857 45.900000022538805 1.0000000000000002
   vertex 24.19815364743556 48.81000002253881 0.36
   vertex 44.627207733588556 45.900000022538805 1.0000000000000002
  endloop
 endfacet
 facet normal -0.1518849499526926 0.15188495080624403 -0.9766585502090549
  outer loop
   vertex 34.57715368322386 59.189 0.36
   vertex 24.19815364743556 48.81000002253881 0.36
   vertex 17.172792153012857 45.900000022538805 1.0000000000000002
  endloop
 endfacet
 facet normal -0.1518849499526929 0.1518849508062444 -0.9766585502090548
  outer loop
   vertex 30.461792205154566 59.189 1.0000000000000002
   vertex 34.57715368322386 59.189 0.36
   vertex 17.172792153012857 45.900000022538805 1.0000000000000002
  endloop
 endfacet
 facet normal 0.0 1.0 0.0
  outer loop
   vertex 53.80084630766097 59.189 0.36
   vertex 34.57715368322386 59.189 0.36
   vertex 30.461792205154566 59.189 1.0000000000000002
  endloop
 endfacet
 facet normal 0.0 1.0 0.0
  outer loop
   vertex 57.916207785730265 59.189 1.0000000000000002
   vertex 53.80084630766097 59.189 0.36
   vertex 30.461792205154566 59.189 1.0000000000000002
  endloop
 endfacet
 facet normal 0.0 0.0 1.0
  outer loop
   vertex 57.916207785730265 59.189 1.0000000000000002
   vertex 17.172792153012857 45.900000022538805 1.0000000000000002
   vertex 44.627207733588556 45.900000022538805 1.0000000000000002
  endloop
 endfacet
 facet normal 0.0 0.0 1.0
  outer loop
   vertex 57.916207785730265 59.189 1.0000000000000002
   vertex 30.461792205154566 59.189 1.0000000000000002
   vertex 17.172792153012857 45.900000022538805 1.0000000000000002
  endloop
 endfacet
 facet normal 0.0 0.0 -1.0
  outer loop
   vertex 57.916207785730265 59.189 1.5400000000000003
   vertex 44.627207733588556 45.900000022538805 1.5400000000000003
   vertex 17.172792153012857 45.900000022538805 1.5400000000000003
  endloop
 endfacet
 facet normal -0.0 0.0 -1.0
  outer loop
   vertex 57.916207785730265 59.189 1.5400000000000003
   vertex 17.172792153012857 45.900000022538805 1.5400000000000003
   vertex 30.461792205154566 59.189 1.5400000000000003
  endloop
 endfacet
 facet normal 0.15188494995269286 -0.1518849508062444 0.9766585502090547
  outer loop
   vertex 44.627207733588556 45.900000022538805 1.5400000000000003
   vertex 57.916207785730265 59.189 1.5400000000000003
   vertex 53.80084630766097 59.189 2.1800000000000006
  endloop
 endfacet
 facet normal 0.15188494995269286 -0.15188495080624442 0.9766585502090547
  outer loop
   vertex 43.42184627187266 48.81000002253881 2.1800000000000006
   vertex 44.627207733588556 45.900000022538805 1.5400000000000003
   vertex 53.80084630766097 59.189 2.1800000000000006
  endloop
 endfacet
 facet normal 0.0 -0.21479775674700846 0.9766585502090549
  outer loop
   vertex 17.172792153012857 45.900000022538805 1.5400000000000003
   vertex 44.627207733588556 45.900000022538805 1.5400000000000003
   vertex 43.42184627187266 48.81000002253881 2.1800000000000006
  endloop
 endfacet
 facet normal 0.0 -0.21479775674700852 0.9766585502090549
  outer loop
   vertex 24.19815364743556 48.81000002253881 2.1800000000000006
   vertex 17.172792153012857 45.900000022538805 1.5400000000000003
   vertex 43.42184627187266 48.81000002253881 2.1800000000000006
  endloop
 endfacet
 facet normal -0.1518849499526927 0.15188495080624423 0.9766585502090548
  outer loop
   vertex 30.461792205154566 59.189 1.5400000000000003
   vertex 17.172792153012857 45.900000022538805 1.5400000000000003
   vertex 24.19815364743556 48.81000002253881 2.1800000000000006
  endloop
 endfacet
 facet normal -0.15188494995269292 0.15188495080624437 0.9766585502090548
  outer loop
   vertex 34.57715368322386 59.189 2.1800000000000006
   vertex 30.461792205154566 59.189 1.5400000000000003
   vertex 24.19815364743556 48.81000002253881 2.1800000000000006
  endloop
 endfacet
 facet normal 0.0 1.0 0.0
  outer loop
   vertex 57.916207785730265 59.189 1.5400000000000003
   vertex 30.461792205154566 59.189 1.5400000000000003
   vertex 34.57715368322386 59.189 2.1800000000000006
  endloop
 endfacet
 facet normal 0.0 1.0 0.0
  outer loop
   vertex 53.80084630766097 59.189 2.1800000000000006
   vertex 57.916207785730265 59.189 1.5400000000000003
   vertex 34.57715368322386 59.189 2.1800000000000006
  endloop
 endfacet
 facet normal 0.0 0.0 1.0
  outer loop
   vertex 53.80084630766097 59.189 2.1800000000000006
   vertex 24.19815364743556 48.81000002253881 2.1800000000000006
   vertex 43.42184627187266 48.81000002253881 2.1800000000000006
  endloop
 endfacet
 facet normal 0.0 0.0 1.0
  outer loop
   vertex 53.80084630766097 59.189 2.1800000000000006
   vertex 34.57715368322386 59.189 2.1800000000000006
   vertex 24.19815364743556 48.81000002253881 2.1800000000000006
  endloop
 endfacet
endsolid
