solid PyGamic generated __Board__ SLA File
 facet normal 0.0 -0.0 -1.0
  outer loop
   vertex 0.0010000000000033149 27.62312121210465 0
   vertex 12.624121158347048 15.000000020753834 0
   vertex 0.0010000000000002852 2.3768787914683127 0
  endloop
 endfacet
 facet normal 0.7071067821109303 0.7071067802621648 0.0
  outer loop
   vertex 12.624121158347048 15.000000020753834 0
   vertex 0.0010000000000033149 27.62312121210465 0
   vertex 0.0010000000000033149 27.62312121210465 0.54
  endloop
 endfacet
 facet normal 0.7071067821109303 0.7071067802621648 0.0
  outer loop
   vertex 12.624121158347048 15.000000020753834 0.54
   vertex 12.624121158347048 15.000000020753834 0
   vertex 0.0010000000000033149 27.62312121210465 0.54
  endloop
 endfacet
 facet normal 0.7071067831734205 -0.7071067791996746 0.0
  outer loop
   vertex 0.0010000000000002852 2.3768787914683127 0
   vertex 12.624121158347048 15.000000020753834 0
   vertex 12.624121158347048 15.000000020753834 0.54
  endloop
 endfacet
 facet normal 0.7071067831734205 -0.7071067791996746 0.0
  outer loop
   vertex 0.0010000000000002852 2.3768787914683127 0.54
   vertex 0.0010000000000002852 2.3768787914683127 0
   vertex 12.624121158347048 15.000000020753834 0.54
  endloop
 endfacet
 facet normal -1.0 1.200057616620608e-16 0.0
  outer loop
   vertex 0.0010000000000033149 27.62312121210465 0
   vertex 0.0010000000000002852 2.3768787914683127 0
   vertex 0.0010000000000002852 2.3768787914683127 0.54
  endloop
 endfacet
 facet normal -1.0 1.200057616620608e-16 0.0
  outer loop
   vertex 0.0010000000000033149 27.62312121210465 0.54
   vertex 0.0010000000000033149 27.62312121210465 0
   vertex 0.0010000000000002852 2.3768787914683127 0.54
  endloop
 endfacet
 facet normal 0.0 0.0 1.0
  outer loop
   vertex 0.0010000000000033149 27.62312121210465 0.54
   vertex 0.0010000000000002852 2.3768787914683127 0.54
   vertex 12.624121158347048 15.000000020753834 0.54
  endloop
 endfacet
 facet normal 0.0 0.0 -1.0
  outer loop
   vertex 32.37687878167675 0.0010000035714685049 0
   vertex 44.99999994491884 12.62412123775201 0
   vertex 57.62312121210315 0.0010000415061584857 0
  endloop
 endfacet
 facet normal -0.7071067831734198 0.7071067791996751 0.0
  outer loop
   vertex 44.99999994491884 12.62412123775201 0
   vertex 32.37687878167675 0.0010000035714685049 0
   vertex 32.37687878167675 0.0010000035714685049 0.54
  endloop
 endfacet
 facet normal -0.7071067831734198 0.7071067791996751 0.0
  outer loop
   vertex 44.99999994491884 12.62412123775201 0.54
   vertex 44.99999994491884 12.62412123775201 0
   vertex 32.37687878167675 0.0010000035714685049 0.54
  endloop
 endfacet
 facet normal 0.7071067791996751 0.70710678317342 0.0
  outer loop
   vertex 57.62312121210315 0.0010000415061584857 0
   vertex 44.99999994491884 12.62412123775201 0
   vertex 44.99999994491884 12.62412123775201 0.54
  endloop
 endfacet
 facet normal 0.7071067791996751 0.70710678317342 0.0
  outer loop
   vertex 57.62312121210315 0.0010000415061584857 0.54
   vertex 57.62312121210315 0.0010000415061584857 0
   vertex 44.99999994491884 12.62412123775201 0.54
  endloop
 endfacet
 facet normal 1.5025875666597384e-09 -1.0 0.0
  outer loop
   vertex 32.37687878167675 0.0010000035714685049 0
   vertex 57.62312121210315 0.0010000415061584857 0
   vertex 57.62312121210315 0.0010000415061584857 0.54
  endloop
 endfacet
 facet normal 1.5025875666597384e-09 -1.0 0.0
  outer loop
   vertex 32.37687878167675 0.0010000035714685049 0.54
   vertex 32.37687878167675 0.0010000035714685049 0
   vertex 57.62312121210315 0.0010000415061584857 0.54
  endloop
 endfacet
 facet normal 0.0 0.0 1.0
  outer loop
   vertex 32.37687878167675 0.0010000035714685049 0.54
   vertex 57.62312121210315 0.0010000415061584857 0.54
   vertex 44.99999994491884 12.62412123775201 0.54
  endloop
 endfacet
 facet normal 0.0 0.0 -1.0
  outer loop
   vertex 59.999 32.376878781678236 0
   vertex 47.37587872792066 45.00000002075381 0
   vertex 59.999 57.62312122189469 0
  endloop
 endfacet
 facet normal -0.7071067802621648 -0.7071067821109304 0.0
  outer loop
   vertex 47.37587872792066 45.00000002075381 0
   vertex 59.999 32.376878781678236 0
   vertex 59.999 32.376878781678236 0.54
  endloop
 endfacet
 facet normal -0.7071067802621648 -0.7071067821109304 -0.0
  outer loop
   vertex 47.37587872792066 45.00000002075381 0.54
   vertex 47.37587872792066 45.00000002075381 0
   vertex 59.999 32.376878781678236 0.54
  endloop
 endfacet
 facet normal -0.7071067791996749 0.7071067831734202 0.0
  outer loop
   vertex 59.999 57.62312122189469 0
   vertex 47.37587872792066 45.00000002075381 0
   vertex 47.37587872792066 45.00000002075381 0.54
  endloop
 endfacet
 facet normal -0.7071067791996749 0.7071067831734202 0.0
  outer loop
   vertex 59.999 57.62312122189469 0.54
   vertex 59.999 57.62312122189469 0
   vertex 47.37587872792066 45.00000002075381 0.54
  endloop
 endfacet
 facet normal 1.0 0.0 0.0
  outer loop
   vertex 59.999 32.376878781678236 0
   vertex 59.999 57.62312122189469 0
   vertex 59.999 57.62312122189469 0.54
  endloop
 endfacet
 facet normal 1.0 -0.0 0.0
  outer loop
   vertex 59.999 32.376878781678236 0.54
   vertex 59.999 32.376878781678236 0
   vertex 59.999 57.62312122189469 0.54
  endloop
 endfacet
 facet normal 0.0 -0.0 1.0
  outer loop
   vertex 59.999 32.376878781678236 0.54
   vertex 59.999 57.62312122189469 0.54
   vertex 47.37587872792066 45.00000002075381 0.54
  endloop
 endfacet
 facet normal 0.0 0.0 -1.0
  outer loop
   vertex 14.999999944918844 47.37587880732561 0
   vertex 2.3768788231829046 59.999 0
   vertex 27.623121208531696 59.999 0
  endloop
 endfacet
 facet normal -0.7071067831734198 -0.7071067791996754 0.0
  outer loop
   vertex 2.3768788231829046 59.999 0
   vertex 14.999999944918844 47.37587880732561 0
   vertex 14.999999944918844 47.37587880732561 0.54
  endloop
 endfacet
 facet normal -0.7071067831734198 -0.7071067791996754 -0.0
  outer loop
   vertex 2.3768788231829046 59.999 0.54
   vertex 2.3768788231829046 59.999 0
   vertex 14.999999944918844 47.37587880732561 0.54
  endloop
 endfacet
 facet normal 0.0 1.0 0.0
  outer loop
   vertex 27.623121208531696 59.999 0
   vertex 2.3768788231829046 59.999 0
   vertex 2.3768788231829046 59.999 0.54
  endloop
 endfacet
 facet normal 0.0 1.0 0.0
  outer loop
   vertex 27.623121208531696 59.999 0.54
   vertex 27.623121208531696 59.999 0
   vertex 2.3768788231829046 59.999 0.54
  endloop
 endfacet
 facet normal 0.7071067791996749 -0.7071067831734201 0.0
  outer loop
   vertex 14.999999944918844 47.37587880732561 0
   vertex 27.623121208531696 59.999 0
   vertex 27.623121208531696 59.999 0.54
  endloop
 endfacet
 facet normal 0.7071067791996749 -0.7071067831734201 0.0
  outer loop
   vertex 14.999999944918844 47.37587880732561 0.54
   vertex 14.999999944918844 47.37587880732561 0
   vertex 27.623121208531696 59.999 0.54
  endloop
 endfacet
 facet normal 0.0 -0.0 1.0
  outer loop
   vertex 14.999999944918844 47.37587880732561 0.54
   vertex 27.623121208531696 59.999 0.54
   vertex 2.3768788231829046 59.999 0.54
  endloop
 endfacet
 facet normal 0.0 0.0 -1.0
  outer loop
   vertex 43.31999993824295 16.68000002253881 0
   vertex 16.67999993824294 16.68000002253881 0
   vertex 16.67999993824295 43.32000002253881 0
  endloop
 endfacet
 facet normal 0.0 0.0 -1.0
  outer loop
   vertex 43.31999993824295 16.68000002253881 0
   vertex 16.67999993824295 43.32000002253881 0
   vertex 43.31999993824295 43.32000002253881 0
  endloop
 endfacet
 facet normal 0.0 -1.0 0.0
  outer loop
   vertex 16.67999993824294 16.68000002253881 0
   vertex 43.31999993824295 16.68000002253881 0
   vertex 43.31999993824295 16.68000002253881 0.54
  endloop
 endfacet
 facet normal 0.0 -1.0 0.0
  outer loop
   vertex 16.67999993824294 16.68000002253881 0.54
   vertex 16.67999993824294 16.68000002253881 0
   vertex 43.31999993824295 16.68000002253881 0.54
  endloop
 endfacet
 facet normal -1.0 4.0008036923429065e-16 0.0
  outer loop
   vertex 16.67999993824295 43.32000002253881 0
   vertex 16.67999993824294 16.68000002253881 0
   vertex 16.67999993824294 16.68000002253881 0.54
  endloop
 endfacet
 facet normal -1.0 4.0008036923429065e-16 0.0
  outer loop
   vertex 16.67999993824295 43.32000002253881 0.54
   vertex 16.67999993824295 43.32000002253881 0
   vertex 16.67999993824294 16.68000002253881 0.54
  endloop
 endfacet
 facet normal 0.0 1.0 0.0
  outer loop
   vertex 43.31999993824295 43.32000002253881 0
   vertex 16.67999993824295 43.32000002253881 0
   vertex 16.67999993824295 43.32000002253881 0.54
  endloop
 endfacet
 facet normal 0.0 1.0 0.0
  outer loop
   vertex 43.31999993824295 43.32000002253881 0.54
   vertex 43.31999993824295 43.32000002253881 0
   vertex 16.67999993824295 43.32000002253881 0.54
  endloop
 endfacet
 facet normal 1.0 0.0 0.0
  outer loop
   vertex 43.31999993824295 16.68000002253881 0
   vertex 43.31999993824295 43.32000002253881 0
   vertex 43.31999993824295 43.32000002253881 0.54
  endloop
 endfacet
 facet normal 1.0 -0.0 0.0
  outer loop
   vertex 43.31999993824295 16.68000002253881 0.54
   vertex 43.31999993824295 16.68000002253881 0
   vertex 43.31999993824295 43.32000002253881 0.54
  endloop
 endfacet
 facet normal 0.0 0.0 1.0
  outer loop
   vertex 43.31999993824295 16.68000002253881 0.54
   vertex 16.67999993824295 43.32000002253881 0.54
   vertex 16.67999993824294 16.68000002253881 0.54
  endloop
 endfacet
 facet normal 0.0 -0.0 1.0
  outer loop
   vertex 43.31999993824295 16.68000002253881 0.54
   vertex 43.31999993824295 43.32000002253881 0.54
   vertex 16.67999993824295 43.32000002253881 0.54
  endloop
 endfacet
 facet normal 0.0 0.0 -1.0
  outer loop
   vertex 15.695878725794975 13.32000002253881 0
   vertex 40.94412116957317 13.32000002253881 0
   vertex 27.62512122188347 0.001 0
  endloop
 endfacet
 facet normal 0.0 -0.0 -1.0
  outer loop
   vertex 15.695878725794975 13.32000002253881 0
   vertex 27.62512122188347 0.001 0
   vertex 2.376878778105287 0.001 0
  endloop
 endfacet
 facet normal 0.0 1.0 0.0
  outer loop
   vertex 40.94412116957317 13.32000002253881 0
   vertex 15.695878725794975 13.32000002253881 0
   vertex 15.695878725794975 13.32000002253881 0.54
  endloop
 endfacet
 facet normal 0.0 1.0 0.0
  outer loop
   vertex 40.94412116957317 13.32000002253881 0.54
   vertex 40.94412116957317 13.32000002253881 0
   vertex 15.695878725794975 13.32000002253881 0.54
  endloop
 endfacet
 facet normal 0.7071067831734202 -0.7071067791996748 0.0
  outer loop
   vertex 27.62512122188347 0.001 0
   vertex 40.94412116957317 13.32000002253881 0
   vertex 40.94412116957317 13.32000002253881 0.54
  endloop
 endfacet
 facet normal 0.7071067831734202 -0.7071067791996748 0.0
  outer loop
   vertex 27.62512122188347 0.001 0.54
   vertex 27.62512122188347 0.001 0
   vertex 40.94412116957317 13.32000002253881 0.54
  endloop
 endfacet
 facet normal 0.0 -1.0 0.0
  outer loop
   vertex 2.376878778105287 0.001 0
   vertex 27.62512122188347 0.001 0
   vertex 27.62512122188347 0.001 0.54
  endloop
 endfacet
 facet normal 0.0 -1.0 0.0
  outer loop
   vertex 2.376878778105287 0.001 0.54
   vertex 2.376878778105287 0.001 0
   vertex 27.62512122188347 0.001 0.54
  endloop
 endfacet
 facet normal -0.7071067831734206 0.7071067791996746 0.0
  outer loop
   vertex 15.695878725794975 13.32000002253881 0
   vertex 2.376878778105287 0.001 0
   vertex 2.376878778105287 0.001 0.54
  endloop
 endfacet
 facet normal -0.7071067831734206 0.7071067791996746 0.0
  outer loop
   vertex 15.695878725794975 13.32000002253881 0.54
   vertex 15.695878725794975 13.32000002253881 0
   vertex 2.376878778105287 0.001 0.54
  endloop
 endfacet
 facet normal -0.0 0.0 1.0
  outer loop
   vertex 15.695878725794975 13.32000002253881 0.54
   vertex 27.62512122188347 0.001 0.54
   vertex 40.94412116957317 13.32000002253881 0.54
  endloop
 endfacet
 facet normal 0.0 0.0 1.0
  outer loop
   vertex 15.695878725794975 13.32000002253881 0.54
   vertex 2.376878778105287 0.001 0.54
   vertex 27.62512122188347 0.001 0.54
  endloop
 endfacet
 facet normal 0.0 0.0 -1.0
  outer loop
   vertex 46.67999993824295 15.695878810090854 0
   vertex 46.67999993824295 40.94412124525037 0
   vertex 59.999 27.6251212183165 0
  endloop
 endfacet
 facet normal 0.0 0.0 -1.0
  outer loop
   vertex 46.67999993824295 15.695878810090854 0
   vertex 59.999 27.6251212183165 0
   vertex 59.999 2.3768788231829063 0
  endloop
 endfacet
 facet normal -1.0 0.0 0.0
  outer loop
   vertex 46.67999993824295 40.94412124525037 0
   vertex 46.67999993824295 15.695878810090854 0
   vertex 46.67999993824295 15.695878810090854 0.54
  endloop
 endfacet
 facet normal -1.0 -0.0 -0.0
  outer loop
   vertex 46.67999993824295 40.94412124525037 0.54
   vertex 46.67999993824295 40.94412124525037 0
   vertex 46.67999993824295 15.695878810090854 0.54
  endloop
 endfacet
 facet normal 0.7071067802621649 0.7071067821109303 0.0
  outer loop
   vertex 59.999 27.6251212183165 0
   vertex 46.67999993824295 40.94412124525037 0
   vertex 46.67999993824295 40.94412124525037 0.54
  endloop
 endfacet
 facet normal 0.7071067802621649 0.7071067821109303 0.0
  outer loop
   vertex 59.999 27.6251212183165 0.54
   vertex 59.999 27.6251212183165 0
   vertex 46.67999993824295 40.94412124525037 0.54
  endloop
 endfacet
 facet normal 1.0 0.0 0.0
  outer loop
   vertex 59.999 2.3768788231829063 0
   vertex 59.999 27.6251212183165 0
   vertex 59.999 27.6251212183165 0.54
  endloop
 endfacet
 facet normal 1.0 -0.0 0.0
  outer loop
   vertex 59.999 2.3768788231829063 0.54
   vertex 59.999 2.3768788231829063 0
   vertex 59.999 27.6251212183165 0.54
  endloop
 endfacet
 facet normal -0.707106779199675 -0.70710678317342 0.0
  outer loop
   vertex 46.67999993824295 15.695878810090854 0
   vertex 59.999 2.3768788231829063 0
   vertex 59.999 2.3768788231829063 0.54
  endloop
 endfacet
 facet normal -0.707106779199675 -0.70710678317342 -0.0
  outer loop
   vertex 46.67999993824295 15.695878810090854 0.54
   vertex 46.67999993824295 15.695878810090854 0
   vertex 59.999 2.3768788231829063 0.54
  endloop
 endfacet
 facet normal 0.0 0.0 1.0
  outer loop
   vertex 46.67999993824295 15.695878810090854 0.54
   vertex 59.999 27.6251212183165 0.54
   vertex 46.67999993824295 40.94412124525037 0.54
  endloop
 endfacet
 facet normal -0.0 0.0 1.0
  outer loop
   vertex 46.67999993824295 15.695878810090854 0.54
   vertex 59.999 2.3768788231829063 0.54
   vertex 59.999 27.6251212183165 0.54
  endloop
 endfacet
 facet normal 0.0 0.0 -1.0
  outer loop
   vertex 13.319999938242947 44.30412124051726 0
   vertex 13.31999993824294 19.055878814823984 0
   vertex 0.0010000035684663662 32.37487878432164 0
  endloop
 endfacet
 facet normal -0.0 0.0 -1.0
  outer loop
   vertex 13.319999938242947 44.30412124051726 0
   vertex 0.0010000035684663662 32.37487878432164 0
   vertex 0.001000041506155486 57.623121212103165 0
  endloop
 endfacet
 facet normal 1.0 -2.8142265262671637e-16 0.0
  outer loop
   vertex 13.31999993824294 19.055878814823984 0
   vertex 13.319999938242947 44.30412124051726 0
   vertex 13.319999938242947 44.30412124051726 0.54
  endloop
 endfacet
 facet normal 1.0 -2.8142265262671637e-16 0.0
  outer loop
   vertex 13.31999993824294 19.055878814823984 0.54
   vertex 13.31999993824294 19.055878814823984 0
   vertex 13.319999938242947 44.30412124051726 0.54
  endloop
 endfacet
 facet normal -0.7071067821109303 -0.7071067802621649 0.0
  outer loop
   vertex 0.0010000035684663662 32.37487878432164 0
   vertex 13.31999993824294 19.055878814823984 0
   vertex 13.31999993824294 19.055878814823984 0.54
  endloop
 endfacet
 facet normal -0.7071067821109303 -0.7071067802621649 -0.0
  outer loop
   vertex 0.0010000035684663662 32.37487878432164 0.54
   vertex 0.0010000035684663662 32.37487878432164 0
   vertex 13.31999993824294 19.055878814823984 0.54
  endloop
 endfacet
 facet normal -1.0 1.5025873277423348e-09 0.0
  outer loop
   vertex 0.001000041506155486 57.623121212103165 0
   vertex 0.0010000035684663662 32.37487878432164 0
   vertex 0.0010000035684663662 32.37487878432164 0.54
  endloop
 endfacet
 facet normal -1.0 1.5025873277423348e-09 0.0
  outer loop
   vertex 0.001000041506155486 57.623121212103165 0.54
   vertex 0.001000041506155486 57.623121212103165 0
   vertex 0.0010000035684663662 32.37487878432164 0.54
  endloop
 endfacet
 facet normal 0.7071067831734202 0.7071067791996748 0.0
  outer loop
   vertex 13.319999938242947 44.30412124051726 0
   vertex 0.001000041506155486 57.623121212103165 0
   vertex 0.001000041506155486 57.623121212103165 0.54
  endloop
 endfacet
 facet normal 0.7071067831734202 0.7071067791996748 0.0
  outer loop
   vertex 13.319999938242947 44.30412124051726 0.54
   vertex 13.319999938242947 44.30412124051726 0
   vertex 0.001000041506155486 57.623121212103165 0.54
  endloop
 endfacet
 facet normal 0.0 0.0 1.0
  outer loop
   vertex 13.319999938242947 44.30412124051726 0.54
   vertex 0.0010000035684663662 32.37487878432164 0.54
   vertex 13.31999993824294 19.055878814823984 0.54
  endloop
 endfacet
 facet normal 0.0 0.0 1.0
  outer loop
   vertex 13.319999938242947 44.30412124051726 0.54
   vertex 0.001000041506155486 57.623121212103165 0.54
   vertex 0.0010000035684663662 32.37487878432164 0.54
  endloop
 endfacet
 facet normal 0.0 0.0 -1.0
  outer loop
   vertex 57.623121208531714 59.999 0
   vertex 44.30412115622141 46.680000022538806 0
   vertex 19.055878739146777 46.680000022538806 0
  endloop
 endfacet
 facet normal -0.0 0.0 -1.0
  outer loop
   vertex 57.623121208531714 59.999 0
   vertex 19.055878739146777 46.680000022538806 0
   vertex 32.37487879145708 59.999 0
  endloop
 endfacet
 facet normal 0.707106779199675 -0.70710678317342 0.0
  outer loop
   vertex 44.30412115622141 46.680000022538806 0
   vertex 57.623121208531714 59.999 0
   vertex 57.623121208531714 59.999 0.54
  endloop
 endfacet
 facet normal 0.707106779199675 -0.70710678317342 0.0
  outer loop
   vertex 44.30412115622141 46.680000022538806 0.54
   vertex 44.30412115622141 46.680000022538806 0
   vertex 57.623121208531714 59.999 0.54
  endloop
 endfacet
 facet normal 0.0 -1.0 0.0
  outer loop
   vertex 19.055878739146777 46.680000022538806 0
   vertex 44.30412115622141 46.680000022538806 0
   vertex 44.30412115622141 46.680000022538806 0.54
  endloop
 endfacet
 facet normal 0.0 -1.0 0.0
  outer loop
   vertex 19.055878739146777 46.680000022538806 0.54
   vertex 19.055878739146777 46.680000022538806 0
   vertex 44.30412115622141 46.680000022538806 0.54
  endloop
 endfacet
 facet normal -0.707106779199675 0.70710678317342 0.0
  outer loop
   vertex 32.37487879145708 59.999 0
   vertex 19.055878739146777 46.680000022538806 0
   vertex 19.055878739146777 46.680000022538806 0.54
  endloop
 endfacet
 facet normal -0.707106779199675 0.70710678317342 0.0
  outer loop
   vertex 32.37487879145708 59.999 0.54
   vertex 32.37487879145708 59.999 0
   vertex 19.055878739146777 46.680000022538806 0.54
  endloop
 endfacet
 facet normal 0.0 1.0 0.0
  outer loop
   vertex 57.623121208531714 59.999 0
   vertex 32.37487879145708 59.999 0
   vertex 32.37487879145708 59.999 0.54
  endloop
 endfacet
 facet normal 0.0 1.0 0.0
  outer loop
   vertex 57.623121208531714 59.999 0.54
   vertex 57.623121208531714 59.999 0
   vertex 32.37487879145708 59.999 0.54
  endloop
 endfacet
 facet normal 0.0 0.0 1.0
  outer loop
   vertex 57.623121208531714 59.999 0.54
   vertex 19.055878739146777 46.680000022538806 0.54
   vertex 44.30412115622141 46.680000022538806 0.54
  endloop
 endfacet
 facet normal 0.0 0.0 1.0
  outer loop
   vertex 57.623121208531714 59.999 0.54
   vertex 32.37487879145708 59.999 0.54
   vertex 19.055878739146777 46.680000022538806 0.54
  endloop
 endfacet
endsolid
