solid PyGamic generated __All_Crease__ SLA File
 facet normal 0.0 0.0 -1.0
  outer loop
   vertex 16.67999993824294 16.68000002253881 0
   vertex 43.31999993824295 16.68000002253881 0
   vertex 29.507811052625026 15.000016822538809 0
  endloop
 endfacet
 facet normal 0.0 0.0 1.0
  outer loop
   vertex 43.31999993824295 16.68000002253881 0
   vertex 28.8122056333019 15.000016822538809 0
   vertex 29.507811052625026 15.000016822538809 0
  endloop
 endfacet
 facet normal 0.0 0.0 -1.0
  outer loop
   vertex 43.31999993824295 16.68000002253881 0
   vertex 40.94412116957317 13.32000002253881 0
   vertex 28.8122056333019 15.000016822538809 0
  endloop
 endfacet
 facet normal 0.0 0.0 1.0
  outer loop
   vertex 40.94412116957317 13.32000002253881 0
   vertex 29.50805369383734 14.99998322253881 0
   vertex 28.8122056333019 15.000016822538809 0
  endloop
 endfacet
 facet normal 0.0 0.0 -1.0
  outer loop
   vertex 40.94412116957317 13.32000002253881 0
   vertex 15.695878725794975 13.32000002253881 0
   vertex 29.50805369383734 14.99998322253881 0
  endloop
 endfacet
 facet normal 0.0 0.0 -1.0
  outer loop
   vertex 15.695878725794975 13.32000002253881 0
   vertex 28.811929392089773 14.99998322253881 0
   vertex 29.50805369383734 14.99998322253881 0
  endloop
 endfacet
 facet normal 0.0 0.0 -1.0
  outer loop
   vertex 15.695878725794975 13.32000002253881 0
   vertex 16.67999993824294 16.68000002253881 0
   vertex 28.811929392089773 14.99998322253881 0
  endloop
 endfacet
 facet normal 0.0 0.0 -1.0
  outer loop
   vertex 16.67999993824294 16.68000002253881 0
   vertex 29.507811052625026 15.000016822538809 0
   vertex 28.811929392089773 14.99998322253881 0
  endloop
 endfacet
 facet normal 0.0 1.0 0.0
  outer loop
   vertex 43.31999993824295 16.68000002253881 0
   vertex 16.67999993824294 16.68000002253881 0
   vertex 16.67999993824294 16.68000002253881 0.54
  endloop
 endfacet
 facet normal 0.0 1.0 0.0
  outer loop
   vertex 43.31999993824295 16.68000002253881 0.54
   vertex 43.31999993824295 16.68000002253881 0
   vertex 16.67999993824294 16.68000002253881 0.54
  endloop
 endfacet
 facet normal 0.8164965827739892 -0.5773502665786154 0.0
  outer loop
   vertex 40.94412116957317 13.32000002253881 0
   vertex 43.31999993824295 16.68000002253881 0
   vertex 43.31999993824295 16.68000002253881 0.54
  endloop
 endfacet
 facet normal 0.8164965827739892 -0.5773502665786154 0.0
  outer loop
   vertex 40.94412116957317 13.32000002253881 0.54
   vertex 40.94412116957317 13.32000002253881 0
   vertex 43.31999993824295 16.68000002253881 0.54
  endloop
 endfacet
 facet normal 0.0 -1.0 0.0
  outer loop
   vertex 15.695878725794975 13.32000002253881 0
   vertex 40.94412116957317 13.32000002253881 0
   vertex 40.94412116957317 13.32000002253881 0.54
  endloop
 endfacet
 facet normal 0.0 -1.0 0.0
  outer loop
   vertex 15.695878725794975 13.32000002253881 0.54
   vertex 15.695878725794975 13.32000002253881 0
   vertex 40.94412116957317 13.32000002253881 0.54
  endloop
 endfacet
 facet normal -0.9596829824737192 0.2810846369874155 0.0
  outer loop
   vertex 16.67999993824294 16.68000002253881 0
   vertex 15.695878725794975 13.32000002253881 0
   vertex 15.695878725794975 13.32000002253881 0.54
  endloop
 endfacet
 facet normal -0.9596829824737192 0.2810846369874155 0.0
  outer loop
   vertex 16.67999993824294 16.68000002253881 0.54
   vertex 16.67999993824294 16.68000002253881 0
   vertex 15.695878725794975 13.32000002253881 0.54
  endloop
 endfacet
 facet normal 0.0 1.0 -0.0
  outer loop
   vertex 29.507811052625026 15.000016822538809 0
   vertex 28.8122056333019 15.000016822538809 0
   vertex 29.507811052625026 15.000016822538809 0.54
  endloop
 endfacet
 facet normal 0.0 1.0 0.0
  outer loop
   vertex 28.8122056333019 15.000016822538809 0
   vertex 28.8122056333019 15.000016822538809 0.54
   vertex 29.507811052625026 15.000016822538809 0.54
  endloop
 endfacet
 facet normal -4.82864031169056e-05 -0.9999999988342116 0.0
  outer loop
   vertex 28.8122056333019 15.000016822538809 0
   vertex 29.50805369383734 14.99998322253881 0
   vertex 28.8122056333019 15.000016822538809 0.54
  endloop
 endfacet
 facet normal -4.82864031169056e-05 -0.9999999988342116 0.0
  outer loop
   vertex 29.50805369383734 14.99998322253881 0
   vertex 29.50805369383734 14.99998322253881 0.54
   vertex 28.8122056333019 15.000016822538809 0.54
  endloop
 endfacet
 facet normal 0.0 1.0 -0.0
  outer loop
   vertex 29.50805369383734 14.99998322253881 0
   vertex 28.811929392089773 14.99998322253881 0
   vertex 29.50805369383734 14.99998322253881 0.54
  endloop
 endfacet
 facet normal 0.0 1.0 0.0
  outer loop
   vertex 28.811929392089773 14.99998322253881 0
   vertex 28.811929392089773 14.99998322253881 0.54
   vertex 29.50805369383734 14.99998322253881 0.54
  endloop
 endfacet
 facet normal 4.8284071652773186e-05 -0.9999999988343242 0.0
  outer loop
   vertex 28.811929392089773 14.99998322253881 0
   vertex 29.507811052625026 15.000016822538809 0
   vertex 28.811929392089773 14.99998322253881 0.54
  endloop
 endfacet
 facet normal 4.8284071652773186e-05 -0.9999999988343242 0.0
  outer loop
   vertex 29.507811052625026 15.000016822538809 0
   vertex 29.507811052625026 15.000016822538809 0.54
   vertex 28.811929392089773 14.99998322253881 0.54
  endloop
 endfacet
 facet normal 0.0 0.0 1.0
  outer loop
   vertex 43.31999993824295 16.68000002253881 0.54
   vertex 16.67999993824294 16.68000002253881 0.54
   vertex 29.507811052625026 15.000016822538809 0.54
  endloop
 endfacet
 facet normal 0.0 0.0 -1.0
  outer loop
   vertex 28.8122056333019 15.000016822538809 0.54
   vertex 43.31999993824295 16.68000002253881 0.54
   vertex 29.507811052625026 15.000016822538809 0.54
  endloop
 endfacet
 facet normal 0.0 -0.0 1.0
  outer loop
   vertex 40.94412116957317 13.32000002253881 0.54
   vertex 43.31999993824295 16.68000002253881 0.54
   vertex 28.8122056333019 15.000016822538809 0.54
  endloop
 endfacet
 facet normal -0.0 -0.0 -1.0
  outer loop
   vertex 29.50805369383734 14.99998322253881 0.54
   vertex 40.94412116957317 13.32000002253881 0.54
   vertex 28.8122056333019 15.000016822538809 0.54
  endloop
 endfacet
 facet normal 0.0 0.0 1.0
  outer loop
   vertex 15.695878725794975 13.32000002253881 0.54
   vertex 40.94412116957317 13.32000002253881 0.54
   vertex 29.50805369383734 14.99998322253881 0.54
  endloop
 endfacet
 facet normal -0.0 0.0 1.0
  outer loop
   vertex 28.811929392089773 14.99998322253881 0.54
   vertex 15.695878725794975 13.32000002253881 0.54
   vertex 29.50805369383734 14.99998322253881 0.54
  endloop
 endfacet
 facet normal 0.0 0.0 1.0
  outer loop
   vertex 16.67999993824294 16.68000002253881 0.54
   vertex 15.695878725794975 13.32000002253881 0.54
   vertex 28.811929392089773 14.99998322253881 0.54
  endloop
 endfacet
 facet normal 0.0 0.0 1.0
  outer loop
   vertex 29.507811052625026 15.000016822538809 0.54
   vertex 16.67999993824294 16.68000002253881 0.54
   vertex 28.811929392089773 14.99998322253881 0.54
  endloop
 endfacet
 facet normal 0.0 0.0 -1.0
  outer loop
   vertex 43.31999993824295 16.68000002253881 0
   vertex 43.31999993824295 43.32000002253881 0
   vertex 44.99998313824295 29.507811136920893 0
  endloop
 endfacet
 facet normal 0.0 0.0 1.0
  outer loop
   vertex 43.31999993824295 43.32000002253881 0
   vertex 44.99998313824295 28.812205713288478 0
   vertex 44.99998313824295 29.507811136920893 0
  endloop
 endfacet
 facet normal 0.0 0.0 -1.0
  outer loop
   vertex 43.31999993824295 43.32000002253881 0
   vertex 46.67999993824295 40.94412124525037 0
   vertex 44.99998313824295 28.812205713288478 0
  endloop
 endfacet
 facet normal 0.0 0.0 1.0
  outer loop
   vertex 46.67999993824295 40.94412124525037 0
   vertex 45.00001673824295 29.508053778133117 0
   vertex 44.99998313824295 28.812205713288478 0
  endloop
 endfacet
 facet normal 0.0 -0.0 -1.0
  outer loop
   vertex 46.67999993824295 40.94412124525037 0
   vertex 46.67999993824295 15.695878810090854 0
   vertex 45.00001673824295 29.508053778133117 0
  endloop
 endfacet
 facet normal 0.0 0.0 -1.0
  outer loop
   vertex 46.67999993824295 15.695878810090854 0
   vertex 45.00001673824295 28.81192947207635 0
   vertex 45.00001673824295 29.508053778133117 0
  endloop
 endfacet
 facet normal 0.0 0.0 -1.0
  outer loop
   vertex 46.67999993824295 15.695878810090854 0
   vertex 43.31999993824295 16.68000002253881 0
   vertex 45.00001673824295 28.81192947207635 0
  endloop
 endfacet
 facet normal 0.0 0.0 -1.0
  outer loop
   vertex 43.31999993824295 16.68000002253881 0
   vertex 44.99998313824295 29.507811136920893 0
   vertex 45.00001673824295 28.81192947207635 0
  endloop
 endfacet
 facet normal -1.0 0.0 0.0
  outer loop
   vertex 43.31999993824295 43.32000002253881 0
   vertex 43.31999993824295 16.68000002253881 0
   vertex 43.31999993824295 16.68000002253881 0.54
  endloop
 endfacet
 facet normal -1.0 -0.0 -0.0
  outer loop
   vertex 43.31999993824295 43.32000002253881 0.54
   vertex 43.31999993824295 43.32000002253881 0
   vertex 43.31999993824295 16.68000002253881 0.54
  endloop
 endfacet
 facet normal 0.577350267974866 0.8164965817866908 0.0
  outer loop
   vertex 46.67999993824295 40.94412124525037 0
   vertex 43.31999993824295 43.32000002253881 0
   vertex 43.31999993824295 43.32000002253881 0.54
  endloop
 endfacet
 facet normal 0.577350267974866 0.8164965817866908 0.0
  outer loop
   vertex 46.67999993824295 40.94412124525037 0.54
   vertex 46.67999993824295 40.94412124525037 0
   vertex 43.31999993824295 43.32000002253881 0.54
  endloop
 endfacet
 facet normal 1.0 0.0 0.0
  outer loop
   vertex 46.67999993824295 15.695878810090854 0
   vertex 46.67999993824295 40.94412124525037 0
   vertex 46.67999993824295 40.94412124525037 0.54
  endloop
 endfacet
 facet normal 1.0 -0.0 0.0
  outer loop
   vertex 46.67999993824295 15.695878810090854 0.54
   vertex 46.67999993824295 15.695878810090854 0
   vertex 46.67999993824295 40.94412124525037 0.54
  endloop
 endfacet
 facet normal -0.28108463698741315 -0.9596829824737199 0.0
  outer loop
   vertex 43.31999993824295 16.68000002253881 0
   vertex 46.67999993824295 15.695878810090854 0
   vertex 46.67999993824295 15.695878810090854 0.54
  endloop
 endfacet
 facet normal -0.28108463698741315 -0.9596829824737199 -0.0
  outer loop
   vertex 43.31999993824295 16.68000002253881 0.54
   vertex 43.31999993824295 16.68000002253881 0
   vertex 46.67999993824295 15.695878810090854 0.54
  endloop
 endfacet
 facet normal -1.0 0.0 0.0
  outer loop
   vertex 44.99998313824295 29.507811136920893 0
   vertex 44.99998313824295 28.812205713288478 0
   vertex 44.99998313824295 29.507811136920893 0.54
  endloop
 endfacet
 facet normal -1.0 0.0 0.0
  outer loop
   vertex 44.99998313824295 28.812205713288478 0
   vertex 44.99998313824295 28.812205713288478 0.54
   vertex 44.99998313824295 29.507811136920893 0.54
  endloop
 endfacet
 facet normal 0.9999999988342116 -4.8286402812775294e-05 0.0
  outer loop
   vertex 44.99998313824295 28.812205713288478 0
   vertex 45.00001673824295 29.508053778133117 0
   vertex 44.99998313824295 28.812205713288478 0.54
  endloop
 endfacet
 facet normal 0.9999999988342116 -4.8286402812775294e-05 0.0
  outer loop
   vertex 45.00001673824295 29.508053778133117 0
   vertex 45.00001673824295 29.508053778133117 0.54
   vertex 44.99998313824295 28.812205713288478 0.54
  endloop
 endfacet
 facet normal -1.0 0.0 0.0
  outer loop
   vertex 45.00001673824295 29.508053778133117 0
   vertex 45.00001673824295 28.81192947207635 0
   vertex 45.00001673824295 29.508053778133117 0.54
  endloop
 endfacet
 facet normal -1.0 0.0 0.0
  outer loop
   vertex 45.00001673824295 28.81192947207635 0
   vertex 45.00001673824295 28.81192947207635 0.54
   vertex 45.00001673824295 29.508053778133117 0.54
  endloop
 endfacet
 facet normal 0.9999999988343242 4.8284071348665834e-05 -0.0
  outer loop
   vertex 45.00001673824295 28.81192947207635 0
   vertex 44.99998313824295 29.507811136920893 0
   vertex 45.00001673824295 28.81192947207635 0.54
  endloop
 endfacet
 facet normal 0.9999999988343242 4.8284071348665834e-05 -0.0
  outer loop
   vertex 44.99998313824295 29.507811136920893 0
   vertex 44.99998313824295 29.507811136920893 0.54
   vertex 45.00001673824295 28.81192947207635 0.54
  endloop
 endfacet
 facet normal 0.0 0.0 1.0
  outer loop
   vertex 43.31999993824295 43.32000002253881 0.54
   vertex 43.31999993824295 16.68000002253881 0.54
   vertex 44.99998313824295 29.507811136920893 0.54
  endloop
 endfacet
 facet normal 0.0 0.0 -1.0
  outer loop
   vertex 44.99998313824295 28.812205713288478 0.54
   vertex 43.31999993824295 43.32000002253881 0.54
   vertex 44.99998313824295 29.507811136920893 0.54
  endloop
 endfacet
 facet normal 0.0 0.0 1.0
  outer loop
   vertex 46.67999993824295 40.94412124525037 0.54
   vertex 43.31999993824295 43.32000002253881 0.54
   vertex 44.99998313824295 28.812205713288478 0.54
  endloop
 endfacet
 facet normal 0.0 -0.0 -1.0
  outer loop
   vertex 45.00001673824295 29.508053778133117 0.54
   vertex 46.67999993824295 40.94412124525037 0.54
   vertex 44.99998313824295 28.812205713288478 0.54
  endloop
 endfacet
 facet normal 0.0 -0.0 1.0
  outer loop
   vertex 46.67999993824295 15.695878810090854 0.54
   vertex 46.67999993824295 40.94412124525037 0.54
   vertex 45.00001673824295 29.508053778133117 0.54
  endloop
 endfacet
 facet normal -0.0 0.0 1.0
  outer loop
   vertex 45.00001673824295 28.81192947207635 0.54
   vertex 46.67999993824295 15.695878810090854 0.54
   vertex 45.00001673824295 29.508053778133117 0.54
  endloop
 endfacet
 facet normal -0.0 0.0 1.0
  outer loop
   vertex 43.31999993824295 16.68000002253881 0.54
   vertex 46.67999993824295 15.695878810090854 0.54
   vertex 45.00001673824295 28.81192947207635 0.54
  endloop
 endfacet
 facet normal 0.0 0.0 1.0
  outer loop
   vertex 44.99998313824295 29.507811136920893 0.54
   vertex 43.31999993824295 16.68000002253881 0.54
   vertex 45.00001673824295 28.81192947207635 0.54
  endloop
 endfacet
 facet normal 0.0 0.0 -1.0
  outer loop
   vertex 16.67999993824295 43.32000002253881 0
   vertex 16.67999993824294 16.68000002253881 0
   vertex 15.000016738242943 30.492188910921946 0
  endloop
 endfacet
 facet normal 0.0 0.0 1.0
  outer loop
   vertex 16.67999993824294 16.68000002253881 0
   vertex 15.000016738242945 31.187794339287436 0
   vertex 15.000016738242943 30.492188910921946 0
  endloop
 endfacet
 facet normal 0.0 0.0 -1.0
  outer loop
   vertex 16.67999993824294 16.68000002253881 0
   vertex 13.31999993824294 19.055878814823984 0
   vertex 15.000016738242945 31.187794339287436 0
  endloop
 endfacet
 facet normal 0.0 0.0 1.0
  outer loop
   vertex 13.31999993824294 19.055878814823984 0
   vertex 14.999983138242944 30.49194626970987 0
   vertex 15.000016738242945 31.187794339287436 0
  endloop
 endfacet
 facet normal 0.0 0.0 -1.0
  outer loop
   vertex 13.31999993824294 19.055878814823984 0
   vertex 13.319999938242947 44.30412124051726 0
   vertex 14.999983138242944 30.49194626970987 0
  endloop
 endfacet
 facet normal 0.0 0.0 -1.0
  outer loop
   vertex 13.319999938242947 44.30412124051726 0
   vertex 14.999983138242946 31.188070580499613 0
   vertex 14.999983138242944 30.49194626970987 0
  endloop
 endfacet
 facet normal 0.0 0.0 -1.0
  outer loop
   vertex 13.319999938242947 44.30412124051726 0
   vertex 16.67999993824295 43.32000002253881 0
   vertex 14.999983138242946 31.188070580499613 0
  endloop
 endfacet
 facet normal 0.0 0.0 -1.0
  outer loop
   vertex 16.67999993824295 43.32000002253881 0
   vertex 15.000016738242943 30.492188910921946 0
   vertex 14.999983138242946 31.188070580499613 0
  endloop
 endfacet
 facet normal 1.0 -4.0008036923429065e-16 0.0
  outer loop
   vertex 16.67999993824294 16.68000002253881 0
   vertex 16.67999993824295 43.32000002253881 0
   vertex 16.67999993824295 43.32000002253881 0.54
  endloop
 endfacet
 facet normal 1.0 -4.0008036923429065e-16 0.0
  outer loop
   vertex 16.67999993824294 16.68000002253881 0.54
   vertex 16.67999993824294 16.68000002253881 0
   vertex 16.67999993824295 43.32000002253881 0.54
  endloop
 endfacet
 facet normal -0.5773502704043871 -0.8164965800687599 0.0
  outer loop
   vertex 13.31999993824294 19.055878814823984 0
   vertex 16.67999993824294 16.68000002253881 0
   vertex 16.67999993824294 16.68000002253881 0.54
  endloop
 endfacet
 facet normal -0.5773502704043871 -0.8164965800687599 -0.0
  outer loop
   vertex 13.31999993824294 19.055878814823984 0.54
   vertex 13.31999993824294 19.055878814823984 0
   vertex 16.67999993824294 16.68000002253881 0.54
  endloop
 endfacet
 facet normal -1.0 2.8142265262671637e-16 0.0
  outer loop
   vertex 13.319999938242947 44.30412124051726 0
   vertex 13.31999993824294 19.055878814823984 0
   vertex 13.31999993824294 19.055878814823984 0.54
  endloop
 endfacet
 facet normal -1.0 2.8142265262671637e-16 0.0
  outer loop
   vertex 13.319999938242947 44.30412124051726 0.54
   vertex 13.319999938242947 44.30412124051726 0
   vertex 13.31999993824294 19.055878814823984 0.54
  endloop
 endfacet
 facet normal 0.28108463844223 0.9596829820476139 0.0
  outer loop
   vertex 16.67999993824295 43.32000002253881 0
   vertex 13.319999938242947 44.30412124051726 0
   vertex 13.319999938242947 44.30412124051726 0.54
  endloop
 endfacet
 facet normal 0.28108463844223 0.9596829820476139 0.0
  outer loop
   vertex 16.67999993824295 43.32000002253881 0.54
   vertex 16.67999993824295 43.32000002253881 0
   vertex 13.319999938242947 44.30412124051726 0.54
  endloop
 endfacet
 facet normal 1.0 -2.5536845558757e-15 0.0
  outer loop
   vertex 15.000016738242943 30.492188910921946 0
   vertex 15.000016738242945 31.187794339287436 0
   vertex 15.000016738242943 30.492188910921946 0.54
  endloop
 endfacet
 facet normal 1.0 -2.5536845558757e-15 0.0
  outer loop
   vertex 15.000016738242945 31.187794339287436 0
   vertex 15.000016738242945 31.187794339287436 0.54
   vertex 15.000016738242943 30.492188910921946 0.54
  endloop
 endfacet
 facet normal -0.9999999988342116 4.8286402492005767e-05 0.0
  outer loop
   vertex 15.000016738242945 31.187794339287436 0
   vertex 14.999983138242944 30.49194626970987 0
   vertex 15.000016738242945 31.187794339287436 0.54
  endloop
 endfacet
 facet normal -0.9999999988342116 4.8286402492005767e-05 0.0
  outer loop
   vertex 14.999983138242944 30.49194626970987 0
   vertex 14.999983138242944 30.49194626970987 0.54
   vertex 15.000016738242945 31.187794339287436 0.54
  endloop
 endfacet
 facet normal 1.0 -2.551781071092033e-15 0.0
  outer loop
   vertex 14.999983138242944 30.49194626970987 0
   vertex 14.999983138242946 31.188070580499613 0
   vertex 14.999983138242944 30.49194626970987 0.54
  endloop
 endfacet
 facet normal 1.0 -2.551781071092033e-15 0.0
  outer loop
   vertex 14.999983138242946 31.188070580499613 0
   vertex 14.999983138242946 31.188070580499613 0.54
   vertex 14.999983138242944 30.49194626970987 0.54
  endloop
 endfacet
 facet normal -0.9999999988343242 -4.8284071022808505e-05 0.0
  outer loop
   vertex 14.999983138242946 31.188070580499613 0
   vertex 15.000016738242943 30.492188910921946 0
   vertex 14.999983138242946 31.188070580499613 0.54
  endloop
 endfacet
 facet normal -0.9999999988343242 -4.8284071022808505e-05 0.0
  outer loop
   vertex 15.000016738242943 30.492188910921946 0
   vertex 15.000016738242943 30.492188910921946 0.54
   vertex 14.999983138242946 31.188070580499613 0.54
  endloop
 endfacet
 facet normal 0.0 -0.0 1.0
  outer loop
   vertex 16.67999993824294 16.68000002253881 0.54
   vertex 16.67999993824295 43.32000002253881 0.54
   vertex 15.000016738242943 30.492188910921946 0.54
  endloop
 endfacet
 facet normal 0.0 -0.0 -1.0
  outer loop
   vertex 15.000016738242945 31.187794339287436 0.54
   vertex 16.67999993824294 16.68000002253881 0.54
   vertex 15.000016738242943 30.492188910921946 0.54
  endloop
 endfacet
 facet normal -0.0 0.0 1.0
  outer loop
   vertex 13.31999993824294 19.055878814823984 0.54
   vertex 16.67999993824294 16.68000002253881 0.54
   vertex 15.000016738242945 31.187794339287436 0.54
  endloop
 endfacet
 facet normal -0.0 0.0 -1.0
  outer loop
   vertex 14.999983138242944 30.49194626970987 0.54
   vertex 13.31999993824294 19.055878814823984 0.54
   vertex 15.000016738242945 31.187794339287436 0.54
  endloop
 endfacet
 facet normal 0.0 0.0 1.0
  outer loop
   vertex 13.319999938242947 44.30412124051726 0.54
   vertex 13.31999993824294 19.055878814823984 0.54
   vertex 14.999983138242944 30.49194626970987 0.54
  endloop
 endfacet
 facet normal 0.0 0.0 1.0
  outer loop
   vertex 14.999983138242946 31.188070580499613 0.54
   vertex 13.319999938242947 44.30412124051726 0.54
   vertex 14.999983138242944 30.49194626970987 0.54
  endloop
 endfacet
 facet normal 0.0 0.0 1.0
  outer loop
   vertex 16.67999993824295 43.32000002253881 0.54
   vertex 13.319999938242947 44.30412124051726 0.54
   vertex 14.999983138242946 31.188070580499613 0.54
  endloop
 endfacet
 facet normal 0.0 -0.0 1.0
  outer loop
   vertex 15.000016738242943 30.492188910921946 0.54
   vertex 16.67999993824295 43.32000002253881 0.54
   vertex 14.999983138242946 31.188070580499613 0.54
  endloop
 endfacet
 facet normal 0.0 0.0 -1.0
  outer loop
   vertex 12.624121158347048 15.000000020753834 0
   vertex 0.0010000000000033149 27.62312121210465 0
   vertex 6.660559605333364 23.33941661846439 0
  endloop
 endfacet
 facet normal 0.0 0.0 -1.0
  outer loop
   vertex 0.0010000000000033149 27.62312121210465 0
   vertex 6.312497465351948 23.68747875935583 0
   vertex 6.660559605333364 23.33941661846439 0
  endloop
 endfacet
 facet normal 0.0 0.0 -1.0
  outer loop
   vertex 0.0010000000000033149 27.62312121210465 0
   vertex 0.0010000035684663662 32.37487878432164 0
   vertex 6.312497465351948 23.68747875935583 0
  endloop
 endfacet
 facet normal 0.0 0.0 -1.0
  outer loop
   vertex 0.0010000035684663662 32.37487878432164 0
   vertex 6.660433374121817 23.339590367252026 0
   vertex 6.312497465351948 23.68747875935583 0
  endloop
 endfacet
 facet normal 0.0 0.0 -1.0
  outer loop
   vertex 0.0010000035684663662 32.37487878432164 0
   vertex 13.31999993824294 19.055878814823984 0
   vertex 6.660433374121817 23.339590367252026 0
  endloop
 endfacet
 facet normal 0.0 0.0 1.0
  outer loop
   vertex 13.31999993824294 19.055878814823984 0
   vertex 6.312630655351329 23.68739308693186 0
   vertex 6.660433374121817 23.339590367252026 0
  endloop
 endfacet
 facet normal -0.0 0.0 -1.0
  outer loop
   vertex 13.31999993824294 19.055878814823984 0
   vertex 12.624121158347048 15.000000020753834 0
   vertex 6.312630655351329 23.68739308693186 0
  endloop
 endfacet
 facet normal 0.0 0.0 1.0
  outer loop
   vertex 12.624121158347048 15.000000020753834 0
   vertex 6.660559605333364 23.33941661846439 0
   vertex 6.312630655351329 23.68739308693186 0
  endloop
 endfacet
 facet normal -0.7071067821109303 -0.7071067802621648 0.0
  outer loop
   vertex 0.0010000000000033149 27.62312121210465 0
   vertex 12.624121158347048 15.000000020753834 0
   vertex 12.624121158347048 15.000000020753834 0.54
  endloop
 endfacet
 facet normal -0.7071067821109303 -0.7071067802621648 -0.0
  outer loop
   vertex 0.0010000000000033149 27.62312121210465 0.54
   vertex 0.0010000000000033149 27.62312121210465 0
   vertex 12.624121158347048 15.000000020753834 0.54
  endloop
 endfacet
 facet normal -1.0 7.50977506128298e-10 0.0
  outer loop
   vertex 0.0010000035684663662 32.37487878432164 0
   vertex 0.0010000000000033149 27.62312121210465 0
   vertex 0.0010000000000033149 27.62312121210465 0.54
  endloop
 endfacet
 facet normal -1.0 7.50977506128298e-10 0.0
  outer loop
   vertex 0.0010000035684663662 32.37487878432164 0.54
   vertex 0.0010000035684663662 32.37487878432164 0
   vertex 0.0010000000000033149 27.62312121210465 0.54
  endloop
 endfacet
 facet normal 0.7071067821109303 0.7071067802621649 0.0
  outer loop
   vertex 13.31999993824294 19.055878814823984 0
   vertex 0.0010000035684663662 32.37487878432164 0
   vertex 0.0010000035684663662 32.37487878432164 0.54
  endloop
 endfacet
 facet normal 0.7071067821109303 0.7071067802621649 0.0
  outer loop
   vertex 13.31999993824294 19.055878814823984 0.54
   vertex 13.31999993824294 19.055878814823984 0
   vertex 0.0010000035684663662 32.37487878432164 0.54
  endloop
 endfacet
 facet normal 0.985598559916083 -0.16910197719525094 0.0
  outer loop
   vertex 12.624121158347048 15.000000020753834 0
   vertex 13.31999993824294 19.055878814823984 0
   vertex 13.31999993824294 19.055878814823984 0.54
  endloop
 endfacet
 facet normal 0.985598559916083 -0.16910197719525094 0.0
  outer loop
   vertex 12.624121158347048 15.000000020753834 0.54
   vertex 12.624121158347048 15.000000020753834 0
   vertex 13.31999993824294 19.055878814823984 0.54
  endloop
 endfacet
 facet normal 0.7071067821109279 0.7071067802621673 -0.0
  outer loop
   vertex 6.660559605333364 23.33941661846439 0
   vertex 6.312497465351948 23.68747875935583 0
   vertex 6.660559605333364 23.33941661846439 0.54
  endloop
 endfacet
 facet normal 0.7071067821109279 0.7071067802621673 -0.0
  outer loop
   vertex 6.312497465351948 23.68747875935583 0
   vertex 6.312497465351948 23.68747875935583 0.54
   vertex 6.660559605333364 23.33941661846439 0.54
  endloop
 endfacet
 facet normal -0.7070584924103508 -0.707155066665298 0.0
  outer loop
   vertex 6.312497465351948 23.68747875935583 0
   vertex 6.660433374121817 23.339590367252026 0
   vertex 6.312497465351948 23.68747875935583 0.54
  endloop
 endfacet
 facet normal -0.7070584924103508 -0.707155066665298 0.0
  outer loop
   vertex 6.660433374121817 23.339590367252026 0
   vertex 6.660433374121817 23.339590367252026 0.54
   vertex 6.312497465351948 23.68747875935583 0.54
  endloop
 endfacet
 facet normal 0.7071067821109284 0.7071067802621667 -0.0
  outer loop
   vertex 6.660433374121817 23.339590367252026 0
   vertex 6.312630655351329 23.68739308693186 0
   vertex 6.660433374121817 23.339590367252026 0.54
  endloop
 endfacet
 facet normal 0.7071067821109284 0.7071067802621667 -0.0
  outer loop
   vertex 6.312630655351329 23.68739308693186 0
   vertex 6.312630655351329 23.68739308693186 0.54
   vertex 6.660433374121817 23.339590367252026 0.54
  endloop
 endfacet
 facet normal -0.7071550628856649 -0.7070584961905 0.0
  outer loop
   vertex 6.312630655351329 23.68739308693186 0
   vertex 6.660559605333364 23.33941661846439 0
   vertex 6.312630655351329 23.68739308693186 0.54
  endloop
 endfacet
 facet normal -0.7071550628856649 -0.7070584961905 0.0
  outer loop
   vertex 6.660559605333364 23.33941661846439 0
   vertex 6.660559605333364 23.33941661846439 0.54
   vertex 6.312630655351329 23.68739308693186 0.54
  endloop
 endfacet
 facet normal 0.0 0.0 1.0
  outer loop
   vertex 0.0010000000000033149 27.62312121210465 0.54
   vertex 12.624121158347048 15.000000020753834 0.54
   vertex 6.660559605333364 23.33941661846439 0.54
  endloop
 endfacet
 facet normal 0.0 0.0 1.0
  outer loop
   vertex 6.312497465351948 23.68747875935583 0.54
   vertex 0.0010000000000033149 27.62312121210465 0.54
   vertex 6.660559605333364 23.33941661846439 0.54
  endloop
 endfacet
 facet normal 0.0 0.0 1.0
  outer loop
   vertex 0.0010000035684663662 32.37487878432164 0.54
   vertex 0.0010000000000033149 27.62312121210465 0.54
   vertex 6.312497465351948 23.68747875935583 0.54
  endloop
 endfacet
 facet normal 0.0 0.0 1.0
  outer loop
   vertex 6.660433374121817 23.339590367252026 0.54
   vertex 0.0010000035684663662 32.37487878432164 0.54
   vertex 6.312497465351948 23.68747875935583 0.54
  endloop
 endfacet
 facet normal 0.0 0.0 1.0
  outer loop
   vertex 13.31999993824294 19.055878814823984 0.54
   vertex 0.0010000035684663662 32.37487878432164 0.54
   vertex 6.660433374121817 23.339590367252026 0.54
  endloop
 endfacet
 facet normal 0.0 0.0 -1.0
  outer loop
   vertex 6.312630655351329 23.68739308693186 0.54
   vertex 13.31999993824294 19.055878814823984 0.54
   vertex 6.660433374121817 23.339590367252026 0.54
  endloop
 endfacet
 facet normal 0.0 -0.0 1.0
  outer loop
   vertex 12.624121158347048 15.000000020753834 0.54
   vertex 13.31999993824294 19.055878814823984 0.54
   vertex 6.312630655351329 23.68739308693186 0.54
  endloop
 endfacet
 facet normal -0.0 -0.0 -1.0
  outer loop
   vertex 6.660559605333364 23.33941661846439 0.54
   vertex 12.624121158347048 15.000000020753834 0.54
   vertex 6.312630655351329 23.68739308693186 0.54
  endloop
 endfacet
 facet normal 0.0 0.0 -1.0
  outer loop
   vertex 0.0010000000000002852 2.3768787914683127 0
   vertex 12.624121158347048 15.000000020753834 0
   vertex 7.500424973226486 7.500448774164728 0
  endloop
 endfacet
 facet normal 0.0 0.0 -1.0
  outer loop
   vertex 12.624121158347048 15.000000020753834 0
   vertex 7.8484871197154416 7.848510922609698 0
   vertex 7.500424973226486 7.500448774164728 0
  endloop
 endfacet
 facet normal 0.0 -0.0 -1.0
  outer loop
   vertex 12.624121158347048 15.000000020753834 0
   vertex 15.695878725794975 13.32000002253881 0
   vertex 7.8484871197154416 7.848510922609698 0
  endloop
 endfacet
 facet normal 0.0 0.0 -1.0
  outer loop
   vertex 15.695878725794975 13.32000002253881 0
   vertex 7.500581922013742 7.500558205377039 0
   vertex 7.8484871197154416 7.848510922609698 0
  endloop
 endfacet
 facet normal 0.0 0.0 -1.0
  outer loop
   vertex 15.695878725794975 13.32000002253881 0
   vertex 2.376878778105287 0.001 0
   vertex 7.500581922013742 7.500558205377039 0
  endloop
 endfacet
 facet normal 0.0 0.0 1.0
  outer loop
   vertex 2.376878778105287 0.001 0
   vertex 7.84838464729164 7.848360932609492 0
   vertex 7.500581922013742 7.500558205377039 0
  endloop
 endfacet
 facet normal 0.0 0.0 -1.0
  outer loop
   vertex 2.376878778105287 0.001 0
   vertex 0.0010000000000002852 2.3768787914683127 0
   vertex 7.84838464729164 7.848360932609492 0
  endloop
 endfacet
 facet normal 0.0 0.0 1.0
  outer loop
   vertex 0.0010000000000002852 2.3768787914683127 0
   vertex 7.500424973226486 7.500448774164728 0
   vertex 7.84838464729164 7.848360932609492 0
  endloop
 endfacet
 facet normal -0.7071067831734205 0.7071067791996746 0.0
  outer loop
   vertex 12.624121158347048 15.000000020753834 0
   vertex 0.0010000000000002852 2.3768787914683127 0
   vertex 0.0010000000000002852 2.3768787914683127 0.54
  endloop
 endfacet
 facet normal -0.7071067831734205 0.7071067791996746 0.0
  outer loop
   vertex 12.624121158347048 15.000000020753834 0.54
   vertex 12.624121158347048 15.000000020753834 0
   vertex 0.0010000000000002852 2.3768787914683127 0.54
  endloop
 endfacet
 facet normal 0.4798414909934934 0.8773551980362009 0.0
  outer loop
   vertex 15.695878725794975 13.32000002253881 0
   vertex 12.624121158347048 15.000000020753834 0
   vertex 12.624121158347048 15.000000020753834 0.54
  endloop
 endfacet
 facet normal 0.4798414909934934 0.8773551980362009 0.0
  outer loop
   vertex 15.695878725794975 13.32000002253881 0.54
   vertex 15.695878725794975 13.32000002253881 0
   vertex 12.624121158347048 15.000000020753834 0.54
  endloop
 endfacet
 facet normal 0.7071067831734206 -0.7071067791996746 0.0
  outer loop
   vertex 2.376878778105287 0.001 0
   vertex 15.695878725794975 13.32000002253881 0
   vertex 15.695878725794975 13.32000002253881 0.54
  endloop
 endfacet
 facet normal 0.7071067831734206 -0.7071067791996746 0.0
  outer loop
   vertex 2.376878778105287 0.001 0.54
   vertex 2.376878778105287 0.001 0
   vertex 15.695878725794975 13.32000002253881 0.54
  endloop
 endfacet
 facet normal -0.7071067831750931 -0.7071067791980019 0.0
  outer loop
   vertex 0.0010000000000002852 2.3768787914683127 0
   vertex 2.376878778105287 0.001 0
   vertex 2.376878778105287 0.001 0.54
  endloop
 endfacet
 facet normal -0.7071067831750931 -0.7071067791980019 -0.0
  outer loop
   vertex 0.0010000000000002852 2.3768787914683127 0.54
   vertex 0.0010000000000002852 2.3768787914683127 0
   vertex 2.376878778105287 0.001 0.54
  endloop
 endfacet
 facet normal 0.7071067831734208 -0.7071067791996742 0.0
  outer loop
   vertex 7.500424973226486 7.500448774164728 0
   vertex 7.8484871197154416 7.848510922609698 0
   vertex 7.500424973226486 7.500448774164728 0.54
  endloop
 endfacet
 facet normal 0.7071067831734208 -0.7071067791996742 0.0
  outer loop
   vertex 7.8484871197154416 7.848510922609698 0
   vertex 7.8484871197154416 7.848510922609698 0.54
   vertex 7.500424973226486 7.500448774164728 0.54
  endloop
 endfacet
 facet normal -0.7071550672439114 0.7070584918316583 0.0
  outer loop
   vertex 7.8484871197154416 7.848510922609698 0
   vertex 7.500581922013742 7.500558205377039 0
   vertex 7.8484871197154416 7.848510922609698 0.54
  endloop
 endfacet
 facet normal -0.7071550672439114 0.7070584918316583 0.0
  outer loop
   vertex 7.500581922013742 7.500558205377039 0
   vertex 7.500581922013742 7.500558205377039 0.54
   vertex 7.8484871197154416 7.848510922609698 0.54
  endloop
 endfacet
 facet normal 0.7071067831734204 -0.7071067791996747 0.0
  outer loop
   vertex 7.500581922013742 7.500558205377039 0
   vertex 7.84838464729164 7.848360932609492 0
   vertex 7.500581922013742 7.500558205377039 0.54
  endloop
 endfacet
 facet normal 0.7071067831734204 -0.7071067791996747 0.0
  outer loop
   vertex 7.84838464729164 7.848360932609492 0
   vertex 7.84838464729164 7.848360932609492 0.54
   vertex 7.500581922013742 7.500558205377039 0.54
  endloop
 endfacet
 facet normal -0.7070584967714656 0.7071550623047786 0.0
  outer loop
   vertex 7.84838464729164 7.848360932609492 0
   vertex 7.500424973226486 7.500448774164728 0
   vertex 7.84838464729164 7.848360932609492 0.54
  endloop
 endfacet
 facet normal -0.7070584967714656 0.7071550623047786 0.0
  outer loop
   vertex 7.500424973226486 7.500448774164728 0
   vertex 7.500424973226486 7.500448774164728 0.54
   vertex 7.84838464729164 7.848360932609492 0.54
  endloop
 endfacet
 facet normal 0.0 0.0 1.0
  outer loop
   vertex 12.624121158347048 15.000000020753834 0.54
   vertex 0.0010000000000002852 2.3768787914683127 0.54
   vertex 7.500424973226486 7.500448774164728 0.54
  endloop
 endfacet
 facet normal 0.0 -0.0 1.0
  outer loop
   vertex 7.8484871197154416 7.848510922609698 0.54
   vertex 12.624121158347048 15.000000020753834 0.54
   vertex 7.500424973226486 7.500448774164728 0.54
  endloop
 endfacet
 facet normal 0.0 0.0 1.0
  outer loop
   vertex 15.695878725794975 13.32000002253881 0.54
   vertex 12.624121158347048 15.000000020753834 0.54
   vertex 7.8484871197154416 7.848510922609698 0.54
  endloop
 endfacet
 facet normal 0.0 0.0 1.0
  outer loop
   vertex 7.500581922013742 7.500558205377039 0.54
   vertex 15.695878725794975 13.32000002253881 0.54
   vertex 7.8484871197154416 7.848510922609698 0.54
  endloop
 endfacet
 facet normal 0.0 0.0 1.0
  outer loop
   vertex 2.376878778105287 0.001 0.54
   vertex 15.695878725794975 13.32000002253881 0.54
   vertex 7.500581922013742 7.500558205377039 0.54
  endloop
 endfacet
 facet normal 0.0 0.0 -1.0
  outer loop
   vertex 7.84838464729164 7.848360932609492 0.54
   vertex 2.376878778105287 0.001 0.54
   vertex 7.500581922013742 7.500558205377039 0.54
  endloop
 endfacet
 facet normal -0.0 0.0 1.0
  outer loop
   vertex 0.0010000000000002852 2.3768787914683127 0.54
   vertex 2.376878778105287 0.001 0.54
   vertex 7.84838464729164 7.848360932609492 0.54
  endloop
 endfacet
 facet normal -0.0 0.0 -1.0
  outer loop
   vertex 7.500424973226486 7.500448774164728 0.54
   vertex 0.0010000000000002852 2.3768787914683127 0.54
   vertex 7.84838464729164 7.848360932609492 0.54
  endloop
 endfacet
 facet normal 0.0 0.0 -1.0
  outer loop
   vertex 44.99999994491884 12.62412123775201 0
   vertex 32.37687878167675 0.0010000035714685049 0
   vertex 36.66058337062465 6.660559649267386 0
  endloop
 endfacet
 facet normal 0.0 0.0 -1.0
  outer loop
   vertex 32.37687878167675 0.0010000035714685049 0
   vertex 36.31252122658314 6.312497503269853 0
   vertex 36.66058337062465 6.660559649267386 0
  endloop
 endfacet
 facet normal -0.0 0.0 -1.0
  outer loop
   vertex 32.37687878167675 0.0010000035714685049 0
   vertex 27.62512122188347 0.001 0
   vertex 36.31252122658314 6.312497503269853 0
  endloop
 endfacet
 facet normal 0.0 0.0 -1.0
  outer loop
   vertex 27.62512122188347 0.001 0
   vertex 36.660409621837424 6.6604334180550095 0
   vertex 36.31252122658314 6.312497503269853 0
  endloop
 endfacet
 facet normal 0.0 0.0 -1.0
  outer loop
   vertex 27.62512122188347 0.001 0
   vertex 40.94412116957317 13.32000002253881 0
   vertex 36.660409621837424 6.6604334180550095 0
  endloop
 endfacet
 facet normal 0.0 0.0 1.0
  outer loop
   vertex 40.94412116957317 13.32000002253881 0
   vertex 36.312606899007015 6.312630693270042 0
   vertex 36.660409621837424 6.6604334180550095 0
  endloop
 endfacet
 facet normal 0.0 -0.0 -1.0
  outer loop
   vertex 40.94412116957317 13.32000002253881 0
   vertex 44.99999994491884 12.62412123775201 0
   vertex 36.312606899007015 6.312630693270042 0
  endloop
 endfacet
 facet normal 0.0 0.0 1.0
  outer loop
   vertex 44.99999994491884 12.62412123775201 0
   vertex 36.66058337062465 6.660559649267386 0
   vertex 36.312606899007015 6.312630693270042 0
  endloop
 endfacet
 facet normal 0.7071067831734198 -0.7071067791996751 0.0
  outer loop
   vertex 32.37687878167675 0.0010000035714685049 0
   vertex 44.99999994491884 12.62412123775201 0
   vertex 44.99999994491884 12.62412123775201 0.54
  endloop
 endfacet
 facet normal 0.7071067831734198 -0.7071067791996751 0.0
  outer loop
   vertex 32.37687878167675 0.0010000035714685049 0.54
   vertex 32.37687878167675 0.0010000035714685049 0
   vertex 44.99999994491884 12.62412123775201 0.54
  endloop
 endfacet
 facet normal 7.516100011192665e-10 -1.0 0.0
  outer loop
   vertex 27.62512122188347 0.001 0
   vertex 32.37687878167675 0.0010000035714685049 0
   vertex 32.37687878167675 0.0010000035714685049 0.54
  endloop
 endfacet
 facet normal 7.516100011192665e-10 -1.0 0.0
  outer loop
   vertex 27.62512122188347 0.001 0.54
   vertex 27.62512122188347 0.001 0
   vertex 32.37687878167675 0.0010000035714685049 0.54
  endloop
 endfacet
 facet normal -0.7071067831734202 0.7071067791996748 0.0
  outer loop
   vertex 40.94412116957317 13.32000002253881 0
   vertex 27.62512122188347 0.001 0
   vertex 27.62512122188347 0.001 0.54
  endloop
 endfacet
 facet normal -0.7071067831734202 0.7071067791996748 0.0
  outer loop
   vertex 40.94412116957317 13.32000002253881 0.54
   vertex 40.94412116957317 13.32000002253881 0
   vertex 27.62512122188347 0.001 0.54
  endloop
 endfacet
 facet normal 0.16910197910813632 0.9855985595878839 0.0
  outer loop
   vertex 44.99999994491884 12.62412123775201 0
   vertex 40.94412116957317 13.32000002253881 0
   vertex 40.94412116957317 13.32000002253881 0.54
  endloop
 endfacet
 facet normal 0.16910197910813632 0.9855985595878839 0.0
  outer loop
   vertex 44.99999994491884 12.62412123775201 0.54
   vertex 44.99999994491884 12.62412123775201 0
   vertex 40.94412116957317 13.32000002253881 0.54
  endloop
 endfacet
 facet normal -0.7071067831734262 0.7071067791996687 0.0
  outer loop
   vertex 36.66058337062465 6.660559649267386 0
   vertex 36.31252122658314 6.312497503269853 0
   vertex 36.66058337062465 6.660559649267386 0.54
  endloop
 endfacet
 facet normal -0.7071067831734262 0.7071067791996687 0.0
  outer loop
   vertex 36.31252122658314 6.312497503269853 0
   vertex 36.31252122658314 6.312497503269853 0.54
   vertex 36.66058337062465 6.660559649267386 0.54
  endloop
 endfacet
 facet normal 0.707155069575719 -0.7070584894995321 0.0
  outer loop
   vertex 36.31252122658314 6.312497503269853 0
   vertex 36.660409621837424 6.6604334180550095 0
   vertex 36.31252122658314 6.312497503269853 0.54
  endloop
 endfacet
 facet normal 0.707155069575719 -0.7070584894995321 0.0
  outer loop
   vertex 36.660409621837424 6.6604334180550095 0
   vertex 36.660409621837424 6.6604334180550095 0.54
   vertex 36.31252122658314 6.312497503269853 0.54
  endloop
 endfacet
 facet normal -0.707106783173424 0.7071067791996712 0.0
  outer loop
   vertex 36.660409621837424 6.6604334180550095 0
   vertex 36.312606899007015 6.312630693270042 0
   vertex 36.660409621837424 6.6604334180550095 0.54
  endloop
 endfacet
 facet normal -0.707106783173424 0.7071067791996712 0.0
  outer loop
   vertex 36.312606899007015 6.312630693270042 0
   vertex 36.312606899007015 6.312630693270042 0.54
   vertex 36.660409621837424 6.6604334180550095 0.54
  endloop
 endfacet
 facet normal 0.7070584991025951 -0.7071550599739673 0.0
  outer loop
   vertex 36.312606899007015 6.312630693270042 0
   vertex 36.66058337062465 6.660559649267386 0
   vertex 36.312606899007015 6.312630693270042 0.54
  endloop
 endfacet
 facet normal 0.7070584991025951 -0.7071550599739673 0.0
  outer loop
   vertex 36.66058337062465 6.660559649267386 0
   vertex 36.66058337062465 6.660559649267386 0.54
   vertex 36.312606899007015 6.312630693270042 0.54
  endloop
 endfacet
 facet normal 0.0 0.0 1.0
  outer loop
   vertex 32.37687878167675 0.0010000035714685049 0.54
   vertex 44.99999994491884 12.62412123775201 0.54
   vertex 36.66058337062465 6.660559649267386 0.54
  endloop
 endfacet
 facet normal -0.0 0.0 1.0
  outer loop
   vertex 36.31252122658314 6.312497503269853 0.54
   vertex 32.37687878167675 0.0010000035714685049 0.54
   vertex 36.66058337062465 6.660559649267386 0.54
  endloop
 endfacet
 facet normal 0.0 0.0 1.0
  outer loop
   vertex 27.62512122188347 0.001 0.54
   vertex 32.37687878167675 0.0010000035714685049 0.54
   vertex 36.31252122658314 6.312497503269853 0.54
  endloop
 endfacet
 facet normal 0.0 0.0 1.0
  outer loop
   vertex 36.660409621837424 6.6604334180550095 0.54
   vertex 27.62512122188347 0.001 0.54
   vertex 36.31252122658314 6.312497503269853 0.54
  endloop
 endfacet
 facet normal 0.0 0.0 1.0
  outer loop
   vertex 40.94412116957317 13.32000002253881 0.54
   vertex 27.62512122188347 0.001 0.54
   vertex 36.660409621837424 6.6604334180550095 0.54
  endloop
 endfacet
 facet normal 0.0 0.0 -1.0
  outer loop
   vertex 36.312606899007015 6.312630693270042 0.54
   vertex 40.94412116957317 13.32000002253881 0.54
   vertex 36.660409621837424 6.6604334180550095 0.54
  endloop
 endfacet
 facet normal 0.0 0.0 1.0
  outer loop
   vertex 44.99999994491884 12.62412123775201 0.54
   vertex 40.94412116957317 13.32000002253881 0.54
   vertex 36.312606899007015 6.312630693270042 0.54
  endloop
 endfacet
 facet normal 0.0 -0.0 -1.0
  outer loop
   vertex 36.66058337062465 6.660559649267386 0.54
   vertex 44.99999994491884 12.62412123775201 0.54
   vertex 36.312606899007015 6.312630693270042 0.54
  endloop
 endfacet
 facet normal 0.0 0.0 -1.0
  outer loop
   vertex 57.62312121210315 0.0010000415061584857 0
   vertex 44.99999994491884 12.62412123775201 0
   vertex 52.49955120867182 7.50042503546757 0
  endloop
 endfacet
 facet normal 0.0 0.0 -1.0
  outer loop
   vertex 44.99999994491884 12.62412123775201 0
   vertex 52.15148905956675 7.8484871826166245 0
   vertex 52.49955120867182 7.50042503546757 0
  endloop
 endfacet
 facet normal 0.0 0.0 -1.0
  outer loop
   vertex 44.99999994491884 12.62412123775201 0
   vertex 46.67999993824295 15.695878810090854 0
   vertex 52.15148905956675 7.8484871826166245 0
  endloop
 endfacet
 facet normal 0.0 0.0 -1.0
  outer loop
   vertex 46.67999993824295 15.695878810090854 0
   vertex 52.49944177745908 7.500581984255254 0
   vertex 52.15148905956675 7.8484871826166245 0
  endloop
 endfacet
 facet normal 0.0 0.0 -1.0
  outer loop
   vertex 46.67999993824295 15.695878810090854 0
   vertex 59.999 2.3768788231829063 0
   vertex 52.49944177745908 7.500581984255254 0
  endloop
 endfacet
 facet normal 0.0 0.0 1.0
  outer loop
   vertex 59.999 2.3768788231829063 0
   vertex 52.1516390495673 7.84838471019248 0
   vertex 52.49944177745908 7.500581984255254 0
  endloop
 endfacet
 facet normal -0.0 0.0 -1.0
  outer loop
   vertex 59.999 2.3768788231829063 0
   vertex 57.62312121210315 0.0010000415061584857 0
   vertex 52.1516390495673 7.84838471019248 0
  endloop
 endfacet
 facet normal 0.0 0.0 1.0
  outer loop
   vertex 57.62312121210315 0.0010000415061584857 0
   vertex 52.49955120867182 7.50042503546757 0
   vertex 52.1516390495673 7.84838471019248 0
  endloop
 endfacet
 facet normal -0.7071067791996751 -0.70710678317342 0.0
  outer loop
   vertex 44.99999994491884 12.62412123775201 0
   vertex 57.62312121210315 0.0010000415061584857 0
   vertex 57.62312121210315 0.0010000415061584857 0.54
  endloop
 endfacet
 facet normal -0.7071067791996751 -0.70710678317342 -0.0
  outer loop
   vertex 44.99999994491884 12.62412123775201 0.54
   vertex 44.99999994491884 12.62412123775201 0
   vertex 57.62312121210315 0.0010000415061584857 0.54
  endloop
 endfacet
 facet normal -0.8773551989459448 0.47984148933009263 0.0
  outer loop
   vertex 46.67999993824295 15.695878810090854 0
   vertex 44.99999994491884 12.62412123775201 0
   vertex 44.99999994491884 12.62412123775201 0.54
  endloop
 endfacet
 facet normal -0.8773551989459448 0.47984148933009263 0.0
  outer loop
   vertex 46.67999993824295 15.695878810090854 0.54
   vertex 46.67999993824295 15.695878810090854 0
   vertex 44.99999994491884 12.62412123775201 0.54
  endloop
 endfacet
 facet normal 0.707106779199675 0.70710678317342 0.0
  outer loop
   vertex 59.999 2.3768788231829063 0
   vertex 46.67999993824295 15.695878810090854 0
   vertex 46.67999993824295 15.695878810090854 0.54
  endloop
 endfacet
 facet normal 0.707106779199675 0.70710678317342 0.0
  outer loop
   vertex 59.999 2.3768788231829063 0.54
   vertex 59.999 2.3768788231829063 0
   vertex 46.67999993824295 15.695878810090854 0.54
  endloop
 endfacet
 facet normal 0.7071067802609368 -0.7071067821121583 0.0
  outer loop
   vertex 57.62312121210315 0.0010000415061584857 0
   vertex 59.999 2.3768788231829063 0
   vertex 59.999 2.3768788231829063 0.54
  endloop
 endfacet
 facet normal 0.7071067802609368 -0.7071067821121583 0.0
  outer loop
   vertex 57.62312121210315 0.0010000415061584857 0.54
   vertex 57.62312121210315 0.0010000415061584857 0
   vertex 59.999 2.3768788231829063 0.54
  endloop
 endfacet
 facet normal 0.7071067791996742 0.7071067831734209 -0.0
  outer loop
   vertex 52.49955120867182 7.50042503546757 0
   vertex 52.15148905956675 7.8484871826166245 0
   vertex 52.49955120867182 7.50042503546757 0.54
  endloop
 endfacet
 facet normal 0.7071067791996742 0.7071067831734209 -0.0
  outer loop
   vertex 52.15148905956675 7.8484871826166245 0
   vertex 52.15148905956675 7.8484871826166245 0.54
   vertex 52.49955120867182 7.50042503546757 0.54
  endloop
 endfacet
 facet normal -0.7070584918317471 -0.7071550672438226 0.0
  outer loop
   vertex 52.15148905956675 7.8484871826166245 0
   vertex 52.49944177745908 7.500581984255254 0
   vertex 52.15148905956675 7.8484871826166245 0.54
  endloop
 endfacet
 facet normal -0.7070584918317471 -0.7071550672438226 0.0
  outer loop
   vertex 52.49944177745908 7.500581984255254 0
   vertex 52.49944177745908 7.500581984255254 0.54
   vertex 52.15148905956675 7.8484871826166245 0.54
  endloop
 endfacet
 facet normal 0.7071067791996748 0.7071067831734204 -0.0
  outer loop
   vertex 52.49944177745908 7.500581984255254 0
   vertex 52.1516390495673 7.84838471019248 0
   vertex 52.49944177745908 7.500581984255254 0.54
  endloop
 endfacet
 facet normal 0.7071067791996748 0.7071067831734204 -0.0
  outer loop
   vertex 52.1516390495673 7.84838471019248 0
   vertex 52.1516390495673 7.84838471019248 0.54
   vertex 52.49944177745908 7.500581984255254 0.54
  endloop
 endfacet
 facet normal -0.7071550623046898 -0.7070584967715544 0.0
  outer loop
   vertex 52.1516390495673 7.84838471019248 0
   vertex 52.49955120867182 7.50042503546757 0
   vertex 52.1516390495673 7.84838471019248 0.54
  endloop
 endfacet
 facet normal -0.7071550623046898 -0.7070584967715544 0.0
  outer loop
   vertex 52.49955120867182 7.50042503546757 0
   vertex 52.49955120867182 7.50042503546757 0.54
   vertex 52.1516390495673 7.84838471019248 0.54
  endloop
 endfacet
 facet normal 0.0 0.0 1.0
  outer loop
   vertex 44.99999994491884 12.62412123775201 0.54
   vertex 57.62312121210315 0.0010000415061584857 0.54
   vertex 52.49955120867182 7.50042503546757 0.54
  endloop
 endfacet
 facet normal 0.0 0.0 1.0
  outer loop
   vertex 52.15148905956675 7.8484871826166245 0.54
   vertex 44.99999994491884 12.62412123775201 0.54
   vertex 52.49955120867182 7.50042503546757 0.54
  endloop
 endfacet
 facet normal 0.0 0.0 1.0
  outer loop
   vertex 46.67999993824295 15.695878810090854 0.54
   vertex 44.99999994491884 12.62412123775201 0.54
   vertex 52.15148905956675 7.8484871826166245 0.54
  endloop
 endfacet
 facet normal 0.0 0.0 1.0
  outer loop
   vertex 52.49944177745908 7.500581984255254 0.54
   vertex 46.67999993824295 15.695878810090854 0.54
   vertex 52.15148905956675 7.8484871826166245 0.54
  endloop
 endfacet
 facet normal 0.0 0.0 1.0
  outer loop
   vertex 59.999 2.3768788231829063 0.54
   vertex 46.67999993824295 15.695878810090854 0.54
   vertex 52.49944177745908 7.500581984255254 0.54
  endloop
 endfacet
 facet normal 0.0 0.0 -1.0
  outer loop
   vertex 52.1516390495673 7.84838471019248 0.54
   vertex 59.999 2.3768788231829063 0.54
   vertex 52.49944177745908 7.500581984255254 0.54
  endloop
 endfacet
 facet normal 0.0 -0.0 1.0
  outer loop
   vertex 57.62312121210315 0.0010000415061584857 0.54
   vertex 59.999 2.3768788231829063 0.54
   vertex 52.1516390495673 7.84838471019248 0.54
  endloop
 endfacet
 facet normal -0.0 -0.0 -1.0
  outer loop
   vertex 52.49955120867182 7.50042503546757 0.54
   vertex 57.62312121210315 0.0010000415061584857 0.54
   vertex 52.1516390495673 7.84838471019248 0.54
  endloop
 endfacet
 facet normal 0.0 0.0 -1.0
  outer loop
   vertex 47.37587872792066 45.00000002075381 0
   vertex 59.999 32.376878781678236 0
   vertex 53.339440332909064 36.660583408464376 0
  endloop
 endfacet
 facet normal 0.0 0.0 -1.0
  outer loop
   vertex 59.999 32.376878781678236 0
   vertex 53.68750247956669 36.31252126271678 0
   vertex 53.339440332909064 36.660583408464376 0
  endloop
 endfacet
 facet normal -0.0 -0.0 -1.0
  outer loop
   vertex 59.999 32.376878781678236 0
   vertex 59.999 27.6251212183165 0
   vertex 53.68750247956669 36.31252126271678 0
  endloop
 endfacet
 facet normal 0.0 0.0 -1.0
  outer loop
   vertex 59.999 27.6251212183165 0
   vertex 53.33956656412178 36.660409659676354 0
   vertex 53.68750247956669 36.31252126271678 0
  endloop
 endfacet
 facet normal 0.0 0.0 -1.0
  outer loop
   vertex 59.999 27.6251212183165 0
   vertex 46.67999993824295 40.94412124525037 0
   vertex 53.33956656412178 36.660409659676354 0
  endloop
 endfacet
 facet normal 0.0 0.0 1.0
  outer loop
   vertex 46.67999993824295 40.94412124525037 0
   vertex 53.68736928956607 36.31260693514141 0
   vertex 53.33956656412178 36.660409659676354 0
  endloop
 endfacet
 facet normal 0.0 0.0 -1.0
  outer loop
   vertex 46.67999993824295 40.94412124525037 0
   vertex 47.37587872792066 45.00000002075381 0
   vertex 53.68736928956607 36.31260693514141 0
  endloop
 endfacet
 facet normal 0.0 0.0 1.0
  outer loop
   vertex 47.37587872792066 45.00000002075381 0
   vertex 53.339440332909064 36.660583408464376 0
   vertex 53.68736928956607 36.31260693514141 0
  endloop
 endfacet
 facet normal 0.7071067802621648 0.7071067821109304 0.0
  outer loop
   vertex 59.999 32.376878781678236 0
   vertex 47.37587872792066 45.00000002075381 0
   vertex 47.37587872792066 45.00000002075381 0.54
  endloop
 endfacet
 facet normal 0.7071067802621648 0.7071067821109304 0.0
  outer loop
   vertex 59.999 32.376878781678236 0.54
   vertex 59.999 32.376878781678236 0
   vertex 47.37587872792066 45.00000002075381 0.54
  endloop
 endfacet
 facet normal 1.0 0.0 0.0
  outer loop
   vertex 59.999 27.6251212183165 0
   vertex 59.999 32.376878781678236 0
   vertex 59.999 32.376878781678236 0.54
  endloop
 endfacet
 facet normal 1.0 -0.0 0.0
  outer loop
   vertex 59.999 27.6251212183165 0.54
   vertex 59.999 27.6251212183165 0
   vertex 59.999 32.376878781678236 0.54
  endloop
 endfacet
 facet normal -0.7071067802621649 -0.7071067821109303 0.0
  outer loop
   vertex 46.67999993824295 40.94412124525037 0
   vertex 59.999 27.6251212183165 0
   vertex 59.999 27.6251212183165 0.54
  endloop
 endfacet
 facet normal -0.7071067802621649 -0.7071067821109303 -0.0
  outer loop
   vertex 46.67999993824295 40.94412124525037 0.54
   vertex 46.67999993824295 40.94412124525037 0
   vertex 59.999 27.6251212183165 0.54
  endloop
 endfacet
 facet normal -0.9855985593908944 0.169101980256275 0.0
  outer loop
   vertex 47.37587872792066 45.00000002075381 0
   vertex 46.67999993824295 40.94412124525037 0
   vertex 46.67999993824295 40.94412124525037 0.54
  endloop
 endfacet
 facet normal -0.9855985593908944 0.169101980256275 0.0
  outer loop
   vertex 47.37587872792066 45.00000002075381 0.54
   vertex 47.37587872792066 45.00000002075381 0
   vertex 46.67999993824295 40.94412124525037 0.54
  endloop
 endfacet
 facet normal -0.7071067802621628 -0.7071067821109324 0.0
  outer loop
   vertex 53.339440332909064 36.660583408464376 0
   vertex 53.68750247956669 36.31252126271678 0
   vertex 53.339440332909064 36.660583408464376 0.54
  endloop
 endfacet
 facet normal -0.7071067802621628 -0.7071067821109324 0.0
  outer loop
   vertex 53.68750247956669 36.31252126271678 0
   vertex 53.68750247956669 36.31252126271678 0.54
   vertex 53.339440332909064 36.660583408464376 0.54
  endloop
 endfacet
 facet normal 0.7070584905622596 0.7071550685131366 -0.0
  outer loop
   vertex 53.68750247956669 36.31252126271678 0
   vertex 53.33956656412178 36.660409659676354 0
   vertex 53.68750247956669 36.31252126271678 0.54
  endloop
 endfacet
 facet normal 0.7070584905622596 0.7071550685131366 -0.0
  outer loop
   vertex 53.33956656412178 36.660409659676354 0
   vertex 53.33956656412178 36.660409659676354 0.54
   vertex 53.68750247956669 36.31252126271678 0.54
  endloop
 endfacet
 facet normal -0.7071067802621668 -0.7071067821109285 0.0
  outer loop
   vertex 53.33956656412178 36.660409659676354 0
   vertex 53.68736928956607 36.31260693514141 0
   vertex 53.33956656412178 36.660409659676354 0.54
  endloop
 endfacet
 facet normal -0.7071067802621668 -0.7071067821109285 0.0
  outer loop
   vertex 53.68736928956607 36.31260693514141 0
   vertex 53.68736928956607 36.31260693514141 0.54
   vertex 53.33956656412178 36.660409659676354 0.54
  endloop
 endfacet
 facet normal 0.7071550610362295 0.707058498040188 -0.0
  outer loop
   vertex 53.68736928956607 36.31260693514141 0
   vertex 53.339440332909064 36.660583408464376 0
   vertex 53.68736928956607 36.31260693514141 0.54
  endloop
 endfacet
 facet normal 0.7071550610362295 0.707058498040188 -0.0
  outer loop
   vertex 53.339440332909064 36.660583408464376 0
   vertex 53.339440332909064 36.660583408464376 0.54
   vertex 53.68736928956607 36.31260693514141 0.54
  endloop
 endfacet
 facet normal 0.0 0.0 1.0
  outer loop
   vertex 59.999 32.376878781678236 0.54
   vertex 47.37587872792066 45.00000002075381 0.54
   vertex 53.339440332909064 36.660583408464376 0.54
  endloop
 endfacet
 facet normal -0.0 -0.0 1.0
  outer loop
   vertex 53.68750247956669 36.31252126271678 0.54
   vertex 59.999 32.376878781678236 0.54
   vertex 53.339440332909064 36.660583408464376 0.54
  endloop
 endfacet
 facet normal 0.0 -0.0 1.0
  outer loop
   vertex 59.999 27.6251212183165 0.54
   vertex 59.999 32.376878781678236 0.54
   vertex 53.68750247956669 36.31252126271678 0.54
  endloop
 endfacet
 facet normal 0.0 0.0 1.0
  outer loop
   vertex 53.33956656412178 36.660409659676354 0.54
   vertex 59.999 27.6251212183165 0.54
   vertex 53.68750247956669 36.31252126271678 0.54
  endloop
 endfacet
 facet normal 0.0 0.0 1.0
  outer loop
   vertex 46.67999993824295 40.94412124525037 0.54
   vertex 59.999 27.6251212183165 0.54
   vertex 53.33956656412178 36.660409659676354 0.54
  endloop
 endfacet
 facet normal 0.0 0.0 -1.0
  outer loop
   vertex 53.68736928956607 36.31260693514141 0.54
   vertex 46.67999993824295 40.94412124525037 0.54
   vertex 53.33956656412178 36.660409659676354 0.54
  endloop
 endfacet
 facet normal 0.0 0.0 1.0
  outer loop
   vertex 47.37587872792066 45.00000002075381 0.54
   vertex 46.67999993824295 40.94412124525037 0.54
   vertex 53.68736928956607 36.31260693514141 0.54
  endloop
 endfacet
 facet normal 0.0 0.0 -1.0
  outer loop
   vertex 53.339440332909064 36.660583408464376 0.54
   vertex 47.37587872792066 45.00000002075381 0.54
   vertex 53.68736928956607 36.31260693514141 0.54
  endloop
 endfacet
 facet normal 0.0 0.0 -1.0
  outer loop
   vertex 59.999 57.62312122189469 0
   vertex 47.37587872792066 45.00000002075381 0
   vertex 52.4995749632265 52.49955124658902 0
  endloop
 endfacet
 facet normal 0.0 0.0 -1.0
  outer loop
   vertex 47.37587872792066 45.00000002075381 0
   vertex 52.15151282129221 52.15148910661073 0
   vertex 52.4995749632265 52.49955124658902 0
  endloop
 endfacet
 facet normal 0.0 0.0 -1.0
  outer loop
   vertex 47.37587872792066 45.00000002075381 0
   vertex 44.30412115622141 46.680000022538806 0
   vertex 52.15151282129221 52.15148910661073 0
  endloop
 endfacet
 facet normal 0.0 0.0 -1.0
  outer loop
   vertex 44.30412115622141 46.680000022538806 0
   vertex 52.49941801443806 52.499441815377025 0
   vertex 52.15151282129221 52.15148910661073 0
  endloop
 endfacet
 facet normal 0.0 0.0 -1.0
  outer loop
   vertex 44.30412115622141 46.680000022538806 0
   vertex 57.623121208531714 59.999 0
   vertex 52.49941801443806 52.499441815377025 0
  endloop
 endfacet
 facet normal 0.0 0.0 1.0
  outer loop
   vertex 57.623121208531714 59.999 0
   vertex 52.151615293717015 52.15163909661052 0
   vertex 52.49941801443806 52.499441815377025 0
  endloop
 endfacet
 facet normal 0.0 -0.0 -1.0
  outer loop
   vertex 57.623121208531714 59.999 0
   vertex 59.999 57.62312122189469 0
   vertex 52.151615293717015 52.15163909661052 0
  endloop
 endfacet
 facet normal 0.0 0.0 1.0
  outer loop
   vertex 59.999 57.62312122189469 0
   vertex 52.4995749632265 52.49955124658902 0
   vertex 52.151615293717015 52.15163909661052 0
  endloop
 endfacet
 facet normal 0.7071067791996749 -0.7071067831734202 0.0
  outer loop
   vertex 47.37587872792066 45.00000002075381 0
   vertex 59.999 57.62312122189469 0
   vertex 59.999 57.62312122189469 0.54
  endloop
 endfacet
 facet normal 0.7071067791996749 -0.7071067831734202 0.0
  outer loop
   vertex 47.37587872792066 45.00000002075381 0.54
   vertex 47.37587872792066 45.00000002075381 0
   vertex 59.999 57.62312122189469 0.54
  endloop
 endfacet
 facet normal -0.47984149126718184 -0.8773551978865157 0.0
  outer loop
   vertex 44.30412115622141 46.680000022538806 0
   vertex 47.37587872792066 45.00000002075381 0
   vertex 47.37587872792066 45.00000002075381 0.54
  endloop
 endfacet
 facet normal -0.47984149126718184 -0.8773551978865157 -0.0
  outer loop
   vertex 44.30412115622141 46.680000022538806 0.54
   vertex 44.30412115622141 46.680000022538806 0
   vertex 47.37587872792066 45.00000002075381 0.54
  endloop
 endfacet
 facet normal -0.707106779199675 0.70710678317342 0.0
  outer loop
   vertex 57.623121208531714 59.999 0
   vertex 44.30412115622141 46.680000022538806 0
   vertex 44.30412115622141 46.680000022538806 0.54
  endloop
 endfacet
 facet normal -0.707106779199675 0.70710678317342 0.0
  outer loop
   vertex 57.623121208531714 59.999 0.54
   vertex 57.623121208531714 59.999 0
   vertex 44.30412115622141 46.680000022538806 0.54
  endloop
 endfacet
 facet normal 0.7071067791980091 0.7071067831750859 0.0
  outer loop
   vertex 59.999 57.62312122189469 0
   vertex 57.623121208531714 59.999 0
   vertex 57.623121208531714 59.999 0.54
  endloop
 endfacet
 facet normal 0.7071067791980091 0.7071067831750859 0.0
  outer loop
   vertex 59.999 57.62312122189469 0.54
   vertex 59.999 57.62312122189469 0
   vertex 57.623121208531714 59.999 0.54
  endloop
 endfacet
 facet normal -0.707106779199685 0.70710678317341 0.0
  outer loop
   vertex 52.4995749632265 52.49955124658902 0
   vertex 52.15151282129221 52.15148910661073 0
   vertex 52.4995749632265 52.49955124658902 0.54
  endloop
 endfacet
 facet normal -0.707106779199685 0.70710678317341 0.0
  outer loop
   vertex 52.15151282129221 52.15148910661073 0
   vertex 52.15151282129221 52.15148910661073 0.54
   vertex 52.4995749632265 52.49955124658902 0.54
  endloop
 endfacet
 facet normal 0.7071550632713484 -0.7070584958047639 0.0
  outer loop
   vertex 52.15151282129221 52.15148910661073 0
   vertex 52.49941801443806 52.499441815377025 0
   vertex 52.15151282129221 52.15148910661073 0.54
  endloop
 endfacet
 facet normal 0.7071550632713484 -0.7070584958047639 0.0
  outer loop
   vertex 52.49941801443806 52.499441815377025 0
   vertex 52.49941801443806 52.499441815377025 0.54
   vertex 52.15151282129221 52.15148910661073 0.54
  endloop
 endfacet
 facet normal -0.7071067791996837 0.7071067831734114 0.0
  outer loop
   vertex 52.49941801443806 52.499441815377025 0
   vertex 52.151615293717015 52.15163909661052 0
   vertex 52.49941801443806 52.499441815377025 0.54
  endloop
 endfacet
 facet normal -0.7071067791996837 0.7071067831734114 0.0
  outer loop
   vertex 52.151615293717015 52.15163909661052 0
   vertex 52.151615293717015 52.15163909661052 0.54
   vertex 52.49941801443806 52.499441815377025 0.54
  endloop
 endfacet
 facet normal 0.7070584927965564 -0.7071550662791452 0.0
  outer loop
   vertex 52.151615293717015 52.15163909661052 0
   vertex 52.4995749632265 52.49955124658902 0
   vertex 52.151615293717015 52.15163909661052 0.54
  endloop
 endfacet
 facet normal 0.7070584927965564 -0.7071550662791452 0.0
  outer loop
   vertex 52.4995749632265 52.49955124658902 0
   vertex 52.4995749632265 52.49955124658902 0.54
   vertex 52.151615293717015 52.15163909661052 0.54
  endloop
 endfacet
 facet normal 0.0 0.0 1.0
  outer loop
   vertex 47.37587872792066 45.00000002075381 0.54
   vertex 59.999 57.62312122189469 0.54
   vertex 52.4995749632265 52.49955124658902 0.54
  endloop
 endfacet
 facet normal -0.0 0.0 1.0
  outer loop
   vertex 52.15151282129221 52.15148910661073 0.54
   vertex 47.37587872792066 45.00000002075381 0.54
   vertex 52.4995749632265 52.49955124658902 0.54
  endloop
 endfacet
 facet normal -0.0 0.0 1.0
  outer loop
   vertex 44.30412115622141 46.680000022538806 0.54
   vertex 47.37587872792066 45.00000002075381 0.54
   vertex 52.15151282129221 52.15148910661073 0.54
  endloop
 endfacet
 facet normal 0.0 0.0 1.0
  outer loop
   vertex 52.49941801443806 52.499441815377025 0.54
   vertex 44.30412115622141 46.680000022538806 0.54
   vertex 52.15151282129221 52.15148910661073 0.54
  endloop
 endfacet
 facet normal 0.0 0.0 1.0
  outer loop
   vertex 57.623121208531714 59.999 0.54
   vertex 44.30412115622141 46.680000022538806 0.54
   vertex 52.49941801443806 52.499441815377025 0.54
  endloop
 endfacet
 facet normal 0.0 0.0 -1.0
  outer loop
   vertex 52.151615293717015 52.15163909661052 0.54
   vertex 57.623121208531714 59.999 0.54
   vertex 52.49941801443806 52.499441815377025 0.54
  endloop
 endfacet
 facet normal 0.0 0.0 1.0
  outer loop
   vertex 59.999 57.62312122189469 0.54
   vertex 57.623121208531714 59.999 0.54
   vertex 52.151615293717015 52.15163909661052 0.54
  endloop
 endfacet
 facet normal 0.0 -0.0 -1.0
  outer loop
   vertex 52.4995749632265 52.49955124658902 0.54
   vertex 59.999 57.62312122189469 0.54
   vertex 52.151615293717015 52.15163909661052 0.54
  endloop
 endfacet
 facet normal 0.0 0.0 -1.0
  outer loop
   vertex 2.3768788231829046 59.999 0
   vertex 14.999999944918844 47.37587880732561 0
   vertex 7.500448757000799 52.49957500471429 0
  endloop
 endfacet
 facet normal 0.0 0.0 -1.0
  outer loop
   vertex 14.999999944918844 47.37587880732561 0
   vertex 7.848510896318568 52.1515128634405 0
   vertex 7.500448757000799 52.49957500471429 0
  endloop
 endfacet
 facet normal -0.0 0.0 -1.0
  outer loop
   vertex 14.999999944918844 47.37587880732561 0
   vertex 13.319999938242947 44.30412124051726 0
   vertex 7.848510896318568 52.1515128634405 0
  endloop
 endfacet
 facet normal 0.0 0.0 -1.0
  outer loop
   vertex 13.319999938242947 44.30412124051726 0
   vertex 7.500558188211951 52.4994180559267 0
   vertex 7.848510896318568 52.1515128634405 0
  endloop
 endfacet
 facet normal 0.0 0.0 -1.0
  outer loop
   vertex 13.319999938242947 44.30412124051726 0
   vertex 0.001000041506155486 57.623121212103165 0
   vertex 7.500558188211951 52.4994180559267 0
  endloop
 endfacet
 facet normal 0.0 0.0 1.0
  outer loop
   vertex 0.001000041506155486 57.623121212103165 0
   vertex 7.848360906319534 52.15161533586455 0
   vertex 7.500558188211951 52.4994180559267 0
  endloop
 endfacet
 facet normal 0.0 0.0 -1.0
  outer loop
   vertex 0.001000041506155486 57.623121212103165 0
   vertex 2.3768788231829046 59.999 0
   vertex 7.848360906319534 52.15161533586455 0
  endloop
 endfacet
 facet normal 0.0 0.0 1.0
  outer loop
   vertex 2.3768788231829046 59.999 0
   vertex 7.500448757000799 52.49957500471429 0
   vertex 7.848360906319534 52.15161533586455 0
  endloop
 endfacet
 facet normal 0.7071067831734198 0.7071067791996754 0.0
  outer loop
   vertex 14.999999944918844 47.37587880732561 0
   vertex 2.3768788231829046 59.999 0
   vertex 2.3768788231829046 59.999 0.54
  endloop
 endfacet
 facet normal 0.7071067831734198 0.7071067791996754 0.0
  outer loop
   vertex 14.999999944918844 47.37587880732561 0.54
   vertex 14.999999944918844 47.37587880732561 0
   vertex 2.3768788231829046 59.999 0.54
  endloop
 endfacet
 facet normal 0.8773551969767749 -0.47984149293057665 0.0
  outer loop
   vertex 13.319999938242947 44.30412124051726 0
   vertex 14.999999944918844 47.37587880732561 0
   vertex 14.999999944918844 47.37587880732561 0.54
  endloop
 endfacet
 facet normal 0.8773551969767749 -0.47984149293057665 0.0
  outer loop
   vertex 13.319999938242947 44.30412124051726 0.54
   vertex 13.319999938242947 44.30412124051726 0
   vertex 14.999999944918844 47.37587880732561 0.54
  endloop
 endfacet
 facet normal -0.7071067831734202 -0.7071067791996748 0.0
  outer loop
   vertex 0.001000041506155486 57.623121212103165 0
   vertex 13.319999938242947 44.30412124051726 0
   vertex 13.319999938242947 44.30412124051726 0.54
  endloop
 endfacet
 facet normal -0.7071067831734202 -0.7071067791996748 -0.0
  outer loop
   vertex 0.001000041506155486 57.623121212103165 0.54
   vertex 0.001000041506155486 57.623121212103165 0
   vertex 13.319999938242947 44.30412124051726 0.54
  endloop
 endfacet
 facet normal -0.7071067821121559 0.7071067802609391 0.0
  outer loop
   vertex 2.3768788231829046 59.999 0
   vertex 0.001000041506155486 57.623121212103165 0
   vertex 0.001000041506155486 57.623121212103165 0.54
  endloop
 endfacet
 facet normal -0.7071067821121559 0.7071067802609391 0.0
  outer loop
   vertex 2.3768788231829046 59.999 0.54
   vertex 2.3768788231829046 59.999 0
   vertex 0.001000041506155486 57.623121212103165 0.54
  endloop
 endfacet
 facet normal -0.7071067831734243 -0.7071067791996706 0.0
  outer loop
   vertex 7.500448757000799 52.49957500471429 0
   vertex 7.848510896318568 52.1515128634405 0
   vertex 7.500448757000799 52.49957500471429 0.54
  endloop
 endfacet
 facet normal -0.7071067831734243 -0.7071067791996706 0.0
  outer loop
   vertex 7.848510896318568 52.1515128634405 0
   vertex 7.848510896318568 52.1515128634405 0.54
   vertex 7.500448757000799 52.49957500471429 0.54
  endloop
 endfacet
 facet normal 0.7070584958046877 0.7071550632714245 -0.0
  outer loop
   vertex 7.848510896318568 52.1515128634405 0
   vertex 7.500558188211951 52.4994180559267 0
   vertex 7.848510896318568 52.1515128634405 0.54
  endloop
 endfacet
 facet normal 0.7070584958046877 0.7071550632714245 -0.0
  outer loop
   vertex 7.500558188211951 52.4994180559267 0
   vertex 7.500558188211951 52.4994180559267 0.54
   vertex 7.848510896318568 52.1515128634405 0.54
  endloop
 endfacet
 facet normal -0.7071067831734303 -0.7071067791996648 0.0
  outer loop
   vertex 7.500558188211951 52.4994180559267 0
   vertex 7.848360906319534 52.15161533586455 0
   vertex 7.500558188211951 52.4994180559267 0.54
  endloop
 endfacet
 facet normal -0.7071067831734303 -0.7071067791996648 0.0
  outer loop
   vertex 7.848360906319534 52.15161533586455 0
   vertex 7.848360906319534 52.15161533586455 0.54
   vertex 7.500558188211951 52.4994180559267 0.54
  endloop
 endfacet
 facet normal 0.7071550662792547 0.7070584927964466 -0.0
  outer loop
   vertex 7.848360906319534 52.15161533586455 0
   vertex 7.500448757000799 52.49957500471429 0
   vertex 7.848360906319534 52.15161533586455 0.54
  endloop
 endfacet
 facet normal 0.7071550662792547 0.7070584927964466 -0.0
  outer loop
   vertex 7.500448757000799 52.49957500471429 0
   vertex 7.500448757000799 52.49957500471429 0.54
   vertex 7.848360906319534 52.15161533586455 0.54
  endloop
 endfacet
 facet normal 0.0 0.0 1.0
  outer loop
   vertex 14.999999944918844 47.37587880732561 0.54
   vertex 2.3768788231829046 59.999 0.54
   vertex 7.500448757000799 52.49957500471429 0.54
  endloop
 endfacet
 facet normal -0.0 -0.0 1.0
  outer loop
   vertex 7.848510896318568 52.1515128634405 0.54
   vertex 14.999999944918844 47.37587880732561 0.54
   vertex 7.500448757000799 52.49957500471429 0.54
  endloop
 endfacet
 facet normal 0.0 -0.0 1.0
  outer loop
   vertex 13.319999938242947 44.30412124051726 0.54
   vertex 14.999999944918844 47.37587880732561 0.54
   vertex 7.848510896318568 52.1515128634405 0.54
  endloop
 endfacet
 facet normal 0.0 0.0 1.0
  outer loop
   vertex 7.500558188211951 52.4994180559267 0.54
   vertex 13.319999938242947 44.30412124051726 0.54
   vertex 7.848510896318568 52.1515128634405 0.54
  endloop
 endfacet
 facet normal 0.0 0.0 1.0
  outer loop
   vertex 0.001000041506155486 57.623121212103165 0.54
   vertex 13.319999938242947 44.30412124051726 0.54
   vertex 7.500558188211951 52.4994180559267 0.54
  endloop
 endfacet
 facet normal 0.0 0.0 -1.0
  outer loop
   vertex 7.848360906319534 52.15161533586455 0.54
   vertex 0.001000041506155486 57.623121212103165 0.54
   vertex 7.500558188211951 52.4994180559267 0.54
  endloop
 endfacet
 facet normal 0.0 0.0 1.0
  outer loop
   vertex 2.3768788231829046 59.999 0.54
   vertex 0.001000041506155486 57.623121212103165 0.54
   vertex 7.848360906319534 52.15161533586455 0.54
  endloop
 endfacet
 facet normal 0.0 0.0 -1.0
  outer loop
   vertex 7.500448757000799 52.49957500471429 0.54
   vertex 2.3768788231829046 59.999 0.54
   vertex 7.848360906319534 52.15161533586455 0.54
  endloop
 endfacet
 facet normal 0.0 0.0 -1.0
  outer loop
   vertex 14.999999944918844 47.37587880732561 0
   vertex 27.623121208531696 59.999 0
   vertex 23.339416578838946 53.339440375057364 0
  endloop
 endfacet
 facet normal 0.0 0.0 -1.0
  outer loop
   vertex 27.623121208531696 59.999 0
   vertex 23.687478725006365 53.68750251926877 0
   vertex 23.339416578838946 53.339440375057364 0
  endloop
 endfacet
 facet normal 0.0 -0.0 -1.0
  outer loop
   vertex 27.623121208531696 59.999 0
   vertex 32.37487879145708 59.999 0
   vertex 23.687478725006365 53.68750251926877 0
  endloop
 endfacet
 facet normal 0.0 0.0 -1.0
  outer loop
   vertex 32.37487879145708 59.999 0
   vertex 23.339590327627413 53.339566606269294 0
   vertex 23.687478725006365 53.68750251926877 0
  endloop
 endfacet
 facet normal 0.0 0.0 -1.0
  outer loop
   vertex 32.37487879145708 59.999 0
   vertex 19.055878739146777 46.680000022538806 0
   vertex 23.339590327627413 53.339566606269294 0
  endloop
 endfacet
 facet normal 0.0 0.0 1.0
  outer loop
   vertex 19.055878739146777 46.680000022538806 0
   vertex 23.687393052581672 53.687369329268996 0
   vertex 23.339590327627413 53.339566606269294 0
  endloop
 endfacet
 facet normal 0.0 0.0 -1.0
  outer loop
   vertex 19.055878739146777 46.680000022538806 0
   vertex 14.999999944918844 47.37587880732561 0
   vertex 23.687393052581672 53.687369329268996 0
  endloop
 endfacet
 facet normal 0.0 0.0 1.0
  outer loop
   vertex 14.999999944918844 47.37587880732561 0
   vertex 23.339416578838946 53.339440375057364 0
   vertex 23.687393052581672 53.687369329268996 0
  endloop
 endfacet
 facet normal -0.7071067791996749 0.7071067831734201 0.0
  outer loop
   vertex 27.623121208531696 59.999 0
   vertex 14.999999944918844 47.37587880732561 0
   vertex 14.999999944918844 47.37587880732561 0.54
  endloop
 endfacet
 facet normal -0.7071067791996749 0.7071067831734201 0.0
  outer loop
   vertex 27.623121208531696 59.999 0.54
   vertex 27.623121208531696 59.999 0
   vertex 14.999999944918844 47.37587880732561 0.54
  endloop
 endfacet
 facet normal 0.0 1.0 0.0
  outer loop
   vertex 32.37487879145708 59.999 0
   vertex 27.623121208531696 59.999 0
   vertex 27.623121208531696 59.999 0.54
  endloop
 endfacet
 facet normal 0.0 1.0 0.0
  outer loop
   vertex 32.37487879145708 59.999 0.54
   vertex 32.37487879145708 59.999 0
   vertex 27.623121208531696 59.999 0.54
  endloop
 endfacet
 facet normal 0.707106779199675 -0.70710678317342 0.0
  outer loop
   vertex 19.055878739146777 46.680000022538806 0
   vertex 32.37487879145708 59.999 0
   vertex 32.37487879145708 59.999 0.54
  endloop
 endfacet
 facet normal 0.707106779199675 -0.70710678317342 0.0
  outer loop
   vertex 19.055878739146777 46.680000022538806 0.54
   vertex 19.055878739146777 46.680000022538806 0
   vertex 32.37487879145708 59.999 0.54
  endloop
 endfacet
 facet normal -0.16910197834339072 -0.9855985597190935 0.0
  outer loop
   vertex 14.999999944918844 47.37587880732561 0
   vertex 19.055878739146777 46.680000022538806 0
   vertex 19.055878739146777 46.680000022538806 0.54
  endloop
 endfacet
 facet normal -0.16910197834339072 -0.9855985597190935 -0.0
  outer loop
   vertex 14.999999944918844 47.37587880732561 0.54
   vertex 14.999999944918844 47.37587880732561 0
   vertex 19.055878739146777 46.680000022538806 0.54
  endloop
 endfacet
 facet normal 0.7071067791996741 -0.7071067831734209 0.0
  outer loop
   vertex 23.339416578838946 53.339440375057364 0
   vertex 23.687478725006365 53.68750251926877 0
   vertex 23.339416578838946 53.339440375057364 0.54
  endloop
 endfacet
 facet normal 0.7071067791996741 -0.7071067831734209 0.0
  outer loop
   vertex 23.687478725006365 53.68750251926877 0
   vertex 23.687478725006365 53.68750251926877 0.54
   vertex 23.339416578838946 53.339440375057364 0.54
  endloop
 endfacet
 facet normal -0.7071550656022157 0.7070584934735782 0.0
  outer loop
   vertex 23.687478725006365 53.68750251926877 0
   vertex 23.339590327627413 53.339566606269294 0
   vertex 23.687478725006365 53.68750251926877 0.54
  endloop
 endfacet
 facet normal -0.7071550656022157 0.7070584934735782 0.0
  outer loop
   vertex 23.339590327627413 53.339566606269294 0
   vertex 23.339590327627413 53.339566606269294 0.54
   vertex 23.687478725006365 53.68750251926877 0.54
  endloop
 endfacet
 facet normal 0.7071067791996729 -0.7071067831734221 0.0
  outer loop
   vertex 23.339590327627413 53.339566606269294 0
   vertex 23.687393052581672 53.687369329268996 0
   vertex 23.339590327627413 53.339566606269294 0.54
  endloop
 endfacet
 facet normal 0.7071067791996729 -0.7071067831734221 0.0
  outer loop
   vertex 23.687393052581672 53.687369329268996 0
   vertex 23.687393052581672 53.687369329268996 0.54
   vertex 23.339590327627413 53.339566606269294 0.54
  endloop
 endfacet
 facet normal -0.7070584951285956 0.7071550639474244 0.0
  outer loop
   vertex 23.687393052581672 53.687369329268996 0
   vertex 23.339416578838946 53.339440375057364 0
   vertex 23.687393052581672 53.687369329268996 0.54
  endloop
 endfacet
 facet normal -0.7070584951285956 0.7071550639474244 0.0
  outer loop
   vertex 23.339416578838946 53.339440375057364 0
   vertex 23.339416578838946 53.339440375057364 0.54
   vertex 23.687393052581672 53.687369329268996 0.54
  endloop
 endfacet
 facet normal 0.0 0.0 1.0
  outer loop
   vertex 27.623121208531696 59.999 0.54
   vertex 14.999999944918844 47.37587880732561 0.54
   vertex 23.339416578838946 53.339440375057364 0.54
  endloop
 endfacet
 facet normal 0.0 -0.0 1.0
  outer loop
   vertex 23.687478725006365 53.68750251926877 0.54
   vertex 27.623121208531696 59.999 0.54
   vertex 23.339416578838946 53.339440375057364 0.54
  endloop
 endfacet
 facet normal 0.0 0.0 1.0
  outer loop
   vertex 32.37487879145708 59.999 0.54
   vertex 27.623121208531696 59.999 0.54
   vertex 23.687478725006365 53.68750251926877 0.54
  endloop
 endfacet
 facet normal 0.0 0.0 1.0
  outer loop
   vertex 23.339590327627413 53.339566606269294 0.54
   vertex 32.37487879145708 59.999 0.54
   vertex 23.687478725006365 53.68750251926877 0.54
  endloop
 endfacet
 facet normal 0.0 0.0 1.0
  outer loop
   vertex 19.055878739146777 46.680000022538806 0.54
   vertex 32.37487879145708 59.999 0.54
   vertex 23.339590327627413 53.339566606269294 0.54
  endloop
 endfacet
 facet normal 0.0 0.0 -1.0
  outer loop
   vertex 23.687393052581672 53.687369329268996 0.54
   vertex 19.055878739146777 46.680000022538806 0.54
   vertex 23.339590327627413 53.339566606269294 0.54
  endloop
 endfacet
 facet normal -0.0 0.0 1.0
  outer loop
   vertex 14.999999944918844 47.37587880732561 0.54
   vertex 19.055878739146777 46.680000022538806 0.54
   vertex 23.687393052581672 53.687369329268996 0.54
  endloop
 endfacet
 facet normal -0.0 0.0 -1.0
  outer loop
   vertex 23.339416578838946 53.339440375057364 0.54
   vertex 14.999999944918844 47.37587880732561 0.54
   vertex 23.687393052581672 53.687369329268996 0.54
  endloop
 endfacet
 facet normal 0.0 0.0 -1.0
  outer loop
   vertex 43.31999993824295 43.32000002253881 0
   vertex 16.67999993824295 43.32000002253881 0
   vertex 30.49218882662609 44.99998322253881 0
  endloop
 endfacet
 facet normal 0.0 0.0 1.0
  outer loop
   vertex 16.67999993824295 43.32000002253881 0
   vertex 31.187794259300862 44.99998322253881 0
   vertex 30.49218882662609 44.99998322253881 0
  endloop
 endfacet
 facet normal 0.0 0.0 -1.0
  outer loop
   vertex 16.67999993824295 43.32000002253881 0
   vertex 19.055878739146777 46.680000022538806 0
   vertex 31.187794259300862 44.99998322253881 0
  endloop
 endfacet
 facet normal 0.0 0.0 1.0
  outer loop
   vertex 19.055878739146777 46.680000022538806 0
   vertex 30.4919461854141 45.000016822538804 0
   vertex 31.187794259300862 44.99998322253881 0
  endloop
 endfacet
 facet normal 0.0 0.0 -1.0
  outer loop
   vertex 19.055878739146777 46.680000022538806 0
   vertex 44.30412115622141 46.680000022538806 0
   vertex 30.4919461854141 45.000016822538804 0
  endloop
 endfacet
 facet normal 0.0 0.0 -1.0
  outer loop
   vertex 44.30412115622141 46.680000022538806 0
   vertex 31.18807050051304 45.000016822538804 0
   vertex 30.4919461854141 45.000016822538804 0
  endloop
 endfacet
 facet normal 0.0 0.0 -1.0
  outer loop
   vertex 44.30412115622141 46.680000022538806 0
   vertex 43.31999993824295 43.32000002253881 0
   vertex 31.18807050051304 45.000016822538804 0
  endloop
 endfacet
 facet normal 0.0 0.0 -1.0
  outer loop
   vertex 43.31999993824295 43.32000002253881 0
   vertex 30.49218882662609 44.99998322253881 0
   vertex 31.18807050051304 45.000016822538804 0
  endloop
 endfacet
 facet normal 0.0 -1.0 0.0
  outer loop
   vertex 16.67999993824295 43.32000002253881 0
   vertex 43.31999993824295 43.32000002253881 0
   vertex 43.31999993824295 43.32000002253881 0.54
  endloop
 endfacet
 facet normal 0.0 -1.0 0.0
  outer loop
   vertex 16.67999993824295 43.32000002253881 0.54
   vertex 16.67999993824295 43.32000002253881 0
   vertex 43.31999993824295 43.32000002253881 0.54
  endloop
 endfacet
 facet normal -0.8164965790814621 0.5773502718006372 0.0
  outer loop
   vertex 19.055878739146777 46.680000022538806 0
   vertex 16.67999993824295 43.32000002253881 0
   vertex 16.67999993824295 43.32000002253881 0.54
  endloop
 endfacet
 facet normal -0.8164965790814621 0.5773502718006372 0.0
  outer loop
   vertex 19.055878739146777 46.680000022538806 0.54
   vertex 19.055878739146777 46.680000022538806 0
   vertex 16.67999993824295 43.32000002253881 0.54
  endloop
 endfacet
 facet normal 0.0 1.0 0.0
  outer loop
   vertex 44.30412115622141 46.680000022538806 0
   vertex 19.055878739146777 46.680000022538806 0
   vertex 19.055878739146777 46.680000022538806 0.54
  endloop
 endfacet
 facet normal 0.0 1.0 0.0
  outer loop
   vertex 44.30412115622141 46.680000022538806 0.54
   vertex 44.30412115622141 46.680000022538806 0
   vertex 19.055878739146777 46.680000022538806 0.54
  endloop
 endfacet
 facet normal 0.9596829820476134 -0.2810846384422321 0.0
  outer loop
   vertex 43.31999993824295 43.32000002253881 0
   vertex 44.30412115622141 46.680000022538806 0
   vertex 44.30412115622141 46.680000022538806 0.54
  endloop
 endfacet
 facet normal 0.9596829820476134 -0.2810846384422321 0.0
  outer loop
   vertex 43.31999993824295 43.32000002253881 0.54
   vertex 43.31999993824295 43.32000002253881 0
   vertex 44.30412115622141 46.680000022538806 0.54
  endloop
 endfacet
 facet normal 0.0 -1.0 0.0
  outer loop
   vertex 30.49218882662609 44.99998322253881 0
   vertex 31.187794259300862 44.99998322253881 0
   vertex 30.49218882662609 44.99998322253881 0.54
  endloop
 endfacet
 facet normal 0.0 -1.0 0.0
  outer loop
   vertex 31.187794259300862 44.99998322253881 0
   vertex 31.187794259300862 44.99998322253881 0.54
   vertex 30.49218882662609 44.99998322253881 0.54
  endloop
 endfacet
 facet normal 4.8286402185322906e-05 0.9999999988342116 -0.0
  outer loop
   vertex 31.187794259300862 44.99998322253881 0
   vertex 30.4919461854141 45.000016822538804 0
   vertex 31.187794259300862 44.99998322253881 0.54
  endloop
 endfacet
 facet normal 4.8286402185322906e-05 0.9999999988342116 -0.0
  outer loop
   vertex 30.4919461854141 45.000016822538804 0
   vertex 30.4919461854141 45.000016822538804 0.54
   vertex 31.187794259300862 44.99998322253881 0.54
  endloop
 endfacet
 facet normal 0.0 -1.0 0.0
  outer loop
   vertex 30.4919461854141 45.000016822538804 0
   vertex 31.18807050051304 45.000016822538804 0
   vertex 30.4919461854141 45.000016822538804 0.54
  endloop
 endfacet
 facet normal 0.0 -1.0 0.0
  outer loop
   vertex 31.18807050051304 45.000016822538804 0
   vertex 31.18807050051304 45.000016822538804 0.54
   vertex 30.4919461854141 45.000016822538804 0.54
  endloop
 endfacet
 facet normal -4.828407072125432e-05 0.9999999988343242 0.0
  outer loop
   vertex 31.18807050051304 45.000016822538804 0
   vertex 30.49218882662609 44.99998322253881 0
   vertex 31.18807050051304 45.000016822538804 0.54
  endloop
 endfacet
 facet normal -4.828407072125432e-05 0.9999999988343242 0.0
  outer loop
   vertex 30.49218882662609 44.99998322253881 0
   vertex 30.49218882662609 44.99998322253881 0.54
   vertex 31.18807050051304 45.000016822538804 0.54
  endloop
 endfacet
 facet normal 0.0 0.0 1.0
  outer loop
   vertex 16.67999993824295 43.32000002253881 0.54
   vertex 43.31999993824295 43.32000002253881 0.54
   vertex 30.49218882662609 44.99998322253881 0.54
  endloop
 endfacet
 facet normal -0.0 0.0 -1.0
  outer loop
   vertex 31.187794259300862 44.99998322253881 0.54
   vertex 16.67999993824295 43.32000002253881 0.54
   vertex 30.49218882662609 44.99998322253881 0.54
  endloop
 endfacet
 facet normal 0.0 0.0 1.0
  outer loop
   vertex 19.055878739146777 46.680000022538806 0.54
   vertex 16.67999993824295 43.32000002253881 0.54
   vertex 31.187794259300862 44.99998322253881 0.54
  endloop
 endfacet
 facet normal 0.0 0.0 -1.0
  outer loop
   vertex 30.4919461854141 45.000016822538804 0.54
   vertex 19.055878739146777 46.680000022538806 0.54
   vertex 31.187794259300862 44.99998322253881 0.54
  endloop
 endfacet
 facet normal 0.0 0.0 1.0
  outer loop
   vertex 44.30412115622141 46.680000022538806 0.54
   vertex 19.055878739146777 46.680000022538806 0.54
   vertex 30.4919461854141 45.000016822538804 0.54
  endloop
 endfacet
 facet normal 0.0 -0.0 1.0
  outer loop
   vertex 31.18807050051304 45.000016822538804 0.54
   vertex 44.30412115622141 46.680000022538806 0.54
   vertex 30.4919461854141 45.000016822538804 0.54
  endloop
 endfacet
 facet normal 0.0 -0.0 1.0
  outer loop
   vertex 43.31999993824295 43.32000002253881 0.54
   vertex 44.30412115622141 46.680000022538806 0.54
   vertex 31.18807050051304 45.000016822538804 0.54
  endloop
 endfacet
 facet normal -0.0 0.0 1.0
  outer loop
   vertex 30.49218882662609 44.99998322253881 0.54
   vertex 43.31999993824295 43.32000002253881 0.54
   vertex 31.18807050051304 45.000016822538804 0.54
  endloop
 endfacet
endsolid
