solid PyGamic generated __All_Crease__ SLA File
 facet normal 0.0 0.0 -1.0
  outer loop
   vertex 32.06448860109444 14.32 0
   vertex -0.000337828981146697 14.32 0
   vertex 16.032235710188793 15.9999832 0
  endloop
 endfacet
 facet normal 0.0 0.0 -1.0
  outer loop
   vertex -0.000337828981146697 14.32 0
   vertex 16.031915061924497 15.9999832 0
   vertex 16.032235710188793 15.9999832 0
  endloop
 endfacet
 facet normal 0.0 0.0 -1.0
  outer loop
   vertex -0.000337828981146697 14.32 0
   vertex -0.000337828981146697 17.68 0
   vertex 16.031915061924497 15.9999832 0
  endloop
 endfacet
 facet normal 0.0 0.0 -1.0
  outer loop
   vertex -0.000337828981146697 17.68 0
   vertex 16.031915061924494 16.0000168 0
   vertex 16.031915061924497 15.9999832 0
  endloop
 endfacet
 facet normal 0.0 0.0 -1.0
  outer loop
   vertex -0.000337828981146697 17.68 0
   vertex 32.06448860109443 17.68 0
   vertex 16.031915061924494 16.0000168 0
  endloop
 endfacet
 facet normal 0.0 0.0 -1.0
  outer loop
   vertex 32.06448860109443 17.68 0
   vertex 16.032235710188797 16.0000168 0
   vertex 16.031915061924494 16.0000168 0
  endloop
 endfacet
 facet normal 0.0 -0.0 -1.0
  outer loop
   vertex 32.06448860109443 17.68 0
   vertex 32.06448860109444 14.32 0
   vertex 16.032235710188797 16.0000168 0
  endloop
 endfacet
 facet normal 0.0 0.0 -1.0
  outer loop
   vertex 32.06448860109444 14.32 0
   vertex 16.032235710188793 15.9999832 0
   vertex 16.032235710188797 16.0000168 0
  endloop
 endfacet
 facet normal 0.0 -1.0 0.0
  outer loop
   vertex -0.000337828981146697 14.32 0
   vertex 32.06448860109444 14.32 0
   vertex 32.06448860109444 14.32 0.54
  endloop
 endfacet
 facet normal 0.0 -1.0 0.0
  outer loop
   vertex -0.000337828981146697 14.32 0.54
   vertex -0.000337828981146697 14.32 0
   vertex 32.06448860109444 14.32 0.54
  endloop
 endfacet
 facet normal -1.0 0.0 0.0
  outer loop
   vertex -0.000337828981146697 17.68 0
   vertex -0.000337828981146697 14.32 0
   vertex -0.000337828981146697 14.32 0.54
  endloop
 endfacet
 facet normal -1.0 -0.0 -0.0
  outer loop
   vertex -0.000337828981146697 17.68 0.54
   vertex -0.000337828981146697 17.68 0
   vertex -0.000337828981146697 14.32 0.54
  endloop
 endfacet
 facet normal 0.0 1.0 0.0
  outer loop
   vertex 32.06448860109443 17.68 0
   vertex -0.000337828981146697 17.68 0
   vertex -0.000337828981146697 17.68 0.54
  endloop
 endfacet
 facet normal 0.0 1.0 0.0
  outer loop
   vertex 32.06448860109443 17.68 0.54
   vertex 32.06448860109443 17.68 0
   vertex -0.000337828981146697 17.68 0.54
  endloop
 endfacet
 facet normal 1.0 2.1147105230955366e-15 0.0
  outer loop
   vertex 32.06448860109444 14.32 0
   vertex 32.06448860109443 17.68 0
   vertex 32.06448860109443 17.68 0.54
  endloop
 endfacet
 facet normal 1.0 2.1147105230955366e-15 0.0
  outer loop
   vertex 32.06448860109444 14.32 0.54
   vertex 32.06448860109444 14.32 0
   vertex 32.06448860109443 17.68 0.54
  endloop
 endfacet
 facet normal 0.0 1.0 -0.0
  outer loop
   vertex 16.032235710188793 15.9999832 0
   vertex 16.031915061924497 15.9999832 0
   vertex 16.032235710188793 15.9999832 0.54
  endloop
 endfacet
 facet normal 0.0 1.0 0.0
  outer loop
   vertex 16.031915061924497 15.9999832 0
   vertex 16.031915061924497 15.9999832 0.54
   vertex 16.032235710188793 15.9999832 0.54
  endloop
 endfacet
 facet normal 1.0 1.0573552615453131e-10 -0.0
  outer loop
   vertex 16.031915061924497 15.9999832 0
   vertex 16.031915061924494 16.0000168 0
   vertex 16.031915061924497 15.9999832 0.54
  endloop
 endfacet
 facet normal 1.0 1.0573552615453131e-10 -0.0
  outer loop
   vertex 16.031915061924494 16.0000168 0
   vertex 16.031915061924494 16.0000168 0.54
   vertex 16.031915061924497 15.9999832 0.54
  endloop
 endfacet
 facet normal 0.0 -1.0 0.0
  outer loop
   vertex 16.031915061924494 16.0000168 0
   vertex 16.032235710188797 16.0000168 0
   vertex 16.031915061924494 16.0000168 0.54
  endloop
 endfacet
 facet normal 0.0 -1.0 0.0
  outer loop
   vertex 16.032235710188797 16.0000168 0
   vertex 16.032235710188797 16.0000168 0.54
   vertex 16.031915061924494 16.0000168 0.54
  endloop
 endfacet
 facet normal -1.0 1.0573552615453131e-10 0.0
  outer loop
   vertex 16.032235710188797 16.0000168 0
   vertex 16.032235710188793 15.9999832 0
   vertex 16.032235710188797 16.0000168 0.54
  endloop
 endfacet
 facet normal -1.0 1.0573552615453131e-10 0.0
  outer loop
   vertex 16.032235710188793 15.9999832 0
   vertex 16.032235710188793 15.9999832 0.54
   vertex 16.032235710188797 16.0000168 0.54
  endloop
 endfacet
 facet normal 0.0 0.0 1.0
  outer loop
   vertex -0.000337828981146697 14.32 0.54
   vertex 32.06448860109444 14.32 0.54
   vertex 16.032235710188793 15.9999832 0.54
  endloop
 endfacet
 facet normal -0.0 0.0 1.0
  outer loop
   vertex 16.031915061924497 15.9999832 0.54
   vertex -0.000337828981146697 14.32 0.54
   vertex 16.032235710188793 15.9999832 0.54
  endloop
 endfacet
 facet normal 0.0 0.0 1.0
  outer loop
   vertex -0.000337828981146697 17.68 0.54
   vertex -0.000337828981146697 14.32 0.54
   vertex 16.031915061924497 15.9999832 0.54
  endloop
 endfacet
 facet normal 0.0 0.0 1.0
  outer loop
   vertex 16.031915061924494 16.0000168 0.54
   vertex -0.000337828981146697 17.68 0.54
   vertex 16.031915061924497 15.9999832 0.54
  endloop
 endfacet
 facet normal 0.0 0.0 1.0
  outer loop
   vertex 32.06448860109443 17.68 0.54
   vertex -0.000337828981146697 17.68 0.54
   vertex 16.031915061924494 16.0000168 0.54
  endloop
 endfacet
 facet normal 0.0 -0.0 1.0
  outer loop
   vertex 16.032235710188797 16.0000168 0.54
   vertex 32.06448860109443 17.68 0.54
   vertex 16.031915061924494 16.0000168 0.54
  endloop
 endfacet
 facet normal 0.0 0.0 1.0
  outer loop
   vertex 32.06448860109444 14.32 0.54
   vertex 32.06448860109443 17.68 0.54
   vertex 16.032235710188797 16.0000168 0.54
  endloop
 endfacet
 facet normal -0.0 0.0 1.0
  outer loop
   vertex 16.032235710188793 15.9999832 0.54
   vertex 32.06448860109444 14.32 0.54
   vertex 16.032235710188797 16.0000168 0.54
  endloop
 endfacet
 facet normal 0.0 0.0 -1.0
  outer loop
   vertex 5.853734913893838 0.001 0
   vertex 32.06448860109444 14.32 0
   vertex 22.46313946191596 7.160428405000001 0
  endloop
 endfacet
 facet normal 0.0 0.0 1.0
  outer loop
   vertex 32.06448860109444 14.32 0
   vertex 22.426963833158354 7.140665568938057 0
   vertex 22.46313946191596 7.160428405000001 0
  endloop
 endfacet
 facet normal 0.0 -0.0 -1.0
  outer loop
   vertex 32.06448860109444 14.32 0
   vertex 38.99999999999999 14.280187549751613 0
   vertex 22.426963833158354 7.140665568938057 0
  endloop
 endfacet
 facet normal 0.0 0.0 1.0
  outer loop
   vertex 38.99999999999999 14.280187549751613 0
   vertex 22.46347092456682 7.160571196875497 0
   vertex 22.426963833158354 7.140665568938057 0
  endloop
 endfacet
 facet normal 0.0 0.0 -1.0
  outer loop
   vertex 38.99999999999999 14.280187549751613 0
   vertex 12.862122514150357 0.001 0
   vertex 22.46347092456682 7.160571196875497 0
  endloop
 endfacet
 facet normal 0.0 0.0 -1.0
  outer loop
   vertex 12.862122514150357 0.001 0
   vertex 22.426771809497488 7.1405223789380585 0
   vertex 22.46347092456682 7.160571196875497 0
  endloop
 endfacet
 facet normal 0.0 0.0 -1.0
  outer loop
   vertex 12.862122514150357 0.001 0
   vertex 5.853734913893838 0.001 0
   vertex 22.426771809497488 7.1405223789380585 0
  endloop
 endfacet
 facet normal 0.0 0.0 -1.0
  outer loop
   vertex 5.853734913893838 0.001 0
   vertex 22.46313946191596 7.160428405000001 0
   vertex 22.426771809497488 7.1405223789380585 0
  endloop
 endfacet
 facet normal -0.47942553860420295 0.8775825618903726 0.0
  outer loop
   vertex 32.06448860109444 14.32 0
   vertex 5.853734913893838 0.001 0
   vertex 5.853734913893838 0.001 0.54
  endloop
 endfacet
 facet normal -0.47942553860420295 0.8775825618903726 0.0
  outer loop
   vertex 32.06448860109444 14.32 0.54
   vertex 32.06448860109444 14.32 0
   vertex 5.853734913893838 0.001 0.54
  endloop
 endfacet
 facet normal 0.005740282442961177 0.9999835244430155 0.0
  outer loop
   vertex 38.99999999999999 14.280187549751613 0
   vertex 32.06448860109444 14.32 0
   vertex 32.06448860109444 14.32 0.54
  endloop
 endfacet
 facet normal 0.005740282442961177 0.9999835244430155 0.0
  outer loop
   vertex 38.99999999999999 14.280187549751613 0.54
   vertex 38.99999999999999 14.280187549751613 0
   vertex 32.06448860109444 14.32 0.54
  endloop
 endfacet
 facet normal 0.47942553860420295 -0.8775825618903725 0.0
  outer loop
   vertex 12.862122514150357 0.001 0
   vertex 38.99999999999999 14.280187549751613 0
   vertex 38.99999999999999 14.280187549751613 0.54
  endloop
 endfacet
 facet normal 0.47942553860420295 -0.8775825618903725 0.0
  outer loop
   vertex 12.862122514150357 0.001 0.54
   vertex 12.862122514150357 0.001 0
   vertex 38.99999999999999 14.280187549751613 0.54
  endloop
 endfacet
 facet normal 0.0 -1.0 0.0
  outer loop
   vertex 5.853734913893838 0.001 0
   vertex 12.862122514150357 0.001 0
   vertex 12.862122514150357 0.001 0.54
  endloop
 endfacet
 facet normal 0.0 -1.0 0.0
  outer loop
   vertex 5.853734913893838 0.001 0.54
   vertex 5.853734913893838 0.001 0
   vertex 12.862122514150357 0.001 0.54
  endloop
 endfacet
 facet normal -0.4794255386041729 0.8775825618903891 0.0
  outer loop
   vertex 22.46313946191596 7.160428405000001 0
   vertex 22.426963833158354 7.140665568938057 0
   vertex 22.46313946191596 7.160428405000001 0.54
  endloop
 endfacet
 facet normal -0.4794255386041729 0.8775825618903891 0.0
  outer loop
   vertex 22.426963833158354 7.140665568938057 0
   vertex 22.426963833158354 7.140665568938057 0.54
   vertex 22.46313946191596 7.160428405000001 0.54
  endloop
 endfacet
 facet normal 0.4787162460613 -0.8779696781535095 0.0
  outer loop
   vertex 22.426963833158354 7.140665568938057 0
   vertex 22.46347092456682 7.160571196875497 0
   vertex 22.426963833158354 7.140665568938057 0.54
  endloop
 endfacet
 facet normal 0.4787162460613 -0.8779696781535095 0.0
  outer loop
   vertex 22.46347092456682 7.160571196875497 0
   vertex 22.46347092456682 7.160571196875497 0.54
   vertex 22.426963833158354 7.140665568938057 0.54
  endloop
 endfacet
 facet normal -0.4794255386041793 0.8775825618903856 0.0
  outer loop
   vertex 22.46347092456682 7.160571196875497 0
   vertex 22.426771809497488 7.1405223789380585 0
   vertex 22.46347092456682 7.160571196875497 0.54
  endloop
 endfacet
 facet normal -0.4794255386041793 0.8775825618903856 0.0
  outer loop
   vertex 22.426771809497488 7.1405223789380585 0
   vertex 22.426771809497488 7.1405223789380585 0.54
   vertex 22.46347092456682 7.160571196875497 0.54
  endloop
 endfacet
 facet normal 0.4801366069760738 -0.8771937292534092 0.0
  outer loop
   vertex 22.426771809497488 7.1405223789380585 0
   vertex 22.46313946191596 7.160428405000001 0
   vertex 22.426771809497488 7.1405223789380585 0.54
  endloop
 endfacet
 facet normal 0.4801366069760738 -0.8771937292534092 0.0
  outer loop
   vertex 22.46313946191596 7.160428405000001 0
   vertex 22.46313946191596 7.160428405000001 0.54
   vertex 22.426771809497488 7.1405223789380585 0.54
  endloop
 endfacet
 facet normal 0.0 0.0 1.0
  outer loop
   vertex 32.06448860109444 14.32 0.54
   vertex 5.853734913893838 0.001 0.54
   vertex 22.46313946191596 7.160428405000001 0.54
  endloop
 endfacet
 facet normal 0.0 0.0 -1.0
  outer loop
   vertex 22.426963833158354 7.140665568938057 0.54
   vertex 32.06448860109444 14.32 0.54
   vertex 22.46313946191596 7.160428405000001 0.54
  endloop
 endfacet
 facet normal 0.0 0.0 1.0
  outer loop
   vertex 38.99999999999999 14.280187549751613 0.54
   vertex 32.06448860109444 14.32 0.54
   vertex 22.426963833158354 7.140665568938057 0.54
  endloop
 endfacet
 facet normal 0.0 -0.0 -1.0
  outer loop
   vertex 22.46347092456682 7.160571196875497 0.54
   vertex 38.99999999999999 14.280187549751613 0.54
   vertex 22.426963833158354 7.140665568938057 0.54
  endloop
 endfacet
 facet normal 0.0 0.0 1.0
  outer loop
   vertex 12.862122514150357 0.001 0.54
   vertex 38.99999999999999 14.280187549751613 0.54
   vertex 22.46347092456682 7.160571196875497 0.54
  endloop
 endfacet
 facet normal -0.0 0.0 1.0
  outer loop
   vertex 22.426771809497488 7.1405223789380585 0.54
   vertex 12.862122514150357 0.001 0.54
   vertex 22.46347092456682 7.160571196875497 0.54
  endloop
 endfacet
 facet normal 0.0 0.0 1.0
  outer loop
   vertex 5.853734913893838 0.001 0.54
   vertex 12.862122514150357 0.001 0.54
   vertex 22.426771809497488 7.1405223789380585 0.54
  endloop
 endfacet
 facet normal 0.0 0.0 1.0
  outer loop
   vertex 22.46313946191596 7.160428405000001 0.54
   vertex 5.853734913893838 0.001 0.54
   vertex 22.426771809497488 7.1405223789380585 0.54
  endloop
 endfacet
 facet normal 0.0 0.0 -1.0
  outer loop
   vertex 32.06448860109443 17.68 0
   vertex 5.853734913893836 31.999 0
   vertex 22.42696383315836 24.859334431061942 0
  endloop
 endfacet
 facet normal 0.0 0.0 1.0
  outer loop
   vertex 5.853734913893836 31.999 0
   vertex 22.463139461915965 24.839571595 0
   vertex 22.42696383315836 24.859334431061942 0
  endloop
 endfacet
 facet normal 0.0 0.0 -1.0
  outer loop
   vertex 5.853734913893836 31.999 0
   vertex 12.862122514150368 31.999 0
   vertex 22.463139461915965 24.839571595 0
  endloop
 endfacet
 facet normal 0.0 0.0 1.0
  outer loop
   vertex 12.862122514150368 31.999 0
   vertex 22.426771809497495 24.85947762106194 0
   vertex 22.463139461915965 24.839571595 0
  endloop
 endfacet
 facet normal 0.0 0.0 -1.0
  outer loop
   vertex 12.862122514150368 31.999 0
   vertex 39.00000000000001 17.719812450248387 0
   vertex 22.426771809497495 24.85947762106194 0
  endloop
 endfacet
 facet normal 0.0 0.0 -1.0
  outer loop
   vertex 39.00000000000001 17.719812450248387 0
   vertex 22.463470924566824 24.839428803124502 0
   vertex 22.426771809497495 24.85947762106194 0
  endloop
 endfacet
 facet normal -0.0 0.0 -1.0
  outer loop
   vertex 39.00000000000001 17.719812450248387 0
   vertex 32.06448860109443 17.68 0
   vertex 22.463470924566824 24.839428803124502 0
  endloop
 endfacet
 facet normal 0.0 0.0 -1.0
  outer loop
   vertex 32.06448860109443 17.68 0
   vertex 22.42696383315836 24.859334431061942 0
   vertex 22.463470924566824 24.839428803124502 0
  endloop
 endfacet
 facet normal -0.4794255386042031 -0.8775825618903728 0.0
  outer loop
   vertex 5.853734913893836 31.999 0
   vertex 32.06448860109443 17.68 0
   vertex 32.06448860109443 17.68 0.54
  endloop
 endfacet
 facet normal -0.4794255386042031 -0.8775825618903728 -0.0
  outer loop
   vertex 5.853734913893836 31.999 0.54
   vertex 5.853734913893836 31.999 0
   vertex 32.06448860109443 17.68 0.54
  endloop
 endfacet
 facet normal 0.0 1.0 0.0
  outer loop
   vertex 12.862122514150368 31.999 0
   vertex 5.853734913893836 31.999 0
   vertex 5.853734913893836 31.999 0.54
  endloop
 endfacet
 facet normal 0.0 1.0 0.0
  outer loop
   vertex 12.862122514150368 31.999 0.54
   vertex 12.862122514150368 31.999 0
   vertex 5.853734913893836 31.999 0.54
  endloop
 endfacet
 facet normal 0.4794255386042029 0.8775825618903726 0.0
  outer loop
   vertex 39.00000000000001 17.719812450248387 0
   vertex 12.862122514150368 31.999 0
   vertex 12.862122514150368 31.999 0.54
  endloop
 endfacet
 facet normal 0.4794255386042029 0.8775825618903726 0.0
  outer loop
   vertex 39.00000000000001 17.719812450248387 0.54
   vertex 39.00000000000001 17.719812450248387 0
   vertex 12.862122514150368 31.999 0.54
  endloop
 endfacet
 facet normal 0.005740282442961159 -0.9999835244430155 0.0
  outer loop
   vertex 32.06448860109443 17.68 0
   vertex 39.00000000000001 17.719812450248387 0
   vertex 39.00000000000001 17.719812450248387 0.54
  endloop
 endfacet
 facet normal 0.005740282442961159 -0.9999835244430155 0.0
  outer loop
   vertex 32.06448860109443 17.68 0.54
   vertex 32.06448860109443 17.68 0
   vertex 39.00000000000001 17.719812450248387 0.54
  endloop
 endfacet
 facet normal -0.4794255386041927 -0.8775825618903784 0.0
  outer loop
   vertex 22.42696383315836 24.859334431061942 0
   vertex 22.463139461915965 24.839571595 0
   vertex 22.42696383315836 24.859334431061942 0.54
  endloop
 endfacet
 facet normal -0.4794255386041927 -0.8775825618903784 0.0
  outer loop
   vertex 22.463139461915965 24.839571595 0
   vertex 22.463139461915965 24.839571595 0.54
   vertex 22.42696383315836 24.859334431061942 0.54
  endloop
 endfacet
 facet normal 0.4801366069761099 0.8771937292533895 -0.0
  outer loop
   vertex 22.463139461915965 24.839571595 0
   vertex 22.426771809497495 24.85947762106194 0
   vertex 22.463139461915965 24.839571595 0.54
  endloop
 endfacet
 facet normal 0.4801366069761099 0.8771937292533895 -0.0
  outer loop
   vertex 22.426771809497495 24.85947762106194 0
   vertex 22.426771809497495 24.85947762106194 0.54
   vertex 22.463139461915965 24.839571595 0.54
  endloop
 endfacet
 facet normal -0.47942553860423137 -0.8775825618903571 0.0
  outer loop
   vertex 22.426771809497495 24.85947762106194 0
   vertex 22.463470924566824 24.839428803124502 0
   vertex 22.426771809497495 24.85947762106194 0.54
  endloop
 endfacet
 facet normal -0.47942553860423137 -0.8775825618903571 0.0
  outer loop
   vertex 22.463470924566824 24.839428803124502 0
   vertex 22.463470924566824 24.839428803124502 0.54
   vertex 22.426771809497495 24.85947762106194 0.54
  endloop
 endfacet
 facet normal 0.4787162460613358 0.8779696781534898 -0.0
  outer loop
   vertex 22.463470924566824 24.839428803124502 0
   vertex 22.42696383315836 24.859334431061942 0
   vertex 22.463470924566824 24.839428803124502 0.54
  endloop
 endfacet
 facet normal 0.4787162460613358 0.8779696781534898 -0.0
  outer loop
   vertex 22.42696383315836 24.859334431061942 0
   vertex 22.42696383315836 24.859334431061942 0.54
   vertex 22.463470924566824 24.839428803124502 0.54
  endloop
 endfacet
 facet normal 0.0 0.0 1.0
  outer loop
   vertex 5.853734913893836 31.999 0.54
   vertex 32.06448860109443 17.68 0.54
   vertex 22.42696383315836 24.859334431061942 0.54
  endloop
 endfacet
 facet normal 0.0 0.0 -1.0
  outer loop
   vertex 22.463139461915965 24.839571595 0.54
   vertex 5.853734913893836 31.999 0.54
   vertex 22.42696383315836 24.859334431061942 0.54
  endloop
 endfacet
 facet normal 0.0 0.0 1.0
  outer loop
   vertex 12.862122514150368 31.999 0.54
   vertex 5.853734913893836 31.999 0.54
   vertex 22.463139461915965 24.839571595 0.54
  endloop
 endfacet
 facet normal 0.0 0.0 -1.0
  outer loop
   vertex 22.426771809497495 24.85947762106194 0.54
   vertex 12.862122514150368 31.999 0.54
   vertex 22.463139461915965 24.839571595 0.54
  endloop
 endfacet
 facet normal 0.0 0.0 1.0
  outer loop
   vertex 39.00000000000001 17.719812450248387 0.54
   vertex 12.862122514150368 31.999 0.54
   vertex 22.426771809497495 24.85947762106194 0.54
  endloop
 endfacet
 facet normal -0.0 -0.0 1.0
  outer loop
   vertex 22.463470924566824 24.839428803124502 0.54
   vertex 39.00000000000001 17.719812450248387 0.54
   vertex 22.426771809497495 24.85947762106194 0.54
  endloop
 endfacet
 facet normal 0.0 -0.0 1.0
  outer loop
   vertex 32.06448860109443 17.68 0.54
   vertex 39.00000000000001 17.719812450248387 0.54
   vertex 22.463470924566824 24.839428803124502 0.54
  endloop
 endfacet
 facet normal 0.0 0.0 1.0
  outer loop
   vertex 22.42696383315836 24.859334431061942 0.54
   vertex 32.06448860109443 17.68 0.54
   vertex 22.463470924566824 24.839428803124502 0.54
  endloop
 endfacet
 facet normal 0.0 0.0 -1.0
  outer loop
   vertex 65.13787748584964 0.001 0
   vertex 38.99999999999999 14.280187549751613 0
   vertex 54.00011137877485 7.999920009999999 0
  endloop
 endfacet
 facet normal 0.0 0.0 1.0
  outer loop
   vertex 38.99999999999999 14.280187549751613 0
   vertex 55.53652907543318 7.160571196875497 0
   vertex 54.00011137877485 7.999920009999999 0
  endloop
 endfacet
 facet normal 0.0 0.0 -1.0
  outer loop
   vertex 38.99999999999999 14.280187549751613 0
   vertex 45.93551139890557 14.32 0
   vertex 55.53652907543318 7.160571196875497 0
  endloop
 endfacet
 facet normal 0.0 0.0 1.0
  outer loop
   vertex 45.93551139890557 14.32 0
   vertex 53.99991935511398 8.000063199999998 0
   vertex 55.53652907543318 7.160571196875497 0
  endloop
 endfacet
 facet normal 0.0 0.0 -1.0
  outer loop
   vertex 45.93551139890557 14.32 0
   vertex 68.99999999999999 1.7198124502483845 0
   vertex 53.99991935511398 8.000063199999998 0
  endloop
 endfacet
 facet normal 0.0 0.0 -1.0
  outer loop
   vertex 68.99999999999999 1.7198124502483845 0
   vertex 55.53682907543318 7.1604455931245035 0
   vertex 53.99991935511398 8.000063199999998 0
  endloop
 endfacet
 facet normal -0.0 0.0 -1.0
  outer loop
   vertex 68.99999999999999 1.7198124502483845 0
   vertex 65.13787748584964 0.001 0
   vertex 55.53682907543318 7.1604455931245035 0
  endloop
 endfacet
 facet normal 0.0 0.0 -1.0
  outer loop
   vertex 65.13787748584964 0.001 0
   vertex 54.00011137877485 7.999920009999999 0
   vertex 55.53682907543318 7.1604455931245035 0
  endloop
 endfacet
 facet normal -0.47942553860420284 -0.8775825618903729 0.0
  outer loop
   vertex 38.99999999999999 14.280187549751613 0
   vertex 65.13787748584964 0.001 0
   vertex 65.13787748584964 0.001 0.54
  endloop
 endfacet
 facet normal -0.47942553860420284 -0.8775825618903729 -0.0
  outer loop
   vertex 38.99999999999999 14.280187549751613 0.54
   vertex 38.99999999999999 14.280187549751613 0
   vertex 65.13787748584964 0.001 0.54
  endloop
 endfacet
 facet normal -0.005740282442961159 0.9999835244430155 0.0
  outer loop
   vertex 45.93551139890557 14.32 0
   vertex 38.99999999999999 14.280187549751613 0
   vertex 38.99999999999999 14.280187549751613 0.54
  endloop
 endfacet
 facet normal -0.005740282442961159 0.9999835244430155 0.0
  outer loop
   vertex 45.93551139890557 14.32 0.54
   vertex 45.93551139890557 14.32 0
   vertex 38.99999999999999 14.280187549751613 0.54
  endloop
 endfacet
 facet normal 0.4794255386042033 0.8775825618903725 0.0
  outer loop
   vertex 68.99999999999999 1.7198124502483845 0
   vertex 45.93551139890557 14.32 0
   vertex 45.93551139890557 14.32 0.54
  endloop
 endfacet
 facet normal 0.4794255386042033 0.8775825618903725 0.0
  outer loop
   vertex 68.99999999999999 1.7198124502483845 0.54
   vertex 68.99999999999999 1.7198124502483845 0
   vertex 45.93551139890557 14.32 0.54
  endloop
 endfacet
 facet normal 0.4065954267588308 -0.9136083181204099 0.0
  outer loop
   vertex 65.13787748584964 0.001 0
   vertex 68.99999999999999 1.7198124502483845 0
   vertex 68.99999999999999 1.7198124502483845 0.54
  endloop
 endfacet
 facet normal 0.4065954267588308 -0.9136083181204099 0.0
  outer loop
   vertex 65.13787748584964 0.001 0.54
   vertex 65.13787748584964 0.001 0
   vertex 68.99999999999999 1.7198124502483845 0.54
  endloop
 endfacet
 facet normal -0.4794255386042 -0.8775825618903743 0.0
  outer loop
   vertex 54.00011137877485 7.999920009999999 0
   vertex 55.53652907543318 7.160571196875497 0
   vertex 54.00011137877485 7.999920009999999 0.54
  endloop
 endfacet
 facet normal -0.4794255386042 -0.8775825618903743 0.0
  outer loop
   vertex 55.53652907543318 7.160571196875497 0
   vertex 55.53652907543318 7.160571196875497 0.54
   vertex 54.00011137877485 7.999920009999999 0.54
  endloop
 endfacet
 facet normal 0.4794423787110163 0.8775733618882938 -0.0
  outer loop
   vertex 55.53652907543318 7.160571196875497 0
   vertex 53.99991935511398 8.000063199999998 0
   vertex 55.53652907543318 7.160571196875497 0.54
  endloop
 endfacet
 facet normal 0.4794423787110163 0.8775733618882938 -0.0
  outer loop
   vertex 53.99991935511398 8.000063199999998 0
   vertex 53.99991935511398 8.000063199999998 0.54
   vertex 55.53652907543318 7.160571196875497 0.54
  endloop
 endfacet
 facet normal -0.4794255386041991 -0.877582561890375 0.0
  outer loop
   vertex 53.99991935511398 8.000063199999998 0
   vertex 55.53682907543318 7.1604455931245035 0
   vertex 53.99991935511398 8.000063199999998 0.54
  endloop
 endfacet
 facet normal -0.4794255386041991 -0.877582561890375 0.0
  outer loop
   vertex 55.53682907543318 7.1604455931245035 0
   vertex 55.53682907543318 7.1604455931245035 0.54
   vertex 53.99991935511398 8.000063199999998 0.54
  endloop
 endfacet
 facet normal 0.47940869915106965 0.8775917611157703 -0.0
  outer loop
   vertex 55.53682907543318 7.1604455931245035 0
   vertex 54.00011137877485 7.999920009999999 0
   vertex 55.53682907543318 7.1604455931245035 0.54
  endloop
 endfacet
 facet normal 0.47940869915106965 0.8775917611157703 -0.0
  outer loop
   vertex 54.00011137877485 7.999920009999999 0
   vertex 54.00011137877485 7.999920009999999 0.54
   vertex 55.53682907543318 7.1604455931245035 0.54
  endloop
 endfacet
 facet normal 0.0 0.0 1.0
  outer loop
   vertex 38.99999999999999 14.280187549751613 0.54
   vertex 65.13787748584964 0.001 0.54
   vertex 54.00011137877485 7.999920009999999 0.54
  endloop
 endfacet
 facet normal 0.0 0.0 -1.0
  outer loop
   vertex 55.53652907543318 7.160571196875497 0.54
   vertex 38.99999999999999 14.280187549751613 0.54
   vertex 54.00011137877485 7.999920009999999 0.54
  endloop
 endfacet
 facet normal 0.0 0.0 1.0
  outer loop
   vertex 45.93551139890557 14.32 0.54
   vertex 38.99999999999999 14.280187549751613 0.54
   vertex 55.53652907543318 7.160571196875497 0.54
  endloop
 endfacet
 facet normal 0.0 0.0 -1.0
  outer loop
   vertex 53.99991935511398 8.000063199999998 0.54
   vertex 45.93551139890557 14.32 0.54
   vertex 55.53652907543318 7.160571196875497 0.54
  endloop
 endfacet
 facet normal 0.0 0.0 1.0
  outer loop
   vertex 68.99999999999999 1.7198124502483845 0.54
   vertex 45.93551139890557 14.32 0.54
   vertex 53.99991935511398 8.000063199999998 0.54
  endloop
 endfacet
 facet normal -0.0 -0.0 1.0
  outer loop
   vertex 55.53682907543318 7.1604455931245035 0.54
   vertex 68.99999999999999 1.7198124502483845 0.54
   vertex 53.99991935511398 8.000063199999998 0.54
  endloop
 endfacet
 facet normal 0.0 -0.0 1.0
  outer loop
   vertex 65.13787748584964 0.001 0.54
   vertex 68.99999999999999 1.7198124502483845 0.54
   vertex 55.53682907543318 7.1604455931245035 0.54
  endloop
 endfacet
 facet normal 0.0 0.0 1.0
  outer loop
   vertex 54.00011137877485 7.999920009999999 0.54
   vertex 65.13787748584964 0.001 0.54
   vertex 55.53682907543318 7.1604455931245035 0.54
  endloop
 endfacet
 facet normal 0.0 0.0 -1.0
  outer loop
   vertex 39.00000000000001 17.719812450248387 0
   vertex 65.13787748584964 31.999 0
   vertex 55.53652907543318 24.839428803124502 0
  endloop
 endfacet
 facet normal 0.0 0.0 1.0
  outer loop
   vertex 65.13787748584964 31.999 0
   vertex 54.000111378774854 24.000079990000003 0
   vertex 55.53652907543318 24.839428803124502 0
  endloop
 endfacet
 facet normal 0.0 -0.0 -1.0
  outer loop
   vertex 65.13787748584964 31.999 0
   vertex 68.99999999999999 30.280187549751616 0
   vertex 54.000111378774854 24.000079990000003 0
  endloop
 endfacet
 facet normal 0.0 0.0 1.0
  outer loop
   vertex 68.99999999999999 30.280187549751616 0
   vertex 55.536829075433175 24.839554406875497 0
   vertex 54.000111378774854 24.000079990000003 0
  endloop
 endfacet
 facet normal 0.0 0.0 -1.0
  outer loop
   vertex 68.99999999999999 30.280187549751616 0
   vertex 45.935511398905554 17.68 0
   vertex 55.536829075433175 24.839554406875497 0
  endloop
 endfacet
 facet normal 0.0 0.0 -1.0
  outer loop
   vertex 45.935511398905554 17.68 0
   vertex 53.99991935511399 23.9999368 0
   vertex 55.536829075433175 24.839554406875497 0
  endloop
 endfacet
 facet normal 0.0 0.0 -1.0
  outer loop
   vertex 45.935511398905554 17.68 0
   vertex 39.00000000000001 17.719812450248387 0
   vertex 53.99991935511399 23.9999368 0
  endloop
 endfacet
 facet normal 0.0 0.0 -1.0
  outer loop
   vertex 39.00000000000001 17.719812450248387 0
   vertex 55.53652907543318 24.839428803124502 0
   vertex 53.99991935511399 23.9999368 0
  endloop
 endfacet
 facet normal -0.4794255386042029 0.8775825618903725 0.0
  outer loop
   vertex 65.13787748584964 31.999 0
   vertex 39.00000000000001 17.719812450248387 0
   vertex 39.00000000000001 17.719812450248387 0.54
  endloop
 endfacet
 facet normal -0.4794255386042029 0.8775825618903725 0.0
  outer loop
   vertex 65.13787748584964 31.999 0.54
   vertex 65.13787748584964 31.999 0
   vertex 39.00000000000001 17.719812450248387 0.54
  endloop
 endfacet
 facet normal 0.4065954267588305 0.9136083181204103 0.0
  outer loop
   vertex 68.99999999999999 30.280187549751616 0
   vertex 65.13787748584964 31.999 0
   vertex 65.13787748584964 31.999 0.54
  endloop
 endfacet
 facet normal 0.4065954267588305 0.9136083181204103 0.0
  outer loop
   vertex 68.99999999999999 30.280187549751616 0.54
   vertex 68.99999999999999 30.280187549751616 0
   vertex 65.13787748584964 31.999 0.54
  endloop
 endfacet
 facet normal 0.4794255386042031 -0.8775825618903726 0.0
  outer loop
   vertex 45.935511398905554 17.68 0
   vertex 68.99999999999999 30.280187549751616 0
   vertex 68.99999999999999 30.280187549751616 0.54
  endloop
 endfacet
 facet normal 0.4794255386042031 -0.8775825618903726 0.0
  outer loop
   vertex 45.935511398905554 17.68 0.54
   vertex 45.935511398905554 17.68 0
   vertex 68.99999999999999 30.280187549751616 0.54
  endloop
 endfacet
 facet normal -0.005740282442961183 -0.9999835244430155 0.0
  outer loop
   vertex 39.00000000000001 17.719812450248387 0
   vertex 45.935511398905554 17.68 0
   vertex 45.935511398905554 17.68 0.54
  endloop
 endfacet
 facet normal -0.005740282442961183 -0.9999835244430155 -0.0
  outer loop
   vertex 39.00000000000001 17.719812450248387 0.54
   vertex 39.00000000000001 17.719812450248387 0
   vertex 45.935511398905554 17.68 0.54
  endloop
 endfacet
 facet normal -0.4794255386042002 0.8775825618903743 0.0
  outer loop
   vertex 55.53652907543318 24.839428803124502 0
   vertex 54.000111378774854 24.000079990000003 0
   vertex 55.53652907543318 24.839428803124502 0.54
  endloop
 endfacet
 facet normal -0.4794255386042002 0.8775825618903743 0.0
  outer loop
   vertex 54.000111378774854 24.000079990000003 0
   vertex 54.000111378774854 24.000079990000003 0.54
   vertex 55.53652907543318 24.839428803124502 0.54
  endloop
 endfacet
 facet normal 0.4794086991510718 -0.8775917611157691 0.0
  outer loop
   vertex 54.000111378774854 24.000079990000003 0
   vertex 55.536829075433175 24.839554406875497 0
   vertex 54.000111378774854 24.000079990000003 0.54
  endloop
 endfacet
 facet normal 0.4794086991510718 -0.8775917611157691 0.0
  outer loop
   vertex 55.536829075433175 24.839554406875497 0
   vertex 55.536829075433175 24.839554406875497 0.54
   vertex 54.000111378774854 24.000079990000003 0.54
  endloop
 endfacet
 facet normal -0.4794255386042032 0.8775825618903726 0.0
  outer loop
   vertex 55.536829075433175 24.839554406875497 0
   vertex 53.99991935511399 23.9999368 0
   vertex 55.536829075433175 24.839554406875497 0.54
  endloop
 endfacet
 facet normal -0.4794255386042032 0.8775825618903726 0.0
  outer loop
   vertex 53.99991935511399 23.9999368 0
   vertex 53.99991935511399 23.9999368 0.54
   vertex 55.536829075433175 24.839554406875497 0.54
  endloop
 endfacet
 facet normal 0.4794423787110184 -0.8775733618882927 0.0
  outer loop
   vertex 53.99991935511399 23.9999368 0
   vertex 55.53652907543318 24.839428803124502 0
   vertex 53.99991935511399 23.9999368 0.54
  endloop
 endfacet
 facet normal 0.4794423787110184 -0.8775733618882927 0.0
  outer loop
   vertex 55.53652907543318 24.839428803124502 0
   vertex 55.53652907543318 24.839428803124502 0.54
   vertex 53.99991935511399 23.9999368 0.54
  endloop
 endfacet
 facet normal 0.0 0.0 1.0
  outer loop
   vertex 65.13787748584964 31.999 0.54
   vertex 39.00000000000001 17.719812450248387 0.54
   vertex 55.53652907543318 24.839428803124502 0.54
  endloop
 endfacet
 facet normal 0.0 0.0 -1.0
  outer loop
   vertex 54.000111378774854 24.000079990000003 0.54
   vertex 65.13787748584964 31.999 0.54
   vertex 55.53652907543318 24.839428803124502 0.54
  endloop
 endfacet
 facet normal 0.0 0.0 1.0
  outer loop
   vertex 68.99999999999999 30.280187549751616 0.54
   vertex 65.13787748584964 31.999 0.54
   vertex 54.000111378774854 24.000079990000003 0.54
  endloop
 endfacet
 facet normal 0.0 -0.0 -1.0
  outer loop
   vertex 55.536829075433175 24.839554406875497 0.54
   vertex 68.99999999999999 30.280187549751616 0.54
   vertex 54.000111378774854 24.000079990000003 0.54
  endloop
 endfacet
 facet normal 0.0 0.0 1.0
  outer loop
   vertex 45.935511398905554 17.68 0.54
   vertex 68.99999999999999 30.280187549751616 0.54
   vertex 55.536829075433175 24.839554406875497 0.54
  endloop
 endfacet
 facet normal -0.0 0.0 1.0
  outer loop
   vertex 53.99991935511399 23.9999368 0.54
   vertex 45.935511398905554 17.68 0.54
   vertex 55.536829075433175 24.839554406875497 0.54
  endloop
 endfacet
 facet normal -0.0 0.0 1.0
  outer loop
   vertex 39.00000000000001 17.719812450248387 0.54
   vertex 45.935511398905554 17.68 0.54
   vertex 53.99991935511399 23.9999368 0.54
  endloop
 endfacet
 facet normal 0.0 0.0 1.0
  outer loop
   vertex 55.53652907543318 24.839428803124502 0.54
   vertex 39.00000000000001 17.719812450248387 0.54
   vertex 53.99991935511399 23.9999368 0.54
  endloop
 endfacet
 facet normal 0.0 0.0 -1.0
  outer loop
   vertex 92.06448860109444 14.32 0
   vertex 45.93551139890557 14.32 0
   vertex 69.00023064488602 15.9999832 0
  endloop
 endfacet
 facet normal 0.0 0.0 -1.0
  outer loop
   vertex 45.93551139890557 14.32 0
   vertex 68.99976935511398 15.9999832 0
   vertex 69.00023064488602 15.9999832 0
  endloop
 endfacet
 facet normal 0.0 0.0 -1.0
  outer loop
   vertex 45.93551139890557 14.32 0
   vertex 45.935511398905554 17.68 0
   vertex 68.99976935511398 15.9999832 0
  endloop
 endfacet
 facet normal 0.0 0.0 -1.0
  outer loop
   vertex 45.935511398905554 17.68 0
   vertex 68.999769355114 16.0000168 0
   vertex 68.99976935511398 15.9999832 0
  endloop
 endfacet
 facet normal 0.0 0.0 -1.0
  outer loop
   vertex 45.935511398905554 17.68 0
   vertex 92.06448860109444 17.68 0
   vertex 68.999769355114 16.0000168 0
  endloop
 endfacet
 facet normal 0.0 0.0 -1.0
  outer loop
   vertex 92.06448860109444 17.68 0
   vertex 69.000230644886 16.0000168 0
   vertex 68.999769355114 16.0000168 0
  endloop
 endfacet
 facet normal 0.0 -0.0 -1.0
  outer loop
   vertex 92.06448860109444 17.68 0
   vertex 92.06448860109444 14.32 0
   vertex 69.000230644886 16.0000168 0
  endloop
 endfacet
 facet normal 0.0 0.0 -1.0
  outer loop
   vertex 92.06448860109444 14.32 0
   vertex 69.00023064488602 15.9999832 0
   vertex 69.000230644886 16.0000168 0
  endloop
 endfacet
 facet normal 0.0 -1.0 0.0
  outer loop
   vertex 45.93551139890557 14.32 0
   vertex 92.06448860109444 14.32 0
   vertex 92.06448860109444 14.32 0.54
  endloop
 endfacet
 facet normal 0.0 -1.0 0.0
  outer loop
   vertex 45.93551139890557 14.32 0.54
   vertex 45.93551139890557 14.32 0
   vertex 92.06448860109444 14.32 0.54
  endloop
 endfacet
 facet normal -1.0 -4.229421046191073e-15 0.0
  outer loop
   vertex 45.935511398905554 17.68 0
   vertex 45.93551139890557 14.32 0
   vertex 45.93551139890557 14.32 0.54
  endloop
 endfacet
 facet normal -1.0 -4.229421046191073e-15 -0.0
  outer loop
   vertex 45.935511398905554 17.68 0.54
   vertex 45.935511398905554 17.68 0
   vertex 45.93551139890557 14.32 0.54
  endloop
 endfacet
 facet normal 0.0 1.0 0.0
  outer loop
   vertex 92.06448860109444 17.68 0
   vertex 45.935511398905554 17.68 0
   vertex 45.935511398905554 17.68 0.54
  endloop
 endfacet
 facet normal 0.0 1.0 0.0
  outer loop
   vertex 92.06448860109444 17.68 0.54
   vertex 92.06448860109444 17.68 0
   vertex 45.935511398905554 17.68 0.54
  endloop
 endfacet
 facet normal 1.0 0.0 0.0
  outer loop
   vertex 92.06448860109444 14.32 0
   vertex 92.06448860109444 17.68 0
   vertex 92.06448860109444 17.68 0.54
  endloop
 endfacet
 facet normal 1.0 -0.0 0.0
  outer loop
   vertex 92.06448860109444 14.32 0.54
   vertex 92.06448860109444 14.32 0
   vertex 92.06448860109444 17.68 0.54
  endloop
 endfacet
 facet normal 0.0 1.0 -0.0
  outer loop
   vertex 69.00023064488602 15.9999832 0
   vertex 68.99976935511398 15.9999832 0
   vertex 69.00023064488602 15.9999832 0.54
  endloop
 endfacet
 facet normal 0.0 1.0 0.0
  outer loop
   vertex 68.99976935511398 15.9999832 0
   vertex 68.99976935511398 15.9999832 0.54
   vertex 69.00023064488602 15.9999832 0.54
  endloop
 endfacet
 facet normal 1.0 -4.2294210461812525e-10 0.0
  outer loop
   vertex 68.99976935511398 15.9999832 0
   vertex 68.999769355114 16.0000168 0
   vertex 68.99976935511398 15.9999832 0.54
  endloop
 endfacet
 facet normal 1.0 -4.2294210461812525e-10 0.0
  outer loop
   vertex 68.999769355114 16.0000168 0
   vertex 68.999769355114 16.0000168 0.54
   vertex 68.99976935511398 15.9999832 0.54
  endloop
 endfacet
 facet normal 0.0 -1.0 0.0
  outer loop
   vertex 68.999769355114 16.0000168 0
   vertex 69.000230644886 16.0000168 0
   vertex 68.999769355114 16.0000168 0.54
  endloop
 endfacet
 facet normal 0.0 -1.0 0.0
  outer loop
   vertex 69.000230644886 16.0000168 0
   vertex 69.000230644886 16.0000168 0.54
   vertex 68.999769355114 16.0000168 0.54
  endloop
 endfacet
 facet normal -1.0 -4.2294210461812525e-10 0.0
  outer loop
   vertex 69.000230644886 16.0000168 0
   vertex 69.00023064488602 15.9999832 0
   vertex 69.000230644886 16.0000168 0.54
  endloop
 endfacet
 facet normal -1.0 -4.2294210461812525e-10 0.0
  outer loop
   vertex 69.00023064488602 15.9999832 0
   vertex 69.00023064488602 15.9999832 0.54
   vertex 69.000230644886 16.0000168 0.54
  endloop
 endfacet
 facet normal 0.0 0.0 1.0
  outer loop
   vertex 45.93551139890557 14.32 0.54
   vertex 92.06448860109444 14.32 0.54
   vertex 69.00023064488602 15.9999832 0.54
  endloop
 endfacet
 facet normal -0.0 0.0 1.0
  outer loop
   vertex 68.99976935511398 15.9999832 0.54
   vertex 45.93551139890557 14.32 0.54
   vertex 69.00023064488602 15.9999832 0.54
  endloop
 endfacet
 facet normal 0.0 0.0 1.0
  outer loop
   vertex 45.935511398905554 17.68 0.54
   vertex 45.93551139890557 14.32 0.54
   vertex 68.99976935511398 15.9999832 0.54
  endloop
 endfacet
 facet normal 0.0 0.0 1.0
  outer loop
   vertex 68.999769355114 16.0000168 0.54
   vertex 45.935511398905554 17.68 0.54
   vertex 68.99976935511398 15.9999832 0.54
  endloop
 endfacet
 facet normal 0.0 0.0 1.0
  outer loop
   vertex 92.06448860109444 17.68 0.54
   vertex 45.935511398905554 17.68 0.54
   vertex 68.999769355114 16.0000168 0.54
  endloop
 endfacet
 facet normal 0.0 -0.0 1.0
  outer loop
   vertex 69.000230644886 16.0000168 0.54
   vertex 92.06448860109444 17.68 0.54
   vertex 68.999769355114 16.0000168 0.54
  endloop
 endfacet
 facet normal 0.0 -0.0 1.0
  outer loop
   vertex 92.06448860109444 14.32 0.54
   vertex 92.06448860109444 17.68 0.54
   vertex 69.000230644886 16.0000168 0.54
  endloop
 endfacet
 facet normal -0.0 -0.0 1.0
  outer loop
   vertex 69.00023064488602 15.9999832 0.54
   vertex 92.06448860109444 14.32 0.54
   vertex 69.000230644886 16.0000168 0.54
  endloop
 endfacet
 facet normal 0.0 0.0 -1.0
  outer loop
   vertex 68.99999999999999 1.7198124502483845 0
   vertex 92.06448860109444 14.32 0
   vertex 82.46317092456682 7.1604455931245035 0
  endloop
 endfacet
 facet normal 0.0 0.0 -1.0
  outer loop
   vertex 92.06448860109444 14.32 0
   vertex 84.03651838118049 8.01996922606194 0
   vertex 82.46317092456682 7.1604455931245035 0
  endloop
 endfacet
 facet normal 0.0 -0.0 -1.0
  outer loop
   vertex 92.06448860109444 14.32 0
   vertex 99.07287620135097 14.32 0
   vertex 84.03651838118049 8.01996922606194 0
  endloop
 endfacet
 facet normal 0.0 0.0 -1.0
  outer loop
   vertex 99.07287620135097 14.32 0
   vertex 82.46347165332884 7.1605715949999995 0
   vertex 84.03651838118049 8.01996922606194 0
  endloop
 endfacet
 facet normal 0.0 0.0 -1.0
  outer loop
   vertex 99.07287620135097 14.32 0
   vertex 72.86212251415036 0.001 0
   vertex 82.46347165332884 7.1605715949999995 0
  endloop
 endfacet
 facet normal 0.0 0.0 1.0
  outer loop
   vertex 72.86212251415036 0.001 0
   vertex 84.03632635751961 8.019826036061941 0
   vertex 82.46347165332884 7.1605715949999995 0
  endloop
 endfacet
 facet normal 0.0 0.0 -1.0
  outer loop
   vertex 72.86212251415036 0.001 0
   vertex 68.99999999999999 1.7198124502483845 0
   vertex 84.03632635751961 8.019826036061941 0
  endloop
 endfacet
 facet normal 0.0 0.0 1.0
  outer loop
   vertex 68.99999999999999 1.7198124502483845 0
   vertex 82.46317092456682 7.1604455931245035 0
   vertex 84.03632635751961 8.019826036061941 0
  endloop
 endfacet
 facet normal -0.4794255386042028 0.8775825618903729 0.0
  outer loop
   vertex 92.06448860109444 14.32 0
   vertex 68.99999999999999 1.7198124502483845 0
   vertex 68.99999999999999 1.7198124502483845 0.54
  endloop
 endfacet
 facet normal -0.4794255386042028 0.8775825618903729 0.0
  outer loop
   vertex 92.06448860109444 14.32 0.54
   vertex 92.06448860109444 14.32 0
   vertex 68.99999999999999 1.7198124502483845 0.54
  endloop
 endfacet
 facet normal 0.0 1.0 0.0
  outer loop
   vertex 99.07287620135097 14.32 0
   vertex 92.06448860109444 14.32 0
   vertex 92.06448860109444 14.32 0.54
  endloop
 endfacet
 facet normal 0.0 1.0 0.0
  outer loop
   vertex 99.07287620135097 14.32 0.54
   vertex 99.07287620135097 14.32 0
   vertex 92.06448860109444 14.32 0.54
  endloop
 endfacet
 facet normal 0.47942553860420295 -0.8775825618903729 0.0
  outer loop
   vertex 72.86212251415036 0.001 0
   vertex 99.07287620135097 14.32 0
   vertex 99.07287620135097 14.32 0.54
  endloop
 endfacet
 facet normal 0.47942553860420295 -0.8775825618903729 0.0
  outer loop
   vertex 72.86212251415036 0.001 0.54
   vertex 72.86212251415036 0.001 0
   vertex 99.07287620135097 14.32 0.54
  endloop
 endfacet
 facet normal -0.4065954267588283 -0.9136083181204111 0.0
  outer loop
   vertex 68.99999999999999 1.7198124502483845 0
   vertex 72.86212251415036 0.001 0
   vertex 72.86212251415036 0.001 0.54
  endloop
 endfacet
 facet normal -0.4065954267588283 -0.9136083181204111 -0.0
  outer loop
   vertex 68.99999999999999 1.7198124502483845 0.54
   vertex 68.99999999999999 1.7198124502483845 0
   vertex 72.86212251415036 0.001 0.54
  endloop
 endfacet
 facet normal 0.47942553860420256 -0.877582561890373 0.0
  outer loop
   vertex 82.46317092456682 7.1604455931245035 0
   vertex 84.03651838118049 8.01996922606194 0
   vertex 82.46317092456682 7.1604455931245035 0.54
  endloop
 endfacet
 facet normal 0.47942553860420256 -0.877582561890373 0.0
  outer loop
   vertex 84.03651838118049 8.01996922606194 0
   vertex 84.03651838118049 8.01996922606194 0.54
   vertex 82.46317092456682 7.1604455931245035 0.54
  endloop
 endfacet
 facet normal -0.479441988643984 0.8775735749924913 0.0
  outer loop
   vertex 84.03651838118049 8.01996922606194 0
   vertex 82.46347165332884 7.1605715949999995 0
   vertex 84.03651838118049 8.01996922606194 0.54
  endloop
 endfacet
 facet normal -0.479441988643984 0.8775735749924913 0.0
  outer loop
   vertex 82.46347165332884 7.1605715949999995 0
   vertex 82.46347165332884 7.1605715949999995 0.54
   vertex 84.03651838118049 8.01996922606194 0.54
  endloop
 endfacet
 facet normal 0.47942553860420417 -0.877582561890372 0.0
  outer loop
   vertex 82.46347165332884 7.1605715949999995 0
   vertex 84.03632635751961 8.019826036061941 0
   vertex 82.46347165332884 7.1605715949999995 0.54
  endloop
 endfacet
 facet normal 0.47942553860420417 -0.877582561890372 0.0
  outer loop
   vertex 84.03632635751961 8.019826036061941 0
   vertex 84.03632635751961 8.019826036061941 0.54
   vertex 82.46347165332884 7.1605715949999995 0.54
  endloop
 endfacet
 facet normal -0.47940908919579855 0.877591548042969 0.0
  outer loop
   vertex 84.03632635751961 8.019826036061941 0
   vertex 82.46317092456682 7.1604455931245035 0
   vertex 84.03632635751961 8.019826036061941 0.54
  endloop
 endfacet
 facet normal -0.47940908919579855 0.877591548042969 0.0
  outer loop
   vertex 82.46317092456682 7.1604455931245035 0
   vertex 82.46317092456682 7.1604455931245035 0.54
   vertex 84.03632635751961 8.019826036061941 0.54
  endloop
 endfacet
 facet normal 0.0 0.0 1.0
  outer loop
   vertex 92.06448860109444 14.32 0.54
   vertex 68.99999999999999 1.7198124502483845 0.54
   vertex 82.46317092456682 7.1604455931245035 0.54
  endloop
 endfacet
 facet normal 0.0 -0.0 1.0
  outer loop
   vertex 84.03651838118049 8.01996922606194 0.54
   vertex 92.06448860109444 14.32 0.54
   vertex 82.46317092456682 7.1604455931245035 0.54
  endloop
 endfacet
 facet normal 0.0 0.0 1.0
  outer loop
   vertex 99.07287620135097 14.32 0.54
   vertex 92.06448860109444 14.32 0.54
   vertex 84.03651838118049 8.01996922606194 0.54
  endloop
 endfacet
 facet normal 0.0 0.0 1.0
  outer loop
   vertex 82.46347165332884 7.1605715949999995 0.54
   vertex 99.07287620135097 14.32 0.54
   vertex 84.03651838118049 8.01996922606194 0.54
  endloop
 endfacet
 facet normal 0.0 0.0 1.0
  outer loop
   vertex 72.86212251415036 0.001 0.54
   vertex 99.07287620135097 14.32 0.54
   vertex 82.46347165332884 7.1605715949999995 0.54
  endloop
 endfacet
 facet normal 0.0 0.0 -1.0
  outer loop
   vertex 84.03632635751961 8.019826036061941 0.54
   vertex 72.86212251415036 0.001 0.54
   vertex 82.46347165332884 7.1605715949999995 0.54
  endloop
 endfacet
 facet normal -0.0 0.0 1.0
  outer loop
   vertex 68.99999999999999 1.7198124502483845 0.54
   vertex 72.86212251415036 0.001 0.54
   vertex 84.03632635751961 8.019826036061941 0.54
  endloop
 endfacet
 facet normal -0.0 0.0 -1.0
  outer loop
   vertex 82.46317092456682 7.1604455931245035 0.54
   vertex 68.99999999999999 1.7198124502483845 0.54
   vertex 84.03632635751961 8.019826036061941 0.54
  endloop
 endfacet
 facet normal 0.0 0.0 -1.0
  outer loop
   vertex 92.06448860109444 17.68 0
   vertex 68.99999999999999 30.280187549751616 0
   vertex 84.03651838118049 23.98003077393806 0
  endloop
 endfacet
 facet normal 0.0 0.0 -1.0
  outer loop
   vertex 68.99999999999999 30.280187549751616 0
   vertex 82.46317092456682 24.839554406875497 0
   vertex 84.03651838118049 23.98003077393806 0
  endloop
 endfacet
 facet normal 0.0 0.0 -1.0
  outer loop
   vertex 68.99999999999999 30.280187549751616 0
   vertex 72.86212251415037 31.999 0
   vertex 82.46317092456682 24.839554406875497 0
  endloop
 endfacet
 facet normal 0.0 0.0 -1.0
  outer loop
   vertex 72.86212251415037 31.999 0
   vertex 84.03632635751961 23.980173963938057 0
   vertex 82.46317092456682 24.839554406875497 0
  endloop
 endfacet
 facet normal 0.0 0.0 -1.0
  outer loop
   vertex 72.86212251415037 31.999 0
   vertex 99.07287620135097 17.68 0
   vertex 84.03632635751961 23.980173963938057 0
  endloop
 endfacet
 facet normal 0.0 0.0 1.0
  outer loop
   vertex 99.07287620135097 17.68 0
   vertex 82.46347165332884 24.839428405 0
   vertex 84.03632635751961 23.980173963938057 0
  endloop
 endfacet
 facet normal 0.0 0.0 -1.0
  outer loop
   vertex 99.07287620135097 17.68 0
   vertex 92.06448860109444 17.68 0
   vertex 82.46347165332884 24.839428405 0
  endloop
 endfacet
 facet normal 0.0 0.0 1.0
  outer loop
   vertex 92.06448860109444 17.68 0
   vertex 84.03651838118049 23.98003077393806 0
   vertex 82.46347165332884 24.839428405 0
  endloop
 endfacet
 facet normal -0.4794255386042028 -0.8775825618903729 0.0
  outer loop
   vertex 68.99999999999999 30.280187549751616 0
   vertex 92.06448860109444 17.68 0
   vertex 92.06448860109444 17.68 0.54
  endloop
 endfacet
 facet normal -0.4794255386042028 -0.8775825618903729 -0.0
  outer loop
   vertex 68.99999999999999 30.280187549751616 0.54
   vertex 68.99999999999999 30.280187549751616 0
   vertex 92.06448860109444 17.68 0.54
  endloop
 endfacet
 facet normal -0.40659542675882665 0.9136083181204119 0.0
  outer loop
   vertex 72.86212251415037 31.999 0
   vertex 68.99999999999999 30.280187549751616 0
   vertex 68.99999999999999 30.280187549751616 0.54
  endloop
 endfacet
 facet normal -0.40659542675882665 0.9136083181204119 0.0
  outer loop
   vertex 72.86212251415037 31.999 0.54
   vertex 72.86212251415037 31.999 0
   vertex 68.99999999999999 30.280187549751616 0.54
  endloop
 endfacet
 facet normal 0.4794255386042031 0.8775825618903728 0.0
  outer loop
   vertex 99.07287620135097 17.68 0
   vertex 72.86212251415037 31.999 0
   vertex 72.86212251415037 31.999 0.54
  endloop
 endfacet
 facet normal 0.4794255386042031 0.8775825618903728 0.0
  outer loop
   vertex 99.07287620135097 17.68 0.54
   vertex 99.07287620135097 17.68 0
   vertex 72.86212251415037 31.999 0.54
  endloop
 endfacet
 facet normal 0.0 -1.0 0.0
  outer loop
   vertex 92.06448860109444 17.68 0
   vertex 99.07287620135097 17.68 0
   vertex 99.07287620135097 17.68 0.54
  endloop
 endfacet
 facet normal 0.0 -1.0 0.0
  outer loop
   vertex 92.06448860109444 17.68 0.54
   vertex 92.06448860109444 17.68 0
   vertex 99.07287620135097 17.68 0.54
  endloop
 endfacet
 facet normal 0.47942553860420173 0.8775825618903734 -0.0
  outer loop
   vertex 84.03651838118049 23.98003077393806 0
   vertex 82.46317092456682 24.839554406875497 0
   vertex 84.03651838118049 23.98003077393806 0.54
  endloop
 endfacet
 facet normal 0.47942553860420173 0.8775825618903734 -0.0
  outer loop
   vertex 82.46317092456682 24.839554406875497 0
   vertex 82.46317092456682 24.839554406875497 0.54
   vertex 84.03651838118049 23.98003077393806 0.54
  endloop
 endfacet
 facet normal -0.4794090891957994 -0.8775915480429687 0.0
  outer loop
   vertex 82.46317092456682 24.839554406875497 0
   vertex 84.03632635751961 23.980173963938057 0
   vertex 82.46317092456682 24.839554406875497 0.54
  endloop
 endfacet
 facet normal -0.4794090891957994 -0.8775915480429687 0.0
  outer loop
   vertex 84.03632635751961 23.980173963938057 0
   vertex 84.03632635751961 23.980173963938057 0.54
   vertex 82.46317092456682 24.839554406875497 0.54
  endloop
 endfacet
 facet normal 0.4794255386042046 0.8775825618903719 -0.0
  outer loop
   vertex 84.03632635751961 23.980173963938057 0
   vertex 82.46347165332884 24.839428405 0
   vertex 84.03632635751961 23.980173963938057 0.54
  endloop
 endfacet
 facet normal 0.4794255386042046 0.8775825618903719 -0.0
  outer loop
   vertex 82.46347165332884 24.839428405 0
   vertex 82.46347165332884 24.839428405 0.54
   vertex 84.03632635751961 23.980173963938057 0.54
  endloop
 endfacet
 facet normal -0.47944198864398285 -0.877573574992492 0.0
  outer loop
   vertex 82.46347165332884 24.839428405 0
   vertex 84.03651838118049 23.98003077393806 0
   vertex 82.46347165332884 24.839428405 0.54
  endloop
 endfacet
 facet normal -0.47944198864398285 -0.877573574992492 0.0
  outer loop
   vertex 84.03651838118049 23.98003077393806 0
   vertex 84.03651838118049 23.98003077393806 0.54
   vertex 82.46347165332884 24.839428405 0.54
  endloop
 endfacet
 facet normal 0.0 0.0 1.0
  outer loop
   vertex 68.99999999999999 30.280187549751616 0.54
   vertex 92.06448860109444 17.68 0.54
   vertex 84.03651838118049 23.98003077393806 0.54
  endloop
 endfacet
 facet normal 0.0 0.0 1.0
  outer loop
   vertex 82.46317092456682 24.839554406875497 0.54
   vertex 68.99999999999999 30.280187549751616 0.54
   vertex 84.03651838118049 23.98003077393806 0.54
  endloop
 endfacet
 facet normal 0.0 0.0 1.0
  outer loop
   vertex 72.86212251415037 31.999 0.54
   vertex 68.99999999999999 30.280187549751616 0.54
   vertex 82.46317092456682 24.839554406875497 0.54
  endloop
 endfacet
 facet normal 0.0 0.0 1.0
  outer loop
   vertex 84.03632635751961 23.980173963938057 0.54
   vertex 72.86212251415037 31.999 0.54
   vertex 82.46317092456682 24.839554406875497 0.54
  endloop
 endfacet
 facet normal 0.0 0.0 1.0
  outer loop
   vertex 99.07287620135097 17.68 0.54
   vertex 72.86212251415037 31.999 0.54
   vertex 84.03632635751961 23.980173963938057 0.54
  endloop
 endfacet
 facet normal 0.0 0.0 -1.0
  outer loop
   vertex 82.46347165332884 24.839428405 0.54
   vertex 99.07287620135097 17.68 0.54
   vertex 84.03632635751961 23.980173963938057 0.54
  endloop
 endfacet
 facet normal 0.0 -0.0 1.0
  outer loop
   vertex 92.06448860109444 17.68 0.54
   vertex 99.07287620135097 17.68 0.54
   vertex 82.46347165332884 24.839428405 0.54
  endloop
 endfacet
 facet normal -0.0 -0.0 -1.0
  outer loop
   vertex 84.03651838118049 23.98003077393806 0.54
   vertex 92.06448860109444 17.68 0.54
   vertex 82.46347165332884 24.839428405 0.54
  endloop
 endfacet
 facet normal 0.0 0.0 -1.0
  outer loop
   vertex 107.99766217038474 14.32 0
   vertex 99.07287620135097 14.32 0
   vertex 103.5353138097977 15.9999832 0
  endloop
 endfacet
 facet normal 0.0 0.0 -1.0
  outer loop
   vertex 99.07287620135097 14.32 0
   vertex 103.53522456193801 15.9999832 0
   vertex 103.5353138097977 15.9999832 0
  endloop
 endfacet
 facet normal 0.0 0.0 -1.0
  outer loop
   vertex 99.07287620135097 14.32 0
   vertex 99.07287620135097 17.68 0
   vertex 103.53522456193801 15.9999832 0
  endloop
 endfacet
 facet normal 0.0 0.0 -1.0
  outer loop
   vertex 99.07287620135097 17.68 0
   vertex 103.53522456193801 16.0000168 0
   vertex 103.53522456193801 15.9999832 0
  endloop
 endfacet
 facet normal 0.0 0.0 -1.0
  outer loop
   vertex 99.07287620135097 17.68 0
   vertex 107.99766217038474 17.68 0
   vertex 103.53522456193801 16.0000168 0
  endloop
 endfacet
 facet normal 0.0 0.0 -1.0
  outer loop
   vertex 107.99766217038474 17.68 0
   vertex 103.5353138097977 16.0000168 0
   vertex 103.53522456193801 16.0000168 0
  endloop
 endfacet
 facet normal 0.0 -0.0 -1.0
  outer loop
   vertex 107.99766217038474 17.68 0
   vertex 107.99766217038474 14.32 0
   vertex 103.5353138097977 16.0000168 0
  endloop
 endfacet
 facet normal 0.0 0.0 -1.0
  outer loop
   vertex 107.99766217038474 14.32 0
   vertex 103.5353138097977 15.9999832 0
   vertex 103.5353138097977 16.0000168 0
  endloop
 endfacet
 facet normal 0.0 -1.0 0.0
  outer loop
   vertex 99.07287620135097 14.32 0
   vertex 107.99766217038474 14.32 0
   vertex 107.99766217038474 14.32 0.54
  endloop
 endfacet
 facet normal 0.0 -1.0 0.0
  outer loop
   vertex 99.07287620135097 14.32 0.54
   vertex 99.07287620135097 14.32 0
   vertex 107.99766217038474 14.32 0.54
  endloop
 endfacet
 facet normal -1.0 0.0 0.0
  outer loop
   vertex 99.07287620135097 17.68 0
   vertex 99.07287620135097 14.32 0
   vertex 99.07287620135097 14.32 0.54
  endloop
 endfacet
 facet normal -1.0 -0.0 -0.0
  outer loop
   vertex 99.07287620135097 17.68 0.54
   vertex 99.07287620135097 17.68 0
   vertex 99.07287620135097 14.32 0.54
  endloop
 endfacet
 facet normal 0.0 1.0 0.0
  outer loop
   vertex 107.99766217038474 17.68 0
   vertex 99.07287620135097 17.68 0
   vertex 99.07287620135097 17.68 0.54
  endloop
 endfacet
 facet normal 0.0 1.0 0.0
  outer loop
   vertex 107.99766217038474 17.68 0.54
   vertex 107.99766217038474 17.68 0
   vertex 99.07287620135097 17.68 0.54
  endloop
 endfacet
 facet normal 1.0 0.0 0.0
  outer loop
   vertex 107.99766217038474 14.32 0
   vertex 107.99766217038474 17.68 0
   vertex 107.99766217038474 17.68 0.54
  endloop
 endfacet
 facet normal 1.0 -0.0 0.0
  outer loop
   vertex 107.99766217038474 14.32 0.54
   vertex 107.99766217038474 14.32 0
   vertex 107.99766217038474 17.68 0.54
  endloop
 endfacet
 facet normal 0.0 1.0 -0.0
  outer loop
   vertex 103.5353138097977 15.9999832 0
   vertex 103.53522456193801 15.9999832 0
   vertex 103.5353138097977 15.9999832 0.54
  endloop
 endfacet
 facet normal 0.0 1.0 0.0
  outer loop
   vertex 103.53522456193801 15.9999832 0
   vertex 103.53522456193801 15.9999832 0.54
   vertex 103.5353138097977 15.9999832 0.54
  endloop
 endfacet
 facet normal 1.0 0.0 0.0
  outer loop
   vertex 103.53522456193801 15.9999832 0
   vertex 103.53522456193801 16.0000168 0
   vertex 103.53522456193801 15.9999832 0.54
  endloop
 endfacet
 facet normal 1.0 0.0 -0.0
  outer loop
   vertex 103.53522456193801 16.0000168 0
   vertex 103.53522456193801 16.0000168 0.54
   vertex 103.53522456193801 15.9999832 0.54
  endloop
 endfacet
 facet normal 0.0 -1.0 0.0
  outer loop
   vertex 103.53522456193801 16.0000168 0
   vertex 103.5353138097977 16.0000168 0
   vertex 103.53522456193801 16.0000168 0.54
  endloop
 endfacet
 facet normal 0.0 -1.0 0.0
  outer loop
   vertex 103.5353138097977 16.0000168 0
   vertex 103.5353138097977 16.0000168 0.54
   vertex 103.53522456193801 16.0000168 0.54
  endloop
 endfacet
 facet normal -1.0 0.0 0.0
  outer loop
   vertex 103.5353138097977 16.0000168 0
   vertex 103.5353138097977 15.9999832 0
   vertex 103.5353138097977 16.0000168 0.54
  endloop
 endfacet
 facet normal -1.0 0.0 0.0
  outer loop
   vertex 103.5353138097977 15.9999832 0
   vertex 103.5353138097977 15.9999832 0.54
   vertex 103.5353138097977 16.0000168 0.54
  endloop
 endfacet
 facet normal 0.0 0.0 1.0
  outer loop
   vertex 99.07287620135097 14.32 0.54
   vertex 107.99766217038474 14.32 0.54
   vertex 103.5353138097977 15.9999832 0.54
  endloop
 endfacet
 facet normal -0.0 0.0 1.0
  outer loop
   vertex 103.53522456193801 15.9999832 0.54
   vertex 99.07287620135097 14.32 0.54
   vertex 103.5353138097977 15.9999832 0.54
  endloop
 endfacet
 facet normal 0.0 0.0 1.0
  outer loop
   vertex 99.07287620135097 17.68 0.54
   vertex 99.07287620135097 14.32 0.54
   vertex 103.53522456193801 15.9999832 0.54
  endloop
 endfacet
 facet normal 0.0 0.0 1.0
  outer loop
   vertex 103.53522456193801 16.0000168 0.54
   vertex 99.07287620135097 17.68 0.54
   vertex 103.53522456193801 15.9999832 0.54
  endloop
 endfacet
 facet normal 0.0 0.0 1.0
  outer loop
   vertex 107.99766217038474 17.68 0.54
   vertex 99.07287620135097 17.68 0.54
   vertex 103.53522456193801 16.0000168 0.54
  endloop
 endfacet
 facet normal 0.0 -0.0 1.0
  outer loop
   vertex 103.5353138097977 16.0000168 0.54
   vertex 107.99766217038474 17.68 0.54
   vertex 103.53522456193801 16.0000168 0.54
  endloop
 endfacet
 facet normal 0.0 -0.0 1.0
  outer loop
   vertex 107.99766217038474 14.32 0.54
   vertex 107.99766217038474 17.68 0.54
   vertex 103.5353138097977 16.0000168 0.54
  endloop
 endfacet
 facet normal -0.0 0.0 1.0
  outer loop
   vertex 103.5353138097977 15.9999832 0.54
   vertex 107.99766217038474 14.32 0.54
   vertex 103.5353138097977 16.0000168 0.54
  endloop
 endfacet
endsolid
