solid PyGamic generated __All_Units__ SLA File
 facet normal 0.0 0.0 -1.0
  outer loop
   vertex 46.66276618844293 12.959999999999997 0
   vertex 50.96820064345233 20.417231224733868 0
   vertex 50.96820064345233 12.959999999999997 0
  endloop
 endfacet
 facet normal -0.2738612787525838 0.15811388300841994 -0.9486832980505134
  outer loop
   vertex 50.96820064345233 20.417231224733868 0
   vertex 46.66276618844293 12.959999999999997 0
   vertex 45.41568960699334 12.239999999999997 0.24
  endloop
 endfacet
 facet normal -0.2738612787525823 0.1581138830084189 -0.9486832980505141
  outer loop
   vertex 51.688200643452326 23.104307806183456 0.24
   vertex 50.96820064345233 20.417231224733868 0
   vertex 45.41568960699334 12.239999999999997 0.24
  endloop
 endfacet
 facet normal 0.3162277660168384 0.0 -0.9486832980505137
  outer loop
   vertex 50.96820064345233 12.959999999999997 0
   vertex 50.96820064345233 20.417231224733868 0
   vertex 51.688200643452326 23.104307806183456 0.24
  endloop
 endfacet
 facet normal 0.31622776601683833 0.0 -0.9486832980505135
  outer loop
   vertex 51.688200643452326 12.239999999999997 0.24
   vertex 50.96820064345233 12.959999999999997 0
   vertex 51.688200643452326 23.104307806183456 0.24
  endloop
 endfacet
 facet normal 0.0 -0.3162277660168377 -0.9486832980505139
  outer loop
   vertex 46.66276618844293 12.959999999999997 0
   vertex 50.96820064345233 12.959999999999997 0
   vertex 51.688200643452326 12.239999999999997 0.24
  endloop
 endfacet
 facet normal 0.0 -0.3162277660168377 -0.9486832980505139
  outer loop
   vertex 45.41568960699334 12.239999999999997 0.24
   vertex 46.66276618844293 12.959999999999997 0
   vertex 51.688200643452326 12.239999999999997 0.24
  endloop
 endfacet
 facet normal 0.0 0.0 1.0
  outer loop
   vertex 45.41568960699334 12.239999999999997 0.24
   vertex 51.688200643452326 12.239999999999997 0.24
   vertex 51.688200643452326 23.104307806183456 0.24
  endloop
 endfacet
 facet normal 0.0 0.0 -1.0
  outer loop
   vertex 45.41568960699334 12.239999999999997 0.48
   vertex 51.688200643452326 23.104307806183456 0.48
   vertex 51.688200643452326 12.239999999999997 0.48
  endloop
 endfacet
 facet normal -0.27386127875258365 0.15811388300841966 0.9486832980505137
  outer loop
   vertex 51.688200643452326 23.104307806183456 0.48
   vertex 45.41568960699334 12.239999999999997 0.48
   vertex 46.66276618844293 12.959999999999997 0.72
  endloop
 endfacet
 facet normal -0.2738612787525817 0.15811388300841872 0.9486832980505142
  outer loop
   vertex 50.96820064345233 20.417231224733868 0.72
   vertex 51.688200643452326 23.104307806183456 0.48
   vertex 46.66276618844293 12.959999999999997 0.72
  endloop
 endfacet
 facet normal 0.31622776601683833 -0.0 0.9486832980505135
  outer loop
   vertex 51.688200643452326 12.239999999999997 0.48
   vertex 51.688200643452326 23.104307806183456 0.48
   vertex 50.96820064345233 20.417231224733868 0.72
  endloop
 endfacet
 facet normal 0.3162277660168384 -0.0 0.9486832980505137
  outer loop
   vertex 50.96820064345233 12.959999999999997 0.72
   vertex 51.688200643452326 12.239999999999997 0.48
   vertex 50.96820064345233 20.417231224733868 0.72
  endloop
 endfacet
 facet normal 0.0 -0.3162277660168377 0.9486832980505139
  outer loop
   vertex 45.41568960699334 12.239999999999997 0.48
   vertex 51.688200643452326 12.239999999999997 0.48
   vertex 50.96820064345233 12.959999999999997 0.72
  endloop
 endfacet
 facet normal 0.0 -0.3162277660168377 0.9486832980505139
  outer loop
   vertex 46.66276618844293 12.959999999999997 0.72
   vertex 45.41568960699334 12.239999999999997 0.48
   vertex 50.96820064345233 12.959999999999997 0.72
  endloop
 endfacet
 facet normal 0.0 0.0 1.0
  outer loop
   vertex 46.66276618844293 12.959999999999997 0.72
   vertex 50.96820064345233 12.959999999999997 0.72
   vertex 50.96820064345233 20.417231224733868 0.72
  endloop
 endfacet
 facet normal -0.0 0.0 -1.0
  outer loop
   vertex 50.81911077633905 23.99899999999999 0
   vertex 45.95999741317681 15.582768775266118 0
   vertex 45.95999741317681 23.99899999999999 0
  endloop
 endfacet
 facet normal 0.27386127875258176 -0.1581138830084185 -0.9486832980505142
  outer loop
   vertex 45.95999741317681 15.582768775266118 0
   vertex 50.81911077633905 23.99899999999999 0
   vertex 51.65049516397212 23.99899999999999 0.24
  endloop
 endfacet
 facet normal 0.2738612787525824 -0.15811388300841892 -0.9486832980505141
  outer loop
   vertex 45.23999741317681 12.89569219381653 0.24
   vertex 45.95999741317681 15.582768775266118 0
   vertex 51.65049516397212 23.99899999999999 0.24
  endloop
 endfacet
 facet normal -0.3162277660168384 -0.0 -0.9486832980505138
  outer loop
   vertex 45.95999741317681 23.99899999999999 0
   vertex 45.95999741317681 15.582768775266118 0
   vertex 45.23999741317681 12.89569219381653 0.24
  endloop
 endfacet
 facet normal -0.3162277660168384 -0.0 -0.9486832980505137
  outer loop
   vertex 45.23999741317681 23.99899999999999 0.24
   vertex 45.95999741317681 23.99899999999999 0
   vertex 45.23999741317681 12.89569219381653 0.24
  endloop
 endfacet
 facet normal 0.0 1.0 0.0
  outer loop
   vertex 50.81911077633905 23.99899999999999 0
   vertex 45.95999741317681 23.99899999999999 0
   vertex 45.23999741317681 23.99899999999999 0.24
  endloop
 endfacet
 facet normal 0.0 1.0 0.0
  outer loop
   vertex 51.65049516397212 23.99899999999999 0.24
   vertex 50.81911077633905 23.99899999999999 0
   vertex 45.23999741317681 23.99899999999999 0.24
  endloop
 endfacet
 facet normal 0.0 0.0 1.0
  outer loop
   vertex 51.65049516397212 23.99899999999999 0.24
   vertex 45.23999741317681 23.99899999999999 0.24
   vertex 45.23999741317681 12.89569219381653 0.24
  endloop
 endfacet
 facet normal -0.0 0.0 -1.0
  outer loop
   vertex 51.65049516397212 23.99899999999999 0.48
   vertex 45.23999741317681 12.89569219381653 0.48
   vertex 45.23999741317681 23.99899999999999 0.48
  endloop
 endfacet
 facet normal 0.2738612787525819 -0.15811388300841864 0.9486832980505142
  outer loop
   vertex 45.23999741317681 12.89569219381653 0.48
   vertex 51.65049516397212 23.99899999999999 0.48
   vertex 50.81911077633905 23.99899999999999 0.72
  endloop
 endfacet
 facet normal 0.2738612787525825 -0.1581138830084189 0.9486832980505139
  outer loop
   vertex 45.95999741317681 15.582768775266118 0.72
   vertex 45.23999741317681 12.89569219381653 0.48
   vertex 50.81911077633905 23.99899999999999 0.72
  endloop
 endfacet
 facet normal -0.3162277660168384 0.0 0.9486832980505137
  outer loop
   vertex 45.23999741317681 23.99899999999999 0.48
   vertex 45.23999741317681 12.89569219381653 0.48
   vertex 45.95999741317681 15.582768775266118 0.72
  endloop
 endfacet
 facet normal -0.3162277660168384 0.0 0.9486832980505138
  outer loop
   vertex 45.95999741317681 23.99899999999999 0.72
   vertex 45.23999741317681 23.99899999999999 0.48
   vertex 45.95999741317681 15.582768775266118 0.72
  endloop
 endfacet
 facet normal 0.0 1.0 0.0
  outer loop
   vertex 51.65049516397212 23.99899999999999 0.48
   vertex 45.23999741317681 23.99899999999999 0.48
   vertex 45.95999741317681 23.99899999999999 0.72
  endloop
 endfacet
 facet normal 0.0 1.0 0.0
  outer loop
   vertex 50.81911077633905 23.99899999999999 0.72
   vertex 51.65049516397212 23.99899999999999 0.48
   vertex 45.95999741317681 23.99899999999999 0.72
  endloop
 endfacet
 facet normal 0.0 0.0 1.0
  outer loop
   vertex 50.81911077633905 23.99899999999999 0.72
   vertex 45.95999741317681 23.99899999999999 0.72
   vertex 45.95999741317681 15.582768775266118 0.72
  endloop
 endfacet
 facet normal 0.0 0.0 -1.0
  outer loop
   vertex 46.66276618844294 11.039999999999996 0
   vertex 50.96820064345233 11.039999999999996 0
   vertex 50.96820064345233 3.5827687752661177 0
  endloop
 endfacet
 facet normal 0.0 0.3162277660168377 -0.948683298050514
  outer loop
   vertex 50.96820064345233 11.039999999999996 0
   vertex 46.66276618844294 11.039999999999996 0
   vertex 45.41568960699335 11.759999999999996 0.24
  endloop
 endfacet
 facet normal 0.0 0.31622776601683766 -0.948683298050514
  outer loop
   vertex 51.688200643452326 11.759999999999996 0.24
   vertex 50.96820064345233 11.039999999999996 0
   vertex 45.41568960699335 11.759999999999996 0.24
  endloop
 endfacet
 facet normal 0.3162277660168384 0.0 -0.9486832980505137
  outer loop
   vertex 50.96820064345233 3.5827687752661177 0
   vertex 50.96820064345233 11.039999999999996 0
   vertex 51.688200643452326 11.759999999999996 0.24
  endloop
 endfacet
 facet normal 0.31622776601683833 0.0 -0.9486832980505135
  outer loop
   vertex 51.688200643452326 0.8956921938165294 0.24
   vertex 50.96820064345233 3.5827687752661177 0
   vertex 51.688200643452326 11.759999999999996 0.24
  endloop
 endfacet
 facet normal -0.273861278752583 -0.15811388300841903 -0.9486832980505139
  outer loop
   vertex 46.66276618844294 11.039999999999996 0
   vertex 50.96820064345233 3.5827687752661177 0
   vertex 51.688200643452326 0.8956921938165294 0.24
  endloop
 endfacet
 facet normal -0.2738612787525836 -0.1581138830084193 -0.9486832980505137
  outer loop
   vertex 45.41568960699335 11.759999999999996 0.24
   vertex 46.66276618844294 11.039999999999996 0
   vertex 51.688200643452326 0.8956921938165294 0.24
  endloop
 endfacet
 facet normal -0.0 0.0 1.0
  outer loop
   vertex 45.41568960699335 11.759999999999996 0.24
   vertex 51.688200643452326 0.8956921938165294 0.24
   vertex 51.688200643452326 11.759999999999996 0.24
  endloop
 endfacet
 facet normal 0.0 0.0 -1.0
  outer loop
   vertex 45.41568960699335 11.759999999999996 0.48
   vertex 51.688200643452326 11.759999999999996 0.48
   vertex 51.688200643452326 0.8956921938165294 0.48
  endloop
 endfacet
 facet normal 0.0 0.31622776601683766 0.948683298050514
  outer loop
   vertex 51.688200643452326 11.759999999999996 0.48
   vertex 45.41568960699335 11.759999999999996 0.48
   vertex 46.66276618844294 11.039999999999996 0.72
  endloop
 endfacet
 facet normal 0.0 0.3162277660168377 0.948683298050514
  outer loop
   vertex 50.96820064345233 11.039999999999996 0.72
   vertex 51.688200643452326 11.759999999999996 0.48
   vertex 46.66276618844294 11.039999999999996 0.72
  endloop
 endfacet
 facet normal 0.31622776601683833 -0.0 0.9486832980505135
  outer loop
   vertex 51.688200643452326 0.8956921938165294 0.48
   vertex 51.688200643452326 11.759999999999996 0.48
   vertex 50.96820064345233 11.039999999999996 0.72
  endloop
 endfacet
 facet normal 0.3162277660168384 -0.0 0.9486832980505137
  outer loop
   vertex 50.96820064345233 3.5827687752661177 0.72
   vertex 51.688200643452326 0.8956921938165294 0.48
   vertex 50.96820064345233 11.039999999999996 0.72
  endloop
 endfacet
 facet normal -0.273861278752583 -0.158113883008419 0.9486832980505138
  outer loop
   vertex 45.41568960699335 11.759999999999996 0.48
   vertex 51.688200643452326 0.8956921938165294 0.48
   vertex 50.96820064345233 3.5827687752661177 0.72
  endloop
 endfacet
 facet normal -0.2738612787525836 -0.1581138830084194 0.9486832980505137
  outer loop
   vertex 46.66276618844294 11.039999999999996 0.72
   vertex 45.41568960699335 11.759999999999996 0.48
   vertex 50.96820064345233 3.5827687752661177 0.72
  endloop
 endfacet
 facet normal -0.0 0.0 1.0
  outer loop
   vertex 46.66276618844294 11.039999999999996 0.72
   vertex 50.96820064345233 3.5827687752661177 0.72
   vertex 50.96820064345233 11.039999999999996 0.72
  endloop
 endfacet
 facet normal 0.0 0.0 -1.0
  outer loop
   vertex 90.88819794273401 12.960000510329582 0
   vertex 90.88819890987892 21.682355237104968 0
   vertex 99.61055363665433 12.960000510329582 0
  endloop
 endfacet
 facet normal -0.3162277660168356 3.506370527079853e-08 -0.9486832980505139
  outer loop
   vertex 90.88819890987892 21.682355237104968 0
   vertex 90.88819794273401 12.960000510329582 0
   vertex 90.16819786289956 12.240000510329583 0.24
  endloop
 endfacet
 facet normal -0.3162277660168422 3.506370582764916e-08 -0.9486832980505118
  outer loop
   vertex 90.16819910261631 23.420588809276225 0.24
   vertex 90.88819890987892 21.682355237104968 0
   vertex 90.16819786289956 12.240000510329583 0.24
  endloop
 endfacet
 facet normal 0.2236067977499745 0.22360679774997508 -0.9486832980505158
  outer loop
   vertex 99.61055363665433 12.960000510329582 0
   vertex 90.88819890987892 21.682355237104968 0
   vertex 90.16819910261631 23.420588809276225 0.24
  endloop
 endfacet
 facet normal 0.22360679774997883 0.2236067977499789 -0.9486832980505139
  outer loop
   vertex 101.34878740156296 12.240000510329583 0.24
   vertex 99.61055363665433 12.960000510329582 0
   vertex 90.16819910261631 23.420588809276225 0.24
  endloop
 endfacet
 facet normal 0.0 -0.3162277660168384 -0.9486832980505138
  outer loop
   vertex 90.88819794273401 12.960000510329582 0
   vertex 99.61055363665433 12.960000510329582 0
   vertex 101.34878740156296 12.240000510329583 0.24
  endloop
 endfacet
 facet normal 0.0 -0.3162277660168384 -0.9486832980505137
  outer loop
   vertex 90.16819786289956 12.240000510329583 0.24
   vertex 90.88819794273401 12.960000510329582 0
   vertex 101.34878740156296 12.240000510329583 0.24
  endloop
 endfacet
 facet normal 0.0 0.0 1.0
  outer loop
   vertex 90.16819786289956 12.240000510329583 0.24
   vertex 101.34878740156296 12.240000510329583 0.24
   vertex 90.16819910261631 23.420588809276225 0.24
  endloop
 endfacet
 facet normal 0.0 0.0 -1.0
  outer loop
   vertex 90.16819786289956 12.240000510329583 0.48
   vertex 90.16819910261631 23.420588809276225 0.48
   vertex 101.34878740156296 12.240000510329583 0.48
  endloop
 endfacet
 facet normal -0.3162277660168362 3.506370582764849e-08 0.9486832980505138
  outer loop
   vertex 90.16819910261631 23.420588809276225 0.48
   vertex 90.16819786289956 12.240000510329583 0.48
   vertex 90.88819794273401 12.960000510329582 0.72
  endloop
 endfacet
 facet normal -0.3162277660168434 3.5063705270799395e-08 0.9486832980505112
  outer loop
   vertex 90.88819890987892 21.682355237104968 0.72
   vertex 90.16819910261631 23.420588809276225 0.48
   vertex 90.88819794273401 12.960000510329582 0.72
  endloop
 endfacet
 facet normal 0.22360679774997524 0.22360679774997533 0.9486832980505155
  outer loop
   vertex 101.34878740156296 12.240000510329583 0.48
   vertex 90.16819910261631 23.420588809276225 0.48
   vertex 90.88819890987892 21.682355237104968 0.72
  endloop
 endfacet
 facet normal 0.22360679774997907 0.22360679774997966 0.9486832980505135
  outer loop
   vertex 99.61055363665433 12.960000510329582 0.72
   vertex 101.34878740156296 12.240000510329583 0.48
   vertex 90.88819890987892 21.682355237104968 0.72
  endloop
 endfacet
 facet normal 0.0 -0.3162277660168384 0.9486832980505137
  outer loop
   vertex 90.16819786289956 12.240000510329583 0.48
   vertex 101.34878740156296 12.240000510329583 0.48
   vertex 99.61055363665433 12.960000510329582 0.72
  endloop
 endfacet
 facet normal 0.0 -0.3162277660168384 0.9486832980505138
  outer loop
   vertex 90.88819794273401 12.960000510329582 0.72
   vertex 90.16819786289956 12.240000510329583 0.48
   vertex 99.61055363665433 12.960000510329582 0.72
  endloop
 endfacet
 facet normal 0.0 0.0 1.0
  outer loop
   vertex 90.88819794273401 12.960000510329582 0.72
   vertex 99.61055363665433 12.960000510329582 0.72
   vertex 90.88819890987892 21.682355237104968 0.72
  endloop
 endfacet
 facet normal 0.0 0.0 -1.0
  outer loop
   vertex 100.96819865653251 14.317645530207756 0
   vertex 91.28684412896052 23.99900005777974 0
   vertex 100.96819865653251 23.999000469503237 0
  endloop
 endfacet
 facet normal -0.22360679774997871 -0.22360679774997871 -0.9486832980505139
  outer loop
   vertex 91.28684412896052 23.99900005777974 0
   vertex 100.96819865653251 14.317645530207756 0
   vertex 101.6881986565325 12.579411765299128 0.24
  endloop
 endfacet
 facet normal -0.2236067977499767 -0.22360679774997685 -0.9486832980505148
  outer loop
   vertex 90.26861040735479 23.999000014476838 0.24
   vertex 91.28684412896052 23.99900005777974 0
   vertex 101.6881986565325 12.579411765299128 0.24
  endloop
 endfacet
 facet normal -4.252746831955542e-08 0.999999999999999 -6.320116856834865e-15
  outer loop
   vertex 100.96819865653251 23.999000469503237 0
   vertex 91.28684412896052 23.99900005777974 0
   vertex 90.26861040735479 23.999000014476838 0.24
  endloop
 endfacet
 facet normal -4.2527468164495874e-08 0.9999999999999992 5.926893538909393e-16
  outer loop
   vertex 101.6881986565325 23.999000500123014 0.24
   vertex 100.96819865653251 23.999000469503237 0
   vertex 90.26861040735479 23.999000014476838 0.24
  endloop
 endfacet
 facet normal 0.3162277660168384 0.0 -0.9486832980505135
  outer loop
   vertex 100.96819865653251 14.317645530207756 0
   vertex 100.96819865653251 23.999000469503237 0
   vertex 101.6881986565325 23.999000500123014 0.24
  endloop
 endfacet
 facet normal 0.3162277660168384 0.0 -0.9486832980505138
  outer loop
   vertex 101.6881986565325 12.579411765299128 0.24
   vertex 100.96819865653251 14.317645530207756 0
   vertex 101.6881986565325 23.999000500123014 0.24
  endloop
 endfacet
 facet normal 0.0 -0.0 1.0
  outer loop
   vertex 101.6881986565325 12.579411765299128 0.24
   vertex 101.6881986565325 23.999000500123014 0.24
   vertex 90.26861040735479 23.999000014476838 0.24
  endloop
 endfacet
 facet normal 0.0 0.0 -1.0
  outer loop
   vertex 101.6881986565325 12.579411765299128 0.48
   vertex 90.26861040735479 23.999000014476838 0.48
   vertex 101.6881986565325 23.999000500123014 0.48
  endloop
 endfacet
 facet normal -0.22360679774997838 -0.22360679774997858 0.9486832980505139
  outer loop
   vertex 90.26861040735479 23.999000014476838 0.48
   vertex 101.6881986565325 12.579411765299128 0.48
   vertex 100.96819865653251 14.317645530207756 0.72
  endloop
 endfacet
 facet normal -0.2236067977499767 -0.2236067977499767 0.9486832980505149
  outer loop
   vertex 91.28684412896052 23.99900005777974 0.72
   vertex 90.26861040735479 23.999000014476838 0.48
   vertex 100.96819865653251 14.317645530207756 0.72
  endloop
 endfacet
 facet normal -4.2527468164495874e-08 0.9999999999999992 5.662254732201001e-15
  outer loop
   vertex 101.6881986565325 23.999000500123014 0.48
   vertex 90.26861040735479 23.999000014476838 0.48
   vertex 91.28684412896052 23.99900005777974 0.72
  endloop
 endfacet
 facet normal -4.252746831955542e-08 0.999999999999999 -1.0578680444972762e-15
  outer loop
   vertex 100.96819865653251 23.999000469503237 0.72
   vertex 101.6881986565325 23.999000500123014 0.48
   vertex 91.28684412896052 23.99900005777974 0.72
  endloop
 endfacet
 facet normal 0.3162277660168384 -0.0 0.9486832980505138
  outer loop
   vertex 101.6881986565325 12.579411765299128 0.48
   vertex 101.6881986565325 23.999000500123014 0.48
   vertex 100.96819865653251 23.999000469503237 0.72
  endloop
 endfacet
 facet normal 0.3162277660168384 -0.0 0.9486832980505135
  outer loop
   vertex 100.96819865653251 14.317645530207756 0.72
   vertex 101.6881986565325 12.579411765299128 0.48
   vertex 100.96819865653251 23.999000469503237 0.72
  endloop
 endfacet
 facet normal 0.0 -0.0 1.0
  outer loop
   vertex 100.96819865653251 14.317645530207756 0.72
   vertex 100.96819865653251 23.999000469503237 0.72
   vertex 91.28684412896052 23.99900005777974 0.72
  endloop
 endfacet
 facet normal 0.0 0.0 -1.0
  outer loop
   vertex 90.88819794273398 11.040000510329584 0
   vertex 99.61055377604426 11.040000510329584 0
   vertex 90.88819890987894 2.3176449022849437 0
  endloop
 endfacet
 facet normal 0.0 0.3162277660168384 -0.9486832980505135
  outer loop
   vertex 99.61055377604426 11.040000510329584 0
   vertex 90.88819794273398 11.040000510329584 0
   vertex 90.16819786289955 11.760000510329583 0.24
  endloop
 endfacet
 facet normal 0.0 0.3162277660168384 -0.9486832980505137
  outer loop
   vertex 101.34878743641045 11.760000510329583 0.24
   vertex 99.61055377604426 11.040000510329584 0
   vertex 90.16819786289955 11.760000510329583 0.24
  endloop
 endfacet
 facet normal 0.22360680725940718 -0.22360678824054642 -0.9486832980505149
  outer loop
   vertex 90.88819890987894 2.3176449022849437 0
   vertex 99.61055377604426 11.040000510329584 0
   vertex 101.34878743641045 11.760000510329583 0.24
  endloop
 endfacet
 facet normal 0.2236068072594122 -0.22360678824055205 -0.9486832980505121
  outer loop
   vertex 90.16819910261628 0.5794112255712425 0.24
   vertex 90.88819890987894 2.3176449022849437 0
   vertex 101.34878743641045 11.760000510329583 0.24
  endloop
 endfacet
 facet normal -0.31622776601682634 -3.506370327374926e-08 -0.948683298050517
  outer loop
   vertex 90.88819794273398 11.040000510329584 0
   vertex 90.88819890987894 2.3176449022849437 0
   vertex 90.16819910261628 0.5794112255712425 0.24
  endloop
 endfacet
 facet normal -0.31622776601683866 -3.506370233408708e-08 -0.9486832980505129
  outer loop
   vertex 90.16819786289955 11.760000510329583 0.24
   vertex 90.88819794273398 11.040000510329584 0
   vertex 90.16819910261628 0.5794112255712425 0.24
  endloop
 endfacet
 facet normal -0.0 0.0 1.0
  outer loop
   vertex 90.16819786289955 11.760000510329583 0.24
   vertex 90.16819910261628 0.5794112255712425 0.24
   vertex 101.34878743641045 11.760000510329583 0.24
  endloop
 endfacet
 facet normal 0.0 0.0 -1.0
  outer loop
   vertex 90.16819786289955 11.760000510329583 0.48
   vertex 101.34878743641045 11.760000510329583 0.48
   vertex 90.16819910261628 0.5794112255712425 0.48
  endloop
 endfacet
 facet normal 0.0 0.3162277660168384 0.9486832980505137
  outer loop
   vertex 101.34878743641045 11.760000510329583 0.48
   vertex 90.16819786289955 11.760000510329583 0.48
   vertex 90.88819794273398 11.040000510329584 0.72
  endloop
 endfacet
 facet normal 0.0 0.3162277660168384 0.9486832980505135
  outer loop
   vertex 99.61055377604426 11.040000510329584 0.72
   vertex 101.34878743641045 11.760000510329583 0.48
   vertex 90.88819794273398 11.040000510329584 0.72
  endloop
 endfacet
 facet normal 0.22360680725940757 -0.22360678824054742 0.9486832980505144
  outer loop
   vertex 90.16819910261628 0.5794112255712425 0.48
   vertex 101.34878743641045 11.760000510329583 0.48
   vertex 99.61055377604426 11.040000510329584 0.72
  endloop
 endfacet
 facet normal 0.2236068072594132 -0.22360678824055244 0.9486832980505119
  outer loop
   vertex 90.88819890987894 2.3176449022849437 0.72
   vertex 90.16819910261628 0.5794112255712425 0.48
   vertex 99.61055377604426 11.040000510329584 0.72
  endloop
 endfacet
 facet normal -0.31622776601682834 -3.5063702334085934e-08 0.9486832980505163
  outer loop
   vertex 90.16819786289955 11.760000510329583 0.48
   vertex 90.16819910261628 0.5794112255712425 0.48
   vertex 90.88819890987894 2.3176449022849437 0.72
  endloop
 endfacet
 facet normal -0.31622776601683944 -3.5063703273750716e-08 0.9486832980505127
  outer loop
   vertex 90.88819794273398 11.040000510329584 0.72
   vertex 90.16819786289955 11.760000510329583 0.48
   vertex 90.88819890987894 2.3176449022849437 0.72
  endloop
 endfacet
 facet normal -0.0 0.0 1.0
  outer loop
   vertex 90.88819794273398 11.040000510329584 0.72
   vertex 90.88819890987894 2.3176449022849437 0.72
   vertex 99.61055377604426 11.040000510329584 0.72
  endloop
 endfacet
 facet normal 0.0 0.0 -1.0
  outer loop
   vertex 45.95999741317681 8.417231224733882 0
   vertex 50.81911077633905 0.0009999999999969764 0
   vertex 45.95999741317681 0.0009999999999995013 0
  endloop
 endfacet
 facet normal 0.2738612787525856 0.1581138830084205 -0.9486832980505128
  outer loop
   vertex 50.81911077633905 0.0009999999999969764 0
   vertex 45.95999741317681 8.417231224733882 0
   vertex 45.23999741317681 11.104307806183456 0.24
  endloop
 endfacet
 facet normal 0.2738612787525819 0.15811388300841867 -0.9486832980505142
  outer loop
   vertex 51.65049516397212 0.0009999999999965442 0.24
   vertex 50.81911077633905 0.0009999999999969764 0
   vertex 45.23999741317681 11.104307806183456 0.24
  endloop
 endfacet
 facet normal -5.196194924007863e-16 -1.0 -6.643852537091575e-19
  outer loop
   vertex 45.95999741317681 0.0009999999999995013 0
   vertex 50.81911077633905 0.0009999999999969764 0
   vertex 51.65049516397212 0.0009999999999965442 0.24
  endloop
 endfacet
 facet normal -5.196324660329529e-16 -1.0 -3.567751509437291e-19
  outer loop
   vertex 45.23999741317681 0.0009999999999998753 0.24
   vertex 45.95999741317681 0.0009999999999995013 0
   vertex 51.65049516397212 0.0009999999999965442 0.24
  endloop
 endfacet
 facet normal -0.31622776601683833 -0.0 -0.9486832980505135
  outer loop
   vertex 45.95999741317681 8.417231224733882 0
   vertex 45.95999741317681 0.0009999999999995013 0
   vertex 45.23999741317681 0.0009999999999998753 0.24
  endloop
 endfacet
 facet normal -0.3162277660168384 -0.0 -0.9486832980505138
  outer loop
   vertex 45.23999741317681 11.104307806183456 0.24
   vertex 45.95999741317681 8.417231224733882 0
   vertex 45.23999741317681 0.0009999999999998753 0.24
  endloop
 endfacet
 facet normal 0.0 0.0 1.0
  outer loop
   vertex 45.23999741317681 11.104307806183456 0.24
   vertex 45.23999741317681 0.0009999999999998753 0.24
   vertex 51.65049516397212 0.0009999999999965442 0.24
  endloop
 endfacet
 facet normal 0.0 0.0 -1.0
  outer loop
   vertex 45.23999741317681 11.104307806183456 0.48
   vertex 51.65049516397212 0.0009999999999965442 0.48
   vertex 45.23999741317681 0.0009999999999998753 0.48
  endloop
 endfacet
 facet normal 0.27386127875258454 0.15811388300842016 0.9486832980505131
  outer loop
   vertex 51.65049516397212 0.0009999999999965442 0.48
   vertex 45.23999741317681 11.104307806183456 0.48
   vertex 45.95999741317681 8.417231224733882 0.72
  endloop
 endfacet
 facet normal 0.2738612787525819 0.1581138830084184 0.9486832980505142
  outer loop
   vertex 50.81911077633905 0.0009999999999969764 0.72
   vertex 51.65049516397212 0.0009999999999965442 0.48
   vertex 45.95999741317681 8.417231224733882 0.72
  endloop
 endfacet
 facet normal -5.196324660329529e-16 -1.0 6.194432735666958e-19
  outer loop
   vertex 45.23999741317681 0.0009999999999998753 0.48
   vertex 51.65049516397212 0.0009999999999965442 0.48
   vertex 50.81911077633905 0.0009999999999969764 0.72
  endloop
 endfacet
 facet normal -5.196194924007863e-16 -1.0 3.178542544438227e-19
  outer loop
   vertex 45.95999741317681 0.0009999999999995013 0.72
   vertex 45.23999741317681 0.0009999999999998753 0.48
   vertex 50.81911077633905 0.0009999999999969764 0.72
  endloop
 endfacet
 facet normal -0.3162277660168384 0.0 0.9486832980505138
  outer loop
   vertex 45.23999741317681 11.104307806183456 0.48
   vertex 45.23999741317681 0.0009999999999998753 0.48
   vertex 45.95999741317681 0.0009999999999995013 0.72
  endloop
 endfacet
 facet normal -0.31622776601683833 0.0 0.9486832980505135
  outer loop
   vertex 45.95999741317681 8.417231224733882 0.72
   vertex 45.23999741317681 11.104307806183456 0.48
   vertex 45.95999741317681 0.0009999999999995013 0.72
  endloop
 endfacet
 facet normal 0.0 0.0 1.0
  outer loop
   vertex 45.95999741317681 8.417231224733882 0.72
   vertex 45.95999741317681 0.0009999999999995013 0.72
   vertex 50.81911077633905 0.0009999999999969764 0.72
  endloop
 endfacet
 facet normal 0.0 0.0 -1.0
  outer loop
   vertex 91.2868441866977 0.001000057779725234 0
   vertex 100.96819865653251 9.682355351061489 0
   vertex 100.96819865653251 0.0010004695032157125 0
  endloop
 endfacet
 facet normal -0.22360680725940943 0.22360678824054886 -0.9486832980505137
  outer loop
   vertex 100.96819865653251 9.682355351061489 0
   vertex 91.2868441866977 0.001000057779725234 0
   vertex 90.26861042178908 0.0010000144768215835 0.24
  endloop
 endfacet
 facet normal -0.2236068072594097 0.22360678824054922 -0.9486832980505134
  outer loop
   vertex 101.6881986565325 11.420589220512568 0.24
   vertex 100.96819865653251 9.682355351061489 0
   vertex 90.26861042178908 0.0010000144768215835 0.24
  endloop
 endfacet
 facet normal 0.3162277660168384 0.0 -0.9486832980505137
  outer loop
   vertex 100.96819865653251 0.0010004695032157125 0
   vertex 100.96819865653251 9.682355351061489 0
   vertex 101.6881986565325 11.420589220512568 0.24
  endloop
 endfacet
 facet normal 0.3162277660168384 0.0 -0.9486832980505137
  outer loop
   vertex 101.6881986565325 0.0010005001229925288 0.24
   vertex 100.96819865653251 0.0010004695032157125 0
   vertex 101.6881986565325 11.420589220512568 0.24
  endloop
 endfacet
 facet normal 4.252746780023272e-08 -0.999999999999999 4.633386093317414e-19
  outer loop
   vertex 91.2868441866977 0.001000057779725234 0
   vertex 100.96819865653251 0.0010004695032157125 0
   vertex 101.6881986565325 0.0010005001229925288 0.24
  endloop
 endfacet
 facet normal 4.252746780025729e-08 -0.9999999999999992 -6.011545424040694e-19
  outer loop
   vertex 90.26861042178908 0.0010000144768215835 0.24
   vertex 91.2868441866977 0.001000057779725234 0
   vertex 101.6881986565325 0.0010005001229925288 0.24
  endloop
 endfacet
 facet normal 0.0 0.0 1.0
  outer loop
   vertex 90.26861042178908 0.0010000144768215835 0.24
   vertex 101.6881986565325 0.0010005001229925288 0.24
   vertex 101.6881986565325 11.420589220512568 0.24
  endloop
 endfacet
 facet normal 0.0 0.0 -1.0
  outer loop
   vertex 90.26861042178908 0.0010000144768215835 0.48
   vertex 101.6881986565325 11.420589220512568 0.48
   vertex 101.6881986565325 0.0010005001229925288 0.48
  endloop
 endfacet
 facet normal -0.22360680725940935 0.2236067882405489 0.9486832980505137
  outer loop
   vertex 101.6881986565325 11.420589220512568 0.48
   vertex 90.26861042178908 0.0010000144768215835 0.48
   vertex 91.2868441866977 0.001000057779725234 0.72
  endloop
 endfacet
 facet normal -0.2236068072594098 0.22360678824054925 0.9486832980505135
  outer loop
   vertex 100.96819865653251 9.682355351061489 0.72
   vertex 101.6881986565325 11.420589220512568 0.48
   vertex 91.2868441866977 0.001000057779725234 0.72
  endloop
 endfacet
 facet normal 0.3162277660168384 -0.0 0.9486832980505137
  outer loop
   vertex 101.6881986565325 0.0010005001229925288 0.48
   vertex 101.6881986565325 11.420589220512568 0.48
   vertex 100.96819865653251 9.682355351061489 0.72
  endloop
 endfacet
 facet normal 0.3162277660168384 -0.0 0.9486832980505137
  outer loop
   vertex 100.96819865653251 0.0010004695032157125 0.72
   vertex 101.6881986565325 0.0010005001229925288 0.48
   vertex 100.96819865653251 9.682355351061489 0.72
  endloop
 endfacet
 facet normal 4.252746780025729e-08 -0.9999999999999992 -3.900299633771278e-19
  outer loop
   vertex 90.26861042178908 0.0010000144768215835 0.48
   vertex 101.6881986565325 0.0010005001229925288 0.48
   vertex 100.96819865653251 0.0010004695032157125 0.72
  endloop
 endfacet
 facet normal 4.252746780023272e-08 -0.999999999999999 7.053974894232255e-19
  outer loop
   vertex 91.2868441866977 0.001000057779725234 0.72
   vertex 90.26861042178908 0.0010000144768215835 0.48
   vertex 100.96819865653251 0.0010004695032157125 0.72
  endloop
 endfacet
 facet normal 0.0 0.0 1.0
  outer loop
   vertex 91.2868441866977 0.001000057779725234 0.72
   vertex 100.96819865653251 0.0010004695032157125 0.72
   vertex 100.96819865653251 9.682355351061489 0.72
  endloop
 endfacet
 facet normal 0.0 0.0 -1.0
  outer loop
   vertex 44.039997413176806 13.2 0
   vertex 0.001 13.2 0
   vertex 0.001 23.999 0
  endloop
 endfacet
 facet normal 0.0 0.0 -1.0
  outer loop
   vertex 44.039997413176806 13.2 0
   vertex 0.001 23.999 0
   vertex 44.039997413176806 23.999 0
  endloop
 endfacet
 facet normal 0.0 -1.0 0.0
  outer loop
   vertex 0.001 13.2 0
   vertex 44.039997413176806 13.2 0
   vertex 44.759997413176805 13.2 0.24
  endloop
 endfacet
 facet normal 0.0 -1.0 0.0
  outer loop
   vertex 0.001 13.2 0.24
   vertex 0.001 13.2 0
   vertex 44.759997413176805 13.2 0.24
  endloop
 endfacet
 facet normal -1.0 0.0 0.0
  outer loop
   vertex 0.001 23.999 0
   vertex 0.001 13.2 0
   vertex 0.001 13.2 0.24
  endloop
 endfacet
 facet normal -1.0 -0.0 -0.0
  outer loop
   vertex 0.001 23.999 0.24
   vertex 0.001 23.999 0
   vertex 0.001 13.2 0.24
  endloop
 endfacet
 facet normal 0.0 1.0 0.0
  outer loop
   vertex 44.039997413176806 23.999 0
   vertex 0.001 23.999 0
   vertex 0.001 23.999 0.24
  endloop
 endfacet
 facet normal 0.0 1.0 0.0
  outer loop
   vertex 44.759997413176805 23.999 0.24
   vertex 44.039997413176806 23.999 0
   vertex 0.001 23.999 0.24
  endloop
 endfacet
 facet normal 0.31622776601683833 0.0 -0.9486832980505135
  outer loop
   vertex 44.039997413176806 13.2 0
   vertex 44.039997413176806 23.999 0
   vertex 44.759997413176805 23.999 0.24
  endloop
 endfacet
 facet normal 0.31622776601683833 0.0 -0.9486832980505135
  outer loop
   vertex 44.759997413176805 13.2 0.24
   vertex 44.039997413176806 13.2 0
   vertex 44.759997413176805 23.999 0.24
  endloop
 endfacet
 facet normal 0.0 0.0 1.0
  outer loop
   vertex 44.759997413176805 13.2 0.24
   vertex 0.001 23.999 0.24
   vertex 0.001 13.2 0.24
  endloop
 endfacet
 facet normal 0.0 -0.0 1.0
  outer loop
   vertex 44.759997413176805 13.2 0.24
   vertex 44.759997413176805 23.999 0.24
   vertex 0.001 23.999 0.24
  endloop
 endfacet
 facet normal 0.0 0.0 -1.0
  outer loop
   vertex 44.759997413176805 13.2 0.48
   vertex 0.001 13.2 0.48
   vertex 0.001 23.999 0.48
  endloop
 endfacet
 facet normal 0.0 0.0 -1.0
  outer loop
   vertex 44.759997413176805 13.2 0.48
   vertex 0.001 23.999 0.48
   vertex 44.759997413176805 23.999 0.48
  endloop
 endfacet
 facet normal 0.0 -1.0 0.0
  outer loop
   vertex 0.001 13.2 0.48
   vertex 44.759997413176805 13.2 0.48
   vertex 44.039997413176806 13.2 0.72
  endloop
 endfacet
 facet normal 0.0 -1.0 0.0
  outer loop
   vertex 0.001 13.2 0.72
   vertex 0.001 13.2 0.48
   vertex 44.039997413176806 13.2 0.72
  endloop
 endfacet
 facet normal -1.0 0.0 0.0
  outer loop
   vertex 0.001 23.999 0.48
   vertex 0.001 13.2 0.48
   vertex 0.001 13.2 0.72
  endloop
 endfacet
 facet normal -1.0 -0.0 -0.0
  outer loop
   vertex 0.001 23.999 0.72
   vertex 0.001 23.999 0.48
   vertex 0.001 13.2 0.72
  endloop
 endfacet
 facet normal 0.0 1.0 0.0
  outer loop
   vertex 44.759997413176805 23.999 0.48
   vertex 0.001 23.999 0.48
   vertex 0.001 23.999 0.72
  endloop
 endfacet
 facet normal 0.0 1.0 0.0
  outer loop
   vertex 44.039997413176806 23.999 0.72
   vertex 44.759997413176805 23.999 0.48
   vertex 0.001 23.999 0.72
  endloop
 endfacet
 facet normal 0.31622776601683833 -0.0 0.9486832980505135
  outer loop
   vertex 44.759997413176805 13.2 0.48
   vertex 44.759997413176805 23.999 0.48
   vertex 44.039997413176806 23.999 0.72
  endloop
 endfacet
 facet normal 0.31622776601683833 -0.0 0.9486832980505135
  outer loop
   vertex 44.039997413176806 13.2 0.72
   vertex 44.759997413176805 13.2 0.48
   vertex 44.039997413176806 23.999 0.72
  endloop
 endfacet
 facet normal 0.0 0.0 1.0
  outer loop
   vertex 44.039997413176806 13.2 0.72
   vertex 0.001 23.999 0.72
   vertex 0.001 13.2 0.72
  endloop
 endfacet
 facet normal 0.0 -0.0 1.0
  outer loop
   vertex 44.039997413176806 13.2 0.72
   vertex 44.039997413176806 23.999 0.72
   vertex 0.001 23.999 0.72
  endloop
 endfacet
 facet normal 0.0 0.0 -1.0
  outer loop
   vertex 0.001 10.8 0
   vertex 44.039997413176806 10.8 0
   vertex 44.039997413176806 0.001 0
  endloop
 endfacet
 facet normal 0.0 0.0 -1.0
  outer loop
   vertex 0.001 10.8 0
   vertex 44.039997413176806 0.001 0
   vertex 0.001 0.001 0
  endloop
 endfacet
 facet normal 0.0 1.0 0.0
  outer loop
   vertex 44.039997413176806 10.8 0
   vertex 0.001 10.8 0
   vertex 0.001 10.8 0.24
  endloop
 endfacet
 facet normal 0.0 1.0 0.0
  outer loop
   vertex 44.759997413176805 10.8 0.24
   vertex 44.039997413176806 10.8 0
   vertex 0.001 10.8 0.24
  endloop
 endfacet
 facet normal 0.31622776601683833 0.0 -0.9486832980505135
  outer loop
   vertex 44.039997413176806 0.001 0
   vertex 44.039997413176806 10.8 0
   vertex 44.759997413176805 10.8 0.24
  endloop
 endfacet
 facet normal 0.31622776601683833 0.0 -0.9486832980505135
  outer loop
   vertex 44.759997413176805 0.001 0.24
   vertex 44.039997413176806 0.001 0
   vertex 44.759997413176805 10.8 0.24
  endloop
 endfacet
 facet normal 0.0 -1.0 0.0
  outer loop
   vertex 0.001 0.001 0
   vertex 44.039997413176806 0.001 0
   vertex 44.759997413176805 0.001 0.24
  endloop
 endfacet
 facet normal 0.0 -1.0 0.0
  outer loop
   vertex 0.001 0.001 0.24
   vertex 0.001 0.001 0
   vertex 44.759997413176805 0.001 0.24
  endloop
 endfacet
 facet normal -1.0 0.0 0.0
  outer loop
   vertex 0.001 10.8 0
   vertex 0.001 0.001 0
   vertex 0.001 0.001 0.24
  endloop
 endfacet
 facet normal -1.0 -0.0 -0.0
  outer loop
   vertex 0.001 10.8 0.24
   vertex 0.001 10.8 0
   vertex 0.001 0.001 0.24
  endloop
 endfacet
 facet normal -0.0 0.0 1.0
  outer loop
   vertex 0.001 10.8 0.24
   vertex 44.759997413176805 0.001 0.24
   vertex 44.759997413176805 10.8 0.24
  endloop
 endfacet
 facet normal 0.0 0.0 1.0
  outer loop
   vertex 0.001 10.8 0.24
   vertex 0.001 0.001 0.24
   vertex 44.759997413176805 0.001 0.24
  endloop
 endfacet
 facet normal 0.0 0.0 -1.0
  outer loop
   vertex 0.001 10.8 0.48
   vertex 44.759997413176805 10.8 0.48
   vertex 44.759997413176805 0.001 0.48
  endloop
 endfacet
 facet normal 0.0 0.0 -1.0
  outer loop
   vertex 0.001 10.8 0.48
   vertex 44.759997413176805 0.001 0.48
   vertex 0.001 0.001 0.48
  endloop
 endfacet
 facet normal 0.0 1.0 0.0
  outer loop
   vertex 44.759997413176805 10.8 0.48
   vertex 0.001 10.8 0.48
   vertex 0.001 10.8 0.72
  endloop
 endfacet
 facet normal 0.0 1.0 0.0
  outer loop
   vertex 44.039997413176806 10.8 0.72
   vertex 44.759997413176805 10.8 0.48
   vertex 0.001 10.8 0.72
  endloop
 endfacet
 facet normal 0.31622776601683833 -0.0 0.9486832980505135
  outer loop
   vertex 44.759997413176805 0.001 0.48
   vertex 44.759997413176805 10.8 0.48
   vertex 44.039997413176806 10.8 0.72
  endloop
 endfacet
 facet normal 0.31622776601683833 -0.0 0.9486832980505135
  outer loop
   vertex 44.039997413176806 0.001 0.72
   vertex 44.759997413176805 0.001 0.48
   vertex 44.039997413176806 10.8 0.72
  endloop
 endfacet
 facet normal 0.0 -1.0 0.0
  outer loop
   vertex 0.001 0.001 0.48
   vertex 44.759997413176805 0.001 0.48
   vertex 44.039997413176806 0.001 0.72
  endloop
 endfacet
 facet normal 0.0 -1.0 0.0
  outer loop
   vertex 0.001 0.001 0.72
   vertex 0.001 0.001 0.48
   vertex 44.039997413176806 0.001 0.72
  endloop
 endfacet
 facet normal -1.0 0.0 0.0
  outer loop
   vertex 0.001 10.8 0.48
   vertex 0.001 0.001 0.48
   vertex 0.001 0.001 0.72
  endloop
 endfacet
 facet normal -1.0 -0.0 -0.0
  outer loop
   vertex 0.001 10.8 0.72
   vertex 0.001 10.8 0.48
   vertex 0.001 0.001 0.72
  endloop
 endfacet
 facet normal -0.0 0.0 1.0
  outer loop
   vertex 0.001 10.8 0.72
   vertex 44.039997413176806 0.001 0.72
   vertex 44.039997413176806 10.8 0.72
  endloop
 endfacet
 facet normal 0.0 0.0 1.0
  outer loop
   vertex 0.001 10.8 0.72
   vertex 0.001 0.001 0.72
   vertex 44.039997413176806 0.001 0.72
  endloop
 endfacet
 facet normal 0.0 0.0 -1.0
  outer loop
   vertex 121.9272018997015 13.200000510329575 0
   vertex 102.8881986565325 13.200000510329575 0
   vertex 102.8881986565325 23.99900051032959 0
  endloop
 endfacet
 facet normal 0.0 0.0 -1.0
  outer loop
   vertex 121.9272018997015 13.200000510329575 0
   vertex 102.8881986565325 23.99900051032959 0
   vertex 121.9272018997015 23.99900051032959 0
  endloop
 endfacet
 facet normal 0.0 -1.0 0.0
  outer loop
   vertex 102.8881986565325 13.200000510329575 0
   vertex 121.9272018997015 13.200000510329575 0
   vertex 121.9272018997015 13.200000510329575 0.24
  endloop
 endfacet
 facet normal 0.0 -1.0 0.0
  outer loop
   vertex 102.1681986565325 13.200000510329575 0.24
   vertex 102.8881986565325 13.200000510329575 0
   vertex 121.9272018997015 13.200000510329575 0.24
  endloop
 endfacet
 facet normal -0.3162277660168384 -0.0 -0.9486832980505135
  outer loop
   vertex 102.8881986565325 23.99900051032959 0
   vertex 102.8881986565325 13.200000510329575 0
   vertex 102.1681986565325 13.200000510329575 0.24
  endloop
 endfacet
 facet normal -0.3162277660168384 -0.0 -0.9486832980505135
  outer loop
   vertex 102.1681986565325 23.99900051032959 0.24
   vertex 102.8881986565325 23.99900051032959 0
   vertex 102.1681986565325 13.200000510329575 0.24
  endloop
 endfacet
 facet normal 0.0 1.0 0.0
  outer loop
   vertex 121.9272018997015 23.99900051032959 0
   vertex 102.8881986565325 23.99900051032959 0
   vertex 102.1681986565325 23.99900051032959 0.24
  endloop
 endfacet
 facet normal 0.0 1.0 0.0
  outer loop
   vertex 121.9272018997015 23.99900051032959 0.24
   vertex 121.9272018997015 23.99900051032959 0
   vertex 102.1681986565325 23.99900051032959 0.24
  endloop
 endfacet
 facet normal 1.0 0.0 0.0
  outer loop
   vertex 121.9272018997015 13.200000510329575 0
   vertex 121.9272018997015 23.99900051032959 0
   vertex 121.9272018997015 23.99900051032959 0.24
  endloop
 endfacet
 facet normal 1.0 -0.0 0.0
  outer loop
   vertex 121.9272018997015 13.200000510329575 0.24
   vertex 121.9272018997015 13.200000510329575 0
   vertex 121.9272018997015 23.99900051032959 0.24
  endloop
 endfacet
 facet normal 0.0 0.0 1.0
  outer loop
   vertex 121.9272018997015 13.200000510329575 0.24
   vertex 102.1681986565325 23.99900051032959 0.24
   vertex 102.1681986565325 13.200000510329575 0.24
  endloop
 endfacet
 facet normal 0.0 -0.0 1.0
  outer loop
   vertex 121.9272018997015 13.200000510329575 0.24
   vertex 121.9272018997015 23.99900051032959 0.24
   vertex 102.1681986565325 23.99900051032959 0.24
  endloop
 endfacet
 facet normal 0.0 0.0 -1.0
  outer loop
   vertex 121.9272018997015 13.200000510329575 0.48
   vertex 102.1681986565325 13.200000510329575 0.48
   vertex 102.1681986565325 23.99900051032959 0.48
  endloop
 endfacet
 facet normal 0.0 0.0 -1.0
  outer loop
   vertex 121.9272018997015 13.200000510329575 0.48
   vertex 102.1681986565325 23.99900051032959 0.48
   vertex 121.9272018997015 23.99900051032959 0.48
  endloop
 endfacet
 facet normal 0.0 -1.0 0.0
  outer loop
   vertex 102.1681986565325 13.200000510329575 0.48
   vertex 121.9272018997015 13.200000510329575 0.48
   vertex 121.9272018997015 13.200000510329575 0.72
  endloop
 endfacet
 facet normal 0.0 -1.0 -0.0
  outer loop
   vertex 102.8881986565325 13.200000510329575 0.72
   vertex 102.1681986565325 13.200000510329575 0.48
   vertex 121.9272018997015 13.200000510329575 0.72
  endloop
 endfacet
 facet normal -0.3162277660168384 0.0 0.9486832980505135
  outer loop
   vertex 102.1681986565325 23.99900051032959 0.48
   vertex 102.1681986565325 13.200000510329575 0.48
   vertex 102.8881986565325 13.200000510329575 0.72
  endloop
 endfacet
 facet normal -0.3162277660168384 0.0 0.9486832980505135
  outer loop
   vertex 102.8881986565325 23.99900051032959 0.72
   vertex 102.1681986565325 23.99900051032959 0.48
   vertex 102.8881986565325 13.200000510329575 0.72
  endloop
 endfacet
 facet normal 0.0 1.0 0.0
  outer loop
   vertex 121.9272018997015 23.99900051032959 0.48
   vertex 102.1681986565325 23.99900051032959 0.48
   vertex 102.8881986565325 23.99900051032959 0.72
  endloop
 endfacet
 facet normal 0.0 1.0 0.0
  outer loop
   vertex 121.9272018997015 23.99900051032959 0.72
   vertex 121.9272018997015 23.99900051032959 0.48
   vertex 102.8881986565325 23.99900051032959 0.72
  endloop
 endfacet
 facet normal 1.0 0.0 0.0
  outer loop
   vertex 121.9272018997015 13.200000510329575 0.48
   vertex 121.9272018997015 23.99900051032959 0.48
   vertex 121.9272018997015 23.99900051032959 0.72
  endloop
 endfacet
 facet normal 1.0 -0.0 0.0
  outer loop
   vertex 121.9272018997015 13.200000510329575 0.72
   vertex 121.9272018997015 13.200000510329575 0.48
   vertex 121.9272018997015 23.99900051032959 0.72
  endloop
 endfacet
 facet normal 0.0 0.0 1.0
  outer loop
   vertex 121.9272018997015 13.200000510329575 0.72
   vertex 102.8881986565325 23.99900051032959 0.72
   vertex 102.8881986565325 13.200000510329575 0.72
  endloop
 endfacet
 facet normal 0.0 -0.0 1.0
  outer loop
   vertex 121.9272018997015 13.200000510329575 0.72
   vertex 121.9272018997015 23.99900051032959 0.72
   vertex 102.8881986565325 23.99900051032959 0.72
  endloop
 endfacet
 facet normal 0.0 0.0 -1.0
  outer loop
   vertex 102.8881986565325 10.800000510329577 0
   vertex 121.9272018997015 10.800000510329577 0
   vertex 121.9272018997015 0.0010005103295848 0
  endloop
 endfacet
 facet normal 0.0 0.0 -1.0
  outer loop
   vertex 102.8881986565325 10.800000510329577 0
   vertex 121.9272018997015 0.0010005103295848 0
   vertex 102.8881986565325 0.0010005103295848 0
  endloop
 endfacet
 facet normal 0.0 1.0 0.0
  outer loop
   vertex 121.9272018997015 10.800000510329577 0
   vertex 102.8881986565325 10.800000510329577 0
   vertex 102.1681986565325 10.800000510329577 0.24
  endloop
 endfacet
 facet normal 0.0 1.0 0.0
  outer loop
   vertex 121.9272018997015 10.800000510329577 0.24
   vertex 121.9272018997015 10.800000510329577 0
   vertex 102.1681986565325 10.800000510329577 0.24
  endloop
 endfacet
 facet normal 1.0 0.0 0.0
  outer loop
   vertex 121.9272018997015 0.0010005103295848 0
   vertex 121.9272018997015 10.800000510329577 0
   vertex 121.9272018997015 10.800000510329577 0.24
  endloop
 endfacet
 facet normal 1.0 -0.0 0.0
  outer loop
   vertex 121.9272018997015 0.0010005103295848 0.24
   vertex 121.9272018997015 0.0010005103295848 0
   vertex 121.9272018997015 10.800000510329577 0.24
  endloop
 endfacet
 facet normal 0.0 -1.0 0.0
  outer loop
   vertex 102.8881986565325 0.0010005103295848 0
   vertex 121.9272018997015 0.0010005103295848 0
   vertex 121.9272018997015 0.0010005103295848 0.24
  endloop
 endfacet
 facet normal 0.0 -1.0 0.0
  outer loop
   vertex 102.1681986565325 0.0010005103295848 0.24
   vertex 102.8881986565325 0.0010005103295848 0
   vertex 121.9272018997015 0.0010005103295848 0.24
  endloop
 endfacet
 facet normal -0.31622776601683833 -0.0 -0.9486832980505137
  outer loop
   vertex 102.8881986565325 10.800000510329577 0
   vertex 102.8881986565325 0.0010005103295848 0
   vertex 102.1681986565325 0.0010005103295848 0.24
  endloop
 endfacet
 facet normal -0.31622776601683833 -0.0 -0.9486832980505137
  outer loop
   vertex 102.1681986565325 10.800000510329577 0.24
   vertex 102.8881986565325 10.800000510329577 0
   vertex 102.1681986565325 0.0010005103295848 0.24
  endloop
 endfacet
 facet normal -0.0 0.0 1.0
  outer loop
   vertex 102.1681986565325 10.800000510329577 0.24
   vertex 121.9272018997015 0.0010005103295848 0.24
   vertex 121.9272018997015 10.800000510329577 0.24
  endloop
 endfacet
 facet normal 0.0 0.0 1.0
  outer loop
   vertex 102.1681986565325 10.800000510329577 0.24
   vertex 102.1681986565325 0.0010005103295848 0.24
   vertex 121.9272018997015 0.0010005103295848 0.24
  endloop
 endfacet
 facet normal 0.0 0.0 -1.0
  outer loop
   vertex 102.1681986565325 10.800000510329577 0.48
   vertex 121.9272018997015 10.800000510329577 0.48
   vertex 121.9272018997015 0.0010005103295848 0.48
  endloop
 endfacet
 facet normal 0.0 0.0 -1.0
  outer loop
   vertex 102.1681986565325 10.800000510329577 0.48
   vertex 121.9272018997015 0.0010005103295848 0.48
   vertex 102.1681986565325 0.0010005103295848 0.48
  endloop
 endfacet
 facet normal 0.0 1.0 0.0
  outer loop
   vertex 121.9272018997015 10.800000510329577 0.48
   vertex 102.1681986565325 10.800000510329577 0.48
   vertex 102.8881986565325 10.800000510329577 0.72
  endloop
 endfacet
 facet normal 0.0 1.0 0.0
  outer loop
   vertex 121.9272018997015 10.800000510329577 0.72
   vertex 121.9272018997015 10.800000510329577 0.48
   vertex 102.8881986565325 10.800000510329577 0.72
  endloop
 endfacet
 facet normal 1.0 0.0 0.0
  outer loop
   vertex 121.9272018997015 0.0010005103295848 0.48
   vertex 121.9272018997015 10.800000510329577 0.48
   vertex 121.9272018997015 10.800000510329577 0.72
  endloop
 endfacet
 facet normal 1.0 -0.0 0.0
  outer loop
   vertex 121.9272018997015 0.0010005103295848 0.72
   vertex 121.9272018997015 0.0010005103295848 0.48
   vertex 121.9272018997015 10.800000510329577 0.72
  endloop
 endfacet
 facet normal 0.0 -1.0 0.0
  outer loop
   vertex 102.1681986565325 0.0010005103295848 0.48
   vertex 121.9272018997015 0.0010005103295848 0.48
   vertex 121.9272018997015 0.0010005103295848 0.72
  endloop
 endfacet
 facet normal 0.0 -1.0 -0.0
  outer loop
   vertex 102.8881986565325 0.0010005103295848 0.72
   vertex 102.1681986565325 0.0010005103295848 0.48
   vertex 121.9272018997015 0.0010005103295848 0.72
  endloop
 endfacet
 facet normal -0.31622776601683833 0.0 0.9486832980505137
  outer loop
   vertex 102.1681986565325 10.800000510329577 0.48
   vertex 102.1681986565325 0.0010005103295848 0.48
   vertex 102.8881986565325 0.0010005103295848 0.72
  endloop
 endfacet
 facet normal -0.31622776601683833 0.0 0.9486832980505137
  outer loop
   vertex 102.8881986565325 10.800000510329577 0.72
   vertex 102.1681986565325 10.800000510329577 0.48
   vertex 102.8881986565325 0.0010005103295848 0.72
  endloop
 endfacet
 facet normal -0.0 0.0 1.0
  outer loop
   vertex 102.8881986565325 10.800000510329577 0.72
   vertex 121.9272018997015 0.0010005103295848 0.72
   vertex 121.9272018997015 10.800000510329577 0.72
  endloop
 endfacet
 facet normal 0.0 0.0 1.0
  outer loop
   vertex 102.8881986565325 10.800000510329577 0.72
   vertex 102.8881986565325 0.0010005103295848 0.72
   vertex 121.9272018997015 0.0010005103295848 0.72
  endloop
 endfacet
 facet normal 0.0 0.0 -1.0
  outer loop
   vertex 52.88820064345233 23.998999999999995 0
   vertex 88.9681991667512 23.998999999999985 0
   vertex 88.968197942734 12.960000497437042 0
  endloop
 endfacet
 facet normal 0.0 0.0 -1.0
  outer loop
   vertex 52.88820064345233 23.998999999999995 0
   vertex 88.968197942734 12.960000497437042 0
   vertex 52.88820064345233 12.960000012892536 0
  endloop
 endfacet
 facet normal 2.954030341636224e-16 1.0 8.862091024908657e-16
  outer loop
   vertex 88.9681991667512 23.998999999999985 0
   vertex 52.88820064345233 23.998999999999995 0
   vertex 52.16820064345233 23.998999999999995 0.24
  endloop
 endfacet
 facet normal 2.8406560383479476e-16 1.0 -8.52196811504383e-16
  outer loop
   vertex 89.6881991667512 23.998999999999985 0.24
   vertex 88.9681991667512 23.998999999999985 0
   vertex 52.16820064345233 23.998999999999995 0.24
  endloop
 endfacet
 facet normal 0.31622776601683816 -3.5063705561010055e-08 -0.948683298050513
  outer loop
   vertex 88.968197942734 12.960000497437042 0
   vertex 88.9681991667512 23.998999999999985 0
   vertex 89.6881991667512 23.998999999999985 0.24
  endloop
 endfacet
 facet normal 0.3162277660168407 -3.506370574478156e-08 -0.9486832980505122
  outer loop
   vertex 89.68819786289954 12.240000507106444 0.24
   vertex 88.968197942734 12.960000497437042 0
   vertex 89.6881991667512 23.998999999999985 0.24
  endloop
 endfacet
 facet normal 4.2468524969761354e-09 -0.316227766016838 -0.9486832980505138
  outer loop
   vertex 52.88820064345233 12.960000012892536 0
   vertex 88.968197942734 12.960000497437042 0
   vertex 89.68819786289954 12.240000507106444 0.24
  endloop
 endfacet
 facet normal 4.246852487272281e-09 -0.31622776601683844 -0.9486832980505135
  outer loop
   vertex 52.16820064345233 12.240000003223134 0.24
   vertex 52.88820064345233 12.960000012892536 0
   vertex 89.68819786289954 12.240000507106444 0.24
  endloop
 endfacet
 facet normal -0.3162277660168384 -0.0 -0.9486832980505138
  outer loop
   vertex 52.88820064345233 23.998999999999995 0
   vertex 52.88820064345233 12.960000012892536 0
   vertex 52.16820064345233 12.240000003223134 0.24
  endloop
 endfacet
 facet normal -0.31622776601683833 -0.0 -0.9486832980505137
  outer loop
   vertex 52.16820064345233 23.998999999999995 0.24
   vertex 52.88820064345233 23.998999999999995 0
   vertex 52.16820064345233 12.240000003223134 0.24
  endloop
 endfacet
 facet normal 0.0 0.0 1.0
  outer loop
   vertex 52.16820064345233 23.998999999999995 0.24
   vertex 89.68819786289954 12.240000507106444 0.24
   vertex 89.6881991667512 23.998999999999985 0.24
  endloop
 endfacet
 facet normal 0.0 0.0 1.0
  outer loop
   vertex 52.16820064345233 23.998999999999995 0.24
   vertex 52.16820064345233 12.240000003223134 0.24
   vertex 89.68819786289954 12.240000507106444 0.24
  endloop
 endfacet
 facet normal 0.0 0.0 -1.0
  outer loop
   vertex 52.16820064345233 23.998999999999995 0.48
   vertex 89.6881991667512 23.998999999999985 0.48
   vertex 89.68819786289954 12.240000507106444 0.48
  endloop
 endfacet
 facet normal 0.0 0.0 -1.0
  outer loop
   vertex 52.16820064345233 23.998999999999995 0.48
   vertex 89.68819786289954 12.240000507106444 0.48
   vertex 52.16820064345233 12.240000003223134 0.48
  endloop
 endfacet
 facet normal 2.8406560383479476e-16 1.0 -8.52196811504383e-16
  outer loop
   vertex 89.6881991667512 23.998999999999985 0.48
   vertex 52.16820064345233 23.998999999999995 0.48
   vertex 52.88820064345233 23.998999999999995 0.72
  endloop
 endfacet
 facet normal 2.954030341636224e-16 1.0 8.862091024908657e-16
  outer loop
   vertex 88.9681991667512 23.998999999999985 0.72
   vertex 89.6881991667512 23.998999999999985 0.48
   vertex 52.88820064345233 23.998999999999995 0.72
  endloop
 endfacet
 facet normal 0.31622776601683816 -3.506370574478128e-08 0.9486832980505131
  outer loop
   vertex 89.68819786289954 12.240000507106444 0.48
   vertex 89.6881991667512 23.998999999999985 0.48
   vertex 88.9681991667512 23.998999999999985 0.72
  endloop
 endfacet
 facet normal 0.3162277660168409 -3.506370556101036e-08 0.9486832980505123
  outer loop
   vertex 88.968197942734 12.960000497437042 0.72
   vertex 89.68819786289954 12.240000507106444 0.48
   vertex 88.9681991667512 23.998999999999985 0.72
  endloop
 endfacet
 facet normal 4.246852487272275e-09 -0.316227766016838 0.9486832980505138
  outer loop
   vertex 52.16820064345233 12.240000003223134 0.48
   vertex 89.68819786289954 12.240000507106444 0.48
   vertex 88.968197942734 12.960000497437042 0.72
  endloop
 endfacet
 facet normal 4.246852496976142e-09 -0.3162277660168385 0.9486832980505137
  outer loop
   vertex 52.88820064345233 12.960000012892536 0.72
   vertex 52.16820064345233 12.240000003223134 0.48
   vertex 88.968197942734 12.960000497437042 0.72
  endloop
 endfacet
 facet normal -0.31622776601683833 0.0 0.9486832980505137
  outer loop
   vertex 52.16820064345233 23.998999999999995 0.48
   vertex 52.16820064345233 12.240000003223134 0.48
   vertex 52.88820064345233 12.960000012892536 0.72
  endloop
 endfacet
 facet normal -0.3162277660168384 0.0 0.9486832980505138
  outer loop
   vertex 52.88820064345233 23.998999999999995 0.72
   vertex 52.16820064345233 23.998999999999995 0.48
   vertex 52.88820064345233 12.960000012892536 0.72
  endloop
 endfacet
 facet normal 0.0 0.0 1.0
  outer loop
   vertex 52.88820064345233 23.998999999999995 0.72
   vertex 88.968197942734 12.960000497437042 0.72
   vertex 88.9681991667512 23.998999999999985 0.72
  endloop
 endfacet
 facet normal 0.0 0.0 1.0
  outer loop
   vertex 52.88820064345233 23.998999999999995 0.72
   vertex 52.88820064345233 12.960000012892536 0.72
   vertex 88.968197942734 12.960000497437042 0.72
  endloop
 endfacet
 facet normal 0.0 0.0 -1.0
  outer loop
   vertex 88.9681991667512 0.0009999999999929883 0
   vertex 52.88820064345233 0.0009999999999963116 0
   vertex 52.88820064345233 11.040000012892538 0
  endloop
 endfacet
 facet normal 0.0 0.0 -1.0
  outer loop
   vertex 88.9681991667512 0.0009999999999929883 0
   vertex 52.88820064345233 11.040000012892538 0
   vertex 88.968197942734 11.040000497437044 0
  endloop
 endfacet
 facet normal -9.210910851220044e-17 -1.0 7.592733632020447e-19
  outer loop
   vertex 52.88820064345233 0.0009999999999963116 0
   vertex 88.9681991667512 0.0009999999999929883 0
   vertex 89.6881991667512 0.0009999999999929221 0.24
  endloop
 endfacet
 facet normal -9.210517432281747e-17 -1.0 1.5603101535169242e-19
  outer loop
   vertex 52.16820064345233 0.000999999999996378 0.24
   vertex 52.88820064345233 0.0009999999999963116 0
   vertex 89.6881991667512 0.0009999999999929221 0.24
  endloop
 endfacet
 facet normal -0.31622776601683833 -0.0 -0.9486832980505135
  outer loop
   vertex 52.88820064345233 11.040000012892538 0
   vertex 52.88820064345233 0.0009999999999963116 0
   vertex 52.16820064345233 0.000999999999996378 0.24
  endloop
 endfacet
 facet normal -0.31622776601683833 -0.0 -0.9486832980505135
  outer loop
   vertex 52.16820064345233 11.760000003223134 0.24
   vertex 52.88820064345233 11.040000012892538 0
   vertex 52.16820064345233 0.000999999999996378 0.24
  endloop
 endfacet
 facet normal -4.2468524969761396e-09 0.3162277660168383 -0.9486832980505137
  outer loop
   vertex 88.968197942734 11.040000497437044 0
   vertex 52.88820064345233 11.040000012892538 0
   vertex 52.16820064345233 11.760000003223134 0.24
  endloop
 endfacet
 facet normal -4.2468525022438466e-09 0.31622776601683805 -0.9486832980505138
  outer loop
   vertex 89.68819786289956 11.760000507106446 0.24
   vertex 88.968197942734 11.040000497437044 0
   vertex 52.16820064345233 11.760000003223134 0.24
  endloop
 endfacet
 facet normal 0.3162277660168373 3.506370240094372e-08 -0.9486832980505134
  outer loop
   vertex 88.9681991667512 0.0009999999999929883 0
   vertex 88.968197942734 11.040000497437044 0
   vertex 89.68819786289956 11.760000507106446 0.24
  endloop
 endfacet
 facet normal 0.3162277660168382 3.5063702338375276e-08 -0.9486832980505132
  outer loop
   vertex 89.6881991667512 0.0009999999999929221 0.24
   vertex 88.9681991667512 0.0009999999999929883 0
   vertex 89.68819786289956 11.760000507106446 0.24
  endloop
 endfacet
 facet normal 0.0 0.0 1.0
  outer loop
   vertex 89.6881991667512 0.0009999999999929221 0.24
   vertex 52.16820064345233 11.760000003223134 0.24
   vertex 52.16820064345233 0.000999999999996378 0.24
  endloop
 endfacet
 facet normal 0.0 0.0 1.0
  outer loop
   vertex 89.6881991667512 0.0009999999999929221 0.24
   vertex 89.68819786289956 11.760000507106446 0.24
   vertex 52.16820064345233 11.760000003223134 0.24
  endloop
 endfacet
 facet normal 0.0 0.0 -1.0
  outer loop
   vertex 89.6881991667512 0.0009999999999929221 0.48
   vertex 52.16820064345233 0.000999999999996378 0.48
   vertex 52.16820064345233 11.760000003223134 0.48
  endloop
 endfacet
 facet normal 0.0 0.0 -1.0
  outer loop
   vertex 89.6881991667512 0.0009999999999929221 0.48
   vertex 52.16820064345233 11.760000003223134 0.48
   vertex 89.68819786289956 11.760000507106446 0.48
  endloop
 endfacet
 facet normal -9.210517432281747e-17 -1.0 -7.474707950524246e-19
  outer loop
   vertex 52.16820064345233 0.000999999999996378 0.48
   vertex 89.6881991667512 0.0009999999999929221 0.48
   vertex 88.9681991667512 0.0009999999999929883 0.72
  endloop
 endfacet
 facet normal -9.210910851220044e-17 -1.0 -1.4422844720272391e-19
  outer loop
   vertex 52.88820064345233 0.0009999999999963116 0.72
   vertex 52.16820064345233 0.000999999999996378 0.48
   vertex 88.9681991667512 0.0009999999999929883 0.72
  endloop
 endfacet
 facet normal -0.31622776601683833 0.0 0.9486832980505135
  outer loop
   vertex 52.16820064345233 11.760000003223134 0.48
   vertex 52.16820064345233 0.000999999999996378 0.48
   vertex 52.88820064345233 0.0009999999999963116 0.72
  endloop
 endfacet
 facet normal -0.31622776601683833 0.0 0.9486832980505135
  outer loop
   vertex 52.88820064345233 11.040000012892538 0.72
   vertex 52.16820064345233 11.760000003223134 0.48
   vertex 52.88820064345233 0.0009999999999963116 0.72
  endloop
 endfacet
 facet normal -4.24685250224385e-09 0.3162277660168383 0.9486832980505138
  outer loop
   vertex 89.68819786289956 11.760000507106446 0.48
   vertex 52.16820064345233 11.760000003223134 0.48
   vertex 52.88820064345233 11.040000012892538 0.72
  endloop
 endfacet
 facet normal -4.246852496976136e-09 0.316227766016838 0.9486832980505137
  outer loop
   vertex 88.968197942734 11.040000497437044 0.72
   vertex 89.68819786289956 11.760000507106446 0.48
   vertex 52.88820064345233 11.040000012892538 0.72
  endloop
 endfacet
 facet normal 0.3162277660168374 3.506370233837518e-08 0.9486832980505135
  outer loop
   vertex 89.6881991667512 0.0009999999999929221 0.48
   vertex 89.68819786289956 11.760000507106446 0.48
   vertex 88.968197942734 11.040000497437044 0.72
  endloop
 endfacet
 facet normal 0.31622776601683816 3.506370240094381e-08 0.948683298050513
  outer loop
   vertex 88.9681991667512 0.0009999999999929883 0.72
   vertex 89.6881991667512 0.0009999999999929221 0.48
   vertex 88.968197942734 11.040000497437044 0.72
  endloop
 endfacet
 facet normal 0.0 0.0 1.0
  outer loop
   vertex 88.9681991667512 0.0009999999999929883 0.72
   vertex 52.88820064345233 11.040000012892538 0.72
   vertex 52.88820064345233 0.0009999999999963116 0.72
  endloop
 endfacet
 facet normal 0.0 0.0 1.0
  outer loop
   vertex 88.9681991667512 0.0009999999999929883 0.72
   vertex 88.968197942734 11.040000497437044 0.72
   vertex 52.88820064345233 11.040000012892538 0.72
  endloop
 endfacet
endsolid
