solid PyGamic generated __All_Units__ SLA File
 facet normal 0.0 0.0 -1.0
  outer loop
   vertex 43.712743676696334 16.318646263622213 0
   vertex 53.13803972393604 0.001 0
   vertex 43.712743676696334 0.001 0
  endloop
 endfacet
 facet normal 0.27383003782207876 0.15816798154607253 -0.948683298050514
  outer loop
   vertex 53.13803972393604 0.001 0
   vertex 43.712743676696334 16.318646263622213 0
   vertex 42.992743676696335 19.00466156590555 0.24
  endloop
 endfacet
 facet normal 0.2738300378220776 0.15816798154607195 -0.9486832980505143
  outer loop
   vertex 53.969518963186125 0.001 0.24
   vertex 53.13803972393604 0.001 0
   vertex 42.992743676696335 19.00466156590555 0.24
  endloop
 endfacet
 facet normal 0.0 -1.0 0.0
  outer loop
   vertex 43.712743676696334 0.001 0
   vertex 53.13803972393604 0.001 0
   vertex 53.969518963186125 0.001 0.24
  endloop
 endfacet
 facet normal 0.0 -1.0 0.0
  outer loop
   vertex 42.992743676696335 0.001 0.24
   vertex 43.712743676696334 0.001 0
   vertex 53.969518963186125 0.001 0.24
  endloop
 endfacet
 facet normal -0.3162277660168384 -0.0 -0.9486832980505137
  outer loop
   vertex 43.712743676696334 16.318646263622213 0
   vertex 43.712743676696334 0.001 0
   vertex 42.992743676696335 0.001 0.24
  endloop
 endfacet
 facet normal -0.3162277660168384 -0.0 -0.9486832980505135
  outer loop
   vertex 42.992743676696335 19.00466156590555 0.24
   vertex 43.712743676696334 16.318646263622213 0
   vertex 42.992743676696335 0.001 0.24
  endloop
 endfacet
 facet normal 0.0 0.0 1.0
  outer loop
   vertex 42.992743676696335 19.00466156590555 0.24
   vertex 42.992743676696335 0.001 0.24
   vertex 53.969518963186125 0.001 0.24
  endloop
 endfacet
 facet normal 0.0 0.0 -1.0
  outer loop
   vertex 42.992743676696335 19.00466156590555 0.6
   vertex 53.969518963186125 0.001 0.6
   vertex 42.992743676696335 0.001 0.6
  endloop
 endfacet
 facet normal 0.27383003782207893 0.1581679815460727 0.9486832980505138
  outer loop
   vertex 53.969518963186125 0.001 0.6
   vertex 42.992743676696335 19.00466156590555 0.6
   vertex 43.712743676696334 16.318646263622213 0.84
  endloop
 endfacet
 facet normal 0.2738300378220776 0.15816798154607187 0.9486832980505143
  outer loop
   vertex 53.13803972393604 0.001 0.84
   vertex 53.969518963186125 0.001 0.6
   vertex 43.712743676696334 16.318646263622213 0.84
  endloop
 endfacet
 facet normal 0.0 -1.0 0.0
  outer loop
   vertex 42.992743676696335 0.001 0.6
   vertex 53.969518963186125 0.001 0.6
   vertex 53.13803972393604 0.001 0.84
  endloop
 endfacet
 facet normal 0.0 -1.0 -0.0
  outer loop
   vertex 43.712743676696334 0.001 0.84
   vertex 42.992743676696335 0.001 0.6
   vertex 53.13803972393604 0.001 0.84
  endloop
 endfacet
 facet normal -0.3162277660168384 0.0 0.9486832980505135
  outer loop
   vertex 42.992743676696335 19.00466156590555 0.6
   vertex 42.992743676696335 0.001 0.6
   vertex 43.712743676696334 0.001 0.84
  endloop
 endfacet
 facet normal -0.3162277660168384 0.0 0.9486832980505137
  outer loop
   vertex 43.712743676696334 16.318646263622213 0.84
   vertex 42.992743676696335 19.00466156590555 0.6
   vertex 43.712743676696334 0.001 0.84
  endloop
 endfacet
 facet normal 0.0 0.0 1.0
  outer loop
   vertex 43.712743676696334 16.318646263622213 0.84
   vertex 43.712743676696334 0.001 0.84
   vertex 53.13803972393604 0.001 0.84
  endloop
 endfacet
 facet normal -0.0 0.0 -1.0
  outer loop
   vertex 53.13803972393604 39.79899999999999 0
   vertex 43.712743676696334 23.481353736377784 0
   vertex 43.712743676696334 39.79899999999999 0
  endloop
 endfacet
 facet normal 0.27383003782207765 -0.15816798154607192 -0.9486832980505142
  outer loop
   vertex 43.712743676696334 23.481353736377784 0
   vertex 53.13803972393604 39.79899999999999 0
   vertex 53.969518963186125 39.79899999999999 0.24
  endloop
 endfacet
 facet normal 0.2738300378220789 -0.1581679815460727 -0.9486832980505139
  outer loop
   vertex 42.992743676696335 20.795338434094447 0.24
   vertex 43.712743676696334 23.481353736377784 0
   vertex 53.969518963186125 39.79899999999999 0.24
  endloop
 endfacet
 facet normal -0.31622776601683833 -0.0 -0.9486832980505137
  outer loop
   vertex 43.712743676696334 39.79899999999999 0
   vertex 43.712743676696334 23.481353736377784 0
   vertex 42.992743676696335 20.795338434094447 0.24
  endloop
 endfacet
 facet normal -0.3162277660168384 -0.0 -0.9486832980505137
  outer loop
   vertex 42.992743676696335 39.79899999999999 0.24
   vertex 43.712743676696334 39.79899999999999 0
   vertex 42.992743676696335 20.795338434094447 0.24
  endloop
 endfacet
 facet normal 0.0 1.0 0.0
  outer loop
   vertex 53.13803972393604 39.79899999999999 0
   vertex 43.712743676696334 39.79899999999999 0
   vertex 42.992743676696335 39.79899999999999 0.24
  endloop
 endfacet
 facet normal 0.0 1.0 0.0
  outer loop
   vertex 53.969518963186125 39.79899999999999 0.24
   vertex 53.13803972393604 39.79899999999999 0
   vertex 42.992743676696335 39.79899999999999 0.24
  endloop
 endfacet
 facet normal 0.0 0.0 1.0
  outer loop
   vertex 53.969518963186125 39.79899999999999 0.24
   vertex 42.992743676696335 39.79899999999999 0.24
   vertex 42.992743676696335 20.795338434094447 0.24
  endloop
 endfacet
 facet normal -0.0 0.0 -1.0
  outer loop
   vertex 53.969518963186125 39.79899999999999 0.6
   vertex 42.992743676696335 20.795338434094447 0.6
   vertex 42.992743676696335 39.79899999999999 0.6
  endloop
 endfacet
 facet normal 0.27383003782207754 -0.15816798154607195 0.9486832980505144
  outer loop
   vertex 42.992743676696335 20.795338434094447 0.6
   vertex 53.969518963186125 39.79899999999999 0.6
   vertex 53.13803972393604 39.79899999999999 0.84
  endloop
 endfacet
 facet normal 0.27383003782207904 -0.15816798154607276 0.9486832980505138
  outer loop
   vertex 43.712743676696334 23.481353736377784 0.84
   vertex 42.992743676696335 20.795338434094447 0.6
   vertex 53.13803972393604 39.79899999999999 0.84
  endloop
 endfacet
 facet normal -0.3162277660168384 0.0 0.9486832980505137
  outer loop
   vertex 42.992743676696335 39.79899999999999 0.6
   vertex 42.992743676696335 20.795338434094447 0.6
   vertex 43.712743676696334 23.481353736377784 0.84
  endloop
 endfacet
 facet normal -0.31622776601683833 0.0 0.9486832980505137
  outer loop
   vertex 43.712743676696334 39.79899999999999 0.84
   vertex 42.992743676696335 39.79899999999999 0.6
   vertex 43.712743676696334 23.481353736377784 0.84
  endloop
 endfacet
 facet normal 0.0 1.0 0.0
  outer loop
   vertex 53.969518963186125 39.79899999999999 0.6
   vertex 42.992743676696335 39.79899999999999 0.6
   vertex 43.712743676696334 39.79899999999999 0.84
  endloop
 endfacet
 facet normal 0.0 1.0 0.0
  outer loop
   vertex 53.13803972393604 39.79899999999999 0.84
   vertex 53.969518963186125 39.79899999999999 0.6
   vertex 43.712743676696334 39.79899999999999 0.84
  endloop
 endfacet
 facet normal 0.0 0.0 1.0
  outer loop
   vertex 53.13803972393604 39.79899999999999 0.84
   vertex 43.712743676696334 39.79899999999999 0.84
   vertex 43.712743676696334 23.481353736377784 0.84
  endloop
 endfacet
 facet normal 0.0 0.0 -1.0
  outer loop
   vertex 118.98053292142838 0.001 0
   vertex 136.557973657958 17.582021154851958 0
   vertex 136.557973657958 0.001 0
  endloop
 endfacet
 facet normal -0.22362956794705185 0.22358402523395 -0.9486832980505134
  outer loop
   vertex 136.557973657958 17.582021154851958 0
   vertex 118.98053292142838 0.001 0
   vertex 117.96240283414926 0.001 0.24
  endloop
 endfacet
 facet normal -0.22362956794704855 0.2235840252339465 -0.948683298050515
  outer loop
   vertex 137.277973657958 19.32050528871298 0.24
   vertex 136.557973657958 17.582021154851958 0
   vertex 117.96240283414926 0.001 0.24
  endloop
 endfacet
 facet normal 0.3162277660168384 0.0 -0.9486832980505137
  outer loop
   vertex 136.557973657958 0.001 0
   vertex 136.557973657958 17.582021154851958 0
   vertex 137.277973657958 19.32050528871298 0.24
  endloop
 endfacet
 facet normal 0.3162277660168384 0.0 -0.9486832980505137
  outer loop
   vertex 137.277973657958 0.001 0.24
   vertex 136.557973657958 0.001 0
   vertex 137.277973657958 19.32050528871298 0.24
  endloop
 endfacet
 facet normal 0.0 -1.0 0.0
  outer loop
   vertex 118.98053292142838 0.001 0
   vertex 136.557973657958 0.001 0
   vertex 137.277973657958 0.001 0.24
  endloop
 endfacet
 facet normal 0.0 -1.0 0.0
  outer loop
   vertex 117.96240283414926 0.001 0.24
   vertex 118.98053292142838 0.001 0
   vertex 137.277973657958 0.001 0.24
  endloop
 endfacet
 facet normal 0.0 0.0 1.0
  outer loop
   vertex 117.96240283414926 0.001 0.24
   vertex 137.277973657958 0.001 0.24
   vertex 137.277973657958 19.32050528871298 0.24
  endloop
 endfacet
 facet normal 0.0 0.0 -1.0
  outer loop
   vertex 117.96240283414926 0.001 0.6
   vertex 137.277973657958 19.32050528871298 0.6
   vertex 137.277973657958 0.001 0.6
  endloop
 endfacet
 facet normal -0.22362956794705133 0.22358402523394924 0.9486832980505137
  outer loop
   vertex 137.277973657958 19.32050528871298 0.6
   vertex 117.96240283414926 0.001 0.6
   vertex 118.98053292142838 0.001 0.84
  endloop
 endfacet
 facet normal -0.2236295679470483 0.2235840252339464 0.9486832980505152
  outer loop
   vertex 136.557973657958 17.582021154851958 0.84
   vertex 137.277973657958 19.32050528871298 0.6
   vertex 118.98053292142838 0.001 0.84
  endloop
 endfacet
 facet normal 0.3162277660168384 -0.0 0.9486832980505137
  outer loop
   vertex 137.277973657958 0.001 0.6
   vertex 137.277973657958 19.32050528871298 0.6
   vertex 136.557973657958 17.582021154851958 0.84
  endloop
 endfacet
 facet normal 0.3162277660168384 -0.0 0.9486832980505137
  outer loop
   vertex 136.557973657958 0.001 0.84
   vertex 137.277973657958 0.001 0.6
   vertex 136.557973657958 17.582021154851958 0.84
  endloop
 endfacet
 facet normal 0.0 -1.0 0.0
  outer loop
   vertex 117.96240283414926 0.001 0.6
   vertex 137.277973657958 0.001 0.6
   vertex 136.557973657958 0.001 0.84
  endloop
 endfacet
 facet normal 0.0 -1.0 -0.0
  outer loop
   vertex 118.98053292142838 0.001 0.84
   vertex 117.96240283414926 0.001 0.6
   vertex 136.557973657958 0.001 0.84
  endloop
 endfacet
 facet normal 0.0 0.0 1.0
  outer loop
   vertex 118.98053292142838 0.001 0.84
   vertex 136.557973657958 0.001 0.84
   vertex 136.557973657958 17.582021154851958 0.84
  endloop
 endfacet
 facet normal 0.0 0.0 -1.0
  outer loop
   vertex 136.557973657958 22.217978845148053 0
   vertex 118.98053292142838 39.799 0
   vertex 136.557973657958 39.799 0
  endloop
 endfacet
 facet normal -0.2236295679470428 -0.22358402523394105 -0.9486832980505178
  outer loop
   vertex 118.98053292142838 39.799 0
   vertex 136.557973657958 22.217978845148053 0
   vertex 137.277973657958 20.479494711287003 0.24
  endloop
 endfacet
 facet normal -0.223629567947046 -0.2235840252339441 -0.9486832980505162
  outer loop
   vertex 117.96240283414923 39.799 0.24
   vertex 118.98053292142838 39.799 0
   vertex 137.277973657958 20.479494711287003 0.24
  endloop
 endfacet
 facet normal 0.0 1.0 0.0
  outer loop
   vertex 136.557973657958 39.799 0
   vertex 118.98053292142838 39.799 0
   vertex 117.96240283414923 39.799 0.24
  endloop
 endfacet
 facet normal 0.0 1.0 0.0
  outer loop
   vertex 137.277973657958 39.799 0.24
   vertex 136.557973657958 39.799 0
   vertex 117.96240283414923 39.799 0.24
  endloop
 endfacet
 facet normal 0.3162277660168384 0.0 -0.9486832980505137
  outer loop
   vertex 136.557973657958 22.217978845148053 0
   vertex 136.557973657958 39.799 0
   vertex 137.277973657958 39.799 0.24
  endloop
 endfacet
 facet normal 0.3162277660168384 0.0 -0.9486832980505137
  outer loop
   vertex 137.277973657958 20.479494711287003 0.24
   vertex 136.557973657958 22.217978845148053 0
   vertex 137.277973657958 39.799 0.24
  endloop
 endfacet
 facet normal 0.0 -0.0 1.0
  outer loop
   vertex 137.277973657958 20.479494711287003 0.24
   vertex 137.277973657958 39.799 0.24
   vertex 117.96240283414923 39.799 0.24
  endloop
 endfacet
 facet normal 0.0 0.0 -1.0
  outer loop
   vertex 137.277973657958 20.479494711287003 0.6
   vertex 117.96240283414923 39.799 0.6
   vertex 137.277973657958 39.799 0.6
  endloop
 endfacet
 facet normal -0.22362956794704275 -0.22358402523394086 0.9486832980505178
  outer loop
   vertex 117.96240283414923 39.799 0.6
   vertex 137.277973657958 20.479494711287003 0.6
   vertex 136.557973657958 22.217978845148053 0.84
  endloop
 endfacet
 facet normal -0.22362956794704605 -0.2235840252339443 0.948683298050516
  outer loop
   vertex 118.98053292142838 39.799 0.84
   vertex 117.96240283414923 39.799 0.6
   vertex 136.557973657958 22.217978845148053 0.84
  endloop
 endfacet
 facet normal 0.0 1.0 0.0
  outer loop
   vertex 137.277973657958 39.799 0.6
   vertex 117.96240283414923 39.799 0.6
   vertex 118.98053292142838 39.799 0.84
  endloop
 endfacet
 facet normal 0.0 1.0 0.0
  outer loop
   vertex 136.557973657958 39.799 0.84
   vertex 137.277973657958 39.799 0.6
   vertex 118.98053292142838 39.799 0.84
  endloop
 endfacet
 facet normal 0.3162277660168384 -0.0 0.9486832980505137
  outer loop
   vertex 137.277973657958 20.479494711287003 0.6
   vertex 137.277973657958 39.799 0.6
   vertex 136.557973657958 39.799 0.84
  endloop
 endfacet
 facet normal 0.3162277660168384 -0.0 0.9486832980505137
  outer loop
   vertex 136.557973657958 22.217978845148053 0.84
   vertex 137.277973657958 20.479494711287003 0.6
   vertex 136.557973657958 39.799 0.84
  endloop
 endfacet
 facet normal 0.0 -0.0 1.0
  outer loop
   vertex 136.557973657958 22.217978845148053 0.84
   vertex 136.557973657958 39.799 0.84
   vertex 118.98053292142838 39.799 0.84
  endloop
 endfacet
 facet normal 0.0 0.0 -1.0
  outer loop
   vertex -0.014846109924110009 0.001 0
   vertex -0.0003378289811466935 18.22 0
   vertex 41.79274367669633 18.22 0
  endloop
 endfacet
 facet normal 0.0 0.0 -1.0
  outer loop
   vertex -0.014846109924110009 0.001 0
   vertex 41.79274367669633 18.22 0
   vertex 41.79274367669633 0.001 0
  endloop
 endfacet
 facet normal -0.9999996829318346 0.0007963267107332618 0.0
  outer loop
   vertex -0.0003378289811466935 18.22 0
   vertex -0.014846109924110009 0.001 0
   vertex -0.014846109924110009 0.001 0.24
  endloop
 endfacet
 facet normal -0.9999996829318346 0.0007963267107332618 0.0
  outer loop
   vertex -0.0003378289811466935 18.22 0.24
   vertex -0.0003378289811466935 18.22 0
   vertex -0.014846109924110009 0.001 0.24
  endloop
 endfacet
 facet normal 0.0 1.0 0.0
  outer loop
   vertex 41.79274367669633 18.22 0
   vertex -0.0003378289811466935 18.22 0
   vertex -0.0003378289811466935 18.22 0.24
  endloop
 endfacet
 facet normal 0.0 1.0 0.0
  outer loop
   vertex 42.51274367669633 18.22 0.24
   vertex 41.79274367669633 18.22 0
   vertex -0.0003378289811466935 18.22 0.24
  endloop
 endfacet
 facet normal 0.3162277660168384 0.0 -0.9486832980505137
  outer loop
   vertex 41.79274367669633 0.001 0
   vertex 41.79274367669633 18.22 0
   vertex 42.51274367669633 18.22 0.24
  endloop
 endfacet
 facet normal 0.3162277660168384 0.0 -0.9486832980505137
  outer loop
   vertex 42.51274367669633 0.001 0.24
   vertex 41.79274367669633 0.001 0
   vertex 42.51274367669633 18.22 0.24
  endloop
 endfacet
 facet normal 0.0 -1.0 0.0
  outer loop
   vertex -0.014846109924110009 0.001 0
   vertex 41.79274367669633 0.001 0
   vertex 42.51274367669633 0.001 0.24
  endloop
 endfacet
 facet normal 0.0 -1.0 0.0
  outer loop
   vertex -0.014846109924110009 0.001 0.24
   vertex -0.014846109924110009 0.001 0
   vertex 42.51274367669633 0.001 0.24
  endloop
 endfacet
 facet normal 0.0 0.0 1.0
  outer loop
   vertex -0.014846109924110009 0.001 0.24
   vertex 42.51274367669633 18.22 0.24
   vertex -0.0003378289811466935 18.22 0.24
  endloop
 endfacet
 facet normal 0.0 0.0 1.0
  outer loop
   vertex -0.014846109924110009 0.001 0.24
   vertex 42.51274367669633 0.001 0.24
   vertex 42.51274367669633 18.22 0.24
  endloop
 endfacet
 facet normal 0.0 0.0 -1.0
  outer loop
   vertex -0.014846109924110009 0.001 0.6
   vertex -0.0003378289811466935 18.22 0.6
   vertex 42.51274367669633 18.22 0.6
  endloop
 endfacet
 facet normal 0.0 0.0 -1.0
  outer loop
   vertex -0.014846109924110009 0.001 0.6
   vertex 42.51274367669633 18.22 0.6
   vertex 42.51274367669633 0.001 0.6
  endloop
 endfacet
 facet normal -0.9999996829318346 0.0007963267107332618 0.0
  outer loop
   vertex -0.0003378289811466935 18.22 0.6
   vertex -0.014846109924110009 0.001 0.6
   vertex -0.014846109924110009 0.001 0.84
  endloop
 endfacet
 facet normal -0.9999996829318346 0.0007963267107332618 0.0
  outer loop
   vertex -0.0003378289811466935 18.22 0.84
   vertex -0.0003378289811466935 18.22 0.6
   vertex -0.014846109924110009 0.001 0.84
  endloop
 endfacet
 facet normal 0.0 1.0 0.0
  outer loop
   vertex 42.51274367669633 18.22 0.6
   vertex -0.0003378289811466935 18.22 0.6
   vertex -0.0003378289811466935 18.22 0.84
  endloop
 endfacet
 facet normal 0.0 1.0 0.0
  outer loop
   vertex 41.79274367669633 18.22 0.84
   vertex 42.51274367669633 18.22 0.6
   vertex -0.0003378289811466935 18.22 0.84
  endloop
 endfacet
 facet normal 0.3162277660168384 -0.0 0.9486832980505137
  outer loop
   vertex 42.51274367669633 0.001 0.6
   vertex 42.51274367669633 18.22 0.6
   vertex 41.79274367669633 18.22 0.84
  endloop
 endfacet
 facet normal 0.3162277660168384 -0.0 0.9486832980505137
  outer loop
   vertex 41.79274367669633 0.001 0.84
   vertex 42.51274367669633 0.001 0.6
   vertex 41.79274367669633 18.22 0.84
  endloop
 endfacet
 facet normal 0.0 -1.0 0.0
  outer loop
   vertex -0.014846109924110009 0.001 0.6
   vertex 42.51274367669633 0.001 0.6
   vertex 41.79274367669633 0.001 0.84
  endloop
 endfacet
 facet normal 0.0 -1.0 0.0
  outer loop
   vertex -0.014846109924110009 0.001 0.84
   vertex -0.014846109924110009 0.001 0.6
   vertex 41.79274367669633 0.001 0.84
  endloop
 endfacet
 facet normal 0.0 0.0 1.0
  outer loop
   vertex -0.014846109924110009 0.001 0.84
   vertex 41.79274367669633 18.22 0.84
   vertex -0.0003378289811466935 18.22 0.84
  endloop
 endfacet
 facet normal 0.0 0.0 1.0
  outer loop
   vertex -0.014846109924110009 0.001 0.84
   vertex 41.79274367669633 0.001 0.84
   vertex 41.79274367669633 18.22 0.84
  endloop
 endfacet
 facet normal 0.0 0.0 -1.0
  outer loop
   vertex -0.0003378289811466935 21.58 0
   vertex -0.014846109924110005 39.79899999999999 0
   vertex 41.79274367669633 39.79899999999999 0
  endloop
 endfacet
 facet normal 0.0 0.0 -1.0
  outer loop
   vertex -0.0003378289811466935 21.58 0
   vertex 41.79274367669633 39.79899999999999 0
   vertex 41.79274367669633 21.58 0
  endloop
 endfacet
 facet normal -0.9999996829318346 -0.0007963267107332617 0.0
  outer loop
   vertex -0.014846109924110005 39.79899999999999 0
   vertex -0.0003378289811466935 21.58 0
   vertex -0.0003378289811466935 21.58 0.24
  endloop
 endfacet
 facet normal -0.9999996829318346 -0.0007963267107332617 -0.0
  outer loop
   vertex -0.014846109924110005 39.79899999999999 0.24
   vertex -0.014846109924110005 39.79899999999999 0
   vertex -0.0003378289811466935 21.58 0.24
  endloop
 endfacet
 facet normal 0.0 1.0 0.0
  outer loop
   vertex 41.79274367669633 39.79899999999999 0
   vertex -0.014846109924110005 39.79899999999999 0
   vertex -0.014846109924110005 39.79899999999999 0.24
  endloop
 endfacet
 facet normal 0.0 1.0 0.0
  outer loop
   vertex 42.51274367669633 39.79899999999999 0.24
   vertex 41.79274367669633 39.79899999999999 0
   vertex -0.014846109924110005 39.79899999999999 0.24
  endloop
 endfacet
 facet normal 0.31622776601683833 0.0 -0.9486832980505137
  outer loop
   vertex 41.79274367669633 21.58 0
   vertex 41.79274367669633 39.79899999999999 0
   vertex 42.51274367669633 39.79899999999999 0.24
  endloop
 endfacet
 facet normal 0.31622776601683833 0.0 -0.9486832980505137
  outer loop
   vertex 42.51274367669633 21.58 0.24
   vertex 41.79274367669633 21.58 0
   vertex 42.51274367669633 39.79899999999999 0.24
  endloop
 endfacet
 facet normal 0.0 -1.0 0.0
  outer loop
   vertex -0.0003378289811466935 21.58 0
   vertex 41.79274367669633 21.58 0
   vertex 42.51274367669633 21.58 0.24
  endloop
 endfacet
 facet normal 0.0 -1.0 0.0
  outer loop
   vertex -0.0003378289811466935 21.58 0.24
   vertex -0.0003378289811466935 21.58 0
   vertex 42.51274367669633 21.58 0.24
  endloop
 endfacet
 facet normal 0.0 -0.0 1.0
  outer loop
   vertex -0.0003378289811466935 21.58 0.24
   vertex 42.51274367669633 39.79899999999999 0.24
   vertex -0.014846109924110005 39.79899999999999 0.24
  endloop
 endfacet
 facet normal 0.0 0.0 1.0
  outer loop
   vertex -0.0003378289811466935 21.58 0.24
   vertex 42.51274367669633 21.58 0.24
   vertex 42.51274367669633 39.79899999999999 0.24
  endloop
 endfacet
 facet normal 0.0 0.0 -1.0
  outer loop
   vertex -0.0003378289811466935 21.58 0.6
   vertex -0.014846109924110005 39.79899999999999 0.6
   vertex 42.51274367669633 39.79899999999999 0.6
  endloop
 endfacet
 facet normal 0.0 0.0 -1.0
  outer loop
   vertex -0.0003378289811466935 21.58 0.6
   vertex 42.51274367669633 39.79899999999999 0.6
   vertex 42.51274367669633 21.58 0.6
  endloop
 endfacet
 facet normal -0.9999996829318346 -0.0007963267107332617 0.0
  outer loop
   vertex -0.014846109924110005 39.79899999999999 0.6
   vertex -0.0003378289811466935 21.58 0.6
   vertex -0.0003378289811466935 21.58 0.84
  endloop
 endfacet
 facet normal -0.9999996829318346 -0.0007963267107332617 -0.0
  outer loop
   vertex -0.014846109924110005 39.79899999999999 0.84
   vertex -0.014846109924110005 39.79899999999999 0.6
   vertex -0.0003378289811466935 21.58 0.84
  endloop
 endfacet
 facet normal 0.0 1.0 0.0
  outer loop
   vertex 42.51274367669633 39.79899999999999 0.6
   vertex -0.014846109924110005 39.79899999999999 0.6
   vertex -0.014846109924110005 39.79899999999999 0.84
  endloop
 endfacet
 facet normal 0.0 1.0 0.0
  outer loop
   vertex 41.79274367669633 39.79899999999999 0.84
   vertex 42.51274367669633 39.79899999999999 0.6
   vertex -0.014846109924110005 39.79899999999999 0.84
  endloop
 endfacet
 facet normal 0.31622776601683833 -0.0 0.9486832980505137
  outer loop
   vertex 42.51274367669633 21.58 0.6
   vertex 42.51274367669633 39.79899999999999 0.6
   vertex 41.79274367669633 39.79899999999999 0.84
  endloop
 endfacet
 facet normal 0.31622776601683833 -0.0 0.9486832980505137
  outer loop
   vertex 41.79274367669633 21.58 0.84
   vertex 42.51274367669633 21.58 0.6
   vertex 41.79274367669633 39.79899999999999 0.84
  endloop
 endfacet
 facet normal 0.0 -1.0 0.0
  outer loop
   vertex -0.0003378289811466935 21.58 0.6
   vertex 42.51274367669633 21.58 0.6
   vertex 41.79274367669633 21.58 0.84
  endloop
 endfacet
 facet normal 0.0 -1.0 0.0
  outer loop
   vertex -0.0003378289811466935 21.58 0.84
   vertex -0.0003378289811466935 21.58 0.6
   vertex 41.79274367669633 21.58 0.84
  endloop
 endfacet
 facet normal 0.0 -0.0 1.0
  outer loop
   vertex -0.0003378289811466935 21.58 0.84
   vertex 41.79274367669633 39.79899999999999 0.84
   vertex -0.014846109924110005 39.79899999999999 0.84
  endloop
 endfacet
 facet normal 0.0 0.0 1.0
  outer loop
   vertex -0.0003378289811466935 21.58 0.84
   vertex 41.79274367669633 21.58 0.84
   vertex 41.79274367669633 39.79899999999999 0.84
  endloop
 endfacet
 facet normal 0.0 0.0 -1.0
  outer loop
   vertex 53.31189980101407 3.538689447641518 0
   vertex 44.41589181516426 18.940000000000005 0
   vertex 53.3073359798873 18.940000000000005 0
  endloop
 endfacet
 facet normal -0.27383003782208154 -0.15816798154607412 -0.9486832980505129
  outer loop
   vertex 44.41589181516426 18.940000000000005 0
   vertex 53.31189980101407 3.538689447641518 0
   vertex 54.032696179511696 0.8512954064251093 0.24
  endloop
 endfacet
 facet normal -0.27383003782207754 -0.158167981546072 -0.9486832980505141
  outer loop
   vertex 43.1685307113133 19.660000000000007 0.24
   vertex 44.41589181516426 18.940000000000005 0
   vertex 54.032696179511696 0.8512954064251093 0.24
  endloop
 endfacet
 facet normal 0.0 0.316227766016837 -0.9486832980505141
  outer loop
   vertex 53.3073359798873 18.940000000000005 0
   vertex 44.41589181516426 18.940000000000005 0
   vertex 43.1685307113133 19.660000000000007 0.24
  endloop
 endfacet
 facet normal 0.0 0.316227766016837 -0.9486832980505142
  outer loop
   vertex 54.02712265620018 19.660000000000007 0.24
   vertex 53.3073359798873 18.940000000000005 0
   vertex 43.1685307113133 19.660000000000007 0.24
  endloop
 endfacet
 facet normal 0.3162277521329248 9.370675898974962e-05 -0.9486832980505142
  outer loop
   vertex 53.31189980101407 3.538689447641518 0
   vertex 53.3073359798873 18.940000000000005 0
   vertex 54.02712265620018 19.660000000000007 0.24
  endloop
 endfacet
 facet normal 0.3162277521329222 9.370675898987999e-05 -0.9486832980505151
  outer loop
   vertex 54.032696179511696 0.8512954064251093 0.24
   vertex 53.31189980101407 3.538689447641518 0
   vertex 54.02712265620018 19.660000000000007 0.24
  endloop
 endfacet
 facet normal 0.0 0.0 1.0
  outer loop
   vertex 54.032696179511696 0.8512954064251093 0.24
   vertex 54.02712265620018 19.660000000000007 0.24
   vertex 43.1685307113133 19.660000000000007 0.24
  endloop
 endfacet
 facet normal 0.0 0.0 -1.0
  outer loop
   vertex 54.032696179511696 0.8512954064251093 0.6
   vertex 43.1685307113133 19.660000000000007 0.6
   vertex 54.02712265620018 19.660000000000007 0.6
  endloop
 endfacet
 facet normal -0.2738300378220816 -0.15816798154607437 0.9486832980505128
  outer loop
   vertex 43.1685307113133 19.660000000000007 0.6
   vertex 54.032696179511696 0.8512954064251093 0.6
   vertex 53.31189980101407 3.538689447641518 0.84
  endloop
 endfacet
 facet normal -0.2738300378220774 -0.1581679815460717 0.9486832980505144
  outer loop
   vertex 44.41589181516426 18.940000000000005 0.84
   vertex 43.1685307113133 19.660000000000007 0.6
   vertex 53.31189980101407 3.538689447641518 0.84
  endloop
 endfacet
 facet normal 0.0 0.316227766016837 0.9486832980505142
  outer loop
   vertex 54.02712265620018 19.660000000000007 0.6
   vertex 43.1685307113133 19.660000000000007 0.6
   vertex 44.41589181516426 18.940000000000005 0.84
  endloop
 endfacet
 facet normal 0.0 0.316227766016837 0.9486832980505141
  outer loop
   vertex 53.3073359798873 18.940000000000005 0.84
   vertex 54.02712265620018 19.660000000000007 0.6
   vertex 44.41589181516426 18.940000000000005 0.84
  endloop
 endfacet
 facet normal 0.3162277521329247 9.370675898988074e-05 0.9486832980505142
  outer loop
   vertex 54.032696179511696 0.8512954064251093 0.6
   vertex 54.02712265620018 19.660000000000007 0.6
   vertex 53.3073359798873 18.940000000000005 0.84
  endloop
 endfacet
 facet normal 0.31622775213292176 9.37067589897487e-05 0.9486832980505152
  outer loop
   vertex 53.31189980101407 3.538689447641518 0.84
   vertex 54.032696179511696 0.8512954064251093 0.6
   vertex 53.3073359798873 18.940000000000005 0.84
  endloop
 endfacet
 facet normal 0.0 0.0 1.0
  outer loop
   vertex 53.31189980101407 3.538689447641518 0.84
   vertex 53.3073359798873 18.940000000000005 0.84
   vertex 44.41589181516426 18.940000000000005 0.84
  endloop
 endfacet
 facet normal 0.0 0.0 -1.0
  outer loop
   vertex 44.41589181516428 20.860000000000007 0
   vertex 53.31189980101409 36.261310552358495 0
   vertex 53.30733597988731 20.860000000000007 0
  endloop
 endfacet
 facet normal -0.27383003782207715 0.1581679815460716 -0.9486832980505144
  outer loop
   vertex 53.31189980101409 36.261310552358495 0
   vertex 44.41589181516428 20.860000000000007 0
   vertex 43.16853071131332 20.140000000000004 0.24
  endloop
 endfacet
 facet normal -0.2738300378220827 0.1581679815460751 -0.9486832980505123
  outer loop
   vertex 54.03269617951169 38.948704593574845 0.24
   vertex 53.31189980101409 36.261310552358495 0
   vertex 43.16853071131332 20.140000000000004 0.24
  endloop
 endfacet
 facet normal 0.3162277521329322 -9.370675898952485e-05 -0.9486832980505118
  outer loop
   vertex 54.02712265620019 20.14 0.24
   vertex 53.31189980101409 36.261310552358495 0
   vertex 54.03269617951169 38.948704593574845 0.24
  endloop
 endfacet
 facet normal 0.3162277521329247 -9.370675898989546e-05 -0.9486832980505142
  outer loop
   vertex 53.30733597988731 20.860000000000007 0
   vertex 53.31189980101409 36.261310552358495 0
   vertex 54.02712265620019 20.14 0.24
  endloop
 endfacet
 facet normal 0.0 -0.31622776601683555 -0.9486832980505145
  outer loop
   vertex 44.41589181516428 20.860000000000007 0
   vertex 53.30733597988731 20.860000000000007 0
   vertex 54.02712265620019 20.14 0.24
  endloop
 endfacet
 facet normal -1.0346338785422012e-16 -0.31622776601683683 -0.9486832980505142
  outer loop
   vertex 43.16853071131332 20.140000000000004 0.24
   vertex 44.41589181516428 20.860000000000007 0
   vertex 54.02712265620019 20.14 0.24
  endloop
 endfacet
 facet normal -0.0 0.0 1.0
  outer loop
   vertex 43.16853071131332 20.140000000000004 0.24
   vertex 54.02712265620019 20.14 0.24
   vertex 54.03269617951169 38.948704593574845 0.24
  endloop
 endfacet
 facet normal 0.0 0.0 -1.0
  outer loop
   vertex 43.16853071131332 20.140000000000004 0.6
   vertex 54.03269617951169 38.948704593574845 0.6
   vertex 54.02712265620019 20.14 0.6
  endloop
 endfacet
 facet normal -0.27383003782207727 0.15816798154607195 0.9486832980505144
  outer loop
   vertex 54.03269617951169 38.948704593574845 0.6
   vertex 43.16853071131332 20.140000000000004 0.6
   vertex 44.41589181516428 20.860000000000007 0.84
  endloop
 endfacet
 facet normal -0.2738300378220836 0.15816798154607528 0.9486832980505121
  outer loop
   vertex 53.31189980101409 36.261310552358495 0.84
   vertex 54.03269617951169 38.948704593574845 0.6
   vertex 44.41589181516428 20.860000000000007 0.84
  endloop
 endfacet
 facet normal 0.3162277521329322 -9.370675898952485e-05 0.9486832980505118
  outer loop
   vertex 54.02712265620019 20.14 0.6
   vertex 54.03269617951169 38.948704593574845 0.6
   vertex 53.31189980101409 36.261310552358495 0.84
  endloop
 endfacet
 facet normal 0.3162277521329247 -9.370675898989546e-05 0.9486832980505142
  outer loop
   vertex 53.30733597988731 20.860000000000007 0.84
   vertex 54.02712265620019 20.14 0.6
   vertex 53.31189980101409 36.261310552358495 0.84
  endloop
 endfacet
 facet normal -1.0346338785421971e-16 -0.3162277660168356 0.9486832980505144
  outer loop
   vertex 43.16853071131332 20.140000000000004 0.6
   vertex 54.02712265620019 20.14 0.6
   vertex 53.30733597988731 20.860000000000007 0.84
  endloop
 endfacet
 facet normal 0.0 -0.31622776601683694 0.9486832980505141
  outer loop
   vertex 44.41589181516428 20.860000000000007 0.84
   vertex 43.16853071131332 20.140000000000004 0.6
   vertex 53.30733597988731 20.860000000000007 0.84
  endloop
 endfacet
 facet normal 0.0 0.0 1.0
  outer loop
   vertex 44.41589181516428 20.860000000000007 0.84
   vertex 53.30733597988731 20.860000000000007 0.84
   vertex 53.31189980101409 36.261310552358495 0.84
  endloop
 endfacet
 facet normal 0.0 0.0 -1.0
  outer loop
   vertex 55.23294819751732 0.001 0
   vertex 55.22733606418449 18.939999999999994 0
   vertex 116.61266393581549 18.939999999999994 0
  endloop
 endfacet
 facet normal 0.0 0.0 -1.0
  outer loop
   vertex 55.23294819751732 0.001 0
   vertex 116.61266393581549 18.939999999999994 0
   vertex 116.60705180248263 0.001 0
  endloop
 endfacet
 facet normal -0.3162277521329252 -9.370675898988845e-05 -0.9486832980505141
  outer loop
   vertex 55.22733606418449 18.939999999999994 0
   vertex 55.23294819751732 0.001 0
   vertex 54.51294816590587 0.001 0.24
  endloop
 endfacet
 facet normal -0.3162277521329283 -9.370675898975595e-05 -0.9486832980505131
  outer loop
   vertex 54.50712267727448 19.659999999999997 0.24
   vertex 55.22733606418449 18.939999999999994 0
   vertex 54.51294816590587 0.001 0.24
  endloop
 endfacet
 facet normal 0.0 0.31622776601683694 -0.9486832980505141
  outer loop
   vertex 116.61266393581549 18.939999999999994 0
   vertex 55.22733606418449 18.939999999999994 0
   vertex 54.50712267727448 19.659999999999997 0.24
  endloop
 endfacet
 facet normal 0.0 0.31622776601683694 -0.9486832980505142
  outer loop
   vertex 117.3328773227255 19.659999999999997 0.24
   vertex 116.61266393581549 18.939999999999994 0
   vertex 54.50712267727448 19.659999999999997 0.24
  endloop
 endfacet
 facet normal 0.31622775213293175 -9.370675899048361e-05 -0.9486832980505118
  outer loop
   vertex 116.60705180248263 0.001 0
   vertex 116.61266393581549 18.939999999999994 0
   vertex 117.3328773227255 19.659999999999997 0.24
  endloop
 endfacet
 facet normal 0.3162277521329308 -9.370675899044246e-05 -0.9486832980505123
  outer loop
   vertex 117.32705183409406 0.001 0.24
   vertex 116.60705180248263 0.001 0
   vertex 117.3328773227255 19.659999999999997 0.24
  endloop
 endfacet
 facet normal 0.0 -1.0 0.0
  outer loop
   vertex 55.23294819751732 0.001 0
   vertex 116.60705180248263 0.001 0
   vertex 117.32705183409406 0.001 0.24
  endloop
 endfacet
 facet normal 0.0 -1.0 0.0
  outer loop
   vertex 54.51294816590587 0.001 0.24
   vertex 55.23294819751732 0.001 0
   vertex 117.32705183409406 0.001 0.24
  endloop
 endfacet
 facet normal 0.0 -0.0 1.0
  outer loop
   vertex 54.51294816590587 0.001 0.24
   vertex 117.3328773227255 19.659999999999997 0.24
   vertex 54.50712267727448 19.659999999999997 0.24
  endloop
 endfacet
 facet normal 0.0 0.0 1.0
  outer loop
   vertex 54.51294816590587 0.001 0.24
   vertex 117.32705183409406 0.001 0.24
   vertex 117.3328773227255 19.659999999999997 0.24
  endloop
 endfacet
 facet normal 0.0 0.0 -1.0
  outer loop
   vertex 54.51294816590587 0.001 0.6
   vertex 54.50712267727448 19.659999999999997 0.6
   vertex 117.3328773227255 19.659999999999997 0.6
  endloop
 endfacet
 facet normal 0.0 0.0 -1.0
  outer loop
   vertex 54.51294816590587 0.001 0.6
   vertex 117.3328773227255 19.659999999999997 0.6
   vertex 117.32705183409406 0.001 0.6
  endloop
 endfacet
 facet normal -0.31622775213292514 -9.370675898975501e-05 0.948683298050514
  outer loop
   vertex 54.50712267727448 19.659999999999997 0.6
   vertex 54.51294816590587 0.001 0.6
   vertex 55.23294819751732 0.001 0.84
  endloop
 endfacet
 facet normal -0.3162277521329284 -9.370675898988941e-05 0.948683298050513
  outer loop
   vertex 55.22733606418449 18.939999999999994 0.84
   vertex 54.50712267727448 19.659999999999997 0.6
   vertex 55.23294819751732 0.001 0.84
  endloop
 endfacet
 facet normal 0.0 0.31622776601683694 0.9486832980505142
  outer loop
   vertex 117.3328773227255 19.659999999999997 0.6
   vertex 54.50712267727448 19.659999999999997 0.6
   vertex 55.22733606418449 18.939999999999994 0.84
  endloop
 endfacet
 facet normal 0.0 0.31622776601683694 0.9486832980505141
  outer loop
   vertex 116.61266393581549 18.939999999999994 0.84
   vertex 117.3328773227255 19.659999999999997 0.6
   vertex 55.22733606418449 18.939999999999994 0.84
  endloop
 endfacet
 facet normal 0.31622775213293175 -9.370675899044275e-05 0.9486832980505119
  outer loop
   vertex 117.32705183409406 0.001 0.6
   vertex 117.3328773227255 19.659999999999997 0.6
   vertex 116.61266393581549 18.939999999999994 0.84
  endloop
 endfacet
 facet normal 0.3162277521329308 -9.370675899048331e-05 0.9486832980505122
  outer loop
   vertex 116.60705180248263 0.001 0.84
   vertex 117.32705183409406 0.001 0.6
   vertex 116.61266393581549 18.939999999999994 0.84
  endloop
 endfacet
 facet normal 0.0 -1.0 0.0
  outer loop
   vertex 54.51294816590587 0.001 0.6
   vertex 117.32705183409406 0.001 0.6
   vertex 116.60705180248263 0.001 0.84
  endloop
 endfacet
 facet normal 0.0 -1.0 -0.0
  outer loop
   vertex 55.23294819751732 0.001 0.84
   vertex 54.51294816590587 0.001 0.6
   vertex 116.60705180248263 0.001 0.84
  endloop
 endfacet
 facet normal 0.0 -0.0 1.0
  outer loop
   vertex 55.23294819751732 0.001 0.84
   vertex 116.61266393581549 18.939999999999994 0.84
   vertex 55.22733606418449 18.939999999999994 0.84
  endloop
 endfacet
 facet normal 0.0 0.0 1.0
  outer loop
   vertex 55.23294819751732 0.001 0.84
   vertex 116.60705180248263 0.001 0.84
   vertex 116.61266393581549 18.939999999999994 0.84
  endloop
 endfacet
 facet normal 0.0 0.0 -1.0
  outer loop
   vertex 55.2273360641845 20.859999999999996 0
   vertex 55.232948197517324 39.799 0
   vertex 116.6070518024826 39.79900000000001 0
  endloop
 endfacet
 facet normal 0.0 0.0 -1.0
  outer loop
   vertex 55.2273360641845 20.859999999999996 0
   vertex 116.6070518024826 39.79900000000001 0
   vertex 116.61266393581546 20.859999999999996 0
  endloop
 endfacet
 facet normal -0.3162277521329313 9.37067589898902e-05 -0.9486832980505122
  outer loop
   vertex 55.232948197517324 39.799 0
   vertex 55.2273360641845 20.859999999999996 0
   vertex 54.507122677274495 20.139999999999993 0.24
  endloop
 endfacet
 facet normal -0.31622775213292514 9.370675898964067e-05 -0.9486832980505141
  outer loop
   vertex 54.512948165905875 39.799 0.24
   vertex 55.232948197517324 39.799 0
   vertex 54.507122677274495 20.139999999999993 0.24
  endloop
 endfacet
 facet normal -1.1577240139155627e-16 1.0 -3.4731721942355754e-16
  outer loop
   vertex 116.6070518024826 39.79900000000001 0
   vertex 55.232948197517324 39.799 0
   vertex 54.512948165905875 39.799 0.24
  endloop
 endfacet
 facet normal -1.1311834353531503e-16 1.0 3.393550455052562e-16
  outer loop
   vertex 117.32705183409405 39.79900000000001 0.24
   vertex 116.6070518024826 39.79900000000001 0
   vertex 54.512948165905875 39.799 0.24
  endloop
 endfacet
 facet normal 0.31622775213292514 9.370675899048156e-05 -0.948683298050514
  outer loop
   vertex 116.61266393581546 20.859999999999996 0
   vertex 116.6070518024826 39.79900000000001 0
   vertex 117.32705183409405 39.79900000000001 0.24
  endloop
 endfacet
 facet normal 0.3162277521329315 9.370675899021401e-05 -0.948683298050512
  outer loop
   vertex 117.33287732272547 20.139999999999993 0.24
   vertex 116.61266393581546 20.859999999999996 0
   vertex 117.32705183409405 39.79900000000001 0.24
  endloop
 endfacet
 facet normal 0.0 -0.316227766016837 -0.9486832980505142
  outer loop
   vertex 55.2273360641845 20.859999999999996 0
   vertex 116.61266393581546 20.859999999999996 0
   vertex 117.33287732272547 20.139999999999993 0.24
  endloop
 endfacet
 facet normal 0.0 -0.316227766016837 -0.9486832980505141
  outer loop
   vertex 54.507122677274495 20.139999999999993 0.24
   vertex 55.2273360641845 20.859999999999996 0
   vertex 117.33287732272547 20.139999999999993 0.24
  endloop
 endfacet
 facet normal 0.0 0.0 1.0
  outer loop
   vertex 54.507122677274495 20.139999999999993 0.24
   vertex 117.32705183409405 39.79900000000001 0.24
   vertex 54.512948165905875 39.799 0.24
  endloop
 endfacet
 facet normal 0.0 0.0 1.0
  outer loop
   vertex 54.507122677274495 20.139999999999993 0.24
   vertex 117.33287732272547 20.139999999999993 0.24
   vertex 117.32705183409405 39.79900000000001 0.24
  endloop
 endfacet
 facet normal 0.0 0.0 -1.0
  outer loop
   vertex 54.507122677274495 20.139999999999993 0.6
   vertex 54.512948165905875 39.799 0.6
   vertex 117.32705183409405 39.79900000000001 0.6
  endloop
 endfacet
 facet normal 0.0 0.0 -1.0
  outer loop
   vertex 54.507122677274495 20.139999999999993 0.6
   vertex 117.32705183409405 39.79900000000001 0.6
   vertex 117.33287732272547 20.139999999999993 0.6
  endloop
 endfacet
 facet normal -0.31622775213293103 9.37067589896424e-05 0.9486832980505122
  outer loop
   vertex 54.512948165905875 39.799 0.6
   vertex 54.507122677274495 20.139999999999993 0.6
   vertex 55.2273360641845 20.859999999999996 0.84
  endloop
 endfacet
 facet normal -0.3162277521329252 9.37067589898884e-05 0.9486832980505141
  outer loop
   vertex 55.232948197517324 39.799 0.84
   vertex 54.512948165905875 39.799 0.6
   vertex 55.2273360641845 20.859999999999996 0.84
  endloop
 endfacet
 facet normal -1.1311834353531503e-16 1.0 3.393550455052562e-16
  outer loop
   vertex 117.32705183409405 39.79900000000001 0.6
   vertex 54.512948165905875 39.799 0.6
   vertex 55.232948197517324 39.799 0.84
  endloop
 endfacet
 facet normal -1.1577240139155627e-16 1.0 -3.4731721942355754e-16
  outer loop
   vertex 116.6070518024826 39.79900000000001 0.84
   vertex 117.32705183409405 39.79900000000001 0.6
   vertex 55.232948197517324 39.799 0.84
  endloop
 endfacet
 facet normal 0.31622775213292514 9.370675899021212e-05 0.9486832980505141
  outer loop
   vertex 117.33287732272547 20.139999999999993 0.6
   vertex 117.32705183409405 39.79900000000001 0.6
   vertex 116.6070518024826 39.79900000000001 0.84
  endloop
 endfacet
 facet normal 0.3162277521329318 9.370675899048353e-05 0.9486832980505119
  outer loop
   vertex 116.61266393581546 20.859999999999996 0.84
   vertex 117.33287732272547 20.139999999999993 0.6
   vertex 116.6070518024826 39.79900000000001 0.84
  endloop
 endfacet
 facet normal 0.0 -0.316227766016837 0.9486832980505141
  outer loop
   vertex 54.507122677274495 20.139999999999993 0.6
   vertex 117.33287732272547 20.139999999999993 0.6
   vertex 116.61266393581546 20.859999999999996 0.84
  endloop
 endfacet
 facet normal 0.0 -0.316227766016837 0.9486832980505142
  outer loop
   vertex 55.2273360641845 20.859999999999996 0.84
   vertex 54.507122677274495 20.139999999999993 0.6
   vertex 116.61266393581546 20.859999999999996 0.84
  endloop
 endfacet
 facet normal 0.0 0.0 1.0
  outer loop
   vertex 55.2273360641845 20.859999999999996 0.84
   vertex 116.6070518024826 39.79900000000001 0.84
   vertex 55.232948197517324 39.799 0.84
  endloop
 endfacet
 facet normal 0.0 0.0 1.0
  outer loop
   vertex 55.2273360641845 20.859999999999996 0.84
   vertex 116.61266393581546 20.859999999999996 0.84
   vertex 116.6070518024826 39.79900000000001 0.84
  endloop
 endfacet
 facet normal 0.0 0.0 -1.0
  outer loop
   vertex 118.52772237471609 2.2636638164324956 0
   vertex 118.53266402011268 18.94000000000001 0
   vertex 135.20066238128706 18.94000000000001 0
  endloop
 endfacet
 facet normal -0.3162277521329277 9.370675899061364e-05 -0.9486832980505133
  outer loop
   vertex 118.53266402011268 18.94000000000001 0
   vertex 118.52772237471609 2.2636638164324956 0
   vertex 117.80720703091691 0.5246642337998961 0.24
  endloop
 endfacet
 facet normal -0.31622775213292414 9.370675899046156e-05 -0.9486832980505144
  outer loop
   vertex 117.8128773437998 19.66000000000001 0.24
   vertex 118.53266402011268 18.94000000000001 0
   vertex 117.80720703091691 0.5246642337998961 0.24
  endloop
 endfacet
 facet normal 0.0 0.31622776601683694 -0.9486832980505141
  outer loop
   vertex 135.20066238128706 18.94000000000001 0
   vertex 118.53266402011268 18.94000000000001 0
   vertex 117.8128773437998 19.66000000000001 0.24
  endloop
 endfacet
 facet normal 0.0 0.316227766016837 -0.9486832980505141
  outer loop
   vertex 136.93864583879028 19.66000000000001 0.24
   vertex 135.20066238128706 18.94000000000001 0
   vertex 117.8128773437998 19.66000000000001 0.24
  endloop
 endfacet
 facet normal 0.2236295679470512 -0.2235840252339487 -0.9486832980505139
  outer loop
   vertex 118.52772237471609 2.2636638164324956 0
   vertex 135.20066238128706 18.94000000000001 0
   vertex 136.93864583879028 19.66000000000001 0.24
  endloop
 endfacet
 facet normal 0.22362956794705216 -0.22358402523394977 -0.9486832980505134
  outer loop
   vertex 117.80720703091691 0.5246642337998961 0.24
   vertex 118.52772237471609 2.2636638164324956 0
   vertex 136.93864583879028 19.66000000000001 0.24
  endloop
 endfacet
 facet normal 0.0 0.0 1.0
  outer loop
   vertex 117.80720703091691 0.5246642337998961 0.24
   vertex 136.93864583879028 19.66000000000001 0.24
   vertex 117.8128773437998 19.66000000000001 0.24
  endloop
 endfacet
 facet normal 0.0 0.0 -1.0
  outer loop
   vertex 117.80720703091691 0.5246642337998961 0.6
   vertex 117.8128773437998 19.66000000000001 0.6
   vertex 136.93864583879028 19.66000000000001 0.6
  endloop
 endfacet
 facet normal -0.3162277521329273 9.37067589904625e-05 0.9486832980505134
  outer loop
   vertex 117.8128773437998 19.66000000000001 0.6
   vertex 117.80720703091691 0.5246642337998961 0.6
   vertex 118.52772237471609 2.2636638164324956 0.84
  endloop
 endfacet
 facet normal -0.31622775213292403 9.370675899061257e-05 0.9486832980505144
  outer loop
   vertex 118.53266402011268 18.94000000000001 0.84
   vertex 117.8128773437998 19.66000000000001 0.6
   vertex 118.52772237471609 2.2636638164324956 0.84
  endloop
 endfacet
 facet normal 0.0 0.316227766016837 0.9486832980505141
  outer loop
   vertex 136.93864583879028 19.66000000000001 0.6
   vertex 117.8128773437998 19.66000000000001 0.6
   vertex 118.53266402011268 18.94000000000001 0.84
  endloop
 endfacet
 facet normal 0.0 0.31622776601683694 0.9486832980505141
  outer loop
   vertex 135.20066238128706 18.94000000000001 0.84
   vertex 136.93864583879028 19.66000000000001 0.6
   vertex 118.53266402011268 18.94000000000001 0.84
  endloop
 endfacet
 facet normal 0.2236295679470512 -0.2235840252339488 0.9486832980505139
  outer loop
   vertex 117.80720703091691 0.5246642337998961 0.6
   vertex 136.93864583879028 19.66000000000001 0.6
   vertex 135.20066238128706 18.94000000000001 0.84
  endloop
 endfacet
 facet normal 0.2236295679470523 -0.22358402523394982 0.9486832980505134
  outer loop
   vertex 118.52772237471609 2.2636638164324956 0.84
   vertex 117.80720703091691 0.5246642337998961 0.6
   vertex 135.20066238128706 18.94000000000001 0.84
  endloop
 endfacet
 facet normal 0.0 0.0 1.0
  outer loop
   vertex 118.52772237471609 2.2636638164324956 0.84
   vertex 135.20066238128706 18.94000000000001 0.84
   vertex 118.53266402011268 18.94000000000001 0.84
  endloop
 endfacet
 facet normal 0.0 0.0 -1.0
  outer loop
   vertex 118.53266402011265 20.86000000000001 0
   vertex 118.52772237471605 37.53633618356753 0
   vertex 135.20066238128703 20.86000000000001 0
  endloop
 endfacet
 facet normal -0.31622775213292936 -9.370675899088362e-05 -0.9486832980505125
  outer loop
   vertex 118.52772237471605 37.53633618356753 0
   vertex 118.53266402011265 20.86000000000001 0
   vertex 117.81287734379978 20.140000000000008 0.24
  endloop
 endfacet
 facet normal -0.31622775213293347 -9.370675899069934e-05 -0.9486832980505113
  outer loop
   vertex 117.80720703091689 39.27533576620009 0.24
   vertex 118.52772237471605 37.53633618356753 0
   vertex 117.81287734379978 20.140000000000008 0.24
  endloop
 endfacet
 facet normal 0.2236295679470561 0.22358402523395443 -0.9486832980505114
  outer loop
   vertex 136.93864583879028 20.140000000000008 0.24
   vertex 118.52772237471605 37.53633618356753 0
   vertex 117.80720703091689 39.27533576620009 0.24
  endloop
 endfacet
 facet normal 0.22362956794704553 0.2235840252339432 -0.9486832980505165
  outer loop
   vertex 135.20066238128703 20.86000000000001 0
   vertex 118.52772237471605 37.53633618356753 0
   vertex 136.93864583879028 20.140000000000008 0.24
  endloop
 endfacet
 facet normal 0.0 -0.31622776601683694 -0.9486832980505141
  outer loop
   vertex 118.53266402011265 20.86000000000001 0
   vertex 135.20066238128703 20.86000000000001 0
   vertex 136.93864583879028 20.140000000000008 0.24
  endloop
 endfacet
 facet normal 0.0 -0.316227766016837 -0.9486832980505142
  outer loop
   vertex 117.81287734379978 20.140000000000008 0.24
   vertex 118.53266402011265 20.86000000000001 0
   vertex 136.93864583879028 20.140000000000008 0.24
  endloop
 endfacet
 facet normal 0.0 -0.0 1.0
  outer loop
   vertex 117.81287734379978 20.140000000000008 0.24
   vertex 136.93864583879028 20.140000000000008 0.24
   vertex 117.80720703091689 39.27533576620009 0.24
  endloop
 endfacet
 facet normal 0.0 0.0 -1.0
  outer loop
   vertex 117.81287734379978 20.140000000000008 0.6
   vertex 117.80720703091689 39.27533576620009 0.6
   vertex 136.93864583879028 20.140000000000008 0.6
  endloop
 endfacet
 facet normal -0.3162277521329296 -9.370675899069819e-05 0.9486832980505125
  outer loop
   vertex 117.80720703091689 39.27533576620009 0.6
   vertex 117.81287734379978 20.140000000000008 0.6
   vertex 118.53266402011265 20.86000000000001 0.84
  endloop
 endfacet
 facet normal -0.31622775213293386 -9.370675899088495e-05 0.9486832980505111
  outer loop
   vertex 118.52772237471605 37.53633618356753 0.84
   vertex 117.80720703091689 39.27533576620009 0.6
   vertex 118.53266402011265 20.86000000000001 0.84
  endloop
 endfacet
 facet normal 0.2236295679470561 0.22358402523395443 0.9486832980505114
  outer loop
   vertex 136.93864583879028 20.140000000000008 0.6
   vertex 117.80720703091689 39.27533576620009 0.6
   vertex 118.52772237471605 37.53633618356753 0.84
  endloop
 endfacet
 facet normal 0.22362956794704553 0.2235840252339432 0.9486832980505165
  outer loop
   vertex 135.20066238128703 20.86000000000001 0.84
   vertex 136.93864583879028 20.140000000000008 0.6
   vertex 118.52772237471605 37.53633618356753 0.84
  endloop
 endfacet
 facet normal 0.0 -0.316227766016837 0.9486832980505142
  outer loop
   vertex 117.81287734379978 20.140000000000008 0.6
   vertex 136.93864583879028 20.140000000000008 0.6
   vertex 135.20066238128703 20.86000000000001 0.84
  endloop
 endfacet
 facet normal 0.0 -0.31622776601683694 0.9486832980505141
  outer loop
   vertex 118.53266402011265 20.86000000000001 0.84
   vertex 117.81287734379978 20.140000000000008 0.6
   vertex 135.20066238128703 20.86000000000001 0.84
  endloop
 endfacet
 facet normal 0.0 -0.0 1.0
  outer loop
   vertex 118.53266402011265 20.86000000000001 0.84
   vertex 135.20066238128703 20.86000000000001 0.84
   vertex 118.52772237471605 37.53633618356753 0.84
  endloop
 endfacet
 facet normal 0.0 0.0 -1.0
  outer loop
   vertex 138.47797365795802 18.219999999999995 0
   vertex 153.56766217038472 18.219999999999995 0
   vertex 153.55315388944172 0.001 0
  endloop
 endfacet
 facet normal 0.0 0.0 -1.0
  outer loop
   vertex 138.47797365795802 18.219999999999995 0
   vertex 153.55315388944172 0.001 0
   vertex 138.47797365795802 0.001 0
  endloop
 endfacet
 facet normal 0.0 1.0 0.0
  outer loop
   vertex 153.56766217038472 18.219999999999995 0
   vertex 138.47797365795802 18.219999999999995 0
   vertex 137.75797365795802 18.219999999999995 0.24
  endloop
 endfacet
 facet normal 0.0 1.0 0.0
  outer loop
   vertex 153.56766217038472 18.219999999999995 0.24
   vertex 153.56766217038472 18.219999999999995 0
   vertex 137.75797365795802 18.219999999999995 0.24
  endloop
 endfacet
 facet normal 0.9999996829318346 -0.0007963267107355524 0.0
  outer loop
   vertex 153.55315388944172 0.001 0
   vertex 153.56766217038472 18.219999999999995 0
   vertex 153.56766217038472 18.219999999999995 0.24
  endloop
 endfacet
 facet normal 0.9999996829318346 -0.0007963267107355524 0.0
  outer loop
   vertex 153.55315388944172 0.001 0.24
   vertex 153.55315388944172 0.001 0
   vertex 153.56766217038472 18.219999999999995 0.24
  endloop
 endfacet
 facet normal 0.0 -1.0 0.0
  outer loop
   vertex 138.47797365795802 0.001 0
   vertex 153.55315388944172 0.001 0
   vertex 153.55315388944172 0.001 0.24
  endloop
 endfacet
 facet normal 0.0 -1.0 0.0
  outer loop
   vertex 137.75797365795802 0.001 0.24
   vertex 138.47797365795802 0.001 0
   vertex 153.55315388944172 0.001 0.24
  endloop
 endfacet
 facet normal -0.31622776601683833 -0.0 -0.9486832980505137
  outer loop
   vertex 138.47797365795802 18.219999999999995 0
   vertex 138.47797365795802 0.001 0
   vertex 137.75797365795802 0.001 0.24
  endloop
 endfacet
 facet normal -0.31622776601683833 -0.0 -0.9486832980505137
  outer loop
   vertex 137.75797365795802 18.219999999999995 0.24
   vertex 138.47797365795802 18.219999999999995 0
   vertex 137.75797365795802 0.001 0.24
  endloop
 endfacet
 facet normal -0.0 0.0 1.0
  outer loop
   vertex 137.75797365795802 18.219999999999995 0.24
   vertex 153.55315388944172 0.001 0.24
   vertex 153.56766217038472 18.219999999999995 0.24
  endloop
 endfacet
 facet normal 0.0 0.0 1.0
  outer loop
   vertex 137.75797365795802 18.219999999999995 0.24
   vertex 137.75797365795802 0.001 0.24
   vertex 153.55315388944172 0.001 0.24
  endloop
 endfacet
 facet normal 0.0 0.0 -1.0
  outer loop
   vertex 137.75797365795802 18.219999999999995 0.6
   vertex 153.56766217038472 18.219999999999995 0.6
   vertex 153.55315388944172 0.001 0.6
  endloop
 endfacet
 facet normal 0.0 0.0 -1.0
  outer loop
   vertex 137.75797365795802 18.219999999999995 0.6
   vertex 153.55315388944172 0.001 0.6
   vertex 137.75797365795802 0.001 0.6
  endloop
 endfacet
 facet normal 0.0 1.0 0.0
  outer loop
   vertex 153.56766217038472 18.219999999999995 0.6
   vertex 137.75797365795802 18.219999999999995 0.6
   vertex 138.47797365795802 18.219999999999995 0.84
  endloop
 endfacet
 facet normal 0.0 1.0 0.0
  outer loop
   vertex 153.56766217038472 18.219999999999995 0.84
   vertex 153.56766217038472 18.219999999999995 0.6
   vertex 138.47797365795802 18.219999999999995 0.84
  endloop
 endfacet
 facet normal 0.9999996829318346 -0.0007963267107355524 0.0
  outer loop
   vertex 153.55315388944172 0.001 0.6
   vertex 153.56766217038472 18.219999999999995 0.6
   vertex 153.56766217038472 18.219999999999995 0.84
  endloop
 endfacet
 facet normal 0.9999996829318346 -0.0007963267107355524 0.0
  outer loop
   vertex 153.55315388944172 0.001 0.84
   vertex 153.55315388944172 0.001 0.6
   vertex 153.56766217038472 18.219999999999995 0.84
  endloop
 endfacet
 facet normal 0.0 -1.0 0.0
  outer loop
   vertex 137.75797365795802 0.001 0.6
   vertex 153.55315388944172 0.001 0.6
   vertex 153.55315388944172 0.001 0.84
  endloop
 endfacet
 facet normal 0.0 -1.0 -0.0
  outer loop
   vertex 138.47797365795802 0.001 0.84
   vertex 137.75797365795802 0.001 0.6
   vertex 153.55315388944172 0.001 0.84
  endloop
 endfacet
 facet normal -0.31622776601683833 0.0 0.9486832980505137
  outer loop
   vertex 137.75797365795802 18.219999999999995 0.6
   vertex 137.75797365795802 0.001 0.6
   vertex 138.47797365795802 0.001 0.84
  endloop
 endfacet
 facet normal -0.31622776601683833 0.0 0.9486832980505137
  outer loop
   vertex 138.47797365795802 18.219999999999995 0.84
   vertex 137.75797365795802 18.219999999999995 0.6
   vertex 138.47797365795802 0.001 0.84
  endloop
 endfacet
 facet normal -0.0 0.0 1.0
  outer loop
   vertex 138.47797365795802 18.219999999999995 0.84
   vertex 153.55315388944172 0.001 0.84
   vertex 153.56766217038472 18.219999999999995 0.84
  endloop
 endfacet
 facet normal 0.0 0.0 1.0
  outer loop
   vertex 138.47797365795802 18.219999999999995 0.84
   vertex 138.47797365795802 0.001 0.84
   vertex 153.55315388944172 0.001 0.84
  endloop
 endfacet
 facet normal 0.0 0.0 -1.0
  outer loop
   vertex 153.56766217038475 21.579999999999995 0
   vertex 138.47797365795802 21.579999999999995 0
   vertex 138.47797365795802 39.798999999999985 0
  endloop
 endfacet
 facet normal 0.0 0.0 -1.0
  outer loop
   vertex 153.56766217038475 21.579999999999995 0
   vertex 138.47797365795802 39.798999999999985 0
   vertex 153.55315388944172 39.798999999999985 0
  endloop
 endfacet
 facet normal 0.0 -1.0 0.0
  outer loop
   vertex 138.47797365795802 21.579999999999995 0
   vertex 153.56766217038475 21.579999999999995 0
   vertex 153.56766217038475 21.579999999999995 0.24
  endloop
 endfacet
 facet normal 0.0 -1.0 0.0
  outer loop
   vertex 137.75797365795802 21.579999999999995 0.24
   vertex 138.47797365795802 21.579999999999995 0
   vertex 153.56766217038475 21.579999999999995 0.24
  endloop
 endfacet
 facet normal -0.3162277660168384 -0.0 -0.9486832980505137
  outer loop
   vertex 138.47797365795802 39.798999999999985 0
   vertex 138.47797365795802 21.579999999999995 0
   vertex 137.75797365795802 21.579999999999995 0.24
  endloop
 endfacet
 facet normal -0.3162277660168384 -0.0 -0.9486832980505137
  outer loop
   vertex 137.75797365795802 39.798999999999985 0.24
   vertex 138.47797365795802 39.798999999999985 0
   vertex 137.75797365795802 21.579999999999995 0.24
  endloop
 endfacet
 facet normal 0.0 1.0 0.0
  outer loop
   vertex 153.55315388944172 39.798999999999985 0
   vertex 138.47797365795802 39.798999999999985 0
   vertex 137.75797365795802 39.798999999999985 0.24
  endloop
 endfacet
 facet normal 0.0 1.0 0.0
  outer loop
   vertex 153.55315388944172 39.798999999999985 0.24
   vertex 153.55315388944172 39.798999999999985 0
   vertex 137.75797365795802 39.798999999999985 0.24
  endloop
 endfacet
 facet normal 0.9999996829318346 0.0007963267107371127 0.0
  outer loop
   vertex 153.56766217038475 21.579999999999995 0
   vertex 153.55315388944172 39.798999999999985 0
   vertex 153.55315388944172 39.798999999999985 0.24
  endloop
 endfacet
 facet normal 0.9999996829318346 0.0007963267107371127 0.0
  outer loop
   vertex 153.56766217038475 21.579999999999995 0.24
   vertex 153.56766217038475 21.579999999999995 0
   vertex 153.55315388944172 39.798999999999985 0.24
  endloop
 endfacet
 facet normal 0.0 0.0 1.0
  outer loop
   vertex 153.56766217038475 21.579999999999995 0.24
   vertex 137.75797365795802 39.798999999999985 0.24
   vertex 137.75797365795802 21.579999999999995 0.24
  endloop
 endfacet
 facet normal 0.0 0.0 1.0
  outer loop
   vertex 153.56766217038475 21.579999999999995 0.24
   vertex 153.55315388944172 39.798999999999985 0.24
   vertex 137.75797365795802 39.798999999999985 0.24
  endloop
 endfacet
 facet normal 0.0 0.0 -1.0
  outer loop
   vertex 153.56766217038475 21.579999999999995 0.6
   vertex 137.75797365795802 21.579999999999995 0.6
   vertex 137.75797365795802 39.798999999999985 0.6
  endloop
 endfacet
 facet normal 0.0 0.0 -1.0
  outer loop
   vertex 153.56766217038475 21.579999999999995 0.6
   vertex 137.75797365795802 39.798999999999985 0.6
   vertex 153.55315388944172 39.798999999999985 0.6
  endloop
 endfacet
 facet normal 0.0 -1.0 0.0
  outer loop
   vertex 137.75797365795802 21.579999999999995 0.6
   vertex 153.56766217038475 21.579999999999995 0.6
   vertex 153.56766217038475 21.579999999999995 0.84
  endloop
 endfacet
 facet normal 0.0 -1.0 -0.0
  outer loop
   vertex 138.47797365795802 21.579999999999995 0.84
   vertex 137.75797365795802 21.579999999999995 0.6
   vertex 153.56766217038475 21.579999999999995 0.84
  endloop
 endfacet
 facet normal -0.3162277660168384 0.0 0.9486832980505137
  outer loop
   vertex 137.75797365795802 39.798999999999985 0.6
   vertex 137.75797365795802 21.579999999999995 0.6
   vertex 138.47797365795802 21.579999999999995 0.84
  endloop
 endfacet
 facet normal -0.3162277660168384 0.0 0.9486832980505137
  outer loop
   vertex 138.47797365795802 39.798999999999985 0.84
   vertex 137.75797365795802 39.798999999999985 0.6
   vertex 138.47797365795802 21.579999999999995 0.84
  endloop
 endfacet
 facet normal 0.0 1.0 0.0
  outer loop
   vertex 153.55315388944172 39.798999999999985 0.6
   vertex 137.75797365795802 39.798999999999985 0.6
   vertex 138.47797365795802 39.798999999999985 0.84
  endloop
 endfacet
 facet normal 0.0 1.0 0.0
  outer loop
   vertex 153.55315388944172 39.798999999999985 0.84
   vertex 153.55315388944172 39.798999999999985 0.6
   vertex 138.47797365795802 39.798999999999985 0.84
  endloop
 endfacet
 facet normal 0.9999996829318346 0.0007963267107371127 0.0
  outer loop
   vertex 153.56766217038475 21.579999999999995 0.6
   vertex 153.55315388944172 39.798999999999985 0.6
   vertex 153.55315388944172 39.798999999999985 0.84
  endloop
 endfacet
 facet normal 0.9999996829318346 0.0007963267107371127 0.0
  outer loop
   vertex 153.56766217038475 21.579999999999995 0.84
   vertex 153.56766217038475 21.579999999999995 0.6
   vertex 153.55315388944172 39.798999999999985 0.84
  endloop
 endfacet
 facet normal 0.0 0.0 1.0
  outer loop
   vertex 153.56766217038475 21.579999999999995 0.84
   vertex 138.47797365795802 39.798999999999985 0.84
   vertex 138.47797365795802 21.579999999999995 0.84
  endloop
 endfacet
 facet normal 0.0 0.0 1.0
  outer loop
   vertex 153.56766217038475 21.579999999999995 0.84
   vertex 153.55315388944172 39.798999999999985 0.84
   vertex 138.47797365795802 39.798999999999985 0.84
  endloop
 endfacet
endsolid
