solid PyGamic generated __All_Crease__ SLA File
 facet normal 0.0 0.0 -1.0
  outer loop
   vertex 0.0 20.0 0
   vertex 30.007966440314892 20.0 0
   vertex 9.531843527284948 19.8 0
  endloop
 endfacet
 facet normal 0.0 0.0 -1.0
  outer loop
   vertex 30.007966440314892 20.0 0
   vertex 9.992033559685108 0.0 0
   vertex 23.206421819197875 13.48659963778927 0
  endloop
 endfacet
 facet normal 0.0 0.0 -1.0
  outer loop
   vertex 9.992033559685108 0.0 0
   vertex -0.01592653926446385 0.0 0
   vertex 9.531843527284948 19.8 0
  endloop
 endfacet
 facet normal 0.0 0.0 -1.0
  outer loop
   vertex -0.01592653926446385 0.0 0
   vertex 0.0 20.0 0
   vertex 0.19462984568343766 12.00049936586367 0
  endloop
 endfacet
 facet normal 0.0 0.0 -1.0
  outer loop
   vertex 9.531843527284948 19.8 0
   vertex 5.531843527284948 19.8 0
   vertex 0.0 20.0 0
  endloop
 endfacet
 facet normal 0.0 0.0 -1.0
  outer loop
   vertex 9.531843527284948 19.8 0
   vertex 30.007966440314892 20.0 0
   vertex 20.193848985178693 19.8 0
  endloop
 endfacet
 facet normal 0.0 0.0 -1.0
  outer loop
   vertex 9.531843527284948 19.8 0
   vertex 13.3991151060113 3.6870996377892684 0
   vertex 9.992033559685108 0.0 0
  endloop
 endfacet
 facet normal 0.0 0.0 -1.0
  outer loop
   vertex 9.531843527284948 19.8 0
   vertex -0.01592653926446385 0.0 0
   vertex 2.1930365581256406 9.998907346578534 0
  endloop
 endfacet
 facet normal 0.0 0.0 -1.0
  outer loop
   vertex 9.531843527284948 19.8 0
   vertex 20.193848985178693 19.8 0
   vertex 22.193848985178693 17.8 0
  endloop
 endfacet
 facet normal 0.0 0.0 -1.0
  outer loop
   vertex 9.531843527284948 19.8 0
   vertex 23.207547995321544 16.3150265383344 0
   vertex 23.206421819197875 13.48659963778927 0
  endloop
 endfacet
 facet normal 0.0 0.0 -1.0
  outer loop
   vertex 9.531843527284948 19.8 0
   vertex 22.193848985178693 17.8 0
   vertex 26.035974895866676 16.313900362210735 0
  endloop
 endfacet
 facet normal 0.0 0.0 -1.0
  outer loop
   vertex 9.531843527284948 19.8 0
   vertex 26.035974895866676 16.313900362210735 0
   vertex 23.207547995321544 16.3150265383344 0
  endloop
 endfacet
 facet normal 0.0 0.0 -1.0
  outer loop
   vertex 9.531843527284948 19.8 0
   vertex 13.400241282134967 6.5155265383344005 0
   vertex 13.3991151060113 3.6870996377892684 0
  endloop
 endfacet
 facet normal 0.0 0.0 -1.0
  outer loop
   vertex 9.531843527284948 19.8 0
   vertex 23.206421819197875 13.48659963778927 0
   vertex 16.2286681826801 6.514400362210733 0
  endloop
 endfacet
 facet normal 0.0 0.0 -1.0
  outer loop
   vertex 9.531843527284948 19.8 0
   vertex 16.2286681826801 6.514400362210733 0
   vertex 13.400241282134967 6.5155265383344005 0
  endloop
 endfacet
 facet normal 0.0 0.0 -1.0
  outer loop
   vertex 9.531843527284948 19.8 0
   vertex 2.1930365581256406 9.998907346578534 0
   vertex 7.531843527284948 17.8 0
  endloop
 endfacet
 facet normal -0.0 0.0 -1.0
  outer loop
   vertex 5.531843527284948 19.8 0
   vertex 0.19462984568343766 12.00049936586367 0
   vertex 0.0 20.0 0
  endloop
 endfacet
 facet normal 0.0 0.0 -1.0
  outer loop
   vertex 5.531843527284948 19.8 0
   vertex 2.1930365581256406 9.998907346578534 0
   vertex 0.19462984568343766 12.00049936586367 0
  endloop
 endfacet
 facet normal 0.0 -0.0 -1.0
  outer loop
   vertex 5.531843527284948 19.8 0
   vertex 7.531843527284948 17.8 0
   vertex 2.1930365581256406 9.998907346578534 0
  endloop
 endfacet
 facet normal 0.0 0.0 -1.0
  outer loop
   vertex 24.193848985178693 19.8 0
   vertex 20.193848985178693 19.8 0
   vertex 30.007966440314892 20.0 0
  endloop
 endfacet
 facet normal 0.0 0.0 -1.0
  outer loop
   vertex 24.193848985178693 19.8 0
   vertex 30.007966440314892 20.0 0
   vertex 26.035974895866676 16.313900362210735 0
  endloop
 endfacet
 facet normal 0.0 -0.0 -1.0
  outer loop
   vertex 24.193848985178693 19.8 0
   vertex 26.035974895866676 16.313900362210735 0
   vertex 22.193848985178693 17.8 0
  endloop
 endfacet
 facet normal 0.0 0.0 -1.0
  outer loop
   vertex 23.206421819197875 13.48659963778927 0
   vertex 26.035974895866676 16.313900362210735 0
   vertex 30.007966440314892 20.0 0
  endloop
 endfacet
 facet normal 0.0 0.0 -1.0
  outer loop
   vertex 23.206421819197875 13.48659963778927 0
   vertex 9.992033559685108 0.0 0
   vertex 16.2286681826801 6.514400362210733 0
  endloop
 endfacet
 facet normal 0.0 -0.0 -1.0
  outer loop
   vertex 13.3991151060113 3.6870996377892684 0
   vertex 16.2286681826801 6.514400362210733 0
   vertex 9.992033559685108 0.0 0
  endloop
 endfacet
 facet normal 0.0 0.0 -1.0
  outer loop
   vertex 0.19462984568343766 12.00049936586367 0
   vertex 0.1914445388405046 8.000500634136332 0
   vertex -0.01592653926446385 0.0 0
  endloop
 endfacet
 facet normal 0.0 -0.0 -1.0
  outer loop
   vertex 0.1914445388405046 8.000500634136332 0
   vertex 2.1930365581256406 9.998907346578534 0
   vertex -0.01592653926446385 0.0 0
  endloop
 endfacet
 facet normal 0.0 -1.0 0.0
  outer loop
   vertex -0.01592653926446385 0.0 0
   vertex 9.992033559685108 0.0 0
   vertex 9.992033559685108 0.0 0.24
  endloop
 endfacet
 facet normal 0.0 -1.0 0.0
  outer loop
   vertex -0.01592653926446385 0.0 0.24
   vertex -0.01592653926446385 0.0 0
   vertex 9.992033559685108 0.0 0.24
  endloop
 endfacet
 facet normal -0.9999996829318346 0.0007963267107332632 0.0
  outer loop
   vertex 0.0 20.0 0
   vertex -0.01592653926446385 0.0 0
   vertex -0.01592653926446385 0.0 0.24
  endloop
 endfacet
 facet normal -0.9999996829318346 0.0007963267107332632 0.0
  outer loop
   vertex 0.0 20.0 0.24
   vertex 0.0 20.0 0
   vertex -0.01592653926446385 0.0 0.24
  endloop
 endfacet
 facet normal -0.0 0.0 1.0
  outer loop
   vertex 0.0 20.0 0.24
   vertex 9.531843527284948 19.8 0.24
   vertex 30.007966440314892 20.0 0.24
  endloop
 endfacet
 facet normal 0.0 0.0 1.0
  outer loop
   vertex 30.007966440314892 20.0 0.24
   vertex 23.206421819197875 13.48659963778927 0.24
   vertex 9.992033559685108 0.0 0.24
  endloop
 endfacet
 facet normal 0.0 0.0 1.0
  outer loop
   vertex 9.992033559685108 0.0 0.24
   vertex 9.531843527284948 19.8 0.24
   vertex -0.01592653926446385 0.0 0.24
  endloop
 endfacet
 facet normal 0.0 0.0 1.0
  outer loop
   vertex -0.01592653926446385 0.0 0.24
   vertex 0.19462984568343766 12.00049936586367 0.24
   vertex 0.0 20.0 0.24
  endloop
 endfacet
 facet normal 0.0 0.0 1.0
  outer loop
   vertex 9.531843527284948 19.8 0.24
   vertex 0.0 20.0 0.24
   vertex 5.531843527284948 19.8 0.24
  endloop
 endfacet
 facet normal 0.0 0.0 1.0
  outer loop
   vertex 9.531843527284948 19.8 0.24
   vertex 20.193848985178693 19.8 0.24
   vertex 30.007966440314892 20.0 0.24
  endloop
 endfacet
 facet normal 0.0 0.0 1.0
  outer loop
   vertex 9.531843527284948 19.8 0.24
   vertex 9.992033559685108 0.0 0.24
   vertex 13.3991151060113 3.6870996377892684 0.24
  endloop
 endfacet
 facet normal 0.0 0.0 1.0
  outer loop
   vertex 9.531843527284948 19.8 0.24
   vertex 2.1930365581256406 9.998907346578534 0.24
   vertex -0.01592653926446385 0.0 0.24
  endloop
 endfacet
 facet normal -0.0 0.0 1.0
  outer loop
   vertex 9.531843527284948 19.8 0.24
   vertex 22.193848985178693 17.8 0.24
   vertex 20.193848985178693 19.8 0.24
  endloop
 endfacet
 facet normal 0.0 0.0 1.0
  outer loop
   vertex 9.531843527284948 19.8 0.24
   vertex 23.206421819197875 13.48659963778927 0.24
   vertex 23.207547995321544 16.3150265383344 0.24
  endloop
 endfacet
 facet normal 0.0 0.0 1.0
  outer loop
   vertex 9.531843527284948 19.8 0.24
   vertex 26.035974895866676 16.313900362210735 0.24
   vertex 22.193848985178693 17.8 0.24
  endloop
 endfacet
 facet normal 0.0 0.0 1.0
  outer loop
   vertex 9.531843527284948 19.8 0.24
   vertex 23.207547995321544 16.3150265383344 0.24
   vertex 26.035974895866676 16.313900362210735 0.24
  endloop
 endfacet
 facet normal 0.0 0.0 1.0
  outer loop
   vertex 9.531843527284948 19.8 0.24
   vertex 13.3991151060113 3.6870996377892684 0.24
   vertex 13.400241282134967 6.5155265383344005 0.24
  endloop
 endfacet
 facet normal 0.0 0.0 1.0
  outer loop
   vertex 9.531843527284948 19.8 0.24
   vertex 16.2286681826801 6.514400362210733 0.24
   vertex 23.206421819197875 13.48659963778927 0.24
  endloop
 endfacet
 facet normal 0.0 0.0 1.0
  outer loop
   vertex 9.531843527284948 19.8 0.24
   vertex 13.400241282134967 6.5155265383344005 0.24
   vertex 16.2286681826801 6.514400362210733 0.24
  endloop
 endfacet
 facet normal 0.0 0.0 1.0
  outer loop
   vertex 9.531843527284948 19.8 0.24
   vertex 7.531843527284948 17.8 0.24
   vertex 2.1930365581256406 9.998907346578534 0.24
  endloop
 endfacet
 facet normal 0.0 0.0 1.0
  outer loop
   vertex 5.531843527284948 19.8 0.24
   vertex 0.0 20.0 0.24
   vertex 0.19462984568343766 12.00049936586367 0.24
  endloop
 endfacet
 facet normal 0.0 0.0 1.0
  outer loop
   vertex 5.531843527284948 19.8 0.24
   vertex 0.19462984568343766 12.00049936586367 0.24
   vertex 2.1930365581256406 9.998907346578534 0.24
  endloop
 endfacet
 facet normal 0.0 0.0 1.0
  outer loop
   vertex 5.531843527284948 19.8 0.24
   vertex 2.1930365581256406 9.998907346578534 0.24
   vertex 7.531843527284948 17.8 0.24
  endloop
 endfacet
 facet normal 0.0 -0.0 1.0
  outer loop
   vertex 24.193848985178693 19.8 0.24
   vertex 30.007966440314892 20.0 0.24
   vertex 20.193848985178693 19.8 0.24
  endloop
 endfacet
 facet normal -0.0 0.0 1.0
  outer loop
   vertex 24.193848985178693 19.8 0.24
   vertex 26.035974895866676 16.313900362210735 0.24
   vertex 30.007966440314892 20.0 0.24
  endloop
 endfacet
 facet normal 0.0 0.0 1.0
  outer loop
   vertex 24.193848985178693 19.8 0.24
   vertex 22.193848985178693 17.8 0.24
   vertex 26.035974895866676 16.313900362210735 0.24
  endloop
 endfacet
 facet normal 0.0 0.0 1.0
  outer loop
   vertex 23.206421819197875 13.48659963778927 0.24
   vertex 30.007966440314892 20.0 0.24
   vertex 26.035974895866676 16.313900362210735 0.24
  endloop
 endfacet
 facet normal 0.0 0.0 1.0
  outer loop
   vertex 23.206421819197875 13.48659963778927 0.24
   vertex 16.2286681826801 6.514400362210733 0.24
   vertex 9.992033559685108 0.0 0.24
  endloop
 endfacet
 facet normal -0.0 0.0 1.0
  outer loop
   vertex 13.3991151060113 3.6870996377892684 0.24
   vertex 9.992033559685108 0.0 0.24
   vertex 16.2286681826801 6.514400362210733 0.24
  endloop
 endfacet
 facet normal 0.0 0.0 1.0
  outer loop
   vertex 0.19462984568343766 12.00049936586367 0.24
   vertex -0.01592653926446385 0.0 0.24
   vertex 0.1914445388405046 8.000500634136332 0.24
  endloop
 endfacet
 facet normal -0.0 0.0 1.0
  outer loop
   vertex 0.1914445388405046 8.000500634136332 0.24
   vertex -0.01592653926446385 0.0 0.24
   vertex 2.1930365581256406 9.998907346578534 0.24
  endloop
 endfacet
 facet normal 0.0 -1.0 0.0
  outer loop
   vertex 9.531843527284948 19.8 0
   vertex 9.531843527284948 19.8 0.24
   vertex 5.531843527284948 19.8 0
  endloop
 endfacet
 facet normal 0.0 -1.0 0.0
  outer loop
   vertex 5.531843527284948 19.8 0
   vertex 9.531843527284948 19.8 0.24
   vertex 5.531843527284948 19.8 0.24
  endloop
 endfacet
 facet normal 0.7071067811865475 0.7071067811865475 -0.0
  outer loop
   vertex 5.531843527284948 19.8 0
   vertex 5.531843527284948 19.8 0.24
   vertex 7.531843527284948 17.8 0
  endloop
 endfacet
 facet normal 0.7071067811865475 0.7071067811865475 -0.0
  outer loop
   vertex 7.531843527284948 17.8 0
   vertex 5.531843527284948 19.8 0.24
   vertex 7.531843527284948 17.8 0.24
  endloop
 endfacet
 facet normal -0.7071067811865475 0.7071067811865475 0.0
  outer loop
   vertex 7.531843527284948 17.8 0
   vertex 7.531843527284948 17.8 0.24
   vertex 9.531843527284948 19.8 0
  endloop
 endfacet
 facet normal -0.7071067811865475 0.7071067811865475 0.0
  outer loop
   vertex 9.531843527284948 19.8 0
   vertex 7.531843527284948 17.8 0.24
   vertex 9.531843527284948 19.8 0.24
  endloop
 endfacet
 facet normal 0.0 -1.0 0.0
  outer loop
   vertex 24.193848985178693 19.8 0
   vertex 24.193848985178693 19.8 0.24
   vertex 20.193848985178693 19.8 0
  endloop
 endfacet
 facet normal 0.0 -1.0 0.0
  outer loop
   vertex 20.193848985178693 19.8 0
   vertex 24.193848985178693 19.8 0.24
   vertex 20.193848985178693 19.8 0.24
  endloop
 endfacet
 facet normal 0.7071067811865475 0.7071067811865475 -0.0
  outer loop
   vertex 20.193848985178693 19.8 0
   vertex 20.193848985178693 19.8 0.24
   vertex 22.193848985178693 17.8 0
  endloop
 endfacet
 facet normal 0.7071067811865475 0.7071067811865475 -0.0
  outer loop
   vertex 22.193848985178693 17.8 0
   vertex 20.193848985178693 19.8 0.24
   vertex 22.193848985178693 17.8 0.24
  endloop
 endfacet
 facet normal -0.7071067811865475 0.7071067811865475 0.0
  outer loop
   vertex 22.193848985178693 17.8 0
   vertex 22.193848985178693 17.8 0.24
   vertex 24.193848985178693 19.8 0
  endloop
 endfacet
 facet normal -0.7071067811865475 0.7071067811865475 0.0
  outer loop
   vertex 24.193848985178693 19.8 0
   vertex 22.193848985178693 17.8 0.24
   vertex 24.193848985178693 19.8 0.24
  endloop
 endfacet
 facet normal -0.7068251811053656 0.7073882691672001 0.0
  outer loop
   vertex 23.206421819197875 13.48659963778927 0
   vertex 23.206421819197875 13.48659963778927 0.24
   vertex 26.035974895866676 16.313900362210735 0
  endloop
 endfacet
 facet normal -0.7068251811053656 0.7073882691672001 0.0
  outer loop
   vertex 26.035974895866676 16.313900362210735 0
   vertex 23.206421819197875 13.48659963778927 0.24
   vertex 26.035974895866676 16.313900362210735 0.24
  endloop
 endfacet
 facet normal -0.00039816338692732405 -0.9999999207329555 0.0
  outer loop
   vertex 26.035974895866676 16.313900362210735 0
   vertex 26.035974895866676 16.313900362210735 0.24
   vertex 23.207547995321544 16.3150265383344 0
  endloop
 endfacet
 facet normal -0.00039816338692732405 -0.9999999207329555 0.0
  outer loop
   vertex 23.207547995321544 16.3150265383344 0
   vertex 26.035974895866676 16.313900362210735 0.24
   vertex 23.207547995321544 16.3150265383344 0.24
  endloop
 endfacet
 facet normal 0.9999999207329555 -0.0003981633869285803 0.0
  outer loop
   vertex 23.207547995321544 16.3150265383344 0
   vertex 23.207547995321544 16.3150265383344 0.24
   vertex 23.206421819197875 13.48659963778927 0
  endloop
 endfacet
 facet normal 0.9999999207329555 -0.0003981633869285803 0.0
  outer loop
   vertex 23.206421819197875 13.48659963778927 0
   vertex 23.207547995321544 16.3150265383344 0.24
   vertex 23.206421819197875 13.48659963778927 0.24
  endloop
 endfacet
 facet normal -0.706825181105366 0.7073882691671999 0.0
  outer loop
   vertex 13.3991151060113 3.6870996377892684 0
   vertex 13.3991151060113 3.6870996377892684 0.24
   vertex 16.2286681826801 6.514400362210733 0
  endloop
 endfacet
 facet normal -0.706825181105366 0.7073882691671999 0.0
  outer loop
   vertex 16.2286681826801 6.514400362210733 0
   vertex 13.3991151060113 3.6870996377892684 0.24
   vertex 16.2286681826801 6.514400362210733 0.24
  endloop
 endfacet
 facet normal -0.00039816338692795207 -0.9999999207329555 0.0
  outer loop
   vertex 16.2286681826801 6.514400362210733 0
   vertex 16.2286681826801 6.514400362210733 0.24
   vertex 13.400241282134967 6.5155265383344005 0
  endloop
 endfacet
 facet normal -0.00039816338692795207 -0.9999999207329555 0.0
  outer loop
   vertex 13.400241282134967 6.5155265383344005 0
   vertex 16.2286681826801 6.514400362210733 0.24
   vertex 13.400241282134967 6.5155265383344005 0.24
  endloop
 endfacet
 facet normal 0.9999999207329555 -0.00039816338692795207 0.0
  outer loop
   vertex 13.400241282134967 6.5155265383344005 0
   vertex 13.400241282134967 6.5155265383344005 0.24
   vertex 13.3991151060113 3.6870996377892684 0
  endloop
 endfacet
 facet normal 0.9999999207329555 -0.00039816338692795207 0.0
  outer loop
   vertex 13.3991151060113 3.6870996377892684 0
   vertex 13.400241282134967 6.5155265383344005 0.24
   vertex 13.3991151060113 3.6870996377892684 0.24
  endloop
 endfacet
 facet normal 0.9999996829318346 -0.000796326710733264 0.0
  outer loop
   vertex 0.19462984568343766 12.00049936586367 0
   vertex 0.19462984568343766 12.00049936586367 0.24
   vertex 0.1914445388405046 8.000500634136332 0
  endloop
 endfacet
 facet normal 0.9999996829318346 -0.000796326710733264 0.0
  outer loop
   vertex 0.1914445388405046 8.000500634136332 0
   vertex 0.19462984568343766 12.00049936586367 0.24
   vertex 0.1914445388405046 8.000500634136332 0.24
  endloop
 endfacet
 facet normal -0.7065434689682981 0.7076696450026972 0.0
  outer loop
   vertex 0.1914445388405046 8.000500634136332 0
   vertex 0.1914445388405046 8.000500634136332 0.24
   vertex 2.1930365581256406 9.998907346578534 0
  endloop
 endfacet
 facet normal -0.7065434689682981 0.7076696450026972 0.0
  outer loop
   vertex 2.1930365581256406 9.998907346578534 0
   vertex 0.1914445388405046 8.000500634136332 0.24
   vertex 2.1930365581256406 9.998907346578534 0.24
  endloop
 endfacet
 facet normal -0.7076696450026971 -0.7065434689682982 0.0
  outer loop
   vertex 2.1930365581256406 9.998907346578534 0
   vertex 2.1930365581256406 9.998907346578534 0.24
   vertex 0.19462984568343766 12.00049936586367 0
  endloop
 endfacet
 facet normal -0.7076696450026971 -0.7065434689682982 0.0
  outer loop
   vertex 0.19462984568343766 12.00049936586367 0
   vertex 2.1930365581256406 9.998907346578534 0.24
   vertex 0.19462984568343766 12.00049936586367 0.24
  endloop
 endfacet
 facet normal 0.0 0.0 -1.0
  outer loop
   vertex 30.007966440314892 20.0 0
   vertex 0.0 20.0 0
   vertex 20.193848985178693 20.2 0
  endloop
 endfacet
 facet normal 0.0 0.0 -1.0
  outer loop
   vertex 0.0 20.0 0
   vertex -0.01592653926446385 40.0 0
   vertex 0.19144453884050466 31.999499365863667 0
  endloop
 endfacet
 facet normal 0.0 0.0 -1.0
  outer loop
   vertex -0.01592653926446385 40.0 0
   vertex 9.992033559685108 40.0 0
   vertex 20.193848985178693 20.2 0
  endloop
 endfacet
 facet normal 0.0 0.0 -1.0
  outer loop
   vertex 9.992033559685108 40.0 0
   vertex 30.007966440314892 20.0 0
   vertex 16.2286681826801 33.485599637789264 0
  endloop
 endfacet
 facet normal 0.0 0.0 -1.0
  outer loop
   vertex 20.193848985178693 20.2 0
   vertex 24.193848985178693 20.2 0
   vertex 30.007966440314892 20.0 0
  endloop
 endfacet
 facet normal -0.0 0.0 -1.0
  outer loop
   vertex 20.193848985178693 20.2 0
   vertex 0.0 20.0 0
   vertex 9.531843527284948 20.2 0
  endloop
 endfacet
 facet normal 0.0 0.0 -1.0
  outer loop
   vertex 20.193848985178693 20.2 0
   vertex 0.19144453884050466 31.999499365863667 0
   vertex -0.01592653926446385 40.0 0
  endloop
 endfacet
 facet normal 0.0 0.0 -1.0
  outer loop
   vertex 20.193848985178693 20.2 0
   vertex 9.992033559685108 40.0 0
   vertex 13.400241282134967 33.484473461665594 0
  endloop
 endfacet
 facet normal 0.0 0.0 -1.0
  outer loop
   vertex 20.193848985178693 20.2 0
   vertex 9.531843527284948 20.2 0
   vertex 7.531843527284948 22.2 0
  endloop
 endfacet
 facet normal 0.0 0.0 -1.0
  outer loop
   vertex 20.193848985178693 20.2 0
   vertex 2.1930365581256406 30.001092653421463 0
   vertex 0.19144453884050466 31.999499365863667 0
  endloop
 endfacet
 facet normal 0.0 0.0 -1.0
  outer loop
   vertex 20.193848985178693 20.2 0
   vertex 7.531843527284948 22.2 0
   vertex 0.19462984568343772 27.99950063413633 0
  endloop
 endfacet
 facet normal 0.0 0.0 -1.0
  outer loop
   vertex 20.193848985178693 20.2 0
   vertex 0.19462984568343772 27.99950063413633 0
   vertex 2.1930365581256406 30.001092653421463 0
  endloop
 endfacet
 facet normal 0.0 0.0 -1.0
  outer loop
   vertex 20.193848985178693 20.2 0
   vertex 13.400241282134967 33.484473461665594 0
   vertex 16.2286681826801 33.485599637789264 0
  endloop
 endfacet
 facet normal 0.0 0.0 -1.0
  outer loop
   vertex 20.193848985178693 20.2 0
   vertex 16.2286681826801 33.485599637789264 0
   vertex 23.206421819197875 26.51340036221073 0
  endloop
 endfacet
 facet normal 0.0 0.0 -1.0
  outer loop
   vertex 20.193848985178693 20.2 0
   vertex 23.206421819197875 26.51340036221073 0
   vertex 23.207547995321544 23.6849734616656 0
  endloop
 endfacet
 facet normal 0.0 0.0 -1.0
  outer loop
   vertex 20.193848985178693 20.2 0
   vertex 23.207547995321544 23.6849734616656 0
   vertex 22.193848985178693 22.2 0
  endloop
 endfacet
 facet normal 0.0 0.0 -1.0
  outer loop
   vertex 24.193848985178693 20.2 0
   vertex 26.035974895866676 23.68609963778927 0
   vertex 30.007966440314892 20.0 0
  endloop
 endfacet
 facet normal 0.0 0.0 -1.0
  outer loop
   vertex 24.193848985178693 20.2 0
   vertex 23.207547995321544 23.6849734616656 0
   vertex 26.035974895866676 23.68609963778927 0
  endloop
 endfacet
 facet normal 0.0 0.0 -1.0
  outer loop
   vertex 24.193848985178693 20.2 0
   vertex 22.193848985178693 22.2 0
   vertex 23.207547995321544 23.6849734616656 0
  endloop
 endfacet
 facet normal 0.0 -0.0 -1.0
  outer loop
   vertex 5.531843527284948 20.2 0
   vertex 9.531843527284948 20.2 0
   vertex 0.0 20.0 0
  endloop
 endfacet
 facet normal -0.0 0.0 -1.0
  outer loop
   vertex 5.531843527284948 20.2 0
   vertex 0.0 20.0 0
   vertex 0.19462984568343772 27.99950063413633 0
  endloop
 endfacet
 facet normal 0.0 0.0 -1.0
  outer loop
   vertex 5.531843527284948 20.2 0
   vertex 0.19462984568343772 27.99950063413633 0
   vertex 7.531843527284948 22.2 0
  endloop
 endfacet
 facet normal 0.0 -0.0 -1.0
  outer loop
   vertex 0.19144453884050466 31.999499365863667 0
   vertex 0.19462984568343772 27.99950063413633 0
   vertex 0.0 20.0 0
  endloop
 endfacet
 facet normal 0.0 0.0 -1.0
  outer loop
   vertex 16.2286681826801 33.485599637789264 0
   vertex 30.007966440314892 20.0 0
   vertex 23.206421819197875 26.51340036221073 0
  endloop
 endfacet
 facet normal 0.0 0.0 -1.0
  outer loop
   vertex 16.2286681826801 33.485599637789264 0
   vertex 13.3991151060113 36.312900362210726 0
   vertex 9.992033559685108 40.0 0
  endloop
 endfacet
 facet normal -0.0 -0.0 -1.0
  outer loop
   vertex 13.3991151060113 36.312900362210726 0
   vertex 13.400241282134967 33.484473461665594 0
   vertex 9.992033559685108 40.0 0
  endloop
 endfacet
 facet normal 0.0 0.0 -1.0
  outer loop
   vertex 26.035974895866676 23.68609963778927 0
   vertex 23.206421819197875 26.51340036221073 0
   vertex 30.007966440314892 20.0 0
  endloop
 endfacet
 facet normal -0.9999996829318346 -0.0007963267107332632 0.0
  outer loop
   vertex -0.01592653926446385 40.0 0
   vertex 0.0 20.0 0
   vertex 0.0 20.0 0.24
  endloop
 endfacet
 facet normal -0.9999996829318346 -0.0007963267107332632 -0.0
  outer loop
   vertex -0.01592653926446385 40.0 0.24
   vertex -0.01592653926446385 40.0 0
   vertex 0.0 20.0 0.24
  endloop
 endfacet
 facet normal 0.0 1.0 0.0
  outer loop
   vertex 9.992033559685108 40.0 0
   vertex -0.01592653926446385 40.0 0
   vertex -0.01592653926446385 40.0 0.24
  endloop
 endfacet
 facet normal 0.0 1.0 0.0
  outer loop
   vertex 9.992033559685108 40.0 0.24
   vertex 9.992033559685108 40.0 0
   vertex -0.01592653926446385 40.0 0.24
  endloop
 endfacet
 facet normal 0.0 0.0 1.0
  outer loop
   vertex 30.007966440314892 20.0 0.24
   vertex 20.193848985178693 20.2 0.24
   vertex 0.0 20.0 0.24
  endloop
 endfacet
 facet normal 0.0 -0.0 1.0
  outer loop
   vertex 0.0 20.0 0.24
   vertex 0.19144453884050466 31.999499365863667 0.24
   vertex -0.01592653926446385 40.0 0.24
  endloop
 endfacet
 facet normal -0.0 0.0 1.0
  outer loop
   vertex -0.01592653926446385 40.0 0.24
   vertex 20.193848985178693 20.2 0.24
   vertex 9.992033559685108 40.0 0.24
  endloop
 endfacet
 facet normal 0.0 0.0 1.0
  outer loop
   vertex 9.992033559685108 40.0 0.24
   vertex 16.2286681826801 33.485599637789264 0.24
   vertex 30.007966440314892 20.0 0.24
  endloop
 endfacet
 facet normal -0.0 0.0 1.0
  outer loop
   vertex 20.193848985178693 20.2 0.24
   vertex 30.007966440314892 20.0 0.24
   vertex 24.193848985178693 20.2 0.24
  endloop
 endfacet
 facet normal 0.0 0.0 1.0
  outer loop
   vertex 20.193848985178693 20.2 0.24
   vertex 9.531843527284948 20.2 0.24
   vertex 0.0 20.0 0.24
  endloop
 endfacet
 facet normal 0.0 0.0 1.0
  outer loop
   vertex 20.193848985178693 20.2 0.24
   vertex -0.01592653926446385 40.0 0.24
   vertex 0.19144453884050466 31.999499365863667 0.24
  endloop
 endfacet
 facet normal 0.0 0.0 1.0
  outer loop
   vertex 20.193848985178693 20.2 0.24
   vertex 13.400241282134967 33.484473461665594 0.24
   vertex 9.992033559685108 40.0 0.24
  endloop
 endfacet
 facet normal 0.0 0.0 1.0
  outer loop
   vertex 20.193848985178693 20.2 0.24
   vertex 7.531843527284948 22.2 0.24
   vertex 9.531843527284948 20.2 0.24
  endloop
 endfacet
 facet normal 0.0 0.0 1.0
  outer loop
   vertex 20.193848985178693 20.2 0.24
   vertex 0.19144453884050466 31.999499365863667 0.24
   vertex 2.1930365581256406 30.001092653421463 0.24
  endloop
 endfacet
 facet normal 0.0 0.0 1.0
  outer loop
   vertex 20.193848985178693 20.2 0.24
   vertex 0.19462984568343772 27.99950063413633 0.24
   vertex 7.531843527284948 22.2 0.24
  endloop
 endfacet
 facet normal 0.0 0.0 1.0
  outer loop
   vertex 20.193848985178693 20.2 0.24
   vertex 2.1930365581256406 30.001092653421463 0.24
   vertex 0.19462984568343772 27.99950063413633 0.24
  endloop
 endfacet
 facet normal 0.0 0.0 1.0
  outer loop
   vertex 20.193848985178693 20.2 0.24
   vertex 16.2286681826801 33.485599637789264 0.24
   vertex 13.400241282134967 33.484473461665594 0.24
  endloop
 endfacet
 facet normal 0.0 -0.0 1.0
  outer loop
   vertex 20.193848985178693 20.2 0.24
   vertex 23.206421819197875 26.51340036221073 0.24
   vertex 16.2286681826801 33.485599637789264 0.24
  endloop
 endfacet
 facet normal 0.0 0.0 1.0
  outer loop
   vertex 20.193848985178693 20.2 0.24
   vertex 23.207547995321544 23.6849734616656 0.24
   vertex 23.206421819197875 26.51340036221073 0.24
  endloop
 endfacet
 facet normal 0.0 0.0 1.0
  outer loop
   vertex 20.193848985178693 20.2 0.24
   vertex 22.193848985178693 22.2 0.24
   vertex 23.207547995321544 23.6849734616656 0.24
  endloop
 endfacet
 facet normal -0.0 0.0 1.0
  outer loop
   vertex 24.193848985178693 20.2 0.24
   vertex 30.007966440314892 20.0 0.24
   vertex 26.035974895866676 23.68609963778927 0.24
  endloop
 endfacet
 facet normal 0.0 -0.0 1.0
  outer loop
   vertex 24.193848985178693 20.2 0.24
   vertex 26.035974895866676 23.68609963778927 0.24
   vertex 23.207547995321544 23.6849734616656 0.24
  endloop
 endfacet
 facet normal 0.0 0.0 1.0
  outer loop
   vertex 24.193848985178693 20.2 0.24
   vertex 23.207547995321544 23.6849734616656 0.24
   vertex 22.193848985178693 22.2 0.24
  endloop
 endfacet
 facet normal -0.0 0.0 1.0
  outer loop
   vertex 5.531843527284948 20.2 0.24
   vertex 0.0 20.0 0.24
   vertex 9.531843527284948 20.2 0.24
  endloop
 endfacet
 facet normal 0.0 0.0 1.0
  outer loop
   vertex 5.531843527284948 20.2 0.24
   vertex 0.19462984568343772 27.99950063413633 0.24
   vertex 0.0 20.0 0.24
  endloop
 endfacet
 facet normal 0.0 -0.0 1.0
  outer loop
   vertex 5.531843527284948 20.2 0.24
   vertex 7.531843527284948 22.2 0.24
   vertex 0.19462984568343772 27.99950063413633 0.24
  endloop
 endfacet
 facet normal 0.0 0.0 1.0
  outer loop
   vertex 0.19144453884050466 31.999499365863667 0.24
   vertex 0.0 20.0 0.24
   vertex 0.19462984568343772 27.99950063413633 0.24
  endloop
 endfacet
 facet normal 0.0 0.0 1.0
  outer loop
   vertex 16.2286681826801 33.485599637789264 0.24
   vertex 23.206421819197875 26.51340036221073 0.24
   vertex 30.007966440314892 20.0 0.24
  endloop
 endfacet
 facet normal 0.0 0.0 1.0
  outer loop
   vertex 16.2286681826801 33.485599637789264 0.24
   vertex 9.992033559685108 40.0 0.24
   vertex 13.3991151060113 36.312900362210726 0.24
  endloop
 endfacet
 facet normal 0.0 0.0 1.0
  outer loop
   vertex 13.3991151060113 36.312900362210726 0.24
   vertex 9.992033559685108 40.0 0.24
   vertex 13.400241282134967 33.484473461665594 0.24
  endloop
 endfacet
 facet normal -0.0 -0.0 1.0
  outer loop
   vertex 26.035974895866676 23.68609963778927 0.24
   vertex 30.007966440314892 20.0 0.24
   vertex 23.206421819197875 26.51340036221073 0.24
  endloop
 endfacet
 facet normal 0.0 1.0 0.0
  outer loop
   vertex 20.193848985178693 20.2 0
   vertex 20.193848985178693 20.2 0.24
   vertex 24.193848985178693 20.2 0
  endloop
 endfacet
 facet normal 0.0 1.0 -0.0
  outer loop
   vertex 24.193848985178693 20.2 0
   vertex 20.193848985178693 20.2 0.24
   vertex 24.193848985178693 20.2 0.24
  endloop
 endfacet
 facet normal -0.7071067811865475 -0.7071067811865475 0.0
  outer loop
   vertex 24.193848985178693 20.2 0
   vertex 24.193848985178693 20.2 0.24
   vertex 22.193848985178693 22.2 0
  endloop
 endfacet
 facet normal -0.7071067811865475 -0.7071067811865475 0.0
  outer loop
   vertex 22.193848985178693 22.2 0
   vertex 24.193848985178693 20.2 0.24
   vertex 22.193848985178693 22.2 0.24
  endloop
 endfacet
 facet normal 0.7071067811865475 -0.7071067811865475 0.0
  outer loop
   vertex 22.193848985178693 22.2 0
   vertex 22.193848985178693 22.2 0.24
   vertex 20.193848985178693 20.2 0
  endloop
 endfacet
 facet normal 0.7071067811865475 -0.7071067811865475 0.0
  outer loop
   vertex 20.193848985178693 20.2 0
   vertex 22.193848985178693 22.2 0.24
   vertex 20.193848985178693 20.2 0.24
  endloop
 endfacet
 facet normal 0.0 1.0 0.0
  outer loop
   vertex 5.531843527284948 20.2 0
   vertex 5.531843527284948 20.2 0.24
   vertex 9.531843527284948 20.2 0
  endloop
 endfacet
 facet normal 0.0 1.0 -0.0
  outer loop
   vertex 9.531843527284948 20.2 0
   vertex 5.531843527284948 20.2 0.24
   vertex 9.531843527284948 20.2 0.24
  endloop
 endfacet
 facet normal -0.7071067811865475 -0.7071067811865475 0.0
  outer loop
   vertex 9.531843527284948 20.2 0
   vertex 9.531843527284948 20.2 0.24
   vertex 7.531843527284948 22.2 0
  endloop
 endfacet
 facet normal -0.7071067811865475 -0.7071067811865475 0.0
  outer loop
   vertex 7.531843527284948 22.2 0
   vertex 9.531843527284948 20.2 0.24
   vertex 7.531843527284948 22.2 0.24
  endloop
 endfacet
 facet normal 0.7071067811865475 -0.7071067811865475 0.0
  outer loop
   vertex 7.531843527284948 22.2 0
   vertex 7.531843527284948 22.2 0.24
   vertex 5.531843527284948 20.2 0
  endloop
 endfacet
 facet normal 0.7071067811865475 -0.7071067811865475 0.0
  outer loop
   vertex 5.531843527284948 20.2 0
   vertex 7.531843527284948 22.2 0.24
   vertex 5.531843527284948 20.2 0.24
  endloop
 endfacet
 facet normal 0.9999996829318346 0.000796326710733264 -0.0
  outer loop
   vertex 0.19144453884050466 31.999499365863667 0
   vertex 0.19144453884050466 31.999499365863667 0.24
   vertex 0.19462984568343772 27.99950063413633 0
  endloop
 endfacet
 facet normal 0.9999996829318346 0.000796326710733264 -0.0
  outer loop
   vertex 0.19462984568343772 27.99950063413633 0
   vertex 0.19144453884050466 31.999499365863667 0.24
   vertex 0.19462984568343772 27.99950063413633 0.24
  endloop
 endfacet
 facet normal -0.7076696450026968 0.7065434689682986 0.0
  outer loop
   vertex 0.19462984568343772 27.99950063413633 0
   vertex 0.19462984568343772 27.99950063413633 0.24
   vertex 2.1930365581256406 30.001092653421463 0
  endloop
 endfacet
 facet normal -0.7076696450026968 0.7065434689682986 0.0
  outer loop
   vertex 2.1930365581256406 30.001092653421463 0
   vertex 0.19462984568343772 27.99950063413633 0.24
   vertex 2.1930365581256406 30.001092653421463 0.24
  endloop
 endfacet
 facet normal -0.7065434689682984 -0.707669645002697 0.0
  outer loop
   vertex 2.1930365581256406 30.001092653421463 0
   vertex 2.1930365581256406 30.001092653421463 0.24
   vertex 0.19144453884050466 31.999499365863667 0
  endloop
 endfacet
 facet normal -0.7065434689682984 -0.707669645002697 0.0
  outer loop
   vertex 0.19144453884050466 31.999499365863667 0
   vertex 2.1930365581256406 30.001092653421463 0.24
   vertex 0.19144453884050466 31.999499365863667 0.24
  endloop
 endfacet
 facet normal -0.7068251811053656 -0.7073882691672 0.0
  outer loop
   vertex 16.2286681826801 33.485599637789264 0
   vertex 16.2286681826801 33.485599637789264 0.24
   vertex 13.3991151060113 36.312900362210726 0
  endloop
 endfacet
 facet normal -0.7068251811053656 -0.7073882691672 0.0
  outer loop
   vertex 13.3991151060113 36.312900362210726 0
   vertex 16.2286681826801 33.485599637789264 0.24
   vertex 13.3991151060113 36.312900362210726 0.24
  endloop
 endfacet
 facet normal 0.9999999207329555 0.00039816338692795207 -0.0
  outer loop
   vertex 13.3991151060113 36.312900362210726 0
   vertex 13.3991151060113 36.312900362210726 0.24
   vertex 13.400241282134967 33.484473461665594 0
  endloop
 endfacet
 facet normal 0.9999999207329555 0.00039816338692795207 -0.0
  outer loop
   vertex 13.400241282134967 33.484473461665594 0
   vertex 13.3991151060113 36.312900362210726 0.24
   vertex 13.400241282134967 33.484473461665594 0.24
  endloop
 endfacet
 facet normal -0.00039816338692858004 0.9999999207329555 0.0
  outer loop
   vertex 13.400241282134967 33.484473461665594 0
   vertex 13.400241282134967 33.484473461665594 0.24
   vertex 16.2286681826801 33.485599637789264 0
  endloop
 endfacet
 facet normal -0.00039816338692858004 0.9999999207329555 0.0
  outer loop
   vertex 16.2286681826801 33.485599637789264 0
   vertex 13.400241282134967 33.484473461665594 0.24
   vertex 16.2286681826801 33.485599637789264 0.24
  endloop
 endfacet
 facet normal -0.7068251811053654 -0.7073882691672003 0.0
  outer loop
   vertex 26.035974895866676 23.68609963778927 0
   vertex 26.035974895866676 23.68609963778927 0.24
   vertex 23.206421819197875 26.51340036221073 0
  endloop
 endfacet
 facet normal -0.7068251811053654 -0.7073882691672003 0.0
  outer loop
   vertex 23.206421819197875 26.51340036221073 0
   vertex 26.035974895866676 23.68609963778927 0.24
   vertex 23.206421819197875 26.51340036221073 0.24
  endloop
 endfacet
 facet normal 0.9999999207329555 0.00039816338692858004 -0.0
  outer loop
   vertex 23.206421819197875 26.51340036221073 0
   vertex 23.206421819197875 26.51340036221073 0.24
   vertex 23.207547995321544 23.6849734616656 0
  endloop
 endfacet
 facet normal 0.9999999207329555 0.00039816338692858004 -0.0
  outer loop
   vertex 23.207547995321544 23.6849734616656 0
   vertex 23.206421819197875 26.51340036221073 0.24
   vertex 23.207547995321544 23.6849734616656 0.24
  endloop
 endfacet
 facet normal -0.00039816338692858004 0.9999999207329555 0.0
  outer loop
   vertex 23.207547995321544 23.6849734616656 0
   vertex 23.207547995321544 23.6849734616656 0.24
   vertex 26.035974895866676 23.68609963778927 0
  endloop
 endfacet
 facet normal -0.00039816338692858004 0.9999999207329555 0.0
  outer loop
   vertex 26.035974895866676 23.68609963778927 0
   vertex 23.207547995321544 23.6849734616656 0.24
   vertex 26.035974895866676 23.68609963778927 0.24
  endloop
 endfacet
 facet normal 0.0 0.0 -1.0
  outer loop
   vertex 30.007966440314892 20.0 0
   vertex 40.0 20.0 0
   vertex 39.792629718222 12.00049936586367 0
  endloop
 endfacet
 facet normal 0.0 0.0 -1.0
  outer loop
   vertex 40.0 20.0 0
   vertex 39.98407346073554 0.0 0
   vertex 39.789444411379066 8.000500634136332 0
  endloop
 endfacet
 facet normal 0.0 0.0 -1.0
  outer loop
   vertex 39.98407346073554 0.0 0
   vertex 9.992033559685108 0.0 0
   vertex 30.456462364672944 0.201 0
  endloop
 endfacet
 facet normal 0.0 0.0 -1.0
  outer loop
   vertex 9.992033559685108 0.0 0
   vertex 30.007966440314892 20.0 0
   vertex 16.794578977446154 6.514400362210733 0
  endloop
 endfacet
 facet normal 0.0 0.0 -1.0
  outer loop
   vertex 39.789444411379066 8.000500634136332 0
   vertex 39.792629718222 12.00049936586367 0
   vertex 40.0 20.0 0
  endloop
 endfacet
 facet normal 0.0 -0.0 -1.0
  outer loop
   vertex 39.789444411379066 8.000500634136332 0
   vertex 39.98407346073554 0.0 0
   vertex 34.456462364672944 0.201 0
  endloop
 endfacet
 facet normal 0.0 0.0 -1.0
  outer loop
   vertex 39.789444411379066 8.000500634136332 0
   vertex 34.456462364672944 0.201 0
   vertex 32.456462364672944 2.201 0
  endloop
 endfacet
 facet normal 0.0 0.0 -1.0
  outer loop
   vertex 39.789444411379066 8.000500634136332 0
   vertex 32.456462364672944 2.201 0
   vertex 19.802920176569955 0.201 0
  endloop
 endfacet
 facet normal 0.0 0.0 -1.0
  outer loop
   vertex 39.789444411379066 8.000500634136332 0
   vertex 19.802920176569955 0.201 0
   vertex 17.802920176569955 2.201 0
  endloop
 endfacet
 facet normal 0.0 0.0 -1.0
  outer loop
   vertex 39.789444411379066 8.000500634136332 0
   vertex 16.793452801322488 3.685973461665601 0
   vertex 16.794578977446154 6.514400362210733 0
  endloop
 endfacet
 facet normal 0.0 0.0 -1.0
  outer loop
   vertex 39.789444411379066 8.000500634136332 0
   vertex 17.802920176569955 2.201 0
   vertex 16.793452801322488 3.685973461665601 0
  endloop
 endfacet
 facet normal 0.0 0.0 -1.0
  outer loop
   vertex 39.789444411379066 8.000500634136332 0
   vertex 26.60075951450906 13.485473461665602 0
   vertex 26.60188569063273 16.313900362210735 0
  endloop
 endfacet
 facet normal 0.0 0.0 -1.0
  outer loop
   vertex 39.789444411379066 8.000500634136332 0
   vertex 26.60188569063273 16.313900362210735 0
   vertex 37.79103769893686 10.002092653421467 0
  endloop
 endfacet
 facet normal -0.0 0.0 -1.0
  outer loop
   vertex 39.789444411379066 8.000500634136332 0
   vertex 16.794578977446154 6.514400362210733 0
   vertex 23.77233261396393 13.48659963778927 0
  endloop
 endfacet
 facet normal 0.0 0.0 -1.0
  outer loop
   vertex 39.789444411379066 8.000500634136332 0
   vertex 23.77233261396393 13.48659963778927 0
   vertex 26.60075951450906 13.485473461665602 0
  endloop
 endfacet
 facet normal 0.0 0.0 -1.0
  outer loop
   vertex 39.792629718222 12.00049936586367 0
   vertex 26.60188569063273 16.313900362210735 0
   vertex 30.007966440314892 20.0 0
  endloop
 endfacet
 facet normal -0.0 0.0 -1.0
  outer loop
   vertex 39.792629718222 12.00049936586367 0
   vertex 37.79103769893686 10.002092653421467 0
   vertex 26.60188569063273 16.313900362210735 0
  endloop
 endfacet
 facet normal 0.0 0.0 -1.0
  outer loop
   vertex 30.456462364672944 0.201 0
   vertex 34.456462364672944 0.201 0
   vertex 39.98407346073554 0.0 0
  endloop
 endfacet
 facet normal -0.0 0.0 -1.0
  outer loop
   vertex 30.456462364672944 0.201 0
   vertex 9.992033559685108 0.0 0
   vertex 19.802920176569955 0.201 0
  endloop
 endfacet
 facet normal 0.0 0.0 -1.0
  outer loop
   vertex 30.456462364672944 0.201 0
   vertex 19.802920176569955 0.201 0
   vertex 32.456462364672944 2.201 0
  endloop
 endfacet
 facet normal 0.0 -0.0 -1.0
  outer loop
   vertex 15.802920176569955 0.201 0
   vertex 19.802920176569955 0.201 0
   vertex 9.992033559685108 0.0 0
  endloop
 endfacet
 facet normal -0.0 0.0 -1.0
  outer loop
   vertex 15.802920176569955 0.201 0
   vertex 9.992033559685108 0.0 0
   vertex 13.965025900777356 3.6870996377892684 0
  endloop
 endfacet
 facet normal 0.0 0.0 -1.0
  outer loop
   vertex 15.802920176569955 0.201 0
   vertex 13.965025900777356 3.6870996377892684 0
   vertex 16.793452801322488 3.685973461665601 0
  endloop
 endfacet
 facet normal 0.0 0.0 -1.0
  outer loop
   vertex 15.802920176569955 0.201 0
   vertex 16.793452801322488 3.685973461665601 0
   vertex 17.802920176569955 2.201 0
  endloop
 endfacet
 facet normal 0.0 0.0 -1.0
  outer loop
   vertex 16.794578977446154 6.514400362210733 0
   vertex 30.007966440314892 20.0 0
   vertex 23.77233261396393 13.48659963778927 0
  endloop
 endfacet
 facet normal 0.0 0.0 -1.0
  outer loop
   vertex 16.794578977446154 6.514400362210733 0
   vertex 13.965025900777356 3.6870996377892684 0
   vertex 9.992033559685108 0.0 0
  endloop
 endfacet
 facet normal -0.0 0.0 -1.0
  outer loop
   vertex 26.60188569063273 16.313900362210735 0
   vertex 23.77233261396393 13.48659963778927 0
   vertex 30.007966440314892 20.0 0
  endloop
 endfacet
 facet normal 0.9999996829318346 -0.000796326710733208 0.0
  outer loop
   vertex 39.98407346073554 0.0 0
   vertex 40.0 20.0 0
   vertex 40.0 20.0 0.24
  endloop
 endfacet
 facet normal 0.9999996829318346 -0.000796326710733208 0.0
  outer loop
   vertex 39.98407346073554 0.0 0.24
   vertex 39.98407346073554 0.0 0
   vertex 40.0 20.0 0.24
  endloop
 endfacet
 facet normal 0.0 -1.0 0.0
  outer loop
   vertex 9.992033559685108 0.0 0
   vertex 39.98407346073554 0.0 0
   vertex 39.98407346073554 0.0 0.24
  endloop
 endfacet
 facet normal 0.0 -1.0 0.0
  outer loop
   vertex 9.992033559685108 0.0 0.24
   vertex 9.992033559685108 0.0 0
   vertex 39.98407346073554 0.0 0.24
  endloop
 endfacet
 facet normal -0.0 0.0 1.0
  outer loop
   vertex 30.007966440314892 20.0 0.24
   vertex 39.792629718222 12.00049936586367 0.24
   vertex 40.0 20.0 0.24
  endloop
 endfacet
 facet normal 0.0 0.0 1.0
  outer loop
   vertex 40.0 20.0 0.24
   vertex 39.789444411379066 8.000500634136332 0.24
   vertex 39.98407346073554 0.0 0.24
  endloop
 endfacet
 facet normal 0.0 0.0 1.0
  outer loop
   vertex 39.98407346073554 0.0 0.24
   vertex 30.456462364672944 0.201 0.24
   vertex 9.992033559685108 0.0 0.24
  endloop
 endfacet
 facet normal 0.0 0.0 1.0
  outer loop
   vertex 9.992033559685108 0.0 0.24
   vertex 16.794578977446154 6.514400362210733 0.24
   vertex 30.007966440314892 20.0 0.24
  endloop
 endfacet
 facet normal 0.0 0.0 1.0
  outer loop
   vertex 39.789444411379066 8.000500634136332 0.24
   vertex 40.0 20.0 0.24
   vertex 39.792629718222 12.00049936586367 0.24
  endloop
 endfacet
 facet normal 0.0 0.0 1.0
  outer loop
   vertex 39.789444411379066 8.000500634136332 0.24
   vertex 34.456462364672944 0.201 0.24
   vertex 39.98407346073554 0.0 0.24
  endloop
 endfacet
 facet normal 0.0 0.0 1.0
  outer loop
   vertex 39.789444411379066 8.000500634136332 0.24
   vertex 32.456462364672944 2.201 0.24
   vertex 34.456462364672944 0.201 0.24
  endloop
 endfacet
 facet normal 0.0 0.0 1.0
  outer loop
   vertex 39.789444411379066 8.000500634136332 0.24
   vertex 19.802920176569955 0.201 0.24
   vertex 32.456462364672944 2.201 0.24
  endloop
 endfacet
 facet normal 0.0 0.0 1.0
  outer loop
   vertex 39.789444411379066 8.000500634136332 0.24
   vertex 17.802920176569955 2.201 0.24
   vertex 19.802920176569955 0.201 0.24
  endloop
 endfacet
 facet normal 0.0 0.0 1.0
  outer loop
   vertex 39.789444411379066 8.000500634136332 0.24
   vertex 16.794578977446154 6.514400362210733 0.24
   vertex 16.793452801322488 3.685973461665601 0.24
  endloop
 endfacet
 facet normal 0.0 0.0 1.0
  outer loop
   vertex 39.789444411379066 8.000500634136332 0.24
   vertex 16.793452801322488 3.685973461665601 0.24
   vertex 17.802920176569955 2.201 0.24
  endloop
 endfacet
 facet normal 0.0 0.0 1.0
  outer loop
   vertex 39.789444411379066 8.000500634136332 0.24
   vertex 26.60188569063273 16.313900362210735 0.24
   vertex 26.60075951450906 13.485473461665602 0.24
  endloop
 endfacet
 facet normal 0.0 0.0 1.0
  outer loop
   vertex 39.789444411379066 8.000500634136332 0.24
   vertex 37.79103769893686 10.002092653421467 0.24
   vertex 26.60188569063273 16.313900362210735 0.24
  endloop
 endfacet
 facet normal 0.0 0.0 1.0
  outer loop
   vertex 39.789444411379066 8.000500634136332 0.24
   vertex 23.77233261396393 13.48659963778927 0.24
   vertex 16.794578977446154 6.514400362210733 0.24
  endloop
 endfacet
 facet normal 0.0 0.0 1.0
  outer loop
   vertex 39.789444411379066 8.000500634136332 0.24
   vertex 26.60075951450906 13.485473461665602 0.24
   vertex 23.77233261396393 13.48659963778927 0.24
  endloop
 endfacet
 facet normal 0.0 0.0 1.0
  outer loop
   vertex 39.792629718222 12.00049936586367 0.24
   vertex 30.007966440314892 20.0 0.24
   vertex 26.60188569063273 16.313900362210735 0.24
  endloop
 endfacet
 facet normal 0.0 0.0 1.0
  outer loop
   vertex 39.792629718222 12.00049936586367 0.24
   vertex 26.60188569063273 16.313900362210735 0.24
   vertex 37.79103769893686 10.002092653421467 0.24
  endloop
 endfacet
 facet normal -0.0 0.0 1.0
  outer loop
   vertex 30.456462364672944 0.201 0.24
   vertex 39.98407346073554 0.0 0.24
   vertex 34.456462364672944 0.201 0.24
  endloop
 endfacet
 facet normal 0.0 0.0 1.0
  outer loop
   vertex 30.456462364672944 0.201 0.24
   vertex 19.802920176569955 0.201 0.24
   vertex 9.992033559685108 0.0 0.24
  endloop
 endfacet
 facet normal 0.0 -0.0 1.0
  outer loop
   vertex 30.456462364672944 0.201 0.24
   vertex 32.456462364672944 2.201 0.24
   vertex 19.802920176569955 0.201 0.24
  endloop
 endfacet
 facet normal -0.0 0.0 1.0
  outer loop
   vertex 15.802920176569955 0.201 0.24
   vertex 9.992033559685108 0.0 0.24
   vertex 19.802920176569955 0.201 0.24
  endloop
 endfacet
 facet normal 0.0 0.0 1.0
  outer loop
   vertex 15.802920176569955 0.201 0.24
   vertex 13.965025900777356 3.6870996377892684 0.24
   vertex 9.992033559685108 0.0 0.24
  endloop
 endfacet
 facet normal 0.0 -0.0 1.0
  outer loop
   vertex 15.802920176569955 0.201 0.24
   vertex 16.793452801322488 3.685973461665601 0.24
   vertex 13.965025900777356 3.6870996377892684 0.24
  endloop
 endfacet
 facet normal 0.0 0.0 1.0
  outer loop
   vertex 15.802920176569955 0.201 0.24
   vertex 17.802920176569955 2.201 0.24
   vertex 16.793452801322488 3.685973461665601 0.24
  endloop
 endfacet
 facet normal 0.0 0.0 1.0
  outer loop
   vertex 16.794578977446154 6.514400362210733 0.24
   vertex 23.77233261396393 13.48659963778927 0.24
   vertex 30.007966440314892 20.0 0.24
  endloop
 endfacet
 facet normal 0.0 0.0 1.0
  outer loop
   vertex 16.794578977446154 6.514400362210733 0.24
   vertex 9.992033559685108 0.0 0.24
   vertex 13.965025900777356 3.6870996377892684 0.24
  endloop
 endfacet
 facet normal 0.0 -0.0 1.0
  outer loop
   vertex 26.60188569063273 16.313900362210735 0.24
   vertex 30.007966440314892 20.0 0.24
   vertex 23.77233261396393 13.48659963778927 0.24
  endloop
 endfacet
 facet normal -0.9999996829318346 0.0007963267107342632 0.0
  outer loop
   vertex 39.789444411379066 8.000500634136332 0
   vertex 39.789444411379066 8.000500634136332 0.24
   vertex 39.792629718222 12.00049936586367 0
  endloop
 endfacet
 facet normal -0.9999996829318346 0.0007963267107342632 0.0
  outer loop
   vertex 39.792629718222 12.00049936586367 0
   vertex 39.789444411379066 8.000500634136332 0.24
   vertex 39.792629718222 12.00049936586367 0.24
  endloop
 endfacet
 facet normal 0.7065434689682972 -0.7076696450026981 0.0
  outer loop
   vertex 39.792629718222 12.00049936586367 0
   vertex 39.792629718222 12.00049936586367 0.24
   vertex 37.79103769893686 10.002092653421467 0
  endloop
 endfacet
 facet normal 0.7065434689682972 -0.7076696450026981 0.0
  outer loop
   vertex 37.79103769893686 10.002092653421467 0
   vertex 39.792629718222 12.00049936586367 0.24
   vertex 37.79103769893686 10.002092653421467 0.24
  endloop
 endfacet
 facet normal 0.707669645002697 0.7065434689682984 -0.0
  outer loop
   vertex 37.79103769893686 10.002092653421467 0
   vertex 37.79103769893686 10.002092653421467 0.24
   vertex 39.789444411379066 8.000500634136332 0
  endloop
 endfacet
 facet normal 0.707669645002697 0.7065434689682984 -0.0
  outer loop
   vertex 39.789444411379066 8.000500634136332 0
   vertex 37.79103769893686 10.002092653421467 0.24
   vertex 39.789444411379066 8.000500634136332 0.24
  endloop
 endfacet
 facet normal 0.0 1.0 0.0
  outer loop
   vertex 30.456462364672944 0.201 0
   vertex 30.456462364672944 0.201 0.24
   vertex 34.456462364672944 0.201 0
  endloop
 endfacet
 facet normal 0.0 1.0 -0.0
  outer loop
   vertex 34.456462364672944 0.201 0
   vertex 30.456462364672944 0.201 0.24
   vertex 34.456462364672944 0.201 0.24
  endloop
 endfacet
 facet normal -0.7071067811865475 -0.7071067811865475 0.0
  outer loop
   vertex 34.456462364672944 0.201 0
   vertex 34.456462364672944 0.201 0.24
   vertex 32.456462364672944 2.201 0
  endloop
 endfacet
 facet normal -0.7071067811865475 -0.7071067811865475 0.0
  outer loop
   vertex 32.456462364672944 2.201 0
   vertex 34.456462364672944 0.201 0.24
   vertex 32.456462364672944 2.201 0.24
  endloop
 endfacet
 facet normal 0.7071067811865475 -0.7071067811865475 0.0
  outer loop
   vertex 32.456462364672944 2.201 0
   vertex 32.456462364672944 2.201 0.24
   vertex 30.456462364672944 0.201 0
  endloop
 endfacet
 facet normal 0.7071067811865475 -0.7071067811865475 0.0
  outer loop
   vertex 30.456462364672944 0.201 0
   vertex 32.456462364672944 2.201 0.24
   vertex 30.456462364672944 0.201 0.24
  endloop
 endfacet
 facet normal 0.0 1.0 0.0
  outer loop
   vertex 15.802920176569955 0.201 0
   vertex 15.802920176569955 0.201 0.24
   vertex 19.802920176569955 0.201 0
  endloop
 endfacet
 facet normal 0.0 1.0 -0.0
  outer loop
   vertex 19.802920176569955 0.201 0
   vertex 15.802920176569955 0.201 0.24
   vertex 19.802920176569955 0.201 0.24
  endloop
 endfacet
 facet normal -0.7071067811865475 -0.7071067811865475 0.0
  outer loop
   vertex 19.802920176569955 0.201 0
   vertex 19.802920176569955 0.201 0.24
   vertex 17.802920176569955 2.201 0
  endloop
 endfacet
 facet normal -0.7071067811865475 -0.7071067811865475 0.0
  outer loop
   vertex 17.802920176569955 2.201 0
   vertex 19.802920176569955 0.201 0.24
   vertex 17.802920176569955 2.201 0.24
  endloop
 endfacet
 facet normal 0.7071067811865475 -0.7071067811865475 0.0
  outer loop
   vertex 17.802920176569955 2.201 0
   vertex 17.802920176569955 2.201 0.24
   vertex 15.802920176569955 0.201 0
  endloop
 endfacet
 facet normal 0.7071067811865475 -0.7071067811865475 0.0
  outer loop
   vertex 15.802920176569955 0.201 0
   vertex 17.802920176569955 2.201 0.24
   vertex 15.802920176569955 0.201 0.24
  endloop
 endfacet
 facet normal 0.7068251811053661 -0.7073882691671995 0.0
  outer loop
   vertex 16.794578977446154 6.514400362210733 0
   vertex 16.794578977446154 6.514400362210733 0.24
   vertex 13.965025900777356 3.6870996377892684 0
  endloop
 endfacet
 facet normal 0.7068251811053661 -0.7073882691671995 0.0
  outer loop
   vertex 13.965025900777356 3.6870996377892684 0
   vertex 16.794578977446154 6.514400362210733 0.24
   vertex 13.965025900777356 3.6870996377892684 0.24
  endloop
 endfacet
 facet normal 0.0003981633869277951 0.9999999207329555 -0.0
  outer loop
   vertex 13.965025900777356 3.6870996377892684 0
   vertex 13.965025900777356 3.6870996377892684 0.24
   vertex 16.793452801322488 3.685973461665601 0
  endloop
 endfacet
 facet normal 0.0003981633869277951 0.9999999207329555 -0.0
  outer loop
   vertex 16.793452801322488 3.685973461665601 0
   vertex 13.965025900777356 3.6870996377892684 0.24
   vertex 16.793452801322488 3.685973461665601 0.24
  endloop
 endfacet
 facet normal -0.9999999207329555 0.0003981633869273241 0.0
  outer loop
   vertex 16.793452801322488 3.685973461665601 0
   vertex 16.793452801322488 3.685973461665601 0.24
   vertex 16.794578977446154 6.514400362210733 0
  endloop
 endfacet
 facet normal -0.9999999207329555 0.0003981633869273241 0.0
  outer loop
   vertex 16.794578977446154 6.514400362210733 0
   vertex 16.793452801322488 3.685973461665601 0.24
   vertex 16.794578977446154 6.514400362210733 0.24
  endloop
 endfacet
 facet normal 0.7068251811053656 -0.7073882691672001 0.0
  outer loop
   vertex 26.60188569063273 16.313900362210735 0
   vertex 26.60188569063273 16.313900362210735 0.24
   vertex 23.77233261396393 13.48659963778927 0
  endloop
 endfacet
 facet normal 0.7068251811053656 -0.7073882691672001 0.0
  outer loop
   vertex 23.77233261396393 13.48659963778927 0
   vertex 26.60188569063273 16.313900362210735 0.24
   vertex 23.77233261396393 13.48659963778927 0.24
  endloop
 endfacet
 facet normal 0.00039816338692795207 0.9999999207329555 -0.0
  outer loop
   vertex 23.77233261396393 13.48659963778927 0
   vertex 23.77233261396393 13.48659963778927 0.24
   vertex 26.60075951450906 13.485473461665602 0
  endloop
 endfacet
 facet normal 0.00039816338692795207 0.9999999207329555 -0.0
  outer loop
   vertex 26.60075951450906 13.485473461665602 0
   vertex 23.77233261396393 13.48659963778927 0.24
   vertex 26.60075951450906 13.485473461665602 0.24
  endloop
 endfacet
 facet normal -0.9999999207329555 0.00039816338692858004 0.0
  outer loop
   vertex 26.60075951450906 13.485473461665602 0
   vertex 26.60075951450906 13.485473461665602 0.24
   vertex 26.60188569063273 16.313900362210735 0
  endloop
 endfacet
 facet normal -0.9999999207329555 0.00039816338692858004 0.0
  outer loop
   vertex 26.60188569063273 16.313900362210735 0
   vertex 26.60075951450906 13.485473461665602 0.24
   vertex 26.60188569063273 16.313900362210735 0.24
  endloop
 endfacet
 facet normal 0.0 0.0 -1.0
  outer loop
   vertex 40.0 20.0 0
   vertex 30.007966440314892 20.0 0
   vertex 26.60188569063273 23.68609963778927 0
  endloop
 endfacet
 facet normal 0.0 0.0 -1.0
  outer loop
   vertex 30.007966440314892 20.0 0
   vertex 9.992033559685108 40.0 0
   vertex 23.77233261396393 26.51340036221073 0
  endloop
 endfacet
 facet normal 0.0 0.0 -1.0
  outer loop
   vertex 9.992033559685108 40.0 0
   vertex 39.98407346073554 40.0 0
   vertex 19.802920176569955 39.799 0
  endloop
 endfacet
 facet normal 0.0 -0.0 -1.0
  outer loop
   vertex 39.98407346073554 40.0 0
   vertex 40.0 20.0 0
   vertex 39.792629718222 27.99950063413633 0
  endloop
 endfacet
 facet normal 0.0 0.0 -1.0
  outer loop
   vertex 23.77233261396393 26.51340036221073 0
   vertex 26.60188569063273 23.68609963778927 0
   vertex 30.007966440314892 20.0 0
  endloop
 endfacet
 facet normal 0.0 0.0 -1.0
  outer loop
   vertex 23.77233261396393 26.51340036221073 0
   vertex 9.992033559685108 40.0 0
   vertex 16.794578977446154 33.485599637789264 0
  endloop
 endfacet
 facet normal 0.0 0.0 -1.0
  outer loop
   vertex 23.77233261396393 26.51340036221073 0
   vertex 34.45646236467294 39.799 0
   vertex 39.98407346073554 40.0 0
  endloop
 endfacet
 facet normal 0.0 0.0 -1.0
  outer loop
   vertex 23.77233261396393 26.51340036221073 0
   vertex 39.98407346073554 40.0 0
   vertex 39.789444411379066 31.999499365863667 0
  endloop
 endfacet
 facet normal 0.0 0.0 -1.0
  outer loop
   vertex 23.77233261396393 26.51340036221073 0
   vertex 16.794578977446154 33.485599637789264 0
   vertex 16.793452801322484 36.314026538334396 0
  endloop
 endfacet
 facet normal 0.0 0.0 -1.0
  outer loop
   vertex 23.77233261396393 26.51340036221073 0
   vertex 17.802920176569955 37.799 0
   vertex 19.802920176569955 39.799 0
  endloop
 endfacet
 facet normal 0.0 0.0 -1.0
  outer loop
   vertex 23.77233261396393 26.51340036221073 0
   vertex 16.793452801322484 36.314026538334396 0
   vertex 15.802920176569955 39.799 0
  endloop
 endfacet
 facet normal 0.0 0.0 -1.0
  outer loop
   vertex 23.77233261396393 26.51340036221073 0
   vertex 15.802920176569955 39.799 0
   vertex 17.802920176569955 37.799 0
  endloop
 endfacet
 facet normal 0.0 0.0 -1.0
  outer loop
   vertex 23.77233261396393 26.51340036221073 0
   vertex 32.45646236467294 37.799 0
   vertex 34.45646236467294 39.799 0
  endloop
 endfacet
 facet normal 0.0 0.0 -1.0
  outer loop
   vertex 23.77233261396393 26.51340036221073 0
   vertex 19.802920176569955 39.799 0
   vertex 30.456462364672937 39.799 0
  endloop
 endfacet
 facet normal 0.0 0.0 -1.0
  outer loop
   vertex 23.77233261396393 26.51340036221073 0
   vertex 30.456462364672937 39.799 0
   vertex 32.45646236467294 37.799 0
  endloop
 endfacet
 facet normal 0.0 0.0 -1.0
  outer loop
   vertex 23.77233261396393 26.51340036221073 0
   vertex 37.79103769893686 29.997907346578533 0
   vertex 39.792629718222 27.99950063413633 0
  endloop
 endfacet
 facet normal 0.0 0.0 -1.0
  outer loop
   vertex 23.77233261396393 26.51340036221073 0
   vertex 39.792629718222 27.99950063413633 0
   vertex 26.60075951450906 26.5145265383344 0
  endloop
 endfacet
 facet normal 0.0 0.0 -1.0
  outer loop
   vertex 23.77233261396393 26.51340036221073 0
   vertex 39.789444411379066 31.999499365863667 0
   vertex 37.79103769893686 29.997907346578533 0
  endloop
 endfacet
 facet normal 0.0 0.0 -1.0
  outer loop
   vertex 26.60188569063273 23.68609963778927 0
   vertex 39.792629718222 27.99950063413633 0
   vertex 40.0 20.0 0
  endloop
 endfacet
 facet normal 0.0 0.0 -1.0
  outer loop
   vertex 26.60188569063273 23.68609963778927 0
   vertex 26.60075951450906 26.5145265383344 0
   vertex 39.792629718222 27.99950063413633 0
  endloop
 endfacet
 facet normal -0.0 -0.0 -1.0
  outer loop
   vertex 13.965025900777354 36.312900362210726 0
   vertex 16.794578977446154 33.485599637789264 0
   vertex 9.992033559685108 40.0 0
  endloop
 endfacet
 facet normal 0.0 0.0 -1.0
  outer loop
   vertex 13.965025900777354 36.312900362210726 0
   vertex 9.992033559685108 40.0 0
   vertex 15.802920176569955 39.799 0
  endloop
 endfacet
 facet normal 0.0 0.0 -1.0
  outer loop
   vertex 13.965025900777354 36.312900362210726 0
   vertex 15.802920176569955 39.799 0
   vertex 16.793452801322484 36.314026538334396 0
  endloop
 endfacet
 facet normal 0.0 0.0 -1.0
  outer loop
   vertex 19.802920176569955 39.799 0
   vertex 15.802920176569955 39.799 0
   vertex 9.992033559685108 40.0 0
  endloop
 endfacet
 facet normal 0.0 0.0 -1.0
  outer loop
   vertex 19.802920176569955 39.799 0
   vertex 39.98407346073554 40.0 0
   vertex 30.456462364672937 39.799 0
  endloop
 endfacet
 facet normal 0.0 0.0 -1.0
  outer loop
   vertex 34.45646236467294 39.799 0
   vertex 30.456462364672937 39.799 0
   vertex 39.98407346073554 40.0 0
  endloop
 endfacet
 facet normal 0.0 0.0 -1.0
  outer loop
   vertex 39.792629718222 27.99950063413633 0
   vertex 39.789444411379066 31.999499365863667 0
   vertex 39.98407346073554 40.0 0
  endloop
 endfacet
 facet normal 0.0 1.0 0.0
  outer loop
   vertex 39.98407346073554 40.0 0
   vertex 9.992033559685108 40.0 0
   vertex 9.992033559685108 40.0 0.24
  endloop
 endfacet
 facet normal 0.0 1.0 0.0
  outer loop
   vertex 39.98407346073554 40.0 0.24
   vertex 39.98407346073554 40.0 0
   vertex 9.992033559685108 40.0 0.24
  endloop
 endfacet
 facet normal 0.9999996829318346 0.000796326710733208 0.0
  outer loop
   vertex 40.0 20.0 0
   vertex 39.98407346073554 40.0 0
   vertex 39.98407346073554 40.0 0.24
  endloop
 endfacet
 facet normal 0.9999996829318346 0.000796326710733208 0.0
  outer loop
   vertex 40.0 20.0 0.24
   vertex 40.0 20.0 0
   vertex 39.98407346073554 40.0 0.24
  endloop
 endfacet
 facet normal 0.0 0.0 1.0
  outer loop
   vertex 40.0 20.0 0.24
   vertex 26.60188569063273 23.68609963778927 0.24
   vertex 30.007966440314892 20.0 0.24
  endloop
 endfacet
 facet normal 0.0 0.0 1.0
  outer loop
   vertex 30.007966440314892 20.0 0.24
   vertex 23.77233261396393 26.51340036221073 0.24
   vertex 9.992033559685108 40.0 0.24
  endloop
 endfacet
 facet normal -0.0 0.0 1.0
  outer loop
   vertex 9.992033559685108 40.0 0.24
   vertex 19.802920176569955 39.799 0.24
   vertex 39.98407346073554 40.0 0.24
  endloop
 endfacet
 facet normal 0.0 0.0 1.0
  outer loop
   vertex 39.98407346073554 40.0 0.24
   vertex 39.792629718222 27.99950063413633 0.24
   vertex 40.0 20.0 0.24
  endloop
 endfacet
 facet normal 0.0 0.0 1.0
  outer loop
   vertex 23.77233261396393 26.51340036221073 0.24
   vertex 30.007966440314892 20.0 0.24
   vertex 26.60188569063273 23.68609963778927 0.24
  endloop
 endfacet
 facet normal 0.0 0.0 1.0
  outer loop
   vertex 23.77233261396393 26.51340036221073 0.24
   vertex 16.794578977446154 33.485599637789264 0.24
   vertex 9.992033559685108 40.0 0.24
  endloop
 endfacet
 facet normal 0.0 0.0 1.0
  outer loop
   vertex 23.77233261396393 26.51340036221073 0.24
   vertex 39.98407346073554 40.0 0.24
   vertex 34.45646236467294 39.799 0.24
  endloop
 endfacet
 facet normal 0.0 0.0 1.0
  outer loop
   vertex 23.77233261396393 26.51340036221073 0.24
   vertex 39.789444411379066 31.999499365863667 0.24
   vertex 39.98407346073554 40.0 0.24
  endloop
 endfacet
 facet normal 0.0 0.0 1.0
  outer loop
   vertex 23.77233261396393 26.51340036221073 0.24
   vertex 16.793452801322484 36.314026538334396 0.24
   vertex 16.794578977446154 33.485599637789264 0.24
  endloop
 endfacet
 facet normal 0.0 0.0 1.0
  outer loop
   vertex 23.77233261396393 26.51340036221073 0.24
   vertex 19.802920176569955 39.799 0.24
   vertex 17.802920176569955 37.799 0.24
  endloop
 endfacet
 facet normal 0.0 0.0 1.0
  outer loop
   vertex 23.77233261396393 26.51340036221073 0.24
   vertex 15.802920176569955 39.799 0.24
   vertex 16.793452801322484 36.314026538334396 0.24
  endloop
 endfacet
 facet normal 0.0 0.0 1.0
  outer loop
   vertex 23.77233261396393 26.51340036221073 0.24
   vertex 17.802920176569955 37.799 0.24
   vertex 15.802920176569955 39.799 0.24
  endloop
 endfacet
 facet normal 0.0 0.0 1.0
  outer loop
   vertex 23.77233261396393 26.51340036221073 0.24
   vertex 34.45646236467294 39.799 0.24
   vertex 32.45646236467294 37.799 0.24
  endloop
 endfacet
 facet normal 0.0 -0.0 1.0
  outer loop
   vertex 23.77233261396393 26.51340036221073 0.24
   vertex 30.456462364672937 39.799 0.24
   vertex 19.802920176569955 39.799 0.24
  endloop
 endfacet
 facet normal 0.0 0.0 1.0
  outer loop
   vertex 23.77233261396393 26.51340036221073 0.24
   vertex 32.45646236467294 37.799 0.24
   vertex 30.456462364672937 39.799 0.24
  endloop
 endfacet
 facet normal 0.0 0.0 1.0
  outer loop
   vertex 23.77233261396393 26.51340036221073 0.24
   vertex 39.792629718222 27.99950063413633 0.24
   vertex 37.79103769893686 29.997907346578533 0.24
  endloop
 endfacet
 facet normal 0.0 0.0 1.0
  outer loop
   vertex 23.77233261396393 26.51340036221073 0.24
   vertex 26.60075951450906 26.5145265383344 0.24
   vertex 39.792629718222 27.99950063413633 0.24
  endloop
 endfacet
 facet normal 0.0 0.0 1.0
  outer loop
   vertex 23.77233261396393 26.51340036221073 0.24
   vertex 37.79103769893686 29.997907346578533 0.24
   vertex 39.789444411379066 31.999499365863667 0.24
  endloop
 endfacet
 facet normal -0.0 0.0 1.0
  outer loop
   vertex 26.60188569063273 23.68609963778927 0.24
   vertex 40.0 20.0 0.24
   vertex 39.792629718222 27.99950063413633 0.24
  endloop
 endfacet
 facet normal 0.0 -0.0 1.0
  outer loop
   vertex 26.60188569063273 23.68609963778927 0.24
   vertex 39.792629718222 27.99950063413633 0.24
   vertex 26.60075951450906 26.5145265383344 0.24
  endloop
 endfacet
 facet normal 0.0 0.0 1.0
  outer loop
   vertex 13.965025900777354 36.312900362210726 0.24
   vertex 9.992033559685108 40.0 0.24
   vertex 16.794578977446154 33.485599637789264 0.24
  endloop
 endfacet
 facet normal 0.0 -0.0 1.0
  outer loop
   vertex 13.965025900777354 36.312900362210726 0.24
   vertex 15.802920176569955 39.799 0.24
   vertex 9.992033559685108 40.0 0.24
  endloop
 endfacet
 facet normal 0.0 0.0 1.0
  outer loop
   vertex 13.965025900777354 36.312900362210726 0.24
   vertex 16.793452801322484 36.314026538334396 0.24
   vertex 15.802920176569955 39.799 0.24
  endloop
 endfacet
 facet normal 0.0 0.0 1.0
  outer loop
   vertex 19.802920176569955 39.799 0.24
   vertex 9.992033559685108 40.0 0.24
   vertex 15.802920176569955 39.799 0.24
  endloop
 endfacet
 facet normal 0.0 0.0 1.0
  outer loop
   vertex 19.802920176569955 39.799 0.24
   vertex 30.456462364672937 39.799 0.24
   vertex 39.98407346073554 40.0 0.24
  endloop
 endfacet
 facet normal 0.0 -0.0 1.0
  outer loop
   vertex 34.45646236467294 39.799 0.24
   vertex 39.98407346073554 40.0 0.24
   vertex 30.456462364672937 39.799 0.24
  endloop
 endfacet
 facet normal 0.0 -0.0 1.0
  outer loop
   vertex 39.792629718222 27.99950063413633 0.24
   vertex 39.98407346073554 40.0 0.24
   vertex 39.789444411379066 31.999499365863667 0.24
  endloop
 endfacet
 facet normal 0.7068251811053654 0.7073882691672003 -0.0
  outer loop
   vertex 23.77233261396393 26.51340036221073 0
   vertex 23.77233261396393 26.51340036221073 0.24
   vertex 26.60188569063273 23.68609963778927 0
  endloop
 endfacet
 facet normal 0.7068251811053654 0.7073882691672003 -0.0
  outer loop
   vertex 26.60188569063273 23.68609963778927 0
   vertex 23.77233261396393 26.51340036221073 0.24
   vertex 26.60188569063273 23.68609963778927 0.24
  endloop
 endfacet
 facet normal -0.9999999207329555 -0.00039816338692858004 0.0
  outer loop
   vertex 26.60188569063273 23.68609963778927 0
   vertex 26.60188569063273 23.68609963778927 0.24
   vertex 26.60075951450906 26.5145265383344 0
  endloop
 endfacet
 facet normal -0.9999999207329555 -0.00039816338692858004 0.0
  outer loop
   vertex 26.60075951450906 26.5145265383344 0
   vertex 26.60188569063273 23.68609963778927 0.24
   vertex 26.60075951450906 26.5145265383344 0.24
  endloop
 endfacet
 facet normal 0.00039816338692858004 -0.9999999207329555 0.0
  outer loop
   vertex 26.60075951450906 26.5145265383344 0
   vertex 26.60075951450906 26.5145265383344 0.24
   vertex 23.77233261396393 26.51340036221073 0
  endloop
 endfacet
 facet normal 0.00039816338692858004 -0.9999999207329555 0.0
  outer loop
   vertex 23.77233261396393 26.51340036221073 0
   vertex 26.60075951450906 26.5145265383344 0.24
   vertex 23.77233261396393 26.51340036221073 0.24
  endloop
 endfacet
 facet normal 0.7068251811053656 0.7073882691672 -0.0
  outer loop
   vertex 13.965025900777354 36.312900362210726 0
   vertex 13.965025900777354 36.312900362210726 0.24
   vertex 16.794578977446154 33.485599637789264 0
  endloop
 endfacet
 facet normal 0.7068251811053656 0.7073882691672 -0.0
  outer loop
   vertex 16.794578977446154 33.485599637789264 0
   vertex 13.965025900777354 36.312900362210726 0.24
   vertex 16.794578977446154 33.485599637789264 0.24
  endloop
 endfacet
 facet normal -0.9999999207329555 -0.00039816338692858004 0.0
  outer loop
   vertex 16.794578977446154 33.485599637789264 0
   vertex 16.794578977446154 33.485599637789264 0.24
   vertex 16.793452801322484 36.314026538334396 0
  endloop
 endfacet
 facet normal -0.9999999207329555 -0.00039816338692858004 0.0
  outer loop
   vertex 16.793452801322484 36.314026538334396 0
   vertex 16.794578977446154 33.485599637789264 0.24
   vertex 16.793452801322484 36.314026538334396 0.24
  endloop
 endfacet
 facet normal 0.0003981633869285803 -0.9999999207329555 0.0
  outer loop
   vertex 16.793452801322484 36.314026538334396 0
   vertex 16.793452801322484 36.314026538334396 0.24
   vertex 13.965025900777354 36.312900362210726 0
  endloop
 endfacet
 facet normal 0.0003981633869285803 -0.9999999207329555 0.0
  outer loop
   vertex 13.965025900777354 36.312900362210726 0
   vertex 16.793452801322484 36.314026538334396 0.24
   vertex 13.965025900777354 36.312900362210726 0.24
  endloop
 endfacet
 facet normal 0.0 -1.0 0.0
  outer loop
   vertex 19.802920176569955 39.799 0
   vertex 19.802920176569955 39.799 0.24
   vertex 15.802920176569955 39.799 0
  endloop
 endfacet
 facet normal 0.0 -1.0 0.0
  outer loop
   vertex 15.802920176569955 39.799 0
   vertex 19.802920176569955 39.799 0.24
   vertex 15.802920176569955 39.799 0.24
  endloop
 endfacet
 facet normal 0.7071067811865475 0.7071067811865475 -0.0
  outer loop
   vertex 15.802920176569955 39.799 0
   vertex 15.802920176569955 39.799 0.24
   vertex 17.802920176569955 37.799 0
  endloop
 endfacet
 facet normal 0.7071067811865475 0.7071067811865475 -0.0
  outer loop
   vertex 17.802920176569955 37.799 0
   vertex 15.802920176569955 39.799 0.24
   vertex 17.802920176569955 37.799 0.24
  endloop
 endfacet
 facet normal -0.7071067811865475 0.7071067811865475 0.0
  outer loop
   vertex 17.802920176569955 37.799 0
   vertex 17.802920176569955 37.799 0.24
   vertex 19.802920176569955 39.799 0
  endloop
 endfacet
 facet normal -0.7071067811865475 0.7071067811865475 0.0
  outer loop
   vertex 19.802920176569955 39.799 0
   vertex 17.802920176569955 37.799 0.24
   vertex 19.802920176569955 39.799 0.24
  endloop
 endfacet
 facet normal 0.0 -1.0 0.0
  outer loop
   vertex 34.45646236467294 39.799 0
   vertex 34.45646236467294 39.799 0.24
   vertex 30.456462364672937 39.799 0
  endloop
 endfacet
 facet normal 0.0 -1.0 0.0
  outer loop
   vertex 30.456462364672937 39.799 0
   vertex 34.45646236467294 39.799 0.24
   vertex 30.456462364672937 39.799 0.24
  endloop
 endfacet
 facet normal 0.7071067811865475 0.7071067811865475 -0.0
  outer loop
   vertex 30.456462364672937 39.799 0
   vertex 30.456462364672937 39.799 0.24
   vertex 32.45646236467294 37.799 0
  endloop
 endfacet
 facet normal 0.7071067811865475 0.7071067811865475 -0.0
  outer loop
   vertex 32.45646236467294 37.799 0
   vertex 30.456462364672937 39.799 0.24
   vertex 32.45646236467294 37.799 0.24
  endloop
 endfacet
 facet normal -0.7071067811865475 0.7071067811865475 0.0
  outer loop
   vertex 32.45646236467294 37.799 0
   vertex 32.45646236467294 37.799 0.24
   vertex 34.45646236467294 39.799 0
  endloop
 endfacet
 facet normal -0.7071067811865475 0.7071067811865475 0.0
  outer loop
   vertex 34.45646236467294 39.799 0
   vertex 32.45646236467294 37.799 0.24
   vertex 34.45646236467294 39.799 0.24
  endloop
 endfacet
 facet normal -0.9999996829318346 -0.0007963267107342632 0.0
  outer loop
   vertex 39.792629718222 27.99950063413633 0
   vertex 39.792629718222 27.99950063413633 0.24
   vertex 39.789444411379066 31.999499365863667 0
  endloop
 endfacet
 facet normal -0.9999996829318346 -0.0007963267107342632 0.0
  outer loop
   vertex 39.789444411379066 31.999499365863667 0
   vertex 39.792629718222 27.99950063413633 0.24
   vertex 39.789444411379066 31.999499365863667 0.24
  endloop
 endfacet
 facet normal 0.7076696450026967 -0.7065434689682988 0.0
  outer loop
   vertex 39.789444411379066 31.999499365863667 0
   vertex 39.789444411379066 31.999499365863667 0.24
   vertex 37.79103769893686 29.997907346578533 0
  endloop
 endfacet
 facet normal 0.7076696450026967 -0.7065434689682988 0.0
  outer loop
   vertex 37.79103769893686 29.997907346578533 0
   vertex 39.789444411379066 31.999499365863667 0.24
   vertex 37.79103769893686 29.997907346578533 0.24
  endloop
 endfacet
 facet normal 0.7065434689682975 0.7076696450026978 -0.0
  outer loop
   vertex 37.79103769893686 29.997907346578533 0
   vertex 37.79103769893686 29.997907346578533 0.24
   vertex 39.792629718222 27.99950063413633 0
  endloop
 endfacet
 facet normal 0.7065434689682975 0.7076696450026978 -0.0
  outer loop
   vertex 39.792629718222 27.99950063413633 0
   vertex 37.79103769893686 29.997907346578533 0.24
   vertex 39.792629718222 27.99950063413633 0.24
  endloop
 endfacet
endsolid
