solid PyGamic generated __All_Crease__ SLA File
 facet normal -0.0 0.0 -1.0
  outer loop
   vertex 36.91456085961897 29.899999999999995 0
   vertex -0.0002741228240888458 29.89999999999999 0
   vertex 18.47560078588866 31.498399999999993 0
  endloop
 endfacet
 facet normal 0.0 0.0 -1.0
  outer loop
   vertex -0.0002741228240888458 29.89999999999999 0
   vertex 18.438685950906223 31.498399999999993 0
   vertex 18.47560078588866 31.498399999999993 0
  endloop
 endfacet
 facet normal 0.0 0.0 -1.0
  outer loop
   vertex -0.0002741228240888458 29.89999999999999 0
   vertex -0.00027412282408884015 33.099999999999994 0
   vertex 18.438685950906223 31.498399999999993 0
  endloop
 endfacet
 facet normal 0.0 0.0 -1.0
  outer loop
   vertex -0.00027412282408884015 33.099999999999994 0
   vertex 18.43868595090622 31.501599999999993 0
   vertex 18.438685950906223 31.498399999999993 0
  endloop
 endfacet
 facet normal 0.0 0.0 -1.0
  outer loop
   vertex -0.00027412282408884015 33.099999999999994 0
   vertex 36.914560859618966 33.099999999999994 0
   vertex 18.43868595090622 31.501599999999993 0
  endloop
 endfacet
 facet normal 0.0 0.0 -1.0
  outer loop
   vertex 36.914560859618966 33.099999999999994 0
   vertex 18.475600785888663 31.501599999999996 0
   vertex 18.43868595090622 31.501599999999993 0
  endloop
 endfacet
 facet normal 0.0 -0.0 -1.0
  outer loop
   vertex 36.914560859618966 33.099999999999994 0
   vertex 36.91456085961897 29.899999999999995 0
   vertex 18.475600785888663 31.501599999999996 0
  endloop
 endfacet
 facet normal 0.0 0.0 -1.0
  outer loop
   vertex 36.91456085961897 29.899999999999995 0
   vertex 18.47560078588866 31.498399999999993 0
   vertex 18.475600785888663 31.501599999999996 0
  endloop
 endfacet
 facet normal 9.624081160027385e-17 -1.0 0.0
  outer loop
   vertex -0.0002741228240888458 29.89999999999999 0
   vertex 36.91456085961897 29.899999999999995 0
   vertex 36.91456085961897 29.899999999999995 0.4
  endloop
 endfacet
 facet normal 9.624081160027385e-17 -1.0 0.0
  outer loop
   vertex -0.0002741228240888458 29.89999999999999 0.4
   vertex -0.0002741228240888458 29.89999999999999 0
   vertex 36.91456085961897 29.899999999999995 0.4
  endloop
 endfacet
 facet normal -1.0 1.761828530288943e-18 0.0
  outer loop
   vertex -0.00027412282408884015 33.099999999999994 0
   vertex -0.0002741228240888458 29.89999999999999 0
   vertex -0.0002741228240888458 29.89999999999999 0.4
  endloop
 endfacet
 facet normal -1.0 1.761828530288943e-18 0.0
  outer loop
   vertex -0.00027412282408884015 33.099999999999994 0.4
   vertex -0.00027412282408884015 33.099999999999994 0
   vertex -0.0002741228240888458 29.89999999999999 0.4
  endloop
 endfacet
 facet normal 0.0 1.0 0.0
  outer loop
   vertex 36.914560859618966 33.099999999999994 0
   vertex -0.00027412282408884015 33.099999999999994 0
   vertex -0.00027412282408884015 33.099999999999994 0.4
  endloop
 endfacet
 facet normal 0.0 1.0 0.0
  outer loop
   vertex 36.914560859618966 33.099999999999994 0.4
   vertex 36.914560859618966 33.099999999999994 0
   vertex -0.00027412282408884015 33.099999999999994 0.4
  endloop
 endfacet
 facet normal 1.0 2.2204460492503135e-15 0.0
  outer loop
   vertex 36.91456085961897 29.899999999999995 0
   vertex 36.914560859618966 33.099999999999994 0
   vertex 36.914560859618966 33.099999999999994 0.4
  endloop
 endfacet
 facet normal 1.0 2.2204460492503135e-15 0.0
  outer loop
   vertex 36.91456085961897 29.899999999999995 0.4
   vertex 36.91456085961897 29.899999999999995 0
   vertex 36.914560859618966 33.099999999999994 0.4
  endloop
 endfacet
 facet normal 0.0 1.0 -0.0
  outer loop
   vertex 18.47560078588866 31.498399999999993 0
   vertex 18.438685950906223 31.498399999999993 0
   vertex 18.47560078588866 31.498399999999993 0.4
  endloop
 endfacet
 facet normal 0.0 1.0 0.0
  outer loop
   vertex 18.438685950906223 31.498399999999993 0
   vertex 18.438685950906223 31.498399999999993 0.4
   vertex 18.47560078588866 31.498399999999993 0.4
  endloop
 endfacet
 facet normal 1.0 1.1102230246252787e-12 -0.0
  outer loop
   vertex 18.438685950906223 31.498399999999993 0
   vertex 18.43868595090622 31.501599999999993 0
   vertex 18.438685950906223 31.498399999999993 0.4
  endloop
 endfacet
 facet normal 1.0 1.1102230246252787e-12 -0.0
  outer loop
   vertex 18.43868595090622 31.501599999999993 0
   vertex 18.43868595090622 31.501599999999993 0.4
   vertex 18.438685950906223 31.498399999999993 0.4
  endloop
 endfacet
 facet normal 9.624081160027264e-14 -1.0 0.0
  outer loop
   vertex 18.43868595090622 31.501599999999993 0
   vertex 18.475600785888663 31.501599999999996 0
   vertex 18.43868595090622 31.501599999999993 0.4
  endloop
 endfacet
 facet normal 9.624081160027264e-14 -1.0 0.0
  outer loop
   vertex 18.475600785888663 31.501599999999996 0
   vertex 18.475600785888663 31.501599999999996 0.4
   vertex 18.43868595090622 31.501599999999993 0.4
  endloop
 endfacet
 facet normal -1.0 1.1102230246240462e-12 0.0
  outer loop
   vertex 18.475600785888663 31.501599999999996 0
   vertex 18.47560078588866 31.498399999999993 0
   vertex 18.475600785888663 31.501599999999996 0.4
  endloop
 endfacet
 facet normal -1.0 1.1102230246240462e-12 0.0
  outer loop
   vertex 18.47560078588866 31.498399999999993 0
   vertex 18.47560078588866 31.498399999999993 0.4
   vertex 18.475600785888663 31.501599999999996 0.4
  endloop
 endfacet
 facet normal 0.0 0.0 1.0
  outer loop
   vertex -0.0002741228240888458 29.89999999999999 0.4
   vertex 36.91456085961897 29.899999999999995 0.4
   vertex 18.47560078588866 31.498399999999993 0.4
  endloop
 endfacet
 facet normal -0.0 0.0 1.0
  outer loop
   vertex 18.438685950906223 31.498399999999993 0.4
   vertex -0.0002741228240888458 29.89999999999999 0.4
   vertex 18.47560078588866 31.498399999999993 0.4
  endloop
 endfacet
 facet normal 0.0 0.0 1.0
  outer loop
   vertex -0.00027412282408884015 33.099999999999994 0.4
   vertex -0.0002741228240888458 29.89999999999999 0.4
   vertex 18.438685950906223 31.498399999999993 0.4
  endloop
 endfacet
 facet normal 0.0 0.0 1.0
  outer loop
   vertex 18.43868595090622 31.501599999999993 0.4
   vertex -0.00027412282408884015 33.099999999999994 0.4
   vertex 18.438685950906223 31.498399999999993 0.4
  endloop
 endfacet
 facet normal 0.0 0.0 1.0
  outer loop
   vertex 36.914560859618966 33.099999999999994 0.4
   vertex -0.00027412282408884015 33.099999999999994 0.4
   vertex 18.43868595090622 31.501599999999993 0.4
  endloop
 endfacet
 facet normal 0.0 -0.0 1.0
  outer loop
   vertex 18.475600785888663 31.501599999999996 0.4
   vertex 36.914560859618966 33.099999999999994 0.4
   vertex 18.43868595090622 31.501599999999993 0.4
  endloop
 endfacet
 facet normal 0.0 0.0 1.0
  outer loop
   vertex 36.91456085961897 29.899999999999995 0.4
   vertex 36.914560859618966 33.099999999999994 0.4
   vertex 18.475600785888663 31.501599999999996 0.4
  endloop
 endfacet
 facet normal -0.0 0.0 1.0
  outer loop
   vertex 18.47560078588866 31.498399999999993 0.4
   vertex 36.91456085961897 29.899999999999995 0.4
   vertex 18.475600785888663 31.501599999999996 0.4
  endloop
 endfacet
 facet normal 0.0 0.0 -1.0
  outer loop
   vertex 50.295201194193844 0.001 0
   vertex 36.91456085961897 29.899999999999995 0
   vertex 45.362736056257745 14.935550499999996 0
  endloop
 endfacet
 facet normal 0.0 0.0 1.0
  outer loop
   vertex 36.91456085961897 29.899999999999995 0
   vertex 45.70627922865704 14.167904329508062 0
   vertex 45.362736056257745 14.935550499999996 0
  endloop
 endfacet
 facet normal 0.0 0.0 -1.0
  outer loop
   vertex 36.91456085961897 29.899999999999995 0
   vertex 41.13495830089609 28.30331297198811 0
   vertex 45.70627922865704 14.167904329508062 0
  endloop
 endfacet
 facet normal 0.0 0.0 1.0
  outer loop
   vertex 41.13495830089609 28.30331297198811 0
   vertex 45.35357581336445 14.963852812971986 0
   vertex 45.70627922865704 14.167904329508062 0
  endloop
 endfacet
 facet normal 0.0 0.0 -1.0
  outer loop
   vertex 41.13495830089609 28.30331297198811 0
   vertex 53.80103644781557 0.001 0
   vertex 45.35357581336445 14.963852812971986 0
  endloop
 endfacet
 facet normal 0.0 0.0 -1.0
  outer loop
   vertex 53.80103644781557 0.001 0
   vertex 45.72316570424523 14.13800532950806 0
   vertex 45.35357581336445 14.963852812971986 0
  endloop
 endfacet
 facet normal 0.0 0.0 -1.0
  outer loop
   vertex 53.80103644781557 0.001 0
   vertex 50.295201194193844 0.001 0
   vertex 45.72316570424523 14.13800532950806 0
  endloop
 endfacet
 facet normal 0.0 0.0 -1.0
  outer loop
   vertex 50.295201194193844 0.001 0
   vertex 45.362736056257745 14.935550499999996 0
   vertex 45.72316570424523 14.13800532950806 0
  endloop
 endfacet
 facet normal -0.9127639402605211 -0.4084874408841573 0.0
  outer loop
   vertex 36.91456085961897 29.899999999999995 0
   vertex 50.295201194193844 0.001 0
   vertex 50.295201194193844 0.001 0.4
  endloop
 endfacet
 facet normal -0.9127639402605211 -0.4084874408841573 -0.0
  outer loop
   vertex 36.91456085961897 29.899999999999995 0.4
   vertex 36.91456085961897 29.899999999999995 0
   vertex 50.295201194193844 0.001 0.4
  endloop
 endfacet
 facet normal 0.3538494261883125 0.9353024022134242 0.0
  outer loop
   vertex 41.13495830089609 28.30331297198811 0
   vertex 36.91456085961897 29.899999999999995 0
   vertex 36.91456085961897 29.899999999999995 0.4
  endloop
 endfacet
 facet normal 0.3538494261883125 0.9353024022134242 0.0
  outer loop
   vertex 41.13495830089609 28.30331297198811 0.4
   vertex 41.13495830089609 28.30331297198811 0
   vertex 36.91456085961897 29.899999999999995 0.4
  endloop
 endfacet
 facet normal 0.9127639402605212 0.40848744088415717 0.0
  outer loop
   vertex 53.80103644781557 0.001 0
   vertex 41.13495830089609 28.30331297198811 0
   vertex 41.13495830089609 28.30331297198811 0.4
  endloop
 endfacet
 facet normal 0.9127639402605212 0.40848744088415717 0.0
  outer loop
   vertex 53.80103644781557 0.001 0.4
   vertex 53.80103644781557 0.001 0
   vertex 41.13495830089609 28.30331297198811 0.4
  endloop
 endfacet
 facet normal 0.0 -1.0 0.0
  outer loop
   vertex 50.295201194193844 0.001 0
   vertex 53.80103644781557 0.001 0
   vertex 53.80103644781557 0.001 0.4
  endloop
 endfacet
 facet normal 0.0 -1.0 0.0
  outer loop
   vertex 50.295201194193844 0.001 0.4
   vertex 50.295201194193844 0.001 0
   vertex 53.80103644781557 0.001 0.4
  endloop
 endfacet
 facet normal -0.9127639402605188 -0.40848744088416244 0.0
  outer loop
   vertex 45.362736056257745 14.935550499999996 0
   vertex 45.70627922865704 14.167904329508062 0
   vertex 45.362736056257745 14.935550499999996 0.4
  endloop
 endfacet
 facet normal -0.9127639402605188 -0.40848744088416244 0.0
  outer loop
   vertex 45.70627922865704 14.167904329508062 0
   vertex 45.70627922865704 14.167904329508062 0.4
   vertex 45.362736056257745 14.935550499999996 0.4
  endloop
 endfacet
 facet normal 0.9142592319604732 0.4051296789610035 -0.0
  outer loop
   vertex 45.70627922865704 14.167904329508062 0
   vertex 45.35357581336445 14.963852812971986 0
   vertex 45.70627922865704 14.167904329508062 0.4
  endloop
 endfacet
 facet normal 0.9142592319604732 0.4051296789610035 -0.0
  outer loop
   vertex 45.35357581336445 14.963852812971986 0
   vertex 45.35357581336445 14.963852812971986 0.4
   vertex 45.70627922865704 14.167904329508062 0.4
  endloop
 endfacet
 facet normal -0.9127639402605221 -0.4084874408841553 0.0
  outer loop
   vertex 45.35357581336445 14.963852812971986 0
   vertex 45.72316570424523 14.13800532950806 0
   vertex 45.35357581336445 14.963852812971986 0.4
  endloop
 endfacet
 facet normal -0.9127639402605221 -0.4084874408841553 0.0
  outer loop
   vertex 45.72316570424523 14.13800532950806 0
   vertex 45.72316570424523 14.13800532950806 0.4
   vertex 45.35357581336445 14.963852812971986 0.4
  endloop
 endfacet
 facet normal 0.9112642960891687 0.4118220279114654 -0.0
  outer loop
   vertex 45.72316570424523 14.13800532950806 0
   vertex 45.362736056257745 14.935550499999996 0
   vertex 45.72316570424523 14.13800532950806 0.4
  endloop
 endfacet
 facet normal 0.9112642960891687 0.4118220279114654 -0.0
  outer loop
   vertex 45.362736056257745 14.935550499999996 0
   vertex 45.362736056257745 14.935550499999996 0.4
   vertex 45.72316570424523 14.13800532950806 0.4
  endloop
 endfacet
 facet normal 0.0 0.0 1.0
  outer loop
   vertex 36.91456085961897 29.899999999999995 0.4
   vertex 50.295201194193844 0.001 0.4
   vertex 45.362736056257745 14.935550499999996 0.4
  endloop
 endfacet
 facet normal 0.0 0.0 -1.0
  outer loop
   vertex 45.70627922865704 14.167904329508062 0.4
   vertex 36.91456085961897 29.899999999999995 0.4
   vertex 45.362736056257745 14.935550499999996 0.4
  endloop
 endfacet
 facet normal 0.0 0.0 1.0
  outer loop
   vertex 41.13495830089609 28.30331297198811 0.4
   vertex 36.91456085961897 29.899999999999995 0.4
   vertex 45.70627922865704 14.167904329508062 0.4
  endloop
 endfacet
 facet normal 0.0 0.0 -1.0
  outer loop
   vertex 45.35357581336445 14.963852812971986 0.4
   vertex 41.13495830089609 28.30331297198811 0.4
   vertex 45.70627922865704 14.167904329508062 0.4
  endloop
 endfacet
 facet normal 0.0 0.0 1.0
  outer loop
   vertex 53.80103644781557 0.001 0.4
   vertex 41.13495830089609 28.30331297198811 0.4
   vertex 45.35357581336445 14.963852812971986 0.4
  endloop
 endfacet
 facet normal -0.0 -0.0 1.0
  outer loop
   vertex 45.72316570424523 14.13800532950806 0.4
   vertex 53.80103644781557 0.001 0.4
   vertex 45.35357581336445 14.963852812971986 0.4
  endloop
 endfacet
 facet normal 0.0 -0.0 1.0
  outer loop
   vertex 50.295201194193844 0.001 0.4
   vertex 53.80103644781557 0.001 0.4
   vertex 45.72316570424523 14.13800532950806 0.4
  endloop
 endfacet
 facet normal 0.0 0.0 1.0
  outer loop
   vertex 45.362736056257745 14.935550499999996 0.4
   vertex 50.295201194193844 0.001 0.4
   vertex 45.72316570424523 14.13800532950806 0.4
  endloop
 endfacet
 facet normal 0.0 0.0 -1.0
  outer loop
   vertex 36.914560859618966 33.099999999999994 0
   vertex 50.295201194193844 62.99900000000001 0
   vertex 45.70627922865702 48.83209567049194 0
  endloop
 endfacet
 facet normal 0.0 0.0 1.0
  outer loop
   vertex 50.295201194193844 62.99900000000001 0
   vertex 45.36273605625774 48.0644495 0
   vertex 45.70627922865702 48.83209567049194 0
  endloop
 endfacet
 facet normal 0.0 -0.0 -1.0
  outer loop
   vertex 50.295201194193844 62.99900000000001 0
   vertex 53.80103644781556 62.99900000000001 0
   vertex 45.36273605625774 48.0644495 0
  endloop
 endfacet
 facet normal 0.0 0.0 1.0
  outer loop
   vertex 53.80103644781556 62.99900000000001 0
   vertex 45.72316570424522 48.86199467049194 0
   vertex 45.36273605625774 48.0644495 0
  endloop
 endfacet
 facet normal 0.0 0.0 -1.0
  outer loop
   vertex 53.80103644781556 62.99900000000001 0
   vertex 41.134958300896045 34.69668702801188 0
   vertex 45.72316570424522 48.86199467049194 0
  endloop
 endfacet
 facet normal 0.0 0.0 -1.0
  outer loop
   vertex 41.134958300896045 34.69668702801188 0
   vertex 45.35357581336444 48.036147187028014 0
   vertex 45.72316570424522 48.86199467049194 0
  endloop
 endfacet
 facet normal -0.0 0.0 -1.0
  outer loop
   vertex 41.134958300896045 34.69668702801188 0
   vertex 36.914560859618966 33.099999999999994 0
   vertex 45.35357581336444 48.036147187028014 0
  endloop
 endfacet
 facet normal 0.0 0.0 -1.0
  outer loop
   vertex 36.914560859618966 33.099999999999994 0
   vertex 45.70627922865702 48.83209567049194 0
   vertex 45.35357581336444 48.036147187028014 0
  endloop
 endfacet
 facet normal -0.9127639402605212 0.4084874408841572 0.0
  outer loop
   vertex 50.295201194193844 62.99900000000001 0
   vertex 36.914560859618966 33.099999999999994 0
   vertex 36.914560859618966 33.099999999999994 0.4
  endloop
 endfacet
 facet normal -0.9127639402605212 0.4084874408841572 0.0
  outer loop
   vertex 50.295201194193844 62.99900000000001 0.4
   vertex 50.295201194193844 62.99900000000001 0
   vertex 36.914560859618966 33.099999999999994 0.4
  endloop
 endfacet
 facet normal 0.0 1.0 0.0
  outer loop
   vertex 53.80103644781556 62.99900000000001 0
   vertex 50.295201194193844 62.99900000000001 0
   vertex 50.295201194193844 62.99900000000001 0.4
  endloop
 endfacet
 facet normal 0.0 1.0 0.0
  outer loop
   vertex 53.80103644781556 62.99900000000001 0.4
   vertex 53.80103644781556 62.99900000000001 0
   vertex 50.295201194193844 62.99900000000001 0.4
  endloop
 endfacet
 facet normal 0.9127639402605209 -0.40848744088415784 0.0
  outer loop
   vertex 41.134958300896045 34.69668702801188 0
   vertex 53.80103644781556 62.99900000000001 0
   vertex 53.80103644781556 62.99900000000001 0.4
  endloop
 endfacet
 facet normal 0.9127639402605209 -0.40848744088415784 0.0
  outer loop
   vertex 41.134958300896045 34.69668702801188 0.4
   vertex 41.134958300896045 34.69668702801188 0
   vertex 53.80103644781556 62.99900000000001 0.4
  endloop
 endfacet
 facet normal 0.3538494261883151 -0.9353024022134232 0.0
  outer loop
   vertex 36.914560859618966 33.099999999999994 0
   vertex 41.134958300896045 34.69668702801188 0
   vertex 41.134958300896045 34.69668702801188 0.4
  endloop
 endfacet
 facet normal 0.3538494261883151 -0.9353024022134232 0.0
  outer loop
   vertex 36.914560859618966 33.099999999999994 0.4
   vertex 36.914560859618966 33.099999999999994 0
   vertex 41.134958300896045 34.69668702801188 0.4
  endloop
 endfacet
 facet normal -0.9127639402605254 0.4084874408841476 0.0
  outer loop
   vertex 45.70627922865702 48.83209567049194 0
   vertex 45.36273605625774 48.0644495 0
   vertex 45.70627922865702 48.83209567049194 0.4
  endloop
 endfacet
 facet normal -0.9127639402605254 0.4084874408841476 0.0
  outer loop
   vertex 45.36273605625774 48.0644495 0
   vertex 45.36273605625774 48.0644495 0.4
   vertex 45.70627922865702 48.83209567049194 0.4
  endloop
 endfacet
 facet normal 0.9112642960891718 -0.4118220279114586 0.0
  outer loop
   vertex 45.36273605625774 48.0644495 0
   vertex 45.72316570424522 48.86199467049194 0
   vertex 45.36273605625774 48.0644495 0.4
  endloop
 endfacet
 facet normal 0.9112642960891718 -0.4118220279114586 0.0
  outer loop
   vertex 45.72316570424522 48.86199467049194 0
   vertex 45.72316570424522 48.86199467049194 0.4
   vertex 45.36273605625774 48.0644495 0.4
  endloop
 endfacet
 facet normal -0.9127639402605245 0.40848744088414934 0.0
  outer loop
   vertex 45.72316570424522 48.86199467049194 0
   vertex 45.35357581336444 48.036147187028014 0
   vertex 45.72316570424522 48.86199467049194 0.4
  endloop
 endfacet
 facet normal -0.9127639402605245 0.40848744088414934 0.0
  outer loop
   vertex 45.35357581336444 48.036147187028014 0
   vertex 45.35357581336444 48.036147187028014 0.4
   vertex 45.72316570424522 48.86199467049194 0.4
  endloop
 endfacet
 facet normal 0.9142592319604792 -0.40512967896098984 0.0
  outer loop
   vertex 45.35357581336444 48.036147187028014 0
   vertex 45.70627922865702 48.83209567049194 0
   vertex 45.35357581336444 48.036147187028014 0.4
  endloop
 endfacet
 facet normal 0.9142592319604792 -0.40512967896098984 0.0
  outer loop
   vertex 45.70627922865702 48.83209567049194 0
   vertex 45.70627922865702 48.83209567049194 0.4
   vertex 45.35357581336444 48.036147187028014 0.4
  endloop
 endfacet
 facet normal 0.0 0.0 1.0
  outer loop
   vertex 50.295201194193844 62.99900000000001 0.4
   vertex 36.914560859618966 33.099999999999994 0.4
   vertex 45.70627922865702 48.83209567049194 0.4
  endloop
 endfacet
 facet normal 0.0 0.0 -1.0
  outer loop
   vertex 45.36273605625774 48.0644495 0.4
   vertex 50.295201194193844 62.99900000000001 0.4
   vertex 45.70627922865702 48.83209567049194 0.4
  endloop
 endfacet
 facet normal 0.0 0.0 1.0
  outer loop
   vertex 53.80103644781556 62.99900000000001 0.4
   vertex 50.295201194193844 62.99900000000001 0.4
   vertex 45.36273605625774 48.0644495 0.4
  endloop
 endfacet
 facet normal 0.0 -0.0 -1.0
  outer loop
   vertex 45.72316570424522 48.86199467049194 0.4
   vertex 53.80103644781556 62.99900000000001 0.4
   vertex 45.36273605625774 48.0644495 0.4
  endloop
 endfacet
 facet normal 0.0 0.0 1.0
  outer loop
   vertex 41.134958300896045 34.69668702801188 0.4
   vertex 53.80103644781556 62.99900000000001 0.4
   vertex 45.72316570424522 48.86199467049194 0.4
  endloop
 endfacet
 facet normal -0.0 0.0 1.0
  outer loop
   vertex 45.35357581336444 48.036147187028014 0.4
   vertex 41.134958300896045 34.69668702801188 0.4
   vertex 45.72316570424522 48.86199467049194 0.4
  endloop
 endfacet
 facet normal 0.0 0.0 1.0
  outer loop
   vertex 36.914560859618966 33.099999999999994 0.4
   vertex 41.134958300896045 34.69668702801188 0.4
   vertex 45.35357581336444 48.036147187028014 0.4
  endloop
 endfacet
 facet normal 0.0 0.0 1.0
  outer loop
   vertex 45.70627922865702 48.83209567049194 0.4
   vertex 36.914560859618966 33.099999999999994 0.4
   vertex 45.35357581336444 48.036147187028014 0.4
  endloop
 endfacet
 facet normal 0.0 0.0 -1.0
  outer loop
   vertex 89.99775473592872 0.001 0
   vertex 41.13495830089609 28.30331297198811 0
   vertex 68.7798512192477 14.13800532950806 0
  endloop
 endfacet
 facet normal 0.0 0.0 -1.0
  outer loop
   vertex 41.13495830089609 28.30331297198811 0
   vertex 67.35405900534556 14.963852812971988 0
   vertex 68.7798512192477 14.13800532950806 0
  endloop
 endfacet
 facet normal 0.0 0.0 -1.0
  outer loop
   vertex 41.13495830089609 28.30331297198811 0
   vertex 44.76285396686341 29.9 0
   vertex 67.35405900534556 14.963852812971988 0
  endloop
 endfacet
 facet normal 0.0 0.0 -1.0
  outer loop
   vertex 44.76285396686341 29.9 0
   vertex 68.73461631847863 14.167904329508062 0
   vertex 67.35405900534556 14.963852812971988 0
  endloop
 endfacet
 facet normal 0.0 0.0 -1.0
  outer loop
   vertex 44.76285396686341 29.9 0
   vertex 96.38226585228064 0.001 0
   vertex 68.73461631847863 14.167904329508062 0
  endloop
 endfacet
 facet normal 0.0 0.0 1.0
  outer loop
   vertex 96.38226585228064 0.001 0
   vertex 67.40930631289694 14.935550499999998 0
   vertex 68.73461631847863 14.167904329508062 0
  endloop
 endfacet
 facet normal 0.0 0.0 -1.0
  outer loop
   vertex 96.38226585228064 0.001 0
   vertex 89.99775473592872 0.001 0
   vertex 67.40930631289694 14.935550499999998 0
  endloop
 endfacet
 facet normal 0.0 0.0 1.0
  outer loop
   vertex 89.99775473592872 0.001 0
   vertex 68.7798512192477 14.13800532950806 0
   vertex 67.40930631289694 14.935550499999998 0
  endloop
 endfacet
 facet normal -0.5012130046737979 -0.8653239416229412 0.0
  outer loop
   vertex 41.13495830089609 28.30331297198811 0
   vertex 89.99775473592872 0.001 0
   vertex 89.99775473592872 0.001 0.4
  endloop
 endfacet
 facet normal -0.5012130046737979 -0.8653239416229412 -0.0
  outer loop
   vertex 41.13495830089609 28.30331297198811 0.4
   vertex 41.13495830089609 28.30331297198811 0
   vertex 89.99775473592872 0.001 0.4
  endloop
 endfacet
 facet normal -0.4028258935835244 0.9152766245560054 0.0
  outer loop
   vertex 44.76285396686341 29.9 0
   vertex 41.13495830089609 28.30331297198811 0
   vertex 41.13495830089609 28.30331297198811 0.4
  endloop
 endfacet
 facet normal -0.4028258935835244 0.9152766245560054 0.0
  outer loop
   vertex 44.76285396686341 29.9 0.4
   vertex 44.76285396686341 29.9 0
   vertex 41.13495830089609 28.30331297198811 0.4
  endloop
 endfacet
 facet normal 0.5012130046737978 0.8653239416229412 0.0
  outer loop
   vertex 96.38226585228064 0.001 0
   vertex 44.76285396686341 29.9 0
   vertex 44.76285396686341 29.9 0.4
  endloop
 endfacet
 facet normal 0.5012130046737978 0.8653239416229412 0.0
  outer loop
   vertex 96.38226585228064 0.001 0.4
   vertex 96.38226585228064 0.001 0
   vertex 44.76285396686341 29.9 0.4
  endloop
 endfacet
 facet normal 0.0 -1.0 0.0
  outer loop
   vertex 89.99775473592872 0.001 0
   vertex 96.38226585228064 0.001 0
   vertex 96.38226585228064 0.001 0.4
  endloop
 endfacet
 facet normal 0.0 -1.0 0.0
  outer loop
   vertex 89.99775473592872 0.001 0.4
   vertex 89.99775473592872 0.001 0
   vertex 96.38226585228064 0.001 0.4
  endloop
 endfacet
 facet normal 0.5012130046737948 0.865323941622943 -0.0
  outer loop
   vertex 68.7798512192477 14.13800532950806 0
   vertex 67.35405900534556 14.963852812971988 0
   vertex 68.7798512192477 14.13800532950806 0.4
  endloop
 endfacet
 facet normal 0.5012130046737948 0.865323941622943 -0.0
  outer loop
   vertex 67.35405900534556 14.963852812971988 0
   vertex 67.35405900534556 14.963852812971988 0.4
   vertex 68.7798512192477 14.13800532950806 0.4
  endloop
 endfacet
 facet normal -0.4994743655981807 -0.8663286663329887 0.0
  outer loop
   vertex 67.35405900534556 14.963852812971988 0
   vertex 68.73461631847863 14.167904329508062 0
   vertex 67.35405900534556 14.963852812971988 0.4
  endloop
 endfacet
 facet normal -0.4994743655981807 -0.8663286663329887 0.0
  outer loop
   vertex 68.73461631847863 14.167904329508062 0
   vertex 68.73461631847863 14.167904329508062 0.4
   vertex 67.35405900534556 14.963852812971988 0.4
  endloop
 endfacet
 facet normal 0.501213004673795 0.865323941622943 -0.0
  outer loop
   vertex 68.73461631847863 14.167904329508062 0
   vertex 67.40930631289694 14.935550499999998 0
   vertex 68.73461631847863 14.167904329508062 0.4
  endloop
 endfacet
 facet normal 0.501213004673795 0.865323941622943 -0.0
  outer loop
   vertex 67.40930631289694 14.935550499999998 0
   vertex 67.40930631289694 14.935550499999998 0.4
   vertex 68.73461631847863 14.167904329508062 0.4
  endloop
 endfacet
 facet normal -0.5029582297065578 -0.8643107191111571 0.0
  outer loop
   vertex 67.40930631289694 14.935550499999998 0
   vertex 68.7798512192477 14.13800532950806 0
   vertex 67.40930631289694 14.935550499999998 0.4
  endloop
 endfacet
 facet normal -0.5029582297065578 -0.8643107191111571 0.0
  outer loop
   vertex 68.7798512192477 14.13800532950806 0
   vertex 68.7798512192477 14.13800532950806 0.4
   vertex 67.40930631289694 14.935550499999998 0.4
  endloop
 endfacet
 facet normal 0.0 0.0 1.0
  outer loop
   vertex 41.13495830089609 28.30331297198811 0.4
   vertex 89.99775473592872 0.001 0.4
   vertex 68.7798512192477 14.13800532950806 0.4
  endloop
 endfacet
 facet normal 0.0 0.0 1.0
  outer loop
   vertex 67.35405900534556 14.963852812971988 0.4
   vertex 41.13495830089609 28.30331297198811 0.4
   vertex 68.7798512192477 14.13800532950806 0.4
  endloop
 endfacet
 facet normal 0.0 0.0 1.0
  outer loop
   vertex 44.76285396686341 29.9 0.4
   vertex 41.13495830089609 28.30331297198811 0.4
   vertex 67.35405900534556 14.963852812971988 0.4
  endloop
 endfacet
 facet normal 0.0 0.0 1.0
  outer loop
   vertex 68.73461631847863 14.167904329508062 0.4
   vertex 44.76285396686341 29.9 0.4
   vertex 67.35405900534556 14.963852812971988 0.4
  endloop
 endfacet
 facet normal 0.0 0.0 1.0
  outer loop
   vertex 96.38226585228064 0.001 0.4
   vertex 44.76285396686341 29.9 0.4
   vertex 68.73461631847863 14.167904329508062 0.4
  endloop
 endfacet
 facet normal 0.0 0.0 -1.0
  outer loop
   vertex 67.40930631289694 14.935550499999998 0.4
   vertex 96.38226585228064 0.001 0.4
   vertex 68.73461631847863 14.167904329508062 0.4
  endloop
 endfacet
 facet normal 0.0 -0.0 1.0
  outer loop
   vertex 89.99775473592872 0.001 0.4
   vertex 96.38226585228064 0.001 0.4
   vertex 67.40930631289694 14.935550499999998 0.4
  endloop
 endfacet
 facet normal -0.0 -0.0 -1.0
  outer loop
   vertex 68.7798512192477 14.13800532950806 0.4
   vertex 89.99775473592872 0.001 0.4
   vertex 67.40930631289694 14.935550499999998 0.4
  endloop
 endfacet
 facet normal 0.0 0.0 -1.0
  outer loop
   vertex 41.134958300896045 34.69668702801188 0
   vertex 89.99775473592874 62.99900000000001 0
   vertex 67.35405900534556 48.03614718702802 0
  endloop
 endfacet
 facet normal 0.0 0.0 -1.0
  outer loop
   vertex 89.99775473592874 62.99900000000001 0
   vertex 68.77985121924766 48.86199467049194 0
   vertex 67.35405900534556 48.03614718702802 0
  endloop
 endfacet
 facet normal 0.0 -0.0 -1.0
  outer loop
   vertex 89.99775473592874 62.99900000000001 0
   vertex 96.38226585228061 62.999 0
   vertex 68.77985121924766 48.86199467049194 0
  endloop
 endfacet
 facet normal 0.0 0.0 -1.0
  outer loop
   vertex 96.38226585228061 62.999 0
   vertex 67.40930631289694 48.06444950000001 0
   vertex 68.77985121924766 48.86199467049194 0
  endloop
 endfacet
 facet normal 0.0 0.0 -1.0
  outer loop
   vertex 96.38226585228061 62.999 0
   vertex 44.762853966863396 33.1 0
   vertex 67.40930631289694 48.06444950000001 0
  endloop
 endfacet
 facet normal 0.0 0.0 1.0
  outer loop
   vertex 44.762853966863396 33.1 0
   vertex 68.7346163184786 48.83209567049194 0
   vertex 67.40930631289694 48.06444950000001 0
  endloop
 endfacet
 facet normal 0.0 0.0 -1.0
  outer loop
   vertex 44.762853966863396 33.1 0
   vertex 41.134958300896045 34.69668702801188 0
   vertex 68.7346163184786 48.83209567049194 0
  endloop
 endfacet
 facet normal 0.0 0.0 1.0
  outer loop
   vertex 41.134958300896045 34.69668702801188 0
   vertex 67.35405900534556 48.03614718702802 0
   vertex 68.7346163184786 48.83209567049194 0
  endloop
 endfacet
 facet normal -0.5012130046737978 0.8653239416229412 0.0
  outer loop
   vertex 89.99775473592874 62.99900000000001 0
   vertex 41.134958300896045 34.69668702801188 0
   vertex 41.134958300896045 34.69668702801188 0.4
  endloop
 endfacet
 facet normal -0.5012130046737978 0.8653239416229412 0.0
  outer loop
   vertex 89.99775473592874 62.99900000000001 0.4
   vertex 89.99775473592874 62.99900000000001 0
   vertex 41.134958300896045 34.69668702801188 0.4
  endloop
 endfacet
 facet normal 1.112916436060818e-15 1.0 0.0
  outer loop
   vertex 96.38226585228061 62.999 0
   vertex 89.99775473592874 62.99900000000001 0
   vertex 89.99775473592874 62.99900000000001 0.4
  endloop
 endfacet
 facet normal 1.112916436060818e-15 1.0 0.0
  outer loop
   vertex 96.38226585228061 62.999 0.4
   vertex 96.38226585228061 62.999 0
   vertex 89.99775473592874 62.99900000000001 0.4
  endloop
 endfacet
 facet normal 0.501213004673798 -0.8653239416229412 0.0
  outer loop
   vertex 44.762853966863396 33.1 0
   vertex 96.38226585228061 62.999 0
   vertex 96.38226585228061 62.999 0.4
  endloop
 endfacet
 facet normal 0.501213004673798 -0.8653239416229412 0.0
  outer loop
   vertex 44.762853966863396 33.1 0.4
   vertex 44.762853966863396 33.1 0
   vertex 96.38226585228061 62.999 0.4
  endloop
 endfacet
 facet normal -0.4028258935835195 -0.9152766245560078 0.0
  outer loop
   vertex 41.134958300896045 34.69668702801188 0
   vertex 44.762853966863396 33.1 0
   vertex 44.762853966863396 33.1 0.4
  endloop
 endfacet
 facet normal -0.4028258935835195 -0.9152766245560078 -0.0
  outer loop
   vertex 41.134958300896045 34.69668702801188 0.4
   vertex 41.134958300896045 34.69668702801188 0
   vertex 44.762853966863396 33.1 0.4
  endloop
 endfacet
 facet normal 0.5012130046738013 -0.8653239416229395 0.0
  outer loop
   vertex 67.35405900534556 48.03614718702802 0
   vertex 68.77985121924766 48.86199467049194 0
   vertex 67.35405900534556 48.03614718702802 0.4
  endloop
 endfacet
 facet normal 0.5012130046738013 -0.8653239416229395 0.0
  outer loop
   vertex 68.77985121924766 48.86199467049194 0
   vertex 68.77985121924766 48.86199467049194 0.4
   vertex 67.35405900534556 48.03614718702802 0.4
  endloop
 endfacet
 facet normal -0.5029582297065653 0.8643107191111526 0.0
  outer loop
   vertex 68.77985121924766 48.86199467049194 0
   vertex 67.40930631289694 48.06444950000001 0
   vertex 68.77985121924766 48.86199467049194 0.4
  endloop
 endfacet
 facet normal -0.5029582297065653 0.8643107191111526 0.0
  outer loop
   vertex 67.40930631289694 48.06444950000001 0
   vertex 67.40930631289694 48.06444950000001 0.4
   vertex 68.77985121924766 48.86199467049194 0.4
  endloop
 endfacet
 facet normal 0.5012130046737995 -0.8653239416229404 0.0
  outer loop
   vertex 67.40930631289694 48.06444950000001 0
   vertex 68.7346163184786 48.83209567049194 0
   vertex 67.40930631289694 48.06444950000001 0.4
  endloop
 endfacet
 facet normal 0.5012130046737995 -0.8653239416229404 0.0
  outer loop
   vertex 68.7346163184786 48.83209567049194 0
   vertex 68.7346163184786 48.83209567049194 0.4
   vertex 67.40930631289694 48.06444950000001 0.4
  endloop
 endfacet
 facet normal -0.4994743655981842 0.8663286663329867 0.0
  outer loop
   vertex 68.7346163184786 48.83209567049194 0
   vertex 67.35405900534556 48.03614718702802 0
   vertex 68.7346163184786 48.83209567049194 0.4
  endloop
 endfacet
 facet normal -0.4994743655981842 0.8663286663329867 0.0
  outer loop
   vertex 67.35405900534556 48.03614718702802 0
   vertex 67.35405900534556 48.03614718702802 0.4
   vertex 68.7346163184786 48.83209567049194 0.4
  endloop
 endfacet
 facet normal 0.0 0.0 1.0
  outer loop
   vertex 89.99775473592874 62.99900000000001 0.4
   vertex 41.134958300896045 34.69668702801188 0.4
   vertex 67.35405900534556 48.03614718702802 0.4
  endloop
 endfacet
 facet normal 0.0 -0.0 1.0
  outer loop
   vertex 68.77985121924766 48.86199467049194 0.4
   vertex 89.99775473592874 62.99900000000001 0.4
   vertex 67.35405900534556 48.03614718702802 0.4
  endloop
 endfacet
 facet normal 0.0 0.0 1.0
  outer loop
   vertex 96.38226585228061 62.999 0.4
   vertex 89.99775473592874 62.99900000000001 0.4
   vertex 68.77985121924766 48.86199467049194 0.4
  endloop
 endfacet
 facet normal 0.0 0.0 1.0
  outer loop
   vertex 67.40930631289694 48.06444950000001 0.4
   vertex 96.38226585228061 62.999 0.4
   vertex 68.77985121924766 48.86199467049194 0.4
  endloop
 endfacet
 facet normal 0.0 0.0 1.0
  outer loop
   vertex 44.762853966863396 33.1 0.4
   vertex 96.38226585228061 62.999 0.4
   vertex 67.40930631289694 48.06444950000001 0.4
  endloop
 endfacet
 facet normal 0.0 0.0 -1.0
  outer loop
   vertex 68.7346163184786 48.83209567049194 0.4
   vertex 44.762853966863396 33.1 0.4
   vertex 67.40930631289694 48.06444950000001 0.4
  endloop
 endfacet
 facet normal -0.0 0.0 1.0
  outer loop
   vertex 41.134958300896045 34.69668702801188 0.4
   vertex 44.762853966863396 33.1 0.4
   vertex 68.7346163184786 48.83209567049194 0.4
  endloop
 endfacet
 facet normal -0.0 0.0 -1.0
  outer loop
   vertex 67.35405900534556 48.03614718702802 0.4
   vertex 41.134958300896045 34.69668702801188 0.4
   vertex 68.7346163184786 48.83209567049194 0.4
  endloop
 endfacet
 facet normal 0.0 0.0 -1.0
  outer loop
   vertex 100.99772587654178 29.899999999999995 -0.8000000000000005
   vertex 44.76285396686341 29.9 -0.8000000000000005
   vertex 72.90840735765742 31.4984 -0.8000000000000005
  endloop
 endfacet
 facet normal 0.0 0.0 -1.0
  outer loop
   vertex 44.76285396686341 29.9 -0.8000000000000005
   vertex 72.85217248574774 31.498399999999997 -0.8000000000000005
   vertex 72.90840735765742 31.4984 -0.8000000000000005
  endloop
 endfacet
 facet normal 0.0 0.0 -1.0
  outer loop
   vertex 44.76285396686341 29.9 -0.8000000000000005
   vertex 44.762853966863396 33.1 -0.8000000000000005
   vertex 72.85217248574774 31.498399999999997 -0.8000000000000005
  endloop
 endfacet
 facet normal 0.0 0.0 -1.0
  outer loop
   vertex 44.762853966863396 33.1 -0.8000000000000005
   vertex 72.85217248574774 31.5016 -0.8000000000000005
   vertex 72.85217248574774 31.498399999999997 -0.8000000000000005
  endloop
 endfacet
 facet normal 0.0 0.0 -1.0
  outer loop
   vertex 44.762853966863396 33.1 -0.8000000000000005
   vertex 100.99772587654176 33.1 -0.8000000000000005
   vertex 72.85217248574774 31.5016 -0.8000000000000005
  endloop
 endfacet
 facet normal 0.0 0.0 -1.0
  outer loop
   vertex 100.99772587654176 33.1 -0.8000000000000005
   vertex 72.90840735765742 31.5016 -0.8000000000000005
   vertex 72.85217248574774 31.5016 -0.8000000000000005
  endloop
 endfacet
 facet normal 0.0 -0.0 -1.0
  outer loop
   vertex 100.99772587654176 33.1 -0.8000000000000005
   vertex 100.99772587654178 29.899999999999995 -0.8000000000000005
   vertex 72.90840735765742 31.5016 -0.8000000000000005
  endloop
 endfacet
 facet normal 0.0 0.0 -1.0
  outer loop
   vertex 100.99772587654178 29.899999999999995 -0.8000000000000005
   vertex 72.90840735765742 31.4984 -0.8000000000000005
   vertex 72.90840735765742 31.5016 -0.8000000000000005
  endloop
 endfacet
 facet normal -6.317634517789409e-17 -1.0 0.0
  outer loop
   vertex 44.76285396686341 29.9 -0.8000000000000005
   vertex 100.99772587654178 29.899999999999995 -0.8000000000000005
   vertex 100.99772587654178 29.899999999999995 1.2000000000000004
  endloop
 endfacet
 facet normal -6.317634517789409e-17 -1.0 -0.0
  outer loop
   vertex 44.76285396686341 29.9 1.2000000000000004
   vertex 44.76285396686341 29.9 -0.8000000000000005
   vertex 100.99772587654178 29.899999999999995 1.2000000000000004
  endloop
 endfacet
 facet normal -1.0 -4.440892098500622e-15 0.0
  outer loop
   vertex 44.762853966863396 33.1 -0.8000000000000005
   vertex 44.76285396686341 29.9 -0.8000000000000005
   vertex 44.76285396686341 29.9 1.2000000000000004
  endloop
 endfacet
 facet normal -1.0 -4.440892098500622e-15 -0.0
  outer loop
   vertex 44.762853966863396 33.1 1.2000000000000004
   vertex 44.762853966863396 33.1 -0.8000000000000005
   vertex 44.76285396686341 29.9 1.2000000000000004
  endloop
 endfacet
 facet normal 0.0 1.0 0.0
  outer loop
   vertex 100.99772587654176 33.1 -0.8000000000000005
   vertex 44.762853966863396 33.1 -0.8000000000000005
   vertex 44.762853966863396 33.1 1.2000000000000004
  endloop
 endfacet
 facet normal 0.0 1.0 0.0
  outer loop
   vertex 100.99772587654176 33.1 1.2000000000000004
   vertex 100.99772587654176 33.1 -0.8000000000000005
   vertex 44.762853966863396 33.1 1.2000000000000004
  endloop
 endfacet
 facet normal 1.0 4.4408920985006175e-15 0.0
  outer loop
   vertex 100.99772587654178 29.899999999999995 -0.8000000000000005
   vertex 100.99772587654176 33.1 -0.8000000000000005
   vertex 100.99772587654176 33.1 1.2000000000000004
  endloop
 endfacet
 facet normal 1.0 4.4408920985006175e-15 0.0
  outer loop
   vertex 100.99772587654178 29.899999999999995 1.2000000000000004
   vertex 100.99772587654178 29.899999999999995 -0.8000000000000005
   vertex 100.99772587654176 33.1 1.2000000000000004
  endloop
 endfacet
 facet normal -6.317634517789187e-14 1.0 0.0
  outer loop
   vertex 72.90840735765742 31.4984 -0.8000000000000005
   vertex 72.85217248574774 31.498399999999997 -0.8000000000000005
   vertex 72.90840735765742 31.4984 1.2000000000000004
  endloop
 endfacet
 facet normal -6.317634517789187e-14 1.0 0.0
  outer loop
   vertex 72.85217248574774 31.498399999999997 -0.8000000000000005
   vertex 72.85217248574774 31.498399999999997 1.2000000000000004
   vertex 72.90840735765742 31.4984 1.2000000000000004
  endloop
 endfacet
 facet normal 1.0 0.0 0.0
  outer loop
   vertex 72.85217248574774 31.498399999999997 -0.8000000000000005
   vertex 72.85217248574774 31.5016 -0.8000000000000005
   vertex 72.85217248574774 31.498399999999997 1.2000000000000004
  endloop
 endfacet
 facet normal 1.0 0.0 -0.0
  outer loop
   vertex 72.85217248574774 31.5016 -0.8000000000000005
   vertex 72.85217248574774 31.5016 1.2000000000000004
   vertex 72.85217248574774 31.498399999999997 1.2000000000000004
  endloop
 endfacet
 facet normal 0.0 -1.0 0.0
  outer loop
   vertex 72.85217248574774 31.5016 -0.8000000000000005
   vertex 72.90840735765742 31.5016 -0.8000000000000005
   vertex 72.85217248574774 31.5016 1.2000000000000004
  endloop
 endfacet
 facet normal 0.0 -1.0 0.0
  outer loop
   vertex 72.90840735765742 31.5016 -0.8000000000000005
   vertex 72.90840735765742 31.5016 1.2000000000000004
   vertex 72.85217248574774 31.5016 1.2000000000000004
  endloop
 endfacet
 facet normal -1.0 0.0 0.0
  outer loop
   vertex 72.90840735765742 31.5016 -0.8000000000000005
   vertex 72.90840735765742 31.4984 -0.8000000000000005
   vertex 72.90840735765742 31.5016 1.2000000000000004
  endloop
 endfacet
 facet normal -1.0 0.0 0.0
  outer loop
   vertex 72.90840735765742 31.4984 -0.8000000000000005
   vertex 72.90840735765742 31.4984 1.2000000000000004
   vertex 72.90840735765742 31.5016 1.2000000000000004
  endloop
 endfacet
 facet normal -0.0 0.0 1.0
  outer loop
   vertex 44.76285396686341 29.9 1.2000000000000004
   vertex 100.99772587654178 29.899999999999995 1.2000000000000004
   vertex 72.90840735765742 31.4984 1.2000000000000004
  endloop
 endfacet
 facet normal -0.0 0.0 1.0
  outer loop
   vertex 72.85217248574774 31.498399999999997 1.2000000000000004
   vertex 44.76285396686341 29.9 1.2000000000000004
   vertex 72.90840735765742 31.4984 1.2000000000000004
  endloop
 endfacet
 facet normal 0.0 0.0 1.0
  outer loop
   vertex 44.762853966863396 33.1 1.2000000000000004
   vertex 44.76285396686341 29.9 1.2000000000000004
   vertex 72.85217248574774 31.498399999999997 1.2000000000000004
  endloop
 endfacet
 facet normal 0.0 0.0 1.0
  outer loop
   vertex 72.85217248574774 31.5016 1.2000000000000004
   vertex 44.762853966863396 33.1 1.2000000000000004
   vertex 72.85217248574774 31.498399999999997 1.2000000000000004
  endloop
 endfacet
 facet normal 0.0 0.0 1.0
  outer loop
   vertex 100.99772587654176 33.1 1.2000000000000004
   vertex 44.762853966863396 33.1 1.2000000000000004
   vertex 72.85217248574774 31.5016 1.2000000000000004
  endloop
 endfacet
 facet normal 0.0 -0.0 1.0
  outer loop
   vertex 72.90840735765742 31.5016 1.2000000000000004
   vertex 100.99772587654176 33.1 1.2000000000000004
   vertex 72.85217248574774 31.5016 1.2000000000000004
  endloop
 endfacet
 facet normal 0.0 0.0 1.0
  outer loop
   vertex 100.99772587654178 29.899999999999995 1.2000000000000004
   vertex 100.99772587654176 33.1 1.2000000000000004
   vertex 72.90840735765742 31.5016 1.2000000000000004
  endloop
 endfacet
 facet normal -0.0 0.0 1.0
  outer loop
   vertex 72.90840735765742 31.4984 1.2000000000000004
   vertex 100.99772587654178 29.899999999999995 1.2000000000000004
   vertex 72.90840735765742 31.5016 1.2000000000000004
  endloop
 endfacet
 facet normal -0.0 0.0 -1.0
  outer loop
   vertex 36.91456085961897 29.899999999999995 0
   vertex -0.0002741228240888458 29.89999999999999 0
   vertex 18.47560078588866 31.498399999999993 0
  endloop
 endfacet
 facet normal 0.0 0.0 -1.0
  outer loop
   vertex -0.0002741228240888458 29.89999999999999 0
   vertex 18.438685950906223 31.498399999999993 0
   vertex 18.47560078588866 31.498399999999993 0
  endloop
 endfacet
 facet normal 0.0 0.0 -1.0
  outer loop
   vertex -0.0002741228240888458 29.89999999999999 0
   vertex -0.00027412282408884015 33.099999999999994 0
   vertex 18.438685950906223 31.498399999999993 0
  endloop
 endfacet
 facet normal 0.0 0.0 -1.0
  outer loop
   vertex -0.00027412282408884015 33.099999999999994 0
   vertex 18.43868595090622 31.501599999999993 0
   vertex 18.438685950906223 31.498399999999993 0
  endloop
 endfacet
 facet normal 0.0 0.0 -1.0
  outer loop
   vertex -0.00027412282408884015 33.099999999999994 0
   vertex 36.914560859618966 33.099999999999994 0
   vertex 18.43868595090622 31.501599999999993 0
  endloop
 endfacet
 facet normal 0.0 0.0 -1.0
  outer loop
   vertex 36.914560859618966 33.099999999999994 0
   vertex 18.475600785888663 31.501599999999996 0
   vertex 18.43868595090622 31.501599999999993 0
  endloop
 endfacet
 facet normal 0.0 -0.0 -1.0
  outer loop
   vertex 36.914560859618966 33.099999999999994 0
   vertex 36.91456085961897 29.899999999999995 0
   vertex 18.475600785888663 31.501599999999996 0
  endloop
 endfacet
 facet normal 0.0 0.0 -1.0
  outer loop
   vertex 36.91456085961897 29.899999999999995 0
   vertex 18.47560078588866 31.498399999999993 0
   vertex 18.475600785888663 31.501599999999996 0
  endloop
 endfacet
 facet normal 9.624081160027385e-17 -1.0 0.0
  outer loop
   vertex -0.0002741228240888458 29.89999999999999 0
   vertex 36.91456085961897 29.899999999999995 0
   vertex 36.91456085961897 29.899999999999995 0.4
  endloop
 endfacet
 facet normal 9.624081160027385e-17 -1.0 0.0
  outer loop
   vertex -0.0002741228240888458 29.89999999999999 0.4
   vertex -0.0002741228240888458 29.89999999999999 0
   vertex 36.91456085961897 29.899999999999995 0.4
  endloop
 endfacet
 facet normal -1.0 1.761828530288943e-18 0.0
  outer loop
   vertex -0.00027412282408884015 33.099999999999994 0
   vertex -0.0002741228240888458 29.89999999999999 0
   vertex -0.0002741228240888458 29.89999999999999 0.4
  endloop
 endfacet
 facet normal -1.0 1.761828530288943e-18 0.0
  outer loop
   vertex -0.00027412282408884015 33.099999999999994 0.4
   vertex -0.00027412282408884015 33.099999999999994 0
   vertex -0.0002741228240888458 29.89999999999999 0.4
  endloop
 endfacet
 facet normal 0.0 1.0 0.0
  outer loop
   vertex 36.914560859618966 33.099999999999994 0
   vertex -0.00027412282408884015 33.099999999999994 0
   vertex -0.00027412282408884015 33.099999999999994 0.4
  endloop
 endfacet
 facet normal 0.0 1.0 0.0
  outer loop
   vertex 36.914560859618966 33.099999999999994 0.4
   vertex 36.914560859618966 33.099999999999994 0
   vertex -0.00027412282408884015 33.099999999999994 0.4
  endloop
 endfacet
 facet normal 1.0 2.2204460492503135e-15 0.0
  outer loop
   vertex 36.91456085961897 29.899999999999995 0
   vertex 36.914560859618966 33.099999999999994 0
   vertex 36.914560859618966 33.099999999999994 0.4
  endloop
 endfacet
 facet normal 1.0 2.2204460492503135e-15 0.0
  outer loop
   vertex 36.91456085961897 29.899999999999995 0.4
   vertex 36.91456085961897 29.899999999999995 0
   vertex 36.914560859618966 33.099999999999994 0.4
  endloop
 endfacet
 facet normal 0.0 1.0 -0.0
  outer loop
   vertex 18.47560078588866 31.498399999999993 0
   vertex 18.438685950906223 31.498399999999993 0
   vertex 18.47560078588866 31.498399999999993 0.4
  endloop
 endfacet
 facet normal 0.0 1.0 0.0
  outer loop
   vertex 18.438685950906223 31.498399999999993 0
   vertex 18.438685950906223 31.498399999999993 0.4
   vertex 18.47560078588866 31.498399999999993 0.4
  endloop
 endfacet
 facet normal 1.0 1.1102230246252787e-12 -0.0
  outer loop
   vertex 18.438685950906223 31.498399999999993 0
   vertex 18.43868595090622 31.501599999999993 0
   vertex 18.438685950906223 31.498399999999993 0.4
  endloop
 endfacet
 facet normal 1.0 1.1102230246252787e-12 -0.0
  outer loop
   vertex 18.43868595090622 31.501599999999993 0
   vertex 18.43868595090622 31.501599999999993 0.4
   vertex 18.438685950906223 31.498399999999993 0.4
  endloop
 endfacet
 facet normal 9.624081160027264e-14 -1.0 0.0
  outer loop
   vertex 18.43868595090622 31.501599999999993 0
   vertex 18.475600785888663 31.501599999999996 0
   vertex 18.43868595090622 31.501599999999993 0.4
  endloop
 endfacet
 facet normal 9.624081160027264e-14 -1.0 0.0
  outer loop
   vertex 18.475600785888663 31.501599999999996 0
   vertex 18.475600785888663 31.501599999999996 0.4
   vertex 18.43868595090622 31.501599999999993 0.4
  endloop
 endfacet
 facet normal -1.0 1.1102230246240462e-12 0.0
  outer loop
   vertex 18.475600785888663 31.501599999999996 0
   vertex 18.47560078588866 31.498399999999993 0
   vertex 18.475600785888663 31.501599999999996 0.4
  endloop
 endfacet
 facet normal -1.0 1.1102230246240462e-12 0.0
  outer loop
   vertex 18.47560078588866 31.498399999999993 0
   vertex 18.47560078588866 31.498399999999993 0.4
   vertex 18.475600785888663 31.501599999999996 0.4
  endloop
 endfacet
 facet normal 0.0 0.0 1.0
  outer loop
   vertex -0.0002741228240888458 29.89999999999999 0.4
   vertex 36.91456085961897 29.899999999999995 0.4
   vertex 18.47560078588866 31.498399999999993 0.4
  endloop
 endfacet
 facet normal -0.0 0.0 1.0
  outer loop
   vertex 18.438685950906223 31.498399999999993 0.4
   vertex -0.0002741228240888458 29.89999999999999 0.4
   vertex 18.47560078588866 31.498399999999993 0.4
  endloop
 endfacet
 facet normal 0.0 0.0 1.0
  outer loop
   vertex -0.00027412282408884015 33.099999999999994 0.4
   vertex -0.0002741228240888458 29.89999999999999 0.4
   vertex 18.438685950906223 31.498399999999993 0.4
  endloop
 endfacet
 facet normal 0.0 0.0 1.0
  outer loop
   vertex 18.43868595090622 31.501599999999993 0.4
   vertex -0.00027412282408884015 33.099999999999994 0.4
   vertex 18.438685950906223 31.498399999999993 0.4
  endloop
 endfacet
 facet normal 0.0 0.0 1.0
  outer loop
   vertex 36.914560859618966 33.099999999999994 0.4
   vertex -0.00027412282408884015 33.099999999999994 0.4
   vertex 18.43868595090622 31.501599999999993 0.4
  endloop
 endfacet
 facet normal 0.0 -0.0 1.0
  outer loop
   vertex 18.475600785888663 31.501599999999996 0.4
   vertex 36.914560859618966 33.099999999999994 0.4
   vertex 18.43868595090622 31.501599999999993 0.4
  endloop
 endfacet
 facet normal 0.0 0.0 1.0
  outer loop
   vertex 36.91456085961897 29.899999999999995 0.4
   vertex 36.914560859618966 33.099999999999994 0.4
   vertex 18.475600785888663 31.501599999999996 0.4
  endloop
 endfacet
 facet normal -0.0 0.0 1.0
  outer loop
   vertex 18.47560078588866 31.498399999999993 0.4
   vertex 36.91456085961897 29.899999999999995 0.4
   vertex 18.475600785888663 31.501599999999996 0.4
  endloop
 endfacet
 facet normal 0.0 0.0 -1.0
  outer loop
   vertex 100.99772587654178 29.899999999999995 0
   vertex 44.76285396686341 29.9 0
   vertex 72.90840735765742 31.4984 0
  endloop
 endfacet
 facet normal 0.0 0.0 -1.0
  outer loop
   vertex 44.76285396686341 29.9 0
   vertex 72.85217248574774 31.498399999999997 0
   vertex 72.90840735765742 31.4984 0
  endloop
 endfacet
 facet normal 0.0 0.0 -1.0
  outer loop
   vertex 44.76285396686341 29.9 0
   vertex 44.762853966863396 33.1 0
   vertex 72.85217248574774 31.498399999999997 0
  endloop
 endfacet
 facet normal 0.0 0.0 -1.0
  outer loop
   vertex 44.762853966863396 33.1 0
   vertex 72.85217248574774 31.5016 0
   vertex 72.85217248574774 31.498399999999997 0
  endloop
 endfacet
 facet normal 0.0 0.0 -1.0
  outer loop
   vertex 44.762853966863396 33.1 0
   vertex 100.99772587654176 33.1 0
   vertex 72.85217248574774 31.5016 0
  endloop
 endfacet
 facet normal 0.0 0.0 -1.0
  outer loop
   vertex 100.99772587654176 33.1 0
   vertex 72.90840735765742 31.5016 0
   vertex 72.85217248574774 31.5016 0
  endloop
 endfacet
 facet normal 0.0 -0.0 -1.0
  outer loop
   vertex 100.99772587654176 33.1 0
   vertex 100.99772587654178 29.899999999999995 0
   vertex 72.90840735765742 31.5016 0
  endloop
 endfacet
 facet normal 0.0 0.0 -1.0
  outer loop
   vertex 100.99772587654178 29.899999999999995 0
   vertex 72.90840735765742 31.4984 0
   vertex 72.90840735765742 31.5016 0
  endloop
 endfacet
 facet normal -6.317634517789409e-17 -1.0 0.0
  outer loop
   vertex 44.76285396686341 29.9 0
   vertex 100.99772587654178 29.899999999999995 0
   vertex 100.99772587654178 29.899999999999995 0.4
  endloop
 endfacet
 facet normal -6.317634517789409e-17 -1.0 -0.0
  outer loop
   vertex 44.76285396686341 29.9 0.4
   vertex 44.76285396686341 29.9 0
   vertex 100.99772587654178 29.899999999999995 0.4
  endloop
 endfacet
 facet normal -1.0 -4.440892098500622e-15 0.0
  outer loop
   vertex 44.762853966863396 33.1 0
   vertex 44.76285396686341 29.9 0
   vertex 44.76285396686341 29.9 0.4
  endloop
 endfacet
 facet normal -1.0 -4.440892098500622e-15 -0.0
  outer loop
   vertex 44.762853966863396 33.1 0.4
   vertex 44.762853966863396 33.1 0
   vertex 44.76285396686341 29.9 0.4
  endloop
 endfacet
 facet normal 0.0 1.0 0.0
  outer loop
   vertex 100.99772587654176 33.1 0
   vertex 44.762853966863396 33.1 0
   vertex 44.762853966863396 33.1 0.4
  endloop
 endfacet
 facet normal 0.0 1.0 0.0
  outer loop
   vertex 100.99772587654176 33.1 0.4
   vertex 100.99772587654176 33.1 0
   vertex 44.762853966863396 33.1 0.4
  endloop
 endfacet
 facet normal 1.0 4.440892098500617e-15 0.0
  outer loop
   vertex 100.99772587654178 29.899999999999995 0
   vertex 100.99772587654176 33.1 0
   vertex 100.99772587654176 33.1 0.4
  endloop
 endfacet
 facet normal 1.0 4.440892098500617e-15 0.0
  outer loop
   vertex 100.99772587654178 29.899999999999995 0.4
   vertex 100.99772587654178 29.899999999999995 0
   vertex 100.99772587654176 33.1 0.4
  endloop
 endfacet
 facet normal -6.317634517789187e-14 1.0 0.0
  outer loop
   vertex 72.90840735765742 31.4984 0
   vertex 72.85217248574774 31.498399999999997 0
   vertex 72.90840735765742 31.4984 0.4
  endloop
 endfacet
 facet normal -6.317634517789187e-14 1.0 0.0
  outer loop
   vertex 72.85217248574774 31.498399999999997 0
   vertex 72.85217248574774 31.498399999999997 0.4
   vertex 72.90840735765742 31.4984 0.4
  endloop
 endfacet
 facet normal 1.0 0.0 0.0
  outer loop
   vertex 72.85217248574774 31.498399999999997 0
   vertex 72.85217248574774 31.5016 0
   vertex 72.85217248574774 31.498399999999997 0.4
  endloop
 endfacet
 facet normal 1.0 0.0 -0.0
  outer loop
   vertex 72.85217248574774 31.5016 0
   vertex 72.85217248574774 31.5016 0.4
   vertex 72.85217248574774 31.498399999999997 0.4
  endloop
 endfacet
 facet normal 0.0 -1.0 0.0
  outer loop
   vertex 72.85217248574774 31.5016 0
   vertex 72.90840735765742 31.5016 0
   vertex 72.85217248574774 31.5016 0.4
  endloop
 endfacet
 facet normal 0.0 -1.0 0.0
  outer loop
   vertex 72.90840735765742 31.5016 0
   vertex 72.90840735765742 31.5016 0.4
   vertex 72.85217248574774 31.5016 0.4
  endloop
 endfacet
 facet normal -1.0 0.0 0.0
  outer loop
   vertex 72.90840735765742 31.5016 0
   vertex 72.90840735765742 31.4984 0
   vertex 72.90840735765742 31.5016 0.4
  endloop
 endfacet
 facet normal -1.0 0.0 0.0
  outer loop
   vertex 72.90840735765742 31.4984 0
   vertex 72.90840735765742 31.4984 0.4
   vertex 72.90840735765742 31.5016 0.4
  endloop
 endfacet
 facet normal -0.0 0.0 1.0
  outer loop
   vertex 44.76285396686341 29.9 0.4
   vertex 100.99772587654178 29.899999999999995 0.4
   vertex 72.90840735765742 31.4984 0.4
  endloop
 endfacet
 facet normal -0.0 0.0 1.0
  outer loop
   vertex 72.85217248574774 31.498399999999997 0.4
   vertex 44.76285396686341 29.9 0.4
   vertex 72.90840735765742 31.4984 0.4
  endloop
 endfacet
 facet normal 0.0 0.0 1.0
  outer loop
   vertex 44.762853966863396 33.1 0.4
   vertex 44.76285396686341 29.9 0.4
   vertex 72.85217248574774 31.498399999999997 0.4
  endloop
 endfacet
 facet normal 0.0 0.0 1.0
  outer loop
   vertex 72.85217248574774 31.5016 0.4
   vertex 44.762853966863396 33.1 0.4
   vertex 72.85217248574774 31.498399999999997 0.4
  endloop
 endfacet
 facet normal 0.0 0.0 1.0
  outer loop
   vertex 100.99772587654176 33.1 0.4
   vertex 44.762853966863396 33.1 0.4
   vertex 72.85217248574774 31.5016 0.4
  endloop
 endfacet
 facet normal 0.0 -0.0 1.0
  outer loop
   vertex 72.90840735765742 31.5016 0.4
   vertex 100.99772587654176 33.1 0.4
   vertex 72.85217248574774 31.5016 0.4
  endloop
 endfacet
 facet normal 0.0 0.0 1.0
  outer loop
   vertex 100.99772587654178 29.899999999999995 0.4
   vertex 100.99772587654176 33.1 0.4
   vertex 72.90840735765742 31.5016 0.4
  endloop
 endfacet
 facet normal -0.0 0.0 1.0
  outer loop
   vertex 72.90840735765742 31.4984 0.4
   vertex 100.99772587654178 29.899999999999995 0.4
   vertex 72.90840735765742 31.5016 0.4
  endloop
 endfacet
endsolid
